<?xml version="1.0" encoding="utf-8"?>
<!-- Generator: Adobe Illustrator 22.1.0, SVG Export Plug-In . SVG Version: 6.00 Build 0)  -->
<svg version="1.1" id="Layer_1" xmlns="http://www.w3.org/2000/svg" xmlns:xlink="http://www.w3.org/1999/xlink" x="0px" y="0px"
	 viewBox="0 0 256 256" style="enable-background:new 0 0 256 256;" xml:space="preserve">
<g style="opacity:0;">
	<path style="fill:#FFFFFF;" d="M161.3,159c-19.4,69.6-149.2,33.4-149.2,33.4s20.8-54.4,66-86.8c0.6-0.4,1.3-0.9,1.9-1.3
		c33.8-22.5,64.1,1.4,76.6,14c4,4.1,6.6,9.5,7,15.2C164.2,143.3,163.3,151.7,161.3,159z"/>
	<path style="fill:#FFFFFF;" d="M237.7,119.3c-0.1,1.1-0.2,2.2-0.5,3.3c-0.4,2.1-1.2,4.1-2.2,6c-18.5,35.1-46.4,38.9-73.8,30.3
		c1.7-6,2.5-12.8,2.4-20.6c0-1.6-0.1-3.2-0.2-4.9c0-0.1,0-0.3,0-0.4c-0.5-5.6-3-10.8-6.9-14.8c-11.7-11.9-39.1-33.7-70.3-17.7
		c-1.7,0.9-3.5,1.9-5.2,3c-0.3,0.2-0.7,0.4-1,0.7c-3-3-4.7-4.8-4.7-4.8s46.2-35.5,101.6-39.4c42.4-3,56.1,34.3,60.2,51.9
		C237.7,114.5,237.8,116.9,237.7,119.3z"/>
</g>
<g>
	<path style="opacity:0.1;" d="M237.7,119.3c-0.1,1.1-0.2,2.2-0.5,3.3c-0.4,2.1-1.2,4.1-2.2,6c-18.5,35.1-46.4,38.9-73.8,30.3
		c1.7-6,2.5-12.8,2.4-20.6c0-1.6-0.1-3.2-0.2-4.9c0-0.1,0-0.3,0-0.4c-0.5-5.6-3-10.8-6.9-14.8c-11.7-11.9-39.1-33.7-70.3-17.7
		c-1.7,0.9-3.5,1.9-5.2,3c-0.3,0.2-0.7,0.4-1,0.7c-3-3-4.7-4.8-4.7-4.8s46.2-35.5,101.6-39.4c42.4-3,56.1,34.3,60.2,51.9
		C237.7,114.5,237.8,116.9,237.7,119.3z"/>
	<g style="opacity:0.1;">
		<g>
			<path d="M81.1,98.2c0.1,0.1,1.9,1,5.1,2.5c-1.7,0.9-3.5,1.9-5.2,3c-1.4-0.7-2.1-1-2.2-1.1c-1.2-0.6-1.7-2.1-1.1-3.4
				C78.4,98,79.9,97.5,81.1,98.2z"/>
			<path d="M237.2,122.6c0,0-0.1,0.1-0.1,0.1c-1.2,0.9-25,18.4-54.2,18.4c-6.2,0-12.7-0.8-19.2-2.7c0-1.6-0.1-3.2-0.2-4.9
				c0-0.1,0-0.3,0-0.4c0.2,0,0.3,0.1,0.5,0.2c35.3,11.1,69.8-14.3,70.2-14.5c1.1-0.8,2.7-0.6,3.5,0.5c0,0,0,0.1,0.1,0.1
				C238.4,120.4,238.2,121.8,237.2,122.6z"/>
		</g>
		<g>
			<path d="M189.1,110.6c-0.3,0-0.5,0-0.8-0.1c-0.3-0.1-25.2-8-42.9-5c-1.4,0.2-2.7-0.7-2.9-2c-0.2-1.4,0.7-2.7,2-2.9
				c18.9-3.2,44.2,4.8,45.3,5.1c1.3,0.4,2,1.8,1.6,3.1C191.1,109.9,190.1,110.6,189.1,110.6z"/>
		</g>
		<g>
			<path d="M211.8,99.4c-0.6,0-1.3-0.2-1.8-0.7c-2.9-2.9-12-10.1-18.4-8.4c-1.3,0.3-2.7-0.5-3-1.8c-0.3-1.3,0.5-2.7,1.8-3
				c10.5-2.6,22.7,9.2,23.2,9.7c1,1,1,2.6,0,3.5C213.1,99.2,212.4,99.4,211.8,99.4z"/>
		</g>
		<g>
			<path d="M127.4,94.1c-0.8,0-1.5-0.4-2-1c-0.8-1.1-0.5-2.7,0.6-3.5c10.6-7.6,22.2-5.5,22.7-5.4c1.4,0.3,2.2,1.6,2,2.9
				c-0.3,1.4-1.6,2.2-2.9,2c-0.2,0-10-1.8-18.8,4.6C128.5,93.9,128,94.1,127.4,94.1z"/>
		</g>
		<g>
			<path d="M154.7,83.1c-0.7,0-1.3-0.3-1.8-0.8c-0.9-1-0.9-2.6,0.1-3.5c7.4-6.8,20.7-4.3,21.2-4.2c1.4,0.3,2.2,1.6,2,2.9
				c-0.3,1.4-1.6,2.2-2.9,2l0,0c-0.1,0-11.3-2.1-16.9,3C155.9,82.9,155.3,83.1,154.7,83.1z"/>
		</g>
		<g>
			<path d="M192.4,128.8c-0.4,0-0.8,0-1.3,0c-1.4-0.1-2.4-1.3-2.3-2.7c0.1-1.4,1.3-2.4,2.7-2.3c7.8,0.6,12.7-6.2,12.7-6.3
				c0.8-1.1,2.4-1.4,3.5-0.6c1.1,0.8,1.4,2.4,0.6,3.5C208,120.8,202.2,128.8,192.4,128.8z"/>
		</g>
	</g>
	<g>
		<g style="opacity:0.1;">
			<path d="M16.6,193.2c-1.3,0-2.4-1-2.5-2.3c-0.1-1.4,0.9-2.6,2.3-2.7c0.5,0,52.1-4.2,89-13.5c35.8-9,52-48.7,52.1-49.1
				c0.5-1.3,2-1.9,3.2-1.4c1.3,0.5,1.9,2,1.4,3.2c-0.7,1.7-17.3,42.5-55.6,52.1c-37.3,9.4-89.3,13.6-89.8,13.6
				C16.7,193.2,16.7,193.2,16.6,193.2z"/>
		</g>
		<g style="opacity:0.1;">
			<path d="M73.3,161.4c-0.7,0-1.4-0.3-1.9-0.9c-0.9-1-0.8-2.6,0.2-3.5c14.4-12.6,40.2-19.1,41.3-19.3c1.3-0.3,2.7,0.5,3,1.8
				c0.3,1.3-0.5,2.7-1.8,3c-0.3,0.1-25.7,6.4-39.2,18.2C74.5,161.2,73.9,161.4,73.3,161.4z"/>
		</g>
		<g style="opacity:0.1;">
			<path d="M104.6,124.4c-0.6,0-1.3-0.2-1.7-0.7c-1-1-1-2.5,0-3.5c7.6-7.7,24.1-4,24.8-3.9c1.3,0.3,2.2,1.7,1.9,3
				c-0.3,1.3-1.7,2.2-3,1.9c-4-0.9-15.5-2.3-20.1,2.5C105.9,124.1,105.2,124.4,104.6,124.4z"/>
		</g>
		<g style="opacity:0.1;">
			<path d="M52.4,160.8c-0.3,0-0.7-0.1-1-0.2c-1.3-0.5-1.9-2-1.3-3.3c5.1-12.1,16-16.3,16.5-16.5c1.3-0.5,2.7,0.2,3.2,1.5
				c0.5,1.3-0.2,2.7-1.5,3.2c-0.1,0.1-9.4,3.7-13.6,13.7C54.3,160.3,53.4,160.8,52.4,160.8z"/>
		</g>
		<g style="opacity:0.1;">
			<path d="M69.9,137.2c-0.2,0-0.5,0-0.7-0.1c-1.3-0.4-2.1-1.8-1.7-3.1c2.7-9.7,15.3-14.5,15.9-14.7c1.3-0.5,2.7,0.2,3.2,1.5
				c0.5,1.3-0.2,2.7-1.5,3.2c-0.2,0.1-10.8,4.2-12.8,11.4C72,136.4,71,137.2,69.9,137.2z"/>
		</g>
		<g style="opacity:0.1;">
			<path d="M125,156.9c-0.9,0-1.8-0.5-2.2-1.3c-0.6-1.2-0.2-2.7,1.1-3.4c6.8-3.6,7.5-12,7.6-12.1c0.1-1.4,1.3-2.4,2.7-2.3
				c1.4,0.1,2.4,1.3,2.3,2.7c0,0.5-0.9,11.3-10.2,16.1C125.8,156.9,125.4,156.9,125,156.9z"/>
		</g>
	</g>
</g>
</svg>
