<?xml version="1.0" encoding="utf-8"?>
<!-- Generator: Adobe Illustrator 22.1.0, SVG Export Plug-In . SVG Version: 6.00 Build 0)  -->
<svg version="1.1" id="Layer_1" xmlns="http://www.w3.org/2000/svg" xmlns:xlink="http://www.w3.org/1999/xlink" x="0px" y="0px"
	 viewBox="0 0 256 256" style="enable-background:new 0 0 256 256;" xml:space="preserve">
<g style="opacity:0;">
	<path style="fill:#F4A338;" d="M243.8,135.3c-30.1,108.1-231.7,51.9-231.7,51.9s32.3-84.5,102.5-134.8c0.9-0.6,2-1.4,3-2
		c52.5-34.9,99.5,2.2,119,21.7c6.2,6.4,10.2,14.8,10.9,23.6C248.3,110.9,246.9,124,243.8,135.3z"/>
</g>
<g>
	<g>
		<g style="opacity:0.1;">
			<path d="M19.1,188.4c-2,0-3.7-1.6-3.9-3.6c-0.2-2.2,1.4-4,3.6-4.2c0.8,0,80.9-6.5,138.2-21c55.6-14,80.8-75.6,80.9-76.3
				c0.8-2,3.1-3,5-2.2c2,0.8,3,3.1,2.2,5c-1.1,2.6-26.9,66-86.3,80.9C100.8,181.8,20,188.3,19.1,188.4
				C19.2,188.4,19.2,188.4,19.1,188.4z"/>
		</g>
		<g style="opacity:0.1;">
			<path d="M107.1,139.1c-1.1,0-2.2-0.5-3-1.4c-1.4-1.6-1.2-4,0.3-5.4c22.4-19.6,62.4-29.7,64.1-30c2-0.5,4.2,0.8,4.7,2.8
				c0.5,2-0.8,4.2-2.8,4.7c-0.5,0.2-39.9,9.9-60.9,28.3C109,138.7,108.1,139.1,107.1,139.1z"/>
		</g>
		<g style="opacity:0.1;">
			<path d="M155.8,81.6c-0.9,0-2-0.3-2.6-1.1c-1.6-1.6-1.6-3.9,0-5.4c11.8-12,37.4-6.2,38.5-6.1c2,0.5,3.4,2.6,3,4.7
				c-0.5,2-2.6,3.4-4.7,3c-6.2-1.4-24.1-3.6-31.2,3.9C157.8,81.1,156.7,81.6,155.8,81.6z"/>
		</g>
		<g style="opacity:0.1;">
			<path d="M74.7,138.1c-0.5,0-1.1-0.2-1.6-0.3c-2-0.8-3-3.1-2-5.1c7.9-18.8,24.8-25.3,25.6-25.6c2-0.8,4.2,0.3,5,2.3
				c0.8,2-0.3,4.2-2.3,5c-0.2,0.2-14.6,5.7-21.1,21.3C77.6,137.3,76.2,138.1,74.7,138.1z"/>
		</g>
		<g style="opacity:0.1;">
			<path d="M101.9,101.5c-0.3,0-0.8,0-1.1-0.2c-2-0.6-3.3-2.8-2.6-4.8c4.2-15.1,23.8-22.5,24.7-22.8c2-0.8,4.2,0.3,5,2.3
				c0.8,2-0.3,4.2-2.3,5c-0.3,0.2-16.8,6.5-19.9,17.7C105.1,100.2,103.6,101.5,101.9,101.5z"/>
		</g>
		<g style="opacity:0.1;">
			<path d="M187.4,132.1c-1.4,0-2.8-0.8-3.4-2c-0.9-1.9-0.3-4.2,1.7-5.3c10.6-5.6,11.6-18.6,11.8-18.8c0.2-2.2,2-3.7,4.2-3.6
				c2.2,0.2,3.7,2,3.6,4.2c0,0.8-1.4,17.5-15.8,25C188.7,132.1,188.1,132.1,187.4,132.1z"/>
		</g>
	</g>
</g>
</svg>
