<?xml version="1.0" encoding="utf-8"?>
<!-- Generator: Adobe Illustrator 22.1.0, SVG Export Plug-In . SVG Version: 6.00 Build 0)  -->
<svg version="1.1" id="Layer_1" xmlns="http://www.w3.org/2000/svg" xmlns:xlink="http://www.w3.org/1999/xlink" x="0px" y="0px"
	 viewBox="0 0 256 256" style="enable-background:new 0 0 256 256;" xml:space="preserve">
<g>
	<path style="fill:#774717;" d="M174.6,66.3v114.3c0,3.1-2.5,5.6-5.6,5.6H87c-3.1,0-5.6-2.5-5.6-5.6V66.3
		c0-25.7,20.9-46.6,46.6-46.6c12.9,0,24.5,5.2,33,13.6C169.4,41.8,174.6,53.5,174.6,66.3z"/>
</g>
<g style="opacity:0;">
	<path style="fill:#FFC897;" d="M138.8,186.2v40.5c0,5.3-4.3,9.5-9.5,9.5h-2.6c-5.2,0-9.5-4.3-9.5-9.5v-40.5H138.8z"/>
	<g style="opacity:0.3;">
		<path style="fill:#FFFFFF;" d="M161.7,51.7c-1,0-2-0.5-2.5-1.4c-9.8-15.3-27.6-18.8-27.7-18.9c-1.6-0.3-2.7-1.9-2.4-3.5
			s1.9-2.7,3.5-2.4c0.8,0.2,20.5,4.1,31.7,21.5c0.9,1.4,0.5,3.3-0.9,4.1C162.8,51.5,162.3,51.7,161.7,51.7z"/>
	</g>
</g>
</svg>
