<?xml version="1.0" encoding="utf-8"?>
<!-- Generator: Adobe Illustrator 22.1.0, SVG Export Plug-In . SVG Version: 6.00 Build 0)  -->
<svg version="1.1" id="Layer_1" xmlns="http://www.w3.org/2000/svg" xmlns:xlink="http://www.w3.org/1999/xlink" x="0px" y="0px"
	 viewBox="0 0 256 256" style="enable-background:new 0 0 256 256;" xml:space="preserve">
<g>
	<path style="fill:#FFBE4A;" d="M181.5,117.8V209c0,15.6-12.7,28.3-28.3,28.3H82.4c-15.6,0-28.3-12.7-28.3-28.3v-91.3h127.4V117.8z"
		/>
</g>
<g style="opacity:0;">
	<circle style="fill:#F7F7F7;" cx="138.7" cy="44.9" r="25.6"/>
	<path style="fill:none;stroke:#E5F9F8;stroke-width:15;stroke-linecap:round;stroke-linejoin:round;stroke-miterlimit:10;" d="
		M181.5,80.1h34.8c9,0,16.3,7.3,16.3,16.3v40.5c0,9.5-3.6,18.6-10,25.6l-33,36.9"/>
	<path style="fill:#E5F9F8;" d="M45.7,61.8v150.4c0,18.4,14.9,33.3,33.3,33.3h77.5c18.4,0,33.3-14.9,33.3-33.3V61.8H45.7z
		 M181.5,209c0,15.6-12.7,28.3-28.3,28.3H82.4c-15.6,0-28.3-12.7-28.3-28.3v-91.3h127.4V209z"/>
	<circle style="fill:#F7F7F7;" cx="59.5" cy="67.1" r="19.7"/>
	<circle style="fill:#F7F7F7;" cx="106.9" cy="50.7" r="19.7"/>
	<circle style="fill:#F7F7F7;" cx="79.2" cy="38.6" r="19.7"/>
	<circle style="fill:#F7F7F7;" cx="168.7" cy="69" r="19.7"/>
	<circle style="fill:#EAEAEA;" cx="121.5" cy="44.7" r="12.9"/>
	<circle style="fill:#EAEAEA;" cx="66.3" cy="51.5" r="12.9"/>
	<circle style="fill:#EAEAEA;" cx="142.9" cy="57.6" r="12.9"/>
	<circle style="fill:#F7F7F7;" cx="101.8" cy="58.3" r="19.7"/>
	<circle style="fill:#F7F7F7;" cx="126.6" cy="67.1" r="19.7"/>
	<circle style="fill:#F7F7F7;" cx="172.8" cy="22.6" r="8.5"/>
	<circle style="fill:#F7F7F7;" cx="168.7" cy="51.5" r="12.9"/>
	<circle style="fill:#F7F7F7;" cx="159.1" cy="70.4" r="12.9"/>
	<circle style="fill:#F7F7F7;" cx="185.6" cy="57.6" r="12.9"/>
	<circle style="fill:#F7F7F7;" cx="146.3" cy="78" r="12.9"/>
	<circle style="fill:#F7F7F7;" cx="82.2" cy="70.4" r="19.7"/>
	<path style="opacity:0.5;fill:#FFFFFF;enable-background:new    ;" d="M66.3,146L66.3,146c-3.5,0-6.4-2.9-6.4-6.4V95.9
		c0-3.5,2.9-6.4,6.4-6.4l0,0c3.5,0,6.4,2.9,6.4,6.4v43.7C72.7,143.2,69.9,146,66.3,146z"/>
	<circle style="fill:#F7F7F7;" cx="91.9" cy="10.1" r="3.8"/>
	<g style="opacity:0.1;">
		<path d="M181.5,117.8V209c0,15.6-12.7,28.3-28.3,28.3h-49.5l11.2-6c17.3-9.2,28.1-27.2,28.1-46.8v-66.9h38.5V117.8z"/>
	</g>
	<circle style="opacity:0.1;enable-background:new    ;" cx="128.5" cy="158.6" r="6.9"/>
	<circle style="opacity:0.1;enable-background:new    ;" cx="75.2" cy="160.6" r="6.9"/>
	<circle style="opacity:0.1;enable-background:new    ;" cx="101.3" cy="203.8" r="4.7"/>
	<circle style="opacity:0.1;enable-background:new    ;" cx="113.1" cy="129.2" r="4.7"/>
</g>
</svg>
