<?xml version="1.0" encoding="utf-8"?>
<!-- Generator: Adobe Illustrator 22.1.0, SVG Export Plug-In . SVG Version: 6.00 Build 0)  -->
<svg version="1.1" id="Layer_1" xmlns="http://www.w3.org/2000/svg" xmlns:xlink="http://www.w3.org/1999/xlink" x="0px" y="0px"
	 viewBox="0 0 256 256" style="enable-background:new 0 0 256 256;" xml:space="preserve">
<g>
	<g>
		<path style="fill:#FF9327;" d="M48.4,235.7c-2.5,0-4.5-2-4.5-4.5V94H27.8C17.2,94,8.5,86.7,8.5,77.9v-4.2
			c0-23.2,20.7-43.4,49.2-47.9c23.1-3.6,46.8-5.5,70.3-5.5s47.1,1.8,70.3,5.5c13.7,2.2,26.1,8,35,16.6c9.2,8.7,14.2,19.9,14.2,31.3
			v4.2c0,8.9-8.7,16.1-19.3,16.1h-16.1v137.2c0,2.5-2,4.5-4.5,4.5L48.4,235.7L48.4,235.7z"/>
		<path style="fill:#FF9327;" d="M128,24.8c23.3,0,46.6,1.8,69.6,5.4c13.2,2.1,24.6,7.7,32.6,15.4c8.1,7.7,12.8,17.5,12.8,28.1v4.2
			c0,6.4-6.6,11.6-14.8,11.6h-20.6v141.7H48.4V89.5H27.8c-8.2,0-14.8-5.2-14.8-11.6v-4.2c0-21.1,19-39.3,45.4-43.4
			C81.4,26.6,104.7,24.8,128,24.8 M128,15.8c-23.7,0-47.6,1.9-71,5.5C42.4,23.6,29.1,29.9,19.5,39C9.5,48.7,4,61,4,73.7v4.2
			c0,11.4,10.7,20.6,23.8,20.6h11.6v132.7c0,5,4,9,9,9h159.1c5,0,9-4,9-9V98.5h11.6c13.1,0,23.8-9.2,23.8-20.6v-4.2
			c0-12.7-5.5-25-15.6-34.6c-9.5-9.1-22.8-15.4-37.4-17.7C175.6,17.7,151.7,15.8,128,15.8L128,15.8z"/>
	</g>
</g>
<g style="opacity:0;">
	<g style="opacity:0.7;">
		<g>
			<path style="fill:#FFFFFF;" d="M230.2,45.6c-8-7.7-19.4-13.3-32.6-15.4c-23-3.6-46.3-5.4-69.6-5.4s-46.6,1.8-69.6,5.4
				C32,34.4,13,52.6,13,73.7v4.2c0,6.4,6.6,11.6,14.8,11.6h20.6v141.7h159.1V89.5h20.6c8.2,0,14.8-5.2,14.8-11.6v-4.2
				C243,63.1,238.3,53.3,230.2,45.6z M78.3,208.8c-6.9,0-12.4-5.6-12.4-12.4c0-6.9,5.6-12.4,12.4-12.4s12.4,5.6,12.4,12.4
				C90.7,203.2,85.1,208.8,78.3,208.8z M84.5,115.6c-3.4,0-6.2-2.8-6.2-6.2s2.8-6.2,6.2-6.2c3.4,0,6.2,2.8,6.2,6.2
				S87.9,115.6,84.5,115.6z M135.5,196.4c-3.4,0-6.2-2.8-6.2-6.2s2.8-6.2,6.2-6.2s6.2,2.8,6.2,6.2
				C141.7,193.6,138.9,196.4,135.5,196.4z M147.9,124.3c-4.1,0-7.5-3.3-7.5-7.5s3.3-7.5,7.5-7.5s7.5,3.3,7.5,7.5
				S152,124.3,147.9,124.3z M155.3,60.9c-3.4,0-6.2-2.8-6.2-6.2s2.8-6.2,6.2-6.2s6.2,2.8,6.2,6.2S158.8,60.9,155.3,60.9z M179,159.1
				c-3.4,0-6.2-2.8-6.2-6.2s2.8-6.2,6.2-6.2s6.2,2.8,6.2,6.2S182.4,159.1,179,159.1z"/>
		</g>
	</g>
	<circle style="opacity:0.1;enable-background:new    ;" cx="78.3" cy="196.4" r="12.4"/>
	<path style="opacity:0.1;enable-background:new    ;" d="M90.7,109.3c0,3.4-2.8,6.2-6.2,6.2c-3.4,0-6.2-2.8-6.2-6.2
		s2.8-6.2,6.2-6.2C87.9,103.1,90.7,105.9,90.7,109.3z"/>
	<path style="opacity:0.1;enable-background:new    ;" d="M141.7,190.2c0,3.4-2.8,6.2-6.2,6.2s-6.2-2.8-6.2-6.2s2.8-6.2,6.2-6.2
		S141.7,186.7,141.7,190.2z"/>
	<path style="opacity:0.1;enable-background:new    ;" d="M185.2,152.9c0,3.4-2.8,6.2-6.2,6.2s-6.2-2.8-6.2-6.2s2.8-6.2,6.2-6.2
		C182.4,146.6,185.2,149.4,185.2,152.9z"/>
	<path style="opacity:0.1;enable-background:new    ;" d="M161.6,54.6c0,3.4-2.8,6.2-6.2,6.2s-6.2-2.8-6.2-6.2s2.8-6.2,6.2-6.2
		C158.8,48.4,161.6,51.2,161.6,54.6z"/>
	<ellipse style="opacity:0.1;enable-background:new    ;" cx="147.9" cy="116.8" rx="7.5" ry="7.5"/>
</g>
</svg>
