<?xml version="1.0" encoding="utf-8"?>
<!-- Generator: Adobe Illustrator 22.1.0, SVG Export Plug-In . SVG Version: 6.00 Build 0)  -->
<svg version="1.1" id="Layer_1" xmlns="http://www.w3.org/2000/svg" xmlns:xlink="http://www.w3.org/1999/xlink" x="0px" y="0px"
	 viewBox="0 0 256 256" style="enable-background:new 0 0 256 256;" xml:space="preserve">
<g>
	<path style="fill:#D98A25;" d="M186.7,234H69.3c-24.9,0-45.1-20.2-45.1-45.1l0,0h207.6l0,0C231.8,213.8,211.6,234,186.7,234z"/>
	<path style="fill:#D98A25;" d="M128,33.3L128,33.3C70.7,33.3,24.2,79.7,24.2,137l0,0h207.6l0,0C231.8,79.7,185.3,33.3,128,33.3z"/>
</g>
<g style="opacity:0;">
	<path style="fill:#663012;" d="M218.8,176H37.2c-7.2,0-13-5.8-13-13l0,0c0-7.2,5.8-13,13-13h181.6c7.2,0,13,5.8,13,13l0,0
		C231.8,170.2,226,176,218.8,176z"/>
	<path style="fill:#FFD833;" d="M212.3,150H43.7c-3.6,0-6.5-2.9-6.5-6.5l0,0c0-3.6,2.9-6.5,6.5-6.5h168.7c3.6,0,6.5,2.9,6.5,6.5l0,0
		C218.8,147.1,215.9,150,212.3,150z"/>
	<path style="fill:#54CC37;" d="M209.5,188.9H40.8c-3.6,0-6.5-2.9-6.5-6.5l0,0c0-3.6,2.9-6.5,6.5-6.5h168.7c3.6,0,6.5,2.9,6.5,6.5
		l0,0C215.9,186,213,188.9,209.5,188.9z"/>
	<path style="fill:#FFD833;" d="M65.3,176L65.3,176c-2.8,0-5-2.3-5-5v-23.1c0-2.8,2.3-5,5-5l0,0c2.8,0,5,2.3,5,5V171
		C70.3,173.7,68.1,176,65.3,176z"/>
	<path style="fill:#FFD833;" d="M73.9,164.4L73.9,164.4c-2.8,0-5-2.3-5-5v-11.5c0-2.8,2.3-5,5-5l0,0c2.8,0,5,2.3,5,5v11.5
		C79,162.2,76.7,164.4,73.9,164.4z"/>
	<circle style="fill:#54CC37;" cx="63.1" cy="194.7" r="15.9"/>
	<circle style="fill:#54CC37;" cx="194.3" cy="188.9" r="7.2"/>
</g>
</svg>
