<?xml version="1.0" encoding="utf-8"?>
<!-- Generator: Adobe Illustrator 22.1.0, SVG Export Plug-In . SVG Version: 6.00 Build 0)  -->
<svg version="1.1" id="Layer_1" xmlns="http://www.w3.org/2000/svg" xmlns:xlink="http://www.w3.org/1999/xlink" x="0px" y="0px"
	 viewBox="0 0 256 256" style="enable-background:new 0 0 256 256;" xml:space="preserve">
<g style="opacity:0;">
	<circle style="fill:#FF5F5F;" cx="166.1" cy="75.1" r="7.8"/>
	<circle style="fill:#FF5F5F;" cx="198.1" cy="75.1" r="7.8"/>
	<circle style="fill:#FF5F5F;" cx="228.6" cy="75.1" r="7.8"/>
	<circle style="fill:#FF5F5F;" cx="109.3" cy="75.1" r="7.8"/>
	<circle style="fill:#FF5F5F;" cx="76.8" cy="75.1" r="7.8"/>
	<circle style="fill:#FF5F5F;" cx="43.3" cy="75.1" r="7.8"/>
	<circle style="fill:#FF5F5F;" cx="136" cy="71.5" r="11"/>
	<path style="fill:#FF5F5F;" d="M246,133.9v32.6c-0.6-0.4-1.3-0.6-2-0.6H25.5c-0.3,0-0.7,0-1,0.1v-31.7c0.3,0.1,0.7,0.1,1,0.1H244
		C244.7,134.5,245.4,134.3,246,133.9z"/>
	<path style="fill:#FF5F5F;" d="M247.5,131c0,1.2-0.6,2.2-1.5,2.9c-0.6,0.4-1.3,0.6-2,0.6H25.5c-0.3,0-0.7,0-1-0.1
		c-1.4-0.4-2.5-1.8-2.5-3.4c0-1.6,1.1-2.9,2.5-3.3c0.3-0.1,0.7-0.2,1-0.2H244c0.7,0,1.4,0.2,2,0.6
		C246.9,128.8,247.5,129.8,247.5,131z"/>
	<path style="fill:#FF5F5F;" d="M247.5,169.4c0,1.2-0.6,2.2-1.5,2.9c-0.6,0.4-1.3,0.6-2,0.6H25.5c-0.3,0-0.7-0.1-1-0.2
		c-1.4-0.4-2.5-1.8-2.5-3.3c0-1.6,1.1-2.9,2.5-3.4c0.3-0.1,0.7-0.1,1-0.1H244c0.7,0,1.4,0.2,2,0.6
		C246.9,167.1,247.5,168.2,247.5,169.4z"/>
</g>
<g>
	<path style="fill:#FFED92;" d="M246,91.1v37c-0.6-0.4-1.3-0.6-2-0.6H25.5c-0.3,0-0.7,0.1-1,0.2V91.1H246z"/>
	<path style="fill:#FFED92;" d="M246,172.2v37H24.5v-36.6c0.3,0.1,0.7,0.2,1,0.2H244C244.7,172.9,245.4,172.6,246,172.2z"/>
	<g>
		<path style="fill:#F7F7F7;" d="M251,86.1c0,4.4-3.6,8-8,8H24.5c-4.4,0-8-3.6-8-8s3.6-8,8-8H243C247.4,78.1,251,81.7,251,86.1z"/>
	</g>
	<path style="opacity:0.1;enable-background:new    ;" d="M173.9,75.1c0,1.1-0.2,2.1-0.6,3H159c-0.4-0.9-0.6-1.9-0.6-3
		c0-4.3,3.5-7.8,7.8-7.8C170.4,67.4,173.9,70.9,173.9,75.1z"/>
	<path style="opacity:0.1;enable-background:new    ;" d="M205.9,75.1c0,1.1-0.2,2.1-0.6,3H191c-0.4-0.9-0.6-1.9-0.6-3
		c0-4.3,3.5-7.8,7.8-7.8C202.4,67.4,205.9,70.9,205.9,75.1z"/>
	<path style="opacity:0.1;enable-background:new    ;" d="M236.4,75.1c0,1.1-0.2,2.1-0.6,3h-14.3c-0.4-0.9-0.6-1.9-0.6-3
		c0-4.3,3.5-7.8,7.8-7.8C232.9,67.4,236.4,70.9,236.4,75.1z"/>
	<path style="opacity:0.1;enable-background:new    ;" d="M117,75.1c0,1.1-0.2,2.1-0.6,3h-14.3c-0.4-0.9-0.6-1.9-0.6-3
		c0-4.3,3.5-7.8,7.8-7.8C113.6,67.4,117,70.9,117,75.1z"/>
	<path style="opacity:0.1;enable-background:new    ;" d="M84.5,75.1c0,1.1-0.2,2.1-0.6,3H69.6c-0.4-0.9-0.6-1.9-0.6-3
		c0-4.3,3.5-7.8,7.8-7.8C81.1,67.4,84.5,70.9,84.5,75.1z"/>
	<path style="opacity:0.1;enable-background:new    ;" d="M51,75.1c0,1.1-0.2,2.1-0.6,3H36.1c-0.4-0.9-0.6-1.9-0.6-3
		c0-4.3,3.5-7.8,7.8-7.8C47.6,67.4,51,70.9,51,75.1z"/>
	<path style="opacity:0.1;enable-background:new    ;" d="M246,133.9v32.6c-0.6-0.4-1.3-0.6-2-0.6H25.5c-0.3,0-0.7,0-1,0.1v-31.7
		c0.3,0.1,0.7,0.1,1,0.1H244C244.7,134.5,245.4,134.3,246,133.9z"/>
</g>
</svg>
