<?xml version="1.0" encoding="utf-8"?>
<!-- Generator: Adobe Illustrator 22.1.0, SVG Export Plug-In . SVG Version: 6.00 Build 0)  -->
<svg version="1.1" id="Layer_1" xmlns="http://www.w3.org/2000/svg" xmlns:xlink="http://www.w3.org/1999/xlink" x="0px" y="0px"
	 viewBox="0 0 256 256" style="enable-background:new 0 0 256 256;" xml:space="preserve">
<g>
	<path style="fill:#FF3631;" d="M118,219.6l-11,19.1l-29.7-6.4c0.3-1.4,0.8-2.9,1.6-4.2l8.6-15L118,219.6z"/>
	<polygon style="fill:#FF3631;" points="138.7,183.5 127.7,202.6 97.3,196 108.3,176.9 	"/>
	<polygon style="fill:#FF3631;" points="159.7,146.9 148.8,166 118.4,159.4 129.3,140.3 	"/>
	<polygon style="fill:#FF3631;" points="180.5,110.8 169.5,129.9 139.1,123.3 150.1,104.2 	"/>
	<path style="fill:#FF3631;" d="M192.2,75.8c-0.2,6.9-1.6,13.9-4.3,20.6l-28.7-8.3c3.3-6.7,4.1-14.1,2.7-21.1L192.2,75.8z"/>
	<path style="fill:#FF3631;" d="M186.6,47.5l-26.4,13.7c-2.6-6.6-7.4-12.5-14-16.4L174.9,30C179.8,35.2,183.8,41.1,186.6,47.5z"/>
	<path style="fill:#FF3631;" d="M139.1,41.5c-7-2.2-14.4-1.9-21,0.5l-2.5-30.1c6.8-1.5,13.9-1.9,21-1.1L139.1,41.5z"/>
	<path style="fill:#FF3631;" d="M109.1,46.7c-3.5,2.6-6.5,6-8.8,10c-1.4,2.3-3.2,4.2-5.4,5.5L74.7,41.7c3.7-6.3,8.2-11.7,13.5-16.2
		L109.1,46.7z"/>
</g>
<g style="opacity:0;">
	<path style="fill:#EAEAEA;" d="M107,238.7l-2.3,4.1c-2.7,4.8-7.7,7.5-12.9,7.5c-2.5,0-5-0.6-7.4-2c-5.7-3.3-8.4-9.9-7.1-16
		L107,238.7z"/>
	<polygon style="fill:#EAEAEA;" points="127.7,202.6 118,219.6 87.5,213 97.3,196 	"/>
	<polygon style="fill:#EAEAEA;" points="148.8,166 138.7,183.5 108.3,176.9 118.4,159.3 	"/>
	<polygon style="fill:#EAEAEA;" points="169.5,129.8 159.8,146.8 129.3,140.2 139.1,123.2 	"/>
	<path style="fill:#EAEAEA;" d="M188,96.3c-1.1,2.9-2.5,5.7-4.1,8.5l-3.4,6l-30.4-6.6l8.1-14.1c0.4-0.7,0.7-1.4,1.1-2L188,96.3z"/>
	<path style="fill:#EAEAEA;" d="M192.2,75.7L162,66.9c-0.4-2-1-3.9-1.7-5.8l26.4-13.7C190.7,56.2,192.6,65.9,192.2,75.7z"/>
	<path style="fill:#EAEAEA;" d="M174.9,29.8l-28.6,14.8c-0.1-0.1-0.3-0.2-0.4-0.3c-2.2-1.3-4.5-2.2-6.8-3l-2.6-30.7
		c8.3,0.9,16.4,3.5,24.1,7.9C166,21.8,170.8,25.6,174.9,29.8z"/>
	<path style="fill:#EAEAEA;" d="M118.1,41.9c-3.2,1.1-6.2,2.7-9,4.8L88.2,25.5c7.9-6.8,17.4-11.4,27.4-13.6L118.1,41.9z"/>
	<path style="fill:#EAEAEA;" d="M94.9,62.2c-4.4,2.6-10.1,2.8-14.8,0c-7.1-4.1-9.6-13.1-5.5-20.3c0.1-0.1,0.1-0.2,0.2-0.2L94.9,62.2
		z"/>
	<path style="opacity:0.6;fill:#FFFFFF;enable-background:new    ;" d="M82.5,41c-0.5,0-1.1-0.2-1.5-0.5c-1.1-0.8-1.3-2.4-0.4-3.5
		s22.3-28.1,60.3-22.9c0.6,0.1,12.9,2.1,23.8,11.3c1.1,0.9,1.2,2.5,0.3,3.5c-0.9,1.1-2.5,1.2-3.5,0.3c-9.9-8.3-21.2-10.1-21.3-10.1
		c-35-4.7-55.4,20.8-55.6,21.1C84,40.7,83.2,41,82.5,41z"/>
</g>
</svg>
