<?xml version="1.0" encoding="utf-8"?>
<!-- Generator: Adobe Illustrator 22.1.0, SVG Export Plug-In . SVG Version: 6.00 Build 0)  -->
<svg version="1.1" id="Layer_1" xmlns="http://www.w3.org/2000/svg" xmlns:xlink="http://www.w3.org/1999/xlink" x="0px" y="0px"
	 viewBox="0 0 256 256" style="enable-background:new 0 0 256 256;" xml:space="preserve">
<g style="opacity:0.1;">
	<path style="fill:#FFFFFF;" d="M23.5,86.4C12.6,47.7,45.4,26.6,45.4,26.6c10.7-7,27-3,30.8,4.7c2.2,4.4,0.2,10.1-9.6,15.6
		c-21,11.7-15.1,27.8-7.9,35.2c2,2,4,3.4,5.7,3.9c7.6,2.2,21.1-2.1,22.4,12.2C88,112.5,34.4,125.2,23.5,86.4z"/>
	<path style="fill:#FFFFFF;" d="M206.5,224.6c-14.2-2.2-9-15.4-10.8-23.2c-0.4-1.7-1.6-3.8-3.5-5.9c-7-7.6-22.6-14.5-35.6,5.7
		c-6.1,9.5-11.9,11.1-16.2,8.6c-7.4-4.3-10.4-20.8-2.7-31c0,0,23.1-31.4,61.1-18.1C236.7,174,220.7,226.8,206.5,224.6z"/>
	<path style="fill:#FFFFFF;" d="M216,128.6c-14.2-2.2-9-15.4-10.8-23.2s-22.6-26-39.2-0.2c-13.7,21.3-25.9,3.1-22.9-13
		c0.6-3.4,1.9-6.6,4-9.4c0,0,23-31.4,61-18.1c6.2,2.1,10.9,5.3,14.5,9.2C241,93.7,227.9,130.5,216,128.6z"/>
	<path style="fill:#FFFFFF;" d="M156.4,145.6c-5.4,7.2-24.6,11.8-52.8,11.8c-40,0-52.4-20-52.8-20.6c0,0,0,0,0,0
		c0.7-9.6,14-5.9,22.5-4.4c8.5,1.5,11.4,8.9,31,0.7c19.6-8.1,39.1-11.8,50.5,1.5C158.4,138.7,158.8,142.4,156.4,145.6z"/>
	<g>
		<path style="fill:#FFFFFF;" d="M78.5,60.4c-18,4.4-21.5,13.9-19.9,21.7c-7.2-7.4-13.1-23.5,7.9-35.2c9.8-5.5,11.8-11.2,9.6-15.6
			C91,36.3,101.7,54.8,78.5,60.4z"/>
		<path style="fill:#FFFFFF;" d="M192.2,195.5c-7.7-2-17.4,0.9-22.9,18.6c-7.1,22.8-24.9,10.9-28.9-4.3c4.3,2.5,10.1,0.8,16.2-8.6
			C169.5,181,185.2,187.9,192.2,195.5z"/>
		<path style="fill:#FFFFFF;" d="M222.6,73.9c-3.6-3.8-8.3-7-14.5-9.2c-38-13.3-61,18.1-61,18.1c-2.1,2.8-3.4,6-4,9.4
			c-1.7-4-1.9-9.4-0.3-15c2.5-8.8,9.1-15.8,17.5-19.5c11.8-5.3,34.3-11.1,55.3,7.3C218.5,67.6,220.8,70.7,222.6,73.9z"/>
		<path style="fill:#FFFFFF;" d="M101.3,172.9c-50.7-5.1-50.4-35.7-50.4-35.7c0-0.2,0-0.3,0-0.4c0.4,0.6,12.8,20.6,52.8,20.6
			c28.1,0,47.4-4.6,52.8-11.8c0.7,0.1,1.2,0.5,1.4,1.1C159.1,150.8,152,178,101.3,172.9z"/>
	</g>
</g>
<g>
	<path style="opacity:0.1;" d="M78.5,60.4c-18,4.4-21.5,13.9-19.9,21.7c-7.2-7.4-13.1-23.5,7.9-35.2c9.8-5.5,11.8-11.2,9.6-15.6
		C91,36.3,101.7,54.8,78.5,60.4z"/>
	<path style="opacity:0.1;" d="M192.2,195.5c-7.7-2-17.4,0.9-22.9,18.6c-7.1,22.8-24.9,10.9-28.9-4.3c4.3,2.5,10.1,0.8,16.2-8.6
		C169.5,181,185.2,187.9,192.2,195.5z"/>
	<path style="opacity:0.1;" d="M222.6,73.9c-3.6-3.8-8.3-7-14.5-9.2c-38-13.3-61,18.1-61,18.1c-2.1,2.8-3.4,6-4,9.4
		c-1.7-4-1.9-9.4-0.3-15c2.5-8.8,9.1-15.8,17.5-19.5c11.8-5.3,34.3-11.1,55.3,7.3C218.5,67.6,220.8,70.7,222.6,73.9z"/>
	<path style="opacity:0.1;" d="M101.3,172.9c-50.7-5.1-50.4-35.7-50.4-35.7c0-0.2,0-0.3,0-0.4c0.4,0.6,12.8,20.6,52.8,20.6
		c28.1,0,47.4-4.6,52.8-11.8c0.7,0.1,1.2,0.5,1.4,1.1C159.1,150.8,152,178,101.3,172.9z"/>
</g>
</svg>
