<?xml version="1.0" encoding="utf-8"?>
<!-- Generator: Adobe Illustrator 22.1.0, SVG Export Plug-In . SVG Version: 6.00 Build 0)  -->
<svg version="1.1" id="Layer_1" xmlns="http://www.w3.org/2000/svg" xmlns:xlink="http://www.w3.org/1999/xlink" x="0px" y="0px"
	 viewBox="0 0 256 256" style="enable-background:new 0 0 256 256;" xml:space="preserve">
<g>
	<path style="fill:#FFDA64;" d="M194.7,211.4c-35.4-5.5-22.4-38.4-26.9-57.9c-4.5-19.5-56.4-64.8-97.8-0.5
		c-34.2,53.1-64.6,7.7-57.1-32.4c1.5-8.5,4.7-16.5,10-23.4c0,0,57.4-78.3,152.1-45.1c15.5,5.2,27.2,13.2,36.2,22.9
		C257.1,124.4,224.4,216.2,194.7,211.4z"/>
	<g>
		<path style="fill:#FFDA64;" d="M211.2,75c-9-9.5-20.7-17.5-36.2-22.9C80.3,18.9,22.9,97.2,22.9,97.2c-5.2,7-8.5,15-10,23.4
			c-4.2-10-4.7-23.4-0.7-37.4c6.2-21.9,22.7-39.4,43.6-48.6c29.4-13.2,85.5-27.7,137.9,18.2C201,59.3,206.7,67,211.2,75z"/>
	</g>
</g>
<g style="opacity:0;">
	<path style="opacity:0.1;enable-background:new    ;" d="M211.2,75c-9-9.5-20.7-17.5-36.2-22.9C80.3,18.9,22.9,97.2,22.9,97.2
		c-5.2,7-8.5,15-10,23.4c-4.2-10-4.7-23.4-0.7-37.4c6.2-21.9,22.7-39.4,43.6-48.6c29.4-13.2,85.5-27.7,137.9,18.2
		C201,59.3,206.7,67,211.2,75z"/>
</g>
</svg>
