<?xml version="1.0" encoding="utf-8"?>
<!-- Generator: Adobe Illustrator 22.1.0, SVG Export Plug-In . SVG Version: 6.00 Build 0)  -->
<svg version="1.1" id="Layer_1" xmlns="http://www.w3.org/2000/svg" xmlns:xlink="http://www.w3.org/1999/xlink" x="0px" y="0px"
	 viewBox="0 0 256 256" style="enable-background:new 0 0 256 256;" xml:space="preserve">
<g style="opacity:0;">
	<path style="fill:#FFDA40;" d="M187.6,147.6c0,9.4-9.8,30-17.1,29.9c-7.6,0-17.1-20.5-17.1-29.9l2-13.4H186L187.6,147.6z"/>
	<rect x="69" y="162.3" style="fill:#FFDA40;" width="63.5" height="36"/>
	<path style="fill:#FFDA40;" d="M122.7,116.1l-21.8,8.5l-22-8.5l7.2-19.6c0.9-2.6,1.5-5.2,1.9-7.9L91,63V48.8c0-1.7-0.3-3.4-0.9-5
		s-1.5-3.1-2.6-4.3V24c0-3.9,3.1-7,7-7H107c3.9,0,7,3.1,7,7v15.5c-2.3,2.6-3.5,5.9-3.5,9.3V63l3,24.9c0.3,2.8,1,5.5,1.9,8.1
		L122.7,116.1z"/>
</g>
<g>
	<path style="fill:#367245;" d="M132.5,152v10.3H69v-10.2c0-6.1,1.1-12.1,3.2-17.8l6.7-18.3l22,8.5l21.8-8.5l6.7,18.4
		C131.5,140.1,132.5,146.1,132.5,152z"/>
	<path style="fill:#367245;" d="M69,198.3h63.5v31.8c0,3.5-2.8,6.3-6.3,6.3H75.3c-3.5,0-6.3-2.8-6.3-6.3V198.3z"/>
	<path style="fill:#F2FCFB;" d="M186.5,115.8h-32.1l-3.8,30.5c0,9,5.1,24,12.4,30.7c3.2,3,5,7.1,5,11.5v46h5v-46
		c0-4.4,1.8-8.5,5-11.5c7.2-6.7,12.3-21.7,12.3-30.7L186.5,115.8z M170.5,177.5c-7.6,0-17.1-20.5-17.1-29.9l2-13.4H186l1.6,13.4
		C187.6,157,177.8,177.5,170.5,177.5z"/>
	
		<line style="fill:none;stroke:#F2FCFB;stroke-width:4;stroke-linecap:round;stroke-linejoin:round;stroke-miterlimit:10;" x1="158.5" y1="234.5" x2="182.5" y2="234.5"/>
	<g style="opacity:5.000000e-02;">
		<circle cx="163.5" cy="153.8" r="2.3"/>
		<circle cx="178.1" cy="156" r="2.3"/>
		<circle cx="172" cy="144.8" r="1.5"/>
		<circle cx="173" cy="163.2" r="1.5"/>
	</g>
</g>
</svg>
