<?xml version="1.0" encoding="utf-8"?>
<!-- Generator: Adobe Illustrator 22.1.0, SVG Export Plug-In . SVG Version: 6.00 Build 0)  -->
<svg version="1.1" id="Layer_1" xmlns="http://www.w3.org/2000/svg" xmlns:xlink="http://www.w3.org/1999/xlink" x="0px" y="0px"
	 viewBox="0 0 256 256" style="enable-background:new 0 0 256 256;" xml:space="preserve">
<g>
	<path style="fill:#FFD731;" d="M239.3,83.9v85.9L11.2,217.5v-23.4c9.7,0,17.5-7.8,17.5-17.5s-7.8-17.5-17.5-17.5v-21.8l121.9-28.6
		c1.3,8.4,8.5,14.8,17.3,14.8c9.7,0,17.5-7.8,17.5-17.5c0-1.8-0.3-3.6-0.8-5.3L239.3,83.9z"/>
	<path style="fill:#FFD731;" d="M239.3,83.9l-72.2,16.9c-2.3-7.1-16.2-14.4-27.1-9c-11,5.4-7.1,16.1-6.9,17L11.2,137.3l26.2-30.8
		c0,0,7.8,0.3,11.2-0.5c11.4-2.5,19.1-8,17.5-17.5c-0.8-4.8-6.1-8.4-6.1-8.4l40-46.8C204,16.1,239.3,83.9,239.3,83.9z"/>
</g>
<g style="opacity:0;">
	<path style="opacity:5.000000e-02;enable-background:new    ;" d="M239.3,83.9v85.9L11.2,217.5v-23.4c9.7,0,17.5-7.8,17.5-17.5
		s-7.8-17.5-17.5-17.5v-21.8l121.9-28.6c1.3,8.4,8.5,14.8,17.3,14.8c9.7,0,17.5-7.8,17.5-17.5c0-1.8-0.3-3.6-0.8-5.3L239.3,83.9z"/>
	<circle style="opacity:5.000000e-02;enable-background:new    ;" cx="125.7" cy="58.7" r="13"/>
	<circle style="opacity:0.1;enable-background:new    ;" cx="83.3" cy="166.7" r="13"/>
</g>
</svg>
