<?xml version="1.0" encoding="utf-8"?>
<!-- Generator: Adobe Illustrator 22.1.0, SVG Export Plug-In . SVG Version: 6.00 Build 0)  -->
<svg version="1.1" id="Layer_1" xmlns="http://www.w3.org/2000/svg" xmlns:xlink="http://www.w3.org/1999/xlink" x="0px" y="0px"
	 viewBox="0 0 256 256" style="enable-background:new 0 0 256 256;" xml:space="preserve">
<g style="opacity:0;">
	<path style="fill:#EDA03A;" d="M175.5,175.2c-1.1,1.3-2.3,2.5-3.9,3.7c-4.7,3.8-8.8,6-12.9,6.9c-11.5,2.5-22-5.5-39.5-19.7
		C91,143.3,62,138,44.4,118.7c-22.7-25-18.2-65.7,8-86.9s68-17.9,86.9,10c15.6,23.2,11.5,52.3,27.5,85.8
		C178.1,151.1,184.7,164.3,175.5,175.2z"/>
</g>
<g>
	<path style="fill:#F4F4F4;" d="M202.9,205.3l-14.5,13.2l-29.7-32.6c4.1-0.9,8.3-3.1,12.9-6.9c1.5-1.2,2.8-2.5,3.9-3.7L202.9,205.3z
		"/>
	<circle style="fill:#F4F4F4;" cx="188.6" cy="223.2" r="18.3"/>
	<circle style="fill:#F4F4F4;" cx="208.5" cy="205.1" r="18.3"/>
	<circle style="opacity:0.2;fill:#FFFFFF;enable-background:new    ;" cx="104.5" cy="51.6" r="18.3"/>
</g>
</svg>
