<?xml version="1.0" encoding="utf-8"?>
<!-- Generator: Adobe Illustrator 22.1.0, SVG Export Plug-In . SVG Version: 6.00 Build 0)  -->
<svg version="1.1" id="Layer_1" xmlns="http://www.w3.org/2000/svg" xmlns:xlink="http://www.w3.org/1999/xlink" x="0px" y="0px"
	 viewBox="0 0 256 256" style="enable-background:new 0 0 256 256;" xml:space="preserve">
<g>
	<g>
		<path style="fill:#FFDE3E;" d="M192.2,142c-22.1,4.1-29.5-9.4-29.5-22.7c5.7,7.4,13.8,13.5,23,17.4c18.3,7.7,9.6-5.9,9.6-5.9
			s0.9-21.7,4.9-32.7c2.3-6.3,6.8-11.1,11.7-15c4.5,2.3,8.3,6.9,10.5,15C222.5,98.2,228.3,135.4,192.2,142z"/>
	</g>
	<g>
		<path style="fill:#FFDE3E;" d="M77.1,64.4c-1.7,1.5-3.3,3-4.7,4.7c-6.3-1.7-12.7-2.5-18.7-2.4C31.6,67,18.2,68.2,12,59.9l0,0
			C7.6,42.2,50.2,37.7,65.8,48.7C71.8,52.9,75.2,58.8,77.1,64.4z"/>
		<path style="fill:#FFDE3E;" d="M78.9,71.3c-2.1-0.8-4.3-1.6-6.5-2.2c1.5-1.7,3-3.3,4.7-4.7C78,66.8,78.5,69.2,78.9,71.3z"/>
		<path style="fill:#FFDE3E;" d="M77.9,131.4c-11.9,1.7-23.4-2.1-24.1-10.3c-1.3-16.8-28.6-42.6-28.6-42.6
			c-2.4-2.3-5.7-7.1-8.5-11.2c-2.6-3.9-4.6-7.1-4.7-7.3c6.2,8.3,19.6,7.2,41.7,6.8c5.9-0.1,12.4,0.7,18.7,2.4
			c-9.7,11.1-14.1,26.2-8.1,38.8C68.5,116.6,73.3,125,77.9,131.4z"/>
	</g>
	<g>
		<path style="fill:#FFDE3E;" d="M172.9,45.5c-1.2,4.7-5.3,9.5-16.2,10.5c-20.1,1.8-35.8-12.8-30.8-19.8c1.7-0.8,12.5-5,26.7,7.4
			C157.8,48,165.7,48.3,172.9,45.5z"/>
		<path style="fill:#FFDE3E;" d="M172.9,45.5c-7.3,2.8-15.2,2.5-20.3-2c-14.2-12.3-25-8.1-26.7-7.4c-0.2,0.1-0.2,0.1-0.2,0.1
			c4.1-5.2,13.5-7.3,24.9-9.3c11.4-2.1,17.6-17.6,17.6-17.6C171.3,3.2,189.9-2,191,19.8C191.5,32.3,182.8,41.8,172.9,45.5z"/>
	</g>
	<g>
		<path style="fill:#FFDE3E;" d="M56.2,222.4c-13.5,3.2-17.2-6-18.2-11.8c4.8-0.2,10.9-1.6,18.9-3.5c19.2-4.6,21.9-1.8,21.9-1.8
			c0.1-0.5,0-0.9-0.3-1.2C83.1,205.2,75.3,217.8,56.2,222.4z"/>
		<path style="fill:#FFDE3E;" d="M78.7,205.3c0,0-2.7-2.7-21.9,1.8c-7.9,1.9-14.1,3.3-18.9,3.5c-6.7,0.3-10.6-1.9-12.5-8.5
			c-3.3-11.2,2.4-24.1,12.5-32.4c10.2-8.3,7.2,1.9,7.2,1.9s4.6,13.6,9.2,19.9c6.9,9.3,21.6,9.5,24,12.7
			C78.7,204.5,78.8,204.9,78.7,205.3z"/>
	</g>
	<g>
		<path style="fill:#FFDE3E;" d="M132.6,65.1c-9-2.2-21.7-1.8-33.6,2.4c-24.5,8.7-25.5,37.5-15,49.2c10.4,11.7,12.3,21.4,12.3,21.4
			c-3.4,8.9-10.7,3.9-18.4-6.7c-4.6-6.4-9.4-14.8-13.6-23.5c-6-12.6-1.7-27.7,8.1-38.8c1.5-1.7,3-3.3,4.7-4.7
			c7.5-6.6,17.2-10.9,27.4-11.1C120.8,53,128.8,59.7,132.6,65.1z"/>
		<path style="fill:#FFDE3E;" d="M143.8,79c0,0-17.3,12.2-24,19.9c-5.4,6.2-16.8,24.7-21.5,34.2l0,0c-1.1,2.3-1.9,4.1-2,5
			c0,0-1.9-9.7-12.3-21.4s-9.5-40.5,15-49.2c11.9-4.2,24.6-4.6,33.6-2.4C142.1,67.4,147.6,72.6,143.8,79z"/>
	</g>
	<g>
		<path style="fill:#FFDE3E;" d="M168.3,77.3c-2.6,0.7-4.8,1.5-6.7,2.5c-6.9-3.9-13.9-4.3-22.4,0c4.4-6,13.1-14.5,28-17.7
			c1.3-0.3,2.7-0.5,4-0.7C168,66.6,167.8,72.8,168.3,77.3z"/>
		<path style="fill:#FFDE3E;" d="M153.8,95c0,7.9,2.7,15.5,7.3,22.2c-0.2,17.8-13.5,26.3-23.3,23.4c-11.7-3.4-34.2-30.7-14.4-49.1
			c5.9-5.5,11-9.3,15.7-11.6c8.5-4.3,15.5-3.9,22.4,0C156.3,82.8,153.8,87.4,153.8,95z"/>
	</g>
	<g>
		<path style="fill:#FFDE3E;" d="M136.9,233c-10.9,6.5-21.1,6.3-27.3,5.1c10-2.9,13.8-9.3,15.1-19.1c0,0-0.4,0.7-1.3,1.3
			c0.6-1,1-2.1,1.3-3.1c0,0,8.7-17.4,19.2-13.9C154.3,206.9,154.3,222.6,136.9,233z"/>
		<path style="fill:#FFDE3E;" d="M124.7,219.1c-1.2,9.8-5,16.2-15.1,19.1l0,0c-4.2,1.2-9.6,1.8-16.3,1.8
			c-22.7,0-24.4-29.6-19.2-38.3c5.2-8.7,22.7-10.5,33.1,8.7c7.9,14.4,13.7,12.1,16.2,10C124.2,219.7,124.7,219.1,124.7,219.1z"/>
	</g>
	<g>
		<path style="fill:#FFDE3E;" d="M229.8,69.5c0.2-0.6,0.2-1.3-0.1-1.9c0,0-0.4,0.7-2.2,1.6c-0.1,0-0.2,0.1-0.3,0.1
			c-0.1,0.1-0.3,0.1-0.4,0.2c-0.4,0.2-0.9,0.4-1.5,0.6c-0.4,0.1-0.8,0.3-1.2,0.4s-0.9,0.3-1.4,0.4c-0.2,0.1-0.3,0.1-0.5,0.1
			c-0.7,0.2-1.6,0.4-2.5,0.6c-0.4,0.1-0.8,0.2-1.2,0.3c-0.5,0.1-1.1,0.2-1.6,0.3c-0.4,0.1-0.9,0.1-1.3,0.2c-0.6,0.1-1.2,0.2-1.8,0.3
			c-0.4,0.1-0.8,0.1-1.2,0.2c-0.1,0-0.3,0-0.4,0c-0.3,0-0.5,0.1-0.8,0.1c-0.1,0-0.1,0-0.2,0c-0.6,0.1-1.2,0.1-1.8,0.2
			c-0.4,0-0.8,0.1-1.3,0.1c-0.7,0.1-1.4,0.1-2.1,0.2h-0.1c-0.7,0.1-1.4,0.1-2.1,0.2c-0.1,0-0.2,0-0.3,0c-1.5,0.1-3.1,0.2-4.8,0.3
			c-0.5,0-1.1,0.1-1.6,0.1c-12.3,0.6-21.9,1.3-28.8,3c-0.5-4.6-0.4-10.8,2.8-15.9c3-4.7,8.5-8.4,18.5-8.9
			C219.4,51,236,66,229.8,69.5z"/>
		<path style="fill:#FFDE3E;" d="M229.8,69.5c-1.3,3.5-10,7.3-17.8,13.6c-4.8,3.9-9.3,8.7-11.7,15c-4.1,11-4.9,32.7-4.9,32.7
			s8.7,13.6-9.6,5.9c-9.3-3.9-17.3-10-23-17.4c-0.5-0.7-1.1-1.4-1.6-2.1c-4.6-6.7-7.3-14.3-7.3-22.2c0-7.6,2.5-12.3,7.8-15.2
			c1.9-1,4.1-1.8,6.7-2.5c7-1.8,16.5-2.4,28.8-3c0.6,0,1.1-0.1,1.6-0.1c1.7-0.1,3.3-0.2,4.8-0.3c0.1,0,0.2,0,0.3,0
			c0.7-0.1,1.4-0.1,2.1-0.2h0.1c0.7-0.1,1.4-0.1,2.1-0.2c0.4,0,0.9-0.1,1.3-0.1c0.6-0.1,1.2-0.1,1.8-0.2c0.1,0,0.1,0,0.2,0
			c0.3,0,0.5-0.1,0.8-0.1c0.1,0,0.3,0,0.4,0c0.4-0.1,0.8-0.1,1.2-0.2c0.6-0.1,1.3-0.2,1.8-0.3c0.5-0.1,0.9-0.2,1.3-0.2
			c0.6-0.1,1.1-0.2,1.6-0.3c0.4-0.1,0.8-0.2,1.2-0.3c0.9-0.2,1.7-0.4,2.5-0.6c0.2,0,0.3-0.1,0.5-0.1c0.5-0.1,1-0.3,1.4-0.4
			s0.8-0.3,1.2-0.4c0.6-0.2,1-0.4,1.5-0.6c0.2-0.1,0.3-0.1,0.4-0.2c0.1,0,0.2-0.1,0.3-0.1c1.8-0.9,2.2-1.6,2.2-1.6
			C230,68.3,230,68.9,229.8,69.5z"/>
	</g>
</g>
<g style="opacity:0;">
	<path style="fill:#60DB42;" d="M225.8,97.6v12.8c0,45.4-36.8,82.2-82.2,82.2h-22.7c-45.4,0-82.2-36.8-82.2-82.2V97.6H225.8z"/>
	
		<line style="fill:none;stroke:#60DB42;stroke-width:6;stroke-linecap:round;stroke-linejoin:round;stroke-miterlimit:10;" x1="99.2" y1="192.6" x2="165.4" y2="192.6"/>
	<g style="opacity:0.1;">
		<path d="M222.3,97.6h-21.8c2.4-6.1,6.8-10.7,11.5-14.5C216.3,85.4,220,89.9,222.3,97.6z"/>
	</g>
	<path style="opacity:5.000000e-02;enable-background:new    ;" d="M77.1,64.4c-1.7,1.5-3.3,3-4.7,4.7c-6.3-1.7-12.7-2.5-18.7-2.4
		C31.6,67,18.2,68.2,12,59.9l0,0C7.6,42.2,50.2,37.7,65.8,48.7C71.8,52.9,75.2,58.8,77.1,64.4z"/>
	<path style="opacity:5.000000e-02;enable-background:new    ;" d="M172.9,45.5c-1.2,4.7-5.3,9.5-16.2,10.5
		c-20.1,1.8-35.8-12.8-30.8-19.8c1.7-0.8,12.5-5,26.7,7.4C157.8,48,165.7,48.3,172.9,45.5z"/>
	<path style="opacity:5.000000e-02;enable-background:new    ;" d="M71.8,215.7c-3.8,2.7-9.1,5.1-15.6,6.7
		c-13.5,3.2-17.2-6-18.2-11.8c4.8-0.2,10.9-1.6,18.9-3.5c7.7-1.8,12.8-2.5,16-2.6C71.9,207.5,71.5,211.5,71.8,215.7z"/>
	<path style="opacity:5.000000e-02;enable-background:new    ;" d="M132.6,65.1c-9-2.2-21.7-1.8-33.6,2.4
		c-15,5.3-21.2,18.2-21.3,30.1h-16c-0.7-9.9,3.6-20.3,10.8-28.5c1.5-1.7,3-3.3,4.7-4.7c7.5-6.6,17.2-10.9,27.4-11.1
		C120.8,53,128.8,59.7,132.6,65.1z"/>
	<g>
		<path style="opacity:0.1;enable-background:new    ;" d="M168.3,77.3c-2.6,0.7-4.8,1.5-6.7,2.5c-6.9-3.9-13.9-4.3-22.4,0
			c4.4-6,13.1-14.5,28-17.7c1.3-0.3,2.7-0.5,4-0.7C168,66.6,167.8,72.8,168.3,77.3z"/>
		<path style="opacity:5.000000e-02;enable-background:new    ;" d="M153.8,95c0,0.9,0,1.8,0.1,2.6h-35.4c1.2-2.1,2.8-4.2,5-6.1
			c5.9-5.5,11-9.3,15.7-11.6c8.5-4.3,15.5-3.9,22.4,0C156.3,82.8,153.8,87.4,153.8,95z"/>
	</g>
	<path style="opacity:5.000000e-02;enable-background:new    ;" d="M136.9,233c-10.9,6.5-21.1,6.3-27.3,5.1
		c10-2.9,13.8-9.3,15.1-19.1c0,0-0.4,0.7-1.3,1.3c0.6-1,1-2.1,1.3-3.1c0,0,8.7-17.4,19.2-13.9C154.3,206.9,154.3,222.6,136.9,233z"
		/>
	<path style="opacity:5.000000e-02;enable-background:new    ;" d="M229.8,69.5c0.2-0.6,0.2-1.3-0.1-1.9c0,0-0.4,0.7-2.2,1.6
		c-0.1,0-0.2,0.1-0.3,0.1c-0.1,0.1-0.3,0.1-0.4,0.2c-0.4,0.2-0.9,0.4-1.5,0.6c-0.4,0.1-0.8,0.3-1.2,0.4s-0.9,0.3-1.4,0.4
		c-0.2,0.1-0.3,0.1-0.5,0.1c-0.7,0.2-1.6,0.4-2.5,0.6c-0.4,0.1-0.8,0.2-1.2,0.3c-0.5,0.1-1.1,0.2-1.6,0.3c-0.4,0.1-0.9,0.1-1.3,0.2
		c-0.6,0.1-1.2,0.2-1.8,0.3c-0.4,0.1-0.8,0.1-1.2,0.2c-0.1,0-0.3,0-0.4,0c-0.3,0-0.5,0.1-0.8,0.1c-0.1,0-0.1,0-0.2,0
		c-0.6,0.1-1.2,0.1-1.8,0.2c-0.4,0-0.8,0.1-1.3,0.1c-0.7,0.1-1.4,0.1-2.1,0.2h-0.1c-0.7,0.1-1.4,0.1-2.1,0.2c-0.1,0-0.2,0-0.3,0
		c-1.5,0.1-3.1,0.2-4.8,0.3c-0.5,0-1.1,0.1-1.6,0.1c-12.3,0.6-21.9,1.3-28.8,3c-0.5-4.6-0.4-10.8,2.8-15.9c3-4.7,8.5-8.4,18.5-8.9
		C219.4,51,236,66,229.8,69.5z"/>
</g>
</svg>
