<?xml version="1.0" encoding="utf-8"?>
<!-- Generator: Adobe Illustrator 22.1.0, SVG Export Plug-In . SVG Version: 6.00 Build 0)  -->
<svg version="1.1" id="Layer_1" xmlns="http://www.w3.org/2000/svg" xmlns:xlink="http://www.w3.org/1999/xlink" x="0px" y="0px"
	 viewBox="0 0 256 256" style="enable-background:new 0 0 256 256;" xml:space="preserve">
<path style="opacity:0;fill:#FFFFFF;" d="M194.2,11.4v119.1H54.6V11.4c0-2.2,1.6-3.9,3.6-3.9h132.3C192.6,7.5,194.2,9.2,194.2,11.4z
	"/>
<g>
	<path style="fill:#F7374A;" d="M199.3,130.5v110.1c0,6.8-5.5,12.2-12.2,12.2H61.7c-6.8,0-12.2-5.5-12.2-12.2V130.5H199.3z"/>
	<polygon style="fill:#F2F2F2;" points="199.3,130.5 49.5,130.5 87.8,175.6 	"/>
	<path style="opacity:0.2;" d="M190.6,7.5H58.2c-2,0-3.6,1.8-3.6,3.9v119.1h139.6V11.4C194.2,9.2,192.6,7.5,190.6,7.5z M97.3,117.4
		c0,2.4-1.6,4.4-3.7,4.4H68c-2,0-3.6-2-3.6-4.4V78.1c0-2.4,1.6-4.4,3.6-4.4h25.6c2,0,3.7,2,3.7,4.4V117.4z M97.3,60.6
		c0,2.4-1.6,4.4-3.7,4.4H68c-2,0-3.6-2-3.6-4.4V21.3c0-2.4,1.6-4.4,3.6-4.4h25.6c2,0,3.7,1.9,3.7,4.4V60.6z M140.8,117.4
		c0,2.4-1.6,4.4-3.6,4.4h-25.6c-2,0-3.7-2-3.7-4.4V78.1c0-2.4,1.6-4.4,3.7-4.4h25.6c2,0,3.6,2,3.6,4.4V117.4z M140.8,60.6
		c0,2.4-1.6,4.4-3.6,4.4h-25.6c-2,0-3.7-2-3.7-4.4V21.3c0-2.4,1.6-4.4,3.7-4.4h25.6c2,0,3.6,1.9,3.6,4.4V60.6z M184.4,117.4
		c0,2.4-1.6,4.4-3.6,4.4h-25.6c-2,0-3.7-2-3.7-4.4V78.1c0-2.4,1.6-4.4,3.7-4.4h25.6c2,0,3.6,2,3.6,4.4V117.4z M184.4,60.6
		c0,2.4-1.6,4.4-3.6,4.4h-25.6c-2,0-3.7-2-3.7-4.4V21.3c0-2.4,1.6-4.4,3.7-4.4h25.6c2,0,3.6,1.9,3.6,4.4V60.6z"/>
</g>
</svg>
