<?xml version="1.0" encoding="utf-8"?>
<!-- Generator: Adobe Illustrator 22.1.0, SVG Export Plug-In . SVG Version: 6.00 Build 0)  -->
<svg version="1.1" id="Layer_1" xmlns="http://www.w3.org/2000/svg" xmlns:xlink="http://www.w3.org/1999/xlink" x="0px" y="0px"
	 viewBox="0 0 256 256" style="enable-background:new 0 0 256 256;" xml:space="preserve">
<g style="opacity:0;">
	<path style="fill:#FFFFFF;" d="M82.7,54.5c0,18.1-14.7,32.7-32.8,32.7c-18.1,0-32.7-14.7-32.7-32.7v0c0-18.1,14.6-32.7,32.7-32.8
		c18.1,0,32.7,14.6,32.8,32.7V54.5z"/>
	<path style="fill:#FFFFFF;" d="M175,78.8l-43,42c-1.8,1.8-4.7,1.8-6.5,0L82.7,78.6l19.4,0l21.4,0.1h2.4l23.8,0.1h1.8l8.8,0
		L175,78.8z"/>
</g>
<g>
	
		<line style="fill:none;stroke:#F2FCFB;stroke-width:8;stroke-linecap:round;stroke-linejoin:round;stroke-miterlimit:10;" x1="108.6" y1="233.7" x2="150.4" y2="233.7"/>
	
		<line style="fill:none;stroke:#F2FCFB;stroke-width:8;stroke-linecap:round;stroke-linejoin:round;stroke-miterlimit:10;" x1="129.5" y1="129.8" x2="129.5" y2="233.7"/>
	<path style="fill:#F2FCFB;" d="M47.9,54.4l2.7,2.7l15.3,15.4l3.2,3.2l59.5,59.8l80.8-81.1H47.9z M125.4,120.8L82.7,78.6l92.3,0.2
		l-43,42C130.1,122.6,127.2,122.6,125.4,120.8z"/>
	<g>
		<path style="fill:#B2E7ED;" d="M212.7,33.3l-25,9.3l-27.5,36.2l-8.8,0l31.3-41.2c0.4-0.5,0.9-0.9,1.6-1.2l26-9.6
			c1.8-0.7,3.8,0.3,4.5,2.1C215.5,30.6,214.5,32.7,212.7,33.3z"/>
	</g>
	<path style="fill:#B2E7ED;" d="M123.5,69v9.7l-21.4-0.1V69c0-2.7,2.2-5,5-5h11.5C121.2,64.1,123.5,66.3,123.5,69z"/>
	<path style="fill:#B2E7ED;" d="M149.9,78.5l-0.2,0.3l-23.8-0.1l4.8-9.8c1.2-2.5,4.2-3.5,6.6-2.2l10.3,5.1
		C150.1,73,151.1,76,149.9,78.5z"/>
	<path style="opacity:0.6;fill:#FFFFFF;" d="M78.6,54.4c0-15.8-12.9-28.6-28.7-28.6c-15.8,0-28.6,12.8-28.6,28.7c0,0,0,0,0,0
		c0,15.8,12.8,28.6,28.6,28.6c7.4,0,14.1-2.8,19.2-7.4l-3.2-3.2c-4.1,3.7-9.4,6.1-15.3,6.3l0-21.7l-2.7-2.7L78.6,54.4L78.6,54.4z
		 M29.8,40.1l16.7,13.5l-21.3,0C25.1,48.3,26.8,44.1,29.8,40.1z M25.1,55.3l21.3,0L29.8,68.8C26.8,64.8,25.1,60.6,25.1,55.3z
		 M48.4,55.8l0,23.1c-6.9-0.3-13-3.5-17.2-8.3L48.4,55.8z M31.2,38.3c4.2-4.8,10.4-8,17.2-8.3l0,23.1L31.2,38.3z M50.6,30
		c6.8,0.3,13,3.4,17.2,8.2L50.6,53L50.6,30z M52.5,53.6L69.2,40c3,4,4.7,8.2,4.7,13.6L52.5,53.6z"/>
</g>
</svg>
