<?xml version="1.0" encoding="utf-8"?>
<!-- Generator: Adobe Illustrator 22.1.0, SVG Export Plug-In . SVG Version: 6.00 Build 0)  -->
<svg version="1.1" id="Layer_1" xmlns="http://www.w3.org/2000/svg" xmlns:xlink="http://www.w3.org/1999/xlink" x="0px" y="0px"
	 viewBox="0 0 256 256" style="enable-background:new 0 0 256 256;" xml:space="preserve">
<g>
	<path style="fill:#593116;" d="M210.7,140c0,63.7-34,103.2-76.1,103.2c-32.8,0-60.7-24.1-71.4-65c-1.1-4.2-2.1-8.6-2.7-13.2
		c-0.7-4.2-1.1-8.5-1.5-12.9c-0.2-3.9-0.5-7.9-0.5-12c0-34.4,6-68.6,20.2-93c12.1-20.9,30.2-34.3,55.8-34.3
		C185.4,12.8,210.7,76.4,210.7,140z"/>
</g>
<g style="opacity:0;">
	<path style="opacity:0.1;enable-background:new    ;" d="M134.7,12.8C109.2,12.8,91,26.3,78.9,47c-14.3,24.4-20.3,58.8-20.3,93
		c0,4.1,0.1,8.1,0.5,12c0.3,4.5,0.8,8.8,1.5,12.9c0.7,4.6,1.6,8.9,2.7,13.2c10.7,40.9,38.6,65,71.4,65c42,0,76.1-39.5,76.1-103.2
		S185.4,12.8,134.7,12.8z M139.7,226.4c-0.6,2.3-2.6,3.9-5,3.9c-0.5,0-0.8,0-1.3-0.1c-2.7-0.7-4.5-3.6-3.8-6.3
		c21.2-83.5,0.1-194.5,0-195.7c-0.6-2.7,1.3-5.5,4.1-6.1c2.7-0.6,5.5,1.3,6.1,4.1C140.7,30.9,161.4,140.6,139.7,226.4z"/>
</g>
</svg>
