<?xml version="1.0" encoding="utf-8"?>
<!-- Generator: Adobe Illustrator 22.1.0, SVG Export Plug-In . SVG Version: 6.00 Build 0)  -->
<svg version="1.1" id="Layer_1" xmlns="http://www.w3.org/2000/svg" xmlns:xlink="http://www.w3.org/1999/xlink" x="0px" y="0px"
	 viewBox="0 0 256 256" style="enable-background:new 0 0 256 256;" xml:space="preserve">
<g>
	<path style="fill:#FFFFFF;" d="M229.7,152.4c0,55.6-29.7,90.1-66.4,90.1c-28.6,0-53-21-62.3-56.7c-1-3.7-1.8-7.5-2.4-11.5
		c-0.6-3.7-1-7.4-1.3-11.3c-0.2-3.4-0.4-6.9-0.4-10.5c0-30,5.2-59.9,17.6-81.2c10.6-18.2,26.4-29.9,48.7-29.9
		C207.6,41.3,229.7,96.9,229.7,152.4z"/>
	<path style="fill:#FFFFFF;" d="M97,152.4c0,12.2,1.4,23.3,4,33.3c-0.3,0.1-0.5,0.2-0.8,0.3c-29.2,11.4-63.7-6.9-81-51.2
		C2,90.6-1,40.7,37.6,25.6c29.2-11.4,58.1,12.2,77,45.7C102.2,92.5,97,122.5,97,152.4z"/>
</g>
<g style="opacity:0;">
	<path style="opacity:0.1;" d="M163.4,41.3c-22.3,0-38.2,11.8-48.7,29.9C102.2,92.5,97,122.5,97,152.4c0,3.6,0.1,7.1,0.4,10.5
		c0.3,3.9,0.7,7.7,1.3,11.3c0.6,4,1.4,7.8,2.4,11.5c9.3,35.7,33.7,56.7,62.3,56.7c36.7,0,66.4-34.5,66.4-90.1S207.6,41.3,163.4,41.3
		z M167.7,227.8c-0.5,2-2.3,3.4-4.4,3.4c-0.4,0-0.7,0-1.1-0.1c-2.4-0.6-3.9-3.1-3.3-5.5c18.5-72.9,0.1-169.8,0-170.8
		c-0.5-2.4,1.1-4.8,3.6-5.3c2.4-0.5,4.8,1.1,5.3,3.6C168.6,57.1,186.7,152.9,167.7,227.8z"/>
	<path style="opacity:0.2;" d="M98.7,174.3c0.6,4,1.4,7.8,2.4,11.5c-0.3,0.1-0.5,0.2-0.8,0.3c-29.2,11.4-63.7-6.9-81-51.2
		C2,90.6-1,40.7,37.6,25.6c29.2-11.4,58.1,12.2,77,45.7C102.2,92.5,97,122.5,97,152.4c0,3.6,0.1,7.1,0.4,10.5
		C61,111.4,44.4,33.5,44.3,32.7c-0.5-2.4-2.9-4-5.3-3.5c-2.4,0.5-4,2.9-3.5,5.3c0.7,3.5,18.1,85.3,57.9,138.3
		c0.9,1.2,2.2,1.8,3.6,1.8C97.6,174.6,98.1,174.5,98.7,174.3z"/>
</g>
</svg>
