<?xml version="1.0" encoding="utf-8"?>
<!-- Generator: Adobe Illustrator 22.1.0, SVG Export Plug-In . SVG Version: 6.00 Build 0)  -->
<svg version="1.1" id="Layer_1" xmlns="http://www.w3.org/2000/svg" xmlns:xlink="http://www.w3.org/1999/xlink" x="0px" y="0px"
	 viewBox="0 0 256 256" style="enable-background:new 0 0 256 256;" xml:space="preserve">
<g>
	<path style="fill:#7C4713;" d="M219,133.8c-0.8,10.2-3.1,21.9-8.4,33.3c-2,4.2-4.4,8.4-7.3,12.4c-7.5,10.3-18.2,19.5-33.7,25.9h-89
		c0,0-40.7-13.1-47.5-71.6L219,133.8L219,133.8z"/>
</g>
<g style="opacity:0;">
	<g>
		<path style="fill:#DDDDDD;" d="M250.3,144.2c-10.6,29.5-41.2,35.9-42.5,36.2c-0.4,0.1-0.8,0.1-1.2,0.1c-1.2,0-2.4-0.4-3.3-1
			c2.9-4,5.3-8.2,7.3-12.4c7.8-2.8,22.3-10.2,28.4-26.9c2-5.7,2.1-9.9,0.1-12.3c-3.7-4.6-14.5-4.8-19.2-4.2
			c-3.3,0.4-6.3-1.9-6.7-5.2c-0.4-3.3,1.9-6.3,5.2-6.7c2.1-0.3,21.3-2.4,30.1,8.5C253.2,126.2,253.8,134.3,250.3,144.2z"/>
	</g>
	<path style="fill:#EFEFEF;" d="M219,133.8H33.2c-1-8.5-1.3-17.9-0.6-28.4h185.1C217.7,105.4,220.3,117.6,219,133.8z"/>
	
		<line style="fill:none;stroke:#DDDDDD;stroke-width:12;stroke-linecap:round;stroke-linejoin:round;stroke-miterlimit:10;" x1="67.3" y1="210.5" x2="182.3" y2="210.5"/>
	<g style="opacity:0.3;">
		<path style="fill:#FFFFFF;" d="M118,91.6c-1.4,0-2.5-1.1-2.5-2.5V49.5c0-1.4,1.1-2.5,2.5-2.5s2.5,1.1,2.5,2.5v39.6
			C120.5,90.4,119.4,91.6,118,91.6z"/>
	</g>
	<g style="opacity:0.3;">
		<path style="fill:#FFFFFF;" d="M143,79.1c-1.4,0-2.5-1.1-2.5-2.5V37c0-1.4,1.1-2.5,2.5-2.5s2.5,1.1,2.5,2.5v39.6
			C145.5,77.9,144.4,79.1,143,79.1z"/>
	</g>
	<g style="opacity:0.3;">
		<path style="fill:#FFFFFF;" d="M133.5,98.6c-1.4,0-2.5-1.1-2.5-2.5V34c0-1.4,1.1-2.5,2.5-2.5s2.5,1.1,2.5,2.5v62.1
			C136,97.4,134.9,98.6,133.5,98.6z"/>
	</g>
</g>
</svg>
