<?xml version="1.0" encoding="utf-8"?>
<!-- Generator: Adobe Illustrator 22.1.0, SVG Export Plug-In . SVG Version: 6.00 Build 0)  -->
<svg version="1.1" id="Layer_1" xmlns="http://www.w3.org/2000/svg" xmlns:xlink="http://www.w3.org/1999/xlink" x="0px" y="0px"
	 viewBox="0 0 256 256" style="enable-background:new 0 0 256 256;" xml:space="preserve">
<g>
	<path style="fill:#F4378D;" d="M182.2,78.6c0,34.2-9.2,43.6-61.4,43.6c-46.2,0-62.3-9.4-62.3-43.6s27.7-61.9,61.9-61.9
		S182.2,44.4,182.2,78.6z"/>
	<path style="fill:#F4378D;" d="M150.6,114.3v7.7c0,2.8-1.5,5.3-3.7,6.7c-0.5,0.4-1.1,0.6-1.8,0.8c-0.8,0.3-1.6,0.4-2.5,0.4
		c-0.2,0-0.3,0-0.5,0c-1.4-0.1-2.7-0.5-3.8-1.3c-0.8-0.5-1.5-1.2-2-1.9c-1-1.3-1.6-3-1.6-4.8v-7.7c0-1.6,0.5-3,1.2-4.2
		c1.4-2.2,3.9-3.7,6.7-3.7c2.2,0,4.2,0.9,5.6,2.3C149.7,110.1,150.6,112.1,150.6,114.3z"/>
	<path style="fill:#F4378D;" d="M136,106.5v7.7c0,0.8-0.1,1.6-0.3,2.3c-0.2,0.7-0.5,1.4-0.9,2c-0.1,0.2-0.3,0.4-0.4,0.6
		c-1,1.3-2.4,2.3-4,2.8c-0.7,0.2-1.5,0.4-2.3,0.4c-3.6,0-6.6-2.4-7.6-5.7c-0.2-0.7-0.3-1.5-0.3-2.3v-7.7c0-4.4,3.6-7.9,8-7.9
		c2.2,0,4.2,0.9,5.6,2.3C135.1,102.3,136,104.3,136,106.5z"/>
</g>
<g style="opacity:0;">
	<path style="fill:#FCA265;" d="M165.7,116.5l-39.3,113.8c-1.8,5.3-9.3,5.3-11.1,0L75.9,116.5h44.5c1,3.3,4,5.7,7.6,5.7
		c2.8,0,5.3-1.5,6.7-3.7v3.5c0,4.4,3.6,7.9,8,7.9s7.9-3.6,7.9-7.9v-5.5C150.6,116.5,165.7,116.5,165.7,116.5z"/>
	<g>
		<path style="fill:#ED9356;" d="M152.5,139c-0.4,0.4-0.9,0.6-1.5,0.6c-0.5,0-1-0.2-1.4-0.5l-11.3-10.5c1.1,0.7,2.4,1.2,3.8,1.3
			c0.2,0,0.3,0,0.5,0c0.9,0,1.7-0.1,2.5-0.4l7.2,6.7C153.2,137,153.2,138.2,152.5,139z"/>
		<path style="fill:#ED9356;" d="M136.3,126.7l-3.4-3.1c-0.8-0.8-0.8-2-0.1-2.8c0.5-0.5,1.2-0.7,1.8-0.6v1.8
			C134.7,123.7,135.3,125.4,136.3,126.7z"/>
	</g>
	<g>
		<path style="fill:#ED9356;" d="M138.5,172c-0.5,0-1-0.2-1.4-0.6l-46.8-47.9c-0.8-0.8-0.8-2.1,0-2.8c0.8-0.8,2.1-0.8,2.8,0
			l46.8,47.9c0.8,0.8,0.8,2.1,0,2.8C139.5,171.8,139,172,138.5,172z"/>
	</g>
	<g>
		<path style="fill:#ED9356;" d="M133,189.5c-0.5,0-1.1-0.2-1.4-0.6l-41.3-43c-0.8-0.8-0.7-2.1,0.1-2.8c0.8-0.8,2.1-0.7,2.8,0.1
			l41.3,43c0.8,0.8,0.7,2.1-0.1,2.8C134,189.3,133.5,189.5,133,189.5z"/>
	</g>
	<g>
		<path style="fill:#ED9356;" d="M128,206.3c-0.5,0-1.1-0.2-1.5-0.7l-25-28c-0.7-0.8-0.7-2.1,0.2-2.8c0.8-0.7,2.1-0.7,2.8,0.2l25,28
			c0.7,0.8,0.7,2.1-0.2,2.8C129,206.1,128.5,206.3,128,206.3z"/>
	</g>
	<g>
		<path style="fill:#ED9356;" d="M146.9,128.7L117,208.2c-0.3,0.8-1.1,1.3-1.9,1.3c-0.2,0-0.5,0-0.7-0.1c-1-0.4-1.6-1.5-1.2-2.6
			l29-76.9c0.2,0,0.3,0,0.5,0C144.2,129.9,145.7,129.5,146.9,128.7z"/>
	</g>
	<g>
		<path style="fill:#ED9356;" d="M134.8,121.3l-27.3,67c-0.3,0.8-1.1,1.3-1.8,1.3c-0.3,0-0.5,0-0.8-0.2c-1-0.4-1.5-1.6-1.1-2.6
			l26.4-65c1.6-0.5,3-1.5,4-2.8C134.9,119.5,135.2,120.4,134.8,121.3z"/>
	</g>
	<g>
		<path style="fill:#ED9356;" d="M96.7,162.8c-0.3,0-0.5,0-0.8-0.2c-1-0.4-1.5-1.6-1.1-2.6l16-38.6c0.3-0.6,0.8-1.1,1.4-1.2
			c0.7-0.1,1.3,0.1,1.8,0.5l32,31.4c0.8,0.8,0.8,2,0,2.8s-2,0.8-2.8,0l-29.9-29.3l-14.9,35.9C98.3,162.3,97.5,162.8,96.7,162.8z"/>
	</g>
	<g style="opacity:0.5;">
		<path style="fill:#FFFFFF;" d="M165.7,50.8c-0.7,0-1.5-0.3-1.9-0.9c-12-14.9-24-18.5-24.1-18.5c-1.3-0.4-2.1-1.8-1.7-3.1
			c0.4-1.3,1.8-2.1,3.1-1.7c0.5,0.2,13.6,4.1,26.6,20.2c0.9,1.1,0.7,2.6-0.4,3.5C166.8,50.7,166.2,50.8,165.7,50.8z"/>
	</g>
</g>
</svg>
