<?xml version="1.0" encoding="utf-8"?>
<!-- Generator: Adobe Illustrator 22.1.0, SVG Export Plug-In . SVG Version: 6.00 Build 0)  -->
<svg version="1.1" id="Layer_1" xmlns="http://www.w3.org/2000/svg" xmlns:xlink="http://www.w3.org/1999/xlink" x="0px" y="0px"
	 viewBox="0 0 256 256" style="enable-background:new 0 0 256 256;" xml:space="preserve">
<g style="opacity:0;">
	<path style="fill:#EF9841;" d="M242.6,151.4c-9,50-49.5,90.5-102.4,97.2C75,256.7,15.5,210.5,7.5,145.1
		C-0.7,79.9,45.6,20.4,110.9,12.4c25.5-3.2,50.2,2,71.3,13.4c32.7,17.7,56.5,50.4,61.4,90C245.2,127.9,244.7,140,242.6,151.4z"/>
	
		<ellipse transform="matrix(0.1602 -0.9871 0.9871 0.1602 113.3233 273.0045)" style="fill:#EF9841;" cx="217.1" cy="69.9" rx="16.3" ry="16.3"/>
	
		<ellipse transform="matrix(0.9999 -1.020248e-02 1.020248e-02 0.9999 -1.6394 0.1766)" style="fill:#EF9841;" cx="16.5" cy="160.8" rx="10.9" ry="10.9"/>
	<circle style="fill:#EF9841;" cx="133.6" cy="20.4" r="10.9"/>
</g>
<g>
	<g style="opacity:0.3;">
		<path style="opacity:0.3;enable-background:new    ;" d="M231.7,76.9c-4.3-8.3-9.4-16.2-15.3-23.1c8.3-0.3,15.7,5.8,16.8,14.3
			C233.6,71.1,233.1,74.2,231.7,76.9z"/>
	</g>
	<g style="opacity:0.1;">
		<ellipse transform="matrix(3.327795e-02 -0.9994 0.9994 3.327795e-02 -72.8662 186.6464)" cx="60" cy="131" rx="16.3" ry="16.3"/>
		<circle cx="177.6" cy="178.8" r="16.3"/>
		<circle cx="147" cy="129.5" r="10.9"/>
		<circle cx="113.5" cy="209.8" r="10.9"/>
		<circle cx="106.7" cy="67.2" r="10.9"/>
		<path d="M231.7,76.9c-2.2,4.9-7,8.5-12.8,9.2c-8.8,1-17-5.3-18.2-14.1c-1.2-9,5.3-17,14.1-18.2c0.5,0,0.9-0.2,1.4-0.2
			C222.4,60.7,227.7,68.5,231.7,76.9z"/>
		
			<ellipse transform="matrix(0.9999 -1.020248e-02 1.020248e-02 0.9999 -1.6394 0.1766)" cx="16.5" cy="160.8" rx="10.9" ry="10.9"/>
		<circle cx="133.6" cy="20.4" r="10.9"/>
	</g>
</g>
</svg>
