<?xml version="1.0" encoding="utf-8"?>
<!-- Generator: Adobe Illustrator 22.1.0, SVG Export Plug-In . SVG Version: 6.00 Build 0)  -->
<svg version="1.1" id="Layer_1" xmlns="http://www.w3.org/2000/svg" xmlns:xlink="http://www.w3.org/1999/xlink" x="0px" y="0px"
	 viewBox="0 0 256 256" style="enable-background:new 0 0 256 256;" xml:space="preserve">
<g style="opacity:0;">
	<path style="fill:#FFFFFF;" d="M144.9,161.9c-5.3,29.4-29.1,53.2-60.2,57.1c-38.3,4.8-73.3-22.4-78-60.8
		c-4.8-38.3,22.4-73.3,60.8-78c15-1.9,29.5,1.2,41.9,7.9c19.2,10.4,33.2,29.6,36.1,52.9C146.4,148.1,146.1,155.2,144.9,161.9z"/>
	<circle style="fill:#FFFFFF;" cx="129.9" cy="114" r="9.6"/>
	<circle style="fill:#FFFFFF;" cx="12" cy="167.4" r="6.4"/>
	<circle style="fill:#FFFFFF;" cx="80.8" cy="84.9" r="6.4"/>
	<path style="fill:#FFFFFF;" d="M248.1,100.4c0,38.6-31.3,69.9-69.9,69.9c-12,0-23.4-3-33.3-8.4c1.2-6.8,1.4-13.8,0.5-21
		c-2.9-23.3-16.9-42.5-36.1-52.9c5.8-32.7,34.4-57.6,68.9-57.6c1.2,0,2.3,0,3.5,0.1c0,8.6,7,15.5,15.6,15.5c0.3,0,0.7,0,1,0
		c-0.7,2.5-1,5.2-1,7.9c0,17.1,13.9,31,31,31c6.2,0,12-1.8,16.8-5C247.1,86.4,248.1,93.3,248.1,100.4z"/>
	<circle style="fill:#FFFFFF;" cx="120.4" cy="71.7" r="9.6"/>
	<circle style="fill:#FFFFFF;" cx="244" cy="110.2" r="6.4"/>
	<circle style="fill:#FFFFFF;" cx="165.6" cy="36.8" r="6.4"/>
</g>
<g>
	<path style="opacity:0.2;" d="M244,103.8c1.5,0,2.9,0.5,4,1.4c0.1-1.6,0.2-3.2,0.2-4.9c0-7.1-1.1-14-3-20.4c-4.8,3.1-10.6,5-16.8,5
		c-17.1,0-31-13.9-31-31c0-2.7,0.4-5.4,1-7.9c-0.3,0-0.7,0-1,0c-8.6,0-15.6-6.9-15.6-15.5c-1.1-0.1-2.3-0.1-3.5-0.1
		c-3.3,0-6.6,0.2-9.8,0.7c2.1,1,3.5,3.2,3.5,5.7c0,3.5-2.9,6.4-6.4,6.4s-6.4-2.9-6.4-6.4c0-1.6,0.6-3.1,1.6-4.2
		C143.6,37,129,47.8,119.6,62.2c0.3,0,0.5,0,0.8,0c5.3,0,9.6,4.3,9.6,9.6c0,5.3-4.3,9.6-9.6,9.6c-3.4,0-6.4-1.8-8.1-4.5
		c-1.3,3.6-2.3,7.4-3,11.2c7.7,4.2,14.5,9.7,20.2,16.4c4.9-0.2,9.2,3.4,9.9,8.4c0.2,1.9-0.1,3.7-0.8,5.3c1.6,3.3,3,6.6,4.2,10.2
		c1.5-3.2,4.8-5.5,8.6-5.5c5.3,0,9.6,4.3,9.6,9.6c0,5.3-4.3,9.6-9.6,9.6c-2.3,0-4.4-0.8-6-2.1c0.1,0.4,0.1,0.7,0.1,1.1
		c0.9,7.2,0.7,14.2-0.5,21c9.9,5.4,21.2,8.4,33.3,8.4c33.2,0,61-23.2,68.1-54.2c-0.7,0.3-1.5,0.5-2.4,0.5c-3.5,0-6.4-2.9-6.4-6.4
		C237.6,106.7,240.5,103.8,244,103.8z M165.6,107.7c-3.5,0-6.4-2.8-6.4-6.4s2.8-6.4,6.4-6.4s6.4,2.8,6.4,6.4
		S169.1,107.7,165.6,107.7z M178.2,62.2c0-3.5,2.9-6.4,6.4-6.4c3.5,0,6.4,2.9,6.4,6.4c0,3.5-2.9,6.4-6.4,6.4
		C181.1,68.5,178.2,65.7,178.2,62.2z M191,152.2c-3.5,0-6.4-2.8-6.4-6.4s2.9-6.4,6.4-6.4c3.5,0,6.4,2.8,6.4,6.4
		S194.5,152.2,191,152.2z M216.5,105.5c-5.3,0-9.6-4.3-9.6-9.6c0-5.3,4.3-9.6,9.6-9.6c5.3,0,9.6,4.3,9.6,9.6
		C226,101.3,221.8,105.5,216.5,105.5z"/>
	<g style="opacity:0.3;">
		<circle cx="216.5" cy="96" r="9.6"/>
		<path d="M160.9,132.4c0,5.3-4.3,9.6-9.6,9.6c-2.3,0-4.4-0.8-6-2.1c-0.5-4-1.4-7.9-2.6-11.6c1.5-3.2,4.8-5.5,8.6-5.5
			C156.6,122.8,160.9,127.1,160.9,132.4z"/>
		<path d="M145.3,139.8c-2.2-1.8-3.6-4.4-3.6-7.4c0-1.5,0.3-2.9,0.9-4.1C143.9,132,144.8,135.9,145.3,139.8z"/>
		<path d="M172,101.4c0,3.5-2.9,6.4-6.4,6.4s-6.4-2.8-6.4-6.4s2.8-6.4,6.4-6.4S172,97.8,172,101.4z"/>
		<path d="M197.3,145.8c0,3.5-2.9,6.4-6.4,6.4c-3.5,0-6.4-2.8-6.4-6.4s2.9-6.4,6.4-6.4C194.5,139.4,197.3,142.3,197.3,145.8z"/>
		<path d="M191,62.2c0,3.5-2.9,6.4-6.4,6.4c-3.5,0-6.4-2.8-6.4-6.4c0-3.5,2.9-6.4,6.4-6.4C188.1,55.8,191,58.7,191,62.2z"/>
		<path d="M130,71.7c0,5.3-4.3,9.6-9.6,9.6c-3.4,0-6.4-1.8-8.1-4.5c1.8-5.2,4.3-10.1,7.3-14.6c0.3,0,0.5,0,0.8,0
			C125.7,62.2,130,66.5,130,71.7z"/>
		<path d="M119.6,62.2c-3,4.5-5.4,9.4-7.3,14.6c-0.9-1.5-1.5-3.2-1.5-5.1C110.8,66.7,114.7,62.6,119.6,62.2z"/>
		<path d="M248,105.2c-0.3,3.7-0.8,7.3-1.6,10.9v0c-0.7,0.3-1.5,0.5-2.4,0.5c-3.5,0-6.4-2.9-6.4-6.4c0-3.5,2.9-6.4,6.4-6.4
			C245.5,103.8,246.9,104.3,248,105.2z"/>
		<path d="M250.3,110.2c0,2.7-1.7,5-4,5.9c0.8-3.5,1.4-7.1,1.6-10.9C249.4,106.4,250.3,108.2,250.3,110.2z"/>
		<path d="M172,36.8c0,3.5-2.9,6.4-6.4,6.4s-6.4-2.9-6.4-6.4c0-1.6,0.6-3.1,1.6-4.2c2.5-0.7,5.1-1.2,7.7-1.5
			C170.5,32.2,172,34.3,172,36.8z"/>
		<path d="M168.4,31.1c-2.6,0.4-5.2,0.9-7.7,1.5c1.2-1.4,2.9-2.2,4.8-2.2C166.6,30.5,167.6,30.7,168.4,31.1z"/>
		<path style="opacity:0.3;" d="M138.5,118.1c-2.5-4.9-5.5-9.5-9-13.6c4.9-0.2,9.2,3.4,9.9,8.4C139.6,114.7,139.3,116.5,138.5,118.1
			z"/>
	</g>
	<g style="opacity:0.1;">
		<circle cx="37.6" cy="149.9" r="9.6"/>
		<circle cx="106.7" cy="178" r="9.6"/>
		<circle cx="88.7" cy="149" r="6.4"/>
		<circle cx="69" cy="196.2" r="6.4"/>
		<circle cx="65" cy="112.4" r="6.4"/>
		<path d="M138.5,118.1c-1.3,2.9-4.1,5-7.5,5.4c-5.2,0.6-10-3.1-10.7-8.3c-0.7-5.3,3.1-10,8.3-10.7c0.3,0,0.5-0.1,0.8-0.1
			C133,108.6,136.1,113.2,138.5,118.1z"/>
		<circle cx="12" cy="167.4" r="6.4"/>
		<circle cx="80.8" cy="84.9" r="6.4"/>
	</g>
</g>
</svg>
