<?xml version="1.0" encoding="utf-8"?>
<!-- Generator: Adobe Illustrator 22.1.0, SVG Export Plug-In . SVG Version: 6.00 Build 0)  -->
<svg version="1.1" id="Layer_1" xmlns="http://www.w3.org/2000/svg" xmlns:xlink="http://www.w3.org/1999/xlink" x="0px" y="0px"
	 viewBox="0 0 256 256" style="enable-background:new 0 0 256 256;" xml:space="preserve">
<g style="opacity:0;">
	<path style="fill:#703910;" d="M218.2,60.6c-9.6-5.3-31.4-33.2-31.4-33.2s-36.7,1.8-74.2,16.5C75,58.8,32.3,114.7,32.3,114.7
		c-19.2,22.6-31.4,65.4-5.3,95.2c26.1,29.8,76.9,21.8,148.4-7.9c71.6-29.8,68.1-102.1,70.7-119.7C248.7,65.1,227.7,65.9,218.2,60.6z
		 M172.5,79.7c1.6,1.8,3.2,3.9,4,5.9C175.6,83.6,174,81.5,172.5,79.7z M171.9,79c-0.3-0.3-0.5-0.5-0.8-0.8c0.3,0.3,0.6,0.6,1,1
		c0.1,0.2,0.3,0.3,0.4,0.5C172.3,79.4,172.1,79.2,171.9,79z"/>
	<path style="fill:#703910;" d="M171.1,78.2c0.3,0.3,0.5,0.5,0.8,0.8c0.2,0.2,0.4,0.5,0.6,0.7c-0.2-0.2-0.3-0.3-0.4-0.5
		C171.8,78.8,171.5,78.5,171.1,78.2z"/>
	<path style="fill:#703910;" d="M172.5,79.7c-0.2-0.2-0.4-0.5-0.6-0.7c-0.3-0.3-0.5-0.5-0.8-0.8c0.3,0.3,0.6,0.6,1,1
		C172.2,79.3,172.4,79.5,172.5,79.7z"/>
</g>
<g>
	<path style="opacity:0.3;enable-background:new    ;" d="M218.2,60.6c-9.6-5.3-31.4-33.2-31.4-33.2s-36.7,1.8-74.2,16.5
		C92,52.1,69.8,72.5,54.1,89.4l-42,76.2c-0.6,15.3,3.5,31.2,14.9,44.2c26.1,29.8,76.9,21.8,148.4-8s68.1-102.1,70.7-119.7
		C248.7,65.1,227.7,65.9,218.2,60.6z M193.5,90.4c-0.8,11.4-10.4,19-20.4,27.1c-1.8,1.4-3.7,3.1-5.7,4.5c-3.5,2.9-8.2,7.1-13.7,12
		c-28.9,25.7-56.1,49.1-73,54c-5.9,1.6-10.8,2.7-15.3,2.7c-4.7,0-8.8-1-12-2.9c-7.5-4.3-10.6-12.2-12.4-19.4
		c-0.4-1.8-0.2-3.9,0.6-5.7c1.4-2.9,34.9-72,93-96c10.2-8.4,32.2-17.5,49.5,1.6C191,75.9,194.1,83.3,193.5,90.4z M32.2,114.9
		c-4.1,4.7-7.7,10.2-10.8,16.3l27.3-35.9C38.6,106.3,32.2,114.9,32.2,114.9z"/>
	<path style="opacity:0.3;enable-background:new    ;" d="M54.1,89.6l-42,76.2c0.6-12.2,4.1-24.3,9.4-34.7l27.3-35.9l0,0
		C50.4,93.2,52.2,91.4,54.1,89.6z"/>
	<path style="opacity:0.3;enable-background:new    ;" d="M177.4,89.2c-0.4,4.3-7.1,9.8-14.3,15.7c-2,1.6-3.9,3.1-5.9,4.7
		c-3.7,3.1-8.4,7.3-14.1,12.4c-19.4,17.3-52,46.3-66.9,50.6c-9.6,2.9-13.5,1.8-14.9,1c-1.4-0.8-2.7-2.9-3.9-6.5
		c6.7-12.8,37.3-67.1,84.2-85.8c0.8-0.4,1.6-0.8,2.4-1.4c1.6-1.4,16.1-13.5,27.9-0.6C174.5,82,177.6,86.1,177.4,89.2z"/>
</g>
</svg>
