<?xml version="1.0" encoding="utf-8"?>
<!-- Generator: Adobe Illustrator 22.1.0, SVG Export Plug-In . SVG Version: 6.00 Build 0)  -->
<svg version="1.1" id="Layer_1" xmlns="http://www.w3.org/2000/svg" xmlns:xlink="http://www.w3.org/1999/xlink" x="0px" y="0px"
	 viewBox="0 0 256 256" style="enable-background:new 0 0 256 256;" xml:space="preserve">
<g style="opacity:0;">
	<path style="fill:#FFFFFF;" d="M152,120.3L130,160.2c-8,2.7-18.4,4.4-30.9,5.7c-25.1,2.6-60.4-1.9-74.5-13.5c-1-0.8-2-1.7-2.9-2.7
		c0,0,19.9-10.2,25.7-10.5c5.8-0.3,15.7-1.3,17.7,0c1.9,1.3,13.5,2.6,21.2,3.8c7.7,1.3,7.4-2.6,13.5-3.2c6.1-0.6,22.8-2.6,27.6-1.3
		c1.9,0.5,5.3,1.3,8.7,2.1l13.4-17.7c0-12.3-7.3-16.9-7.3-16.9l-14.1,8.7c0,0-25.1,5.8-28.6,7.1c-3.5,1.3-23.8,3.2-33.1,2.9
		s-20.6-1-28.9-5.8c-8.4-4.8-19.9-4.2-19.9-4.2s-2.7-1.4-7.1,4.2C18.8,104.8,40,98.4,51.5,97c11.6-1.4,27-3.1,47.6-5
		c20.6-1.9,43,10.3,43,10.3C148.2,107.6,151,113.9,152,120.3z"/>
	<path style="fill:#FFFFFF;" d="M232.5,106.1c-4.7-2.6-15.4-16.3-15.4-16.3s-18,0.9-36.4,8.1c-18.4,7.3-39.4,34.7-39.4,34.7
		c-9.4,11.1-15.4,32.1-2.6,46.7c12.8,14.6,37.7,10.7,72.8-3.9c35.1-14.6,33.4-50.1,34.7-58.7C247.5,108.3,237.2,108.7,232.5,106.1z
		 M220.4,120.7c-0.4,5.6-5.1,9.3-10,13.3c-0.9,0.7-1.8,1.5-2.8,2.2c-1.7,1.4-4,3.5-6.7,5.9c-14.2,12.6-27.5,24.1-35.8,26.5
		c-2.9,0.8-5.3,1.3-7.5,1.3c-2.3,0-4.3-0.5-5.9-1.4c-3.7-2.1-5.2-6-6.1-9.5c-0.2-0.9-0.1-1.9,0.3-2.8c0.7-1.4,17.1-35.3,45.6-47.1
		c5-4.1,15.8-8.6,24.3,0.8C219.2,113.6,220.7,117.2,220.4,120.7z"/>
	<path style="fill:#FFFFFF;" d="M215.8,109.8c-8.5-9.4-19.3-4.8-24.3-0.8c-28.6,11.8-45,45.7-45.6,47.1c-0.4,0.9-0.5,1.8-0.3,2.8
		c0.9,3.5,2.4,7.4,6.1,9.5c1.7,0.9,3.6,1.4,5.9,1.4c2.2,0,4.6-0.4,7.5-1.3c8.3-2.4,21.7-13.9,35.8-26.5c2.7-2.4,5.1-4.5,6.7-5.9
		c0.9-0.8,1.9-1.5,2.8-2.2c4.9-4,9.6-7.7,10-13.3C220.7,117.2,219.2,113.6,215.8,109.8z M205.4,127.7c-1,0.8-1.9,1.5-2.9,2.3
		c-1.8,1.5-4.1,3.6-6.9,6.1c-9.5,8.5-25.5,22.7-32.8,24.8c-4.7,1.4-6.6,0.9-7.3,0.5c-0.7-0.4-1.3-1.4-1.9-3.2
		c3.3-6.3,18.3-32.9,41.3-42.1c0.4-0.2,0.8-0.4,1.2-0.7c0.8-0.7,7.9-6.6,13.7-0.3c1.3,1.4,2.7,3.3,2.6,4.8
		C212.3,122.2,209,124.9,205.4,127.7z"/>
	<path style="fill:#FFFFFF;" d="M212.5,120.1c-0.2,2.1-3.5,4.8-7,7.7c-1,0.8-1.9,1.5-2.9,2.3c-1.8,1.5-4.1,3.6-6.9,6.1
		c-9.5,8.5-25.5,22.7-32.8,24.8c-4.7,1.4-6.6,0.9-7.3,0.5c-0.7-0.4-1.3-1.4-1.9-3.2c3.3-6.3,18.3-32.9,41.3-42.1
		c0.4-0.2,0.8-0.4,1.2-0.7c0.8-0.7,7.9-6.6,13.7-0.3C211.1,116.6,212.6,118.6,212.5,120.1z"/>
	<path style="fill:#FFFFFF;" d="M149.4,123L136,140.7c-3.4-0.8-6.7-1.6-8.7-2.1c-4.8-1.3-21.5,0.6-27.6,1.3
		c-6.1,0.6-5.8,4.5-13.5,3.2c-7.7-1.3-19.3-2.6-21.2-3.8c-1.9-1.3-11.9-0.3-17.7,0c-5.8,0.3-25.7,10.5-25.7,10.5s0,0,0,0
		c-0.3-0.4-6-9.7-9.4-18.1c-2.2-5.4-3.5-10.5-1.8-12.6c4.3-5.6,7.1-4.2,7.1-4.2s11.6-0.6,19.9,4.2c8.4,4.8,19.6,5.5,28.9,5.8
		s29.6-1.6,33.1-2.9c3.5-1.3,28.6-7.1,28.6-7.1l14.1-8.7C142.1,106.1,149.4,110.7,149.4,123z"/>
</g>
<g>
	<path style="opacity:0.3;" d="M127.4,138.6c1.9,0.5,5.3,1.3,8.7,2.1c-2.6,5.1-4.4,11-4.6,17l-1.4,2.5c-8,2.7-18.4,4.4-30.9,5.7
		c-25.1,2.6-60.4-1.9-74.5-13.5c-1-0.8-2-1.7-2.9-2.7c0,0,19.9-10.2,25.7-10.5c5.8-0.3,15.7-1.3,17.7,0c1.9,1.3,13.5,2.6,21.2,3.8
		c7.7,1.3,7.4-2.6,13.5-3.2C105.8,139.2,122.5,137.3,127.4,138.6z"/>
	<path style="opacity:0.3;" d="M152,120.3c-0.9,0.9-1.7,1.9-2.5,2.7c0-12.3-7.3-16.9-7.3-16.9l-14.1,8.7c0,0-25.1,5.8-28.6,7.1
		c-3.5,1.3-23.8,3.2-33.1,2.9s-20.6-1-28.9-5.8c-8.4-4.8-19.9-4.2-19.9-4.2s-2.7-1.4-7.1,4.2C18.8,104.8,40,98.4,51.5,97
		c11.6-1.4,27-3.1,47.6-5c20.6-1.9,43,10.3,43,10.3C148.2,107.6,151,113.9,152,120.3z"/>
	<path style="opacity:0.3;" d="M232.5,106.1c-4.7-2.6-15.4-16.3-15.4-16.3s-18,0.9-36.4,8.1c-10.1,4-21,14-28.7,22.3l-20.6,37.4
		c-0.3,7.5,1.7,15.3,7.3,21.7c12.8,14.6,37.7,10.7,72.8-3.9c35.1-14.6,33.4-50.1,34.7-58.7C247.5,108.3,237.2,108.7,232.5,106.1z
		 M220.4,120.7c-0.4,5.6-5.1,9.3-10,13.3c-0.9,0.7-1.8,1.5-2.8,2.2c-1.7,1.4-4,3.5-6.7,5.9c-14.2,12.6-27.5,24.1-35.8,26.5
		c-2.9,0.8-5.3,1.3-7.5,1.3c-2.3,0-4.3-0.5-5.9-1.4c-3.7-2.1-5.2-6-6.1-9.5c-0.2-0.9-0.1-1.9,0.3-2.8c0.7-1.4,17.1-35.3,45.6-47.1
		c5-4.1,15.8-8.6,24.3,0.8C219.2,113.6,220.7,117.2,220.4,120.7z M141.3,132.7c-2,2.3-3.8,5-5.3,8l13.4-17.6
		C144.4,128.5,141.3,132.7,141.3,132.7z"/>
	<path style="opacity:0.3;" d="M152,120.3l-20.6,37.4c0.3-6,2-11.9,4.6-17l13.4-17.6c0,0,0,0,0,0C150.2,122.1,151.1,121.2,152,120.3
		z"/>
	<path style="opacity:0.3;" d="M212.5,120.1c-0.2,2.1-3.5,4.8-7,7.7c-1,0.8-1.9,1.5-2.9,2.3c-1.8,1.5-4.1,3.6-6.9,6.1
		c-9.5,8.5-25.5,22.7-32.8,24.8c-4.7,1.4-6.6,0.9-7.3,0.5c-0.7-0.4-1.3-1.4-1.9-3.2c3.3-6.3,18.3-32.9,41.3-42.1
		c0.4-0.2,0.8-0.4,1.2-0.7c0.8-0.7,7.9-6.6,13.7-0.3C211.1,116.6,212.6,118.6,212.5,120.1z"/>
</g>
</svg>
