<?xml version="1.0" encoding="utf-8"?>
<!-- Generator: Adobe Illustrator 22.1.0, SVG Export Plug-In . SVG Version: 6.00 Build 0)  -->
<svg version="1.1" id="Layer_1" xmlns="http://www.w3.org/2000/svg" xmlns:xlink="http://www.w3.org/1999/xlink" x="0px" y="0px"
	 viewBox="0 0 256 256" style="enable-background:new 0 0 256 256;" xml:space="preserve">
<g style="opacity:0;">
	<path style="fill:#73DDEF;" d="M245.5,128c0,16.4-3.4,32-9.4,46.2c-1.9-2.7-3.1-6.1-3.1-9.7v-6.6c0-10.2-3.3-18.4-13.4-18.4h-1
		c-3.3,0-10.1,5.7-10.1,9.1v-3c0,8.9-7.3,16.9-16.2,17.2c-9.5,0.3-17.3-7.3-17.3-16.7c0-1.8-0.7-3.4-1.9-4.6
		c-0.7-0.7-1.5-1.2-2.5-1.5c1-3.8,1.6-7.8,1.6-11.9c0-24.4-19.8-44.3-44.3-44.3c-21.3,0-39.2,15.1-43.3,35.2
		c-8.4,1.9-14.7,9.4-14.7,18.3c0,9.3-7.5,17.2-16.8,17.2h-0.3c-9.1-0.2-16.4-7.6-16.4-16.8v-9.4c0-5.4-4.4-9.9-9.9-9.9h-0.8
		c-3.3,0-6.4,1.8-8.3,4.5c-1.8,2.5-4.2,4.6-7,5.8c0-0.3,0-0.5,0-0.8C10.5,63.1,63.1,10.5,128,10.5S245.5,63.1,245.5,128z"/>
</g>
<g>
	<path style="fill:#FFE197;" d="M236.1,174.2c-17.9,41.9-59.6,71.3-108.1,71.3c-64.6,0-117-52.2-117.5-116.7c2.8-1.3,5.3-3.3,7-5.8
		c1.9-2.8,4.9-4.5,8.3-4.5h0.8c5.4,0,9.9,4.4,9.9,9.9v9.4c0,9.1,7.3,16.6,16.4,16.8h0.3c9.3,0,16.8-7.9,16.8-17.2
		c0-9,6.3-16.5,14.7-18.3c-0.6,2.9-0.9,5.9-0.9,9c0,24.4,19.8,44.3,44.3,44.3c20.3,0,37.5-13.7,42.6-32.4c0.9,0.3,1.8,0.9,2.5,1.5
		c1.2,1.2,1.9,2.8,1.9,4.6c0,9.4,7.8,17.1,17.3,16.7c8.9-0.3,16.2-8.3,16.2-17.2v3c0-3.3,6.7-9.1,10.1-9.1h1
		c10.2,0,13.4,8.3,13.4,18.4v6.6C233,168.1,234.1,171.4,236.1,174.2z"/>
	<g>
		<path style="fill:#FFFFFF;" d="M95.1,80c-0.8,0-1.6-0.4-2.1-1.1l-5.7-8.6c-0.8-1.2-0.4-2.7,0.7-3.5c1.2-0.8,2.7-0.4,3.5,0.7
			l5.7,8.6c0.8,1.2,0.4,2.7-0.7,3.5C96,79.9,95.5,80,95.1,80z"/>
	</g>
	<g>
		<path style="fill:#FFFFFF;" d="M117.7,36.9c-1.3,0-2.4-1.1-2.5-2.4c-0.1-1.4,1-2.5,2.4-2.6l10.3-0.4c1.4-0.1,2.5,1,2.6,2.4
			s-1,2.5-2.4,2.6l-10.3,0.4C117.8,36.9,117.8,36.9,117.7,36.9z"/>
	</g>
	<g>
		<path style="fill:#FFFFFF;" d="M183.6,99.2c-1.3,0-2.5-1.1-2.5-2.4l-0.4-10.3c0-1.4,1-2.5,2.4-2.6c1.4,0,2.5,1,2.6,2.4l0.4,10.3
			C186.2,98,185.1,99.1,183.6,99.2C183.7,99.2,183.6,99.2,183.6,99.2z"/>
	</g>
	<g>
		<path style="fill:#FFFFFF;" d="M68.7,100.7c-1.3,0-2.5-1.1-2.5-2.4L65.9,88c0-1.4,1-2.5,2.4-2.6c1.4,0,2.5,1,2.6,2.4l0.4,10.3
			C71.3,99.5,70.2,100.6,68.7,100.7C68.8,100.7,68.8,100.7,68.7,100.7z"/>
	</g>
	<g>
		<path style="fill:#FFFFFF;" d="M169.4,57.3c-1.3,0-2.5-1.1-2.5-2.4l-0.4-10.3c0-1.4,1-2.5,2.4-2.6s2.5,1,2.6,2.4l0.4,10.3
			C171.9,56.1,170.8,57.3,169.4,57.3L169.4,57.3z"/>
	</g>
	<g>
		<path style="fill:#FFFFFF;" d="M225.9,89.4c-0.4,0-0.8-0.1-1.2-0.3l-9-5c-1.2-0.7-1.6-2.2-1-3.4c0.7-1.2,2.2-1.6,3.4-1l9,5
			c1.2,0.7,1.6,2.2,1,3.4C227.7,88.9,226.8,89.4,225.9,89.4z"/>
	</g>
	<g>
		<path style="fill:#FFFFFF;" d="M28.3,110.4c-0.7,0-1.4-0.3-1.9-0.9l-6.7-7.7c-0.9-1-0.8-2.6,0.2-3.5s2.6-0.8,3.5,0.2l6.7,7.7
			c0.9,1,0.8,2.6-0.2,3.5C29.5,110.2,28.9,110.4,28.3,110.4z"/>
	</g>
	<g>
		<g style="opacity:0.1;">
			<path d="M43,81c-0.6,0-1.2-0.2-1.7-0.7c-1-0.9-1.1-2.5-0.1-3.5l7-7.5c0.9-1,2.5-1.1,3.5-0.1c1,0.9,1.1,2.5,0.1,3.5l-7,7.5
				C44.3,80.7,43.7,81,43,81z"/>
		</g>
		<g style="opacity:0.1;">
			<path d="M88.6,49.7c-0.2,0-0.5,0-0.8-0.1L78,46.5c-1.3-0.4-2-1.8-1.6-3.1s1.8-2,3.1-1.6l9.8,3.1c1.3,0.4,2,1.8,1.6,3.1
				C90.7,49,89.7,49.7,88.6,49.7z"/>
		</g>
		<g style="opacity:0.1;">
			<path d="M138.7,72.8c-1.1,0-2.1-0.7-2.4-1.8c-0.4-1.3,0.4-2.7,1.7-3.1l9.9-2.7c1.3-0.4,2.7,0.4,3.1,1.7c0.4,1.3-0.4,2.7-1.7,3.1
				l-9.9,2.7C139.1,72.8,138.9,72.8,138.7,72.8z"/>
		</g>
		<g style="opacity:0.1;">
			<path d="M46.5,117.3c-1.1,0-2.1-0.7-2.4-1.8c-0.4-1.3,0.4-2.7,1.7-3.1l9.9-2.7c1.3-0.4,2.7,0.4,3.1,1.7c0.4,1.3-0.4,2.7-1.7,3.1
				l-9.9,2.7C46.9,117.2,46.7,117.3,46.5,117.3z"/>
		</g>
		<g style="opacity:0.1;">
			<path d="M188.6,76.6c-0.7,0-1.4-0.3-1.9-0.9L180,68c-0.9-1-0.8-2.6,0.2-3.5s2.6-0.8,3.5,0.2l6.7,7.7c0.9,1,0.8,2.6-0.2,3.5
				C189.7,76.4,189.1,76.6,188.6,76.6z"/>
		</g>
		<g style="opacity:0.1;">
			<path d="M221.3,121.9c-0.9,0-1.8-0.5-2.2-1.4c-0.6-1.2-0.1-2.7,1.1-3.4l9.2-4.6c1.2-0.6,2.7-0.1,3.4,1.1c0.6,1.2,0.1,2.7-1.1,3.4
				l-9.2,4.6C222.1,121.8,221.7,121.9,221.3,121.9z"/>
		</g>
	</g>
	<g>
		<path style="fill:#FFFFFF;" d="M188.8,142.4c-1.2,0-2.3-0.9-2.5-2.2c-0.2-1.4,0.8-2.6,2.2-2.8l10.2-1.3c1.4-0.2,2.6,0.8,2.8,2.2
			s-0.8,2.6-2.2,2.8l-10.2,1.3C189,142.3,188.9,142.4,188.8,142.4z"/>
	</g>
	<g style="opacity:0.5;">
		<path style="fill:#FFFFFF;" d="M226,111.4c-2.8,0-5.2-2.1-5.5-5c0-0.3-3.4-30.5-33.4-57.1c-29.8-26.5-78.8-19.5-79.3-19.4
			c-3,0.4-5.8-1.6-6.3-4.6s1.6-5.8,4.6-6.3c2.2-0.3,54.6-7.8,88.3,22c33.3,29.6,36.9,62.9,37,64.3c0.3,3-1.9,5.7-4.9,6
			C226.3,111.4,226.2,111.4,226,111.4z"/>
	</g>
</g>
</svg>
