<?xml version="1.0" encoding="utf-8"?>
<!-- Generator: Adobe Illustrator 22.1.0, SVG Export Plug-In . SVG Version: 6.00 Build 0)  -->
<svg version="1.1" id="Layer_1" xmlns="http://www.w3.org/2000/svg" xmlns:xlink="http://www.w3.org/1999/xlink" x="0px" y="0px"
	 viewBox="0 0 256 256" style="enable-background:new 0 0 256 256;" xml:space="preserve">
<g>
	<path style="fill:#FFFFFF;" d="M139.1,88.4c-6.5-35.9-38.2-60.2-70.8-54.3C35.7,39.9,14.5,73.8,21,109.7
		c6.5,35.9,38.2,60.2,70.8,54.3c3-0.5,5.9-1.3,8.6-2.3c0.1-11,3.1-22.2,9.5-32.3c7.4-11.9,18.3-20.4,30.3-25
		C140.4,99.2,140.1,93.8,139.1,88.4z M53,69c-3.9,0-7-3.1-7-7s3.1-7,7-7s7,3.1,7,7S56.9,69,53,69z M60,48c0-3.9,3.1-7,7-7s7,3.1,7,7
		s-3.1,7-7,7S60,51.9,60,48z M74,73c-3.9,0-7-3.1-7-7s3.1-7,7-7s7,3.1,7,7S77.9,73,74,73z"/>
	<circle style="fill:#FFFFFF;" cx="53" cy="62" r="7"/>
	<circle style="fill:#FFFFFF;" cx="67" cy="48" r="7"/>
	<circle style="fill:#FFFFFF;" cx="74" cy="66" r="7"/>
	<path style="fill:#FFFFFF;" d="M211.2,192.8c-17.9,28.5-55,37.5-83,20c-18.1-11.3-27.9-30.9-27.8-51.1c0.1-11,3.1-22.2,9.5-32.3
		c7.4-11.9,18.3-20.4,30.3-25c16.9-6.4,36.4-5.2,52.7,5C220.8,126.9,229,164.3,211.2,192.8z"/>
</g>
<g style="opacity:0;">
	
		<ellipse transform="matrix(0.5307 -0.8476 0.8476 0.5307 -47.391 213.4545)" style="fill:#F7F7F7;" cx="169.1" cy="149.5" rx="47.8" ry="59.8"/>
	
		<ellipse transform="matrix(0.5307 -0.8476 0.8476 0.5307 -44.8039 213.3457)" style="fill:#EDEDED;" cx="170.2" cy="147.1" rx="34.8" ry="43.5"/>
	<path style="opacity:0.1;" d="M139.1,88.4c-6.5-35.9-38.2-60.2-70.8-54.3C35.7,39.9,14.5,73.8,21,109.7
		c6.5,35.9,38.2,60.2,70.8,54.3c3-0.5,5.9-1.3,8.6-2.3c0.1-11,3.1-22.2,9.5-32.3c2.2-3.5,4.7-6.7,7.4-9.6c0.3-0.7,0.7-1.3,1.1-1.9
		c5.1-8.1,12.8-13.8,21.8-16.9C140.2,96.8,139.8,92.6,139.1,88.4z M53,69c-3.9,0-7-3.1-7-7s3.1-7,7-7s7,3.1,7,7S56.9,69,53,69z
		 M60,48c0-3.9,3.1-7,7-7s7,3.1,7,7s-3.1,7-7,7S60,51.9,60,48z M74,73c-3.9,0-7-3.1-7-7s3.1-7,7-7s7,3.1,7,7S77.9,73,74,73z"/>
	<circle style="opacity:0.2;" cx="53" cy="62" r="7"/>
	<circle style="opacity:0.2;" cx="67" cy="48" r="7"/>
	<circle style="opacity:0.2;" cx="74" cy="66" r="7"/>
</g>
</svg>
