<?xml version="1.0" encoding="utf-8"?>
<!-- Generator: Adobe Illustrator 22.1.0, SVG Export Plug-In . SVG Version: 6.00 Build 0)  -->
<svg version="1.1" id="Layer_1" xmlns="http://www.w3.org/2000/svg" xmlns:xlink="http://www.w3.org/1999/xlink" x="0px" y="0px"
	 viewBox="0 0 256 256" style="enable-background:new 0 0 256 256;" xml:space="preserve">
<g style="opacity:0;">
	<path style="fill:#FFFFFF;" d="M223.1,117.4l0,1.2C223.1,118.2,223.1,117.8,223.1,117.4L223.1,117.4z"/>
	<path style="fill:#FFFFFF;" d="M96.6,78.3c-4.9-3.9-9.2-6.5-10-8c-1.5-3-2.2-6.6-4.4-6.6c-2.2,0-2.7,2.4-4.2,6.6
		c-1,2.7-10.3,7.9-17.3,16.3c-4.3,5.1-7.7,11.4-8,19c-0.2,4.9,1.2,8.8,3.6,11.9c5.2,6.6,15.4,9.4,26.8,9.4c3.5,0,7-0.3,10.1-0.9
		c6.4-9,15.6-15.4,20.3-19.5c0-0.2,0-0.3,0-0.5c0-0.2,0-0.3,0-0.5C113.7,93.3,104.4,84.3,96.6,78.3z"/>
	<path style="fill:#FFFFFF;" d="M191.3,104.6c0,4.5-1.2,8.2-3.3,11.2c-5,7.1-15.3,10.1-27.1,10.1c-3.1,0-6.2-0.2-9.1-0.7
		c-6.7-8.7-16.3-14.9-21.4-18.8c0-0.2,0-0.4,0-0.6c0-0.4,0-0.8,0-1.3c0.4-12.1,9-20.9,16-27c4.6-3.9,8.6-6.7,9.2-8.4
		c1.6-4.3,2-6.6,4.2-6.6c2.2,0,2.9,3.7,4.4,6.6c1.2,2.4,10.7,7.4,18.2,15.4C187.4,90,191.3,96.6,191.3,104.6z"/>
	<path style="fill:#FFFFFF;" d="M223.1,119c0,0.4,0,0.7,0,1.1l0-1.5C223.1,118.7,223.1,118.9,223.1,119z"/>
	<path style="fill:#FFFFFF;" d="M159.5,145.7c0,5.5-1.5,10-4.1,13.7c-6.1,8.4-18.4,12-32.5,12c-14.4,0-27.2-3.8-33.1-12.5
		c-2.4-3.5-3.7-7.9-3.5-13.1c0.3-7.6,3.2-14.1,7.1-19.6c6.4-9,15.6-15.4,20.3-19.5c0.2-0.2,0.4-0.4,0.6-0.5l0,0
		c1.2-1.1,2.1-2.1,2.3-2.8c1.9-5.1,2.5-8,5.1-8c2.6,0,3.5,4.4,5.3,8c0.3,0.7,1.3,1.6,2.6,2.6c0,0,0,0,0,0c0.2,0.2,0.5,0.4,0.8,0.6
		c5.1,3.9,14.6,10.1,21.4,18.8C156.3,131,159.5,137.8,159.5,145.7z"/>
</g>
<g>
	<path style="fill:#F2A951;" d="M60.8,86.6c-4.3,5.1-7.7,11.4-8,19c-0.2,4.9,1.2,8.8,3.6,11.9c-10.9,4.5-19.5,10-24.8,16.2
		c-3.9-4.6-6-9.5-6-14.6C25.6,106,39.3,94.3,60.8,86.6z"/>
	<path style="fill:#F2A951;" d="M146.4,77.6c-7.1,6-15.6,14.8-16,27c0,0.4,0,0.9,0,1.3c-0.2,0-0.5,0-0.7,0c0,0,0,0,0,0
		c-1.4-1.1-2.3-2-2.6-2.6c-1.8-3.5-2.6-8-5.3-8c-2.6,0-3.2,2.8-5.1,8c-0.3,0.8-1.1,1.7-2.3,2.8l0,0c-0.2,0-0.4,0-0.6,0
		c0-0.2,0-0.3,0-0.5c0-12.3-9.3-21.3-17.1-27.3c8.8-1.1,18.1-1.7,27.7-1.7C132,76.6,139.3,76.9,146.4,77.6z"/>
	<path style="fill:#F2A951;" d="M223.1,119c0,5.1-2.1,10.1-6,14.6c-6-7-16.1-13.1-29.1-17.9c2.1-3,3.3-6.7,3.3-11.2
		c0-8-4-14.6-8.9-19.9C207.1,92.4,223.1,104.9,223.1,119z"/>
	<path style="fill:#D18933;" d="M93.4,126c-3.9,5.5-6.8,12-7.1,19.6c-0.2,5.3,1.1,9.6,3.5,13.1c-26.9-4.3-48.3-13.6-58.2-25.2
		c5.3-6.2,13.9-11.7,24.8-16.2c5.2,6.6,15.4,9.4,26.8,9.4C86.8,126.9,90.2,126.6,93.4,126z"/>
	<path style="fill:#D18933;" d="M217.1,133.7c-10.3,12.1-33.1,21.6-61.7,25.7c2.7-3.6,4.1-8.2,4.1-13.7c0-7.9-3.3-14.7-7.7-20.4
		c2.9,0.4,5.9,0.7,9.1,0.7c11.8,0,22.1-3,27.1-10.1C201,120.5,211.1,126.7,217.1,133.7z"/>
	<path style="fill:#EA9F3B;" d="M217.1,133.6c3.6-4.3,5.7-8.8,6-13.5l-0.6,55.9c0,28.4-44.2,51.4-98.8,51.4
		c-54.5,0-98.8-23-98.8-51.4l0.7-58.6l0,0c-0.1,0.6-0.1,1.1-0.1,1.6c0,5.1,2.1,10,6,14.6c13.8,16.3,50.2,27.9,92.8,27.9
		S203.3,149.9,217.1,133.6z"/>
	
		<line style="fill:none;stroke:#F2F2F2;stroke-width:5;stroke-linecap:round;stroke-linejoin:round;stroke-miterlimit:10;" x1="109.7" y1="30.1" x2="109.7" y2="51.4"/>
	
		<line style="fill:none;stroke:#F2F2F2;stroke-width:5;stroke-linecap:round;stroke-linejoin:round;stroke-miterlimit:10;" x1="124.1" y1="16.1" x2="124.1" y2="63.4"/>
	
		<line style="fill:none;stroke:#F2F2F2;stroke-width:5;stroke-linecap:round;stroke-linejoin:round;stroke-miterlimit:10;" x1="132.2" y1="20.8" x2="132.2" y2="44.8"/>
	<g style="opacity:0.1;">
		<path d="M71,83.2c-0.4,0-0.8-0.3-1-0.7c-0.1-0.5,0.2-1.1,0.7-1.2c7.1-1.9,8.1-7.5,8.1-7.6c0.1-0.5,0.6-0.9,1.1-0.8
			c0.5,0.1,0.9,0.6,0.8,1.1c0,0.3-1.2,7-9.5,9.2C71.2,83.2,71.1,83.2,71,83.2z"/>
	</g>
	<g style="opacity:0.1;">
		<path d="M81.8,86c-0.2,0-0.4-0.1-0.6-0.2c-0.4-0.3-0.5-1-0.2-1.4c3.4-4.4,0.6-9.5,0.6-9.6c-0.3-0.5-0.1-1.1,0.4-1.4
			c0.5-0.3,1.1-0.1,1.4,0.4c0.1,0.3,3.4,6.4-0.8,11.8C82.4,85.8,82.1,86,81.8,86z"/>
	</g>
	<g style="opacity:0.1;">
		<path d="M89.7,83.7c-0.1,0-0.3,0-0.4-0.1c-0.5-0.2-0.7-0.8-0.5-1.3c2.1-4.3-3.5-8-3.5-8c-0.5-0.3-0.6-0.9-0.3-1.4
			c0.3-0.5,0.9-0.6,1.4-0.3c2.4,1.6,6.5,5.9,4.2,10.6C90.4,83.4,90.1,83.7,89.7,83.7z"/>
	</g>
	<g style="opacity:0.1;">
		<path d="M147.7,82c-0.4,0-0.8-0.3-1-0.7c-0.1-0.5,0.2-1.1,0.7-1.2c7.1-1.9,8.1-7.5,8.1-7.6c0.1-0.5,0.6-0.9,1.1-0.8
			c0.5,0.1,0.9,0.6,0.8,1.1c0,0.3-1.2,7-9.5,9.2C147.8,82,147.8,82,147.7,82z"/>
	</g>
	<g style="opacity:0.1;">
		<path d="M158.4,84.8c-0.2,0-0.4-0.1-0.6-0.2c-0.4-0.3-0.5-1-0.2-1.4c3.4-4.4,0.6-9.5,0.6-9.6c-0.3-0.5-0.1-1.1,0.4-1.4
			c0.5-0.3,1.1-0.1,1.4,0.4c0.1,0.3,3.4,6.4-0.8,11.8C159,84.7,158.7,84.8,158.4,84.8z"/>
	</g>
	<g style="opacity:0.1;">
		<path d="M166.4,82.5c-0.1,0-0.3,0-0.4-0.1c-0.5-0.2-0.7-0.8-0.5-1.3c2.1-4.3-3.5-8-3.5-8c-0.5-0.3-0.6-0.9-0.3-1.4
			c0.3-0.5,0.9-0.6,1.4-0.3c2.4,1.6,6.5,5.9,4.2,10.6C167.1,82.3,166.8,82.5,166.4,82.5z"/>
	</g>
	<g style="opacity:0.1;">
		<path d="M108.1,116.1c-0.6,0-1.1-0.5-1.1-1.1s0.5-1.1,1.1-1.1c2.3,0,7-1.7,8.5-8.1c0.1-0.6,0.7-1,1.3-0.8c0.6,0.1,1,0.7,0.8,1.3
			C116.9,114,111,116.1,108.1,116.1z"/>
	</g>
	<g style="opacity:0.1;">
		<path d="M119.9,119.2c-0.2,0-0.5-0.1-0.7-0.2c-0.5-0.4-0.6-1.1-0.2-1.5c3.7-4.8,0.7-10.4,0.7-10.5c-0.3-0.5-0.1-1.2,0.4-1.5
			c0.5-0.3,1.2-0.1,1.5,0.4c0.2,0.3,3.7,7-0.9,12.9C120.6,119,120.2,119.2,119.9,119.2z"/>
	</g>
	<g style="opacity:0.1;">
		<path d="M128.6,116.6c-0.2,0-0.3,0-0.5-0.1c-0.5-0.3-0.8-0.9-0.5-1.5c2.2-4.7-3.6-8.6-3.9-8.8c-0.5-0.3-0.6-1-0.3-1.5
			c0.3-0.5,1-0.6,1.5-0.3c2.7,1.8,7.1,6.5,4.6,11.6C129.4,116.4,129,116.6,128.6,116.6z"/>
	</g>
</g>
</svg>
