<?xml version="1.0" encoding="utf-8"?>
<!-- Generator: Adobe Illustrator 22.1.0, SVG Export Plug-In . SVG Version: 6.00 Build 0)  -->
<svg version="1.1" id="Layer_1" xmlns="http://www.w3.org/2000/svg" xmlns:xlink="http://www.w3.org/1999/xlink" x="0px" y="0px"
	 viewBox="0 0 256 256" style="enable-background:new 0 0 256 256;" xml:space="preserve">
<g style="opacity:0;">
	<path style="fill:#FFFFFF;" d="M189.5,202.3c0,8.3-2.3,15.1-6.2,20.6c-9.2,12.7-27.7,18.1-49,18.1c-21.7,0-41-5.7-49.9-18.8
		c-3.6-5.3-5.6-11.9-5.3-19.7c0.5-11.5,4.8-21.2,10.7-29.5c9.6-13.6,23.5-23.2,30.6-29.4c0.3-0.3,0.6-0.6,0.9-0.8l0,0
		c1.8-1.7,3.2-3.2,3.5-4.2c2.9-7.7,3.8-12.1,7.7-12.1c3.9,0,5.3,6.6,8,12.1c0.5,1.1,2,2.4,3.9,3.9l0,0c0.3,0.3,0.8,0.6,1.2,0.9
		c7.7,5.9,22,15.2,32.2,28.3C184.7,180.1,189.5,190.4,189.5,202.3z"/>
</g>
<g>
	
		<line style="fill:none;stroke:#F2F2F2;stroke-width:5;stroke-linecap:round;stroke-linejoin:round;stroke-miterlimit:10;" x1="114.5" y1="28.1" x2="114.5" y2="60.2"/>
	
		<line style="fill:none;stroke:#F2F2F2;stroke-width:5;stroke-linecap:round;stroke-linejoin:round;stroke-miterlimit:10;" x1="136.2" y1="7" x2="136.2" y2="78.3"/>
	
		<line style="fill:none;stroke:#F2F2F2;stroke-width:5;stroke-linecap:round;stroke-linejoin:round;stroke-miterlimit:10;" x1="148.4" y1="14.1" x2="148.4" y2="50.2"/>
	<g style="opacity:0.1;">
		<path d="M112.1,157.7c-0.9,0-1.7-0.8-1.7-1.7s0.8-1.7,1.7-1.7c3.5,0,10.5-2.6,12.8-12.2c0.2-0.9,1.1-1.5,2-1.2
			c0.9,0.2,1.5,1.1,1.2,2C125.3,154.5,116.4,157.7,112.1,157.7z"/>
	</g>
	<g style="opacity:0.1;">
		<path d="M129.8,162.3c-0.3,0-0.8-0.2-1.1-0.3c-0.8-0.6-0.9-1.7-0.3-2.3c5.6-7.2,1.1-15.7,1.1-15.8c-0.5-0.8-0.2-1.8,0.6-2.3
			c0.8-0.5,1.8-0.2,2.3,0.6c0.3,0.5,5.6,10.5-1.4,19.4C130.9,162,130.3,162.3,129.8,162.3z"/>
	</g>
	<g style="opacity:0.1;">
		<path d="M142.9,158.4c-0.3,0-0.5,0-0.8-0.2c-0.8-0.5-1.2-1.4-0.8-2.3c3.3-7.1-5.4-13-5.9-13.3c-0.8-0.5-0.9-1.5-0.5-2.3
			c0.5-0.8,1.5-0.9,2.3-0.5c4.1,2.7,10.7,9.8,6.9,17.5C144.1,158.1,143.5,158.4,142.9,158.4z"/>
	</g>
</g>
</svg>
