<?xml version="1.0" encoding="utf-8"?>
<!-- Generator: Adobe Illustrator 22.1.0, SVG Export Plug-In . SVG Version: 6.00 Build 0)  -->
<svg version="1.1" id="Layer_1" xmlns="http://www.w3.org/2000/svg" xmlns:xlink="http://www.w3.org/1999/xlink" x="0px" y="0px"
	 viewBox="0 0 256 256" style="enable-background:new 0 0 256 256;" xml:space="preserve">
<g style="opacity:0;">
	<path style="fill:#FFFFFF;" d="M129.1,177.8c-10.7,14.8-27.9,21.8-47.3,21.8c-32.5,0-58.8-19.5-58.8-62.6
		c0-43.1,37.1-93.5,58.8-93.5c10,0,21.6,8.3,31.8,21c-11.4,21.9-12.2,70,6.3,100.7C122.9,169.9,125.9,174.1,129.1,177.8z"/>
	<path style="fill:#FFFFFF;" d="M202.6,188.3c-24.2,14.6-52,14.2-73.5-10.5c-3.2-3.7-6.3-7.9-9.2-12.7
		c-18.5-30.6-17.7-78.8-6.3-100.7c2.3-4.5,5.1-7.9,8.3-9.8c21.2-12.8,76.3,12.8,98.7,49.7C242.8,141.3,230.4,171.5,202.6,188.3z"/>
</g>
<g>
	<path style="opacity:5.000000e-02;" d="M129.1,177.8c-10.7,14.8-27.9,21.8-47.3,21.8c-32.5,0-58.8-19.5-58.8-62.6
		c0-43.1,37.1-93.5,58.8-93.5c10,0,21.6,8.3,31.8,21c-11.4,21.9-12.2,70,6.3,100.7C122.9,169.9,125.9,174.1,129.1,177.8z"/>
	<g style="opacity:0.3;">
		<path style="fill:#FFFFFF;" d="M46,101.5c-0.4,0-0.8-0.1-1.2-0.2c-1.8-0.6-2.8-2.6-2.1-4.5c6.2-17.5,17.7-29.1,18.1-29.6
			c1.4-1.4,3.6-1.4,5,0c1.4,1.4,1.4,3.6,0,4.9l0,0c-0.1,0.1-10.8,11-16.5,27C48.8,100.6,47.4,101.5,46,101.5z"/>
	</g>
	<g style="opacity:0.4;">
		<path style="fill:#FFFFFF;" d="M178.5,83c-0.9,0-1.7-0.3-2.4-0.9c-14.8-13.9-29-14.4-29.2-14.4c-1.9,0-3.5-1.6-3.4-3.6
			c0-1.9,1.6-3.4,3.6-3.4c0.7,0,17,0.5,33.8,16.3c1.4,1.3,1.5,3.5,0.2,4.9C180.4,82.6,179.4,83,178.5,83z"/>
	</g>
</g>
</svg>
