<?xml version="1.0" encoding="utf-8"?>
<!-- Generator: Adobe Illustrator 22.1.0, SVG Export Plug-In . SVG Version: 6.00 Build 0)  -->
<svg version="1.1" id="Layer_1" xmlns="http://www.w3.org/2000/svg" xmlns:xlink="http://www.w3.org/1999/xlink" x="0px" y="0px"
	 viewBox="0 0 256 256" style="enable-background:new 0 0 256 256;" xml:space="preserve">
<g style="opacity:0;">
	<path style="fill:#FFDA88;" d="M185.7,232.6c-38.1,23-81.8,22.3-115.6-16.5c-5-5.8-9.9-12.4-14.5-20C26.5,148,27.8,72.1,45.7,37.7
		c3.6-7.1,8-12.4,13.1-15.4c33.4-20.1,120.1,20.1,155.3,78.2C249,158.7,229.5,206.2,185.7,232.6z"/>
</g>
<g>
	<g style="opacity:0.4;">
		<path style="fill:#FFFFFF;" d="M147.8,66.9c-1.4,0-2.7-0.5-3.8-1.4c-23.3-21.9-45.6-22.7-45.9-22.7c-3,0-5.5-2.5-5.3-5.7
			c0-3,2.5-5.3,5.7-5.3c1.1,0,26.7,0.8,53.2,25.6c2.2,2,2.4,5.5,0.3,7.7C150.8,66.3,149.2,66.9,147.8,66.9z"/>
	</g>
</g>
</svg>
