<?xml version="1.0" encoding="utf-8"?>
<!-- Generator: Adobe Illustrator 22.1.0, SVG Export Plug-In . SVG Version: 6.00 Build 0)  -->
<svg version="1.1" id="Layer_1" xmlns="http://www.w3.org/2000/svg" xmlns:xlink="http://www.w3.org/1999/xlink" x="0px" y="0px"
	 viewBox="0 0 256 256" style="enable-background:new 0 0 256 256;" xml:space="preserve">
<g style="opacity:0;">
	<path style="fill:#E27A34;" d="M248,158.7c-2.3,23.3-13.7,43.8-30.8,59.2c-23.5,21.3-57.6,32.9-94.3,29.1
		c-36.7-3.7-67.9-22.1-86.5-47.7c-1.4-1.9-2.6-3.7-3.9-5.6c-11-17.4-16.5-37.6-14.3-58.6c2.2-20.8,11.3-39.5,25.5-54.1
		c0.2-0.2,0.2-0.3,0.3-0.3c1.4-1.4,2.8-2.8,4.4-4.2c7.3-6.8,15.8-12.6,25-17.2c9.6-4.8,19.1-9.9,28.1-15.8l7.3-4.7l37.9-24.4
		l32,31.7l6.2,6.1c7.6,7.6,15.8,14.4,24.2,21.1c9.8,7.8,18,16.9,24.5,27c0.2,0.2,0.2,0.3,0.2,0.5C244.9,117.8,250.2,137.9,248,158.7
		z"/>
	<path style="fill:#E27A34;" d="M172.6,77.3c0-0.2-0.2-0.3-0.2-0.5l0.5,0.5H172.6z"/>
</g>
<g>
	<path style="opacity:0.5;enable-background:new    ;" d="M234,100.6c0-0.2-0.2-0.3-0.2-0.5c-6.4-10.1-14.8-19.3-24.5-27
		c-8.4-6.7-16.6-13.7-24.2-21.1l-6.2-6.1l-69.9-7.1l-7.3,4.7c-9,5.9-18.5,10.9-28.1,15.8c-9.3,4.7-17.7,10.4-25,17.2
		c-1.6,1.4-3,2.8-4.4,4.2C44,80.8,44,80.8,43.8,81c-4.7,4.8-8.9,10.1-12.3,15.7c-0.9,1.4-1.7,3-2.5,4.4c-5.7,10.4-9.5,21.8-10.7,34
		c-1.1,11.3-0.2,22.4,2.8,32.8c3.1,11.2,8.4,21.8,15.4,31.4l180.9,18.5c17.1-15.4,28.4-35.9,30.8-59.2
		C250.2,137.9,244.9,117.8,234,100.6z M172.8,77.3h-0.2c0-0.2-0.2-0.3-0.2-0.5L172.8,77.3z M45.1,188.2c0.3,1.2-0.6,2.5-1.9,2.8
		c-0.2,0-0.3,0-0.5,0c-1.1,0-2-0.8-2.3-1.9c-4.5-22.1-2.5-41.8,2.5-58.6c0.8-2.6,1.6-5.1,2.5-7.6c4.2-11.8,9.8-21.9,15.2-30.1
		c15.1-22.5,31.7-35,32.5-35.6c1.1-0.8,2.5-0.5,3.3,0.5c0.8,1.1,0.6,2.5-0.5,3.3c-0.5,0.3-34.8,26.3-48,69.6
		c-0.9,3.3-1.9,6.5-2.6,9.9C42.1,155.1,41.5,170.9,45.1,188.2z M116.9,60.9c-0.5,0.6-52.7,64.8-25.6,131.8c0.5,1.2-0.2,2.5-1.2,3.1
		c-0.3,0.2-0.6,0.2-0.9,0.2c-0.9,0-1.9-0.6-2.2-1.4C58.7,125,112.7,58.8,113.1,58.1c0.8-0.9,2.3-1.1,3.3-0.3
		C117.6,58.5,117.8,59.9,116.9,60.9z M129.9,201.2c-0.2,1.2-1.1,2-2.3,2c0,0-0.2,0-0.3,0c-1.2-0.2-2.2-1.2-2-2.6l14.9-145.1
		c0.2-1.2,1.2-2.2,2.5-2c1.2,0.2,2.2,1.2,2,2.6L129.9,201.2z M162.1,202c-0.5,0.6-1.2,1.1-2,1.1c-0.5,0-0.9-0.2-1.2-0.5
		c-1.1-0.8-1.4-2.2-0.6-3.3c40.1-60.1,2-133.5,1.7-134.2c-0.6-1.1-0.2-2.5,0.9-3.1c1.1-0.6,2.5-0.2,3.1,0.9
		C164.4,63.9,203.7,139.6,162.1,202z M208.7,206.4c-0.5,0.9-1.2,1.4-2.2,1.4c-0.3,0-0.6,0-0.9-0.2c-1.2-0.5-1.7-1.9-1.2-3.1
		c30.9-72.1-23.5-133.9-23.9-134.6c-0.8-0.9-0.8-2.5,0.2-3.3c0.9-0.9,2.5-0.8,3.3,0.2c0.6,0.6,14.4,16.3,24.5,41.3
		C217.9,131.3,225.5,167.2,208.7,206.4z"/>
	<g style="opacity:0.2;">
		<path d="M172.8,77.3h-0.2c0-0.2-0.2-0.3-0.3-0.3L172.8,77.3z"/>
	</g>
	<g style="opacity:0.3;">
		<g>
			<path d="M127.6,203.3c-0.2,0-0.2,0-0.3,0c-1.2-0.2-2.2-1.2-2-2.5l14.9-145.1c0.2-1.2,1.2-2.2,2.5-2c1.2,0.2,2.2,1.2,2,2.5
				l-14.9,145.1C129.8,202.3,128.8,203.3,127.6,203.3z"/>
		</g>
		<g>
			<path d="M160.2,203.1c-0.5,0-0.9-0.2-1.2-0.5c-1.1-0.8-1.4-2.2-0.6-3.3c40.1-60.1,2-133.5,1.7-134.2c-0.6-1.1-0.2-2.5,0.9-3.1
				s2.5-0.2,3.1,0.9c0.5,0.8,39.8,76.4-1.9,138.9C161.6,202.6,160.8,203.1,160.2,203.1z"/>
		</g>
		<g>
			<path d="M206.5,207.8c-0.3,0-0.6,0-0.9-0.2c-1.2-0.5-1.7-1.9-1.2-3.1c30.9-72.1-23.5-133.9-23.9-134.6c-0.9-0.9-0.8-2.5,0.2-3.3
				c0.9-0.9,2.5-0.8,3.3,0.2c0.6,0.6,14.4,16.3,24.5,41.3c9.3,23.2,17.1,59,0.3,98.2C208.4,207.3,207.4,207.8,206.5,207.8z"/>
		</g>
		<g>
			<path d="M89.2,195.8c-0.9,0-1.9-0.6-2.2-1.4C58.9,124.8,112.8,58.6,113.3,58c0.8-0.9,2.3-1.1,3.3-0.3c0.9,0.8,1.1,2.3,0.3,3.3
				c-0.5,0.6-52.7,64.8-25.6,131.8c0.5,1.2-0.2,2.5-1.2,3.1C89.8,195.8,89.5,195.8,89.2,195.8z"/>
		</g>
		<g>
			<path d="M42.7,191c-1.1,0-2-0.8-2.3-1.9c-8.5-41.8,6.2-75.4,20.2-96.2c14.9-22.5,31.7-35,32.5-35.6c1.1-0.8,2.5-0.6,3.3,0.5
				c0.8,1.1,0.6,2.5-0.5,3.3c-0.6,0.5-66.3,50.2-50.8,126.9c0.3,1.2-0.6,2.5-1.9,2.8C43.1,191,42.9,191,42.7,191z"/>
		</g>
	</g>
</g>
</svg>
