<?xml version="1.0" encoding="utf-8"?>
<!-- Generator: Adobe Illustrator 22.1.0, SVG Export Plug-In . SVG Version: 6.00 Build 0)  -->
<svg version="1.1" id="Layer_1" xmlns="http://www.w3.org/2000/svg" xmlns:xlink="http://www.w3.org/1999/xlink" x="0px" y="0px"
	 viewBox="0 0 256 256" style="enable-background:new 0 0 256 256;" xml:space="preserve">
<g>
	<path style="fill:#FFFFFF;" d="M109.5,174.3c-5.1,4.6-11.1,8.6-17.7,11.7c-18.4,8.6-38.4,8.7-54.4,1.9l64.8-30.2
		c0-0.2-0.1-0.4-0.1-0.6C103.6,163.2,106.1,169,109.5,174.3z"/>
	<polygon style="fill:#FFFFFF;" points="61.3,75 26.2,91.4 37.2,69.1 	"/>
	<path style="fill:#FFFFFF;" d="M119.8,98.8c-1,0.9-1.9,1.8-2.8,2.7c-0.1,0.1-0.1,0.1-0.2,0.2c-1.5,1.6-3,3.3-4.3,5
		c-0.3,0.3-0.5,0.7-0.8,1c-0.4,0.5-0.8,1.1-1.2,1.6c-0.3,0.4-0.5,0.8-0.8,1.2c-0.3,0.5-0.6,0.9-0.9,1.3c-0.6,0.9-1.1,1.9-1.6,2.8
		c-0.4,0.8-0.8,1.6-1.2,2.4c-0.9,1.8-1.7,3.7-2.4,5.6c-0.1,0.4-0.3,0.7-0.4,1.1c-0.8,2.3-1.5,4.7-2,7.2c-0.1,0.3-0.1,0.7-0.2,1
		c-0.1,0.6-0.2,1.1-0.3,1.7c-0.1,0.5-0.2,1-0.2,1.5c-0.1,0.5-0.1,1-0.2,1.5c-0.2,2-0.3,3.9-0.3,5.8c0,0.5,0,1,0,1.6
		c0,0.2,0,0.4,0,0.6c0,0.4,0,0.9,0.1,1.3c0,0.3,0,0.5,0,0.8c0,0.7,0.1,1.4,0.2,2.1c0,0.5,0.1,0.9,0.2,1.4c0,0.4,0.1,0.8,0.2,1.1
		c0.1,0.5,0.2,1,0.3,1.5c0.1,0.8,0.3,1.5,0.5,2.2c0.1,0.6,0.3,1.2,0.4,1.8c0,0.1,0,0.2,0.1,0.3c0,0.2,0.1,0.4,0.1,0.6L37.3,188
		c-11.7-4.9-21.3-13.6-26.7-25.3c-4.9-10.5-5.8-21.9-3.2-32.8c0-0.1,0-0.2,0-0.2c1.5-6.4,4.2-12.7,7.9-18.5c3.2-5,6.2-10.1,8.8-15.4
		l2.1-4.3L61.3,75l4.6,1.1c5.8,1.4,11.6,2.4,17.5,3.1c6.8,0.9,13.3,2.9,19.2,5.9c0.1,0,0.2,0.1,0.2,0.1
		C109.4,88.6,115.2,93.2,119.8,98.8z"/>
	<path style="fill:#FFFFFF;" d="M248.2,151.7c-1.5,15-8.8,28.2-19.8,38.1c-15.1,13.7-37.1,21.2-60.7,18.7
		c-23.6-2.4-43.7-14.2-55.7-30.7c-0.9-1.2-1.7-2.4-2.5-3.6c-7.1-11.2-10.6-24.2-9.2-37.7c1.4-13.4,7.3-25.4,16.4-34.8
		c0.1-0.1,0.1-0.2,0.2-0.2c0.9-0.9,1.8-1.8,2.8-2.7c4.7-4.4,10.2-8.1,16.1-11.1c6.2-3.1,12.3-6.4,18.1-10.2l4.7-3L183,58.8
		l20.6,20.4l4,3.9c4.9,4.9,10.2,9.3,15.6,13.6c6.3,5,11.6,10.9,15.8,17.4c0.1,0.1,0.1,0.2,0.1,0.3
		C246.2,125.4,249.6,138.3,248.2,151.7z"/>
	<path style="fill:#FFFFFF;" d="M199.7,99.3c0-0.1-0.1-0.2-0.1-0.3l0.3,0.3L199.7,99.3z"/>
</g>
<g style="opacity:0;">
	<path style="opacity:0.6;" d="M102.9,85.3c-0.1,0-0.1-0.1-0.2-0.1c-5.9-3-12.4-5-19.2-5.9c-5.9-0.8-11.7-1.7-17.5-3.1L61.3,75
		L26.2,91.4l-2.1,4.3c-2.6,5.3-5.6,10.4-8.8,15.4c-3.7,5.8-6.4,12.1-7.9,18.5c0,0.1,0,0.2,0,0.2c-2.5,11-1.7,22.4,3.2,32.8
		c5.5,11.7,15.1,20.3,26.7,25.3l64.8-30.2c0-0.2-0.1-0.4-0.1-0.6c0-0.1-0.1-0.2-0.1-0.3c-0.2-0.6-0.3-1.2-0.4-1.8
		c-0.2-0.7-0.3-1.5-0.5-2.2c-0.1-0.5-0.2-1-0.3-1.5c-0.1-0.4-0.1-0.7-0.2-1.1c-0.1-0.5-0.1-0.9-0.2-1.4c-0.1-0.7-0.2-1.4-0.2-2.1
		c0-0.3,0-0.5,0-0.8c0-0.4,0-0.9-0.1-1.3c0-0.2,0-0.4,0-0.6c0-0.5,0-1,0-1.6c0-1.9,0.1-3.9,0.3-5.8c0-0.5,0.1-1,0.2-1.5
		c0.1-0.5,0.1-1,0.2-1.5c0.1-0.6,0.2-1.1,0.3-1.7c0.1-0.3,0.1-0.7,0.2-1c0.5-2.5,1.2-4.9,2-7.2c0.1-0.4,0.3-0.7,0.4-1.1
		c0.7-1.9,1.5-3.8,2.4-5.6c0.4-0.8,0.8-1.6,1.2-2.4c-14.7-21-38.1-28.5-38.4-28.6c-0.8-0.3-1.2-1.1-1-1.9c0.2-0.8,1.1-1.2,1.9-1
		c0.3,0.1,23.8,7.6,39.2,28.7c0.3-0.5,0.6-0.9,0.9-1.3c0.3-0.4,0.5-0.8,0.8-1.2c0.4-0.6,0.8-1.1,1.2-1.6c0.3-0.4,0.5-0.7,0.8-1
		c1.3-1.7,2.8-3.4,4.3-5c0.1-0.1,0.1-0.2,0.2-0.2c0.9-0.9,1.8-1.8,2.8-2.7C115.2,93.2,109.4,88.6,102.9,85.3z M38.4,182.2
		c-0.3,0.3-0.7,0.4-1,0.4c-0.4,0-0.8-0.2-1.1-0.5c-30.3-33.3-12.6-77-12.4-77.4c0.3-0.8,1.2-1.1,2-0.8c0.8,0.3,1.1,1.2,0.8,2
		c-0.2,0.4-17.2,42.4,11.9,74.3C39,180.7,39,181.6,38.4,182.2z M61.9,171.1c-0.3,0.4-0.8,0.6-1.2,0.6c-0.3,0-0.6-0.1-0.9-0.3
		c-33.1-25.1-26.3-71.8-26.3-72.2c0.1-0.8,0.9-1.4,1.7-1.3c0.8,0.1,1.4,0.9,1.3,1.7c-0.1,0.5-6.6,45.4,25.1,69.4
		C62.2,169.5,62.4,170.4,61.9,171.1z M81.6,164.2c-0.2,0.1-0.4,0.1-0.6,0.1c-0.6,0-1.1-0.3-1.4-0.9L45.5,90.6c-0.3-0.8,0-1.6,0.7-2
		c0.8-0.4,1.6,0,2,0.7l34,72.9C82.7,163,82.3,163.9,81.6,164.2z M97.8,153.6c0,0.8-0.7,1.4-1.5,1.4h-0.1c-0.8,0-1.5-0.8-1.4-1.6
		c2-39.7-36.7-63.5-37.1-63.8c-0.7-0.4-0.9-1.4-0.5-2.1c0.4-0.7,1.3-0.9,2.1-0.5C59.7,87.4,99.8,112.2,97.8,153.6z"/>
	<path style="opacity:0.5;" d="M239.2,114.3c0-0.1-0.1-0.2-0.1-0.3c-4.1-6.5-9.5-12.4-15.8-17.4c-5.4-4.3-10.7-8.8-15.6-13.6l-4-3.9
		l-45-4.6l-4.7,3c-5.8,3.8-11.9,7-18.1,10.2c-6,3-11.4,6.7-16.1,11.1c-1,0.9-1.9,1.8-2.8,2.7c-0.1,0.1-0.1,0.1-0.2,0.2
		c-3,3.1-5.7,6.5-7.9,10.1c-0.6,0.9-1.1,1.9-1.6,2.8c-3.7,6.7-6.1,14-6.9,21.9c-0.7,7.3-0.1,14.4,1.8,21.1c2,7.2,5.4,14,9.9,20.2
		l116.4,11.9c11-9.9,18.3-23.1,19.8-38.1C249.6,138.3,246.2,125.4,239.2,114.3z M199.8,99.3l-0.1,0c0-0.1-0.1-0.2-0.1-0.3
		L199.8,99.3z M117.6,170.7c0.2,0.8-0.4,1.6-1.2,1.8c-0.1,0-0.2,0-0.3,0c-0.7,0-1.3-0.5-1.5-1.2c-2.9-14.2-1.6-26.9,1.6-37.7
		c0.5-1.7,1-3.3,1.6-4.9c2.7-7.6,6.3-14.1,9.8-19.4c9.7-14.5,20.4-22.5,20.9-22.9c0.7-0.5,1.6-0.3,2.1,0.3c0.5,0.7,0.4,1.6-0.3,2.1
		c-0.3,0.2-22.4,16.9-30.9,44.8c-0.6,2.1-1.2,4.2-1.7,6.4C115.7,149.4,115.3,159.6,117.6,170.7z M163.8,88.8
		c-0.3,0.4-33.9,41.7-16.5,84.8c0.3,0.8-0.1,1.6-0.8,2c-0.2,0.1-0.4,0.1-0.6,0.1c-0.6,0-1.2-0.4-1.4-0.9
		c-18.1-44.8,16.6-87.4,16.9-87.8c0.5-0.6,1.5-0.7,2.1-0.2C164.3,87.2,164.4,88.1,163.8,88.8z M172.2,179.1
		c-0.1,0.8-0.7,1.3-1.5,1.3c0,0-0.1,0-0.2,0c-0.8-0.1-1.4-0.8-1.3-1.7l9.6-93.4c0.1-0.8,0.8-1.4,1.6-1.3c0.8,0.1,1.4,0.8,1.3,1.7
		L172.2,179.1z M192.9,179.6c-0.3,0.4-0.8,0.7-1.3,0.7c-0.3,0-0.6-0.1-0.8-0.3c-0.7-0.5-0.9-1.4-0.4-2.1
		c25.8-38.7,1.3-85.9,1.1-86.4c-0.4-0.7-0.1-1.6,0.6-2c0.7-0.4,1.6-0.1,2,0.6C194.4,90.7,219.7,139.4,192.9,179.6z M222.9,182.4
		c-0.3,0.6-0.8,0.9-1.4,0.9c-0.2,0-0.4,0-0.6-0.1c-0.8-0.3-1.1-1.2-0.8-2C240,134.8,205,95,204.7,94.6c-0.5-0.6-0.5-1.6,0.1-2.1
		c0.6-0.6,1.6-0.5,2.1,0.1c0.4,0.4,9.3,10.5,15.8,26.6C228.8,134.1,233.7,157.2,222.9,182.4z"/>
	<path style="opacity:0.1;" d="M109.5,174.3c-5.1,4.6-11.1,8.6-17.7,11.7c-18.4,8.6-38.4,8.7-54.4,1.9l64.8-30.2
		c0-0.2-0.1-0.4-0.1-0.6C103.6,163.2,106.1,169,109.5,174.3z"/>
	<polygon style="opacity:0.1;" points="61.3,75 26.2,91.4 37.2,69.1 	"/>
	<g style="opacity:0.2;">
		<path d="M199.8,99.3l-0.1,0c0-0.1-0.1-0.2-0.2-0.2L199.8,99.3z"/>
	</g>
	<g style="opacity:0.3;">
		<g>
			<path d="M170.7,180.4c-0.1,0-0.1,0-0.2,0c-0.8-0.1-1.4-0.8-1.3-1.6l9.6-93.4c0.1-0.8,0.8-1.4,1.6-1.3c0.8,0.1,1.4,0.8,1.3,1.6
				l-9.6,93.4C172.1,179.8,171.5,180.4,170.7,180.4z"/>
		</g>
		<g>
			<path d="M191.7,180.3c-0.3,0-0.6-0.1-0.8-0.3c-0.7-0.5-0.9-1.4-0.4-2.1c25.8-38.7,1.3-85.9,1.1-86.4c-0.4-0.7-0.1-1.6,0.6-2
				c0.7-0.4,1.6-0.1,2,0.6c0.3,0.5,25.6,49.2-1.2,89.4C192.6,180,192.1,180.3,191.7,180.3z"/>
		</g>
		<g>
			<path d="M221.5,183.3c-0.2,0-0.4,0-0.6-0.1c-0.8-0.3-1.1-1.2-0.8-2C240,134.8,205,95,204.7,94.6c-0.6-0.6-0.5-1.6,0.1-2.1
				c0.6-0.6,1.6-0.5,2.1,0.1c0.4,0.4,9.3,10.5,15.8,26.6c6,14.9,11,38,0.2,63.2C222.7,183,222.1,183.3,221.5,183.3z"/>
		</g>
		<g>
			<path d="M146,175.6c-0.6,0-1.2-0.4-1.4-0.9c-18.1-44.8,16.6-87.4,16.9-87.8c0.5-0.6,1.5-0.7,2.1-0.2c0.6,0.5,0.7,1.5,0.2,2.1
				c-0.3,0.4-33.9,41.7-16.5,84.8c0.3,0.8-0.1,1.6-0.8,2C146.4,175.6,146.2,175.6,146,175.6z"/>
		</g>
		<g>
			<path d="M116.1,172.5c-0.7,0-1.3-0.5-1.5-1.2c-5.5-26.9,4-48.5,13-61.9c9.6-14.5,20.4-22.5,20.9-22.9c0.7-0.5,1.6-0.4,2.1,0.3
				c0.5,0.7,0.4,1.6-0.3,2.1c-0.4,0.3-42.7,32.3-32.7,81.7c0.2,0.8-0.4,1.6-1.2,1.8C116.3,172.5,116.2,172.5,116.1,172.5z"/>
		</g>
	</g>
	<g>
		<path d="M67.3,91.5L67.3,91.5c-0.2,0-0.2,0-0.3-0.1L67.3,91.5z"/>
	</g>
	<g style="opacity:0.4;">
		<g>
			<path d="M81,164.4c-0.6,0-1.1-0.3-1.4-0.9L45.5,90.6c-0.4-0.8,0-1.6,0.7-2c0.7-0.4,1.6,0,2,0.7l34.1,72.9c0.4,0.8,0,1.6-0.7,2
				C81.4,164.3,81.2,164.4,81,164.4z"/>
		</g>
		<g>
			<path d="M96.3,155.1C96.3,155.1,96.3,155.1,96.3,155.1c-0.9,0-1.5-0.7-1.5-1.6c2-39.7-36.7-63.5-37.1-63.8
				c-0.7-0.4-0.9-1.4-0.5-2.1c0.4-0.7,1.4-0.9,2.1-0.5c0.4,0.2,40.6,25,38.5,66.5C97.8,154.4,97.1,155.1,96.3,155.1z"/>
		</g>
		<g>
			<path d="M108.8,111.9c-0.6,0.9-1.1,1.9-1.6,2.8c-14.7-21-38.1-28.5-38.4-28.6c-0.8-0.3-1.2-1.1-1-1.9c0.2-0.8,1.1-1.2,1.9-1
				C70,83.4,93.5,90.9,108.8,111.9z"/>
		</g>
		<g>
			<path d="M60.7,171.7c-0.3,0-0.6-0.1-0.9-0.3c-33.1-25-26.3-71.8-26.2-72.2c0.1-0.8,0.9-1.4,1.7-1.3c0.8,0.1,1.4,0.9,1.3,1.7
				c-0.1,0.5-6.6,45.4,25.1,69.4c0.7,0.5,0.8,1.4,0.3,2.1C61.6,171.5,61.1,171.7,60.7,171.7z"/>
		</g>
		<g>
			<path d="M37.4,182.6c-0.4,0-0.8-0.2-1.1-0.5c-30.4-33.3-12.6-77-12.4-77.4c0.3-0.8,1.2-1.1,2-0.8c0.8,0.3,1.1,1.2,0.8,2
				c-0.2,0.4-17.2,42.4,11.9,74.2c0.6,0.6,0.5,1.6-0.1,2.1C38.1,182.5,37.7,182.6,37.4,182.6z"/>
		</g>
	</g>
</g>
</svg>
