<?xml version="1.0" encoding="utf-8"?>
<!-- Generator: Adobe Illustrator 22.1.0, SVG Export Plug-In . SVG Version: 6.00 Build 0)  -->
<svg version="1.1" id="Layer_1" xmlns="http://www.w3.org/2000/svg" xmlns:xlink="http://www.w3.org/1999/xlink" x="0px" y="0px"
	 viewBox="0 0 256 256" style="enable-background:new 0 0 256 256;" xml:space="preserve">
<g>
	<path style="fill:#FFD93B;" d="M31.3,81.7L31.3,81.7c-3.6,0-6.4-2.9-6.4-6.4V25.9c0-3.6,2.9-6.4,6.4-6.4l0,0c3.6,0,6.4,2.9,6.4,6.4
		v49.3C37.8,78.8,34.9,81.7,31.3,81.7z"/>
	<path style="fill:#FFD93B;" d="M20,69.6L20,69.6c-2.7,0-4.8-2.2-4.8-4.8V27.2c0-2.7,2.2-4.8,4.8-4.8l0,0c2.7,0,4.8,2.2,4.8,4.8
		v37.6C24.9,67.5,22.7,69.6,20,69.6z"/>
	<path style="fill:#FFD93B;" d="M218.8,130.4c0,37.8-18.4,78.7-44.9,98h-66.4c-27.4-18.9-43.4-62.5-43.4-98c0-12.8,2.1-24,5.9-33.7
		L213.6,97C217,106.3,218.8,118.3,218.8,130.4z"/>
</g>
<g style="opacity:0;">
	<path style="fill:#E5F9F8;" d="M201.3,54.4H81.7c-17.5,15-28.4,38.1-28.4,69.3c0,40.6,18.3,90.2,49.5,111.8h75.7
		c30.2-22.1,51.2-68.6,51.2-111.8C229.7,92.5,218.8,69.4,201.3,54.4z M174,228.4h-66.4c-27.4-18.9-43.4-62.5-43.4-98
		c0-12.8,2.1-24,5.9-33.7L213.6,97c3.4,9.3,5.3,21.4,5.3,33.4C218.8,168.2,200.5,209.1,174,228.4z"/>
	
		<line style="fill:none;stroke:#DAEFED;stroke-width:10;stroke-linecap:round;stroke-linejoin:round;stroke-miterlimit:10;" x1="76" y1="50.1" x2="206" y2="50.1"/>
	
		<line style="fill:none;stroke:#A04F18;stroke-width:8;stroke-linecap:round;stroke-linejoin:round;stroke-miterlimit:10;" x1="63.1" y1="35.5" x2="233.6" y2="35.5"/>
	
		<line style="fill:none;stroke:#A04F18;stroke-width:8;stroke-linecap:round;stroke-linejoin:round;stroke-miterlimit:10;" x1="34.1" y1="14.1" x2="34.1" y2="57"/>
	
		<line style="fill:none;stroke:#A04F18;stroke-width:8;stroke-linecap:round;stroke-linejoin:round;stroke-miterlimit:10;" x1="25.3" y1="21.5" x2="25.3" y2="49.6"/>
	
		<line style="fill:none;stroke:#A04F18;stroke-width:8;stroke-linecap:round;stroke-linejoin:round;stroke-miterlimit:10;" x1="16.5" y1="24.5" x2="16.5" y2="46.6"/>
	
		<line style="fill:none;stroke:#A04F18;stroke-width:8;stroke-linecap:round;stroke-linejoin:round;stroke-miterlimit:10;" x1="42.8" y1="21.5" x2="42.8" y2="49.6"/>
	
		<line style="fill:none;stroke:#A04F18;stroke-width:8;stroke-linecap:round;stroke-linejoin:round;stroke-miterlimit:10;" x1="51.7" y1="24.5" x2="51.7" y2="46.6"/>
	<path style="opacity:0.5;fill:#FFFFFF;enable-background:new    ;" d="M90.6,124.1h-3.4c-2.6,0-4.7-2.1-4.7-4.7v-33
		c0-2.6,2.1-4.7,4.7-4.7h3.4c2.6,0,4.8,2.1,4.8,4.7v33C95.4,122,93.2,124.1,90.6,124.1z"/>
</g>
</svg>
