<?xml version="1.0" encoding="utf-8"?>
<!-- Generator: Adobe Illustrator 22.1.0, SVG Export Plug-In . SVG Version: 6.00 Build 0)  -->
<svg version="1.1" id="Layer_1" xmlns="http://www.w3.org/2000/svg" xmlns:xlink="http://www.w3.org/1999/xlink" x="0px" y="0px"
	 viewBox="0 0 256 256" style="enable-background:new 0 0 256 256;" xml:space="preserve">
<g style="opacity:0;">
	<g>
		<path style="fill:#F2C751;" d="M206.3,102.5c-23.3,8.8-49.4,11.7-73.9,11.7c-42.8,0-81-9-92.6-12c3.3-8.5,12.4-13.4,21.5-11.2
			c0.7,0.2,65,15.2,123,0.1C193.6,88.7,203.1,93.7,206.3,102.5z"/>
	</g>
	<g>
		<path style="fill:#F2C751;" d="M203.3,156.7c-27.2,8.1-54.1,10.8-77.9,10.8c-46.2,0-80.6-10.2-82.8-10.8
			c-8.4-2.5-13.7-10.5-13.1-18.9c0.1-1.4,0.3-2.8,0.8-4.2c3-9.8,13.3-15.3,23-12.4c0.5,0.1,31.4,9.2,72.4,9.2
			c20.7,0,43.9-2.3,67-9.2c9.8-2.9,20.1,2.7,23,12.5c0.5,1.5,0.7,3,0.8,4.5C216.8,146.5,211.6,154.3,203.3,156.7z"/>
	</g>
</g>
<g>
	<g>
		<path style="fill:#F7395E;" d="M221.8,136.2c-1.8,0.7-3.5,1.3-5.3,2c-0.1-1.5-0.3-3-0.8-4.5c-1.9-6.3-6.9-10.9-12.8-12.5
			c-3.2-0.9-6.8-0.9-10.2,0.1c-23.1,6.9-46.3,9.2-67,9.2c-41,0-71.9-9-72.4-9.2c-3.5-1-7-1-10.2-0.1c-5.9,1.6-10.9,6.2-12.8,12.5
			c-0.4,1.4-0.7,2.8-0.8,4.2c-2.1-0.6-3.4-0.9-3.8-1.1c-9.8-2.9-15.4-13.2-12.5-23s13.2-15.4,23-12.5c0.1,0,1.4,0.4,3.6,1
			c11.6,3,49.8,12,92.6,12c24.5,0,50.6-3,73.9-11.7c0.6-0.2,1.3-0.5,1.9-0.7c9.5-3.7,20.3,1,24,10.5
			C236,121.8,231.3,132.5,221.8,136.2z"/>
	</g>
	<g>
		<path style="fill:#FFE54D;" d="M156.6,122.8c-4.9,0-9.4-1.1-13.9-2.2c-5.1-1.2-10.3-2.5-16.7-2.5c-3.1,0-6.7,0.6-10.8,1.4
			c-6.4,1.2-14.3,2.6-25.2,2.6c-9.2,0-18.9-4.8-27.4-9.1c-17.2-8.6-25.8-0.3-25.8-0.2c-0.4,0.4-1,0.4-1.4,0s-0.4-1,0-1.4
			s9.7-9.4,28.2-0.2c8.3,4.2,17.8,8.9,26.6,8.9c10.7,0,18.5-1.4,24.8-2.6c4.2-0.8,7.9-1.4,11.2-1.4c6.7,0,12,1.3,17.2,2.6
			c8.9,2.2,16.6,4.1,28.4-1.5c14.3-6.8,21.4-4.7,28.3-2.7c2.4,0.7,4.7,1.4,7.3,1.6c0.5,0.1,1,0.5,0.9,1.1c-0.1,0.5-0.5,1-1.1,0.9
			c-2.8-0.3-5.2-1-7.6-1.7c-6.5-1.9-13.2-3.8-26.8,2.6C166.4,121.8,161.3,122.8,156.6,122.8z"/>
	</g>
	<g style="opacity:5.000000e-02;">
		<path d="M206.3,102.5c-23.3,8.8-49.4,11.7-73.9,11.7c-42.8,0-81-9-92.6-12c3.3-8.5,12.4-13.4,21.5-11.2c0.7,0.2,65,15.2,123,0.1
			C193.6,88.7,203.1,93.7,206.3,102.5z"/>
	</g>
</g>
</svg>
