<?xml version="1.0" encoding="utf-8"?>
<!-- Generator: Adobe Illustrator 22.1.0, SVG Export Plug-In . SVG Version: 6.00 Build 0)  -->
<svg version="1.1" id="Layer_1" xmlns="http://www.w3.org/2000/svg" xmlns:xlink="http://www.w3.org/1999/xlink" x="0px" y="0px"
	 viewBox="0 0 256 256" style="enable-background:new 0 0 256 256;" xml:space="preserve">
<g>
	<g>
		<path style="fill:#FF9D33;" d="M110.8,55.8c0,22-17.9,39.7-39.8,39.7c-22,0-39.8-17.9-39.7-39.8l0,0c0-22,17.7-39.8,39.7-39.8
			s39.8,17.8,39.8,39.7V55.8z"/>
		<path style="fill:#FF9D33;" d="M71,20.8c-19.2,0-34.8,15.6-34.8,34.8l0,0c0,19.2,15.5,34.8,34.8,34.8c19.2,0,34.8-15.5,34.9-34.8
			v-0.2C105.8,36.4,90.2,20.8,71,20.8z M46.5,38.2l20.3,16.4h-26C40.8,48.2,42.9,43.1,46.5,38.2z M40.8,56.7h26L46.5,73.1
			C42.9,68.3,40.8,63.2,40.8,56.7z M69.1,85.4c-8.3-0.4-15.8-4.2-20.9-10.1l21-18L69.1,85.4z M48.2,36.1c5.2-5.9,12.6-9.7,20.9-10.1
			v28L48.2,36.1z M92.7,36L71.8,54V26.1C80.1,26.4,87.5,30.2,92.7,36z M71.8,85.4V57.5l20.9,18C87.5,81.2,80.1,85,71.8,85.4z
			 M94.4,73.3L74.1,56.7h26.1C100.1,63.3,98,68.4,94.4,73.3z M74.1,54.6l20.3-16.5c3.6,4.9,5.7,10,5.7,16.5H74.1z"/>
	</g>
	<path style="fill:#FF9D33;" d="M187.4,114.4l-10.1,116c-0.7,8.3-6.5,14.6-13.3,14.6H96.5c-6.8,0-12.6-6.3-13.3-14.6l-10.1-116
		C73.1,114.4,187.4,114.4,187.4,114.4z"/>
</g>
<g style="opacity:0;">
	<polygon style="fill:#E5F9F8;" points="192.5,55.7 187.4,114.4 73.1,114.4 71,90.5 69.1,68.6 68.2,58.1 68,55.7 	"/>
	<path style="opacity:0.6;fill:#FFFFFF;enable-background:new    ;" d="M105.8,55.6c0-19.2-15.6-34.8-34.9-34.8
		c-19.2,0-34.8,15.6-34.8,34.8l0,0c0,19.2,15.5,34.8,34.8,34.8l0,0L69,68.5v16.8c-8.3-0.4-15.8-4.2-20.9-10.1L68.2,58L68,55.7
		L105.8,55.6L105.8,55.6z M46.5,73.1c-3.6-4.9-5.7-9.9-5.6-16.5h26L46.5,73.1z M40.8,54.7c0-6.5,2.1-11.6,5.6-16.5l20.3,16.4
		L40.8,54.7z M48.2,36.1c5.2-5.9,12.6-9.7,20.9-10.1v28L48.2,36.1z M71.8,26c8.3,0.4,15.7,4.2,20.9,10L71.8,54V26z M74.1,54.6
		l20.3-16.5c3.6,4.9,5.7,10,5.7,16.5H74.1z"/>
</g>
</svg>
