<?xml version="1.0" encoding="utf-8"?>
<!-- Generator: Adobe Illustrator 22.1.0, SVG Export Plug-In . SVG Version: 6.00 Build 0)  -->
<svg version="1.1" id="Layer_1" xmlns="http://www.w3.org/2000/svg" xmlns:xlink="http://www.w3.org/1999/xlink" x="0px" y="0px"
	 viewBox="0 0 256 256" style="enable-background:new 0 0 256 256;" xml:space="preserve">
<g>
	<path style="fill:#FFFFFF;" d="M124.6,63.9l-4.7,1.1c-0.9,19-13.2,36-31.6,42.5c-1.6,0.6-3.3,1.1-5,1.5c-1.7,0.4-3.5,0.7-5.2,0.9
		c-19.4,2.3-38-7.5-47.2-24.1l-6.6,1.5L18.8,64l6.1-1.4C25,41,39.8,21.6,61.7,16.5c21.9-5.1,43.7,5.8,53.3,25l4.2-1L124.6,63.9z"/>
</g>
<g style="opacity:0;">
	<path style="fill:#FFD961;" d="M108.5,217.1c-2.8,0.7-5.7-1.1-6.3-3.9L78.1,109.9c1.7-0.2,3.5-0.5,5.2-0.9c1.7-0.4,3.4-0.9,5-1.5
		l24.1,103.3C113.1,213.6,111.3,216.4,108.5,217.1z"/>
	<path style="fill:#FFD961;" d="M167,139.3l-33.7,100.6c-0.9,2.8-3.9,4.2-6.6,3.3c-2.8-0.9-4.2-3.9-3.3-6.6L157,136
		c1.6,0.7,3.2,1.4,4.9,1.9C163.6,138.5,165.3,138.9,167,139.3z"/>
	<path style="fill:#FF5ACD;" d="M222,107.9c-7.8,23.2-31.7,36.4-55.1,31.4c-1.7-0.4-3.4-0.8-5.1-1.4c-1.7-0.6-3.3-1.2-4.9-1.9
		c-21.7-10-32.8-35-25.1-58.2c8.3-24.9,35.2-38.3,60.1-30C216.9,56.1,230.3,83.1,222,107.9z"/>
	<g>
		
			<rect x="163.7" y="42" transform="matrix(0.3175 -0.9483 0.9483 0.3175 31.2821 230.4273)" style="fill:#EF48A8;" width="24" height="103"/>
	</g>
	<g style="opacity:0.1;">
		<rect x="20.2" y="52" transform="matrix(0.9738 -0.2275 0.2275 0.9738 -12.6707 17.9963)" width="103" height="24"/>
	</g>
</g>
</svg>
