<?xml version="1.0" encoding="utf-8"?>
<!-- Generator: Adobe Illustrator 22.1.0, SVG Export Plug-In . SVG Version: 6.00 Build 0)  -->
<svg version="1.1" id="Layer_1" xmlns="http://www.w3.org/2000/svg" xmlns:xlink="http://www.w3.org/1999/xlink" x="0px" y="0px"
	 viewBox="0 0 256 256" style="enable-background:new 0 0 256 256;" xml:space="preserve">
<g style="opacity:0;">
	<path style="fill:#73DDEF;" d="M186.9,64l-5.6,1.3c-1.1,22.7-15.7,42.9-37.7,50.7c-1.9,0.7-3.9,1.3-6,1.8c-2,0.5-4.2,0.8-6.2,1.1
		c-23.1,2.7-45.3-8.9-56.3-28.8L67.3,92l-6.6-27.8l7.3-1.7c0.1-25.8,17.8-48.9,43.9-55s52.1,6.9,63.6,29.8l5-1.2L186.9,64z"/>
</g>
<g>
	<path style="fill:#FFD961;" d="M167.7,246.8c-3.3,0.8-6.8-1.3-7.5-4.7l-28.8-123.2c2-0.2,4.2-0.6,6.2-1.1c2-0.5,4.1-1.1,6-1.8
		l28.8,123.2C173.2,242.6,171.1,246,167.7,246.8z"/>
	<g style="opacity:0.1;">
		<rect x="62.4" y="49.9" transform="matrix(0.9738 -0.2275 0.2275 0.9738 -11.3524 29.8508)" width="122.9" height="28.6"/>
	</g>
</g>
</svg>
