<?xml version="1.0" encoding="utf-8"?>
<!-- Generator: Adobe Illustrator 22.1.0, SVG Export Plug-In . SVG Version: 6.00 Build 0)  -->
<svg version="1.1" id="Layer_1" xmlns="http://www.w3.org/2000/svg" xmlns:xlink="http://www.w3.org/1999/xlink" x="0px" y="0px"
	 viewBox="0 0 256 256" style="enable-background:new 0 0 256 256;" xml:space="preserve">
<g style="opacity:0;">
	<path style="fill:#FFFFFF;" d="M229.1,210.7c0,17.5-43.7,31.8-97.6,31.8s-97.6-14.2-97.6-31.8v-11.3c0-4.6,3-9,8.5-13v14.4
		c0,16,39.9,29,89.1,29s89.1-13,89.1-29v-14.4c4.7,3.4,7.7,7.2,8.3,11.2v0c0,0,0,0,0,0L229.1,210.7z"/>
	<path style="fill:#FFFFFF;" d="M220.6,62.7v138.1c0,16-39.9,29-89.1,29s-89.1-13-89.1-29V62.7c15.3,9.7,49.4,16.5,89.1,16.5
		S205.4,72.4,220.6,62.7z"/>
	<path style="fill:#FFFFFF;" d="M228.9,39.8C229,39.8,228.9,39.8,228.9,39.8L228.9,39.8c-0.8-4.3-5-8.3-11.8-11.8
		c18.6,11.8,2.5,22.6-0.9,24.5c0,0,0,0,0,0c-11.6,9.1-45.2,15.6-84.8,15.6c-42.6,0-78.2-7.6-87-17.7c0,0,0,0,0,0
		c-0.1-0.1-0.2-0.2-0.3-0.3c-1-1.3-1.6-2.6-1.8-3.9c-8.9-9.4,4.4-18.6,4.4-18.6c-8.2,4.1-12.9,8.8-12.9,13.9v9.9
		c0,4.1,3,7.9,8.5,11.4c15.3,9.7,49.4,16.5,89.1,16.5s73.9-6.8,89.1-16.5c5.5-3.5,8.5-7.3,8.5-11.4L228.9,39.8z M42.4,42.6
		c-0.4,0.8-0.4,1.7,0,2.7c0-1.8,1-3.6,2.6-5.3C43.7,40.9,42.8,41.8,42.4,42.6z"/>
	<path style="fill:#FFFFFF;" d="M216.3,52.5C216.3,52.5,216.3,52.5,216.3,52.5c0.8-0.6,1.5-1.3,2.1-1.9c0.1-0.1,0.1-0.1,0.2-0.2v0
		c0.2-0.5,0.6-1,1.1-1.5c0.6-1.1,1-2.2,1-3.3c0-0.2,0-0.4,0-0.7c0-0.4-0.1-0.7-0.2-1c-0.1-0.2-0.1-0.5-0.3-0.7
		c0-0.2-0.1-0.3-0.2-0.5c-0.3-0.6-0.6-1.1-1.1-1.7c-0.1-0.2-0.3-0.4-0.5-0.5c-0.4-0.4-0.8-0.8-1.2-1.2c-0.2-0.2-0.3-0.3-0.5-0.4
		c-0.2-0.2-0.4-0.4-0.7-0.5c-1.2-0.9-2.6-1.8-4.3-2.6c-0.3-0.1-0.5-0.3-0.8-0.4c-0.3-0.2-0.7-0.3-1-0.5c-1.6-0.7-3.3-1.5-5.2-2.1
		c-0.4-0.2-0.8-0.3-1.2-0.4c-1.3-0.4-2.6-0.9-4-1.3c-0.4-0.1-0.8-0.3-1.3-0.4c-0.5-0.1-0.9-0.3-1.4-0.4c-0.5-0.1-1-0.3-1.5-0.4
		c-0.5-0.1-1-0.3-1.5-0.4c-0.5-0.1-1-0.3-1.5-0.4s-1-0.2-1.6-0.4c-0.5-0.1-1-0.2-1.6-0.4c-0.5-0.1-1.1-0.2-1.6-0.3
		c-0.5-0.1-1.1-0.2-1.6-0.3c-0.6-0.1-1.1-0.2-1.7-0.3c-0.6-0.1-1.1-0.2-1.7-0.3c-4.5-0.8-9.2-1.5-14.3-2.1c-0.7-0.1-1.3-0.2-2-0.2
		c-0.7-0.1-1.3-0.1-2-0.2c-0.7-0.1-1.4-0.1-2-0.2c-0.1,0-0.3,0-0.4,0c-1.2-0.1-2.5-0.2-3.7-0.3c-0.7-0.1-1.4-0.1-2.1-0.2
		s-1.4-0.1-2.1-0.1c-0.7,0-1.4-0.1-2.2-0.1c-0.5,0-1.1-0.1-1.6-0.1c-5.3-0.3-10.7-0.4-16.2-0.5c-0.8,0-1.5,0-2.3,0s-1.5,0-2.3,0
		c-1,0-1.9,0-2.8,0c-0.6,0-1.1,0-1.7,0c-1,0-2,0-3,0.1c-1.2,0-2.5,0.1-3.7,0.1c-0.6,0-1.2,0-1.8,0.1c-0.4,0-0.9,0-1.3,0.1
		c-1.6,0.1-3.1,0.2-4.6,0.3c-0.4,0-0.9,0.1-1.3,0.1c-2.4,0.2-4.8,0.3-7.1,0.5c-0.5,0-1.1,0.1-1.6,0.2c-2.8,0.3-5.6,0.6-8.3,0.9
		c-0.5,0.1-1.1,0.1-1.6,0.2c-2.7,0.3-5.2,0.7-7.7,1.2c-1.5,0.3-3,0.5-4.4,0.8c-1,0.2-1.9,0.4-2.8,0.6c-0.5,0.1-0.9,0.2-1.4,0.3
		c-0.5,0.1-0.9,0.2-1.4,0.3c-0.9,0.2-1.8,0.4-2.6,0.6c-0.4,0.1-0.9,0.2-1.3,0.3s-0.8,0.2-1.3,0.3c-2.1,0.5-4,1.1-5.9,1.7
		c-0.4,0.1-0.7,0.2-1.1,0.4c-0.4,0.1-0.7,0.2-1.1,0.4c-0.3,0.1-0.7,0.2-1,0.4c-1.9,0.7-3.7,1.4-5.3,2.2c-0.3,0.1-0.5,0.2-0.8,0.4
		c-2.9,1.4-5.2,2.9-6.9,4.5c-0.2,0.2-0.3,0.3-0.5,0.5c-1.3,0.9-2.2,1.8-2.6,2.6c-0.4,0.8-0.4,1.7,0,2.7c0,0.1,0,0.1,0,0.2
		c0,0.2,0,0.3,0,0.5c0,0,0,0.1,0,0.2c-8.9-9.4,4.4-18.6,4.4-18.6v0c16.8-8.4,48.4-14,84.7-14c36.9,0,69,5.8,85.6,14.5c0,0,0,0,0,0
		C235.7,39.8,219.7,50.6,216.3,52.5z"/>
	<path style="fill:#FFFFFF;" d="M220.6,45.5c0,1.1-0.3,2.2-1,3.3c-0.5,0.5-0.9,1-1.1,1.5v0c-0.1,0.1-0.1,0.1-0.2,0.2
		c-0.6,0.7-1.3,1.3-2.1,1.9c-11.6,9.1-45.2,15.6-84.8,15.6c-42.6,0-78.2-7.6-87-17.7c0,0,0,0,0,0c-0.1-0.1-0.2-0.2-0.3-0.3
		c-1-1.3-1.6-2.6-1.8-3.9c0-0.2,0-0.4,0-0.7c0-0.1,0-0.1,0-0.2c0-1.8,1-3.6,2.6-5.3c9.5-9.7,43.4-16.9,84.2-17.1c0.8,0,1.5,0,2.3,0
		s1.5,0,2.3,0C182,23.2,220.6,33.2,220.6,45.5z"/>
</g>
<g>
	
		<rect x="151.5" y="138.5" transform="matrix(0.471 -0.8821 0.8821 0.471 -56.3694 222.6405)" style="fill:#F4F4F4;" width="12" height="39.7"/>
	<circle style="fill:#F4F4F4;" cx="173.2" cy="175.7" r="11.2"/>
	<circle style="fill:#F4F4F4;" cx="181" cy="161.1" r="11.2"/>
	<path style="fill:#F7395E;" d="M154.5,157.2c-9.6,17.1-56.3,4.1-64.8-0.7c-8.5-4.8-8.4-21,0.2-36.1s22.4-23.6,30.9-18.8
		C129.2,106.3,163.9,140.6,154.5,157.2z"/>
	
		<ellipse transform="matrix(0.4918 -0.8707 0.8707 0.4918 -58.8029 159.0491)" style="fill:#E83862;stroke:#F4F4F4;stroke-width:4;stroke-miterlimit:10;" cx="106.9" cy="129.9" rx="31.6" ry="22.1"/>
	
		<ellipse transform="matrix(0.4918 -0.8707 0.8707 0.4918 -57.2801 157.4829)" style="fill:#F4F4F4;" cx="106.3" cy="127.8" rx="5.5" ry="3.4"/>
	<path style="fill:#F4F4F4;" d="M173.5,31.5c-15.8,0-28.6,5-28.6,11.1s12.8,11.1,28.6,11.1c15.8,0,28.6-5,28.6-11.1
		S189.3,31.5,173.5,31.5z M184.5,46.3c-6.6,0-11.9-2.1-11.9-4.6s5.3-4.6,11.9-4.6c6.6,0,12,2.1,12,4.6S191.1,46.3,184.5,46.3z"/>
	<path style="opacity:0.1;" d="M229.1,210.7c0,17.5-43.7,31.8-97.6,31.8s-97.6-14.2-97.6-31.8v-11.3c0-4.6,3-9,8.5-13v14.4
		c0,16,39.9,29,89.1,29s89.1-13,89.1-29v-14.4c4.7,3.4,7.7,7.2,8.3,11.2v0c0,0,0,0,0,0L229.1,210.7z"/>
	<path style="opacity:0.1;" d="M228.9,39.8C229,39.8,228.9,39.8,228.9,39.8L228.9,39.8c-0.8-4.3-5-8.3-11.8-11.8
		c18.6,11.8,2.5,22.6-0.9,24.5c0,0,0,0,0,0c-11.6,9.1-45.2,15.6-84.8,15.6c-42.6,0-78.2-7.6-87-17.7c0,0,0,0,0,0
		c-0.1-0.1-0.2-0.2-0.3-0.3c-1-1.3-1.6-2.6-1.8-3.9c-8.9-9.4,4.4-18.6,4.4-18.6c-8.2,4.1-12.9,8.8-12.9,13.9v9.9
		c0,4.1,3,7.9,8.5,11.4c15.3,9.7,49.4,16.5,89.1,16.5s73.9-6.8,89.1-16.5c5.5-3.5,8.5-7.3,8.5-11.4L228.9,39.8z M42.4,42.6
		c-0.4,0.8-0.4,1.7,0,2.7c0-1.8,1-3.6,2.6-5.3C43.7,40.9,42.8,41.8,42.4,42.6z"/>
	<path style="opacity:0.2;" d="M216.3,52.5C216.3,52.5,216.3,52.5,216.3,52.5c0.8-0.6,1.5-1.3,2.1-1.9c0.1-0.1,0.1-0.1,0.2-0.2v0
		c0.2-0.5,0.6-1,1.1-1.5c0.6-1.1,1-2.2,1-3.3c0-0.2,0-0.4,0-0.7c0-0.4-0.1-0.7-0.2-1c-0.1-0.2-0.1-0.5-0.3-0.7
		c0-0.2-0.1-0.3-0.2-0.5c-0.3-0.6-0.6-1.1-1.1-1.7c-0.1-0.2-0.3-0.4-0.5-0.5c-0.4-0.4-0.8-0.8-1.2-1.2c-0.2-0.2-0.3-0.3-0.5-0.4
		c-0.2-0.2-0.4-0.4-0.7-0.5c-1.2-0.9-2.6-1.8-4.3-2.6c-0.3-0.1-0.5-0.3-0.8-0.4c-0.3-0.2-0.7-0.3-1-0.5c-1.6-0.7-3.3-1.5-5.2-2.1
		c-0.4-0.2-0.8-0.3-1.2-0.4c-1.3-0.4-2.6-0.9-4-1.3c-0.4-0.1-0.8-0.3-1.3-0.4c-0.5-0.1-0.9-0.3-1.4-0.4c-0.5-0.1-1-0.3-1.5-0.4
		c-0.5-0.1-1-0.3-1.5-0.4c-0.5-0.1-1-0.3-1.5-0.4s-1-0.2-1.6-0.4c-0.5-0.1-1-0.2-1.6-0.4c-0.5-0.1-1.1-0.2-1.6-0.3
		c-0.5-0.1-1.1-0.2-1.6-0.3c-0.6-0.1-1.1-0.2-1.7-0.3c-0.6-0.1-1.1-0.2-1.7-0.3c-4.5-0.8-9.2-1.5-14.3-2.1c-0.7-0.1-1.3-0.2-2-0.2
		c-0.7-0.1-1.3-0.1-2-0.2c-0.7-0.1-1.4-0.1-2-0.2c-0.1,0-0.3,0-0.4,0c-1.2-0.1-2.5-0.2-3.7-0.3c-0.7-0.1-1.4-0.1-2.1-0.2
		s-1.4-0.1-2.1-0.1c-0.7,0-1.4-0.1-2.2-0.1c-0.5,0-1.1-0.1-1.6-0.1c-5.3-0.3-10.7-0.4-16.2-0.5c-0.8,0-1.5,0-2.3,0s-1.5,0-2.3,0
		c-1,0-1.9,0-2.8,0c-0.6,0-1.1,0-1.7,0c-1,0-2,0-3,0.1c-1.2,0-2.5,0.1-3.7,0.1c-0.6,0-1.2,0-1.8,0.1c-0.4,0-0.9,0-1.3,0.1
		c-1.6,0.1-3.1,0.2-4.6,0.3c-0.4,0-0.9,0.1-1.3,0.1c-2.4,0.2-4.8,0.3-7.1,0.5c-0.5,0-1.1,0.1-1.6,0.2c-2.8,0.3-5.6,0.6-8.3,0.9
		c-0.5,0.1-1.1,0.1-1.6,0.2c-2.7,0.3-5.2,0.7-7.7,1.2c-1.5,0.3-3,0.5-4.4,0.8c-1,0.2-1.9,0.4-2.8,0.6c-0.5,0.1-0.9,0.2-1.4,0.3
		c-0.5,0.1-0.9,0.2-1.4,0.3c-0.9,0.2-1.8,0.4-2.6,0.6c-0.4,0.1-0.9,0.2-1.3,0.3s-0.8,0.2-1.3,0.3c-2.1,0.5-4,1.1-5.9,1.7
		c-0.4,0.1-0.7,0.2-1.1,0.4c-0.4,0.1-0.7,0.2-1.1,0.4c-0.3,0.1-0.7,0.2-1,0.4c-1.9,0.7-3.7,1.4-5.3,2.2c-0.3,0.1-0.5,0.2-0.8,0.4
		c-2.9,1.4-5.2,2.9-6.9,4.5c-0.2,0.2-0.3,0.3-0.5,0.5c-1.3,0.9-2.2,1.8-2.6,2.6c-0.4,0.8-0.4,1.7,0,2.7c0,0.1,0,0.1,0,0.2
		c0,0.2,0,0.3,0,0.5c0,0,0,0.1,0,0.2c-8.9-9.4,4.4-18.6,4.4-18.6v0c16.8-8.4,48.4-14,84.7-14c36.9,0,69,5.8,85.6,14.5c0,0,0,0,0,0
		C235.7,39.8,219.7,50.6,216.3,52.5z"/>
</g>
</svg>
