<?xml version="1.0" encoding="utf-8"?>
<!-- Generator: Adobe Illustrator 22.1.0, SVG Export Plug-In . SVG Version: 6.00 Build 0)  -->
<svg version="1.1" id="Layer_1" xmlns="http://www.w3.org/2000/svg" xmlns:xlink="http://www.w3.org/1999/xlink" x="0px" y="0px"
	 viewBox="0 0 256 256" style="enable-background:new 0 0 256 256;" xml:space="preserve">
<g style="opacity:0;">
	<path style="fill:#F7395E;" d="M167.9,152.1c0,5-1.1,9.6-3.4,13.8c-2.1,3.7-5,6.8-8.5,9.2c-31.8,22.2-115.1-1.4-131.5-10.7
		c-18.3-10.3-18.1-45.3,0.4-78.2c18.5-32.8,48.4-51,66.7-40.7C107.7,54.7,168.1,113.8,167.9,152.1z"/>
	
		<ellipse transform="matrix(0.4918 -0.8707 0.8707 0.4918 -61.9216 107.8652)" style="fill:#F7395E;" cx="61.4" cy="107" rx="68.2" ry="47.7"/>
</g>
<g>
	
		<ellipse transform="matrix(0.4918 -0.8707 0.8707 0.4918 -61.9216 107.8652)" style="opacity:0.1;enable-background:new    ;" cx="61.4" cy="107" rx="68.2" ry="47.7"/>
	<path style="fill:#F4F4F4;" d="M214.8,177.2l-12.2,22.9L156,175.2c3.5-2.5,6.4-5.5,8.5-9.2c2.3-4.1,3.4-8.8,3.4-13.8L214.8,177.2z"
		/>
	<circle style="fill:#F4F4F4;" cx="204.9" cy="205.9" r="24.3"/>
	<circle style="fill:#F4F4F4;" cx="221.7" cy="174.5" r="24.3"/>
	
		<ellipse transform="matrix(0.4918 -0.8707 0.8707 0.4918 -58.5748 104.391)" style="fill:#F4F4F4;" cx="60.1" cy="102.4" rx="11.9" ry="7.3"/>
	
		<ellipse transform="matrix(0.4918 -0.8707 0.8707 0.4918 -61.9216 107.8652)" style="fill:none;stroke:#F4F4F4;stroke-width:4;stroke-miterlimit:10;" cx="61.4" cy="107" rx="68.2" ry="47.7"/>
</g>
</svg>
