<?xml version="1.0" encoding="utf-8"?>
<!-- Generator: Adobe Illustrator 22.1.0, SVG Export Plug-In . SVG Version: 6.00 Build 0)  -->
<svg version="1.1" id="Layer_1" xmlns="http://www.w3.org/2000/svg" xmlns:xlink="http://www.w3.org/1999/xlink" x="0px" y="0px"
	 viewBox="0 0 256 256" style="enable-background:new 0 0 256 256;" xml:space="preserve">
<g style="opacity:0;">
	<path style="fill:#E0FCFA;" d="M166.1,104H92.8c1.4-7,3.5-14.1,6.8-18.9c8.7-12.7,8.9-48.7,8.9-48.7h41.8c0,0,0.3,36,8.9,48.7
		C162.6,89.9,164.7,97,166.1,104z"/>
	<path style="fill:#C2EFEB;" d="M148.8,40h-38.6c-2.4,0-4.3-1.9-4.3-4.3V25c0-2.4,1.9-4.3,4.3-4.3h38.6c2.4,0,4.3,1.9,4.3,4.3v10.7
		C153.1,38.1,151.2,40,148.8,40z"/>
	
		<line style="fill:none;stroke:#C2EFEB;stroke-width:5;stroke-linecap:round;stroke-linejoin:round;stroke-miterlimit:10;" x1="105.9" y1="66.6" x2="153.1" y2="66.6"/>
</g>
<g>
	<path style="fill:#FFFFEE;" d="M169,233.3c0,3.6-2.9,6.5-6.5,6.5h-66c-3.6,0-6.5-2.9-6.5-6.5l0.3-106.8c0,0,0.3-11.1,2.5-22.5h73.3
		c2.3,11.4,2.5,22.5,2.5,22.5L169,233.3z"/>
</g>
</svg>
