<?xml version="1.0" encoding="utf-8"?>
<!-- Generator: Adobe Illustrator 22.1.0, SVG Export Plug-In . SVG Version: 6.00 Build 0)  -->
<svg version="1.1" id="Layer_1" xmlns="http://www.w3.org/2000/svg" xmlns:xlink="http://www.w3.org/1999/xlink" x="0px" y="0px"
	 viewBox="0 0 256 256" style="enable-background:new 0 0 256 256;" xml:space="preserve">
<g style="opacity:0;">
	<path style="fill:#F94E87;" d="M161.1,95.8c-0.7,1.7-1.2,3.4-1.5,4.6c-2.6,11.3-14.1,19.9-28,19.9h-4.2c-13.8,0-25.4-8.5-28-19.9
		c-0.3-1.2-0.9-2.9-1.5-4.6H161.1z"/>
	<path style="fill:#F94E87;" d="M196.8,61.1c-2,6.2-6.1,11.9-11.7,16.5H74c-5.5-4.6-9.6-10.3-11.7-16.5H196.8z"/>
	<path style="fill:#F94E87;" d="M185.1,77.7c-4.7,3.9-10.4,7.1-16.8,9.2c-2.5,0.8-4.5,2.6-5.5,4.8c-0.5,1.2-1.1,2.7-1.7,4.1H98
		c-0.5-1.4-1.1-2.8-1.7-4.1c-1-2.2-3-4-5.5-4.8c-6.4-2.1-12.1-5.3-16.8-9.2H185.1z"/>
</g>
<g>
	<path style="fill:#F2FCFB;" d="M211.4,44.8c0,14.1-6.6,27-17.3,36.2c-6.3,5.5-14.1,9.7-22.8,12.3c-0.1,0-0.1,0.1-0.1,0.2
		c0,9.3-4.3,17.7-11.4,23.8c-6.8,5.9-16,9.6-26.3,9.8c-0.4,0-0.7,0-1.1,0h-5.8c-0.4,0-0.7,0-1.1,0c-20.9-0.5-37.6-15.4-37.6-33.6
		v-0.1c-23.4-6.8-40.2-26-40.2-48.6h116.7L152,61.1H62.3c2,6.2,6.1,11.9,11.7,16.5c4.7,3.9,10.4,7.1,16.8,9.2
		c2.5,0.8,4.5,2.6,5.5,4.8c0.5,1.2,1.1,2.7,1.7,4.1c0.7,1.7,1.2,3.4,1.5,4.6c2.5,10.8,13.1,19.1,26.1,19.8c0.6,0,1.3,0.1,1.9,0.1
		h4.2c0.6,0,1.3,0,1.9-0.1c13-0.7,23.6-9,26.1-19.8c0.3-1.2,0.9-2.9,1.5-4.6c0.5-1.4,1.2-2.8,1.7-4.1c1-2.2,3-4,5.5-4.8
		c6.4-2.1,12.1-5.3,16.8-9.2c5.5-4.6,9.6-10.3,11.7-16.5h-36l12.4-16.3C173.3,44.8,211.4,44.8,211.4,44.8z"/>
	<g>
		<path style="fill:#B2E7ED;" d="M217.3,14.3l-29.1,10.8l-15,19.7l-12.4,16.3H152l12.4-16.3L183.2,20c0.4-0.5,1-0.9,1.6-1.2
			l30.1-11.1c1.8-0.7,3.8,0.3,4.5,2.1C220,11.6,219.1,13.6,217.3,14.3z"/>
	</g>
	
		<line style="fill:none;stroke:#F2FCFB;stroke-width:8;stroke-linecap:round;stroke-linejoin:round;stroke-miterlimit:10;" x1="105.3" y1="234.9" x2="153.8" y2="234.9"/>
	<g>
		<path style="fill:#F2FCFB;" d="M132.5,127.1c0.4,0,0.7,0,1.1,0v107.7c0,2.2-1.8,4-4,4s-4-1.8-4-4V127.1c0.4,0,0.7,0,1.1,0H132.5z"
			/>
	</g>
	<g>
		<path style="opacity:0.1;enable-background:new    ;" d="M161.1,95.8c-0.7,1.7-1.2,3.4-1.5,4.6c-2.6,11.3-14.1,19.9-28,19.9h-4.2
			c-13.8,0-25.4-8.5-28-19.9c-0.3-1.2-0.9-2.9-1.5-4.6H161.1z"/>
		<path style="opacity:5.000000e-02;enable-background:new    ;" d="M185.1,77.7c-4.7,3.9-10.4,7.1-16.8,9.2
			c-2.5,0.8-4.5,2.6-5.5,4.8c-0.5,1.2-1.1,2.7-1.7,4.1H98c-0.5-1.4-1.1-2.8-1.7-4.1c-1-2.2-3-4-5.5-4.8c-6.4-2.1-12.1-5.3-16.8-9.2
			H185.1z"/>
	</g>
</g>
</svg>
