<?xml version="1.0" encoding="utf-8"?>
<!-- Generator: Adobe Illustrator 22.1.0, SVG Export Plug-In . SVG Version: 6.00 Build 0)  -->
<svg version="1.1" id="Layer_1" xmlns="http://www.w3.org/2000/svg" xmlns:xlink="http://www.w3.org/1999/xlink" x="0px" y="0px"
	 viewBox="0 0 256 256" style="enable-background:new 0 0 256 256;" xml:space="preserve">
<g>
	<g>
		<path style="fill:#FCB94C;" d="M93.1,126.1c-2.5,0.7-4.8,1.6-7,2.8L85.6,69l-0.1-10v-3.7l-0.1-8.8c0-0.5,0.1-1,0.3-1.5
			c0.5-1.2,1.8-2,3.2-2l0,0c0.9,0,1.7,0.3,2.3,0.8c0.7,0.6,1.2,1.6,1.2,2.6l0.1,7.3v5.1l0.1,10L93.1,126.1z"/>
	</g>
	<g>
		<path style="fill:#FCB94C;" d="M84.1,93.5c0,1.9-1.5,3.5-3.4,3.6h-0.1c-1.9,0-3.5-1.5-3.5-3.4l-0.5-24.6l-0.2-10v-1.8L76.1,49
			c0-0.8,0.2-1.5,0.6-2.1c0.6-0.9,1.6-1.5,2.8-1.5c0.7,0,1.3,0.2,1.8,0.5c1,0.6,1.7,1.7,1.7,3l0.1,6.9l0.1,3.2l0.2,10L84.1,93.5z"/>
	</g>
	<g>
		<path style="fill:#FCB94C;" d="M101.5,114.5c0,1.9-1.5,3.5-3.5,3.5l0,0c-1.9,0-3.5-1.5-3.5-3.5l-0.7-45.8l-0.1-10l-0.1-5.3l-0.1-8
			c0-0.9,0.3-1.8,0.9-2.4l4-0.9c1.2,0.5,2.1,1.8,2.1,3.2l0.1,6.6l0.1,6.8l0.1,10L101.5,114.5z"/>
		<path style="fill:#FCB94C;" d="M98.4,42.2l-4,0.9c0.6-0.7,1.5-1.1,2.5-1.2C97.4,41.9,97.9,42,98.4,42.2z"/>
	</g>
	<ellipse style="fill:#FCB94C;" cx="59.6" cy="156.4" rx="33.1" ry="24.8"/>
	<path style="fill:#FCB94C;" d="M137.1,152.2c0,15.2-14.9,27.6-33.3,27.6s-33.3-12.3-33.3-27.6c0-9.8,6.2-18.4,15.5-23.3
		c2.2-1.1,4.5-2.1,7-2.8c3.4-1,7-1.5,10.8-1.5C122.2,124.6,137.1,137,137.1,152.2z"/>
	<ellipse style="fill:#FCB94C;" cx="133" cy="161.7" rx="22.1" ry="22.3"/>
	<path style="fill:#FCB94C;" d="M200.8,156.4c0,16.7-13.3,30.3-29.8,30.6v1.9c0,1.9-1.6,3.5-3.5,3.5s-3.5-1.6-3.5-3.5v-2.5
		c-13.7-3-23.9-15.2-23.9-29.9c0-16.9,13.6-30.6,30.3-30.6C187.3,125.8,200.8,139.5,200.8,156.4z"/>
	<g>
		<path style="fill:#FCB94C;" d="M172.3,171.7v7c-0.4,0-0.8,0.1-1.2,0.1v-7C171.5,171.8,171.9,171.7,172.3,171.7z"/>
		<path style="fill:#FCB94C;" d="M192.7,156.4c0,9.2-5.5,17.1-13.4,20.6v-8c3.9-2.8,6.4-7.4,6.4-12.5c0-8.5-6.8-15.4-15.3-15.4
			c-8.4,0-15.2,6.9-15.2,15.4c0,6.2,3.6,11.5,8.8,14v7.5c-9.2-2.8-15.8-11.3-15.8-21.5c0-12.4,10-22.4,22.2-22.4
			C182.8,134,192.7,144,192.7,156.4z"/>
	</g>
	<path style="fill:#FCB94C;" d="M54.5,152.2c0,0-14.5,17.4,0,19.3c14.5,1.9,31.4-10.4,38.6-18"/>
	<g>
		<path style="fill:#FCB94C;" d="M171.1,150.5v5.8h-7v-5.8c0-1.9,1.6-3.5,3.5-3.5S171.1,148.6,171.1,150.5z"/>
	</g>
	<g>
		<path style="fill:#FCB94C;" d="M179.3,150.5v5.8h-7v-5.8c0-1.9,1.6-3.5,3.5-3.5C177.8,147,179.3,148.6,179.3,150.5z"/>
	</g>
	<g>
		<path style="fill:#FCB94C;" d="M96.1,170.7c-8.8,0-13.5-3.1-15.9-6c-3.7-4.5-4.3-11.1-1.6-18c2.6-6.8,8.7-14.2,16.5-15.3
			c25.5-3.7,34.6,15.7,34.7,15.9c0.8,1.8,0,3.8-1.7,4.6c-1.8,0.8-3.8,0-4.6-1.7c-0.3-0.7-7.2-14.8-27.4-11.9
			c-4.1,0.6-8.7,5.2-11,10.9c-1.7,4.4-1.5,8.5,0.5,11c2.8,3.4,9.2,4.3,18.1,2.7c9.3-1.7,11.1-4.1,11.1-4.6c-0.1-1.9-7.1-6.6-17.5-7
			c-1.9-0.1-3.4-1.7-3.4-3.6c0.1-1.9,1.7-3.4,3.6-3.4c11.2,0.5,23.6,5.8,24.2,13.5c0.4,5.8-5.3,9.8-16.9,11.9
			C101.6,170.4,98.6,170.7,96.1,170.7z"/>
	</g>
</g>
<g style="opacity:0;">
	<g>
		<path style="fill:#EFEFEF;" d="M76.1,49l0.2,8.3l-7.4,1.6l-2.2-9.8l10-2.2C76.3,47.5,76,48.3,76.1,49z"/>
		<path style="fill:#EFEFEF;" d="M85.4,46.5l0.1,8.8l-2.2,0.5l-0.1-6.9c0-1.3-0.7-2.4-1.7-3l4.4-1C85.5,45.4,85.4,45.9,85.4,46.5z"
			/>
		<path style="fill:#EFEFEF;" d="M93.5,45.5l0.1,8l-1.1,0.3l-0.1-7.3c0-1.1-0.5-2-1.2-2.6l3.2-0.7C93.8,43.7,93.5,44.5,93.5,45.5z"
			/>
		<path style="fill:#EFEFEF;" d="M242.3,20.9L100.6,52l-0.1-6.6c0-1.4-0.9-2.6-2.1-3.2l141.8-31.1L242.3,20.9z"/>
	</g>
	<g>
		<polygon style="fill:#EFEFEF;" points="76.5,69.1 67.9,69.3 67.7,59.3 76.3,59.1 		"/>
		<polygon style="fill:#EFEFEF;" points="85.6,69 83.5,69 83.3,59 85.5,59 		"/>
		<polygon style="fill:#EFEFEF;" points="93.8,68.8 92.6,68.8 92.5,58.8 93.7,58.8 		"/>
		<polygon style="fill:#EFEFEF;" points="241.3,66.3 100.8,68.7 100.7,58.7 241.1,56.3 		"/>
	</g>
	<g>
		<path style="fill:#2CB79C;" d="M206.9,156.4c0,39-43,70.6-96.1,70.6s-96.1-31.6-96.1-70.6H164v32.5c0,1.9,1.6,3.5,3.5,3.5
			s3.5-1.6,3.5-3.5v-32.5h1.2v25.8c0,1.9,1.6,3.5,3.5,3.5s3.5-1.6,3.5-3.5v-25.8H206.9z"/>
		
			<line style="fill:none;stroke:#2CB79C;stroke-width:9;stroke-linecap:round;stroke-linejoin:round;stroke-miterlimit:10;" x1="74.6" y1="227" x2="147.1" y2="227"/>
	</g>
	<g style="opacity:0.1;">
		<path d="M93.1,126.1c-2.5,0.7-4.8,1.6-7,2.8L85.6,69l-0.1-10v-3.7l-0.1-8.8c0-0.5,0.1-1,0.3-1.5c0.5-1.2,1.8-2,3.2-2l0,0
			c0.9,0,1.7,0.3,2.3,0.8c0.7,0.6,1.2,1.6,1.2,2.6l0.1,7.3v5.1l0.1,10L93.1,126.1z"/>
	</g>
	<g style="opacity:0.1;">
		<path d="M84.1,93.5c0,1.9-1.5,3.5-3.4,3.6h-0.1c-1.9,0-3.5-1.5-3.5-3.4l-0.5-24.6l-0.2-10v-1.8L76.1,49c0-0.8,0.2-1.5,0.6-2.1
			c0.6-0.9,1.6-1.5,2.8-1.5c0.7,0,1.3,0.2,1.8,0.5c1,0.6,1.7,1.7,1.7,3l0.1,6.9l0.1,3.2l0.2,10L84.1,93.5z"/>
	</g>
	<g style="opacity:0.1;">
		<path d="M101.5,114.5c0,1.9-1.5,3.5-3.5,3.5l0,0c-1.9,0-3.5-1.5-3.5-3.5l-0.7-45.8l-0.1-10l-0.1-5.3l-0.1-8c0-0.9,0.3-1.8,0.9-2.4
			l4-0.9c1.2,0.5,2.1,1.8,2.1,3.2l0.1,6.6l0.1,6.8l0.1,10L101.5,114.5z"/>
		<path d="M98.4,42.2l-4,0.9c0.6-0.7,1.5-1.1,2.5-1.2C97.4,41.9,97.9,42,98.4,42.2z"/>
	</g>
	<g style="opacity:0.1;">
		<path d="M192.7,156.4h-7c0-8.5-6.8-15.4-15.3-15.4c-8.4,0-15.2,6.9-15.2,15.4h-7c0-12.4,10-22.4,22.2-22.4
			C182.8,134,192.7,144,192.7,156.4z"/>
	</g>
	<g style="opacity:0.1;">
		<path d="M128,151.9c-1.8,0.8-3.8,0-4.6-1.7c-0.3-0.7-7.2-14.8-27.4-11.9c-4.1,0.6-8.8,5.2-11,10.9c-1,2.6-1.4,5.1-1.1,7.2h-7
			c-0.2-3,0.3-6.3,1.6-9.7c2.6-6.8,8.7-14.2,16.5-15.3c25.5-3.7,34.6,15.7,34.7,15.9C130.5,149,129.8,151.1,128,151.9z"/>
		<path d="M121.5,156.4h-8.2c-2.6-2.1-8.3-4.7-16-5.1c-1.9-0.1-3.4-1.7-3.4-3.6c0.1-1.9,1.7-3.4,3.6-3.4
			C108.1,144.8,119.6,149.4,121.5,156.4z"/>
	</g>
</g>
</svg>
