<?xml version="1.0" encoding="utf-8"?>
<!-- Generator: Adobe Illustrator 22.1.0, SVG Export Plug-In . SVG Version: 6.00 Build 0)  -->
<svg version="1.1" id="Layer_1" xmlns="http://www.w3.org/2000/svg" xmlns:xlink="http://www.w3.org/1999/xlink" x="0px" y="0px"
	 viewBox="0 0 256 256" style="enable-background:new 0 0 256 256;" xml:space="preserve">
<g>
	<path style="fill:#BFEFEC;" d="M128,6C60.6,6,6,60.6,6,128s54.6,122,122,122s122-54.6,122-122S195.4,6,128,6z M187.5,94.6
		c0.9,0.9,1.8,1.9,2.7,2.9c0.9,1,1.7,2,2.5,3.1c-0.8-1-1.6-2.1-2.5-3.1C189.3,96.5,188.4,95.5,187.5,94.6
		c-4.2-4.2-9.1-7.7-14.4-10.3C178.5,86.9,183.3,90.5,187.5,94.6z M178.3,181.3c1.5-1,3-2,4.4-3.1
		C181.3,179.3,179.8,180.4,178.3,181.3z"/>
</g>
<g style="opacity:0;">
	<path style="opacity:0.1;" d="M128,37c-50.3,0-91,40.7-91,91s40.7,91,91,91s91-40.7,91-91S178.3,37,128,37z M148.3,190.1
		c-3.1,0-6.1-0.3-9.1-0.7c-6.4,7.1-15.7,11.6-26.1,11.6c-19.4,0-35.2-15.7-35.2-35.2c0-11.7,5.7-22.1,14.6-28.5c0-1-0.1-2-0.1-3
		c0-13.3,4.6-25.4,12.3-35v-0.2c0-19.4,15.7-35.2,35.1-35.2c13.8,0,25.7,8,31.5,19.5c19.3,8.8,32.7,28.2,32.7,50.8
		C204.1,165.1,179.1,190.1,148.3,190.1z"/>
	<path style="fill:#F7F7F7;" d="M204.1,134.3c0,30.8-25,55.8-55.8,55.8c-3.1,0-6.1-0.3-9.1-0.7c-6.4,7.1-15.7,11.6-26.1,11.6
		c-19.4,0-35.2-15.7-35.2-35.2c0-11.7,5.7-22.1,14.6-28.5c0-1-0.1-2-0.1-3c0-13.3,4.6-25.4,12.3-35v-0.2c0-19.4,15.7-35.2,35.1-35.2
		c13.8,0,25.7,8,31.5,19.5C190.7,92.3,204.1,111.8,204.1,134.3z"/>
	<circle style="fill:#F4A63D;" cx="159.8" cy="134.3" r="21.7"/>
	<circle style="fill:#FFB03E;" cx="162" cy="132.1" r="18.8"/>
</g>
</svg>
