<?xml version="1.0" encoding="utf-8"?>
<!-- Generator: Adobe Illustrator 22.1.0, SVG Export Plug-In . SVG Version: 6.00 Build 0)  -->
<svg version="1.1" id="Layer_1" xmlns="http://www.w3.org/2000/svg" xmlns:xlink="http://www.w3.org/1999/xlink" x="0px" y="0px"
	 viewBox="0 0 256 256" style="enable-background:new 0 0 256 256;" xml:space="preserve">
<g style="opacity:0;">
	<path style="fill:#C64512;" d="M78.9,139.5c-12.5,21.6-38.9,38.3-54.6,29.3s-14.5-40.3-2.1-61.9C27.5,97.7,34,91.7,41,88.5
		c3-1.3,4.9-4.3,4.8-7.6c-0.2-5.8,1.4-12.3,5.3-19.1c10.4-18.1,33-31.7,46.7-23.8s13.2,34.3,2.8,52.4c-3.4,6-7.5,10.3-12,13.1
		c-2.8,1.8-4.3,5-3.7,8.2C86.5,119.8,84.8,129.3,78.9,139.5z"/>
	<path style="fill:#C64512;" d="M154.2,173.7c-23,3.5-50.8-8.6-53.3-25.3s20.6-31.3,43.6-34.8c9.8-1.5,20-2.3,26.4,0.9
		c2.7,1.4,6,1.1,8.3-0.9c4.1-3.5,11.9-5,19.1-6.1c19.2-2.9,40.4,3.1,42.6,17.6c2.2,14.6-17.1,32.3-36.3,35.2
		c-6.3,1-12.3-0.8-16.9-2.4c-2.9-1-6.1-0.2-8.1,2.1C174.5,165.9,165.1,172,154.2,173.7z"/>
</g>
<g>
	<path style="opacity:0.1;enable-background:new    ;" d="M153.9,162.4c-22.7,3.4-49.4-3.3-51.4-16.3s21.6-27.3,44.3-30.8
		c9.7-1.5,17.7-0.7,23.8,1.7c2.6,1,5.8,0.6,8.2-1c4.2-2.9,9.8-5.1,16.9-6.2c19-2.9,41.4,3.2,43.1,14.5c1.7,11.4-17.9,23.7-36.9,26.6
		c-6.3,0.9-11.7,0.7-16.2-0.4c-2.8-0.7-6,0-8,1.9C172.5,157.2,164.6,160.8,153.9,162.4z"/>
	<path style="fill:#DB6A42;" d="M204.8,148c-16.4,3-26.9-4.1-28.9-14.8s5.3-21.2,21.7-24.2s35.6,2.4,37.6,13.2
		S221.2,144.9,204.8,148z"/>
	<path style="fill:#DB6A42;" d="M151.6,159.9c20-3.7,29.1-15.4,26.9-27.3c-2.2-11.9-14.9-19.6-34.9-15.9S104,134,106.2,145.9
		C108.4,157.9,131.7,163.6,151.6,159.9z"/>
	
		<path style="opacity:0.5;fill:none;stroke:#FFFFFF;stroke-width:4;stroke-linecap:round;stroke-linejoin:round;stroke-miterlimit:10;enable-background:new    ;" d="
		M207.3,112.7c0,0,12.6-1.2,19.4,5.4"/>
	
		<path style="opacity:0.5;fill:none;stroke:#FFFFFF;stroke-width:4;stroke-linecap:round;stroke-linejoin:round;stroke-miterlimit:10;enable-background:new    ;" d="
		M136.6,121.4c0,0,19.1-4.3,30.5,3.4"/>
	<path style="opacity:0.1;enable-background:new    ;" d="M99.8,57.1c-0.1-0.8-0.9-1.4-1.7-1.3c-0.8,0.1-1.4,0.9-1.3,1.7
		c0,0.2,2.9,24.2-8.8,34.3c-11.8,10.1-12.2,13.9-12.1,20.2c0,1.9,0.1,4-0.4,6.8c-1.1,6.3-3.7,12.5-7.5,18c-4.3-0.1-8.3-0.8-11.8-1.7
		c9.6-14.2,11-31,11.1-32c0.1-0.8-0.5-1.5-1.4-1.6c-0.8-0.1-1.5,0.6-1.6,1.4c0,0.2-1.5,17.4-11.2,31.3c-7.7-2.5-12.5-5.8-12.6-5.8
		c-0.7-0.5-1.6-0.3-2.1,0.4s-0.3,1.6,0.4,2.1c0.3,0.2,4.9,3.4,12.4,5.9c-1.5,1.9-3.2,3.7-5,5.3c-12.4-4.2-19.7-10.8-19.8-10.9
		c-0.6-0.6-1.6-0.5-2.1,0.1c-0.6,0.6-0.5,1.6,0.1,2.1c0.4,0.4,7.3,6.6,19,10.9c-0.5,0.3-0.9,0.7-1.4,1c-0.7,0.5-0.9,1.4-0.4,2.1
		c0.3,0.4,0.8,0.7,1.3,0.7c0.3,0,0.6-0.1,0.8-0.3c1.1-0.7,2.2-1.5,3.2-2.3c3.4,1.1,7.2,1.9,11.3,2.4c-5.7,4.9-12.4,8.5-19.5,10.3
		c-0.8,0.2-1.3,1-1.1,1.8c0.2,0.7,0.8,1.1,1.5,1.1c0.1,0,0.2,0,0.4,0c8.3-2,16.2-6.6,22.8-12.8c1.2,0.1,2.4,0.1,3.7,0.2l0,0
		c0.8,0,1.5-0.7,1.5-1.5s-0.6-1.5-1.5-1.5c-0.3,0-0.5,0-0.8,0c1.6-1.8,3.2-3.6,4.6-5.6h0.1c0.7,0,1.3,0,2,0c0.8,0,1.5-0.7,1.5-1.5
		s-0.7-1.5-1.6-1.5l0,0c3.4-5.5,5.8-11.4,6.9-17.5c0.5-3,0.5-5.3,0.4-7.3c-0.1-5.1-0.2-8.2,11.1-17.9C103,83,100,58.2,99.8,57.1z
		 M61,145.3c-4.2-0.4-8-1.1-11.6-2.1c1.8-1.7,3.4-3.5,4.8-5.4c3.4,1,7.4,1.7,11.6,2C64.4,141.7,62.8,143.5,61,145.3z"/>
</g>
</svg>
