<?xml version="1.0" encoding="utf-8"?>
<!-- Generator: Adobe Illustrator 22.1.0, SVG Export Plug-In . SVG Version: 6.00 Build 0)  -->
<svg version="1.1" id="Layer_1" xmlns="http://www.w3.org/2000/svg" xmlns:xlink="http://www.w3.org/1999/xlink" x="0px" y="0px"
	 viewBox="0 0 256 256" style="enable-background:new 0 0 256 256;" xml:space="preserve">
<g style="opacity:0;">
	<rect x="20" y="120.8" style="fill:#ED2F2F;" width="221.5" height="38.4"/>
	<path style="fill:#ED2F2F;" d="M192.5,80.9h-159l57.4-44.1c1-0.8,1.8-1.8,2.4-2.8L172,58.9c-1.6,1.9-2.6,4.4-2.6,7.1
		c0,6.1,4.9,11,11,11c1.4,0,2.7-0.3,4-0.8C185.9,79,189,80.9,192.5,80.9z"/>
	<path style="fill:#ED2F2F;" d="M241.5,80.9h-49c5.2,0,9.4-4.2,9.4-9.4c0-0.3,0-0.7,0-1l0,0c0.6-0.5,1.2-1,1.7-1.6L241.5,80.9z"/>
	<path style="fill:#ED2F2F;" d="M201.9,71.4c0,5.2-4.2,9.4-9.4,9.4c-3.5,0-6.6-1.9-8.2-4.8c-0.8-1.4-1.3-3-1.3-4.7
		c0-3.2,1.6-6,4-7.7v-0.1h0.2l4.1,1.3l10.1,3.2c0.3,0.7,0.4,1.5,0.5,2.3l0,0C201.9,70.8,201.9,71.1,201.9,71.4z"/>
	<g>
		<path style="fill:#ED2F2F;" d="M93.3,33.9c-0.6,1.1-1.4,2-2.4,2.8L33.5,80.9l-3.7,2.8c-1.6,1.3-3.6,1.9-5.5,1.9
			c-2.7,0-5.4-1.2-7.1-3.5c-3-3.9-2.3-9.6,1.7-12.6l61-47c3.9-3,9.6-2.3,12.6,1.7C94.7,27,94.9,30.9,93.3,33.9z"/>
	</g>
	<path style="fill:#ED2F2F;" d="M205.8,62.7c0,2.3-0.9,4.5-2.3,6.1c-0.5,0.6-1.1,1.1-1.7,1.6c-0.1-0.8-0.3-1.5-0.5-2.3
		c-1.3-3.6-4.8-6.2-8.9-6.2c-0.6,0-1.3,0.1-1.9,0.2c-0.5-1.5-1.4-2.8-2.5-4c1.6-2.9,4.7-4.9,8.3-4.9
		C201.6,53.3,205.8,57.5,205.8,62.7z"/>
	<path style="fill:#ED2F2F;" d="M201.9,70.4L201.9,70.4c-1.5,1.1-3.4,1.8-5.5,1.8c-2.3,0-4.3-0.8-5.9-2.1c-1.9-1.5-3.2-3.8-3.5-6.3
		v-0.1h0.2c1-0.7,2.2-1.2,3.5-1.5c0.6-0.1,1.2-0.2,1.9-0.2c4.1,0,7.5,2.6,8.9,6.2C201.6,68.9,201.8,69.6,201.9,70.4z"/>
	<path style="fill:#ED2F2F;" d="M187.1,63.6h-0.2v0.1c-2.4,1.7-4,4.5-4,7.7c0,1.7,0.4,3.3,1.3,4.7c-1.2,0.5-2.6,0.8-4,0.8
		c-6.1,0-11-4.9-11-11c0-2.7,1-5.1,2.6-7.1c2-2.4,5-3.9,8.4-3.9c3,0,5.8,1.3,7.8,3.3c1.1,1.1,2,2.5,2.5,4
		C189.3,62.4,188.2,62.9,187.1,63.6z"/>
	<path style="fill:#ED2F2F;" d="M191.3,65.9c0,1.5-0.3,2.9-0.8,4.2c-1.1,2.8-3.4,5-6.2,6c-0.8-1.4-1.3-3-1.3-4.7c0-3.2,1.6-6,4-7.7
		v-0.1h0.2c1-0.7,2.2-1.2,3.5-1.5c0.3,0.9,0.5,1.8,0.6,2.8C191.3,65.3,191.3,65.6,191.3,65.9z"/>
	<path style="fill:#ED2F2F;" d="M201.9,71.4c0,5.2-4.2,9.4-9.4,9.4c-3.5,0-6.6-1.9-8.2-4.8c-0.8-1.4-1.3-3-1.3-4.7
		c0-3.2,1.6-6,4-7.7l0.1-0.1c1-0.7,2.2-1.2,3.5-1.5c0.6-0.1,1.2-0.2,1.9-0.2c4.1,0,7.5,2.6,8.9,6.2c0.3,0.7,0.4,1.5,0.5,2.3l0,0
		C201.9,70.8,201.9,71.1,201.9,71.4z"/>
</g>
<g>
	<path style="fill:#FFE966;" d="M241.5,80.9v39.9H20V84.5c1.3,0.7,2.8,1.1,4.3,1.1c1.9,0,3.8-0.6,5.5-1.9l3.7-2.8
		C33.5,80.9,241.5,80.9,241.5,80.9z"/>
	<rect x="20" y="159.1" style="fill:#FFE966;" width="221.5" height="39.9"/>
	<g style="opacity:0.1;">
		<path d="M93.3,33.9c-0.6,1.1-1.4,2-2.4,2.8L33.5,80.9l-3.7,2.8c-1.6,1.3-3.6,1.9-5.5,1.9c-1.5,0-3-0.4-4.3-1.1
			c-1.1-0.6-2-1.4-2.8-2.4c-3-3.9-2.3-9.6,1.7-12.6l61-47c3.9-3,9.6-2.3,12.6,1.7C94.7,27,94.9,30.9,93.3,33.9z"/>
	</g>
	<path style="opacity:0.1;enable-background:new    ;" d="M205.8,62.7c0,2.3-0.9,4.5-2.3,6.1c-0.5,0.6-1.1,1.1-1.7,1.6
		c-0.1-0.8-0.3-1.5-0.5-2.3c-1.3-3.6-4.8-6.2-8.9-6.2c-0.6,0-1.3,0.1-1.9,0.2c-0.5-1.5-1.4-2.8-2.5-4c1.6-2.9,4.7-4.9,8.3-4.9
		C201.6,53.3,205.8,57.5,205.8,62.7z"/>
	<path style="opacity:5.000000e-02;enable-background:new    ;" d="M187.1,63.6h-0.2v0.1c-2.4,1.7-4,4.5-4,7.7
		c0,1.7,0.4,3.3,1.3,4.7c-1.2,0.5-2.6,0.8-4,0.8c-6.1,0-11-4.9-11-11c0-2.7,1-5.1,2.6-7.1c2-2.4,5-3.9,8.4-3.9c3,0,5.8,1.3,7.8,3.3
		c1.1,1.1,2,2.5,2.5,4C189.3,62.4,188.2,62.9,187.1,63.6z"/>
	<path style="opacity:0.1;fill:#FFFFFF;enable-background:new    ;" d="M201.9,71.4c0,5.2-4.2,9.4-9.4,9.4c-3.5,0-6.6-1.9-8.2-4.8
		c-0.8-1.4-1.3-3-1.3-4.7c0-3.2,1.6-6,4-7.7l0.1-0.1c1-0.7,2.2-1.2,3.5-1.5c0.6-0.1,1.2-0.2,1.9-0.2c4.1,0,7.5,2.6,8.9,6.2
		c0.3,0.7,0.4,1.5,0.5,2.3l0,0C201.9,70.8,201.9,71.1,201.9,71.4z"/>
</g>
</svg>
