<?xml version="1.0" encoding="utf-8"?>
<!-- Generator: Adobe Illustrator 22.1.0, SVG Export Plug-In . SVG Version: 6.00 Build 0)  -->
<svg version="1.1" id="Layer_1" xmlns="http://www.w3.org/2000/svg" xmlns:xlink="http://www.w3.org/1999/xlink" x="0px" y="0px"
	 viewBox="0 0 256 256" style="enable-background:new 0 0 256 256;" xml:space="preserve">
<g>
	<path style="fill:#FFC73B;" d="M196.6,150.2L143,171.4l-29.5,11.7L37,213.5l47.8-112.1L95.6,76l7.7-18.1
		c9.2,5.3,35.8,21.2,53.7,39.1C173.6,113.6,189.7,138.9,196.6,150.2z"/>
	<path style="fill:#FFC73B;" d="M208,145.6l-11.4,4.5c-6.8-11.3-22.9-36.5-39.6-53.2c-17.9-17.9-44.5-33.8-53.7-39.1l3.8-9
		c0,0,0,0,0.1,0c0.3,0.2,35.5,17.7,57.2,38c26.9,25.2,41.9,56.1,42,56.4C206.8,144.1,207.4,144.9,208,145.6z"/>
</g>
<g style="opacity:0;">
	<path style="opacity:5.000000e-02;enable-background:new    ;" d="M208,145.6l-11.4,4.5c-6.8-11.3-22.9-36.5-39.6-53.2
		c-17.9-17.9-44.5-33.8-53.7-39.1l3.8-9c0,0,0,0,0.1,0c0.3,0.2,35.5,17.7,57.2,38c26.9,25.2,41.9,56.1,42,56.4
		C206.8,144.1,207.4,144.9,208,145.6z"/>
	<g>
		<path style="fill:#F78A2F;" d="M221.8,148.7c-1.6,0.8-3.3,1.1-4.9,1.1c-3.4,0-6.7-1.5-8.9-4.2c-0.6-0.7-1.1-1.5-1.5-2.4
			c-0.1-0.3-15.1-31.2-42-56.4c-21.7-20.3-56.9-37.8-57.2-38c0,0,0,0-0.1,0c-5.7-2.8-8-9.7-5.2-15.4s9.7-8,15.4-5.2
			C119,29,156,47.4,180.1,70c30.2,28.3,46.4,61.9,47.1,63.3C229.9,139.1,227.5,146,221.8,148.7z"/>
	</g>
	<circle style="opacity:5.000000e-02;enable-background:new    ;" cx="162" cy="131" r="13"/>
	<path style="opacity:5.000000e-02;enable-background:new    ;" d="M120,93.5c0,10.2-8.3,18.5-18.5,18.5c-7.4,0-13.8-4.3-16.7-10.6
		L95.6,76c1.9-0.6,3.8-1,5.9-1C111.7,75,120,83.3,120,93.5z"/>
	<circle style="opacity:5.000000e-02;enable-background:new    ;" cx="67.5" cy="180.5" r="12.5"/>
	<path style="opacity:5.000000e-02;enable-background:new    ;" d="M143,170.5c0,0.3,0,0.6,0,0.9l-29.5,11.7
		c-3.3-3.2-5.4-7.7-5.4-12.7c0-9.7,7.8-17.5,17.5-17.5S143,160.8,143,170.5z"/>
</g>
</svg>
