<?xml version="1.0" encoding="utf-8"?>
<!-- Generator: Adobe Illustrator 22.1.0, SVG Export Plug-In . SVG Version: 6.00 Build 0)  -->
<svg version="1.1" id="Layer_1" xmlns="http://www.w3.org/2000/svg" xmlns:xlink="http://www.w3.org/1999/xlink" x="0px" y="0px"
	 viewBox="0 0 256 256" style="enable-background:new 0 0 256 256;" xml:space="preserve">
<g>
	<path style="fill:#FFDA71;" d="M199.7,53.7c1.4,1.6,2.3,3.7,2.3,6c0,5-4,9-9,9s-9-4-9-9c0-0.1,0-0.2,0-0.3
		c-0.8,0.2-1.6,0.4-2.5,0.4c-0.4,0-0.8,0-1.1-0.1c-0.1,0.1-0.2,0.3-0.3,0.4V60c0-0.6-0.1-1.2-0.4-1.7c1.9-0.8,3.3-2.7,3.3-4.9
		c0-2.9-2.4-5.3-5.3-5.3c-1.6,0-3.1,0.7-4,1.9c-0.6-0.3-1.3-0.4-2-0.4c-0.4,0-0.7,0-1.1,0.1c-0.9-1.9-2.4-3.4-4.3-4.2
		c2.5-1.6,4.2-4.4,4.2-7.7s-1.7-6.2-4.4-7.8c0.6-2.3,2.7-4,5.3-4c2,0,3.8,1.1,4.8,2.8c1.2-0.7,2.5-1,3.9-1c4.4,0,7.9,3.5,7.9,7.9
		c0,0.6-0.1,1.3-0.2,1.8c1.7,0.2,3.2,1.3,4,2.8c1.1-0.7,2.5-1,3.9-1c4.4,0,7.9,3.5,7.9,7.9C203.4,49.9,201.9,52.3,199.7,53.7z"/>
	<path style="fill:#FFDA71;" d="M171.5,59.9c0-0.5,0.1-0.9,0.2-1.4c-0.1,0-0.1,0-0.2,0c-0.5,0-1-0.1-1.5-0.2
		c-1.3,2.1-3.4,3.7-5.9,4.2c-0.9,2.5-3.4,4.4-6.2,4.4s-5.2-1.7-6.1-4.2c-4.3,0-7.8-3.5-7.8-7.9c0-4,3-7.3,6.9-7.8
		c0-0.1-0.1-0.1-0.1-0.2c-4.3,0-7.8-3.5-7.8-7.9c0-4.3,3.5-7.9,7.9-7.9c1.2,0,2.4,0.3,3.4,0.8c1.7-2,4.2-3.3,7-3.3c1,0,2,0.2,3,0.5
		c-1-3.2-4-5.6-7.5-5.6c-1.4,0-2.8,0.4-3.9,1c-0.9-1.7-2.7-2.8-4.8-2.8c-2.5,0-4.7,1.7-5.3,4.1h-0.2c-0.3,0-0.7,0-1,0.1
		c0.3-0.8,0.4-1.7,0.4-2.6c0-4.3-3.5-7.9-7.8-7.9c-1-2.4-3.4-4.1-6.1-4.1c-2.9,0-5.3,1.8-6.2,4.3c-1.2,0.3-2.4,0.8-3.3,1.5
		c2.1,1.4,3.5,3.8,3.5,6.6c0,4.4-3.5,7.9-7.9,7.9c-1.2,0-2.4-0.3-3.4-0.8c-1.7,2-4.2,3.3-7,3.3c-5,0-9.1-4.1-9.1-9.1
		c0-2.9,1.3-5.5,3.4-7.1c-0.9-0.3-1.8-0.5-2.8-0.5c-1.4,0-2.8,0.4-3.9,1c-0.9-1.7-2.7-2.8-4.8-2.8c-2.5,0-4.7,1.8-5.3,4.1h-0.2
		c-5,0-9.1,4.1-9.1,9.1c0,1.8,0.5,3.5,1.5,4.9h-0.1c-1.4,0-2.7,0.4-3.9,1c-0.9-1.7-2.7-2.8-4.8-2.8c-2.5,0-4.7,1.7-5.3,4.1h-0.2
		c-5,0-9.1,4.1-9.1,9.1s4,9,8.9,9.1c2.4,13,29.2,23.3,61.8,23.3c23.8,0,44.5-5.5,54.9-13.5C173.3,64.1,171.5,62.3,171.5,59.9z
		 M66.8,48.9c-0.5,1.3-1.8,2.3-3.3,2.3c-1.6,0-2.9-1-3.4-2.4c-2.2-0.5-3.9-2.5-3.9-4.9c0-2.7,2.2-5,5-5c1.5,0,2.9,0.7,3.8,1.8
		c0.5-0.3,1.2-0.4,1.8-0.4c2.4,0,4.3,1.9,4.3,4.3C71.1,47,69.2,48.9,66.8,48.9z M94.8,57.3c0.3,0.8,0.5,1.6,0.5,2.4
		c0,3.7-3,6.6-6.6,6.6c-3,0-5.5-1.9-6.3-4.6c-0.9,0.3-1.8,0.4-2.8,0.4c-5,0-9.1-4.1-9.1-9.1c0-4.4,3.1-8.1,7.3-8.9
		c0-0.1,0-0.1,0-0.2c0-4,3.3-7.3,7.3-7.3c3.3,0,6.1,2.2,7,5.2c0.5-0.1,1.1-0.2,1.7-0.2c4.3,0,7.9,3.5,7.9,7.9
		C101.5,53.5,98.6,56.8,94.8,57.3z M129,62.9c-1.2,0-2.4-0.3-3.4-0.8c-1.7,2-4.2,3.3-7,3.3c-5,0-9.1-4.1-9.1-9.1
		c0-3.8,2.3-7.1,5.7-8.5c-0.4-0.9-0.6-1.9-0.6-3c0-4,3.3-7.3,7.3-7.3s7.3,3.3,7.3,7.3c0,0.8-0.1,1.6-0.4,2.3c0.1,0,0.2,0,0.3,0
		c4.4,0,7.9,3.5,7.9,7.9C136.9,59.4,133.4,62.9,129,62.9z M137.8,37.8c-0.7,0-1.3-0.1-1.8-0.4c-0.9,1.1-2.3,1.8-3.8,1.8
		c-2.7,0-5-2.2-5-5c0-2.4,1.7-4.4,3.9-4.9c0.5-1.4,1.8-2.4,3.4-2.4c1.5,0,2.8,0.9,3.3,2.3c2.4,0,4.3,1.9,4.3,4.3
		C142.1,35.9,140.2,37.8,137.8,37.8z"/>
	<path style="fill:#FFDA71;" d="M71.1,44.6c0,2.4-1.9,4.3-4.3,4.3c-0.5,1.3-1.8,2.3-3.3,2.3c-1.6,0-2.9-1-3.4-2.4
		c-2.2-0.5-3.9-2.5-3.9-4.9c0-2.7,2.2-5,5-5c1.5,0,2.9,0.7,3.8,1.8c0.5-0.3,1.2-0.4,1.8-0.4C69.2,40.4,71.1,42.3,71.1,44.6z"/>
	<path style="fill:#FFDA71;" d="M142.1,33.5c0,2.4-1.9,4.3-4.3,4.3c-0.7,0-1.3-0.1-1.8-0.4c-0.9,1.1-2.3,1.8-3.8,1.8
		c-2.7,0-5-2.2-5-5c0-2.4,1.7-4.4,3.9-4.9c0.5-1.4,1.8-2.4,3.4-2.4c1.5,0,2.8,0.9,3.3,2.3C140.2,29.3,142.1,31.2,142.1,33.5z"/>
	<path style="fill:#FFDA71;" d="M122,23.7c0,4.4-3.5,7.9-7.9,7.9c-1.2,0-2.4-0.3-3.4-0.8c-1.7,2-4.2,3.3-7,3.3c-5,0-9.1-4.1-9.1-9.1
		c0-2.9,1.3-5.5,3.4-7.1c1.1-0.9,2.3-1.5,3.8-1.8c0.9-2.5,3.4-4.3,6.2-4.3c2.8,0,5.2,1.7,6.2,4.1c1.6,0,3.1,0.5,4.3,1.3
		C120.5,18.5,122,21,122,23.7z"/>
	<path style="fill:#FFDA71;" d="M113.2,23.9c0,1.7-1.3,3-3,3c-0.5,0-0.9-0.1-1.3-0.3c-0.6,0.8-1.6,1.2-2.7,1.2
		c-1.9,0-3.5-1.5-3.5-3.5c0-1.5,0.9-2.7,2.2-3.2c-0.2-0.3-0.3-0.7-0.3-1.1c0-1.5,1.2-2.8,2.8-2.8c1.5,0,2.8,1.2,2.8,2.8
		c0,0.3,0,0.6-0.1,0.9h0.1C111.8,20.9,113.2,22.3,113.2,23.9z"/>
	<path style="fill:#FFDA71;" d="M89.4,214.4c-1.2-3.1-4.3-5.2-7.8-5.2c-3.6,0-6.7,2.3-7.9,5.5c-5.2,1.1-9.1,5.7-9.1,11.3
		c0,6.4,5.2,11.5,11.5,11.5c3.5,0,6.7-1.6,8.8-4.1c1.3,0.6,2.8,1,4.3,1c5.5,0,9.9-4.5,9.9-10C99.2,218.9,94.8,214.5,89.4,214.4z
		 M87.7,226.4c-0.6,1.2-1.9,2-3.3,2c-0.6,0-1.1-0.1-1.6-0.4c-0.5,0.6-1.3,1.1-2.1,1.4c-0.4,0.1-0.8,0.2-1.3,0.2
		c-2.4,0-4.4-2-4.4-4.4c0-0.7,0.2-1.3,0.4-1.9c0.5-1,1.3-1.7,2.3-2.1c-0.2-0.4-0.3-0.9-0.3-1.4c0-1.9,1.6-3.5,3.5-3.5
		c0.7,0,1.4,0.2,1.9,0.6c1,0.6,1.6,1.7,1.6,2.9c0,0.4-0.1,0.8-0.2,1.1h0.1c1,0,1.9,0.4,2.5,1c0.4,0.4,0.7,0.8,0.9,1.3
		c0.2,0.5,0.3,1,0.3,1.5C88.2,225.3,88,225.9,87.7,226.4z"/>
	<path style="fill:#FFDA71;" d="M88.2,224.6c0,0.7-0.2,1.3-0.5,1.8c-0.6,1.2-1.9,2-3.3,2c-0.6,0-1.1-0.1-1.6-0.4
		c-0.5,0.6-1.3,1.1-2.1,1.4c-0.4,0.1-0.8,0.2-1.3,0.2c-2.4,0-4.4-2-4.4-4.4c0-0.7,0.2-1.3,0.4-1.9c0.5-1,1.3-1.7,2.3-2.1
		c-0.2-0.4-0.3-0.9-0.3-1.4c0-1.9,1.6-3.5,3.5-3.5c0.7,0,1.4,0.2,1.9,0.6c1,0.6,1.6,1.7,1.6,2.9c0,0.4-0.1,0.8-0.2,1.1h0.1
		c1,0,1.9,0.4,2.5,1c0.4,0.4,0.7,0.8,0.9,1.3C88.1,223.6,88.2,224.1,88.2,224.6z"/>
	<path style="fill:#FFDA71;" d="M179.5,58.2c0.3,0.5,0.4,1.1,0.4,1.7V60c-0.1,2.3-1.9,4.1-4.2,4.1l0,0c-2.3,0-4.2-1.9-4.2-4.2
		c0-0.5,0.1-0.9,0.2-1.4c-0.1,0-0.1,0-0.2,0c-0.5,0-1-0.1-1.5-0.2c-1.3,2.1-3.4,3.7-5.9,4.2c-0.9,2.5-3.4,4.4-6.2,4.4
		s-5.2-1.7-6.1-4.2c-4.3,0-7.8-3.5-7.8-7.9c0-4,3-7.3,6.9-7.8c0-0.1-0.1-0.1-0.1-0.2c-4.3,0-7.8-3.5-7.8-7.9c0-4.3,3.5-7.9,7.9-7.9
		c1.2,0,2.4,0.3,3.4,0.8c1.7-2,4.2-3.3,7-3.3c1,0,2,0.2,3,0.5c0.6,0.2,1.2,0.5,1.8,0.9c2.6,1.6,4.4,4.5,4.4,7.8c0,3.2-1.7,6-4.2,7.7
		c1.9,0.9,3.4,2.4,4.3,4.2c0.3-0.1,0.7-0.1,1.1-0.1c0.7,0,1.4,0.2,2,0.4c1-1.2,2.4-1.9,4-1.9c2.9,0,5.3,2.4,5.3,5.3
		C182.8,55.5,181.5,57.4,179.5,58.2z"/>
	<path style="fill:#FFDA71;" d="M160,41.5c0.2,0.4,0.2,0.7,0.2,1.1c0,1.5-1.2,2.8-2.8,2.8c-1.5,0-2.8-1.2-2.8-2.8
		c0-0.3,0.1-0.6,0.2-0.9h-0.1c-1.7,0-3-1.3-3-3c0-1.6,1.3-3,3-3c0.5,0,0.9,0.1,1.3,0.3c0.6-0.8,1.6-1.2,2.7-1.2
		c1.9,0,3.5,1.6,3.5,3.5C162.1,39.8,161.2,41,160,41.5z"/>
	<path style="fill:#FFDA71;" d="M94.8,57.3c0.3,0.8,0.5,1.6,0.5,2.4c0,3.7-3,6.6-6.6,6.6c-3,0-5.5-1.9-6.3-4.6
		c-0.9,0.3-1.8,0.4-2.8,0.4c-5,0-9.1-4.1-9.1-9.1c0-4.4,3.1-8.1,7.3-8.9c0-0.1,0-0.1,0-0.2c0-4,3.3-7.3,7.3-7.3c3.3,0,6.1,2.2,7,5.2
		c0.5-0.1,1.1-0.2,1.7-0.2c4.3,0,7.9,3.5,7.9,7.9C101.5,53.5,98.6,56.8,94.8,57.3z"/>
	<path style="fill:#FFDA71;" d="M91.3,52c0,2.4-1.9,4.3-4.3,4.3c-0.7,0-1.3-0.2-1.8-0.4c-0.9,1.1-2.3,1.8-3.8,1.8c-2.7,0-5-2.2-5-5
		c0-2.4,1.7-4.4,3.9-4.8c0.5-1.4,1.8-2.4,3.4-2.4c1.5,0,2.8,0.9,3.3,2.3C89.3,47.7,91.3,49.6,91.3,52z"/>
	<path style="fill:#FFDA71;" d="M142.1,33.5c0,2.4-1.9,4.3-4.3,4.3c-0.7,0-1.3-0.1-1.8-0.4c-0.9,1.1-2.3,1.8-3.8,1.8
		c-2.7,0-5-2.2-5-5c0-2.4,1.7-4.4,3.9-4.9c0.5-1.4,1.8-2.4,3.4-2.4c1.5,0,2.8,0.9,3.3,2.3C140.2,29.3,142.1,31.2,142.1,33.5z"/>
	<path style="fill:#FFDA71;" d="M71.1,44.6c0,2.4-1.9,4.3-4.3,4.3c-0.5,1.3-1.8,2.3-3.3,2.3c-1.6,0-2.9-1-3.4-2.4
		c-2.2-0.5-3.9-2.5-3.9-4.9c0-2.7,2.2-5,5-5c1.5,0,2.9,0.7,3.8,1.8c0.5-0.3,1.2-0.4,1.8-0.4C69.2,40.4,71.1,42.3,71.1,44.6z"/>
	<path style="fill:#FFDA71;" d="M136.9,55c0,4.4-3.5,7.9-7.9,7.9c-1.2,0-2.4-0.3-3.4-0.8c-1.7,2-4.2,3.3-7,3.3c-5,0-9.1-4.1-9.1-9.1
		c0-3.8,2.3-7.1,5.7-8.5c-0.4-0.9-0.6-1.9-0.6-3c0-4,3.3-7.3,7.3-7.3s7.3,3.3,7.3,7.3c0,0.8-0.1,1.6-0.4,2.3c0.1,0,0.2,0,0.3,0
		C133.4,47.1,136.9,50.6,136.9,55z"/>
	<path style="fill:#FFDA71;" d="M63.8,228.4c0,4.4-3.1,8-7.2,8.9c-0.9,2.5-3.4,4.4-6.2,4.4s-5.2-1.7-6.2-4.2c-4.3,0-7.8-3.5-7.8-7.9
		s3.5-7.9,7.9-7.9c1.2,0,2.4,0.3,3.4,0.8c1.7-2,4.2-3.3,7-3.3C59.7,219.3,63.8,223.4,63.8,228.4z"/>
</g>
<g style="opacity:0;">
	<path style="opacity:5.000000e-02;enable-background:new    ;" d="M199.7,53.7c1.4,1.6,2.3,3.7,2.3,6c0,5-4,9-9,9s-9-4-9-9
		c0-0.1,0-0.2,0-0.3c-0.8,0.2-1.6,0.4-2.5,0.4c-0.4,0-0.8,0-1.1-0.1c-0.1,0.1-0.2,0.3-0.3,0.4V60c0-0.6-0.1-1.2-0.4-1.7
		c1.9-0.8,3.3-2.7,3.3-4.9c0-2.9-2.4-5.3-5.3-5.3c-1.6,0-3.1,0.7-4,1.9c-0.6-0.3-1.3-0.4-2-0.4c-0.4,0-0.7,0-1.1,0.1
		c-0.9-1.9-2.4-3.4-4.3-4.2c2.5-1.6,4.2-4.4,4.2-7.7s-1.7-6.2-4.4-7.8c0.6-2.3,2.7-4,5.3-4c2,0,3.8,1.1,4.8,2.8c1.2-0.7,2.5-1,3.9-1
		c4.4,0,7.9,3.5,7.9,7.9c0,0.6-0.1,1.3-0.2,1.8c1.7,0.2,3.2,1.3,4,2.8c1.1-0.7,2.5-1,3.9-1c4.4,0,7.9,3.5,7.9,7.9
		C203.4,49.9,201.9,52.3,199.7,53.7z"/>
	<path style="opacity:5.000000e-02;enable-background:new    ;" d="M171.5,59.9c0-0.5,0.1-0.9,0.2-1.4c-0.1,0-0.1,0-0.2,0
		c-0.5,0-1-0.1-1.5-0.2c-1.3,2.1-3.4,3.7-5.9,4.2c-0.9,2.5-3.4,4.4-6.2,4.4s-5.2-1.7-6.1-4.2c-4.3,0-7.8-3.5-7.8-7.9
		c0-4,3-7.3,6.9-7.8c0-0.1-0.1-0.1-0.1-0.2c-4.3,0-7.8-3.5-7.8-7.9c0-4.3,3.5-7.9,7.9-7.9c1.2,0,2.4,0.3,3.4,0.8
		c1.7-2,4.2-3.3,7-3.3c1,0,2,0.2,3,0.5c-1-3.2-4-5.6-7.5-5.6c-1.4,0-2.8,0.4-3.9,1c-0.9-1.7-2.7-2.8-4.8-2.8c-2.5,0-4.7,1.7-5.3,4.1
		h-0.2c-0.3,0-0.7,0-1,0.1c0.3-0.8,0.4-1.7,0.4-2.6c0-4.3-3.5-7.9-7.8-7.9c-1-2.4-3.4-4.1-6.1-4.1c-2.9,0-5.3,1.8-6.2,4.3
		c-1.2,0.3-2.4,0.8-3.3,1.5c2.1,1.4,3.5,3.8,3.5,6.6c0,4.4-3.5,7.9-7.9,7.9c-1.2,0-2.4-0.3-3.4-0.8c-1.7,2-4.2,3.3-7,3.3
		c-5,0-9.1-4.1-9.1-9.1c0-2.9,1.3-5.5,3.4-7.1c-0.9-0.3-1.8-0.5-2.8-0.5c-1.4,0-2.8,0.4-3.9,1c-0.9-1.7-2.7-2.8-4.8-2.8
		c-2.5,0-4.7,1.8-5.3,4.1h-0.2c-5,0-9.1,4.1-9.1,9.1c0,1.8,0.5,3.5,1.5,4.9h-0.1c-1.4,0-2.7,0.4-3.9,1c-0.9-1.7-2.7-2.8-4.8-2.8
		c-2.5,0-4.7,1.7-5.3,4.1h-0.2c-5,0-9.1,4.1-9.1,9.1s4,9,8.9,9.1c2.4,13,29.2,23.3,61.8,23.3c23.8,0,44.5-5.5,54.9-13.5
		C173.3,64.1,171.5,62.3,171.5,59.9z M66.8,48.9c-0.5,1.3-1.8,2.3-3.3,2.3c-1.6,0-2.9-1-3.4-2.4c-2.2-0.5-3.9-2.5-3.9-4.9
		c0-2.7,2.2-5,5-5c1.5,0,2.9,0.7,3.8,1.8c0.5-0.3,1.2-0.4,1.8-0.4c2.4,0,4.3,1.9,4.3,4.3C71.1,47,69.2,48.9,66.8,48.9z M94.8,57.3
		c0.3,0.8,0.5,1.6,0.5,2.4c0,3.7-3,6.6-6.6,6.6c-3,0-5.5-1.9-6.3-4.6c-0.9,0.3-1.8,0.4-2.8,0.4c-5,0-9.1-4.1-9.1-9.1
		c0-4.4,3.1-8.1,7.3-8.9c0-0.1,0-0.1,0-0.2c0-4,3.3-7.3,7.3-7.3c3.3,0,6.1,2.2,7,5.2c0.5-0.1,1.1-0.2,1.7-0.2c4.3,0,7.9,3.5,7.9,7.9
		C101.5,53.5,98.6,56.8,94.8,57.3z M129,62.9c-1.2,0-2.4-0.3-3.4-0.8c-1.7,2-4.2,3.3-7,3.3c-5,0-9.1-4.1-9.1-9.1
		c0-3.8,2.3-7.1,5.7-8.5c-0.4-0.9-0.6-1.9-0.6-3c0-4,3.3-7.3,7.3-7.3s7.3,3.3,7.3,7.3c0,0.8-0.1,1.6-0.4,2.3c0.1,0,0.2,0,0.3,0
		c4.4,0,7.9,3.5,7.9,7.9C136.9,59.4,133.4,62.9,129,62.9z M137.8,37.8c-0.7,0-1.3-0.1-1.8-0.4c-0.9,1.1-2.3,1.8-3.8,1.8
		c-2.7,0-5-2.2-5-5c0-2.4,1.7-4.4,3.9-4.9c0.5-1.4,1.8-2.4,3.4-2.4c1.5,0,2.8,0.9,3.3,2.3c2.4,0,4.3,1.9,4.3,4.3
		C142.1,35.9,140.2,37.8,137.8,37.8z"/>
	<path style="opacity:5.000000e-02;enable-background:new    ;" d="M113.2,23.9c0,1.7-1.3,3-3,3c-0.5,0-0.9-0.1-1.3-0.3
		c-0.6,0.8-1.6,1.2-2.7,1.2c-1.9,0-3.5-1.5-3.5-3.5c0-1.5,0.9-2.7,2.2-3.2c-0.2-0.3-0.3-0.7-0.3-1.1c0-1.5,1.2-2.8,2.8-2.8
		c1.5,0,2.8,1.2,2.8,2.8c0,0.3,0,0.6-0.1,0.9h0.1C111.8,20.9,113.2,22.3,113.2,23.9z"/>
	<path style="opacity:5.000000e-02;enable-background:new    ;" d="M88.2,224.6c0,0.7-0.2,1.3-0.5,1.8c-0.6,1.2-1.9,2-3.3,2
		c-0.6,0-1.1-0.1-1.6-0.4c-0.5,0.6-1.3,1.1-2.1,1.4c-0.4,0.1-0.8,0.2-1.3,0.2c-2.4,0-4.4-2-4.4-4.4c0-0.7,0.2-1.3,0.4-1.9
		c0.5-1,1.3-1.7,2.3-2.1c-0.2-0.4-0.3-0.9-0.3-1.4c0-1.9,1.6-3.5,3.5-3.5c0.7,0,1.4,0.2,1.9,0.6c1,0.6,1.6,1.7,1.6,2.9
		c0,0.4-0.1,0.8-0.2,1.1h0.1c1,0,1.9,0.4,2.5,1c0.4,0.4,0.7,0.8,0.9,1.3C88.1,223.6,88.2,224.1,88.2,224.6z"/>
	<path style="opacity:5.000000e-02;enable-background:new    ;" d="M160,41.5c0.2,0.4,0.2,0.7,0.2,1.1c0,1.5-1.2,2.8-2.8,2.8
		c-1.5,0-2.8-1.2-2.8-2.8c0-0.3,0.1-0.6,0.2-0.9h-0.1c-1.7,0-3-1.3-3-3c0-1.6,1.3-3,3-3c0.5,0,0.9,0.1,1.3,0.3
		c0.6-0.8,1.6-1.2,2.7-1.2c1.9,0,3.5,1.6,3.5,3.5C162.1,39.8,161.2,41,160,41.5z"/>
	<path style="opacity:5.000000e-02;enable-background:new    ;" d="M91.3,52c0,2.4-1.9,4.3-4.3,4.3c-0.7,0-1.3-0.2-1.8-0.4
		c-0.9,1.1-2.3,1.8-3.8,1.8c-2.7,0-5-2.2-5-5c0-2.4,1.7-4.4,3.9-4.8c0.5-1.4,1.8-2.4,3.4-2.4c1.5,0,2.8,0.9,3.3,2.3
		C89.3,47.7,91.3,49.6,91.3,52z"/>
	<path style="opacity:0.1;enable-background:new    ;" d="M142.1,33.5c0,2.4-1.9,4.3-4.3,4.3c-0.7,0-1.3-0.1-1.8-0.4
		c-0.9,1.1-2.3,1.8-3.8,1.8c-2.7,0-5-2.2-5-5c0-2.4,1.7-4.4,3.9-4.9c0.5-1.4,1.8-2.4,3.4-2.4c1.5,0,2.8,0.9,3.3,2.3
		C140.2,29.3,142.1,31.2,142.1,33.5z"/>
	<path style="opacity:0.1;enable-background:new    ;" d="M71.1,44.6c0,2.4-1.9,4.3-4.3,4.3c-0.5,1.3-1.8,2.3-3.3,2.3
		c-1.6,0-2.9-1-3.4-2.4c-2.2-0.5-3.9-2.5-3.9-4.9c0-2.7,2.2-5,5-5c1.5,0,2.9,0.7,3.8,1.8c0.5-0.3,1.2-0.4,1.8-0.4
		C69.2,40.4,71.1,42.3,71.1,44.6z"/>
	<path style="fill:#FF2C2C;" d="M198.6,65.5l-25.1,157.8H99.2c-0.4-3.7-2.8-6.7-6-8.1c-1.2-0.5-2.5-0.8-3.8-0.8
		c-1.2-3.1-4.3-5.2-7.8-5.2c-0.3,0-0.5,0-0.8,0L57.9,65.5H198.6z"/>
	<polygon style="fill:#F4F4F4;" points="139.9,65.5 133.4,223.3 123.1,223.3 116.6,65.5 	"/>
	<polygon style="fill:#F4F4F4;" points="184.7,65.5 159.7,223.3 149,223.3 160.9,65.5 	"/>
	<path style="fill:#F4F4F4;" d="M104.9,223.3h-5.7c-0.4-3.7-2.8-6.7-6-8.1L76.4,65.5h23.7L104.9,223.3z"/>
	<g>
		<path style="fill:#F4F4F4;" d="M198.6,71.5H57.9c-3.3,0-6-2.7-6-6s2.7-6,6-6h140.7c3.3,0,6,2.7,6,6
			C204.6,68.8,201.9,71.5,198.6,71.5z"/>
	</g>
</g>
</svg>
