<?xml version="1.0" encoding="utf-8"?>
<!-- Generator: Adobe Illustrator 22.1.0, SVG Export Plug-In . SVG Version: 6.00 Build 0)  -->
<svg version="1.1" id="Layer_1" xmlns="http://www.w3.org/2000/svg" xmlns:xlink="http://www.w3.org/1999/xlink" x="0px" y="0px"
	 viewBox="0 0 256 256" style="enable-background:new 0 0 256 256;" xml:space="preserve">
<g>
	<path style="fill:#3A2A51;" d="M231.2,157.4c-6.3-16.8,5-42.9-9.6-53.2C207,94,169.3,41.4,147.7,31c-21.6-10.5-71.3-20.7-80.2-20.7
		c-8.9,0-13.1,12-16.3,33.6c-3.5,21.4-31.4,44.3-25.3,68.7c6.1,24.6,10.2,38.8,19.2,56.9c8.9,18.1,13.7,63.4,44.5,64.5
		c13.7,0.4,25.5,4.3,35.7,8.3c0.3,0.2,4.4,1.5,4.4,1.5c10.5,4.4,18.7,8.1,24.6,7.2c5.8-1.1,16.8-3.6,27.7-7.8l1.5-0.7l0.4-0.2
		c11.3-4.6,22-10.9,26.2-19.2C209.8,223.2,237.3,174.2,231.2,157.4z M59.5,40.4c0.1-1,0.3-2.1,0.6-3.1
		C59.8,38.3,59.7,39.4,59.5,40.4z M79.3,20.6c0,0,0-0.1-0.1-0.1c2.5,1.2,4.8,2.6,7,4.2C84.1,23.2,81.8,21.8,79.3,20.6z"/>
</g>
<g style="opacity:0;">
	<path style="fill:#FFFFFF;" d="M190.2,185.7c-0.2,5.4-1.1,10.2-1.5,15l-1.5,14.6c-0.4,4.8-1.1,9.8-1.7,14.6
		c-0.4,4.1-1.1,8.3-2,12.4c-0.2,0.9-0.4,1.7-0.7,2.6c-0.2-0.7-0.7-1.3-0.9-2c-1.7-4.1-2.8-8.7-3.3-13.1c-0.7-5.2-0.7-10.5-0.2-15.5
		c0.4-5.2,1.7-10.5,3.5-15.3C183.9,194.2,186.7,189.4,190.2,185.7z"/>
	<path style="fill:#FFFFFF;" d="M203.9,193.8c-0.7,5.2-2,10.5-3.9,15.3c-2,4.8-4.1,9.6-7.6,13.9c0-5.4,0.4-10.5,0.9-15.5
		c0.7-5,1.3-9.8,1.7-14.8c0.7-4.8,1.3-9.6,1.5-14.4c0.2-4.8,0.4-9.6-0.7-14.8c2.2,1.5,3.7,3.9,5,6.5c1.3,2.6,2,5.2,2.6,7.8
		C204.6,182.9,204.6,188.3,203.9,193.8z"/>
	<path style="fill:#FFFFFF;" d="M217.7,196.8c-0.9,4.1-2.6,8.3-4.8,12s-4.8,7.2-8.5,9.8c0.7-4.4,1.3-8.3,2.2-12.2l2.6-11.3l2.6-11.3
		c1.1-3.9,1.7-7.6,3.5-12c2,3.9,3.1,8.3,3.5,12.4C219.2,188.3,218.8,192.7,217.7,196.8z"/>
	<path style="fill:#FFFFFF;" d="M226.6,135.8c0,1.5-0.2,3.1-0.4,4.6c-0.4,3.1-0.9,5.9-1.3,8.7c-0.7,2.8-1.1,5.7-2,8.5
		c-0.7,2.8-1.5,5.7-2.4,9.2c-2.6-2.6-3.7-5.9-4.4-9.4c-0.7-3.3-0.4-6.8,0.2-10s1.7-6.3,3.5-9.2c0.9-1.5,1.7-2.8,2.8-4.1
		c1.1-1.3,2.4-2.4,3.9-3.5C226.8,132.7,226.8,134.3,226.6,135.8z"/>
	<path style="fill:#FFFFFF;" d="M195.9,151.9c-3.3-2.8-5.2-6.1-6.8-9.8c-1.5-3.7-2.6-7.4-2.8-11.3c-0.4-3.9-0.2-8.1,0.9-11.8
		c0.9-3.9,2.8-7.6,5.4-10.7c0.9,4.1,0.9,7.6,1.5,11.3l1.1,10.5c0.2,3.5,0.7,7,0.9,10.7C195.9,144.1,196.1,147.8,195.9,151.9z"/>
	<path style="fill:#FFFFFF;" d="M212.9,124c-0.7,5-2.4,10-5.9,13.7c0-5-0.2-9.6-0.9-13.9c-0.7-4.4-1.5-8.5-2.6-12.6l-1.1-3.1
		c-0.2-1.1-0.7-2-1.1-3.1c-0.4-1.1-0.7-2.2-1.1-3.1c-0.4-1.1-0.9-2-1.3-3.1c-0.4-1.1-0.9-2.2-1.3-3.1c-0.4-1.1-0.9-2.2-1.3-3.3
		c-0.9-2.2-2.2-4.4-2.8-6.8c2.2,1.1,4.4,2.6,6.3,4.1c0.9,0.9,1.7,1.7,2.8,2.6c0.9,0.9,1.7,1.7,2.6,2.8c0.7,1.1,1.5,2,2.2,3.1
		s1.3,2.2,2,3.3c1.3,2.2,2,4.6,2.8,7.2C213.1,113.8,213.5,119,212.9,124z"/>
	<path style="fill:#FFFFFF;" d="M183.9,160c-1.7,5-3.5,9.4-5,13.7c-1.7,4.6-3.3,8.9-5,13.3c-1.7,4.4-3.5,8.9-5.4,13.3
		c-2,4.4-3.9,8.9-6.8,13.3c-0.9-5.2-0.7-10.2,0.2-15.3c0.7-5,2-9.8,3.7-14.6c1.7-4.8,4.1-9.4,7-13.5
		C175.8,166.3,179.3,162.4,183.9,160z"/>
	<path style="fill:#FFFFFF;" d="M179.5,146.3c-1.1,3.9-3.1,7.6-5.4,10.7c-2.4,3.3-5.2,6.1-8.7,8.3c0.7-4.1,1.7-7.8,2.8-11.3
		l3.3-10.2c1.1-3.3,2.2-6.5,2.8-10c0.7-3.3,1.3-6.8,1.3-10.9c3.3,2.8,5,7,5.4,11.1C181.5,138.2,180.8,142.3,179.5,146.3z"/>
	<path style="fill:#FFFFFF;" d="M162.1,234.5c-0.9,4.1-2.2,8.1-4.8,11.6c-0.9-4.1-1.5-8.1-2-12L154,223c-0.2-1.7-0.4-3.7-0.7-5.4
		c-0.2-1.7-0.4-3.7-0.7-5.7c-0.4-3.9-1.1-7.6-1.1-12c3.3,2.6,5.9,6.1,7.6,10c1.1,2,1.5,3.9,2.2,5.9c0.4,2,1.1,4.1,1.3,6.1
		C163.2,226,163,230.4,162.1,234.5z"/>
	<path style="fill:#FFFFFF;" d="M149.4,184.8c-0.9,2.6-2,5-3.1,7.2c-0.9,2.4-2,4.6-2.8,7c-0.4,1.1-0.9,2.2-1.3,3.3
		c-0.4,1.1-0.7,2.2-1.1,3.3c-0.9,2.2-1.3,4.6-2,6.8c-0.9,4.6-1.5,9.2-1.5,13.7c0,4.8,0.4,9.6,1.5,14.8c-4.1-3.5-6.8-8.5-8.3-13.9
		c-1.3-5.4-1.3-11.1-0.2-16.6c0.7-2.6,1.5-5.4,2.6-7.8c1.1-2.6,2.6-4.8,4.1-7.2c0.7-1.1,1.7-2.2,2.6-3.3c0.9-1.1,1.7-2,2.8-2.8
		C144.9,187.9,147,186.1,149.4,184.8z"/>
	<path style="fill:#FFFFFF;" d="M169.9,96.8c-1.7,6.3-3.1,12.4-4.4,18.5c-1.3,6.1-2.4,12.2-3.7,18.3c-1.3,6.1-2.4,12.2-3.9,18.3
		c-1.5,6.1-3.1,12.2-5.2,18.5c-1.5-6.5-1.7-12.9-1.5-19.4s0.9-12.9,2.2-19.2c1.3-6.3,3.1-12.6,5.7-18.5
		C161.6,107,164.9,101.1,169.9,96.8z"/>
	<path style="fill:#FFFFFF;" d="M182.8,105.7c-2-5-3.5-10-4.8-14.8c-1.5-4.8-2.8-9.6-4.1-14.4c-1.5-4.8-3.1-9.4-4.8-13.9
		c-2-4.6-3.9-8.9-6.5-13.9c5,2.2,9.2,6.1,12.4,10.5c3.3,4.6,5.4,9.6,7.2,14.8c1.5,5.2,2.4,10.5,2.6,15.9
		C184.8,95,184.3,100.5,182.8,105.7z"/>
	<path style="fill:#FFFFFF;" d="M168.6,77.8c-1.1,4.6-3.1,8.3-4.8,12.2c-2,3.7-3.9,7.4-5.9,10.9l-6.1,10.5c-0.9,1.7-2,3.5-2.8,5.4
		c-0.9,1.7-1.7,3.7-2,5.9c-0.9-0.9-1.3-2-1.5-3.3c-0.2-1.1-0.4-2.4-0.7-3.5c-0.2-2.4,0.2-4.8,0.7-7c1.1-4.6,2.8-8.7,5-12.4
		c2.2-3.9,4.8-7.4,7.8-10.5C161.2,83.1,164.5,80.2,168.6,77.8z"/>
	<path style="fill:#FFFFFF;" d="M106.9,226c-4.1-2-7.4-4.8-10.2-7.8c-2.8-3.1-5.4-6.5-7.4-10.5c-2-3.7-3.7-7.8-4.4-12.4
		c-0.7-4.4-0.4-9.4,2-13.1c1.3,4.4,2.8,7.6,4.6,11.1c1.7,3.5,3.5,6.8,5.4,10.2c1.7,3.5,3.7,7,5.4,10.7
		C103.9,218,105.6,221.7,106.9,226z"/>
	<path style="fill:#FFFFFF;" d="M83.6,205.3c-4.1-2-7.4-4.8-10.2-7.8c-2.8-3.1-5.4-6.5-7.4-10.5c-2-3.7-3.7-7.8-4.1-12.4
		c-0.7-4.4-0.4-9.4,2-13.1c1.3,4.4,2.8,7.6,4.6,11.1c1.7,3.5,3.5,6.8,5.2,10.2c1.7,3.5,3.7,7,5.4,10.7
		C80.6,197.5,82.3,201.2,83.6,205.3z"/>
	<path style="fill:#FFFFFF;" d="M97.1,229.9c-4.6-0.4-8.5-2-12.4-3.9c-3.9-2-7.4-4.4-10.7-7.2s-6.1-6.3-8.3-10.2
		c-2.2-3.9-3.5-8.5-2.6-13.1c2.6,3.7,5.2,6.3,8.1,8.9c2.8,2.6,5.7,5.2,8.5,7.8c2.8,2.6,5.9,5.2,8.7,8.1
		C91.5,223.4,94.3,226.5,97.1,229.9z"/>
	<path style="fill:#FFFFFF;" d="M97.8,191.2c-2-3.7-3.5-7-4.8-10.2c-1.5-3.3-2.8-6.5-3.9-10c-1.3-3.3-2.4-6.8-3.3-10.2
		c-0.9-3.5-2-7.2-2.4-11.3c3.5,2.2,6.3,5,8.5,8.3c2.2,3.1,4.1,6.5,5.4,10.2c1.3,3.7,2.2,7.4,2.4,11.3
		C99.8,183.3,99.5,187.4,97.8,191.2z"/>
	<path style="fill:#FFFFFF;" d="M79.5,122.5c0,2.2-0.7,4.1-0.9,6.1c-0.2,2-0.7,3.9-1.1,5.7c-0.7,3.7-1.1,7.4-1.7,10.9
		c-0.4,3.7-0.7,7.2-1.1,10.9c-0.2,3.7-0.4,7.6-0.7,12c-3.3-3.1-5-7-6.1-11.1c-1.1-4.1-1.3-8.5-0.9-12.6c0.7-4.4,1.7-8.5,3.9-12.2
		c0.9-2,2.2-3.7,3.5-5.2C76,125.3,77.7,123.8,79.5,122.5z"/>
	<path style="fill:#FFFFFF;" d="M69.2,111.4c-0.9,4.4-2.4,8.7-5.2,12.4c-0.7-4.6-1.1-8.7-1.5-12.9c-0.4-4.1-0.9-8.1-1.5-12
		c-0.4-3.9-1.1-7.8-2-11.8c-0.7-4.1-1.7-8.1-2.4-12.6c3.7,2.6,6.8,6.3,8.9,10.2c2.2,4.1,3.5,8.5,4.1,13.1
		C70.1,102.2,70.1,106.8,69.2,111.4z"/>
	<path style="fill:#FFFFFF;" d="M72.1,74.1c-3.5-3.1-5.9-6.8-7.8-10.7c-2-3.9-3.5-8.1-4.4-12.4c-0.9-4.4-0.9-9.2,0.2-13.7
		c0.7-2.2,1.5-4.6,2.8-6.5c1.3-2,3.3-3.7,5.4-4.4c-1.7,4.1-1.7,7.8-1.5,11.6c0.2,3.7,0.9,7.4,1.5,11.3c0.7,3.9,1.5,7.8,2.2,11.8
		C71.2,65.4,71.9,69.5,72.1,74.1z"/>
	<path style="fill:#FFFFFF;" d="M91.5,72.4c-0.7,3.9-1.5,7.6-3.1,11.3c-0.9,1.7-1.7,3.5-2.8,5.2c-0.7,0.9-1.1,1.7-1.7,2.4
		c-0.7,0.7-1.5,1.5-2.4,2.2c0.2-2,0-3.9,0.2-5.9c0-2,0.2-3.7,0.2-5.7c0.2-3.7,0.7-7.2,1.1-10.9c0.4-3.5,1.1-7,1.5-10.7
		c0.7-3.5,1.1-7,1.5-11.1c3.1,2.8,4.6,7,5.2,10.9C91.9,64.5,92.1,68.5,91.5,72.4z"/>
	<path style="fill:#FFFFFF;" d="M96.9,132.3c-0.4,3.9-1.1,8.1-2.8,11.8c-1.7-3.9-2.8-7.6-3.9-11.1c-0.9-3.7-1.7-7.2-2.4-10.9
		c-0.9-3.5-1.3-7-2.2-10.5c-0.9-3.5-1.7-6.5-4.4-10c2.2,0,4.4,0.9,6.1,2.2s3.3,3.1,4.4,4.8c2.4,3.5,3.7,7.6,4.6,11.6
		C96.9,124.2,97.1,128.4,96.9,132.3z"/>
	<path style="fill:#FFFFFF;" d="M129.4,244.6c-1.1-0.4-2.4-1.1-3.3-1.7c-2.2-1.5-3.9-3.3-5.2-5.4c-2.2-3.1-3.7-6.5-4.6-10.2
		c-0.9-3.7-1.1-7.4-0.4-11.1c0.4-3.7,2-7.2,4.1-10.5c0.7,2,1.1,3.7,1.5,5.2c0.4,1.7,0.7,3.3,1.1,5c0.7,3.3,1.5,6.3,2.2,9.4
		c0.7,3.1,1.5,6.1,2.2,9.2c0.7,3.1,1.5,6.1,2.4,9.6C129.4,244.1,129.4,244.3,129.4,244.6z"/>
	<path style="fill:#FFFFFF;" d="M141.4,167.2c-0.7,3.9-2.2,7.8-4.4,11.1s-5,6.3-8.7,8.1l2.4-10.9c0.9-3.3,1.5-6.8,2-10
		c0.4-3.3,1.1-6.5,1.5-10c0.7-3.5,0.9-7,1.7-11.1c2.6,3.1,4.4,6.8,5.2,10.7C142,159.1,142,163.3,141.4,167.2z"/>
	<path style="fill:#FFFFFF;" d="M124.4,158.9c-0.9,3.9-2,7.4-3.1,10.7c-1.1,3.3-2.4,6.5-3.7,9.8c-1.3,3.3-2.8,6.5-4.6,9.6
		c-1.7,3.3-3.7,6.3-6.3,9.4c-0.9-3.9-0.7-7.8-0.2-11.6c0.7-3.7,1.5-7.4,3.1-10.9c1.5-3.5,3.3-6.8,5.7-9.8
		C117.6,163.3,120.7,160.6,124.4,158.9z"/>
	<path style="fill:#FFFFFF;" d="M52.9,63.2c-0.9,3.9-2,7.4-3.1,10.7c-1.1,3.5-2.4,6.5-3.7,9.8c-1.3,3.3-2.8,6.5-4.6,9.6
		c-1.7,3.3-3.7,6.3-6.3,9.4c-0.9-3.9-0.7-7.8-0.2-11.6c0.7-3.7,1.5-7.4,3.1-10.9c1.5-3.5,3.3-6.8,5.7-9.8
		C46.4,67.6,49.2,64.7,52.9,63.2z"/>
	<path style="fill:#FFFFFF;" d="M61.8,149.5c-4.1-2-7.4-4.8-10.2-7.8c-2.8-3.1-5.4-6.5-7.4-10.5c-2-3.7-3.5-7.8-4.1-12.4
		c-0.7-4.4-0.4-9.4,2.2-13.1c1.1,4.4,2.8,7.6,4.6,11.1c1.7,3.5,3.5,6.8,5.2,10.2c1.7,3.5,3.7,7,5.4,10.7
		C59,141.5,60.5,145.2,61.8,149.5z"/>
	<path style="fill:#FFFFFF;" d="M46.1,170.2c-2-3.7-3.5-7-4.8-10.2c-1.3-3.3-2.6-6.5-3.9-10c-1.3-3.3-2.4-6.8-3.3-10.2
		c-0.9-3.5-2-7.2-2.2-11.3c3.5,2.2,6.1,5,8.5,8.3c2.2,3.1,3.9,6.5,5.4,10.2c1.3,3.7,2.2,7.6,2.4,11.6
		C48.1,162.4,47.9,166.5,46.1,170.2z"/>
	<path style="fill:#FFFFFF;" d="M121.5,148.2c-1.5,3.5-3.5,6.5-6.1,9.2c-2.6,2.6-5.7,4.8-9.4,5.9c1.1-3.7,2.4-6.8,3.7-9.8
		s2.6-5.9,3.7-8.5c1.1-2.8,2.2-5.4,3.1-8.5c0.9-2.8,1.3-5.9,2-9.8c2.8,2.6,4.6,6.3,5,10.2C123.7,140.8,123.1,144.7,121.5,148.2z"/>
	<path style="fill:#FFFFFF;" d="M123.3,94c-2.4,4.8-5,8.7-6.8,13.1c-2,4.4-3.7,8.5-5,13.1c-1.3,4.4-2.6,8.9-3.7,13.5l-3.3,14.6
		c-2.4-4.8-3.3-10-3.7-15.3c-0.2-5.2,0.4-10.5,2.2-15.7c1.5-5,4.1-9.8,7.4-13.9c0.9-1.1,1.7-2,2.6-3.1c1.1-0.9,2-1.7,3.1-2.6
		c1.1-0.9,2.2-1.5,3.3-2.2C120.9,95,122.2,94.4,123.3,94z"/>
	<path style="fill:#FFFFFF;" d="M148.8,78c-0.7,2.4-1.5,4.6-2.4,6.8c-0.7,2.2-1.7,4.1-2.4,6.3c-1.7,4.1-3.1,8.3-4.4,12.2
		c-1.3,4.1-2.4,8.3-3.3,12.4c-0.9,4.4-1.5,8.7-2.2,13.5c-3.1-3.9-4.4-8.9-4.8-13.7c-0.4-5,0.2-10,1.7-14.6c1.5-4.8,3.7-9.2,6.8-13.1
		c1.3-2,3.3-3.7,4.8-5.4C144.6,80.7,146.6,79.3,148.8,78z"/>
	<path style="fill:#FFFFFF;" d="M106.5,91.6c-0.7,1.7-1.3,3.7-2.4,5.2c-1.1,1.7-2.2,3.3-3.9,4.4c0-2,0-3.7,0-5.4s-0.2-3.3-0.2-5
		l-0.7-9.6c-0.2-3.3-0.4-6.5-0.4-10c0-1.7,0-3.5,0-5.2c0-1.7,0.2-3.7,0.7-5.7c1.3,1.3,2.6,2.8,3.5,4.4c1.1,1.5,1.7,3.3,2.6,5
		c1.3,3.5,2.2,7,2.4,10.7C108,84.1,107.6,88.1,106.5,91.6z"/>
	<path style="fill:#FFFFFF;" d="M113.7,72.2c-3.7-4.1-6.8-8.3-9.8-12.4c-3.1-4.1-5.9-8.5-8.7-12.6c-2.8-4.4-5.4-8.5-8.3-12.9
		c-2.6-4.4-5.4-8.7-7.6-13.7c5,2.4,9.4,5.7,13.1,9.6c3.9,3.7,7.2,7.8,10,12.4c2.8,4.4,5.4,9.2,7.4,14.2
		C111.7,61.5,113.3,66.7,113.7,72.2z"/>
	<path style="fill:#FFFFFF;" d="M134.4,46.9c-1.5-1.3-2.8-2.4-4.1-3.1c-1.3-0.7-2.6-1.1-4.1-1.5c-2.8-0.9-6.3-1.5-9.6-3.1
		c-3.3-1.3-6.8-3.3-9.6-5.7s-5.2-5.4-6.5-9.2c3.9,0.9,7,2.2,10.2,3.3c3.1,1.1,6.1,2.2,9.2,3.5c3.1,1.3,6.3,2.6,9.6,5
		c1.5,1.3,3.3,2.8,4.1,4.8C134.4,43,134.6,45.1,134.4,46.9z"/>
	<path style="fill:#FFFFFF;" d="M137.9,76.7c-0.2,4.1-1.7,8.3-4.4,11.6c-0.9-4.1-1.3-7.6-2.4-10.9c-0.9-3.3-2-6.5-3.3-9.6
		c-1.3-3.1-2.6-6.3-4.1-9.6s-3.1-6.5-4.6-10.5c3.9,1.3,7.4,3.7,10.2,6.5c2.8,2.8,5.2,6.3,6.8,10.2C137.5,68.2,138.1,72.6,137.9,76.7
		z"/>
	<path style="fill:#FFFFFF;" d="M155.1,82.4c-1.7-5.2-3.3-10.2-5-15c-1.7-4.8-3.5-9.6-5.7-14.2c-2-4.6-4.4-9.2-6.8-13.5
		c-2.4-4.6-5.2-8.9-8.1-13.7c5,2.2,9.8,5.7,13.5,9.8c3.9,4.1,7,8.9,9.4,13.9c2.4,5.2,3.9,10.7,4.4,16.1
		C157.3,71.3,157.1,77,155.1,82.4z"/>
</g>
</svg>
