<?xml version="1.0" encoding="utf-8"?>
<!-- Generator: Adobe Illustrator 22.1.0, SVG Export Plug-In . SVG Version: 6.00 Build 0)  -->
<svg version="1.1" id="Layer_1" xmlns="http://www.w3.org/2000/svg" xmlns:xlink="http://www.w3.org/1999/xlink" x="0px" y="0px"
	 viewBox="0 0 256 256" style="enable-background:new 0 0 256 256;" xml:space="preserve">
<g style="opacity:0;">
	<path style="fill:#8EFF64;" d="M114,126.1c0-8.5,3.9-16.1,10-21.2C109.8,72.4,73.7,66,73.7,66c-6,17.1-7,31.2-5.1,42.6
		c6,5,11.5,11.8,15.6,21.1l4.7,14.4c7.4,6.2,13.9,8.8,13.9,8.8c13.8,2.7,25.9,0.8,25.9,0.8l0.1-3.3C120,145.8,114,136.6,114,126.1z
		 M99.3,110c-3.4,0-6.8-0.8-10-2.4c-5.3-2.7-9.2-7.2-11-12.9c-1.8-5.6-1.4-11.6,1.3-16.9l1.6,0.8l0.2,0.1l3.8,1.9L113.3,95l4.2,2.1
		l0,0l1.6,0.8C115.2,105.6,107.4,110,99.3,110z"/>
	<path style="fill:#8EFF64;" d="M209.3,100.9c-6.7,4.2-11.5,9.3-14.9,14.4l0,0c-9,2.5-15.5,10.7-15.5,20.4c0,7.5,4,14.2,9.9,17.9
		l0,0c0.2,0.5,0.4,0.9,0.6,1.4c-2,1.9-4.3,3.8-6.7,5.5l-22.3,13.2c0,0-4.7-5.4-9.3-13.8c1.9,0.9,3,1.3,3,1.3l11.4-19.1
		c8.1-17.4,6.4-32.6,1.7-44.3c8.6-7.3,20.7-13.6,37.6-17.5C204.8,80.3,208.3,88.8,209.3,100.9z"/>
	<path style="fill:#8EFF64;" d="M165.5,142.2l-11.4,19.1c0,0-1.2-0.4-3-1.3c-2.7-1.3-6.9-3.4-11.4-6.6c0.6,0,1.2,0.1,1.8,0.1
		c2.1,0,4.2-0.2,6.2-0.7c12.1-2.8,21.2-13.7,21.2-26.7c0-8.1-3.5-15.4-9.2-20.5c-4.8-4.3-11.2-6.9-18.2-6.9c-4.9,0-9.5,1.3-13.5,3.5
		c3.4-9.3,10-19.3,21.5-29.5c0,0,11.6,9.4,17.8,25.2C171.9,109.6,173.6,124.8,165.5,142.2z"/>
	<path style="fill:#8EFF64;" d="M91,150.9c0,0-9.3,5-21.1,6.9c0,0-48.2-1.5-48.6-61.6c0,0,26.7-4.6,47.3,12.4
		c6,5,11.5,11.8,15.6,21.1l4.7,14.4L91,150.9z"/>
	<path style="fill:#8EFF64;" d="M168.8,126.1c0,15.1-12.3,27.4-27.4,27.4c-0.6,0-1.2,0-1.8-0.1c-3.9-0.2-7.6-1.3-10.9-3
		c-8.8-4.6-14.7-13.7-14.7-24.3c0-8.5,3.9-16.1,10-21.2c1.2-1,2.5-1.9,3.9-2.7c4-2.3,8.6-3.5,13.5-3.5
		C156.5,98.7,168.8,110.9,168.8,126.1z"/>
	<path style="fill:#8EFF64;" d="M117.5,97.1L117.5,97.1c-5.1,10-17.3,14.1-27.3,9s-14.1-17.3-9-27.4l0.2,0.1l3.8,1.9
		c-3.9,7.8-0.8,17.3,7,21.3c7.8,3.9,17.3,0.8,21.3-7L117.5,97.1z"/>
	<path style="fill:#8EFF64;" d="M113.3,95c-3.9,7.8-13.5,10.9-21.3,7s-10.9-13.5-7-21.3L113.3,95z"/>
	<path style="fill:#8EFF64;" d="M119.1,97.9c-3.9,7.7-11.7,12.2-19.8,12.2c-3.4,0-6.8-0.8-10-2.4c-5.3-2.7-9.2-7.2-11-12.9
		c-1.8-5.6-1.4-11.6,1.3-16.9l1.6,0.8l0.2,0.1c-2.4,4.8-2.8,10.3-1.2,15.4c1.7,5.1,5.3,9.3,10.1,11.7c9.9,5,22.1,1,27.1-8.9l0.2,0.1
		L119.1,97.9z"/>
	<path style="fill:#8EFF64;" d="M216.3,135.7c0,9-7.3,16.2-16.2,16.2c-6.2,0-11.6-3.5-14.4-8.7c0-3,0.5-11.3,4.5-20.4
		c2.7-2.1,6.1-3.3,9.8-3.3C209,119.5,216.3,126.8,216.3,135.7z"/>
	<path style="fill:#8EFF64;" d="M190.2,122.9c-4,9.2-4.5,17.4-4.5,20.4c-1.2-2.3-1.9-4.8-1.9-7.6
		C183.8,130.5,186.3,125.8,190.2,122.9z"/>
	<path style="fill:#8EFF64;" d="M214.9,156.1l-20.4,8.8c0,0-2.6-3.9-5.2-9.9c-0.2-0.4-0.4-0.9-0.6-1.4c3.3,2.1,7.2,3.3,11.3,3.3
		c11.7,0,21.2-9.5,21.2-21.2s-9.5-21.2-21.2-21.2c-2,0-3.9,0.3-5.7,0.8c3.4-5.1,8.3-10.2,14.9-14.4c8.1-5.1,18.9-9,33.3-10.4
		C242.6,90.5,254.3,134.3,214.9,156.1z"/>
	<path style="fill:#8EFF64;" d="M200,114.5c-2,0-3.9,0.3-5.7,0.8l0,0c-9,2.5-15.5,10.7-15.5,20.4c0,7.5,4,14.2,9.9,17.9l0,0
		c3.3,2.1,7.2,3.3,11.3,3.3c11.7,0,21.2-9.5,21.2-21.2S211.7,114.5,200,114.5z M200,151.9c-6.2,0-11.6-3.5-14.4-8.7
		c-1.2-2.3-1.9-4.8-1.9-7.6c0-5.2,2.5-9.9,6.4-12.9l0,0c2.7-2.1,6.1-3.3,9.8-3.3c8.9,0,16.2,7.3,16.2,16.2
		C216.3,144.7,209,151.9,200,151.9z"/>
</g>
<g>
	<g>
		<path style="opacity:0.3;enable-background:new    ;" d="M114,126.1c0-8.5,3.9-16.1,10-21.2C109.8,72.4,73.7,66,73.7,66
			c-6,17.1-7,31.2-5.1,42.6c6,5,11.5,11.8,15.6,21.1l4.7,14.4c7.4,6.2,13.9,8.8,13.9,8.8c13.8,2.7,25.9,0.8,25.9,0.8l0.1-3.3
			C120,145.8,114,136.6,114,126.1z M99.3,110c-3.4,0-6.8-0.8-10-2.4c-5.3-2.7-9.2-7.2-11-12.9c-1.8-5.6-1.4-11.6,1.3-16.9l1.6,0.8
			l0.2,0.1l3.8,1.9L113.3,95l4.2,2.1l0,0l1.6,0.8C115.2,105.6,107.4,110,99.3,110z"/>
		<path style="opacity:0.3;enable-background:new    ;" d="M209.3,100.9c-6.7,4.2-11.5,9.3-14.9,14.4l0,0
			c-9,2.5-15.5,10.7-15.5,20.4c0,7.5,4,14.2,9.9,17.9l0,0c0.2,0.5,0.4,0.9,0.6,1.4c-2,1.9-4.3,3.8-6.7,5.5l-22.3,13.2
			c0,0-4.7-5.4-9.3-13.8c1.9,0.9,3,1.3,3,1.3l11.4-19.1c8.1-17.4,6.4-32.6,1.7-44.3c8.6-7.3,20.7-13.6,37.6-17.5
			C204.8,80.3,208.3,88.8,209.3,100.9z"/>
		<path style="opacity:0.3;enable-background:new    ;" d="M165.5,142.2l-11.4,19.1c0,0-1.2-0.4-3-1.3c-2.7-1.3-6.9-3.4-11.4-6.6
			c0.6,0,1.2,0.1,1.8,0.1c2.1,0,4.2-0.2,6.2-0.7c12.1-2.8,21.2-13.7,21.2-26.7c0-8.1-3.5-15.4-9.2-20.5c-4.8-4.3-11.2-6.9-18.2-6.9
			c-4.9,0-9.5,1.3-13.5,3.5c3.4-9.3,10-19.3,21.5-29.5c0,0,11.6,9.4,17.8,25.2C171.9,109.6,173.6,124.8,165.5,142.2z"/>
		<path style="opacity:5.000000e-02;enable-background:new    ;" d="M91,150.9c0,0-9.3,5-21.1,6.9c0,0-48.2-1.5-48.6-61.6
			c0,0,26.7-4.6,47.3,12.4c6,5,11.5,11.8,15.6,21.1l4.7,14.4L91,150.9z"/>
		<path style="fill-opacity:0;" d="M168.8,126.1c0,15.1-12.3,27.4-27.4,27.4c-0.6,0-1.2,0-1.8-0.1c-3.9-0.2-7.6-1.3-10.9-3
			c-8.8-4.6-14.7-13.7-14.7-24.3c0-8.5,3.9-16.1,10-21.2c1.2-1,2.5-1.9,3.9-2.7c4-2.3,8.6-3.5,13.5-3.5
			C156.5,98.7,168.8,110.9,168.8,126.1z"/>
		<path style="fill-opacity:0;" d="M117.5,97.1L117.5,97.1c-5.1,10-17.3,14.1-27.3,9s-14.1-17.3-9-27.4l0.2,0.1l3.8,1.9
			c-3.9,7.8-0.8,17.3,7,21.3c7.8,3.9,17.3,0.8,21.3-7L117.5,97.1z"/>
		<path style="opacity:5.000000e-02;enable-background:new    ;" d="M113.3,95c-3.9,7.8-13.5,10.9-21.3,7s-10.9-13.5-7-21.3
			L113.3,95z"/>
		<path style="opacity:5.000000e-02;enable-background:new    ;" d="M119.1,97.9c-3.9,7.7-11.7,12.2-19.8,12.2
			c-3.4,0-6.8-0.8-10-2.4c-5.3-2.7-9.2-7.2-11-12.9c-1.8-5.6-1.4-11.6,1.3-16.9l1.6,0.8l0.2,0.1c-2.4,4.8-2.8,10.3-1.2,15.4
			c1.7,5.1,5.3,9.3,10.1,11.7c9.9,5,22.1,1,27.1-8.9l0.2,0.1L119.1,97.9z"/>
		<path style="opacity:5.000000e-02;enable-background:new    ;" d="M216.3,135.7c0,9-7.3,16.2-16.2,16.2c-6.2,0-11.6-3.5-14.4-8.7
			c0-3,0.5-11.3,4.5-20.4c2.7-2.1,6.1-3.3,9.8-3.3C209,119.5,216.3,126.8,216.3,135.7z"/>
		<path style="opacity:0.3;enable-background:new    ;" d="M190.2,122.9c-4,9.2-4.5,17.4-4.5,20.4c-1.2-2.3-1.9-4.8-1.9-7.6
			C183.8,130.5,186.3,125.8,190.2,122.9z"/>
		<path style="opacity:5.000000e-02;enable-background:new    ;" d="M214.9,156.1l-20.4,8.8c0,0-2.6-3.9-5.2-9.9
			c-0.2-0.4-0.4-0.9-0.6-1.4c3.3,2.1,7.2,3.3,11.3,3.3c11.7,0,21.2-9.5,21.2-21.2s-9.5-21.2-21.2-21.2c-2,0-3.9,0.3-5.7,0.8
			c3.4-5.1,8.3-10.2,14.9-14.4c8.1-5.1,18.9-9,33.3-10.4C242.6,90.5,254.3,134.3,214.9,156.1z"/>
		<path style="fill-opacity:0;" d="M200,114.5c-2,0-3.9,0.3-5.7,0.8l0,0c-9,2.5-15.5,10.7-15.5,20.4c0,7.5,4,14.2,9.9,17.9l0,0
			c3.3,2.1,7.2,3.3,11.3,3.3c11.7,0,21.2-9.5,21.2-21.2S211.7,114.5,200,114.5z M200,151.9c-6.2,0-11.6-3.5-14.4-8.7
			c-1.2-2.3-1.9-4.8-1.9-7.6c0-5.2,2.5-9.9,6.4-12.9l0,0c2.7-2.1,6.1-3.3,9.8-3.3c8.9,0,16.2,7.3,16.2,16.2
			C216.3,144.7,209,151.9,200,151.9z"/>
	</g>
	<circle style="fill:#FC5029;" cx="77" cy="126.2" r="21.2"/>
	<g>
		<path style="fill:#FC5029;stroke:#BC3122;stroke-width:5;stroke-miterlimit:10;" d="M177.9,95.7c12.8,15.8,10.3,39-5.6,51.8
			s-39,10.3-51.8-5.6"/>
		<path style="fill:#CE3428;" d="M170.5,101.7c9.5,11.8,7.7,29.2-4.2,38.7c-11.8,9.5-29.2,7.7-38.7-4.2"/>
	</g>
	<path style="fill:#C3F4EB;" d="M247,132.8c0,44.7-49.3,81-110.2,81s-110.2-36.3-110.2-81H247z"/>
	
		<line style="fill:none;stroke:#C3F4EB;stroke-width:9;stroke-linecap:round;stroke-linejoin:round;stroke-miterlimit:10;" x1="95.2" y1="213.8" x2="178.4" y2="213.8"/>
</g>
</svg>
