<?xml version="1.0" encoding="utf-8"?>
<!-- Generator: Adobe Illustrator 22.1.0, SVG Export Plug-In . SVG Version: 6.00 Build 0)  -->
<svg version="1.1" id="Layer_1" xmlns="http://www.w3.org/2000/svg" xmlns:xlink="http://www.w3.org/1999/xlink" x="0px" y="0px"
	 viewBox="0 0 256 256" style="enable-background:new 0 0 256 256;" xml:space="preserve">
<g style="opacity:0;">
	<g>
		<path style="fill:#FFFFFF;" d="M237.7,79.9l0,3.8c0,5.8-6.1,10.4-13.4,10.3l-10.2-0.1l-8.4-0.1l0,4.9l-0.4,54l-0.3,35.8v0.6
			l-0.1,12.3v0l-0.2,19.9l-8.9-0.1l-63.5-0.5l-7.5-0.1l-48.1-0.4l-15.3-0.1l0.2-24.6l0.1-12.5l0.4-59.3l0.2-24v0l0-7.1L53,92.7
			l-9-0.1c-7.4-0.1-13.3-4.8-13.3-10.5l0-3.8c0-0.8,0-1.5,0.1-2.3c0.7-8.8,5.1-16.9,12-23.3c7.3-6.7,17.4-11.5,29.1-13.2
			c13.3-2,26.8-3.3,40.2-4c6.7-0.3,13.5-0.5,20.2-0.5c0.8,0,1.5,0,2.2,0c15.6,0.1,31.3,1.2,46.7,3.1c5.3,0.7,10.6,1.4,15.8,2.3
			c11.9,2,22.1,7.1,29.3,14C233.6,61.5,237.8,70.4,237.7,79.9z"/>
	</g>
</g>
<g>
	<path style="fill:#FFDF43;" d="M236.7,175.8L205,188.5l0.3-35.8c6.5-4.6,11.7-11.1,14.6-18.7L236.7,175.8z"/>
	<polygon style="fill:#FFDF43;" points="124.9,220.8 83.6,237.4 76.8,220.5 	"/>
	<path style="fill:#FFDF43;" d="M181.3,38.2c-15.5-1.9-31.1-3-46.7-3.1c-0.8,0-1.5,0-2.2,0l41.1-16.5L181.3,38.2z"/>
	<path style="fill:#FC3D24;" d="M62.2,123.9l-0.4,59.3l-0.1,12.5c-12.4-7.1-20.8-20.4-20.8-35.7c0-6.5,1.5-12.7,4.2-18.2
		C48.8,134.2,54.8,128,62.2,123.9z"/>
	<path style="fill:#33DD33;" d="M222.7,119.2c0,5.3-1,10.3-2.8,15c-3,7.6-8.1,14.1-14.6,18.7l0.4-54l0-4.9l8.4,0.1
		C219.5,100.9,222.7,109.6,222.7,119.2z"/>
	<path style="fill:#FC3D24;" d="M195.8,221.4c-7.5,9-18.9,14.8-31.5,14.8c-12.9,0-24.4-5.9-32-15.2L195.8,221.4z"/>
	<path style="fill:#FFDF43;" d="M62.5,92.8l0,7.1v0l-0.2,24c-7.4,4.1-13.4,10.3-17.1,17.9L20.3,80.2L30.8,76
		c-0.1,0.8-0.1,1.5-0.1,2.3l0,3.8c0,5.8,5.9,10.5,13.3,10.5l9,0.1L62.5,92.8z"/>
	<path style="fill:#33DD33;" d="M112.1,35.6c-13.5,0.6-26.9,2-40.2,4C60.2,41.3,50.1,46,42.8,52.7c4.9-17.3,20.8-29.9,39.6-29.9
		C94.1,22.8,104.6,27.7,112.1,35.6z"/>
	<g style="opacity:0.1;">
		<path d="M131.2,42.1l1.1,0c0,0,0.1,0,0.1,0c0.7,0,1.4,0,2.1,0c15.3,0.1,30.8,1.1,45.9,3c5.3,0.7,10.5,1.4,15.6,2.2
			c10.1,1.7,19.2,6,25.5,12.2c6.1,5.9,9.3,12.9,9.2,20.3l0,3.8c0,1.4-2.5,3.4-6.3,3.4l-0.1,0l-10.2-0.1l-8.3-0.1c0,0,0,0-0.1,0
			c-3.8,0-7,3.1-7,6.9l0,4.9l-0.4,54l-0.3,35.8c0,0,0,0,0,0.1v0.6l-0.1,12.3c0,0,0,0,0,0l-0.1,12.9l-1.9,0l-63.5-0.5l-7.5-0.1
			l-48.1-0.4l-8.3-0.1l0.1-17.6l0.1-12.5l0.4-59.3l0.2-24l0-7.1c0-3.9-3.1-7-6.9-7L53,85.7l-9-0.1c-2,0-3.9-0.6-5.1-1.6
			c-0.4-0.3-1.2-1-1.2-1.9l0-3.8c0-0.7,0-1.3,0.1-1.8c0.6-6.9,3.9-13.3,9.8-18.7C54,52,63,47.9,72.9,46.4c13-1.9,26.3-3.3,39.5-3.9
			C118.8,42.3,125.1,42.1,131.2,42.1 M131.2,35.1c-6.4,0-12.7,0.2-19.1,0.5c-13.5,0.6-26.9,2-40.2,4C60.2,41.3,50.1,46,42.8,52.7
			c-7,6.4-11.3,14.5-12,23.3c-0.1,0.8-0.1,1.5-0.1,2.3l0,3.8c0,5.8,5.9,10.5,13.3,10.5l9.1,0.1l9.5,0.1l0,7.1v0l-0.2,24l-0.4,59.3
			l-0.1,12.5l-0.2,24.6l15.3,0.1l48.1,0.4l7.5,0.1l63.5,0.5l8.9,0.1l0.2-19.9v0l0.1-12.3v-0.6l0.3-35.8l0.4-54l0-4.9l8.4,0.1
			l10.2,0.1c0,0,0.1,0,0.1,0c7.3,0,13.2-4.6,13.3-10.3l0-3.8c0.1-9.5-4.1-18.4-11.3-25.4c-7.2-7-17.4-12.1-29.3-14
			c-5.3-0.9-10.5-1.6-15.8-2.3c-15.5-1.9-31.1-3-46.7-3.1c-0.8,0-1.5,0-2.2,0C131.9,35.1,131.6,35.1,131.2,35.1L131.2,35.1z"/>
	</g>
</g>
</svg>
