<?xml version="1.0" encoding="utf-8"?>
<!-- Generator: Adobe Illustrator 22.1.0, SVG Export Plug-In . SVG Version: 6.00 Build 0)  -->
<svg version="1.1" id="Layer_1" xmlns="http://www.w3.org/2000/svg" xmlns:xlink="http://www.w3.org/1999/xlink" x="0px" y="0px"
	 viewBox="0 0 256 256" style="enable-background:new 0 0 256 256;" xml:space="preserve">
<g style="opacity:0;">
	<g>
		<path style="fill:#EAA434;" d="M208.7,110.8c-1.6,71-15.9,126.9-71.1,130.6v1.4c0,3.3-2.7,6-6,6s-6-2.7-6-6v-1.4
			c-55.2-3.7-69.5-59.6-71.1-130.6h154C208.6,110.8,208.6,110.8,208.7,110.8z"/>
	</g>
	<g>
		<path style="fill:#EAA434;" d="M221.9,97.3c0,3.7-1.5,7.1-3.9,9.5s-5.7,3.9-9.3,3.9c-0.1,0-0.1,0-0.2,0h-161
			c-7.4,0-13.4-6-13.4-13.4c0-16,6.5-30.5,17-41s25-17,41-17h27.5V19.8c0-4.7,3.8-8.5,8.5-8.5c4.7,0,8.5,3.8,8.5,8.5v19.6H164
			C196,39.4,221.9,65.4,221.9,97.3z"/>
	</g>
</g>
<g>
	<path style="opacity:0.5;enable-background:new    ;" d="M221.9,97.3c0,3.7-1.5,7.1-3.9,9.5s-5.7,3.9-9.3,3.9c-0.1,0-0.1,0-0.2,0
		h-161c-7.4,0-13.4-6-13.4-13.4c0-16,6.5-30.5,17-41s25-17,41-17h27.5V19.8c0-4.7,3.8-8.5,8.5-8.5c4.7,0,8.5,3.8,8.5,8.5v19.6H164
		C196,39.4,221.9,65.4,221.9,97.3z"/>
</g>
</svg>
