<?xml version="1.0" encoding="utf-8"?>
<!-- Generator: Adobe Illustrator 22.1.0, SVG Export Plug-In . SVG Version: 6.00 Build 0)  -->
<svg version="1.1" id="Layer_1" xmlns="http://www.w3.org/2000/svg" xmlns:xlink="http://www.w3.org/1999/xlink" x="0px" y="0px"
	 viewBox="0 0 256 256" style="enable-background:new 0 0 256 256;" xml:space="preserve">
<g>
	<path style="fill:#A2E03F;" d="M250,125c-0.2,62.2-54.8,112.6-122,112.6S6.2,187.3,6,125c0,4.4,5.3,8.5,14.5,12.2
		c0.5,0.2,1,0.4,1.5,0.6c21,7.8,60.6,13.1,106,13.1s85.1-5.3,106-13.1c0.5-0.2,1-0.4,1.5-0.6C244.7,133.6,250,129.4,250,125z"/>
	<path style="fill:#A2E03F;" d="M250,124.9L250,124.9c0,4.5-5.3,8.6-14.5,12.3c-0.5,0.2-1,0.4-1.5,0.6c-4-5.2-16.3-9.8-33.9-13.1
		c-19.1-3.7-44.4-5.9-72.2-5.9s-53.1,2.2-72.2,5.9C38.3,128,26,132.6,22,137.8c-0.5-0.2-1-0.4-1.5-0.6C11.3,133.6,6,129.4,6,125
		v-0.1c0-0.1,0-0.2,0-0.3c0.9-14.1,55.2-25.5,122-25.5s121.1,11.4,122,25.5C250,124.7,250,124.8,250,124.9z"/>
</g>
<g style="opacity:0;">
	<path style="fill:#FFDA3E;" d="M234,137.8c-21,7.8-60.6,13.1-106,13.1s-85.1-5.3-106-13.1c1-1.3,2.5-2.6,4.5-3.8
		c0.3-0.2,0.5-0.3,0.8-0.5c0.2-0.1,0.5-0.3,0.7-0.4c0.9-0.5,1.8-0.9,2.8-1.4c0.3-0.1,0.6-0.3,1-0.4c1-0.4,2.1-0.8,3.2-1.3
		c0.4-0.1,0.8-0.3,1.1-0.4c0.4-0.1,0.8-0.3,1.2-0.4c1.2-0.4,2.5-0.8,3.8-1.2c0.4-0.1,0.9-0.3,1.3-0.4c0.5-0.1,0.9-0.3,1.4-0.4
		c0.9-0.3,1.9-0.5,2.8-0.7c2.9-0.7,6-1.4,9.3-2c19.1-3.7,44.4-5.9,72.2-5.9s53.1,2.2,72.2,5.9c3.3,0.6,6.4,1.3,9.3,2
		c1,0.2,1.9,0.5,2.8,0.7c0.5,0.1,0.9,0.2,1.4,0.4c0.5,0.1,0.9,0.3,1.3,0.4c1.3,0.4,2.6,0.8,3.8,1.2c0.4,0.1,0.8,0.3,1.2,0.4
		c0.4,0.1,0.8,0.3,1.1,0.4c1.1,0.4,2.2,0.8,3.2,1.3c0.3,0.1,0.7,0.3,1,0.4c1,0.5,2,0.9,2.8,1.4c0.2,0.1,0.5,0.3,0.7,0.4
		c0.3,0.2,0.5,0.3,0.8,0.5C231.5,135.2,233,136.5,234,137.8z"/>
	<g>
		<path style="fill:#EFEFEF;" d="M100.3,88c-2.2,0-4-1.8-4-4V49.5c0-2.2,1.8-4,4-4s4,1.8,4,4V84C104.3,86.2,102.5,88,100.3,88z"/>
	</g>
	<g>
		<path style="fill:#EFEFEF;" d="M148.5,74.2c-2.2,0-4-1.8-4-4V35.7c0-2.2,1.8-4,4-4s4,1.8,4,4v34.5
			C152.5,72.4,150.7,74.2,148.5,74.2z"/>
	</g>
	<g>
		<path style="fill:#EFEFEF;" d="M127.3,93.5c-2.2,0-4-1.8-4-4V28.8c0-2.2,1.8-4,4-4s4,1.8,4,4v60.7
			C131.3,91.7,129.5,93.5,127.3,93.5z"/>
	</g>
	<path style="opacity:0.1;enable-background:new    ;" d="M250,125c-0.2,62.2-54.8,112.6-122,112.6S6.2,187.3,6,125
		c0,4.4,5.3,8.5,14.5,12.2c0.5,0.2,1,0.4,1.5,0.6c21,7.8,60.6,13.1,106,13.1s85.1-5.3,106-13.1c0.5-0.2,1-0.4,1.5-0.6
		C244.7,133.6,250,129.4,250,125z"/>
</g>
</svg>
