<?xml version="1.0" encoding="utf-8"?>
<!-- Generator: Adobe Illustrator 22.1.0, SVG Export Plug-In . SVG Version: 6.00 Build 0)  -->
<svg version="1.1" id="Layer_1" xmlns="http://www.w3.org/2000/svg" xmlns:xlink="http://www.w3.org/1999/xlink" x="0px" y="0px"
	 viewBox="0 0 256 256" style="enable-background:new 0 0 256 256;" xml:space="preserve">
<g>
	<path style="fill:#2A4C3F;" d="M82.8,121.3l-29.7,13.9V92.8h36.9c1.9,2.4,3.1,5.1,3.7,7.8C95.2,108.5,91.4,117.3,82.8,121.3z"/>
	<path style="fill:#2A4C3F;" d="M93.5,92.7v9.3c0,10.9-8.8,19.6-19.6,19.6H53.1v-29h40.5V92.7z"/>
	<path style="fill:#2A4C3F;" d="M197.6,92.7v41.8L176.4,123l-3-1.6c-1.2-0.6-2.2-1.3-3.3-2.1l0,0c-5.8-4.8-7.9-11.9-6.4-18.5
		c0.6-2.8,1.9-5.7,3.9-8.1H197.6z"/>
	<path style="fill:#2A4C3F;" d="M197.6,92.7v31.6h-14.2c-2.4,0-4.8-0.4-7-1.3c-2.2-0.9-4.3-2.1-6.1-3.7l0,0c-4-3.6-6.4-8.8-6.4-14.5
		V92.8h33.7V92.7z"/>
	<path style="fill:#2A4C3F;" d="M59.9,213.9c-6.1-4.6-8.4-11.9-6.9-18.7v3.7C53.1,204.9,55.7,210.3,59.9,213.9z"/>
	<path style="fill:#2A4C3F;" d="M186.7,218.2L139.9,240c-10.9,5.1-23.6,4.6-34-1l-40.2-21.6l0,0l-2.8-1.5c-0.9-0.4-1.6-0.9-2.4-1.5
		c-0.1-0.1-0.3-0.1-0.4-0.3l0,0c-4.2-3.6-6.9-9-6.9-14.9v-63.9l29.7-13.9c8.7-4,12.4-12.8,10.7-20.8v-7.8h70.2v8.1
		c-1.5,6.6,0.7,13.7,6.4,18.5l0,0c1.8,1.6,3.9,2.8,6.1,3.7l21.2,11.5v63C199.2,205.5,195.5,214.2,186.7,218.2z"/>
	<path style="fill:#2A4C3F;" d="M62.8,215.8l2.8,1.5c-1.9-0.7-3.7-1.8-5.2-3C61.1,214.8,61.9,215.4,62.8,215.8z"/>
	<path style="fill:#2A4C3F;" d="M93.5,100.6c1.6,7.9-2.1,16.7-10.7,20.8l-29.7,13.9V92.8h40.5V100.6z"/>
	<path style="fill:#2A4C3F;" d="M197.6,92.7v41.8L176.4,123c-2.2-0.9-4.3-2.1-6.1-3.7l0,0c-5.8-4.8-7.9-11.9-6.4-18.5v-8.1H197.6z"
		/>
	<path style="fill:#2A4C3F;" d="M186.5,74l-40.9-23.1c-11-6.3-24.5-6.7-35.8-1L65.3,71.3C57.5,75.1,52.8,82.5,52.6,91
		c-0.3,8.7,4,16.3,11.5,20.5l40.9,23.1c5.8,3.3,12.4,4.9,19,4.9c5.8,0,11.5-1.3,16.9-3.9l44.3-21.6c7.8-3.7,12.5-11.2,12.7-19.7
		C198.2,85.8,194,78.2,186.5,74z M108.7,128.2l-40.9-23.1c-5.1-2.8-7.9-7.9-7.8-13.7c0.1-5.8,3.4-10.7,8.5-13.3l44.3-21.6
		c9.1-4.5,20-4.2,28.8,0.9l40.9,23.1c5.1,2.8,7.9,7.9,7.8,13.7c-0.1,5.8-3.4,10.7-8.5,13.3l-44.3,21.6
		C128.4,133.6,117.7,133.3,108.7,128.2z"/>
</g>
<g style="opacity:0;">
	<path style="fill:#F7F7F7;" d="M190.5,94.2c-0.1,5.8-3.4,10.7-8.5,13.3l-44.3,21.6c-9.3,4.5-20,4.2-28.8-0.9L68,105.1
		c-5.1-2.8-7.9-7.9-7.8-13.7c0.1-5.8,3.4-10.7,8.5-13.3l44.2-21.6c9.1-4.5,20-4.2,28.8,0.9l40.9,23.1
		C187.9,83.3,190.7,88.5,190.5,94.2z"/>
	<path style="fill:#FF881D;" d="M116.2,99.1L106,93.4c-6-3.3-5.7-11.9,0.4-14.9l11.2-5.5c5.4-2.5,11.6-2.4,16.7,0.4l10.2,5.7
		c6,3.3,5.7,11.9-0.4,14.9l-11.2,5.5C127.5,102.2,121.3,102.1,116.2,99.1z"/>
	<path style="opacity:0.3;enable-background:new    ;" d="M186.5,74l-22.7-12.8l-18.2-10.3c-11-6.3-24.5-6.7-35.8-1l-16.3,7.8
		L65.3,71.3C57.5,75.1,52.8,82.5,52.6,91c0,1.9,0.1,3.7,0.4,5.4c1.3,6.3,5.2,11.6,11,15.1l40.9,23.1c5.8,3.3,12.4,4.9,19,4.9
		c5.8,0,11.5-1.3,16.9-3.9l44.3-21.6c6.6-3.3,11-9.1,12.4-16.1c0.1-1.2,0.3-2.4,0.4-3.6C198.2,85.8,194,78.2,186.5,74z M181.9,107.4
		l-44.3,21.6c-9.3,4.5-20,4.2-28.8-0.9l-40.9-23.1c-1.5-0.7-2.7-1.8-3.7-3c-0.1-0.1-0.4-0.4-0.6-0.6c-0.1-0.1-0.3-0.3-0.4-0.4
		c-0.1-0.1-0.3-0.3-0.4-0.6c-0.3-0.3-0.4-0.7-0.6-1c-0.1-0.3-0.3-0.4-0.4-0.7c-0.1-0.1-0.3-0.4-0.3-0.7c-0.1-0.4-0.3-0.7-0.4-1.2
		c0-0.1-0.1-0.4-0.1-0.6c0-0.1-0.1-0.4-0.1-0.6c0-0.3-0.1-0.4-0.1-0.7c0-0.1-0.1-0.4-0.1-0.6c0-0.1,0-0.3,0-0.4
		c0-0.3-0.1-0.6-0.1-0.9c0-0.4,0-0.9,0-1.5c0.1-5.8,3.4-10.7,8.5-13.3l24.9-12.2l19.4-9.4c9.1-4.5,20-4.2,28.8,0.9l21.9,12.4
		l19.1,10.7c1.6,0.9,3,2.1,4.2,3.4c0.1,0.1,0.3,0.3,0.4,0.6c0.1,0.3,0.4,0.4,0.6,0.7c0.1,0.3,0.4,0.6,0.4,0.7l0,0
		c0.1,0.3,0.3,0.6,0.4,0.9c0.1,0.1,0.3,0.4,0.3,0.7c0.1,0.4,0.3,0.7,0.4,1.2c0,0.1,0.1,0.4,0.1,0.6c0,0.1,0.1,0.4,0.1,0.6
		c0,0.3,0.1,0.4,0.1,0.7c0,0.1,0.1,0.4,0.1,0.6c0,0.1,0,0.3,0.1,0.4c0,0.3,0,0.6,0.1,0.9c0,0.4,0,0.9,0,1.5
		C190.4,100,187.1,104.9,181.9,107.4z"/>
</g>
</svg>
