<?xml version="1.0" encoding="utf-8"?>
<!-- Generator: Adobe Illustrator 22.1.0, SVG Export Plug-In . SVG Version: 6.00 Build 0)  -->
<svg version="1.1" id="Layer_1" xmlns="http://www.w3.org/2000/svg" xmlns:xlink="http://www.w3.org/1999/xlink" x="0px" y="0px"
	 viewBox="0 0 256 256" style="enable-background:new 0 0 256 256;" xml:space="preserve">
<g>
	<path style="fill:#FFFFFF;" d="M12.7,138.9c-4.4-3.1-6-8.2-5-12.8v2.5C7.7,132.8,9.7,136.5,12.7,138.9z"/>
	<path style="fill:#FFFFFF;" d="M96.8,141.5l-19.9,9.3v-28.4h24.7c1.3,1.6,2.1,3.4,2.5,5.2C105.1,132.9,102.6,138.8,96.8,141.5z"/>
	<path style="fill:#FFFFFF;" d="M104,64.1v58.2H76.9v28.4L65.7,156c-7.2,3.4-15.7,3.1-22.7-0.7l-27-14.6l-1.8-1
		c-0.5-0.3-1-0.6-1.5-0.9c-3-2.4-5-6.1-5-10.3V61.2c0.9,4.2,3.5,7.8,7.4,10l27.4,15.5c3.9,2.2,8.3,3.3,12.7,3.3
		c3.9,0,7.7-0.9,11.3-2.6l29.7-14.5C100,71,102.8,67.9,104,64.1z"/>
	<path style="fill:#FFFFFF;" d="M14.2,139.8l1.8,1c-1.2-0.5-2.3-1.1-3.3-1.9C13.2,139.2,13.7,139.5,14.2,139.8z"/>
	<path style="fill:#FFFFFF;" d="M104,122.3v6.2c0,7.3-5.9,13.1-13.1,13.1h-14v-19.4H104z"/>
	<path style="fill:#FFFFFF;" d="M173.7,122.3v28l-14.2-7.7l-2-1.1c-0.8-0.4-1.5-0.9-2.2-1.4c0,0,0,0,0,0c-3.9-3.2-5.3-8-4.3-12.4
		c0.4-1.9,1.3-3.8,2.6-5.4H173.7z"/>
	<path style="fill:#FFFFFF;" d="M240.5,143.3L209.2,158c-7.3,3.4-15.8,3.2-22.8-0.7l-12.7-6.9v-28H151v-64h0.1
		c0.1,5.4,3,10.2,7.7,12.8l27.4,15.5c3.9,2.2,8.3,3.3,12.7,3.3c3.9,0,7.7-0.9,11.3-2.6L240,72.9c3.8-1.8,6.5-4.9,7.7-8.7v65.1
		C248.8,134.6,246.3,140.5,240.5,143.3z"/>
	<path style="fill:#FFFFFF;" d="M173.7,122.3v21.2h-9.5c-1.6,0-3.2-0.3-4.7-0.9c-1.5-0.6-2.9-1.4-4.1-2.5c0,0,0,0,0,0
		c-2.7-2.4-4.3-5.9-4.3-9.7v-8H173.7z"/>
	<path style="fill:#FFFFFF;" d="M81.5,203.5c-4.1-3.1-5.6-8-4.6-12.5v2.5C76.9,197.5,78.7,201.1,81.5,203.5z"/>
	<path style="fill:#FFFFFF;" d="M166.4,206.4L135.1,221c-7.3,3.4-15.8,3.1-22.8-0.7l-26.9-14.5c0,0,0,0,0,0l-1.9-1
		c-0.6-0.3-1.1-0.6-1.6-1c-0.1-0.1-0.2-0.1-0.3-0.2c0,0,0,0,0,0c-2.8-2.4-4.6-6-4.6-10v-42.8l19.9-9.3c5.8-2.7,8.3-8.6,7.2-13.9
		v-5.2h47v5.4c-1,4.4,0.5,9.2,4.3,12.4c0,0,0,0,0,0c1.2,1.1,2.6,1.9,4.1,2.5l14.2,7.7v42.2C174.8,197.9,172.3,203.7,166.4,206.4z"/>
	<path style="fill:#FFFFFF;" d="M83.4,204.8l1.9,1c-1.3-0.5-2.5-1.2-3.5-2C82.3,204.1,82.8,204.5,83.4,204.8z"/>
	<path style="fill:#FFFFFF;" d="M104,127.6c1.1,5.3-1.4,11.2-7.2,13.9l-19.9,9.3v-28.4H104V127.6z"/>
	<path style="fill:#FFFFFF;" d="M173.7,122.3v28l-14.2-7.7c-1.5-0.6-2.9-1.4-4.1-2.5c0,0,0,0,0,0c-3.9-3.2-5.3-8-4.3-12.4v-5.4
		H173.7z"/>
	<path style="fill:#FFFFFF;" d="M97.1,46L69.6,30.4c-7.4-4.2-16.4-4.5-24-0.7L15.9,44.2c-5.2,2.5-8.4,7.5-8.5,13.2
		c0,1.3,0.1,2.5,0.3,3.7c0.9,4.2,3.5,7.8,7.4,10l27.4,15.5c3.9,2.2,8.3,3.3,12.7,3.3c3.9,0,7.7-0.9,11.3-2.6l29.7-14.5
		c3.8-1.8,6.5-5,7.8-8.8c0.5-1.4,0.7-2.9,0.8-4.4C105,53.9,102.1,48.8,97.1,46z M94.1,68.4L64.3,82.9c-6.1,3-13.4,2.8-19.3-0.6
		L17.6,66.8c-3.4-1.9-5.3-5.3-5.2-9.2c0-0.1,0-0.1,0-0.2c0.2-3.8,2.3-7,5.7-8.7l29.7-14.5c6.2-3,13.4-2.8,19.3,0.6l27.4,15.5
		c2.7,1.5,4.5,4.1,5,7.1c0.1,0.7,0.2,1.4,0.2,2.1C99.7,63.4,97.5,66.7,94.1,68.4z"/>
	<path style="fill:#FFFFFF;" d="M240.8,46l-27.4-15.5c-7.4-4.2-16.4-4.5-24-0.7l-29.7,14.5c-5.2,2.5-8.4,7.5-8.5,13.2
		c0,0.3,0,0.6,0,0.9c0.1,5.4,3,10.2,7.7,12.8l27.4,15.5c3.9,2.2,8.3,3.3,12.7,3.3c3.9,0,7.7-0.9,11.3-2.6L240,72.9
		c3.8-1.8,6.5-4.9,7.7-8.7c0.5-1.4,0.8-2.9,0.8-4.5C248.7,53.9,245.8,48.8,240.8,46z M237.8,68.4l-29.7,14.5
		c-6.2,3-13.4,2.8-19.3-0.6l-27.4-15.5c-3.1-1.8-5.1-4.9-5.2-8.5c0-0.2,0-0.5,0-0.7c0.1-3.9,2.3-7.2,5.7-8.9l29.7-14.5
		c6.2-3,13.4-2.8,19.4,0.6l27.4,15.5c3,1.7,4.9,4.6,5.2,8c0,0.4,0,0.8,0,1.2C243.5,63.4,241.3,66.7,237.8,68.4z"/>
	<path style="fill:#FFFFFF;" d="M166.3,109.8l-27.4-15.5c-7.4-4.2-16.4-4.5-24-0.7L85.1,108c-5.2,2.5-8.4,7.5-8.5,13.2
		c-0.2,5.8,2.7,10.9,7.7,13.7l27.4,15.5c3.9,2.2,8.3,3.3,12.7,3.3c3.9,0,7.7-0.9,11.3-2.6l29.7-14.5c5.2-2.5,8.4-7.5,8.5-13.2
		C174.1,117.7,171.3,112.6,166.3,109.8z M114.2,146.1l-27.4-15.5c-3.4-1.9-5.3-5.3-5.2-9.2c0.1-3.9,2.3-7.2,5.7-8.9L117,98
		c6.1-3,13.4-2.8,19.3,0.6l27.4,15.5c3.4,1.9,5.3,5.3,5.2,9.2c-0.1,3.9-2.3,7.2-5.7,8.9l-29.7,14.5
		C127.4,149.7,120.2,149.5,114.2,146.1z"/>
</g>
<g style="opacity:0;">
	<path style="fill:#F7F7F7;" d="M99.8,59.5c-0.1,3.9-2.3,7.2-5.7,8.9L64.3,82.9c-6.1,3-13.4,2.8-19.3-0.6L17.6,66.8
		c-3.4-1.9-5.3-5.3-5.2-9.2c0.1-3.9,2.3-7.2,5.7-8.9l29.7-14.5c6.2-3,13.4-2.8,19.3,0.6l27.4,15.5C98,52.2,99.9,55.7,99.8,59.5z"/>
	<path style="fill:#F7F7F7;" d="M243.6,59.5c-0.1,3.9-2.3,7.2-5.7,8.9l-29.7,14.5c-6.2,3-13.4,2.8-19.3-0.6l-27.4-15.5
		c-3.4-1.9-5.3-5.3-5.2-9.2c0.1-3.9,2.3-7.2,5.7-8.9l29.7-14.5c6.2-3,13.4-2.8,19.4,0.6l27.4,15.5C241.8,52.2,243.7,55.7,243.6,59.5
		z"/>
	<path style="fill:#F7F7F7;" d="M169,123.3c-0.1,3.9-2.3,7.2-5.7,8.9l-29.7,14.5c-6.2,3-13.4,2.8-19.3-0.6l-27.4-15.5
		c-3.4-1.9-5.3-5.3-5.2-9.2c0.1-3.9,2.3-7.2,5.7-8.9L117,98c6.1-3,13.4-2.8,19.3,0.6l27.4,15.5C167.2,116,169.1,119.5,169,123.3z"/>
	<path style="fill:#FF881D;" d="M50,62.8L43.2,59c-4-2.2-3.8-8,0.3-10l7.5-3.7c3.6-1.7,7.8-1.6,11.2,0.3l6.8,3.8c4,2.2,3.8,8-0.3,10
		l-7.5,3.7C57.6,64.9,53.4,64.8,50,62.8z"/>
	<path style="fill:#FF881D;" d="M193.7,62.8L187,59c-4-2.2-3.8-8,0.3-10l7.5-3.7c3.6-1.7,7.8-1.6,11.2,0.3l6.8,3.8
		c4,2.2,3.8,8-0.3,10l-7.5,3.7C201.4,64.9,197.2,64.8,193.7,62.8z"/>
	<path style="fill:#FF881D;" d="M119.2,126.6l-6.8-3.8c-4-2.2-3.8-8,0.3-10l7.5-3.7c3.6-1.7,7.8-1.6,11.2,0.3l6.8,3.8
		c4,2.2,3.8,8-0.3,10l-7.5,3.7C126.8,128.7,122.6,128.6,119.2,126.6z"/>
	<path style="opacity:0.4;" d="M97.1,46L69.6,30.4c-7.4-4.2-16.4-4.5-24-0.7L15.9,44.2c-5.2,2.5-8.4,7.5-8.5,13.2
		c-0.2,5.8,2.7,10.9,7.7,13.7l27.4,15.5c3.9,2.2,8.3,3.3,12.7,3.3c3.9,0,7.7-0.9,11.3-2.6l29.7-14.5c5.2-2.5,8.4-7.5,8.5-13.2
		C105,53.9,102.1,48.8,97.1,46z M45,82.3L17.6,66.8c-3.4-1.9-5.3-5.3-5.2-9.2c0.1-3.9,2.3-7.2,5.7-8.9l29.7-14.5
		c6.2-3,13.4-2.8,19.3,0.6l27.4,15.5c3.4,1.9,5.3,5.3,5.2,9.2c-0.1,3.9-2.3,7.2-5.7,8.9L64.3,82.9C58.2,85.9,51,85.7,45,82.3z"/>
	<path style="opacity:0.4;" d="M240.8,46l-27.4-15.5c-7.4-4.2-16.4-4.5-24-0.7l-29.7,14.5c-5.2,2.5-8.4,7.5-8.5,13.2
		c-0.2,5.8,2.7,10.9,7.7,13.7l27.4,15.5c3.9,2.2,8.3,3.3,12.7,3.3c3.9,0,7.7-0.9,11.3-2.6L240,72.9c5.2-2.5,8.4-7.5,8.5-13.2
		C248.7,53.9,245.8,48.8,240.8,46z M188.8,82.3l-27.4-15.5c-3.4-1.9-5.3-5.3-5.2-9.2c0.1-3.9,2.3-7.2,5.7-8.9l29.7-14.5
		c6.2-3,13.4-2.8,19.4,0.6l27.4,15.5c3.4,1.9,5.3,5.3,5.2,9.2c-0.1,3.9-2.3,7.2-5.7,8.9l-29.7,14.5C202,85.9,194.8,85.7,188.8,82.3z
		"/>
	<path style="opacity:0.3;" d="M166.3,109.8l-15.2-8.6l-12.2-6.9c-7.4-4.2-16.4-4.5-24-0.7L104,98.8L85.1,108
		c-5.2,2.5-8.4,7.5-8.5,13.2c0,1.3,0.1,2.5,0.3,3.6c0.9,4.2,3.5,7.8,7.4,10.1l27.4,15.5c3.9,2.2,8.3,3.3,12.7,3.3
		c3.9,0,7.7-0.9,11.3-2.6l29.7-14.5c4.4-2.2,7.4-6.1,8.3-10.8c0.1-0.8,0.2-1.6,0.3-2.4C174.1,117.7,171.3,112.6,166.3,109.8z
		 M163.2,132.2l-29.7,14.5c-6.2,3-13.4,2.8-19.3-0.6l-27.4-15.5c-1-0.5-1.8-1.2-2.5-2c-0.1-0.1-0.3-0.3-0.4-0.4
		c-0.1-0.1-0.2-0.2-0.3-0.3c-0.1-0.1-0.2-0.2-0.3-0.4c-0.2-0.2-0.3-0.5-0.4-0.7c-0.1-0.2-0.2-0.3-0.3-0.5c-0.1-0.1-0.2-0.3-0.2-0.5
		c-0.1-0.3-0.2-0.5-0.3-0.8c0-0.1-0.1-0.3-0.1-0.4c0-0.1-0.1-0.3-0.1-0.4c0-0.2-0.1-0.3-0.1-0.5c0-0.1-0.1-0.3-0.1-0.4
		c0-0.1,0-0.2,0-0.3c0-0.2-0.1-0.4-0.1-0.6c0-0.3,0-0.6,0-1c0.1-3.9,2.3-7.2,5.7-8.9l16.7-8.2l13-6.3c6.1-3,13.4-2.8,19.3,0.6
		l14.7,8.3l12.8,7.2c1.1,0.6,2,1.4,2.8,2.3c0.1,0.1,0.2,0.2,0.3,0.4c0.1,0.2,0.3,0.3,0.4,0.5c0.1,0.2,0.3,0.4,0.3,0.5c0,0,0,0,0,0
		c0.1,0.2,0.2,0.4,0.3,0.6c0.1,0.1,0.2,0.3,0.2,0.5c0.1,0.3,0.2,0.5,0.3,0.8c0,0.1,0.1,0.3,0.1,0.4c0,0.1,0.1,0.3,0.1,0.4
		c0,0.2,0.1,0.3,0.1,0.5c0,0.1,0.1,0.3,0.1,0.4c0,0.1,0,0.2,0.1,0.3c0,0.2,0,0.4,0.1,0.6c0,0.3,0,0.6,0,1
		C168.9,127.2,166.7,130.5,163.2,132.2z"/>
	<path style="opacity:0.1;" d="M104,64.1v34.7L85.1,108c-5.2,2.5-8.4,7.5-8.5,13.2c0,1.3,0.1,2.5,0.3,3.6v25.9L65.7,156
		c-7.2,3.4-15.7,3.1-22.7-0.7l-27-14.6l-1.8-1c-0.5-0.3-1-0.6-1.5-0.9c-3-2.4-5-6.1-5-10.3V61.2c0.9,4.2,3.5,7.8,7.4,10l27.4,15.5
		c3.9,2.2,8.3,3.3,12.7,3.3c3.9,0,7.7-0.9,11.3-2.6l29.7-14.5C100,71,102.8,67.9,104,64.1z"/>
	<path style="opacity:0.1;" d="M240.5,143.3L209.2,158c-7.3,3.4-15.8,3.2-22.8-0.7l-12.7-6.9v-24.6c0.1-0.8,0.2-1.6,0.3-2.4
		c0.2-5.8-2.7-10.9-7.7-13.7l-15.2-8.6V58.3h0.1c0.1,5.4,3,10.2,7.7,12.8l27.4,15.5c3.9,2.2,8.3,3.3,12.7,3.3
		c3.9,0,7.7-0.9,11.3-2.6L240,72.9c3.8-1.8,6.5-4.9,7.7-8.7v65.1C248.8,134.6,246.3,140.5,240.5,143.3z"/>
</g>
</svg>
