<?xml version="1.0" encoding="utf-8"?>
<!-- Generator: Adobe Illustrator 22.1.0, SVG Export Plug-In . SVG Version: 6.00 Build 0)  -->
<svg version="1.1" id="Layer_1" xmlns="http://www.w3.org/2000/svg" xmlns:xlink="http://www.w3.org/1999/xlink" x="0px" y="0px"
	 viewBox="0 0 256 256" style="enable-background:new 0 0 256 256;" xml:space="preserve">
<g>
	<path style="fill:#B6FF76;" d="M219,133.8c-1.8,23.7-11.8,55.9-49.4,71.6h-89c0,0-40.7-13.1-47.5-71.6L219,133.8L219,133.8z"/>
</g>
<g style="opacity:0;">
	<path style="fill:none;stroke:#DDDDDD;stroke-width:12;stroke-linecap:round;stroke-linejoin:round;stroke-miterlimit:10;" d="
		M219.1,117.7c0,0,36-4.7,25.5,24.5c-9.6,26.6-38,32.3-38,32.3"/>
	<path style="fill:#EFEFEF;" d="M219,133.8H33.2c-1-8.5-1.3-17.9-0.6-28.4h185.1C217.7,105.4,220.3,117.6,219,133.8z"/>
	<polyline style="fill:#FCDA32;" points="75.3,105.4 75.3,128.1 61,137.6 61,169.9 90.6,169.7 90.6,137.4 75.3,128.1 	"/>
	
		<line style="fill:none;stroke:#FCDA32;stroke-width:3;stroke-linejoin:round;stroke-miterlimit:10;" x1="75.3" y1="133.8" x2="75.3" y2="105.4"/>
	
		<line style="fill:none;stroke:#DDDDDD;stroke-width:12;stroke-linecap:round;stroke-linejoin:round;stroke-miterlimit:10;" x1="67.3" y1="210.5" x2="182.3" y2="210.5"/>
	<g style="opacity:0.3;">
		<path style="fill:#FFFFFF;" d="M118,91.6c-1.4,0-2.5-1.1-2.5-2.5V49.5c0-1.4,1.1-2.5,2.5-2.5s2.5,1.1,2.5,2.5v39.6
			C120.5,90.4,119.4,91.6,118,91.6z"/>
	</g>
	<g style="opacity:0.3;">
		<path style="fill:#FFFFFF;" d="M143,79.1c-1.4,0-2.5-1.1-2.5-2.5V37c0-1.4,1.1-2.5,2.5-2.5s2.5,1.1,2.5,2.5v39.6
			C145.5,77.9,144.4,79.1,143,79.1z"/>
	</g>
	<g style="opacity:0.3;">
		<path style="fill:#FFFFFF;" d="M133.5,98.6c-1.4,0-2.5-1.1-2.5-2.5V34c0-1.4,1.1-2.5,2.5-2.5s2.5,1.1,2.5,2.5v62.1
			C136,97.4,134.9,98.6,133.5,98.6z"/>
	</g>
</g>
</svg>
