<?xml version="1.0" encoding="utf-8"?>
<!-- Generator: Adobe Illustrator 22.1.0, SVG Export Plug-In . SVG Version: 6.00 Build 0)  -->
<svg version="1.1" id="Layer_1" xmlns="http://www.w3.org/2000/svg" xmlns:xlink="http://www.w3.org/1999/xlink" x="0px" y="0px"
	 viewBox="0 0 256 256" style="enable-background:new 0 0 256 256;" xml:space="preserve">
<g>
	<g>
		<path style="fill:#B76A25;" d="M118,47.1c-0.1,1-0.4,1.9-0.8,2.8l-2.1,5.3l-5.7,14.5l0,0l-2.9,7.4l0,0l-5.1,13l-2.8,7.3l-5.3,13.4
			l-2.8,7.1l-5.9,15l-2.8,7.2l-1.7,4.3c-1.1,2.8-3,5.1-5.4,6.5c-1.8,1.1-3.7,1.8-5.8,2c-2,0.2-4.1-0.1-6.1-0.9l-10.5-4.1l-9-3.6
			l-16.4-6.4l0,0l-8.5-3.3l-0.4-0.2c-6.5-2.5-9.9-9.5-8.1-16c0.1-0.5,0.3-0.9,0.5-1.4l2.4-6.1l0,0l4.4-11.1l2.8-7.1l5.6-14.2
			l2.8-7.1L34,56.6l2.8-7.2L42,36l2.8-7.1l2.5-6.4c1.2-3.1,3.4-5.5,6.1-6.9c1.8-1,3.9-1.6,6-1.6c1.8-0.1,3.6,0.2,5.3,0.9l11.7,4.6
			l8.5,3.3l18.4,7.2l6.2,2.4c0.7,0.3,1.4,0.6,2,1C116.3,36.3,118.8,41.7,118,47.1z"/>
	</g>
</g>
<g style="opacity:0;">
	<path style="fill:#EF4162;" d="M146.1,198.9l-34.7-22c-7.9-5-10.3-15.5-5.2-23.4l50.5-79.7c5-7.9,15.5-10.3,23.4-5.2l34.7,22
		c7.9,5,10.3,15.5,5.2,23.4l-50.5,79.7C164.5,201.5,154.1,203.9,146.1,198.9z"/>
	
		<line style="fill:none;stroke:#EF4162;stroke-width:6;stroke-linecap:round;stroke-linejoin:round;stroke-miterlimit:10;" x1="185.7" y1="65.1" x2="214.6" y2="83.5"/>
	<path style="fill:#EF4162;" d="M191.7,62.1l24.4,15.5c2.8,1.8,6.6,1.3,9.9-1.2l18.4-13.7c3-2.2,3.6-6.8,1.1-8.4l-44.2-28
		c-2.4-1.5-6.1,0.7-7,4.2l-5.6,21.3C187.6,56.2,188.8,60.2,191.7,62.1z"/>
	
		<line style="fill:none;stroke:#EF4162;stroke-width:6;stroke-linecap:round;stroke-linejoin:round;stroke-miterlimit:10;" x1="110.7" y1="183.3" x2="139.7" y2="201.6"/>
	<path style="fill:#EF4162;" d="M110.6,190l24.4,15.5c2.8,1.8,4,5.4,3.2,9.5l-4.6,22.5c-0.7,3.7-4.6,6.1-7.1,4.5l-44.2-28
		c-2.4-1.5-2-5.8,0.8-8.1l16.9-14.2C103.5,188.8,107.6,188.2,110.6,190z"/>
	<path style="opacity:0.1;enable-background:new    ;" d="M18.3,134.6l-0.4-0.2c-6.5-2.5-9.9-9.5-8.1-16L18.3,134.6z"/>
	<polygon style="opacity:0.1;enable-background:new    ;" points="43.3,144.3 26.9,137.9 26.9,137.9 12.7,110.9 12.7,110.9 
		17.1,99.8 	"/>
	<path style="opacity:0.1;enable-background:new    ;" d="M69,152.9c-2,0.2-4.1-0.1-6.1-0.9l-10.5-4.1L19.9,92.7l5.6-14.2L69,152.9z
		"/>
	<path style="opacity:0.1;enable-background:new    ;" d="M81.9,140.1l-1.7,4.3c-1.1,2.8-3,5.1-5.4,6.5L28.2,71.3L34,56.6
		L81.9,140.1z"/>
	<polygon style="opacity:0.1;enable-background:new    ;" points="90.6,117.9 84.7,132.9 36.8,49.4 42,36 	"/>
	<path style="opacity:0.1;enable-background:new    ;" d="M98.6,97.4l-5.3,13.4L44.8,29l2.5-6.4c1.2-3.1,3.4-5.5,6.1-6.9L98.6,97.4z
		"/>
	<path style="opacity:0.1;enable-background:new    ;" d="M106.6,77.1L106.6,77.1l-5.1,13L59.4,14c1.8-0.1,3.6,0.2,5.3,0.9l11.7,4.6
		L106.6,77.1z"/>
	<polygon style="opacity:0.1;enable-background:new    ;" points="115.2,55.2 109.5,69.7 85,22.9 103.4,30.1 	"/>
	<path style="opacity:0.3;fill:#FFFFFF;enable-background:new    ;" d="M43,56.2c-0.3,0-0.7-0.1-1-0.2c-1.3-0.5-1.9-2-1.3-3.3
		l10.4-24.8l0.9-2.3c1.2-3.8,5.1-6.3,9.5-5.9c1.3,0.1,2.6,0.5,3.9,1.1l4.2,2.1c1.2,0.6,1.7,2.1,1.1,3.4c-0.6,1.2-2.1,1.7-3.4,1.1
		l-4.2-2.1c-0.7-0.4-1.4-0.6-2-0.6c-2.1-0.2-3.9,0.9-4.3,2.5v0.1l-0.9,2.4v0.1L45.3,54.6C44.9,55.6,44,56.2,43,56.2z"/>
	<path style="opacity:0.1;enable-background:new    ;" d="M118,47.1l-6.4-13.6C116.3,36.3,118.8,41.7,118,47.1z"/>
</g>
</svg>
