<?xml version="1.0" encoding="utf-8"?>
<!-- Generator: Adobe Illustrator 22.1.0, SVG Export Plug-In . SVG Version: 6.00 Build 0)  -->
<svg version="1.1" id="Layer_1" xmlns="http://www.w3.org/2000/svg" xmlns:xlink="http://www.w3.org/1999/xlink" x="0px" y="0px"
	 viewBox="0 0 256 256" style="enable-background:new 0 0 256 256;" xml:space="preserve">
<g>
	<path style="fill:#FFFFFF;" d="M123.7,248.3c-0.7-0.4-1.4-0.9-2.1-1.4c-0.6-0.5-1.2-1.1-1.8-1.7L123.7,248.3z"/>
	<path style="fill:#FFFFFF;" d="M162,232.7c-11.2,14.1-27,20.6-37.2,16.1c-0.4-0.2-0.8-0.4-1.1-0.5l-3.8-3.1l-83-66.2l-4.7-3.8
		l45.3-56.7l4.7,3.7l87.8,70.1l-0.4,0.5C176.1,201.8,173.3,218.6,162,232.7z"/>
	<path style="fill:#FFFFFF;" d="M124.8,248.8l-0.2,0.2l-1-0.8C124.1,248.4,124.5,248.6,124.8,248.8z"/>
	<path style="fill:#FFFFFF;" d="M77.4,118.5l-45.3,56.7l4.7,3.8c-1-0.5-1.8-1-2.7-1.7c-9.9-7.9-7.7-27.1,4.9-42.9
		c12.6-15.8,30.9-22.2,40.8-14.3c0.8,0.7,1.6,1.4,2.2,2.2L77.4,118.5z"/>
	<path style="fill:#FFFFFF;" d="M199,201.3c-0.7-0.4-1.4-0.9-2.1-1.4c-0.6-0.5-1.2-1.1-1.8-1.7L199,201.3z"/>
	<path style="fill:#FFFFFF;" d="M237.3,185.8c-11.2,14.1-27,20.6-37.2,16.1c-0.4-0.2-0.8-0.4-1.1-0.6l-3.8-3.1L112.1,132l-4.7-3.7
		l45.3-56.7l4.7,3.7l87.9,70.1l-0.4,0.5C251.4,154.9,248.5,171.7,237.3,185.8z"/>
	<path style="fill:#FFFFFF;" d="M200.1,201.9l-0.2,0.2l-1-0.8C199.3,201.5,199.7,201.7,200.1,201.9z"/>
	<path style="fill:#FFFFFF;" d="M152.6,71.6l-45.3,56.7l4.7,3.7c-0.9-0.5-1.8-1-2.7-1.7c-9.9-7.9-7.7-27.1,4.9-42.9
		c12.6-15.8,30.9-22.2,40.8-14.3c0.8,0.7,1.6,1.4,2.2,2.2L152.6,71.6z"/>
</g>
<g style="opacity:0;">
	<circle style="fill:#F9D5B4;" cx="64.4" cy="55.3" r="36.9"/>
	<circle style="fill:#E5B589;" cx="64.4" cy="55.3" r="29.2"/>
	<circle style="fill:#F22C2C;" cx="64.4" cy="55.3" r="24.1"/>
	
		<ellipse transform="matrix(0.6236 -0.7818 0.7818 0.6236 -94.7239 100.5078)" style="opacity:5.000000e-02;" cx="57" cy="148.6" rx="36.6" ry="22.9"/>
	
		<ellipse transform="matrix(0.6236 -0.7818 0.7818 0.6236 -29.7294 141.6715)" style="opacity:5.000000e-02;" cx="132.2" cy="101.7" rx="36.6" ry="22.9"/>
	<g style="opacity:0.1;">
		<path d="M46.1,168.9c-0.4,0-0.8,0-1.3-0.1c-4.9-0.4-8.8-3.5-11-8.5c-3.3-7.5,3.7-21.3,12.1-29.8c8.1-8.1,16.8-11,24.1-7.9
			c4,1.7,6.7,4.5,8,8.3c3.1,8.8-2.7,19.9-2.9,20.3c-0.6,1.2-2.2,1.7-3.4,1c-1.2-0.6-1.7-2.2-1-3.4l0,0c0.1-0.1,5-9.6,2.6-16.4
			c-0.9-2.4-2.6-4.2-5.3-5.3c-7.4-3.2-15.4,3.7-18.5,6.8c-8.5,8.6-13,20.1-11.1,24.2c1.5,3.4,3.8,5.3,6.9,5.6
			c4.6,0.4,10.4-2.8,13.6-7.5c4.2-6.1,5.7-14.3,4.1-16.9c-0.2-0.4-0.6-0.8-1.8-0.7c-8.5,0.7-9.8,14.6-9.8,14.7
			c-0.1,1.4-1.3,2.4-2.7,2.3c-1.4-0.1-2.4-1.3-2.3-2.7c0.1-0.7,1.8-18.2,14.4-19.3c2.9-0.2,5.2,0.9,6.6,3.2
			c3.1,5.2,0.2,15.6-4.3,22.2C59.7,164.2,52.9,168.9,46.1,168.9z"/>
	</g>
	<g style="opacity:0.1;">
		<path d="M121.4,122c-0.4,0-0.8,0-1.3-0.1c-4.9-0.4-8.8-3.5-11-8.5c-3.3-7.5,3.7-21.3,12.1-29.8c8.1-8.1,16.8-11,24.1-7.9
			c4,1.7,6.7,4.5,8,8.3c3.1,8.8-2.7,19.9-2.9,20.3c-0.6,1.2-2.2,1.7-3.4,1c-1.2-0.6-1.7-2.2-1-3.4l0,0c0-0.1,5-9.6,2.6-16.4
			c-0.9-2.4-2.6-4.2-5.3-5.3c-7.4-3.2-15.4,3.7-18.5,6.8c-8.5,8.6-13,20.1-11.1,24.2c1.5,3.4,3.8,5.3,6.9,5.6
			c4.6,0.4,10.4-2.8,13.6-7.5c4.2-6.1,5.7-14.3,4.1-16.9c-0.2-0.4-0.6-0.8-1.8-0.7c-8.5,0.7-9.8,14.6-9.8,14.7
			c-0.1,1.4-1.3,2.4-2.7,2.3c-1.4-0.1-2.4-1.3-2.3-2.7c0.1-0.7,1.8-18.2,14.4-19.3c2.9-0.2,5.2,0.9,6.6,3.2
			c3.1,5.2,0.2,15.6-4.3,22.2C134.9,117.3,128.2,122,121.4,122z"/>
	</g>
</g>
</svg>
