<?xml version="1.0" encoding="utf-8"?>
<!-- Generator: Adobe Illustrator 22.1.0, SVG Export Plug-In . SVG Version: 6.00 Build 0)  -->
<svg version="1.1" id="Layer_1" xmlns="http://www.w3.org/2000/svg" xmlns:xlink="http://www.w3.org/1999/xlink" x="0px" y="0px"
	 viewBox="0 0 256 256" style="enable-background:new 0 0 256 256;" xml:space="preserve">
<g>
	<path style="fill:#FFB83B;" d="M91.7,274.7c-0.7-0.6-1.3-1.2-2-1.9c-0.5-0.7-1.1-1.4-1.6-2.2L91.7,274.7z"/>
	<path style="fill:#FFB83B;" d="M92.7,275.5l-0.3,0.2l-0.9-1C92.1,274.9,92.5,275.2,92.7,275.5z"/>
	<path style="fill:#FFB83B;" d="M181.4,238.6c-0.7-0.6-1.3-1.2-2-1.9c-0.5-0.7-1.1-1.4-1.6-2.2L181.4,238.6z"/>
	<path style="fill:#FFB83B;" d="M225.4,229.2c-14.7,13-32.9,17-43,10.2c-0.4-0.3-0.8-0.6-1.1-0.9l-3.5-4l-76.6-86.8l-4.3-4.9
		l59.4-52.2l4.3,4.9l81,91.9l-0.5,0.5C246.4,198.8,240.1,216.2,225.4,229.2z"/>
	<path style="fill:#FFB83B;" d="M182.4,239.4l-0.3,0.2l-0.9-1C181.7,238.9,182,239.1,182.4,239.4z"/>
	<path style="fill:#FFB83B;" d="M156.2,90.6l-59.4,52.2l4.3,4.9c-0.9-0.7-1.7-1.4-2.6-2.3c-9.1-10.4-3.1-30.5,13.4-45.1
		s37.4-17.9,46.5-7.6c0.7,0.9,1.5,1.8,1.9,2.8L156.2,90.6z"/>
</g>
<g style="opacity:0;">
	<circle style="fill:#F9D5B4;" cx="64.7" cy="56.4" r="40.2"/>
	<circle style="fill:#E5B589;" cx="64.7" cy="56.4" r="31.8"/>
	<circle style="fill:#F22C2C;" cx="64.7" cy="56.4" r="26.3"/>
	
		<ellipse transform="matrix(0.7503 -0.6611 0.6611 0.7503 -46.6069 114.745)" style="opacity:5.000000e-02;enable-background:new    ;" cx="128.6" cy="119.1" rx="39.9" ry="25"/>
	<g style="opacity:0.1;">
		<path d="M113.2,138.8c-0.4-0.1-0.9-0.2-1.4-0.4c-5.2-1.4-8.8-5.4-10.2-11.2c-2.1-8.7,8-22.1,18.6-29.7c10.2-7.2,20.1-8.6,27.4-3.9
			c4,2.6,6.3,6.1,7,10.4c1.7,10-6.7,20.8-7,21.2c-0.9,1.2-2.7,1.4-3.8,0.4c-1.2-0.9-1.4-2.7-0.4-3.8l0,0c0-0.1,7.2-9.3,5.9-17.1
			c-0.5-2.7-2-5-4.7-6.7c-7.3-4.8-17.2,1-21.1,3.8c-10.8,7.6-17.8,19.1-16.5,23.9c1,3.9,3.1,6.4,6.3,7.3c4.9,1.3,11.7-1,16-5.5
			c5.7-5.7,8.8-14.3,7.6-17.4c-0.1-0.5-0.5-1-1.8-1.1c-9.3-0.9-13.3,13.8-13.3,13.9c-0.4,1.5-1.9,2.3-3.3,2c-1.5-0.4-2.3-1.9-2-3.3
			c0.2-0.7,5.4-19.2,19.1-18c3.1,0.3,5.4,2,6.5,4.7c2.3,6.2-2.7,16.8-8.8,23C128.6,136.3,120.5,140.1,113.2,138.8z"/>
	</g>
</g>
</svg>
