<?xml version="1.0" encoding="utf-8"?>
<!-- Generator: Adobe Illustrator 22.1.0, SVG Export Plug-In . SVG Version: 6.00 Build 0)  -->
<svg version="1.1" id="Layer_1" xmlns="http://www.w3.org/2000/svg" xmlns:xlink="http://www.w3.org/1999/xlink" x="0px" y="0px"
	 viewBox="0 0 256 256" style="enable-background:new 0 0 256 256;" xml:space="preserve">
<g style="opacity:0;">
	<path style="fill:#E22B5B;" d="M114.3,110.6V230c0,6.8-5.5,12.4-12.4,12.4H69c-6.8,0-12.4-5.5-12.4-12.4V110.6
		c0-7.4,2.7-14.6,7.5-20.3l9.5-11c2.6-3,4-6.9,4-10.8V20.2c0-2.8,2.3-5,5-5h5.5c2.8,0,5,2.3,5,5v48.2c0,4,1.4,7.8,4,10.8l9.5,11
		C111.7,95.9,114.3,103.1,114.3,110.6z"/>
	<path style="fill:#E22B5B;" d="M184,167.7c-4.1,1.9-8.7,3.2-13.4,3.5c-0.8,0-1.5,0.1-2.3,0.1c-0.9,0-1.8,0-2.7-0.1
		c-4.6-0.3-9-1.5-13-3.4c-14.9-7.1-22.8-23.7-19.6-39.9l1.8-9.3h67l1.8,9.3C206.8,144,198.9,160.6,184,167.7z"/>
</g>
<g>
	<g>
		<path style="fill:#E5F9F8;" d="M183,240.9h-31.1c-1.4,0-2.5-1.1-2.5-2.5s1.1-2.5,2.5-2.5H183c1.4,0,2.5,1.1,2.5,2.5
			S184.4,240.9,183,240.9z"/>
	</g>
	<g>
		<path style="fill:#E5F9F8;" d="M170.6,171.2v67.3c0,1.4-1.1,2.5-2.5,2.5s-2.5-1.1-2.5-2.5v-67.3c0.9,0.1,1.8,0.1,2.7,0.1
			C169.1,171.2,169.8,171.2,170.6,171.2z"/>
	</g>
	<rect x="62.1" y="126.3" style="fill:#FFFFFF;" width="46.7" height="74.4"/>
	<polygon style="fill:#E5F9F8;" points="201.8,118.5 134.8,118.5 140.6,88.5 196,88.5 	"/>
	<path style="opacity:0.3;enable-background:new    ;" d="M93.2,20.2v45.5H77.7V20.2c0-2.8,2.3-5,5-5h5.5
		C91,15.2,93.2,17.4,93.2,20.2z"/>
	<path style="opacity:0.4;fill:#FFFFFF;enable-background:new    ;" d="M145.2,127L145.2,127c-1.6-0.3-2.7-1.9-2.4-3.5l3.5-17.4
		c0.3-1.6,1.9-2.7,3.5-2.4l0,0c1.6,0.3,2.7,1.9,2.4,3.5l-3.5,17.4C148.4,126.3,146.8,127.3,145.2,127z"/>
</g>
</svg>
