<?xml version="1.0" encoding="utf-8"?>
<!-- Generator: Adobe Illustrator 22.1.0, SVG Export Plug-In . SVG Version: 6.00 Build 0)  -->
<svg version="1.1" id="Layer_1" xmlns="http://www.w3.org/2000/svg" xmlns:xlink="http://www.w3.org/1999/xlink" x="0px" y="0px"
	 viewBox="0 0 256 256" style="enable-background:new 0 0 256 256;" xml:space="preserve">
<path style="fill:#FFDF99;" d="M77.4,118.5c0,0-13.5,44.6-16.7,50.6c-2.3,4.2-15.4,28-22.9,41.5L18,198.9
	c7.9-12.7,19.7-32.4,19.8-37.8c0.4-16.7-0.2-30.4,6-44.3c1.9-4.3,2.3-9.1,1.4-13.7c-1-4.8-0.9-9.9-0.5-13.5
	c2.8-23,40.2-25.4,51.3-27.8c15.6-3.4,11.5-25.9,11.5-25.9h42.8c0,0-4,22.5,11.5,25.9c11.1,2.4,47.6,4.9,50.3,27.8
	c0.4,3.7,0.5,8.8-0.5,13.5c-0.9,4.6-0.5,9.4,1.4,13.7c6.2,13.9,5.6,27.7,6,44.3c0.1,5.4,19.9,38,19.9,38l-16.7,9.8
	c0,0-21.8-39.5-24.2-43.9c-3.2-5.9-15.7-49.6-15.7-49.6l3.2-7.8c0,0-11.6,24.5-10.1,46.2s1,43.4,5.9,53.9l-101.5-0.2
	c4.9-10.5,5.2-27.5,6.7-49.2s-13.1-48.5-13.1-48.5L77.4,118.5z"/>
<g style="opacity:0;">
	<g style="opacity:0.1;">
		<path d="M128.5,206c-0.8,0-1.5-0.7-1.5-1.5V148c0-0.8,0.7-1.5,1.5-1.5s1.5,0.7,1.5,1.5v56.5C130,205.3,129.3,206,128.5,206z"/>
	</g>
	<g style="opacity:0.1;">
		<path d="M172.5,135c-0.3,0-0.6-0.1-0.9-0.3c-23.4-17.3-20.7-51.9-20.6-53.3c0.1-0.8,0.8-1.4,1.6-1.4c0.8,0.1,1.4,0.8,1.4,1.6
			c0,0.3-2.6,34.4,19.4,50.7c0.7,0.5,0.8,1.4,0.3,2.1C173.4,134.8,173,135,172.5,135z"/>
	</g>
	<g style="opacity:0.1;">
		<path d="M89.5,135c-0.6,0-1.1-0.3-1.4-0.9c-0.4-0.7,0-1.6,0.7-2c19.9-9.5,21.1-50.3,21.1-50.7c0-0.8,0.7-1.5,1.5-1.5
			s1.5,0.7,1.5,1.5c0,1.8-1.3,43-22.9,53.3C89.9,135,89.7,135,89.5,135z"/>
	</g>
</g>
</svg>
