<?xml version="1.0" encoding="utf-8"?>
<!-- Generator: Adobe Illustrator 22.1.0, SVG Export Plug-In . SVG Version: 6.00 Build 0)  -->
<svg version="1.1" id="Layer_1" xmlns="http://www.w3.org/2000/svg" xmlns:xlink="http://www.w3.org/1999/xlink" x="0px" y="0px"
	 viewBox="0 0 256 256" style="enable-background:new 0 0 256 256;" xml:space="preserve">
<g>
	<path style="fill:#A04D15;" d="M207,21.9v120.7c0,45-36.5,81.5-81.5,81.5S44,187.6,44,142.6V21.9h19.5v90.8
		c0,12,9.7,21.8,21.8,21.8h79.5c12,0,21.8-9.7,21.8-21.8V21.9H207z"/>
	<path style="fill:#A04D15;" d="M164,137.6H89c0-1.1,0.1-2.1,0.2-3.1c0.7-5.4,3.2-10.2,6.8-13.8c4.3-4.3,10.3-7,17-7h27
		c12.2,0,22.3,9.1,23.8,20.9C164,135.5,164,136.5,164,137.6z"/>
</g>
<g style="opacity:0;">
	<path style="fill:#FFDF97;" d="M44,49v40l0,0c-11,0-20-9-20-20S33,49,44,49L44,49z"/>
	<path style="fill:#FFDF97;" d="M227,69c0,11-9,20-20,20V49C218,49,227,58,227,69z"/>
	<path style="fill:#FFDF97;" d="M186.5,21.9v90.8c0,12-9.7,21.8-21.8,21.8h-1c-1.5-11.8-11.6-20.9-23.8-20.9h-27
		c-6.6,0-12.6,2.7-17,7c-3.6,3.6-6.1,8.5-6.8,13.8h-4c-12,0-21.8-9.7-21.8-21.8V21.9H186.5z"/>
	<path style="fill:#FFFFFF;" d="M145.3,137.6c-2.1,3.6-6,6-10.4,6h-14.4c-3.3,0-6.3-1.3-8.5-3.5c-0.7-0.7-1.4-1.6-1.9-2.5H145.3z"/>
	<path style="fill:#FFAC83;" d="M139.7,113.6h-22.5l2.6-22.9c0.6-5.5,4.5-9.4,8.6-9.4c2.1,0,4.1,1,5.6,2.6c1.6,1.7,2.7,4,3,6.7
		L139.7,113.6z"/>
	<ellipse cx="159.4" cy="50.6" rx="7.2" ry="7.5"/>
	<ellipse cx="98.1" cy="50.6" rx="7.2" ry="7.5"/>
	<path style="opacity:0.2;enable-background:new    ;" d="M164,137.6H89c0-1.1,0.1-2.1,0.2-3.1c0.7-5.4,3.2-10.2,6.8-13.8
		c4.3-4.3,10.3-7,17-7h27c12.2,0,22.3,9.1,23.8,20.9C164,135.5,164,136.5,164,137.6z"/>
</g>
</svg>
