<?xml version="1.0" encoding="utf-8"?>
<!-- Generator: Adobe Illustrator 22.1.0, SVG Export Plug-In . SVG Version: 6.00 Build 0)  -->
<svg version="1.1" id="Layer_1" xmlns="http://www.w3.org/2000/svg" xmlns:xlink="http://www.w3.org/1999/xlink" x="0px" y="0px"
	 viewBox="0 0 256 256" style="enable-background:new 0 0 256 256;" xml:space="preserve">
<path style="fill:#FFDF99;" d="M77.4,118.5c0,0-13.5,44.6-16.7,50.6c-2.3,4.2-22.9,41.5-22.9,41.5L18,198.9c0,0,19.7-32.4,19.8-37.8
	c0.4-16.7-0.2-30.4,6-44.3c1.9-4.3,2.3-9.1,1.4-13.7c-1-4.8-0.9-9.9-0.5-13.5c2.8-23,40.2-25.4,51.3-27.8
	c15.6-3.4,11.5-25.9,11.5-25.9h42.8c0,0-4,22.5,11.5,25.9c11.1,2.4,47.6,4.9,50.3,27.8c0.4,3.7,0.5,8.8-0.5,13.5
	c-0.9,4.6-0.5,9.4,1.4,13.7c6.2,13.9,5.6,27.7,6,44.3c0.1,5.4,19.9,38,19.9,38l-16.7,9.8c0,0-21.8-39.5-24.2-43.9
	c-3.2-5.9-15.7-49.6-15.7-49.6l3.2-7.8c0,0-11.6,24.5-10.1,46.2s1,43.4,5.9,53.9l-101.5-0.2c4.9-10.5,5.2-27.5,6.7-49.2
	s-13.1-48.5-13.1-48.5L77.4,118.5z"/>
<g style="opacity:0;">
	<g style="opacity:0.1;">
		<path d="M155.3,137.5c-4.4,0-7.5-1-7.7-1c-0.8-0.3-1.2-1.1-1-1.9c0.3-0.8,1.1-1.2,1.9-1c0.1,0,9.5,2.9,17.9-1.9
			c6-3.4,10.1-9.8,12.2-19c0.2-0.8,1-1.3,1.8-1.1c0.8,0.2,1.3,1,1.1,1.8c-2.4,10.1-7,17.2-13.7,21
			C163.4,136.8,158.9,137.5,155.3,137.5z"/>
	</g>
	<g style="opacity:0.1;">
		<path d="M104.7,137.5c-3.6,0-8.1-0.7-12.5-3.2c-6.7-3.8-11.3-10.9-13.7-21c-0.2-0.8,0.3-1.6,1.1-1.8c0.8-0.2,1.6,0.3,1.8,1.1
			c2.2,9.3,6.3,15.7,12.3,19.1c8.4,4.8,17.7,1.9,17.8,1.9c0.8-0.3,1.6,0.2,1.9,1s-0.2,1.6-1,1.9
			C112.2,136.5,109.1,137.5,104.7,137.5z"/>
	</g>
	<circle style="opacity:0.1;enable-background:new    ;" cx="101" cy="122.5" r="3"/>
	<circle style="opacity:0.1;enable-background:new    ;" cx="159" cy="122.5" r="3"/>
</g>
</svg>
