<?xml version="1.0" encoding="utf-8"?>
<!-- Generator: Adobe Illustrator 22.1.0, SVG Export Plug-In . SVG Version: 6.00 Build 0)  -->
<svg version="1.1" id="Layer_1" xmlns="http://www.w3.org/2000/svg" xmlns:xlink="http://www.w3.org/1999/xlink" x="0px" y="0px"
	 viewBox="0 0 256 256" style="enable-background:new 0 0 256 256;" xml:space="preserve">
<g>
	<path style="fill:#FFDF99;" d="M155.1,193.9c0.4,3.3,0.5,6.7,0.3,10.2c-1.8,22.8-20.4,41.2-43.3,42.8
		c-27.4,1.9-50.3-19.7-50.3-46.7c0-7.1,1.6-13.8,4.4-19.9c6.3-13.4,4.6-29.3-4.1-41.3C51.9,124.8,46,107.1,46.8,88.1
		c1.6-41.9,35.5-76.1,77.4-78c46.6-2.1,85.1,35,85.1,81.2c0,29-15.2,54.5-38.2,68.9C159.7,167.4,153.4,180.5,155.1,193.9z"/>
</g>
<g style="opacity:0;">
	<g style="opacity:0.1;">
		<path d="M171.6,108.5c-7.4,13.1-18.7,24.1-27.8,32.9c-5.4,5.3-11,10.7-11.9,13.3c-3.5,10.5-15.7,36.1-32.1,36.1
			c-0.9,0-1.9-0.1-2.8-0.3c-2.3-0.4-3.7-2.6-3.3-4.8c0.4-2.2,2.6-3.7,4.8-3.3c10.4,1.9,21.8-18.8,25.7-30.3c1.5-4.5,6.7-9.6,14-16.6
			c8.7-8.4,19.5-18.9,26.3-31c5.6-9.9,4.9-23.4-1.8-34.3c-4.2-6.8-14.2-18.1-34.4-17.4c-22.9,0.9-34.4,16.4-39.5,26.6
			c9.8,2.3,30.2,8.6,35,23c0.7,2.2-0.4,4.5-2.6,5.2c-0.4,0.1-0.9,0.2-1.3,0.2c-1.7,0-3.3-1.1-3.9-2.8c-3.6-10.2-21-15.9-30.5-17.9
			c-0.2,0.6-0.3,1-0.3,1.1s-0.1,0.2-0.1,0.3c-0.8,2.3-1.9,6.5-2.4,11c4.9,0.2,12.5,1.4,18.8,6.9c6.7,5.8,10,14.6,10,26.3
			c0,19.6-22.2,26.6-23.1,26.9c-0.4,0.1-0.8,0.2-1.2,0.2c-1.8,0-3.4-1.2-4-2.9c-0.7-2.2,0.6-4.5,2.7-5.2c0.2,0,17.3-5.5,17.3-19
			c0-9.2-2.4-15.9-7.1-20.1c-4.5-3.9-10.2-4.8-13.8-4.9c0.2,2.9,0.9,5.5,2.2,7.4c1.3,1.9,0.9,4.4-1,5.8c-1.8,1.3-4.4,0.9-5.8-1
			C70,109,76.3,88.7,77.2,86c0.1-0.5,0.6-2.2,1.6-4.5l0,0c0.1-0.3,0.3-0.7,0.4-1.1c4.7-11.2,18.2-34.8,48.6-35.9
			c17.9-0.7,33.1,7.1,41.8,21.3C177.8,79.2,178.6,96,171.6,108.5z"/>
	</g>
	<g>
		<path style="fill:#E5C688;" d="M79.2,80.3c-0.2,0.4-0.3,0.7-0.4,1.1C78.9,81,79,80.6,79.2,80.3z"/>
	</g>
</g>
</svg>
