<?xml version="1.0" encoding="utf-8"?>
<!-- Generator: Adobe Illustrator 22.1.0, SVG Export Plug-In . SVG Version: 6.00 Build 0)  -->
<svg version="1.1" id="Layer_1" xmlns="http://www.w3.org/2000/svg" xmlns:xlink="http://www.w3.org/1999/xlink" x="0px" y="0px"
	 viewBox="0 0 256 256" style="enable-background:new 0 0 256 256;" xml:space="preserve">
<g>
	<circle style="fill:#52E8E1;" cx="128" cy="128" r="49"/>
</g>
<g style="opacity:0;">
	<path style="fill:#F4F4F4;" d="M127.5,76C69.8,76,23,128.5,23,128.5S69.8,181,127.5,181S232,128.5,232,128.5S185.2,76,127.5,76z
		 M128,177c-27.1,0-49-21.9-49-49s21.9-49,49-49s49,21.9,49,49S155.1,177,128,177z"/>
	<g>
		<path d="M23,131c-0.6,0-1.2-0.2-1.7-0.6c-1.4-1-1.7-2.8-0.7-4.2c0.4-0.6,10.2-14.3,28.2-28.1C65.4,85.3,92.5,70,127,70
			c52,0,98.4,45.9,104.6,52.3c1.8,0.3,7.3,0.4,11.9-6.9c0.9-1.4,2.7-1.8,4.1-0.9c1.4,0.9,1.8,2.7,0.9,4.1c-8.2,12.8-19,9.4-19.5,9.2
			c-0.5-0.2-0.9-0.4-1.2-0.8c-0.5-0.5-48.7-51-100.8-51c-62.8,0-101.2,53.2-101.6,53.7C24.9,130.6,23.9,131,23,131z"/>
	</g>
	<g>
		<path d="M225.5,120.2c-0.8,0-1.6-0.1-2.3-0.3c-1.6-0.5-2.5-2.1-2.1-3.7c0.5-1.6,2.1-2.5,3.7-2.1c3.5,1,10.9-5.4,14.9-10.1
			c1.1-1.3,3-1.4,4.2-0.3c1.3,1.1,1.4,3,0.4,4.2C242.4,110.1,233.5,120.2,225.5,120.2z"/>
	</g>
	<circle style="opacity:0.4;enable-background:new    ;" cx="128" cy="128" r="27"/>
	<g>
		<path d="M216.9,112.7c-1.6,0-2.9-1.2-3-2.8c-0.1-1.7,1.1-3.1,2.8-3.2c7.9-0.6,11.4-11.5,11.5-11.6c0.5-1.6,2.2-2.5,3.8-2
			s2.5,2.2,2,3.7c-0.2,0.6-4.7,15-16.8,15.8C217,112.7,217,112.7,216.9,112.7z"/>
	</g>
	<circle style="fill:#FFFFFF;" cx="141" cy="107" r="10"/>
</g>
</svg>
