<?xml version="1.0" encoding="utf-8"?>
<!-- Generator: Adobe Illustrator 22.1.0, SVG Export Plug-In . SVG Version: 6.00 Build 0)  -->
<svg version="1.1" id="Layer_1" xmlns="http://www.w3.org/2000/svg" xmlns:xlink="http://www.w3.org/1999/xlink" x="0px" y="0px"
	 viewBox="0 0 256 256" style="enable-background:new 0 0 256 256;" xml:space="preserve">
<path style="fill:#A04D15;" d="M70.3,68h-4.5C67.2,67.8,68.7,67.8,70.3,68z"/>
<g>
	<path style="fill:#FFDF99;" d="M222.7,155.4c0,7.8-4.1,14.6-10.3,18.4c-1.4,0.8-2.9,1.5-4.5,2.1l0,0c0,4.8-0.4,9.4-1.3,13.9
		c-6.5,35.9-38,63.2-75.8,63.2c-37.3,0-68.5-26.5-75.6-61.8c-1-4.8-1.5-9.8-1.5-15v-4.1c-2.1-0.6-4-1.6-5.8-2.8
		c-5.8-3.9-9.5-10.5-9.5-17.9c0-6.8,3.1-12.9,8.1-16.8c2.1-1.7,4.5-3,7.1-3.8l-0.2-48.1C53.3,75,59,69.1,65.9,68
		c1.5-0.2,3-0.2,4.5,0c1,0.2,2,0.4,3,0.8c18.3,7,38.2,10.8,58.9,10.8c19.5,0,38.2-3.4,55.5-9.5c9.7-3.5,19.9,3.7,19.9,14v50.8
		c2.5,0.8,4.9,2.1,6.9,3.8C219.6,142.6,222.7,148.6,222.7,155.4z"/>
</g>
<g style="opacity:0;">
	<path style="fill:#A04D15;" d="M214.8,45.2v93.5c-2-1.7-4.4-3-6.9-3.8V84.1c0-10.3-10.2-17.5-19.9-14c-17.4,6.2-36.1,9.5-55.5,9.5
		c-20.8,0-40.6-3.8-58.9-10.8c-1-0.4-2-0.6-3-0.8c-1.5-0.2-3.1-0.2-4.5,0c-6.9,1.1-12.6,7-12.6,14.7l0.2,48.1
		c-2.6,0.8-5,2.1-7.1,3.8V45.2C46.4,21.9,65.3,3,88.6,3h84C195.9,3,214.8,21.9,214.8,45.2z"/>
	<path style="fill:#A04D15;" d="M55.2,191.2c-3.4-6.8-5.9-14.1-7.3-21.8c1.8,1.2,3.7,2.1,5.8,2.8v4.1
		C53.7,181.4,54.3,186.4,55.2,191.2z"/>
	<path style="fill:#A04D15;" d="M212.3,173.8c-1.4,5.6-3.3,11-5.7,16c0.8-4.5,1.3-9.2,1.3-13.9l0,0
		C209.5,175.3,211,174.6,212.3,173.8z"/>
	<ellipse cx="164.6" cy="144" rx="9.4" ry="9.8"/>
	<ellipse cx="96.4" cy="144" rx="9.4" ry="9.8"/>
	<g>
		<path style="fill:#A04D15;" d="M177,123.5h-24c-1.9,0-3.5-1.6-3.5-3.5s1.6-3.5,3.5-3.5h24c1.9,0,3.5,1.6,3.5,3.5
			S178.9,123.5,177,123.5z"/>
	</g>
	<g>
		<path style="fill:#A04D15;" d="M108.5,124h-24c-1.9,0-3.5-1.6-3.5-3.5s1.6-3.5,3.5-3.5h24c1.9,0,3.5,1.6,3.5,3.5
			S110.4,124,108.5,124z"/>
	</g>
</g>
</svg>
