<?xml version="1.0" encoding="utf-8"?>
<!-- Generator: Adobe Illustrator 22.1.0, SVG Export Plug-In . SVG Version: 6.00 Build 0)  -->
<svg version="1.1" id="Layer_1" xmlns="http://www.w3.org/2000/svg" xmlns:xlink="http://www.w3.org/1999/xlink" x="0px" y="0px"
	 viewBox="0 0 256 256" style="enable-background:new 0 0 256 256;" xml:space="preserve">
<g style="opacity:0;">
	<path style="fill:#8E420E;" d="M188.8,241.4H64.7c2.1-1.4,3.4-3.7,3.4-6.3v-12c1.1,0.7,2.4,1.1,3.8,1.1c4,0,7.2-3.2,7.2-7.1v-52.8
		c8.6,18.6,27.4,31.4,49.3,31.4c21.1,0,39.4-12.1,48.4-29.7v54.4c0,3.9,3.2,7.1,7.2,7.1c1.1,0,2.1-0.2,3-0.6v9.5
		C186.9,238.3,187.6,240.1,188.8,241.4z"/>
	<path style="fill:#8E420E;" d="M202,92.9h-0.2c0.1,0.5,0.2,1.1,0.2,1.7v141.8c0,4.2-3.4,7.6-7.6,7.6c-2.3,0-4.3-1-5.7-2.6
		c-1.2-1.3-1.9-3.1-1.9-5v-9.5c-0.9,0.4-1.9,0.6-3,0.6c-3.9,0-7.2-3.2-7.2-7.1V92.9H161l-5.2-19.5l-6.2,19.5H79.1V217
		c0,3.9-3.2,7.1-7.2,7.1c-1.4,0-2.7-0.4-3.8-1.1v12c0,2.7-1.4,5-3.4,6.3c-1.2,0.8-2.6,1.3-4.2,1.3c-4.2,0-7.6-3.4-7.6-7.6V85.8
		c0-41.2,33.4-74.5,74.5-74.5c20.6,0,39.2,8.3,52.7,21.8S202,65.2,202,85.8V92.9z"/>
</g>
<g>
	<path style="fill:#FFDF97;" d="M176.8,92.9v73c-9,17.6-27.3,29.7-48.4,29.7c-21.8,0-40.6-12.9-49.3-31.4V92.9h70.6l6.2-19.5
		l5.2,19.5H176.8z"/>
	<path style="opacity:0.4;enable-background:new    ;" d="M188.8,241.4H64.7c2.1-1.4,3.4-3.7,3.4-6.3v-12c1.1,0.7,2.4,1.1,3.8,1.1
		c4,0,7.2-3.2,7.2-7.1v-52.8c8.6,18.6,27.4,31.4,49.3,31.4c21.1,0,39.4-12.1,48.4-29.7v54.4c0,3.9,3.2,7.1,7.2,7.1
		c1.1,0,2.1-0.2,3-0.6v9.5C186.9,238.3,187.6,240.1,188.8,241.4z"/>
</g>
</svg>
