<?xml version="1.0" encoding="utf-8"?>
<!-- Generator: Adobe Illustrator 22.1.0, SVG Export Plug-In . SVG Version: 6.00 Build 0)  -->
<svg version="1.1" id="Layer_1" xmlns="http://www.w3.org/2000/svg" xmlns:xlink="http://www.w3.org/1999/xlink" x="0px" y="0px"
	 viewBox="0 0 256 256" style="enable-background:new 0 0 256 256;" xml:space="preserve">
<g>
	<path style="fill:#FFDF97;" d="M157,202.2c3,5.9,10.6,21,1.7,30c-8.9,9-24.3,5.8-29.2,3.7c-4.8-2.1-17.7-2.2-24.7-0.7
		c-0.2,0-0.3,0.1-0.5,0.1c-4.4,1-13.2,4.5-21.1,4.8c-3.9,0.1-7.7-0.5-10.5-2.7c-0.3-0.3-0.7-0.5-1-0.8c0,0-0.9,0.2-2.4,0.4l0,0h-0.1
		c-6.1,0.9-20.7,1.6-16.4-12.2l8.4-0.1c0,0,8.8-4.1,15.2-3.9c0,0,30.5-18.5,38.6-20.6c0,0,10.1-16.4,8.9-29.7l0.2,1.8
		c0,0-3.5-100,2.1-150.7H176c13.5,37-12.1,134-16,146.8l0,0c-0.3,1-0.5,1.5-0.5,1.5S154,196.3,157,202.2z"/>
</g>
<g style="opacity:0;">
	<path d="M137,223c-1.1,0-2-0.9-2-2s0.9-2,2-2c7.2,0,9-8.1,9-8.4c0.2-1.1,1.3-1.8,2.4-1.6c1.1,0.2,1.8,1.3,1.6,2.3
		C149.2,215.4,145.4,223,137,223z"/>
</g>
</svg>
