<?xml version="1.0" encoding="utf-8"?>
<!-- Generator: Adobe Illustrator 22.1.0, SVG Export Plug-In . SVG Version: 6.00 Build 0)  -->
<svg version="1.1" id="Layer_1" xmlns="http://www.w3.org/2000/svg" xmlns:xlink="http://www.w3.org/1999/xlink" x="0px" y="0px"
	 viewBox="0 0 256 256" style="enable-background:new 0 0 256 256;" xml:space="preserve">
<g id="lips1">
	<path style="fill:#F72B3F;" d="M7.8,111.3c0,0,9.9,2.7,18.7-3.3C47.6,93.6,75.3,63.5,105,74.5c29.3,10.9,15.6,10,49.6-3.5
		c22.9-9,55.8,24.7,77.3,39.2c8,5.4,16.2-0.2,16.2-0.2s-39.6,44.6-57.1,52.6c-42.1,19.1-85.9,16.8-119.7-0.7
		C37.6,144.7,7.8,111.3,7.8,111.3z"/>
</g>
<g style="opacity:0;">
	<path style="opacity:0.3;enable-background:new    ;" d="M227.1,116.8c-13.9,3.5-62.6,8.9-92.1,16.2c-3.9,1-7.9,1-11.8,0.1
		c-13.6-3.2-55.6-10.9-95.9-16.3c-0.9-0.1-1-1.6,0-1.6c13.8,0.8,35-4.6,45.6-8.3l0,0c1.2-0.4,2.3-0.8,3.3-1.2
		c8.7-3.5,32.9,2.8,44.5,6.2c4.2,1.2,8.6,1.3,12.8,0.3c11.3-2.7,34.4-8,43.1-7.6c3.7,0.2,7,0.6,10,1.3c16.7,3.7,25.1,13.1,40.5,10.1
		C227.5,115.9,227.6,116.7,227.1,116.8z"/>
	<path id="lips2" style="fill:#F7F7F7;" d="M186.5,105.8c0,0-42.4,9.1-56.2,10.2c-13.8,1.2-40.4-8.1-40.4-8.1l-17.1-1.1
		c1.2-0.4,2.3-0.8,3.3-1.2c8.7-3.5,32.9,2.8,44.5,6.2c4.2,1.2,8.6,1.3,12.8,0.3c11.3-2.7,34.4-8,43.1-7.6
		C180.2,104.7,183.5,105.2,186.5,105.8z"/>
</g>
</svg>
