<?xml version="1.0" encoding="utf-8"?>
<!-- Generator: Adobe Illustrator 22.1.0, SVG Export Plug-In . SVG Version: 6.00 Build 0)  -->
<svg version="1.1" id="Layer_1" xmlns="http://www.w3.org/2000/svg" xmlns:xlink="http://www.w3.org/1999/xlink" x="0px" y="0px"
	 viewBox="0 0 256 256" style="enable-background:new 0 0 256 256;" xml:space="preserve">
<g id="lips1_1_" style="opacity:0;">
	<path style="fill:#FFFFFF;" d="M248,110.1c-0.6,1.1-49.9,60.6-65.7,68.6c-38.2,19.1-78,16.8-108.6-0.7
		c-30.2-17.2-65.5-65.9-65.9-66.7c0.4,0.1,10.1,2.6,18.7-3.3c21.1-14.4,48.8-62.5,78.5-51.5c29.3,10.9,15.6,10,49.6-3.5
		c22.9-9,55.8,42.8,77.3,57.2C239.6,115.5,247.7,110.4,248,110.1z"/>
</g>
<g>
	<path style="opacity:0.3;" d="M227.1,116.8C208,137,163.5,150.7,134,158c-3.9,1-7.9,1-11.8,0.1c-13.6-3.2-61.1-18.1-94.9-41.3
		c-0.8-0.5-1-1.7,0-1.6c8.8,0.5,24.9-6.9,37.8-13.4c7.4-3.8,13.7-7.2,16.8-8.8h0c1-0.5,1.9-0.9,2.6-1.4c7-3.9,22.5,2.8,34.1,6.2
		c4.2,1.2,8.6,1.3,12.8,0.3c11.3-2.7,27-8.2,34.1-7.8c3,0.2,5.7,0.7,8.1,1.5c4.9,1.5,11.3,5.5,18.2,9.9c12,7.6,25.5,16.1,35.3,14.2
		C227.5,115.9,227.5,116.4,227.1,116.8z"/>
	<path style="fill:#F7F7F7;" d="M191.8,101.7c-14.8,2.9-48.3,9.3-61.3,10.3c-16.9,1.3-49.2-9.3-49.2-9.3l-16.2-1
		c7.4-3.8,13.7-7.2,16.8-8.8h0c1-0.5,1.9-0.9,2.6-1.4c7-3.9,22.5,2.8,34.1,6.2c4.2,1.2,8.6,1.3,12.8,0.3c11.3-2.7,27-8.2,34.1-7.8
		c3,0.2,5.7,0.7,8.1,1.5C178.5,93.4,184.9,97.4,191.8,101.7z"/>
</g>
</svg>
