<?xml version="1.0" encoding="utf-8"?>
<!-- Generator: Adobe Illustrator 22.1.0, SVG Export Plug-In . SVG Version: 6.00 Build 0)  -->
<svg version="1.1" id="Layer_1" xmlns="http://www.w3.org/2000/svg" xmlns:xlink="http://www.w3.org/1999/xlink" x="0px" y="0px"
	 viewBox="0 0 256 256" style="enable-background:new 0 0 256 256;" xml:space="preserve">
<g style="opacity:0;">
	<path style="fill:#A04D15;" d="M224.7,133.7c-23.6,47.2-72.7,27.1-83.4,22c-2-1-3.8-2.4-4.9-4.4l0,0c-1.7-1.8-3-3.9-3.8-6.2
		c-0.8,2.3-2.2,4.5-3.8,6.2l0,0c-1.1,2-2.9,3.4-4.9,4.4c-10.8,5.1-59.8,25.3-83.4-22c0.7,0.6,36.7,32,58.9-1.9
		c4.5-6.9,14.7-11.4,19-9.5c0.1,0,0.2,0.1,0.3,0.2c6.5,0.8,11.9,5.3,14,11.3c2.1-6,7.5-10.5,14-11.3c0.1-0.1,0.2-0.1,0.3-0.2
		c4.3-1.9,14.5,2.6,19,9.5C188,165.6,223.9,134.3,224.7,133.7z"/>
</g>
<g>
	<path style="fill:#FFDF97;" d="M246,30.4H11c0,0-7.5,36.4,14.1,43.4v50.9c0,28.5,11.6,54.3,30.2,73c18.7,18.7,44.5,30.2,73,30.2
		c57,0,103.3-46.2,103.3-103.3V77.9C253.6,70.5,246,30.4,246,30.4z M141.2,155.6c-2-1-3.8-2.4-4.9-4.4l0,0c-1.7-1.8-3-3.9-3.8-6.2
		c-0.8,2.3-2.2,4.5-3.8,6.2l0,0c-1.1,2-2.9,3.4-4.9,4.4c-10.8,5.1-59.8,25.3-83.4-22c0.7,0.6,36.7,32,58.9-1.9
		c4.5-6.9,14.7-11.4,19-9.5c0.1,0,0.2,0.1,0.3,0.2c6.5,0.8,11.9,5.3,14,11.3c2.1-6,7.5-10.5,14-11.3c0.1-0.1,0.2-0.1,0.3-0.2
		c4.3-1.9,14.5,2.6,19,9.5c22.3,33.9,58.2,2.5,58.9,1.9C201,180.9,152,160.8,141.2,155.6z"/>
	<g style="opacity:0.1;">
		<path d="M131.6,178.9c-1.7,0-3.4-0.1-4.9-0.2c-9.6-1-17.1-4.5-20.1-9.3c-0.7-1.2-0.4-2.7,0.8-3.4c1.2-0.7,2.7-0.4,3.4,0.8
			c2.1,3.4,8.5,6.2,16.3,7c8.1,0.8,18.7-0.4,24.4-6.4c0.9-1,2.5-1,3.5-0.1s1,2.5,0.1,3.5C149.4,176.8,139.9,178.9,131.6,178.9z"/>
	</g>
	<ellipse cx="178.5" cy="48" rx="11.5" ry="12"/>
	<ellipse cx="80.5" cy="48" rx="11.5" ry="12"/>
</g>
</svg>
