<?xml version="1.0" encoding="utf-8"?>
<!-- Generator: Adobe Illustrator 22.1.0, SVG Export Plug-In . SVG Version: 6.00 Build 0)  -->
<svg version="1.1" id="Layer_1" xmlns="http://www.w3.org/2000/svg" xmlns:xlink="http://www.w3.org/1999/xlink" x="0px" y="0px"
	 viewBox="0 0 256 256" style="enable-background:new 0 0 256 256;" xml:space="preserve">
<g>
	<path style="fill:#FFFFFF;" d="M180.5,167.1c0,2.4-0.5,4.8-1.2,7c-2.6,7.8-9.5,26.6-15.8,31.3c-7.9,6,0,28.8,0,28.8H88.9
		c0,0,5.5-24.9,0-29.3c-5.5-4.5-23.3-5.6-35.6-70.8c0,0-20.9-45.2-19.2-46.9C51,70.3,76.7,122.3,81,123.4L80.9,32
		c0.1-4.4,4.2-8.5,8.1-10.5c1.1-0.6,2.4-1,4-1.1c6.6-0.5,12,5,12,11.6v77c0,0.8,0.7,1.5,1.5,1.5s1.5-0.7,1.5-1.5V11.2
		c1.5-4.1,4.9-7.5,10.8-7.5c2.2,0,4.2,0.5,6,1.4c2.7,1.4,4.2,4.4,4.2,7.4l0,100.5c0,0.8,0.7,1.5,1.5,1.5s1.5-0.7,1.5-1.5V37.5
		c0-6.6,5.2-10.9,10.6-11.6c6.1-0.7,11.4,4.3,11.4,10.4V119c0,0.8,0.7,1.5,1.5,1.5s1.5-0.7,1.5-1.5V62.9c0-6.7,6.7-11.7,13-9.3
		c2.8,1.1,5.2,3.4,6.4,8.1C178.5,69.6,180.8,151.9,180.5,167.1z"/>
</g>
<g style="opacity:0;">
	<g style="opacity:0.1;">
		<path d="M163,132.9c-0.5,0-1-0.1-1.4-0.4c-27.9-19-69.1-18-69.5-18c-1.4,0-2.5-1-2.6-2.4c0-1.4,1-2.5,2.4-2.6
			c1.8-0.1,43.2-1.1,72.5,18.8c1.1,0.8,1.4,2.3,0.7,3.5C164.6,132.5,163.8,132.9,163,132.9z"/>
	</g>
	<g style="opacity:0.1;">
		<path d="M107,191.5c-0.1,0-0.3,0-0.5,0c-1.4-0.2-2.3-1.5-2-2.9c5.6-31-16.2-45.8-16.4-46c-0.1-0.1-0.3-0.2-0.4-0.3l-0.5-0.5
			c-0.2-0.2-0.4-0.5-0.5-0.8c0-0.1-4-9.9-6.8-14.7c-0.7-1.2-0.3-2.7,0.9-3.4c1.2-0.7,2.7-0.3,3.4,0.9c2.8,4.6,6,12.6,7,14.9l0,0
			c2.5,1.8,24.2,18.5,18.3,50.9C109.2,190.7,108.2,191.5,107,191.5z"/>
	</g>
</g>
</svg>
