<?xml version="1.0" encoding="utf-8"?>
<!-- Generator: Adobe Illustrator 22.1.0, SVG Export Plug-In . SVG Version: 6.00 Build 0)  -->
<svg version="1.1" id="Layer_1" xmlns="http://www.w3.org/2000/svg" xmlns:xlink="http://www.w3.org/1999/xlink" x="0px" y="0px"
	 viewBox="0 0 256 256" style="enable-background:new 0 0 256 256;" xml:space="preserve">
<path style="fill:#FFDF99;" d="M178.6,168.7c-0.1,0.7-0.2,1.5-0.3,2.2h26.3c4.6,0,8.7,1.9,11.7,4.9s4.9,7.2,4.9,11.7
	c0,9.2-7.4,16.6-16.6,16.6h-38.5c-0.5,0.8-1,1.5-1.4,2.2h27c3.4,0,6.5,1.4,8.7,3.6c2.2,2.2,3.6,5.3,3.6,8.7
	c0,6.8-5.5,12.4-12.4,12.4h-53.5c-2,0-3.8-0.5-5.4-1.3c-9.4,0-26.3,0.1-31.3,0c-37.6-1.3-33.2-16.8-79.7-16.8l-2.2-90.3
	c0,0,35.4,2.1,44.3-4.2c8.9-6.3,28.8-12.6,44.3-48.3s13.3-54.6,13.3-54.6s13.3-14.7,24.4,0c11.1,14.7,4.4,27.3,2.2,39.9
	s-6.6,29.4-6.6,29.4s-10.5,19.6-1.3,21.1c0.1,0,0.1,0,0.2,0c4.8,1,10.8,1,18.8-1s49.9-2.7,49.9-2.7c4.3,0,8.2,1.7,11,4.5
	s4.5,6.7,4.5,11c0,8.6-6.9,15.5-15.5,15.5h-34c0.3,0.7,0.6,1.5,0.9,2.2h44c4.6,0,8.7,1.9,11.7,4.9s4.9,7.2,4.9,11.7
	c0,9.2-7.4,16.6-16.6,16.6h-41.3V168.7z"/>
</svg>
