<?xml version="1.0" encoding="utf-8"?>
<!-- Generator: Adobe Illustrator 22.1.0, SVG Export Plug-In . SVG Version: 6.00 Build 0)  -->
<svg version="1.1" id="Layer_1" xmlns="http://www.w3.org/2000/svg" xmlns:xlink="http://www.w3.org/1999/xlink" x="0px" y="0px"
	 viewBox="0 0 256 256" style="enable-background:new 0 0 256 256;" xml:space="preserve">
<g style="opacity:0;">
	<path style="fill:#FFFFFF;" d="M37.3,227.5c-2.4-10.6-9.6-43.4-12.1-58.2c-3.1-17.8-10.1-45.2-10.1-45.2c-0.6-4.6-0.8-8.4-0.7-11.5
		c-0.2-0.5-0.4-1-0.4-1.6l-4-29.7c-0.5-3.4,1.9-6.5,5.3-6.9l1.4-0.2c3.4-0.5,6.5,1.9,6.9,5.3l2.1,15.7c0.6-0.3,1.3-0.5,2-0.8
		c-0.1-0.3-0.2-0.6-0.2-1l-3.8-27.8c-0.5-3.9,2.2-7.5,6.1-8l1.6-0.2c3.9-0.5,7.5,2.2,8,6.1l3.2,23.3c0.5-0.4,1.1-0.8,1.6-1.3
		l-4.9-31c-0.6-4.2,2.4-8.1,6.6-8.7l1.8-0.2c4.2-0.6,8.1,2.4,8.7,6.6l4.8,30l1.7-0.2l-5.4-37.5c-0.6-4.7,2.7-9.1,7.4-9.7l2-0.3
		c4.7-0.6,9.1,2.7,9.7,7.4l5.4,37.6c1-0.1,2-0.3,3-0.5l-4.5-33.3c-0.9-6.3,3.6-12.1,9.8-12.9l7-1c6.3-0.9,12.1,3.6,12.9,9.8
		l4.5,33.2c1.9,6.2,2.8,23.5,4.6,34.1c0,0,1.5,69.8,3.3,106.8L37.3,227.5z"/>
	<path style="fill:#FFFFFF;" d="M218.1,227.5c2.4-10.6,9.6-43.4,12.1-58.2c3.1-17.8,10.1-45.2,10.1-45.2c0.6-4.6,0.8-8.4,0.7-11.5
		c0.2-0.5,0.4-1,0.4-1.6l4-29.7c0.5-3.4-1.9-6.5-5.3-6.9l-1.4-0.2c-3.4-0.5-6.5,1.9-6.9,5.3l-2.1,15.7c-0.6-0.3-1.3-0.5-2-0.8
		c0.1-0.3,0.2-0.6,0.2-1l3.8-27.8c0.5-3.9-2.2-7.5-6.1-8l-1.6-0.2c-3.9-0.5-7.5,2.2-8,6.1l-3.2,23.3c-0.5-0.4-1.1-0.8-1.6-1.3
		l4.9-32c0.6-4.2-2.4-8.1-6.6-8.7l-1.8-0.2c-4.2-0.6-8.1,2.4-8.7,6.6l-4.8,31l-1.7-0.2l5.4-38.5c0.6-4.7-2.7-9.1-7.4-9.7l-2-0.3
		c-4.7-0.6-9.1,2.7-9.7,7.4l-5.4,38.6c-1-0.1-2-0.3-3-0.5l4.5-33.3c0.9-6.3-3.6-12.1-9.8-12.9l-7-1c-6.3-0.9-12.1,3.6-12.9,9.8
		l-4.5,33.2c-1.9,6.2-2.8,23.5-4.6,34.1c0,0-1.5,69.8-3.3,106.8L218.1,227.5z"/>
</g>
<g>
	<path style="fill:#F4F4F4;" d="M107.5,47.1l-23.2,3.2l-1.3-9.5c-0.8-5.7,3.2-11,9-11.8l2.4-0.3c5.7-0.8,11,3.2,11.8,9L107.5,47.1z"
		/>
	<path style="fill:#F4F4F4;" d="M147.9,47.1l23.2,3.2l1.3-9.5c0.8-5.7-3.2-11-9-11.8l-2.4-0.3c-5.7-0.8-11,3.2-11.8,9L147.9,47.1z"
		/>
</g>
</svg>
