<?xml version="1.0" encoding="utf-8"?>
<!-- Generator: Adobe Illustrator 22.1.0, SVG Export Plug-In . SVG Version: 6.00 Build 0)  -->
<svg version="1.1" id="Layer_1" xmlns="http://www.w3.org/2000/svg" xmlns:xlink="http://www.w3.org/1999/xlink" x="0px" y="0px"
	 viewBox="0 0 256 256" style="enable-background:new 0 0 256 256;" xml:space="preserve">
<path style="fill:#FFFFFF;" d="M96,158.3h63.4c16.9,0,32.5-9.4,40.2-24.5c6.6-13,10.4-27.9,10.4-43.8c0-49.7-36.8-90.1-82.3-90.1
	C82.2,0,45.4,40.3,45.4,90.1c0,15.9,3.8,30.8,10.4,43.8C63.4,148.9,79,158.3,96,158.3z"/>
<g style="opacity:0;">
	<path style="fill:#686868;" d="M76.8,154.1h101.5c0,0-26.2,11.8-36.8,26.6h-27.7C107.2,167.7,89.8,159.9,76.8,154.1z"/>
	<path style="fill:#E0CAA6;" d="M135.7,256H119c-3,0-5.5-2.5-5.5-5.5l0.4-96.4h27.7l-0.4,96.4C141.2,253.5,138.7,256,135.7,256z"/>
	<path style="fill:#EFE1CB;" d="M141.6,154.1c0,7.8-6.2,14.1-13.8,14.1s-13.8-6.3-13.8-14.1"/>
</g>
</svg>
