<?xml version="1.0" encoding="utf-8"?>
<!-- Generator: Adobe Illustrator 22.1.0, SVG Export Plug-In . SVG Version: 6.00 Build 0)  -->
<svg version="1.1" id="Layer_1" xmlns="http://www.w3.org/2000/svg" xmlns:xlink="http://www.w3.org/1999/xlink" x="0px" y="0px"
	 viewBox="0 0 457.2 481.1" style="enable-background:new 0 0 457.2 481.1;" xml:space="preserve">
<title>monkey1</title>
<g id="Layer_2_1_">
	<g id="Layer_1-2">
		<g id="Layer_2-2">
			<g id="Layer_1-2-2">
				<path style="fill:#FFFFFF;" d="M351.4,461.8h-0.2c-16.3-0.1-29.4-13.4-29.3-29.7c0,0,0,0,0,0c0.6-97.9-34.2-133.4-34.6-133.7
					c-12.5-10.5-14-29.1-3.5-41.6s29.1-14,41.6-3.5c0.4,0.4,0.9,0.7,1.3,1.1c5.6,5,55.1,52.8,54.3,178.1
					C380.8,448.7,367.6,461.8,351.4,461.8z"/>
				<path style="fill:#FFFFFF;" d="M113.1,461.8c-16.2,0-29.4-13.1-29.5-29.3c-0.8-125.8,51.8-173.6,57.8-178.7l37.9,45.2
					c0,0,0.2-0.1,0.5-0.4c-0.1,0.1-9.4,8.8-18.6,29.1c-8.7,19.2-19,52.9-18.6,104.4c0.1,16.3-13,29.6-29.3,29.7c0,0,0,0,0,0
					L113.1,461.8z"/>
				<path style="fill:#FFFFFF;" d="M224.9,245.8h12.6c45.2,0,81.8,36.6,81.8,81.8l0,0l0,0c0,45.2-36.6,81.8-81.8,81.8h0h-12.6
					c-45.2,0-81.8-36.6-81.9-81.8v0l0,0l0,0C143,282.4,179.6,245.8,224.9,245.8L224.9,245.8z"/>
				<circle style="fill:#FFFFFF;" cx="374.2" cy="127.1" r="83.1"/>
				<circle style="fill:#FFFFFF;" cx="83.1" cy="127.1" r="83.1"/>
				<circle style="fill:#FFFFFF;" cx="230.4" cy="151" r="151"/>
				<path style="fill:#FFFFFF;" d="M271.6,459.4h44.8c6,0,10.8,4.9,10.8,10.8l0,0c0,6-4.9,10.8-10.8,10.8h-44.8V459.4z"/>
				<path style="fill:#FFFFFF;" d="M200.8,481.1h-42.6c-6,0-10.8-4.9-10.8-10.8l0,0c0-6,4.9-10.8,10.8-10.8h42.6V481.1L200.8,481.1z
					"/>
				<path style="fill:#FFFFFF;" d="M245.2,409.4c0,0,11.2,47.8-4,71.7h62.6c0,0,14-65.7-4.1-98.2L245.2,409.4z"/>
				<path style="fill:#FFFFFF;" d="M230.6,409.4c0,0-11.2,47.8,4,71.7H172c0,0-14-65.7,4.1-98.2L230.6,409.4z"/>
				<g id="Layer_2-2-2" style="opacity:0;">
					<g id="Layer_1-2-2-2">
						<path style="fill:#DB58CF;" d="M225.7,257.1h10.8c38.9,0,70.4,31.5,70.4,70.4v0c0,38.9-31.5,70.4-70.4,70.4h-10.8
							c-38.9,0-70.4-31.5-70.4-70.4v0C155.3,288.7,186.8,257.1,225.7,257.1z"/>
						<path style="fill:#F26BDF;" d="M165.7,106.2h130.9c38.5,0,69.6,31.2,69.6,69.6v0c0,38.5-31.2,69.6-69.6,69.6H165.7
							c-38.5,0-69.6-31.2-69.6-69.6v0C96.1,137.3,127.2,106.2,165.7,106.2z"/>
						<path style="fill:#C116A0;" d="M59.2,209.9c2.4,0.2,4.8,0.3,7.2,0.3h-7.2V209.9z"/>
						<path style="fill:#C116A0;" d="M236.2,210v0.2h-5.8C232.4,210.2,234.3,210.1,236.2,210z"/>
						<path style="fill:#F26BDF;" d="M231,182L231,182c35.2,0,63.8,28.5,63.8,63.8v10.5c0,35.2-28.5,63.8-63.7,63.8c0,0,0,0,0,0l0,0
							c-35.2,0-63.8-28.5-63.8-63.8l0,0l0,0v-10.5C167.2,210.6,195.8,182,231,182C231,182,231,182,231,182z"/>
						<path d="M238,222c7.7,0,7.7-12,0-12S230.3,222,238,222z"/>
						<path d="M225.7,222.3c7.7,0,7.7-12,0-12S218,222.3,225.7,222.3z"/>
						<path style="fill:none;stroke:#000000;stroke-width:3;stroke-linecap:round;stroke-miterlimit:10;" d="M186.4,247.5
							c0,0,4.5,34.8,43.7,34.8c40.4,0,41.5-34.8,41.5-34.8"/>
						<circle style="fill:#FFFFFF;" cx="177.7" cy="186.4" r="21.7"/>
						<circle cx="180.6" cy="187.8" r="10.8"/>
						<circle style="fill:#FFFFFF;" cx="282.4" cy="186.4" r="21.7"/>
						<circle cx="279.5" cy="187.8" r="10.8"/>
					</g>
				</g>
			</g>
		</g>
	</g>
</g>
</svg>
