<?xml version="1.0" encoding="utf-8"?>
<!-- Generator: Adobe Illustrator 22.1.0, SVG Export Plug-In . SVG Version: 6.00 Build 0)  -->
<svg version="1.1" id="Layer_1" xmlns="http://www.w3.org/2000/svg" xmlns:xlink="http://www.w3.org/1999/xlink" x="0px" y="0px"
	 viewBox="0 0 332.8 493" style="enable-background:new 0 0 332.8 493;" xml:space="preserve">
<title>pot2</title>
<g id="Layer_2_1_">
	<g id="Layer_1-2">
		<g style="opacity:0;">
			<path style="fill:#339CC1;" d="M331.7,344c9.7,70.4-47.1,136.3-127,147.4S52.2,454.4,42.5,384s21.3-119.6,126.9-139.4
				C272.3,225.2,322,273.7,331.7,344z"/>
			
				<ellipse transform="matrix(0.9901 -0.14 0.14 0.9901 -39.5859 27.9083)" style="fill:#5DB5D8;" cx="178.5" cy="295.2" rx="111.5" ry="45.7"/>
		</g>
		<g id="Layer_1-2-2">
			<path style="fill:#1E7719;" d="M142.3,250.2c0,0-19.4-63.2-16.4-146.4S126.6,0,126.6,0s56.5,154.8,54.3,214.8
				c-1.4,36.7-6,73.3-13.7,109.2L142.3,250.2z"/>
			<path style="fill:#18D63C;" d="M128.4,271c0,0-23.8-30.9-27.7-80.5S80,115.3,80,115.3s56.9,42.4,62.2,105.1S128.4,271,128.4,271z
				"/>
			<path style="fill:#18D63C;" d="M138.7,307.9c0,0,71.3-150.8,83.3-219.4c11.9-67.7,10.7-81.5,10.7-81.5s17.8,158.8-13,212.6
				S138.7,307.9,138.7,307.9z"/>
			
				<ellipse transform="matrix(0.9901 -0.14 0.14 0.9901 -39.4965 27.8049)" style="fill:#6B3300;" cx="177.8" cy="294.6" rx="100.1" ry="41.1"/>
			<path style="fill:#77F46C;" d="M167.2,323.9c0,0,1-46.9,55.2-98s44.1-125.6,44.1-125.6s18.1,125.6-45.1,176.7
				S167.2,323.9,167.2,323.9z"/>
			<path style="fill:#1E7719;" d="M153.2,314.2c0,0,34.8-81.8-79.2-99.7c-54.6-8.6-74,12.9-74,12.9s72.2-14.1,89.8,31.8
				S153.2,314.2,153.2,314.2z"/>
			<path style="fill:#78C45F;" d="M167.3,323.9c0,0-43.2-93.9-1.9-164.3s27.7-118,27.7-118s40,34.5,18,117.3
				S166.7,271.5,167.3,323.9z"/>
			<path style="fill:#99E23B;" d="M168.7,315.7c0,0-5.9-68.3,56.5-141.5s43.6-153.3,43.6-153.3s35.3,103.6,2.9,162.9
				S173.4,281.8,168.7,315.7z"/>
			<path style="fill:#99E23B;" d="M135.6,228.7c0,0-12.4-37.3-65.7-69S27.8,92,27.8,92s-33.5,51.2,48.3,123.6s87.7,100,87.7,100
				S148.7,252.1,135.6,228.7z"/>
			<path style="fill:#77F46C;" d="M167.3,317.7c0,0-37.9-6-44.2-56.6s10-107.7-2.8-135.3c0,0,40.8,52.5,36.6,96
				C153.6,256.8,167.3,317.7,167.3,317.7z"/>
		</g>
	</g>
</g>
</svg>
