<?xml version="1.0" encoding="utf-8"?>
<!-- Generator: Adobe Illustrator 22.1.0, SVG Export Plug-In . SVG Version: 6.00 Build 0)  -->
<svg version="1.1" id="Layer_1" xmlns="http://www.w3.org/2000/svg" xmlns:xlink="http://www.w3.org/1999/xlink" x="0px" y="0px"
	 viewBox="0 0 256 256" style="enable-background:new 0 0 256 256;" xml:space="preserve">
<g>
	<path style="fill:#FFFFFF;" d="M126.2,120.7c0,0-41.3-29-63.1,11.7c-31.1,58.2,36.7,71.1,7.7,80.9c-29.9,10.1-23.5,18.2-31.9,28.7
		c-8.5,10.5-14.6,8.1-14.6,8.1s10.9,5.7,20.2-10.5s15-16.6,27.9-19.1c20.3-4,7.7-21.4,27.9-11.7c20.2,9.7,45.7-6.1,57.4-25.9
		S169.8,133.2,126.2,120.7z"/>
	<path style="opacity:0.5;" d="M73.8,146c-6.1,13.1-5.8,19.5-10.2,21.9c-3.7,2.1-7-13.2-0.9-26.2s19.2-22.9,23-21.1
		C89.7,122.4,80,132.9,73.8,146z"/>
</g>
<g style="opacity:0;">
	<path style="fill:#74A140;" d="M221.9,55.9c-8.6-13.5,1.3-11.7-7.7-21.1c-9.1-9.4-37.8,3.5-28.7,17.4c9.1,13.9-16.9,8.9-11.6,21.3
		s-7.9,8-5.2,17.2c2.7,9.3-5.9,16.1-20.3,18.1c-12.8,1.8-18.9,10.5-20.1,12.5c0.8,0.3,1.6,0.5,2.4,0.8
		c12.8-13.2,32.2-13.9,35.7-11.5c6.4,4.5,12.9-3.5,12.9-3.5c2.7-4,9.3-7.8,20.3-9.4c11-1.5,6.3-14.8,8.1-20.1
		C209.5,72.4,230.5,69.4,221.9,55.9z"/>
	<path style="fill:#74A140;" d="M113.1,32.9c16.4,2.7-4.9,18.5,7.8,22.9c12.7,4.4,0.5,11.2,9.2,15.5c8.6,4.3,7.8,15.2-0.4,27.2
		c-5.9,8.6-5.6,17.1-4.9,21.2c0.9,0.6,1.4,0.9,1.4,0.9c0.4,0.1,0.8,0.3,1.3,0.4c-1.3-18.5,11.5-33.6,15.7-34.5
		c7.6-1.7,6.2-11.9,6.2-11.9c-1.1-4.7,0.5-12.1,6.9-21.3c6.3-9.2-6.6-14.7-9.3-19.5c-2.7-4.9,9.3-22.4-6.5-25.2
		c-15.8-2.8-7.7-8.9-20.8-8.6C106.6,0.3,96.6,30.2,113.1,32.9z"/>
</g>
</svg>
