<?xml version="1.0" encoding="utf-8"?>
<!-- Generator: Adobe Illustrator 22.1.0, SVG Export Plug-In . SVG Version: 6.00 Build 0)  -->
<svg version="1.1" id="Layer_1" xmlns="http://www.w3.org/2000/svg" xmlns:xlink="http://www.w3.org/1999/xlink" x="0px" y="0px"
	 viewBox="0 0 256 256" style="enable-background:new 0 0 256 256;" xml:space="preserve">
<g>
	<path id="XMLID_25_" style="fill:#FFFFFF;" d="M249,131.2c0,67.4-54.5,122-121.7,122S5.7,198.6,5.7,131.2
		c0-32.5,12.6-61.6,33.2-83.2c22.2-23.3,53.6-38,88.4-38.8C205.1,7.2,249,63.8,249,131.2z"/>
	<polygon style="fill:#FFFFFF;" points="156.1,12.8 164.2,11.5 172,10.3 178.2,10.1 182.8,13.1 180.1,21.1 174.8,24.6 169.2,16.3 	
		"/>
	<path style="fill:#FFFFFF;" d="M34.5,56.4c0,0-3.5-22.1,7.6-26.9s18.7,18,18.7,18"/>
</g>
<g style="opacity:0;">
	<g id="XMLID_24_">
		<path style="fill:#37B34A;" d="M26.6,70.2c4.3-2.4,10.2,1.8,14.2,3.3c3.7,1.4,7.4,1.9,11.3,1.6c4.2-0.3,8.4-1.4,12.6-1.1
			c2.4,0.2,4.6,0.9,6.3,2.6c1.6,1.5,2.5,3.7,4.1,5.2c5.2,5,13.4,3.4,19.9,3.3c4.4-0.1,8.7,0.3,12.3,3.2c3.3,2.6,5.6,6.2,8.9,8.8
			c6.3,5,14.3,3.9,21.9,4c5,0,9.2,0.9,13.1,4.2c3,2.5,5.7,5.5,9.6,6.7c8.1,2.5,17.5-3.4,25,1.2c3.3,2,5.6,5.4,8.7,7.8
			c2.9,2.3,6,3,9.6,3.4c1.7,0.2,3.7,0.3,5.3,1c2.5,1,2.8,2.8,3.3,5.2c1,5.3,5.6,4.7,9.1,7.7c3.9,3.4,6.2,8.9,8.2,13.5
			c2.1,4.9,3.9,9.8,6.5,14.4c0.8,1.4,4.6,0,4-1.1c-4.7-8.2-6.9-17.7-12.4-25.5c-1.1-1.6-2.4-3-4-4c-1.8-1.2-4.6-1.5-6.1-3
			c-1.6-1.6-1-4.2-2-6.2c-0.6-1.3-1.7-2.2-3-2.8c-3.2-1.5-6.9-1.1-10.2-2c-4.4-1.1-7-4.7-10.2-7.6c-6.8-6.3-14.1-4.5-22.5-3.7
			c-6,0.5-9.6-1.7-13.9-5.6c-3-2.7-6.2-4.7-10.3-5.4c-9.3-1.6-19.6,2.2-27.3-5c-2.9-2.7-5.2-6-8.4-8.3c-3.1-2.2-6.8-3-10.5-3.1
			c-4.2-0.2-8.4,0.5-12.5,0.3c-5.3-0.2-7.9-2.4-10.9-6.5c-6-8.1-16.6-3.7-24.9-3.7c-9.5,0-17.6-9.2-27-3.9
			C21.7,70.3,25.2,71,26.6,70.2L26.6,70.2z"/>
	</g>
	<g id="XMLID_23_">
		<path style="fill:#37B34A;" d="M171.3,109.6c0.7-2.1,1.5-4.2,2.7-6c2.2-3.3,4.6-3.3,8.3-3.5c3.6-0.2,7-1.6,9.9-3.6
			c6.9-4.6,14.3-11.4,18.3-18.7c1.1-1.9,1.7-4,2.7-6c1.1-2.4,2.8-3.6,4.7-5.2c2.8-2.4,2.8-5.5,2.5-9c-0.3-4.6,1.8-9.8,0.2-14.2
			c-1.2-3.3-3.9-5.3-7.4-5.2c-1.4,0-4.3,2.2-1.6,2.1c6.5-0.2,5.3,8.7,4.8,12.5c-0.4,3.6,1.2,9.1-0.8,12.1c-1,1.5-2.9,2.2-4.1,3.4
			c-1.1,1.1-1.8,2.5-2.5,3.9c-1.9,4.1-3.6,7.9-6.6,11.3c-2.8,3.3-6.1,6.1-9.3,8.9c-1.7,1.4-3.4,2.9-5.3,3.9
			c-2.9,1.5-5.4,1.1-8.4,1.4c-6.9,0.6-10.2,6.1-12.3,12.1C166.9,111.4,170.8,110.9,171.3,109.6L171.3,109.6z"/>
	</g>
	<g id="XMLID_22_">
		<path style="fill:#37B34A;" d="M37.9,51c-1-3.4-1.8-7-1-10.6c0.8-3.6,3-6.6,5-9.5c-0.9,0.4-1.8,0.7-2.6,1.1
			c1.4,0.1,2.7,0.6,4.1,0.7c1.6,0.1,4.2-2.2,1.5-2.4c-1.8-0.1-3.9-1.2-5.7-0.4c-2.2,1-3.7,4.6-4.7,6.6c-2.6,5.1-2.2,10.2-0.6,15.5
			C34.4,53.6,38.4,52.5,37.9,51L37.9,51z"/>
	</g>
	<g id="XMLID_21_">
		<path style="fill:#37B34A;" d="M158.5,11.9c3.7,1.4,7.4,0.8,11.2,0c2.7-0.6,5.8-1.5,8.5-0.3c2.4,1.1,3.6,3.2,2.6,5.6
			c-0.8,2-2.7,3.9-4,5.6c-1.7,2.1-3.4,4.2-5.1,6.2c-2.9,3.4-5.9,6.6-9,9.8c-6.4,6.6-13.2,12.8-20.4,18.5c-1.9,1.5-3.8,3.1-6,4.1
			c-2.2,1-4.4,0.8-6.6,0.7c-3.4-0.1-6.6,0-9.5,2c-2.2,1.5,1.1,2.4,2.5,1.4c2.4-1.6,5.8-0.8,8.5-0.8c1.8,0,3.5-0.3,5.2-0.8
			c4.1-1.4,7.4-4.3,10.7-7c8.2-6.6,15.9-13.9,23-21.6c3.4-3.7,6.6-7.4,9.7-11.3c2.3-2.8,6.8-6.8,5.2-10.8c-3.7-9.5-17.6-1.1-24-3.6
			C159.5,9,156.3,11,158.5,11.9L158.5,11.9z"/>
	</g>
	<g id="XMLID_20_">
		<path style="fill:#37B34A;" d="M185.2,23.3c6.3,2.2,12,5.8,16.4,10.9c4.2,4.8,8.5,11.9,7.1,18.4c-0.4,2,3.7,1.5,4.1-0.3
			c1.5-7.1-3-14.7-7.5-19.9c-4.7-5.5-10.9-9.5-17.8-11.8C185.8,20,182.8,22.5,185.2,23.3L185.2,23.3z"/>
	</g>
	<g id="XMLID_19_">
		<path style="fill:#37B34A;" d="M163.7,40.2c-4.5-2.9-9.6-0.6-14.4,0.3c-7.4,1.3-14-0.8-21.2-1.9c-2.6-0.4-5.3-0.6-7.9-0.2
			c-2.9,0.5-5.3,2.3-8.2,1.5c-2.8-0.7-5.6-2.1-8.3-3.1c-3.2-1.2-6.7-2.1-9.6-3.9c-6.5-4-2.8-12.7,1.6-16.9
			c5.3-5.1,13.4-3.8,20.1-3.6c6.7,0.2,13.6,0.1,20.3,0.7c3.2,0.3,5.8,1.2,7.6,4.1c0.5,0.8,0.8,1.7,1.4,2.4c0.8,1,1.8,1.2,2.7,2
			c2.2,1.8,1.6,4.3-0.7,5.9c-2.1,1.5-5.1,1.3-7.5,1.1c-3.5-0.2-7-0.4-10.5-0.6c-4.4-0.3-7.5-1.2-9.5-5.5c-0.9-2-0.4-4.2,2.3-3.9
			c2.5,0.2,4.7,1.4,6.5,3.1c0.1-0.4,0.1-0.8,0.2-1.2c-0.6,0.1-1.2,0.2-1.8,0.3c-1.4-0.4-4.7,1.7-2.4,2.4c2.8,0.8,5.4,0.1,7.5-1.9
			c0.3-0.3,0.6-0.9,0.2-1.2c-3.6-3.3-12.9-6.8-16.5-1.5c-1.7,2.5,0.2,5.8,1.7,7.9c2.1,2.9,5.1,3.7,8.6,3.9c4.3,0.3,8.6,0.6,12.9,0.8
			c3.8,0.1,7.7-0.1,10.9-2.3c2-1.4,4.2-4,3.6-6.7c-0.3-1.2-0.9-1.9-1.9-2.5c-1-0.7-1.7-0.7-2.6-1.7c-0.8-0.9-1.1-2.1-1.8-3.1
			c-4.2-6.1-14.5-4.5-20.9-4.7c-5-0.2-9.9-0.3-14.9-0.5c-4.7-0.2-7.9,0-12.3,1.6c-6.2,2.2-11.5,8.2-12.3,14.8
			c-1.1,8.6,8.5,10.7,14.7,13c3.7,1.4,8.7,4.4,12.7,3.7c2.4-0.4,4.3-1.9,6.8-2.2c2.8-0.3,5.7,0.3,8.5,0.9c4.9,1,9.6,2.1,14.6,1.9
			c2.4-0.1,4.7-0.4,7-0.9c3.2-0.7,6.6-2.3,9.6-0.3C161.7,43,165.4,41.3,163.7,40.2L163.7,40.2z"/>
	</g>
	<g id="XMLID_18_">
		<path style="fill:#37B34A;" d="M140.4,11.8c5.7,2,11.5,4,16.9,6.7c4,2,8.1,4.7,8.6,9.5c0.1,0.7,4.1,0,4-1.1
			c-0.5-4.9-4.8-7.8-8.9-9.8c-5.6-2.7-11.5-4.8-17.4-6.9C142.8,10,139.3,11.4,140.4,11.8L140.4,11.8z"/>
	</g>
	<g id="XMLID_17_">
		<path style="fill:#37B34A;" d="M50.7,127c7.4,18.9,6.3,40,13.9,58.9c6.7,16.4,19.7,29.1,33.7,39.6c8.4,6.3,17.3,11.8,26.2,17.3
			c1.5,0.9,5-1.1,3.1-2.3c-19.2-11.8-39.5-24.4-52.3-43.4c-14.5-21.4-11.4-47.9-20.6-71.2C54,124.2,50,125.3,50.7,127L50.7,127z"/>
	</g>
	<g id="XMLID_16_">
		<path style="fill:#37B34A;" d="M60.3,158.8c10.7,3.9,21.3,0,32.1-1.5c5.7-0.8,11.4-0.1,17-1.4c4.9-1.1,9.4-3.4,13.3-6.5
			c1.8-1.4-2.2-1.6-3.2-0.7c-3.9,3.1-8.5,5-13.4,5.6c-4.8,0.6-9.6,0.2-14.3,0.9c-9.3,1.4-19,5-28.2,1.6
			C62.2,156.4,58.5,158.2,60.3,158.8L60.3,158.8z"/>
	</g>
	<g id="XMLID_15_">
		<path style="fill:#37B34A;" d="M80.2,206.5c9.9-5.8,20.4-8.3,31.7-9.2c4.9-0.4,9.7-1.1,14.5-2.6c5-1.6,9.9-3.8,14.8-5.7
			c10.1-4.1,20.7-7.6,30.3-12.6c7.5-4,14.5-10.5,13.9-19.6c-0.1-1.6-4.1-0.7-4,1.1c0.7,11.3-11.1,16.7-19.8,20.2
			c-9.8,4-19.7,8-29.5,11.9c-4.8,1.9-9.6,3.6-14.7,4.3c-4.7,0.6-9.5,0.7-14.2,1.5c-9,1.5-17.6,4.6-25.5,9.3
			C75.3,206.4,78.7,207.4,80.2,206.5L80.2,206.5z"/>
	</g>
	<g id="XMLID_14_">
		<path style="fill:#37B34A;" d="M121.4,236.5c2.4-4.4,6.1-7.9,10.8-9.8c4.5-1.7,9.4-1.2,14-2.3c8.7-2,16.7-7.7,24.2-12.2
			c7.9-4.8,15.7-9.9,22.6-16.1c6-5.4,12.6-12,13.2-20.5c0-0.6-3.9-0.2-4,1.1c-0.6,9.5-9.1,16.8-15.9,22.4
			c-7.5,6.1-15.8,11.2-24.1,16c-4.5,2.6-9.2,5.8-14.2,7.4c-4.4,1.4-9.2,1-13.7,2.1c-7.1,1.7-13.3,6.1-16.8,12.5
			C117.1,237.8,120.8,237.6,121.4,236.5L121.4,236.5z"/>
	</g>
	<g id="XMLID_13_">
		<path style="fill:#37B34A;" d="M59.6,163.3c-8.3-3.5-16.9-9.1-23-15.7c-8.3-8.9-16.2-17.9-25.4-26c-1.2-1.1-4.8,0.7-3.1,2.2
			c5,4.3,9.7,8.8,14.2,13.6c4.3,4.6,8.1,9.7,12.7,14c6.3,5.9,14.3,11.1,22.2,14.4C58.8,166.5,61.9,164.2,59.6,163.3L59.6,163.3z"/>
	</g>
	<g id="XMLID_12_">
		<path style="fill:#37B34A;" d="M75.3,202.7c-12,2.7-21-10.1-29.2-16.5c-1.8-1.4-3.6-2.8-4.9-4.7c-1.3-1.8-2.4-3.6-4.2-5
			c-3.4-2.7-7.7-4-11.8-5.2c-1.2-0.4-4.7,1.4-2.5,2.1c5.5,1.6,10.4,3.5,13.8,8.3c3.2,4.6,8,7.5,12,11.3c7.7,7.1,16.1,14,27.2,11.5
			C78.3,204.1,77.8,202.2,75.3,202.7L75.3,202.7z"/>
	</g>
	<g id="XMLID_11_">
		<path style="fill:#37B34A;" d="M111,236.2c-7.7-2.2-15.3-4.9-22.5-8.4c-3.3-1.6-6.5-3.6-10.1-4.5c-3.2-0.8-7.8,0.7-10.5-1.4
			c-1-0.8-4.6,0.8-3.7,1.5c2.3,1.7,4.7,1.5,7.4,1.4c4.7-0.1,8.4,2.2,12.5,4.2c7.6,3.7,15.5,6.6,23.7,8.9
			C108.8,238.2,112.4,236.6,111,236.2L111,236.2z"/>
	</g>
	<g id="XMLID_10_">
		<path style="fill:#37B34A;" d="M210.6,89.6c16.2,9.9,15.6,30.5,11.7,46.8c-0.3,1.3,3.7,0.7,4-0.6c4.1-17.1,4.3-37.8-12.5-48.1
			C212.9,87.2,209.1,88.7,210.6,89.6L210.6,89.6z"/>
	</g>
	<g id="XMLID_9_">
		<path style="fill:#37B34A;" d="M225.5,96.6c4.6-7.5,2.5-16.3,0.1-24.2c-0.5-1.6-4.5-0.5-4,1.1c2.2,7.4,4.5,15.8,0.1,22.9
			C220.7,98.1,224.7,97.9,225.5,96.6L225.5,96.6z"/>
	</g>
	<g id="XMLID_8_">
		<path style="fill:#37B34A;" d="M229.6,124.6c6.2-7.7,9.7-17,9.7-26.9c0-2-4-1.3-4,0.4c0,9.4-3.1,18.2-9,25.5
			C224.7,125.5,228.6,125.9,229.6,124.6L229.6,124.6z"/>
	</g>
	<g id="XMLID_7_">
		<path style="fill:#37B34A;" d="M221.8,106.2c-8.3,6.1-20,4.5-27.4-2.3c-0.9-0.8-4.6,0.7-3.7,1.5c9.2,8.6,24.3,8.5,34.3,1.2
			C226.7,105.3,222.7,105.6,221.8,106.2L221.8,106.2z"/>
	</g>
	<g id="XMLID_6_">
		<path style="fill:#37B34A;" d="M179.2,42.5c8.3,4.5,14.5,11.9,17.4,20.8c0.4,1.2,4.4,0.1,4-1.1c-3.1-9.4-9.6-16.9-18.2-21.6
			C181.4,40.1,177.7,41.6,179.2,42.5L179.2,42.5z"/>
	</g>
	<g id="XMLID_5_">
		<path style="fill:#37B34A;" d="M189.6,46.7c4.8-4.2,6.6-10.8,4.1-16.7c-0.4-0.9-4.3,0.4-4,1.1c2.4,5.6,0.9,11.9-3.7,16
			C185.2,47.8,188.9,47.4,189.6,46.7L189.6,46.7z"/>
	</g>
	<g id="XMLID_4_">
		<path style="fill:#37B34A;" d="M183.2,49.6c-2.9,0.9-5.8,1.5-8.7,1.8c-0.8,0.1-2.1,0.6-2.2,1.6c-0.1,1,1,1.4,1.8,1.3
			c3.3-0.4,6.6-1.1,9.8-2C186.3,51.6,185.7,48.9,183.2,49.6L183.2,49.6z"/>
	</g>
	<path id="XMLID_3_" style="fill:#8BC53F;" d="M19.6,74.3"/>
	<g id="XMLID_2_">
		<path style="fill:#37B34A;" d="M40.8,31.9c7.1-0.2,13.3,5.3,14.4,12.1c0.4,2.2,3.9,1.2,5,0.5c4.4-2.6,9.8,4.4,12.1,7.1
			c3,3.5,6.3,6.2,10.3,8.4c9.3,5,19.3,9,29.4,12.2c9.8,3.2,20.3,6.2,30.6,7.3c4.7,0.5,9.5,0.2,13.9-1.6c2.2-0.9,4.1-2.4,6.4-3
			c2.7-0.7,5.7-0.5,8.5-0.4c11.1,0.1,21.8-3,31.2-9.1c1.1-0.7,1.4-2.1,0.3-3c-1.1-1-3.2-0.3-4.3,0.4c-9.1,5.9-18.7,7.4-29.3,7.4
			c-5.3,0-9.2,1.3-13.9,3.6c-5.1,2.5-10.7,1.7-16.1,0.7c-10.8-2-21.4-5.1-31.7-8.9c-5.1-1.9-10.2-4-15.2-6.4
			c-4.6-2.2-9.3-4.4-12.9-8.2c-3.4-3.5-6-7.8-10.6-9.9c-4.3-1.9-8.7-1.7-12.7,0.7c1.7,0.2,3.3,0.3,5,0.5
			C59.6,33,50.5,27.4,41.3,27.6C38,27.7,36.7,32,40.8,31.9L40.8,31.9z"/>
	</g>
</g>
</svg>
