<?xml version="1.0" encoding="utf-8"?>
<!-- Generator: Adobe Illustrator 22.1.0, SVG Export Plug-In . SVG Version: 6.00 Build 0)  -->
<svg version="1.1" id="Layer_1" xmlns="http://www.w3.org/2000/svg" xmlns:xlink="http://www.w3.org/1999/xlink" x="0px" y="0px"
	 viewBox="0 0 256 256" style="enable-background:new 0 0 256 256;" xml:space="preserve">
<g>
	<path id="XMLID_4_" style="fill:#FFFFFF;" d="M93.7,76.5c0,0-17.7-10.5-38.2-11.8c-4.1-0.3-8.3-0.2-12.6,0.5
		c-23.1,6.5-32.2,22.6-34.3,42.2c-0.4,3.9-0.5,8-0.5,12.1c-1.3,40.6,8.2,88.8,40.6,117.4c4.9,4.3,10.7,7.3,17,8.8
		c0.6,0.1,1.2,0.3,1.8,0.4c4.7,0.9,10.2,1.4,15.9,0.7c5.7-0.7,11.7-2.5,17.4-6.2c-0.4-5.1-0.8-10.2-1.2-15.3
		c-0.3-5.1-0.7-10.2-1-15.3c-4.5-36.1,0.9-71.6-1.8-107.9c0-5.1,0.1-10.2,0.2-15.3C96.3,82.2,95.1,78.7,93.7,76.5z"/>
	<path id="XMLID_3_" style="fill:#FFFFFF;" d="M158.2,76.6c4.5-4.1,15.4-4.1,20.4-10c3.2-1.2,6.6-2,10-2.4
		c20.4-2.8,42.5,7,50.7,27.5c8.2,24.6,0,49.3-5.3,74.4c-1.1,4.3-1.9,8.7-3.5,12.8C219,208,213,235,176.8,246.5
		c-15.8,2.5-24.7-2.4-30.4-6.1c1.9-10.2,3.2-20.3,4.2-30.3c0.5-5,0.9-10,1.2-15c-2.8-35.1,13.6-67.9,2.9-104.7
		C155.4,84.3,156.6,79.5,158.2,76.6z"/>
	<path id="XMLID_2_" style="fill:#FFFFFF;" d="M156.2,79.6c-7.2-7.1-18.2-7.1-29.5-9.1c-4.1-0.5-8.4-0.7-12.7-0.4
		c-8.6,0.6-17.4,3.3-25.2,9.3c-1.9,1.4-3.1,3.5-3.7,5.7c-3.1,8.4-6,17-8.4,25.6c-1.2,4.3-2.4,8.7-3.4,13.1
		c-1.8,4.4-2.7,8.6-3.2,12.9c-0.1,3.9-0.3,7.8-0.5,11.9c-0.2,4-0.5,8.1-0.6,12.2c0.7,7.3,0.7,15.5,1.2,24c0.7,3.8,1.7,7.5,3.2,11.1
		c1.5,3.5,3.4,6.9,5.9,10c1.4,2.8,2.9,5.5,4.5,8.2c1.9,4.4,4.1,8.9,6.6,13.3c2.5,4.3,5.3,8.6,8.4,12.9c0,0,6.6,3.7,16.1,5.5
		c4.7,0.9,10.2,1.4,15.9,0.7c5.7-0.7,11.7-2.5,17.4-6.2c1.6-2.4,3.1-4.8,4.6-7.2c1.5-2.4,2.9-4.9,4.3-7.3c2.4-3.1,4.6-6.3,6.5-9.7
		s3.6-6.8,5-10.3c15.9-37.7,13.2-84.2-5.5-121C161.2,82.7,158.9,80.9,156.2,79.6z"/>
	<path style="opacity:0.5;" d="M227.7,170.1c-9.6,38.7-28.9,61.7-38,60c-9.1-1.6,7-24.3,16.4-59.7c8.1-30.5,8.5-72.1,17.6-70.5
		C232.9,101.5,236.5,134.4,227.7,170.1z"/>
	<path style="opacity:0.5;" d="M170.1,166.9c-3.8,36.3-15.7,64.7-28.6,63.6c-13.7,1.4,2.6-27.1,6.4-63.3s-6.1-68.6,7.5-68.1
		C167.5,100,173.9,130.6,170.1,166.9z"/>
</g>
<g style="opacity:0;">
	<path style="fill:#DC1F2B;" d="M55.4,64.7c19.1,1.2,35.8,10.4,38,11.7c6.6-3.8,13.6-5.6,20.5-6.2c4.3-0.3,8.6-0.1,12.7,0.4
		c11.4,1.9,22.3,1.9,29.5,9.1c0.2,0.1,0.4,0.2,0.6,0.3c0.4-1.3,0.9-2.4,1.4-3.3c4.5-4.1,15.4-4.1,20.4-10c3.2-1.2,6.6-2,10-2.4
		c8.9-1.2,18.1,0,26.3,3.3c-11.5-9.3-29.8-11.4-44-11.3c-3.7,0.1-7.4,0.5-11.2,1.2c-3.8,0.6-7.5,1.6-11.2,2.8
		c-13.5-4.8-33-8.6-51.1,0c-12.3-2.8-27.3-6.9-41-2.5C52,59,47.5,63.8,47,64.7C49.9,64.5,52.7,64.5,55.4,64.7z"/>
	<path style="fill:#70BF5C;" d="M113.9,70.2c4.3-0.3,8.6-0.1,12.7,0.4c11.4,1.9,22.3,1.9,29.5,9.1c0.4,0.2,0.8,0.5,1.3,0.7
		c6.1-8.7-14.4-24.7-29.4-21.8c11-23.3,36.4-39.3,32.1-46.1L157.6,7c-36.1,10.8-41.6,38.2-37.9,52.8l0,0c-4-2.8-24.2,5.5-26,16.4
		C100.2,72.5,107.1,70.7,113.9,70.2z"/>
</g>
</svg>
