<?xml version="1.0" encoding="utf-8"?>
<!-- Generator: Adobe Illustrator 22.1.0, SVG Export Plug-In . SVG Version: 6.00 Build 0)  -->
<svg version="1.1" id="Layer_1" xmlns="http://www.w3.org/2000/svg" xmlns:xlink="http://www.w3.org/1999/xlink" x="0px" y="0px"
	 viewBox="0 0 256 256" style="enable-background:new 0 0 256 256;" xml:space="preserve">
<g style="opacity:0;">
	<path style="fill:#5A7F2F;" d="M49.4,156.5l-0.8-0.8c0,0-8.6-10.8-7.8-18.8c-4.4,5.4-11-2.3-11-2.3s-6.7-5.6-8.9,2.2
		C18.7,144.7,2,151.3,2,151.3c4.4-1.1,13.3-1.1,18.9,11.1c5.6,12.2,17.8,16.7,17.8,16.7l21.1-22.2l-1.6-2.7
		C54.8,154.8,52.1,156,49.4,156.5z"/>
	<path style="fill:#7AB12B;" d="M25.3,148c0,0,3.3-3.3,14.4,5.6s14.4-4.4,31.1,2.2c0,0,5.6,3.3,8.9,12.2s4.4-7.8,10-5.6
		c5.6,2.2,13.3,8.9,18.9,17.8c0,0,17.8,0,20,11.1c2.2,11.1,2.2,12.2,10,15.5c0,0-17.8,5.6-18.9,14.4c0,0-31.1,7.8-50-10
		c0,0-4.4-5.6-15.5-14.4s-14.4-11.1-16.7-22.2C35.3,163.5,23.1,151.3,25.3,148z"/>
	<path style="fill:#7AB12B;" d="M119.7,221.3c0,0-3.9-5,7.8-10c13.3-5.7,13.3-3.3,13.3-20s10-28.9,17.8-24.4
		c7.8,4.4,15.5-2.2,13.3-6.7c-2.2-4.4-5.6-11.1,2.2-15.5c7.8-4.4,8.9-7.8,8.9-7.8s5.6-5.6,10,0c4.4,5.6,3.3-13.3,13.3-18.9
		c10-5.6,16.7-2.2,16.7-2.2s10,5.6,17.8-3.3c7.8-8.9,13.3-4.4,13.3-4.4s-6.7,10-4.4,21.1c2.2,11.1,1.1,35.5-8.9,47.7
		c-10,12.2-12.2,22.2-32.2,28.9s-22.2,12.2-38.9,15.5C153,224.6,136.3,211.3,119.7,221.3z"/>
	<g>
		<path style="fill:#296B1E;" d="M173.4,219.6c1-3.6,0.7-7.4-0.1-11c-0.4-1.8-1-3.6-1.7-5.3c-0.4-0.8-0.7-1.7-1.2-2.5l-1.3-2.5
			c-1.8-3.4-3.3-7.1-3.3-11.1c0-2,0.2-3.9,0.7-5.8c0.5-1.9,1.2-3.7,2.3-5.2l0.2,0.1c-1.1,3.6-1.5,7.2-1.2,10.8
			c0.1,1.8,0.4,3.6,0.9,5.3l0.3,1.3l0.4,1.3c0.3,0.9,0.7,1.7,1.1,2.5l1.2,2.6c0.4,0.9,0.7,1.8,1.1,2.7c0.6,1.8,1.1,3.7,1.4,5.5
			c0.6,3.8,0.5,7.7-0.7,11.3L173.4,219.6z"/>
	</g>
	<g>
		<path style="fill:#296B1E;" d="M167.4,187.7c1.1-0.6,2.2-1.2,3.3-1.9c1.1-0.7,2.1-1.4,3.1-2.1c1-0.8,1.8-1.7,2.8-2.4
			c1-0.7,1.9-1.5,3-2.2l0.2,0.1c-0.2,1.4-1,2.6-1.8,3.6c-0.9,1-2.1,1.6-3.2,2.3c-1.1,0.6-2.3,1.2-3.5,1.7c-1.2,0.5-2.4,0.9-3.7,1.2
			L167.4,187.7z"/>
	</g>
	<g>
		<path style="fill:#296B1E;" d="M150.8,192.4c1.2,1.6,2.6,3.2,4.1,4.5c1.5,1.4,3.1,2.6,4.9,3.4c1.8,0.9,3.6,1,5.4,0.9
			c1.8-0.1,3.6-0.9,5.5-1.8l0.1,0.1c-1.1,1.8-3,3.2-5.3,3.7c-1.1,0.2-2.3,0.1-3.4-0.2c-1.1-0.3-2.1-0.8-3-1.3
			c-1.9-1.1-3.4-2.6-4.8-4.1c-1.4-1.6-2.6-3.3-3.6-5.1L150.8,192.4z"/>
	</g>
	<g>
		<path style="fill:#296B1E;" d="M177.3,219c3.7-6.2,7.4-12.4,11.2-18.5c1.9-3.1,3.9-6.1,5.9-9.1c1-1.5,2-3,3.2-4.4
			c1.1-1.5,2.4-2.8,3.6-4.1c4.9-5.3,9.8-10.6,14.6-15.9c2.4-2.7,4.7-5.4,6.8-8.3c1-1.4,2-2.9,2.9-4.5c0.9-1.5,1.6-3.2,1.9-4.9l0.2,0
			c-0.1,1.8-0.6,3.6-1.3,5.3c-0.7,1.7-1.6,3.3-2.5,4.9c-1.9,3.1-4.1,6-6.4,8.8c-4.6,5.6-9.9,10.6-14.9,15.7
			c-1.2,1.3-2.5,2.6-3.6,3.9c-1.1,1.4-2.2,2.8-3.2,4.3c-2.1,2.9-4.1,5.9-6.1,8.9c-4,6-8,12-11.8,18.1L177.3,219z"/>
	</g>
	<g>
		<path style="fill:#296B1E;" d="M227.5,175.8c-0.1,1.4-0.8,2.7-1.7,3.8c-0.9,1.1-2,1.9-3.2,2.7c-2.4,1.5-5,2.5-7.7,3.3
			c-2.7,0.7-5.4,1.5-8.1,1.7c-2.8,0.2-5.5,0.1-8.3-0.2l0-0.2c1.3-0.4,2.7-0.6,4-0.8c0.7-0.1,1.3-0.2,2-0.4l2-0.3
			c1.3-0.2,2.7-0.4,4-0.6c1.3-0.1,2.6-0.4,4-0.6c2.6-0.6,5.2-1.3,7.6-2.6c1.1-0.7,2.3-1.3,3.2-2.3c0.3-0.2,0.5-0.5,0.7-0.7
			c0.2-0.3,0.4-0.5,0.6-0.8c0.4-0.5,0.6-1.2,0.7-1.8H227.5z"/>
	</g>
	<g>
		<path style="fill:#296B1E;" d="M227.4,185.8c-0.8,0.5-1.7,0.8-2.6,1c-0.9,0.1-1.9,0.1-2.9,0c-0.9-0.2-2-0.3-2.8-0.9
			c-0.8-0.6-1.5-1.3-1.8-2.3l0.1-0.2c0.5,0,1,0.2,1.4,0.3c0.4,0.1,0.8,0.3,1.2,0.4c0.8,0.3,1.4,0.8,2.2,1.1c0.8,0.3,1.6,0.5,2.4,0.6
			c0.8,0.1,1.7,0.1,2.6-0.1L227.4,185.8z"/>
	</g>
	<g>
		<path style="fill:#296B1E;" d="M66.3,205.8c-1.5-2.1-2.8-4.3-3.9-6.6c-1.1-2.3-2-4.8-2.5-7.3c-0.5-2.5-1.2-4.9-1.7-7.3
			c-0.6-2.4-1.2-4.7-3-6.6l0.1-0.2c1.2,0.5,2.3,1.5,3,2.6c0.8,1.1,1.3,2.3,1.7,3.6c0.9,2.5,1.1,5.1,1.4,7.6c0.3,2.5,0.9,4.9,1.8,7.2
			c0.9,2.4,1.9,4.6,3.2,6.8L66.3,205.8z"/>
	</g>
	<g>
		<path style="fill:#296B1E;" d="M48.7,178c-0.1,1.7,0.1,3.4,0.7,4.9c0.6,1.5,1.5,2.9,2.7,4l0.9,0.7c0.3,0.2,0.7,0.4,1,0.6
			c0.7,0.4,1.4,0.7,2.1,1.2c0.7,0.4,1.5,0.7,2.2,1.1c0.8,0.3,1.5,0.7,2.3,1.2l0,0.2c-0.9,0.1-1.8,0-2.7,0c-0.9-0.2-1.8-0.4-2.6-0.7
			c-1.7-0.6-3.2-1.8-4.4-3.2c-1.2-1.4-2.1-3.1-2.5-4.8c-0.4-1.8-0.4-3.6,0.1-5.3L48.7,178z"/>
	</g>
	<g>
		<path style="fill:#296B1E;" d="M82,189.1c-0.8,1.7-1.9,3.3-2.9,4.9c-1.1,1.6-2.3,3.1-3.6,4.5c-1.3,1.4-2.5,2.9-4.1,4
			c-1.6,1.1-3.2,2.1-5.1,2.7l-0.1-0.2c1.3-1.5,2.6-2.8,4-4.1c1.3-1.3,2.9-2.4,4.3-3.6c1.4-1.3,2.7-2.6,3.9-4
			c1.3-1.4,2.4-2.9,3.5-4.4L82,189.1z"/>
	</g>
	<g>
		<path style="fill:#5A7F2F;" d="M201.5,122.6c0,0.1-0.1,0.1-0.1,0.2C201.4,122.7,201.5,122.7,201.5,122.6z"/>
		<path style="fill:#5A7F2F;" d="M202.2,121.7c-0.1,0.1-0.1,0.1-0.2,0.2C202.1,121.8,202.1,121.8,202.2,121.7z"/>
		<path style="fill:#5A7F2F;" d="M200.9,123.6C200.9,123.7,200.8,123.7,200.9,123.6C200.8,123.7,200.9,123.7,200.9,123.6z"/>
		<path style="fill:#5A7F2F;" d="M202.9,120.8c-0.1,0.1-0.1,0.2-0.2,0.2C202.7,121,202.8,120.9,202.9,120.8z"/>
		<path style="fill:#5A7F2F;" d="M155.2,75.8c8.9,1.1,21.1,0,24.4,7.8c3.3,7.8,15.5,3.3,20,13.3c3.3,7.3,7.7,14.1,9.4,19.8
			c8.4-3.6,13.9-0.9,13.9-0.9s5.9,3.3,12.1,0.8c-0.1-1.7-0.4-5.3-1-13c-1.1-13.3-15.5-6.7-22.2-26.6c-6.7-20-30-27.8-30-27.8
			c6.7,16.7-17.8,2.2-27.8,6.7c-7.9,3.5-4,14.6-2.1,19.1C152.8,75.4,153.8,75.7,155.2,75.8z"/>
		<path style="fill:#5A7F2F;" d="M207.8,117.3c-0.5,0.2-1,0.5-1.5,0.8C206.8,117.7,207.3,117.5,207.8,117.3z"/>
		<path style="fill:#5A7F2F;" d="M205.1,118.8c0.1-0.1,0.2-0.1,0.3-0.2C205.2,118.7,205.1,118.7,205.1,118.8z"/>
		<path style="fill:#5A7F2F;" d="M203.4,120.3c0.1-0.1,0.2-0.2,0.2-0.3C203.5,120.1,203.5,120.2,203.4,120.3z"/>
		<path style="fill:#5A7F2F;" d="M204.4,119.3c-0.1,0.1-0.2,0.2-0.3,0.2C204.3,119.4,204.4,119.4,204.4,119.3z"/>
	</g>
	<path style="fill:#5A7F2F;" d="M42.2,133.1c1.2-1.7,3.2-3.1,6.5-3.9c0,0-4.2-12.6,6.8-16.4c0.3-0.1,0.6-0.2,0.9-0.3
		c0,0-5.6-10,7.8-22.2c13.3-12.2,4.4-13.3,20-18.9s21.1-7.8,28.9-4.4c0,0,0,0,0,0c0,0,0,0,0,0c0,0,0,0,0.1-0.1c0,0,0.1-0.1,0.1-0.1
		c0,0,0,0,0.1-0.1c0,0,0.1-0.1,0.1-0.1c0,0,0,0,0,0c0.1-0.1,0.1-0.1,0.2-0.2c0,0,0,0,0,0c0.1-0.1,0.2-0.2,0.3-0.2c0,0,0,0,0,0
		c2.8-2.6,11.1-9.1,21.2-6.3c0.5-1.5,0.6-2.8,0-3.8c-7.8-13.3-1.1-18.9-1.1-18.9s-2.2,1.1-14.4-3.3c-12.2-4.4-14.4,4.4-30,6.7
		S68.6,53.6,65.3,62.5s-10,16.7-17.8,23.3c-7.8,6.7-2.2,12.2-3.3,20c-1.1,7.8-8.9,5.6-10,13.3c-1.1,7.8,7.8,13.3,7.8,13.3
		S42,132.7,42.2,133.1z"/>
</g>
<g>
	<g>
		<path style="fill:#FFFFFF;" d="M199.6,96.9c-4.4-10-16.7-5.6-20-13.3s-15.5-6.7-24.4-7.8s-1.1-6.7-15.5-14.4
			C125.2,53.6,113,67,113,67c-7.8-3.3-13.3-1.1-28.9,4.4s-6.7,6.7-20,18.9c-13.3,12.2-7.8,22.2-7.8,22.2
			c-12.2,3.3-7.8,16.7-7.8,16.7c-17.8,4.4,0,26.6,0,26.6l0.8,0.8c0,0,0,0,0,0c0.3-0.1,0.6-0.1,1-0.2c0,0,0.1,0,0.1,0
			c1.4-0.3,2.8-0.8,4.3-1.3c0.1,0,0.2-0.1,0.3-0.1c0.3-0.1,0.6-0.2,1-0.3c0.2-0.1,0.4-0.1,0.7-0.2c0.2,0,0.3-0.1,0.5-0.1
			c0.2,0,0.4-0.1,0.7-0.1c0.2,0,0.3-0.1,0.5-0.1c0.3,0,0.5-0.1,0.8-0.1c0.1,0,0.2,0,0.4-0.1c0.4,0,0.8-0.1,1.2-0.1
			c0.1,0,0.3,0,0.4,0c0.3,0,0.6,0,0.9,0c0.2,0,0.3,0,0.5,0c0.3,0,0.6,0,1,0.1c0.1,0,0.3,0,0.4,0c0.5,0,1,0.1,1.5,0.2
			c0.1,0,0.2,0,0.3,0.1c0.4,0.1,0.8,0.2,1.3,0.3c0.2,0,0.3,0.1,0.5,0.1c0.4,0.1,0.8,0.2,1.2,0.3c0.2,0.1,0.3,0.1,0.5,0.2
			c0.6,0.2,1.2,0.4,1.8,0.7c0,0,5.6,3.3,8.9,12.2c3.3,8.9,4.4-7.8,10-5.6c5.6,2.2,13.3,8.9,18.9,17.8c0,0,17.8,0,20,11.1
			c2.2,10.8,2.2,12.1,9.3,15.3c2.9-2.1,2.9-5.3,2.9-15.3c0-15.6,8.8-27.4,16.3-25c0.5,0.1,0.9,0.3,1.4,0.6
			c7.8,4.4,15.5-2.2,13.3-6.7c-2.2-4.4-5.6-11.1,2.2-15.5c7.8-4.4,8.9-7.8,8.9-7.8s5.6-5.6,10,0c4.4,5.6,3.3-13.3,13.3-18.9
			c0.5-0.3,1-0.5,1.5-0.8c0.4-0.2,0.8-0.4,1.3-0.6C207.3,111,202.9,104.3,199.6,96.9z"/>
	</g>
	<path style="opacity:0.12;" d="M83,92c0,0,1,4,7,5s9,8,0,9s-10-6-11-9S80,90,83,92z"/>
	<path style="opacity:0.12;" d="M135.7,111.8c0,0,2.4,3.4,10.2,2.1c7.8-1.3,13.6,4.3,2.5,8.6s-14.3-2-16.4-4.5
		C129.9,115.6,131.3,111.1,135.7,111.8z"/>
	<g style="opacity:0.12;">
		<path d="M53.9,155.3c0.1,0,0.1,0,0.2-0.1c0.2-0.1,0.4-0.1,0.6-0.2c0.3-0.1,0.6-0.2,0.9-0.3c0.1,0,0.1,0,0.2,0
			c0.3-0.1,0.6-0.2,0.9-0.2c0.1,0,0.2,0,0.3-0.1c0.3-0.1,0.5-0.1,0.8-0.2c0.1,0,0.1,0,0.2,0l0,0c3.3-0.6,7.3-0.5,12.7,1.6
			c0,0,5.6,3.3,8.9,12.2c3.3,8.9,4.4-7.8,10-5.6c5.6,2.2,13.3,8.9,18.9,17.8c0,0,17.8,0,20,11.1c2.2,10.8,2.2,12.1,9.3,15.3
			c2.9-2.1,2.9-5.3,2.9-15.3c0-16.7,10-28.9,17.8-24.4c7.8,4.4,15.5-2.2,13.3-6.7c-2.2-4.4-5.6-11.1,2.2-15.5
			c7.8-4.4,8.9-7.8,8.9-7.8s5.6-5.6,10,0c0.1,0.2,0.3,0.3,0.4,0.5c0,0,0.1,0.1,0.1,0.1c0.1,0.1,0.2,0.2,0.3,0.2c0,0,0.1,0.1,0.1,0.1
			c0.1,0,0.2,0.1,0.2,0.1c0,0,0.1,0,0.1,0c0.1,0,0.1,0,0.2,0c0,0,0.1,0,0.1,0c0.1,0,0.1-0.1,0.2-0.1c0,0,0.1,0,0.1-0.1
			c0.1,0,0.1-0.1,0.2-0.2c0,0,0.1-0.1,0.1-0.1c0.1-0.1,0.2-0.2,0.3-0.4c0,0,0.1-0.1,0.1-0.1c0.1-0.1,0.1-0.2,0.2-0.3
			c0-0.1,0.1-0.2,0.1-0.3c0-0.1,0.1-0.2,0.1-0.3c0-0.1,0.1-0.2,0.1-0.4c0-0.1,0.1-0.2,0.1-0.3c0.1-0.1,0.1-0.3,0.2-0.5
			c0-0.1,0-0.1,0.1-0.2c0.5-1.5,1-3.3,1.7-5.2c-3.2-1.8-7.5-3.1-11.3-0.5c-7,5-8,0-15,4s-9,15-9,19s2,8-6,7s-8,4-20,10s-27,9-31-3
			s-15-10-22-9s-6-11-18-13c-8.6-1.4-12,6.8-13.3,11.7C53.1,155.5,53.5,155.4,53.9,155.3z"/>
	</g>
</g>
</svg>
