<?xml version="1.0" encoding="utf-8"?>
<!-- Generator: Adobe Illustrator 22.1.0, SVG Export Plug-In . SVG Version: 6.00 Build 0)  -->
<svg version="1.1" id="Layer_1" xmlns="http://www.w3.org/2000/svg" xmlns:xlink="http://www.w3.org/1999/xlink" x="0px" y="0px"
	 viewBox="0 0 256 256" style="enable-background:new 0 0 256 256;" xml:space="preserve">
<g style="opacity:0;">
	<path style="fill:#FFFFFD;" d="M21.6,184.8c0,0,83.5-125.9,157.7-160.3c0,0,18.6-8,29.2,2.7c5.3,5.3,5.3,10.9,4,15.2
		c-1.1,3.7-3.5,6.9-6.6,9.4c-13,10.4-70.8,56.7-84.9,70.8c-15.9,15.9-45.1,64.9-49,79.5c-4,14.6-23.9,34.5-41.1,27.8
		C13.6,223.2,5.7,213.9,21.6,184.8z"/>
	<g style="opacity:0.29;">
		<path d="M64.6,199.4c0,0,5.9-9.4,3.1-11.7s-12.1,11.5-14.8,11.7c-2.7,0.2,2.9-7.2,2.3-10.9c-0.6-3.8-12,5.5-12,5.5
			s4.1-12.4,2.5-15.3c-1.5-2.9-8.8,7.3-8.8,7.3s4.2-6.5,0.6-7.3c-3.6-0.8-6.7,6-6.7,6c1.2-6.1-4.6-3.3-8.4-0.9c-0.4,0.6-0.7,1-0.7,1
			c-15.9,29.2-8,38.4,9.3,45.1c17.2,6.6,37.1-13.3,41.1-27.8c0.3-1,0.6-2.1,1.1-3.3c0,0,0,0,0,0C72.6,190.3,64.6,199.4,64.6,199.4z"
			/>
	</g>
</g>
<g>
	<path style="fill:#7E912C;" d="M43.5,173.5c0,0,45.7-83.5,139.8-145.1C183.3,28.4,87.8,98.7,43.5,173.5z"/>
	<path style="fill:#7E912C;" d="M50.1,178.1c0,0,45.7-80.6,139.8-142.2C189.9,35.9,94.5,103.3,50.1,178.1z"/>
	<path style="fill:#7E912C;" d="M61,181.2c0,0,15.5-59.6,135-140.9C196.1,40.3,94.2,108.1,61,181.2z"/>
	<path style="fill:#7E912C;" d="M73.1,181.2c0,0,25.7-75.7,126.7-136.6C199.8,44.7,117.7,91.4,73.1,181.2z"/>
	<path style="fill:#7A9029;" d="M252.2,83.9c1.4-1.4-9.8-1.6-12.9-2.6c-3.1-1,4.5-3.4,5.5-5c1-1.7-6.6,0.1-9.1-0.1
		c-2.5-0.2,2.3-2.3,2.2-3.9c-0.1-1.6-8.5,1.3-9.9,0.8c-1.4-0.4,3.4-1.9,1.3-4.6c-2.1-2.8-14.7,7.2-16.5,6.8
		c-1.8-0.4,9-13.4,7.7-15.1c-1.3-1.7-6.4,2.4-6.4,2.4s2.4-7.8,1.4-9.2s-4.3,3.3-6.2,6.2c-2,3-0.7-0.7-3.3,0
		c-2.7,0.7-1.3,9.4-1.3,9.4s-0.7-2-3.3-1.2c-2.6,0.8,0,5.6,0,5.6s0.2,3.8-6.1,5.4c-5.1,1.3-19.7,1.5-25,1.4c-2.4,2-4.9,4-7.4,6
		c4.5,0.2,21.1,0.7,26.1,0.8c5.9,0.1,13.9,1.7,12.2,3.3c-1.7,1.5-1.5,4.6-1.4,5.7c0.1,1.1,2.5-0.8,2.9,0.8c0.4,1.6-2,6.7-0.5,7.8
		c1.5,1.1,3.8-5.7,5.5-4.8c1.8,0.9,3.3,12.1,6.2,10.2c2.9-2-2.2-9-0.1-10.1c2.1-1.1,3.3,5.6,5.4,2.4c2.1-3.3-7.1-12.6-6.1-14.9
		s11.5,7.8,13.5,7.2c2-0.6-0.2-4.1-0.2-4.1c2.5-1,7.3,5.4,8.8,3.8c1.5-1.5-3-4.4-2.8-6.6c0.2-2.2,6.1,2.7,9.1,2.2
		c3-0.6-1-3.1-2.3-4.2C238,84.9,250.8,85.3,252.2,83.9z"/>
</g>
</svg>
