<?xml version="1.0" encoding="utf-8"?>
<!-- Generator: Adobe Illustrator 22.1.0, SVG Export Plug-In . SVG Version: 6.00 Build 0)  -->
<svg version="1.1" id="Layer_1" xmlns="http://www.w3.org/2000/svg" xmlns:xlink="http://www.w3.org/1999/xlink" x="0px" y="0px"
	 viewBox="0 0 256 256" style="enable-background:new 0 0 256 256;" xml:space="preserve">
<path style="opacity:0;fill:#FFFFFF;" d="M108.5,135.2c0,0-24.7,17.6-69.7,34.4S9.6,210.1,9.6,210.1s7.9,23.4,65.3,11.6
	c57.4-11.8,92.7-43.7,113.7-63.1s49.8-56.8,56.6-86.7c6.8-29.9,0.7-43.2-13.1-52.4s-28,3.4-38.1,14.4s-27.9,40.1-38.8,53.1
	S134.7,117.1,108.5,135.2z"/>
<g>
	<path style="fill:#98CC00;" d="M149.4,119.8c18.7-21.7,34.6-45.5,45.5-65.3c8-14.5,29.7-29.7,29.7-29.7l-1.4-0.7
		c-26.6,7.5-59.4,72-74.5,90.9c-15.1,18.9-52.9,39-68.1,46.5c-13.1,6.4-34.4,14-48.2,18.6c-9.2,3.1-17.8,7-22.4,9.3
		c-0.5,0.8-0.9,1.6-1.2,2.4c15-5.6,60.9-22.9,72.8-27.5C95.8,158.7,130.6,141.5,149.4,119.8z"/>
	<path style="fill:#98CC00;" d="M67.1,185.7c25.6-10,53.3-26.1,71.2-40.1c17.9-13.9,32.1-27.7,46.7-46.3s26.6-45.2,26.6-45.2L225,26
		l-0.4-1.2c-5.4,4.7-16.3,23.3-28.7,50.1c-12.4,26.7-32,46.1-47.5,60.1c-15.5,13.9-50.9,38.7-81.7,48.9c-26,8.6-52.1,13.6-59.7,15
		c-0.1,1.2,0,2.2,0.1,3.3C17.6,200,46.6,193.7,67.1,185.7z"/>
	<path style="fill:#98CC00;" d="M115.7,182.4c8-3.7,32.8-20.3,45.5-30.4c12.7-10.1,28.8-28.8,37.2-39.8c8.3-11.1,23.7-39.5,27.9-58
		s0.1-28.7,0.1-28.7L225,26c0,0,1.4,6.7-0.7,18.6c-2.1,11.8-13.6,42.6-31.3,68s-39.6,44.5-65.2,60.8s-53.6,24.9-78.7,29.5
		c-18.4,3.4-33.7,4.9-40.5,5.5c0.5,1.1,0.9,1.8,0.9,1.8s0.1,0.3,0.4,0.9c5.7-0.7,19.7-2.4,40.2-5.6
		C77.6,201.2,107.8,186.1,115.7,182.4z"/>
	<path style="fill:#98CC00;" d="M94.7,207.8c15.8-5.4,43.7-19.4,59.9-30.6s37.2-27.8,59.1-58.4s27.6-56.7,26.4-71.1
		s-12.6-22.5-12.6-22.5l-0.6,1.6c9.6,7.3,8,26.1,8,26.1c-2.1,24.5-11.4,40.7-24.7,65.2c-13.4,24.5-40.3,44.2-58.1,57.9
		s-49.9,27.2-57.8,30.3S65,215.2,48.9,217c-12.6,1.4-28.7-0.3-35.1-1.1c0.8,0.8,1.8,1.5,3,2.3c7.5,0.8,21.6,2,32.2,0.7
		C64.1,217,78.9,213.1,94.7,207.8z"/>
	<path style="fill:#98CC00;" d="M223.2,24.2c-9-3.3-22.1,5-30.3,11.2c-4.9,5.7-11.4,15.1-17.9,24.6c6.2-6.8,14.7-16.1,21.3-23.3
		C208,23.8,223.2,24.2,223.2,24.2z"/>
	<path style="fill:#98CC00;" d="M223.6,24l3.4-1.1l-2.3-6.2c-0.2,0-0.4-0.1-0.6-0.1l-0.2,6.2c0,0-4.7-3.4-10.2-4.5
		c-1.3,0.6-2.7,1.3-4,2.1C213.7,20.1,219.7,20.3,223.6,24z"/>
	<path style="fill:#98CC00;" d="M234.3,21.1c0.5,0.4,1,0.7,1.5,1.1"/>
	<path style="fill:#98CC00;" d="M227.4,24.1c1.5-1.1,5.3-1.6,8.3-1.8c-0.5-0.4-1-0.8-1.5-1.1c-3.8-0.1-7.6,0.7-7.6,0.7L227.4,24.1z"
		/>
	<path style="fill:#98CC00;" d="M247.6,43.9c-2.9-6.9-9.2-17.4-20.1-18.8l0-1c0,0,9.6,1.4,16.9,8.7
		C246.2,36.5,247.2,40.2,247.6,43.9z"/>
</g>
</svg>
