<?xml version="1.0" encoding="utf-8"?>
<!-- Generator: Adobe Illustrator 22.1.0, SVG Export Plug-In . SVG Version: 6.00 Build 0)  -->
<svg version="1.1" id="Layer_1" xmlns="http://www.w3.org/2000/svg" xmlns:xlink="http://www.w3.org/1999/xlink" x="0px" y="0px"
	 viewBox="0 0 256 256" style="enable-background:new 0 0 256 256;" xml:space="preserve">
<g>
	<path style="fill:#FFFFFF;" d="M221.5,31.6c0,0,13.2,13.9-36.5,82.4S81.9,208.2,65.1,246.9c0,0-10.9-4.4,28.1-49
		s51.6-46.1,82.6-96.1S211,38.9,221.5,31.6z"/>
	<path style="fill:#FFFFFF;" d="M182.5,9.6c0,0,13.2,13.9-36.5,82.4S42.9,186.2,26.1,224.9c0,0-10.9-4.4,28.1-49
		s51.6-46.1,82.6-96.1S172,16.9,182.5,9.6z"/>
	<path style="fill:#FFFFFF;" d="M56.1,227.6c-1.9,2-5.1,0-4.2-2.6c3.4-9.4,11-24.6,27.2-42.2c15.6-16.9,96.4-110.4,114.6-131.5
		c1.7-1.9,4.8-0.4,4.4,2.1c-0.8,4.6-3.7,12.4-11.5,25.5C172.4,102.8,82,199.9,56.1,227.6z"/>
</g>
<g style="opacity:0;">
	<path style="fill:#93C427;" d="M88,208c0,0,26-29,59-61c21.9-21.2,51.4-73.3,64-97c6.4-12,5-6,5-6s-38,78-65,104
		c-19,18.3-46.8,45.5-59,57C87.1,209.6,88,208,88,208z"/>
	<path style="fill:#93C427;" d="M213.5,54.6c-7.9,14.7-26.9,49.9-35.5,62.4c0.5,2.7,25-27.6,36.8-61.9
		C215,54.3,213.9,53.8,213.5,54.6z"/>
	<path style="fill:#93C427;" d="M49,186c0,0,26-29,59-61c21.9-21.2,51.4-73.3,64-97c6.4-12,5-6,5-6s-38,78-65,104
		c-19,18.3-46.8,45.5-59,57C48.1,187.6,49,186,49,186z"/>
	<path style="fill:#93C427;" d="M174.5,32.6C166.7,47.2,147.6,82.5,139,95c0.5,2.7,25-27.6,36.8-61.9
		C176,32.3,174.9,31.8,174.5,32.6z"/>
	<path style="fill:#93C427;" d="M77.8,190.7l75.9-87.8c1-1.2,2.8,0.3,1.9,1.5c-20.7,26.8-52.2,66-76.1,87.9
		C78.4,193.4,76.8,191.8,77.8,190.7z"/>
	<path style="fill:#93C427;" d="M147,120l42-53C189,67,163,111,147,120z"/>
	<path style="fill:#93C427;" d="M57,223l35-37C92,186,66,205,57,223z"/>
</g>
</svg>
