<?xml version="1.0" encoding="utf-8"?>
<!-- Generator: Adobe Illustrator 22.1.0, SVG Export Plug-In . SVG Version: 6.00 Build 0)  -->
<svg version="1.1" id="Layer_1" xmlns="http://www.w3.org/2000/svg" xmlns:xlink="http://www.w3.org/1999/xlink" x="0px" y="0px"
	 viewBox="0 0 256 256" style="enable-background:new 0 0 256 256;" xml:space="preserve">
<g>
	<path id="XMLID_5_" style="fill:#FFFFFF;" d="M62.1,150.5C32.9,206.8,48,229.3,74,242.8c26,13.5,53.1,12.7,82.4-43.5
		S222.5,61.1,179.8,39C138.8,17.8,91.4,94.2,62.1,150.5z"/>
	<path style="fill:#D3D1D2;" d="M62.9,197.5c-1.2,14.4,1.3,20.3-2,24.1c-2.8,3.2-11.1-9.9-9.9-24.3c1.2-14.4,10.1-28.1,14.3-27.8
		S64.1,183.1,62.9,197.5z"/>
</g>
<g id="XMLID_1_" style="opacity:0;">
	<path id="XMLID_4_" style="fill:#8BC53F;" d="M183.2,27.2l10.4-22.4c1.8-3.8,6.8-5,10-2.2v0c1.9,1.6,2.2,4.5,0.6,6.5l-17.4,20.7
		L183.2,27.2z"/>
	<path id="XMLID_3_" style="fill:#8BC53F;" d="M182,25.1c-14.4-3.2-23.5-2-29.3,0.2c-10.2,3.8-18.1,23-29.7,26.2
		c-11.9,3.3-21.8-0.1-22.2,2c-0.3,2,8.6,6.5,17.3,8.7c16.2,4,34.2-7.9,33.4-1.4c-0.4,3.3-3,8.9-5.2,35.6c-1,12.1,8.2,4.2,8.2,4.2
		c15.9-21,25.1-21.6,26.2-27.1c1.3-6.5,5.5,19.5,18.1,30.4c6.7,5.8,15.6,10.5,17,9.1c1.5-1.5-7-7.6-11.2-19.2
		c-4.1-11.3,7.1-28.8,4.3-39.4c-1.6-5.9-5.5-14.4-16.8-24C192.2,30.3,185.9,25.9,182,25.1z"/>
	<path id="XMLID_2_" style="fill:#8BC53F;" d="M149.6,69.3c0,0,8.7-38.9,36.8-43l0.6,0.3c0,0,18.3,24-13.9,54.2"/>
</g>
</svg>
