<?xml version="1.0" encoding="utf-8"?>
<!-- Generator: Adobe Illustrator 22.1.0, SVG Export Plug-In . SVG Version: 6.00 Build 0)  -->
<svg version="1.1" id="Layer_1" xmlns="http://www.w3.org/2000/svg" xmlns:xlink="http://www.w3.org/1999/xlink" x="0px" y="0px"
	 viewBox="0 0 256 256" style="enable-background:new 0 0 256 256;" xml:space="preserve">
<g style="opacity:0;">
	<path style="fill:#FFFFFF;" d="M68.2,113.3c6.3,45.6-26.6,75.9,0,111.4s64.5,22.8,64.5,22.8s7.6-1.3,16.5-27.8
		c11-33-10.1-58.2-20.2-70.9s-26.6-29.1-35.4-45.6c-0.7-1.3-1.5-2.9-2.3-4.7c-9.8,4-17.5,9.3-23.1,13.9
		C68.1,112.7,68.2,113,68.2,113.3z"/>
	<path style="opacity:0.21;fill:#070707;" d="M110.1,93.3c-2.4,16.9-5.5,26.4-5.5,26.4c5.1,7.3,11.4,14.6,18.3,21.8l28.1-34.6
		c0,0-3.4-4.8-6.5-12C131.7,91.8,120.2,91.7,110.1,93.3z"/>
	<path style="opacity:0.21;fill:#070707;" d="M104.5,119.7c2.9-7.9,4.6-17,5.5-26.4c-6.9,1.1-13.1,2.9-18.8,5.2
		C94.2,105.8,99.6,116.1,104.5,119.7z"/>
	<path style="opacity:0.21;fill:#070707;" d="M185.5,113.1c-9.9-6.4-19.2-11.1-28.1-14.3c-15.5,19.7-34.5,42.7-34.5,42.7
		s7.2,8,16.8,21.6c9.6,13.6,12,26.7,12.7,38.5c0.7,11.8-9.4,39.6-19.5,46c0,0,29.1,1.3,44.3-13.9s15.2-27.8,15.2-43
		s-11.4-48.1-7.6-73.4C184.8,115.9,185.1,114.5,185.5,113.1z"/>
	<path style="opacity:0.25;" d="M100.5,95.4l-1.3,18.3c1.4,2.2,3.3,4.1,5.3,6c0,0,4.8-18,5.5-26.4C106.8,93.8,103.6,94.5,100.5,95.4
		z"/>
	<path style="opacity:0.25;" d="M130.9,92.6c0,0,8.2,12.3,3.3,19.8c-4.9,7.5-14.8,25.2-14.8,25.2l3.4,3.9c0,0,28.9-33.8,28.1-34.6
		c-1-0.9-6.8-12-6.5-12C140.7,93.9,136.1,93.2,130.9,92.6z"/>
	<path style="opacity:0.25;" d="M178.6,108.8c0,0-2.4,20.3,2.1,41.8c4.4,21.5,18.8,78.2-31,93c0,0-8.7,3.9-19,4.4
		c0,0,48.1,5.2,59.4-34.9c0,0,6-14.8-1.4-47.2c-8.5-36.9-3.1-52.9-3.1-52.9L178.6,108.8z"/>
</g>
<g>
	<path style="fill:#73BF45;" d="M41.7,31.1c0,0,20,36.2,26.4,81.3c5.6-4.6,13.4-9.9,23.1-13.9c-9.8-21.1-28.1-73.8-28.1-73.8
		L41.7,31.1z"/>
	<path style="fill:#73BF46;" d="M137.8,7c-7.6-6.3-25.3,0-25.3,0s1.3,24,0,58.2c-0.4,10.8-1.3,20.2-2.5,28
		c10.1-1.6,21.6-1.4,34.3,1.5c-1.6-3.8-3.2-8.3-4-13.1C137.8,67.8,137.8,7,137.8,7z"/>
	<path style="fill:#71BD45;" d="M101.1,26c-17.7-5.1-21.5,7.6-21.5,7.6l8.9,58.8c0,0,1.1,2.5,2.8,6.1c5.6-2.3,11.9-4.1,18.8-5.2
		c1-6.7,1.7-13.5,2.1-20.4L101.1,26z"/>
	<path style="fill:#73BF45;" d="M183.4,27.3c1.3-13.9-21.5-11.4-21.5-11.4c-2.5,29.1-21.8,67.9-21.8,67.9s1.9,4.9,4.4,11l6.5,12
		c5.5-6.6,19.3-23.4,20.8-26.7C174.8,72.8,182.1,41.2,183.4,27.3z"/>
	<path style="fill:#72BE44;" d="M222.6,31.1c0,0-3.8-13.9-21.5-10.1c0,0-15.2,39.2-27.8,56.9c-3.7,5.2-9.5,12.7-15.9,20.8
		c8.9,3.3,18.2,7.9,28.1,14.3C191.8,85.9,222.6,31.1,222.6,31.1z"/>
	<g>
		<path style="fill:#63A53B;" d="M63.2,24.8c-7.1-2-14.3,1-21.5,6.3c0,0,0.1,0.2,0.3,0.6c0.5,0.3,1,0.5,1.6,0.6c0,0,11.4-2.5,13.3,0
			C58.6,34.7,69,76.8,90.1,99c0.4-0.2,0.7-0.3,1.1-0.5C81.4,77.4,63.2,24.8,63.2,24.8z"/>
	</g>
	<path style="fill:#63A53B;" d="M80.5,31.6c0,0,11-2.4,12.1,3.9c0.8,4.7,8.2,48.4,8.2,48.4l-0.4,11.5l9.6-2.1l2.1-20.4l-11-46.8
		C101.1,26,86.5,20.6,80.5,31.6z"/>
	<path style="fill:#63A53B;" d="M112.5,7c0,0,13.8,7.8,14.7,11.2c0.9,3.4,3.7,74.4,3.7,74.4l13.5,2.2l-4.4-11c0,0-3.1-67.7-2.2-76.8
		C137.8,7,129.8-0.6,112.5,7z"/>
	<path style="fill:#63A43B;" d="M161.9,15.9c0,0,13.7,5.7,12.7,11.4c-1.1,5.7-12.7,55.9-15.4,59.7s-14.7,7.9-14.7,7.9l6.5,12
		l20.8-26.7c0,0,10.5-34,11.7-52.8S161.9,15.9,161.9,15.9z"/>
	<path style="fill:#63A43D;" d="M201.1,21c0,0,10.8,6.1,8.6,12.2s-29.7,63.6-31.2,75.7l6.9,4.2c0,0,16.9-48.4,29-67l8.1-15
		C222.6,31.1,217.3,16.5,201.1,21z"/>
</g>
</svg>
