<?xml version="1.0" encoding="utf-8"?>
<!-- Generator: Adobe Illustrator 22.1.0, SVG Export Plug-In . SVG Version: 6.00 Build 0)  -->
<svg version="1.1" id="Layer_1" xmlns="http://www.w3.org/2000/svg" xmlns:xlink="http://www.w3.org/1999/xlink" x="0px" y="0px"
	 viewBox="0 0 256 256" style="enable-background:new 0 0 256 256;" xml:space="preserve">
<g>
	<path id="XMLID_2319_" style="fill:#FFFFFF;" d="M107.8,52.7c0,0-177.7,132.9-16.7,195c0,0,52.9,9.7,73.2,0c0,0,144.5-20-16-195
		C149,52,143,33,159.6,10.1l-15.8,13.4L133.7,4l-8.3,20.7L104.4,4l5.6,17l-22.5-7.3C87.5,13.7,111.2,38.1,107.8,52.7z"/>
</g>
<g style="opacity:0;">
	<path style="fill:#EFEFEF;" d="M56.1,218c-0.9-4-1.6-8.1-2-12.2c-0.4-4.1-0.6-8.2-0.4-12.3c0.2-8.2,1.3-16.4,2.9-24.6
		c1.6-8.2,4-16.2,7-24.1c3-7.9,6.6-15.5,10.6-23c3.9-7.5,8.3-14.8,12.9-22c9.2-14.3,19.5-28,30.9-40.8l-0.6-0.6
		c-6.2,6-12,12.3-17.6,18.8c-5.6,6.5-10.9,13.3-16,20.3c-5,7-9.8,14.2-14.2,21.7c-4.4,7.5-8.4,15.2-11.8,23.2c-1.8,4-3.4,8-4.8,12.2
		c-1.5,4.1-2.8,8.3-3.9,12.6c-1.1,4.3-2,8.6-2.5,13c-0.2,2.2-0.5,4.4-0.6,6.6c-0.1,1.1-0.1,2.2-0.1,3.3c0,1.1,0,2.2,0,3.3
		c0.2,8.9,1.9,17.8,5,26.1c1.2,3.2,2.6,6.3,4.3,9.3c1.9,1.3,3.9,2.7,5.9,4c-0.4-1-0.8-2-1.2-3C58.2,226,57,222,56.1,218z"/>
	<path style="fill:#EFEFEF;" d="M89,204.8c1.1-8.2,2.4-16.4,3.7-24.6c0.6-4.1,1.4-8.2,2.1-12.3c0.8-4.1,1.6-8.2,2.5-12.3
		c1.8-8.2,3.9-16.3,6-24.4c2.1-8.1,4.4-16.2,6.8-24.2c4.7-16.1,9.9-32.1,15.5-48l-0.7-0.3c-3.4,7.7-6.6,15.5-9.6,23.4
		c-3.1,7.8-6,15.7-8.9,23.7c-2.8,7.9-5.5,15.9-8.1,24c-2.5,8.1-4.9,16.2-7.1,24.3c-2.2,8.2-4.3,16.4-6.2,24.7
		c-1.8,8.3-3.2,16.7-3.8,25.3c-0.6,8.5-0.7,17.2,0.3,25.8c0.5,4.3,1.3,8.6,2.6,12.7c0.3,0.9,0.6,1.8,0.9,2.7
		c1.1,0.5,2.2,0.9,3.4,1.4c-1.1-5.7-1.4-11.4-1.3-17.2C87.1,221.2,88,213,89,204.8z"/>
	<path style="fill:#EFEFEF;" d="M123,245.7c-0.1-4.1,0-8.2,0.1-12.3c0.2-8.2,0.6-16.4,1-24.6c0.3-8.2,0.6-16.5,0.6-24.7
		c0-8.3,0.2-16.5,0.4-24.8c0.3-8.3,0.6-16.5,1-24.8c0.3-8.3,0.7-16.5,1.1-24.8c0.7-16.5,1.7-33,2.8-49.5l-0.8-0.1
		c-1.2,8.2-2.2,16.4-3.2,24.6c-1,8.2-1.9,16.5-2.8,24.7c-0.9,8.2-1.7,16.5-2.4,24.7c-0.7,8.3-1.4,16.5-2.1,24.8
		c-0.7,8.3-1.3,16.5-1.9,24.8c-0.6,8.3-0.8,16.6-0.7,24.9c0.1,8.3,0.5,16.7,1.4,25c0.2,2.1,0.5,4.2,0.8,6.2c0.4,2.1,0.6,4.2,1.1,6.2
		l0.7,3.1c0.2,0.7,0.4,1.5,0.6,2.2c0.8,0.1,1.7,0.1,2.5,0.2c0-0.9-0.1-1.9-0.1-2.8L123,245.7z"/>
	<path style="fill:#EFEFEF;" d="M168.1,207c-0.2-8.4-0.8-16.7-1.8-25.1c-1-8.3-2.3-16.6-3.8-24.8c-1.4-8.2-3.1-16.4-4.8-24.6
		c-1.8-8.2-3.9-16.2-6.4-24.2c-4.9-15.9-10.8-31.5-17.2-46.9l-0.8,0.2c1,8.3,2.8,16.5,4.6,24.6c1.8,8.1,3.7,16.2,5.7,24.2
		c2,8,4.1,16,6.4,24c1.1,4,2.2,8,3.3,12c1,4,2,8,2.9,12c1.8,8,3.4,16.1,4.8,24.3c1.4,8.1,2.4,16.3,3.1,24.5
		c0.6,8.2,0.8,16.4,0.2,24.6c-0.1,1-0.1,2.1-0.2,3.1l-0.4,3.1c-0.2,2.1-0.6,4.1-1,6.1c-0.2,1.6-0.7,3.2-1.1,4.7
		c0.6-0.2,1.1-0.4,1.6-0.6c1.7-5.2,2.9-10.6,3.6-16C167.9,223.8,168.2,215.4,168.1,207z"/>
	<path style="fill:#EFEFEF;" d="M207.6,189.2c-1.1-8.4-3.2-16.5-5.8-24.5l-2.1-5.9l-2.3-5.8c-0.7-2-1.6-3.9-2.4-5.8l-1.2-2.9
		l-1.3-2.8c-6.7-15.2-14.9-29.7-23.9-43.5c-4.5-6.9-9.3-13.7-14.3-20.2c-5-6.6-10.1-13-15.6-19.1l-0.6,0.5c9.9,13,19,26.8,27.1,40.9
		c4.1,7.1,7.9,14.3,11.5,21.6c3.6,7.3,6.9,14.7,9.9,22.3c2.9,7.6,5.5,15.2,7.5,23.1c0.6,1.9,1,3.9,1.5,5.8c0.5,1.9,1,3.9,1.4,5.9
		l1.3,5.9l1.2,5.9c1.4,7.9,2.6,15.8,3.1,23.9c0.3,5.5,0.3,11.1,0.1,16.7c1.2-0.9,2.3-1.9,3.5-3c1-4.5,1.7-9.1,2-13.7
		C209,206,208.6,197.5,207.6,189.2z"/>
</g>
</svg>
