<?xml version="1.0" encoding="utf-8"?>
<!-- Generator: Adobe Illustrator 22.1.0, SVG Export Plug-In . SVG Version: 6.00 Build 0)  -->
<svg version="1.1" id="Layer_1" xmlns="http://www.w3.org/2000/svg" xmlns:xlink="http://www.w3.org/1999/xlink" x="0px" y="0px"
	 viewBox="0 0 256 256" style="enable-background:new 0 0 256 256;" xml:space="preserve">
<g style="opacity:0;">
	<path style="fill:#FFFFFF;" d="M12.7,75.6c0,0,66.4,22.1,101.8-8.9s53.1-48.7,84.1-26.6s8.9,70.9-44.3,75.3s-53.1,0-39.9,13.3
		s106.3,0,124,26.6s-8.9,79.7-75.3,62c0,0-66.4-48.7-93-53.1c-26.6-4.4,22.1,44.3,4.4,57.6s-53.1,17.7-62-13.3s48.7-62-13.3-88.6
		L12.7,75.6z"/>
	<g style="opacity:0.5;">
		<path style="fill:#333333;" d="M168.4,71.1c8.2,10.1,20.7,15.9,37.2,17.4c0.9-1.4,1.8-2.8,2.6-4.2c-16.4-1-28.6-6.3-36.3-15.9
			c-9.5-11.8-10.1-27.5-9.5-36.3c-1.5,0.5-3,1.1-4.6,1.7C157.3,43.5,158.5,58.9,168.4,71.1z"/>
		<path style="fill:#333333;" d="M154.4,115.4c0.5,0,1-0.1,1.5-0.2c-13.8-13.3-27-41.1-33.3-55.6c-1.2,1-2.3,2-3.5,3.1
			c6.2,14.1,18,38.8,31.2,53.1C151.6,115.6,152.9,115.5,154.4,115.4z"/>
		<path style="fill:#333333;" d="M117.3,117.9c1.2-0.1,2.5-0.2,3.9-0.2l1-2c-16-8-21.9-26.5-24.1-38.9c-1.4,0.6-2.8,1.1-4.3,1.6
			C96.1,90.9,102,108.5,117.3,117.9z"/>
		<path style="fill:#333333;" d="M230.9,204.5c-5.5-18.6,0.8-41.4,4.8-52.5c-1.1-1.1-2.3-2.1-3.7-3c-4.3,11.4-12.1,37.6-4.7,58.9
			C228.6,206.8,229.7,205.6,230.9,204.5z"/>
		<path style="fill:#333333;" d="M161.4,197.5c3.1-27.5,36-51.3,36.3-51.6l-2.6-3.6c-1.4,1-34.9,25.2-38.2,54.7
			c-0.7,5.9-0.1,11.6,1.8,17c2.8,2,4.5,3.2,4.5,3.2c0.7,0.2,1.3,0.3,2,0.5C161.9,211.4,160.6,204.6,161.4,197.5z"/>
		<path style="fill:#333333;" d="M117.5,159.5c14.7-5.9,16.8-17.2,16.3-25.2c-1.5-0.2-3-0.4-4.4-0.6c0.7,6.6-0.7,16.5-13.5,21.6
			c-10.4,4.1-14.5,12.7-15.8,21.1c1.3,0.7,2.7,1.5,4,2.2C105,171.1,108.3,163.2,117.5,159.5z"/>
		<path style="fill:#333333;" d="M116.4,130.1c-0.7-0.4-1.4-0.9-1.9-1.4c-0.7-0.7-1.4-1.4-2-2c-25,8.7-36.1,28.2-40.1,37.9
			c1.3,0.3,2.8,0.7,4.3,1.2C80.6,156.4,91.6,137.7,116.4,130.1z"/>
		<path style="fill:#333333;" d="M27.1,159.1c-0.5,1.6-1,3.1-1.6,4.7c14.9-2.4,28.2,2.8,37.4,8.2c-0.6-2.1-0.9-4-0.5-5.3
			C53.2,161.7,40.8,157.5,27.1,159.1z"/>
		<path style="fill:#333333;" d="M14.6,213.8c0.6,1.4,1.3,2.6,2.1,3.8c9.9-6.5,33.9-17.9,61.4-0.8c0.5-1.5,0.6-3.1,0.5-4.8
			C50.5,195.6,25.4,207,14.6,213.8z"/>
		<path style="fill:#333333;" d="M46.6,82.4c-2.3-0.2-4.6-0.5-6.7-0.8c-20.9,15-25.8,36.5-26.8,45.3c1.5,1,2.9,1.9,4.2,2.9
			C17.5,124.4,20.5,98.2,46.6,82.4z"/>
		<path style="fill:#333333;" d="M73.4,82.7c-1.5,0.1-3,0.3-4.6,0.3c-5.7,28.7-28,46.6-43.5,55.8c0.8,1.3,1.4,2.7,1.9,4
			C43.8,133,67.8,113.9,73.4,82.7z"/>
	</g>
</g>
<g>
	<path style="fill:#BC9C60;" d="M141.1,4.7c-17.7-4.4-26.6,13.3-22.1,22.1c3.6,7.1,9.9,17.1,12.3,25.3c6-5.1,11.6-9.6,16.9-13.1
		C150.8,27,153.1,7.7,141.1,4.7z"/>
	<path style="fill:#BC9C60;" d="M220.8,111c0-10.6-12.6-13.2-22.8-13.7c-8.5,8-20.6,14.3-35.5,17C205.1,152.2,220.8,127.7,220.8,111
		z"/>
	<path style="fill:#BC9C60;" d="M114.5,212.8c-8.9,8.9,4.4,31,17.7,17.7c7.1-7.1,6.6-20.6,4.6-31.6c-4.4-2.9-9.1-6-14-9
		C122,197.1,119.9,207.4,114.5,212.8z"/>
	<path style="fill:#BC9C60;" d="M179,220.2c-1.5,12.1-2.2,29.6,6.4,32.5c12.1,4,50.2,0.7,29.5-37.2
		C205.3,219.8,193.3,221.8,179,220.2z"/>
</g>
</svg>
