<?xml version="1.0" encoding="utf-8"?>
<!-- Generator: Adobe Illustrator 22.1.0, SVG Export Plug-In . SVG Version: 6.00 Build 0)  -->
<svg version="1.1" id="Layer_1" xmlns="http://www.w3.org/2000/svg" xmlns:xlink="http://www.w3.org/1999/xlink" x="0px" y="0px"
	 viewBox="0 0 256 256" style="enable-background:new 0 0 256 256;" xml:space="preserve">
<g style="opacity:0;">
	<path style="fill:#FFFFFF;" d="M225.5,151.5c0,0,27.6,34.1,1.6,69.8s-56.8,32.5-63.3,30.8c-6.5-1.6-30.8-6.5-50.3-40.6
		c0,0,13,0,27.6-4.9c14.6-4.9,24.3,1.6,29.2-8.1s1.6-26,13-27.6c11.4-1.6,32.5,0,37.3-9.7S220.6,149.9,225.5,151.5z"/>
	<path style="fill:#FFFFFF;" d="M141.1,206.7c14.6-4.9,24.3,1.6,29.2-8.1s1.6-26,13-27.6c11.4-1.6,32.5,0,37.3-9.7
		c0.5-0.9,0.8-1.7,1.1-2.5c-1.5-3.9-18.5-16.5-29.6-19.2c-11.2-2.6-15.8-8.7-18.5-9.8c-2.7-1.1-10-8.1-9.1-2.3
		c0.9,5.8,15.5,14.4,5.8,17.6c-9.7,3.2-19.5-4.9-22.7-6.5c-3.2-1.6-9.7-8.1-13-9.7c-3.2-1.6-8.1-1.6-1.6,11.4
		c6.5,13,16.2,13,4.9,24.3c-11.4,11.4-13,3.2-17.9-3.2c-4.9-6.5-9.7-11.4-9.7-11.4s-6.5-6.5,1.6,14.6c8.1,21.1,9.8,46.5,9.8,46.5
		C126.7,210.4,133.7,209.1,141.1,206.7z"/>
	<path style="opacity:0.19;fill:#050505;" d="M185.7,239.1c0,0-19.2,8.8-34.3,3.2s-30.2-22.3-23.9-26.9c6.2-4.6,20.8-7.7,29.8-5.1
		c8.9,2.6,20.3-2.2,23.3-10.1c3-8,2-22.2,12.7-22c10.7,0.1,24.7-3.2,27-10.1c2.3-6.9,7.4-3.8,8.1,0.9c0.7,4.7,4.2,31.9-3.8,39.1
		c-8,7.2-30.4,9.1-33.3,14.5C188.4,227.9,189,237,185.7,239.1z"/>
	<path style="opacity:0.19;fill:#050505;" d="M191.3,243.6c0,0-3.2-13.1,5.3-19.1c8.5-6,22.7-2.8,27.9-10
		C224.4,214.5,216.7,243.1,191.3,243.6z"/>
	<path style="opacity:0.19;fill:#050505;" d="M144.2,206.9c14.3-4.6,23.8,1.5,28.6-7.6s1.6-24.4,12.7-26c11.1-1.5,31.3-0.7,36-9.9
		c0.5-0.9,0.1-2.2-0.3-3.3c-1.5-3.7-16.2-13.9-27.1-16.4c-10.9-2.5-14-7.7-16.4-9.9c-2.8-2.6-8.6-7.1-7.7-1.7
		c0.9,5.4,12.2,13.7,2.7,16.7s-19-4.6-22.2-6.1c-3.2-1.5-9.5-7.6-12.7-9.2c-3.2-1.5-5.5-1.6,0.8,10.6c6.3,12.2,13.5,12.3,2.3,23
		c-11.1,10.7-15.8,5-20.6-1.1s-9-12.8-9-12.8s-4.6-5.1,3.3,14.7c7.9,19.9,10.4,42.9,10.4,42.9C130.1,210.4,136.9,209.2,144.2,206.9z
		"/>
</g>
<g>
	<path style="fill:#589511;" d="M110.2,149.9c0,0,2.6,2.6,5.9,6.5v0c-0.6-8.1-14.3-28.7-17.3-37.1c-1.2-3.4-1-6.6-0.3-9.2
		c-9.1-1.5-15.3,2.8-20-1.9c-5.4-5.4-3.2-11.1-14-12.4c-10.9-1.4-20.9-3.2-23.8-18.9c-2.3-12.3,2.8-9.8-0.7-19.5
		c-7.6-1.2-20.7,7.3-25.5,16.6c-4.9,9.5,2.7,16.2,12.2,17.3c9.5,1.1,6.5,15.4,9.7,20.6c3.2,5.1,7.3,8.9,18.9,7.8
		c11.6-1.1,14.6,0,29.8,10c15.1,10,25.4,31.1,25.4,31.1l0,0C104.6,144.2,110.2,149.9,110.2,149.9z"/>
	<path style="fill:#80AF27;" d="M131,135.8L131,135.8c-3.3-8.6,0.7-8.4,3.6-7c0.3,0.2,0.7,0.4,1.1,0.7c-7-5.5-8.4-18.2-7.9-24.5
		c0.5-6.2-8.7-8.4-7.8-13.5c0.8-5.1,1.9-19.2-6.5-25.7s-1.4-13.5-9.2-40.3C96.5-1.3,79.1,19,79.1,19s-11.1-3-26-4.6
		C38.3,12.8,22.6,22.5,34.8,46s3,15.1,6,30.8c3,15.7,13,17.6,23.8,18.9c10.9,1.4,8.6,7,14,12.4c5.4,5.4,12.7-1.1,24.1,3
		C114,115.3,131,135.8,131,135.8z"/>
	<path style="fill:#5B9E14;" d="M113.5,65.8c8.4,6.5,7.3,20.6,6.5,25.7c-0.3,1.6,0.5,2.9,1.5,4.1c6.8-0.9,11.8,8.4,11.4,13.8
		c-0.4,5.3,1.9,3.4,10.3,5.3c8.4,1.9,22.9,16.1,23.5,16.9c-1.2-1.5-2.1-3-2.3-4.3c-0.9-5.8,6.5,1.2,9.1,2.3c0,0-8.6-10.9-16.7-20.3
		s-13.6-21-13.6-35.7S129.9,42.2,122,37.3c-3.9-2.4-10.5-4.6-16.2-6.1C111.2,53.3,105.7,59.8,113.5,65.8z"/>
</g>
</svg>
