<?xml version="1.0" encoding="utf-8"?>
<!-- Generator: Adobe Illustrator 22.1.0, SVG Export Plug-In . SVG Version: 6.00 Build 0)  -->
<svg version="1.1" id="Layer_1" xmlns="http://www.w3.org/2000/svg" xmlns:xlink="http://www.w3.org/1999/xlink" x="0px" y="0px"
	 viewBox="0 0 256 256" style="enable-background:new 0 0 256 256;" xml:space="preserve">
<g style="opacity:0;">
	<path style="fill:#FFFFFF;" d="M11.9,223.1c0,0,28.6-39.5,46.1-82.9s38.7-89.9,38.7-89.9l17.6-9.9l8-15c0,0,11.3,1,13.7,8.3
		l-0.8,14.2l7.7,13.5c0,0-37.5,82.2-79,123.5S11.9,223.1,11.9,223.1z"/>
	<path style="fill:#FFFFFF;" d="M44.6,226.9c0,0,35.1-33.9,59.9-73.5s53.8-81.8,53.8-81.8l19.1-6.6l10.5-13.3c0,0,11,2.9,12.1,10.6
		L196.6,76l5.3,14.6c0,0-51.3,74.4-99.4,107.7S44.6,226.9,44.6,226.9z"/>
	<path style="fill:#FFFFFF;" d="M5.5,195.1c0,0,52.7-12.1,98.8-35.1s97.7-46.1,97.7-46.1l21.9,4.4l17.6-6.6c0,0,8.8,8.8,5.5,16.5
		l-11,11l-3.3,16.5c0,0-91.1,40.6-155.8,45S5.5,195.1,5.5,195.1z"/>
	<g style="opacity:0.5;">
		<path d="M16.5,194c0,0,77.9-17.6,173.4-61.4l13.2-4.4c0,0-4.4,12.1-20.8,15.4C165.7,146.8,66.9,188.5,16.5,194z"/>
		<path d="M23.1,196.2c0,0,133.9-19.8,185.4-51.6c0,0-1.1,11-16.5,14.3C176.7,162.2,94.4,194,23.1,196.2z"/>
		<g>
			<path d="M28.8,201.1c-6.3,9.6-10.1,14.8-10.1,14.8c3.8-4.1,7.8-9.1,11.9-14.6C30,201.2,29.4,201.1,28.8,201.1z"/>
			<path d="M42,184.8c25.9-39.6,52.1-92.9,59.2-102.1c9.2-12,4.9-23.1,4.9-23.1l-6.3,10.8c-22,49.7-45.2,90-61.2,115.4
				C39.7,185.5,40.8,185.2,42,184.8z"/>
		</g>
		<g>
			<path d="M34.6,201.4c-6.2,7.6-10,12.1-10,12.1c4.1-3.8,8.2-7.8,12.1-12C35.9,201.5,35.2,201.5,34.6,201.4z"/>
			<path d="M55.1,180.4c32.1-39.8,55.6-84,62.1-92.8c8.5-11.4,2.6-19.7,2.6-19.7c-10,33.3-45.3,82.5-70,114.3
				C51.5,181.7,53.3,181.1,55.1,180.4z"/>
		</g>
		<g>
			<path d="M115.9,154.3c19.5-23.7,35.7-44.9,41.2-49.9c11.2-10.2,8.9-21.9,8.9-21.9l-8.1,9.6c-16.7,24.9-33.4,46.9-48.3,65.3
				C111.6,156.3,113.7,155.3,115.9,154.3z"/>
			<path d="M72,200.9c-12,13-19.4,20.1-19.4,20.1c6.9-5.2,14.5-12.2,22.4-20.3C73.9,200.8,73,200.9,72,200.9z"/>
		</g>
		<g>
			<path d="M148.2,138.7c11.7-13.2,20.2-23.2,23.8-26.7c10.3-9.7,6-19,6-19c-7.4,14.7-21.1,31.9-36.5,48.8
				C143.7,140.8,146,139.8,148.2,138.7z"/>
			<path d="M81.4,200.2c-13.4,11.9-22.7,19.5-22.7,19.5c9.3-5.9,18.4-12.7,27.3-20C84.4,199.9,82.9,200.1,81.4,200.2z"/>
		</g>
	</g>
</g>
<g>
	<path style="fill:#8FAA44;" d="M114.3,40.4c7.7,1,14.9,3.1,20.9,7.5l0.8-14.1c0,0-1.7-7-13.7-8.3L114.3,40.4z"/>
	<path style="fill:#8FAA44;" d="M177.4,65c7.4,2.3,14.1,5.6,19.2,11l3.3-13.8c0,0-0.4-7.1-12.1-10.6L177.4,65z"/>
	<path style="fill:#8FAA44;" d="M223.9,118.3c5.8,6.2,10.2,13,12.1,20.8l10.9-10.9c0,0,3.6-6.9-5.5-16.5L223.9,118.3z"/>
</g>
</svg>
