<?xml version="1.0" encoding="utf-8"?>
<!-- Generator: Adobe Illustrator 22.1.0, SVG Export Plug-In . SVG Version: 6.00 Build 0)  -->
<svg version="1.1" id="Layer_1" xmlns="http://www.w3.org/2000/svg" xmlns:xlink="http://www.w3.org/1999/xlink" x="0px" y="0px"
	 viewBox="0 0 256 256" style="enable-background:new 0 0 256 256;" xml:space="preserve">
<g>
	<path style="fill:#FFFFFF;" d="M116.6,6c-8.7-2-17.6-2.4-26.4-0.9c-23.6,4-70,17.3-81.6,61.4c0,0-8.4,34.7,51.5,46.2
		s109.2,9.5,122.9-12.6C195.9,79,199.4,25.5,116.6,6z"/>
	<path style="fill:#FFFFFF;" d="M193.4,94.8c0,0-57.8-4.2-86.1,25.2s64.1,58.8,64.1,58.8s64.6,24.1,76.7,0c6.3-12.6,0-28.4-9.5-41
		C230.9,127.8,210.2,97,193.4,94.8z"/>
	<g style="opacity:0.5;">
		<path d="M120.5,109.7c-0.9,0.5-1.8,1.1-2.7,1.7C118.7,110.8,119.6,110.2,120.5,109.7z"/>
		<path d="M92.6,60.2c-39,0-54.3,10.3-59.9,16.5c-2.3,2.5-2.9,6-1.6,9.2c5.6,13.8,20.9,18.6,44.8,21.7c-1.8-6-2.9-11.7-2.1-16.9
			c0.4-2.8,2.2-5.1,4.6-6.4c5.5-2.8,17-6.6,31.1,0.1c12.3,5.8,15.4,14.4,16,22.7c-0.4,0.2-0.7,0.4-1.1,0.6
			c13.7-7.2,29.4-10.5,42.4-11.9C168.7,87.4,145.2,60.2,92.6,60.2z"/>
		<path d="M123.2,108.1c-0.7,0.4-1.5,0.8-2.2,1.3C121.7,109,122.5,108.5,123.2,108.1z"/>
	</g>
</g>
<g style="opacity:0;">
	<path style="fill:#E2BF60;" d="M107.3,120.1c5.2-5.4,11.4-9.7,18.1-13.1c-0.6-8.2-3.7-16.8-16-22.7c-14.1-6.7-25.5-2.9-31.1-0.1
		c-2.5,1.3-4.2,3.6-4.6,6.4c-3.3,23,27.6,55.3,14.7,83c-13.7,29.4-1.1,44.1-1.1,44.1s15.8,20,30.5,3.2c8.4-9.6,9.6-37.4,9.1-61.4
		C108.1,148.6,93.5,134.3,107.3,120.1z"/>
	<path style="fill:#F6D56B;" d="M133.5,163.1c0,0-4.2,13.7-23.1,15.8c-18.9,2.1-23.6,24.9-16.8,36.8c8.4,14.7,42,36.8,55.7,12.6
		c0,0,16.8-41,24.2-48.3"/>
</g>
</svg>
