<?xml version="1.0" encoding="utf-8"?>
<!-- Generator: Adobe Illustrator 22.1.0, SVG Export Plug-In . SVG Version: 6.00 Build 0)  -->
<svg version="1.1" id="Layer_1" xmlns="http://www.w3.org/2000/svg" xmlns:xlink="http://www.w3.org/1999/xlink" x="0px" y="0px"
	 viewBox="0 0 256 256" style="enable-background:new 0 0 256 256;" xml:space="preserve">
<g id="XMLID_1_" style="opacity:0;">
	<path id="XMLID_9_" style="fill:#FFFDFE;" d="M134.3,32L140,6.5l-22.9,14l-24.5-14L103.4,32C-23.5,98.5,8.5,171.4,8.5,171.4
		c13.1,44.8,56.1,61.8,90.5,68.2l0,0l-5.3,7.8c0,0,72.6,3,90.9-3.9l-6.2-7c63.7-20.2,70.2-71.6,70.2-71.6
		C262.4,66.3,134.3,32,134.3,32z"/>
</g>
<g>
	<path id="XMLID_8_" style="fill:#EA569E;" d="M104.6,46.1c0,0-159.5,102-4,187.3C100.6,233.4-45.2,167.2,104.6,46.1z"/>
	<path id="XMLID_7_" style="fill:#EA569E;" d="M155.4,46.3c0,0,165.6,95.4,15.6,186.9C171,233.2,312.5,161.1,155.4,46.3z"/>
	<path id="XMLID_6_" style="fill:#EA569E;" d="M114.9,46.3c0,0-112.1,104.6,0,184.3C114.9,230.6,14.3,160.6,114.9,46.3z"/>
	<path id="XMLID_5_" style="fill:#EA569E;" d="M139.2,43.3c0,0,141.5,115.1,19.7,187.3C158.9,230.6,267.5,174.2,139.2,43.3z"/>
	<path id="XMLID_4_" style="fill:#EA569E;" d="M122.9,46.3c0,0-64,117.4,8.4,184.3C131.3,230.6,74.1,140.4,122.9,46.3z"/>
	<path id="XMLID_3_" style="fill:#EA569E;" d="M131.3,46.1c0,0,91.5,103.3,15.2,184.5C146.5,230.6,211.3,156.2,131.3,46.1z"/>
	<path id="XMLID_2_" style="fill:#EA569E;" d="M127.3,51.5c0,0-14.5,123.3,11.9,179.1C139.2,230.6,152.6,138.3,127.3,51.5z"/>
</g>
</svg>
