<?xml version="1.0" encoding="utf-8"?>
<!-- Generator: Adobe Illustrator 22.1.0, SVG Export Plug-In . SVG Version: 6.00 Build 0)  -->
<svg version="1.1" id="Layer_1" xmlns="http://www.w3.org/2000/svg" xmlns:xlink="http://www.w3.org/1999/xlink" x="0px" y="0px"
	 viewBox="0 0 256 256" style="enable-background:new 0 0 256 256;" xml:space="preserve">
<g>
	<path style="fill:#898989;" d="M26.4,234.6c0,0,100.6-169.1,203-212.7C190.5,118.5,133.5,190.5,26.4,234.6z"/>
	<path style="fill:#FEFFFD;" d="M229.4,21.9c-42.2,79-114.6,148.4-203,212.7C136.6,196,199.1,121.1,229.4,21.9z"/>
	<path style="fill:#FEFFFD;" d="M229,22C92.8,64.3,26.4,234.6,26.4,234.6C91.4,159.8,164.7,81.8,229,22z"/>
</g>
<g style="opacity:0;">
	<path style="fill:#9AC435;" d="M196.7,73.3c0.1,0,0.1,0,0.2,0c4.5-6.2,8.9-12.4,13-18.7c-1.2-3.4-3.7-6.2-6.9-7.8
		c-6.2,6-12.5,12.2-18.9,18.5C186.3,70,191.1,73.3,196.7,73.3z"/>
	<path style="fill:#9AC435;" d="M178.4,96.9c4.8-5.8,9.4-11.6,13.8-17.4c-1.4-5.6-6.1-9.8-12-10.4c-5.1,5.1-10.3,10.3-15.5,15.6
		C165.6,91.5,171.3,96.8,178.4,96.9z"/>
	<path style="fill:#9AC435;" d="M159.2,118.9c5.1-5.5,10-11.1,14.8-16.8c-1.3-6.4-7-11.2-13.7-11.2c-0.7,0-1.3,0.1-1.9,0.1
		c-4,4.1-8,8.2-12,12.3c-0.1,0.5-0.1,1-0.1,1.5C146.3,112.3,152,118.3,159.2,118.9z"/>
	<path style="fill:#9AC435;" d="M139.7,138.3c0.4,0,0.7,0,1-0.1c4.4-4.4,8.7-8.9,12.9-13.4c0-0.2,0-0.4,0-0.6
		c0-7.7-6.2-13.9-13.9-14c-4.7,4.9-9.4,9.8-14.1,14.7C126.1,132.5,132.2,138.3,139.7,138.3z"/>
	<path style="fill:#9AC435;" d="M118.9,159.3c5.1-4.7,10.1-9.5,15-14.3c-0.2-7.6-6.4-13.6-14-13.6c-0.1,0-0.2,0-0.2,0
		c-4.6,4.9-9.2,9.8-13.7,14.7C106.4,153.1,111.9,158.8,118.9,159.3z"/>
	<path style="fill:#9AC435;" d="M96.7,179.1c5.5-4.8,10.9-9.6,16.3-14.4c-0.3-6.8-5.4-12.3-12-13.3c-5.2,5.6-10.4,11.3-15.6,16.9
		C86.6,173.9,91.1,178.2,96.7,179.1z"/>
	<path style="fill:#9AC435;" d="M72.7,199.1c6.5-5.3,13-10.6,19.3-16c-1.2-5.2-5.3-9.3-10.5-10.5c-5.5,6-11,12.1-16.4,18.1
		C66.3,194.5,69.1,197.6,72.7,199.1z"/>
</g>
</svg>
