<?xml version="1.0" encoding="utf-8"?>
<!-- Generator: Adobe Illustrator 22.1.0, SVG Export Plug-In . SVG Version: 6.00 Build 0)  -->
<svg version="1.1" id="Layer_1" xmlns="http://www.w3.org/2000/svg" xmlns:xlink="http://www.w3.org/1999/xlink" x="0px" y="0px"
	 viewBox="0 0 256 256" style="enable-background:new 0 0 256 256;" xml:space="preserve">
<g>
	<path style="fill:#FFFFFF;" d="M176.7,73c0,0-12.7-9.3-22.3,15.5c-9.6,24.8-15.1,70.1-70.1,108.9s-58.2,14-64,29.2
		c-5.8,15.2,91.4,27.3,156.4-50s25.7-93.9,25.7-93.9L176.7,73z"/>
	<path style="fill:#BFBEBE;" d="M176.6,176.6c53.7-63.9,36.3-86.4,28.5-92.3l-3.6-2c-8-2-10.1,1.6-14.6,3.7c8,7,4.9,17.7,4.9,17.7
		c-3.7,37.6-23.5,58.8-59,92.8c-35.3,33.8-86.1,41.2-86.6,41.2C78.6,239.3,134.4,226.8,176.6,176.6z"/>
</g>
<g style="opacity:0;">
	<path style="fill:#A4B54B;" d="M168.9,76.4c-0.4,0.1-0.5,0.7-0.1,0.9c2.4,1.5,8.6,5.9,9.7,9.6c1.5,4.6,11.1-0.5,14.7,0.8
		c3.6,1.3,13.1,4.8,10.4-0.7s-6.2-18.4-4.2-24c1.9-5.4,8.2-32-18.7-58.7c-2-2-5.3-2-7.3,0c-1.8,1.8-3.3,4.4-2.7,7.4
		c1.2,6.4,3.4,7.8,7.6,7.5c4.2-0.3,9.9,7.3,11.5,13.3C191.2,37.9,193.1,67.7,168.9,76.4z"/>
</g>
</svg>
