<?xml version="1.0" encoding="utf-8"?>
<!-- Generator: Adobe Illustrator 22.1.0, SVG Export Plug-In . SVG Version: 6.00 Build 0)  -->
<svg version="1.1" id="Layer_1" xmlns="http://www.w3.org/2000/svg" xmlns:xlink="http://www.w3.org/1999/xlink" x="0px" y="0px"
	 viewBox="0 0 256 256" style="enable-background:new 0 0 256 256;" xml:space="preserve">
<g style="opacity:0;">
	<path id="XMLID_55_" style="fill:#FFFFFF;" d="M120.2,60.9c0,0,41.9-32.1,77.8-2.9c0,0,20.5,7.3,28.8,38.7c0,0,3.9,40.4-16.8,53.4
		c0,0-40.6,27.5-76.3,23.4c0,0-38.2,28.7-63.3,26c0,0-55,1.6-67.7-48.2c0,0-9.4-53.1,42.2-73.8c0,0,32.2-12.8,58.3-4.9L120.2,60.9z"
		/>
	<path style="fill:#C4C4C4;" d="M146.4,116.6c13.9-7.9,39.1-17.1,70.2-4.1c0,0,4.7,0.9,10.5,3.7c0,0,8.9-43.2-30.1-58.2
		c-28-23-62-13-94,15C103,73,136.9,75.4,146.4,116.6z"/>
	<path id="XMLID_37_" style="fill:#FFFFFF;" d="M134.9,124.8c0,0,34.1-32.2,81.7-12.3c0,0,23.1,4.3,29.7,24.9
		c0,0,15.6,27.3-9.9,57.5c0,0-22.8,32.4-59.9,27.8c-2.7-0.1-58.3,2-62.7-45.6C113.8,177.2,114.2,136.2,134.9,124.8z"/>
</g>
<g id="XMLID_1_">
	<g id="XMLID_54_">
		<g>
			<path style="fill:#8E5B2D;" d="M24.5,121.7c-1.6,2.7-0.7,6.1,1.9,7.8c1.1,0.7,2.8,0.2,3.4-0.9c0.7-1.2,0.2-2.7-0.9-3.4
				c0.5,0.4-0.6-0.4-0.1-0.1c-0.1-0.3-0.1-0.3,0,0c-0.1-0.1-0.1-0.3-0.1-0.4c0.2,0.6,0.1-0.6,0,0c0-0.1,0.1-0.3,0.1-0.4
				c-0.1,0.3-0.1,0.2,0.1,0c0.7-1.2,0.3-2.7-0.9-3.4C26.8,120.1,25.2,120.5,24.5,121.7L24.5,121.7z"/>
		</g>
	</g>
	<g id="XMLID_53_">
		<g>
			<path style="fill:#8E5B2D;" d="M64.9,125.1c1.1,0.2,2.1,0.4,3.2,0.6c1.3,0.2,2.8-0.4,3.1-1.7c0.3-1.2-0.4-2.8-1.7-3.1
				c-1.1-0.2-2.1-0.4-3.2-0.6c-1.3-0.2-2.8,0.4-3.1,1.7C62.9,123.2,63.5,124.8,64.9,125.1L64.9,125.1z"/>
		</g>
	</g>
	<g id="XMLID_52_">
		<g>
			<path style="fill:#8E5B2D;" d="M87.1,121.8c1.1,0.4,2.1,0.8,3.2,1.1c1.2,0.4,2.8-0.5,3.1-1.7c0.3-1.4-0.4-2.6-1.7-3.1
				c-1.1-0.4-2.1-0.8-3.2-1.1c-1.2-0.4-2.8,0.5-3.1,1.7C85,120.1,85.7,121.3,87.1,121.8L87.1,121.8z"/>
		</g>
	</g>
	<g id="XMLID_51_">
		<g>
			<path style="fill:#8E5B2D;" d="M100.5,150c2.3,0.6,4.9,0.3,6.8-1.1c1.1-0.8,1.6-2.2,0.9-3.4c-0.6-1.1-2.3-1.7-3.4-0.9
				c-1,0.7-1.8,0.9-3,0.6C98.7,144.4,97.4,149.2,100.5,150L100.5,150z"/>
		</g>
	</g>
	<g id="XMLID_50_">
		<g>
			<path style="fill:#8E5B2D;" d="M72,168.4c-1.2,1.7-0.6,4.2,0.9,5.5c1.8,1.5,4,1.4,6.2,0.9c1.3-0.3,2.1-1.8,1.7-3.1
				c-0.4-1.4-1.7-2-3.1-1.7c-0.2,0-0.5,0.1-0.7,0.1c-0.4,0.1,0.3,0-0.2,0c-0.2,0-0.5,0-0.7,0c0,0,0.1,0,0.1,0
				c-0.3-0.1-0.3-0.1-0.2,0c0,0,0.4,0.3,0.2,0.1c-0.1-0.1-0.1-0.1,0.1,0.1c0-0.1-0.1-0.1-0.1-0.2c0.1,0.2,0.1,0.3,0.1,0.5
				c0,0.1-0.3,0.7-0.1,0.3c0.8-1.1,0.2-2.8-0.9-3.4C74.2,166.8,72.8,167.3,72,168.4L72,168.4z"/>
		</g>
	</g>
	<g id="XMLID_49_">
		<g>
			<path style="fill:#8E5B2D;" d="M158,64.6c1.3-0.7,2.7-0.8,4.1-0.4c3.1,0.9,4.4-4,1.3-4.8c-2.7-0.8-5.5-0.4-8,0.9
				C152.7,61.8,155.2,66.1,158,64.6L158,64.6z"/>
		</g>
	</g>
	<g id="XMLID_48_">
		<g>
			<path style="fill:#8E5B2D;" d="M169.9,79.8c0.1,0.1,0.6,0.8,0.4,0.4c0.1,0.1,0.4,0.7,0.3,0.5c-0.1-0.2,0-0.1,0,0.1
				c0,0.1,0.1,0.3,0.1,0.5c0.1,0.3,0.1,0.3,0,0c0,0.2,0,0.3,0,0.5c0,1.3,1.1,2.6,2.5,2.5c1.3-0.1,2.5-1.1,2.5-2.5
				c0-2.1-0.9-4.1-2.4-5.5c-0.9-0.9-2.6-1-3.5,0C169,77.3,168.8,78.9,169.9,79.8L169.9,79.8z"/>
		</g>
	</g>
	<g id="XMLID_47_">
		<g>
			<path style="fill:#8E5B2D;" d="M140.5,82.9c-0.2,0.2,0.5-0.3,0.6-0.3c-0.4,0.1,0.3-0.1,0.4-0.1c-0.4,0.1,0.3,0,0.4,0
				c0.3,0,0.3,0,0.1,0c0.2,0,0.3,0.1,0.5,0.1c3.1,0.9,4.4-3.9,1.3-4.8c-2.4-0.7-4.8,0-6.8,1.6c-1,0.9-0.9,2.6,0,3.5
				C138,83.9,139.4,83.7,140.5,82.9L140.5,82.9z"/>
		</g>
	</g>
	<g id="XMLID_46_">
		<g>
			<path style="fill:#8E5B2D;" d="M166.5,121.9c0.7,0,1.4,0,2.2,0c1.3,0,2.6-1.2,2.5-2.5c-0.1-1.4-1.1-2.5-2.5-2.5
				c-0.7,0-1.4,0-2.2,0c-1.3,0-2.6,1.2-2.5,2.5C164,120.8,165.1,121.9,166.5,121.9L166.5,121.9z"/>
		</g>
	</g>
	<g id="XMLID_45_">
		<g>
			<path style="fill:#8E5B2D;" d="M63,92C62.9,92.1,62.7,92.3,63,92c0,0,0.1-0.1,0.2-0.2c0.1-0.1,0.2-0.2,0.3-0.2
				c0.3-0.3-0.3,0.2,0,0c0.2-0.1,0.4-0.3,0.6-0.4c0.1-0.1,0.2-0.1,0.3-0.2c0.3-0.2-0.6,0.2,0,0c1.2-0.5,2.2-1.7,1.7-3.1
				c-0.4-1.2-1.8-2.2-3.1-1.7c-1.8,0.7-3.1,1.7-4.3,3.2c-0.4,0.5-0.4,1.4-0.3,1.9c0.2,0.6,0.6,1.2,1.1,1.5c0.6,0.3,1.3,0.5,1.9,0.3
				C62.1,92.9,62.5,92.5,63,92L63,92z"/>
		</g>
	</g>
	<g id="XMLID_44_">
		<g>
			<path style="fill:#8E5B2D;" d="M118.7,115.3c1-0.4,2-0.5,3-0.3c1.3,0.3,2.7-0.4,3.1-1.7c0.3-1.2-0.4-2.8-1.7-3.1
				c-1.9-0.4-3.8-0.3-5.7,0.3c-1.3,0.5-2.1,1.7-1.7,3.1C116,114.8,117.4,115.8,118.7,115.3L118.7,115.3z"/>
		</g>
	</g>
	<g id="XMLID_43_">
		<g>
			<path style="fill:#8E5B2D;" d="M40.5,152.7c1.3,0.2,2.5,0.4,3.8,0.6c1.3,0.2,2.8-0.3,3.1-1.7c0.3-1.2-0.4-2.9-1.7-3.1
				c-1.3-0.2-2.5-0.4-3.8-0.6c-1.3-0.2-2.8,0.3-3.1,1.7C38.5,150.9,39.2,152.5,40.5,152.7L40.5,152.7z"/>
		</g>
	</g>
	<g id="XMLID_42_">
		<g>
			<path style="fill:#8E5B2D;" d="M70.2,152.2c0.4,0.7,0.7,1.4,1.1,2.1c0.6,1.2,2.3,1.6,3.4,0.9c1.2-0.8,1.5-2.2,0.9-3.4
				c-0.4-0.7-0.7-1.4-1.1-2.1c-0.6-1.2-2.3-1.6-3.4-0.9C69.9,149.5,69.6,150.9,70.2,152.2L70.2,152.2z"/>
		</g>
	</g>
	<g id="XMLID_41_">
		<g>
			<path style="fill:#8E5B2D;" d="M124.5,164.1c1.8,0.4,3.5,0.2,5.2-0.7c1.2-0.6,1.6-2.3,0.9-3.4c-0.8-1.2-2.2-1.5-3.4-0.9
				c-0.6,0.3,0.4-0.1-0.2,0.1c-0.1,0-0.8,0.2-0.2,0.1c-0.2,0-0.4,0-0.7,0c-0.5,0,0.3,0.1-0.2,0c-1.3-0.3-2.8,0.4-3.1,1.7
				C122.4,162.3,123.1,163.8,124.5,164.1L124.5,164.1z"/>
		</g>
	</g>
	<g id="XMLID_40_">
		<g>
			<path style="fill:#8E5B2D;" d="M194.5,82.8C194.7,82.7,194.7,82.7,194.5,82.8c0.2-0.1,0.3-0.1,0.5-0.2c-0.6,0.1,0.5,0.1,0.2,0
				c-0.4-0.1,0.7,0.3,0.2,0c0.1,0.1,0.3,0.2,0.4,0.2c-0.2-0.1-0.2-0.1,0,0.1c0.9,1,2.6,0.9,3.5,0c1-1,0.9-2.6,0-3.5
				c-1.9-2-4.9-2.4-7.3-1C189.2,80.1,191.7,84.5,194.5,82.8L194.5,82.8z"/>
		</g>
	</g>
	<g id="XMLID_39_">
		<g>
			<path style="fill:#8E5B2D;" d="M157.1,146.2c0.9,0.4,1.8,0.8,2.7,1.1c0.6,0.3,1.2,0.4,1.9,0.3c0.6-0.2,1.2-0.6,1.5-1.1
				c0.6-1.1,0.4-2.9-0.9-3.4c-0.9-0.4-1.8-0.8-2.7-1.1c-0.6-0.3-1.2-0.4-1.9-0.3c-0.6,0.2-1.2,0.6-1.5,1.1
				C155.7,143.8,155.9,145.6,157.1,146.2L157.1,146.2z"/>
		</g>
	</g>
	<g id="XMLID_38_">
		<g>
			<path style="fill:#8E5B2D;" d="M155.7,100.9c0-0.1,0.1-0.2,0.1-0.3C155.8,100.7,155.5,101.2,155.7,100.9
				c-0.1,0.1-0.4,0.4-0.2,0.2c0.3-0.3-0.4,0.2-0.2,0.1c0.1-0.1,0.4-0.2,0,0c-0.4,0.2-0.1,0,0,0c0.3,0-0.6,0.1-0.3,0
				c0.2,0,0.5,0.1-0.2-0.1c1.3,0.2,2.8-0.4,3.1-1.7c0.3-1.2-0.4-2.8-1.7-3.1c-1.2-0.2-2.3-0.1-3.4,0.5c-1,0.6-1.7,1.6-2,2.7
				c-0.3,1.3,0.4,2.8,1.7,3.1C153.9,103,155.4,102.3,155.7,100.9L155.7,100.9z"/>
		</g>
	</g>
	<path id="XMLID_36_" style="fill:#E8B26B;" d="M128.2,135.4c0,0-15.2,13.6-9.2,54.6c0,0,13.2,35.6,66.2,30.8c0,0,28.6-2.6,32.5-30
		c0,0,4-61.9-35.4-60.6C182.3,130.1,148,117,128.2,135.4z"/>
	<g id="XMLID_34_">
		<g>
			<path style="fill:#8E5B2D;" d="M178.3,121.5C178.5,121.3,178.5,121.4,178.3,121.5c0,0,0.1-0.1,0.2-0.1c0.1,0,0.1-0.1,0.2-0.1
				c0.2-0.1,0.2-0.1-0.1,0c0,0,0.5-0.1,0.5-0.1c0.3-0.1,0.2,0-0.1,0c0.1,0,0.2,0,0.4,0c1.3,0,2.6-1.1,2.5-2.5
				c-0.1-1.3-1.1-2.5-2.5-2.5c-1.7,0-3.2,0.7-4.5,1.8c-1,0.9-1,2.7,0,3.5C175.8,122.5,177.3,122.5,178.3,121.5L178.3,121.5z"/>
		</g>
	</g>
	<g id="XMLID_33_">
		<g>
			<path style="fill:#8E5B2D;" d="M208.1,124.9c0.7,0.7,1.4,1.5,2.1,2.2c0.9,0.9,2.6,1,3.5,0c0.9-1,1-2.5,0-3.5
				c-0.7-0.7-1.4-1.5-2.1-2.2c-0.9-0.9-2.6-1-3.5,0C207.2,122.4,207.2,123.9,208.1,124.9L208.1,124.9z"/>
		</g>
	</g>
	<g id="XMLID_32_">
		<g>
			<path style="fill:#8E5B2D;" d="M221.1,134.9c1,1.5,2.5,2.3,4.2,2.4c1.3,0.1,2.6-1.2,2.5-2.5c-0.1-1.4-1.1-2.4-2.5-2.5
				c-0.5,0,0.5,0.1,0.1,0c-0.5-0.1,0.5,0.3,0,0c-0.5-0.3,0.2,0.2,0,0c-0.4-0.5,0.2,0.4,0,0c-0.7-1.1-2.3-1.6-3.4-0.9
				C220.9,132.2,220.3,133.7,221.1,134.9L221.1,134.9z"/>
		</g>
	</g>
	<g id="XMLID_31_">
		<g>
			<path style="fill:#8E5B2D;" d="M224,123.8c3.2,0,3.2-5,0-5C220.7,118.8,220.7,123.8,224,123.8L224,123.8z"/>
		</g>
	</g>
	<g id="XMLID_30_">
		<g>
			<path style="fill:#8E5B2D;" d="M198.7,117.7c1.4-0.1,2.9-0.3,4.3-0.4c1.3-0.1,2.5-1.1,2.5-2.5c0-1.3-1.1-2.6-2.5-2.5
				c-1.4,0.1-2.9,0.3-4.3,0.4c-1.3,0.1-2.5,1.1-2.5,2.5C196.2,116.5,197.4,117.9,198.7,117.7L198.7,117.7z"/>
		</g>
	</g>
	<g id="XMLID_29_">
		<g>
			<path style="fill:#8E5B2D;" d="M233.2,160.4c1.3,1,3.1,1.2,4.6,0.8c1.3-0.3,2.1-1.8,1.7-3.1c-0.4-1.3-1.7-2.1-3.1-1.7
				c-0.3,0.1-0.2,0.1,0.2,0c-0.1,0-0.2,0-0.3,0c-0.5,0,0.5,0.1,0,0c-0.1,0-0.2,0-0.2-0.1c-0.2-0.1-0.1,0,0.2,0.1
				c-0.1,0-0.5-0.3-0.6-0.3c-1.1-0.8-2.8-0.2-3.4,0.9C231.6,158.2,232.1,159.6,233.2,160.4L233.2,160.4z"/>
		</g>
	</g>
	<g id="XMLID_28_">
		<g>
			<path style="fill:#8E5B2D;" d="M228.6,182.7c0.7,0,1.4,0,2.2,0c1.3,0,2.6-1.2,2.5-2.5c-0.1-1.4-1.1-2.5-2.5-2.5
				c-0.7,0-1.4,0-2.2,0c-1.3,0-2.6,1.2-2.5,2.5C226.2,181.6,227.2,182.6,228.6,182.7L228.6,182.7z"/>
		</g>
	</g>
	<g id="XMLID_27_">
		<g>
			<path style="fill:#8E5B2D;" d="M237.5,144.6c0.9,0,1.8,0,2.7,0.1c1.3,0,2.6-1.2,2.5-2.5c-0.1-1.4-1.1-2.5-2.5-2.5
				c-0.9,0-1.8,0-2.7-0.1c-1.3,0-2.6,1.2-2.5,2.5C235.1,143.5,236.1,144.5,237.5,144.6L237.5,144.6z"/>
		</g>
	</g>
</g>
</svg>
