<?xml version="1.0" encoding="utf-8"?>
<!-- Generator: Adobe Illustrator 22.1.0, SVG Export Plug-In . SVG Version: 6.00 Build 0)  -->
<svg version="1.1" id="Layer_1" xmlns="http://www.w3.org/2000/svg" xmlns:xlink="http://www.w3.org/1999/xlink" x="0px" y="0px"
	 viewBox="0 0 256 256" style="enable-background:new 0 0 256 256;" xml:space="preserve">
<g id="XMLID_2_">
	<path id="XMLID_9_" style="fill:#FCFCFC;" d="M0.9,256c0,0,23.1-29.8,28.4-44.2c0,0,5.8-13.2,12.7-17.2c0,0-0.8-5.7,5.3-11
		c0,0,15.9-19.5,23.5-21.7c0,0-1.5-13.4,22.5-30.2c2.5-6.5,9-24.8,31.5-29.7c0,0,9.3-0.8,17.5,6.7c0,0,9.7,10.4,10.3,19.1
		c0.5,9.2-4.6,22.3-19.4,26.7c0,0-13.2,27.3-27.6,27.1c0.8,0.3-1.6,6.8-3.9,8.1c0,0-25.4,24.4-36.9,26.8c0,0-4.7,9.2-19.9,14.9
		C44.9,231.5,16.1,247.1,0.9,256z"/>
	<path id="XMLID_8_" style="fill:#D6D6D6;" d="M93.3,131.7c0,0,8.7-1.4,15,3.1c0,0-7.5-6.7-13.7-6.2L93.3,131.7z"/>
	<path id="XMLID_7_" style="fill:#D6D6D6;" d="M133.2,154.5c0,0-3.9-11.8-9.6-13.2c0,0,5.5,0.3,11.9,12.4L133.2,154.5z"/>
	<path id="XMLID_6_" style="fill:#D6D6D6;" d="M105.1,184.8c0,0-2.9-7.2-7.4-11.6c0,0,6.5,3.1,9.5,8.3l-1.5,0.1L105.1,184.8z"/>
	<path id="XMLID_5_" style="fill:#D6D6D6;" d="M69.6,162.3c0,0,4.8-0.5,11,2.3c0,0-4.3-3.1-9.4-5.3l-0.3,2.5L69.6,162.3z"/>
	<path id="XMLID_4_" style="fill:#D6D6D6;" d="M40.9,195.4c0,0,7.2,1.3,10.9,4.4c0,0-1.4-3.3-9.6-8l-0.2,2.9L40.9,195.4z"/>
	<path id="XMLID_3_" style="fill:#D6D6D6;" d="M63.6,217.8c0,0-1-5.6-3.9-10c0,0,4.3,4.5,6.2,8.2l-1.2,0.6L63.6,217.8z"/>
</g>
<g style="opacity:0;">
	<path id="XMLID_16_" style="fill:#81903F;" d="M150.4,87.2l-1.9-14c0,0-2.1-11.2,3.3-10.1c0,0,0.8-22.4,9.5-16.5
		c0,0-12.8-19.4-3.8-19.6c0,0-2-27.1,13.4-11.2c0,0,12.5-10.3,10.6,8.2l-3.9,18.7c0,0,12.9,1.8-2.2,20.2c0,0,14.1-0.7-20.8,24.3
		L150.4,87.2z"/>
	<path id="XMLID_14_" style="fill:#7B843B;" d="M159.2,92.1l17-4.3c0,0,12.9-2.9,9.4-9.4c0,0,23.7-12.3,13.5-20.5
		c0,0,26.4,6.8,22.7-4.8c0,0,29.9-11,6.2-23c0,0,5.7-21.4-13.5-9.6l-18.3,14.5c0,0-7.5-15.8-20.7,13c0,0-5.5-14.9-17.2,42.8
		L159.2,92.1z"/>
	<path id="XMLID_12_" style="fill:#81903F;" d="M166.7,98.4l13.7,3.4c0,0,10.9,3.3,10.4-2.2c0,0,22.4,1.6,17.4-7.6
		c0,0,17.9,14.8,19,6c0,0,26.7,4.9,12.6-12.1c0,0,11.6-11.3-7-11.5l-19,1.9c0,0-0.4-13-20.3,0c0,0,2.3-13.9-26.4,18L166.7,98.4z"/>
	<path style="fill:#889D47;" d="M145,111.9c29.5-20,56.1-28.8,56.1-28.8l-3.9-2.1c-19.3,4.5-43.8,22.1-53.4,29.3
		C144.2,110.9,144.6,111.4,145,111.9z"/>
	<path style="fill:#889D47;" d="M196.9,53.4c-19.1,16.8-44.3,41.9-56.2,53.9c0.5,0.4,1.1,0.9,1.6,1.4c0,0,0.2,0.2,0.5,0.6
		c25-27.8,63.2-58.1,63.2-58.1L196.9,53.4z"/>
	<path style="fill:#889D47;" d="M139.3,106.4c8.8-10,26.3-31.3,32-48.9l-1.7-4c0,0-10.5,24.8-32,51.9
		C138.2,105.6,138.7,106,139.3,106.4z"/>
	<g>
		<path style="fill:#728346;" d="M151.9,124.3c0.2,0.6,0.3,1.3,0.5,1.9l0.9-0.1L151.9,124.3z"/>
		<path style="fill:#728346;" d="M129.6,101.7c0,0,0,0.3,0.2,0.7c3.4,0.6,8.1,2.3,12.5,6.3c0,0,4.8,5.1,7.8,11.1l0.7-0.7l-1.8-2.4
			l1-1.6l-3.2-1.7l2.2-1.2l-3-1.7l0.8-3.5l-4.7,1.4c0,0,0.5-3.6-0.6-2.4s-1.2-1.2-1.2-1.2s0-2.2-0.7-2c-0.7,0.2-1.6,0-1.6,0
			s-0.6-1.6-0.9-0.9c-0.3,0.7-2.1-0.4-2.1-0.4l0.2-2.9l-2.8,2.8l-1.3-2.1l0.1,2.1l-1.7-1.4L129.6,101.7z"/>
		<path style="fill:#728346;" d="M151.2,122.3c0.4-0.1,0.8-0.1,1.3-0.1c0.7,0.1-1.3-1.4-2.2-2C150.6,120.9,150.9,121.6,151.2,122.3z
			"/>
	</g>
</g>
</svg>
