<?xml version="1.0" encoding="utf-8"?>
<!-- Generator: Adobe Illustrator 22.1.0, SVG Export Plug-In . SVG Version: 6.00 Build 0)  -->
<svg version="1.1" id="Layer_1" xmlns="http://www.w3.org/2000/svg" xmlns:xlink="http://www.w3.org/1999/xlink" x="0px" y="0px"
	 viewBox="0 0 256 256" style="enable-background:new 0 0 256 256;" xml:space="preserve">
<g style="opacity:0;">
	<path style="opacity:0.3;" d="M140.5,115.7l-111.1,122l2.4,2l100.6-108.6l5.6-8.4c1.4-2.4,2.6-4.8,3.6-7.1L140.5,115.7z"/>
	<path style="fill:#FFFFFF;" d="M149.9,132.4L42.4,249l-10.6-9.4l100.6-108.6l-8,10.4l16-15.8l0.1,4.5l-2.2,4.2c0,0,3.8-2.8,5.9-2.5
		s1.9,1.3,4.5-0.6L149.9,132.4z"/>
	<polygon style="opacity:6.000000e-02;" points="72.2,203.5 75.5,206.3 146.5,132.3 143.9,131.3 139,133.7 140.5,130.2 140.3,126 	
		"/>
	<polygon style="fill:#FFFFFF;" points="10,235.4 106.6,101.8 121.1,113.7 23.2,246 	"/>
	<polygon style="opacity:0.3;" points="12.7,237.6 109.6,104.3 106.6,101.8 10,235.4 	"/>
	<path style="opacity:6.000000e-02;" d="M73.5,161.3l33.1-49l6.6,6.6l-35.7,45C77.5,164,74.8,166.6,73.5,161.3z"/>
	<polygon style="fill:#FFFFFF;" points="85.7,203.4 247.4,170.7 250,189.3 88.3,220.2 	"/>
	<polygon style="opacity:0.3;" points="86.3,206.9 247.9,174.6 247.4,170.7 85.7,203.4 	"/>
	<path style="opacity:6.000000e-02;" d="M182.7,192l65.6-15.3l1.3,9.2l-65.7,10.7C183.8,196.7,180.1,196.8,182.7,192z"/>
	<polygon style="fill:#FFFFFF;" points="64.1,232.2 225.8,199.5 228.4,218.1 66.7,249 	"/>
	<polygon style="opacity:0.3;" points="64.6,235.7 226.3,203.4 225.8,199.5 64.1,232.2 	"/>
	<path style="opacity:6.000000e-02;" d="M161.1,220.9l65.6-15.3l1.3,9.2l-65.7,10.7C162.2,225.5,158.4,225.6,161.1,220.9z"/>
</g>
<g>
	<path style="fill:#698713;" d="M124.5,141.3l13-17.9c0,0,2.4-4.2,3.8-7.3c1.4-3.1-2.1-5.1,0.4-10.5c2.5-5.4-5.1-0.8-3.1-8.5
		c2-7.7-1.3-5.8-0.6-9c0.8-3.2,4.3-5,4.9-6.8c0.6-1.9,0.1-3.4,6-6s1.2-7.1,5.3-9.7c4.1-2.6-2-6.1,2.6-10.5c4.6-4.4-0.6-7.6,1.8-7.9
		c2.3-0.3,5.2-0.2,6.4-1.3c1.2-1.1,2.8-2.6,5-1.2c2.2,1.4,2.5-0.1,4.7-3c2.2-2.9,4.4,0.9,5.4-2.6c1-3.5-1-4.9,3.2-5.6
		s1.3-4.5,3.5-4.2c2.2,0.3,4.4,2.8,7.7,2.4s3.1,1,6.2,2.6s4-1.2,7.3,0.7c3.3,1.9,3.2,2.8,7.9,1.4c4.7-1.3,2.1,3.7,5.5,3.7
		c3.4,0,6.4-0.2,6.3,2.9c-0.1,3.1,0.2,3.3,3,5.7c2.8,2.4-2.9,5.7,0,8.1s0.9,5.7,3,8.3c2.1,2.5,3.6,1,3.9,6.2
		c0.2,5.2,3.9,6.2,1.2,8.5c-2.6,2.3-4.3,4-4.4,6.1c-0.1,2.1-4.5-1.3-5.7,4c-1.2,5.3-4.5,4-2.9,7.3c1.7,3.3-2.5,4.6-2.1,6.3
		c0.4,1.7,1.1,6.1-5.3,5.8c-6.4-0.2-3.5,4.6-7.3,3.6s-7.2,0.4-8.6,2.9c-1.4,2.4-5.7,1-6.9,5.2c-1.2,4.2-9.9,5.7-10.6,8.6
		s-5.1-1.8-9.3,0.2s-10.9-1-14.8,0.6s-4.5-2.9-11,2.2l-1.1-1.1l-4.8-8.8l-3.5,3.2L124.5,141.3z"/>
	<path style="fill:#84AC17;" d="M137.5,135l3-4.8c0,0-2-4.8,2.6-7.9s-0.7-7.2,3.1-11c3.8-3.8-4.9-5.5,1.1-11.9c0,0-2-4.6,3.1-7.4
		c5.1-2.8-1.3-5.1,5-7.9s3.5-4.1,6.5-8.3s2.2-1.5,3.5-6.4s2.6-10.3,6.4-11.2c3.8-0.9,1.7-0.2,4.1-3.2c2.5-3.1,3.5,0.2,5.8-0.9
		c2.3-1.1,4.1-4.8,6.2-5c2.1-0.2,0.6-2.5,3.5-4.5c2.9-2,1.2-4.3,4.5-5c3.4-0.7,1.3,0.7,4.2,0c2.9-0.7,4.5-2.1,5.4-0.2
		c0.9,1.9,2.6,2,5.3,1c2.7-1,1.6-0.2,4.1,0.4c2.6,0.7,3.7-1.6,6-0.7c2.3,0.8,1.9,1.9,4.5,1.7c2.6-0.2,2.3,0.3,2,2.5
		c-0.3,2.2,2.8,3.6,2.1,5.6c-0.7,2-3.3,2.1-1.5,3.4c1.8,1.3,2.2,4.5,1.6,6.3c-0.6,1.7,3.5,2.7,2.7,5c-0.8,2.2-1.5,3.3-0.3,5.3
		c1.2,2-3,2.8-4,5.5c-1,2.7-4.4,3.1-5.2,4.9s-6.2,5.5-5.6,8.1c0.6,2.6,0.1,2.5-2,5c-2.1,2.6,0.1,4.3-1.7,5.8
		c-1.7,1.5-6.7,1.9-7.4,3.4c-0.7,1.5-5.4,0.8-7.4,3.1c-2,2.2-10.6,5.6-10.8,9.8s-6.7,3.6-7.8,7.4c-1.1,3.8-4.3-1-7.4,0.8
		c-3.1,1.8-5.4,3.3-8.3,1.6c-2.9-1.7-6.9,3.6-9.6,2.6s-7,6.2-9.5,4.5C142.9,130.6,137.5,135,137.5,135z"/>
	<path style="fill:#84AC17;" d="M133.2,109.9c0.3-1.8,7.7-3.3,8.2-3.5c0.1-0.3,0.2-0.5,0.3-0.8c2.5-5.4-5.1-0.8-3.1-8.5
		c2-7.7-1.3-5.8-0.6-9c0.8-3.2,4.3-5,4.9-6.8c0.6-1.9,0.1-3.4,6-6c5.8-2.5,1.2-7.1,5.3-9.7c4.1-2.6-2-6.1,2.6-10.5
		c4.6-4.4-0.6-7.6,1.8-7.9c2.3-0.3,5.2-0.2,6.4-1.3c1.2-1.1,2.8-2.6,5-1.2c2.2,1.4,2.5-0.1,4.7-3c2.2-2.9,4.4,0.9,5.4-2.6
		c1-3.5-1-4.9,3.2-5.6c4.2-0.8,1.3-4.5,3.5-4.2c0.2,0,0.4,0.1,0.5,0.1c1.7-2.3-1.8-4.2-2.6-6.3c-0.9-2.2-0.9-2.1-1.9-3.4
		c-1-1.3-0.4,0.3-3.6-0.3c-3.2-0.7-2.2-1.3-3.3-0.6c-1.1,0.8-4,2-6.5,0.9c-2.5-1.1-2.9,1.4-5.4,0.9c-2.5-0.6-1.2-3.2-3-1.9
		c-1.8,1.3-5.3,1.8-7.9,1.9s-2.1,1.4-2.6,3.9c-0.6,2.4-2.4-0.2-3.3,2.4c-0.9,2.6-0.4,5-3,5.8c-2.5,0.9-3.5,4.5-5.1,4.6
		c-1.5,0.1-2-0.8-3.3,0.7c-1.3,1.4-1,3.3-4.9,4.2c-3.9,0.9-2.3,1.8-3,5.3c-0.7,3.5-2.9,3.6-3.5,5.6c-0.7,2,2.1,2.9,0.6,5.2
		c-1.5,2.3-2.2,7.5-3.5,9.2s-4.4,0.9-5.3,4.2c-0.9,3.3-0.9,4.5-4.3,6.8c-3.4,2.3-0.1,5.6,0,7.5c0.1,1.9-3.6,5-2,6.4
		c1.7,1.4,1.3,3.5,0,6.2c-1.3,2.6,1.3,7.9-1.3,10.6c-2.6,2.6-1.3,7.9-1.3,7.9l-2.6,5.3c0,0,3.9-3.9,5.3-3.3c2.5,1,9.2-4.8,11.2-5.3
		c1.7-0.4,2.6-0.8,4.5-3.3C127.4,107.9,132.9,111.7,133.2,109.9z"/>
	<g>
		<path style="fill:#698713;" d="M103.9,111.7c-1.6,1.8-2.3,5.1-2.3,5.1l-7.3,14.2l13.1-20.8l0.4-0.2c0.2-0.4,0.5-0.7,0.8-1.1
			c2.6-2.6,0-7.9,1.3-10.6c1.3-2.6,1.7-4.7,0-6.2c-1.7-1.4,2.1-4.5,2-6.4c-0.1-1.9-3.4-5.2,0-7.5c3.4-2.3,3.4-3.5,4.3-6.8
			c0.9-3.3,4-2.5,5.3-4.2s2-6.8,3.5-9.2c1.5-2.3-1.2-3.2-0.6-5.2c0.7-2,2.9-2.1,3.5-5.6c0.7-3.5-0.9-4.4,3-5.3
			c3.9-0.9,3.5-2.8,4.9-4.2c1.3-1.4,1.8-0.6,3.3-0.7c1.5-0.1,2.5-3.7,5.1-4.6c2.5-0.9,2.1-3.2,3-5.8c0.9-2.6,2.8,0,3.3-2.4
			c0.6-2.4,0-3.7,2.6-3.9s6.2-0.6,7.9-1.9c1.8-1.3,0.4,1.3,3,1.9c2.5,0.6,2.9-2,5.4-0.9c2.5,1.1,5.4-0.1,6.5-0.9
			c1.1-0.8,0.1-0.1,3.3,0.6c3.2,0.7,2.6-1,3.6,0.3c0.5,0.7,0.8,1,1,1.4c0,0,0,0,0,0c0.8-2.9,0-2.7-4-2.8c-4,0-1.1-2.6-6.4-2.6
			c-5.3,0-6,2.2-8,0.6c-2-1.6-3.5-1-5.9-0.8c-2.4,0.2-3.8-0.9-5.6-3.5c-1.8-2.6-5.5,2.1-8.4,0.6s-3.9,0.4-4.6,2.2
			c-0.7,1.7-2.5,2.9-4.2,4.2c-1.7,1.3,1.3,3.8-2.1,5c-3.4,1.2-2.8,3.5-5.8,5c-3,1.5-2.2-1-4.5-0.5c-2.3,0.5-1.9,3.7-5.5,4.1
			c-3.6,0.4-3,2-2.8,4.1c0.2,2.2-0.2,3.4-2.4,6c-2.2,2.6,1.1,3.6,1.4,7.6s-3.5,3.9-3.1,6s-2.1,6.7-4.8,6.9c-2.8,0.2-1.4,4.1-2.6,6.1
			c-1.2,2-4.6,3.8-3,6.7c1.7,2.9,1.2,7.6,1,11c-0.2,3.3,5,2.9,2.7,8.2c-2.3,5.3,3.6,5.7,1.3,8.8S105.5,109.9,103.9,111.7z"/>
		<path style="fill:#698713;" d="M158.6,47.2c-0.9,0.1-0.7,0.7-0.3,1.6l1.2-1.7C159.2,47.1,158.9,47.1,158.6,47.2z"/>
	</g>
	<g>
		<path style="fill:#698713;" d="M141.7,105.9L141.7,105.9c0,0.1-0.1,0.2-0.1,0.3C141.6,106.1,141.6,106,141.7,105.9z"/>
		<path style="fill:#698713;" d="M141.5,113.4c-0.4-1.8-1.3-3.7-0.1-7c-0.5,0.1-7.9,1.7-8.2,3.5c-0.3,1.8-5.8-2-7.6,0.5
			c-1.3,1.8-2.4,2.7-4.5,3.3l-3.2,4.5l4.2-3.7c0,0,5.4,1.1,10.3-2.1C137.2,109.2,136.8,115.5,141.5,113.4z"/>
	</g>
</g>
</svg>
