<?xml version="1.0" encoding="utf-8"?>
<!-- Generator: Adobe Illustrator 22.1.0, SVG Export Plug-In . SVG Version: 6.00 Build 0)  -->
<svg version="1.1" id="Layer_1" xmlns="http://www.w3.org/2000/svg" xmlns:xlink="http://www.w3.org/1999/xlink" x="0px" y="0px"
	 viewBox="0 0 256 256" style="enable-background:new 0 0 256 256;" xml:space="preserve">
<g>
	<path id="XMLID_34_" style="fill:#FFFFFF;" d="M50.2,205c0,0-17.1-0.2-30.8-44c0,0-17.3-35-9-67.3c0.5-2.3,4.9-18.1,18.8-34.5
		c0.6-3.6,8.3-18.5,25-22.4c0,0,20,1.4,32.5,23.7c0,0,22.3,21.3,25.3,41.3c0,0,6.3,30.2-8.9,56c0,0-19.5,48.9-47.4,46.3L50.2,205z"
		/>
	<polygon id="XMLID_32_" style="fill:#9E9E9E;" points="60.1,188.9 84.8,165.5 88.3,148.7 79.2,164.1 70.2,154.5 62.7,155.9 
		57.6,167.3 	"/>
	<polygon id="XMLID_31_" style="fill:#9E9E9E;" points="42.8,143.2 43.1,120.4 45.1,96.1 24.6,92.7 19.6,96.3 24.3,101 14,105 
		13.5,121.7 26.3,130 22.2,132.4 	"/>
	<polygon id="XMLID_30_" style="fill:#9E9E9E;" points="23.2,145.8 34,144.6 39.3,150 43.2,152.2 46.7,184.3 26.8,165.8 	"/>
	<polygon id="XMLID_29_" style="fill:#9E9E9E;" points="30.8,181.8 40.8,196.3 45.2,200.6 46.9,189.7 33,178 	"/>
	<polygon id="XMLID_28_" style="fill:#9E9E9E;" points="54.8,139.7 55.6,151.4 63.3,151.6 73.5,150.3 79.5,155.1 86,143.2 95.1,124 
		81,123.7 66,108.6 53.5,110.8 	"/>
	<polygon id="XMLID_27_" style="fill:#9E9E9E;" points="56.1,96.5 54.1,77 60.6,62 78,56.9 85.1,79.5 	"/>
	<polygon id="XMLID_26_" style="fill:#68A044;" points="73.6,105.8 79.9,115.3 91.1,118.7 99.8,104.3 92.3,100.7 	"/>
	<polygon id="XMLID_25_" style="fill:#9E9E9E;" points="23.5,83.6 41.5,90.5 43,73.5 44.7,63.3 40,59.2 32.9,60.4 	"/>
	<path id="XMLID_23_" style="fill:#FFFFFF;" d="M83.5,214.1c0,0,8,16.9,57.8,10.4c0,0,42.7,1.1,70.9-21.9
		c2.1-1.6,15.7-13.2,25.6-34.5c3.3-2.3,14.6-16.7,10.7-35.1c0,0-10.5-19.2-38.4-21.4c0,0-31.4-12.4-52.6-6.1c0,0-32.9,7.6-51.5,34.5
		c0,0-39.6,41.7-24.2,68.3L83.5,214.1z"/>
	<polygon id="XMLID_21_" style="fill:#68A044;" points="95,197 106.8,161.7 121.9,150.5 110.8,166.6 124.5,171.2 126.5,179.3 
		117.6,189.6 	"/>
	<polygon id="XMLID_20_" style="fill:#9E9E9E;" points="148.3,193.1 170.7,182.5 193.9,169.3 206.8,188.1 205.4,194.7 198.6,192.2 
		199.4,204.2 183,212.4 168.9,203.5 168.5,208.7 	"/>
	<polygon id="XMLID_19_" style="fill:#9E9E9E;" points="154.6,213.8 150.9,202.5 143.1,199.7 139.1,196.9 105.7,208.2 133.1,219.4 	
		"/>
	<polygon id="XMLID_18_" style="fill:#9E9E9E;" points="115.4,222.9 96.5,219.5 90.2,217.1 100.2,210.4 118.2,218.8 	"/>
	<polygon id="XMLID_17_" style="fill:#9E9E9E;" points="146.3,179.6 134.2,184.2 130.5,176.7 127.1,166 119.6,162.2 128.5,150.3 
		143.3,132.5 150.1,146.3 171.9,154.3 175.6,167.7 	"/>
	<polygon id="XMLID_16_" style="fill:#9E9E9E;" points="188.5,158.6 208.8,151.6 220.7,138.4 217.8,118.7 192.1,122 	"/>
	<polygon id="XMLID_15_" style="fill:#68A044;" points="171.3,145.5 158.9,143.5 150.4,134 160.8,118.8 167.7,124.5 	"/>
	<polygon id="XMLID_14_" style="fill:#9E9E9E;" points="216.3,185 201.2,170.3 217.3,161.1 226.7,154.6 232.9,157.5 235,165.1 	"/>
	<path id="XMLID_12_" style="fill:#FFFFFF;" d="M68.9,193.4c0,0-19-9.1-11.6-65.3c0,0-1.2-48.2,24.8-80.1c1.8-2.3,14.9-17.7,39-28.9
		c2.5-3.8,18.9-16.4,39.6-12.1c0,0,21.7,11.9,24.1,43.4c0,0,13.9,35.4,6.9,59.4c0,0-8.7,37.1-39,58.1c0,0-47.2,44.7-77.1,27.2
		L68.9,193.4z"/>
	<polygon id="XMLID_10_" style="fill:#9E9E9E;" points="88.2,180.5 128.1,167.1 140.7,150.1 122.5,162.7 117.4,147.1 108.3,144.9 
		96.6,155 	"/>
	<polygon id="XMLID_9_" style="fill:#9E9E9E;" points="92.6,120.3 104.7,94.9 119.6,68.8 98.4,54.3 90.9,55.8 93.8,63.5 80.1,62.6 
		70.9,81 81,97 75.1,97.5 	"/>
	<polygon id="XMLID_8_" style="fill:#9E9E9E;" points="69.3,113.1 82,117.3 85.2,126.1 88.3,130.7 75.6,168.4 63,137.4 	"/>
	<polygon id="XMLID_7_" style="fill:#9E9E9E;" points="59,157.4 62.8,178.8 65.5,185.9 73.1,174.6 63.6,154.2 	"/>
	<polygon id="XMLID_6_" style="fill:#9E9E9E;" points="107.8,122.6 102.7,136.2 111.2,140.4 123.2,144.2 127.5,152.7 141,142.7 
		161.1,126 145.5,118.3 136.5,93.6 121.3,89.5 	"/>
	<polygon id="XMLID_5_" style="fill:#9E9E9E;" points="131.7,75 139.6,52 154.6,38.6 176.8,41.9 173,70.9 	"/>
	<polygon id="XMLID_4_" style="fill:#9E9E9E;" points="146.4,94.4 148.7,108.3 159.4,118 176.6,106.3 170.1,98.5 	"/>
	<polygon id="XMLID_3_" style="fill:#9E9E9E;" points="101.9,43.5 118.4,60.6 128.9,42.4 136.2,31.8 133,24.8 124.4,22.4 	"/>
</g>
<g style="opacity:0;">
	<path id="XMLID_33_" style="fill:#99E56C;" d="M43.1,244.3c0,0,6.8-26,7.5-49.7c0,0-6-58-3.9-83c0,0,2.4-39.7,5.6-51.2
		c0,0-7.8,59.4,3.8,133.2c0,0-1.2,41.8-4.2,49.9C51.9,243.6,50.5,253.6,43.1,244.3z"/>
	<path id="XMLID_22_" style="fill:#99E56C;" d="M47.7,239.2c0,0,22.7-18.7,45.9-30.2c0,0,60.3-20.6,84.2-34.1c0,0,38.3-20.6,48.3-29
		c0,0-55.4,35-134,57.3c0,0-40.9,20.4-47.7,27C44.4,230.2,35.2,236.1,47.7,239.2z"/>
	<path id="XMLID_11_" style="fill:#99E56C;" d="M40.5,233.8c0,0,21.1-25.6,34.2-51.8c0,0,23.4-68.1,38.7-95c0,0,23.3-43.2,32.8-54.5
		c0,0-39.6,62.5-64.9,151.2c0,0-23.1,46.2-30.6,53.8C50.7,237.5,44,248,40.5,233.8z"/>
</g>
</svg>
