<?xml version="1.0" encoding="utf-8"?>
<!-- Generator: Adobe Illustrator 22.1.0, SVG Export Plug-In . SVG Version: 6.00 Build 0)  -->
<svg version="1.1" id="Layer_1" xmlns="http://www.w3.org/2000/svg" xmlns:xlink="http://www.w3.org/1999/xlink" x="0px" y="0px"
	 viewBox="0 0 256 256" style="enable-background:new 0 0 256 256;" xml:space="preserve">
<g id="XMLID_693_">
	<g style="opacity:0;">
		<path id="XMLID_548_" style="fill:#FFFFFF;" d="M123.4,50.7c0,0,40.9-31.3,75.9-2.8c0,0,20,7.1,28.1,37.7c0,0,3.8,39.4-16.4,52.1
			c0,0-39.6,26.8-74.5,22.8c0,0-37.2,28-61.7,25.4c0,0-53.7,1.5-66-47c0,0-9.2-51.8,41.2-71.9c0,0,31.4-12.5,56.8-4.8L123.4,50.7z"
			/>
		<path style="opacity:0.31;" d="M149,105.1c13.5-7.8,38.2-16.7,68.4-4c0,0,4.6,0.9,10.2,3.6c0,0,8.7-42.2-29.4-56.8
			c-27.3-22.4-60.5-12.7-91.7,14.6C106.6,62.5,139.6,64.8,149,105.1z"/>
		<path id="XMLID_559_" style="fill:#FFFFFF;" d="M137.7,113c0,0,33.3-31.4,79.7-12c0,0,22.5,4.2,28.9,24.3c0,0,15.2,26.6-9.6,56.1
			c0,0-22.2,31.6-58.4,27.2c-2.6-0.1-56.9,1.9-61.1-44.4C117.1,164.1,117.5,124.2,137.7,113z"/>
	</g>
	<g>
		<g id="XMLID_564_">
			<g>
				<path style="fill:#844F58;" d="M30,109.9c-1.6,2.6-0.7,6,1.8,7.7c1.1,0.7,2.8,0.2,3.4-0.9c0.7-1.2,0.2-2.7-0.9-3.4
					c0.2,0.2,0.2,0.2,0,0c-0.2-0.2-0.2-0.2,0,0c-0.1-0.3-0.1-0.3,0,0c-0.1-0.1-0.1-0.3-0.1-0.4c0,0.3,0,0.3,0,0c0-0.3,0-0.3,0,0
					c0-0.1,0.1-0.3,0.1-0.4c-0.1,0.3-0.1,0.3,0,0c0.7-1.2,0.3-2.7-0.9-3.4C32.2,108.3,30.7,108.8,30,109.9L30,109.9z"/>
			</g>
		</g>
		<g id="XMLID_565_">
			<g>
				<path style="fill:#844F58;" d="M69.4,113.3c1,0.2,2.1,0.4,3.1,0.6c1.3,0.2,2.8-0.4,3.1-1.7c0.3-1.2-0.4-2.8-1.7-3.1
					c-1-0.2-2.1-0.4-3.1-0.6c-1.3-0.2-2.8,0.4-3.1,1.7C67.4,111.5,68,113.1,69.4,113.3L69.4,113.3z"/>
			</g>
		</g>
		<g id="XMLID_566_">
			<g>
				<path style="fill:#844F58;" d="M91,110.1c1,0.4,2.1,0.7,3.1,1.1c1.2,0.4,2.8-0.5,3.1-1.7c0.3-1.4-0.4-2.6-1.7-3.1
					c-1-0.4-2.1-0.7-3.1-1.1c-1.2-0.4-2.8,0.5-3.1,1.7C89,108.5,89.7,109.7,91,110.1L91,110.1z"/>
			</g>
		</g>
		<g id="XMLID_567_">
			<g>
				<path style="fill:#844F58;" d="M104.1,137.7c2.3,0.6,4.8,0.3,6.7-1.1c1.1-0.8,1.6-2.2,0.9-3.4c-0.6-1.1-2.3-1.7-3.4-0.9
					c-1,0.7-1.8,0.9-2.8,0.6C102.3,132,101,136.9,104.1,137.7L104.1,137.7z"/>
			</g>
		</g>
		<g id="XMLID_568_">
			<g>
				<path style="fill:#844F58;" d="M76.3,155.5c-1.1,1.7-0.6,4.1,0.9,5.4c1.7,1.5,4,1.3,6.1,0.9c1.3-0.3,2.1-1.8,1.7-3.1
					c-0.4-1.4-1.7-2-3.1-1.7c-0.2,0-0.4,0.1-0.7,0.1c-0.4,0.1,0.3,0-0.2,0c-0.2,0-0.5,0-0.7,0c0,0,0.1,0,0.1,0
					c-0.3-0.1-0.3-0.1-0.2,0c0,0,0.4,0.3,0.2,0.1c-0.2-0.1,0.1,0.3,0-0.1c0.1,0.2,0.1,0.3,0.1,0.5c0,0.1-0.3,0.7-0.1,0.4
					c0.8-1.1,0.2-2.8-0.9-3.4C78.5,153.9,77.1,154.4,76.3,155.5L76.3,155.5z"/>
			</g>
		</g>
		<g id="XMLID_569_">
			<g>
				<path style="fill:#844F58;" d="M160.3,54.3c1.3-0.7,2.6-0.8,4-0.4c3.1,0.9,4.4-4,1.3-4.8c-2.7-0.7-5.4-0.4-7.8,0.9
					C154.9,51.5,157.5,55.8,160.3,54.3L160.3,54.3z"/>
			</g>
		</g>
		<g id="XMLID_570_">
			<g>
				<path style="fill:#844F58;" d="M171.7,69.2c0.1,0.1,0.6,0.8,0.4,0.4c0,0.1,0.4,0.7,0.3,0.5c-0.1-0.2,0.1,0.5,0.2,0.6
					c0.1,0.3,0.1,0.3,0,0c0,0.2,0,0.3,0,0.5c0,1.3,1.1,2.6,2.5,2.5c1.3-0.1,2.5-1.1,2.5-2.5c0-2.1-0.8-4-2.3-5.4
					c-0.9-0.9-2.6-1-3.5,0C170.8,66.7,170.7,68.2,171.7,69.2L171.7,69.2z"/>
			</g>
		</g>
		<g id="XMLID_571_">
			<g>
				<path style="fill:#844F58;" d="M143.2,72.2C143,72.3,143,72.3,143.2,72.2c0.2-0.1,0.4-0.2,0.5-0.3c-0.4,0.2,0.3-0.1,0.4-0.1
					c-0.4,0.1,0.3,0,0.3,0c0.3,0,0.3,0,0.1,0c0.2,0,0.3,0.1,0.5,0.1c1.3,0.4,2.7-0.5,3.1-1.7c0.4-1.3-0.4-2.7-1.7-3.1
					c-2.4-0.7-4.8,0-6.7,1.5c-1,0.9-0.9,2.6,0,3.5C140.7,73.2,142.1,73,143.2,72.2L143.2,72.2z"/>
			</g>
		</g>
		<g id="XMLID_636_">
			<g>
				<path style="fill:#844F58;" d="M67.6,81.1c-0.1,0.1-0.3,0.3-0.1,0.1c0.1-0.1,0.2-0.2,0.2-0.2c0.1-0.1,0.2-0.2,0.2-0.2
					c0.3-0.3-0.3,0.2,0,0c0.2-0.1,0.4-0.3,0.6-0.4c0.1-0.1,0.2-0.1,0.3-0.2c0.3-0.2-0.6,0.2,0,0c1.2-0.5,2.2-1.7,1.7-3.1
					c-0.4-1.2-1.8-2.2-3.1-1.7c-1.8,0.6-3.1,1.7-4.2,3.2c-0.4,0.5-0.4,1.4-0.3,1.9c0.2,0.6,0.6,1.2,1.1,1.5c0.6,0.3,1.3,0.5,1.9,0.3
					C66.7,82,67.2,81.6,67.6,81.1L67.6,81.1z"/>
			</g>
		</g>
		<g id="XMLID_643_">
			<g>
				<path style="fill:#844F58;" d="M121.9,103.8c1-0.4,2-0.5,2.9-0.3c1.3,0.3,2.7-0.4,3.1-1.7c0.3-1.2-0.4-2.8-1.7-3.1
					c-1.9-0.4-3.8-0.3-5.6,0.3c-1.3,0.5-2.1,1.7-1.7,3.1C119.2,103.3,120.6,104.3,121.9,103.8L121.9,103.8z"/>
			</g>
		</g>
		<g id="XMLID_650_">
			<g>
				<path style="fill:#844F58;" d="M45.6,140.3c1.2,0.2,2.4,0.4,3.7,0.6c1.3,0.2,2.8-0.3,3.1-1.7c0.3-1.2-0.4-2.9-1.7-3.1
					c-1.2-0.2-2.4-0.4-3.7-0.6c-1.3-0.2-2.8,0.3-3.1,1.7C43.6,138.5,44.3,140.1,45.6,140.3L45.6,140.3z"/>
			</g>
		</g>
		<g id="XMLID_657_">
			<g>
				<path style="fill:#844F58;" d="M74.6,139.8c0.4,0.7,0.7,1.4,1.1,2.1c0.6,1.2,2.3,1.6,3.4,0.9c1.2-0.8,1.5-2.2,0.9-3.4
					c-0.4-0.7-0.7-1.4-1.1-2.1c-0.6-1.2-2.3-1.6-3.4-0.9C74.3,137.1,73.9,138.5,74.6,139.8L74.6,139.8z"/>
			</g>
		</g>
		<g id="XMLID_672_">
			<g>
				<path style="fill:#844F58;" d="M195.8,72.1C196.1,72,196.1,72,195.8,72.1c0.2-0.1,0.3-0.1,0.5-0.2c-0.7,0.1,0.5,0.1,0.1,0
					c-0.4-0.1,0.7,0.3,0.2,0c0.1,0.1,0.3,0.1,0.4,0.2c-0.2-0.2-0.2-0.1,0,0.1c0.9,1,2.6,0.9,3.5,0c1-1,0.9-2.6,0-3.5
					c-1.9-1.9-4.9-2.3-7.2-1c-1.2,0.7-1.6,2.3-0.9,3.4C193.1,72.4,194.7,72.8,195.8,72.1L195.8,72.1z"/>
			</g>
		</g>
		<g id="XMLID_686_">
			<g>
				<path style="fill:#844F58;" d="M158.1,89.8c0-0.1,0-0.2,0.1-0.3C157.9,89.9,157.9,90,158.1,89.8c-0.3,0.3-0.3,0.4-0.1,0.2
					c0.2-0.2,0.1-0.1-0.2,0.1c0.1,0,0.2-0.1,0.2-0.1c-0.4,0.2-0.5,0.2-0.2,0.1c0.3-0.1,0.2,0-0.3,0c0.3,0,0.2,0-0.3,0
					c1.3,0.2,2.8-0.4,3.1-1.7c0.3-1.2-0.4-2.8-1.7-3.1c-1.2-0.2-2.3-0.1-3.3,0.5c-1,0.6-1.7,1.6-2,2.7c-0.3,1.3,0.4,2.8,1.7,3.1
					C156.2,91.8,157.8,91.1,158.1,89.8L158.1,89.8z"/>
			</g>
		</g>
		<g id="XMLID_580_">
			<g>
				<path style="fill:#844F58;" d="M180.1,109.9c0.2-0.2,0.2-0.2-0.1,0.1c0.1-0.1,0.2-0.1,0.3-0.2c0,0,0.1-0.1,0.1-0.1
					c0.2-0.1,0.2-0.1-0.1,0c0.1,0,0.4-0.1,0.5-0.1c0.3-0.1,0.2,0-0.2,0c0.1,0,0.2,0,0.3,0c1.3,0,2.6-1.1,2.5-2.5
					c-0.1-1.3-1.1-2.5-2.5-2.5c-1.7,0-3.2,0.7-4.4,1.8c-1,0.9-1,2.7,0,3.5C177.6,110.8,179,110.8,180.1,109.9L180.1,109.9z"/>
			</g>
		</g>
		<g id="XMLID_587_">
			<g>
				<path style="fill:#844F58;" d="M209.1,113.2c0.7,0.7,1.4,1.4,2.1,2.1c0.9,0.9,2.6,1,3.5,0c0.9-1,1-2.5,0-3.5
					c-0.7-0.7-1.4-1.4-2.1-2.1c-0.9-0.9-2.6-1-3.5,0C208.2,110.7,208.1,112.2,209.1,113.2L209.1,113.2z"/>
			</g>
		</g>
		<g id="XMLID_594_">
			<g>
				<path style="fill:#844F58;" d="M221.7,122.9c0.9,1.5,2.4,2.3,4.2,2.4c1.3,0.1,2.6-1.2,2.5-2.5c-0.1-1.4-1.1-2.4-2.5-2.5
					c-0.6,0,0.6,0.1,0.1,0c-0.2-0.1-0.2-0.1,0,0c0.2,0.1,0.2,0.1,0,0c-0.4-0.2,0.4,0.4,0,0c-0.3-0.3,0.3,0.5,0,0
					c-0.7-1.1-2.3-1.6-3.4-0.9C221.5,120.2,220.9,121.7,221.7,122.9L221.7,122.9z"/>
			</g>
		</g>
		<g id="XMLID_601_">
			<g>
				<path style="fill:#844F58;" d="M224.6,112.1c3.2,0,3.2-5,0-5C221.4,107.1,221.3,112.1,224.6,112.1L224.6,112.1z"/>
			</g>
		</g>
		<g id="XMLID_608_">
			<g>
				<path style="fill:#844F58;" d="M200,106.2c1.4-0.1,2.8-0.3,4.2-0.4c1.3-0.1,2.5-1.1,2.5-2.5c0-1.3-1.1-2.6-2.5-2.5
					c-1.4,0.1-2.8,0.3-4.2,0.4c-1.3,0.1-2.5,1.1-2.5,2.5C197.5,104.9,198.6,106.3,200,106.2L200,106.2z"/>
			</g>
		</g>
		<g id="XMLID_615_">
			<g>
				<path style="fill:#844F58;" d="M233.6,147.8c1.3,0.9,3,1.1,4.6,0.8c1.3-0.3,2.1-1.8,1.7-3.1c-0.4-1.3-1.7-2.1-3.1-1.7
					c-0.3,0.1-0.2,0.1,0.2,0c-0.1,0-0.2,0-0.3,0c-0.5,0,0.5,0.1,0,0c-0.1,0-0.2,0-0.2-0.1c-0.2-0.1-0.1,0,0.2,0.1
					c0,0-0.5-0.3-0.6-0.3c-1.1-0.8-2.8-0.2-3.4,0.9C232,145.7,232.4,147,233.6,147.8L233.6,147.8z"/>
			</g>
		</g>
		<g id="XMLID_622_">
			<g>
				<path style="fill:#844F58;" d="M229.1,169.5c0.7,0,1.4,0,2.1,0c1.3,0,2.6-1.2,2.5-2.5c-0.1-1.4-1.1-2.5-2.5-2.5
					c-0.7,0-1.4,0-2.1,0c-1.3,0-2.6,1.2-2.5,2.5C226.7,168.4,227.7,169.5,229.1,169.5L229.1,169.5z"/>
			</g>
		</g>
		<g id="XMLID_629_">
			<g>
				<path style="fill:#844F58;" d="M237.8,132.4c0.9,0,1.8,0,2.6,0.1c1.3,0,2.6-1.2,2.5-2.5c-0.1-1.4-1.1-2.5-2.5-2.5
					c-0.9,0-1.8,0-2.6-0.1c-1.3,0-2.6,1.2-2.5,2.5C235.4,131.3,236.4,132.4,237.8,132.4L237.8,132.4z"/>
			</g>
		</g>
		<path id="XMLID_560_" style="fill:#FFE087;" d="M131.2,123.4c0,0-14.9,13.3-9,53.2c0,0,12.9,34.7,64.6,30c0,0,27.9-2.6,31.7-29.3
			c0,0,3.9-60.4-34.5-59.1C183.9,118.2,150.5,105.4,131.2,123.4z"/>
	</g>
</g>
</svg>
