<?xml version="1.0" encoding="utf-8"?>
<!-- Generator: Adobe Illustrator 22.1.0, SVG Export Plug-In . SVG Version: 6.00 Build 0)  -->
<svg version="1.1" id="Layer_1" xmlns="http://www.w3.org/2000/svg" xmlns:xlink="http://www.w3.org/1999/xlink" x="0px" y="0px"
	 viewBox="0 0 256 256" style="enable-background:new 0 0 256 256;" xml:space="preserve">
<g>
	<g>
		<path id="XMLID_32_" style="fill:#FFFFFF;" d="M87.5,148.5c-5.6,10.2-10.7,1.7-15.5-2.3c-2-1.7-2.4-4.4-1.1-6.6
			c2.9-4.8,5.5-8.3,13-2.4C88.3,140.1,91.2,143.5,87.5,148.5z"/>
		<path id="XMLID_31_" style="fill:#FFFFFF;" d="M94.5,137.5c-5.6,10.2-10.7,1.7-15.5-2.3c-2-1.7-2.4-4.4-1.1-6.6
			c2.9-4.8,5.5-8.3,13-2.4C95.3,129.1,98.2,132.5,94.5,137.5z"/>
		<path id="XMLID_30_" style="fill:#FFFFFF;" d="M100.5,126.5c-5.6,10.2-10.7,1.7-15.5-2.3c-2-1.7-2.4-4.4-1.1-6.6
			c2.9-4.8,5.5-8.3,13-2.4C101.3,118.1,104.2,121.5,100.5,126.5z"/>
		<path id="XMLID_17_" style="fill:#FFFFFF;" d="M106.5,116.5c-5.6,10.2-10.7,1.7-15.5-2.3c-2-1.7-2.4-4.4-1.1-6.6
			c2.9-4.8,5.5-8.3,13-2.4C107.3,108.1,110.2,111.5,106.5,116.5z"/>
		<path id="XMLID_16_" style="fill:#FFFFFF;" d="M114.7,108.9c-5.6,10.2-10.7,1.7-15.5-2.3c-2-1.7-2.4-4.4-1.1-6.6
			c2.9-4.8,5.5-8.3,13-2.4C115.5,100.5,118.3,103.9,114.7,108.9z"/>
		<path id="XMLID_15_" style="fill:#FFFFFF;" d="M120.5,99.1c-5.6,10.2-10.7,1.7-15.5-2.3c-2-1.7-2.4-4.4-1.1-6.6
			c2.9-4.8,5.5-8.3,13-2.4C121.3,90.7,124.2,94.1,120.5,99.1z"/>
		<path id="XMLID_2297_" style="fill:#FFFFFF;" d="M128.7,90.5c-5.6,10.2-10.7,1.7-15.5-2.3c-2-1.7-2.4-4.4-1.1-6.6
			c2.9-4.8,5.5-8.3,13-2.4C129.5,82.1,132.4,85.4,128.7,90.5z"/>
		<path id="XMLID_2296_" style="fill:#FFFFFF;" d="M135.1,82.1c-3.7,7.5-10,1.4-13.8-1.8c-1.2-1-1.9-2.3-1.9-3.8
			c-0.1-5,2.3-10.5,12.5-5.7c0.3,0.1,0.6,0.3,0.9,0.5c3.6,2.5,5.9,5.5,2.7,10.1C135.3,81.6,135.2,81.8,135.1,82.1z"/>
		<path id="XMLID_19_" style="fill:#FFFFFF;" d="M137.9,79.5c-1.9,0.5-3.7,0.4-5.4-0.1c-8.9-2.5-8.8-13.2,0-11.8c0.1,0,0.2,0,0.3,0
			c1.7,0.3,3.4,1,4.8,2.1c2.6,2.1,4.2,4.2,3.9,6.5C141.2,77.9,139.8,79,137.9,79.5z"/>
		<path id="XMLID_18_" style="fill:#FFFFFF;" d="M141.4,71.9c-1.9,0.5-3.7,0.4-5.4-0.1c-8.9-2.5-8.8-13.2,0-11.8c0.1,0,0.2,0,0.3,0
			c1.7,0.3,3.4,1,4.8,2.1c2.6,2.1,4.2,4.2,3.9,6.5C144.7,70.3,143.3,71.4,141.4,71.9z"/>
		<path id="XMLID_2294_" style="fill:#FFFFFF;" d="M147.3,65.4c-1.9,0.5-3.7,0.4-5.4-0.1c-8.9-2.5-8.8-13.2,0-11.8
			c0.1,0,0.2,0,0.3,0c1.7,0.3,3.4,1,4.8,2.1c2.6,2.1,4.2,4.2,3.9,6.5C150.5,63.8,149.1,64.9,147.3,65.4z"/>
		<path id="XMLID_2293_" style="fill:#FFFFFF;" d="M155.7,56.4c-3.4,4.6-6.8,3.2-10.4,0.7c-3.6-2.4-6.5-4.4-2.3-9.2
			c3.5-4,6.7-2.7,10.1-0.4C156.5,49.8,158.7,52.4,155.7,56.4z"/>
		<path id="XMLID_2292_" style="fill:#FFFFFF;" d="M160.6,50.1c-2.9,3.9-6.1,2.5-9.5,0.2c-3.4-2.3-6.2-4.2-2.5-8.3
			c3-3.4,6.1-2.1,9.3,0C161.1,44.2,163.2,46.6,160.6,50.1z"/>
		<path id="XMLID_2304_" style="fill:#FFFFFF;" d="M167.2,45c-3.1,4.2-6.4,2.7-10,0.3c-3.7-2.5-6.6-4.5-2.8-8.9
			c3.2-3.7,6.4-2.3,9.9,0C167.6,38.7,169.9,41.3,167.2,45z"/>
		<path id="XMLID_29_" style="fill:#FFFFFF;" d="M135.2,180.1c-4.1,6.9-8.7,5-13.8,1.6c-5.1-3.4-9.3-6.1-4-13.4
			c4.3-6,8.7-4.2,13.5-1C135.6,170.3,138.8,174,135.2,180.1z"/>
		<path id="XMLID_28_" style="fill:#FFFFFF;" d="M141.2,172.1c-4.1,6.9-8.7,5-13.8,1.6c-5.1-3.4-9.3-6.1-4-13.4
			c4.3-6,8.7-4.2,13.5-1C141.6,162.3,144.8,166,141.2,172.1z"/>
		<path id="XMLID_27_" style="fill:#FFFFFF;" d="M149.2,162.1c-4.1,6.9-8.7,5-13.8,1.6c-5.1-3.4-9.3-6.1-4-13.4
			c4.3-6,8.7-4.2,13.5-1C149.6,152.3,152.8,156,149.2,162.1z"/>
		<path id="XMLID_26_" style="fill:#FFFFFF;" d="M156.2,153.1c-4.1,6.9-8.7,5-13.8,1.6c-5.1-3.4-9.3-6.1-4-13.4
			c4.3-6,8.7-4.2,13.5-1C156.6,143.3,159.8,147,156.2,153.1z"/>
		<path id="XMLID_25_" style="fill:#FFFFFF;" d="M163.2,144.1c-4.1,6.9-8.7,5-13.8,1.6c-5.1-3.4-9.3-6.1-4-13.4
			c4.3-6,8.7-4.2,13.5-1C163.6,134.3,166.8,138,163.2,144.1z"/>
		<path id="XMLID_2286_" style="fill:#FFFFFF;" d="M170.2,133.1c-4.1,6.9-8.7,5-13.8,1.6c-5.1-3.4-9.3-6.1-4-13.4
			c4.3-6,8.7-4.2,13.5-1C170.6,123.3,173.8,127,170.2,133.1z"/>
		<path id="XMLID_2285_" style="fill:#FFFFFF;" d="M176.9,121.8c-3.6,6.2-7.9,4.3-12.7,1.1c-4.8-3.2-8.7-5.8-4-12.3
			c3.8-5.3,8-3.6,12.4-0.7C177.1,113,180.1,116.4,176.9,121.8z"/>
		<path id="XMLID_2284_" style="fill:#FFFFFF;" d="M182.6,112.5c-3.6,6-7.5,4.4-11.8,1.5c-4.3-2.9-7.8-5.2-3.3-11.6
			c3.7-5.2,7.5-3.7,11.5-1C183.1,104,185.7,107.2,182.6,112.5z"/>
		<path id="XMLID_2283_" style="fill:#FFFFFF;" d="M188.6,102.3c-3.3,5.6-7,4-11,1.3c-4.1-2.7-7.4-4.9-3.2-10.8
			c3.5-4.8,7-3.4,10.8-0.9C189,94.4,191.5,97.4,188.6,102.3z"/>
		<path id="XMLID_2282_" style="fill:#FFFFFF;" d="M195.1,93.8c-2.8,4.8-6.2,3.3-10,0.7c-3.8-2.6-6.9-4.6-3.4-9.7
			c2.9-4.2,6.3-2.8,9.8-0.4C195.1,86.8,197.5,89.6,195.1,93.8z"/>
		<path id="XMLID_2281_" style="fill:#FFFFFF;" d="M200.1,85.2c-2.9,4.9-6.2,3.6-9.8,1.1c-3.6-2.4-6.6-4.4-2.9-9.6
			c3-4.3,6.2-3,9.6-0.8C200.4,78.2,202.6,80.9,200.1,85.2z"/>
		<path id="XMLID_2280_" style="fill:#FFFFFF;" d="M204.3,78.4c-2.5,4.2-5.6,2.9-9,0.6c-3.4-2.3-6.2-4.2-3.1-8.7
			c2.6-3.7,5.6-2.5,8.8-0.3C204.3,72.2,206.5,74.7,204.3,78.4z"/>
		<path id="XMLID_2308_" style="fill:#FFFFFF;" d="M209,70.4c-2.7,4.5-5.9,3-9.6,0.6c-3.7-2.5-6.6-4.5-3.3-9.2c2.8-4,6-2.6,9.4-0.3
			C209.1,63.8,211.4,66.5,209,70.4z"/>
		<path id="XMLID_24_" style="fill:#FFFFFF;" d="M122.9,172.1c-3.7,6.1-8.1,4.2-12.9,1c-4.8-3.2-8.7-5.8-3.9-12.2
			c3.9-5.3,8.1-3.6,12.6-0.6C123.2,163.3,126.1,166.7,122.9,172.1z"/>
		<path id="XMLID_23_" style="fill:#FFFFFF;" d="M130.9,162.1c-3.7,6.1-8.1,4.2-12.9,1c-4.8-3.2-8.7-5.8-3.9-12.2
			c3.9-5.3,8.1-3.6,12.6-0.6C131.2,153.3,134.1,156.7,130.9,162.1z"/>
		<path id="XMLID_10_" style="fill:#FFFFFF;" d="M137.9,153.1c-3.7,6.1-8.1,4.2-12.9,1c-4.8-3.2-8.7-5.8-3.9-12.2
			c3.9-5.3,8.1-3.6,12.6-0.6C138.2,144.3,141.1,147.7,137.9,153.1z"/>
		<path id="XMLID_9_" style="fill:#FFFFFF;" d="M146,144.4c-3.7,6.1-8.1,4.2-12.9,1c-4.8-3.2-8.7-5.8-3.9-12.2
			c3.9-5.3,8.1-3.6,12.6-0.6C146.3,135.6,149.3,139.1,146,144.4z"/>
		<path id="XMLID_8_" style="fill:#FFFFFF;" d="M153,134.6c-3.7,6.1-8.1,4.2-12.9,1c-4.8-3.2-8.7-5.8-3.9-12.2
			c3.9-5.3,8.1-3.6,12.6-0.6C153.3,125.9,156.3,129.3,153,134.6z"/>
		<path id="XMLID_7_" style="fill:#FFFFFF;" d="M160,124.9c-3.7,6.1-8.1,4.2-12.9,1c-4.8-3.2-8.7-5.8-3.9-12.2
			c3.9-5.3,8.1-3.6,12.6-0.6C160.3,116.1,163.3,119.5,160,124.9z"/>
		<path id="XMLID_2261_" style="fill:#FFFFFF;" d="M168.2,116.2c-3.7,6.1-8.1,4.2-12.9,1c-4.8-3.2-8.7-5.8-3.9-12.2
			c3.9-5.3,8.1-3.6,12.6-0.6C168.5,107.4,171.5,110.8,168.2,116.2z"/>
		<path id="XMLID_2260_" style="fill:#FFFFFF;" d="M174.1,106.9c-3.7,5.9-7.6,4.3-11.9,1.4c-4.3-2.9-7.8-5.2-3.2-11.5
			c3.8-5.1,7.6-3.7,11.6-1C174.6,98.6,177.3,101.7,174.1,106.9z"/>
		<path id="XMLID_2259_" style="fill:#FFFFFF;" d="M180.3,96.9c-3.4,5.5-7.1,3.9-11.2,1.2c-4.1-2.7-7.4-4.9-3-10.7
			c3.6-4.8,7.1-3.4,10.9-0.8C180.7,89.1,183.2,92.1,180.3,96.9z"/>
		<path id="XMLID_2258_" style="fill:#FFFFFF;" d="M186.9,88.5c-2.9,4.7-6.3,3.2-10.1,0.6c-3.8-2.6-6.9-4.6-3.3-9.6
			c3-4.1,6.4-2.7,9.9-0.3C187.1,81.6,189.5,84.3,186.9,88.5z"/>
		<path id="XMLID_2257_" style="fill:#FFFFFF;" d="M192.1,80c-3,4.9-6.3,3.5-9.9,1.1c-3.6-2.4-6.6-4.4-2.8-9.6
			c3.1-4.2,6.3-3,9.7-0.7C192.5,73.1,194.7,75.7,192.1,80z"/>
		<path id="XMLID_2256_" style="fill:#FFFFFF;" d="M196.4,73.3c-2.6,4.2-5.6,2.8-9.1,0.5c-3.4-2.3-6.2-4.2-3-8.6
			c2.7-3.7,5.7-2.4,8.9-0.2C196.5,67.2,198.7,69.6,196.4,73.3z"/>
		<path id="XMLID_2307_" style="fill:#FFFFFF;" d="M201.3,65.4c-2.7,4.4-6,3-9.7,0.5c-3.7-2.5-6.6-4.5-3.2-9.2
			c2.9-3.9,6.1-2.6,9.5-0.2C201.4,58.9,203.8,61.5,201.3,65.4z"/>
		<path id="XMLID_2311_" style="fill:#FFFFFF;" d="M206,59.8c-2.7,4.4-6,3-9.7,0.5c-3.7-2.5-6.6-4.5-3.2-9.2
			c2.9-3.9,6.1-2.6,9.5-0.2C206.1,53.2,208.4,55.9,206,59.8z"/>
		<path id="XMLID_2313_" style="fill:#FFFFFF;" d="M206.3,49.5c-2.7,4.4-6,3-9.7,0.5c-3.7-2.5-6.6-4.5-3.2-9.2
			c2.9-3.9,6.1-2.6,9.5-0.2C206.4,42.9,208.7,45.5,206.3,49.5z"/>
		<path id="XMLID_22_" style="fill:#FFFFFF;" d="M95.3,156.3c-6.8,5.7-10.9,1.8-16-2.3c-1.9-1.5-2.3-4-1.1-6
			c3.3-5.4,5.6-10.1,13.9-3.6c4.2,2.8,7.1,6.1,4.1,10.9C95.9,155.7,95.6,156,95.3,156.3z"/>
		<path id="XMLID_21_" style="fill:#FFFFFF;" d="M104.3,147.3c-6.8,5.7-10.9,1.8-16-2.3c-1.9-1.5-2.3-4-1.1-6
			c3.3-5.4,5.6-10.1,13.9-3.6c4.2,2.8,7.1,6.1,4.1,10.9C104.9,146.7,104.6,147,104.3,147.3z"/>
		<path id="XMLID_14_" style="fill:#FFFFFF;" d="M111.8,136.8c-6.8,5.7-10.9,1.8-16-2.3c-1.9-1.5-2.3-4-1.1-6
			c3.3-5.4,5.6-10.1,13.9-3.6c4.2,2.8,7.1,6.1,4.1,10.9C112.4,136.2,112.1,136.5,111.8,136.8z"/>
		<path id="XMLID_13_" style="fill:#FFFFFF;" d="M116.5,126c-6.8,5.7-10.9,1.8-16-2.3c-1.9-1.5-2.3-4-1.1-6
			c3.3-5.4,5.6-10.1,13.9-3.6c4.2,2.8,7.1,6.1,4.1,10.9C117.1,125.3,116.8,125.7,116.5,126z"/>
		<path id="XMLID_12_" style="fill:#FFFFFF;" d="M124.6,117.3c-6.8,5.7-10.9,1.8-16-2.3c-1.9-1.5-2.3-4-1.1-6
			c3.3-5.4,5.6-10.1,13.9-3.6c4.2,2.8,7.1,6.1,4.1,10.9C125.3,116.7,125,117,124.6,117.3z"/>
		<path id="XMLID_11_" style="fill:#FFFFFF;" d="M130.5,107.5c-6.8,5.7-10.9,1.8-16-2.3c-1.9-1.5-2.3-4-1.1-6
			c3.3-5.4,5.6-10.1,13.9-3.6c4.2,2.8,7.1,6.1,4.1,10.9C131.1,106.9,130.8,107.2,130.5,107.5z"/>
		<path id="XMLID_2273_" style="fill:#FFFFFF;" d="M138.7,97.7c-6.8,5.7-10.9,1.8-16-2.3c-1.9-1.5-2.3-4-1.1-6
			c3.3-5.4,5.6-10.1,13.9-3.6c4.2,2.8,7.1,6.1,4.1,10.9C139.3,97.1,139,97.5,138.7,97.7z"/>
		<path id="XMLID_2272_" style="fill:#FFFFFF;" d="M145.6,88.4c-3.7,7.9-9.9,2-13.8-1.3c-1.4-1.2-2.2-2.8-2.1-4.6
			c0.1-4.8,2.7-9.6,12.4-5.1c0.3,0.2,0.7,0.4,1,0.6C146.8,80.6,149,83.7,145.6,88.4z"/>
		<path id="XMLID_2271_" style="fill:#FFFFFF;" d="M152.4,78.8c-3.4,7.9-9.6,2-13.5-1.3c-1.4-1.2-2.2-2.8-2.1-4.6
			c0.1-4.8,2.7-9.6,12.3-4.4c0.2,0.1,0.5,0.3,0.7,0.4C153.5,71.5,155.7,74.4,152.4,78.8z"/>
		<path id="XMLID_2270_" style="fill:#FFFFFF;" d="M159.7,70.8c-3.2,4.5-6.7,3-10.5,0.4c-3.8-2.6-6.9-4.6-2.9-9.4
			c3.3-3.9,6.7-2.5,10.3-0.1C160.2,64.1,162.5,66.8,159.7,70.8z"/>
		<path id="XMLID_2269_" style="fill:#FFFFFF;" d="M167.5,64.1c-3.3,4.7-7.1,2.9-11.3,0.1c-4.2-2.8-7.6-5.1-3.4-10
			c3.5-4,7.1-2.4,11.1,0.2C167.8,57.1,170.4,60,167.5,64.1z"/>
		<path id="XMLID_2268_" style="fill:#FFFFFF;" d="M170.6,55.8c-2.4,4.2-5.7,3.1-9.3,1.1c-3.7-2-6.6-3.6-3.5-8.1
			c2.6-3.7,5.7-2.7,9.1-0.9C170.4,49.8,172.7,52,170.6,55.8z"/>
		<path id="XMLID_2305_" style="fill:#FFFFFF;" d="M178.1,51.2c-3.4,4.8-7.2,3.1-11.4,0.3c-4.2-2.8-7.6-5.1-3.4-10.2
			c3.5-4.3,7.2-2.7,11.2,0C178.4,43.9,181,46.9,178.1,51.2z"/>
		<path id="XMLID_2309_" style="fill:#FFFFFF;" d="M179.2,42.4c-3,4.3-6.3,2.8-9.9,0.3c-3.7-2.5-6.6-4.5-2.9-9
			c3.1-3.8,6.3-2.4,9.8-0.1C179.6,36,181.8,38.6,179.2,42.4z"/>
		<path id="XMLID_2312_" style="fill:#FFFFFF;" d="M187.1,36c-3,4.3-6.3,2.8-9.9,0.3c-3.7-2.5-6.6-4.5-2.9-9
			c3.1-3.8,6.3-2.4,9.8-0.1C187.4,29.6,189.7,32.2,187.1,36z"/>
		<path id="XMLID_20_" style="fill:#FFFFFF;" d="M113,164.9c-4.3,6.1-9.7,3.7-15.7-0.2c-6-3.9-10.8-7-5.6-13.5
			c4.4-5.4,9.7-3.2,15.4,0.5C113,155.4,116.9,159.5,113,164.9z"/>
		<path id="XMLID_6_" style="fill:#FFFFFF;" d="M120,154.9c-4.3,6.1-9.7,3.7-15.7-0.2c-6-3.9-10.8-7-5.6-13.5
			c4.4-5.4,9.7-3.2,15.4,0.5C120,145.4,123.9,149.5,120,154.9z"/>
		<path id="XMLID_5_" style="fill:#FFFFFF;" d="M127,146.3c-4.3,6.1-9.7,3.7-15.7-0.2c-6-3.9-10.8-7-5.6-13.5
			c4.4-5.4,9.7-3.2,15.4,0.5C127,136.8,130.9,140.8,127,146.3z"/>
		<path id="XMLID_4_" style="fill:#FFFFFF;" d="M134,136.5c-4.3,6.1-9.7,3.7-15.7-0.2c-6-3.9-10.8-7-5.6-13.5
			c4.4-5.4,9.7-3.2,15.4,0.5C134,127,137.9,131.1,134,136.5z"/>
		<path id="XMLID_3_" style="fill:#FFFFFF;" d="M142.2,126.7c-4.3,6.1-9.7,3.7-15.7-0.2c-6-3.9-10.8-7-5.6-13.5
			c4.4-5.4,9.7-3.2,15.4,0.5C142.1,117.2,146,121.3,142.2,126.7z"/>
		<path id="XMLID_2_" style="fill:#FFFFFF;" d="M148,115.9c-4.3,6.1-9.7,3.7-15.7-0.2c-6-3.9-10.8-7-5.6-13.5
			c4.4-5.4,9.7-3.2,15.4,0.5S151.9,110.4,148,115.9z"/>
		<path id="XMLID_1_" style="fill:#FFFFFF;" d="M157.4,107.2c-4.3,6.1-9.7,3.7-15.7-0.2c-6-3.9-10.8-7-5.6-13.5
			c4.4-5.4,9.7-3.2,15.4,0.5S161.2,101.7,157.4,107.2z"/>
		<path id="XMLID_2247_" style="fill:#FFFFFF;" d="M165.6,96.3c-4.3,6.1-9.7,3.7-15.7-0.2c-6-3.9-10.8-7-5.6-13.5
			c4.4-5.4,9.7-3.2,15.4,0.5S169.4,90.9,165.6,96.3z"/>
		<path id="XMLID_2241_" style="fill:#FFFFFF;" d="M174.5,87c-3.8,5.4-8.9,3-14.7-0.7c-5.8-3.7-10.4-6.8-5.7-12.5
			c3.9-4.8,9-2.6,14.5,1S177.8,82.1,174.5,87z"/>
		<path id="XMLID_2235_" style="fill:#FFFFFF;" d="M181.4,77c-4,5.8-9,3.5-14.5,0c-5.5-3.6-10-6.5-5-12.7c4.2-5.2,9-3.1,14.3,0.3
			C181.4,68,185,71.8,181.4,77z"/>
		<path id="XMLID_2223_" style="fill:#FFFFFF;" d="M187.2,67.2c-3.1,4.5-7.8,2.2-13.1-1.3c-5.3-3.5-9.6-6.3-5.8-11
			c3.3-4,7.8-1.8,12.9,1.5C186.3,59.8,189.9,63.2,187.2,67.2z"/>
		<path id="XMLID_2306_" style="fill:#FFFFFF;" d="M191.6,57.1c-3.4,4.8-7.5,2.9-12.2-0.2c-4.7-3-8.5-5.5-4.4-10.6
			c3.4-4.3,7.6-2.6,12.1,0.4C191.6,49.6,194.6,52.8,191.6,57.1z"/>
		<path id="XMLID_2310_" style="fill:#FFFFFF;" d="M198.2,50.3c-3.3,4.7-7.8,2.5-12.9-0.8c-5.1-3.3-9.3-6-5.3-11
			c3.4-4.2,7.8-2.2,12.8,1S201.2,46.1,198.2,50.3z"/>
		<path id="XMLID_2314_" style="fill:#FFFFFF;" d="M202.1,41.1c-2.7,4-6.9,1.9-11.7-1.2s-8.6-5.6-5.2-9.8c2.9-3.6,7-1.6,11.6,1.3
			C201.3,34.5,204.6,37.6,202.1,41.1z"/>
	</g>
	<g style="opacity:0.25;">
		<path id="XMLID_103_" style="fill:#FFFFFF;stroke:#000000;stroke-width:0.5;stroke-miterlimit:10;" d="M87.5,148.5
			c-5.6,10.2-10.7,1.7-15.5-2.3c-2-1.7-2.4-4.4-1.1-6.6c2.9-4.8,5.5-8.3,13-2.4C88.3,140.1,91.2,143.5,87.5,148.5z"/>
		<path id="XMLID_102_" style="fill:#FFFFFF;stroke:#000000;stroke-width:0.5;stroke-miterlimit:10;" d="M94.5,137.5
			c-5.6,10.2-10.7,1.7-15.5-2.3c-2-1.7-2.4-4.4-1.1-6.6c2.9-4.8,5.5-8.3,13-2.4C95.3,129.1,98.2,132.5,94.5,137.5z"/>
		<path id="XMLID_101_" style="fill:#FFFFFF;stroke:#000000;stroke-width:0.5;stroke-miterlimit:10;" d="M100.5,126.5
			c-5.6,10.2-10.7,1.7-15.5-2.3c-2-1.7-2.4-4.4-1.1-6.6c2.9-4.8,5.5-8.3,13-2.4C101.3,118.1,104.2,121.5,100.5,126.5z"/>
		<path id="XMLID_100_" style="fill:#FFFFFF;stroke:#000000;stroke-width:0.5;stroke-miterlimit:10;" d="M106.5,116.5
			c-5.6,10.2-10.7,1.7-15.5-2.3c-2-1.7-2.4-4.4-1.1-6.6c2.9-4.8,5.5-8.3,13-2.4C107.3,108.1,110.2,111.5,106.5,116.5z"/>
		<path id="XMLID_99_" style="fill:#FFFFFF;stroke:#000000;stroke-width:0.5;stroke-miterlimit:10;" d="M114.7,108.9
			c-5.6,10.2-10.7,1.7-15.5-2.3c-2-1.7-2.4-4.4-1.1-6.6c2.9-4.8,5.5-8.3,13-2.4C115.5,100.5,118.3,103.9,114.7,108.9z"/>
		<path id="XMLID_98_" style="fill:#FFFFFF;stroke:#000000;stroke-width:0.5;stroke-miterlimit:10;" d="M120.5,99.1
			c-5.6,10.2-10.7,1.7-15.5-2.3c-2-1.7-2.4-4.4-1.1-6.6c2.9-4.8,5.5-8.3,13-2.4C121.3,90.7,124.2,94.1,120.5,99.1z"/>
		<path id="XMLID_97_" style="fill:#FFFFFF;stroke:#000000;stroke-width:0.5;stroke-miterlimit:10;" d="M128.7,90.5
			c-5.6,10.2-10.7,1.7-15.5-2.3c-2-1.7-2.4-4.4-1.1-6.6c2.9-4.8,5.5-8.3,13-2.4C129.5,82.1,132.4,85.4,128.7,90.5z"/>
		<path id="XMLID_96_" style="fill:#FFFFFF;stroke:#000000;stroke-width:0.5;stroke-miterlimit:10;" d="M135.1,82.1
			c-3.7,7.5-10,1.4-13.8-1.8c-1.2-1-1.9-2.3-1.9-3.8c-0.1-5,2.3-10.5,12.5-5.7c0.3,0.1,0.6,0.3,0.9,0.5c3.6,2.5,5.9,5.5,2.7,10.1
			C135.3,81.6,135.2,81.8,135.1,82.1z"/>
		<path id="XMLID_95_" style="fill:#FFFFFF;stroke:#000000;stroke-width:0.5;stroke-miterlimit:10;" d="M137.9,79.5
			c-1.9,0.5-3.7,0.4-5.4-0.1c-8.9-2.5-8.8-13.2,0-11.8c0.1,0,0.2,0,0.3,0c1.7,0.3,3.4,1,4.8,2.1c2.6,2.1,4.2,4.2,3.9,6.5
			C141.2,77.9,139.8,79,137.9,79.5z"/>
		<path id="XMLID_94_" style="fill:#FFFFFF;stroke:#000000;stroke-width:0.5;stroke-miterlimit:10;" d="M141.4,71.9
			c-1.9,0.5-3.7,0.4-5.4-0.1c-8.9-2.5-8.8-13.2,0-11.8c0.1,0,0.2,0,0.3,0c1.7,0.3,3.4,1,4.8,2.1c2.6,2.1,4.2,4.2,3.9,6.5
			C144.7,70.3,143.3,71.4,141.4,71.9z"/>
		<path id="XMLID_93_" style="fill:#FFFFFF;stroke:#000000;stroke-width:0.5;stroke-miterlimit:10;" d="M147.3,65.4
			c-1.9,0.5-3.7,0.4-5.4-0.1c-8.9-2.5-8.8-13.2,0-11.8c0.1,0,0.2,0,0.3,0c1.7,0.3,3.4,1,4.8,2.1c2.6,2.1,4.2,4.2,3.9,6.5
			C150.5,63.8,149.1,64.9,147.3,65.4z"/>
		<path id="XMLID_92_" style="fill:#FFFFFF;stroke:#000000;stroke-width:0.5;stroke-miterlimit:10;" d="M155.7,56.4
			c-3.4,4.6-6.8,3.2-10.4,0.7c-3.6-2.4-6.5-4.4-2.3-9.2c3.5-4,6.7-2.7,10.1-0.4C156.5,49.8,158.7,52.4,155.7,56.4z"/>
		<path id="XMLID_91_" style="fill:#FFFFFF;stroke:#000000;stroke-width:0.5;stroke-miterlimit:10;" d="M160.6,50.1
			c-2.9,3.9-6.1,2.5-9.5,0.2c-3.4-2.3-6.2-4.2-2.5-8.3c3-3.4,6.1-2.1,9.3,0C161.1,44.2,163.2,46.6,160.6,50.1z"/>
		<path id="XMLID_90_" style="fill:#FFFFFF;stroke:#000000;stroke-width:0.5;stroke-miterlimit:10;" d="M167.2,45
			c-3.1,4.2-6.4,2.7-10,0.3c-3.7-2.5-6.6-4.5-2.8-8.9c3.2-3.7,6.4-2.3,9.9,0C167.6,38.7,169.9,41.3,167.2,45z"/>
		<path id="XMLID_89_" style="fill:#FFFFFF;stroke:#000000;stroke-width:0.5;stroke-miterlimit:10;" d="M135.2,180.1
			c-4.1,6.9-8.7,5-13.8,1.6c-5.1-3.4-9.3-6.1-4-13.4c4.3-6,8.7-4.2,13.5-1C135.6,170.3,138.8,174,135.2,180.1z"/>
		<path id="XMLID_88_" style="fill:#FFFFFF;stroke:#000000;stroke-width:0.5;stroke-miterlimit:10;" d="M141.2,172.1
			c-4.1,6.9-8.7,5-13.8,1.6c-5.1-3.4-9.3-6.1-4-13.4c4.3-6,8.7-4.2,13.5-1C141.6,162.3,144.8,166,141.2,172.1z"/>
		<path id="XMLID_87_" style="fill:#FFFFFF;stroke:#000000;stroke-width:0.5;stroke-miterlimit:10;" d="M149.2,162.1
			c-4.1,6.9-8.7,5-13.8,1.6c-5.1-3.4-9.3-6.1-4-13.4c4.3-6,8.7-4.2,13.5-1C149.6,152.3,152.8,156,149.2,162.1z"/>
		<path id="XMLID_86_" style="fill:#FFFFFF;stroke:#000000;stroke-width:0.5;stroke-miterlimit:10;" d="M156.2,153.1
			c-4.1,6.9-8.7,5-13.8,1.6c-5.1-3.4-9.3-6.1-4-13.4c4.3-6,8.7-4.2,13.5-1C156.6,143.3,159.8,147,156.2,153.1z"/>
		<path id="XMLID_85_" style="fill:#FFFFFF;stroke:#000000;stroke-width:0.5;stroke-miterlimit:10;" d="M163.2,144.1
			c-4.1,6.9-8.7,5-13.8,1.6c-5.1-3.4-9.3-6.1-4-13.4c4.3-6,8.7-4.2,13.5-1C163.6,134.3,166.8,138,163.2,144.1z"/>
		<path id="XMLID_84_" style="fill:#FFFFFF;stroke:#000000;stroke-width:0.5;stroke-miterlimit:10;" d="M170.2,133.1
			c-4.1,6.9-8.7,5-13.8,1.6c-5.1-3.4-9.3-6.1-4-13.4c4.3-6,8.7-4.2,13.5-1C170.6,123.3,173.8,127,170.2,133.1z"/>
		<path id="XMLID_83_" style="fill:#FFFFFF;stroke:#000000;stroke-width:0.5;stroke-miterlimit:10;" d="M176.9,121.8
			c-3.6,6.2-7.9,4.3-12.7,1.1c-4.8-3.2-8.7-5.8-4-12.3c3.8-5.3,8-3.6,12.4-0.7C177.1,113,180.1,116.4,176.9,121.8z"/>
		<path id="XMLID_82_" style="fill:#FFFFFF;stroke:#000000;stroke-width:0.5;stroke-miterlimit:10;" d="M182.6,112.5
			c-3.6,6-7.5,4.4-11.8,1.5c-4.3-2.9-7.8-5.2-3.3-11.6c3.7-5.2,7.5-3.7,11.5-1C183.1,104,185.7,107.2,182.6,112.5z"/>
		<path id="XMLID_81_" style="fill:#FFFFFF;stroke:#000000;stroke-width:0.5;stroke-miterlimit:10;" d="M188.6,102.3
			c-3.3,5.6-7,4-11,1.3c-4.1-2.7-7.4-4.9-3.2-10.8c3.5-4.8,7-3.4,10.8-0.9C189,94.4,191.5,97.4,188.6,102.3z"/>
		<path id="XMLID_80_" style="fill:#FFFFFF;stroke:#000000;stroke-width:0.5;stroke-miterlimit:10;" d="M195.1,93.8
			c-2.8,4.8-6.2,3.3-10,0.7c-3.8-2.6-6.9-4.6-3.4-9.7c2.9-4.2,6.3-2.8,9.8-0.4C195.1,86.8,197.5,89.6,195.1,93.8z"/>
		<path id="XMLID_79_" style="fill:#FFFFFF;stroke:#000000;stroke-width:0.5;stroke-miterlimit:10;" d="M200.1,85.2
			c-2.9,4.9-6.2,3.6-9.8,1.1c-3.6-2.4-6.6-4.4-2.9-9.6c3-4.3,6.2-3,9.6-0.8C200.4,78.2,202.6,80.9,200.1,85.2z"/>
		<path id="XMLID_78_" style="fill:#FFFFFF;stroke:#000000;stroke-width:0.5;stroke-miterlimit:10;" d="M204.3,78.4
			c-2.5,4.2-5.6,2.9-9,0.6c-3.4-2.3-6.2-4.2-3.1-8.7c2.6-3.7,5.6-2.5,8.8-0.3C204.3,72.2,206.5,74.7,204.3,78.4z"/>
		<path id="XMLID_77_" style="fill:#FFFFFF;stroke:#000000;stroke-width:0.5;stroke-miterlimit:10;" d="M209,70.4
			c-2.7,4.5-5.9,3-9.6,0.6c-3.7-2.5-6.6-4.5-3.3-9.2c2.8-4,6-2.6,9.4-0.3C209.1,63.8,211.4,66.5,209,70.4z"/>
		<path id="XMLID_76_" style="fill:#FFFFFF;stroke:#000000;stroke-width:0.5;stroke-miterlimit:10;" d="M122.9,172.1
			c-3.7,6.1-8.1,4.2-12.9,1c-4.8-3.2-8.7-5.8-3.9-12.2c3.9-5.3,8.1-3.6,12.6-0.6C123.2,163.3,126.1,166.7,122.9,172.1z"/>
		<path id="XMLID_75_" style="fill:#FFFFFF;stroke:#000000;stroke-width:0.5;stroke-miterlimit:10;" d="M130.9,162.1
			c-3.7,6.1-8.1,4.2-12.9,1c-4.8-3.2-8.7-5.8-3.9-12.2c3.9-5.3,8.1-3.6,12.6-0.6C131.2,153.3,134.1,156.7,130.9,162.1z"/>
		<path id="XMLID_74_" style="fill:#FFFFFF;stroke:#000000;stroke-width:0.5;stroke-miterlimit:10;" d="M137.9,153.1
			c-3.7,6.1-8.1,4.2-12.9,1c-4.8-3.2-8.7-5.8-3.9-12.2c3.9-5.3,8.1-3.6,12.6-0.6C138.2,144.3,141.1,147.7,137.9,153.1z"/>
		<path id="XMLID_73_" style="fill:#FFFFFF;stroke:#000000;stroke-width:0.5;stroke-miterlimit:10;" d="M146,144.4
			c-3.7,6.1-8.1,4.2-12.9,1c-4.8-3.2-8.7-5.8-3.9-12.2c3.9-5.3,8.1-3.6,12.6-0.6C146.3,135.6,149.3,139.1,146,144.4z"/>
		<path id="XMLID_72_" style="fill:#FFFFFF;stroke:#000000;stroke-width:0.5;stroke-miterlimit:10;" d="M153,134.6
			c-3.7,6.1-8.1,4.2-12.9,1c-4.8-3.2-8.7-5.8-3.9-12.2c3.9-5.3,8.1-3.6,12.6-0.6C153.3,125.9,156.3,129.3,153,134.6z"/>
		<path id="XMLID_71_" style="fill:#FFFFFF;stroke:#000000;stroke-width:0.5;stroke-miterlimit:10;" d="M160,124.9
			c-3.7,6.1-8.1,4.2-12.9,1c-4.8-3.2-8.7-5.8-3.9-12.2c3.9-5.3,8.1-3.6,12.6-0.6C160.3,116.1,163.3,119.5,160,124.9z"/>
		<path id="XMLID_70_" style="fill:#FFFFFF;stroke:#000000;stroke-width:0.5;stroke-miterlimit:10;" d="M168.2,116.2
			c-3.7,6.1-8.1,4.2-12.9,1c-4.8-3.2-8.7-5.8-3.9-12.2c3.9-5.3,8.1-3.6,12.6-0.6C168.5,107.4,171.5,110.8,168.2,116.2z"/>
		<path id="XMLID_69_" style="fill:#FFFFFF;stroke:#000000;stroke-width:0.5;stroke-miterlimit:10;" d="M174.1,106.9
			c-3.7,5.9-7.6,4.3-11.9,1.4c-4.3-2.9-7.8-5.2-3.2-11.5c3.8-5.1,7.6-3.7,11.6-1C174.6,98.6,177.3,101.7,174.1,106.9z"/>
		<path id="XMLID_68_" style="fill:#FFFFFF;stroke:#000000;stroke-width:0.5;stroke-miterlimit:10;" d="M180.3,96.9
			c-3.4,5.5-7.1,3.9-11.2,1.2c-4.1-2.7-7.4-4.9-3-10.7c3.6-4.8,7.1-3.4,10.9-0.8C180.7,89.1,183.2,92.1,180.3,96.9z"/>
		<path id="XMLID_67_" style="fill:#FFFFFF;stroke:#000000;stroke-width:0.5;stroke-miterlimit:10;" d="M186.9,88.5
			c-2.9,4.7-6.3,3.2-10.1,0.6c-3.8-2.6-6.9-4.6-3.3-9.6c3-4.1,6.4-2.7,9.9-0.3C187.1,81.6,189.5,84.3,186.9,88.5z"/>
		<path id="XMLID_66_" style="fill:#FFFFFF;stroke:#000000;stroke-width:0.5;stroke-miterlimit:10;" d="M192.1,80
			c-3,4.9-6.3,3.5-9.9,1.1c-3.6-2.4-6.6-4.4-2.8-9.6c3.1-4.2,6.3-3,9.7-0.7C192.5,73.1,194.7,75.7,192.1,80z"/>
		<path id="XMLID_65_" style="fill:#FFFFFF;stroke:#000000;stroke-width:0.5;stroke-miterlimit:10;" d="M196.4,73.3
			c-2.6,4.2-5.6,2.8-9.1,0.5c-3.4-2.3-6.2-4.2-3-8.6c2.7-3.7,5.7-2.4,8.9-0.2C196.5,67.2,198.7,69.6,196.4,73.3z"/>
		<path id="XMLID_64_" style="fill:#FFFFFF;stroke:#000000;stroke-width:0.5;stroke-miterlimit:10;" d="M201.3,65.4
			c-2.7,4.4-6,3-9.7,0.5c-3.7-2.5-6.6-4.5-3.2-9.2c2.9-3.9,6.1-2.6,9.5-0.2C201.4,58.9,203.8,61.5,201.3,65.4z"/>
		<path id="XMLID_63_" style="fill:#FFFFFF;stroke:#000000;stroke-width:0.5;stroke-miterlimit:10;" d="M206,59.8
			c-2.7,4.4-6,3-9.7,0.5c-3.7-2.5-6.6-4.5-3.2-9.2c2.9-3.9,6.1-2.6,9.5-0.2C206.1,53.2,208.4,55.9,206,59.8z"/>
		<path id="XMLID_62_" style="fill:#FFFFFF;stroke:#000000;stroke-width:0.5;stroke-miterlimit:10;" d="M206.3,49.5
			c-2.7,4.4-6,3-9.7,0.5c-3.7-2.5-6.6-4.5-3.2-9.2c2.9-3.9,6.1-2.6,9.5-0.2C206.4,42.9,208.7,45.5,206.3,49.5z"/>
		<path id="XMLID_61_" style="fill:#FFFFFF;stroke:#000000;stroke-width:0.5;stroke-miterlimit:10;" d="M95.3,156.3
			c-6.8,5.7-10.9,1.8-16-2.3c-1.9-1.5-2.3-4-1.1-6c3.3-5.4,5.6-10.1,13.9-3.6c4.2,2.8,7.1,6.1,4.1,10.9
			C95.9,155.7,95.6,156,95.3,156.3z"/>
		<path id="XMLID_60_" style="fill:#FFFFFF;stroke:#000000;stroke-width:0.5;stroke-miterlimit:10;" d="M104.3,147.3
			c-6.8,5.7-10.9,1.8-16-2.3c-1.9-1.5-2.3-4-1.1-6c3.3-5.4,5.6-10.1,13.9-3.6c4.2,2.8,7.1,6.1,4.1,10.9
			C104.9,146.7,104.6,147,104.3,147.3z"/>
		<path id="XMLID_59_" style="fill:#FFFFFF;stroke:#000000;stroke-width:0.5;stroke-miterlimit:10;" d="M111.8,136.8
			c-6.8,5.7-10.9,1.8-16-2.3c-1.9-1.5-2.3-4-1.1-6c3.3-5.4,5.6-10.1,13.9-3.6c4.2,2.8,7.1,6.1,4.1,10.9
			C112.4,136.2,112.1,136.5,111.8,136.8z"/>
		<path id="XMLID_58_" style="fill:#FFFFFF;stroke:#000000;stroke-width:0.5;stroke-miterlimit:10;" d="M116.5,126
			c-6.8,5.7-10.9,1.8-16-2.3c-1.9-1.5-2.3-4-1.1-6c3.3-5.4,5.6-10.1,13.9-3.6c4.2,2.8,7.1,6.1,4.1,10.9
			C117.1,125.3,116.8,125.7,116.5,126z"/>
		<path id="XMLID_57_" style="fill:#FFFFFF;stroke:#000000;stroke-width:0.5;stroke-miterlimit:10;" d="M124.6,117.3
			c-6.8,5.7-10.9,1.8-16-2.3c-1.9-1.5-2.3-4-1.1-6c3.3-5.4,5.6-10.1,13.9-3.6c4.2,2.8,7.1,6.1,4.1,10.9
			C125.3,116.7,125,117,124.6,117.3z"/>
		<path id="XMLID_56_" style="fill:#FFFFFF;stroke:#000000;stroke-width:0.5;stroke-miterlimit:10;" d="M130.5,107.5
			c-6.8,5.7-10.9,1.8-16-2.3c-1.9-1.5-2.3-4-1.1-6c3.3-5.4,5.6-10.1,13.9-3.6c4.2,2.8,7.1,6.1,4.1,10.9
			C131.1,106.9,130.8,107.2,130.5,107.5z"/>
		<path id="XMLID_55_" style="fill:#FFFFFF;stroke:#000000;stroke-width:0.5;stroke-miterlimit:10;" d="M138.7,97.7
			c-6.8,5.7-10.9,1.8-16-2.3c-1.9-1.5-2.3-4-1.1-6c3.3-5.4,5.6-10.1,13.9-3.6c4.2,2.8,7.1,6.1,4.1,10.9
			C139.3,97.1,139,97.5,138.7,97.7z"/>
		<path id="XMLID_54_" style="fill:#FFFFFF;stroke:#000000;stroke-width:0.5;stroke-miterlimit:10;" d="M145.6,88.4
			c-3.7,7.9-9.9,2-13.8-1.3c-1.4-1.2-2.2-2.8-2.1-4.6c0.1-4.8,2.7-9.6,12.4-5.1c0.3,0.2,0.7,0.4,1,0.6
			C146.8,80.6,149,83.7,145.6,88.4z"/>
		<path id="XMLID_53_" style="fill:#FFFFFF;stroke:#000000;stroke-width:0.5;stroke-miterlimit:10;" d="M152.4,78.8
			c-3.4,7.9-9.6,2-13.5-1.3c-1.4-1.2-2.2-2.8-2.1-4.6c0.1-4.8,2.7-9.6,12.3-4.4c0.2,0.1,0.5,0.3,0.7,0.4
			C153.5,71.5,155.7,74.4,152.4,78.8z"/>
		<path id="XMLID_52_" style="fill:#FFFFFF;stroke:#000000;stroke-width:0.5;stroke-miterlimit:10;" d="M159.7,70.8
			c-3.2,4.5-6.7,3-10.5,0.4c-3.8-2.6-6.9-4.6-2.9-9.4c3.3-3.9,6.7-2.5,10.3-0.1C160.2,64.1,162.5,66.8,159.7,70.8z"/>
		<path id="XMLID_51_" style="fill:#FFFFFF;stroke:#000000;stroke-width:0.5;stroke-miterlimit:10;" d="M167.5,64.1
			c-3.3,4.7-7.1,2.9-11.3,0.1c-4.2-2.8-7.6-5.1-3.4-10c3.5-4,7.1-2.4,11.1,0.2C167.8,57.1,170.4,60,167.5,64.1z"/>
		<path id="XMLID_50_" style="fill:#FFFFFF;stroke:#000000;stroke-width:0.5;stroke-miterlimit:10;" d="M170.6,55.8
			c-2.4,4.2-5.7,3.1-9.3,1.1c-3.7-2-6.6-3.6-3.5-8.1c2.6-3.7,5.7-2.7,9.1-0.9C170.4,49.8,172.7,52,170.6,55.8z"/>
		<path id="XMLID_49_" style="fill:#FFFFFF;stroke:#000000;stroke-width:0.5;stroke-miterlimit:10;" d="M178.1,51.2
			c-3.4,4.8-7.2,3.1-11.4,0.3c-4.2-2.8-7.6-5.1-3.4-10.2c3.5-4.3,7.2-2.7,11.2,0C178.4,43.9,181,46.9,178.1,51.2z"/>
		<path id="XMLID_48_" style="fill:#FFFFFF;stroke:#000000;stroke-width:0.5;stroke-miterlimit:10;" d="M179.2,42.4
			c-3,4.3-6.3,2.8-9.9,0.3c-3.7-2.5-6.6-4.5-2.9-9c3.1-3.8,6.3-2.4,9.8-0.1C179.6,36,181.8,38.6,179.2,42.4z"/>
		<path id="XMLID_47_" style="fill:#FFFFFF;stroke:#000000;stroke-width:0.5;stroke-miterlimit:10;" d="M187.1,36
			c-3,4.3-6.3,2.8-9.9,0.3c-3.7-2.5-6.6-4.5-2.9-9c3.1-3.8,6.3-2.4,9.8-0.1C187.4,29.6,189.7,32.2,187.1,36z"/>
		<path id="XMLID_46_" style="fill:#FFFFFF;stroke:#000000;stroke-width:0.5;stroke-miterlimit:10;" d="M113,164.9
			c-4.3,6.1-9.7,3.7-15.7-0.2c-6-3.9-10.8-7-5.6-13.5c4.4-5.4,9.7-3.2,15.4,0.5C113,155.4,116.9,159.5,113,164.9z"/>
		<path id="XMLID_45_" style="fill:#FFFFFF;stroke:#000000;stroke-width:0.5;stroke-miterlimit:10;" d="M120,154.9
			c-4.3,6.1-9.7,3.7-15.7-0.2c-6-3.9-10.8-7-5.6-13.5c4.4-5.4,9.7-3.2,15.4,0.5C120,145.4,123.9,149.5,120,154.9z"/>
		<path id="XMLID_44_" style="fill:#FFFFFF;stroke:#000000;stroke-width:0.5;stroke-miterlimit:10;" d="M127,146.3
			c-4.3,6.1-9.7,3.7-15.7-0.2c-6-3.9-10.8-7-5.6-13.5c4.4-5.4,9.7-3.2,15.4,0.5C127,136.8,130.9,140.8,127,146.3z"/>
		<path id="XMLID_43_" style="fill:#FFFFFF;stroke:#000000;stroke-width:0.5;stroke-miterlimit:10;" d="M134,136.5
			c-4.3,6.1-9.7,3.7-15.7-0.2c-6-3.9-10.8-7-5.6-13.5c4.4-5.4,9.7-3.2,15.4,0.5C134,127,137.9,131.1,134,136.5z"/>
		<path id="XMLID_42_" style="fill:#FFFFFF;stroke:#000000;stroke-width:0.5;stroke-miterlimit:10;" d="M142.2,126.7
			c-4.3,6.1-9.7,3.7-15.7-0.2c-6-3.9-10.8-7-5.6-13.5c4.4-5.4,9.7-3.2,15.4,0.5C142.1,117.2,146,121.3,142.2,126.7z"/>
		<path id="XMLID_41_" style="fill:#FFFFFF;stroke:#000000;stroke-width:0.5;stroke-miterlimit:10;" d="M148,115.9
			c-4.3,6.1-9.7,3.7-15.7-0.2c-6-3.9-10.8-7-5.6-13.5c4.4-5.4,9.7-3.2,15.4,0.5S151.9,110.4,148,115.9z"/>
		<path id="XMLID_40_" style="fill:#FFFFFF;stroke:#000000;stroke-width:0.5;stroke-miterlimit:10;" d="M157.4,107.2
			c-4.3,6.1-9.7,3.7-15.7-0.2c-6-3.9-10.8-7-5.6-13.5c4.4-5.4,9.7-3.2,15.4,0.5S161.2,101.7,157.4,107.2z"/>
		<path id="XMLID_39_" style="fill:#FFFFFF;stroke:#000000;stroke-width:0.5;stroke-miterlimit:10;" d="M165.6,96.3
			c-4.3,6.1-9.7,3.7-15.7-0.2c-6-3.9-10.8-7-5.6-13.5c4.4-5.4,9.7-3.2,15.4,0.5S169.4,90.9,165.6,96.3z"/>
		<path id="XMLID_38_" style="fill:#FFFFFF;stroke:#000000;stroke-width:0.5;stroke-miterlimit:10;" d="M174.5,87
			c-3.8,5.4-8.9,3-14.7-0.7c-5.8-3.7-10.4-6.8-5.7-12.5c3.9-4.8,9-2.6,14.5,1S177.8,82.1,174.5,87z"/>
		<path id="XMLID_37_" style="fill:#FFFFFF;stroke:#000000;stroke-width:0.5;stroke-miterlimit:10;" d="M181.4,77
			c-4,5.8-9,3.5-14.5,0c-5.5-3.6-10-6.5-5-12.7c4.2-5.2,9-3.1,14.3,0.3C181.4,68,185,71.8,181.4,77z"/>
		<path id="XMLID_36_" style="fill:#FFFFFF;stroke:#000000;stroke-width:0.5;stroke-miterlimit:10;" d="M187.2,67.2
			c-3.1,4.5-7.8,2.2-13.1-1.3c-5.3-3.5-9.6-6.3-5.8-11c3.3-4,7.8-1.8,12.9,1.5C186.3,59.8,189.9,63.2,187.2,67.2z"/>
		<path id="XMLID_35_" style="fill:#FFFFFF;stroke:#000000;stroke-width:0.5;stroke-miterlimit:10;" d="M191.6,57.1
			c-3.4,4.8-7.5,2.9-12.2-0.2c-4.7-3-8.5-5.5-4.4-10.6c3.4-4.3,7.6-2.6,12.1,0.4C191.6,49.6,194.6,52.8,191.6,57.1z"/>
		<path id="XMLID_34_" style="fill:#FFFFFF;stroke:#000000;stroke-width:0.5;stroke-miterlimit:10;" d="M198.2,50.3
			c-3.3,4.7-7.8,2.5-12.9-0.8c-5.1-3.3-9.3-6-5.3-11c3.4-4.2,7.8-2.2,12.8,1S201.2,46.1,198.2,50.3z"/>
		<path id="XMLID_33_" style="fill:#FFFFFF;stroke:#000000;stroke-width:0.5;stroke-miterlimit:10;" d="M202.1,41.1
			c-2.7,4-6.9,1.9-11.7-1.2s-8.6-5.6-5.2-9.8c2.9-3.6,7-1.6,11.6,1.3C201.3,34.5,204.6,37.6,202.1,41.1z"/>
	</g>
</g>
<g style="opacity:0;">
	<path style="fill:#39A248;" d="M189.2,101.2c-0.2,0.3-0.3,0.7-0.6,1.1c-1.6,2.7-3.3,3.7-5.1,3.7c0.7,1.8,0.6,3.8-0.9,6.4
		c-1.4,2.4-2.9,3.6-4.5,4c0.3,1.6,0,3.4-1.2,5.4c-1.7,2.9-3.6,4-5.6,4.1c0.8,2,0.6,4.3-1.1,7.2c7-3.1,14.2-6.6,21.9-10.6
		c12-19.7,21-32.4,21-32.4C205.9,92.1,197.3,96.3,189.2,101.2z"/>
	<g>
		<path style="fill:#39A248;" d="M144.4,65.7c0,0.1,0.1,0.1,0.1,0.2C144.5,65.8,144.5,65.8,144.4,65.7
			C144.4,65.7,144.4,65.7,144.4,65.7z"/>
		<path style="fill:#39A248;" d="M150.3,59.4C150.3,59.4,150.3,59.4,150.3,59.4c0.1,0,0.2,0,0.2,0C150.5,59.4,150.4,59.4,150.3,59.4
			z"/>
		<path style="fill:#39A248;" d="M153.9,73.9c0.1-0.1,0.1-0.1,0.2-0.2c0,0,0.1-0.1,0.1-0.1c0,0,0,0,0,0c-0.1,0-0.2,0-0.4-0.1
			C153.8,73.7,153.9,73.8,153.9,73.9z"/>
		<path style="fill:#39A248;" d="M152.1,79.5c0.1,0,0.2,0,0.3,0.1c0-0.1-0.1-0.3-0.1-0.4C152.2,79.3,152.2,79.4,152.1,79.5z"/>
		<path style="fill:#39A248;" d="M151,59.4C151,59.4,151.1,59.4,151,59.4C151.1,59.4,151.1,59.4,151,59.4
			C151.1,59.4,151,59.4,151,59.4z"/>
		<path style="fill:#39A248;" d="M97.4,102.2c0.1-0.8,0.3-1.5,0.7-2.2c1.6-2.6,3.1-4.9,5.4-5.4c-0.5-1.4-0.4-3,0.4-4.4
			c2-3.4,3.9-6.1,7.5-5.3c-0.2-1.1,0.1-2.3,0.7-3.3c2-3.3,3.8-6,7.3-5.4c0-4,1.7-8,7.6-7c0.7-0.8,1.8-1.4,3.3-1.6
			c-2.1-3.8-0.3-8.2,5.4-7.6c-1.2-3.4,0.6-7,5.6-6.5c-0.7-1.4-0.3-3.1,1.8-5.5c1.3-1.5,2.6-2.2,3.8-2.5c0-1,0.5-2.1,1.7-3.4
			c1.3-1.5,2.6-2.1,3.9-2.1c0.1-1,0.6-2.2,1.8-3.6c0.1-0.1,0.2-0.2,0.3-0.3c-0.7-7.2-1.8-14.2-3.3-20.9
			c-16.9,31.4-38.2,59.7-57.7,87.9C94.6,102.2,95.8,101.9,97.4,102.2z"/>
	</g>
	<path id="XMLID_2316_" style="fill:#70BF5C;" d="M206.6,114.4c-13.2,7.7-25.4,13.8-36.6,18.8c-54.6,14.1-137.7,50.1-113.7,113
		c11.1-4.6,21.6-8.4,32-12.8c34.7-15,60.7-36,84.4-64c7.6-9.3,14.7-19.1,21.6-29.3C198.8,132.1,202.9,123.6,206.6,114.4z"/>
	<path id="XMLID_2315_" style="fill:#70BF5C;" d="M114,60.9c-17.5,48.4-10.6,100.3-22.2,149.6c-2.7,17.2-27.7,43.6-41.4,34.7
		c-52.4-38.8,3-126,42-165.3C98.9,73.5,106,67.1,114,60.9z"/>
</g>
</svg>
