<?xml version="1.0" encoding="utf-8"?>
<!-- Generator: Adobe Illustrator 22.1.0, SVG Export Plug-In . SVG Version: 6.00 Build 0)  -->
<svg version="1.1" id="Layer_1" xmlns="http://www.w3.org/2000/svg" xmlns:xlink="http://www.w3.org/1999/xlink" x="0px" y="0px"
	 viewBox="0 0 256 256" style="enable-background:new 0 0 256 256;" xml:space="preserve">
<g style="opacity:0;">
	<g>
		<path style="fill:#EFEFEF;" d="M74.1,209.1c-28.5,9.6-22.3,17.3-30.4,27.3c-8.1,10-13.9,7.7-13.9,7.7s10.4,5.4,19.3-10
			s14.3-15.8,26.6-18.2c19.3-3.8,7.3-20.3,26.6-11.1c18.7,9,42.2-5,53.7-23.1c-2.8-4.3-7.5-9.3-14.9-14.8
			c-22.9-17.1-45.7-2.9-59-13.3c-7-5.5-15.5-5.2-22-3.7C51,190.3,98.4,200.8,74.1,209.1z"/>
	</g>
	<path style="fill:#FFFFFF;" d="M126.8,120.9c0,0-39.3-27.6-60.1,11.2c-3.8,7-6,13.4-7.1,19.1c0.1-0.4,0.2-0.9,0.3-1.3
		c6.5-1.5,15.1-1.7,22,3.7c13.3,10.5,36.2-3.8,59,13.3c7.4,5.5,12.1,10.5,14.9,14.8c-0.1,0.1-0.2,0.2-0.2,0.4
		c0.4-0.6,0.8-1.3,1.2-1.9C168,161.3,168.4,132.8,126.8,120.9z"/>
</g>
<g>
	<path style="fill:#74A140;" d="M218,59.2c-8.2-12.9,1.3-11.1-7.3-20.1c-8.6-9-36,3.3-27.3,16.6c8.7,13.3-16.1,8.5-11,20.3
		c5.1,11.7-7.5,7.6-5,16.4c2.5,8.8-5.6,15.3-19.3,17.3c-12.2,1.7-18,10-19.2,11.9c0.8,0.2,1.5,0.5,2.3,0.7
		c12.1-12.5,30.7-13.3,34-10.9c6.1,4.3,12.3-3.3,12.3-3.3c2.6-3.8,8.9-7.4,19.4-8.9c10.5-1.5,6-14.1,7.7-19.1S226.2,72.1,218,59.2z"
		/>
	<path style="fill:#74A140;" d="M114.4,37.3c15.7,2.6-4.6,17.6,7.4,21.8c12.1,4.2,0.5,10.7,8.7,14.8c8.2,4.1,7.4,14.5-0.4,25.9
		c-5.6,8.2-5.3,16.3-4.6,20.2c0.8,0.5,1.3,0.9,1.3,0.9c0.4,0.1,0.8,0.2,1.2,0.4c-1.2-17.6,10.9-32,15-32.8
		c7.3-1.6,5.9-11.3,5.9-11.3c-1-4.5,0.5-11.6,6.5-20.3c6-8.7-6.3-14-8.9-18.6c-2.6-4.6,8.9-21.3-6.2-24c-15-2.7-7.3-8.5-19.8-8.2
		C108.2,6.3,98.7,34.8,114.4,37.3z"/>
</g>
</svg>
