<?xml version="1.0" encoding="utf-8"?>
<!-- Generator: Adobe Illustrator 22.1.0, SVG Export Plug-In . SVG Version: 6.00 Build 0)  -->
<svg version="1.1" id="Layer_1" xmlns="http://www.w3.org/2000/svg" xmlns:xlink="http://www.w3.org/1999/xlink" x="0px" y="0px"
	 viewBox="0 0 256 256" style="enable-background:new 0 0 256 256;" xml:space="preserve">
<g>
	<path style="fill:#F3EDDA;" d="M89.8,233.8c17.1-10.9,23.3-58.9,23.3-58.9c-1.6-14-39.5-70.4-49.6-80.6c-8.4-22.1-7.8-31-7.8-31
		C47.9,79,51,91.2,51,91.2h-7.8c-24.5,55.5,6.2,130.2,20.2,144.2L89.8,233.8z"/>
	<path style="fill:#F3EDDA;" d="M55.7,63.3c0,0,10.7-19,20.2-20.2c8.1,0,6.2,17.1,6.2,17.1s11.1,0,15.8,20.2
		c2.4,6.5,3.3,10.1,5.2,10.6c3.3,0.2,6.9-5.9,6.9-5.9s7.8,48.1,4.7,62c0,0-9.3-54.3-51.2-74.4C63.4,72.6,59.9,65.6,55.7,63.3z"/>
	<path style="fill:#F3EDDA;" d="M204.3,153.9c0,0-4.9,2.7-7.2,1.2c-1.2-1.1-0.6-3.9,0.1-9.2c4-15.5-4.1-20-4.1-20s7.8-10.7,1.8-14
		c-7.3-3-22.3,5.5-22.3,5.5c-11.6,7.4-13.8,17-13.8,17l-5.7-3.1c-38.6,27.6-44,90.4-38.9,105.5l19.9,9.6c16.5-0.4,39-30.4,39-30.4
		c5.3-6,9.1-12.2,11.7-18.4C192.3,188.9,204.3,153.9,204.3,153.9z"/>
</g>
<g style="opacity:0;">
	<g>
		<path style="fill:#F7DE27;" d="M34,128.4c0,0-4.7-45,6.2-76l7.8,3.1c0,0,0-31,26.4-48.1c0,0,9.5,2.7,8.9,15.5
			c0,0,11.8-3,14.2,12.6s5.7,12.3,7.9,10.2c2.2-2.1,11.3,16.4,10.9,29.4s2.9,41.5-1.2,54.7c0,0-1.1-16.5-2.9-29.1S110,85,110,85
			s-5.8,9.3-8.4,4.7c-2.7-4.6-6.8-20.1-8.4-21c-1.6-0.9-3.1-7.4-11.1-8.4c0,0,1.6-14.3-4.5-16.7S59.4,56.3,55.7,63.6
			C52,71,49.1,81,51,91.2h-7.8C38.3,102.8,35.4,115.3,34,128.4z"/>
		<path style="fill:#F7DE27;" d="M113.1,174.9c0,0-12.3-28.1-26.5-48.6s-23.1-32-23.1-32c-0.7,0.1-8.5-25.5-7.8-31
			c0,0,4.7,2.6,7.8,9.3c0,0,13.7,7,20.6,14.7c6.9,7.7,16.6,19,21,29.6c4.5,10.8,7.4,17.2,9.6,30.2
			C114.6,147,115.3,170.7,113.1,174.9z"/>
		<path style="fill:#F3EDDA;" d="M63.3,74.9V92C63.3,92,65.9,84.6,63.3,74.9z"/>
		<path style="fill:#F3EDDA;" d="M67.8,78v17.1C67.8,95.1,70.4,87.7,67.8,78z"/>
		<path style="fill:#F3EDDA;" d="M73,80.9v23C73,103.9,75.6,93.9,73,80.9z"/>
		<path style="fill:#F3EDDA;" d="M77.5,84.6v24.9C77.5,109.6,80.1,98.8,77.5,84.6z"/>
		<path style="fill:#F3EDDA;" d="M82.2,88.6V115C82.2,115,84.8,103.6,82.2,88.6z"/>
		<path style="fill:#F3EDDA;" d="M87.2,95.1v26.4C87.2,121.4,89.8,110.1,87.2,95.1z"/>
		<path style="fill:#F3EDDA;" d="M97.5,108.9v26.4C97.5,135.2,100.1,123.9,97.5,108.9z"/>
		<path style="fill:#F3EDDA;" d="M103.4,119.1v26.4C103.4,145.5,105.9,134.1,103.4,119.1z"/>
		<path style="fill:#F3EDDA;" d="M108.2,130.5l-0.9,24.7C107.3,155.1,110.3,144.6,108.2,130.5z"/>
		<path style="fill:#F3EDDA;" d="M113,142l-2.5,23.1C110.6,165.1,113.5,155.4,113,142z"/>
		<path style="fill:#F3EDDA;" d="M92.4,103.2v26.4C92.4,129.6,95,118.2,92.4,103.2z"/>
		<path style="fill:#F3EDDA;" d="M75.1,17.6L80,13C80,13,75.8,14.3,75.1,17.6z"/>
		<path style="fill:#F3EDDA;" d="M75.5,24.7l5.9-6.2C81.5,18.5,77,20,75.5,24.7z"/>
		<path style="fill:#F3EDDA;" d="M75.5,35l6.7-11.2C82.2,23.8,74.9,28.2,75.5,35z"/>
		<path style="fill:#F3EDDA;" d="M78.9,41.7c0,0,7.3-13,11.9-15.3C90.8,26.4,79.6,30.8,78.9,41.7z"/>
		<path style="fill:#F3EDDA;" d="M82.6,47.7l11.6-15.5C94.3,32.2,82.7,41.3,82.6,47.7z"/>
		<path style="fill:#F3EDDA;" d="M84.2,57.3c0,0.2,9.8-13.9,12-15.3C96.2,42,82.8,50.9,84.2,57.3z"/>
		<path style="fill:#F3EDDA;" d="M89.5,60.9L100.1,49C100.1,49,89.2,55.9,89.5,60.9z"/>
		<path style="fill:#F3EDDA;" d="M95.5,68.6l11.9-17c-5.2,5.1-9.8,10.3-13.2,15.8L95.5,68.6z"/>
		<polygon style="fill:#F3EDDA;" points="110.9,60.5 97.9,75.1 99.3,76.7 		"/>
		<polygon style="fill:#F3EDDA;" points="113.4,70.9 102,84.2 103.4,85.3 		"/>
		<path style="fill:#F3EDDA;" d="M112,88.6l2.7-4C114.7,84.6,111.7,86.2,112,88.6z"/>
		<path style="fill:#F3EDDA;" d="M113.4,100.8l2.4-2.6C115.8,98.1,113.9,98.5,113.4,100.8z"/>
		<path style="fill:#F3EDDA;" d="M114.7,111.9l1.1-1.3C115.8,110.6,114.7,110.7,114.7,111.9z"/>
		<path style="fill:#F3EDDA;" d="M74.6,20.8c0,0-6.2-5.1-9.5-3.6C65.1,17.2,73,21.2,74.6,20.8z"/>
		<path style="fill:#F3EDDA;" d="M73.6,26.4c0,0-10.7-4-10.9-5.6S72.3,23.5,73.6,26.4z"/>
		<path style="fill:#F3EDDA;" d="M74.1,33c0,0-11.9-7.4-15-6.6C59.1,26.4,65.9,21.2,74.1,33z"/>
		<path style="fill:#F3EDDA;" d="M73.6,41c0.3,0.3-16-6.2-19.3-6.1C51,35.1,63,31.2,73.6,41z"/>
		<path style="fill:#F3EDDA;" d="M53.4,41.7c0,0,11.9,4.2,12.8,5.5C66.2,47.2,59,39.4,53.4,41.7z"/>
		<path style="fill:#F3EDDA;" d="M50.7,48.7c-0.5,0.1,9.2,4.8,9.2,4.8S55.7,48.1,50.7,48.7z"/>
		<path style="fill:#F3EDDA;" d="M50.3,57.3l5.3,3C55.6,60.2,53.3,56.5,50.3,57.3z"/>
		<path style="fill:#F3EDDA;" d="M50.6,68.9l-12.3-4.5C38.3,64.4,46.5,63.6,50.6,68.9z"/>
		<path style="fill:#F3EDDA;" d="M47.9,76.6c0,0-7.5-3.6-10.4-3.9C37.5,72.8,44.6,71.6,47.9,76.6z"/>
		<path style="fill:#F3EDDA;" d="M47.6,88.3L36.3,83C36.3,83,44.4,82.7,47.6,88.3z"/>
		<path style="fill:#F3EDDA;" d="M39.8,94.7L35.5,93C35.5,93,38.5,92.5,39.8,94.7z"/>
		<path style="fill:#F3EDDA;" d="M37.3,102.7l-2.9-1.5C34.4,101.2,36.1,100.7,37.3,102.7z"/>
	</g>
	<g>
		<path style="fill:#F7DE27;" d="M132.5,152.5c0,0,13.3-32.2,32.8-48.8l4.5,5.2c0,0,11.5-20.9,37.2-21.8c0,0,5.9,5.7,0.8,14.1
			c0,0,9.8,2.7,5.7,14.3s-0.4,10.6,2,10.1c2.4-0.5,2.2,15.6-2.9,24.2s-13.3,29.2-21.3,36.4c0,0,5.3-11.6,8.7-20.8
			c3.4-9.3,4.2-11.5,4.2-11.5s-7.7,4-7.9-0.2s2.5-16.3,1.7-17.6c-0.9-1.3,0.5-6.2-5-10.2c0,0,6.5-9,2.9-13.1
			c-3.6-4.1-18,1.3-23.5,4.8s-11.3,9.1-13.7,16.7l-5.7-3.1C145.2,137,138.5,144.2,132.5,152.5z"/>
		<path style="fill:#F3EDDA;" d="M203.9,94.3l5.3-1.2C209.2,93.1,205.7,92.3,203.9,94.3z"/>
		<path style="fill:#F3EDDA;" d="M201.5,99.3l6.7-1.8C208.2,97.5,204.4,96.7,201.5,99.3z"/>
		<path style="fill:#F3EDDA;" d="M197.7,106.2l9.1-4.8C206.8,101.3,199.8,101.4,197.7,106.2z"/>
		<path style="fill:#F3EDDA;" d="M197.7,112.1c0,0,10.2-5.8,14.4-5.5C212.1,106.6,202.3,105,197.7,112.1z"/>
		<path style="fill:#F3EDDA;" d="M198.2,117.7l14.3-5.8C212.5,111.9,200.6,113.4,198.2,117.7z"/>
		<path style="fill:#F3EDDA;" d="M195.8,124.8c0,0.2,12.4-5.4,14.5-5.5C210.3,119.3,197.1,119.9,195.8,124.8z"/>
		<path style="fill:#F3EDDA;" d="M198.4,129.3l12.1-3.8C210.5,125.5,200,125.8,198.4,129.3z"/>
		<path style="fill:#F3EDDA;" d="M199.8,137l15.1-6.7c-5.7,1.3-11,3-15.5,5.3L199.8,137z"/>
		<polygon style="fill:#F3EDDA;" points="214.1,137.7 199.2,142.3 199.6,144 		"/>
		<polygon style="fill:#F3EDDA;" points="212.1,145.7 198.8,150.1 199.4,151.4 		"/>
		<path style="fill:#F3EDDA;" d="M204.4,157.1l3.5-1.6C207.9,155.5,205.1,155.4,204.4,157.1z"/>
		<path style="fill:#F3EDDA;" d="M201,165.9l2.7-0.8C203.7,165.1,202.2,164.6,201,165.9z"/>
		<path style="fill:#F3EDDA;" d="M197.8,173.9l1.3-0.4C199.1,173.5,198.2,173.1,197.8,173.9z"/>
		<path style="fill:#F3EDDA;" d="M202.3,96.2c0,0-2.6-5.9-5.6-6.3C196.7,90,201.1,95.9,202.3,96.2z"/>
		<path style="fill:#F3EDDA;" d="M199.5,99.6c0,0-6.3-7-5.9-8.2S199.6,97.1,199.5,99.6z"/>
		<path style="fill:#F3EDDA;" d="M197.4,104.3c0,0-5.9-9.8-8.6-10.5C188.9,93.8,195.8,93,197.4,104.3z"/>
		<path style="fill:#F3EDDA;" d="M194.1,109.5c0.1,0.3-9.4-10.7-11.9-11.9C179.8,96.4,189.9,98.6,194.1,109.5z"/>
		<path style="fill:#F3EDDA;" d="M179,101.8c0,0,7.2,7.6,7.3,8.9C186.4,110.7,184,102.5,179,101.8z"/>
		<path style="fill:#F3EDDA;" d="M174.4,105.4c-0.4-0.2,4.9,6.9,4.9,6.9S178.4,107.1,174.4,105.4z"/>
		<path style="fill:#F3EDDA;" d="M171,111l2.8,4.1C173.8,115.2,173.4,111.7,171,111z"/>
		<path style="fill:#F3EDDA;" d="M166.9,119.1l-7.4-8C159.5,111,165.8,113.8,166.9,119.1z"/>
		<path style="fill:#F3EDDA;" d="M162,123.2c0,0-4.1-5.4-6.1-6.8C155.8,116.3,161.4,118.4,162,123.2z"/>
		<path style="fill:#F3EDDA;" d="M157.4,130.9l-6.2-8.1C151.1,122.8,157.2,125.8,157.4,130.9z"/>
		<path style="fill:#F3EDDA;" d="M149.4,132.1l-2.5-2.8C146.8,129.2,149.2,130.1,149.4,132.1z"/>
		<path style="fill:#F3EDDA;" d="M144.5,136.5l-1.6-2.2C142.9,134.3,144.4,134.7,144.5,136.5z"/>
	</g>
</g>
</svg>
