<?xml version="1.0" encoding="utf-8"?>
<!-- Generator: Adobe Illustrator 22.1.0, SVG Export Plug-In . SVG Version: 6.00 Build 0)  -->
<svg version="1.1" id="Layer_1" xmlns="http://www.w3.org/2000/svg" xmlns:xlink="http://www.w3.org/1999/xlink" x="0px" y="0px"
	 viewBox="0 0 256 256" style="enable-background:new 0 0 256 256;" xml:space="preserve">
<g>
	<path style="fill:#822C6B;" d="M114.7,118c0,0-25.2-5.5-40.2-27.5c0,0-48,10-65,51c0,0,21-6,35,13c0,0,32-6,38,17c0,0,31-15,47,17
		c16-32,45-17,45-17c9-22,38-17,38-17c12-21,36-13,36-13c-17-41-65-51-65-51c-15,22-40.2,27.5-40.2,27.5S129.8,132.6,114.7,118z"/>
	<path style="fill:#822C6B;" d="M117.5,120.5c0,0-2,39,11.7,62.5c0,0,12.3-18.5,12.3-63.5"/>
	<path style="fill:#822C6B;" d="M129,127.5L129,127.5c-9.7,0-17.5-7.8-17.5-17.5V92.5h35V110C146.5,119.7,138.7,127.5,129,127.5z"/>
	<polyline style="fill:#822C6B;" points="111.5,93.5 111.5,79.5 120.5,93.5 	"/>
	<polyline style="fill:#822C6B;" points="146.5,93.5 146.5,79.5 137.5,93.5 	"/>
	<g>
		<path style="fill:#822C6B;" d="M215,154.8c-0.2,1.3-1.2,2.2-2.5,2.2c-0.1,0-0.2,0-0.3,0c-1.4-0.2-2.3-1.4-2.2-2.8
			c2.8-22.5-13.9-45.4-22.8-56c1.7,14.8,3.3,46.9-10.5,74.4c-0.4,0.9-1.3,1.4-2.2,1.4c-0.4,0-0.8-0.1-1.1-0.3
			c-1.2-0.6-1.7-2.1-1.1-3.4c17.1-34.3,9.1-77.6,8.8-79.3c0-0.2-0.1-0.4-0.1-0.5c0-0.2,0-0.3,0-0.4c0-0.1,0.1-0.3,0.1-0.4
			c0-0.1,0.1-0.2,0.1-0.3c0,0,0.1-0.1,0.1-0.2c0.1-0.2,0.2-0.3,0.3-0.4c0.2-0.2,0.4-0.3,0.6-0.5c0.1,0,0.2-0.1,0.3-0.1
			c0.1,0,0.3-0.1,0.4-0.1c0.2,0,0.4-0.1,0.5-0.1c0.2,0,0.3,0,0.4,0c0.1,0,0.3,0.1,0.4,0.1c0.1,0,0.2,0.1,0.3,0.1
			c0.1,0,0.1,0.1,0.2,0.1c0.1,0.1,0.3,0.2,0.4,0.3c0,0,0.1,0.1,0.1,0.1C188,91.5,219,122.7,215,154.8z"/>
	</g>
	<g>
		<path style="fill:#822C6B;" d="M84,173.7c-0.4,0.2-0.7,0.3-1.1,0.3c-0.9,0-1.8-0.5-2.2-1.4C66.9,145.1,68.4,113,70.2,98.2
			c-9,10.5-25.6,33.5-22.8,56c0.2,1.4-0.8,2.6-2.2,2.8c-0.1,0-0.2,0-0.3,0c-1.2,0-2.3-0.9-2.5-2.2c-4-32.1,26.9-63.4,29.6-66
			c0.1-0.1,0.1-0.1,0.1-0.1c0.1-0.1,0.3-0.2,0.4-0.3c0.1,0,0.1-0.1,0.2-0.1c0.1,0,0.2-0.1,0.3-0.1c0.1,0,0.3-0.1,0.4-0.1
			c0.1,0,0.3,0,0.4,0c0.2,0,0.4,0,0.5,0.1c0.1,0,0.3,0.1,0.4,0.1c0.1,0,0.2,0.1,0.3,0.1c0.2,0.1,0.4,0.3,0.6,0.5
			c0.1,0.1,0.2,0.3,0.3,0.4c0,0,0.1,0.1,0.1,0.2c0,0.1,0.1,0.2,0.1,0.3c0,0.1,0.1,0.3,0.1,0.4c0,0.1,0,0.3,0,0.4
			c0,0.2,0,0.4-0.1,0.5c-0.3,1.8-8.3,45.1,8.8,79.3C85.7,171.6,85.2,173.1,84,173.7z"/>
	</g>
</g>
<g style="opacity:0.1;">
	<path style="opacity:0.1;" d="M146.5,92.5V110c0,4.8-1.9,9.1-5,12.3c-3.2,3.2-7.6,5.3-12.5,5.3c-4.4,0-8.5-1.7-11.6-4.4
		c-3.6-3.2-5.9-7.9-5.9-13.1V92.5H146.5z"/>
	<circle style="opacity:0.3;" cx="120" cy="103" r="3"/>
	<circle style="opacity:0.3;" cx="138" cy="103" r="3"/>
	<g style="opacity:0.1;">
		<path d="M215,154.8c-0.2,1.3-1.2,2.2-2.5,2.2c-0.1,0-0.2,0-0.3,0c-1.4-0.2-2.3-1.4-2.2-2.8c2.8-22.5-13.9-45.4-22.8-56
			c1.7,14.8,3.3,46.9-10.5,74.4c-0.4,0.9-1.3,1.4-2.2,1.4c-0.4,0-0.8-0.1-1.1-0.3c-1.2-0.6-1.7-2.1-1.1-3.4
			c17.1-34.3,9.1-77.6,8.8-79.3c0-0.2-0.1-0.4-0.1-0.5c0-0.2,0-0.3,0-0.4c0-0.1,0.1-0.3,0.1-0.4c0-0.1,0.1-0.2,0.1-0.3
			c0,0,0.1-0.1,0.1-0.2c0.1-0.2,0.2-0.3,0.3-0.4c0.2-0.2,0.4-0.3,0.6-0.5c0.1,0,0.2-0.1,0.3-0.1c0.1,0,0.3-0.1,0.4-0.1
			c0.2,0,0.4-0.1,0.5-0.1c0.2,0,0.3,0,0.4,0c0.1,0,0.3,0.1,0.4,0.1c0.1,0,0.2,0.1,0.3,0.1c0.1,0,0.1,0.1,0.2,0.1
			c0.1,0.1,0.3,0.2,0.4,0.3c0,0,0.1,0.1,0.1,0.1C188,91.5,219,122.7,215,154.8z"/>
	</g>
	<g style="opacity:0.1;">
		<path d="M84,173.7c-0.4,0.2-0.7,0.3-1.1,0.3c-0.9,0-1.8-0.5-2.2-1.4C66.9,145.1,68.4,113,70.2,98.2c-9,10.5-25.6,33.5-22.8,56
			c0.2,1.4-0.8,2.6-2.2,2.8c-0.1,0-0.2,0-0.3,0c-1.2,0-2.3-0.9-2.5-2.2c-4-32.1,26.9-63.4,29.6-66c0.1-0.1,0.1-0.1,0.1-0.1
			c0.1-0.1,0.3-0.2,0.4-0.3c0.1,0,0.1-0.1,0.2-0.1c0.1,0,0.2-0.1,0.3-0.1c0.1,0,0.3-0.1,0.4-0.1c0.1,0,0.3,0,0.4,0
			c0.2,0,0.4,0,0.5,0.1c0.1,0,0.3,0.1,0.4,0.1c0.1,0,0.2,0.1,0.3,0.1c0.2,0.1,0.4,0.3,0.6,0.5c0.1,0.1,0.2,0.3,0.3,0.4
			c0,0,0.1,0.1,0.1,0.2c0,0.1,0.1,0.2,0.1,0.3c0,0.1,0.1,0.3,0.1,0.4c0,0.1,0,0.3,0,0.4c0,0.2,0,0.4-0.1,0.5
			c-0.3,1.8-8.3,45.1,8.8,79.3C85.7,171.6,85.2,173.1,84,173.7z"/>
	</g>
	<polygon style="opacity:0.3;" points="119.9,92.5 111.5,92.5 111.5,79.5 	"/>
	<polygon style="opacity:0.3;" points="146.5,79.5 146.5,92.5 138.1,92.5 	"/>
	<path style="opacity:0.3;" d="M141.5,122.3c-0.5,43-12.3,60.8-12.3,60.8c-11.6-19.8-11.9-50.8-11.8-59.9c3.1,2.7,7.1,4.4,11.6,4.4
		C133.9,127.5,138.3,125.5,141.5,122.3z"/>
</g>
</svg>
