<?xml version="1.0" encoding="utf-8"?>
<!-- Generator: Adobe Illustrator 22.1.0, SVG Export Plug-In . SVG Version: 6.00 Build 0)  -->
<svg version="1.1" id="Layer_1" xmlns="http://www.w3.org/2000/svg" xmlns:xlink="http://www.w3.org/1999/xlink" x="0px" y="0px"
	 viewBox="0 0 256 256" style="enable-background:new 0 0 256 256;" xml:space="preserve">
<g>
	<path style="fill:#BF713A;" d="M174.8,145.2c-4.6,10.5-13.8,29.9-19.5,31.1c0,0-17.5,0.5-27-4.3c-1.4-0.7-2.6-1.5-3.6-2.5
		c0,0,1.8-1.4,4.4-2.5c2.1-0.9,4.7-1.6,7.3-1.4c0,0,1.6-11.7,4-22.2C153.1,146.5,167.1,145.9,174.8,145.2z"/>
	<path style="fill:#BF713A;" d="M89.7,127.6c-18.5,24.5-23.2,33.9-23.2,33.9c-2,18-10,22-10,22l-8-12c0,0-4-10-3-16
		c0.7-4,3.6-13.5,5.5-19.3c6.4-2.7,9.5-7.7,9.5-7.7c10,2,25-8,25-8C87.1,122.2,88.5,124.7,89.7,127.6z"/>
	<path style="fill:#BF713A;" d="M44.3,77.8c-3.3,1.6-6.4,2.9-8.8,3.7c-1.5,0.5-2.7,1.2-3.7,2c-1.8-2.8-2.3-6.7,3.7-10
		C41.5,70.2,43.7,73.8,44.3,77.8z"/>
	<path style="fill:#BF713A;" d="M233.5,184.5c0,0-16,8-32,4l8-7c0,0-13-26-29-37c0,0-2.2,0.3-5.7,0.7c-7.6,0.7-21.7,1.3-34.4-1.8
		c-3.8-0.9-7.5-2.2-10.9-3.9c0,0,1.2,15-0.4,27.5c-2.6,1.1-4.4,2.5-4.4,2.5c1,0.9,2.2,1.8,3.6,2.5c-1.1,5.1-2.9,9.2-5.7,10.6
		c-10,5-24,6-36,2c0,0,6-5,12-7c0,0-1.5-32.9-8.8-49.9c-1.2-2.9-2.6-5.3-4.2-7.1c0,0-15,10-25,8c0,0-3.2,5-9.5,7.7
		c-6,2.5-14.8,3-26.5-4.7l5-18c-2.8-5-3.4-10-3.4-13.5c0-2.8,0.4-4.5,0.4-4.5s0-7.7,5.3-12c1-0.8,2.2-1.5,3.7-2
		c2.4-0.8,5.5-2.1,8.8-3.7c8.9-4.3,19.5-10.6,23.2-14.3c5-5,14-13,14-13s6-7,15-4s33,9,57,9s58,10,72,61S233.5,184.5,233.5,184.5z"
		/>
	<path style="fill:#BF713A;" d="M129.1,167c-0.2,1.7-0.5,3.4-0.9,5c-1.4-0.7-2.6-1.5-3.6-2.5C124.7,169.5,126.5,168.1,129.1,167z"/>
</g>
<g style="opacity:0;">
	<circle style="opacity:0.2;" cx="51" cy="103" r="4"/>
	<g style="opacity:0.1;">
		<path d="M67.3,95.2c-0.4,0-0.9-0.1-1.3-0.3c-1.2-0.7-1.6-2.2-0.9-3.4C67,88.4,69,83,67.8,81c-0.7-1.1-2.9-1-4.2-0.9
			c-6.3,0.6-6.6,7.6-6.6,8.4c0,1.4-1.1,2.5-2.5,2.5c0,0,0,0,0,0c-1.4,0-2.5-1.1-2.5-2.5c0-4.2,2.3-12.5,11.1-13.3
			c4.3-0.4,7.3,0.7,8.9,3.2c3.3,5.2-1.5,13.9-2.5,15.6C69,94.7,68.2,95.2,67.3,95.2z"/>
	</g>
	<path style="opacity:0.1;" d="M174.8,145.2c-4.6,10.5-13.8,29.9-19.5,31.1c0,0-17.5,0.5-27-4.3c-1.4-0.7-2.6-1.5-3.6-2.5
		c0,0,1.8-1.4,4.4-2.5c2.1-0.9,4.7-1.6,7.3-1.4c0,0,1.6-11.7,4-22.2C153.1,146.5,167.1,145.9,174.8,145.2z"/>
	<path style="opacity:0.1;" d="M89.7,127.6c-18.5,24.5-23.2,33.9-23.2,33.9c-2,18-10,22-10,22l-8-12c0,0-4-10-3-16
		c0.7-4,3.6-13.5,5.5-19.3c6.4-2.7,9.5-7.7,9.5-7.7c10,2,25-8,25-8C87.1,122.2,88.5,124.7,89.7,127.6z"/>
	<path style="opacity:0.1;" d="M44.3,77.8c-3.3,1.6-6.4,2.9-8.8,3.7c-1.5,0.5-2.7,1.2-3.7,2c-1.8-2.8-2.3-6.7,3.7-10
		C41.5,70.2,43.7,73.8,44.3,77.8z"/>
</g>
</svg>
