<?xml version="1.0" encoding="utf-8"?>
<!-- Generator: Adobe Illustrator 22.1.0, SVG Export Plug-In . SVG Version: 6.00 Build 0)  -->
<svg version="1.1" id="Layer_1" xmlns="http://www.w3.org/2000/svg" xmlns:xlink="http://www.w3.org/1999/xlink" x="0px" y="0px"
	 viewBox="0 0 256 256" style="enable-background:new 0 0 256 256;" xml:space="preserve">
<g style="opacity:0;">
	<path style="fill:#822C6B;" d="M44.6,122.5c-2.4,2.1-4.6,5.3-4.6,9.5c0,0-2.6,14.3-5,18c-2.5,3.9-5.8,12.7-6.7,18.9
		c-1.1,7.8-6.7,9-6.7,9c3.4-6.7,1.1-12.3,1.1-12.3c-3.4,1.1-5.6,5.6-5.6,5.6c-1.1-3.4-2.2-5.5,7.8-16.8
		c17.9-20.2,6.7-22.4,10.1-41.5c2.4-13.5,8.7-16.9,12.2-17.7C40,102.8,43.1,117.3,44.6,122.5z"/>
	<path style="fill:#822C6B;" d="M194.3,168.2c-2.2,5.6-5.6,11.2-5.6,11.2s-11.2,2.3-13.5,9l-2.3-12.3c0,0,7.8-4.5,10.1-7.9
		l-17.8-7.7c9.3-6.5,18.9-10.1,29-8.1c0.3,0,0.5,0,0.8,0.1C195.5,156.4,195.7,164.6,194.3,168.2z"/>
	<path style="fill:#822C6B;" d="M120.5,154.9c-0.8,0.3-1.7,0.6-2.5,1.1c-3.9,2.1-7.7,3.2-11.2,3.7c2.3-0.5,4.9-1.4,7.9-2.8
		C116.8,155.9,118.8,155.3,120.5,154.9z"/>
	<polygon style="fill:#822C6B;" points="146,196 146,196 146,195.9 	"/>
	<path style="fill:#822C6B;" d="M171.1,156.8c-1,0.6-2,1.4-3.1,2.2c0,0,0-0.1,0-0.3C169,158,170,157.4,171.1,156.8z"/>
	<path style="fill:#822C6B;" d="M203.7,161c-0.3-0.7-0.5-1.3-0.7-2c0,0-5.9-6.7-15.8-7.1c2.3-0.1,4.7,0,7,0.5c0.3,0,0.5,0,0.8,0.1
		c4.2,0.7,8.2,6.6,8.2,6.6C203.3,159.8,203.5,160.4,203.7,161z"/>
	<path style="fill:#822C6B;" d="M211.3,169.1L211,170c0,0-0.7-0.5-1.6-1.5C210.1,168.8,210.8,169,211.3,169.1z"/>
	<path style="fill:#822C6B;" d="M101.2,192.8H79.9c0,0-5.6-13.5-20.2-22.4l0.2-9.8c0.6-0.2,0.9-0.3,0.9-0.3l18.5-5.8
		c-3.5,3-2.2,12.4-0.6,14.8C81,172.6,101.2,192.8,101.2,192.8z"/>
	<path style="fill:#822C6B;" d="M74.3,156l-13.5,4.3c0,0-0.3,0.1-0.9,0.3C63.9,158.7,69.5,157.2,74.3,156z"/>
	<path style="fill:#822C6B;" d="M106.8,159.7c-3.5,0.7-6.4,0.6-9.3-0.1C100.3,160,103.4,160.1,106.8,159.7z"/>
	<path style="fill:#822C6B;" d="M246.9,117.7L231.3,149c0,0-3.4,4.5-7.8,2.3c0,0-1.1,9-9,13.5c0,0-2.2,0-1.1,4.5c0,0-0.8,0.1-2-0.1
		c-0.6-0.1-1.2-0.3-1.9-0.6c-1.7-1.7-4.4-4.6-5.8-7.5c-0.2-0.6-0.3-1.2-0.5-1.9c0,0-4-5.9-8.2-6.6c-0.3-0.1-0.5-0.1-0.8-0.1
		c-2.4-0.5-4.7-0.6-7-0.5c-4.6-0.2-10,1-16.1,4.9c-1,0.6-2.1,1.2-3.1,1.8c-0.9,0.6-1.8,1.2-2.8,1.9c-0.4,0.3-0.8,0.6-1.2,0.9
		c0,0-7.8,12.3-12.3,16.8l9,17.9H146l0-0.1l0-0.1l-4.4-15.5c0,0-12.3-6.7-9-23.5c0,0-3.8-3.8-12.1-2c-1.8,0.4-3.7,1-5.9,2
		c-3,1.3-5.5,2.2-7.9,2.8c-3.4,0.4-6.5,0.3-9.3-0.1c-7.2-1.2-12.3-4.4-13.5-5.5c0,0-4.3,0.8-9.7,2c-4.8,1.1-10.5,2.7-14.4,4.5
		c0,0,0,0,0,0c-1.7,0.8-3.1,1.6-3.9,2.5c0,0-8.1,8.8-7.2,24.6l5.4,8.6H36.2V158c0,0,16.8-16.8,9-33.6c0,0-0.2-0.7-0.6-1.9
		c-1.5-5.2-4.6-19.6,2.7-27.4c1.2-1.3,2.8-2.4,4.6-3.3c10.1-4.5,20.2-1.1,37-14.6c17.4-13.9,67.3-26.9,86.3-21.3
		c19,5.6,33.6,23.5,33.6,23.5s23.5-3.4,31.4,12.3C248.1,107.6,246.9,117.7,246.9,117.7z"/>
	<path style="fill:#822C6B;" d="M187.2,151.9c-5.5,0.3-10.9,2.1-16.1,4.9C177.2,153,182.6,151.7,187.2,151.9z"/>
	<path style="fill:#822C6B;" d="M209.4,168.5c-2.1-0.9-4.4-3-5.8-7.5C205,163.9,207.7,166.8,209.4,168.5z"/>
	<g>
		<path style="fill:#822C6B;" d="M245.3,70.4l-3.3,7.7c-0.2,0.5-5.6,12.6-21.3,16.1c-0.4,0.1-1.7,0.4-3.2,0.4
			c-1.6,0-3.4-0.3-4.8-1.4c-1.2-0.9-1.8-2.3-1.8-3.9c0-1.3,0.6-4.4,5.9-5.2c4-0.6,12-2.7,21.6-9L245.3,70.4z"/>
	</g>
	<g>
		<path style="fill:#822C6B;" d="M232.9,148.2c-0.3,0-0.6-0.1-0.9-0.2l-8.4-3.4c-1.3-0.5-1.9-2-1.4-3.3c0.5-1.3,2-1.9,3.3-1.4
			l8.4,3.4c1.3,0.5,1.9,2,1.4,3.3C234.9,147.6,233.9,148.2,232.9,148.2z"/>
	</g>
</g>
<g>
	<g style="opacity:0.2;">
		<path d="M232.4,115.3c-0.4,0.9-1.3,1.5-2.3,1.5c-0.3,0-0.7-0.1-1-0.2l-0.7-0.3l-4-1.7l-3.2-1.4c-1.3-0.5-1.9-2-1.3-3.3
			c0.6-1.3,2-1.9,3.3-1.3l7.8,3.4C232.4,112.5,233,114,232.4,115.3z"/>
	</g>
	<path style="opacity:0.3;" d="M228.4,116.3c-0.1,1.1-1.1,1.9-2.2,1.9c-1.2,0-2.2-1-2.2-2.2c0-0.5,0.2-1,0.5-1.4L228.4,116.3z"/>
	<g style="opacity:0.2;">
		<path d="M204.3,109c-0.2,0-0.5,0-0.7-0.1c-2.2-0.6-8.7-2.5-9.1-7.2c-0.4-4.8,6.3-8.1,7.6-8.7l1.7-0.8l6.8,8.2
			c0.9,1.1,0.7,2.6-0.3,3.5c-1.1,0.9-2.6,0.7-3.5-0.3l-4.3-5.2c-1.8,1.1-3.1,2.4-3,2.9c0,0,0.5,1.3,5.5,2.7c1.3,0.4,2.1,1.8,1.7,3.1
			C206.4,108.2,205.4,109,204.3,109z"/>
	</g>
	<g style="opacity:0.2;">
		<path d="M184.7,93c-1,0-1.9-0.5-2.3-1.5l0,0c-0.1-0.1-5.3-11.5-15.5-16.1c-1.3-0.6-1.8-2-1.3-3.3c0.6-1.3,2-1.8,3.3-1.3
			c12,5.4,17.8,18.1,18.1,18.6c0.6,1.3,0,2.7-1.3,3.3C185.4,92.9,185.1,93,184.7,93z"/>
	</g>
	<g style="opacity:0.2;">
		<path d="M245.3,70.4l-3.3,7.7c-0.2,0.5-5.6,12.6-21.3,16.1c-0.4,0.1-1.7,0.4-3.2,0.4c-1.6,0-3.4-0.3-4.8-1.4
			c-1.2-0.9-1.8-2.3-1.8-3.9c0-1.3,0.6-4.4,5.9-5.2c4-0.6,12-2.7,21.6-9L245.3,70.4z"/>
	</g>
	<g style="opacity:0.2;">
		<path d="M232.9,148.2c-0.3,0-0.6-0.1-0.9-0.2l-8.4-3.4c-1.3-0.5-1.9-2-1.4-3.3c0.5-1.3,2-1.9,3.3-1.4l8.4,3.4
			c1.3,0.5,1.9,2,1.4,3.3C234.9,147.6,233.9,148.2,232.9,148.2z"/>
	</g>
	<path style="opacity:0.2;" d="M44.6,122.5c-2.4,2.1-4.6,5.3-4.6,9.5c0,0-2.6,14.3-5,18c-2.5,3.9-5.8,12.7-6.7,18.9
		c-1.1,7.8-6.7,9-6.7,9c3.4-6.7,1.1-12.3,1.1-12.3c-3.4,1.1-5.6,5.6-5.6,5.6c-1.1-3.4-2.2-5.5,7.8-16.8
		c17.9-20.2,6.7-22.4,10.1-41.5c2.4-13.5,8.7-16.9,12.2-17.7C40,102.8,43.1,117.3,44.6,122.5z"/>
	<path style="opacity:0.2;" d="M194.3,168.2c-2.2,5.6-5.6,11.2-5.6,11.2s-11.2,2.3-13.5,9l-2.3-12.3c0,0,7.8-4.5,10.1-7.9l-17.8-7.7
		c9.3-6.5,18.9-10.1,29-8.1c0.3,0,0.5,0,0.8,0.1C195.5,156.4,195.7,164.6,194.3,168.2z"/>
	<path style="opacity:0.2;" d="M101.2,192.8H79.9c0,0-5.6-13.5-20.2-22.4l0.2-9.8c0.6-0.2,0.9-0.3,0.9-0.3l18.5-5.8
		c-3.5,3-2.2,12.4-0.6,14.8C81,172.6,101.2,192.8,101.2,192.8z"/>
</g>
</svg>
