<?xml version="1.0" encoding="utf-8"?>
<!-- Generator: Adobe Illustrator 22.1.0, SVG Export Plug-In . SVG Version: 6.00 Build 0)  -->
<svg version="1.1" id="Layer_1" xmlns="http://www.w3.org/2000/svg" xmlns:xlink="http://www.w3.org/1999/xlink" x="0px" y="0px"
	 viewBox="0 0 256 256" style="enable-background:new 0 0 256 256;" xml:space="preserve">
<g>
	<g>
		<path style="fill:#AD5920;" d="M65.2,88.6c-4.4,2.1-8.1,5.4-10.7,9.5c-7.4,5.6-12.6,15-13.5,20.1c-1.5,8.9-11.3,23-11.7,23.6
			c-0.5,0.7-1.3,1.1-2,1.1c-0.5,0-1-0.1-1.4-0.4c-1.1-0.8-1.4-2.4-0.6-3.5c0.1-0.1,9.6-13.8,10.9-21.6C37.8,107.5,50,89.5,65.2,88.6
			z"/>
	</g>
	<path style="fill:#AD5920;" d="M102.9,186.8l-4.2,2.8l-21.2-25.4c0,0,3.3-14.8-1.3-30.8c3.9-3.4,10.7-5.5,19-7.4
		c-0.1,9.7-1.1,30.7-6.5,38.2L102.9,186.8z"/>
	<path style="fill:#AD5920;" d="M165.1,182.5H158l14.1-22.6l-21.5-8.3c0.9-1.9,2-3.4,3.2-4.4c2.9-2.3,7.3-7.1,11.7-12.1
		c3.9,5.3,12.9,16.4,19.4,16.4C193.3,151.5,165.1,182.5,165.1,182.5z"/>
	<path style="fill:#AD5920;" d="M228.6,99.2c-2.8,1.4-8.5,8.5-14.1,8.5c-5.6,0-4.2-4.2-9.9-4.2c-5.6,0-2.8,7.1-5.6,9.9
		c-2.8,2.8-14.1,0-18.4,4.2c-2.5,2.5-8.9,10.3-15.1,17.5c-4.4,5.1-8.8,9.8-11.7,12.1c-1.2,0.9-2.2,2.5-3.2,4.4
		c-4.7,9.6-6.5,29.3-5.3,35.2h-5.6c0,0,0-32.5-5.7-38.1c-5.7-5.6-18.3-26.8-32.5-24c-2.2,0.4-4.3,0.9-6.3,1.3
		c-8.3,1.8-15.1,4-19,7.4c-1.4,1.2-2.4,2.5-3,4c-2.8,7.1,0,14.1-15.5,24C42.2,171.2,38,189.6,38,189.6h-5.6c0,0,1.4-31.1,14.1-41
		c8.8-6.8,4.1-21.7,4.1-36.7c0-5.1,1.4-9.8,4-13.8c2.6-4.1,6.3-7.4,10.7-9.5c2.5-1.2,5.3-2,8.2-2.3c4.7-0.5,10.3-0.6,16.8,0.2
		c24,2.8,49.4-12.7,55.1-16.9c5.6-4.2,12.7-12.7,33.9-2.8c0,0,8.5,2.8,21.2-4.2c0,0,4.2-2.8,11.3,8.5
		C218.7,82.3,231.4,97.8,228.6,99.2z"/>
	<g>
		<path style="fill:#AD5920;" d="M197.9,81.1c-1.4,0-2.8-0.7-3.8-1.9c-0.9-1.2-1.2-2.7-0.8-4.1c0.4-1.4,1.4-2.5,2.8-3.1
			c12.7-5.1,20.7-6,21-6.1l16.8-1.9l-15.5,6.6c-9.6,4.1-15.3,7.7-17.9,9.5l0,0C199.8,80.9,198.9,81.1,197.9,81.1z M199.2,78.2
			L199.2,78.2L199.2,78.2z M197.8,76.2C197.8,76.2,197.8,76.2,197.8,76.2C197.8,76.2,197.8,76.2,197.8,76.2z"/>
	</g>
</g>
<g style="opacity:0;">
	<g style="opacity:0.5;">
		<path d="M197.9,81.1c-1.4,0-2.8-0.7-3.8-1.9c-0.9-1.2-1.2-2.7-0.8-4.1c0.4-1.4,1.4-2.5,2.8-3.1c12.7-5.1,20.7-6,21-6.1l16.8-1.9
			l-15.5,6.6c-9.6,4.1-15.3,7.7-17.9,9.5l0,0C199.8,80.9,198.9,81.1,197.9,81.1z M199.2,78.2L199.2,78.2L199.2,78.2z M197.8,76.2
			C197.8,76.2,197.8,76.2,197.8,76.2C197.8,76.2,197.8,76.2,197.8,76.2z"/>
	</g>
	<g style="opacity:0.5;">
		<path d="M65.2,88.6c-4.4,2.1-8.1,5.4-10.7,9.5c-7.4,5.6-12.6,15-13.5,20.1c-1.5,8.9-11.3,23-11.7,23.6c-0.5,0.7-1.3,1.1-2,1.1
			c-0.5,0-1-0.1-1.4-0.4c-1.1-0.8-1.4-2.4-0.6-3.5c0.1-0.1,9.6-13.8,10.9-21.6C37.8,107.5,50,89.5,65.2,88.6z"/>
	</g>
	<path style="opacity:0.1;" d="M102.9,186.8l-4.2,2.8l-21.2-25.4c0,0,3.3-14.8-1.3-30.8c3.9-3.4,10.7-5.5,19-7.4
		c-0.1,9.7-1.1,30.7-6.5,38.2L102.9,186.8z"/>
	<path style="opacity:0.1;" d="M165.1,182.5H158l14.1-22.6l-21.5-8.3c0.9-1.9,2-3.4,3.2-4.4c2.9-2.3,7.3-7.1,11.7-12.1
		c3.9,5.3,12.9,16.4,19.4,16.4C193.3,151.5,165.1,182.5,165.1,182.5z"/>
</g>
</svg>
