<?xml version="1.0" encoding="utf-8"?>
<!-- Generator: Adobe Illustrator 22.1.0, SVG Export Plug-In . SVG Version: 6.00 Build 0)  -->
<svg version="1.1" id="Layer_1" xmlns="http://www.w3.org/2000/svg" xmlns:xlink="http://www.w3.org/1999/xlink" x="0px" y="0px"
	 viewBox="0 0 256 256" style="enable-background:new 0 0 256 256;" xml:space="preserve">
<g style="opacity:0;">
	<path style="fill:#FFB543;" d="M134,201.9c0,1.4-1.2,2.4-2.5,2.4h-0.1l-13.4-0.5l0-39.9l1.1-5.9l1.2-24.9c3.2,0.6,6.1,0.6,8.6,0.3
		l-5.9,31.2V199l8.6,0.4C133,199.4,134.1,200.5,134,201.9z"/>
	<path style="fill:#FFB543;" d="M45.3,92.3c-0.3,0.9-0.5,1.8-0.7,2.7c-0.8,1.2-1.6,2.8-2.6,4.9c-3.2,7.2-7,25-13,39
		c0,0-2.5,7.7-10.4,7.7c0,0-3.5-7.1,6.2-10.6c5.4-2,10.2-25.6,15.2-37.1C41.8,95,43.7,93.2,45.3,92.3z"/>
	<path style="fill:#FFB543;" d="M49,92c-0.1,0-0.4-0.1-0.9-0.2C48.6,91.7,48.9,91.9,49,92z"/>
	<g>
		<path style="fill:#FFB543;" d="M80.7,206.7c0,1.4-1.1,2.5-2.5,2.5h-8.9L54.5,164l0-0.3c-0.8-7,4.6-24.5,10.1-40.7
			c4.3-1.9,8-3.3,11.2-4.3l-14.1,31.1c-1.4,5.5-2.4,10.4-2.2,13.1l13.5,41.3h5.3C79.5,204.2,80.7,205.3,80.7,206.7z"/>
	</g>
	<g>
		<path style="fill:#FFB543;" d="M48.1,91.8c0.5,0.1,0.8,0.2,0.9,0.2C48.9,91.9,48.6,91.7,48.1,91.8z"/>
		<path style="fill:#FFB543;" d="M242.3,51.8c-7.1-6.2-9.7,3.5-17.7-2.6c-8-6.2-17.7-2.6-17.7-2.6l-4.4-3.5V50
			c-7.5,4-12.8,26-18.5,32.7c-13.6,15.7-39.7-5.3-51.2-11.5c-11.5-6.2-7.1-7.1-21.2-23.8c-14.1-16.8-31.3-0.1-38.8,15
			c-7.1,14.1-10.6,14.1-21.2,21.2c-3.3,2.2-5.3,5.4-6.4,8.8c-0.3,0.9-0.5,1.8-0.7,2.7c-1.3,6.3,0,12.3,0,12.3s4.9,7.5,6.2,8.8
			c0.6,0.6-3,9.1-7.2,18.3L30,158.8V210h11.5c1.4,0,2.5-1.1,2.5-2.5s-1.1-2.5-2.5-2.5H35v-44.8l6.9-12.4l21.6-24.2
			c0.4-0.2,0.7-0.3,1.1-0.5c4.3-1.9,8-3.3,11.2-4.3c13-4,18.3-0.8,31.8,8.7c4.5,3.2,8.9,4.8,12.8,5.6c3.2,0.6,6.1,0.6,8.6,0.3
			c2.1-0.3,4-0.7,5.5-1.2c3.2-1,5-2.2,5-2.2c1.4-0.8,2.6-1.8,3.6-3c5.5-5.9,6.9-14.7,12.7-13.4c7.9,1.8,31.8-8,37.1-11.5
			c5.3-3.5,30-31.8,35.3-36.2c5.3-4.4,14.1-2.6,14.1-2.6l1.8-0.9C244.1,62.4,249.4,58,242.3,51.8z M48.1,91.8
			c0.5-0.1,0.8,0.1,0.9,0.2C48.9,92,48.6,91.8,48.1,91.8z"/>
	</g>
	<path style="fill:#FFB543;" d="M177.7,204c-0.1,1.3-1.2,2.4-2.5,2.4h-0.1l-10.2-0.5l-11-42.9l-19.4-30.8c3.2-1,5-2.2,5-2.2
		c1.4-0.8,2.6-1.8,3.6-3l12.3,28.9l3.2,5l10.2,40.1l6.5,0.4C176.7,201.4,177.8,202.6,177.7,204z"/>
</g>
<g>
	<path style="opacity:0.1;" d="M134,201.9c0,1.4-1.2,2.4-2.5,2.4h-0.1l-13.4-0.5l0-39.9l1.1-5.9l1.2-24.9c3.2,0.6,6.1,0.6,8.6,0.3
		l-5.9,31.2V199l8.6,0.4C133,199.4,134.1,200.5,134,201.9z"/>
	<path style="opacity:0.1;" d="M45.3,92.3c-0.3,0.9-0.5,1.8-0.7,2.7c-0.8,1.2-1.6,2.8-2.6,4.9c-3.2,7.2-7,25-13,39
		c0,0-2.5,7.7-10.4,7.7c0,0-3.5-7.1,6.2-10.6c5.4-2,10.2-25.6,15.2-37.1C41.8,95,43.7,93.2,45.3,92.3z"/>
	<g style="opacity:0.1;">
		<path d="M80.7,206.7c0,1.4-1.1,2.5-2.5,2.5h-8.9L54.5,164l0-0.3c-0.8-7,4.6-24.5,10.1-40.7c4.3-1.9,8-3.3,11.2-4.3l-14.1,31.1
			c-1.4,5.5-2.4,10.4-2.2,13.1l13.5,41.3h5.3C79.5,204.2,80.7,205.3,80.7,206.7z"/>
	</g>
</g>
</svg>
