<?xml version="1.0" encoding="utf-8"?>
<!-- Generator: Adobe Illustrator 22.1.0, SVG Export Plug-In . SVG Version: 6.00 Build 0)  -->
<svg version="1.1" id="Layer_1" xmlns="http://www.w3.org/2000/svg" xmlns:xlink="http://www.w3.org/1999/xlink" x="0px" y="0px"
	 viewBox="0 0 256 256" style="enable-background:new 0 0 256 256;" xml:space="preserve">
<g>
	<path style="fill:#FF9B33;" d="M217.6,98.8c-0.7,1.2-2.3,1.5-3.5,0.8c-7.3-4.6-12.8-6.2-15.2-4.4c-6.3,4.5-0.3,29.6,4.1,47.9
		c3,12.7,5.9,24.7,5.9,32.3c0,37.8-24,40.5-24.3,40.5c-0.1,0-0.2,0-0.2,0c-1.3,0-2.4-1-2.5-2.3c-0.1-1.4,0.9-2.6,2.3-2.7
		c0.1,0,0.4,0,0.9-0.2c-4.9-0.4-13.1-2.3,2.8-9.8c0,0,13.5-12.3,8-41c-8.3-42.8-5.8-57.4-4.1-62c0.7-3,2-5.3,4.1-6.8
		c4.4-3.2,11.2-1.8,20.8,4.2C218,96.1,218.3,97.7,217.6,98.8z"/>
	<path style="fill:#FF9B33;" d="M169.8,131.8c-4.5-5.3-8.6-9.3-10.8-11.8c-1.1-1.2-2.8-3-4.9-5.1C159.2,117.3,164.7,124,169.8,131.8
		z"/>
	<path style="fill:#FF9B33;" d="M165.8,221.3c-1.4,0-2.9,0-4.4-0.1C162.7,221.3,164.2,221.3,165.8,221.3z"/>
	<path style="fill:#FF9B33;" d="M187.7,171.2c-0.1-1.1-0.2-2.2-0.4-3.3C187.5,168.7,187.6,169.8,187.7,171.2z"/>
	<path style="fill:#FF9B33;" d="M187.4,167.9c-0.9-4.4-8.5-22.2-17.6-36.1C177.1,140.4,185.3,152.6,187.4,167.9z"/>
	<path style="fill:#FF9B33;" d="M187.8,177.6L187.8,177.6c-0.1,7.3-0.7,16.7-1.7,24.3c-13.3,6.8-5.6,8.5-0.9,8.9
		c-0.5,0.1-0.8,0.2-0.9,0.2c-1.4,0.1-2.4,1.3-2.3,2.7c0.1,1,0.8,1.9,1.8,2.2c-1.5,2.5-4.4,4.7-9.8,5.1c-2.9,0.2-5.6,0.3-8.3,0.3
		c-1.5,0-3,0-4.4-0.1h0c-7.8-0.3-13.3-1.2-13.3-1.2s-26.5-8.3-38.5-24c-2.4-3.1-4.2-6.6-5.1-10.3c0-0.2-0.1-0.3-0.1-0.5
		c-4.2,11.3-12.1,32.2-14.3,35.8c-3,5-18.5,0.5-18.5,0.5L83,221c0,0,9-34-3-58s-8-51-3-59c0.3-0.4,0.5-0.8,0.7-1.2
		c3.6-7-1.7-10.7-8.2-11.8c0,0,0,0,0,0c-0.2,0-0.3,0-0.5-0.1c-4-0.6-9.4-7.5-9.4-7.5c-5.1,0-4.1-4-4.1-4S61,74,61,70s-1-12,3-17
		s15-6,17-14s4-15,4-15s16,5,15,19c0,0,20,10,20,25c0,12.7,22.8,35.3,34.1,46.9c2.1,2.1,3.8,3.9,4.9,5.1c2.2,2.5,6.3,6.5,10.8,11.8
		c9.1,14,16.7,31.7,17.6,36.1c0,0,0,0,0,0c0.2,1.1,0.3,2.2,0.4,3.3c0,0,0,0,0,0C187.8,173,187.8,175.2,187.8,177.6z"/>
	<path style="fill:#FF9B33;" d="M187.8,177.6c0-2.5,0-4.7-0.1-6.5C187.9,173.3,187.9,175.4,187.8,177.6z"/>
	<g>
		<path style="fill:#FF9B33;" d="M163.5,224H123c-1.4,0-2.5-1.1-2.5-2.5s1.1-2.5,2.5-2.5h40.5c1.4,0,2.5,1.1,2.5,2.5
			S164.9,224,163.5,224z"/>
	</g>
	<g>
		<path style="fill:#FF9B33;" d="M88,224H73.5c-1.4,0-2.5-1.1-2.5-2.5s1.1-2.5,2.5-2.5H88c1.4,0,2.5,1.1,2.5,2.5S89.4,224,88,224z"
			/>
	</g>
	<path style="fill:#FF9B33;" d="M83.5,221.5"/>
</g>
<g style="opacity:0;">
	<g style="opacity:0.1;">
		<path d="M131,153.4c0,1.4-1,2.5-2.4,2.6c-1.5,0-2.8,0.2-4.1,0.5c-3.5,0.8-6.4,2.6-8.8,5.4c-2.7,3.2-4.3,7.4-5.2,11.7
			c-2.1,9.9-0.6,20.3-0.6,20.5c0.1,0.7-0.1,1.3-0.4,1.8c-2.4-3.1-4.2-6.6-5.1-10.3c0-0.3,0-0.5,0-0.8c0-7.9,1.4-18.8,7.5-26.2
			c4-4.9,9.6-7.5,16.5-7.8c0.2,0,0.4,0,0.6,0C130.1,151.3,131,152.2,131,153.4z"/>
	</g>
	<path style="opacity:0.1;" d="M76,110c0.1-0.2,1.5-3.5,1.7-7.2c3.6-7-1.7-10.7-8.2-11.8c0,0,0,0,0,0C66.6,89.1,64,87.5,64,86
		c0,0,10,6,18,3S89,100,76,110z"/>
	<path style="opacity:0.1;" d="M217.6,98.8c-0.7,1.2-2.3,1.5-3.5,0.8c-7.3-4.6-12.8-6.2-15.2-4.4c-6.3,4.5-0.3,29.6,4.1,47.9
		c3,12.7,5.9,24.7,5.9,32.3c0,37.8-24,40.5-24.3,40.5c-0.1,0-0.2,0-0.2,0c-0.3,0-0.5,0-0.7-0.1c1.8-3.2,1.5-6.8,1.3-8.3
		c0.4-1.7,0.7-3.6,1-5.7c0.6-0.3,1.2-0.6,1.9-1c0,0,13.5-12.3,8-41c-8.3-42.8-5.8-57.4-4.1-62c0.7-3,2-5.3,4.1-6.8
		c4.4-3.2,11.2-1.8,20.8,4.2C218,96.1,218.3,97.7,217.6,98.8z"/>
	<g style="opacity:0.1;">
		<path d="M163.5,224H123c-1.4,0-2.5-1.1-2.5-2.5s1.1-2.5,2.5-2.5h40.5c1.4,0,2.5,1.1,2.5,2.5S164.9,224,163.5,224z"/>
	</g>
	<g style="opacity:0.1;">
		<path d="M88,224H73.5c-1.4,0-2.5-1.1-2.5-2.5s1.1-2.5,2.5-2.5H88c1.4,0,2.5,1.1,2.5,2.5S89.4,224,88,224z"/>
	</g>
</g>
</svg>
