<?xml version="1.0" encoding="utf-8"?>
<!-- Generator: Adobe Illustrator 22.1.0, SVG Export Plug-In . SVG Version: 6.00 Build 0)  -->
<svg version="1.1" id="Layer_1" xmlns="http://www.w3.org/2000/svg" xmlns:xlink="http://www.w3.org/1999/xlink" x="0px" y="0px"
	 viewBox="0 0 256 256" style="enable-background:new 0 0 256 256;" xml:space="preserve">
<g style="opacity:0;">
	<path style="fill:#60CC46;" d="M105.7,169.2c0-0.2,0-0.5,0-0.7c0,0,0,0,0,0L105.7,169.2z"/>
	<path style="fill:#60CC46;" d="M227,91c-10.6,6.6-39.5,21.5-49.5,4.5c0,0-23.5,17.5-60.5,15.5s-39.2,35.8-40,46
		c-1.5,19.5,23.9,65.1,68.5,33.5c24-17-6-58-31-39c-6.3,4.8-9.1,11.3-8.8,17c-10.4-21.5,29.2-50,51.9-20.3
		c24,31.2-1.6,58.9-1.6,58.9c-8,16-55,36-91-3S63,91,63,91s5.8-13.1,19.8-26.3c3.4-3.3,7.3-6.5,11.7-9.6c3.7-2.6,7.7-5,12.1-7.2
		c3.9-2,8.2-3.8,12.7-5.3c4-1.4,8.3-2.5,12.8-3.4c5-1,10.4-1.7,16.1-2c3.2-0.2,6.5-0.2,9.9-0.1c0,0-7-14,15-9s23,13,23,13
		s11.5,3.5,20.5,8.5c0,0,11,7,19.5,16.5C247.8,79.2,245.5,79.5,227,91z"/>
	<path style="fill:none;stroke:#60CC46;stroke-width:5;stroke-linecap:round;stroke-miterlimit:10;" d="M118.5,167.5
		c1-5,14-9.2,14,3c0,12-12,11.9-16,11c-6.5-1.5-10.2-6.5-10.8-12.3c0,0-0.9-9.2,2.4-15.3"/>
	<path style="fill:none;stroke:#60CC46;stroke-width:7;stroke-linecap:round;stroke-miterlimit:10;" d="M167.5,86.5c0,0-24,3-20,9
		s10,25,10,25s11-5,17,3"/>
	<path style="fill:none;stroke:#60CC46;stroke-width:7;stroke-linecap:round;stroke-miterlimit:10;" d="M94.5,96.5c0,0,27-5,29,2
		s-2,21-2,21s11-2,14,6"/>
	<path style="fill:none;stroke:#60CC46;stroke-width:7;stroke-linecap:round;stroke-miterlimit:10;" d="M210.5,100.5l4,10
		c0,0,5-7,16-4"/>
</g>
<g>
	<circle style="opacity:0.2;" cx="197.5" cy="62.5" r="10"/>
	<circle style="opacity:0.2;" cx="195.5" cy="57.5" r="3.5"/>
	<path style="opacity:0.1;" d="M153,68c-0.6-0.3-19.3-10.5-20.9-28.9c5-1,10.4-1.7,16.1-2C148.1,37.1,141,52,153,68z"/>
	<path style="opacity:0.1;" d="M132,68c0,0-19.5-1.3-25.5-20.2c3.9-2,8.2-3.8,12.7-5.3C119.8,45.8,122.4,59.3,132,68z"/>
	<path style="opacity:0.1;" d="M108,78c0,0-17,0-25.2-13.3c3.4-3.3,7.3-6.5,11.7-9.6C94.5,59.3,95.6,72.2,108,78z"/>
</g>
</svg>
