<?xml version="1.0" encoding="utf-8"?>
<!-- Generator: Adobe Illustrator 22.1.0, SVG Export Plug-In . SVG Version: 6.00 Build 0)  -->
<svg version="1.1" id="Layer_1" xmlns="http://www.w3.org/2000/svg" xmlns:xlink="http://www.w3.org/1999/xlink" x="0px" y="0px"
	 viewBox="0 0 256 256" style="enable-background:new 0 0 256 256;" xml:space="preserve">
<g style="opacity:0;">
	<g>
		<path style="fill:#FFD34A;" d="M67.9,113.4c-0.4,1.3-1,3.9-1,7.3c-6.5,5-17,11-29.3,11c-8.8,0-18.6-3.1-28.7-11.8
			c-1-0.9-1.2-2.5-0.3-3.5c0.9-1,2.5-1.2,3.5-0.3C37.5,138,60.5,120.4,67.9,113.4z"/>
	</g>
	<g>
		<path style="fill:#FFD34A;" d="M235.6,102.5l-4.5,2.3c0,0-1.1,3.4-3.4,3.4c0,0-2.3,6.7-10.1,0c0,0-9,0-13.5-1.1
			c0,0-6.8,19.1-25.8,25.8c-17.3,6.1-34.6,5.8-46.1-1c-2.8-1.6-5.9-2.5-9.1-2.8l-4.5-0.3c-4.9-0.4-9.9,0.5-14.3,2.9
			c-1.3,0.7-2.7,1.6-3.9,2.7c-0.7,0.6-1.4,1.3-2,2c-5.6,6.7-29.2,1.7-27.2,0.2c0.2-0.1,0.3-0.2,0.3-0.2c-3.8-5.4-4.7-11.1-4.6-15.5
			c0-3.4,0.7-6.1,1-7.3c0,0,0,0,0,0c0.2-0.5,0.3-0.8,0.3-0.8S76,98,109.7,102.5c33.7,4.5,28.1,0,34.8-3.4
			c6.7-3.4,37.1-24.7,50.6-16.9l-3.4-6.7c0,0,31.5,4.5,37.1,14.6c0,0,1.1,2.3,0,4.5L235.6,102.5z"/>
	</g>
	<path style="fill:#FFD34A;" d="M100.5,134.2c-0.7,0.6-1.4,1.3-2,2c-5.6,6.7-31.9,19-46.5,17.8l-19.6,7.6l-5.5,2l-3.1,0.8L21,165
		c-0.8,0.2-2.3-0.2-2.5-0.9c-0.4-1.6,0.8-2.8,1.5-3l8.7-2.1c0.2-0.1,0.7-0.1,1.2-0.2c2-0.3,3.9-0.9,5.7-1.9L45,152
		c12.3-5.2,24.3-14.1,26.3-15.6L72,136c0,0,1-21,21-17C101.2,120.6,102.2,127.1,100.5,134.2z"/>
	<path style="fill:#FFD34A;" d="M232.2,123.5l-0.1,0.4c-0.3,1.4-1.7,2.3-3.1,1.9l-9.3-2c-41.4,4.1-52.7-1.2-52.7-1.2
		c-2.9-4.8,8.8-23.3,12.5-28.8c0.2-0.4,0.4-0.8,0.5-1c1.1-2.2,9-7.9,14.6,2.3c0,0,2.8,13.2-7.9,21.4c-1,0.8,6.8,0.7,6.8,0.7
		l26.6,1.3c0.4-0.2,0.9-0.2,1.4-0.1l8.7,2C231.7,120.8,232.5,122.1,232.2,123.5z"/>
</g>
<g>
	<path style="opacity:0.1;" d="M100.5,134.2c-0.7,0.6-1.4,1.3-2,2c-5.6,6.7-31.9,19-46.5,17.8l-19.6,7.6l-5.5,2l-3.1,0.8L21,165
		c-0.8,0.2-2.3-0.2-2.5-0.9c-0.4-1.6,0.8-2.8,1.5-3l8.7-2.1c0.2-0.1,0.7-0.1,1.2-0.2c2-0.3,3.9-0.9,5.7-1.9L45,152
		c12.3-5.2,24.3-14.1,26.3-15.6L72,136c0,0,1-21,21-17C101.2,120.6,102.2,127.1,100.5,134.2z"/>
	<path style="opacity:0.1;" d="M232.2,123.5l-0.1,0.4c-0.3,1.4-1.7,2.3-3.1,1.9l-9.3-2c-41.4,4.1-52.7-1.2-52.7-1.2
		c-2.9-4.8,8.8-23.3,12.5-28.8c0.2-0.4,0.4-0.8,0.5-1c1.1-2.2,9-7.9,14.6,2.3c0,0,2.8,13.2-7.9,21.4c-1,0.8,6.8,0.7,6.8,0.7
		l26.6,1.3c0.4-0.2,0.9-0.2,1.4-0.1l8.7,2C231.7,120.8,232.5,122.1,232.2,123.5z"/>
	<g>
		<g>
			<g>
				<path d="M70.2,145.7c1.9,0,1.9-3,0-3C68.3,142.7,68.3,145.7,70.2,145.7L70.2,145.7z"/>
			</g>
		</g>
		<g>
			<g>
				<path d="M84.3,129.8c1.9,0,1.9-3,0-3C82.3,126.8,82.3,129.8,84.3,129.8L84.3,129.8z"/>
			</g>
		</g>
		<g>
			<g>
				<path d="M104.5,125.3c1.9,0,1.9-3,0-3C102.6,122.3,102.6,125.3,104.5,125.3L104.5,125.3z"/>
			</g>
		</g>
		<g>
			<g>
				<path d="M94.6,131.3c1.9,0,1.9-3,0-3C92.6,128.3,92.6,131.3,94.6,131.3L94.6,131.3z"/>
			</g>
		</g>
		<g>
			<g>
				<path d="M121.7,122.7c1.9,0,1.9-3,0-3C119.8,119.7,119.8,122.7,121.7,122.7L121.7,122.7z"/>
			</g>
		</g>
		<g>
			<g>
				<path d="M136.7,127.6c1.9,0,1.9-3,0-3C134.8,124.6,134.8,127.6,136.7,127.6L136.7,127.6z"/>
			</g>
		</g>
		<g>
			<g>
				<path d="M150,132.4c1.9,0,1.9-3,0-3C148.1,129.4,148.1,132.4,150,132.4L150,132.4z"/>
			</g>
		</g>
		<g>
			<g>
				<path d="M150.4,125.3c1.9,0,1.9-3,0-3C148.4,122.3,148.4,125.3,150.4,125.3L150.4,125.3z"/>
			</g>
		</g>
		<g>
			<g>
				<path d="M142.5,122.7c1.9,0,1.9-3,0-3C140.6,119.7,140.6,122.7,142.5,122.7L142.5,122.7z"/>
			</g>
		</g>
		<g>
			<g>
				<path d="M163.1,131.7c1.9,0,1.9-3,0-3C161.2,128.7,161.2,131.7,163.1,131.7L163.1,131.7z"/>
			</g>
		</g>
		<g>
			<g>
				<path d="M158.8,121.8c1.9,0,1.9-3,0-3C156.9,118.8,156.9,121.8,158.8,121.8L158.8,121.8z"/>
			</g>
		</g>
		<g>
			<g>
				<path d="M174.3,117.4c1.9,0,1.9-3,0-3C172.4,114.4,172.4,117.4,174.3,117.4L174.3,117.4z"/>
			</g>
		</g>
		<g>
			<g>
				<path d="M181.5,107.3c1.9,0,1.9-3,0-3C179.5,104.3,179.5,107.3,181.5,107.3L181.5,107.3z"/>
			</g>
		</g>
		<g>
			<g>
				<path d="M186.5,113.9c1.9,0,1.9-3,0-3C184.6,110.9,184.6,113.9,186.5,113.9L186.5,113.9z"/>
			</g>
		</g>
		<g>
			<g>
				<path d="M188.9,104.3c1.9,0,1.9-3,0-3C187,101.3,187,104.3,188.9,104.3L188.9,104.3z"/>
			</g>
		</g>
		<g>
			<g>
				<path d="M186.1,98.7c1.9,0,1.9-3,0-3C184.2,95.7,184.2,98.7,186.1,98.7L186.1,98.7z"/>
			</g>
		</g>
		<g>
			<g>
				<path d="M180.1,120.1c1.9,0,1.9-3,0-3C178.2,117.1,178.2,120.1,180.1,120.1L180.1,120.1z"/>
			</g>
		</g>
		<g>
			<g>
				<path d="M187.6,122.3c1.9,0,1.9-3,0-3C185.7,119.3,185.7,122.3,187.6,122.3L187.6,122.3z"/>
			</g>
		</g>
		<g>
			<g>
				<path d="M87.6,137.5c1.9,0,1.9-3,0-3C85.7,134.5,85.7,137.5,87.6,137.5L87.6,137.5z"/>
			</g>
		</g>
		<g>
			<g>
				<path d="M78.5,141.8c1.9,0,1.9-3,0-3C76.5,138.8,76.5,141.8,78.5,141.8L78.5,141.8z"/>
			</g>
		</g>
		<g>
			<g>
				<path d="M69,143.8c1.9,0,1.9-3,0-3C67.1,140.8,67.1,143.8,69,143.8L69,143.8z"/>
			</g>
		</g>
		<g>
			<g>
				<path d="M58.2,151.3c1.9,0,1.9-3,0-3C56.2,148.3,56.2,151.3,58.2,151.3L58.2,151.3z"/>
			</g>
		</g>
		<g>
			<g>
				<path d="M66.9,149c1.9,0,1.9-3,0-3C65,146,65,149,66.9,149L66.9,149z"/>
			</g>
		</g>
		<g>
			<g>
				<path d="M78.5,129.6c1.9,0,1.9-3,0-3C76.5,126.6,76.5,129.6,78.5,129.6L78.5,129.6z"/>
			</g>
		</g>
		<g>
			<g>
				<path d="M81.5,136.4c1.9,0,1.9-3,0-3C79.5,133.4,79.5,136.4,81.5,136.4L81.5,136.4z"/>
			</g>
		</g>
		<g>
			<g>
				<path d="M92.5,119.5c-0.1,0-0.1,0-0.2,0c-0.8,0-1.5,0.7-1.5,1.5c0,0.8,0.7,1.5,1.5,1.5c0.1,0,0.1,0,0.2,0c0.8,0,1.5-0.7,1.5-1.5
					C94,120.2,93.4,119.5,92.5,119.5L92.5,119.5z"/>
			</g>
		</g>
		<g>
			<g>
				<path d="M109,121.9c1.9,0,1.9-3,0-3C107.1,118.9,107.1,121.9,109,121.9L109,121.9z"/>
			</g>
		</g>
		<g>
			<g>
				<path d="M117,124.6c1.9,0,1.9-3,0-3C115.1,121.6,115.1,124.6,117,124.6L117,124.6z"/>
			</g>
		</g>
		<g>
			<g>
				<path d="M126.6,124.6c1.9,0,1.9-3,0-3C124.7,121.6,124.7,124.6,126.6,124.6L126.6,124.6z"/>
			</g>
		</g>
		<g>
			<g>
				<path d="M135.4,121.6c1.9,0,1.9-3,0-3C133.5,118.6,133.5,121.6,135.4,121.6L135.4,121.6z"/>
			</g>
		</g>
		<g>
			<g>
				<path d="M143.1,130.7c1.9,0,1.9-3,0-3C141.1,127.7,141.1,130.7,143.1,130.7L143.1,130.7z"/>
			</g>
		</g>
		<g>
			<g>
				<path d="M157.3,128.1c1.9,0,1.9-3,0-3C155.4,125.1,155.4,128.1,157.3,128.1L157.3,128.1z"/>
			</g>
		</g>
		<g>
			<g>
				<path d="M203.2,123.2c1.9,0,1.9-3,0-3C201.2,120.2,201.2,123.2,203.2,123.2L203.2,123.2z"/>
			</g>
		</g>
		<g>
			<g>
				<path d="M207.7,121.8c1.9,0,1.9-3,0-3C205.7,118.8,205.7,121.8,207.7,121.8L207.7,121.8z"/>
			</g>
		</g>
	</g>
	<path style="opacity:0.1;" d="M206,84l-6-2c0,0,3,4,4,6C204,88,203,84,206,84z"/>
	<g style="opacity:0.1;">
		<path d="M67.9,113.4c-0.4,1.3-1,3.9-1,7.3c-6.5,5-17,11-29.3,11c-8.8,0-18.6-3.1-28.7-11.8c-1-0.9-1.2-2.5-0.3-3.5
			c0.9-1,2.5-1.2,3.5-0.3C37.5,138,60.5,120.4,67.9,113.4z"/>
	</g>
</g>
</svg>
