<?xml version="1.0" encoding="utf-8"?>
<!-- Generator: Adobe Illustrator 22.1.0, SVG Export Plug-In . SVG Version: 6.00 Build 0)  -->
<svg version="1.1" id="Layer_1" xmlns="http://www.w3.org/2000/svg" xmlns:xlink="http://www.w3.org/1999/xlink" x="0px" y="0px"
	 viewBox="0 0 256 256" style="enable-background:new 0 0 256 256;" xml:space="preserve">
<g>
	<path style="fill:#F0B681;" d="M117.5,136.1c0,0.1,0,0.3,0,0.4c-1.3,5-1.9,9.8-4.7,16.7c-4.5,11.3-6.8,37.4-1.7,51.6
		c0,0,6.8,10.2-9.1,11.3C86.1,217.3,90.7,206,90.7,206c2.3-4.5,0-12.5,0-12.5c-4.9-17.6-1.4-52.8-0.3-62.3c0,0,0.1-1.1,0.8-2.1
		C93.7,130.4,105.6,136.1,117.5,136.1z"/>
	<path style="fill:#F0B681;" d="M177.9,132.2c-0.1,0.1-0.2,0.2-0.4,0.3c-7.6,4.3-22.6,18.2-23.3,23.6c-1.1,7.9,6.8,44.2,3.4,53.3
		c-3.4,9.1-24.4,6.2-24.4,6.2c-30.6-3.4,2.3-12.5,2.3-12.5s-3.4-22.7-4.5-39.7c-0.8-12.8,3.4-22.3,4.6-28.2c0,0,0-0.3,0.1-0.8
		C150.4,133.3,173.8,131.5,177.9,132.2z"/>
	<path style="fill:#F0B681;" d="M34,56c0,0,17,1,13,16c0,0,12-1,8,13s0,12-6,13s-16,7-18-11l1-11c0,0-5.3-4.5-3.2-8.7
		C31,63,34,56,34,56z"/>
	<path style="fill:#F0B681;" d="M234.7,202.6c-3.4,4.5-5.7,5.7-9.1,6.8c-3.4,1.1-15.9,0-15.9,0c-4-4,9.6-14.2,11.9-21
		c2.3-6.8-6.8-11.3-26.1-22.7c-19.3-11.3-18-26.2-18-26.2l1-7c0-0.1-0.2-0.2-0.6-0.3c-4-0.7-27.5,1-42.3,2.3c-7.1,0.6-12.1,1-12.1,1
		c-2,0.4-4,0.6-6,0.6c-11.9,0.1-23.9-5.7-26.4-7c-0.3-0.2-0.5-0.3-0.5-0.3c-9.6-5.1-30,53.3-30,53.3c-1,0.9-2.7,5.3-3.4,6.2
		c-8.3,9.8-5.1,15.3-5.1,15.3s-4.5,11.3-13.6,1.1c-9.1-10.2,5.7-22.7,5.7-22.7c0-19.3,11.3-49.9,13.6-55.6
		c2.3-5.7-1.1-24.9-1.1-24.9c-3.4-1.1-4.5-3.4-4.5-3.4s-11.3,6.8-17,2.3c-5.7-4.5-7.9-14.7-4.5-20.4c0,0,2.3-1.1-1.1-5.7
		c-3.4-4.5,2.3-31.7,28.3-30.6c25.6,1.1,23.9,6.6,23.8,6.8c0.6-0.2,22.1-7.6,64.6,12.5c43.1,20.4,81.6,14.7,63.5,62.4
		c0,0-3.4,20.4,20.4,43.1C253.9,191.2,238.1,198,234.7,202.6z"/>
	<g>
		<path style="fill:#F0B681;" d="M58.9,198.3c-1,0-1.9-0.6-2.3-1.5c-0.1-0.2-1.9-4.5-1.9-8.4c0-1.4,1.1-2.5,2.5-2.5s2.5,1.1,2.5,2.5
			c0,2.8,1.5,6.4,1.5,6.4c0.5,1.3,0,2.7-1.3,3.3C59.6,198.2,59.3,198.3,58.9,198.3z"/>
	</g>
</g>
<g style="opacity:0;">
	<g style="opacity:0.1;">
		<path d="M62.1,74.5c-1.2,0-2.6-0.2-4.3-0.6c-1.3-0.4-2.1-1.7-1.8-3.1c0.4-1.3,1.7-2.1,3.1-1.8c1.3,0.4,4.5,1,5.4-0.5
			c0.9-1.5,0.3-4.9-2-7.4c-1.6-1.8-3-2.7-3.9-2.5c-1.3,0.3-2.5,3.1-2.9,4.4c-0.3,1.3-1.7,2.2-3,1.8c-1.3-0.3-2.2-1.7-1.8-3
			c0.2-0.7,1.9-6.9,6.5-8.1c2.8-0.7,5.8,0.7,8.8,4c3.1,3.5,4.9,9.5,2.5,13.4C68,72.6,66.1,74.5,62.1,74.5z"/>
	</g>
	<path style="opacity:0.1;" d="M117.5,136.1c0,0.1,0,0.3,0,0.4c-1.3,5-1.9,9.8-4.7,16.7c-4.5,11.3-6.8,37.4-1.7,51.6
		c0,0,6.8,10.2-9.1,11.3C86.1,217.3,90.7,206,90.7,206c2.3-4.5,0-12.5,0-12.5c-4.9-17.6-1.4-52.8-0.3-62.3c0,0,0.1-1.1,0.8-2.1
		C93.7,130.4,105.6,136.1,117.5,136.1z"/>
	<path style="opacity:0.1;" d="M177.9,132.2c-0.1,0.1-0.2,0.2-0.4,0.3c-7.6,4.3-22.6,18.2-23.3,23.6c-1.1,7.9,6.8,44.2,3.4,53.3
		c-3.4,9.1-24.4,6.2-24.4,6.2c-30.6-3.4,2.3-12.5,2.3-12.5s-3.4-22.7-4.5-39.7c-0.8-12.8,3.4-22.3,4.6-28.2c0,0,0-0.3,0.1-0.8
		C150.4,133.3,173.8,131.5,177.9,132.2z"/>
	<g style="opacity:0.1;">
		<path d="M58.9,198.3c-1,0-1.9-0.6-2.3-1.5c-0.1-0.2-1.9-4.5-1.9-8.4c0-1.4,1.1-2.5,2.5-2.5s2.5,1.1,2.5,2.5c0,2.8,1.5,6.4,1.5,6.4
			c0.5,1.3,0,2.7-1.3,3.3C59.6,198.2,59.3,198.3,58.9,198.3z"/>
	</g>
</g>
</svg>
