<?xml version="1.0" encoding="utf-8"?>
<!-- Generator: Adobe Illustrator 22.1.0, SVG Export Plug-In . SVG Version: 6.00 Build 0)  -->
<svg version="1.1" id="Layer_1" xmlns="http://www.w3.org/2000/svg" xmlns:xlink="http://www.w3.org/1999/xlink" x="0px" y="0px"
	 viewBox="0 0 256 256" style="enable-background:new 0 0 256 256;" xml:space="preserve">
<g>
	<path style="fill:#1C1C1C;" d="M155,90c6,6-7,11-18,8s-4-1-13-1s-14,6-21,3c-1.8-0.8-10-9-5-17s-6-7-9-12s7-5,7-5
		c3.9,0,4.1-1,4.5-1.6c21.2,0.8,32.9,0.9,44.5,1.6c10.5,0.7,12.4-0.8,17.3-1.1c2,0.6,3.3,1.1,3.7,1.1c1,0-1,9-11,11S149,84,155,90z"
		/>
	<path style="fill:#1C1C1C;" d="M53,120c-1,3,0,4-2,7s-6,4-4,7s0,5-3,5s-3,1-5,0s-3-20-3-26c0,0-3-7,3-6s7-5,8,1s0,8,2,8
		S54,117,53,120z"/>
	<path style="fill:#1C1C1C;" d="M66,80c-3,4-3,0-9,2s0,4,1,7s-10,1-10-2s2-6,0-10s-2-3-4-6s9-5,9-5s11-3,13-3c2-0.1,2,5-3,6s0,3,3,5
		S69,76,66,80z"/>
	<path style="fill:#1C1C1C;" d="M99,115c-2,4-6-3-9-1s-1,1-8,0s1-4,3-7s-1-3-4-6s9,0,9,0c3-1,4,0,5,4s1,0,5,3S101,111,99,115z"/>
	<path style="fill:#1C1C1C;" d="M198,106.2c-0.1,0.1-0.1,0.1-0.2,0.2c-1.6,1.7-7.6,9.6-12.3,16c0,0,0,0,0,0
		c-3.5,4.7-6.4,8.6-6.4,8.6s-6,3-9,0s-5-5-3-8s2-6,0-7s-2-5,0-6s2-3,5-2s5,2,6-3s2-9,5-9s3-4,5,0s-1,3,2,5s7-2,8,0
		S200,104.3,198,106.2z"/>
	<path style="fill:#1C1C1C;" d="M219,83c2,2,0,7-2,8s-7,0-10-3c-2.4-2.4-5.4-11.6-6.5-15.4c-0.3-1-6.5-5.6-6.5-5.6
		c-2-1.1-3.1-2.2-3.6-3.1c1.1-0.3,2-0.5,2.6-0.9c1.3-0.6,0.3-2.2-0.9-3.9c1-0.7,1.9-1.1,1.9-1.1c3-1,7,4,9,2s4,9,7,12s1,0,5-1
		s2,1,4,2s1,4,0,5S217,81,219,83z"/>
</g>
<g style="opacity:0;">
	<ellipse style="fill:#FFA1BC;" cx="71.5" cy="134" rx="15.5" ry="14"/>
	<g>
		<path style="fill:#F4F4F4;" d="M36,70c-1.7,1.7-2,3-2,3c-2.5,3.1-3.5,7.3-3.5,11.8c-3.3,7.4-4.1,16.1-3.1,20.4
			c2,8.8-1.6,25.6-1.8,26.3c-0.3,1.2-1.3,2-2.4,2c-0.2,0-0.4,0-0.5-0.1c-1.3-0.3-2.2-1.6-1.9-3c0-0.2,3.6-16.4,1.8-24.1
			C20.4,97.2,24.2,77.8,36,70z"/>
	</g>
	<path style="fill:#F4F4F4;" d="M47.5,185.5h-13l-4-36c4.9-3.5,6.1-9.3,6.4-12.4c0.9,4.3,2.5,8.6,5.1,12.9c0.5,0.8,0.9,1.5,1.4,2.4
		c-4.4,3.1-5.8,16.3-4.9,21.1C39.5,178.5,47.5,185.5,47.5,185.5z"/>
	<path style="fill:#F4F4F4;" d="M179.5,183.5l-12.6,2l-1.3-1L164,183l1-39c0,0,0.5-0.2,1.4-0.5l6.1,36L179.5,183.5z"/>
	<path style="fill:#F4F4F4;" d="M238,93l-9-13c1-11-5-13-5-13c-0.7-2.9-4.5-7.8-6.6-10.4c-0.8-1-1.4-1.6-1.4-1.6
		c-2-0.4-3.8-0.4-5.3-0.3c-7,0.6-9.7,5.3-9.7,5.3c-2.7-0.8-5.5-6.5-11.5-5.5c-1.3,0.2,0.9,2.5,2.6,4.6c1-0.7,1.9-1.1,1.9-1.1
		c3-1,7,4,9,2s4,9,7,12s1,0,5-1s2,1,4,2s1,4,0,5s-2,3,0,5s0,7-2,8s-7,0-10-3c-2.4-2.4-5.4-11.6-6.5-15.4c-0.3-1-6.5-5.6-6.5-5.6
		c-2-1.1-3.1-2.2-3.6-3.1C184.6,65.3,174,66,174,66c-5.8-1-9.2-1.2-11.7-1.1c2,0.6,3.3,1.1,3.7,1.1c1,0-1,9-11,11s-6,7,0,13
		s-7,11-18,8s-4-1-13-1s-14,6-21,3c-1.8-0.8-10-9-5-17s-6-7-9-12s7-5,7-5c3.9,0,4.1-1,4.5-1.6c-8-0.3-17.3-0.8-28.5-1.4
		c-23.3-1.3-32.4,3.5-35.9,6.9c0,0,0,0-0.1,0c-1.7,1.7-2,3-2,3c-2.5,3.2-3.5,7.3-3.5,11.8c-0.1,9.8,3.8,21.4,4.5,28.2
		c0.7,6.7,0,15.3,1.9,24.2c0.9,4.3,2.5,8.6,5.1,12.8c0.5,0.8,0.9,1.5,1.4,2.4C50.7,165.9,56,189,56,189h11c-10-9-11-33-11-33
		l5.4-11.4v0L66,135c0,0,8.6,2.7,19.7,4.7c11.2,2,24.8,3.3,34.3,0.3c19-6,31-1,31-1l6,50l12-1l-5-5l1-39c0,0,0.5-0.2,1.4-0.5
		c3.8-1.6,14.3-6.9,17.6-17.5c0.4-1.2,0.9-2.4,1.4-3.6c-3.5,4.7-6.4,8.6-6.4,8.6s-6,3-9,0s-5-5-3-8s2-6,0-7s-2-5,0-6s2-3,5-2
		s5,2,6-3s2-9,5-9s3-4,5,0s-1,3,2,5s7-2,8,0s2,3.3,0,5.2c3.4-3.2,6-5.2,6-5.2c6,6,12,1,12,1c6,4,12,2,12,2c4,3,8,0,8,0s4,0,5-4
		S238,93,238,93z M53,120c-1,3,0,4-2,7s-6,4-4,7s0,5-3,5s-3,1-5,0s-3-20-3-26c0,0-3-7,3-6s7-5,8,1s0,8,2,8S54,117,53,120z M48,87
		c0-3,2-6,0-10s-2-3-4-6s9-5,9-5s11-3,13-3c2-0.1,2,5-3,6s0,3,3,5s3,2,0,6s-3,0-9,2s0,4,1,7S48,90,48,87z M99,115c-2,4-6-3-9-1
		s-1,1-8,0s1-4,3-7s-1-3-4-6s9,0,9,0c3-1,4,0,5,4s1,0,5,3S101,111,99,115z"/>
	<g>
		<path style="fill:#F4F4F4;" d="M210.6,61.6c-0.7,0-1.4-0.2-1.9-0.7c-0.7-0.6-1.2-1.5-1.1-2.5c0-1,0.5-1.8,1.3-2.4
			c3.1-2.2,5.2-3,5.4-3.1l15.8-5.8l-13.5,10.1c-2.1,1.5-3.2,2.7-3.7,3.3C212.3,61.2,211.4,61.6,210.6,61.6z M211.7,60
			C211.7,60,211.7,60,211.7,60C211.7,60,211.7,60,211.7,60z"/>
	</g>
	<path style="fill:#FFA1BC;" d="M64.7,150.9L64.7,150.9c-0.8-0.3-1.1-1.2-0.8-2l2.3-5.5c0.3-0.8,1.2-1.1,2-0.8l0,0
		c0.8,0.3,1.1,1.2,0.8,2l-2.3,5.5C66.4,150.8,65.5,151.2,64.7,150.9z"/>
	<path style="fill:#FFA1BC;" d="M71.5,153L71.5,153c-0.8,0-1.5-0.7-1.5-1.5v-6c0-0.8,0.7-1.5,1.5-1.5l0,0c0.8,0,1.5,0.7,1.5,1.5v6
		C73,152.3,72.3,153,71.5,153z"/>
	<path style="fill:#FFA1BC;" d="M78.4,150.1L78.4,150.1c-0.7,0.4-1.6,0.1-2-0.7l-2.7-5.3c-0.4-0.7-0.1-1.6,0.7-2v0
		c0.7-0.4,1.6-0.1,2,0.7l2.7,5.3C79.4,148.9,79.1,149.8,78.4,150.1z"/>
	<g style="opacity:0.1;">
		<path style="fill:#1C1C1C;" d="M36,70c-1.7,1.7-2,3-2,3c-2.5,3.1-3.5,7.3-3.5,11.8c-3.3,7.4-4.1,16.1-3.1,20.4
			c2,8.8-1.6,25.6-1.8,26.3c-0.3,1.2-1.3,2-2.4,2c-0.2,0-0.4,0-0.5-0.1c-1.3-0.3-2.2-1.6-1.9-3c0-0.2,3.6-16.4,1.8-24.1
			C20.4,97.2,24.2,77.8,36,70z"/>
	</g>
	<path style="opacity:0.1;fill:#1C1C1C;" d="M47.5,185.5h-13l-4-36c4.9-3.5,6.1-9.3,6.4-12.4c0.9,4.3,2.5,8.6,5.1,12.9
		c0.5,0.8,0.9,1.5,1.4,2.4c-4.4,3.1-5.8,16.3-4.9,21.1C39.5,178.5,47.5,185.5,47.5,185.5z"/>
	<path style="opacity:0.1;fill:#1C1C1C;" d="M179.5,183.5l-12.6,2l-1.3-1L164,183l1-39c0,0,0.5-0.2,1.4-0.5l6.1,36L179.5,183.5z"/>
	<g style="opacity:0.1;">
		<path style="fill:#1C1C1C;" d="M210.6,61.6c-0.7,0-1.4-0.2-1.9-0.7c-0.7-0.6-1.2-1.5-1.1-2.5c0-1,0.5-1.8,1.3-2.4
			c3.1-2.2,5.2-3,5.4-3.1l15.8-5.8l-13.5,10.1c-2.1,1.5-3.2,2.7-3.7,3.3C212.3,61.2,211.4,61.6,210.6,61.6z M211.7,60
			C211.7,60,211.7,60,211.7,60C211.7,60,211.7,60,211.7,60z"/>
	</g>
</g>
</svg>
