<?xml version="1.0" encoding="utf-8"?>
<!-- Generator: Adobe Illustrator 22.1.0, SVG Export Plug-In . SVG Version: 6.00 Build 0)  -->
<svg version="1.1" id="Layer_1" xmlns="http://www.w3.org/2000/svg" xmlns:xlink="http://www.w3.org/1999/xlink" x="0px" y="0px"
	 viewBox="0 0 256 256" style="enable-background:new 0 0 256 256;" xml:space="preserve">
<g>
	<path style="fill:#36CA7A;" d="M29.1,145.1c-0.5,0.9-1.2,1.7-2,2.5C27.5,146.8,28.2,146,29.1,145.1z"/>
	<path style="fill:#36CA7A;" d="M234.5,99.5l-48.3,22.9c2.6,0,5.6,0.1,9.3,0.1c13,0,41-1,41-1s-28,15-44.5,12.5
		c-1.6-0.2-1.5,0.5-1.5,0.5s-17,19-31,21c0,0-25,9-35,6c0,0-7,6,15,11l10,2l-0.2,0.1c1.2,0,3.3,0.6,6.7,3.4c0,0-5-1-9,0c0,0,5,1,5,4
		c0,0-4-1-7-1c0,0,2,2,2,4c0,0-5.8,0-9.1-3.7l-0.4,0.2c0,0-33-13-34-18c-0.1-0.6-4,0-4,0s-34,4-52-12l-3.1,4c0.2,1.1,0.6,2.4,1.1,4
		l5,8l0,0c0.5,0.6,1.6,2,3.5,4.5l1,4c0,0-4-2-6-3c0,0,1,3,0,6c0,0-3-6-5-6c0,0,0,4-1,6c0,0-8-2.8-8.4-10.9c0-0.2,0-0.4,0-0.6
		c-1.2-1.3-2.7-3.1-4.2-5.2c-1.9-4.6-3.9-10.1-3.9-12.8c0-0.6,0.2-1.2,0.6-1.9c0.8-0.8,1.5-1.6,2-2.5c0,0,0,0,0,0
		c1.2-2,1.8-4.1,2-6.1c-1.2-1.7-4.6-7.4-4.6-16.4c0-11-5-41,40-57c41.4-14.7,59-11,59-11s-19.4,8.7-34,13c-17,5-52,19-25,45
		c0,0,19,0,24,0l7-4l5,6l7-6l5,6l6-6l6,6c0,0,24-1,32-6s14-6,14-6s2-6,8-7s7,5,7,5s40.9-7.6,50-10C252.5,86.5,243.5,94.5,234.5,99.5
		z"/>
	
		<line style="fill:none;stroke:#36CA7A;stroke-width:5;stroke-linecap:round;stroke-miterlimit:10;" x1="228.5" y1="102" x2="228.5" y2="106.5"/>
	
		<line style="fill:none;stroke:#36CA7A;stroke-width:5;stroke-linecap:round;stroke-miterlimit:10;" x1="221.5" y1="105" x2="221.5" y2="109.5"/>
	
		<line style="fill:none;stroke:#36CA7A;stroke-width:5;stroke-linecap:round;stroke-miterlimit:10;" x1="214.5" y1="106" x2="214.5" y2="112.5"/>
	
		<line style="fill:none;stroke:#36CA7A;stroke-width:5;stroke-linecap:round;stroke-miterlimit:10;" x1="206.5" y1="111.5" x2="206.5" y2="114.5"/>
</g>
<g style="opacity:0;">
	<path style="opacity:0.2;" d="M180.5,104.9c3.9,0,3.9-6,0-6C176.6,98.9,176.6,104.9,180.5,104.9L180.5,104.9z"/>
</g>
</svg>
