<?xml version="1.0" encoding="utf-8"?>
<!-- Generator: Adobe Illustrator 22.1.0, SVG Export Plug-In . SVG Version: 6.00 Build 0)  -->
<svg version="1.1" id="Layer_1" xmlns="http://www.w3.org/2000/svg" xmlns:xlink="http://www.w3.org/1999/xlink" x="0px" y="0px"
	 viewBox="0 0 256 256" style="enable-background:new 0 0 256 256;" xml:space="preserve">
<g>
	<g>
		<path style="fill:#9E6C32;" d="M209.3,111.3c-0.1,0.3-2.5,6-7.1,10.1c0.4-2.7,0.8-4.3,0.8-4.3c-1.2-1-2.5-1.9-3.7-2.7
			c2.2-2.7,3.5-5.7,3.5-5.7c0.7-1.8,2.8-2.7,4.5-1.9C209.1,107.5,210,109.5,209.3,111.3z"/>
	</g>
	<g>
		<path style="fill:#9E6C32;" d="M77.6,61.3c-0.3,0.3-0.5,0.5-0.9,0.6C77.1,61.7,77.3,61.5,77.6,61.3z"/>
	</g>
	<g>
		<path style="fill:#9E6C32;" d="M77.6,61.3c-0.3,0.2-0.6,0.4-0.9,0.6c-6.2,4.1-11.2,6.1-11.3,6.2l-0.3,0.1l-0.3,0
			c-0.1,0-1.4,0.2-3.6,0.2c-4.5,0-12.8-0.6-21.2-4h0c-0.4-0.2-0.8-0.3-1.2-0.5c-9.2-4-18.5-11.5-23.7-25.4c-0.5-1.3,0.2-2.7,1.5-3.2
			c1.3-0.5,2.7,0.2,3.2,1.5C23,45.3,28,51.1,33.4,55.1c-1.5-7,0.1-15,0.4-16.3c0.3-1.3,1.6-2.2,3-1.9c1.3,0.3,2.2,1.6,1.9,3
			c-0.9,4.1-2.2,16.2,2.6,19.7C51.8,64,62.1,63.5,64,63.3c1.1-0.5,5.2-2.3,10.1-5.6c7.7-11.5,3.8-28.9,3.8-29.1
			c-0.3-1.3,0.5-2.7,1.9-3c1.3-0.3,2.7,0.5,3,1.9c0.1,0.6,2.7,12.1-0.3,23.4c6.7-6.6,12.5-16,12-28.5c0-1.4,1-2.5,2.4-2.6
			c1.4,0,2.5,1,2.6,2.4C100.2,41.7,87.7,54.3,77.6,61.3z"/>
		<path style="fill:#9E6C32;" d="M40,64.4c-0.3,0-0.7-0.2-1-0.3c-0.1-0.1-0.2-0.1-0.3-0.2C39.2,64,39.6,64.2,40,64.4z"/>
	</g>
	<path style="fill:#9E6C32;" d="M192,184.5L171.5,233H163l14.5-42c0,0-24.8-14.3-28.4-33.3c18.1-4.1,27.2,2.6,27.2,2.6l0.9,0.7
		C178.4,168,181.8,179,192,184.5z"/>
	<path style="fill:#9E6C32;" d="M114.8,163.9l-8.2,69.1h-7.5l2.1-6.5l1.9-63.1C106.7,164,110.6,164.1,114.8,163.9z"/>
	<path style="fill:#9E6C32;" d="M245.3,233h-8.2l-20.2-42l-39.7-30l-0.9-0.7c0,0-9.2-6.7-27.2-2.6c-0.7,0.2-1.4,0.3-2.1,0.5
		c-11.2,3-22.4,5.2-32.1,5.7c-4.2,0.2-8.2,0.1-11.8-0.5c-2.4-0.4-4.7-1-6.7-1.8l0.4,71.4H85.8l3.8-7.5c0,0-2.4-46.5-8.5-65.6
		c0,0-2-7.5-12.6-20.8c-10.6-13.3-3.4-19.8-8.2-32.5C55.4,94,38,95.3,38,95.3l-5.8-10.3L54.9,68c2.5,0.3,4.7,0.4,6.4,0.4
		c2.2,0,3.6-0.1,3.6-0.2l0.3,0l0.3-0.1c0.1,0,4-1.6,9-4.7c2.1,0.7,4,2,5.5,4.3c0,0,10.6,23.6,10.3,27.7c0,0,16.7,18.1,42,13.3
		c24.2-4.6,40.8-12.9,67,5.8c1.2,0.9,2.4,1.8,3.7,2.7c0,0-0.4,1.6-0.8,4.3c-1.7,11.9-4.1,45.2,21.3,57.2L245.3,233z"/>
	<path style="fill:#9E6C32;" d="M74.5,71.4c0,0,1.4-9.6,15-13s13.7-1.7,13.7-1.7s-1.7,18.4-24.9,18.4C75.7,75.3,74.3,74.1,74.5,71.4
		z"/>
</g>
<g style="opacity:0;">
	<path style="opacity:0.2;" d="M55.7,75.2c0,0,3.4-7.2,11.3-3.1C67,72.1,63.7,77,55.7,75.2z"/>
	<g style="opacity:0.2;">
		<path d="M209.3,111.3c-0.1,0.3-2.5,6-7.1,10.1c0.4-2.7,0.8-4.3,0.8-4.3c-1.2-1-2.5-1.9-3.7-2.7c2.2-2.7,3.5-5.7,3.5-5.7
			c0.7-1.8,2.8-2.7,4.5-1.9C209.1,107.5,210,109.5,209.3,111.3z"/>
	</g>
	<g>
		<path d="M77.6,61.3c-0.3,0.3-0.5,0.5-0.9,0.6C77.1,61.7,77.3,61.5,77.6,61.3z"/>
	</g>
	<g style="opacity:0.2;">
		<path d="M77.6,61.3c-0.3,0.2-0.6,0.4-0.9,0.6c-0.8,0.5-1.5,1-2.3,1.5c-7.2-2.5-16.4,2.2-16.4,2.2L54.9,68
			c-4.3-0.5-9.5-1.5-14.9-3.7h0c-0.4-0.2-0.8-0.3-1.2-0.5c-9.2-4-18.5-11.5-23.7-25.4c-0.5-1.3,0.2-2.7,1.5-3.2
			c1.3-0.5,2.7,0.2,3.2,1.5C23,45.3,28,51.1,33.4,55.1c-1.5-7,0.1-15,0.4-16.3c0.3-1.3,1.6-2.2,3-1.9c1.3,0.3,2.2,1.6,1.9,3
			c-0.9,4.1-2.2,16.2,2.6,19.7C51.8,64,62.1,63.5,64,63.3c1.1-0.5,5.2-2.3,10.1-5.6c7.7-11.5,3.8-28.9,3.8-29.1
			c-0.3-1.3,0.5-2.7,1.9-3c1.3-0.3,2.7,0.5,3,1.9c0.1,0.6,2.7,12.1-0.3,23.4c6.7-6.6,12.5-16,12-28.5c0-1.4,1-2.5,2.4-2.6
			c1.4,0,2.5,1,2.6,2.4C100.2,41.7,87.7,54.3,77.6,61.3z"/>
		<path d="M40,64.4c-0.3,0-0.7-0.2-1-0.3c-0.1-0.1-0.2-0.1-0.3-0.2C39.2,64,39.6,64.2,40,64.4z"/>
	</g>
	<path style="opacity:0.2;" d="M192,184.5L171.5,233H163l14.5-42c0,0-24.8-14.3-28.4-33.3c18.1-4.1,27.2,2.6,27.2,2.6l0.9,0.7
		C178.4,168,181.8,179,192,184.5z"/>
	<path style="opacity:0.2;" d="M114.8,163.9l-8.2,69.1h-7.5l2.1-6.5l1.9-63.1C106.7,164,110.6,164.1,114.8,163.9z"/>
	<path style="opacity:0.2;" d="M74.5,71.4c0,0,1.4-9.6,15-13s13.7-1.7,13.7-1.7s-1.7,18.4-24.9,18.4C75.7,75.3,74.3,74.1,74.5,71.4z
		"/>
</g>
</svg>
