<?xml version="1.0" encoding="utf-8"?>
<!-- Generator: Adobe Illustrator 22.1.0, SVG Export Plug-In . SVG Version: 6.00 Build 0)  -->
<svg version="1.1" id="Layer_1" xmlns="http://www.w3.org/2000/svg" xmlns:xlink="http://www.w3.org/1999/xlink" x="0px" y="0px"
	 viewBox="0 0 256 256" style="enable-background:new 0 0 256 256;" xml:space="preserve">
<g style="opacity:0;">
	<g>
		<line style="fill:#FFC21A;" x1="88.9" y1="218.9" x2="85" y2="219.5"/>
	</g>
	<path style="fill:#FFC21A;" d="M85,219.5c0,0,0-29.5,0-41.5s-7-19-16-34s-6-25-2-37s-3-21-3-21c-11,4-19-2-19-2c-9-2-11-12-11-12
		l-2-8l19-8c0,0,9-20,20-20s25,0,30,17s12,31,21,38s54,46,59,56s19,32,8,56l-1,0.1c0,0.6,0,0.9,0,0.9c14,3,25-10,29-15s6-24,6-32
		s-11-20-11-20c2,0.8,3.9,1.9,5.6,3.3c5.4,4.3,8.8,10.7,10,17.5C236.6,211.5,201,217,201,217c-6,3-50,1-50,1s-6.6-0.3-12.3-5
		L103,165.7l-9.7,53.8H85z"/>
	<g>
		<path style="fill:#FFC21A;" d="M164.8,221.5H107c-1.4,0-2.5-1.1-2.5-2.5s1.1-2.5,2.5-2.5h57.8c1.4,0,2.5,1.1,2.5,2.5
			S166.1,221.5,164.8,221.5z"/>
	</g>
	<g>
		<path style="fill:#FFC21A;" d="M148.5,220c-0.4,0-0.7-0.1-1.1-0.3c-0.4-0.2-35.1-17.7-29.9-51.1c1.5-9.5,5.5-15.9,11.8-19
			c12.4-6.1,29.1,2.8,29.8,3.2c1.2,0.7,1.7,2.2,1,3.4c-0.7,1.2-2.2,1.7-3.4,1c-0.1-0.1-15.1-8.1-25.2-3.1c-4.8,2.4-7.9,7.5-9.1,15.3
			c-4.7,29.8,26.8,45.7,27.1,45.9c1.2,0.6,1.7,2.1,1.1,3.3C150.3,219.5,149.4,220,148.5,220z"/>
	</g>
	<g>
		<path style="fill:#FFC21A;" d="M90.9,222h-17c-1.4,0-2.5-1.1-2.5-2.5s1.1-2.5,2.5-2.5h17c1.4,0,2.5,1.1,2.5,2.5S92.3,222,90.9,222
			z"/>
	</g>
</g>
<g>
	<path style="opacity:0.1;" d="M73,44c0,0-3,6-1,12s6,16,8,17s18-2,17-19c0,0,2,21-18,22c0,0-7-9-8-18C70.7,54.9,69,51,73,44z"/>
	<path style="opacity:0.1;" d="M65.3,53.7c-0.4,1.6-2,2.6-3.6,2.3c-1.6-0.4-2.6-2-2.3-3.6c0,0,1-0.7,2.6-0.4S65.3,53.7,65.3,53.7z"
		/>
	<g style="opacity:0.1;">
		<line x1="88.9" y1="218.9" x2="85" y2="219.5"/>
	</g>
	<g style="opacity:0.1;">
		<path d="M167.3,219c0,1.4-1.1,2.5-2.5,2.5H107c-1.4,0-2.5-1.1-2.5-2.5s1.1-2.5,2.5-2.5h35c-9.6-6.5-28.4-22.7-24.5-47.9
			c1.5-9.5,5.5-15.9,11.8-19c12.4-6.1,29.1,2.8,29.8,3.2c1.2,0.7,1.7,2.2,1,3.4c-0.7,1.2-2.2,1.7-3.4,1c-0.1-0.1-15.1-8.1-25.2-3.1
			c-4.8,2.4-7.9,7.5-9.1,15.3c-4.7,29.8,26.8,45.7,27.1,45.9c0.6,0.3,1,0.7,1.2,1.2h14C166.1,216.5,167.3,217.6,167.3,219z"/>
	</g>
	<g style="opacity:0.1;">
		<path d="M90.9,222h-17c-1.4,0-2.5-1.1-2.5-2.5s1.1-2.5,2.5-2.5h17c1.4,0,2.5,1.1,2.5,2.5S92.3,222,90.9,222z"/>
	</g>
</g>
</svg>
