<?xml version="1.0" encoding="utf-8"?>
<!-- Generator: Adobe Illustrator 22.1.0, SVG Export Plug-In . SVG Version: 6.00 Build 0)  -->
<svg version="1.1" id="Layer_1" xmlns="http://www.w3.org/2000/svg" xmlns:xlink="http://www.w3.org/1999/xlink" x="0px" y="0px"
	 viewBox="0 0 256 256" style="enable-background:new 0 0 256 256;" xml:space="preserve">
<g style="opacity:0;">
	<path style="fill:#6B4F2A;" d="M159.8,152.1l-10.6,35.1l1.5,32.3l12.3,8.5l-14.3,0.2l-7.1-5.6l-1.3-32.3c0,0,14.6-41.4,31.5-49.5
		C169,144.5,164.9,149,159.8,152.1z"/>
	<polygon style="fill:#6B4F2A;" points="72.6,227.1 59.6,227.3 54.3,216.8 48,179.4 50.4,169.4 71.2,147.3 57,178.3 61.5,215.3 	"/>
	<path style="fill:#6B4F2A;" d="M228.1,46.9l-2.2,8.9c-1.3-0.9-2.2-1.3-2.2-1.3c-28.2-6.7-61.5,18.4-69.1,24.5l-5.2-4.1
		c0,0,20.5-23.9,57.1-27.9c0.9-8.9,4.9-19.1,6.4-15.5c1.1,2.7,3.7,9.3,5.8,14.9C221.8,46.3,224.9,46.5,228.1,46.9z"/>
	<g>
		<path style="fill:#6B4F2A;" d="M19.2,164.5c0,0.1-0.1,0.2-0.2,0.3c0,0,0,0,0,0c0,0.2-0.1,0.4-0.1,0.6c-0.9,8-5.9,10.1-5.9,10.1
			c-4.1-7-0.1-12-0.1-12s0,0,1.6-0.8c0-0.1,0.1-0.2,0.1-0.2c2.6-5.9,9.1-22.8,7.5-29.5c-1.8-7.6-2.5-25.6,2.9-34.2
			c0.4-0.6,0.8-1.2,1.3-1.7c-0.1,0.3-0.2,0.5-0.2,0.5s-1.1,4.4-1.6,11.2l0.2,0.3c0,0,0.4,1.5,1.3,3.9c-0.7,6.7-0.2,14.2,0.9,18.8
			C29.3,141.4,20.2,162.2,19.2,164.5z"/>
	</g>
	<path style="fill:#6B4F2A;" d="M244.3,110.2l-12.9,9.2l-10.5-8.3l-15.8-12.5c0,0-21.8,16.3-29.6,36.3c0,0-1.4,2.6-3.9,5.9
		c0,0,0,0,0,0c-16.9,8.1-31.5,49.5-31.5,49.5l1.3,32.3l0,1l5.5,4.6l-14.6,0.2l0.1-12.4l-0.3-28.1l11.6-37.6c0,0-44,3.5-56-2.4
		c-12.1-5.9-16-1.2-16-1.2l-0.5,0.5l-20.8,22.1l-12.3,13.1l7.3,38.4l8.6,8.4l-13.5,0.1l-1.4-13.8c-0.8-2.2-2.1-5.9-3.4-10
		c-3.3-10.3-7-23.6-4.6-26c0,0,0,0,0,0c0.9-0.9,1.9-3,3.1-5.8c3.8-9.5,8.4-26.7,9.4-30.8c-0.2-1.8-0.9-3.4-1.9-4.4
		c-8.3-8.1-13.3-19.5-15.5-25.4c-0.9-2.4-1.3-3.9-1.3-3.9l-0.2-0.3c0.5-6.8,1.6-11.2,1.6-11.2s0-0.2,0.2-0.5
		c1.1-3.7,8.8-25.4,33.6-23.9c27,1.7,59.2,18.3,93.1,7c0,0,0.6-0.5,1.6-1.3c7.6-6.1,40.9-31.2,69.1-24.5c0,0,0.9,0.4,2.2,1.3
		c4.3,3,13.5,11.1,12.1,26.5l2.8,12.4L244.3,110.2z"/>
</g>
<g>
	<path style="opacity:0.2;" d="M244.3,110.2l-12.9,9.1l-10.5-8.3l-1.8-2c0,0,4.7-4.8,8.2-9.6c3.5-4.8,11.8-9.6,11.8-9.6l1.7,4.8
		L244.3,110.2z"/>
	<path style="opacity:0.2;" d="M159.8,152.1l-10.6,35.1l1.5,32.3l12.3,8.5l-14.3,0.2l-7.1-5.6l-1.3-32.3c0,0,14.6-41.4,31.5-49.5
		C169,144.5,164.9,149,159.8,152.1z"/>
	<polygon style="opacity:0.2;" points="72.6,227.1 59.6,227.3 54.3,216.8 48,179.4 50.4,169.4 71.2,147.3 57,178.3 61.5,215.3 	"/>
	<path style="opacity:0.2;" d="M228.1,46.9l-2.2,8.9c-1.3-0.9-2.2-1.3-2.2-1.3c-28.2-6.7-61.5,18.4-69.1,24.5l-5.2-4.1
		c0,0,20.5-23.9,57.1-27.9c0.9-8.9,4.9-19.1,6.4-15.5c1.1,2.7,3.7,9.3,5.8,14.9C221.8,46.3,224.9,46.5,228.1,46.9z"/>
	<g style="opacity:0.2;">
		<path d="M19.2,164.5c0,0.1-0.1,0.2-0.2,0.3c0,0,0,0,0,0c0,0.2-0.1,0.4-0.1,0.6c-0.9,8-5.9,10.1-5.9,10.1c-4.1-7-0.1-12-0.1-12
			s0,0,1.6-0.8c0-0.1,0.1-0.2,0.1-0.2c2.6-5.9,9.1-22.8,7.5-29.5c-1.8-7.6-2.5-25.6,2.9-34.2c0.4-0.6,0.8-1.2,1.3-1.7
			c-0.1,0.3-0.2,0.5-0.2,0.5s-1.1,4.4-1.6,11.2l0.2,0.3c0,0,0.4,1.5,1.3,3.9c-0.7,6.7-0.2,14.2,0.9,18.8
			C29.3,141.4,20.2,162.2,19.2,164.5z"/>
	</g>
</g>
</svg>
