<?xml version="1.0" encoding="utf-8"?>
<!-- Generator: Adobe Illustrator 22.1.0, SVG Export Plug-In . SVG Version: 6.00 Build 0)  -->
<svg version="1.1" id="Layer_1" xmlns="http://www.w3.org/2000/svg" xmlns:xlink="http://www.w3.org/1999/xlink" x="0px" y="0px"
	 viewBox="0 0 256 256" style="enable-background:new 0 0 256 256;" xml:space="preserve">
<g style="opacity:0;">
	<g>
		<path style="fill:#74B2B5;" d="M252,157.9c0.1,2.5-1.9,4.5-4.4,4.6h-0.1c-2.4,0-4.4-1.9-4.5-4.4c-0.2-6.9-0.8-13.4-1.8-19.3
			c0.8-4.1,1.3-8.6,1.3-13.8c0-9.6-1.7-18.9-4.8-27.4C242.9,107.8,251.3,128.8,252,157.9z"/>
	</g>
	<path style="fill:#74B2B5;" d="M152.3,171.9V208H136v-36.8C141.2,171.6,146.7,171.8,152.3,171.9z"/>
	<path style="fill:#74B2B5;" d="M189.5,171.4V208h-14v-36.1C180.3,171.8,185,171.7,189.5,171.4z"/>
	<path style="fill:#74B2B5;" d="M132.5,25v0.2c-1.5-0.1-3-0.2-4.5-0.2H132.5z"/>
	<path style="fill:#74B2B5;" d="M30.5,172.2L30.5,172.2c0,0,0-0.1,0-0.1C30.5,172,30.5,171.9,30.5,172.2z"/>
	<g>
		<path style="fill:#74B2B5;" d="M52.2,157.1c-5.3-1.4-11.9-3.5-16.1-6.3c-2.1-1.3-2.7-4.1-1.4-6.2c1.3-2.1,4.1-2.7,6.2-1.4
			c2.5,1.6,6.6,3.1,10.6,4.3c0.2,2.9,0.5,5.7,0.6,8.4C52.2,156.3,52.2,156.7,52.2,157.1z"/>
	</g>
	<path style="fill:#74B2B5;" d="M242.5,125c0,5.1-0.4,9.7-1.3,13.8c-1.9,9-5.7,15.6-11.2,20.4V208h-40.5v-36.6
		c-4.5,0.3-9.2,0.4-14,0.5c-3.6,0-7.3,0.1-11,0.1c-4.1,0-8.2,0-12.3-0.1c-5.6-0.1-11-0.3-16.3-0.7V208H95.5v-48.3
		c-9.4-6.9-15-17.8-15-34.7c0-44.7,36.3-81,81-81c35.1,0,65,22.3,76.2,53.5c0,0,0,0,0,0C240.8,106.1,242.5,115.4,242.5,125z"/>
	<path style="fill:#74B2B5;" d="M132.5,25.2c-1.5-0.1-3-0.2-4.5-0.2h-18c-33.4,0-60.5,27.1-60.5,60.5l1.2,50
		c0.1,2.2,0.3,4.4,0.4,6.5c0.1,1.9,0.3,3.7,0.4,5.5c0.2,2.9,0.5,5.7,0.6,8.4c0,0.4,0,0.8,0.1,1.2c0.2,4,0.2,7.7,0,11
		c-0.3,3.6-1,6.6-1.9,8.3c-0.4,0.9-0.8,1.5-1.4,2c-0.6,0.6-1.4,1.1-2.6,1.5c-1.2,0.5-2.6,0.8-4.3,1c-1.8,0.2-3.2,0.2-4.6,0.1
		c-1.3-0.1-2.4-0.4-3.2-0.8c-0.9-0.4-1.5-1-2.1-1.7c-0.5-0.8-1.1-1.8-1.4-3c-0.2-0.6-0.3-1.3-0.3-1.9c0-0.3,0-0.6,0-1
		c0-0.2,0-0.3,0-0.4v0l-22.9-0.3c0,0.6,0,0.7,0.1,1l0.1,0.7c0,0.5,0.1,0.9,0.2,1.3c0.1,0.9,0.3,1.7,0.5,2.5c0.4,1.7,0.8,3.3,1.4,4.9
		c0.6,1.6,1.3,3.3,2.1,4.9c0.8,1.6,1.9,3.1,3,4.6c1.1,1.5,2.5,2.9,3.9,4.2c1.5,1.2,3,2.4,4.7,3.3c3.3,1.9,6.8,3,10.1,3.8
		c3.3,0.7,6.6,0.9,9.5,0.9c3,0,6.3-0.3,9.6-1.1c3.4-0.8,6.9-2.2,10.2-4.3c3.3-2.1,6.2-4.9,8.5-8c2.3-3,3.8-6.2,5-9.3
		c1.2-3.1,2-6,2.7-8.8c1.3-5.7,1.8-11,2.3-16l1.2-14.4c0.2-2.3,0.5-4.6,0.8-6.7L102,124l30.5-9.2C155.2,112.5,173,93.3,173,70
		S155.2,27.5,132.5,25.2z M80,110.5c-9.7,0-9.7-15,0-15C89.7,95.5,89.7,110.5,80,110.5z"/>
	<g>
		<path style="fill:#74B2B5;" d="M80,110.5c-9.7,0-9.7-15,0-15C89.7,95.5,89.7,110.5,80,110.5z"/>
	</g>
</g>
<g>
	<g style="opacity:0.2;">
		<path d="M252,157.9c0.1,2.5-1.9,4.5-4.4,4.6h-0.1c-2.4,0-4.4-1.9-4.5-4.4c-0.2-6.9-0.8-13.4-1.8-19.3c0.8-4.1,1.3-8.6,1.3-13.8
			c0-9.6-1.7-18.9-4.8-27.4C242.9,107.8,251.3,128.8,252,157.9z"/>
	</g>
	<path style="opacity:0.2;" d="M152.3,171.9V208H136v-36.8C141.2,171.6,146.7,171.8,152.3,171.9z"/>
	<path style="opacity:0.2;" d="M189.5,171.4V208h-14v-36.1C180.3,171.8,185,171.7,189.5,171.4z"/>
	<g style="opacity:0.2;">
		<path d="M52.2,157.1c-5.3-1.4-11.9-3.5-16.1-6.3c-2.1-1.3-2.7-4.1-1.4-6.2c1.3-2.1,4.1-2.7,6.2-1.4c2.5,1.6,6.6,3.1,10.6,4.3
			c0.2,2.9,0.5,5.7,0.6,8.4C52.2,156.3,52.2,156.7,52.2,157.1z"/>
	</g>
	<path style="opacity:0.2;fill:#FFFFFF;" d="M132.5,25.2c-1.5-0.1-3-0.2-4.5-0.2h-18c-33.4,0-60.5,27.1-60.5,60.5l1.2,50
		c0.1,2.2,0.3,4.4,0.4,6.5c0.1,1.9,0.3,3.7,0.4,5.5c0.2,2.9,0.5,5.7,0.6,8.4c0,0.4,0,0.8,0.1,1.2c0.2,4,0.2,7.7,0,11
		c-0.3,3.6-1,6.6-1.9,8.3c-0.4,0.9-0.8,1.5-1.4,2c-0.6,0.6-1.4,1.1-2.6,1.5c-1.2,0.5-2.6,0.8-4.3,1c-1.8,0.2-3.2,0.2-4.6,0.1
		c-1.3-0.1-2.4-0.4-3.2-0.8c-0.9-0.4-1.5-1-2.1-1.7c-0.5-0.8-1.1-1.8-1.4-3c-0.2-0.6-0.3-1.3-0.3-1.9c0-0.3,0-0.6,0-1
		c0-0.2,0-0.3,0-0.4v0l-22.9-0.3c0,0.6,0,0.7,0.1,1l0.1,0.7c0,0.5,0.1,0.9,0.2,1.3c0.1,0.9,0.3,1.7,0.5,2.5c0.4,1.7,0.8,3.3,1.4,4.9
		c0.6,1.6,1.3,3.3,2.1,4.9c0.8,1.6,1.9,3.1,3,4.6c1.1,1.5,2.5,2.9,3.9,4.2c1.5,1.2,3,2.4,4.7,3.3c3.3,1.9,6.8,3,10.1,3.8
		c3.3,0.7,6.6,0.9,9.5,0.9c3,0,6.3-0.3,9.6-1.1c3.4-0.8,6.9-2.2,10.2-4.3c3.3-2.1,6.2-4.9,8.5-8c2.3-3,3.8-6.2,5-9.3
		c1.2-3.1,2-6,2.7-8.8c1.3-5.7,1.8-11,2.3-16l1.2-14.4c0.2-2.3,0.5-4.6,0.8-6.7L102,124l30.5-9.2C155.2,112.5,173,93.3,173,70
		S155.2,27.5,132.5,25.2z M80,110.5c-9.7,0-9.7-15,0-15C89.7,95.5,89.7,110.5,80,110.5z"/>
	<g style="opacity:0.2;">
		<path d="M80,110.5c-9.7,0-9.7-15,0-15C89.7,95.5,89.7,110.5,80,110.5z"/>
	</g>
</g>
</svg>
