<?xml version="1.0" encoding="utf-8"?>
<!-- Generator: Adobe Illustrator 22.1.0, SVG Export Plug-In . SVG Version: 6.00 Build 0)  -->
<svg version="1.1" id="Layer_1" xmlns="http://www.w3.org/2000/svg" xmlns:xlink="http://www.w3.org/1999/xlink" x="0px" y="0px"
	 viewBox="0 0 256 256" style="enable-background:new 0 0 256 256;" xml:space="preserve">
<g style="opacity:0;">
	<path style="fill:#58E0CD;" d="M108.5,38.1c-2.2,1.4-4.4,2.9-6.7,4.5c-13.6,9.7-24,21.8-31.7,34.9C56.8,75.1,42,69.4,42,69.4
		C68.7,43.3,93.7,38.3,108.5,38.1z"/>
	<path style="fill:#58E0CD;" d="M235.1,19.9c0,0,0,44.4-41.3,58.7c-31.1,10.8-35.1,5.4-74.3,37.4c-39.2,32-43.4,83.6-43.4,83.6
		s37.2,8.3,47.5,34.1c0,0-48.9,12.2-62.3-20.8c0,0-22.4,37.2-52.3,29.1c0,0,3.1-29.9,39.2-42.3c0,0-9.3-69.4,22-122
		c7.8-13.1,18.1-25.2,31.7-34.9c2.2-1.6,4.4-3.1,6.7-4.5C174.2-4.3,235.1,19.9,235.1,19.9z"/>
</g>
<g>
	<g style="opacity:0.1;">
		<path d="M193.8,38.2c7.7,0,7.7-12,0-12C186,26.2,186,38.2,193.8,38.2L193.8,38.2z"/>
	</g>
	<g style="opacity:0.1;">
		<path d="M187.1,69.9c-0.3,0-0.6-0.1-0.9-0.2c-20.6-10.7-23.8-41.5-23.9-42.8c-0.1-1.1,0.7-2.1,1.8-2.2c1.1-0.1,2.1,0.7,2.2,1.8
			c0,0.3,3.1,30,21.7,39.6c1,0.5,1.4,1.7,0.9,2.7C188.5,69.5,187.9,69.9,187.1,69.9z"/>
	</g>
	<path style="opacity:0.1;" d="M108.5,38.1c-2.2,1.4-4.4,2.9-6.7,4.5c-13.6,9.7-24,21.8-31.7,34.9C56.8,75.1,42,69.4,42,69.4
		C68.7,43.3,93.7,38.3,108.5,38.1z"/>
</g>
</svg>
