<?xml version="1.0" encoding="utf-8"?>
<!-- Generator: Adobe Illustrator 22.1.0, SVG Export Plug-In . SVG Version: 6.00 Build 0)  -->
<svg version="1.1" id="Layer_1" xmlns="http://www.w3.org/2000/svg" xmlns:xlink="http://www.w3.org/1999/xlink" x="0px" y="0px"
	 viewBox="0 0 256 256" style="enable-background:new 0 0 256 256;" xml:space="preserve">
<g style="opacity:0;">
	<path style="fill:#F47925;" d="M76.5,144.3c-2.6,4.1-4,8-4.5,11.7c-40.4,0-45.3-48.9-28.5-77.5c5.6-9.6,8.2-18.9,9-27.4
		c2.1-22.4-8.2-38.8-8.2-38.8S78.5,18.1,89.1,51c0.6,2,1.2,4,1.7,6.2c7.1,33.7-13.3,47.8-19.1,63.6
		C67.7,131.8,71.7,139.5,76.5,144.3z"/>
	<path style="fill:#F47925;" d="M168.9,63.3c-6,1.1-10.2,3.2-13.3,5.7c-0.6-4.5-0.2-12.5,7.3-21.3C162.8,47.7,164.2,57.3,168.9,63.3
		z"/>
	<path style="fill:#F47925;" d="M197.1,233.9l-11.9,1.7l-0.7-24.1c0,0-2.9-22.5-7.8-34.9c5.7-2.6,13-6.6,19.9-16.2
		c-0.6,12.3-2,33.9-5.2,51.3L197.1,233.9z"/>
	<path style="fill:#F47925;" d="M123.9,235.6h-10.8l-6.8-25.1c0,0,5.5-13.7,3.9-20.4c-1.2-4.9-4.1-11.4-5.5-14.5
		c4.8-1.1,11.1-1.7,18-1.9c1.7,5.3,4.9,18.1-0.9,28.9C114.4,216.4,113.9,215.6,123.9,235.6z"/>
	<path style="fill:#F47925;" d="M196.9,159.9c-0.1,0.2-0.3,0.4-0.4,0.5c-6.9,9.5-14.2,13.5-19.9,16.2c-4.1,1.9-7.3,3-9.1,4.9
		c-4.2,4.7-4.4,36.6-4.4,36.6l4.3,17.5h-9.7l-2.6-19.1l-5.8-31.3c0,0-1.7-11.1-10.7-11.4c-5.4-0.2-10.8-0.2-15.8-0.1
		c-6.9,0.2-13.3,0.8-18,1.9c-4.8,1.1-8.1,2.8-8.9,5.1c-2.2,6.4,1.4,13-8.6,24.9c-10,11.9,1,29.9,1,29.9H77.9l-2.6-20
		c0,0-0.7-9.8,4.2-19.7c4.9-10.1-9.8-23.2-7.4-40c0.5-3.7,1.9-7.6,4.5-11.7c0.1-0.2,0.3-0.5,0.5-0.7c2.7-4,7-6.5,11.7-7.1
		c6.5-0.8,17.9-2.3,34.3-4.8c37.9-5.8,30.8-27.4,30.8-27.4s-24.2,7.2-28.3-10c0,0,15.8-5.8,20-11.6c2.5-3.4,4.6-9.1,10.2-13.6
		c3.1-2.5,7.3-4.6,13.3-5.7c1.5-0.3,3.1-0.5,4.8-0.6l7.5-19.1c0,0,10,11.6,4.2,20.8c0,0,15,17.5,15,32.8
		C200.3,97.2,208.8,143,196.9,159.9z"/>
</g>
<g>
	<path style="opacity:0.2;" d="M76.5,144.3c-2.6,4.1-4,8-4.5,11.7c-40.4,0-45.3-48.9-28.5-77.5c5.6-9.6,8.2-18.9,9-27.4h36.6
		c0.6,2,1.2,4,1.7,6.2c7.1,33.7-13.3,47.8-19.1,63.6C67.7,131.8,71.7,139.5,76.5,144.3z"/>
	<g style="opacity:0.2;">
		<path d="M159,85.6c3.9,0,3.9-6,0-6C155.2,79.6,155.1,85.6,159,85.6L159,85.6z"/>
	</g>
	<path style="opacity:0.9;fill:#FFFFFF;" d="M52.5,51c2.1-22.4-8.2-38.8-8.2-38.8S78.5,18.1,89.1,51H52.5z"/>
	<path style="opacity:0.2;" d="M168.9,63.3c-6,1.1-10.2,3.2-13.3,5.7c-0.6-4.5-0.2-12.5,7.3-21.3C162.8,47.7,164.2,57.3,168.9,63.3z
		"/>
	<path style="opacity:0.2;" d="M197.1,233.9l-11.9,1.7l-0.7-24.1c0,0-2.9-22.5-7.8-34.9c5.7-2.6,13-6.6,19.9-16.2
		c-0.6,12.3-2,33.9-5.2,51.3L197.1,233.9z"/>
	<path style="opacity:0.2;" d="M123.9,235.6h-10.8l-6.8-25.1c0,0,5.5-13.7,3.9-20.4c-1.2-4.9-4.1-11.4-5.5-14.5
		c4.8-1.1,11.1-1.7,18-1.9c1.7,5.3,4.9,18.1-0.9,28.9C114.4,216.4,113.9,215.6,123.9,235.6z"/>
</g>
</svg>
