<?xml version="1.0" encoding="utf-8"?>
<!-- Generator: Adobe Illustrator 22.1.0, SVG Export Plug-In . SVG Version: 6.00 Build 0)  -->
<svg version="1.1" id="Layer_1" xmlns="http://www.w3.org/2000/svg" xmlns:xlink="http://www.w3.org/1999/xlink" x="0px" y="0px"
	 viewBox="0 0 256 256" style="enable-background:new 0 0 256 256;" xml:space="preserve">
<g style="opacity:0;">
	<g>
		<path style="fill:#83ED45;" d="M206,184.9h9c4.4,0,8,3.6,8,8s-3.6,8-8,8l-43.9,0c-2.3,0-4.5-1-6-2.7c2.5-1.1,4.8-2.3,7.1-3.7
			c9.3-5.5,17.2-13,23.2-21.9c18-10.5,38.5-27,38.9-48.1c0.1-2.8-0.2-4.3-0.5-5.1c-2.3,0.5-9.7,3.1-26.2,18.6
			c0.2-2.1,0.3-4.3,0.3-6.4c0-4.3-0.8-8.7-2.3-13.2c15.3-12.9,26.2-17.3,34.4-14.1c4.8,1.8,10.5,6.9,10.3,20.6
			C249.8,152.2,226.7,172.3,206,184.9z"/>
	</g>
	<g>
		<path style="fill:#83ED45;" d="M105.6,198.8c-1.4,1.4-3.4,2.2-5.5,2.2l-53.3,0c-4.4,0-8-3.6-8-8c0-4.4,3.6-8,8-8h17.6
			c-21.2-12.6-44.8-32.7-45.3-60.1c-0.3-13.7,5.4-18.8,10.3-20.6c8.2-3.1,19.1,1.3,34.4,14.2c-1.5,4.5-2.3,8.9-2.3,13.2
			c0,2.2,0.1,4.3,0.3,6.5c-16.6-15.6-24-18.3-26.2-18.7c-0.2,0.8-0.5,2.4-0.5,5.1c0.4,19.7,19.6,36.1,38.4,47.2
			c6.2,9.4,14.4,17.3,24.1,23C100.2,196.2,102.8,197.6,105.6,198.8z"/>
	</g>
	<path style="fill:#83ED45;" d="M208,131.6c0,2.2-0.1,4.3-0.3,6.4c-1.1,12.8-5.5,24.6-12.3,34.6c-6,8.9-14,16.4-23.2,21.9
		c-2.3,1.4-4.7,2.6-7.1,3.7c-9.2,4.2-19.5,6.6-30.3,6.6c-10.4,0-20.2-2.2-29.2-6c-2.7-1.2-5.4-2.5-7.9-4c-9.7-5.7-18-13.6-24.1-23
		c-6.5-9.8-10.6-21.3-11.7-33.7c-0.2-2.1-0.3-4.3-0.3-6.5c0-4.3,0.8-8.7,2.3-13.2c5.5-16.6,19.9-34,34.3-48.2
		c3.7-3.7,7.4-7.1,11-10.3c-0.5-0.6-1-1.3-1.4-1.9c-1.3-2.2-2-4.7-2-7.4c0-8,6.5-14.4,14.5-14.4c6.6,0,12.2,4.4,13.9,10.5
		c0,0,0.6-0.1,1.6-0.1c1.8-6,7.3-10.3,13.9-10.3c8,0,14.4,6.5,14.4,14.4c0,2.8-0.8,5.3-2.1,7.5c-0.4,0.7-0.8,1.3-1.3,1.8
		c1.4,1.2,2.8,2.5,4.2,3.8c16.4,15.2,34.8,35.4,41.1,54.6C207.2,122.8,208,127.3,208,131.6z"/>
</g>
<g>
	<circle style="fill:#FFFFFF;" cx="149.4" cy="50.5" r="7.2"/>
	<circle style="fill:#FFFFFF;" cx="120.1" cy="50.5" r="7.2"/>
	<g style="opacity:0.2;">
		<path d="M134,77.3c-11.8,0-19.9-2.5-20.4-2.7c-0.8-0.3-1.2-1.1-1-1.9c0.2-0.8,1.1-1.2,1.9-1c0.2,0.1,18.3,5.6,39.2,0
			c0.8-0.2,1.6,0.3,1.8,1.1c0.2,0.8-0.3,1.6-1.1,1.8C147,76.6,140,77.3,134,77.3z"/>
	</g>
	<path style="opacity:0.4;fill:#FFFFFF;" d="M172.2,161.8v32.7c-11,6.5-23.8,10.3-37.4,10.3c-13.5,0-26.2-3.7-37.1-10.1v-32.9
		c0-20.6,16.7-37.3,37.3-37.3c10.3,0,19.6,4.2,26.4,10.9C168,142.2,172.2,151.5,172.2,161.8z"/>
	<g>
		<path d="M148.8,52.5c1.9,0,1.9-3,0-3C146.8,49.5,146.8,52.5,148.8,52.5L148.8,52.5z"/>
	</g>
	<g>
		<path d="M121.8,52.5c1.9,0,1.9-3,0-3C119.8,49.5,119.8,52.5,121.8,52.5L121.8,52.5z"/>
	</g>
	<g style="opacity:0.2;">
		<path d="M206,184.9h9c4.4,0,8,3.6,8,8s-3.6,8-8,8l-43.9,0c-2.3,0-4.5-1-6-2.7c2.5-1.1,4.8-2.3,7.1-3.7c9.3-5.5,17.2-13,23.2-21.9
			c18-10.5,38.5-27,38.9-48.1c0.1-2.8-0.2-4.3-0.5-5.1c-2.3,0.5-9.7,3.1-26.2,18.6c0.2-2.1,0.3-4.3,0.3-6.4c0-4.3-0.8-8.7-2.3-13.2
			c15.3-12.9,26.2-17.3,34.4-14.1c4.8,1.8,10.5,6.9,10.3,20.6C249.8,152.2,226.7,172.3,206,184.9z"/>
	</g>
	<g style="opacity:0.2;">
		<path d="M105.6,198.8c-1.4,1.4-3.4,2.2-5.5,2.2l-53.3,0c-4.4,0-8-3.6-8-8c0-4.4,3.6-8,8-8h17.6c-21.2-12.6-44.8-32.7-45.3-60.1
			c-0.3-13.7,5.4-18.8,10.3-20.6c8.2-3.1,19.1,1.3,34.4,14.2c-1.5,4.5-2.3,8.9-2.3,13.2c0,2.2,0.1,4.3,0.3,6.5
			c-16.6-15.6-24-18.3-26.2-18.7c-0.2,0.8-0.5,2.4-0.5,5.1c0.4,19.7,19.6,36.1,38.4,47.2c6.2,9.4,14.4,17.3,24.1,23
			C100.2,196.2,102.8,197.6,105.6,198.8z"/>
	</g>
</g>
</svg>
