<?xml version="1.0" encoding="utf-8"?>
<!-- Generator: Adobe Illustrator 22.1.0, SVG Export Plug-In . SVG Version: 6.00 Build 0)  -->
<svg version="1.1" id="Layer_1" xmlns="http://www.w3.org/2000/svg" xmlns:xlink="http://www.w3.org/1999/xlink" x="0px" y="0px"
	 viewBox="0 0 256 256" style="enable-background:new 0 0 256 256;" xml:space="preserve">
<g style="opacity:0;">
	<g>
		<path style="fill:#E1D725;" d="M222.8,168.2c-0.1,1.3-1.2,2.3-2.5,2.3c-0.1,0-0.2,0-0.2,0c-0.5,0-13.3-1.3-19-15.7
			c-1.6-4.1-5.3-8.3-8.9-11.6c-1.7-4.3-4-8.2-5.9-11.1c1.4,1,15.5,10.5,19.5,20.8c4.5,11.5,14.6,12.5,14.7,12.5
			C221.9,165.6,222.9,166.8,222.8,168.2z"/>
	</g>
	<path style="fill:#E1D725;" d="M175.3,181.6c0,0-3.9,13.8-2.9,19.6c0,0-13.1,21-17.1,39.4h-4.5l8.5-36.6c0,0,6.4-32,1-38.3l0.3-1.9
		c2.5-1.5,4.4-3.1,4.4-3.1c1.7,4.1,6.3,11.5,11.2,18.7L175.3,181.6z"/>
	<path style="fill:#E1D725;" d="M104.8,197.1c-0.3,5,17.3,43.5,17.3,43.5h-5.4l-16.8-35.1c0,0-3-2.9-3.5-7.3
		c-0.5-4.4,18.9-37.2,17.7-42.5c3.1,5.2,6.2,10.3,7.3,13.8c0.3,0.8,0.5,1.8,0.8,2.9l-1.8,2.1C120.3,174.5,105.1,192.1,104.8,197.1z"
		/>
	<g>
		<path style="fill:#E1D725;" d="M54.7,17.1c-0.4,1.3-1.6,2-2.8,1.8c-0.9,0.7-1.9,3.7-2.3,5.7l-2.7,0.5c-1,0.2-1.9,0.7-2.4,1.4
			c0-0.2-0.1-0.3-0.1-0.5c0-1.6,1.2-8.7,4.5-11.2c1.2-0.9,2.6-1.2,4-0.8C54.3,14.4,55.1,15.8,54.7,17.1z"/>
	</g>
	<path style="fill:#E1D725;" d="M207.2,240.6h-5.4l-11.5-41c0,0-7.3-9.9-14.2-20.1c-4.9-7.2-9.5-14.6-11.2-18.7c0,0-1.9,1.6-4.4,3.1
		c-2.7,1.7-6.2,3.3-8.9,2.9c-5.1-0.9-15.9-5.1-15.9-5.1s-2.5,7.6-0.6,22.3c1.9,14.6,1.4,15.8,1,18.6c-0.4,2.9-0.9,38.1-0.9,38.1
		h-4.2l-4-36.6c0,0-2.6-21.4-5.1-31.6c-0.3-1.1-0.5-2.1-0.8-2.9c-1.1-3.4-4.2-8.6-7.3-13.8v0c-4.3-7-8.7-14.1-8.5-16.6
		c0.4-4.4,6.5-14.6,4.1-21.1c-2.4-6.5-30-30.6-33.9-39c-3.9-8.4-20.9-33.1-20.9-33.1s-3.3,1.4-8,1.9s-4.9-1.8-6.5-0.9
		c-1.6,0.8-8.9,5.1-10,2.3c-1.1-2.8,2.9-10.6,7.4-12.8c4.5-2.1,6.1-6.3,6.1-8c0-0.7,0.2-1.3,0.6-1.8c0.5-0.8,1.4-1.3,2.4-1.4
		l2.7-0.5l0.3-0.1c3.4-0.7,6.9-0.1,9.8,1.8c0.8,0.5,1.6,1,2.4,1.6c3.6,2.5,16.5,28.9,31.3,41c14.8,12.1,35,19.9,40.4,23.9
		c5.4,4,14.8,20,24.5,24s22.8,7.6,25.3,11.3c0.6,0.9,1.7,2.3,2.9,4.1h0c1.9,2.9,4.3,6.8,5.9,11.1c1.4,3.6,2.3,7.6,2.1,11.4
		c-0.8,11.1-6,16.1-2,23.3c4,7.1,8.4,12.1,10.1,16c1.8,3.9-5.3,7.9,0,21.3L207.2,240.6z"/>
	<path style="fill:#E1D725;" d="M61.8,17.3"/>
	<g>
		<path style="fill:#E1D725;" d="M54.9,27c-0.1,0-0.2,0-0.3,0c-1.4-0.2-2.3-1.4-2.2-2.8c0.7-5.9,5.2-9.6,5.4-9.7
			c1.1-0.9,2.7-0.7,3.5,0.4c0.9,1.1,0.7,2.6-0.4,3.5c-0.1,0-3.1,2.6-3.6,6.4C57.3,26.1,56.2,27,54.9,27z"/>
	</g>
</g>
<g>
	<circle style="opacity:0.2;" cx="46.8" cy="35.2" r="1.7"/>
	<path style="opacity:0.1;" d="M118.9,94.5c-2.4,0.4-4.5,5.3-3.2,6.5s9.3,3.2,9.3,2s1-8.8,0-9.5S119.9,94.3,118.9,94.5z"/>
	<path style="opacity:0.1;" d="M133,117.3c-1.6,1.1,2.3,7.3,4.3,7.2s10-1.7,9.7-4.3C146.7,117.5,135.5,115.7,133,117.3z"/>
	<path style="opacity:0.1;" d="M159.3,125.3c-2.5-0.3-8.5,2.5-7.8,4.3c0.7,1.8-0.2,7.2,3.2,6.7s9-7,9.2-8.3
		C164,126.7,161.2,125.5,159.3,125.3z"/>
	<path style="opacity:0.1;" d="M177.4,130.8c-1,0.4-2.3,2.3-2,3.3s4.5,2.7,4.4,0.8S178.3,130.4,177.4,130.8z"/>
	<path style="opacity:0.1;" d="M136.7,103.4c-1.6-0.5-3.2,0.8-3.2,1.6s1.4,3.5,2.2,3.3s2.7-2.5,2.6-3
		C138.2,104.8,137.1,103.5,136.7,103.4z"/>
	<path style="opacity:0.1;" d="M108.5,84.3c-0.8,0.2-2,0.9-1.6,1.7s2.8,1.9,2.8,1.3S109.5,84,108.5,84.3z"/>
	<g style="opacity:0.1;">
		<path d="M222.8,168.2c-0.1,1.3-1.2,2.3-2.5,2.3c-0.1,0-0.2,0-0.2,0c-0.5,0-13.3-1.3-19-15.7c-1.6-4.1-5.3-8.3-8.9-11.6
			c-1.7-4.3-4-8.2-5.9-11.1c1.4,1,15.5,10.5,19.5,20.8c4.5,11.5,14.6,12.5,14.7,12.5C221.9,165.6,222.9,166.8,222.8,168.2z"/>
	</g>
	<path style="opacity:0.1;" d="M175.3,181.6c0,0-3.9,13.8-2.9,19.6c0,0-13.1,21-17.1,39.4h-4.5l8.5-36.6c0,0,6.4-32,1-38.3l0.3-1.9
		c2.5-1.5,4.4-3.1,4.4-3.1c1.7,4.1,6.3,11.5,11.2,18.7L175.3,181.6z"/>
	<path style="opacity:0.1;" d="M104.8,197.1c-0.3,5,17.3,43.5,17.3,43.5h-5.4l-16.8-35.1c0,0-3-2.9-3.5-7.3
		c-0.5-4.4,18.9-37.2,17.7-42.5c3.1,5.2,6.2,10.3,7.3,13.8c0.3,0.8,0.5,1.8,0.8,2.9l-1.8,2.1C120.3,174.5,105.1,192.1,104.8,197.1z"
		/>
	<g style="opacity:0.1;">
		<path d="M54.7,17.1c-0.4,1.3-1.6,2-2.8,1.8c-0.9,0.7-1.9,3.7-2.3,5.7l-2.7,0.5c-1,0.2-1.9,0.7-2.4,1.4c0-0.2-0.1-0.3-0.1-0.5
			c0-1.6,1.2-8.7,4.5-11.2c1.2-0.9,2.6-1.2,4-0.8C54.3,14.4,55.1,15.8,54.7,17.1z"/>
	</g>
	<path style="opacity:0.1;" d="M61.8,17.3"/>
	<g style="opacity:0.1;">
		<path d="M54.9,27c-0.1,0-0.2,0-0.3,0c-1.4-0.2-2.3-1.4-2.2-2.8c0.7-5.9,5.2-9.6,5.4-9.7c1.1-0.9,2.7-0.7,3.5,0.4
			c0.9,1.1,0.7,2.6-0.4,3.5c-0.1,0-3.1,2.6-3.6,6.4C57.3,26.1,56.2,27,54.9,27z"/>
	</g>
</g>
</svg>
