<?xml version="1.0" encoding="utf-8"?>
<!-- Generator: Adobe Illustrator 22.1.0, SVG Export Plug-In . SVG Version: 6.00 Build 0)  -->
<svg version="1.1" id="Layer_1" xmlns="http://www.w3.org/2000/svg" xmlns:xlink="http://www.w3.org/1999/xlink" x="0px" y="0px"
	 viewBox="0 0 256 256" style="enable-background:new 0 0 256 256;" xml:space="preserve">
<g>
	<path style="fill:#A4A4A4;" d="M238.1,203.4c-2.4,8.8-20,14.9-24.4,6.4c-4.3-8.5-5.5-19.5-5.5-19.5s-9.7,10.7-15.6,6.4
		c-5.9-4.3-16.8-34.1-19-47c-1.7-9.7-4.1-21.2-6.8-29.4c3.6-6.5,6.4-13.1,6.9-19.6c0.2-3.2,0.3-6.8,0.2-10.5l1.7-1
		c7.3,9.8,17.3,11.1,24.1,9c2.4,9.7,11.1,44,20.2,56c10.6,14,15.7,10.2,9.3,19.8C229.2,174,240.4,194.7,238.1,203.4z"/>
	<path style="fill:#A4A4A4;" d="M60.9,186.5c0,0-12.8,14.8-11.7,21.4c1.2,6.5,10.6,9.2,7.9,12.8c-2.8,3.7-2.8,3.7-2.8,3.7
		s-39.6,3.4-40.9-9.7c-1.3-13.1,9-38.4,17.3-48.4c0,0,0.4-0.6,1.2-1.4c9.2,9.6,23.1,17.2,29.7,20.5
		C61.5,185.8,61.2,186.2,60.9,186.5z"/>
	<path style="fill:#A4A4A4;" d="M209.5,57.3c0,0-11.3-10.1-17.7-2.8c-6.4,7.3,1.6,19.8,1.6,19.8s-6.4,6.4-5.4,10.9
		c1,4.5,3.9,11.8,14.4,11.8c10.5,0.1,4.3-18.6,4.3-18.6L209.5,57.3z"/>
	<path style="fill:#A4A4A4;" d="M211,57.1c-1.8,8.5-4.2,14.1-4.3,19.1c-0.1,5,3.5,15.2-2.2,19.7c-1.3,1-2.9,1.8-4.8,2.3
		c-6.8,2-16.8,0.7-24.1-9l-1.7,1c0.1,3.7,0,7.3-0.2,10.5c-0.4,6.4-3.3,13-6.9,19.6c-4.9,8.9-11,17.6-14.4,25.8
		c-5.8,14.2,5,15.5,5,33.5c0,18.1-10.2,17.3-10.2,17.3c6,14.1,5.2,23.8-10.2,25.4c-7.1,0.7-9.3-0.1-10.9-3.2
		c0.3-0.1,0.6-0.2,0.9-0.3l-2.5-9.7c-0.5-0.1-1.4-0.3-2.5-0.5c-1.3-3-3.2-6.7-5.9-10.9c-13.2-20.4,0-39,0-39s0,0,4.5-11.3
		c1.2-3,1.9-6.5,2.2-10l-0.4-1.5c-6.8,17.6-30.1,20.4-30.1,20.4l-1.5,0.1c0.7,3.3,0.9,5.8,1.3,7c1,3.4,5.5,12.3,10.2,17.8
		c4.7,5.5,2.7,19.7,10.5,25.2c1.2,0.9,6.1,1.6,9.3,2.2c2.2,4.9,3,8.3,4.2,10.6c-13.7,5.4-37.2,11.6-44.7,5c-11.3-10-16-37-16-37
		s-1.4-0.6-3.8-1.8c-6.6-3.3-20.5-10.8-29.7-20.5c-3.6-3.8-6.6-8-8-12.3c-6.3-19.1,0.8-45.3,6.8-52.9c6-7.6,22.5-16.8,34.3-19.9
		c11.8-3.1,37.7-4.7,46.4-14.7c8.6-10,57.9-51.4,71-50.6C190.5,15,212.8,48.6,211,57.1z"/>
	<path style="fill:#A4A4A4;" d="M126.9,218.8c-0.3,0.1-0.6,0.2-0.9,0.3c-1.2-2.2-2-5.7-4.2-10.6c1.1,0.2,2,0.4,2.5,0.5L126.9,218.8z
		"/>
</g>
<g style="opacity:0;">
	<circle style="opacity:0.3;" cx="198.9" cy="62.2" r="3.5"/>
	<g style="opacity:0.2;">
		<path d="M171.2,63.6c-1.2,0-2.1-0.4-2.6-0.7c-2.9-1.7-4.3-6.4-3.2-11.2c0.7-2.9,2.3-4,3.6-4.4c3.4-1.1,7,1.8,7.7,2.5
			c1,0.9,1.2,2.5,0.3,3.5c-0.9,1-2.5,1.2-3.5,0.3c-0.9-0.8-2.3-1.6-2.8-1.5c-0.1,0.1-0.2,0.4-0.3,0.8c-0.8,3.3,0.4,5.6,0.9,5.8
			c0.1,0,0.4-0.1,1.1-0.6c1-0.9,2.6-0.8,3.5,0.2c0.9,1,0.8,2.6-0.2,3.5C173.9,63.1,172.4,63.6,171.2,63.6z"/>
	</g>
	<path style="opacity:0.2;" d="M238.1,203.4c-2.4,8.8-20,14.9-24.4,6.4c-4.3-8.5-5.5-19.5-5.5-19.5s-9.7,10.7-15.6,6.4
		c-5.9-4.3-16.8-34.1-19-47c-1.7-9.7-4.1-21.2-6.8-29.4c3.6-6.5,6.4-13.1,6.9-19.6c0.2-3.2,0.3-6.8,0.2-10.5l1.7-1
		c7.3,9.8,17.3,11.1,24.1,9c2.4,9.7,11.1,44,20.2,56c10.6,14,15.7,10.2,9.3,19.8C229.2,174,240.4,194.7,238.1,203.4z"/>
	<path style="opacity:0.2;" d="M60.9,186.5c0,0-12.8,14.8-11.7,21.4c1.2,6.5,10.6,9.2,7.9,12.8c-2.8,3.7-2.8,3.7-2.8,3.7
		s-39.6,3.4-40.9-9.7c-1.3-13.1,9-38.4,17.3-48.4c0,0,0.4-0.6,1.2-1.4c9.2,9.6,23.1,17.2,29.7,20.5
		C61.5,185.8,61.2,186.2,60.9,186.5z"/>
</g>
</svg>
