<?xml version="1.0" encoding="utf-8"?>
<!-- Generator: Adobe Illustrator 22.1.0, SVG Export Plug-In . SVG Version: 6.00 Build 0)  -->
<svg version="1.1" id="Layer_1" xmlns="http://www.w3.org/2000/svg" xmlns:xlink="http://www.w3.org/1999/xlink" x="0px" y="0px"
	 viewBox="0 0 256 256" style="enable-background:new 0 0 256 256;" xml:space="preserve">
<g style="opacity:0;">
	<path style="fill:#9A7841;" d="M129.7,198.8c-1.2,1.5-10.8-3.8-10.8-3.8s-1.5-4.8-2.3-5.7c-0.8-0.8,0-4.2-2.3-8.2
		c-2.3-4-19.8-10-21.7-12.3c-1.8-2.3,0-7.8,0-7.8s-0.6-0.3-1.5-0.8c4.4-2.4,11.7-16.3,22-14.6c2.4,0.4,4.2,1.1,5.8,2
		c0.1,0.7,0.1,1.2,0.1,1.2s-12.2,8.5-11.3,14.8c0.8,6.3,15.2,11.5,17.8,14.8c2.7,3.3,4.2,9,4.3,11
		C129.8,191.5,130.8,197.3,129.7,198.8z"/>
	<path style="fill:#9A7841;" d="M184.3,154.5c-2,0.8-9.5,21.5-12.3,23.5s-6.7,11.5-8,15.8c-1.3,4.3-10.5,5.3-13,3.7s-1.5-9.3,0-11.7
		c1.5-2.3,10.3-3,14.5-8.7c4.2-5.7,6.5-26.5,6.5-26.5c0.4-0.5,0.8-0.9,1.2-1.3c2-0.6,3.7-0.9,5-0.7c5.3,0.8,3,4.8,6.1,5
		C184.3,154.2,184.3,154.5,184.3,154.5z"/>
	<path style="fill:#9A7841;" d="M82.4,111.9c-4.4,4.2-7.2,8.5-8.9,13.2c-24.5,4.2-27.2,23-32,37.6c-5.4,0.7-4.4-8.4-1.1-17.4
		c-3,0.7-14.4,23-16.1,21.5s0-13.8,8-24.9c-3.1-1-18.4,17.6-16.1,10.8S34,122,52.3,116.3C67.7,111.4,79.2,111.7,82.4,111.9z"/>
	<path style="fill:#9A7841;" d="M236.7,93c-3.8-0.7-21.5-14.7-26-11.7c-6,4-1.2,15.3-3,21.5c-0.8,2.5-0.8,6.3-0.5,10.4
		c0.5,6,1.6,12.8,2,17.2c0.7,7.5-8,10.5-7,11.2c1,0.7,18.3,9.2,22.3,10.8s2.8,8.5,3,10.5s2.8,8.8,3.3,14s2.5,16.5-3,18
		s-9.5-8.2-10-14.5s5-11.7,0.2-20s-30.5-6.7-33.7-6.8h0c-3.1-0.2-0.8-4.2-6.1-5c-1.3-0.2-3,0.1-5,0.7c-6.3,1.8-16.4,6.3-31.2,6.1
		c-15.1-0.1-17.8-4.9-23.2-7.8c-1.6-0.9-3.4-1.6-5.8-2c-10.2-1.8-17.6,12.1-22,14.6c-0.2,0.1-0.4,0.2-0.5,0.3
		c-4.3,1.5-18.3,16-22.3,22.7c-4,6.7-9.3,25.2-11,27.5c-1.7,2.3-10.3,2.1-12.3-1c-2-3.1,2-8.2,3.3-10.7c1.3-2.5,3.7-2.5,7.5-7.2
		c3.8-4.7,4-17.7,4.3-19.3s11.2-11.2,12.3-13.3c1.2-2.2-1-2.3-1.2-16.5c0-4.5,0.2-8.6,0.9-12.4c0.4-1.8,0.8-3.5,1.4-5.1
		c1.7-4.7,4.5-9,8.9-13.2c1-0.9,2-1.8,3.1-2.8c11.8-9.7,23.5-8.8,31.2-7.8c7.7,1,31-2.2,45.5-7.2s13.3-23.3,22.8-31.7
		s16.3-11.3,21.8-13s15.7-9.5,16.3-9.3c0.7,0.2-5.3,11.2-1.3,13.2s9.2,15,13.7,18.8c4.5,3.8,9.5,4.5,10.8,11
		C247.7,89.7,240.5,93.7,236.7,93z"/>
	<path style="fill:#9A7841;" d="M195.7,68.5c0,0,0,11.8,18,11.5C213.7,80,192.3,85,195.7,68.5z"/>
</g>
<g>
	<circle style="opacity:0.3;" cx="220.9" cy="65" r="2.8"/>
	<path style="opacity:0.2;" d="M129.7,198.8c-1.2,1.5-10.8-3.8-10.8-3.8s-1.5-4.8-2.3-5.7c-0.8-0.8,0-4.2-2.3-8.2
		c-2.3-4-19.8-10-21.7-12.3c-1.8-2.3,0-7.8,0-7.8s-0.6-0.3-1.5-0.8c4.4-2.4,11.7-16.3,22-14.6c2.4,0.4,4.2,1.1,5.8,2
		c0.1,0.7,0.1,1.2,0.1,1.2s-12.2,8.5-11.3,14.8c0.8,6.3,15.2,11.5,17.8,14.8c2.7,3.3,4.2,9,4.3,11
		C129.8,191.5,130.8,197.3,129.7,198.8z"/>
	<path style="opacity:0.2;" d="M184.3,154.5c-2,0.8-9.5,21.5-12.3,23.5s-6.7,11.5-8,15.8c-1.3,4.3-10.5,5.3-13,3.7s-1.5-9.3,0-11.7
		c1.5-2.3,10.3-3,14.5-8.7c4.2-5.7,6.5-26.5,6.5-26.5c0.4-0.5,0.8-0.9,1.2-1.3c2-0.6,3.7-0.9,5-0.7c5.3,0.8,3,4.8,6.1,5
		C184.3,154.2,184.3,154.5,184.3,154.5z"/>
	<path style="opacity:0.2;" d="M82.4,111.9c-4.4,4.2-7.2,8.5-8.9,13.2c-24.5,4.2-27.2,23-32,37.6c-5.4,0.7-4.4-8.4-1.1-17.4
		c-3,0.7-14.4,23-16.1,21.5s0-13.8,8-24.9c-3.1-1-18.4,17.6-16.1,10.8S34,122,52.3,116.3C67.7,111.4,79.2,111.7,82.4,111.9z"/>
</g>
</svg>
