<?xml version="1.0" encoding="utf-8"?>
<!-- Generator: Adobe Illustrator 22.1.0, SVG Export Plug-In . SVG Version: 6.00 Build 0)  -->
<svg version="1.1" id="Layer_1" xmlns="http://www.w3.org/2000/svg" xmlns:xlink="http://www.w3.org/1999/xlink" x="0px" y="0px"
	 viewBox="0 0 256 256" style="enable-background:new 0 0 256 256;" xml:space="preserve">
<g>
	<path style="fill:#705E3E;" d="M147.3,179.8c-2,3.7-0.3,15-2.7,20.5c-2.3,5.5-16.7,0-16.7,0s5.7-2.7,7.2-7.3
		c1.6-4.7-2.2-27.7-2.2-27.7c0-9.7-8.3-21.8-8.3-21.8s-1.6-1-1.9-2.2c5.4,1.3,15.2,3.6,21.2,4.3C142.2,153,147.3,179.8,147.3,179.8z
		"/>
	<g>
		<path style="fill:#705E3E;" d="M251.7,199.8c-1.2,3.3-11.4,6.7-11,3c2-20.2-13.2-29.3-13.2-29.3c-19.8-10-24.7-22.8-24.7-22.8
			s-0.2-0.5-0.3-2.5c1.5-1.7,3.2-3.8,5-6.2c4-5.5,6.4-10,7.5-13.7c0.7-2.2,1-4.2,1.1-6c0-2.6-0.6-4.7-1.3-6.6
			c0.1,0.2,0.2,0.4,0.3,0.6c0.1,0.3,8,24.8,32.3,33.9c1.3,0.5,2,1.9,1.5,3.2c-0.4,1-1.3,1.6-2.3,1.6c-0.3,0-0.6,0-0.9-0.2
			c-13-4.9-21.7-13.6-27.2-21.4c1.8,8.2,4.3,17.2,6.9,21.5c5.3,9,17.2,16.3,17.2,16.3S252.8,196.5,251.7,199.8z"/>
	</g>
	<path style="fill:#705E3E;" d="M216.1,122.4c0,1.8-0.3,3.7-1.1,6c-1.2,3.7-3.5,8.2-7.5,13.7c-1.8,2.4-3.4,4.5-5,6.2
		c-8.5,9.7-13.1,10.1-14,16.3c-1.2,7.3,0.7,16.8,0.5,18.7c-0.2,1.8-17.5,17-18,17.3s-12.3,2.5-12.3,2.5l-5-4l8.8-2.4l15-13.9
		c0.8-4.5-3.7-23.5-4.3-28.5c-0.7-5,0-10.7,0-10.7s-20.5,3.2-29.2,2.2c-6-0.7-15.8-3-21.2-4.3c-2.4-0.6-3.9-1-3.9-1s-0.7,9-2.7,11.8
		c-2,2.8-21.3,10.5-30.3,19.8S75.3,190.5,73,193.3c-2.3,2.8-13.7,5.7-16.2,0c-2.5-5.7-2.5-5.7-2.5-5.7l9.2-4.4
		c0,0,10.3-16.4,15.2-20.1c4.9-3.7,12.8-7,16-14.2c3.2-7.2,1.7-17.3-5.3-19.5s-35.3-1-39.7,0c-4.3,1-14.8,5-19.2,3.8
		c-4.3-1.2-10.2-5.3-10.2-5.3c0-3.5,8.2-9.3,10.2-11.7c2-2.3,4.3-16,11.5-18.8c0.7-0.3,1.3-0.5,1.9-0.8l10.4-6.7
		c0.9-0.3,1.7-0.5,2.7-0.4c4.7,0.3,6.8,2,15,1.2c8.2-0.8,25.3-15,26.2-15.2c0.8-0.2,1.5,2.7,1.5,2.7s6.7-4.3,7.2-4.5
		c0.5-0.2,0.8,3.2,0.8,3.2l17.2-3.2l-1.7,3.7l19-1.2c0,0-7,6.5-5.3,6.7c1.7,0.2,29.3,5.7,37.2,7.5c7.8,1.8,36.8,17.7,39.7,23.2
		c0.4,0.7,0.8,1.5,1.1,2.3C215.5,117.7,216.1,119.8,216.1,122.4z"/>
	<path style="fill:#705E3E;" d="M55.8,106.7c3.7-20.3-11.4-22-11.4-22c-1.9,9.8,2.1,17.5,2.1,17.5S47.9,104.7,55.8,106.7z"/>
</g>
<g style="opacity:0;">
	<circle style="opacity:0.3;" cx="40.9" cy="114.1" r="2.6"/>
	<path style="opacity:0.2;" d="M147.3,179.8c-2,3.7-0.3,15-2.7,20.5c-2.3,5.5-16.7,0-16.7,0s5.7-2.7,7.2-7.3
		c1.6-4.7-2.2-27.7-2.2-27.7c0-9.7-8.3-21.8-8.3-21.8s-1.6-1-1.9-2.2c5.4,1.3,15.2,3.6,21.2,4.3C142.2,153,147.3,179.8,147.3,179.8z
		"/>
	<g style="opacity:0.2;">
		<path d="M251.7,199.8c-1.2,3.3-11.4,6.7-11,3c2-20.2-13.2-29.3-13.2-29.3c-19.8-10-24.7-22.8-24.7-22.8s-0.2-0.5-0.3-2.5
			c1.5-1.7,3.2-3.8,5-6.2c4-5.5,6.4-10,7.5-13.7c0.7-2.2,1-4.2,1.1-6c0-2.6-0.6-4.7-1.3-6.6c0.1,0.2,0.2,0.4,0.3,0.6
			c0.1,0.3,8,24.8,32.3,33.9c1.3,0.5,2,1.9,1.5,3.2c-0.4,1-1.3,1.6-2.3,1.6c-0.3,0-0.6,0-0.9-0.2c-13-4.9-21.7-13.6-27.2-21.4
			c1.8,8.2,4.3,17.2,6.9,21.5c5.3,9,17.2,16.3,17.2,16.3S252.8,196.5,251.7,199.8z"/>
	</g>
	<path style="opacity:0.2;" d="M55.8,106.7c3.7-20.3-11.4-22-11.4-22c-1.9,9.8,2.1,17.5,2.1,17.5S47.9,104.7,55.8,106.7z"/>
</g>
</svg>
