<?xml version="1.0" encoding="utf-8"?>
<!-- Generator: Adobe Illustrator 22.1.0, SVG Export Plug-In . SVG Version: 6.00 Build 0)  -->
<svg version="1.1" id="Layer_1" xmlns="http://www.w3.org/2000/svg" xmlns:xlink="http://www.w3.org/1999/xlink" x="0px" y="0px"
	 viewBox="0 0 256 256" style="enable-background:new 0 0 256 256;" xml:space="preserve">
<g style="opacity:0;">
	<g>
		<path style="fill:#ADDE00;" d="M111.2,133.9c-0.4-0.1-2-0.6-3.9-1.7C108.4,132.8,109.7,133.4,111.2,133.9z"/>
		<path style="fill:#ADDE00;" d="M113,139c-0.9-1.1-1.6-2.6-1.7-4.9C111.4,134.8,111.8,137.1,113,139z"/>
		<path style="fill:#ADDE00;" d="M140.2,147.3c-1.2-0.6-2.1-1.2-2.4-1.5c0,0-0.1-0.1-0.1-0.1L140.2,147.3z"/>
	</g>
	<path style="fill:#ADDE00;" d="M161.9,166.2l-25,5.9l-7.3-12.9c0.1-0.3,0.3-0.5,0.4-0.8l11.1-9.2l2.3,13.8L161.9,166.2z"/>
	<path style="fill:#ADDE00;" d="M247.9,124.5c-11.1,21.2-42.3,17-42.3,17c-9,0.4-33.3,2.8-33.3,2.8l-2.8-5.5c-1.5,2-3.1,3.6-4.6,4.9
		c6.3-5.6,9.9-15,9.9-15c10.1,5.9,31.4,4.9,31.4,4.9c33-4.8,35.7-19.1,35.7-19.1c7.6-26.4-15.3-26.3-15.3-26.3
		c-3.6,1.3-3.4,11.2-3.4,11.2c-6.3-2.1-6.9-8.5-6.9-8.5C215,72.2,239.3,85,239.3,85C257.7,96.5,247.9,124.5,247.9,124.5z"/>
	<path style="fill:#ADDE00;" d="M204.9,174.8l-26.4-0.4c-0.7-7.3-6.6-10.8-6.6-10.8c-7.6-3.1-11.4-12.9-12.8-17.6
		c1.8,0,3.8-0.8,5.7-2.4c0,0,0,0,0,0c1.5-1.2,3.1-2.9,4.6-4.9l2.8,5.5l9.7,19.4l11.1,3.5L204.9,174.8z"/>
	<path style="fill:#ADDE00;" d="M88.3,108.7c-3.6,3.4-6.9,7.3-8.8,11.5c0,0-19.6,0.9-32.5,3.5c-2.5,0.5-4.9,1.3-7.2,2.4
		c-2.3,1.1-4.4,2.5-6.4,4.1c2-4.7,5.4-7.8,5.4-7.8C53.1,109.2,78,108.4,88.3,108.7z"/>
	<path style="fill:#ADDE00;" d="M142.6,50c-0.6,1.4-1.1,3-1.5,4.8c-1,0.3-2.1,0.8-3.3,1.4c-10.9-10.1-28.7-2.6-29.3-2.3
		C124.5,37.7,137.5,45.5,142.6,50z"/>
	<path style="fill:#ADDE00;" d="M134,58.5c-1.9,1.3-3.9,2.8-6,4.5c-10-0.3-19.9,5.6-19.9,5.6C115.6,51.7,128.8,56,134,58.5z"/>
	<path style="fill:#ADDE00;" d="M120.5,69.9c-2.1,2.1-4.1,4.3-5.9,6.6c-2.3,1.3-5.4,3.1-8.9,5.3C110.7,72.3,115.9,70.9,120.5,69.9z"
		/>
	<path style="fill:#ADDE00;" d="M141.2,149.2l-11.1,9.2l-0.6,0.5l-0.2-0.3c-0.2,0.4-0.4,0.7-0.6,1l-2.2,1.8c0,0-3.4,3.1-7.7,4.3
		c0,0,0,0,0,0c-4.5,0.5-8.3-1.1-8.3-1.1l-11.1,3.1l0.7,12.5c0,0,0.1,0,0.1,0c0.5-0.1,2.9-0.3,6,0.6c4.4,1.8,8.6,6,10.8,8.4
		c0.9,1,1.4,1.6,1.5,1.8c-0.5,0-29.1-2.4-29.1-2.4l-1.7-23.9c0,0,0,0,0,0c-5.6-1.5-10.9-4.9-14.1-7.2c-0.9-1-1.7-2.2-2.1-3.5
		c0,0-3,2-5.4,2.5c-1.1-0.1-2.1-0.3-2.2-0.4c0,0,0,0,0,0s0,0,0,0c-2.4,4.2-9.3,6.6-9.3,6.6c-9.8,4.7-16,4.3-19.7,2.8
		c-1.7-0.7-2.8-1.6-3.6-2.3l-0.2-0.2c0-0.1-0.1-0.1-0.2-0.2c-0.1-0.1-0.2-0.2-0.3-0.3c0,0,0,0,0,0c-0.1-0.1-0.2-0.3-0.3-0.4
		c0,0,0,0,0-0.1c0,0,0-0.1,0-0.1l-9.7,3.3L36,177.2l2.1,1.8l-27.4-4.2L10,159.8h0c1,0.3,2.3,0.1,3.8-0.3c6-1.7,14.5-7.9,14.5-7.9
		c0.5-1,1.1-2,1.7-2.9c0.6-1.7,0.9-3.8,0.7-6.1l1.3-4.7c-0.2-2.8,0.4-5.4,1.4-7.6c2-1.7,4.1-3,6.4-4.1c2.3-1.1,4.7-1.9,7.2-2.4
		c12.9-2.7,32.5-3.5,32.5-3.5c1.9-4.1,5.2-8.1,8.8-11.5c7.5-7.2,16.4-12.2,16.4-12.2h0c0,1.3,0.1,2.5,0.5,3.5
		c0.5,1.4,1.5,2.6,2.9,3.4c-6.2,8.1-8,14.2-7.7,18.7c0.3,3.4,1.8,5.9,3.6,7.7c0.5,0.5,1.1,1,1.7,1.5c2.6,1.8,5.1,2.6,5.4,2.7
		c0,0,0,0,0,0c0,0,0,0.1,0,0.1c0,0,0,0.1,0,0.1c0.1,2.3,0.8,3.8,1.7,4.9c1.3,2.1,3.5,3.6,7.3,2.2c0,0,0,0,0,0c0,0,0,0,0,0
		c0,0,0,0,0,0s0,0,0,0.1c1.4,4.3,3.8,6.1,6.4,6.8c0,0,0,0,0,0c1.5,0.7,3.4,0.9,5.5,0.4c1.6-0.4,3.4-1.3,5.3-2.8c0,0,0,0,0,0l5.9,1.7
		L141.2,149.2z"/>
	<path style="fill:#ADDE00;" d="M140.2,147.3c-1.2-0.6-2.1-1.2-2.4-1.5l2.5,1.5 M140.3,147.4c4,2.2,11.5,4.8,15.7-2.3
		c1,0.8,2,1.1,3.2,1.1c3.2,0,6.9-2.7,10.4-7.3c6.1-8,11.3-21.8,11.1-36.5c0,0,2.4-3.8,3.1-7.3l5.2-5.5c0,0,10.8-5.9-0.3-13.2
		c0,0,10.4-2.8,9.4-9.4c0,0-1.4-15.6-17-14.6c0,0-5.2-1.7-6.9-7.3c0,0-4.9-9.4-12.5-3.8c0,0-13.7-3.3-19,8.7c-0.6,1.4-1.1,3-1.5,4.8
		c-1,0.3-2.1,0.8-3.3,1.4c-1.2,0.6-2.5,1.4-3.9,2.3c-1.9,1.3-3.9,2.8-6,4.5c-2.5,2.1-5,4.4-7.5,6.9c-2.1,2.1-4.1,4.3-5.9,6.6
		c-8.9,10.8-14.2,22.5-6.5,27c0,0-17.2,19.9-0.9,28.8c0,0,0,0,0,0c1.1,0.6,2.4,1.2,3.9,1.7c0,0,0.1,0,0.1,0c0,0,0,0,0,0
		c0,0-0.4,5.1,3.3,6.9c1.3,1,3.2,1.4,5.7,0.4c0,0,0,0,0,0c0,0,0.1,0.3,0.3,0.9c0.1,0.1,0.1,0.3,0.2,0.5c0,0.1,0.1,0.2,0.1,0.3
		c1.1,2.5,2.7,4,4.4,4.7c0,0,0.1,0,0.1,0.1c0.6,0.3,1.2,0.5,1.9,0.6c1.4,0.5,3.1,0.7,5,0.2c1.6-0.4,3.4-1.3,5.3-2.8c0,0,0,0,0,0
		c0,0,0,0,0,0c0,0,0,0,0,0l2.5,1.6 M111.3,134.1c0.1,0.7,0.5,3,1.7,4.9C112,138,111.4,136.4,111.3,134.1z"/>
	<path style="fill:#ADDE00;" d="M113,139c-0.9-1.1-1.6-2.6-1.7-4.9C111.4,134.8,111.8,137.1,113,139z"/>
</g>
<g>
	<path style="opacity:0.3;" d="M161.9,166.2l-25,5.9l-7.3-12.9c0.1-0.3,0.3-0.5,0.4-0.8l11.1-9.2l2.3,13.8L161.9,166.2z"/>
	<path style="opacity:0.3;" d="M247.9,124.5c-11.1,21.2-42.3,17-42.3,17c-9,0.4-33.3,2.8-33.3,2.8l-2.8-5.5c2.1-2.8,4-6.2,5.7-9.9
		c10.1,5.9,31.1,4.7,31.1,4.7c33-4.8,35.7-19.1,35.7-19.1c7.6-26.4-15.3-26.3-15.3-26.3c-3.6,1.3-3.4,11.2-3.4,11.2
		c-6.3-2.1-6.9-8.5-6.9-8.5C215,72.2,239.3,85,239.3,85C257.7,96.5,247.9,124.5,247.9,124.5z"/>
	<path style="opacity:0.3;" d="M88.3,108.7c-3.6,3.4-6.9,7.3-8.8,11.5c0,0-19.6,0.9-32.5,3.5c-2.5,0.5-4.9,1.3-7.2,2.4
		c-2.3,1.1-4.4,2.5-6.4,4.1c2-4.7,5.4-7.8,5.4-7.8C53.1,109.2,78,108.4,88.3,108.7z"/>
	<path style="opacity:0.2;" d="M142.6,50c-0.6,1.4-1.1,3-1.5,4.8c-1,0.3-2.1,0.8-3.3,1.4c-10.9-10.1-28.7-2.6-29.3-2.3
		C124.5,37.7,137.5,45.5,142.6,50z"/>
	<path style="opacity:0.2;" d="M134,58.5c-1.9,1.3-3.9,2.8-6,4.5c-10-0.3-19.9,5.6-19.9,5.6C115.6,51.7,128.8,56,134,58.5z"/>
	<path style="opacity:0.2;" d="M120.5,69.9c-2.1,2.1-4.1,4.3-5.9,6.6c-2.3,1.3-5.4,3.1-8.9,5.3C110.7,72.3,115.9,70.9,120.5,69.9z"
		/>
	<path style="opacity:0.1;" d="M140.2,147.3c-1.2-0.6-2.1-1.2-2.4-1.5l2.5,1.5 M140.3,147.4c4,2.2,11.5,4.8,15.7-2.3
		c1,0.8,2,1.1,3.2,1.1c3.2,0,6.9-2.7,10.4-7.3c6.1-8,11.3-21.8,11.1-36.5c0,0,2.4-3.8,3.1-7.3l5.2-5.5c0,0,10.8-5.9-0.3-13.2
		c0,0,10.4-2.8,9.4-9.4c0,0-1.4-15.6-17-14.6c0,0-5.2-1.7-6.9-7.3c0,0-4.9-9.4-12.5-3.8c0,0-13.7-3.3-19,8.7c-0.6,1.4-1.1,3-1.5,4.8
		c-1,0.3-2.1,0.8-3.3,1.4c-1.2,0.6-2.5,1.4-3.9,2.3c-1.9,1.3-3.9,2.8-6,4.5c-2.5,2.1-5,4.4-7.5,6.9c-2.1,2.1-4.1,4.3-5.9,6.6
		c-8.9,10.8-14.2,22.5-6.5,27c0,0-17.2,19.9-0.9,28.8c0,0,0,0,0,0c1.1,0.6,2.4,1.2,3.9,1.7c0,0,0.1,0,0.1,0c0,0,0,0,0,0
		c0,0-0.4,5.1,3.3,6.9c1.3,1,3.2,1.4,5.7,0.4c0,0,0,0,0,0c0,0,0.1,0.3,0.3,0.9c0.1,0.1,0.1,0.3,0.2,0.5c0,0.1,0.1,0.2,0.1,0.3
		c1.1,2.5,2.7,4,4.4,4.7c0,0,0.1,0,0.1,0.1c0.6,0.3,1.2,0.5,1.9,0.6c1.4,0.5,3.1,0.7,5,0.2c1.6-0.4,3.4-1.3,5.3-2.8c0,0,0,0,0,0
		c0,0,0,0,0,0c0,0,0,0,0,0l2.5,1.6 M111.3,134.1c0.1,0.7,0.5,3,1.7,4.9C112,138,111.4,136.4,111.3,134.1z"/>
	<g style="opacity:0.1;">
		<path d="M193.1,81.7c0,0-6.2,8.8-18.2,4.2c0,0-6.4,9.3-20.7,3.5l0,0c9.8-0.3,20.2-10.3,20.2-10.3c6.2,3.1,14.2-2.8,14.2-2.8"/>
	</g>
	<g style="opacity:0.1;">
		<path d="M186,71c1.9,0,1.9-3,0-3C184.1,68,184.1,71,186,71L186,71z"/>
	</g>
	<path style="opacity:0.2;" d="M163,60.6c0,0-5.2-6.6-12.2-1.3C150.8,59.3,154.9,65.8,163,60.6z"/>
	<path style="opacity:0.2;" d="M204.9,174.8l-26.4-0.4c-0.7-7.3-6.6-10.8-6.6-10.8c-7.6-3.1-11.4-12.9-12.8-17.6
		c1.8,0,3.8-0.8,5.7-2.4c0,0,0,0,0,0c1.5-1.2,3.1-2.9,4.6-4.9l2.8,5.5l9.7,19.4l11.1,3.5L204.9,174.8z"/>
</g>
</svg>
