<?xml version="1.0" encoding="utf-8"?>
<!-- Generator: Adobe Illustrator 22.1.0, SVG Export Plug-In . SVG Version: 6.00 Build 0)  -->
<svg version="1.1" id="Layer_1" xmlns="http://www.w3.org/2000/svg" xmlns:xlink="http://www.w3.org/1999/xlink" x="0px" y="0px"
	 viewBox="0 0 256 256" style="enable-background:new 0 0 256 256;" xml:space="preserve">
<g style="opacity:0;">
	<path style="fill:#7A5034;" d="M59.5,174l0.1-0.7l-4.8-19.7c0.6,0.5,1.2,0.9,1.8,1.4c4.4,2.9,12.9,6.5,12.9,6.5L59.5,174z"/>
	<path style="fill:#7A5034;" d="M90.8,243.2c0,0-8.9,0.5-10.4,1l-17.9-41.7l-0.7-1.5c2.7-5.9,7.3-11.3,10.1-14.3l0,1.4l0,1.1
		l-0.5,16.3l13.9,31.8L90.8,243.2z"/>
	<path style="fill:#7A5034;" d="M145.6,166.2c-0.7,1.9-1.2,3.1-1.2,3.1l-8.9,22.8l-18.3,33.2l-1,10.4l-8.9-7.9l15.4-33.2l6.9-38.7
		l0-0.1l15.4-0.9L145.6,166.2z"/>
	<path style="fill:#7A5034;" d="M179.7,148l-14.9,5l-6.5,23.3l-4.5,54.6l6.5,8.4l-12.9-3c0,0,3-22.3-0.5-49.1l-1.3-21l-0.7-11.3
		l-15.4,0.9l-2,0.1c0,0-22.3,7.4-31.3,6.5c0,0-16.4,18.3-21.8,21.8c0,0-1,1-2.5,2.6c-2.8,3-7.4,8.4-10.1,14.3c-1.4,3-2.3,6-2.3,9
		l-2,33.7l7.4,7.5l-13.9-2l-3.5-60.5L59.5,174l10.1-12.6c0,0-8.5-3.5-12.9-6.5c-0.6-0.4-1.3-0.9-1.8-1.4c-4-3.3-6.3-7.9-7.6-17.5
		c0,0-11.4-30.8,30.3-41.2c0,0,65-11.4,78.4-9.4c0,0,8.9,0.5,14.9,5c0,0,6-1,8.4-6.5l5-14l2.5,9.2l7.4,9.4c3,3.8,8.9,3.7,11.7-0.3
		l4.9-6.8l2.8-9.3C215.1,84.4,218.5,129.2,179.7,148z"/>
	<path style="fill:#7A5034;" d="M56.4,122.7c0,0-4.5,3.6-3.7,12.9c0,0-1.1,11.7-7.9,18.8c0,0-9.2-13.9,3.2-34.8c0,0,4.3-1.5,5.7-1
		C55.2,119.1,56.4,122.7,56.4,122.7z"/>
	<path style="fill:#7A5034;" d="M193.1,67.7c0,0,4.9,3.3,10.8-0.7"/>
	<path style="fill:#7A5034;" d="M232,16.7l-6.5,7l0.5,8.9l-8.9,5.5l1.7,6.7l-3.5,0.2c-2-1.1-4.9-2.1-8.5-1.7l3.1-2.2l0.5-11.2l7-3
		l2.2-9.2l7.7-3.2l4.7-9.7V16.7z"/>
	<path style="fill:#7A5034;" d="M193.9,44.1c-2.3,0.1-5.2,0.7-8.4,2.5l-3.9,0.2l2.2-8.9l-8.4-6.7l2.2-6l-7-5.2l-1-10.9l4.5,7.2
		l7.5,4.7l1.5,6.7l6,4l1.5,9.9L193.9,44.1z"/>
	<path style="fill:#7A5034;" d="M242.2,33.5l-9.4,18.2l-15.8,8.2l-3.7,12.3l-2.8,9.3l-4.9,6.8c-2.9,4-8.7,4.1-11.7,0.3l-7.4-9.4
		l-2.5-9.2l-3.4-12.4L167.9,54l-11.1-19.3l15.8,5.9l10.5,7.6c0.8-0.6,1.7-1.2,2.5-1.6c3.2-1.8,6-2.4,8.4-2.5
		c3.8-0.1,6.2,1.2,6.2,1.2c2.5-1.2,4.7-1.8,6.7-2c3.6-0.3,6.5,0.6,8.5,1.7c2.3,1.2,3.5,2.6,3.5,2.6l7.6-9.9L242.2,33.5z"/>
</g>
<g>
	<g>
		<path style="fill:#FFFFFF;" d="M207.4,53.4c0,0-6.3,6.3,2.3,9.3C209.7,62.6,216.7,57,207.4,53.4z"/>
		<path style="fill:#FFFFFF;" d="M188.6,54.7c0,0,7.9,2.3,1,9.3C189.6,64,183.6,61.6,188.6,54.7z"/>
		<ellipse style="fill:#3F2716;" cx="208.9" cy="57.8" rx="2.2" ry="2.4"/>
		<ellipse style="fill:#3F2716;" cx="189.3" cy="58.5" rx="2.2" ry="2.4"/>
	</g>
	<path style="opacity:0.2;" d="M59.5,174l0.1-0.7l-4.8-19.7c0.6,0.5,1.2,0.9,1.8,1.4c4.4,2.9,12.9,6.5,12.9,6.5L59.5,174z"/>
	<path style="opacity:0.2;" d="M90.8,243.2c0,0-8.9,0.5-10.4,1l-17.9-41.7l-0.7-1.5c2.7-5.9,7.3-11.3,10.1-14.3l0,1.4l0,1.1
		l-0.5,16.3l13.9,31.8L90.8,243.2z"/>
	<path style="opacity:0.2;" d="M145.6,166.2c-0.7,1.9-1.2,3.1-1.2,3.1l-8.9,22.8l-18.3,33.2l-1,10.4l-8.9-7.9l15.4-33.2l6.9-38.7
		l0-0.1l15.4-0.9L145.6,166.2z"/>
	<path style="opacity:0.2;" d="M56.4,122.7c0,0-4.5,3.6-3.7,12.9c0,0-1.1,11.7-7.9,18.8c0,0-9.2-13.9,3.2-34.8c0,0,4.3-1.5,5.7-1
		C55.2,119.1,56.4,122.7,56.4,122.7z"/>
	<path style="opacity:0.6;" d="M232,16.7l-6.5,7l0.5,8.9l-8.9,5.5l1.7,6.7l-3.5,0.2c-2-1.1-4.9-2.1-8.5-1.7l3.1-2.2l0.5-11.2l7-3
		l2.2-9.2l7.7-3.2l4.7-9.7V16.7z"/>
	<path style="opacity:0.6;" d="M193.9,44.1c-2.3,0.1-5.2,0.7-8.4,2.5l-3.9,0.2l2.2-8.9l-8.4-6.7l2.2-6l-7-5.2l-1-10.9l4.5,7.2
		l7.5,4.7l1.5,6.7l6,4l1.5,9.9L193.9,44.1z"/>
	<path style="opacity:0.1;" d="M179.7,148l-14.9,5l-6.5,23.3l-4.5,54.6l6.5,8.4l-12.9-3c0,0,3-22.3-0.5-49.1l-1.3-21l-0.7-11.3
		l-15.4,0.9l-2,0.1c0,0-22.3,7.4-31.3,6.5c0,0-16.4,18.3-21.8,21.8c0,0-1,1-2.5,2.6c-2.8,3-7.4,8.4-10.1,14.3c-1.4,3-2.3,6-2.3,9
		l-2,33.7l7.4,7.5l-13.9-2l-3.5-60.5L59.5,174l10.1-12.6c0,0-8.5-3.5-12.9-6.5c-0.6-0.4-1.3-0.9-1.8-1.4c-4-3.3-6.3-7.9-7.6-17.5
		c0,0-11.4-30.8,30.3-41.2c0,0,65-11.4,78.4-9.4c0,0,8.9,0.5,14.9,5c0,0,6-1,8.4-6.5l5-14l2.5,9.2l7.4,9.4c3,3.8,8.9,3.7,11.7-0.3
		l4.9-6.8l2.8-9.3C215.1,84.4,218.5,129.2,179.7,148z"/>
</g>
</svg>
