<?xml version="1.0" encoding="utf-8"?>
<!-- Generator: Adobe Illustrator 22.1.0, SVG Export Plug-In . SVG Version: 6.00 Build 0)  -->
<svg version="1.1" id="Layer_1" xmlns="http://www.w3.org/2000/svg" xmlns:xlink="http://www.w3.org/1999/xlink" x="0px" y="0px"
	 viewBox="0 0 256 256" style="enable-background:new 0 0 256 256;" xml:space="preserve">
<g style="opacity:0;">
	<g>
		<path style="fill:#D6B92D;" d="M73.5,72.6c-2.7,5.1-6.3,13.6-8.2,24c-4.1,9.8-7.9,21.9-11.2,35.9l-0.2,1
			c-2.5,10.2-9.7,22.3-21.9,23.1c-0.1,0-0.8,0.1-1.8,0.1c-3.9,0-13.1-0.6-19.4-6.3c-3.9-3.5-6.1-8.3-6.3-14.2c0-0.2,0-0.3,0-0.5
			c1.2-7.8,6.2-11,10.3-10.7c4.2,0.4,9.1,4.6,8.9,15.2c0,1.4-1.1,2.5-2.5,2.5c-1.4,0-2.5-1.2-2.5-2.5c0.1-6.7-2.2-10-4.3-10.1
			c-1.9-0.2-4.2,1.9-4.9,6.2c0.2,4.4,1.8,7.9,4.6,10.4c6.5,5.7,17.4,4.9,17.6,4.9c12.6-0.8,16.9-17.4,17.4-19.2l0.2-1
			C55.8,103.4,64.1,83.2,73.5,72.6z"/>
	</g>
	<g>
		<polygon style="fill:#D6B92D;" points="176,178.2 179,194.7 161.9,203.8 153.8,213.9 152.8,190.7 175.5,179.6 		"/>
		<path style="fill:#D6B92D;" d="M203,146.8l-8.4,25.3l-0.1,0.2l-2.4-16.8C196,153.2,199.8,150.1,203,146.8z"/>
	</g>
	<path style="fill:#D6B92D;" d="M107.4,169.5l5,24.9l9.4,10.4l-19.2-1.7l-13.5-38.7v-2.1c18.7-12.2,17.7-41.2,17.7-41.2
		c5.1,6.2,11.2,11.4,17.7,15.7l-0.5,2C124.1,138.7,123.6,160.4,107.4,169.5z"/>
	<path style="fill:#D6B92D;" d="M200.2,211.5l12.1,12.8l-25.7-3.4l-7.6-26.2l-3.1-16.5l-5-26.8c-8,2-28.5-2.7-46.4-14.6
		c-6.5-4.3-12.6-9.5-17.7-15.7c0,0,1,29-17.7,41.2c-4.2,2.7-9.3,4.6-15.6,5.2l3.2,30.9l12.8,8.4L65,207.3L55,169
		c8.6-9.6,10.1-46.9,10.1-46.9c-1.6-9.2-1.1-17.9,0.3-25.5c1.9-10.4,5.6-18.8,8.2-24c1.8-3.5,3.1-5.5,3.1-5.5
		c9.5-10.8,24.7-10.6,41.4-7.6c13.1,5.1,59,20.7,59,20.7l-0.5,3c4-19.7,22.7-8.1,22.7-8.1c-0.5,7.8,2.5,16.1,2.5,16.1
		c-3.5,14.1,7.1,21.7,7.1,21.7c-0.7,9.6,5.5,12.4,9.5,13.3c-0.8,1.4-6.8,11.9-15.2,20.5c-3.3,3.4-7,6.5-10.9,8.6l2.4,16.8
		L200.2,211.5z"/>
	<path style="fill:#D6B92D;" d="M242.6,92.8c0,0,2.5,18.5-8.6,20.2c0,0,1.7,15.6-12.4,13.6c0,0-1.4,0-3.3-0.3
		c-4-0.8-10.2-3.7-9.5-13.3c0,0-10.6-7.6-7.1-21.7c0,0-3-8.3-2.5-16.1c1.3-10.8,12.6,0,12.6,0c13.3-7.6,25.2,4,25.2,4
		c4.7-4.4,11.6-3,11.6-3C253.7,83.3,242.6,92.8,242.6,92.8z"/>
	<g>
		<path style="fill:#D6B92D;" d="M163.7,86.1c0,0,2.3,0.4,2.3,2.3c0,0-0.3,2.1-2.1,2.1s-2.8-1.4-2.6-2.5"/>
		<path style="fill:#D6B92D;" d="M131,75.7c0,0,0.4-2.3,2.3-2.3c0,0,2.1,0.4,2.1,2.2c0,1.8-1.4,2.8-2.5,2.6"/>
		<path style="fill:#D6B92D;" d="M150.6,99.3c0,0,0.3-1.7,1.7-1.6c0,0,1.6,0.3,1.5,1.6c0,1.3-1,2-1.8,1.9"/>
		<path style="fill:#D6B92D;" d="M99.7,75.3c0,0,0.3-1.7,1.7-1.6c0,0,1.6,0.3,1.5,1.6c0,1.3-1,2-1.8,1.9"/>
		<path style="fill:#D6B92D;" d="M110.1,66.2c0,0-0.1,2.3-1.9,2.6c0,0-2.2,0-2.4-1.8c-0.3-1.8,1-2.9,2.1-3"/>
		<path style="fill:#D6B92D;" d="M122.7,92.8c0,0-2.2,0.9-3.1-0.7c0,0-0.8-2,0.7-3s3.1-0.3,3.6,0.7"/>
		<path style="fill:#D6B92D;" d="M148.1,85.6c0,0,0.9,3.6-1.8,4.8c0,0-3.3,0.9-4.5-1.7c-1.2-2.6,0.2-4.9,1.9-5.4"/>
		<path style="fill:#D6B92D;" d="M112.5,79.7c0,0-2.7-2.6-1-5c0,0,2.3-2.5,4.7-0.9s2.4,4.3,1.3,5.6"/>
	</g>
</g>
<g>
	<g style="opacity:0.2;">
		<path d="M229.9,114.6l-4.5,4v2.9c0,1.4-1.1,2.5-2.5,2.5s-2.5-1.1-2.5-2.5v-2.9l-4.7-4c-1-0.9-1.2-2.5-0.3-3.5
			c0.9-1,2.5-1.2,3.5-0.3l3.9,3.4l3.7-3.3c1-0.9,2.6-0.9,3.5,0.2C231,112.1,230.9,113.7,229.9,114.6z"/>
	</g>
	
		<ellipse transform="matrix(0.2697 -0.9629 0.9629 0.2697 63.7115 275.8476)" style="opacity:0.2;" cx="213.7" cy="95.9" rx="2.2" ry="2.6"/>
	
		<ellipse transform="matrix(0.976 -0.2176 0.2176 0.976 -15.5559 52.9568)" style="opacity:0.2;" cx="232.6" cy="97.1" rx="2.6" ry="2.2"/>
	<g style="opacity:0.2;">
		<path d="M73.5,72.6c-2.7,5.1-6.3,13.6-8.2,24c-4.1,9.8-7.9,21.9-11.2,35.9l-0.2,1c-2.5,10.2-9.7,22.3-21.9,23.1
			c-0.1,0-0.8,0.1-1.8,0.1c-3.9,0-13.1-0.6-19.4-6.3c-3.9-3.5-6.1-8.3-6.3-14.2c0-0.2,0-0.3,0-0.5c1.2-7.8,6.2-11,10.3-10.7
			c4.2,0.4,9.1,4.6,8.9,15.2c0,1.4-1.1,2.5-2.5,2.5c-1.4,0-2.5-1.2-2.5-2.5c0.1-6.7-2.2-10-4.3-10.1c-1.9-0.2-4.2,1.9-4.9,6.2
			c0.2,4.4,1.8,7.9,4.6,10.4c6.5,5.7,17.4,4.9,17.6,4.9c12.6-0.8,16.9-17.4,17.4-19.2l0.2-1C55.8,103.4,64.1,83.2,73.5,72.6z"/>
	</g>
	<g style="opacity:0.2;">
		<polygon points="176,178.2 179,194.7 161.9,203.8 153.8,213.9 152.8,190.7 175.5,179.6 		"/>
		<path d="M203,146.8l-8.4,25.3l-0.1,0.2l-2.4-16.8C196,153.2,199.8,150.1,203,146.8z"/>
	</g>
	<path style="opacity:0.2;" d="M107.4,169.5l5,24.9l9.4,10.4l-19.2-1.7l-13.5-38.7v-2.1c18.7-12.2,17.7-41.2,17.7-41.2
		c5.1,6.2,11.2,11.4,17.7,15.7l-0.5,2C124.1,138.7,123.6,160.4,107.4,169.5z"/>
	<path style="opacity:0.1;" d="M200.2,211.5l12.1,12.8l-25.7-3.4l-7.6-26.2l-3.1-16.5l-5-26.8c-8,2-28.5-2.7-46.4-14.6
		c-6.5-4.3-12.6-9.5-17.7-15.7c0,0,1,29-17.7,41.2c-4.2,2.7-9.3,4.6-15.6,5.2l3.2,30.9l12.8,8.4L65,207.3L55,169
		c8.6-9.6,10.1-46.9,10.1-46.9c-1.6-9.2-1.1-17.9,0.3-25.5c1.9-10.4,5.6-18.8,8.2-24c1.8-3.5,3.1-5.5,3.1-5.5
		c9.5-10.8,24.7-10.6,41.4-7.6c13.1,5.1,59,20.7,59,20.7l-0.5,3c4-19.7,22.7-8.1,22.7-8.1c-0.5,7.8,2.5,16.1,2.5,16.1
		c-3.5,14.1,7.1,21.7,7.1,21.7c-0.7,9.6,5.5,12.4,9.5,13.3c-0.8,1.4-6.8,11.9-15.2,20.5c-3.3,3.4-7,6.5-10.9,8.6l2.4,16.8
		L200.2,211.5z"/>
	<g style="opacity:0.2;">
		<path d="M163.7,86.1c0,0,2.3,0.4,2.3,2.3c0,0-0.3,2.1-2.1,2.1s-2.8-1.4-2.6-2.5"/>
		<path d="M131,75.7c0,0,0.4-2.3,2.3-2.3c0,0,2.1,0.4,2.1,2.2c0,1.8-1.4,2.8-2.5,2.6"/>
		<path d="M150.6,99.3c0,0,0.3-1.7,1.7-1.6c0,0,1.6,0.3,1.5,1.6c0,1.3-1,2-1.8,1.9"/>
		<path d="M99.7,75.3c0,0,0.3-1.7,1.7-1.6c0,0,1.6,0.3,1.5,1.6c0,1.3-1,2-1.8,1.9"/>
		<path d="M110.1,66.2c0,0-0.1,2.3-1.9,2.6c0,0-2.2,0-2.4-1.8c-0.3-1.8,1-2.9,2.1-3"/>
		<path d="M122.7,92.8c0,0-2.2,0.9-3.1-0.7c0,0-0.8-2,0.7-3s3.1-0.3,3.6,0.7"/>
		<path d="M148.1,85.6c0,0,0.9,3.6-1.8,4.8c0,0-3.3,0.9-4.5-1.7c-1.2-2.6,0.2-4.9,1.9-5.4"/>
		<path d="M112.5,79.7c0,0-2.7-2.6-1-5c0,0,2.3-2.5,4.7-0.9s2.4,4.3,1.3,5.6"/>
	</g>
</g>
</svg>
