<?xml version="1.0" encoding="utf-8"?>
<!-- Generator: Adobe Illustrator 22.1.0, SVG Export Plug-In . SVG Version: 6.00 Build 0)  -->
<svg version="1.1" id="Layer_1" xmlns="http://www.w3.org/2000/svg" xmlns:xlink="http://www.w3.org/1999/xlink" x="0px" y="0px"
	 viewBox="0 0 256 256" style="enable-background:new 0 0 256 256;" xml:space="preserve">
<g style="opacity:0;">
	<polyline style="fill:#C4832D;" points="208.9,140.1 215.1,175.2 221.7,185.1 231.5,192 213.1,192 204.9,182.1 184.9,149.6 
		184.2,140.4 	"/>
	<path style="fill:#C4832D;" d="M164.8,79.3l-3,21.7c-0.6-6.1-0.4-12.3,0.4-18.4C163,81.6,163.8,80.5,164.8,79.3z"/>
	<path style="fill:#C4832D;" d="M165.3,137.4l7.1-11.2l-0.2-1.4c-4.9-7.6-8.5-15.5-10.3-23.9l12.8,22.2L165.3,137.4z"/>
	<path style="fill:#C4832D;" d="M241.7,58.3l-9.9,17.1l1.5,13.3l-2.5,3.9l1,8.4l-3.4,12.8h-13.3l-6.9-18.7l-5.9-2.5l-3.9-16.8
		c0,0-5.9-6.4-7.2-11c0,0-11.2,11.2-11.2,24.3c0,0-9.9-3.3-15.1-9.9l-3,21.7c5.5,18.1,15.8,33.6,29.6,47.3
		c16.1-5.9,29.5-15.9,40.9-29.1c7-10,11.1-21.5,13.3-34C245.7,75.8,244.4,66.8,241.7,58.3z"/>
	<path style="fill:#C4832D;" d="M79.4,191l-17.1-0.3l-9.2-10.5c0,0-0.1-0.2-0.3-0.7L52.5,164l23.6-19.2l-12.8,26.4l4.9,13.5
		L79.4,191z"/>
	<path style="fill:#C4832D;" d="M158.4,188.2l8.9,6.4l-19.7,0.5l-3.9-13.8l-2-43.3l-16.3-0.5l-29.1-11.8l-6.4-1l-13.8,20.2L52.5,164
		l0.3,15.4l0.2,7.7l7.9,7.4l-13.3,0.5l-4.4-10.4l-4.9-29.6l10.8-17.7l-8.9-37c-5.5,13-9.2,27.4-10.8,43.4l-10.8,15.8
		c2.2,7.1,1.9,14.5-0.5,22.2c-4.7-6.4-7.7-13.4-7.9-21.2l5.4-6.4l8.4-13.3c0,0,1.5-51.2,20.7-55.2c0,0,9.8-17.2,45.3-11.3
		c0,0,48.3-2.5,63.1-0.5l12.3-6.4l-0.8,2.9c-1,4.1-1.8,8.1-2.3,12.2c-0.8,6.1-1,12.3-0.4,18.4c1.8,8.4,5.4,16.3,10.3,23.9l0.2,1.4
		l-7.1,11.2l-9.9,42.9L158.4,188.2z"/>
	<path style="fill:#C4832D;" d="M239.7,51.7c-6-4.5-12.7-9.5-24.1-10.8c-12.2-0.5-23.4,1-32,7.4c-5.8,4.2-11.4,8.3-16.3,12.8
		c-1,3.1-1.9,6.2-2.7,9.3c-2.6,10.2-3.7,20.4-2.7,30.6c1.8,8.4,5.4,16.3,10.3,23.9c5.2,8.1,11.8,15.9,19.3,23.4
		c17.8-7.1,31.8-16.5,40.9-29.1c8-9.9,12.5-21.2,13.3-34C246.6,73.8,244.2,62.7,239.7,51.7z M233.3,88.7l-2.5,3.9l1,8.4l-3.4,12.8
		h-13.3l-1.5-5.9l-5.4-12.8l-5.9-2.5l-3.9-16.8c0,0-11.3-8.9-6.4-18.2c0,0,7.4-6.9,13.3,8.4c0,0,9.8-4.9,18.2-2.5
		c0,0,4.9-9.8,10.4-7.9c0,0,9.9,6.9-2,19.7L233.3,88.7z"/>
	<path style="fill:#C4832D;" d="M233.3,88.7l-2.5,3.9l1,8.4l-3.4,12.8h-13.3l-1.5-5.9l-5.4-12.8l-5.9-2.5l-3.9-16.8
		c0,0-11.3-8.9-6.4-18.2c0,0,7.4-6.9,13.3,8.4c0,0,9.8-4.9,18.2-2.5c0,0,4.9-9.8,10.4-7.9c0,0,9.9,6.9-2,19.7L233.3,88.7z"/>
</g>
<g>
	<g style="opacity:0.2;">
		<g>
			<path d="M229.6,101.5l-3,2.1l-0.5,3.8c-0.2,1.3-1.2,2.2-2.5,2.2c-0.1,0-0.2,0-0.3,0c-1.4-0.2-2.3-1.4-2.2-2.8l0.4-3l-6-2.3
				c-1.3-0.5-1.9-1.9-1.4-3.2c0.5-1.3,1.9-1.9,3.2-1.4l6.7,2.5l2.9-2c1.1-0.8,2.7-0.5,3.5,0.6C231.1,99.2,230.8,100.7,229.6,101.5z"
				/>
		</g>
	</g>
	<g>
		<path style="opacity:0.2;" d="M214.4,80.3c0,0-4.5-2.5-8.7-1.8c0,0-3,1.6-1.7,3.8c0,0,3.4,4.2,5.9,4.9
			C209.9,87.2,213.7,85.2,214.4,80.3z"/>
		<path style="opacity:0.2;" d="M223,79.3c0,0,3.9-2.8,5.9-2.8c0,0,3.9,0.3,3,3c0,0,0.5,4.2-2.7,5.2C229.1,84.7,224.2,82,223,79.3z"
			/>
		<ellipse style="opacity:0.3;" cx="226.8" cy="79.1" rx="2" ry="1.7"/>
		<ellipse style="opacity:0.3;" cx="210.5" cy="80.6" rx="2.2" ry="1.9"/>
	</g>
	<path style="opacity:0.1;" d="M79.4,191l-17.1-0.3l-9.2-10.5c0,0-0.1-0.2-0.3-0.7L52.5,164l23.6-19.2l-12.8,26.4l4.9,13.5L79.4,191
		z"/>
	<path style="opacity:0.5;" d="M239.7,51.7c-6-4.5-12.7-9.5-24.1-10.8c-12.2-0.5-23.4,1-32,7.4c-5.8,4.2-11.4,8.3-16.3,12.8
		c-1,3.1-1.9,6.2-2.7,9.3c-2.6,10.2-3.7,20.4-2.7,30.6c1.8,8.4,5.4,16.3,10.3,23.9c5.2,8.1,11.8,15.9,19.3,23.4
		c17.8-7.1,31.8-16.5,40.9-29.1c8-9.9,12.5-21.2,13.3-34C246.6,73.8,244.2,62.7,239.7,51.7z M233.3,88.7l-2.5,3.9l1,8.4l-3.4,12.8
		h-13.3l-1.5-5.9l-5.4-12.8l-5.9-2.5l-3.9-16.8c0,0-11.3-8.9-6.4-18.2c0,0,7.4-6.9,13.3,8.4c0,0,9.8-4.9,18.2-2.5
		c0,0,4.9-9.8,10.4-7.9c0,0,9.9,6.9-2,19.7L233.3,88.7z"/>
</g>
</svg>
