<?xml version="1.0" encoding="utf-8"?>
<!-- Generator: Adobe Illustrator 22.1.0, SVG Export Plug-In . SVG Version: 6.00 Build 0)  -->
<svg version="1.1" id="Layer_1" xmlns="http://www.w3.org/2000/svg" xmlns:xlink="http://www.w3.org/1999/xlink" x="0px" y="0px"
	 viewBox="0 0 256 256" style="enable-background:new 0 0 256 256;" xml:space="preserve">
<g>
	<path style="fill:#BC9358;" d="M205.1,246.7l-27.5-21.6l-9.9-30.2c-36.7-13.8-54.4-67.6-49.5-90.5C72.9,35.2,6.4,10.5,6.4,10.5
		c67.6,12,112.5,68.9,123.2,83.6c17.9,0.7,53.2,29.7,63.7,80.8l22.8,21.1l8.8,36.7C224.8,232.6,227.1,251.9,205.1,246.7z"/>
	<g>
		<path style="fill:#BC9358;" d="M86.9,123.4c-0.8,0-1.7-0.4-2.1-1.2l-10.5-17.5l-15,5.5c-1.3,0.5-2.7-0.2-3.2-1.5
			c-0.5-1.3,0.2-2.7,1.5-3.2l16.9-6.2c1.1-0.4,2.4,0,3,1.1L89,119.6c0.7,1.2,0.3,2.7-0.9,3.4C87.8,123.3,87.3,123.4,86.9,123.4z"/>
	</g>
	<g>
		<path style="fill:#BC9358;" d="M158.5,235.1c-0.2,0-0.5,0-0.7-0.1c-1.3-0.4-2.1-1.8-1.7-3.1l3.5-11.8l-12.5-14.4
			c-0.9-1-0.8-2.6,0.3-3.5c1-0.9,2.6-0.8,3.5,0.3l13.4,15.4c0.6,0.6,0.7,1.5,0.5,2.3l-3.9,13.1C160.6,234.4,159.6,235.1,158.5,235.1
			z"/>
	</g>
	<g>
		<path style="fill:#BC9358;" d="M185.1,113c-0.6,0-1.2-0.2-1.7-0.6l-19.6-17.3c-0.6-0.5-0.9-1.2-0.8-1.9c0-0.7,0.4-1.4,0.9-1.9
			l12.3-10c1.1-0.9,2.6-0.7,3.5,0.4c0.9,1.1,0.7,2.6-0.4,3.5l-10,8.2l17.4,15.4c1,0.9,1.1,2.5,0.2,3.5
			C186.5,112.7,185.8,113,185.1,113z"/>
	</g>
	<g>
		<path style="fill:#BC9358;" d="M216.3,145c-0.2,0-0.5,0-0.7-0.1l-20.4-5.8c-1.3-0.4-2.1-1.8-1.7-3.1c0.4-1.3,1.8-2.1,3.1-1.7
			l17.9,5.1l3.2-12.9c0.3-1.3,1.7-2.2,3-1.8c1.3,0.3,2.2,1.7,1.8,3l-3.9,15.4c-0.2,0.7-0.6,1.2-1.2,1.6
			C217.2,144.9,216.8,145,216.3,145z"/>
	</g>
	<path style="fill:#BC9358;" d="M118.5,125.5l-30.6-1.1c-2.9-0.1-3.2-4.3-0.4-4.8l30.2-5.6"/>
	<path style="fill:#BC9358;" d="M151.2,183.3l-4.7,20.4c-0.4,1.8,1.9,2.8,3,1.3l11-16.3"/>
	<path style="fill:#BC9358;" d="M161.6,115.7l20.5-8c4.3-1.3,7,4.5,3.2,6.9l-16,11.4"/>
	<path style="fill:#BC9358;" d="M187.4,163l10.3-25.8c0.9-2.8-2.9-4.5-4.5-2l-10.5,13.9"/>
	<g>
		<path style="fill:#BC9358;" d="M75.3,104.2c-1,0-1.9-0.6-2.3-1.5L66.9,88c-0.5-1.3,0.1-2.7,1.3-3.3c1.3-0.5,2.7,0.1,3.3,1.3
			l6.2,14.6c0.5,1.3-0.1,2.7-1.3,3.3C76,104.1,75.7,104.2,75.3,104.2z"/>
	</g>
	<g>
		<path style="fill:#BC9358;" d="M165.5,95.7c-0.5,0-1-0.2-1.5-0.5l-9.6-6.9c-1.1-0.8-1.4-2.4-0.6-3.5c0.8-1.1,2.4-1.4,3.5-0.6
			l9.6,6.9c1.1,0.8,1.4,2.4,0.6,3.5C167,95.3,166.2,95.7,165.5,95.7z"/>
	</g>
	<g>
		<path style="fill:#BC9358;" d="M216.3,145c-1,0-2-0.6-2.4-1.7c-0.5-1.3,0.2-2.7,1.5-3.2l14.3-5c1.3-0.5,2.7,0.2,3.2,1.5
			s-0.2,2.7-1.5,3.2l-14.3,5C216.9,145,216.6,145,216.3,145z"/>
	</g>
	<g>
		<path style="fill:#BC9358;" d="M145.8,225.9c-1.1,0-2.2-0.8-2.4-1.9c-0.3-1.3,0.5-2.7,1.9-3l16.6-3.9c1.3-0.3,2.7,0.5,3,1.9
			c0.3,1.3-0.5,2.7-1.9,3l-16.6,3.9C146.2,225.9,146,225.9,145.8,225.9z"/>
	</g>
</g>
<g style="opacity:0;">
	
		<ellipse transform="matrix(0.9668 -0.2557 0.2557 0.9668 -50.9521 55.0008)" style="opacity:0.2;" cx="186" cy="223.5" rx="3.8" ry="4.8"/>
	
		<ellipse transform="matrix(0.7782 -0.628 0.628 0.7782 -81.8613 178.7943)" style="opacity:0.2;" cx="212.2" cy="205.3" rx="3.8" ry="4.8"/>
</g>
</svg>
