<?xml version="1.0" encoding="utf-8"?>
<!-- Generator: Adobe Illustrator 22.1.0, SVG Export Plug-In . SVG Version: 6.00 Build 0)  -->
<svg version="1.1" id="Layer_1" xmlns="http://www.w3.org/2000/svg" xmlns:xlink="http://www.w3.org/1999/xlink" x="0px" y="0px"
	 viewBox="0 0 256 256" style="enable-background:new 0 0 256 256;" xml:space="preserve">
<g>
	<path style="fill:#B58253;" d="M108.6,198c0,0.2,0.1,0.4,0.1,0.6l-0.1-0.3C108.6,198.2,108.6,198.1,108.6,198z"/>
	<polygon style="fill:#B58253;" points="114.3,226.2 118.2,244.8 114.1,227 114.3,225.6 	"/>
	<polygon style="fill:#B58253;" points="125.3,227 133.3,246.9 131.7,246.7 131.2,245.7 	"/>
	<path style="fill:#B58253;" d="M172.5,70.8l-3.7,16.6c0.9,1.8,1.7,3.5,2.4,5.2c-0.9-2.1-1.9-4.2-3.1-6.1L172.5,70.8z"/>
	<g>
		<path style="fill:#B58253;" d="M173,97.8c2,7.3,2,14,1,19.9C175,111,174.7,104.1,173,97.8z"/>
	</g>
	<path style="fill:#B58253;" d="M164.6,41.1l10-18L163,24.5c-0.5-1.4-1.2-2.6-2.1-3.7l3.8,2.4l10.3-0.7l-14.4,26.7l1,1.7l-3.8,1.4
		L164.6,41.1z"/>
	<path style="fill:#B58253;" d="M114.4,214.6c-4.1,4.8-11.8,12.3-17.6,10.6l-31.3-13.9c13.3,2,21,5.6,21,5.6
		c12.3,3.4,19.4-10.3,22.3-17.9L114.4,214.6z"/>
	<path style="fill:#B58253;" d="M167.6,235.4H151l-12.3-6.3l-6.9-13.2c14.2-25.1,10.3-46.4,10.3-46.4c0.1,0,0.2,0,0.2-0.1
		c6.9-2.3,12.6-7,16.2-13.1c2.4,6.2,16.8,47.4-14,61.2l10.8,11.3L167.6,235.4z"/>
	<path style="fill:#B58253;" d="M174,117.7c-1.7,10.3-6.6,17.8-9.1,21.2c0.3,0.2,0.6,0.5,0.8,0.8c0.7,1.2,0.3,2.7-0.9,3.4
		c-0.7,0.4-1.4,0.7-2,0.9l-0.3,1.8l-0.5,2c-0.7,3-1.9,5.9-3.4,8.5v0c-3.6,6.1-9.3,10.9-16.2,13.1c-0.1,0-0.1,0-0.2,0.1
		c0,0,3.9,21.3-10.3,46.4c-1.9,3.4-4.1,6.8-6.7,10.3l0,0.1l0,0.1l0.3,0.7l5.9,18.6l0.5,1l-13.5-1.8l-3.9-18.7l0-0.5l1.2-8.2l-1-2.9
		l-5.6-15.6l-0.2-0.4c0-0.2-0.1-0.4-0.1-0.6c-1.1-9-0.9-21.8,3.1-39c0,0,12.3-26.2,4.6-63.1l12.3-47.2l-9.2-12.3c0,0,1-25.2,19-22.6
		c10.1,0,18.5,2.1,22.6,7c0.9,1.1,1.6,2.3,2.1,3.7l11.5-1.3l-10,18l-6.7,11l3.8-1.4L173,68.9l-0.4,1.9l-4.4,15.7
		c1.2,1.9,2.2,4,3.1,6.1c0.3,0.8,0.6,1.5,0.8,2.2c0.3,1,0.6,1.9,0.9,2.9C174.7,104.1,175,111,174,117.7z"/>
	<path style="fill:#B58253;" d="M108.7,198.6l6.7,18.9l-1.2,8.2l0.5-9.2C114.8,216.4,110.4,211.2,108.7,198.6z"/>
	<polygon style="fill:#B58253;" points="125.1,226.3 125.3,227 125,226.3 	"/>
	<g>
		<path style="fill:#B58253;" d="M174,117.7c-1.3,8.3-4.7,16.4-10.5,23.3l-1.1,4.8l0.9-5C163.4,140.8,171.6,131.8,174,117.7z"/>
	</g>
	<polygon style="fill:#B58253;" points="173,68.9 161.7,50.8 162,50.6 173.3,68.1 172.5,70.8 	"/>
	<g>
		<path style="fill:#B58253;" d="M161.3,144.2c-1.3,0-2.2-0.5-2.8-0.9c-2.1-1.6-4.2-5.4-1.7-21.2c1.3-8.2,3.2-15.8,3.2-16.1
			c0.3-1.3,1.7-2.2,3-1.8c1.3,0.3,2.2,1.7,1.8,3c-3.7,14.9-5.3,29.6-3.5,32c0.1,0,0.4-0.1,0.8-0.4c1.2-0.7,2.7-0.3,3.4,0.9
			c0.7,1.2,0.3,2.7-0.9,3.4C163.5,143.9,162.3,144.2,161.3,144.2z M161.6,139.3L161.6,139.3L161.6,139.3z"/>
	</g>
</g>
<g style="opacity:0;">
	<g style="opacity:0.3;">
		<path d="M125.4,24.3c-0.3,1.2,1.1,3.3,2.6,3.7c1.4,0.4,3.6-1.2,4-2.4c0.3-1.2-1.1-2.2-2.6-2.6C128,22.6,125.8,23.1,125.4,24.3z"/>
		<path d="M141.8,25.9c-0.4,1.4,1.8,4.3,3.5,4.8s5-1.8,5.4-3.3s-1.5-2.5-3.2-3S142.2,24.4,141.8,25.9z"/>
	</g>
	<g style="opacity:0.2;">
		<path d="M152.8,136.8c-0.1,0-0.3,0-0.4,0c-0.5-0.1-11.6-2-13.9-18.6c-0.2-1.4,0.8-2.6,2.1-2.8c1.4-0.2,2.6,0.8,2.8,2.1
			c1.1,7.9,4.5,11.5,7,13.1l0.9-21.9L141.9,93c-0.7-1.2-0.3-2.7,0.9-3.4c1.2-0.7,2.7-0.3,3.4,0.9l9.8,16.4c0.2,0.4,0.4,0.9,0.3,1.4
			l-1,26.2c0,0.7-0.4,1.4-0.9,1.8C153.9,136.6,153.3,136.8,152.8,136.8z"/>
	</g>
	<g style="opacity:0.2;">
		<path d="M149.6,42.3c-4.1,0.7-8.5,0.9-11.8,0.9c-1.6,0-3,0-4-0.1l0.3,2.5c0.1,0.8-0.5,1.6-1.3,1.7c-0.1,0-0.1,0-0.2,0
			c-0.8,0-1.4-0.5-1.5-1.3l-0.5-3.9l-4.7-6.5c-0.4-0.5-0.4-1.2,0-1.8l8.2-11.3c0.5-0.7,1.4-0.8,2.1-0.3c0.7,0.5,0.8,1.4,0.3,2.1
			l-6.9,9.4l3.7,0.4c0.8,0.1,1.4,0.8,1.4,1.6c-0.1,0.8-0.7,1.4-1.5,1.4c0,0-0.1,0-0.2,0l-2.6-0.3l2.4,3.3c2.3,0.1,9.8,0.4,16.2-0.7
			c0.8-0.2,1.6,0.4,1.7,1.2C151,41.4,150.4,42.2,149.6,42.3z"/>
	</g>
	<path style="opacity:0.2;" d="M114.4,214.6c-4.1,4.8-11.8,12.3-17.6,10.6l-31.3-13.9c13.3,2,21,5.6,21,5.6
		c12.3,3.4,19.4-10.3,22.3-17.9L114.4,214.6z"/>
	<path style="opacity:0.2;" d="M167.6,235.4H151l-12.3-6.3l-6.9-13.2c14.2-25.1,10.3-46.4,10.3-46.4c0.1,0,0.2,0,0.2-0.1
		c6.9-2.3,12.6-7,16.2-13.1c2.4,6.2,16.8,47.4-14,61.2l10.8,11.3L167.6,235.4z"/>
	<g style="opacity:0.2;">
		<path d="M161.3,144.2c-1.3,0-2.2-0.5-2.8-0.9c-2.1-1.6-4.2-5.4-1.7-21.2c1.3-8.2,3.2-15.8,3.2-16.1c0.3-1.3,1.7-2.2,3-1.8
			c1.3,0.3,2.2,1.7,1.8,3c-3.7,14.9-5.3,29.6-3.5,32c0.1,0,0.4-0.1,0.8-0.4c1.2-0.7,2.7-0.3,3.4,0.9c0.7,1.2,0.3,2.7-0.9,3.4
			C163.5,143.9,162.3,144.2,161.3,144.2z M161.6,139.3L161.6,139.3L161.6,139.3z"/>
	</g>
</g>
</svg>
