<?xml version="1.0" encoding="utf-8"?>
<!-- Generator: Adobe Illustrator 22.1.0, SVG Export Plug-In . SVG Version: 6.00 Build 0)  -->
<svg version="1.1" id="Layer_1" xmlns="http://www.w3.org/2000/svg" xmlns:xlink="http://www.w3.org/1999/xlink" x="0px" y="0px"
	 viewBox="0 0 256 256" style="enable-background:new 0 0 256 256;" xml:space="preserve">
<g>
	<path style="fill:#936E4E;" d="M125.3,169.3l-17.8-0.2c-4.4-2.6-8.9-11.5-8.9-11.5s0-0.1-0.1-0.4c8.1-8.6,13.3-20.4,16.3-29.2
		c0.1,0,0.1,0.1,0.1,0.1s0,17.1-4.1,25.4C110.8,153.6,111.6,165.2,125.3,169.3z"/>
	<path style="fill:#936E4E;" d="M247.8,115.4c1.1-2.5-1.9-2.6-3.3-2.5c-1.4-0.4-2.6-0.5-2.6-0.5c-18.3-8.3-36.3-1.7-36.3-1.7
		c-4.8,1-6.2-0.7-7.6-1c-5.5-1.4-27.2-33.5-48.1-40.1c-48.1-25.2-78.2,29.4-78.2,29.4c-17.3,21.8-22.8,49.1-33.5,65
		c0,0-11.7,18.8-14.5,20.8c-5,4.2-11.6,5.7-18.7,6.6c5.5,1.6,11.3,2.1,18,0c21.8-6.6,41.1-50.5,41.1-50.5
		c3.1-5.9,8.7-22.1,14.5-28.7c1,10.4,11.8,18.3,11.8,18.3c2.4,12.5-7.6,27-7.6,27l3.5,8.6l3.6,15.2l18.5,1l-10-5.9L94,161.4
		c1.6-1.3,3.1-2.7,4.5-4.2c8.1-8.6,13.3-20.4,16.3-29.2c2.4-6.9,3.4-12,3.4-12s14.2,7.6,24.6,5.5c0,0,0.7-0.1,1.8-0.1
		c0,0.2,0,0.4,0,0.4l10.1,37.1c0,0,0.8,3.9,5.7,4.4l6.2,0.2l8.7-0.2c-1.9,2.9-3.4,6.2,3.2,7.5c6.5,1.3,7.5-10.5,7.5-10.5
		c-0.8-9.1-3.4-17.4-5.2-22.5c14.3-1.7,29.6-4.8,29.6-4.8c25.9-2.1,37.2-13.1,37.2-13.1C248.4,117.9,248.4,116.5,247.8,115.4z
		 M175.5,163l-13.7-7v-6.3c-1.3-6.9-1.3-15.9-1.5-19.1c0-0.1,0-0.2,0-0.3c2.3,3.2,9.6,13,14.5,15.6c0,0,1.9,11.1,2.5,13.4
		C177.6,160.1,176.5,161.5,175.5,163z"/>
	<path style="fill:#936E4E;" d="M176.3,163.4l-1.1,0c0.1-0.1,0.2-0.3,0.3-0.4L176.3,163.4z"/>
</g>
<g style="opacity:0;">
	<path style="opacity:0.2;" d="M247.2,116.5l-7.8,0.3l4.5-3.9C243.9,112.9,250.4,112,247.2,116.5z"/>
	<g style="opacity:0.2;">
		<path d="M208.1,123.7c-2.5,0-5.4-0.4-7.2-1.8c-1.1-0.8-1.7-2-1.8-3.3c0-0.1,0-0.2,0-0.2c0-0.1,0.3-3.7,3.2-5.7
			c2.3-1.6,5.6-1.8,9.6-0.6c0.8,0.2,1.2,1.1,1,1.9c-0.2,0.8-1.1,1.2-1.9,1c-3.1-1-5.5-0.9-7,0.2c-1.5,1-1.9,2.9-1.9,3.3
			c0.1,0.4,0.3,0.8,0.7,1.1c2.1,1.6,7.5,1.1,9.2,0.8c0.8-0.1,1.6,0.4,1.7,1.2c0.1,0.8-0.4,1.6-1.2,1.7
			C212,123.5,210.2,123.7,208.1,123.7z"/>
	</g>
	<path style="opacity:0.3;" d="M225.2,116c0,0.5-1.5,0.9-3.5,0.9s-3.5-0.4-3.5-0.9s1.4-1.6,3.3-1.6
		C223.6,114.4,225.2,115.5,225.2,116z"/>
	<path style="opacity:0.2;" d="M125.3,169.3l-17.8-0.2c-4.4-2.6-8.9-11.5-8.9-11.5s0-0.1-0.1-0.4c8.1-8.6,13.3-20.4,16.3-29.2
		c0.1,0,0.1,0.1,0.1,0.1s0,17.1-4.1,25.4C110.8,153.6,111.6,165.2,125.3,169.3z"/>
	<path style="opacity:0.2;" d="M176.3,163.4l-1.1,0l-8.7,0.2l-6.2-0.2c-4.9-0.5-5.7-4.4-5.7-4.4l-10.1-37.1c0,0,0-0.1,0-0.4
		c3.4-0.2,10.9-0.3,14.8,1.8l0.6,0.4l-0.2,5.5c0,0,0.3,0.4,0.7,1c0,0.1,0,0.2,0,0.3c0.2,3.2,0.2,12.2,1.5,19.1v6.3l13.7,7
		L176.3,163.4z"/>
</g>
</svg>
