<?xml version="1.0" encoding="utf-8"?>
<!-- Generator: Adobe Illustrator 22.1.0, SVG Export Plug-In . SVG Version: 6.00 Build 0)  -->
<svg version="1.1" id="Layer_1" xmlns="http://www.w3.org/2000/svg" xmlns:xlink="http://www.w3.org/1999/xlink" x="0px" y="0px"
	 viewBox="0 0 256 256" style="enable-background:new 0 0 256 256;" xml:space="preserve">
<g style="opacity:0;">
	<path style="fill:#8E523C;" d="M162.1,116.9l-19.7,20.4l-1.8,6.4c-0.8,0.1-1.3,0.1-1.3,0.1c-12.1,2.4-21.8-6.2-21.8-6.2
		c-6.6,3.1-20.4-2.1-20.4-2.1c-0.1-0.1-0.2-0.2-0.3-0.3c4.1-14.6,4.2-30.7,5.2-29.8C133.6,134.6,161.2,117.5,162.1,116.9z"/>
	<path style="fill:#8E523C;" d="M188.1,136.6c-2.1,12.4,10.4,28.3,10.4,28.3c4.1,4.8,8.6,23.8,8.6,23.8c2.4,9.7,9,13.5,9,13.5
		l14.2,0.3h9.2l7-1.4l-6.2-5.5l-14.2,1.7l-7.9-10c-1.4-11.4-6.6-29.4-6.6-29.4c-5.9-14.9-4.8-37-4.8-37"/>
	<path style="fill:#8E523C;" d="M59.5,142.5l4.5,0.7c-1.2,1.6-2.2,3.7-3,6c-0.3,0.2-0.5,0.3-0.5,0.3l-27,3.1L46,176l0.3,10.4L52,192
		l-12.5-2.5l-10.7-12.8l5.2-7.3l-9.3-20l-2.8-9l8-5.9c0,0,18.7-1.7,23.8-12.1l-3.1-2.1c0,0-0.6-10.6,6.6-16.6c0.6-0.5,1.3-1,1.8-1.3
		c2.5,7.6,5.4,13.4,5.4,13.4C59.5,131.8,59.5,142.5,59.5,142.5z"/>
	<path style="fill:#8E523C;" d="M239.9,85.3c0,0-1.5,7.3-12.2,5.7c0,0-10.1,12.4-16.8,17.1c0,0,2.8,7.4,0.7,15l-4.8-2.1
		c0,0-10.7,14.5-18.7,15.6v-4.5l-16.6,6.9l-31.1,40.4l-20.7,3.8l-9.3,10.7c0,0-6.7-5.6,9-22.8c0,0,12.1,2.1,13.1,2.1l8.2-29.5
		l1.8-6.4l19.7-20.4c-1,0.6-28.5,17.7-60.1-11.4c-1-0.9-1.1,15.2-5.2,29.8c-1.3,4.6-3,9-5.2,12.7c0,0-8.3,19-20.1,27.7
		c0,0-9.7,6.2-0.3,11.1c0,0,11.4,5.5,21.1,2.8c1.4,0,11.1,3.5,11.1,3.5l-10.9,2.2H60l-9.9-14.3c0,0,1-7.6,8-14.9
		c0,0,0.4-9.5,2.9-16.9c0.8-2.3,1.8-4.4,3-6l-4.5-0.7c0,0,0-10.7,4.8-26.6c0,0-2.9-5.8-5.4-13.4c-2.8-8.2-5.2-18.5-3-25.6
		c0.6-1.2,1.3-2.5,1.9-3.9c-0.8,1.1-1.5,2.4-1.9,3.9c-8.6,16.6-19.9,24.8-27.2,29.2c-7.8,5.4-13.5,8.5-16.6,13.6
		c0,0-5,10.4,0.7,16.5c0,0-13.2-8.1-4.7-24.6c0,0,5.3-5.5,13.7-10.5c8.3-5,12.1-14.5,12.1-14.5s15.5-35.9,41.1-34.6
		c0,0,26.3-5.9,70.9,10c0,0,10.7,0.3,21.1-3.1c0,0,18.7-8.3,37-7.3c16.5-10.4,36.2,2.6,32.3,10.6c0,0-1,7,4.7,14.5
		C241,76.7,245.9,82.4,239.9,85.3z"/>
	<path style="fill:#8E523C;" d="M57.8,73c-0.6,1.3-1.2,2.6-1.9,3.9C56.3,75.4,56.9,74.1,57.8,73z"/>
</g>
<g>
	<path style="opacity:0.3;" d="M231.1,65.6c0,2.3-0.5,3.6-1.7,3.6s-2.8-1.5-2.8-3.8c0-2.3,1.7-3.1,3-3.1S231.1,63.3,231.1,65.6z"/>
	<path style="opacity:0.2;" d="M162.1,116.9l-19.7,20.4l-1.8,6.4c-0.8,0.1-1.3,0.1-1.3,0.1c-12.1,2.4-21.8-6.2-21.8-6.2
		c-6.6,3.1-20.4-2.1-20.4-2.1c-0.1-0.1-0.2-0.2-0.3-0.3c4.1-14.6,4.2-30.7,5.2-29.8C133.6,134.6,161.2,117.5,162.1,116.9z"/>
	<path style="opacity:0.2;" d="M188.1,136.6c-2.1,12.4,10.4,28.3,10.4,28.3c4.1,4.8,8.6,23.8,8.6,23.8c2.4,9.7,9,13.5,9,13.5
		l14.2,0.3h9.2l7-1.4l-6.2-5.5l-14.2,1.7l-7.9-10c-1.4-11.4-6.6-29.4-6.6-29.4c-5.9-14.9-4.8-37-4.8-37"/>
	<path style="opacity:0.2;" d="M59.5,142.5l4.5,0.7c-1.2,1.6-2.2,3.7-3,6c-0.3,0.2-0.5,0.3-0.5,0.3l-27,3.1L46,176l0.3,10.4L52,192
		l-12.5-2.5l-10.7-12.8l5.2-7.3l-9.3-20l-2.8-9l8-5.9c0,0,18.7-1.7,23.8-12.1l-3.1-2.1c0,0-0.6-10.6,6.6-16.6c0.6-0.5,1.3-1,1.8-1.3
		c2.5,7.6,5.4,13.4,5.4,13.4C59.5,131.8,59.5,142.5,59.5,142.5z"/>
</g>
</svg>
