<?xml version="1.0" encoding="utf-8"?>
<!-- Generator: Adobe Illustrator 22.1.0, SVG Export Plug-In . SVG Version: 6.00 Build 0)  -->
<svg version="1.1" id="Layer_1" xmlns="http://www.w3.org/2000/svg" xmlns:xlink="http://www.w3.org/1999/xlink" x="0px" y="0px"
	 viewBox="0 0 256 256" style="enable-background:new 0 0 256 256;" xml:space="preserve">
<g style="opacity:0;">
	<path style="fill:#6D4630;" d="M223.3,201.2l0.6-7.2l-15-13.2c0,0-19.8-1.2-23.5,4.8l3.6,9.6l11.4,6.6l-26.5-1.2l-7.2-15.6
		c0,0-49.9-0.6-60.1-15.6l-11.4,7.2l10.2,10.2L73,182.5l12-7.8l3-14.4c0,0-0.9-1-2.1-2.7c-0.2,0.2-0.3,0.3-0.3,0.3
		s-46.3,10.8-77-9.6c7.9,1.9,16.1,3.8,27.7,4.2c3.8,1.5,20.2-0.6,20.2-0.6c12.2-0.7,24.1-6.6,24.1-6.6c0.3,0,0.7-0.1,1-0.1
		c-0.5-8.6,3.7-20,22.1-31.8c0,0,28.9-18.6,55.3-22.8c0,0-4.8-18.7,12.6-21.1c0,0,21.1-3,21.1,19.8c0,0,9-5.4,12.6-4.8l12.6-17.4
		c0,0,4.8-9.6,7.2,0.6c0,0,4.2,19.9,0,33.7c0,0,33.7,39.1,12,55.9l-8.4,4.8l7.2,30.1l11.4,7.8L223.3,201.2z"/>
</g>
<g>
	<g style="opacity:0.2;">
		<path d="M244.3,144.6c0,0-2.6,2.5-6.4,2.6c0,0.1-0.1,0.1-0.1,0.2l-4.2,6.3c-0.2,0.3-0.5,0.5-0.8,0.5c-0.2,0-0.4-0.1-0.5-0.2
			c-0.5-0.3-0.6-0.9-0.3-1.4l3.7-5.6c-1.8-0.4-3.9-1.5-6-3.6c-0.4-0.4-0.4-1,0-1.4c0.4-0.4,1-0.4,1.4,0c6.4,6.4,11.6,1.4,11.8,1.2
			c0.4-0.4,1-0.4,1.4,0C244.6,143.5,244.6,144.2,244.3,144.6z"/>
	</g>
	<path style="opacity:0.2;" d="M225.7,70.9c0,0-5.5,15.5-14.7,15.5c-2.7,0-5.5,0.9-3.1,2.3c2.6,1.5,11.3,7,16.6,14.1
		C226.2,93.2,226.8,81.5,225.7,70.9z"/>
	
		<ellipse transform="matrix(0.2334 -0.9724 0.9724 0.2334 34.9251 286.818)" style="opacity:0.3;" cx="199.4" cy="121.3" rx="6.7" ry="6"/>
</g>
</svg>
