<?xml version="1.0" encoding="utf-8"?>
<!-- Generator: Adobe Illustrator 22.1.0, SVG Export Plug-In . SVG Version: 6.00 Build 0)  -->
<svg version="1.1" id="Layer_1" xmlns="http://www.w3.org/2000/svg" xmlns:xlink="http://www.w3.org/1999/xlink" x="0px" y="0px"
	 viewBox="0 0 256 256" style="enable-background:new 0 0 256 256;" xml:space="preserve">
<g>
	<path style="fill:#4B93AF;" d="M92.5,236.4c-13.2,8.1-50.4,1-50.4,1c-9.9,1-10.2-4.4-10.2-4.4c1.4-17-2.4-48-2.4-48
		c-3.8-30.3,3.4-54.1,3.4-54.1S46,128,48.6,110.3c-0.4,45.1,25.5,65.3,38.8,72.8c0,0.1,0,0.2,0,0.3c-2.3,14.7-12.3,41.9-12.3,41.9
		l-12.4-1.5C76.7,225.6,103,230,92.5,236.4z"/>
	<path style="fill:#4B93AF;" d="M154.3,247.9c-12.7,0.6-43.4-3.3-43.4-3.3c-15.1,0.8-13-34.7-13-34.7c0.5-6.9-2.6-21.2-2.6-21.2
		c0.1-0.7,0.1-1.3,0.1-2c0.6-13.8-5.5-18.8-6.5-26.6c-1-8.2-1.8-22.8-1.8-22.8s-20-18.5-9-60.9C88.8,34.7,102,21.4,102.4,21
		c0,0,0,0,0,0s0,0,0,0s0,0,0,0l2.4-1.1c6.6-6.3,13.8-9.2,19.4-10.5c0.7-0.2,1.4-0.3,2-0.4c-3.4,4.9-17,26.7-12.9,55.3
		c0,0,0.1,0.2,0.3,0.6c-5.2,11-12,29.7-8.2,48.7c0,0,4.8,28.6,31.3,34.7l-3.2-12.7c0.5,0.8,0.9,1.9,1.2,3.1c0,0,2.6,20,14.5,21.5
		l-0.1,0.3c0,0-7,11.5-8.3,23.7c-0.2,2.2-0.3,4.4-0.1,6.5c0,0,6.9,29.1,3.6,41.6l-5.3,0.3C155.8,232.7,154.3,247.9,154.3,247.9z"/>
	<path style="fill:#4B93AF;" d="M214.5,149.1c8.7-23-1-73.5-1-73.5c-2.2-10.4-5.2-19.3-8.5-26.8c0.6,6.9-0.6,19.8-3.5,33.6v0
		c2.4,11.5,4,26.5-0.1,39c0,0-9.9,23.5-32.3,27.6l2.1-6.6c-0.3,0.3-0.5,0.7-0.8,1v0c-3.2,11.4-8.2,15.4-12.2,16.6
		c0.1,3.8,0.9,15.1,5.5,15.7l1.4,1.4l6.8,6.8c0,0-4.1,21.2-1,30.4c0,0-8.9,19.1-5.4,27.8c0.2-0.3,0.4-0.5,0.6-0.8
		c-0.2,0.3-0.4,0.6-0.5,0.9c0,0,0,0,0,0c-2.1,3.2-3,5.9-3,5.9s17.7,8.3,38.3,4.3c9.4-1.8,2-18.9,2-18.9c2.6-3.1,10.7-46,10.7-46
		C225.3,170,214.5,149.1,214.5,149.1z M175.5,233.9c-4.2,1.5-7.3,4.4-9.3,7.2C168.5,237.7,171.5,235.1,175.5,233.9
		c3.6-1.3,8.1-1.6,13.5,0C183.5,232.7,179.1,232.8,175.5,233.9z"/>
	<path style="fill:#4B93AF;" d="M137.4,38l-0.3,8.2c0,0-5.2,5.4-7.8,9.9c-3.1,5.3-14.4,6.2-14.4,6.2c2.1-4.2,3.7-6.8,3.8-7.2
		c0,0,5.4-16.3,6.8-22.1C126.9,27.1,138.1,28.8,137.4,38z"/>
	<path style="fill:#4B93AF;" d="M196.3,64.2c0,0-10.4,4.9-16-6.1c0,0-5.8-6.5-1.4-11.9c1-0.3,5.4-9.2,7.1-12.3
		C186.1,33.9,198.7,26.4,196.3,64.2z"/>
	<path style="fill:#4B93AF;" d="M172.7,114.9c0,1.4-0.9,2.6-2,2.6s-2-1.1-2-2.6c0-1.4,0.9-2.6,2-2.6S172.7,113.5,172.7,114.9z"/>
	<path style="fill:#4B93AF;" d="M136.7,114.9c0,1.4-0.9,2.6-2,2.6s-2-1.1-2-2.6c0-1.4,0.9-2.6,2-2.6S136.7,113.5,136.7,114.9z"/>
	<g>
		<path style="fill:#4B93AF;" d="M162.4,145.8l-10.7,4.3c-0.3,0.1-0.6,0.2-0.9,0.2c-0.4,0-0.8-0.1-1.1-0.3l-10-4.9
			c-1.2-0.6-1.8-2.1-1.2-3.3c0.6-1.2,2.1-1.8,3.3-1.2l9,4.4l9.7-3.9c1.3-0.5,2.7,0.1,3.3,1.4C164.3,143.8,163.7,145.3,162.4,145.8z"
			/>
	</g>
</g>
<g style="opacity:0;">
	<path style="fill:#EFEFEF;" d="M88.9,160.1c1,7.8,7.1,12.8,6.5,26.6c-0.1,0-0.2,0-0.2,0s-3.1-1-7.8-3.6
		c-13.4-7.5-39.2-27.7-38.8-72.8C46,128,32.9,130.9,32.9,130.9s-8.2-36.4,16.7-74.2c0,0,6.8-18.7,26.2-23.2L102.4,21
		c-0.4,0.4-13.5,13.7-24.3,55.5c-10.9,42.4,9,60.9,9,60.9S87.9,151.9,88.9,160.1z"/>
	<path style="fill:#EFEFEF;" d="M201.5,82.4c2.8-13.8,4-26.7,3.5-33.6C181.2-3.9,133.8,8.2,133.8,8.2s-3.1-0.2-7.7,0.7
		c-3.4,4.9-17,26.7-12.9,55.3c0,0,0.1,0.2,0.3,0.6c-5.2,11-12,29.7-8.2,48.7c0,0,4.8,28.6,31.3,34.7l-3.2-12.7
		c0.5,0.8,0.9,1.9,1.2,3.1c0,0,2.6,20,14.5,21.5l-0.1,0.3c0,0-7,11.5-8.3,23.7c8.3-1.5,16.7-3.8,24.3-7.2l-1.4-1.4
		c-4.6-0.6-5.4-11.9-5.5-15.7c4-1.3,9-5.2,12.2-16.6v0c0-0.1,0-0.1,0-0.2c0,0,0.6-3.9,2.8-7l-2,6.3l-2.1,6.6
		c22.5-4.1,32.3-27.6,32.3-27.6C205.5,109,203.9,93.9,201.5,82.4L201.5,82.4z M134.6,117.5c-1.1,0-2-1.1-2-2.6c0-1.4,0.9-2.6,2-2.6
		s2,1.2,2,2.6C136.7,116.3,135.8,117.5,134.6,117.5z M137.4,38l-0.3,8.2c0,0-5.2,5.4-7.8,9.9c-3.1,5.3-14.4,6.2-14.4,6.2
		c2.1-4.2,3.7-6.8,3.8-7.2c0,0,5.4-16.3,6.8-22.1C126.9,27.1,138.1,28.8,137.4,38z M162.4,145.8l-10.7,4.3c-0.3,0.1-0.6,0.2-0.9,0.2
		c-0.4,0-0.8-0.1-1.1-0.3l-10-4.9c-1.2-0.6-1.8-2.1-1.2-3.3c0.6-1.2,2.1-1.8,3.3-1.2l9,4.4l9.7-3.9c1.3-0.5,2.7,0.1,3.3,1.4
		C164.3,143.8,163.7,145.3,162.4,145.8z M170.6,117.5c-1.1,0-2-1.1-2-2.6c0-1.4,0.9-2.6,2-2.6s2,1.2,2,2.6
		C172.7,116.3,171.8,117.5,170.6,117.5z M196.3,64.2c0,0-10.4,4.9-16-6.1c0,0-5.8-6.5-1.4-11.9c1-0.3,5.4-9.2,7.1-12.3
		C186.1,33.9,198.7,26.4,196.3,64.2z"/>
	<g style="opacity:0.6;">
		<path d="M92.5,236.4c-13.2,8.1-50.4,1-50.4,1c-9.9,1-10.2-4.4-10.2-4.4c1.4-17-2.4-48-2.4-48c-3.8-30.3,3.4-54.1,3.4-54.1
			S46,128,48.6,110.3c-0.4,45.1,25.5,65.3,38.8,72.8c0,0.1,0,0.2,0,0.3c-2.3,14.7-12.3,41.9-12.3,41.9l-12.4-1.5
			C76.7,225.6,103,230,92.5,236.4z"/>
		<path d="M154.3,247.9c-12.7,0.6-43.4-3.3-43.4-3.3c-15.1,0.8-13-34.7-13-34.7c0.5-6.9-2.6-21.2-2.6-21.2c0.1-0.7,0.1-1.3,0.1-2
			c0.6-13.8-5.5-18.8-6.5-26.6c-1-8.2-1.8-22.8-1.8-22.8s-20-18.5-9-60.9C88.8,34.7,102,21.4,102.4,21c0,0,0,0,0,0s0,0,0,0s0,0,0,0
			l2.4-1.1c6.6-6.3,13.8-9.2,19.4-10.5c0.7-0.2,1.4-0.3,2-0.4c-3.4,4.9-17,26.7-12.9,55.3c0,0,0.1,0.2,0.3,0.6
			c-5.2,11-12,29.7-8.2,48.7c0,0,4.8,28.6,31.3,34.7l-3.2-12.7c0.5,0.8,0.9,1.9,1.2,3.1c0,0,2.6,20,14.5,21.5l-0.1,0.3
			c0,0-7,11.5-8.3,23.7c-0.2,2.2-0.3,4.4-0.1,6.5c0,0,6.9,29.1,3.6,41.6l-5.3,0.3C155.8,232.7,154.3,247.9,154.3,247.9z"/>
		<path d="M214.5,149.1c8.7-23-1-73.5-1-73.5c-2.2-10.4-5.2-19.3-8.5-26.8c0.6,6.9-0.6,19.8-3.5,33.6v0c2.4,11.5,4,26.5-0.1,39
			c0,0-9.9,23.5-32.3,27.6l2.1-6.6c-0.3,0.3-0.5,0.7-0.8,1v0c-3.2,11.4-8.2,15.4-12.2,16.6c0.1,3.8,0.9,15.1,5.5,15.7l1.4,1.4
			l6.8,6.8c0,0-4.1,21.2-1,30.4c0,0-8.9,19.1-5.4,27.8c0.2-0.3,0.4-0.5,0.6-0.8c-0.2,0.3-0.4,0.6-0.5,0.9c0,0,0,0,0,0
			c-2.1,3.2-3,5.9-3,5.9s17.7,8.3,38.3,4.3c9.4-1.8,2-18.9,2-18.9c2.6-3.1,10.7-46,10.7-46C225.3,170,214.5,149.1,214.5,149.1z
			 M175.5,233.9c-4.2,1.5-7.3,4.4-9.3,7.2C168.5,237.7,171.5,235.1,175.5,233.9c3.6-1.3,8.1-1.6,13.5,0
			C183.5,232.7,179.1,232.8,175.5,233.9z"/>
		<path d="M137.4,38l-0.3,8.2c0,0-5.2,5.4-7.8,9.9c-3.1,5.3-14.4,6.2-14.4,6.2c2.1-4.2,3.7-6.8,3.8-7.2c0,0,5.4-16.3,6.8-22.1
			C126.9,27.1,138.1,28.8,137.4,38z"/>
		<path d="M196.3,64.2c0,0-10.4,4.9-16-6.1c0,0-5.8-6.5-1.4-11.9c1-0.3,5.4-9.2,7.1-12.3C186.1,33.9,198.7,26.4,196.3,64.2z"/>
		<path d="M172.7,114.9c0,1.4-0.9,2.6-2,2.6s-2-1.1-2-2.6c0-1.4,0.9-2.6,2-2.6S172.7,113.5,172.7,114.9z"/>
		<path d="M136.7,114.9c0,1.4-0.9,2.6-2,2.6s-2-1.1-2-2.6c0-1.4,0.9-2.6,2-2.6S136.7,113.5,136.7,114.9z"/>
		<g>
			<path d="M162.4,145.8l-10.7,4.3c-0.3,0.1-0.6,0.2-0.9,0.2c-0.4,0-0.8-0.1-1.1-0.3l-10-4.9c-1.2-0.6-1.8-2.1-1.2-3.3
				c0.6-1.2,2.1-1.8,3.3-1.2l9,4.4l9.7-3.9c1.3-0.5,2.7,0.1,3.3,1.4C164.3,143.8,163.7,145.3,162.4,145.8z"/>
		</g>
	</g>
</g>
</svg>
