<?xml version="1.0" encoding="utf-8"?>
<!-- Generator: Adobe Illustrator 22.1.0, SVG Export Plug-In . SVG Version: 6.00 Build 0)  -->
<svg version="1.1" id="Layer_1" xmlns="http://www.w3.org/2000/svg" xmlns:xlink="http://www.w3.org/1999/xlink" x="0px" y="0px"
	 viewBox="0 0 256 256" style="enable-background:new 0 0 256 256;" xml:space="preserve">
<g>
	<path style="fill:#DD788B;" d="M81.8,183.5l-9.3-1.6l-6.1-6l-1-8.1l-1.7,2.4c0,0-3.4-4.4-4-14.1c0,0-4.7-8.8-7.1-24.2
		c0,0-0.1-0.2-0.2-0.4c1.9-1.9,3.6-4.3,4.5-7.3l-1.2-2.2c5.6,7.5,12.6,10.7,15.1,11.8c0,0.3-0.1,0.6-0.1,0.8l-1.3,5.4
		c0,0,3.7,8.1,6.1,19.2l2.5,8L81.8,183.5z"/>
	<g>
		<path style="fill:#DD788B;" d="M38,55.4c-0.8,0.3-14.8,5.1-20.8,17.3c-4.1,1.2-8.3,3.6-10,4.7c-1.2,0.7-1.5,2.3-0.8,3.4
			C7,82,8.6,82.4,9.8,81.6c1.7-1.1,3.6-2,5.3-2.8c-0.3,1.5-0.5,3-0.5,4.7c0,0.3,0,0.5,0.1,0.7c0.6,2.1,2.3,6.9,5.9,6.9h0
			c2.3,0,3.9-2,5-4.5c0.6-1.4,1.1-2.9,1.5-4.4c0.8-2.9,0.8-5.3,0-7c-0.4-0.8-0.9-1.5-1.6-2.1c-0.6-0.5-1.3-0.8-2.1-1
			c2.3-3.4,5.4-6,8.2-7.8c3.3-5.6,6.6-8.4,6.6-8.4c0.3-0.2,0.6-0.4,0.9-0.6C38.6,55.3,38.3,55.3,38,55.4z M22.2,80.9
			c-0.7,2.5-1.3,3.9-1.7,4.6c-0.3-0.6-0.7-1.4-1-2.3c0.1-2.3,0.6-4.4,1.3-6.3c0.8-0.1,1.3,0,1.6,0.2C22.5,77.2,22.9,78.2,22.2,80.9z
			"/>
	</g>
	<path style="fill:#DD788B;" d="M169.7,185.2l-10.1,10.4c0,0-1.4,1.5-2.8,1.8l-0.5-9.3c0.4-1.2,0.2-4.5-0.3-8.7l5-3.5l-0.7-8.1
		l-7.6-9.2c-0.6-3.5-1.1-5.9-1.1-5.9c7,0,16.2-2,24.2-4.1c0.2,0.3,0.3,0.5,0.3,0.5S183.9,176.8,169.7,185.2z"/>
	<path style="fill:#DD788B;" d="M249.2,141.5c0,0-3.3,11.2-11.1,9.9v0c-0.8-0.1-1.6-0.4-2.4-0.8c0,0-1.1,0.7-2.8,1.3
		c-3.2,1.2-8.7,2.3-13.7-1c0,0-11.4-1.8-21.8-6.6c-0.8-0.4-1.5-0.7-2.3-1.1l-1.5,0c0,0-0.8,0.3-2.2,0.8c-3,1-8.9,3-15.6,4.8
		c-8,2.2-17.3,4.1-24.2,4.1c0,0,0.5,2.4,1.1,5.9c1,5.6,2.5,14.2,3.3,20.8c0.5,4.1,0.7,7.4,0.3,8.7l0.5,9.3l0.5,8.3
		c-4.7,1.3-11.4-2-11.4-2l0.3-4.4l-3-1.7l-0.7-9.1l-19.5-40.7c0,0-28.6,12.5-51-13.8c0,0-0.4-0.2-1-0.4c-2.5-1.1-9.5-4.3-15.1-11.8
		l1.2,2.2c-0.9,3-2.6,5.4-4.5,7.3c-5.6,5.5-13.6,6.8-13.6,6.8c-1,4.7-0.7,11.8-0.7,11.8L35.7,167v19l-4.7-0.1l-5.4-6.7l0.3-5.7h-3.4
		l2-20.5c0.7-6.1-3-22.5-3-22.5c-2.4-7.4,2.4-11.8,2.4-11.8c3.7-3.4,3.7-14.8,3.7-14.8c-1.7-6.4-2.3-12.1-2.1-17.2
		c0.6-1.4,1.1-2.9,1.5-4.4c0.8-2.9,0.8-5.3,0-7c1.1-4.4,2.8-8,4.4-10.9c3.3-5.6,6.6-8.4,6.6-8.4c0.3-0.2,0.6-0.4,0.9-0.6
		c33-23.9,82.3-1,82.3-1c8.1,6.4,39.4,11.4,39.4,11.4c9.8-0.3,34,4,34,4c42.1,8.4,39,40.4,39,40.4s5.7,18.2,11.5,22.9
		C245.1,133,253.9,135.7,249.2,141.5z"/>
	<path style="fill:#DD788B;" d="M27,82.2c-0.4,1.5-0.9,3-1.5,4.4c0.1-4.2,0.7-8,1.5-11.4C27.8,76.9,27.8,79.3,27,82.2z"/>
	<path style="fill:#DD788B;" d="M215,77.5c0,0,4-13.1-13.6-20.2c0,0-2.5,9.6-2,13.6"/>
</g>
<g style="opacity:0;">
	<path style="opacity:0.1;" d="M192.8,83.6c0,0-3-11.6-21.2-16.2c0,0-5,18.7-2,28.3c0,0,3,7.6,12.6,3c0,0,6.5-3.4,7.8-6
		C191.3,90,192.8,83.6,192.8,83.6z"/>
	<path style="opacity:0.2;" d="M213.5,115.4c0,0-1-4.3-3.2-5.6c0,0-2-1.9-6.2-1.5C204.1,108.3,204,118,213.5,115.4z"/>
	<g style="opacity:0.1;">
		<path d="M238.1,151.3c-0.8-0.1-1.6-0.4-2.4-0.8c0,0-1.1,0.7-2.8,1.3c-1.4-0.9-3.2-2.4-4-4.4c-0.5-1.4-0.5-2.9,0.1-4.3
			c0.6-1.3,2-1.8,3.3-1.3c1.3,0.6,1.8,2.1,1.2,3.3c-0.1,0.2-0.1,0.3,0,0.5c0.4,1,2.2,2.2,3.1,2.6
			C237.9,148.8,238.5,150.1,238.1,151.3z"/>
	</g>
	<g style="opacity:0.1;">
		<path d="M197.4,144.3c-0.8-0.4-1.5-0.7-2.3-1.1l-1.5,0c0,0-0.8,0.3-2.2,0.8c-13.4-7.9-14.3-17.1-12.6-23.7
			c0.3-1.3,1.7-2.1,3.1-1.8c1.3,0.4,2.1,1.7,1.8,3.1c-2,7.5,2.3,14,12.7,19.4C197.5,141.6,198,143,197.4,144.3z"/>
	</g>
	<path style="opacity:0.1;" d="M81.8,183.5l-9.3-1.6l-6.1-6l-1-8.1l-1.7,2.4c0,0-3.4-4.4-4-14.1c0,0-4.7-8.8-7.1-24.2
		c0,0-0.1-0.2-0.2-0.4c1.9-1.9,3.6-4.3,4.5-7.3l-1.2-2.2c5.6,7.5,12.6,10.7,15.1,11.8c0,0.3-0.1,0.6-0.1,0.8l-1.3,5.4
		c0,0,3.7,8.1,6.1,19.2l2.5,8L81.8,183.5z"/>
	<g style="opacity:0.1;">
		<path d="M38,55.4c-0.8,0.3-14.8,5.1-20.8,17.3c-4.1,1.2-8.3,3.6-10,4.7c-1.2,0.7-1.5,2.3-0.8,3.4C7,82,8.6,82.4,9.8,81.6
			c1.7-1.1,3.6-2,5.3-2.8c-0.3,1.5-0.5,3-0.5,4.7c0,0.3,0,0.5,0.1,0.7c0.6,2.1,2.3,6.9,5.9,6.9h0c2.3,0,3.9-2,5-4.5
			c0.6-1.4,1.1-2.9,1.5-4.4c0.8-2.9,0.8-5.3,0-7c-0.4-0.8-0.9-1.5-1.6-2.1c-0.6-0.5-1.3-0.8-2.1-1c2.3-3.4,5.4-6,8.2-7.8
			c3.3-5.6,6.6-8.4,6.6-8.4c0.3-0.2,0.6-0.4,0.9-0.6C38.6,55.3,38.3,55.3,38,55.4z M22.2,80.9c-0.7,2.5-1.3,3.9-1.7,4.6
			c-0.3-0.6-0.7-1.4-1-2.3c0.1-2.3,0.6-4.4,1.3-6.3c0.8-0.1,1.3,0,1.6,0.2C22.5,77.2,22.9,78.2,22.2,80.9z"/>
	</g>
	<path style="opacity:0.1;" d="M169.7,185.2l-10.1,10.4c0,0-1.4,1.5-2.8,1.8l-0.5-9.3c0.4-1.2,0.2-4.5-0.3-8.7l5-3.5l-0.7-8.1
		l-7.6-9.2c-0.6-3.5-1.1-5.9-1.1-5.9c7,0,16.2-2,24.2-4.1c0.2,0.3,0.3,0.5,0.3,0.5S183.9,176.8,169.7,185.2z"/>
	<path style="opacity:0.1;" d="M215,77.5c0,0,4-13.1-13.6-20.2c0,0-2.5,9.6-2,13.6"/>
</g>
</svg>
