<?xml version="1.0" encoding="utf-8"?>
<!-- Generator: Adobe Illustrator 22.1.0, SVG Export Plug-In . SVG Version: 6.00 Build 0)  -->
<svg version="1.1" id="Layer_1" xmlns="http://www.w3.org/2000/svg" xmlns:xlink="http://www.w3.org/1999/xlink" x="0px" y="0px"
	 viewBox="0 0 256 256" style="enable-background:new 0 0 256 256;" xml:space="preserve">
<g style="opacity:0;">
	<path style="fill:#CEA699;" d="M59.5,208.9c0,0-18.3-1.7-20.4-19.7c-2-17.1,12.6-11.1,14.1-10.4c0.1,6.3,0.9,17.4,5.5,26.1
		L59.5,208.9z"/>
	<path style="fill:#CEA699;" d="M204.5,175h-3.1c0,0,0.5,17.6-5.7,29.1c0,0,0,18.1-1,29l0.5,10.9c0,0,2.1,1.6,2.9,7.8
		c0,0-10.4,2.3-16.5,1.1v-1.1l-5.9-40.1c7.8-7,12.5-33.1,12.5-33.1c12-19.6,3.4-58.4,3.2-59.5C191.8,119.8,207.1,145.8,204.5,175z"
		/>
	<path style="fill:#CEA699;" d="M175.7,211.6l5.9,40.1v1.1c0,0-12.5-30.2-24.1-25.7c-3.2-5.9-6.6-12.1-9.1-15.8
		c-6.6-8-10.7-36.7-10.7-36.7h-3.1c-3.5-13.5-0.8-27-0.8-27s17.2,15.7,29.1,3.7c11.9-12,10.4-19.9,10.4-19.9l18.1-12.5c0,0,0,0,0,0
		c0.2,1.1,8.8,39.9-3.2,59.5C188.2,178.5,183.5,204.7,175.7,211.6z"/>
	<path style="fill:#CEA699;" d="M215.1,24.9c0,0,2.1,30.1-20.4,46c0,0-9,9.7-9.3,18c0,0,2.1,7.6,4.8,14.5c0,0,6.1,6.5,1.1,15.6
		c0,0,0,0,0,0c0.2,1.1,8.8,39.9-3.2,59.5c0,0-4.7,26.2-12.5,33.1l5.9,40.1v1.1c-5.8,3.5-18.7,1.7-18.7,1.7
		c-0.1-2.8,2.9-11.4,2.9-11.4s-3.9-7.7-8.3-16c-3.2-5.9-6.6-12.1-9.1-15.8c-6.6-8-10.7-36.7-10.7-36.7h-3.1c-3.5-13.5-0.8-27-0.8-27
		s17.2,15.7,29.1,3.7c8.3-8.4,10.1-14.8,10.4-17.8c-21.4,7.2-29-2.1-29-2.1c-8.9-6.4-10.8-14.8-10.3-21.9c0.5-7.7,3.9-13.8,3.9-13.8
		c4.4-4.3,4.8-17,4.8-17c-0.7-2.4-10.2-15.2-10.2-15.2c-11.8-11.4-16.3-43.9-16.3-43.9c-3.5-20.8,15.9-2.1,15.9-2.1
		c21.8,20.1,25.2,36.6,25.2,36.6c0,4.2,2.8,11.4,2.8,11.4s4.5-3.1,9.3-0.3c0,0,11.8-34.9,24.9-43.9C194.3,21.5,220.3-2.4,215.1,24.9
		z"/>
	<path style="fill:#CEA699;" d="M191.3,119c-1.1,2-2.7,4-4.9,6.2c-3.9,3.1-7.8,6.5-13.1,8.3c0,0,0,0-0.1,0c0.1-1.3,0-2,0-2
		L191.3,119z"/>
	<g>
		<path style="fill:#CEA699;" d="M102.2,228.9c0,0-1.9,4.7-3,6.8c-4.9,9.2-25.9,0.5-25.9,0.5c-28.5-4.1-12.4-27.7-12.4-27.7
			c-0.8-1.2-1.6-2.4-2.2-3.7c-4.6-8.8-5.4-19.8-5.5-26.1c0-3.1,0.1-5.1,0.1-5.1l3.1,1.7c-0.1-5.5,0.3-10.6,1.1-15.3
			c9.8-7.3,13.2-2.4,27.9,11c14.7,13.3,6.3,45.8,6.3,45.8C94.6,222.1,98.2,226.1,102.2,228.9z"/>
		<path style="fill:#CEA699;" d="M102.2,228.9c-4-2.8-7.6-6.8-10.5-12.2L102.2,228.9z"/>
	</g>
	<path style="fill:#CEA699;" d="M133.7,147.7c0,0-2.6,13.5,0.8,27h3.1c0,0,4.2,28.7,10.7,36.7c2.5,3.8,5.9,9.9,9.1,15.8
		c0,0-33.6,16.9-55.2,1.8c-4-2.8-7.6-6.8-10.5-12.2c0,0,8.3-32.4-6.3-45.8c-14.7-13.3-18.1-18.3-27.9-11
		c9.1-51.1,71.2-50.6,76.5-50.5c-0.5,7,1.4,15.4,10.3,21.9c0,0,2.8,3.5,10,4.5l-0.1-8.3l-5.5-7.1c-0.8-1.1-0.6-2.7,0.5-3.5
		c1.1-0.8,2.7-0.6,3.5,0.5l4.3,5.5l4.2-4c1-0.9,2.6-0.9,3.5,0.1c1,1,0.9,2.6-0.1,3.5l-5.4,5.2l0.1,8.4v0.1c3.8-0.1,8.4-0.8,14-2.7
		c-0.3,3.1-2.1,9.4-10.4,17.8C150.9,163.3,133.7,147.7,133.7,147.7z"/>
</g>
<g>
	<ellipse style="opacity:0.2;" cx="179.8" cy="98.5" rx="2.8" ry="4"/>
	
		<ellipse transform="matrix(0.2137 -0.9769 0.9769 0.2137 20.8486 216.3643)" style="opacity:0.2;" cx="144.8" cy="95.2" rx="3.9" ry="1.9"/>
	<path style="opacity:0.1;" d="M59.5,208.9c0,0-18.3-1.7-20.4-19.7c-2-17.1,12.6-11.1,14.1-10.4c0.1,6.3,0.9,17.4,5.5,26.1
		L59.5,208.9z"/>
	<path style="opacity:0.1;" d="M204.5,175h-3.1c0,0,0.5,17.6-5.7,29.1c0,0,0,18.1-1,29l0.5,10.9c0,0,2.1,1.6,2.9,7.8
		c0,0-10.4,2.3-16.5,1.1v-1.1l-5.9-40.1c7.8-7,12.5-33.1,12.5-33.1c12-19.6,3.4-58.4,3.2-59.5C191.8,119.8,207.1,145.8,204.5,175z"
		/>
	<path style="opacity:0.1;" d="M133.7,147.7c0,0-2.6,13.5,0.8,27h3.1c0,0,4.2,28.7,10.7,36.7c2.5,3.8,5.9,9.9,9.1,15.8
		c0,0-33.6,16.9-55.2,1.8c-4-2.8-7.6-6.8-10.5-12.2c0,0,8.3-32.4-6.3-45.8c-14.7-13.3-18.1-18.3-27.9-11
		c9.1-51.1,71.2-50.6,76.5-50.5c-0.5,7,1.4,15.4,10.3,21.9c0,0,2.8,3.5,10,4.5l-0.1-8.3l-5.5-7.1c-0.8-1.1-0.6-2.7,0.5-3.5
		c1.1-0.8,2.7-0.6,3.5,0.5l4.3,5.5l4.2-4c1-0.9,2.6-0.9,3.5,0.1c1,1,0.9,2.6-0.1,3.5l-5.4,5.2l0.1,8.4v0.1c3.8-0.1,8.4-0.8,14-2.7
		c-0.3,3.1-2.1,9.4-10.4,17.8C150.9,163.3,133.7,147.7,133.7,147.7z"/>
</g>
</svg>
