<?xml version="1.0" encoding="utf-8"?>
<!-- Generator: Adobe Illustrator 22.1.0, SVG Export Plug-In . SVG Version: 6.00 Build 0)  -->
<svg version="1.1" id="Layer_1" xmlns="http://www.w3.org/2000/svg" xmlns:xlink="http://www.w3.org/1999/xlink" x="0px" y="0px"
	 viewBox="0 0 256 256" style="enable-background:new 0 0 256 256;" xml:space="preserve">
<g style="opacity:0;">
	<path style="fill:#95AA79;" d="M37.7,158.7c-0.6,0.1-1.2,0.2-1.9,0.2c-6,0.4-15.7-0.7-15.7-0.7c2.9-6,0.2-12.3,0.2-12.3
		c-3.9-2.6-3.6-7-3.6-7c1.9-3.7,6.3-14.2,7.4-16.9c1.2,1.3,2.8,2.4,4.5,2.4c1.5,4.6,0.7,11.3,0.7,11.3c-3.8,9,2.7,11.4,2.7,11.4
		c0.6,0.5,1.1,1,1.5,1.6l-1.8,2.7l4.2,5.2L37.7,158.7z"/>
	<path style="fill:#95AA79;" d="M156.3,132.5l-6.5,16l-7.5,5.7l-1-5c-0.7-10.6,6.5-17.4,6.1-32.5c2.6,4.2,5.5,6.2,8,7l0,0.9
		L156.3,132.5z"/>
	<path style="fill:#95AA79;" d="M245.5,108.7c0,0-3,24-29.1,35.3c0,0-5.4,12-11.8,12.8l-3.3-4.1l-1.8,4.1c0,0-5.9,2.6-11.3-5.9
		c0,0-13.1-9.2-15.6-25c-1.3,0.8-7.8,4.3-10.8-2.2c0,0-2.9,1.3-6.6,0.1c-2.5-0.8-5.4-2.8-8-7c0.4,15.1-6.8,21.9-6.1,32.5l1,5l1.4,7
		c-5.8,0.3-11.8-1.2-15.5-3.5c1.8-4.9-2-26.1-2-26.1c-1-1.4-1.8-3-2.5-4.7c0-0.1-0.1-0.2-0.1-0.4c0,0-1.6,0-2.1,0
		c-2,0.2-6.6,0.7-8.8,1.5c0,0-21.8,5.9-45.6-6.4c0,0-5.4-4.2-8.8-7.6c-0.8-0.8-1.5-1.5-2-2.1l-0.7,2.3c-0.2,0.9-0.5,1.7-0.8,2.3
		c-0.3,0.7-0.7,1.3-1.2,1.7c0,0-7.5,7.3-7.9,10.6c0,0-1.9,11.6-1.2,18.3l7.8,14.3c-8,2.4-16.9-0.7-16.9-0.7s0.2-0.7,0.3-1.8
		c0.7,0,1.4-0.1,1.9-0.2l-1.8-2.2c0-2.4-0.5-5.4-2.4-7.8c-0.4-0.6-0.9-1.1-1.5-1.6c0,0-6.5-2.4-2.7-11.4c0,0,0.8-6.7-0.7-11.3
		c-1.7,0-3.3-1.1-4.5-2.4c-1.6-1.7-2.6-3.6-2.6-3.6L19,100.5C13.7,82,30.1,68.5,30.1,68.5c1-3.3,3.8-3.8,3.8-3.8l9.9-4.8l11.4,0.2
		l10.9-1c0,0,13-5.3,17.4-5.5l12.3,3.2c0,0,26.6,5.6,42.3-4.1c0,0,20.2-8.7,41.5,11.3c0,0,6.1,2,6,9.2c0,0,6.3,12.1,14,20.1
		c0,0,4.8,5.1,2.4,11.1c0,0,0.5,10.1,3.8,11.3l10.9-2.2l-2.7,12C214,125.5,234.1,127.3,245.5,108.7z"/>
	<path style="fill:#95AA79;" d="M37.7,158.7c-0.6,0.1-1.2,0.2-1.9,0.2c0.1-0.7,0.2-1.5,0.2-2.4L37.7,158.7z"/>
	<path style="fill:#95AA79;" d="M192.5,91.9l-11.9-13.3c0,0-10.6-5.5-4.4,10.2l10.9,6.8C187,95.7,189.5,95.5,192.5,91.9z"/>
	<path style="fill:#95AA79;" d="M195.4,88.3c0,0,10.5-7.4,15.4-5.6c0,0,3.3,6.4-8.7,12.8C202.1,95.5,193.2,100.2,195.4,88.3z"/>
</g>
<g>
	<ellipse transform="matrix(0.5 -0.866 0.866 0.5 -9.8843 231.1672)" style="opacity:0.3;" cx="195.3" cy="124.1" rx="2.2" ry="3"/>
	<g style="opacity:0.2;">
		<path d="M58.1,114c-0.8-0.8-1.5-1.5-2-2.1l-0.7,2.3c-0.2,0.9-0.5,1.7-0.8,2.3c-1.2-0.4-1.9-1.7-1.6-3c2.8-10.7-1-37.6-1-37.9
			c-0.2-1.4,0.8-2.6,2.1-2.8c1.4-0.2,2.6,0.8,2.8,2.1C57.2,76.1,60.8,102,58.1,114z"/>
	</g>
	<g style="opacity:0.2;">
		<path d="M123.6,126.9c0-0.1-0.1-0.2-0.1-0.4c0,0-1.6,0-2.1,0c-0.4-0.3-0.8-0.8-0.9-1.3c-1.4-4.6-1.6-9.1-1.7-11.1
			c-6.6-7.7,0.8-25.3,1.7-27.4c0.6-1.3,2-1.8,3.3-1.3c1.3,0.6,1.8,2,1.3,3.3c-3,6.8-6.2,18.9-2.2,22.5c0.6,0.5,0.9,1.2,0.8,1.9
			c0,0-0.1,5.3,1.5,10.6C125.5,125.1,124.8,126.5,123.6,126.9z"/>
	</g>
	<path style="opacity:0.2;" d="M37.7,158.7c-0.6,0.1-1.2,0.2-1.9,0.2c-6,0.4-15.7-0.7-15.7-0.7c2.9-6,0.2-12.3,0.2-12.3
		c-3.9-2.6-3.6-7-3.6-7c1.9-3.7,6.3-14.2,7.4-16.9c1.2,1.3,2.8,2.4,4.5,2.4c1.5,4.6,0.7,11.3,0.7,11.3c-3.8,9,2.7,11.4,2.7,11.4
		c0.6,0.5,1.1,1,1.5,1.6l-1.8,2.7l4.2,5.2L37.7,158.7z"/>
	<path style="opacity:0.2;" d="M156.3,132.5l-6.5,16l-7.5,5.7l-1-5c-0.7-10.6,6.5-17.4,6.1-32.5c2.6,4.2,5.5,6.2,8,7l0,0.9
		L156.3,132.5z"/>
	<path style="opacity:0.2;" d="M192.5,91.9l-11.9-13.3c0,0-10.6-5.5-4.4,10.2l10.9,6.8C187,95.7,189.5,95.5,192.5,91.9z"/>
	<path style="opacity:0.2;" d="M195.4,88.3c0,0,10.5-7.4,15.4-5.6c0,0,3.3,6.4-8.7,12.8C202.1,95.5,193.2,100.2,195.4,88.3z"/>
</g>
</svg>
