<?xml version="1.0" encoding="utf-8"?>
<!-- Generator: Adobe Illustrator 22.1.0, SVG Export Plug-In . SVG Version: 6.00 Build 0)  -->
<svg version="1.1" id="Layer_1" xmlns="http://www.w3.org/2000/svg" xmlns:xlink="http://www.w3.org/1999/xlink" x="0px" y="0px"
	 viewBox="0 0 256 256" style="enable-background:new 0 0 256 256;" xml:space="preserve">
<g style="opacity:0.1;">
	<path style="fill:#F4F4F4;" d="M200.3,129.4l-22.8-36.1c4,1.1,8.4,1.3,12.9,0.3c0.3-0.1,0.6-0.1,1-0.2c0.2,0,0.4-0.1,0.6-0.2
		c0.7-0.2,1.4-0.4,2-0.6c0.2-0.1,0.4-0.1,0.6-0.2c0.7-0.2,1.3-0.5,1.9-0.8c0.2-0.1,0.4-0.2,0.5-0.2c0.3-0.2,0.7-0.3,1-0.5
		c0.4-0.2,0.8-0.4,1.3-0.6c0.4-0.2,0.8-0.4,1.2-0.7c5.6-3.1,10.5-7.6,12.9-12.5c1.4-2.9,1.9-5.9,1.3-8.8
		c-2.4-11-20.3-17.3-33.1-14.5c-6.7,1.4-12.1,5.2-15.5,10c-12.7-5.5-27.1-8.7-42.3-8.7c-51.5,0-93.2,35.8-93.2,79.9
		c0,1.8,0.1,3.6,0.2,5.4c0.5,6.6,2,13,4.2,19.1c5.2,14,14.8,26.3,27.4,35.7c4.7,3.5,9.8,6.7,15.3,9.3c2.6,1.3,5.2,2.4,8,3.5
		c4.9,1.9,10,3.4,15.3,4.5c7.3,1.6,14.9,2.4,22.7,2.4c3.8,0,7.5-0.2,11.1-0.6c5.3-0.5,10.4-1.4,15.3-2.7c4.2-1,8.2-2.3,12.1-3.9
		c5.4-2.1,10.5-4.7,15.3-7.6c22.4-13.6,37.5-35.5,39.2-60.5C210.4,139.1,204.2,135.5,200.3,129.4z M152.1,96.9
		c-5.1,1.9-10.6-1-12.1-6.3c-1.4-5.2,1.9-10.5,7.3-11.5l15.3-2.8c0,0.8,0.2,1.6,0.3,2.4c1,4.7,3.9,8.6,7.9,11.3L152.1,96.9z"/>
	<path style="fill:#F4F4F4;" d="M35.2,159.5c-2.1,2.3-5.5,3.5-10.3,2.8c-11.7-1.8-0.1-15.5,6.1-21.9
		C31.5,147.1,32.9,153.5,35.2,159.5z"/>
</g>
<g>
	<path style="opacity:0.1;" d="M35.2,159.5c-2.1,2.3-5.5,3.5-10.3,2.8c-11.7-1.8-0.1-15.5,6.1-21.9
		C31.5,147.1,32.9,153.5,35.2,159.5z"/>
	<path style="fill:#3A3A3A;" d="M77.9,204.6v36.6c0,3.6-2.9,6.5-6.5,6.5h-2.3c-3.6,0-6.5-2.9-6.5-6.5v-45.9
		C67.3,198.8,72.4,201.9,77.9,204.6z"/>
	<path style="fill:#3A3A3A;" d="M101.2,212.6v23.8c0,3.6-2.9,6.5-6.5,6.5h-2.3c-3.6,0-6.5-2.9-6.5-6.5v-28.4
		C90.8,210,95.9,211.5,101.2,212.6z"/>
	<path style="fill:#3A3A3A;" d="M150.4,211.8v29.4c0,3.6-2.9,6.5-6.5,6.5h-2.3c-3.6,0-6.5-2.9-6.5-6.5v-26.7
		C140.3,213.9,145.5,213,150.4,211.8z"/>
	<path style="fill:#3A3A3A;" d="M177.8,200.3v36.1c0,3.6-2.9,6.5-6.5,6.5H169c-3.6,0-6.5-2.9-6.5-6.5v-28.6
		C167.9,205.8,173,203.2,177.8,200.3z"/>
	<path style="fill:#FFCA83;" d="M238.7,128.9c-0.5,0.8-1,1.6-1.5,2.3c-1,1.3-2.3,2.6-3.6,3.7c0,0,0,0,0,0c-0.2,0.2-0.4,0.3-0.6,0.5
		c-0.1,0.1-0.2,0.1-0.3,0.2c-4.7,3.4-10.3,4.8-15.7,4.2c-6.6-0.7-12.8-4.3-16.7-10.4l-22.8-36.1c4,1.1,8.4,1.3,12.9,0.3
		c3.4-0.8,7-2.1,10.2-4c5.6-3.1,10.5-7.6,12.9-12.5l22.6,25.3C242.9,110,243.6,120.7,238.7,128.9z"/>
	<path style="fill:#FFCA83;" d="M170.8,90.1l-18.7,6.8c-5.1,1.9-10.6-1-12.1-6.3c-1.4-5.2,1.9-10.5,7.3-11.5l15.3-2.8
		c0,0.8,0.2,1.6,0.3,2.4C163.9,83.5,166.8,87.4,170.8,90.1z"/>
	<circle style="fill:#3A3A3A;" cx="210.7" cy="97.3" r="3.1"/>
	<g>
		<path style="fill:#3A3A3A;" d="M238.7,128.9c-0.5,0.8-1,1.6-1.6,2.3c-0.3,0.1-0.6,0.2-0.8,0.2c-0.9,1.6-2,2.7-2.9,3.5c0,0,0,0,0,0
			c-0.2,0.2-0.4,0.3-0.6,0.5c-0.1,0.1-0.2,0.1-0.3,0.2c-1.1,0.7-1.9,0.9-1.9,1c0,0-0.1,0-0.1,0c-0.3,0-0.5-0.2-0.6-0.4
			c-0.1-0.3,0.1-0.6,0.4-0.7c0,0,2.6-0.7,4.8-4.3c-1.7-1.5-1.9-5.2-1.9-5.6c0-0.3,0.2-0.6,0.6-0.6c0,0,0,0,0,0
			c0.3,0,0.6,0.2,0.6,0.6c0,1.1,0.4,3.9,1.6,4.8C236.6,130.2,237.8,129.8,238.7,128.9z"/>
	</g>
	<path style="fill:#262626;" d="M197.9,64.6c0,0,6.7-26.6-3.5-36.1c-10.2-9.4-31.1-0.9-34.2,18C160.1,46.6,166.8,81.4,197.9,64.6z"
		/>
	<path style="fill:#3A3A3A;" d="M178.2,66.7c0,0-8.7-28.3-35.4-26s-56.2,29.8-33.4,61.5c0,0,13.4,14,25.2,16c0,0-20.8-13.5-13-38.8
		c7.9-25.3,35.8-10.2,41.3-0.7C162.9,78.8,177.8,78.8,178.2,66.7z"/>
</g>
</svg>
