<?xml version="1.0" encoding="utf-8"?>
<!-- Generator: Adobe Illustrator 22.1.0, SVG Export Plug-In . SVG Version: 6.00 Build 0)  -->
<svg version="1.1" id="Layer_1" xmlns="http://www.w3.org/2000/svg" xmlns:xlink="http://www.w3.org/1999/xlink" x="0px" y="0px"
	 viewBox="0 0 256 256" style="enable-background:new 0 0 256 256;" xml:space="preserve">
<g>
	<path style="fill:#7F2E0A;" d="M179.2,122.4c-6.8,22.3-27.7,34-39.6,39c-5.1,2.2-8.5,3.1-8.5,3.1c-1.3,1.2-2.7,2.5-4.1,3.7
		c-10.5,8.8-24.1,16-39.2,16.2c-19,0.3-35.8-5-48.5-15c-15.3-12.1-24.6-30.9-24.6-54.9C14.8,70.5,50.4,35,94.2,35
		c32.1,0,69.7,24.4,82.4,53.9C181.3,99.7,182.6,111.1,179.2,122.4z"/>
</g>
<g style="opacity:0;">
	<g>
		<path style="fill:#98E256;" d="M251.9,24.9L235.7,54c3.4,6.2,4.6,13.7,2.7,21.1l-11.4,69.6c-11.6,43-50.8,73-95.3,73H72
			c-18.4,0-57.2-0.7-57.2-19.1c0-8.7,11-19.9,24.6-29.2c12.7,10,29.4,15.3,48.5,15c15.1-0.2,28.6-7.4,39.2-16.2
			c1.4-1.2,2.8-2.4,4.1-3.7c0,0,3.4-0.9,8.5-3.1c11.9-5,32.8-16.8,39.6-39c3.4-11.2,2.1-22.7-2.6-33.5l10.4-28.3
			c2.5-9.6,9.5-16.6,18-19.3V13.6c0-2,1.6-3.6,3.6-3.6c2,0,3.6,1.6,3.6,3.6v26.6c2.5,0,5,0.3,7.5,1c4.4,1.2,8.2,3.6,11.3,6.6
			l14.7-26.4c1-1.7,3.1-2.3,4.9-1.4C252.3,21,252.9,23.1,251.9,24.9z"/>
	</g>
	<circle style="opacity:0.3;" cx="221.3" cy="66.7" r="5.6"/>
	<path style="opacity:0.3;fill:#FFFFFF;" d="M141.1,153.2c-0.3,2.5-0.8,5.1-1.3,7.6c0,0.2-0.1,0.4-0.1,0.5c-5.1,2.2-8.5,3.1-8.5,3.1
		c-1.3,1.2-2.7,2.5-4.1,3.7c-0.2-0.8-0.3-1.7-0.1-2.5l0.1-0.3c0.2-0.9,0.4-2.1,0.6-3.1c0.2-1.1,0.3-2.2,0.5-3.3
		c0.3-2.2,0.5-4.5,0.6-6.7c0.1-2.2,0.2-4.5,0.1-6.7c0-2.2-0.2-4.4-0.4-6.6c-0.9-8.7-3.4-17.1-7.8-24.1c-2.2-3.5-4.8-6.7-7.9-9.5
		c-0.8-0.7-1.5-1.4-2.4-2c-0.8-0.6-1.7-1.3-2.5-1.9c-0.9-0.6-1.8-1.1-2.6-1.7c-0.9-0.6-1.9-1.1-2.8-1.7c-0.9-0.6-1.9-1-2.9-1.5
		l-1.5-0.8c-0.5-0.2-1-0.4-1.5-0.6c-1-0.4-1.9-0.9-2.9-1.3c-1-0.3-2-0.8-2.9-1c-3.9-1.2-7.8-1.8-11.5-1.4c-1.8,0.2-3.6,0.6-5.3,1.3
		c-1.7,0.7-3.3,1.7-4.8,2.8c-3,2.4-5.6,5.7-7.6,9.6c-2,3.8-3.4,8.1-4,12.4c-0.3,2.1-0.5,4.3-0.4,6.3c0.3,2,0.5,4.1,1.3,5.9
		c0.2,0.5,0.3,1,0.6,1.4c0.2,0.5,0.5,0.9,0.7,1.3c0.6,0.8,1.1,1.7,1.8,2.4c1.3,1.5,2.8,2.9,4.6,4c3.5,2.2,7.7,3.6,11.7,3.9
		c4,0.3,8-0.8,11.1-3.3c3-2.4,4.8-6.1,5.1-10.1c-0.1-0.2-0.1-0.4-0.2-0.5c-0.1-0.3-0.3-0.7-0.4-1c-0.3-0.7-0.7-1.4-1.1-2
		c-0.9-1.3-1.9-2.3-3.2-3.2c-1.3-0.8-2.6-1.5-4.2-1.8c-0.8-0.3-1.6-0.2-2.4-0.4c-0.8,0-1.6,0-2.5,0l-0.3,0c-1,0-1.9-0.9-1.8-1.9
		c0-1,0.8-1.8,1.7-1.8c1-0.1,2-0.2,3-0.3c1,0,2,0,3,0.2c2.1,0.2,4.1,1,6,2c1.9,1,3.5,2.5,4.8,4.1c0.6,0.8,1.2,1.7,1.8,2.6
		c0.3,0.5,0.5,0.9,0.7,1.4c0.2,0.5,0.4,0.9,0.6,1.6l0.1,0.3l0,0.5c0,2.7-0.4,5.6-1.5,8.2c-1.1,2.6-2.8,5-4.9,6.9
		c-4.2,3.9-10,5.8-15.6,5.7c-5.5-0.2-10.8-1.9-15.4-4.8c-2.3-1.5-4.4-3.3-6.2-5.4c-1-1-1.7-2.2-2.5-3.4c-0.4-0.6-0.7-1.2-1-1.8
		c-0.4-0.6-0.6-1.3-0.9-1.9c-1.2-2.6-1.7-5.3-2.2-8c-0.4-2.8-0.3-5.4-0.1-8.1c0.5-5.2,1.6-10.4,3.7-15.3c1-2.5,2.2-4.9,3.7-7.2
		c1.5-2.3,3.2-4.5,5.3-6.6c2.1-2,4.5-3.8,7.1-5.2c2.6-1.4,5.5-2.4,8.4-3c5.8-1.1,11.7-0.7,17,0.7c1.4,0.3,2.6,0.7,3.9,1.1
		c1.3,0.4,2.5,0.9,3.8,1.4c0.6,0.3,1.3,0.5,1.9,0.8l1.8,0.8c1.2,0.6,2.4,1.1,3.5,1.7c9.3,4.7,18.1,12.3,23.7,21.7
		c2.8,4.7,5.1,9.7,6.5,14.9c1.4,5.2,2.3,10.4,2.6,15.7C142,143,141.8,148.1,141.1,153.2z"/>
	<g style="opacity:0.4;">
		<path style="fill:#FFFFFF;" d="M33.9,207.7c4.6,0,4.6-7.1,0-7.1C29.3,200.6,29.3,207.7,33.9,207.7L33.9,207.7z"/>
	</g>
	<g style="opacity:0.4;">
		<path style="fill:#FFFFFF;" d="M45.8,210.3c6.9,0,6.9-10.7,0-10.7C38.9,199.6,38.9,210.3,45.8,210.3L45.8,210.3z"/>
	</g>
</g>
</svg>
