<?xml version="1.0" encoding="utf-8"?>
<!-- Generator: Adobe Illustrator 22.1.0, SVG Export Plug-In . SVG Version: 6.00 Build 0)  -->
<svg version="1.1" id="Layer_1" xmlns="http://www.w3.org/2000/svg" xmlns:xlink="http://www.w3.org/1999/xlink" x="0px" y="0px"
	 viewBox="0 0 256 256" style="enable-background:new 0 0 256 256;" xml:space="preserve">
<g>
	<g>
		<path style="fill:#FC8B27;" d="M141.8,116c-3-0.5-6.1-0.7-9.2-0.7c-32.6,0-59.4,25.1-62.1,57l-8.8,5.4l-43.2-13.4
			c-2-0.6-3.2-2.4-3.2-4.4c0-0.5,0.1-0.9,0.2-1.4c0.6-1.9,2.4-3.2,4.4-3.2h20.4c2.4,0,13.3-22.4,15.2-26.5c1.9-4.1-4.3-1.6-4.3-1.6
			c-11.4,3.8-27.6,0.5-33.3-5.7c-5.7-6.2,7.1-33.8,24.8-40c0.6-0.2,1.3-0.4,1.9-0.6v-5.6c0-2.4,1.9-4.3,4.3-4.3
			c2.4,0,4.3,1.9,4.3,4.3v4.1c1.7-0.1,3.3,0,4.9,0.1l1.4-2.4c1.2-2,3.8-2.7,5.9-1.5c2,1.2,2.7,3.9,1.5,5.9l-0.2,0.3
			c5.6,2.5,9.7,6.6,11.7,11.1c4.3,9.5,25.2,20.5,40,20.5C126.5,113.4,135.5,114.8,141.8,116z"/>
	</g>
	<path style="fill:#FC8B27;" d="M192.6,236.7c-19.2,5.9-36.8,3.7-46.1,1.8c27.8-6.3,48.5-31.1,48.5-60.8c0-28.3-18.9-52.3-44.8-59.8
		c0,0,0,0-0.1,0c-0.6-0.2-3.8-0.9-8.2-1.8c-1.2-0.2-2.4-0.3-3.5-0.4c-4.3-5.8-8.8-12.5-12.8-19.8c-13.3-24.3-7.6-69.5,14.3-80.9
		c21.9-11.4,32.9-7.1,41.9,2.4c9,9.5-7.6,24.3-0.5,50.9c7.1,26.6,38.6,55.7,50.9,90C244.5,192.4,220.7,228.1,192.6,236.7z"/>
	<path style="fill:#FC8B27;" d="M195,177.7c0,29.7-20.7,54.5-48.5,60.8c-4.5,1-9.1,1.6-13.9,1.6c-2.6,0-5.2-0.2-7.7-0.5H82.7
		c-4.3,0-7.9-3.5-7.9-7.9c0-4.3,3.5-7.8,7.9-7.8h8c-12.6-11.4-20.5-27.9-20.5-46.2c0-1.8,0.1-3.6,0.2-5.4c2.7-31.9,29.5-57,62.1-57
		c1.9,0,3.8,0.1,5.7,0.3c1.2,0.1,2.4,0.2,3.5,0.4c4.5,0.9,7.6,1.7,8.2,1.8c0.1,0,0.1,0,0.1,0C176,125.4,195,149.3,195,177.7z"/>
	<path style="fill:#FC8B27;" d="M141.8,116c2.8,0.4,5.6,1,8.2,1.8C149.4,117.7,146.3,116.9,141.8,116z"/>
	<path style="fill:#FC8B27;" d="M150.2,117.8c0,0,0,0-0.1,0C150.1,117.8,150.1,117.8,150.2,117.8z"/>
</g>
<g style="opacity:0;">
	<g style="opacity:0.1;">
		<path d="M141.8,116c-3-0.5-6.1-0.7-9.2-0.7c-32.6,0-59.4,25.1-62.1,57l-8.8,5.4l-43.2-13.4c-2-0.6-3.2-2.4-3.2-4.4
			c0-0.5,0.1-0.9,0.2-1.4c0.6-1.9,2.4-3.2,4.4-3.2h20.4c2.4,0,13.3-22.4,15.2-26.5c1.9-4.1-4.3-1.6-4.3-1.6
			c-11.4,3.8-27.6,0.5-33.3-5.7c-5.7-6.2,7.1-33.8,24.8-40c0.6-0.2,1.3-0.4,1.9-0.6v-5.6c0-2.4,1.9-4.3,4.3-4.3
			c2.4,0,4.3,1.9,4.3,4.3v4.1c1.7-0.1,3.3,0,4.9,0.1l1.4-2.4c1.2-2,3.8-2.7,5.9-1.5c2,1.2,2.7,3.9,1.5,5.9l-0.2,0.3
			c5.6,2.5,9.7,6.6,11.7,11.1c4.3,9.5,25.2,20.5,40,20.5C126.5,113.4,135.5,114.8,141.8,116z"/>
	</g>
	<path style="opacity:0.1;" d="M192.6,236.7c-19.2,5.9-36.8,3.7-46.1,1.8c27.8-6.3,48.5-31.1,48.5-60.8c0-28.3-18.9-52.3-44.8-59.8
		c0,0,0,0-0.1,0c-0.6-0.2-3.8-0.9-8.2-1.8c-1.2-0.2-2.4-0.3-3.5-0.4c-4.3-5.8-8.8-12.5-12.8-19.8c-13.3-24.3-7.6-69.5,14.3-80.9
		c21.9-11.4,32.9-7.1,41.9,2.4c9,9.5-7.6,24.3-0.5,50.9c7.1,26.6,38.6,55.7,50.9,90C244.5,192.4,220.7,228.1,192.6,236.7z"/>
	<circle cx="44.9" cy="99.1" r="3.9"/>
</g>
</svg>
