<?xml version="1.0" encoding="utf-8"?>
<!-- Generator: Adobe Illustrator 22.1.0, SVG Export Plug-In . SVG Version: 6.00 Build 0)  -->
<svg version="1.1" id="Layer_1" xmlns="http://www.w3.org/2000/svg" xmlns:xlink="http://www.w3.org/1999/xlink" x="0px" y="0px"
	 viewBox="0 0 256 256" style="enable-background:new 0 0 256 256;" xml:space="preserve">
<g>
	<g>
		<path style="fill:#ED631D;" d="M64.6,99.6c-12.7,7.7-13.8,20.6-13.8,23.7c-2.4,5.2-4.7,10.5-6.4,14.3c-1.2,2.8-2,4.7-2.5,5.6
			c-0.1,0.3-0.3,0.6-0.5,1.1c-1.6,3.8-6.3,15.2-19.5,15.2c-0.7,0-1.5,0-2.2-0.1c-7.2-0.6-12.1-2.5-14.6-5.6
			c-1.9-2.3-1.8-4.4-1.7-4.8l5,0.5c0,0,0,0,0-0.1c0,1.1,2.2,4.2,11.8,5.1c11.3,1,14.9-7.8,16.7-12c0.2-0.6,0.4-1.1,0.6-1.4
			c0.4-0.7,1.3-2.8,2.4-5.3c2.7-6.3,7.3-16.8,11.2-24.2C54.2,105.3,59.7,101.7,64.6,99.6z"/>
	</g>
	<path style="fill:#ED631D;" d="M44.5,152.6c0,0,4.2,8.8,10,9.9"/>
	<path style="fill:#ED631D;" d="M244,117.7c-0.7,3.2-4.7,7.3-6.4,6.3c0,0-12.1-14.1-17.8-14.1c-5.7,0-5.4,6.7-12.1,9.4
		c-6.7,2.7-19.1,7.7-19.1,7.7s-1.2,4.6-4,10.4c-2.2,4.6-5.5,10-10,14.4c-0.6,0.6-1.2,1.1-1.8,1.6l-0.4,1.2l-9.7,32.3l5.3,5l-0.3,3.7
		h-20.4c0,0,0.5-26.4,0.6-44.4c0-7.2,0-13-0.2-15.3c0,0-35.8,0.7-44.9-2c0,0-0.9,2.1-3.4,5.1c-1.2,1.5-2.9,3.1-5,4.8
		c-3.7,3-8.9,6.1-16,8.4c-0.5,0.2-1,0.3-1.5,0.5l-21.1,34.2l4.7,4.3l-0.7,6.4H47.4c0,0-7.4-10.4-5.7-20.1c1.7-9.7,9-53.6,9-53.6
		s0-0.2,0-0.7c0.1-3.1,1.2-15.9,13.8-23.7c4-2.4,9.1-4.4,15.8-5.3c0.5-0.1,1-0.1,1.6-0.2c0,0,0.5,0,1.4-0.1
		c4.4-0.2,18.5-0.8,31.8-0.7c1,0,2,0,3,0c4.7,0.1,9.3,0.3,13.1,0.7c0.2,0,0.5,0,0.7,0.1c0.9,0.1,1.8,0.2,2.7,0.2
		c5.5,0.4,10.3,0.5,15.2,0.2c1,0,1.9-0.1,2.9-0.2c5-0.4,10.3-1.2,16.5-2.3h0c1-0.2,2.1-0.4,3.2-0.6c2.3-0.4,4.7-0.9,7.3-1.3h0
		c0.8-0.2,1.6-0.3,2.4-0.4c0.3,0,0.5-0.1,0.8-0.2c3.4-0.6,6.5-1.1,9.3-1.5c1.2-0.2,2.3-0.3,3.4-0.4c3.6-0.4,6.7-0.6,9.3-0.8
		c1.2-0.1,2.3-0.1,3.4-0.1c5.2-0.1,7.7,0.3,7.7,0.3s1-5,5.4-4.7c4.4,0.3,4,6.2,4,6.2s9.7,5.5,11,9.9c1.3,4.4,2,7.7,2.3,8.7
		C239,108.2,244.7,114.4,244,117.7z"/>
</g>
<g style="opacity:0;">
	<path style="fill:#EAEAEA;" d="M223.9,192.6l-2,5h-16.1c0,0-20.8-29.6-33.2-43l0.4-1.2c0.6-0.5,1.2-1.1,1.8-1.6
		c4.5-4.4,7.8-9.8,10-14.4l17.7-13.4v40.5l13.1,23.8L223.9,192.6z"/>
	<path style="fill:#EAEAEA;" d="M105.7,192.6l-1.3,5H94c0,0-8.4-6.4-10.4-18.1c-1.3-7.4-3.5-19.4-4.9-27.3c7.1-2.3,12.3-5.4,16-8.4
		c2.1-1.7,3.7-3.4,5-4.8c1.3,0.8,2.7,1.9,4,3.3l-7,41.9L105.7,192.6z"/>
	<path style="fill:#F4F4F4;" d="M148.1,151.2c-8.3,1.7-29.2,4-53.5-7.3c6.3-5.1,8.3-9.9,8.3-9.9c9,2.7,44.9,2,44.9,2
		C148.1,138.2,148.1,144,148.1,151.2z"/>
	<path style="fill:#F4F4F4;" d="M237.7,123.9v0.8c0,0-2.6,5-5.9,3.8c-3.3-1.2-3.7-5.6-10.5-5.3c-6.8,0.3-16.8,3.3-19.1,7.6
		c-2.1,3.8-15.9,17.6-27.4,20.9c10.1-9.8,14-24.8,14-24.8s12.4-5,19.1-7.7c6.7-2.7,6.4-9.4,12.1-9.4
		C225.6,109.9,237.7,123.9,237.7,123.9z"/>
	<circle style="fill:#353535;" cx="231.4" cy="105.3" r="1.9"/>
	<g style="opacity:0.2;">
		<path d="M64.6,99.6c-12.7,7.7-13.8,20.6-13.8,23.7c-2.4,5.2-4.7,10.5-6.4,14.3c-1.2,2.8-2,4.7-2.5,5.6c-0.1,0.3-0.3,0.6-0.5,1.1
			c-1.6,3.8-6.3,15.2-19.5,15.2c-0.7,0-1.5,0-2.2-0.1c-7.2-0.6-12.1-2.5-14.6-5.6c-1.9-2.3-1.8-4.4-1.7-4.8l5,0.5c0,0,0,0,0-0.1
			c0,1.1,2.2,4.2,11.8,5.1c11.3,1,14.9-7.8,16.7-12c0.2-0.6,0.4-1.1,0.6-1.4c0.4-0.7,1.3-2.8,2.4-5.3c2.7-6.3,7.3-16.8,11.2-24.2
			C54.2,105.3,59.7,101.7,64.6,99.6z"/>
	</g>
	<g>
		<g>
			<path style="fill:#353535;" d="M202.6,114c0.2,0.7-0.2,1.5-0.9,1.7c-0.1,0-0.2,0-0.4,0c-0.6,0-1.1-0.4-1.3-1
				c-3.5-12.5,1.6-22.8,4.9-27.8c1.2-0.1,2.3-0.1,3.4-0.1C205.6,90.3,198.9,101,202.6,114z"/>
		</g>
		<g>
			<path style="fill:#353535;" d="M195.6,87.7c-1.7,2.8-4,6.6-4.4,8.4c-0.1,0.6-0.7,1.1-1.3,1.1c-0.1,0-0.2,0-0.3,0
				c-0.7-0.2-1.2-0.9-1-1.6c0.4-1.8,2-4.9,3.6-7.4C193.3,88,194.5,87.8,195.6,87.7z"/>
		</g>
		<g>
			<path style="fill:#353535;" d="M186.9,123.7c-0.2,0.2-0.5,0.3-0.8,0.3c-0.4,0-0.8-0.2-1.1-0.5c-3.1-4.2-5.1-8.2-6.3-12
				c-0.7-2.3-1.1-4.4-1.3-6.4c-0.6-6.2,0.8-11.3,2.2-14.8h0c0.8-0.1,1.6-0.3,2.4-0.4c0.3-0.1,0.5-0.1,0.8-0.1c-1.3,2.5-3,6.8-3,12.2
				c0,1,0.1,2,0.2,3c0,0.1,0,0.3,0.1,0.5c0.6,4.8,2.6,10.4,7.1,16.5C187.6,122.4,187.5,123.2,186.9,123.7z"/>
		</g>
		<g>
			<path style="fill:#353535;" d="M176.5,125.3C176.5,125.3,176.4,125.3,176.5,125.3c-0.8,0-1.4-0.6-1.3-1.4
				c0.1-2.7,0.7-16.1,2.5-19.3c0.4-0.6,1.2-0.9,1.8-0.5c0.6,0.4,0.9,1.2,0.5,1.8c-1.1,2-1.9,12.1-2.1,18
				C177.8,124.7,177.2,125.3,176.5,125.3z"/>
		</g>
		<g>
			<path style="fill:#353535;" d="M162.6,122.4c0.1,0.7-0.4,1.4-1.1,1.5c-0.1,0-0.1,0-0.2,0c-0.7,0-1.2-0.5-1.3-1.2
				c-0.9-6.3,5.7-22.6,9.2-30.7h0c1-0.2,2.1-0.4,3.1-0.5C168.5,100.3,161.8,116.8,162.6,122.4z"/>
		</g>
		<g>
			<path style="fill:#353535;" d="M148.8,110.6c0.1,0.7-0.5,1.4-1.2,1.4c0,0-0.1,0-0.1,0c-0.7,0-1.3-0.5-1.3-1.2
				c-0.3-4.3,2.2-12.2,3.6-16.3c1-0.1,1.9-0.1,2.9-0.2C151.4,97.8,148.4,106.5,148.8,110.6z"/>
		</g>
		<g>
			<path style="fill:#353535;" d="M131.4,133.7c-0.2,0-0.4,0-0.6-0.1c-5-2.5-1.8-21.1-0.7-26.7c0.1-0.7,0.8-1.2,1.6-1.1
				c0.7,0.1,1.2,0.8,1.1,1.6c-2.3,11.9-2.6,22.8-0.7,23.8c0.7,0.3,0.9,1.1,0.6,1.8C132.3,133.5,131.9,133.7,131.4,133.7z"/>
		</g>
		<g>
			<path style="fill:#353535;" d="M134.5,94.4v5.1c0,0.7-0.6,1.3-1.3,1.3c-0.7,0-1.3-0.6-1.3-1.3v-5.3
				C132.7,94.3,133.6,94.3,134.5,94.4z"/>
		</g>
		<g>
			<path style="fill:#353535;" d="M112.1,128.1c0.3,0.7-0.1,1.5-0.7,1.7c-0.2,0.1-0.3,0.1-0.5,0.1c-0.5,0-1-0.3-1.2-0.8
				c-0.5-1.3-5.1-12.7-2.9-18c1.6-4,6.5-13.9,8.4-17.8c1,0,2,0,3,0.1c-1.2,2.3-7.1,14.3-8.9,18.7
				C107.7,115.8,110.7,124.9,112.1,128.1z"/>
		</g>
		<g>
			<path style="fill:#353535;" d="M95.4,125.3c-0.5,0-1-0.3-1.2-0.7C88,112,90,101.8,90.1,101.3c0.1-0.7,0.9-1.2,1.6-1
				c0.7,0.1,1.2,0.9,1,1.6c0,0.1-1.9,9.8,3.9,21.5c0.3,0.7,0.1,1.5-0.6,1.8C95.8,125.2,95.6,125.3,95.4,125.3z"/>
		</g>
		<g>
			<path style="fill:#353535;" d="M79.5,117.3c0.2,0.7-0.2,1.5-0.9,1.7c-0.1,0-0.3,0.1-0.4,0.1c-0.6,0-1.1-0.4-1.3-0.9
				c-2-6.6,1.7-18.7,3.4-23.8c0.5-0.1,1-0.1,1.6-0.2c0,0,0.5,0,1.4-0.1C81.9,97.9,77.6,110.9,79.5,117.3z"/>
		</g>
		<g>
			<path style="fill:#353535;" d="M86,141.3c-0.4,0-0.8-0.2-1-0.5c-2.3-2.8-5.8-13.5-6.2-14.7c-0.2-0.7,0.2-1.5,0.9-1.7
				c0.7-0.2,1.5,0.2,1.7,0.9c1,3.2,4,11.8,5.7,13.8c0.5,0.6,0.4,1.4-0.2,1.9C86.6,141.2,86.3,141.3,86,141.3z"/>
		</g>
		<g>
			<path style="fill:#353535;" d="M60.6,154c-0.3,0-0.6-0.1-0.8-0.3c-8.5-6.2-7.5-32.9-7.5-34c0-0.7,0.6-1.3,1.4-1.3
				c0.7,0,1.3,0.7,1.3,1.4c-0.3,7.3,0.3,27.2,6.4,31.7c0.6,0.4,0.7,1.3,0.3,1.9C61.4,153.8,61,154,60.6,154z"/>
		</g>
	</g>
</g>
</svg>
