<?xml version="1.0" encoding="utf-8"?>
<!-- Generator: Adobe Illustrator 22.1.0, SVG Export Plug-In . SVG Version: 6.00 Build 0)  -->
<svg version="1.1" id="Layer_1" xmlns="http://www.w3.org/2000/svg" xmlns:xlink="http://www.w3.org/1999/xlink" x="0px" y="0px"
	 viewBox="0 0 256 256" style="enable-background:new 0 0 256 256;" xml:space="preserve">
<g>
	<path style="fill:#187F38;" d="M159.7,125.9c0,0-2.7,6.9-12.9,15c-0.8,0.6-1.6,1.3-2.5,1.9l-0.2,0.1c-1.2,0.9-2.4,1.7-3.8,2.6
		c-1.8,1.2-3.8,2.3-6,3.5c-6.8,3.6-15.4,7.1-26,10c-1.9,0.5-3.9,1-6,1.5c-1.4,0.3-2.7,0.6-4.1,0.9c-0.3,0.1-0.6,0.1-0.9,0.2
		c-1,0.2-2,0.4-2.9,0.6c-3.2,0.6-6.4,1.2-9.3,1.6c-2.4,0.4-4.8,0.7-7,1c-9.8,1.3-18.1,1.7-25,1.7c-2.5,0-4.8-0.1-7-0.2
		c-0.2,0-0.3,0-0.5,0c-0.6,0-1.1-0.1-1.7-0.1c-1.1-0.1-2.1-0.2-3.1-0.3c-11-1.1-16-3.3-16-3.3c0-0.1,0-0.2,0-0.2
		c0.9-8.2,2.8-16,5.7-23.2c0.4-1,0.8-1.9,1.2-2.9c4-9.1,9.5-17.3,16-24.1c0.9-1,1.9-1.9,2.9-2.9c14.8-14,34.5-21.6,55.3-19.5
		c1.5,0.2,3,0.4,4.5,0.6c1.2,0.2,2.3,0.4,3.5,0.7c10.5,2.4,20,7.2,28.1,13.8c0.8,0.6,1.5,1.3,2.3,2c5.2,4.6,9.7,9.9,13.5,15.9
		C158.5,123.8,159.1,124.8,159.7,125.9z"/>
	<path style="fill:#187F38;" d="M240.8,69.7c0.1,11.8-2.5,15.2-2.5,15.2s-11.7,3.6-25,1.6c0,0-25.3,42.9-36.5,51.5
		c-10.4,8-21.4,9.4-32.8,4.9l0.2-0.1c0.9-0.6,1.7-1.3,2.5-1.9c10.2-8.1,12.9-15,12.9-15c-0.6-1-1.2-2.1-1.9-3.1
		c2.3-0.5,6.1-2.5,12-9.1c11.3-12.7,14-45.7,18-50c4-4.3,6-17,25-16S240.7,55,240.8,69.7z"/>
	<path style="fill:#187F38;" d="M45.5,166.3c-13.2,7.2-39.4,7.2-39.4,7.2c5.7-1.6,13.7-7.2,18.7-11.1c0,0.1,0,0.2,0,0.2
		c0,0,5,2.2,16,3.3c1,0.1,2,0.2,3.1,0.3C44.4,166.2,45,166.3,45.5,166.3z"/>
	<path style="fill:#187F38;" d="M144,153.6c-2,20.5-18,32.3-34.1,35.1c0,0-13.5,2.9-9.8-1.8c4.2-5.3,11.3-18.3,12-22.3
		c0.4-2.2-0.3-4.6-1.2-6.4c13.6-4,23.6-8.9,30.8-13.8C143.2,145.7,144.6,148.3,144,153.6z"/>
	<path style="fill:#187F38;" d="M83.5,170.7C76.7,183.7,42,189,42,189s-11.8,0.7-6.8-3.9c3.5-3.2,18-12.7,18.9-15.5
		c0.3-1.1,0.6-2.1,0.8-3c8.3-0.1,18.3-0.8,30.4-2.7C85.3,165.7,84.8,168,83.5,170.7z"/>
</g>
<g style="opacity:0;">
	<circle cx="220.2" cy="61.6" r="3.3"/>
	<circle style="opacity:0.6;" cx="236.2" cy="70.1" r="1.3"/>
	<g>
		<g>
			<path style="fill:#89653E;" d="M132.8,116.1c4.9-3.6,8.8-6.9,11.4-9.2c-0.8-0.7-1.5-1.3-2.3-2c-4.6,4.1-13.3,11.2-24.3,17.7
				c-3.1-5.2-13-17.4-15.9-20.9c6.3-4.3,10.6-8.8,12.1-10.5c-1.1-0.3-2.3-0.5-3.5-0.7c-3.8,3.9-13.5,12.7-25.8,16.4
				c-10.1,3-24.5,2.9-34,2.4c-1,0.9-1.9,1.9-2.9,2.9c3.3,0.2,7.5,0.4,12.1,0.5c-1.7,4.4-5.1,14.9-5,25.6c-9.1-0.2-17.3-1.1-23.2-1.9
				c-0.4,0.9-0.8,1.9-1.2,2.9c3.3,0.5,7.4,1,12.1,1.4c-0.8,3.6-3,15.4-1.8,25.4c1,0.1,2,0.2,3.1,0.3c-1.4-9.9,1.1-22.5,1.7-25.4
				c4.2,0.3,8.8,0.5,13.5,0.5c9.8,0,20.3-0.8,30.1-3.3c1,4,3.6,15.6,5.1,24.2c1-0.2,1.9-0.4,2.9-0.6c-1.6-8.8-4.2-20.4-5.2-24.4
				c9.1-2.6,17.8-6.7,25.5-11.1c0,0,0,0,0,0c0.2-0.1,0.3-0.2,0.5-0.3c0,0,0,0,0,0c4.5-2.6,8.6-5.4,12.3-8
				c2.6,3.8,10.6,15.7,13.9,24.9c0.9-0.6,1.7-1.3,2.5-1.9C143.2,131.3,135.4,119.8,132.8,116.1z M90,134.7
				C90,134.7,90,134.7,90,134.7c-10.5,2.8-21.8,3.6-32.2,3.6c-0.2-11.2,3.9-22.5,5.2-25.7c7.6-0.1,15.8-0.8,22.4-2.8
				c5.2-1.5,9.8-3.9,13.8-6.4c5.6,6.8,13.5,16.8,15.9,20.8C107.5,128.4,99,132.3,90,134.7z"/>
		</g>
	</g>
	<g>
		<path style="fill:#72542E;" d="M59.8,112.6c-1.7,4.4-5.1,14.9-5,25.6c-9.1-0.2-17.3-1.1-23.2-1.9c4-9.1,9.5-17.3,16-24.1
			C51,112.4,55.2,112.6,59.8,112.6z"/>
		<path style="fill:#72542E;" d="M110.4,90.5c-3.8,3.9-13.5,12.7-25.8,16.4c-10.1,3-24.5,2.9-34,2.4c14.8-14,34.5-21.6,55.3-19.5
			C107.4,90,108.9,90.2,110.4,90.5z"/>
		<path style="fill:#72542E;" d="M115.1,124.1c-7.6,4.3-16.1,8.2-25.1,10.6c0,0,0,0,0,0c-10.4,2.8-21.8,3.6-32.1,3.5
			c-0.2-11.2,3.9-22.5,5.2-25.7c7.6-0.1,15.8-0.8,22.4-2.8c5.2-1.5,9.8-3.9,13.8-6.4C104.8,110.1,112.7,120.2,115.1,124.1z"/>
		<path style="fill:#72542E;" d="M141.9,105c-4.6,4.1-13.3,11.2-24.3,17.7c-3.1-5.2-13-17.4-15.9-20.9c6.3-4.3,10.6-8.8,12.1-10.5
			C124.3,93.5,133.8,98.3,141.9,105z"/>
		<path style="fill:#72542E;" d="M40.8,165.9c-11-1.1-16-3.3-16-3.3c0.8-8.3,2.8-16.1,5.7-23.4c3.3,0.5,7.4,1,12.1,1.4
			C41.8,144.1,39.6,155.9,40.8,165.9z"/>
		<path style="fill:#72542E;" d="M94.3,162.2c-22.6,4.4-39.2,4.8-50.5,4c-1.4-9.9,1.1-22.5,1.7-25.4c4.2,0.3,8.8,0.5,13.5,0.5
			c9.8,0,20.3-0.8,30.1-3.3C90.2,142,92.8,153.6,94.3,162.2z"/>
		<path style="fill:#72542E;" d="M144.3,142.8c-9.3,6.8-23.8,14-46.1,18.7c-0.3,0.1-0.6,0.1-0.9,0.2c-1.6-8.8-4.2-20.4-5.2-24.4
			c9.1-2.6,17.8-6.7,25.5-11.1c0,0,0,0,0,0c0.2-0.1,0.3-0.2,0.5-0.3c0,0,0,0,0,0c4.5-2.6,8.6-5.4,12.3-8
			C133,121.6,141,133.5,144.3,142.8z"/>
		<path style="fill:#72542E;" d="M159.7,125.9c0,0-2.7,6.9-12.9,15c-3.6-9.6-11.4-21.1-13.9-24.8c4.9-3.6,8.8-6.9,11.4-9.2
			C150.3,112.3,155.5,118.7,159.7,125.9z"/>
	</g>
</g>
</svg>
