<?xml version="1.0" encoding="utf-8"?>
<!-- Generator: Adobe Illustrator 22.1.0, SVG Export Plug-In . SVG Version: 6.00 Build 0)  -->
<svg version="1.1" id="Layer_1" xmlns="http://www.w3.org/2000/svg" xmlns:xlink="http://www.w3.org/1999/xlink" x="0px" y="0px"
	 viewBox="0 0 256 256" style="enable-background:new 0 0 256 256;" xml:space="preserve">
<g style="opacity:0;">
	<path style="fill:#2E5366;" d="M181.5,217l7.5,6.5l-1.6,4.7h-10.9l-1.7-3.8l-1.3-2.9l-2.2-4.8l-1.4-15.1l5.4-38.1
		c5.1-2.4,11.3-8.5,17.2-15.6c-2.3,8.1-8,28.4-9.8,31.4C180.5,183,181.5,217,181.5,217z"/>
	<path style="fill:#2E5366;" d="M64.5,220l8.3,2.3l-1,5.9H60.4l-10.9-23.7c0,0-1.6-6.4-1.8-12.8c0.8-0.3,1.6-0.6,2.4-0.8
		c11.4-3.2,31.6-25.3,37.6-32.2c-3.3,7.7-10,21.3-18.5,27.7C57,195.5,61,207.5,61,207.5L64.5,220z"/>
	<polygon style="fill:#2E5366;" points="175.2,222.8 174.8,224.4 173.4,221.5 	"/>
	<path style="fill:#2E5366;" d="M222.2,69.2c3.3,6.8,1,13.7,1,13.7s-0.2-1.8-1.5-3.7c0,0,0.8,10.7-0.3,14.8c0,0-0.5-3.5-2.2-4.5
		c0,0-3.8,22.8-5,26.5c-0.8,2.4-10.7,18.8-21.6,31.9c-5.9,7.1-12.1,13.2-17.2,15.6l-5.4,38.1l-2.2,15.5l5.8,4.4l1.3,2.9l-0.9,3.8
		H163l-7.2-14.4l-2.7-49c0,0-45-3.8-63.7-8.2c0,0-0.6,0.7-1.7,2c0,0,0,0,0,0c-6,6.8-26.2,28.9-37.6,32.2c-0.9,0.2-1.7,0.5-2.4,0.8
		c-11.4,4.6-13.4,15.8-13.4,15.8v12.2l5.8,4.3l-0.3,4.2H25.7l-3.8-14.9c0,0,0-24.1,17.7-46.6c7-8.9,3.4-21,1.9-32.8
		c-3.3,3.8-5.4,8-5.4,8s-9,19-11.5,26.5s-20,22.1-20,22.1S8,168,12,160s1.5-29.5,15.5-44c8.4-8.7,17.2-10.4,22.9-10.3
		c2.6-2,5.9-3.8,9.9-5.4c0,0,64.6-6.4,85.3-13.8C168.1,78.5,164,73,164,73s-13.8-2.5,0.1-11.5c13.9-9,13.9-9,13.9-9
		s11.7-20.8,20.5-19L210,14.4c0,0,4.7,3,6.1,5.3c0,0,0,0,0,0c0,0.1,0.1,0.3,0.3,0.6c0,0,0,0,0,0c0.6,1.3,1.7,3.9,1.7,5.2
		c0,1.6,1,11.9,1,11.9s5.1-0.9,6.3-2.1c1.1-1.2,3.3-0.2,3.5-0.1h0c0.8,0,1.6,0.4,1.6,1.9c0,3.3-7.8,12.5-8.7,16
		C221,56.5,218.8,62.3,222.2,69.2z"/>
	<path style="fill:#2E5366;" d="M216.4,20.3c-0.1-0.3-0.2-0.5-0.3-0.6C216.3,19.9,216.4,20.1,216.4,20.3z"/>
</g>
<g>
	<path style="opacity:0.2;" d="M222.2,69.2c3.3,6.8,1,13.7,1,13.7s-0.2-1.8-1.5-3.7c0,0,0.8,10.7-0.3,14.8c0,0-0.5-3.5-2.2-4.5
		c0,0-3.8,22.8-5,26.5c-0.8,2.4-10.7,18.8-21.6,31.9c-5.9,7.1-12.1,13.2-17.2,15.6l-5.4,38.1l-2.2,15.5l5.8,4.4l1.3,2.9l-0.9,3.8
		H163l-7.2-14.4l-2.7-49c0,0-45-3.8-63.7-8.2c0,0-0.6,0.7-1.7,2c0,0,0,0,0,0c-6,6.8-26.2,28.9-37.6,32.2c-0.9,0.2-1.7,0.5-2.4,0.8
		c-11.4,4.6-13.4,15.8-13.4,15.8v12.2l5.8,4.3l-0.3,4.2H25.7l-3.8-14.9c0,0,0-24.1,17.7-46.6c7-8.9,3.4-21,1.9-32.8
		c-3.3,3.8-5.4,8-5.4,8s-9,19-11.5,26.5s-20,22.1-20,22.1S8,168,12,160s1.5-29.5,15.5-44c8.4-8.7,17.2-10.4,22.9-10.3
		c2.6-2,5.9-3.8,9.9-5.4c0,0,64.6-6.4,85.3-13.8C168.1,78.5,164,73,164,73s-13.8-2.5,0.1-11.5c13.9-9,13.9-9,13.9-9
		s11.7-20.8,20.5-19L210,14.4c0,0,4.7,3,6.1,5.3c0,0,0,0,0,0c0,0.1,0.1,0.3,0.3,0.6c0,0,0,0,0,0c0.6,1.3,1.7,3.9,1.7,5.2
		c0,1.6,1,11.9,1,11.9s5.1-0.9,6.3-2.1c1.1-1.2,3.3-0.2,3.5-0.1h0c0.8,0,1.6,0.4,1.6,1.9c0,3.3-7.8,12.5-8.7,16
		C221,56.5,218.8,62.3,222.2,69.2z"/>
	<path style="opacity:0.7;fill:#FFFFFF;" d="M181.5,217l7.5,6.5l-1.6,4.7h-10.9l-1.7-3.8l-1.3-2.9l-2.2-4.8l-1.4-15.1l5.4-38.1
		c5.1-2.4,11.3-8.5,17.2-15.6c-2.3,8.1-8,28.4-9.8,31.4C180.5,183,181.5,217,181.5,217z"/>
	<path style="opacity:0.7;fill:#FFFFFF;" d="M64.5,220l8.3,2.3l-1,5.9H60.4l-10.9-23.7c0,0-1.6-6.4-1.8-12.8
		c0.8-0.3,1.6-0.6,2.4-0.8c11.4-3.2,31.6-25.3,37.6-32.2c-3.3,7.7-10,21.3-18.5,27.7C57,195.5,61,207.5,61,207.5L64.5,220z"/>
	
		<ellipse transform="matrix(0.5426 -0.84 0.84 0.5426 51.7601 180.855)" style="fill:#172128;" cx="191.9" cy="42.9" rx="2.3" ry="1"/>
	<path style="fill:#172128;" d="M228.9,35.1c-1.1,0-2.4,0.7-2.4,0.7c-0.5,4.8-11.5,8.8-13,7.7s3.2-20.5,3-22.8c0-0.1,0-0.2-0.1-0.3
		c0.6,1.3,1.7,3.9,1.7,5.2c0,1.6,1,11.9,1,11.9s5.1-0.9,6.3-2.1C226.5,34,228.7,35,228.9,35.1z"/>
</g>
</svg>
