<?xml version="1.0" encoding="utf-8"?>
<!-- Generator: Adobe Illustrator 22.1.0, SVG Export Plug-In . SVG Version: 6.00 Build 0)  -->
<svg version="1.1" id="Layer_1" xmlns="http://www.w3.org/2000/svg" xmlns:xlink="http://www.w3.org/1999/xlink" x="0px" y="0px"
	 viewBox="0 0 256 256" style="enable-background:new 0 0 256 256;" xml:space="preserve">
<g>
	<path style="fill:#663A1A;" d="M101.2,192.8H79.9c0,0-5.6-13.5-20.2-22.4l0.2-9.8l0.1-2.5V158l0,0c3.3-6.7,10.3-6.1,11.5-5.7
		c-0.5,0.8-0.8,1.7-1.2,2.6c-0.1,0.3-0.2,0.7-0.3,1.1c-0.2,0.6-0.3,1.3-0.4,2c-0.1,0.8-0.2,1.7-0.2,2.6c0,1.7,0.1,3.5,0.3,5.3
		c0,0,3.9-5.7,8.7-10.1c-2.2,3.8-1.1,11.5,0.4,13.6C81,172.6,101.2,192.8,101.2,192.8z"/>
	<path style="fill:#663A1A;" d="M36.2,125.3c-0.9,2.5-0.1,11.1,0.9,19.2c-0.7,2.3-1.4,4.3-2.1,5.5c-2.5,3.9-5.8,12.7-6.7,18.9
		c-1.1,7.8-6.7,9-6.7,9c3.4-6.7,1.1-12.3,1.1-12.3c-3.4,1.1-5.6,5.6-5.6,5.6c-1.1-3.4-2.2-5.5,7.8-16.8
		c17.9-20.2,6.7-22.4,10.1-41.5c2.3-12.9,8.1-16.5,11.7-17.6C37,104.1,35.2,122.1,36.2,125.3z"/>
	<path style="fill:#663A1A;" d="M171,163l-5.8-2.5l-0.7-0.3c0.3-0.5,0.6-0.9,0.7-1.4c0.1-0.5,0.4-1,0.9-1.5c1-0.9,2.6-1.5,4.6-0.4
		C173.9,158.6,171.9,161.6,171,163z"/>
	<path style="fill:#663A1A;" d="M194.9,165.6c-0.2,1-0.4,1.9-0.7,2.6c-2.2,5.6-5.6,11.2-5.6,11.2s-11.2,2.3-13.5,9l-2.3-12.3
		c0,0,7.8-4.5,10.1-7.9l-10.8-4.7c3.4-1.4,8.3-6.7,9.3-7.3c2.7-1.6,6.3,0.3,10.5,6.3C193,164,194,165,194.9,165.6z"/>
	<path style="fill:#663A1A;" d="M195.4,160.4c-0.5-1.4-0.7-2.9,0-4.3C195.4,157.5,195.4,158.9,195.4,160.4z"/>
	<path style="fill:#663A1A;" d="M170.8,157c-1.9,1.1-3.7,2.2-5.6,3.5c-0.4,0.3-0.8,0.6-1.2,0.9c0,0-7.8,12.3-12.3,16.8l9,17.9H146
		l-4.5-15.7c0,0-12.3-6.7-9-23.5c0,0,0.1-0.3,0.1-0.9c5.1,1,9.3,2.4,8.9,4.7c-0.9,4.6-2.3,6.8-3.4,7.8c3-1.7,7.4-6.3,9.5-8.6
		c3.2-3.4,10.6-4.8,12-2.6c0.1,0.2,0.2,0.5,0.2,0.7c0,0.1,0,0.2,0,0.2c0,0.1,0,0.1,0,0.2c-0.5,3.6-2.6,7.3-2.7,7.5c0,0,0,0,0,0
		c0.6-0.4,5.4-3.2,7.2-5.7c0.3-0.5,0.6-0.9,0.7-1.4c0.1-0.5,0.4-1,0.9-1.5C167.4,157.1,169,157,170.8,157z"/>
	<path style="fill:#663A1A;" d="M136.5,169.5c0,0,0.7-0.4,1.7-1C137.3,169.5,136.5,169.5,136.5,169.5z"/>
	<path style="fill:#663A1A;" d="M49.6,170.3c-2.3,7.9-1.1,16.8-1.1,16.8l5.6,9H36.2V158c0,0,1-1,2.4-2.8c0.5,3.2,0.8,5.4,0.8,5.5
		c0.3-0.2,6.2-2.7,7-5.6c0-0.2,0.2-0.4,0.4-0.6c0,0.1,0,0.2,0,0.3c-0.5,3.6-2.6,7.3-2.7,7.5c0.3-0.2,6-4.3,6.7-7.2
		c0.3-1.3,8.1-8.9,7.5-5.5c-1.6,8.2,1.1,10.4,1.1,10.4c0.2-0.7,0.5-1.3,0.8-1.9l-0.1,2.5C57.6,161.3,51.4,164,49.6,170.3z"/>
	<path style="fill:#663A1A;" d="M101.7,153c-0.5-0.2-1-0.3-1.5-0.5C100.8,152.5,101.3,152.7,101.7,153z"/>
	<path style="fill:#663A1A;" d="M110.5,154.4c-0.8,0-1.7-0.1-2.5-0.2c0.6-0.4,1.3-0.6,2.3-0.5C110.3,153.8,110.4,154,110.5,154.4z"
		/>
	<path style="fill:#663A1A;" d="M136.5,169.5c0,0,0.7-0.4,1.7-1C137.3,169.5,136.5,169.5,136.5,169.5z"/>
	<path style="fill:#663A1A;" d="M246.9,117.7L234,143.5c1.2,0.6,1.7,1.9,1.2,3.2c-0.4,1-1.3,1.6-2.3,1.6c-0.3,0-0.6-0.1-0.9-0.2
		l-0.2-0.1l-0.6,1.1c0,0-3.4,4.5-7.8,2.3c0,0-1.1,9-9,13.5c0,0-2.2,0-1.1,4.5c0,0-7.8,1.1-10.1-10.1c0,0-2.4-3.6-5.4-5.5
		c-0.4,0.3-0.7,0.4-0.7,0.4c-0.9,0.6-1.4,1.3-1.7,2.1c-0.6,1.4-0.5,2.9,0,4.3c1.2,3.2,4.1,6.1,4.1,6.1s-1.8,1.1-4.6-0.9
		c-0.9-0.7-1.9-1.7-2.9-3.1c-4.3-6-7.8-7.8-10.5-6.3c-1,0.6-5.9,5.9-9.3,7.3L171,163c0.9-1.4,2.9-4.4-0.2-6c-2-1.1-3.7-0.5-4.6,0.4
		c-0.5,0.5-0.8,1-0.9,1.5c-0.1,0.4-0.4,0.9-0.7,1.4c-1.9,2.6-6.7,5.4-7.2,5.7c0,0,0,0,0,0c0.1-0.2,2.3-3.9,2.7-7.5
		c0-0.1,0-0.2,0-0.2c0-0.1,0-0.2,0-0.2c0-0.3-0.1-0.5-0.2-0.7c-1.4-2.2-8.8-0.8-12,2.6c-2.2,2.3-6.5,6.9-9.5,8.6
		c1.1-1,2.5-3.2,3.4-7.8c0.4-2.3-3.8-3.8-8.9-4.7c-4.2-0.8-9.1-1.2-12.5-1.4c-6.3-0.3-0.7,8.7-0.7,8.7c-5.6-0.8-8.2-6.9-9-8.9
		c-0.1-0.4-0.2-0.6-0.2-0.6c-1-0.1-1.7,0.1-2.3,0.5c-3.3,2.1-1.5,10.1-1.5,10.1c-7.5-3.1-2.4-9.5-4.8-11.4c-0.3-0.3-0.8-0.4-1.5-0.5
		c-0.3,0-0.7,0-1.1,0C91.3,153,87.8,164,87.8,164c-5.3-6.8,6-15-1.3-13.5c-1.9,0.4-4,1.6-6,3.3c0,0,0,0,0,0c-0.9,0.3-1.6,1-2.1,1.8
		c-4.7,4.5-8.7,10.1-8.7,10.1c-0.2-1.8-0.3-3.5-0.3-5.3c0-0.9,0-1.8,0.2-2.6c0.1-0.7,0.2-1.3,0.4-2c0.1-0.4,0.2-0.7,0.3-1.1
		c0.3-0.9,0.7-1.8,1.2-2.6c-1.1-0.4-8.1-1-11.5,5.7l0,0v0.1c-0.3,0.6-0.5,1.2-0.8,1.9c0,0-2.7-2.2-1.1-10.4c0.7-3.4-7.1,4.2-7.5,5.5
		c-0.7,2.9-6.4,7-6.7,7.2c0.1-0.2,2.3-3.9,2.7-7.5c0-0.1,0-0.2,0-0.3c-0.2,0.2-0.3,0.3-0.4,0.6c-0.7,2.9-6.7,5.4-7,5.6
		c0-0.1-0.3-2.2-0.8-5.5c-0.4-2.9-1-6.8-1.5-10.7c-1-8.1-1.8-16.7-0.9-19.2c-1-3.3,0.8-21.2,10.6-30.1c1.5-1.4,3.2-2.5,5.1-3.4
		c10.1-4.5,20.2-1.1,37-14.6c17.4-13.9,67.3-26.9,86.3-21.3c19,5.6,33.6,23.5,33.6,23.5s23.5-3.4,31.4,12.3
		C248.1,107.6,246.9,117.7,246.9,117.7z"/>
	<path style="fill:#663A1A;" d="M60,158C60,158,60,158,60,158L60,158L60,158z"/>
	<path style="fill:#663A1A;" d="M80.5,153.8c-0.7,0.6-1.4,1.2-2.1,1.8C78.9,154.8,79.6,154.1,80.5,153.8z"/>
	<path style="fill:#663A1A;" d="M172.2,163.5c-0.5,0.2-1,0.3-1.4,0.3c-0.3,0-0.1-0.3,0.2-0.9L172.2,163.5z"/>
	<g>
		<path style="fill:#663A1A;" d="M245.3,70.4l-3.3,7.7c-0.2,0.5-5.6,12.6-21.3,16.1c-0.4,0.1-1.7,0.4-3.2,0.4
			c-1.6,0-3.4-0.3-4.8-1.4c-1.2-0.9-1.8-2.3-1.8-3.9c0-1.3,0.6-4.4,5.9-5.2c4-0.6,12-2.7,21.6-9L245.3,70.4z"/>
	</g>
	<g>
		<path style="fill:#663A1A;" d="M232.9,148.2c-0.3,0-0.6-0.1-0.9-0.2l-8.4-3.4c-1.3-0.5-1.9-2-1.4-3.3c0.5-1.3,2-1.9,3.3-1.4
			l8.4,3.4c1.3,0.5,1.9,2,1.4,3.3C234.9,147.6,233.9,148.2,232.9,148.2z"/>
	</g>
</g>
<g style="opacity:0;">
	<g style="opacity:0.2;">
		<path d="M232.4,115.3c-0.4,0.9-1.3,1.5-2.3,1.5c-0.3,0-0.7-0.1-1-0.2l-0.7-0.3l-4-1.7l-3.2-1.4c-1.3-0.5-1.9-2-1.3-3.3
			c0.6-1.3,2-1.9,3.3-1.3l7.8,3.4C232.4,112.5,233,114,232.4,115.3z"/>
	</g>
	<path style="opacity:0.3;" d="M228.4,116.3c-0.1,1.1-1.1,1.9-2.2,1.9c-1.2,0-2.2-1-2.2-2.2c0-0.5,0.2-1,0.5-1.4L228.4,116.3z"/>
	<g style="opacity:0.2;">
		<path d="M204.3,109c-0.2,0-0.5,0-0.7-0.1c-2.2-0.6-8.7-2.5-9.1-7.2c-0.4-4.8,6.3-8.1,7.6-8.7l1.7-0.8l6.8,8.2
			c0.9,1.1,0.7,2.6-0.3,3.5c-1.1,0.9-2.6,0.7-3.5-0.3l-4.3-5.2c-1.8,1.1-3.1,2.4-3,2.9c0,0,0.5,1.3,5.5,2.7c1.3,0.4,2.1,1.8,1.7,3.1
			C206.4,108.2,205.4,109,204.3,109z"/>
	</g>
	<path style="opacity:0.2;" d="M101.2,192.8H79.9c0,0-5.6-13.5-20.2-22.4l0.2-9.8l0.1-2.5V158l0,0c3.3-6.7,10.3-6.1,11.5-5.7
		c-0.5,0.8-0.8,1.7-1.2,2.6c-0.1,0.3-0.2,0.7-0.3,1.1c-0.2,0.6-0.3,1.3-0.4,2c-0.1,0.8-0.2,1.7-0.2,2.6c0,1.7,0.1,3.5,0.3,5.3
		c0,0,3.9-5.7,8.7-10.1c-2.2,3.8-1.1,11.5,0.4,13.6C81,172.6,101.2,192.8,101.2,192.8z"/>
	<path style="opacity:0.2;" d="M36.2,125.3c-0.9,2.5-0.1,11.1,0.9,19.2c-0.7,2.3-1.4,4.3-2.1,5.5c-2.5,3.9-5.8,12.7-6.7,18.9
		c-1.1,7.8-6.7,9-6.7,9c3.4-6.7,1.1-12.3,1.1-12.3c-3.4,1.1-5.6,5.6-5.6,5.6c-1.1-3.4-2.2-5.5,7.8-16.8
		c17.9-20.2,6.7-22.4,10.1-41.5c2.3-12.9,8.1-16.5,11.7-17.6C37,104.1,35.2,122.1,36.2,125.3z"/>
	<path style="opacity:0.2;" d="M194.9,165.6c-0.2,1-0.4,1.9-0.7,2.6c-2.2,5.6-5.6,11.2-5.6,11.2s-11.2,2.3-13.5,9l-2.3-12.3
		c0,0,7.8-4.5,10.1-7.9l-10.8-4.7c3.4-1.4,8.3-6.7,9.3-7.3c2.7-1.6,6.3,0.3,10.5,6.3C193,164,194,165,194.9,165.6z"/>
	<path style="opacity:0.2;" d="M170.8,157c-1.9,1.1-3.7,2.2-5.6,3.5c-0.4,0.3-0.8,0.6-1.2,0.9c0,0-7.8,12.3-12.3,16.8l9,17.9H146
		l-4.5-15.7c0,0-12.3-6.7-9-23.5c0,0,0.1-0.3,0.1-0.9c5.1,1,9.3,2.4,8.9,4.7c-0.9,4.6-2.3,6.8-3.4,7.8c3-1.7,7.4-6.3,9.5-8.6
		c3.2-3.4,10.6-4.8,12-2.6c0.1,0.2,0.2,0.5,0.2,0.7c0,0.1,0,0.2,0,0.2c0,0.1,0,0.1,0,0.2c-0.5,3.6-2.6,7.3-2.7,7.5c0,0,0,0,0,0
		c0.6-0.4,5.4-3.2,7.2-5.7c0.3-0.5,0.6-0.9,0.7-1.4c0.1-0.5,0.4-1,0.9-1.5C167.4,157.1,169,157,170.8,157z"/>
	<path style="opacity:0.2;" d="M49.6,170.3c-2.3,7.9-1.1,16.8-1.1,16.8l5.6,9H36.2V158c0,0,1-1,2.4-2.8c0.5,3.2,0.8,5.4,0.8,5.5
		c0.3-0.2,6.2-2.7,7-5.6c0-0.2,0.2-0.4,0.4-0.6c0,0.1,0,0.2,0,0.3c-0.5,3.6-2.6,7.3-2.7,7.5c0.3-0.2,6-4.3,6.7-7.2
		c0.3-1.3,8.1-8.9,7.5-5.5c-1.6,8.2,1.1,10.4,1.1,10.4c0.2-0.7,0.5-1.3,0.8-1.9l-0.1,2.5C57.6,161.3,51.4,164,49.6,170.3z"/>
	<g style="opacity:0.2;">
		<path d="M245.3,70.4l-3.3,7.7c-0.2,0.5-5.6,12.6-21.3,16.1c-0.4,0.1-1.7,0.4-3.2,0.4c-1.6,0-3.4-0.3-4.8-1.4
			c-1.2-0.9-1.8-2.3-1.8-3.9c0-1.3,0.6-4.4,5.9-5.2c4-0.6,12-2.7,21.6-9L245.3,70.4z"/>
	</g>
	<g style="opacity:0.2;">
		<path d="M232.9,148.2c-0.3,0-0.6-0.1-0.9-0.2l-8.4-3.4c-1.3-0.5-1.9-2-1.4-3.3c0.5-1.3,2-1.9,3.3-1.4l8.4,3.4
			c1.3,0.5,1.9,2,1.4,3.3C234.9,147.6,233.9,148.2,232.9,148.2z"/>
	</g>
	<g style="opacity:0.2;">
		<path d="M184.7,93c-1,0-1.9-0.5-2.3-1.5l0,0c-0.1-0.1-5.3-11.5-15.5-16.1c-1.3-0.6-1.8-2-1.3-3.3c0.6-1.3,2-1.8,3.3-1.3
			c12,5.4,17.8,18.1,18.1,18.6c0.6,1.3,0,2.7-1.3,3.3C185.4,92.9,185.1,93,184.7,93z"/>
	</g>
</g>
</svg>
