<?xml version="1.0" encoding="utf-8"?>
<!-- Generator: Adobe Illustrator 22.1.0, SVG Export Plug-In . SVG Version: 6.00 Build 0)  -->
<svg version="1.1" id="Layer_1" xmlns="http://www.w3.org/2000/svg" xmlns:xlink="http://www.w3.org/1999/xlink" x="0px" y="0px"
	 viewBox="0 0 256 256" style="enable-background:new 0 0 256 256;" xml:space="preserve">
<g>
	<path style="fill:#F9F9F9;" d="M159.8,152.1l-10.6,35.1l1.5,32.3l12.3,8.5l-14.3,0.2l-7.1-5.6l-1.3-32.3c0,0,11.3-32,25.5-45.2
		c0.9-0.9,1.8-1.6,2.8-2.3c1.1-0.8,2.1-1.4,3.2-2C169,144.5,164.9,149,159.8,152.1z"/>
	<polygon style="fill:#F9F9F9;" points="72.6,227.1 57.8,227.3 52.5,216.8 46.3,179.4 48.7,171.3 52.6,167.1 54.8,164.8 71.2,147.3 
		57,178.3 61.5,215.3 	"/>
	<g>
		<path style="fill:#F9F9F9;" d="M32,105.1c0,0-1.1,4.4-1.6,11.2l0.2,0.3c0,0,0.4,2,0.9,4.9c0.1,0.4,0.1,0.7,0.2,1.1
			c0.1,3.7,0.5,7.2,1.2,9.7c2.3,9.5-6.8,30.3-7.8,32.7c0,0.1-0.1,0.2-0.2,0.3l0,0c-0.5,0.7-1.3,1.1-2.1,1.1c-0.3,0-0.7-0.1-1-0.2
			c-1.2-0.5-1.8-1.9-1.4-3.1c0-0.1,0.1-0.2,0.1-0.2c2.6-5.9,9.1-22.8,7.5-29.5c-1.9-7.6-2.5-25.6,2.9-34.2c1.7-2.6,3.7-4.3,6.2-4.8
			c-1.3,1.9-2.3,3.7-3,5.3c-0.5,1-0.9,2-1.2,2.8C32.2,104.1,32,105.1,32,105.1z"/>
	</g>
	<path style="fill:#F9F9F9;" d="M251.3,95.4l-12.9,9.1l-10.5-8.3l-10.6-8.4l0,0l-4.7-3.7l-0.4-0.3c0,0-4.2,4.5-9.8,11.3
		c-0.9,1.1-1.9,2.3-2.9,3.5c-4.2,5.2-8.9,11.2-13.1,17.4c-0.8,1.1-1.5,2.3-2.3,3.4c-3.6,5.4-6.6,10.8-8.5,15.6c0,0-1.4,2.6-3.9,5.9
		c0,0,0,0,0,0c-1.1,0.5-2.1,1.2-3.2,2c-0.9,0.7-1.9,1.5-2.8,2.3c-14.2,13.2-25.5,45.2-25.5,45.2l1.3,32.3l0,1l5.5,4.6l-16.5,0
		l0.1-12.4l-0.3-28.1l3.6-15.1l0.7-2.9l1.9-8l0.9-3.9v0l1.7-7.2c0,0-0.6,0-1.7,0.1h0c-0.9,0.1-2.2,0.1-3.6,0.2
		c-1.2,0.1-2.6,0.1-4.1,0.2c-1.1,0-2.2,0.1-3.4,0.1c-5,0.2-11,0.3-16.8,0.1c-1.2,0-2.4-0.1-3.6-0.2c-7.3-0.4-14-1.3-18-3.1
		c-0.1-0.1-0.2-0.1-0.3-0.1c-1.4-0.7-2.6-1.2-3.8-1.6c-9.1-3.3-12.3,0.4-12.3,0.4l-0.5,0.5l-16.4,17.4l-2.2,2.4l-3.9,4.1l-10.6,11.3
		l7.3,38.4l8.6,8.4l-16.3,0.1l-1.4-13.8c-0.8-2.2-2.4-5.8-3.4-10c-2.6-10.5-4.3-21-4.3-25.8c0.9-0.9,2-4.2,3.1-7
		c0.3-0.7,0.5-1.3,0.7-2c0.3-0.9,0.6-1.9,0.8-2.9c1.8-8,1.5-17.6,2-22.1c0.1-0.6,0.2-1.2,0.3-1.6c0-0.2-0.1-0.8-0.3-1.5
		c-0.6-3.4-2-11.2-3.1-17.4c-0.2-0.9-0.3-1.7-0.5-2.5c-0.1-0.4-0.1-0.8-0.2-1.1c-0.5-2.9-0.9-4.9-0.9-4.9l-0.2-0.3
		c0.5-6.8,1.6-11.2,1.6-11.2s0.3-1,0.9-2.6c0.3-0.8,0.7-1.8,1.2-2.8c0.8-1.6,1.8-3.4,3-5.3c1.8-2.7,4.3-5.5,7.5-7.9
		c0.8-0.6,1.7-1.2,2.6-1.7c3.2-1.9,7.1-3.4,11.7-3.9c1.1-0.1,2.2-0.2,3.3-0.2c1.2,0,2.3,0,3.6,0.1c6.9,0.4,13.8,1.4,20.8,2.3
		c1,0.1,2,0.3,3,0.4c4.9,0.7,9.9,1.3,15.1,1.8c1,0.1,2,0.2,3,0.2c4,0.3,8.1,0.4,12.3,0.4c1,0,2,0,3-0.1c2.4-0.1,4.8-0.3,7.2-0.5
		c1.1-0.1,2.2-0.2,3.3-0.4c2.1-0.3,4.3-0.7,6.5-1.1c0,0,0,0,0,0c0.4-0.8,25.3-42.9,66.3-53.6c-0.4-3.2,0.2-5.5,1.6-4.2
		c0.8,0.7,2,1.8,3.4,3.1c6.8-1.3,13.9-1.7,21.5-1l-1.5,11.9c2.8,1.6,15.3,9.7,13.8,27.5l2.8,12.4L251.3,95.4z"/>
	<path style="fill:#F9F9F9;" d="M251.3,95.4l-12.9,9.1l-10.5-8.3l-1.8-2c0,0,4.7-4.8,8.2-9.6c3.5-4.8,11.8-9.6,11.8-9.6l1.7,4.8
		L251.3,95.4z"/>
</g>
<g style="opacity:0;">
	<g>
		<path style="fill:#424242;" d="M129.7,151.2c-1.1,0-2.2,0.1-3.4,0.1c-4.2-7.8-11.3-23.6-11.3-40.8c0-0.8,0.7-1.5,1.5-1.5
			s1.5,0.7,1.5,1.5C118,127.9,125.9,144.3,129.7,151.2z"/>
	</g>
	<g>
		<path style="fill:#424242;" d="M109.5,151.4c-1.2,0-2.4-0.1-3.6-0.2c-2.8-5-6-13-4.4-21.1c0.2-0.8,1-1.3,1.8-1.2
			c0.8,0.2,1.3,1,1.2,1.8C102.9,138.8,106.9,147,109.5,151.4z"/>
	</g>
	<g>
		<path style="fill:#424242;" d="M88,148.1c-0.1,0-0.2-0.1-0.3-0.1c-1.4-0.7-2.6-1.2-3.8-1.6c-3.5-8.3-8.9-23.9-6.4-37.6
			c0.1-0.8,0.9-1.4,1.8-1.2c0.8,0.2,1.4,0.9,1.2,1.8C77.8,123.8,84.9,141.5,88,148.1z"/>
	</g>
	<g>
		<path style="fill:#424242;" d="M90.6,111.9c-0.2,0.1-0.4,0.1-0.6,0.1c-0.6,0-1.1-0.3-1.4-0.9c-6.2-13.3-2.8-26.1-2.2-28.1
			c1,0.1,2,0.3,3,0.4c0,0.1,0,0.2,0,0.3c0,0.1-4.1,13.1,1.9,26.2C91.7,110.6,91.4,111.5,90.6,111.9z"/>
	</g>
	<g>
		<path style="fill:#424242;" d="M109,125.4c-0.2,0.1-0.4,0.1-0.6,0.1c-0.6,0-1.1-0.4-1.4-0.9c-6.6-16.1-3.9-33.2-2.6-39.4
			c1,0.1,2,0.2,3,0.2c-1.2,5.5-4.1,22.5,2.3,38C110.2,124.2,109.8,125.1,109,125.4z"/>
	</g>
	<g>
		<path style="fill:#424242;" d="M121.7,106c-0.1,0-0.1,0-0.2,0c-0.8,0-1.4-0.5-1.5-1.3c-0.8-6.1-0.4-14.9-0.2-18.9c1,0,2,0,3-0.1
			c-0.2,3.9-0.6,12.7,0.1,18.7C123.1,105.2,122.5,106,121.7,106z"/>
	</g>
	<g>
		<path style="fill:#424242;" d="M138.6,119.7c-0.1,0.7-0.8,1.3-1.5,1.3c-0.1,0-0.1,0-0.2,0c-0.8-0.1-1.4-0.9-1.3-1.7
			c2.9-19.9-3.3-30.9-5.5-34.1c1.1-0.1,2.2-0.2,3.3-0.4C136.3,89.5,141.3,100.9,138.6,119.7z"/>
	</g>
	<g>
		<path style="fill:#424242;" d="M137.5,150.8L137.5,150.8c-0.9,0.1-2.2,0.1-3.6,0.2c0-0.4,0.1-0.8,0.5-1.2
			c0.2-0.2,15.5-15.4,8.6-49c-0.2-0.8,0.4-1.6,1.2-1.8c0.8-0.2,1.6,0.4,1.8,1.2C152,130.5,141.1,146.4,137.5,150.8z"/>
	</g>
	<g>
		<path style="fill:#424242;" d="M168.5,142.8c-0.9,0.7-1.9,1.4-2.8,2.3c-0.7-6.5-2.6-16.9-8.4-24.7c-0.5-0.7-0.3-1.6,0.3-2.1
			c0.7-0.5,1.6-0.3,2.1,0.3C165.4,126.3,167.6,136,168.5,142.8z"/>
	</g>
	<g>
		<path style="fill:#424242;" d="M154.5,117.6c-0.1,0.8-0.7,1.4-1.5,1.4h-0.1c-0.8-0.1-1.4-0.8-1.4-1.6c1.5-19.5-5.6-29.4-10.6-33.9
			c1.2-0.2,2.3-0.5,3.5-0.8C149.7,88.2,156,98.8,154.5,117.6z"/>
	</g>
	<g>
		<path style="fill:#424242;" d="M175,120.7c-0.3,0.2-0.6,0.3-1,0.3c-0.4,0-0.9-0.2-1.2-0.5c-8.8-10.7-14.7-31.7-17.3-42.9
			c0.7-0.7,1.6-1.5,2.5-2.5c2.4,10.3,8.3,32.7,17.1,43.4C175.7,119.2,175.6,120.1,175,120.7z"/>
	</g>
	<g>
		<path style="fill:#424242;" d="M186.3,115.9c-0.8,1.1-1.5,2.3-2.3,3.4c-1.5-6.6-5.1-19.9-11.1-26.5c-0.6-0.6-0.5-1.6,0.1-2.1
			c0.6-0.6,1.6-0.5,2.1,0.1C180.8,97.2,184.4,108.6,186.3,115.9z"/>
	</g>
	<g>
		<path style="fill:#424242;" d="M187.4,97.9c-0.3,0.3-0.7,0.5-1.1,0.5c-0.3,0-0.7-0.1-1-0.4c-6.7-5.8-14.2-23.3-17.5-31.6
			c0.8-0.7,1.6-1.4,2.4-2c3,7.6,10.6,25.8,17.1,31.3C187.9,96.3,188,97.2,187.4,97.9z"/>
	</g>
	<g>
		<path style="fill:#424242;" d="M187.1,80.5c-0.3,0.2-0.5,0.2-0.8,0.2c-0.5,0-1-0.2-1.3-0.7c-3.5-5.4-6.9-15.3-8.5-20.5
			c0.8-0.6,1.7-1.3,2.5-1.9c1.5,4.7,5,15.4,8.5,20.8C188,79.1,187.8,80,187.1,80.5z"/>
	</g>
	<g>
		<path style="fill:#424242;" d="M202.3,95.1c-0.9,1.1-1.9,2.3-2.9,3.4c-0.3-7.7-1.3-21-5.2-27.8c-0.4-0.7-0.2-1.6,0.6-2
			c0.7-0.4,1.6-0.2,2,0.6C200.5,75.8,201.8,87.1,202.3,95.1z"/>
	</g>
	<g>
		<path style="fill:#424242;" d="M74.2,117.5c0,0.8-0.6,1.5-1.5,1.5h0c-0.8,0-1.5-0.7-1.5-1.5c-0.3-14.2-9.7-32-12.3-36.6
			c1.1-0.1,2.2-0.2,3.3-0.2C65.5,86.9,73.9,103.5,74.2,117.5z"/>
	</g>
	<g>
		<path style="fill:#424242;" d="M59.9,103c-0.1,0-0.3,0.1-0.5,0.1c-0.6,0-1.2-0.4-1.4-1c-1.3-4.2-8.9-11.5-13.5-15.5
			c0.8-0.6,1.7-1.2,2.6-1.7c4.2,3.8,12.1,11.3,13.7,16.3C61.1,101.9,60.7,102.8,59.9,103z"/>
	</g>
	<g>
		<path style="fill:#424242;" d="M55.5,120.9c-0.2,0-0.3,0.1-0.5,0.1c-0.6,0-1.2-0.4-1.4-1c-3-9.3-12.9-14.6-20.7-17.4
			c0.3-0.8,0.7-1.8,1.2-2.8c8.4,3,19,8.9,22.4,19.3C56.7,119.8,56.3,120.7,55.5,120.9z"/>
	</g>
	<g>
		<path style="fill:#424242;" d="M60.1,145.5c-0.2,0.1-0.5,0.2-0.7,0.2c-0.5,0-1.1-0.3-1.3-0.8c-4.1-8.1-16.9-15.3-26-19.7
			c-0.2-1.3-0.5-2.5-0.7-3.6c9.5,4.3,24.4,12.4,29.3,21.9C61.2,144.2,60.9,145.1,60.1,145.5z"/>
	</g>
	<g>
		<path style="fill:#424242;" d="M52.4,152.1c-0.3,0.2-0.6,0.3-0.9,0.3c-0.5,0-0.9-0.2-1.2-0.6c-1.5-2-8.7-4.4-15-6.1
			c0.1-0.6,0.2-1.2,0.3-1.6c0-0.2-0.1-0.8-0.3-1.5c5.9,1.5,15.1,4.2,17.4,7.4C53.2,150.7,53,151.6,52.4,152.1z"/>
	</g>
	<g>
		<path style="fill:#424242;" d="M54.8,164.8l-2.2,2.4c-4.2-1.6-9-3.9-10.3-5.8c-0.5-0.7-0.3-1.6,0.4-2.1c0.7-0.5,1.6-0.3,2.1,0.4
			C45.6,161,50.2,163,54.8,164.8z"/>
	</g>
	<g>
		<path style="fill:#424242;" d="M42.3,173.9c-0.3,0.4-0.7,0.6-1.2,0.6c-0.3,0-0.6-0.1-0.9-0.3c-1.6-1.2-4.9-2.5-7.8-3.5
			c0.3-0.9,0.6-1.9,0.8-2.9c3,1,6.8,2.4,8.8,4C42.7,172.3,42.8,173.3,42.3,173.9z"/>
	</g>
	<g>
		<path style="fill:#424242;" d="M149.6,155.6c0,0.8-0.8,1.4-1.6,1.4h-0.1c-1.9,0-7.2,2.5-11.4,4.7l0.9-3.9v0
			c3.7-1.8,8.4-4,10.8-3.9C149,154,149.7,154.7,149.6,155.6z"/>
	</g>
	<g>
		<path style="fill:#424242;" d="M144.4,171.9c-2.1,0.8-4.5,1-6.6,1c-1.4,0-2.8-0.1-3.9-0.3l0.7-2.9c2.5,0.3,5.9,0.4,8.8-0.7
			c0.8-0.3,1.6,0.1,1.9,0.9C145.6,170.8,145.2,171.6,144.4,171.9z"/>
	</g>
	<g>
		<path style="fill:#424242;" d="M206.8,68.7c-0.3,0.1-0.5,0.2-0.8,0.2c-0.5,0-1-0.3-1.3-0.7c-5.3-8.5-5.6-18.5-5.4-23
			c1-0.5,2.1-1,3.1-1.4c-0.2,2.7-0.8,13.9,4.8,22.8C207.7,67.3,207.5,68.3,206.8,68.7z"/>
	</g>
	<g>
		<path style="fill:#424242;" d="M217.3,87.9l-4.7-3.7c-1.9-5.8-3.1-14-0.1-23.2c0.3-0.8,1.1-1.2,1.9-1c0.8,0.3,1.2,1.1,1,1.9
			C211.7,73.2,215,83.1,217.3,87.9z"/>
	</g>
	<path style="fill:#424242;" d="M24.8,165.4c0,0.2,0,0.4-0.1,0.6c-0.9,8-5.9,10.1-5.9,10.1c-4.1-7-0.1-12-0.1-12s0,0,1.6-0.8
		c-0.4,1.2,0.2,2.5,1.4,3.1c0.3,0.1,0.7,0.2,1,0.2C23.6,166.5,24.4,166.1,24.8,165.4z"/>
	<path style="opacity:0.1;" d="M159.8,152.1l-10.6,35.1l1.5,32.3l12.3,8.5l-14.3,0.2l-7.1-5.6l-1.3-32.3c0,0,11.3-32,25.5-45.2
		c0.9-0.9,1.8-1.6,2.8-2.3c1.1-0.8,2.1-1.4,3.2-2C169,144.5,164.9,149,159.8,152.1z"/>
	<polygon style="opacity:0.1;" points="72.6,227.1 57.8,227.3 52.5,216.8 46.3,179.4 48.7,171.3 52.6,167.1 54.8,164.8 71.2,147.3 
		57,178.3 61.5,215.3 	"/>
	<g style="opacity:0.1;">
		<path d="M32,105.1c0,0-1.1,4.4-1.6,11.2l0.2,0.3c0,0,0.4,2,0.9,4.9c0.1,0.4,0.1,0.7,0.2,1.1c0.1,3.7,0.5,7.2,1.2,9.7
			c2.3,9.5-6.8,30.3-7.8,32.7c0,0.1-0.1,0.2-0.2,0.3l0,0c-0.5,0.7-1.3,1.1-2.1,1.1c-0.3,0-0.7-0.1-1-0.2c-1.2-0.5-1.8-1.9-1.4-3.1
			c0-0.1,0.1-0.2,0.1-0.2c2.6-5.9,9.1-22.8,7.5-29.5c-1.9-7.6-2.5-25.6,2.9-34.2c1.7-2.6,3.7-4.3,6.2-4.8c-1.3,1.9-2.3,3.7-3,5.3
			c-0.5,1-0.9,2-1.2,2.8C32.2,104.1,32,105.1,32,105.1z"/>
	</g>
	<path style="opacity:0.1;" d="M206.2,30.1c0.4,3.5,1.8,8.2,4.1,10.8c-2.6,0.8-5.3,1.8-7.9,2.9c-1,0.4-2.1,0.9-3.1,1.4
		c-7.1,3.4-14,7.8-20.3,12.4c-0.9,0.6-1.7,1.3-2.5,1.9c-2.2,1.7-4.3,3.3-6.3,4.9c-0.8,0.7-1.6,1.4-2.4,2c-3.9,3.3-7.3,6.4-9.8,8.7
		c-1,0.9-1.8,1.8-2.5,2.4c-1.7,1.7-2.6,2.6-2.6,2.6c-2.9,1-5.7,1.8-8.5,2.5c-1.2,0.3-2.3,0.6-3.5,0.8c-0.3,0.1-0.7,0.1-1,0.2
		C140.4,82.9,165.3,40.8,206.2,30.1z"/>
	<path style="opacity:0.1;" d="M232.7,28l-1.5,11.9c-0.3-0.2-0.5-0.3-0.5-0.3c-2.8-0.7-5.7-0.9-8.6-0.8c-1.8-1.7-7-6.5-10.8-9.9
		C218,27.7,225.1,27.2,232.7,28z"/>
	<path style="opacity:0.1;" d="M251.3,95.4l-12.9,9.1l-10.5-8.3l-1.8-2c0,0,4.7-4.8,8.2-9.6c3.5-4.8,11.8-9.6,11.8-9.6l1.7,4.8
		L251.3,95.4z"/>
	<path style="opacity:0.2;" d="M222,38.8c-0.5,0-0.9,0-1.3,0.1c-0.4,0-0.8,0.1-1.2,0.1c-0.3,0-0.6,0.1-0.9,0.1c-0.4,0-0.7,0.1-1,0.1
		c-0.4,0.1-0.8,0.1-1.3,0.2c-0.5,0.1-0.9,0.2-1.4,0.3l-0.1,0c-0.5,0.1-1,0.2-1.4,0.3c-0.5,0.1-1,0.2-1.5,0.4c-0.5,0.1-1,0.3-1.5,0.4
		c-2.3-2.6-3.7-7.3-4.1-10.8c-0.4-3.2,0.2-5.5,1.6-4.2c0.8,0.7,2,1.8,3.4,3.1C215,32.4,220.2,37.2,222,38.8z"/>
</g>
</svg>
