<?xml version="1.0" encoding="utf-8"?>
<!-- Generator: Adobe Illustrator 22.1.0, SVG Export Plug-In . SVG Version: 6.00 Build 0)  -->
<svg version="1.1" id="Layer_1" xmlns="http://www.w3.org/2000/svg" xmlns:xlink="http://www.w3.org/1999/xlink" x="0px" y="0px"
	 viewBox="0 0 256 256" style="enable-background:new 0 0 256 256;" xml:space="preserve">
<g style="opacity:0;">
	<path style="fill:#F93D69;" d="M177.4,146.6l8.6,82.1l23.9-3.4l-8.5-82.1L187,29.5c0,0-25.7-5.1-30.8-8.5s-12-5.1-18.8-12h-24
		c0,0-3.8,2.6-8.5,5.6c-0.2,0.1-0.5,0.3-0.7,0.4c-5.2,3.3-11.3,6.8-14.8,7.6c-6.6,1.6-25.8,6.4-27.3,6.8L62,29.1L46.6,143.8
		l-8.5,82.1l23.9,3.4l8.6-82.1l4.2-25c0.9,9.6,1.3,17.5,1,22c-0.4,5-1,13.2-1.8,22.5c-0.1,1.7-0.3,3.5-0.4,5.3v0.6
		c-2.1,28-4.6,63.1-4.6,63.1l34.2,4h39.4l35.9-4l-4.2-57.2l-0.8-11.8l-1.8-25.9c0,0,0.5-8.1,1.5-20.1L177.4,146.6z"/>
	<path style="fill:#F93D69;" d="M74,166.7c-0.1,1.7-0.3,3.5-0.4,5.3L74,166.7L74,166.7z"/>
	<path style="fill:#F93D69;" d="M104.9,14.1c0,0.2,0,0.3,0,0.5c-0.2,0.1-0.5,0.3-0.7,0.4L104.9,14.1z"/>
	<path style="fill:#F93D69;" d="M104.9,14.1c0,0.2,0,0.3,0,0.5c-0.2,0.1-0.5,0.3-0.7,0.4L104.9,14.1z"/>
</g>
<g>
	<path style="opacity:0.1;enable-background:new    ;" d="M209.9,225.3l-23.9,3.4l-8.6-82.1l-4.3-25.9c2.2-26.2,6.8-71.2,13.9-91.1
		l14.4,113.7L209.9,225.3z"/>
	<path style="opacity:0.1;enable-background:new    ;" d="M74.8,122.2l-4.2,25L62,229.3l-23.9-3.4l8.5-82.1L62,29.1l0.1,0.4
		c-0.1,0-0.1,0-0.1,0S71.5,87.3,74.8,122.2z"/>
	<polygon style="opacity:0.1;enable-background:new    ;" points="174.2,178.5 154.4,181.8 154.4,169.8 173.4,166.7 	"/>
	<polygon style="opacity:0.1;enable-background:new    ;" points="73.1,178.5 92.8,181.8 92.8,169.8 73.9,166.7 	"/>
	<path style="opacity:0.1;enable-background:new    ;" d="M142.5,14.1l13.7,17.1l-8.6,3.4l8.6,3.4c0,0,3.4,39.4-29.1,80.4
		C127.1,118.5,145.9,44.9,142.5,14.1z"/>
	<path style="opacity:0.1;enable-background:new    ;" d="M104.9,14.1L91.2,31.2l8.6,3.4L91.2,38c0,0-3.4,39.4,29.1,80.4
		C120.3,118.5,101.5,44.9,104.9,14.1z"/>
	<path style="opacity:0.2;enable-background:new    ;" d="M127.1,118.5v84.8l15.4,36.4h-39.4l17.4-36.3h-0.3v-84.8l-0.1-0.3
		c0.1,0.1,0.2,0.2,0.2,0.3c0,0-17.1-66.9-15.7-99.9l0,0l1.9-4.5h35.9l0.4,8.4v0.1c0,26-9.3,68.4-13.6,86.8c0,0.1-0.1,0.2-0.1,0.3
		l-0.3,1.3c0,0.2-0.1,0.4-0.1,0.5c-0.1,0.3-0.2,0.7-0.3,1l-1.1,4.5c0,0.1,0,0.2-0.1,0.2c0,0.1,0,0.1-0.1,0.2L127,118
		C127.1,118.4,127.1,118.5,127.1,118.5z"/>
	<path style="opacity:0.1;enable-background:new    ;" d="M133.4,137.2c0,0.4-0.2,0.8-0.5,1c-0.2,0.1-0.4,0.2-0.7,0.2
		c-0.7,0-1.2-0.5-1.2-1.2s0.5-1.2,1.2-1.2l0,0C132.9,136,133.4,136.5,133.4,137.2z"/>
	<circle style="opacity:0.1;enable-background:new    ;" cx="132.2" cy="165.8" r="1.2"/>
</g>
</svg>
