<?xml version="1.0" encoding="utf-8"?>
<!-- Generator: Adobe Illustrator 22.1.0, SVG Export Plug-In . SVG Version: 6.00 Build 0)  -->
<svg version="1.1" id="Layer_1" xmlns="http://www.w3.org/2000/svg" xmlns:xlink="http://www.w3.org/1999/xlink" x="0px" y="0px"
	 viewBox="0 0 256 256" style="enable-background:new 0 0 256 256;" xml:space="preserve">
<g style="opacity:0;">
	<path style="fill:#F93D69;" d="M248.6,74.5l-11.4,61.9c0,0-50,0.5-83.2-19.2l-9.9-14.6c27.8,0.9,64.1-16.4,85.8-28.4
		C237.2,73.6,243.7,73.6,248.6,74.5z"/>
	<path style="fill:#F93D69;" d="M115.3,102.4l-12.8,18.9c-33,17.3-78.8,16.8-78.8,16.8L12.3,76.2c4.4-0.8,10.1-0.9,16.5-0.5
		C51.6,88.1,88.1,104.8,115.3,102.4z"/>
	<polygon style="fill:#F93D69;" points="210.6,201.2 195.2,195.8 193,213 129.6,118.9 122,107.6 129.6,102.5 139.5,95.8 
		144.1,102.6 154,117.2 	"/>
	<polygon style="fill:#F93D69;" points="137.3,107.6 129.6,118.9 66.2,213 64,195.8 48.7,201.2 102.5,121.3 115.3,102.4 119.7,95.8 
		129.6,102.5 	"/>
	<path style="fill:#F93D69;" d="M248.6,63.1c0,0-7.3,4.8-18.7,11.1c-22.6,12.5-61.1,30.8-89.3,28.1c-0.4,0-0.8-0.1-1.2-0.1l-9.8-9.8
		c0,0,40.7-68.4,66.8-81.5L248.6,63.1z"/>
	<path style="fill:#F93D69;" d="M126.4,92.5l-9.8,9.8c-27.3,3.2-64.7-14-87.8-26.5C16,68.8,7.5,63.2,7.5,63.2l52-52.2
		C85.6,24,126.4,92.5,126.4,92.5z"/>
</g>
<g>
	<circle style="fill:#EFC929;" cx="129.6" cy="99" r="14.7"/>
	<path style="opacity:0.1;enable-background:new    ;" d="M248.6,74.5l-11.4,61.9c0,0-50,0.5-83.2-19.2l-9.9-14.6
		c27.8,0.9,64.1-16.4,85.8-28.4C237.2,73.6,243.7,73.6,248.6,74.5z"/>
	<path style="opacity:0.1;enable-background:new    ;" d="M115.3,102.4l-12.8,18.9c-33,17.3-78.8,16.8-78.8,16.8L12.3,76.2
		c4.4-0.8,10.1-0.9,16.5-0.5C51.6,88.1,88.1,104.8,115.3,102.4z"/>
</g>
</svg>
