<?xml version="1.0" encoding="utf-8"?>
<!-- Generator: Adobe Illustrator 22.1.0, SVG Export Plug-In . SVG Version: 6.00 Build 0)  -->
<svg version="1.1" id="Layer_1" xmlns="http://www.w3.org/2000/svg" xmlns:xlink="http://www.w3.org/1999/xlink" x="0px" y="0px"
	 viewBox="0 0 256 256" style="enable-background:new 0 0 256 256;" xml:space="preserve">
<g>
	<path style="fill:#FFB533;" d="M250,169.7l-89.4,16.7l-3-7.1L129,111l-28.5,68.1l-3.1,7.3L8,169.7c-0.3,1.2,0.2-1.3,1.5-6.8
		c4-17.4,15.9-64.8,34.9-116.8c1.3-3.5,2.6-7,3.9-10.5h161.3c0.2,0.4,1.9,4.2,4.5,10.5c9.1,22.4,29.5,76,35,116.4
		C249.5,165,249.8,167.4,250,169.7z"/>
</g>
<g style="opacity:0;">
	<path style="fill:#BA274A;" d="M250,169.7l-89.4,16.7l-3-7.1l91.6-16.7C249.5,165,249.8,167.4,250,169.7z"/>
	<path style="fill:#BA274A;" d="M100.5,179.1l-3.1,7.3L8,169.7c-0.3,1.2,0.2-1.3,1.5-6.8L100.5,179.1z"/>
	<path style="fill:#BA274A;" d="M204.4,40.9l0.6,2.3c16.4,41.2,27.9,82.5,34.4,124l-8.8,1.8c-3.9-39.6-16.5-82.6-35.1-128"/>
	<path style="fill:#BA274A;" d="M214.1,46.1H44.4c1.3-3.5,2.6-7,3.9-10.5h161.3C209.5,35.1,211.2,39,214.1,46.1z"/>
</g>
</svg>
