<?xml version="1.0" encoding="utf-8"?>
<!-- Generator: Adobe Illustrator 22.1.0, SVG Export Plug-In . SVG Version: 6.00 Build 0)  -->
<svg version="1.1" id="Layer_1" xmlns="http://www.w3.org/2000/svg" xmlns:xlink="http://www.w3.org/1999/xlink" x="0px" y="0px"
	 viewBox="0 0 256 256" style="enable-background:new 0 0 256 256;" xml:space="preserve">
<g style="opacity:0;">
	<path style="fill:#50C7E2;" d="M134.8,29.6v0.1c-2-0.1-4.1-0.1-6.3-0.1c-3,0-6,0.1-8.8,0.2c-2.4,0.1-4.7,0.2-6.9,0.4
		c0-0.2,0-0.4,0-0.6c0-6.1,4.9-11,11-11C129.8,18.6,134.8,23.6,134.8,29.6z"/>
	<path style="fill:#50C7E2;" d="M236.8,177.7c-0.1-0.3-0.1-0.5-0.1-0.5c-9.5-6.3-20.3-11.4-31.8-15.4
		C207.3,40.7,133,30.5,124.5,29.7c1.3,0,2.6-0.1,4-0.1c2.1,0,4.2,0,6.3,0.1C222.6,33.3,236.7,112.7,236.8,177.7z"/>
	<path style="fill:#50C7E2;" d="M44.3,163.8c-9.4,3.8-17.5,8.3-24.1,13.4c0.1-62.4,7.1-139.9,92.5-146.9c2.3-0.2,4.6-0.3,6.9-0.4
		c1.2,0,2.3-0.1,3.5-0.1C49.5,42.7,43.5,124.8,44.3,163.8z"/>
	<path style="fill:#50C7E2;" d="M124.5,29.7c-0.5,0-0.8-0.1-0.8-0.1c-0.2,0-0.4,0.1-0.5,0.1c-73.7,13-79.7,95.1-78.9,134
		c42.4-17.2,109.3-20,160.6-2C207.3,40.7,133,30.5,124.5,29.7z M123.8,125.2c-10.6,0-19.3-8.6-19.3-19.3s8.6-19.3,19.3-19.3
		c10.6,0,19.3,8.6,19.3,19.3S134.4,125.2,123.8,125.2z"/>
	<path style="fill:#50C7E2;" d="M227.4,225.5c-3.4,4.2-9.5,5.3-14.5,3c-58.3-27.3-111.8-23.6-167.2,0.8c-4.6,2-10.1,1.3-13.8-2
		c-21.2-18.3-11.7-50-11.7-50l0.1-0.1c6.5-5.1,14.7-9.6,24.1-13.4c42.4-17.2,109.3-20,160.6-2c11.5,4,22.3,9.2,31.8,15.4
		c0,0,0,0.2,0.1,0.5C237.5,181.4,242,207.4,227.4,225.5z"/>
	<path style="fill:#50C7E2;" d="M143,105.9c0,10.6-8.6,19.3-19.3,19.3c-10.6,0-19.3-8.6-19.3-19.3s8.6-19.3,19.3-19.3
		C134.4,86.7,143,95.3,143,105.9z"/>
</g>
<g>
	<path style="opacity:0.1;enable-background:new    ;" d="M236.8,177.7c-0.1-0.3-0.1-0.5-0.1-0.5c-9.5-6.3-20.3-11.4-31.8-15.4
		C207.3,40.7,133,30.5,124.5,29.7c1.3,0,2.6-0.1,4-0.1c2.1,0,4.2,0,6.3,0.1C222.6,33.3,236.7,112.7,236.8,177.7z"/>
	<path style="opacity:0.1;enable-background:new    ;" d="M44.3,163.8c-9.4,3.8-17.5,8.3-24.1,13.4c0.1-62.4,7.1-139.9,92.5-146.9
		c2.3-0.2,4.6-0.3,6.9-0.4c1.2,0,2.3-0.1,3.5-0.1C49.5,42.7,43.5,124.8,44.3,163.8z"/>
	<path style="opacity:0.3;enable-background:new    ;" d="M227.4,225.5c-3.4,4.2-9.5,5.3-14.5,3c-58.3-27.3-111.8-23.6-167.2,0.8
		c-4.6,2-10.1,1.3-13.8-2c-21.2-18.3-11.7-50-11.7-50l0.1-0.1c6.5-5.1,14.7-9.6,24.1-13.4c42.4-17.2,109.3-20,160.6-2
		c11.5,4,22.3,9.2,31.8,15.4c0,0,0,0.2,0.1,0.5C237.5,181.4,242,207.4,227.4,225.5z"/>
	<path style="opacity:0.2;fill:#FFFFFF;enable-background:new    ;" d="M143,105.9c0,10.6-8.6,19.3-19.3,19.3
		c-10.6,0-19.3-8.6-19.3-19.3s8.6-19.3,19.3-19.3C134.4,86.7,143,95.3,143,105.9z"/>
</g>
</svg>
