<?xml version="1.0" encoding="utf-8"?>
<!-- Generator: Adobe Illustrator 22.1.0, SVG Export Plug-In . SVG Version: 6.00 Build 0)  -->
<svg version="1.1" id="Layer_1" xmlns="http://www.w3.org/2000/svg" xmlns:xlink="http://www.w3.org/1999/xlink" x="0px" y="0px"
	 viewBox="0 0 256 256" style="enable-background:new 0 0 256 256;" xml:space="preserve">
<g>
	<path style="fill:#FF508A;" d="M120.8,5.5L120.8,5.5L120.8,5.5L120.8,5.5z"/>
	<path style="fill:#FF508A;" d="M135.2,57.8c-0.3,1.1-0.6,2.2-0.9,3.3c-0.5,1.9-0.9,3.8-1.3,5.7c-13.5-13.5-27.1-30.5-30.9-38.1
		c-0.8-1.6,1-4.8,3.8-8.2l0,0c5.6-6.9,15-15,15-15s-1.2,15.1-2.5,17.9C117.7,25,127,42.7,135.2,57.8z"/>
	<path style="fill:#FF508A;" d="M198.3,109.6c0,18.2-1.7,37.7-2.9,49.5c-0.7,6.6-1.2,10.8-1.2,10.8h-15.1c0,0-0.2-4.4-0.5-10.8
		c-0.7-16.5-1.9-46.7-1.6-51.1c0.3-4.3-4.9-19-8.1-27.4c-0.5,12-1.5,44.5,3.1,61.8c5.6,21.5,6.1,99.8,6.1,99.8l-30.9,2.8v0.5
		c-17.9,1.2-57.8-3.3-57.8-3.3s-0.4-77.4,5.7-104.6c4.4-19.8,2.9-45.2,1.7-57.6c-3.1,7.9-10.1,26.4-9.8,31.1
		c0.3,4.4-0.9,34-1.6,50.6c-0.3,6.7-0.5,11.3-0.5,11.3h-15c0,0-0.6-4.4-1.3-11.3c-1.2-11.8-2.8-31-2.8-49C65.8,84.1,89.5,27,89.5,27
		l16.3-6.6c-2.8,3.4-4.6,6.6-3.8,8.2c3.8,7.7,17.5,24.7,30.9,38.1c0.4-2,0.9-3.9,1.3-5.7c0.3-1.1,0.6-2.2,0.9-3.3
		c5.4-18.8,14.4-32.7,28.7-37.3c0,0,8.6,3.5,12.1,6c0.1-0.1,0.2-0.2,0.2-0.2S198.3,81.1,198.3,109.6z"/>
	<path style="fill:#FF508A;" d="M165.7,24.5c-4-8.5-11-14.6-20.1-19h-24.8c0,0,0,0-0.1,0.1c-0.9,0.8-9.7,8.4-15,14.9l0,0
		c-2.8,3.4-4.6,6.6-3.8,8.2c5.1,10.1,27,36.3,43.3,49.4c2.1,4.3,3.6,8.5,3.5,11.8c-0.3,11.1-2.6,153-2.6,154.4c0,0.6,0.4,1,1,1l0,0
		c0.5,0,1-0.4,1-1c0-1.4,2.3-143.3,2.6-154.4c0.2-8.6-9-22.4-13.9-29.1C147.3,53.5,165.7,24.5,165.7,24.5z M118.4,23.4
		c0.1-0.3,0.3-0.7,0.4-1.2c0-0.1,0.1-0.2,0.1-0.3c0.1-0.4,0.2-0.9,0.3-1.5c0-0.2,0.1-0.5,0.1-0.7c0.2-1.2,0.4-2.6,0.6-4
		c0-0.3,0.1-0.6,0.1-0.9c0.1-0.9,0.2-1.7,0.3-2.5c0.2-2,0.4-3.8,0.5-5c0.1-0.1,0.2-0.2,0.2-0.2h24.8c0,0,0.1,0.2,0.3,0.5l0.7,5.3
		L148,24c-1.4,7.9-8.4,19-15.6,28.5C125,38.9,117.8,24.8,118.4,23.4z"/>
	<path style="fill:#FF508A;" d="M137,60.8C136.9,60.8,136.9,60.8,137,60.8c-1,0.7-1.9,1.2-2.7,1.4l-1.3-5.3l-0.9-4
		c0.1-0.1,0.2-0.2,0.2-0.3c0.7,1.3,1.4,2.5,2,3.7c0.7,1.3,1.4,2.6,2.1,3.8C136.6,60.3,136.8,60.5,137,60.8z"/>
	<path style="fill:#FF508A;" d="M137,60.8C136.9,60.8,136.9,60.8,137,60.8c-1,0.7-1.9,1.2-2.7,1.4l-1.3-5.3l-0.9-4
		c0.1-0.1,0.2-0.2,0.2-0.3c0.7,1.3,1.4,2.5,2,3.7c0.7,1.3,1.4,2.6,2.1,3.8C136.6,60.3,136.8,60.5,137,60.8z"/>
	<path style="fill:#FF508A;" d="M148,24c-1.4,7.9-8.4,19-15.6,28.5c-7.4-13.7-14.6-27.7-14-29.2c0.1-0.3,0.3-0.7,0.4-1.2
		c0-0.1,0.1-0.2,0.1-0.3c0.1-0.4,0.2-0.9,0.3-1.5c0-0.2,0.1-0.5,0.1-0.7c0.2-1.2,0.4-2.6,0.6-4c0-0.3,0.1-0.6,0.1-0.9
		c0.1-0.9,0.2-1.7,0.3-2.5c0.2-2,0.4-3.8,0.5-5C120.9,7.1,121,7,121,7h24.8c0,0,0.1,0.2,0.3,0.5l0.7,5.3L148,24z"/>
</g>
<g style="opacity:0;">
	<g style="opacity:0.4;">
		<g>
			<path d="M122.9,99c1.9,0,1.9-3,0-3C120.9,96,120.9,99,122.9,99L122.9,99z"/>
		</g>
		<g>
			<path d="M124.1,126.7c1.9,0,1.9-3,0-3C122.1,123.7,122.1,126.7,124.1,126.7L124.1,126.7z"/>
		</g>
		<g>
			<path d="M123.7,155.2c1.9,0,1.9-3,0-3C121.7,152.2,121.7,155.2,123.7,155.2L123.7,155.2z"/>
		</g>
		<g>
			<path d="M143.6,97.4c1.9,0,1.9-3,0-3C141.7,94.4,141.7,97.4,143.6,97.4L143.6,97.4z"/>
		</g>
		<g>
			<path d="M144,125.9c1.9,0,1.9-3,0-3S142.1,125.9,144,125.9L144,125.9z"/>
		</g>
		<g>
			<path d="M143.6,155.6c1.9,0,1.9-3,0-3C141.7,152.6,141.7,155.6,143.6,155.6L143.6,155.6z"/>
		</g>
	</g>
	<path style="opacity:0.4;enable-background:new    ;" d="M148,24c-1.4,7.9-8.4,19-15.6,28.5c-7.4-13.7-14.6-27.7-14-29.2
		c0.1-0.3,0.3-0.7,0.4-1.2c0-0.1,0.1-0.2,0.1-0.3c0.1-0.4,0.2-0.9,0.3-1.5c0-0.2,0.1-0.5,0.1-0.7c0.2-1.2,0.4-2.6,0.6-4
		c0-0.3,0.1-0.6,0.1-0.9c0.1-0.9,0.2-1.7,0.3-2.5c0.2-2,0.4-3.8,0.5-5C120.9,7.1,121,7,121,7h24.8c0,0,0.1,0.2,0.3,0.5l0.7,5.3
		L148,24z"/>
	<path style="opacity:0.4;enable-background:new    ;" d="M195.4,159c-0.7,6.6-1.2,10.8-1.2,10.8h-15.1c0,0-0.2-4.4-0.5-10.8H195.4z
		"/>
	<path style="opacity:0.4;enable-background:new    ;" d="M85.5,161.5c-0.3,6.7-0.5,11.3-0.5,11.3H69.9c0,0-0.6-4.4-1.3-11.3H85.5z"
		/>
	<path style="opacity:0.1;enable-background:new    ;" d="M165.7,24.5c-4-8.5-11-14.6-20.1-19h-24.8c0,0,0,0-0.1,0.1
		c-0.9,0.8-9.7,8.4-15,14.9l0,0c-2.8,3.4-4.6,6.6-3.8,8.2c5.1,10.1,27,36.3,43.3,49.4c2.1,4.3,3.6,8.5,3.5,11.8
		c-0.3,11.1-2.6,153-2.6,154.4c0,0.6,0.4,1,1,1l0,0c0.5,0,1-0.4,1-1c0-1.4,2.3-143.3,2.6-154.4c0.2-8.6-9-22.4-13.9-29.1
		C147.3,53.5,165.7,24.5,165.7,24.5z M118.4,23.4c0.1-0.3,0.3-0.7,0.4-1.2c0-0.1,0.1-0.2,0.1-0.3c0.1-0.4,0.2-0.9,0.3-1.5
		c0-0.2,0.1-0.5,0.1-0.7c0.2-1.2,0.4-2.6,0.6-4c0-0.3,0.1-0.6,0.1-0.9c0.1-0.9,0.2-1.7,0.3-2.5c0.2-2,0.4-3.8,0.5-5
		c0.1-0.1,0.2-0.2,0.2-0.2h24.8c0,0,0.1,0.2,0.3,0.5l0.7,5.3L148,24c-1.4,7.9-8.4,19-15.6,28.5C125,38.9,117.8,24.8,118.4,23.4z"/>
</g>
</svg>
