<?xml version="1.0" encoding="utf-8"?>
<!-- Generator: Adobe Illustrator 22.1.0, SVG Export Plug-In . SVG Version: 6.00 Build 0)  -->
<svg version="1.1" id="Layer_1" xmlns="http://www.w3.org/2000/svg" xmlns:xlink="http://www.w3.org/1999/xlink" x="0px" y="0px"
	 viewBox="0 0 256 256" style="enable-background:new 0 0 256 256;" xml:space="preserve">
<g>
	<path style="fill:#F43D7A;" d="M225.7,204.6c0,0-40,33.6-98.1,34.4c-8.3,0.1-16.3-0.6-23.9-1.8L89.2,234
		c-35.1-9.6-58.8-29.4-58.8-29.4l65.9-100l0,0l2.1-3.2l-0.6-1.6l-15-41.5L92.3,17h9.5L116,41.3c4.4,7.6,15.4,7.6,19.9,0l14-24.3h9.5
		l6.9,41.3l-11.5,41l-0.5,2l2,2.8L225.7,204.6z"/>
</g>
<g style="opacity:0;">
	<path style="opacity:0.4;enable-background:new    ;" d="M156.2,104.2c-9.5,3.8-19.5,5.1-28.5,5.1c-14.1,0-26.2-3.1-31.5-4.7
		l2.1-3.2l-0.6-1.6c8.3,2.4,34.3,8.8,57-0.4l-0.5,2L156.2,104.2z"/>
</g>
</svg>
