<?xml version="1.0" encoding="utf-8"?>
<!-- Generator: Adobe Illustrator 22.1.0, SVG Export Plug-In . SVG Version: 6.00 Build 0)  -->
<svg version="1.1" id="Layer_1" xmlns="http://www.w3.org/2000/svg" xmlns:xlink="http://www.w3.org/1999/xlink" x="0px" y="0px"
	 viewBox="0 0 256 256" style="enable-background:new 0 0 256 256;" xml:space="preserve">
<g style="opacity:0;">
	<path style="fill:#FFFFFF;" d="M110.1,198.8c0,4.3-3.5,7.8-7.8,7.8c-4.3,0-7.8-3.5-7.8-7.8c0-1.1,0.2-2.2,0.7-3.2
		c3.5-1,6.8-2.3,9.8-4.1C108,192.7,110.1,195.5,110.1,198.8z"/>
	<path style="fill:#FFFFFF;" d="M123.6,189.5c0,4.3-3.5,7.8-7.8,7.8c-4.3,0-7.7-3.4-7.8-7.7c2.9-2.2,5.4-4.8,7.4-7.8
		c0.1,0,0.3,0,0.4,0C120.2,181.7,123.6,185.2,123.6,189.5z"/>
	<path style="fill:#FFFFFF;" d="M68.6,198.8c0,4.3-3.5,7.8-7.8,7.8c-4.3,0-7.8-3.5-7.8-7.8c0-3.3,2.1-6.2,5-7.3
		c3,1.8,6.2,3.1,9.8,4.1C68.4,196.6,68.6,197.7,68.6,198.8z"/>
	<path style="fill:#FFFFFF;" d="M55.1,189.5c0,4.3-3.5,7.7-7.8,7.7c-4.3,0-7.8-3.5-7.8-7.8c0-4.3,3.5-7.8,7.8-7.8c0.1,0,0.3,0,0.4,0
		C49.7,184.8,52.2,187.4,55.1,189.5z"/>
	<path style="fill:#FFFFFF;" d="M95.4,206.6c0,7.6-6.2,13.8-13.8,13.8c-7.6,0-13.8-6.2-13.8-13.8c0-3.9,1.6-7.5,4.3-10
		c3,0.5,6.2,0.8,9.5,0.8c3.3,0,6.5-0.3,9.5-0.8C93.8,199.1,95.4,202.7,95.4,206.6z"/>
	<path style="fill:#FFFFFF;" d="M120.5,164.1c0,6.9-1.8,12.8-5,17.7c-2,3-4.4,5.6-7.4,7.8c-1,0.7-2,1.4-3,2c-3,1.8-6.2,3.1-9.8,4.1
		c-1.3,0.4-2.7,0.7-4.2,1c-3,0.5-6.2,0.8-9.5,0.8c-3.3,0-6.5-0.3-9.5-0.8c-1.4-0.3-2.8-0.6-4.2-1c-3.5-1-6.8-2.3-9.8-4.1
		c-1.1-0.6-2.1-1.3-3-2c-2.9-2.2-5.4-4.8-7.4-7.8c-3.2-4.8-5-10.8-5-17.7c0-21.4,38.8-70.7,38.8-70.7S120.5,142.6,120.5,164.1z"/>
	<path style="fill:#FFFFFF;" d="M91.1,90.6c0,5.2-4.2,9.4-9.4,9.4c-5.2,0-9.4-4.2-9.4-9.4c0-2.7,1.1-5.2,3-6.9
		c1.7-1.6,4-2.6,6.5-2.6s4.8,1,6.5,2.6C89.9,85.4,91.1,87.9,91.1,90.6z"/>
	<path style="fill:#FFFFFF;" d="M181.9,227.2c0,7.6-6.2,13.8-13.8,13.8c-7.6,0-13.8-6.2-13.8-13.8c0-0.3,0-0.6,0-1v0
		c0.5-1,0.8-2.2,0.8-3.5c0-0.1,0-0.2,0-0.3c0.4-1.2,1-2.3,1.7-3.2c3.5,0.8,7.3,1.2,11.2,1.2c3.9,0,7.7-0.4,11.2-1.2
		c0.8,1.1,1.5,2.4,1.9,3.7c0,1,0.2,2,0.6,2.9c0,0,0,0,0,0C181.9,226.2,181.9,226.7,181.9,227.2z"/>
	<path style="fill:#FFFFFF;" d="M196.7,222.8c0,4.3-3.5,7.8-7.8,7.8c-3.2,0-6-2-7.1-4.7c0,0,0,0,0,0c-0.1-1-0.3-1.9-0.6-2.9v-0.2
		c0-1.7,0.5-3.2,1.4-4.4c2.8-0.8,5.4-1.9,7.8-3.2C194,215.8,196.7,219,196.7,222.8z"/>
	<path style="fill:#FFFFFF;" d="M210.2,213.4c0,4.3-3.5,7.8-7.8,7.8c-4.3,0-7.8-3.5-7.8-7.8c0-0.4,0-0.8,0.1-1.1
		c2.5-1.8,4.6-4,6.4-6.5c0.4-0.1,0.8-0.1,1.2-0.1C206.8,205.7,210.2,209.1,210.2,213.4z"/>
	<path style="fill:#FFFFFF;" d="M155.2,222.4c-0.4,1.2-0.7,2.5-0.8,3.8v0c-1.3,2.5-3.9,4.3-6.9,4.3c-4.3,0-7.8-3.5-7.8-7.8
		c0-3.8,2.7-6.9,6.2-7.6h0c2.5,1.3,5.1,2.4,7.9,3.2C154.7,219.6,155.2,220.9,155.2,222.4z"/>
	<path style="fill:#FFFFFF;" d="M141.7,213.4c0,4.3-3.5,7.8-7.8,7.8c-4.3,0-7.8-3.5-7.8-7.8c0-4.3,3.5-7.8,7.8-7.8
		c0.4,0,0.7,0,1,0.1c1.8,2.6,4.1,4.8,6.6,6.7C141.7,212.8,141.7,213.1,141.7,213.4z"/>
	<path style="fill:#FFFFFF;" d="M207,187c0,7.4-2.1,13.7-5.7,18.8c-1.8,2.5-4,4.7-6.4,6.5c-1.4,1.1-2.9,2-4.4,2.9
		c-2.4,1.3-5,2.4-7.8,3.2c-1.1,0.3-2.2,0.6-3.3,0.8c-3.5,0.8-7.3,1.2-11.2,1.2c-3.9,0-7.7-0.4-11.2-1.2c-1-0.2-2-0.5-3-0.8
		c-2.8-0.8-5.5-1.9-7.9-3.2h0c-1.5-0.8-2.9-1.7-4.3-2.7c-2.6-1.9-4.8-4.2-6.6-6.7c-3.6-5-5.7-11.3-5.7-18.8
		c0-21.4,38.8-70.7,38.8-70.7S207,165.5,207,187z"/>
	<path style="fill:#FFFFFF;" d="M177.6,116.3c0,5.2-4.2,9.4-9.4,9.4c-5.2,0-9.4-4.2-9.4-9.4c0-2.7,1.1-5.2,3-6.9
		c1.7-1.6,4-2.6,6.5-2.6s4.8,1,6.5,2.6C176.5,111.1,177.6,113.6,177.6,116.3z"/>
</g>
<g>
	<g style="opacity:0.3;">
		<path style="fill:#FFFFFF;" d="M98.2,135.2c-0.8,0-1.6-0.4-2.1-1.2l-12.5-20c-0.7-1.2-0.4-2.7,0.8-3.4c1.2-0.7,2.7-0.4,3.4,0.8
			l12.5,20c0.7,1.2,0.4,2.7-0.8,3.4C99.1,135.1,98.6,135.2,98.2,135.2z"/>
	</g>
	<g style="opacity:0.3;">
		<path style="fill:#FFFFFF;" d="M185.3,158.1c-0.8,0-1.6-0.4-2.1-1.2l-12.5-20c-0.7-1.2-0.4-2.7,0.8-3.4c1.2-0.7,2.7-0.4,3.4,0.8
			l12.5,20c0.7,1.2,0.4,2.7-0.8,3.4C186.2,158,185.8,158.1,185.3,158.1z"/>
	</g>
	<path style="opacity:0.4;" d="M91.1,90.6c0,5.2-4.2,9.4-9.4,9.4c-5.2,0-9.4-4.2-9.4-9.4c0-2.7,1.1-5.2,3-6.9c1.7-1.6,4-2.6,6.5-2.6
		s4.8,1,6.5,2.6C89.9,85.4,91.1,87.9,91.1,90.6z"/>
	<path style="opacity:0.4;" d="M177.6,116.3c0,5.2-4.2,9.4-9.4,9.4c-5.2,0-9.4-4.2-9.4-9.4c0-2.7,1.1-5.2,3-6.9
		c1.7-1.6,4-2.6,6.5-2.6s4.8,1,6.5,2.6C176.5,111.1,177.6,113.6,177.6,116.3z"/>
	<path style="opacity:0.3;" d="M110.1,198.8c0,4.3-3.5,7.8-7.8,7.8c-4.3,0-7.8-3.5-7.8-7.8c0-1.1,0.2-2.2,0.7-3.2
		c3.5-1,6.8-2.3,9.8-4.1C108,192.7,110.1,195.5,110.1,198.8z"/>
	<path style="opacity:0.3;" d="M123.6,189.5c0,4.3-3.5,7.8-7.8,7.8c-4.3,0-7.7-3.4-7.8-7.7c2.9-2.2,5.4-4.8,7.4-7.8
		c0.1,0,0.3,0,0.4,0C120.2,181.7,123.6,185.2,123.6,189.5z"/>
	<path style="opacity:0.3;" d="M68.6,198.8c0,4.3-3.5,7.8-7.8,7.8c-4.3,0-7.8-3.5-7.8-7.8c0-3.3,2.1-6.2,5-7.3
		c3,1.8,6.2,3.1,9.8,4.1C68.4,196.6,68.6,197.7,68.6,198.8z"/>
	<path style="opacity:0.3;" d="M55.1,189.5c0,4.3-3.5,7.7-7.8,7.7c-4.3,0-7.8-3.5-7.8-7.8c0-4.3,3.5-7.8,7.8-7.8c0.1,0,0.3,0,0.4,0
		C49.7,184.8,52.2,187.4,55.1,189.5z"/>
	<path style="opacity:0.2;" d="M95.4,206.6c0,7.6-6.2,13.8-13.8,13.8c-7.6,0-13.8-6.2-13.8-13.8c0-3.9,1.6-7.5,4.3-10
		c3,0.5,6.2,0.8,9.5,0.8c3.3,0,6.5-0.3,9.5-0.8C93.8,199.1,95.4,202.7,95.4,206.6z"/>
	<path style="opacity:0.2;" d="M181.9,227.2c0,7.6-6.2,13.8-13.8,13.8c-7.6,0-13.8-6.2-13.8-13.8c0-0.3,0-0.6,0-1v0
		c0.5-1,0.8-2.2,0.8-3.5c0-0.1,0-0.2,0-0.3c0.4-1.2,1-2.3,1.7-3.2c3.5,0.8,7.3,1.2,11.2,1.2c3.9,0,7.7-0.4,11.2-1.2
		c0.8,1.1,1.5,2.4,1.9,3.7c0,1,0.2,2,0.6,2.9c0,0,0,0,0,0C181.9,226.2,181.9,226.7,181.9,227.2z"/>
	<path style="opacity:0.3;" d="M196.7,222.8c0,4.3-3.5,7.8-7.8,7.8c-3.2,0-6-2-7.1-4.7c0,0,0,0,0,0c-0.1-1-0.3-1.9-0.6-2.9v-0.2
		c0-1.7,0.5-3.2,1.4-4.4c2.8-0.8,5.4-1.9,7.8-3.2C194,215.8,196.7,219,196.7,222.8z"/>
	<path style="opacity:0.3;" d="M210.2,213.4c0,4.3-3.5,7.8-7.8,7.8c-4.3,0-7.8-3.5-7.8-7.8c0-0.4,0-0.8,0.1-1.1
		c2.5-1.8,4.6-4,6.4-6.5c0.4-0.1,0.8-0.1,1.2-0.1C206.8,205.7,210.2,209.1,210.2,213.4z"/>
	<path style="opacity:0.3;" d="M155.2,222.4c-0.4,1.2-0.7,2.5-0.8,3.8v0c-1.3,2.5-3.9,4.3-6.9,4.3c-4.3,0-7.8-3.5-7.8-7.8
		c0-3.8,2.7-6.9,6.2-7.6h0c2.5,1.3,5.1,2.4,7.9,3.2C154.7,219.6,155.2,220.9,155.2,222.4z"/>
	<path style="opacity:0.3;" d="M141.7,213.4c0,4.3-3.5,7.8-7.8,7.8c-4.3,0-7.8-3.5-7.8-7.8c0-4.3,3.5-7.8,7.8-7.8c0.4,0,0.7,0,1,0.1
		c1.8,2.6,4.1,4.8,6.6,6.7C141.7,212.8,141.7,213.1,141.7,213.4z"/>
	<g>
		<path style="fill:#F9A428;" d="M94.3,34.7c-1.1,1.3-3,1.4-4.2,0.3c-2.4-2.1-10-7.5-15.5-6.5c-2.1,0.4-3.8,1.7-5.2,4.1
			c-4.4,7.9,0.7,12.8,8.2,18.8c0.9,0.7,1.8,1.4,2.6,2.1c6.4,5.5,6.1,17.7,5.7,22.1c1.6,1.3,2.7,3.3,2.7,5.5c0,1-0.2,1.9-0.5,2.7
			c-1.7-1.6-4-2.6-6.5-2.6s-4.8,1-6.5,2.6c-0.3-0.8-0.5-1.7-0.5-2.7c0-3.3,2.3-6.1,5.4-6.8c0.3-4.7,0-13.2-3.6-16.2
			c-0.8-0.6-1.6-1.3-2.4-2c-6.3-5-16.9-13.5-9.7-26.4c2.2-4,5.5-6.4,9.4-7.1c9.5-1.6,20,7.6,20.4,8C95.3,31.5,95.5,33.4,94.3,34.7z"
			/>
	</g>
	<g>
		<path style="fill:#F9A428;" d="M181,60.4c-1.1,1.2-3,1.4-4.2,0.3c-2.4-2.2-10-7.5-15.5-6.5c-2.2,0.4-3.8,1.7-5.2,4.1
			c-4.4,7.9,0.7,12.8,8.2,18.8c0.9,0.7,1.8,1.4,2.6,2.1c6.5,5.5,6.1,17.9,5.7,22.3c1.5,1.3,2.5,3.2,2.5,5.4c0,1-0.2,1.9-0.5,2.7
			c-1.7-1.6-4-2.6-6.5-2.6s-4.8,1-6.5,2.6c-0.4-0.8-0.5-1.8-0.5-2.7c0-3.4,2.4-6.2,5.6-6.9c0.3-4.7,0-13.1-3.6-16.2
			c-0.8-0.6-1.6-1.3-2.4-2c-6.3-5-16.9-13.5-9.7-26.4c2.2-4,5.5-6.4,9.4-7.1c9.5-1.6,20,7.6,20.4,8C182,57.2,182.1,59.1,181,60.4z"
			/>
	</g>
</g>
</svg>
