<?xml version="1.0" encoding="utf-8"?>
<!-- Generator: Adobe Illustrator 22.1.0, SVG Export Plug-In . SVG Version: 6.00 Build 0)  -->
<svg version="1.1" id="Layer_1" xmlns="http://www.w3.org/2000/svg" xmlns:xlink="http://www.w3.org/1999/xlink" x="0px" y="0px"
	 viewBox="0 0 256 256" style="enable-background:new 0 0 256 256;" xml:space="preserve">
<g style="opacity:0;">
	<path style="fill:#EA1534;" d="M164.7,214c0,4.8-3.9,8.7-8.7,8.7s-8.7-3.9-8.7-8.7c0-1.2,0.2-2.4,0.8-3.6c3.9-1.1,7.6-2.6,10.9-4.6
		C162.4,207.3,164.7,210.4,164.7,214z"/>
	<path style="fill:#EA1534;" d="M179.8,203.7c0,4.8-3.9,8.7-8.7,8.7c-4.8,0-8.6-3.8-8.7-8.6c3.2-2.4,6-5.3,8.2-8.7
		c0.1,0,0.3,0,0.4,0C176,195,179.8,198.9,179.8,203.7z"/>
	<path style="fill:#EA1534;" d="M118.6,214c0,4.8-3.9,8.7-8.7,8.7c-4.8,0-8.7-3.9-8.7-8.7c0-3.7,2.3-6.9,5.6-8.1
		c3.3,2,6.9,3.4,10.9,4.6C118.4,211.6,118.6,212.8,118.6,214z"/>
	<path style="fill:#EA1534;" d="M103.6,203.7c0,4.8-3.9,8.6-8.7,8.6s-8.7-3.9-8.7-8.7s3.9-8.7,8.7-8.7c0.1,0,0.3,0,0.4,0
		C97.6,198.5,100.4,201.4,103.6,203.7z"/>
	<path style="fill:#EA1534;" d="M148.4,222.7c0,8.4-6.9,15.3-15.3,15.3c-8.4,0-15.3-6.9-15.3-15.3c0-4.3,1.8-8.3,4.8-11.1
		c3.3,0.6,6.9,0.9,10.6,0.9s7.2-0.3,10.6-0.9C146.6,214.4,148.4,218.4,148.4,222.7z"/>
	<path style="fill:#EA1534;" d="M176.3,175.5c0,7.7-2,14.2-5.6,19.7c-2.2,3.3-4.9,6.2-8.2,8.7c-1.1,0.8-2.2,1.6-3.3,2.2
		c-3.3,2-6.9,3.4-10.9,4.6c-1.4,0.4-3,0.8-4.7,1.1c-3.3,0.6-6.9,0.9-10.6,0.9s-7.2-0.3-10.6-0.9c-1.6-0.3-3.1-0.7-4.7-1.1
		c-3.9-1.1-7.6-2.6-10.9-4.6c-1.2-0.7-2.3-1.4-3.3-2.2c-3.2-2.4-6-5.3-8.2-8.7c-3.6-5.3-5.6-12-5.6-19.7c0-23.8,43.1-78.6,43.1-78.6
		S176.3,151.6,176.3,175.5z"/>
	<path style="fill:#EA1534;" d="M143.6,93.8c0,5.8-4.7,10.5-10.5,10.5c-5.8,0-10.5-4.7-10.5-10.5c0-3,1.2-5.8,3.3-7.7
		c1.9-1.8,4.4-2.9,7.2-2.9s5.3,1.1,7.2,2.9C142.3,88,143.6,90.7,143.6,93.8z"/>
</g>
<g>
	<g style="opacity:0.3;">
		<path style="fill:#FFFFFF;" d="M151.5,143.3c-0.9,0-1.8-0.4-2.3-1.3l-13.9-22.2c-0.8-1.3-0.4-3,0.9-3.8s3-0.4,3.8,0.9l13.9,22.2
			c0.8,1.3,0.4,3-0.9,3.8C152.5,143.2,152,143.3,151.5,143.3z"/>
	</g>
	<path style="opacity:0.4;enable-background:new    ;" d="M143.6,93.8c0,5.8-4.7,10.5-10.5,10.5c-5.8,0-10.5-4.7-10.5-10.5
		c0-3,1.2-5.8,3.3-7.7c1.9-1.8,4.4-2.9,7.2-2.9s5.3,1.1,7.2,2.9C142.3,88,143.6,90.7,143.6,93.8z"/>
	<path style="opacity:0.3;enable-background:new    ;" d="M164.7,214c0,4.8-3.9,8.7-8.7,8.7s-8.7-3.9-8.7-8.7c0-1.2,0.2-2.4,0.8-3.6
		c3.9-1.1,7.6-2.6,10.9-4.6C162.4,207.3,164.7,210.4,164.7,214z"/>
	<path style="opacity:0.3;enable-background:new    ;" d="M179.8,203.7c0,4.8-3.9,8.7-8.7,8.7c-4.8,0-8.6-3.8-8.7-8.6
		c3.2-2.4,6-5.3,8.2-8.7c0.1,0,0.3,0,0.4,0C176,195,179.8,198.9,179.8,203.7z"/>
	<path style="opacity:0.3;enable-background:new    ;" d="M118.6,214c0,4.8-3.9,8.7-8.7,8.7c-4.8,0-8.7-3.9-8.7-8.7
		c0-3.7,2.3-6.9,5.6-8.1c3.3,2,6.9,3.4,10.9,4.6C118.4,211.6,118.6,212.8,118.6,214z"/>
	<path style="opacity:0.3;enable-background:new    ;" d="M103.6,203.7c0,4.8-3.9,8.6-8.7,8.6s-8.7-3.9-8.7-8.7s3.9-8.7,8.7-8.7
		c0.1,0,0.3,0,0.4,0C97.6,198.5,100.4,201.4,103.6,203.7z"/>
	<path style="opacity:0.2;enable-background:new    ;" d="M148.4,222.7c0,8.4-6.9,15.3-15.3,15.3c-8.4,0-15.3-6.9-15.3-15.3
		c0-4.3,1.8-8.3,4.8-11.1c3.3,0.6,6.9,0.9,10.6,0.9s7.2-0.3,10.6-0.9C146.6,214.4,148.4,218.4,148.4,222.7z"/>
	<g>
		<path style="fill:#F9A428;" d="M147.2,31.6c-1.2,1.4-3.3,1.6-4.7,0.3c-2.7-2.3-11.1-8.3-17.2-7.2c-2.3,0.4-4.2,1.9-5.8,4.6
			c-4.9,8.8,0.8,14.2,9.1,20.9c1,0.8,2,1.6,2.9,2.3c7.1,6.1,6.8,19.7,6.3,24.6c1.8,1.4,3,3.7,3,6.1c0,1.1-0.2,2.1-0.6,3
			c-1.9-1.8-4.4-2.9-7.2-2.9s-5.3,1.1-7.2,2.9c-0.3-0.9-0.6-1.9-0.6-3c0-3.7,2.6-6.8,6-7.6c0.3-5.2,0-14.7-4-18
			c-0.9-0.7-1.8-1.4-2.7-2.2c-7-5.6-18.8-15-10.8-29.4c2.4-4.4,6.1-7.1,10.5-7.9c10.6-1.8,22.2,8.4,22.7,8.9
			C148.3,28,148.5,30.2,147.2,31.6z"/>
	</g>
</g>
</svg>
