<?xml version="1.0" encoding="utf-8"?>
<!-- Generator: Adobe Illustrator 22.1.0, SVG Export Plug-In . SVG Version: 6.00 Build 0)  -->
<svg version="1.1" id="Layer_1" xmlns="http://www.w3.org/2000/svg" xmlns:xlink="http://www.w3.org/1999/xlink" x="0px" y="0px"
	 viewBox="0 0 256 256" style="enable-background:new 0 0 256 256;" xml:space="preserve">
<g style="opacity:0;">
	<path style="fill:#3E3E77;" d="M202.7,76.8c0,0.8,0,1.5-0.3,2.3l-14.3,50.2c-5.5,11.7-12.7,20.4-13,20.8l0,0
		c0,0.4,0.6,11.8,1.2,25.9c-10.6-14.2-20.5-27.4-20.8-27.8l0,0l0,0c0-0.4,1.1-11.7-0.9-24.5L138.4,74c-0.1-0.4-0.3-0.7-0.5-1.1h0.1
		c1.1-0.2,1.8-1.2,1.8-2.3c-0.4-10-2.2-56.3-2.2-56.3c-0.1-4,3-7.4,7-7.5c2-0.1,3.8,0.7,5.2,1.9c1.4,1.3,2.2,3,2.3,5.1l2.1,55
		c0,1.2,1,2.1,2.1,2.1c0.3,0,0.6,0,0.9,0c1.3,0,2.3-1,2.3-2.3L157.7,19c-0.2-4,3-7.4,7-7.5c2-0.1,3.8,0.7,5.2,1.9
		c1.4,1.3,2.2,3,2.3,5.1l2,55.2c0,0.4,0,0.8,0,1.1c0.1,0,0.1,0.1,0.1,0.1v29.3c0,0.7,0.2,1.3,0.6,1.8c0.4,0.5,1,0.8,1.6,1
		c1.5,0.3,3-0.5,3.4-2l8.6-30.1c1.1-3.8,5.1-6.1,9-5C200.5,71,202.6,73.8,202.7,76.8z"/>
	<path style="fill:#3E3E77;" d="M134.3,108.3c0.5,1.4-0.3,3-1.7,3.5c-0.3,0.1-0.7,0.2-1,0.2c-0.9,0-1.8-0.5-2.4-1.3l-16.5-24.3
		c0,0,0,0-0.1,0c-0.2-0.4-0.4-0.7-0.6-1l-8.1-11l-1.7-44.8c-0.1-3.5,2.6-6.7,6.2-6.7c1.6,0,3,0.6,4.1,1.6c1.1,1.1,1.9,2.6,1.9,4.3
		l1.8,47.2c0,1.5,1.5,2.5,3,2l0,0c0.9-0.3,1.6-1.2,1.5-2.2c-0.3-8.1-1.6-43.2-2-54.9c-0.2-4.1,3.1-7.9,7.2-7.9c1.9,0,3.7,0.7,5,1.9
		c1.4,1.3,2.2,3,2.3,5.1l1.9,50c-1.7-1-3.9-1.4-6-0.7c-3.8,1.3-5.9,5.4-4.6,9.2L134.3,108.3z"/>
	<path style="fill:#3E3E77;" d="M137.7,230.4l-22.8,0.8h-0.1c0-1-0.5-16.2-1-33.8C121.4,207.8,130.4,220.3,137.7,230.4z"/>
	<path style="fill:#3E3E77;" d="M202.8,211.3L202.8,211.3l-24,17.6l-27.6,20.2h-0.1c-0.5-0.6-6-8.4-13.4-18.7
		c-7.3-10.1-16.3-22.6-23.8-33c-8.2-11.3-14.6-20-15.2-20.6c-1.7-1.7-24.2-18.8-38.9-43.9l0,0l-32-43.6c-2.1-2.9-1.6-7.1,1.4-9
		c1.3-0.9,2.9-1.2,4.3-1c1.5,0.3,3,1.1,4,2.4l27.9,38.1c0.9,1.2,2.7,1.2,3.6,0l0,0c0.6-0.8,0.6-1.9,0-2.7
		c-4.8-6.5-25.6-34.9-32.5-44.3c-2.4-3.3-1.9-8.2,1.5-10.6c1.6-1.1,3.5-1.5,5.2-1.2c1.8,0.3,3.6,1.3,4.8,2.9l30,41
		c0.8,1.1,2.4,1.2,3.4,0.2c0,0,0,0,0.1-0.1c0.8-0.8,0.9-2,0.2-2.9c-6-8.1-33.3-45.4-33.3-45.4c-2.4-3.2-1.7-7.8,1.6-10.2
		c1.6-1.2,3.6-1.6,5.4-1.3c1.8,0.3,3.6,1.3,4.8,2.9l32.5,44.4c0.7,0.9,2,1.2,3,0.5c0.3-0.2,0.5-0.3,0.7-0.5c1.1-0.7,1.4-2.1,0.6-3.1
		l-29.3-40c-2.4-3.2-1.7-7.8,1.6-10.2c1.6-1.2,3.5-1.6,5.4-1.3c1.8,0.3,3.6,1.3,4.8,2.9L104,74.5l8.1,11c0.2,0.3,0.4,0.6,0.6,1
		c0.1,0,0.1,0,0.1,0l16.5,24.3c0.5,0.8,1.4,1.3,2.4,1.3c0.3,0,0.7-0.1,1-0.2c1.4-0.6,2.1-2.1,1.7-3.5l-9.8-29.7
		c-1.3-3.8,0.8-7.9,4.6-9.2c2.1-0.7,4.3-0.4,6,0.7c0.8,0.5,1.6,1.1,2.1,1.9c0.2,0.3,0.4,0.6,0.6,1c0.2,0.3,0.3,0.7,0.5,1.1
		l16.3,49.6c2,12.8,0.9,24.1,0.9,24.5l0,0l0,0c0.3,0.4,10.2,13.6,20.8,27.8C188.7,192.4,202,210.3,202.8,211.3z"/>
</g>
<g>
	<path style="opacity:0.3;enable-background:new    ;" d="M202.7,76.8c0,0.8,0,1.5-0.3,2.3l-14.3,50.2c-5.5,11.7-12.7,20.4-13,20.8
		l0,0c0,0.4,0.6,11.8,1.2,25.9c-10.6-14.2-20.5-27.4-20.8-27.8l0,0l0,0c0-0.4,1.1-11.7-0.9-24.5L138.4,74c-0.1-0.4-0.3-0.7-0.5-1.1
		h0.1c1.1-0.2,1.8-1.2,1.8-2.3c-0.4-10-2.2-56.3-2.2-56.3c-0.1-4,3-7.4,7-7.5c2-0.1,3.8,0.7,5.2,1.9c1.4,1.3,2.2,3,2.3,5.1l2.1,55
		c0,1.2,1,2.1,2.1,2.1c0.3,0,0.6,0,0.9,0c1.3,0,2.3-1,2.3-2.3L157.7,19c-0.2-4,3-7.4,7-7.5c2-0.1,3.8,0.7,5.2,1.9
		c1.4,1.3,2.2,3,2.3,5.1l2,55.2c0,0.4,0,0.8,0,1.1c0.1,0,0.1,0.1,0.1,0.1v29.3c0,0.7,0.2,1.3,0.6,1.8c0.4,0.5,1,0.8,1.6,1
		c1.5,0.3,3-0.5,3.4-2l8.6-30.1c1.1-3.8,5.1-6.1,9-5C200.5,71,202.6,73.8,202.7,76.8z"/>
	<path style="opacity:0.3;enable-background:new    ;" d="M134.3,108.3c0.5,1.4-0.3,3-1.7,3.5c-0.3,0.1-0.7,0.2-1,0.2
		c-0.9,0-1.8-0.5-2.4-1.3l-16.5-24.3c0,0,0,0-0.1,0c-0.2-0.4-0.4-0.7-0.6-1l-8.1-11l-1.7-44.8c-0.1-3.5,2.6-6.7,6.2-6.7
		c1.6,0,3,0.6,4.1,1.6c1.1,1.1,1.9,2.6,1.9,4.3l1.8,47.2c0,1.5,1.5,2.5,3,2l0,0c0.9-0.3,1.6-1.2,1.5-2.2c-0.3-8.1-1.6-43.2-2-54.9
		c-0.2-4.1,3.1-7.9,7.2-7.9c1.9,0,3.7,0.7,5,1.9c1.4,1.3,2.2,3,2.3,5.1l1.9,50c-1.7-1-3.9-1.4-6-0.7c-3.8,1.3-5.9,5.4-4.6,9.2
		L134.3,108.3z"/>
	<path style="opacity:0.3;enable-background:new    ;" d="M137.7,230.4l-22.8,0.8h-0.1c0-1-0.5-16.2-1-33.8
		C121.4,207.8,130.4,220.3,137.7,230.4z"/>
</g>
</svg>
