<?xml version="1.0" encoding="utf-8"?>
<!-- Generator: Adobe Illustrator 22.1.0, SVG Export Plug-In . SVG Version: 6.00 Build 0)  -->
<svg version="1.1" id="Layer_1" xmlns="http://www.w3.org/2000/svg" xmlns:xlink="http://www.w3.org/1999/xlink" x="0px" y="0px"
	 viewBox="0 0 256 256" style="enable-background:new 0 0 256 256;" xml:space="preserve">
<g style="opacity:0;">
	<g>
		<path style="fill:#83FFFF;" d="M144.2,11.5l-4.2,9.8c-1-0.3-2.1-0.4-3.1-0.4l4.5-10.5c0.3-0.8,1.2-1.1,2-0.8
			C144.1,9.8,144.5,10.7,144.2,11.5z"/>
	</g>
	<g>
		<path style="fill:#83FFFF;" d="M107.6,21.4c-1,0.1-2,0.3-3,0.7l-4.5-10.5c-0.3-0.8,0-1.6,0.8-2c0.8-0.3,1.6,0,2,0.8L107.6,21.4z"
			/>
	</g>
	<path style="fill:#83FFFF;" d="M138,46l6.3,21.5l-14.5,12c-4.6,3.8-11.2,3.7-15.7-0.2l-13.7-11.8l6.3-21.5
		c0.8-3-10.5-17.8-10.5-17.8c2.8-3.4,5.7-5.3,8.5-6.3c1-0.3,2-0.5,3-0.7c8.1-0.8,14.7,5.7,14.7,5.7s7-6.3,14.5-6.3
		c1,0,2.1,0.1,3.1,0.4c3,0.8,6,2.9,8.6,7C148.5,28.3,137.2,43,138,46z"/>
	<path style="fill:#83FFFF;" d="M196.5,245.1H48.1c-0.7-178.8,52-177.8,52-177.8l0.3,0.2l13.7,11.8c4.5,3.9,11.1,3.9,15.7,0.2
		l14.5-12l0.3-0.2C144.6,67.3,197.2,66.3,196.5,245.1z"/>
</g>
<g>
	<g style="opacity:0.1;">
		<path d="M144.2,11.5l-4.2,9.8c-1-0.3-2.1-0.4-3.1-0.4l4.5-10.5c0.3-0.8,1.2-1.1,2-0.8C144.1,9.8,144.5,10.7,144.2,11.5z"/>
	</g>
	<g style="opacity:0.1;">
		<path d="M107.6,21.4c-1,0.1-2,0.3-3,0.7l-4.5-10.5c-0.3-0.8,0-1.6,0.8-2c0.8-0.3,1.6,0,2,0.8L107.6,21.4z"/>
	</g>
	<path style="opacity:0.2;enable-background:new    ;" d="M196.5,245.1H48.1c-0.7-178.8,52-177.8,52-177.8l0.3,0.2l13.7,11.8
		c4.5,3.9,11.1,3.9,15.7,0.2l14.5-12l0.3-0.2C144.6,67.3,197.2,66.3,196.5,245.1z"/>
</g>
</svg>
