<?xml version="1.0" encoding="utf-8"?>
<!-- Generator: Adobe Illustrator 22.1.0, SVG Export Plug-In . SVG Version: 6.00 Build 0)  -->
<svg version="1.1" id="Layer_1" xmlns="http://www.w3.org/2000/svg" xmlns:xlink="http://www.w3.org/1999/xlink" x="0px" y="0px"
	 viewBox="0 0 256 256" style="enable-background:new 0 0 256 256;" xml:space="preserve">
<g>
	<path style="fill:#F93D69;" d="M239.1,137.7L204,168.8c0,0-7.6-5.8-16.5-15c-0.2-2.8-0.5-5.7-1-8.5c-0.7-4.4-1.8-8.9-3.2-13.3
		c-1.5-4.4-3.3-8.7-5.7-12.9c-1.4-2.6-3.1-5-4.9-7.4c16.5,9.7,40,14.8,55.6,17.2C232.9,131.9,236.6,134.9,239.1,137.7z"/>
	<path style="fill:#F93D69;" d="M146.9,92.2c-0.5-0.2-1-0.4-1.5-0.6c-2.2-0.9-4.4-1.6-6.6-2.3c-2.2-0.6-4.4-1.3-6.7-1.7
		c-4.5-1-8.9-1.5-13.4-2c-4.4-0.3-8.9-0.5-13.3-0.4c-2.4,0-4.9,0.1-7.3,0.3c-11.3-6.5-19-12.7-19-12.7l21.7-41.6
		c2.6,1.4,5.5,3.5,8.6,6.2C116.9,54.7,130.3,80.7,146.9,92.2z"/>
	<path style="fill:#F93D69;" d="M244.3,131c0,0-6.5-0.5-16-2c-15.5-2.5-39.1-7.5-55.6-17.2c-2-2.5-4.1-4.9-6.4-7
		c0.1-0.1,0.2-0.3,0.4-0.4c1-1.3,1.6-2.6,2-4.1c0.7-3,0.2-6.1-1.5-8.7c14.9-5.4,53.5-18.4,70.5-15L244.3,131z"/>
	<path style="fill:#F93D69;" d="M159.8,86.7c-2.5-0.4-5,0.1-7.2,1.3c-1.2,0.7-2.3,1.6-3.1,2.7c-0.5,0.6-0.9,1.3-1.2,1.9
		c-0.4-0.2-0.9-0.4-1.3-0.6l0,0c-16.6-11.5-30-37.5-37.5-54.8c-4.3-9.9-6.7-16.9-6.7-16.9l54.5-6.7
		C164.8,29.7,161.3,71.7,159.8,86.7z"/>
	<path style="fill:#F93D69;" d="M168.7,100.2c-0.3,1.5-1,2.8-2,4.1c-0.1,0.2-0.2,0.3-0.4,0.4c-0.7-0.7-1.5-1.4-2.3-2
		c-0.7-0.6-1.4-1.2-2.1-1.7c-1.3-1-2.5-1.9-3.8-2.8c-1.5-1-3.1-2-4.8-2.9c-1.2-0.6-2.4-1.3-3.7-1.8c-0.5-0.2-0.9-0.4-1.4-0.6
		c0.3-0.7,0.7-1.3,1.2-1.9c0.9-1.1,2-2,3.1-2.7c2.2-1.3,4.7-1.7,7.2-1.3c1.8,0.3,3.5,1,5,2.2c0.9,0.7,1.7,1.6,2.4,2.5
		C168.9,94,169.4,97.2,168.7,100.2z"/>
</g>
<g style="opacity:0;">
	<path style="fill:#4C4C4C;" d="M187.6,171.6c-0.6,8.6-1.9,17.1-3.7,25.4c-1.9,8.3-4.1,16.4-6.8,24.3c-1.4,4-2.8,7.9-4.4,11.8
		c-1.6,3.9-3.2,7.7-5.2,11.5c-0.9,1.7-3,2.4-4.7,1.5c-1.5-0.8-2.3-2.5-1.8-4.1v-0.1c1.1-3.8,2.2-7.8,3.1-11.7
		c1-3.9,1.9-7.9,2.7-11.8c1.6-7.9,3-15.8,3.9-23.7s1.4-15.8,1.3-23.6c-0.1-3.9-0.2-7.8-0.6-11.5c-0.4-3.8-1-7.5-1.8-11.2
		c-0.8-3.6-1.8-7.1-3.1-10.5c-1.3-3.3-2.8-6.5-4.7-9.4c-3.7-5.8-8.5-10.6-14.2-14.2c-2.9-1.8-6-3.3-9.3-4.5c-1.6-0.7-3.3-1.1-5-1.7
		c-1.8-0.4-3.5-0.9-5.3-1.2c-3.5-0.8-7.2-1.2-10.9-1.6c-3.7-0.3-7.5-0.4-11.3-0.3c-7.7,0.1-15.2,0.8-22.4,2.4c-3.6,0.8-7,1.8-10.4,3
		c-3.3,1.3-6.4,2.8-9.4,4.6c-5.9,3.6-10.9,8.4-14.8,14c-4,5.7-6.8,12.4-8.7,19.6c-0.9,3.6-1.7,7.3-2.2,11c-0.5,3.8-0.8,7.6-1,11.5
		c-0.3,7.8,0,15.6,0.8,23.5c0.7,7.9,2,15.8,3.5,23.7c0.8,4,1.6,7.9,2.6,11.8c0.9,3.9,2,7.9,3,11.7v0.1c0.5,1.9-0.5,3.8-2.4,4.3
		c-1.7,0.5-3.4-0.3-4.1-1.8c-1.9-3.9-3.5-7.7-5-11.6c-1.5-3.9-2.9-7.8-4.2-11.8c-2.6-8-4.7-16.2-6.4-24.5c-1.6-8.3-2.7-16.8-3-25.5
		s0.2-17.5,2-26.3s4.9-17.7,10-25.7c5-8.1,11.9-15.1,19.9-20.3c4-2.6,8.2-4.7,12.5-6.5c4.3-1.7,8.7-3.1,13.2-4.2
		c6.4-1.5,12.8-2.3,19.2-2.8c2.5-0.2,4.9-0.3,7.3-0.3c4.4-0.1,8.8,0.1,13.3,0.4c4.5,0.4,8.9,1,13.4,2c2.2,0.4,4.5,1.1,6.7,1.7
		c2.2,0.7,4.4,1.4,6.6,2.3c0.5,0.2,1,0.4,1.5,0.6l0,0c0.4,0.2,0.9,0.4,1.3,0.6c0.5,0.2,0.9,0.4,1.4,0.6c1.2,0.6,2.5,1.2,3.7,1.8
		c1.6,0.9,3.2,1.9,4.8,2.9c1.3,0.9,2.6,1.8,3.8,2.8c0.7,0.5,1.4,1.1,2.1,1.7c0.8,0.7,1.5,1.3,2.3,2c2.3,2.2,4.5,4.5,6.4,7
		c1.8,2.4,3.5,4.8,4.9,7.4c2.4,4.1,4.2,8.5,5.7,12.9c1.4,4.4,2.5,8.9,3.2,13.3c0.5,2.8,0.8,5.7,1,8.5
		C188,159.8,188,165.7,187.6,171.6z"/>
	<path style="opacity:0.1;enable-background:new    ;" d="M239.1,137.7L204,168.8c0,0-7.6-5.8-16.5-15c-0.2-2.8-0.5-5.7-1-8.5
		c-0.7-4.4-1.8-8.9-3.2-13.3c-1.5-4.4-3.3-8.7-5.7-12.9c-1.4-2.6-3.1-5-4.9-7.4c16.5,9.7,40,14.8,55.6,17.2
		C232.9,131.9,236.6,134.9,239.1,137.7z"/>
	<path style="opacity:0.1;enable-background:new    ;" d="M146.9,92.2c-0.5-0.2-1-0.4-1.5-0.6c-2.2-0.9-4.4-1.6-6.6-2.3
		c-2.2-0.6-4.4-1.3-6.7-1.7c-4.5-1-8.9-1.5-13.4-2c-4.4-0.3-8.9-0.5-13.3-0.4c-2.4,0-4.9,0.1-7.3,0.3c-11.3-6.5-19-12.7-19-12.7
		l21.7-41.6c2.6,1.4,5.5,3.5,8.6,6.2C116.9,54.7,130.3,80.7,146.9,92.2z"/>
	<path style="opacity:0.1;enable-background:new    ;" d="M168.7,100.2c-0.3,1.5-1,2.8-2,4.1c-0.1,0.2-0.2,0.3-0.4,0.4
		c-0.7-0.7-1.5-1.4-2.3-2c-0.7-0.6-1.4-1.2-2.1-1.7c-1.3-1-2.5-1.9-3.8-2.8c-1.5-1-3.1-2-4.8-2.9c-1.2-0.6-2.4-1.3-3.7-1.8
		c-0.5-0.2-0.9-0.4-1.4-0.6c0.3-0.7,0.7-1.3,1.2-1.9c0.9-1.1,2-2,3.1-2.7c2.2-1.3,4.7-1.7,7.2-1.3c1.8,0.3,3.5,1,5,2.2
		c0.9,0.7,1.7,1.6,2.4,2.5C168.9,94,169.4,97.2,168.7,100.2z"/>
</g>
</svg>
