<?xml version="1.0" encoding="utf-8"?>
<!-- Generator: Adobe Illustrator 22.1.0, SVG Export Plug-In . SVG Version: 6.00 Build 0)  -->
<svg version="1.1" id="Layer_1" xmlns="http://www.w3.org/2000/svg" xmlns:xlink="http://www.w3.org/1999/xlink" x="0px" y="0px"
	 viewBox="0 0 256 256" style="enable-background:new 0 0 256 256;" xml:space="preserve">
<g>
	<rect x="57.8" y="33.1" style="fill:#515151;" width="135.9" height="139.2"/>
	<g>
		<path style="fill:#515151;" d="M243.5,202.2c-36.4,5.3-74.1,7.9-112.7,7.9s-78.1-2.6-118.3-7.9l2.2-16.9
			c14.5,1.9,28.8,3.5,43.1,4.6c46.6,3.9,92,4.2,135.9,0.7c16-1.3,31.8-3,47.4-5.3L243.5,202.2z"/>
	</g>
</g>
<g style="opacity:0;">
	<path style="fill:#FF3F36;" d="M193.7,172.3v18.4c-43.9,3.5-89.3,3.3-135.9-0.7v-17.7H193.7z"/>
	<g style="opacity:0.4;">
		<path d="M243.5,202.2c-36.4,5.3-74.1,7.9-112.7,7.9s-78.1-2.6-118.3-7.9l2.2-16.9c14.5,1.9,28.8,3.5,43.1,4.6
			c46.6,3.9,92,4.2,135.9,0.7c16-1.3,31.8-3,47.4-5.3L243.5,202.2z"/>
	</g>
</g>
</svg>
