<?xml version="1.0" encoding="utf-8"?>
<!-- Generator: Adobe Illustrator 22.1.0, SVG Export Plug-In . SVG Version: 6.00 Build 0)  -->
<svg version="1.1" id="Layer_1" xmlns="http://www.w3.org/2000/svg" xmlns:xlink="http://www.w3.org/1999/xlink" x="0px" y="0px"
	 viewBox="0 0 256 256" style="enable-background:new 0 0 256 256;" xml:space="preserve">
<g>
	<path style="fill:#FFA543;" d="M109.1,16.5c-8.6,8.3-16.4,23.1-17.4,49.1h72.8c0,0-3-28.7-16.8-46.3
		C138.1,7.1,120.2,5.7,109.1,16.5z"/>
	<path style="fill:#FFA543;" d="M240.1,179.6l-15.5,70.1l-23.9-5.8l12.5-60.4l-25.5-44c2.8-13.8,7.1-32,12.9-48.7L240.1,179.6z"/>
	<path style="fill:#FFA543;" d="M46.8,183.5l9.3,61.6l-24.8,5.2l-11.4-70.6l40.2-89.4l0.2,0.4c-0.1,0-0.2,0-0.2,0s9.7,26.4,14,49.5
		L46.8,183.5z"/>
	<path style="fill:#FFA543;" d="M183.7,162.1l8.3,80.8h-60.7L130,118.7l20.6-45.2h-40.4L104.4,87l24.5,25.1l1.4,130.9H68.8
		c0,0,5.2-57.8,7.1-80.8c0.5-6-0.3-13.8-1.8-21.9c-4.3-23.1-14-49.5-14-49.5s0.1,0,0.2,0c2.2-0.5,23.3-5.8,30.6-7.6
		c7.7-1.9,26.9-15.4,26.9-15.4h26.9c7.7,7.7,15.4,9.6,21.2,13.5c5.8,3.8,34.6,9.6,34.6,9.6c-5.9,16.7-10.2,34.8-12.9,48.7
		C185,152.8,183.7,162.1,183.7,162.1z"/>
	<polygon style="fill:#FFA543;" points="177.7,219.5 158.6,208 162.6,202.5 180.8,213.5 	"/>
	<polygon style="fill:#FFA543;" points="81.5,220.3 99,206.6 94.4,201.6 77.6,214.8 	"/>
</g>
<g style="opacity:0;">
	<path style="fill:#3D3D3D;" d="M144.7,98.8c-8.9,5.4-12.8,14.4-14.4,21.8l2.5,122.3l-3,0.1l-2.5-122c-2.2-8-7-18.2-17.6-23.7
		c-19.1-10-35.6-53.6,19.4-53.7C183.4,43.4,163.8,87.3,144.7,98.8z"/>
	<path style="fill:#3D3D3D;" d="M129.1,132c0,0.2,0,0.3,0,0.4C129.1,132.3,129.1,132.1,129.1,132z"/>
	<g>
		<path style="fill:#3D3D3D;" d="M129.1,132c0,0.2,0,0.3,0,0.4C129.1,132.3,129.1,132.1,129.1,132z"/>
	</g>
	<path style="opacity:0.1;enable-background:new    ;" d="M240.1,179.6l-15.5,70.1l-23.9-5.8l12.5-60.4l-25.5-44
		c2.8-13.8,7.1-32,12.9-48.7L240.1,179.6z"/>
	<path style="opacity:0.1;enable-background:new    ;" d="M46.8,183.5l9.3,61.6l-24.8,5.2l-11.4-70.6l40.2-89.4l0.2,0.4
		c-0.1,0-0.2,0-0.2,0s9.7,26.4,14,49.5L46.8,183.5z"/>
	<polygon style="opacity:0.1;enable-background:new    ;" points="177.7,219.5 158.6,208 162.6,202.5 180.8,213.5 	"/>
	<polygon style="opacity:0.1;enable-background:new    ;" points="81.5,220.3 99,206.6 94.4,201.6 77.6,214.8 	"/>
</g>
</svg>
