<?xml version="1.0" encoding="utf-8"?>
<!-- Generator: Adobe Illustrator 22.1.0, SVG Export Plug-In . SVG Version: 6.00 Build 0)  -->
<svg version="1.1" id="Layer_1" xmlns="http://www.w3.org/2000/svg" xmlns:xlink="http://www.w3.org/1999/xlink" x="0px" y="0px"
	 viewBox="0 0 256 256" style="enable-background:new 0 0 256 256;" xml:space="preserve">
<g>
	<polygon style="fill:#4E83A0;" points="166.6,8.5 166.6,19.1 166.3,18.1 95.8,18.1 95.8,8.5 	"/>
	<g>
		<rect x="154.1" y="8.5" style="fill:#4E83A0;" width="2" height="10.1"/>
	</g>
	<g>
		<path style="fill:#4E83A0;" d="M174.3,48.4l-8,187h-24c1.5-34.4-10.8-179.7-10.8-179.7c-8.8,29.3-11.7,179.7-11.7,179.7h-24
			L88.3,49.3l7.5-31.2h70.5l0.3,1L174.3,48.4z"/>
	</g>
	<ellipse style="fill:#4E83A0;" cx="131.2" cy="15.1" rx="2" ry="1.8"/>
	<path style="fill:#4E83A0;" d="M167.5,239.5h-26.3c-0.9,0-1.7-0.8-1.7-1.7v-9.5c0-0.9,0.8-1.7,1.7-1.7h26.3c0.9,0,1.7,0.8,1.7,1.7
		v9.5C169.2,238.7,168.4,239.5,167.5,239.5z"/>
	<path style="fill:#4E83A0;" d="M120.8,239.5H94.5c-0.9,0-1.7-0.8-1.7-1.7v-9.5c0-0.9,0.8-1.7,1.7-1.7h26.3c0.9,0,1.7,0.8,1.7,1.7
		v9.5C122.5,238.7,121.7,239.5,120.8,239.5z"/>
</g>
<g style="opacity:0;">
	<g style="opacity:0.2;">
		<path d="M166.3,38.1c-16.3-2.1-18.9-16.7-19-16.9l3.9-0.7l-2,0.3l2-0.3c0.1,0.5,2.3,11.9,15.5,13.6L166.3,38.1z"/>
	</g>
	<g style="opacity:0.2;">
		<path d="M96.1,38.1l-0.5-4c13.3-1.7,15.5-13.1,15.5-13.6l3.9,0.7C115,21.4,112.4,36,96.1,38.1z"/>
	</g>
	<path style="opacity:0.2;fill:#FFFFFF;enable-background:new    ;" d="M167.5,239.5h-26.3c-0.9,0-1.7-0.8-1.7-1.7v-9.5
		c0-0.9,0.8-1.7,1.7-1.7h26.3c0.9,0,1.7,0.8,1.7,1.7v9.5C169.2,238.7,168.4,239.5,167.5,239.5z"/>
	<path style="opacity:0.2;fill:#FFFFFF;enable-background:new    ;" d="M120.8,239.5H94.5c-0.9,0-1.7-0.8-1.7-1.7v-9.5
		c0-0.9,0.8-1.7,1.7-1.7h26.3c0.9,0,1.7,0.8,1.7,1.7v9.5C122.5,238.7,121.7,239.5,120.8,239.5z"/>
	<path style="opacity:0.2;enable-background:new    ;" d="M95.8,8.5v9.6h34.3v35.5c0,0.8,0.7,1.5,1.5,1.5s1.5-0.7,1.5-1.5V18.1h21
		V8.5H95.8z M131.2,17c-1.1,0-2-0.8-2-1.8s0.9-1.8,2-1.8s2,0.8,2,1.8S132.3,17,131.2,17z"/>
	<polygon style="opacity:0.2;enable-background:new    ;" points="166.6,8.5 166.6,19.1 166.3,18.1 156.1,18.1 156.1,8.5 	"/>
</g>
</svg>
