<?xml version="1.0" encoding="utf-8"?>
<!-- Generator: Adobe Illustrator 22.1.0, SVG Export Plug-In . SVG Version: 6.00 Build 0)  -->
<svg version="1.1" id="Layer_1" xmlns="http://www.w3.org/2000/svg" xmlns:xlink="http://www.w3.org/1999/xlink" x="0px" y="0px"
	 viewBox="0 0 256 256" style="enable-background:new 0 0 256 256;" xml:space="preserve">
<g>
	<g>
		<path style="fill:#6AC7EF;" d="M187.9,90.1l-0.5,0.3l-3.9,2.5l-3.6,2.2l-3.9,2.5l-3.1,2l-16.8-30.7c0,0,0,0,0-0.1l-3-5.4V105H92
			V64.3l-2,4.3l0,0l-14.2,31l-0.2,0.4l-2.9-1.5l-4.1-2.1l-3.7-2l-4.1-2.2l-3.2-1.7l17.2-38.9l0,0L84,30.7c1.4-3.3,3.8-5.9,6.8-7.7
			c0.1-0.1,0.2-0.1,0.3-0.2l0,0c1.8-1.1,3.8-1.8,6-2.1c0.1,0,0.1,0,0.2,0c0.8-0.1,1.7-0.2,2.5-0.2H145c0.4,0,0.8,0,1.3,0
			s1,0.1,1.5,0.2c0.7,0.1,1.3,0.3,2,0.4c0.7,0.2,1.3,0.4,2,0.7c2.2,0.9,4.3,2.4,5.9,4.2l0,0c0.6,0.6,1.2,1.3,1.7,2.1l0,0
			c0.5,0.8,1,1.6,1.4,2.4l3.1,6.7l0,0L187.9,90.1z"/>
	</g>
	<polygon style="fill:#6AC7EF;" points="155.6,230.3 135.5,230.3 134.8,218.7 130.6,190.8 126,160 123.2,141.3 121.4,156.5 
		116.8,195.1 112.5,230.3 92.4,230.3 92.9,118.6 152.3,118.6 	"/>
	<rect x="89" y="101.7" style="fill:#6AC7EF;" width="66.7" height="5.3"/>
	<rect x="90.2" y="227.7" style="fill:#6AC7EF;" width="24" height="5.3"/>
	<rect x="133.8" y="227.7" style="fill:#6AC7EF;" width="24" height="5.3"/>
	<rect x="92.9" y="113.3" style="fill:#6AC7EF;" width="59.4" height="5.3"/>
	
		<rect x="170.5" y="92.2" transform="matrix(0.7994 -0.6008 0.6008 0.7994 -20.7304 127.5632)" style="fill:#6AC7EF;" width="20.4" height="5.3"/>
	
		<rect x="63.8" y="82.6" transform="matrix(0.4984 -0.8669 0.8669 0.4984 -48.4346 104.909)" style="fill:#6AC7EF;" width="5.3" height="23.4"/>
</g>
<g style="opacity:0;">
	<rect x="98.2" y="118.6" style="opacity:0.5;fill:#FFFFFF;enable-background:new    ;" width="4.6" height="109.1"/>
	<rect x="107.5" y="118.6" style="opacity:0.5;fill:#FFFFFF;enable-background:new    ;" width="4.6" height="109.1"/>
	<polygon style="opacity:0.5;fill:#FFFFFF;enable-background:new    ;" points="121.7,118.6 121.7,163.1 117,201.7 117.1,118.6 	"/>
	<polygon style="opacity:0.5;fill:#FFFFFF;enable-background:new    ;" points="130.9,118.6 130.9,197.3 126.3,166.5 126.3,118.6 	
		"/>
	<polygon style="opacity:0.5;fill:#FFFFFF;enable-background:new    ;" points="139.5,118.6 139.5,227.7 136.2,227.7 134.8,218.7 
		134.8,118.6 	"/>
	<rect x="144.1" y="118.6" style="opacity:0.5;fill:#FFFFFF;enable-background:new    ;" width="4.6" height="109.1"/>
	<rect x="89" y="101.7" style="opacity:0.2;enable-background:new    ;" width="66.7" height="5.3"/>
	<polygon style="opacity:0.2;enable-background:new    ;" points="190.4,90.9 174.1,103.1 170.9,98.9 175,95.8 178.8,93 182.1,90.5 
		185.9,87.6 187.2,86.7 	"/>
	<polygon style="opacity:0.2;enable-background:new    ;" points="78,97.8 75.3,102.5 55,90.8 57.6,86.2 62.3,88.8 66.3,91.1 
		70,93.2 74,95.6 	"/>
	<rect x="92.9" y="113.3" style="opacity:0.2;enable-background:new    ;" width="59.4" height="5.3"/>
	<rect x="90.2" y="227.7" style="opacity:0.2;enable-background:new    ;" width="24" height="5.3"/>
	<rect x="133.8" y="227.7" style="opacity:0.2;enable-background:new    ;" width="24" height="5.3"/>
	<path style="opacity:0.2;enable-background:new    ;" d="M142.7,20.4c-1.3,2.3-2.7,4.6-4.2,6.7c-1.5,2.2-3,4.3-4.6,6.4
		c-1.4,1.7-2.7,3.4-4.2,5c-1.2,1.3-2.4,2.7-3.7,3.9c-0.3,0.3-0.6,0.5-0.9,0.6c-0.7,0.2-1.4,0.1-2-0.4c-0.9-0.8-1.8-1.5-2.7-2.3
		c-1.6-1.5-3.2-3.1-4.6-4.8c-1.7-2-3.3-4.1-4.7-6.4c-1.7-2.7-3.3-5.6-4.6-8.6h36.2V20.4z"/>
	<g>
		<path style="fill:#F4DE40;" d="M146.5,20.6c-1.1,1.9-2.2,3.8-3.4,5.7c-1.5,2.3-3,4.6-4.6,6.8c-1.5,2-3,4-4.6,5.8
			c-1.4,1.6-2.7,3.1-4.2,4.6c-0.4,0.4-0.9,0.9-1.3,1.3c-0.9,0.9-2.1,1.5-3.3,1.6c-0.2,0-0.4,0-0.6,0c-1.2,0-2.5-0.4-3.5-1.3
			c-0.2-0.1-0.3-0.3-0.5-0.4c-1.6-1.4-3.2-2.8-4.6-4.3c-1.7-1.7-3.2-3.5-4.7-5.5c-1.7-2.2-3.2-4.6-4.6-7.1c-1.3-2.4-2.5-4.9-3.6-7.5
			h3.7c1.3,3,2.8,5.9,4.6,8.6c1.4,2.2,3,4.4,4.7,6.4c1.4,1.7,3,3.3,4.6,4.8c0.9,0.8,1.8,1.6,2.7,2.3c0.6,0.5,1.3,0.6,2,0.4
			c0.3-0.1,0.7-0.3,0.9-0.6c1.3-1.3,2.5-2.6,3.7-3.9c1.4-1.6,2.8-3.3,4.2-5c1.6-2.1,3.2-4.2,4.6-6.4c1.5-2.2,2.9-4.4,4.2-6.7h2.3
			c0.4,0,0.8,0,1.3,0V20.6z"/>
	</g>
	<path style="opacity:0.5;fill:#FFFFFF;enable-background:new    ;" d="M101.9,20.1v81.6h-4.6V20.6c0.8-0.1,1.7-0.2,2.5-0.2h2
		L101.9,20.1z"/>
	<path style="opacity:0.5;fill:#FFFFFF;enable-background:new    ;" d="M111.2,35v66.7h-4.6V27.9C107.9,30.4,109.5,32.7,111.2,35z"
		/>
	<path style="opacity:0.5;fill:#FFFFFF;enable-background:new    ;" d="M120.5,44.8v56.9h-4.6V40.4C117.3,42,118.8,43.4,120.5,44.8z
		"/>
	<path style="opacity:0.5;fill:#FFFFFF;enable-background:new    ;" d="M129.7,43.5v58.2h-4.6V46.4c1.2-0.1,2.4-0.7,3.3-1.6
		C128.8,44.3,129.3,43.9,129.7,43.5z"/>
	<path style="opacity:0.5;fill:#FFFFFF;enable-background:new    ;" d="M138.5,33v68.7h-4.6V38.8C135.5,37,137,35,138.5,33z"/>
	<path style="opacity:0.5;fill:#FFFFFF;enable-background:new    ;" d="M147.8,20.6v81h-4.6V26.2c1.2-1.8,2.3-3.7,3.3-5.7l-0.2-0.1
		C146.8,20.5,147.3,20.5,147.8,20.6z"/>
	<path style="opacity:0.5;fill:#FFFFFF;enable-background:new    ;" d="M178.8,93l-3.7,2.8l-22.3-41l0,0l0,0
		c-0.3-3.4-0.6-7.2-0.8-11.1L178.8,93z"/>
	<path style="opacity:0.5;fill:#FFFFFF;enable-background:new    ;" d="M185.9,87.6l-3.7,2.8l-30.4-56l0,0c-0.1-3.6-0.1-7,0-9.8
		L185.9,87.6z"/>
	<path style="opacity:0.5;fill:#FFFFFF;enable-background:new    ;" d="M92.3,53.7L74,95.6l-4-2.3l22.2-50.7
		C92.3,46.4,92.3,50.3,92.3,53.7z"/>
	<path style="opacity:0.5;fill:#FFFFFF;enable-background:new    ;" d="M91.6,33.2L91.6,33.2L66.3,91.1l-4-2.3l28.6-65.4
		C91.1,26.2,91.4,29.6,91.6,33.2z"/>
</g>
</svg>
