<?xml version="1.0" encoding="utf-8"?>
<!-- Generator: Adobe Illustrator 22.1.0, SVG Export Plug-In . SVG Version: 6.00 Build 0)  -->
<svg version="1.1" id="Layer_1" xmlns="http://www.w3.org/2000/svg" xmlns:xlink="http://www.w3.org/1999/xlink" x="0px" y="0px"
	 viewBox="0 0 256 256" style="enable-background:new 0 0 256 256;" xml:space="preserve">
<g>
	<path style="fill:#993C29;" d="M142.2,241.4c1.5-49.6-10.6-179.7-10.6-179.7C122.7,91.1,120,241.4,120,241.4H86.4l1.9-186.1
		l2.3-31.2h80.9l2.8,30.3l1.4,187H142.2z"/>
	<rect x="90.9" y="14.6" style="fill:#993C29;" width="80.6" height="9.6"/>
</g>
<g style="opacity:0;">
	<g style="opacity:0.2;">
		<path d="M166.3,44.2c-16.3-2.1-18.9-16.7-19-16.9l3.9-0.7l-2,0.3l2-0.3c0.1,0.5,2.3,11.9,15.5,13.6L166.3,44.2z"/>
	</g>
	<g style="opacity:0.2;">
		<path d="M96.1,44.2l-0.5-4c13.3-1.7,15.5-13.1,15.5-13.6l3.9,0.7C115,27.4,112.4,42,96.1,44.2z"/>
	</g>
	<path style="opacity:0.2;enable-background:new    ;" d="M156.1,14.6v9.6h15.4v-9.6H156.1z M90.9,24.2h39.2v35.5
		c0,0.8,0.7,1.5,1.5,1.5s1.5-0.7,1.5-1.5V24.2h21v-9.6H90.9V24.2z M131.2,19.4c1.1,0,2,0.8,2,1.8s-0.9,1.8-2,1.8s-2-0.8-2-1.8
		C129.2,20.2,130.1,19.4,131.2,19.4z"/>
</g>
</svg>
