<?xml version="1.0" encoding="utf-8"?>
<!-- Generator: Adobe Illustrator 22.1.0, SVG Export Plug-In . SVG Version: 6.00 Build 0)  -->
<svg version="1.1" id="Layer_1" xmlns="http://www.w3.org/2000/svg" xmlns:xlink="http://www.w3.org/1999/xlink" x="0px" y="0px"
	 viewBox="0 0 256 256" style="enable-background:new 0 0 256 256;" xml:space="preserve">
<g style="opacity:0;">
	<polygon style="fill:#46F9D7;" points="112,13.6 108.9,40.7 87.3,18.9 	"/>
	<polygon style="fill:#46F9D7;" points="87.3,18.9 77.7,47.6 64.3,24 	"/>
	<polygon style="fill:#46F9D7;" points="96.2,89.4 51,53.3 77.7,47.6 	"/>
	<polygon style="fill:#46F9D7;" points="134.8,34.9 112.5,85.7 108.9,40.7 	"/>
	<polygon style="fill:#46F9D7;" points="112.5,85.7 96.2,89.4 77.7,47.6 108.9,40.7 	"/>
	<polygon style="fill:#46F9D7;" points="134.8,34.9 108.9,40.7 112,13.6 	"/>
	<polygon style="fill:#46F9D7;" points="77.7,47.6 51,53.3 64.3,24 	"/>
	<polygon style="fill:#46F9D7;" points="108.9,40.7 77.7,47.6 87.3,18.9 	"/>
</g>
<g>
	<g>
		<path style="fill:#FFCC29;" d="M207.3,151.3c-0.3-2-0.7-4-1.1-6.1c-0.8-3.5-1.8-7-3-10.4c-6-16.4-17.1-30.2-32-39.9
			c-18.1-11.4-39.6-15.2-60.4-10.6c-20.9,4.5-38.8,17.1-50.3,35c-11.5,18.1-15.3,39.4-10.7,60.3c8.2,37.3,41.4,62.8,78.1,62.8
			c5.7,0,11.4-0.6,17.2-1.9c1.8-0.4,3.4-0.8,5.2-1.3c5.5-1.6,10.7-3.8,15.6-6.4C194.9,217.4,212,184.9,207.3,151.3z M158.3,215.7
			c-4.8,2.8-10,4.9-15.5,6.2c-0.6,0.1-1,0.2-1.6,0.3c-4.4,1-8.9,1.4-13.2,1.4c-28.1,0-53.5-19.5-59.7-48.1
			c-7.2-32.9,13.6-65.7,46.6-72.9c4.4-1,8.9-1.4,13.2-1.4c24.6,0,47.1,15,56.5,37.8c1.3,3.3,2.4,6.6,3.2,10.3c0.4,2,0.8,4,1,6
			C191.7,180,179.3,203.7,158.3,215.7z"/>
	</g>
	<polygon style="opacity:0.1;enable-background:new    ;" points="112,13.6 108.9,40.7 87.3,18.9 	"/>
	<polygon style="opacity:0.1;enable-background:new    ;" points="87.3,18.9 77.7,47.6 64.3,24 	"/>
	<polygon style="opacity:0.1;enable-background:new    ;" points="96.2,89.4 51,53.3 77.7,47.6 	"/>
	<polygon style="opacity:0.1;enable-background:new    ;" points="134.8,34.9 112.5,85.7 108.9,40.7 	"/>
	<polygon style="opacity:5.000000e-02;enable-background:new    ;" points="108.9,40.7 77.7,47.6 87.3,18.9 	"/>
</g>
</svg>
