<?xml version="1.0" encoding="utf-8"?>
<!-- Generator: Adobe Illustrator 22.1.0, SVG Export Plug-In . SVG Version: 6.00 Build 0)  -->
<svg version="1.1" id="Layer_1" xmlns="http://www.w3.org/2000/svg" xmlns:xlink="http://www.w3.org/1999/xlink" x="0px" y="0px"
	 viewBox="0 0 256 256" style="enable-background:new 0 0 256 256;" xml:space="preserve">
<g style="opacity:0;">
	<path style="fill:#FFFFFF;" d="M231.5,123.3c0,8.7-4.1,16.5-10.5,21.4c-13-22.1-38.2-26.9-42.8-27.6c2.8-11.9,13.5-20.8,26.3-20.8
		C219.4,96.3,231.5,108.4,231.5,123.3z"/>
	<polygon style="fill:#FFFFFF;" points="80.3,11.2 77.5,35.7 58,16 	"/>
	<polygon style="fill:#FFFFFF;" points="58,16 49.3,41.9 37.2,20.6 	"/>
	<polygon style="fill:#FFFFFF;" points="66,79.6 25.2,47 49.3,41.9 	"/>
	<polygon style="fill:#FFFFFF;" points="100.8,30.4 80.7,76.3 77.5,35.7 	"/>
	<polygon style="fill:#FFFFFF;" points="80.7,76.3 66,79.6 49.3,41.9 77.5,35.7 	"/>
	<polygon style="fill:#FFFFFF;" points="100.8,30.4 77.5,35.7 80.3,11.2 	"/>
	<polygon style="fill:#FFFFFF;" points="49.3,41.9 25.2,47 37.2,20.6 	"/>
	<polygon style="fill:#FFFFFF;" points="77.5,35.7 49.3,41.9 58,16 	"/>
</g>
<g>
	<path style="fill:#F4B925;" d="M180.9,242.9c-4.5,1-8.9,1.5-13.3,1.5c-21.5,0-41.5-11.3-52.6-29.4c5-1.4,9.7-3.4,14.1-5.8
		c3.5,5,8,9.4,13.3,12.8c10.6,6.8,23.1,9,35.4,6.3c25.3-5.6,41.3-30.6,35.7-55.9c-1.6-7.3-4.8-13.8-9.2-19.3l14.7-5.4
		c4.3,6.3,7.5,13.5,9.2,21.5C235.4,202.5,214.2,235.6,180.9,242.9z"/>
	<path style="fill:#F4B925;" d="M177.5,121.3v15.3c-3.2-0.7-6.5-1.1-9.9-1.1c-0.4,0-0.9,0-1.3,0c-0.3-1.8-0.6-3.6-1-5.5
		c-0.7-3.2-1.6-6.3-2.7-9.4C167.6,120.3,172.6,120.5,177.5,121.3z"/>
	<path style="fill:#F4B925;" d="M149.6,139.1c-8.8,3.6-16.3,9.9-21.5,18.1c-6.8,10.6-9,23.1-6.3,35.3c0.1,0.4,0.2,0.8,0.3,1.1
		c-4.3,2.5-9,4.4-14,5.6c-0.3-1.1-0.6-2.3-0.9-3.5c-6.7-30.4,10.3-60.6,38.7-71.2c1.2,3,2.2,6,2.9,9.3
		C149,135.5,149.4,137.3,149.6,139.1z"/>
	<path style="fill:#FFCC29;" d="M222,146.5l-3.2,1.2l-14.7,5.4c-0.8-1-1.7-2-2.5-2.9c-0.2-0.2-0.3-0.4-0.5-0.5
		c-0.2-0.3-0.5-0.5-0.8-0.8c-0.2-0.2-0.4-0.4-0.7-0.6c-0.2-0.2-0.3-0.3-0.5-0.4c-0.3-0.3-0.6-0.5-0.8-0.8c-0.4-0.3-0.8-0.7-1.2-1
		c-0.4-0.3-0.8-0.7-1.2-1c-0.3-0.2-0.6-0.5-0.9-0.7c-0.2-0.2-0.4-0.3-0.6-0.4c-0.3-0.2-0.5-0.4-0.8-0.6c-0.7-0.5-1.4-0.9-2.1-1.3
		c-0.3-0.2-0.5-0.3-0.8-0.5c-0.4-0.2-0.7-0.4-1.1-0.6s-0.8-0.4-1.1-0.6c-0.3-0.2-0.7-0.3-1-0.5c0,0-0.1,0-0.1-0.1
		c-0.3-0.1-0.6-0.3-0.9-0.4c-1.6-0.7-3.2-1.3-4.8-1.8c-1-0.3-2-0.6-3.1-0.9c-0.3-0.1-0.7-0.2-1-0.2V117c0,0,0.3,0,0.7,0.1
		c4.6,0.7,29.7,5.5,42.8,27.6C221.3,145.3,221.7,145.9,222,146.5z"/>
	<g>
		<path style="fill:#FFCC29;" d="M166.3,135.5c-0.3-1.8-0.6-3.6-1-5.5c-0.7-3.2-1.6-6.3-2.7-9.4c-5.4-14.8-15.4-27.3-28.9-36
			C117.4,74.3,98,70.9,79.2,75c-18.9,4.1-35,15.4-45.4,31.6c-10.4,16.3-13.8,35.6-9.7,54.4c7.4,33.7,37.4,56.7,70.5,56.7
			c5.1,0,10.3-0.5,15.5-1.7c1.6-0.4,3.1-0.7,4.7-1.2c5-1.4,9.7-3.4,14.1-5.8C155.1,195.1,170.5,165.8,166.3,135.5z M122,193.6
			c-4.3,2.5-9,4.4-14,5.6c-0.5,0.1-0.9,0.2-1.4,0.3c-4,0.9-8,1.3-11.9,1.3c-25.4,0-48.3-17.6-53.9-43.4
			c-6.5-29.7,12.3-59.3,42.1-65.8c4-0.9,8-1.3,11.9-1.3c22.2,0,42.5,13.5,51,34.1c1.2,3,2.2,6,2.9,9.3c0.4,1.8,0.7,3.6,0.9,5.4
			C152.2,161.4,141,182.8,122,193.6z"/>
	</g>
	<g style="opacity:0.5;">
		<path style="fill:#FFFFFF;" d="M223.8,134.5c-0.1,0-0.2,0-0.3,0c-1.1-0.1-1.9-1.1-1.7-2.2c1.6-13-3.2-20.9-3.2-20.9
			c-0.6-0.9-0.3-2.2,0.6-2.8c0.9-0.6,2.2-0.3,2.8,0.6c0.2,0.4,5.6,9,3.8,23.6C225.6,133.8,224.7,134.5,223.8,134.5z"/>
	</g>
	<polygon style="opacity:0.1;" points="80.3,11.2 77.5,35.7 58,16 	"/>
	<polygon style="opacity:0.1;" points="58,16 49.3,41.9 37.2,20.6 	"/>
	<polygon style="opacity:0.1;" points="66,79.6 25.2,47 49.3,41.9 	"/>
	<polygon style="opacity:0.1;" points="100.8,30.4 80.7,76.3 77.5,35.7 	"/>
	<polygon style="opacity:5.000000e-02;" points="77.5,35.7 49.3,41.9 58,16 	"/>
</g>
</svg>
