<?xml version="1.0" encoding="utf-8"?>
<!-- Generator: Adobe Illustrator 22.1.0, SVG Export Plug-In . SVG Version: 6.00 Build 0)  -->
<svg version="1.1" id="Layer_1" xmlns="http://www.w3.org/2000/svg" xmlns:xlink="http://www.w3.org/1999/xlink" x="0px" y="0px"
	 viewBox="0 0 256 256" style="enable-background:new 0 0 256 256;" xml:space="preserve">
<g>
	<path style="fill:#4B75C9;" d="M54.8,107.7L6.5,98l28-63.4C36.2,38.7,49.3,72.5,54.8,107.7z"/>
	<path style="fill:#4B75C9;" d="M249.5,98l-48.3,9.8l0,0c5.5-35.2,18.7-69,20.3-73.2L249.5,98z"/>
	<path style="fill:#4B75C9;" d="M221.7,34.1c0,0-0.1,0.2-0.2,0.4c-1.7,4.2-14.8,38-20.3,73.2l0,0c-0.6,3.8-1.1,7.7-1.5,11.5
		l-2.8,119.9H59.2l-2.8-119.9c-0.4-3.8-0.9-7.7-1.5-11.5c-5.5-35.2-18.7-69-20.3-73.2c-0.1-0.3-0.2-0.4-0.2-0.4L89,16.8l0,0
		c0,14,17.5,25.3,39,25.3s39-11.3,39-25.3L221.7,34.1z"/>
</g>
<g style="opacity:0;">
	<path style="opacity:0.1;enable-background:new    ;" d="M54.8,107.7L6.5,98l28-63.4C36.2,38.7,49.3,72.5,54.8,107.7z"/>
	<path style="opacity:0.1;enable-background:new    ;" d="M249.5,98l-48.3,9.8l0,0c5.5-35.2,18.7-69,20.3-73.2L249.5,98z"/>
</g>
</svg>
