<?xml version="1.0" encoding="utf-8"?>
<!-- Generator: Adobe Illustrator 22.1.0, SVG Export Plug-In . SVG Version: 6.00 Build 0)  -->
<svg version="1.1" id="Layer_1" xmlns="http://www.w3.org/2000/svg" xmlns:xlink="http://www.w3.org/1999/xlink" x="0px" y="0px"
	 viewBox="0 0 256 256" style="enable-background:new 0 0 256 256;" xml:space="preserve">
<g>
	<path style="fill:#EA2D2D;" d="M238.4,162.7l-220.5-5.2h-0.2c-1.5-34,3-54,3-54l-1.3-11.6l-0.8-6.8l-1-8.6L117.2,53l5.8,35.5
		l0.3,1.5l5.4,4.1l5.8,4.4l6.4,4.8l0,0l6.2,4.7l6.4,4.8l7.5,5.7l6.4,4.8l2.9,2.2c0,0,3.5,0.9,8.8,2.3c9.4,2.5,24.6,6.6,36.7,10.8
		c3.9,1.3,7.5,2.7,10.5,4C239,148,239.2,157.9,238.4,162.7z"/>
</g>
<g style="opacity:0;">
	<path style="opacity:0.4;fill:#FFFFFF;enable-background:new    ;" d="M215.7,138.5l-4.9,10.5l-34.5-10.4l2.7-11
		C188.4,130.2,203.6,134.4,215.7,138.5z"/>
	<polygon style="opacity:0.4;fill:#FFFFFF;enable-background:new    ;" points="113.4,134.1 113.4,159.8 90.2,159.2 88.2,137.8 
		69.5,89.5 19.4,91.9 18.6,85.1 75.5,81 	"/>
	<g>
		<g>
			<polygon style="fill:#FFFFFF;" points="128.6,94.1 116.5,108.6 110.3,103.4 122.9,88.5 123.2,90 			"/>
		</g>
		<g>
			<polygon style="fill:#FFFFFF;" points="140.8,103.3 128.8,117.6 122.6,112.5 134.4,98.5 			"/>
		</g>
		<g>
			<polygon style="fill:#FFFFFF;" points="153.4,112.8 141.3,127.3 135.1,122.1 147,108 			"/>
		</g>
		<g>
			<polygon style="fill:#FFFFFF;" points="167.3,123.3 156,136.7 149.9,131.5 160.9,118.5 			"/>
		</g>
	</g>
	<polygon style="fill:#EFECDF;" points="238.7,189.5 17.3,189.5 17.5,170.9 17.6,163.4 17.7,157.5 17.9,157.5 90.2,159.2 
		113.4,159.8 238.4,162.7 238.4,168.6 238.5,176.1 	"/>
	<polygon style="fill:#605E57;" points="238.5,176.1 17.5,170.9 17.6,163.4 238.4,168.6 	"/>
</g>
</svg>
