<?xml version="1.0" encoding="utf-8"?>
<!-- Generator: Adobe Illustrator 22.1.0, SVG Export Plug-In . SVG Version: 6.00 Build 0)  -->
<svg version="1.1" id="Layer_1" xmlns="http://www.w3.org/2000/svg" xmlns:xlink="http://www.w3.org/1999/xlink" x="0px" y="0px"
	 viewBox="0 0 256 256" style="enable-background:new 0 0 256 256;" xml:space="preserve">
<g style="opacity:0;">
	<path style="fill:#5CCBE5;" d="M240,196.7c-46.5,15.7-95.7,3.4-95.7,3.4L128,157.5l-12.3,42.6c-5.6,1.7-11.9,2.9-18.5,3.5l0,0
		c-14.6,1.4-30.7,0.5-44.8-1c-1.5-0.2-2.9-0.3-4.3-0.5c-18.3-2.2-32.1-5.4-32.1-5.4s1.1-86.5,3.9-105s15.9-55.2,15.9-55.2h181.4
		c0,0,12.1,30.5,17.7,55.2C240.5,116.4,240,196.7,240,196.7z"/>
	<path style="fill:#5CCBE5;" d="M217.2,36.6h-16.1c1.4,6.2,3.7,18.2,2.9,24.2c-0.2,1.3-1.2,2.1-2.5,2.1c-0.1,0-0.2,0-0.3,0
		c-1.4-0.2-2.3-1.5-2.1-2.8c0.7-5.2-1.5-16.9-3-23.5h-17.6c0.6,2.8,1.1,6.6,0.9,10.4c-0.1,1.3-1.2,2.4-2.5,2.4h-0.1
		c-1.4-0.1-2.4-1.3-2.4-2.6c0.2-3.7-0.5-7.6-1.1-10.1H157c0.9,5.5,1.9,15.8-0.8,24.6c-0.3,1.1-1.3,1.8-2.4,1.8c-0.3,0-0.5,0-0.8-0.1
		c-1.3-0.4-2-1.8-1.6-3.1c2.6-8.2,1.3-18.3,0.5-23.1H126v56.7c0,1.4-1.1,2.5-2.5,2.5s-2.5-1.1-2.5-2.5V36.6H94.4
		c-0.8,4.8-2,14.9,0.5,23.1c0.4,1.3-0.3,2.7-1.6,3.1C93,62.9,92.8,63,92.5,63c-1.1,0-2.1-0.7-2.4-1.8c-2.8-8.8-1.7-19.1-0.8-24.6H73
		c-0.6,2.5-1.3,6.4-1.1,10.1c0.1,1.4-1,2.6-2.4,2.6h-0.1c-1.3,0-2.4-1-2.5-2.4c-0.2-3.7,0.3-7.6,0.9-10.4H50.3
		c-1.5,6.6-3.8,18.3-3,23.5c0.2,1.4-0.8,2.6-2.1,2.8c-0.1,0-0.2,0-0.4,0c-1.2,0-2.3-0.9-2.5-2.1c-0.9-6,1.5-18,2.8-24.2h-9.3V25.4
		h181.4V36.6z"/>
</g>
<g>
	<path style="opacity:0.1;enable-background:new    ;" d="M217.2,36.6h-16.1c1.4,6.2,3.7,18.2,2.9,24.2c-0.2,1.3-1.2,2.1-2.5,2.1
		c-0.1,0-0.2,0-0.3,0c-1.4-0.2-2.3-1.5-2.1-2.8c0.7-5.2-1.5-16.9-3-23.5h-17.6c0.6,2.8,1.1,6.6,0.9,10.4c-0.1,1.3-1.2,2.4-2.5,2.4
		h-0.1c-1.4-0.1-2.4-1.3-2.4-2.6c0.2-3.7-0.5-7.6-1.1-10.1H157c0.9,5.5,1.9,15.8-0.8,24.6c-0.3,1.1-1.3,1.8-2.4,1.8
		c-0.3,0-0.5,0-0.8-0.1c-1.3-0.4-2-1.8-1.6-3.1c2.6-8.2,1.3-18.3,0.5-23.1H126v56.7c0,1.4-1.1,2.5-2.5,2.5s-2.5-1.1-2.5-2.5V36.6
		H94.4c-0.8,4.8-2,14.9,0.5,23.1c0.4,1.3-0.3,2.7-1.6,3.1C93,62.9,92.8,63,92.5,63c-1.1,0-2.1-0.7-2.4-1.8
		c-2.8-8.8-1.7-19.1-0.8-24.6H73c-0.6,2.5-1.3,6.4-1.1,10.1c0.1,1.4-1,2.6-2.4,2.6h-0.1c-1.3,0-2.4-1-2.5-2.4
		c-0.2-3.7,0.3-7.6,0.9-10.4H50.3c-1.5,6.6-3.8,18.3-3,23.5c0.2,1.4-0.8,2.6-2.1,2.8c-0.1,0-0.2,0-0.4,0c-1.2,0-2.3-0.9-2.5-2.1
		c-0.9-6,1.5-18,2.8-24.2h-9.3V25.4h181.4V36.6z"/>
</g>
</svg>
