<?xml version="1.0" encoding="utf-8"?>
<!-- Generator: Adobe Illustrator 22.1.0, SVG Export Plug-In . SVG Version: 6.00 Build 0)  -->
<svg version="1.1" id="Layer_1" xmlns="http://www.w3.org/2000/svg" xmlns:xlink="http://www.w3.org/1999/xlink" x="0px" y="0px"
	 viewBox="0 0 256 256" style="enable-background:new 0 0 256 256;" xml:space="preserve">
<g style="opacity:0;">
	<path style="fill:#F94646;" d="M73.1,88.2l-42.8,83.2c-0.4,0.8-0.8,1.7-1,2.5c-3-2.1-5.7-4-8-5.8c1.1-0.9,2.1-1.9,2.9-3.2
		L73.1,88.2z"/>
	<path style="fill:#F94646;" d="M84.9,124.3l-17,67.5c-0.2,0.8-0.3,1.7-0.4,2.5c-5.6-2.2-10.9-4.7-15.8-7.1c1-1,1.9-2.1,2.6-3.5
		L84.9,124.3z"/>
	<path style="fill:#F94646;" d="M113.5,206c-5.9-0.6-11.6-1.6-17.1-2.8c0.7-1.2,1.2-2.5,1.5-3.8l14.1-56l0.2,56.3
		C112.3,202,112.7,204.1,113.5,206z"/>
	<path style="fill:#F94646;" d="M143.8,206.5c1-2.1,1.5-4.4,1.5-6.9l-0.2-56.8l14,55.6c0.5,2.1,1.5,4,2.7,5.6
		C156,205.1,150,206,143.8,206.5z"/>
	<path style="fill:#F94646;" d="M189.5,195.7c0.1-1.6,0-3.3-0.4-5l-17-67.5l30.5,59.4c1.1,2.1,2.6,3.8,4.4,5
		C201.7,190.5,195.8,193.3,189.5,195.7z"/>
	<path style="fill:#F94646;" d="M237.2,168.1c-2.6,2.1-5.6,4.4-9.1,6.8c-0.2-1.5-0.6-3.1-1.4-4.6L183.9,87l48.9,76.8
		C233.9,165.7,235.5,167.1,237.2,168.1z"/>
	<path style="fill:#F94646;" d="M247.5,159c0,0-3.6,3.7-10.3,9.1c-1.8-1-3.3-2.4-4.5-4.2l-48.9-76.8l42.8,83.3
		c0.8,1.5,1.2,3,1.4,4.6c-5.8,4.1-12.9,8.5-21,12.8c-1.8-1.2-3.4-2.9-4.4-5l-30.5-59.4l17,67.5c0.4,1.7,0.6,3.3,0.4,5
		c-8.5,3.3-17.8,6.2-27.8,8.2c-1.2-1.6-2.2-3.5-2.7-5.6l-14-55.6l0.2,56.8c0,2.5-0.5,4.8-1.5,6.9c-4.8,0.4-9.7,0.6-14.8,0.5
		c-5.3-0.1-10.5-0.4-15.5-1c-0.8-1.9-1.3-4-1.3-6.3l-0.2-56.3l-14.1,56c-0.3,1.4-0.9,2.7-1.5,3.8c-10.4-2.2-20.1-5.3-28.9-8.8
		c0.1-0.8,0.2-1.7,0.4-2.5l17-67.5l-30.6,59.4c-0.7,1.3-1.6,2.5-2.6,3.5c-8.8-4.4-16.3-9.1-22.4-13.3c0.2-0.9,0.6-1.7,1-2.5L73,88.4
		L24.3,165c-0.8,1.3-1.8,2.3-2.9,3.2c-7.1-5.4-10.8-9.1-10.8-9.1L72.8,42.7h111.3L247.5,159z"/>
	<g>
		<g>
			<path style="fill:#F94646;" d="M250,167.7c-2.1,1.3-4.4,2-6.7,2c-2.1,0-4.2-0.5-6.1-1.6c-1.8-1-3.3-2.4-4.5-4.2l-48.9-76.8
				l42.8,83.3c0.8,1.5,1.2,3,1.4,4.6c0.6,5.4-2.1,11-7.2,13.6c-2,1-4.1,1.5-6.2,1.5c-2.7,0-5.3-0.8-7.6-2.3c-1.8-1.2-3.4-2.9-4.4-5
				l-30.5-59.4l17,67.5c0.4,1.7,0.6,3.3,0.4,5c-0.5,6.5-5,12.2-11.7,13.8c-1.3,0.3-2.5,0.5-3.8,0.5c-4.9,0-9.4-2.3-12.3-6.1
				c-1.2-1.6-2.2-3.5-2.7-5.6l-14-55.6l0.2,56.8c0,2.5-0.5,4.8-1.5,6.9c-2.6,5.7-8.3,9.7-15,9.7l0,0c-6.9,0-12.8-4.2-15.2-10.2
				c-0.8-1.9-1.3-4-1.3-6.3l-0.2-56.3l-14.1,56c-0.3,1.4-0.9,2.7-1.5,3.8c-2.7,4.9-7.9,7.9-13.5,7.9c-1.3,0-2.5-0.2-3.8-0.5
				c-7.5-1.9-12.3-8.8-11.7-16.3c0.1-0.8,0.2-1.7,0.4-2.5l17-67.5l-30.6,59.4c-0.7,1.3-1.6,2.5-2.6,3.5c-2.5,2.5-5.9,3.9-9.4,3.9
				c-2.1,0-4.2-0.5-6.2-1.5c-5.8-3-8.5-9.6-6.8-15.6c0.2-0.9,0.6-1.7,1-2.5L73,88.4L24.3,165c-0.8,1.3-1.8,2.3-2.9,3.2
				c-2.2,1.7-4.9,2.6-7.6,2.6c-2.3,0-4.6-0.6-6.7-2c-5.8-3.7-7.5-11.4-3.8-17.3L72.8,42.1v0.6h111.3V41l69.7,109.5
				C257.5,156.3,255.8,164,250,167.7z"/>
		</g>
	</g>
	<rect x="72.8" y="28.7" style="fill:#F94646;" width="111.3" height="14"/>
</g>
<g>
	<path style="opacity:0.1;enable-background:new    ;" d="M73.1,88.2l-42.8,83.2c-0.4,0.8-0.8,1.7-1,2.5c-3-2.1-5.7-4-8-5.8
		c1.1-0.9,2.1-1.9,2.9-3.2L73.1,88.2z"/>
	<path style="opacity:0.1;enable-background:new    ;" d="M84.9,124.3l-17,67.5c-0.2,0.8-0.3,1.7-0.4,2.5
		c-5.6-2.2-10.9-4.7-15.8-7.1c1-1,1.9-2.1,2.6-3.5L84.9,124.3z"/>
	<path style="opacity:0.1;enable-background:new    ;" d="M113.5,206c-5.9-0.6-11.6-1.6-17.1-2.8c0.7-1.2,1.2-2.5,1.5-3.8l14.1-56
		l0.2,56.3C112.3,202,112.7,204.1,113.5,206z"/>
	<path style="opacity:0.1;enable-background:new    ;" d="M143.8,206.5c1-2.1,1.5-4.4,1.5-6.9l-0.2-56.8l14,55.6
		c0.5,2.1,1.5,4,2.7,5.6C156,205.1,150,206,143.8,206.5z"/>
	<path style="opacity:0.1;enable-background:new    ;" d="M189.5,195.7c0.1-1.6,0-3.3-0.4-5l-17-67.5l30.5,59.4
		c1.1,2.1,2.6,3.8,4.4,5C201.7,190.5,195.8,193.3,189.5,195.7z"/>
	<path style="opacity:0.1;enable-background:new    ;" d="M237.2,168.1c-2.6,2.1-5.6,4.4-9.1,6.8c-0.2-1.5-0.6-3.1-1.4-4.6L183.9,87
		l48.9,76.8C233.9,165.7,235.5,167.1,237.2,168.1z"/>
	<rect x="72.8" y="28.7" style="opacity:0.1;enable-background:new    ;" width="111.3" height="14"/>
</g>
</svg>
