<?xml version="1.0" encoding="utf-8"?>
<!-- Generator: Adobe Illustrator 22.1.0, SVG Export Plug-In . SVG Version: 6.00 Build 0)  -->
<svg version="1.1" id="Layer_1" xmlns="http://www.w3.org/2000/svg" xmlns:xlink="http://www.w3.org/1999/xlink" x="0px" y="0px"
	 viewBox="0 0 256 256" style="enable-background:new 0 0 256 256;" xml:space="preserve">
<g style="opacity:0;">
	<path style="fill:#66EDED;" d="M225.4,138.6c0,7.3,3.7,13.7,9.3,17.4l-87.3,62.1l-3.6,3.2c-6.5,5.8-14.5,8.9-22.6,9.4
		c4.5-7.5,7.1-16.4,7.1-25.9c0-10.7-3.3-20.5-8.9-28.6l36.9-26.3l0.8-0.7c8-7.1,12.6-17.3,12.6-28.1l-6-58.5V37.4h75.2l8.2,80.3
		c-0.2,0-0.5,0-0.7,0C234.8,117.7,225.4,127,225.4,138.6z"/>
	<path style="fill:#66EDED;" d="M169.7,121.4c0,10.8-4.6,21-12.6,28.1l-0.8,0.7l-36.9,26.3l-37,26.3L69,212.3l-3.6,3.2
		c-6.5,5.8-14.5,8.9-22.6,9.4c-0.8,0.1-1.6,0.1-2.3,0.1c-10.4,0-20.7-4.3-28.1-12.6c-12.5-14.1-12.5-35-0.8-49
		c1.2-1.4,2.5-2.8,4-4.1l5.9-5.2l58.1-51.6c3.8-3.4,6-8.2,6-13.3V31.5h75.2l3.2,31.3L169.7,121.4z"/>
	<path style="fill:#66EDED;" d="M248.1,127.3c0,10.8-4.6,21-12.6,28.1l-0.8,0.7l-87.3,62.1l-3.6,3.2c-6.5,5.8-14.5,8.9-22.6,9.4
		c-0.8,0-1.5,0.1-2.3,0.1c-10.4,0-20.7-4.3-28.1-12.6c-12.5-14.1-12.5-35-0.8-49c1.2-1.4,2.5-2.8,3.9-4.1l5.9-5.2
		c7.9,3.5,14.7,9.2,19.7,16.4l36.9-26.3l0.8-0.7c8-7.1,12.6-17.3,12.6-28.1l-6-58.5V37.4H239l8.2,80.3L248.1,127.3z"/>
</g>
<g>
	<rect x="166.9" y="31" style="fill:#F4C94E;" width="67.9" height="6.4"/>
	<path style="fill:#F4C94E;" d="M248.1,117.7v9.6c0,10.8-4.6,21-12.6,28.1l-0.8,0.7c-5.6-3.8-9.3-10.2-9.3-17.4c0-11.6,9.4-21,21-21
		c0.3,0,0.5,0,0.7,0C247.4,117.7,247.8,117.7,248.1,117.7z"/>
	<path style="fill:#F9DE58;" d="M128.3,205c0,9.5-2.6,18.4-7.1,25.9c-0.8,0-1.5,0.1-2.3,0.1c-10.4,0-20.7-4.3-28.1-12.6
		c-4.1-4.6-6.9-10-8.3-15.5l37-26.3C125,184.4,128.3,194.3,128.3,205z"/>
	<rect x="88.5" y="25.1" style="fill:#F9DE58;" width="67.8" height="6.4"/>
	<path style="fill:#F9DE58;" d="M169.7,111.8v9.6c0,10.7-4.6,21-12.6,28.1l-0.8,0.7c-5.6-3.8-9.3-10.2-9.3-17.4c0-11.6,9.4-21,21-21
		C168.6,111.8,169.1,111.8,169.7,111.8z"/>
	<path style="fill:#F9DE58;" d="M49.9,199.1c0,9.5-2.6,18.4-7.1,25.9c-0.8,0.1-1.6,0.1-2.3,0.1c-10.4,0-20.7-4.3-28.1-12.6
		c-12.5-14.1-12.5-35-0.8-49c1.2-1.4,2.5-2.8,3.9-4.1l5.9-5.2C38.1,161.5,49.9,178.9,49.9,199.1z"/>
	<path style="opacity:0.1;enable-background:new    ;" d="M225.4,138.6c0,7.3,3.7,13.7,9.3,17.4l-87.3,62.1l-3.6,3.2
		c-6.5,5.8-14.5,8.9-22.6,9.4c4.5-7.5,7.1-16.4,7.1-25.9c0-10.7-3.3-20.5-8.9-28.6l36.9-26.3l0.8-0.7c8-7.1,12.6-17.3,12.6-28.1
		l-6-58.5V37.4h75.2l8.2,80.3c-0.2,0-0.5,0-0.7,0C234.8,117.7,225.4,127,225.4,138.6z"/>
</g>
</svg>
