<?xml version="1.0" encoding="utf-8"?>
<!-- Generator: Adobe Illustrator 22.1.0, SVG Export Plug-In . SVG Version: 6.00 Build 0)  -->
<svg version="1.1" id="Layer_1" xmlns="http://www.w3.org/2000/svg" xmlns:xlink="http://www.w3.org/1999/xlink" x="0px" y="0px"
	 viewBox="0 0 256 256" style="enable-background:new 0 0 256 256;" xml:space="preserve">
<g style="opacity:0;">
	<path style="fill:#FFA1D2;" d="M248.8,140.5l-8.3-42.7c-1.3-6.9-5.8-12.7-12.1-15.6l-47-22.1c-5.7-2.7-11.9-4.1-18.2-4.1h-8.7
		c0-4.9-11.1-8.8-24.8-8.8s-24.8,4-24.8,8.8H94.3c-6.3,0-12.5,1.4-18.2,4l-47,22.1c-6.3,3-10.8,8.8-12.1,15.6l-8.3,42.7
		c-0.6,3.1,0,6.1,1.5,8.6l-2.4,10.4l27.8,6.4l2.3-9.9c3.2-1.6,5.6-4.5,6.4-8.2l6.1-27.1c1.8-8,7.9-14.3,15.9-16.4l9.1-2.4v79.3
		c0,7,4.8,13,11.3,14.7v19h84.1v-19.4c5.8-2.1,9.9-7.7,9.9-14.3v-79.6l10.5,2.7c7.9,2.1,14.1,8.4,15.9,16.4l6.1,27.1
		c0.8,3.5,3,6.3,5.8,7.9l2.2,9.5l27.7-6.4l-2.1-9.1C248.7,147.1,249.4,143.8,248.8,140.5z"/>
	<polygon style="opacity:0.4;fill:#FFA1D2;enable-background:new    ;" points="132.8,99 128.8,98.9 132.8,98.8 	"/>
	<polygon style="opacity:0.4;fill:#FFA1D2;enable-background:new    ;" points="128.8,98.9 124.8,99 124.8,98.8 	"/>
	<path style="fill:#FFA1D2;" d="M124.8,98.8V99l4-0.1L124.8,98.8z M132.8,98.8l-4,0.1l4,0.1V98.8z M86.7,188.3v7.5
		c1.2,0.3,2.5,0.5,3.9,0.5h75c1.8,0,3.6-0.3,5.3-0.9v-7.1H86.7z M245.5,143.7l-27.7,6.4l1.3,5.5c2.4,1.4,5.4,2,8.3,1.4l11.7-2.2
		c3.3-0.6,6.1-2.5,7.9-5.1L245.5,143.7z"/>
</g>
<g>
	<g style="opacity:0.1;">
		<rect x="90.8" y="196.3" width="5" height="18.5"/>
	</g>
	<g style="opacity:0.1;">
		<rect x="100.9" y="196.3" width="5" height="18.5"/>
	</g>
	<g style="opacity:0.1;">
		<rect x="111.1" y="196.3" width="5" height="18.5"/>
	</g>
	<g style="opacity:0.1;">
		<rect x="120.8" y="196.3" width="5" height="18.5"/>
	</g>
	<g style="opacity:0.1;">
		<rect x="130.8" y="196.3" width="5" height="18.5"/>
	</g>
	<g style="opacity:0.1;">
		<rect x="141" y="196.3" width="5" height="18.5"/>
	</g>
	<g style="opacity:0.1;">
		<rect x="151.2" y="196.3" width="5" height="18.5"/>
	</g>
	<g style="opacity:0.1;">
		<rect x="161.4" y="196.3" width="5" height="18.5"/>
	</g>
	<g style="opacity:0.1;">
		<rect x="222.2" y="154.3" transform="matrix(0.9737 -0.2279 0.2279 0.9737 -30.3879 55.4017)" width="5" height="10"/>
	</g>
	<g style="opacity:0.1;">
		<rect x="232.1" y="152" transform="matrix(0.9737 -0.2278 0.2278 0.9737 -29.5948 57.5719)" width="5" height="10"/>
	</g>
	<g style="opacity:0.1;">
		<rect x="241" y="150" transform="matrix(0.9737 -0.2278 0.2278 0.9737 -28.9049 59.547)" width="5" height="10"/>
	</g>
	<g style="opacity:0.1;">
		<rect x="27.2" y="157.5" transform="matrix(0.2278 -0.9737 0.9737 0.2278 -130.9135 154.9373)" width="10" height="5"/>
	</g>
	<g style="opacity:0.1;">
		<rect x="17.3" y="155.2" transform="matrix(0.2278 -0.9737 0.9737 0.2278 -136.2679 143.4742)" width="10" height="5"/>
	</g>
	<g style="opacity:0.1;">
		<rect x="8.3" y="153.1" transform="matrix(0.2278 -0.9737 0.9737 0.2278 -141.237 133.1585)" width="10" height="5"/>
	</g>
	<path style="opacity:0.1;enable-background:new    ;" d="M147.8,58.4c0,3.5-8.1,6.4-18.1,6.4s-18.1-2.9-18.1-6.4
		c0-3.6,8.1-6.4,18.1-6.4C139.7,51.9,147.8,54.8,147.8,58.4z"/>
</g>
</svg>
