<?xml version="1.0" encoding="utf-8"?>
<!-- Generator: Adobe Illustrator 22.1.0, SVG Export Plug-In . SVG Version: 6.00 Build 0)  -->
<svg version="1.1" id="Layer_1" xmlns="http://www.w3.org/2000/svg" xmlns:xlink="http://www.w3.org/1999/xlink" x="0px" y="0px"
	 viewBox="0 0 256 256" style="enable-background:new 0 0 256 256;" xml:space="preserve">
<g style="opacity:0;">
	<polygon style="fill:#F26BB8;" points="124.8,25.2 123.9,30.9 116.7,30.9 116.6,31.2 115.5,37.7 111.8,59.4 110.7,65.9 106.9,87.7 
		105.8,94.2 102.1,115.8 101,122.3 97.2,144.1 96.1,150.5 93.4,166.2 82.3,154.8 117.1,25.2 	"/>
	<path style="fill:#F26BB8;" d="M116.7,30.9l-4.9-11.7c-1.9-4.5,1.4-9.6,6.3-9.6h13.6c4.9,0,8.3,5,6.3,9.6l-5,11.7H116.7z"/>
	<polygon style="fill:#F26BB8;" points="160.8,192.8 155.7,200.9 150.8,208.8 134.3,235 134.3,235 129.3,242.8 129.3,242.8 
		124.8,250 122,245.5 118.9,240.5 108.4,223.8 105.3,218.9 95.4,203.2 92.3,198.2 88.9,192.8 91.4,178 92.5,171.6 92.5,171.6 
		93.4,166.2 96.1,150.5 97.2,144.1 101,122.3 102.1,115.8 105.8,94.2 106.9,87.7 110.7,65.9 111.8,59.4 115.5,37.7 116.6,31.2 
		116.7,30.9 133,30.9 133.1,31.4 136.4,50.7 137.4,56.4 140.7,75.7 141.7,81.4 145,100.6 146,106.3 149.3,125.6 150.3,131.3 
		153.5,149.9 154.4,155.6 157.7,174.9 158.7,180.6 	"/>
</g>
<g>
	<polygon style="opacity:0.4;fill:#FFFFFF;enable-background:new    ;" points="133.1,31.4 115.5,37.7 116.6,31.2 117.5,30.9 
		133,30.9 	"/>
	<polygon style="opacity:0.4;fill:#FFFFFF;enable-background:new    ;" points="137.4,56.4 110.7,65.9 111.8,59.4 136.4,50.7 	"/>
	<polygon style="opacity:0.4;fill:#FFFFFF;enable-background:new    ;" points="141.7,81.4 105.8,94.2 106.9,87.7 140.7,75.7 	"/>
	<polygon style="opacity:0.4;fill:#FFFFFF;enable-background:new    ;" points="146,106.3 101,122.3 102.1,115.8 145,100.6 	"/>
	<polygon style="opacity:0.4;fill:#FFFFFF;enable-background:new    ;" points="150.3,131.3 96.1,150.5 97.2,144.1 149.3,125.6 	"/>
	<polygon style="opacity:0.4;fill:#FFFFFF;enable-background:new    ;" points="154.4,155.6 91.4,178 88.1,179.2 86.2,173.8 
		92.5,171.6 92.5,171.6 153.5,149.9 	"/>
	<polygon style="opacity:0.4;fill:#FFFFFF;enable-background:new    ;" points="161.2,179.7 158.7,180.6 95.4,203.2 92.3,198.2 
		157.7,174.9 159.3,174.3 	"/>
	<polygon style="opacity:0.4;fill:#FFFFFF;enable-background:new    ;" points="155.7,200.9 150.8,208.8 108.4,223.8 105.3,218.9 	
		"/>
	<polygon style="opacity:0.4;fill:#FFFFFF;enable-background:new    ;" points="134.3,235 129.3,242.8 129.3,242.8 122,245.5 
		118.9,240.5 	"/>
	<path style="opacity:0.3;enable-background:new    ;" d="M138,19.2l-5,11.7h-16.4l-0.7-1.6l-4.3-10.1c-1.9-4.5,1.4-9.6,6.3-9.6
		h13.6C136.5,9.7,139.9,14.7,138,19.2z"/>
	<polygon style="opacity:0.3;enable-background:new    ;" points="116.7,30.9 116.6,31.2 115.5,37.7 111.8,59.4 110.7,65.9 
		106.9,87.7 105.8,94.2 102.1,115.8 101,122.3 97.2,144.1 96.1,150.5 93.4,166.2 82.3,154.8 116,29.3 	"/>
</g>
</svg>
