<?xml version="1.0" encoding="utf-8"?>
<!-- Generator: Adobe Illustrator 22.1.0, SVG Export Plug-In . SVG Version: 6.00 Build 0)  -->
<svg version="1.1" id="Layer_1" xmlns="http://www.w3.org/2000/svg" xmlns:xlink="http://www.w3.org/1999/xlink" x="0px" y="0px"
	 viewBox="0 0 256 256" style="enable-background:new 0 0 256 256;" xml:space="preserve">
<g>
	<path style="fill:#F79A34;" d="M227,113h-47.4c0-52.8-21.5-96.1-48.9-100.8c-1.7-0.3-3.3-0.4-5-0.4c1.7,0,3.3,0,5,0.1
		C184.3,14.5,227,58.7,227,113z"/>
	<path style="fill:#F79A34;" d="M125.8,11.7c-1.7,0-3.3,0.2-5,0.4C93.3,16.9,71.9,60.2,71.9,113H24.5c0-54.2,42.7-98.5,96.3-101.1
		C122.4,11.8,124.1,11.7,125.8,11.7z"/>
	<path style="fill:#F79A34;" d="M179.6,113h-53.9V11.7C155.5,11.7,179.6,57,179.6,113z"/>
	<path style="fill:#F79A34;" d="M125.8,11.7V113H71.9C71.9,57,96,11.7,125.8,11.7z"/>
</g>
<g style="opacity:0;">
	<g>
		<path style="fill:#545454;" d="M130.8,6.6v5.2c-1.7-0.1-3.3-0.1-5-0.1s-3.3,0-5,0.1V6.6c0-2.8,2.2-5,5-5S130.8,3.9,130.8,6.6z"/>
	</g>
	<g>
		<path style="fill:#545454;" d="M130.8,113v116.5c0,0.4,0,0.7-0.1,1.1c-1.3,5.8-6.3,15.7-16.9,16.3c-0.3,0-0.6,0-0.9,0
			c-10.3,0-15.3-10.2-16.5-15.8c-0.6-2.7,1.1-5.4,3.8-5.9c2.7-0.6,5.4,1.1,5.9,3.8c0,0.1,1.9,8.2,7.1,7.9c4.9-0.3,7.1-6.4,7.6-8.1
			V113H130.8z"/>
	</g>
	<path style="opacity:0.1;enable-background:new    ;" d="M125.8,11.7c-1.7,0-3.3,0.2-5,0.4C93.3,16.9,71.9,60.2,71.9,113H24.5
		c0-54.2,42.7-98.5,96.3-101.1C122.4,11.8,124.1,11.7,125.8,11.7z"/>
	<path style="opacity:0.1;enable-background:new    ;" d="M179.6,113h-53.9V11.7C155.5,11.7,179.6,57,179.6,113z"/>
</g>
</svg>
