<?xml version="1.0" encoding="utf-8"?>
<!-- Generator: Adobe Illustrator 22.1.0, SVG Export Plug-In . SVG Version: 6.00 Build 0)  -->
<svg version="1.1" id="Layer_1" xmlns="http://www.w3.org/2000/svg" xmlns:xlink="http://www.w3.org/1999/xlink" x="0px" y="0px"
	 viewBox="0 0 256 256" style="enable-background:new 0 0 256 256;" xml:space="preserve">
<g>
	<path style="fill:#F7CF2B;" d="M145.8,234h-35.6c8.4,0,15.2-6.8,15.2-15.2V109.5L107,35h42.5l-18.9,74.5v109.3
		C130.6,227.2,137.4,234,145.8,234z"/>
	<path style="fill:#F7CF2B;" d="M211.8,106.5v114.9c0,6.8-5.3,12.3-12,12.6c-0.2,0-0.4,0-0.7,0h-53.3c-8.4,0-15.2-6.8-15.2-15.2
		V109.5L149.5,35l0.9-3.5c0.7-2.3,2.8-4,5.2-4h20.3c3,0,5.4,2.4,5.4,5.4v47c0,14.7,5,26.1,15.6,26.6H211.8z"/>
	<path style="fill:#F7CF2B;" d="M125.4,109.5v109.3c0,8.4-6.8,15.2-15.2,15.2H52.9c-0.2,0-0.4,0-0.7,0c-6.7-0.3-12-5.8-12-12.6
		V106.5H56c9,0.5,18.6-11.9,18.6-26.6v-47c0-3,2.4-5.4,5.4-5.4h20.8c2.5,0,4.6,1.6,5.3,4L107,35L125.4,109.5z"/>
</g>
<g style="opacity:0;">
	<path style="opacity:0.5;enable-background:new    ;" d="M145.8,234h-35.6c8.4,0,15.2-6.8,15.2-15.2V109.5L107,35h42.5l-18.9,74.5
		v109.3C130.6,227.2,137.4,234,145.8,234z"/>
	<path style="opacity:5.000000e-02;enable-background:new    ;" d="M211.8,106.5v114.9c0,6.8-5.3,12.3-12,12.6c-0.2,0-0.4,0-0.7,0
		h-53.3c-8.4,0-15.2-6.8-15.2-15.2V109.5L149.5,35l0.9-3.5c0.7-2.3,2.8-4,5.2-4h20.3c3,0,5.4,2.4,5.4,5.4v47
		c0,14.7,5,26.1,15.6,26.6H211.8z"/>
	<rect x="40.3" y="159" style="opacity:0.5;fill:#FFFFFF;enable-background:new    ;" width="85.2" height="8.5"/>
	<rect x="130.6" y="159" style="opacity:0.5;fill:#FFFFFF;enable-background:new    ;" width="81.2" height="8.5"/>
	<rect x="159.3" y="27.5" style="opacity:0.5;fill:#FFFFFF;enable-background:new    ;" width="8.5" height="131.5"/>
	<rect x="85.3" y="27.5" style="opacity:0.5;fill:#FFFFFF;enable-background:new    ;" width="8.5" height="131.5"/>
	<rect x="40.3" y="179.5" style="opacity:0.5;fill:#FFFFFF;enable-background:new    ;" width="85.2" height="8.5"/>
	<rect x="130.6" y="179.5" style="opacity:0.5;fill:#FFFFFF;enable-background:new    ;" width="81.2" height="8.5"/>
</g>
</svg>
