<?xml version="1.0" encoding="utf-8"?>
<!-- Generator: Adobe Illustrator 22.1.0, SVG Export Plug-In . SVG Version: 6.00 Build 0)  -->
<svg version="1.1" id="Layer_1" xmlns="http://www.w3.org/2000/svg" xmlns:xlink="http://www.w3.org/1999/xlink" x="0px" y="0px"
	 viewBox="0 0 256 256" style="enable-background:new 0 0 256 256;" xml:space="preserve">
<g style="opacity:0;">
	<path style="fill:#F467A1;" d="M183.9,122.4h-2.2c-1.4-14.6-8.6-27.6-19.3-36.6v-8.2c0-3.1-2.5-5.6-5.6-5.6h-1.5l1.2,9.4
		c-8.5-5.5-18.7-8.6-29.5-8.6s-21,3.2-29.5,8.6l1.2-9.4h-1.5c-3.1,0-5.6,2.5-5.6,5.6v8.2C79.6,95.9,72,111,72,127.8
		s7.6,31.9,19.5,42V181c0,3.1,2.5,5.6,5.6,5.6h1.6l-1.6-12.7c8.6,5.6,18.9,8.8,29.9,8.8s21.3-3.3,29.9-8.8l-1.6,12.7h1.6
		c3.1,0,5.6-2.5,5.6-5.6v-11.3c10.6-9,17.8-22,19.3-36.6h2.2c2.1,0,3.8-1.7,3.8-3.8v-3.1C187.7,124.1,186,122.4,183.9,122.4z
		 M171.8,130.7c-0.3,4.4-1.2,8.6-2.6,12.5c-0.3,0.7-0.5,1.4-0.8,2l0,0c-0.3,0.7-0.6,1.3-0.9,2c-0.6,1.3-1.3,2.6-2.1,3.8
		c-0.4,0.6-0.8,1.2-1.2,1.8l0,0c-0.6,0.9-1.2,1.7-1.8,2.5l-0.1,0.1l0,0c-0.3,0.3-0.6,0.7-0.9,1c-1,1.2-2,2.3-3.1,3.4c0,0,0,0-0.1,0
		c-0.3,0.3-0.7,0.7-1.1,1c-0.5,0.4-1,0.9-1.5,1.3c-0.4,0.3-0.7,0.6-1.1,0.9l0,0c-0.8,0.7-1.7,1.3-2.6,1.9l0,0
		c-0.6,0.4-1.2,0.8-1.8,1.2c-1.2,0.8-2.5,1.5-3.8,2.1c-0.7,0.3-1.3,0.6-2,0.9l0,0c-0.7,0.3-1.3,0.6-2,0.8c-4.8,1.8-10,2.7-15.5,2.7
		s-10.6-1-15.5-2.7c-0.7-0.3-1.4-0.5-2-0.8l0,0c-0.5-0.2-1-0.4-1.5-0.7c-0.1,0-0.2-0.1-0.2-0.1c-0.5-0.2-1-0.5-1.5-0.7
		c-0.5-0.3-1-0.5-1.5-0.8c-1-0.6-2-1.2-2.9-1.8c-0.5-0.3-0.9-0.6-1.4-1l0,0c-1.4-1-2.7-2.1-3.9-3.2c-0.2-0.2-0.4-0.4-0.6-0.6
		c-0.1,0-0.1-0.1-0.2-0.2c-0.1-0.1-0.3-0.3-0.4-0.4c-0.1-0.1-0.2-0.2-0.3-0.3c-0.1-0.1-0.2-0.2-0.3-0.3c-0.2-0.2-0.3-0.3-0.5-0.5
		c-0.3-0.3-0.6-0.6-0.8-0.9c-0.3-0.4-0.6-0.7-0.9-1.1c-0.3-0.4-0.6-0.7-0.9-1.1c-0.5-0.6-1-1.3-1.5-2s-0.9-1.4-1.3-2.1
		c-0.3-0.4-0.5-0.9-0.8-1.3c-0.3-0.5-0.6-1-0.8-1.5l0,0c-0.4-0.7-0.7-1.4-1-2.1c-0.2-0.5-0.5-1.1-0.7-1.6s-0.4-1.1-0.6-1.6l0,0
		c-0.3-0.7-0.5-1.4-0.7-2.1c-1.3-4.2-2-8.7-2-13.4c0-4.7,0.7-9.1,2-13.4c0.2-0.7,0.5-1.4,0.7-2.1l0,0c0.2-0.5,0.4-1.1,0.6-1.6
		s0.5-1.1,0.7-1.6c0.3-0.7,0.7-1.4,1-2.1l0,0c0.3-0.5,0.6-1,0.9-1.6l0,0c0.5-0.9,1.1-1.8,1.7-2.7c0.6-0.9,1.2-1.8,1.9-2.6
		c1.9-2.4,4-4.6,6.4-6.6c0.8-0.7,1.6-1.3,2.4-1.9c0.3-0.2,0.7-0.5,1-0.7s0.7-0.5,1-0.7s0.7-0.5,1-0.7c0,0,0.1-0.1,0.2-0.1
		c0.5-0.3,0.9-0.6,1.4-0.8c0.5-0.3,1-0.5,1.5-0.8s1-0.5,1.5-0.7c0.1,0,0.1-0.1,0.2-0.1c0.5-0.2,1-0.4,1.5-0.6l0,0
		c0.7-0.3,1.4-0.5,2-0.8c4.8-1.8,10-2.7,15.5-2.7s10.6,1,15.5,2.7c0.7,0.3,1.4,0.5,2,0.8l0,0c0.7,0.3,1.3,0.6,2,0.9
		c1.3,0.6,2.6,1.3,3.8,2.1c0.6,0.4,1.2,0.8,1.8,1.2l0,0c0.9,0.6,1.8,1.2,2.6,1.9l0,0c0.4,0.3,0.7,0.6,1.1,0.8
		c0.2,0.2,0.4,0.4,0.6,0.6c0.2,0.2,0.4,0.4,0.6,0.6c0.7,0.6,1.4,1.3,2.1,2c0.5,0.5,1,1,1.5,1.6c0.3,0.3,0.6,0.7,0.9,1
		c0.3,0.3,0.6,0.7,0.9,1l0,0l0.1,0.1c0.6,0.8,1.3,1.6,1.8,2.5l0,0c0.4,0.6,0.8,1.2,1.2,1.8c0.8,1.2,1.5,2.5,2.1,3.8
		c0.3,0.7,0.6,1.3,0.9,2l0,0c0.3,0.7,0.6,1.3,0.8,2c1.4,3.9,2.3,8.1,2.6,12.5c0.1,1,0.1,2,0.1,3S171.9,129.7,171.8,130.7z"/>
	<path style="fill:#F467A1;" d="M162.4,100.1v55.3l-0.1,0.1l0,0c-0.3,0.3-0.6,0.7-0.9,1c-0.5,0.6-1.1,1.2-1.6,1.8
		c-0.3,0.3-0.7,0.7-1,1c-0.1,0.1-0.2,0.2-0.3,0.3s-0.2,0.2-0.3,0.3c0,0,0,0-0.1,0c-0.3,0.3-0.7,0.7-1.1,1c-0.5,0.4-1,0.9-1.5,1.3
		c-0.4,0.3-0.7,0.6-1.1,0.9l0,0c-0.8,0.7-1.7,1.3-2.6,1.9l0,0c-0.6,0.4-1.2,0.8-1.8,1.2c-1.2,0.8-2.5,1.5-3.8,2.1
		c-0.7,0.3-1.3,0.6-2,0.9l0,0c-0.7,0.3-1.3,0.6-2,0.8c-4.8,1.8-10,2.7-15.5,2.7s-10.6-1-15.5-2.7c-0.7-0.3-1.4-0.5-2-0.8l0,0
		c-0.5-0.2-1-0.4-1.5-0.7c-0.1,0-0.2-0.1-0.2-0.1c-0.5-0.2-1-0.5-1.5-0.7c-0.5-0.3-1-0.5-1.5-0.8c-1-0.6-2-1.2-2.9-1.8
		c-0.5-0.3-0.9-0.7-1.4-1l0,0c-1.4-1-2.7-2.1-3.9-3.2c-0.2-0.2-0.4-0.4-0.6-0.6c-0.1,0-0.1-0.1-0.2-0.2c-0.1-0.1-0.3-0.3-0.4-0.4
		c-0.1-0.1-0.2-0.2-0.3-0.3c-0.1-0.1-0.2-0.2-0.3-0.3c-0.2-0.2-0.3-0.3-0.5-0.5c-0.3-0.3-0.6-0.6-0.8-0.9c-0.3-0.4-0.6-0.7-0.9-1.1
		c-0.3-0.4-0.6-0.7-0.9-1.1v-55.3c1.9-2.4,4-4.6,6.4-6.6c0.8-0.7,1.6-1.3,2.4-1.9c0.3-0.2,0.7-0.5,1-0.7s0.7-0.5,1-0.7
		s0.7-0.5,1-0.7c0,0,0.1-0.1,0.2-0.1c0.5-0.3,0.9-0.6,1.4-0.8c0.5-0.3,1-0.5,1.5-0.8s1-0.5,1.5-0.7c0.1,0,0.1-0.1,0.2-0.1
		c0.5-0.2,1-0.4,1.5-0.6l0,0c0.7-0.3,1.4-0.5,2-0.8c4.8-1.8,10-2.7,15.5-2.7s10.6,1,15.5,2.7c0.7,0.3,1.4,0.5,2,0.8l0,0
		c0.7,0.3,1.3,0.6,2,0.9c1.3,0.6,2.6,1.3,3.8,2.1c0.6,0.4,1.2,0.8,1.8,1.2l0,0c0.9,0.6,1.8,1.2,2.6,1.9l0,0c0.4,0.3,0.7,0.6,1.1,0.8
		c0.2,0.2,0.4,0.4,0.6,0.6c0.2,0.2,0.4,0.4,0.6,0.6c0.7,0.6,1.4,1.3,2.1,2c0.5,0.5,1,1,1.5,1.6c0.3,0.3,0.6,0.7,0.9,1
		C161.8,99.5,162.1,99.9,162.4,100.1L162.4,100.1C162.4,100,162.4,100.1,162.4,100.1z"/>
	<path style="fill:#F467A1;" d="M156.5,81.4c-8.5-5.5-18.7-8.6-29.5-8.6s-21,3.2-29.5,8.6l1.2-9.4l6.5-51.8c0.4-3,2.9-5.2,5.9-5.2
		h32c3,0,5.5,2.2,5.9,5.2l6.5,51.8L156.5,81.4z"/>
	<path style="fill:#F467A1;" d="M156.8,173.9l-1.6,12.7l-6.4,51.2c-0.4,3-2.9,5.2-5.9,5.2h-32c-3,0-5.5-2.2-5.9-5.2l-6.4-51.2
		L97,173.9c8.6,5.6,18.9,8.8,29.9,8.8C138,182.7,148.2,179.5,156.8,173.9z"/>
	<path style="fill:#F467A1;" d="M171.9,127.8c0,1,0,2-0.1,3c-0.2-0.4-0.3-0.9-0.3-1.4v-3.1c0-0.5,0.1-1,0.3-1.4
		C171.9,125.8,171.9,126.8,171.9,127.8z"/>
</g>
<g>
	<g>
		<path style="fill:#FFFFFF;" d="M171.9,127.8c0,1,0,2-0.1,3c-0.3,4.4-1.2,8.6-2.6,12.5c-0.3,0.7-0.5,1.4-0.8,2l0,0
			c-0.3,0.7-0.6,1.3-0.9,2c-0.6,1.3-1.3,2.6-2.1,3.8c-0.4,0.6-0.8,1.2-1.2,1.8l0,0c-0.6,0.9-1.2,1.7-1.8,2.5l-0.1,0.1l0,0
			c-0.3,0.3-0.6,0.7-0.9,1c-0.5,0.6-1.1,1.2-1.6,1.8c-0.3,0.3-0.7,0.7-1,1c-0.1,0.1-0.2,0.2-0.3,0.3s-0.2,0.2-0.3,0.3c0,0,0,0-0.1,0
			c-0.3,0.3-0.7,0.7-1.1,1c-0.5,0.4-1,0.9-1.5,1.3c-0.4,0.3-0.7,0.6-1.1,0.9l0,0c-0.8,0.7-1.7,1.3-2.6,1.9l0,0
			c-0.6,0.4-1.2,0.8-1.8,1.2c-1.2,0.8-2.5,1.5-3.8,2.1c-0.7,0.3-1.3,0.6-2,0.9l0,0c-0.7,0.3-1.3,0.6-2,0.8c-4.8,1.8-10,2.7-15.5,2.7
			s-10.6-1-15.5-2.7c-0.7-0.3-1.4-0.5-2-0.8l0,0c-0.5-0.2-1-0.4-1.5-0.7c-0.1,0-0.2-0.1-0.2-0.1c-0.5-0.2-1-0.5-1.5-0.7
			c-0.5-0.3-1-0.5-1.5-0.8c-1-0.6-2-1.2-2.9-1.8c-0.5-0.3-0.9-0.7-1.4-1l0,0c-1.4-1-2.7-2.1-3.9-3.2c-0.2-0.2-0.4-0.4-0.6-0.6
			c-0.1,0-0.1-0.1-0.2-0.2c-0.1-0.1-0.3-0.3-0.4-0.4c-0.1-0.1-0.2-0.2-0.3-0.3c-0.1-0.1-0.2-0.2-0.3-0.3c-0.2-0.2-0.3-0.3-0.5-0.5
			c-0.3-0.3-0.6-0.6-0.8-0.9c-0.3-0.4-0.6-0.7-0.9-1.1c-0.3-0.4-0.6-0.7-0.9-1.1c-0.5-0.6-1-1.3-1.5-2s-0.9-1.4-1.3-2.1
			c-0.3-0.4-0.5-0.9-0.8-1.3c-0.3-0.5-0.6-1-0.8-1.5l0,0c-0.4-0.7-0.7-1.4-1-2.1c-0.2-0.5-0.5-1.1-0.7-1.6s-0.4-1.1-0.6-1.6l0,0
			c-0.3-0.7-0.5-1.4-0.7-2.1c-1.3-4.2-2-8.7-2-13.4c0-4.7,0.7-9.1,2-13.4c0.2-0.7,0.5-1.4,0.7-2.1l0,0c0.2-0.5,0.4-1.1,0.6-1.6
			s0.5-1.1,0.7-1.6c0.3-0.7,0.7-1.4,1-2.1l0,0c0.3-0.5,0.6-1,0.9-1.6l0,0c0.5-0.9,1.1-1.8,1.7-2.7c0.6-0.9,1.2-1.8,1.9-2.6
			c1.9-2.4,4-4.6,6.4-6.6c0.8-0.7,1.6-1.3,2.4-1.9c0.3-0.2,0.7-0.5,1-0.7s0.7-0.5,1-0.7s0.7-0.5,1-0.7c0,0,0.1-0.1,0.2-0.1
			c0.5-0.3,0.9-0.6,1.4-0.8c0.5-0.3,1-0.5,1.5-0.8s1-0.5,1.5-0.7c0.1,0,0.1-0.1,0.2-0.1c0.5-0.2,1-0.4,1.5-0.6l0,0
			c0.7-0.3,1.4-0.5,2-0.8c4.8-1.8,10-2.7,15.5-2.7s10.6,1,15.5,2.7c0.7,0.3,1.4,0.5,2,0.8l0,0c0.7,0.3,1.3,0.6,2,0.9
			c1.3,0.6,2.6,1.3,3.8,2.1c0.6,0.4,1.2,0.8,1.8,1.2l0,0c0.9,0.6,1.8,1.2,2.6,1.9l0,0c0.4,0.3,0.7,0.6,1.1,0.8
			c0.2,0.2,0.4,0.4,0.6,0.6c0.2,0.2,0.4,0.4,0.6,0.6c0.7,0.6,1.4,1.3,2.1,2c0.5,0.5,1,1,1.5,1.6c0.3,0.3,0.6,0.7,0.9,1
			c0.3,0.3,0.6,0.7,0.9,1l0,0l0.1,0.1c0.6,0.8,1.3,1.6,1.8,2.5l0,0c0.4,0.6,0.8,1.2,1.2,1.8c0.8,1.2,1.5,2.5,2.1,3.8
			c0.3,0.7,0.6,1.3,0.9,2l0,0c0.3,0.7,0.6,1.3,0.8,2c1.4,3.9,2.3,8.1,2.6,12.5C171.9,125.8,171.9,126.8,171.9,127.8z"/>
		<path style="fill:#7F3657;" d="M96.5,160.9c1.2,1.2,2.5,2.2,3.9,3.2C99.1,163.1,97.8,162,96.5,160.9z M101.9,165.1
			c0.9,0.6,1.9,1.3,2.9,1.8C103.8,166.3,102.8,165.7,101.9,165.1z M146.5,168.3c1.3-0.6,2.6-1.3,3.8-2.1
			C149,167,147.8,167.7,146.5,168.3z M152.1,165c0.9-0.6,1.8-1.2,2.6-1.9C153.9,163.8,153,164.4,152.1,165z M93.3,157.6
			c0.3,0.3,0.6,0.6,0.8,0.9c0.2,0.2,0.3,0.3,0.5,0.5c0.1,0.1,0.2,0.2,0.3,0.3c0.1,0.1,0.2,0.2,0.3,0.3C94.6,159,94,158.3,93.3,157.6
			z M96.5,160.9c1.2,1.2,2.5,2.2,3.9,3.2C99.1,163.1,97.8,162,96.5,160.9z M101.9,165.1c0.9,0.6,1.9,1.3,2.9,1.8
			C103.8,166.3,102.8,165.7,101.9,165.1z M146.5,168.3c1.3-0.6,2.6-1.3,3.8-2.1C149,167,147.8,167.7,146.5,168.3z M146.5,87.2
			c1.3,0.6,2.6,1.3,3.8,2.1C149,88.5,147.8,87.8,146.5,87.2z M152.1,165c0.9-0.6,1.8-1.2,2.6-1.9C153.9,163.8,153,164.4,152.1,165z
			 M152.1,90.5c0.9,0.6,1.8,1.3,2.6,1.9C153.9,91.7,153,91.1,152.1,90.5z M157,94.3c0.4,0.4,0.8,0.8,1.2,1.2
			c0.3,0.3,0.6,0.5,0.8,0.8C158.5,95.6,157.8,95,157,94.3z M159.1,96.3c0.5,0.5,1,1,1.5,1.6C160.1,97.4,159.6,96.8,159.1,96.3z
			 M165.4,104.5c0.8,1.2,1.5,2.5,2.1,3.8C166.9,107,166.2,105.7,165.4,104.5z M165.4,151.1c0.8-1.2,1.5-2.5,2.1-3.8
			C166.9,148.6,166.2,149.8,165.4,151.1z M162.4,100.1c0.6,0.8,1.2,1.6,1.8,2.5C163.7,101.8,163.1,100.9,162.4,100.1z M162.4,155.4
			c0.6-0.8,1.3-1.6,1.8-2.5C163.7,153.8,163.1,154.6,162.4,155.4z M159.1,96.3c0.5,0.5,1,1,1.5,1.6
			C160.1,97.4,159.6,96.8,159.1,96.3z M157,94.3c0.4,0.4,0.8,0.8,1.2,1.2c0.3,0.3,0.6,0.5,0.8,0.8C158.5,95.6,157.8,95,157,94.3z
			 M152.1,90.5c0.9,0.6,1.8,1.3,2.6,1.9C153.9,91.7,153,91.1,152.1,90.5z M152.1,165c0.9-0.6,1.8-1.2,2.6-1.9
			C153.9,163.8,153,164.4,152.1,165z M146.5,87.2c1.3,0.6,2.6,1.3,3.8,2.1C149,88.5,147.8,87.8,146.5,87.2z M146.5,168.3
			c1.3-0.6,2.6-1.3,3.8-2.1C149,167,147.8,167.7,146.5,168.3z M101.9,165.1c0.9,0.6,1.9,1.3,2.9,1.8
			C103.8,166.3,102.8,165.7,101.9,165.1z M96.5,160.9c1.2,1.2,2.5,2.2,3.9,3.2C99.1,163.1,97.8,162,96.5,160.9z M91.5,100.1
			L91.5,100.1c1.3-1.6,2.7-3.2,4.2-4.6c0.7-0.7,1.5-1.4,2.2-2C95.5,95.5,93.4,97.7,91.5,100.1z M93.3,157.6c0.3,0.3,0.6,0.6,0.8,0.9
			c0.2,0.2,0.3,0.3,0.5,0.5c0.1,0.1,0.2,0.2,0.3,0.3c0.1,0.1,0.2,0.2,0.3,0.3C94.6,159,94,158.3,93.3,157.6z M91.5,155.4L91.5,155.4
			c0.3,0.4,0.6,0.8,0.9,1.1C92.1,156.1,91.8,155.8,91.5,155.4z M159.1,96.3c0.5,0.5,1,1,1.5,1.6C160.1,97.4,159.6,96.8,159.1,96.3z
			 M157,94.3c0.4,0.4,0.8,0.8,1.2,1.2c0.3,0.3,0.6,0.5,0.8,0.8C158.5,95.6,157.8,95,157,94.3z M152.1,90.5c0.9,0.6,1.8,1.3,2.6,1.9
			C153.9,91.7,153,91.1,152.1,90.5z M152.1,165c0.9-0.6,1.8-1.2,2.6-1.9C153.9,163.8,153,164.4,152.1,165z M146.5,87.2
			c1.3,0.6,2.6,1.3,3.8,2.1C149,88.5,147.8,87.8,146.5,87.2z M146.5,168.3c1.3-0.6,2.6-1.3,3.8-2.1C149,167,147.8,167.7,146.5,168.3
			z M101.9,165.1c0.9,0.6,1.9,1.3,2.9,1.8C103.8,166.3,102.8,165.7,101.9,165.1z M96.5,160.9c1.2,1.2,2.5,2.2,3.9,3.2
			C99.1,163.1,97.8,162,96.5,160.9z M93.3,157.6c0.3,0.3,0.6,0.6,0.8,0.9c0.2,0.2,0.3,0.3,0.5,0.5c0.1,0.1,0.2,0.2,0.3,0.3
			c0.1,0.1,0.2,0.2,0.3,0.3C94.6,159,94,158.3,93.3,157.6z M91.5,155.4c-0.5-0.6-1-1.3-1.5-2C90.5,154.1,91,154.8,91.5,155.4
			c0.3,0.4,0.6,0.8,0.9,1.1C92.1,156.1,91.8,155.8,91.5,155.4z M91.5,100.1c-0.7,0.8-1.3,1.7-1.9,2.6
			C90.2,101.8,90.8,101,91.5,100.1c1.3-1.6,2.7-3.2,4.2-4.6c0.7-0.7,1.5-1.4,2.2-2C95.5,95.5,93.4,97.7,91.5,100.1z"/>
	</g>
	
		<ellipse transform="matrix(8.248056e-02 -0.9966 0.9966 8.248056e-02 -10.8396 243.8263)" style="fill:#FFD98D;" cx="127" cy="127.8" rx="32.4" ry="32.4"/>
	<g>
		<path style="fill:#3D3D3D;" d="M127,129.8c-0.3,0-0.6-0.1-0.9-0.2c-0.7-0.3-1.1-1-1.1-1.8V90c0-1.1,0.9-2,2-2c1.1,0,2,0.9,2,2v34
			l15.5-10.6c0.9-0.6,2.2-0.4,2.8,0.5s0.4,2.2-0.5,2.8l-18.6,12.7C127.8,129.6,127.4,129.8,127,129.8z"/>
	</g>
	<path style="opacity:0.5;enable-background:new    ;" d="M183.9,122.4h-2.2c-1.4-14.6-8.6-27.6-19.3-36.6v-8.2
		c0-3.1-2.5-5.6-5.6-5.6h-1.5l1.2,9.4c-8.5-5.5-18.7-8.6-29.5-8.6s-21,3.2-29.5,8.6l1.2-9.4h-1.5c-3.1,0-5.6,2.5-5.6,5.6v8.2
		C79.6,95.9,72,111,72,127.8s7.6,31.9,19.5,42V181c0,3.1,2.5,5.6,5.6,5.6h1.6l-1.6-12.7c8.6,5.6,18.9,8.8,29.9,8.8
		s21.3-3.3,29.9-8.8l-1.6,12.7h1.6c3.1,0,5.6-2.5,5.6-5.6v-11.3c10.6-9,17.8-22,19.3-36.6h2.2c2.1,0,3.8-1.7,3.8-3.8v-3.1
		C187.7,124.1,186,122.4,183.9,122.4z M171.8,130.7c-0.3,4.4-1.2,8.6-2.6,12.5c-0.3,0.7-0.5,1.4-0.8,2l0,0c-0.3,0.7-0.6,1.3-0.9,2
		c-0.6,1.3-1.3,2.6-2.1,3.8c-0.4,0.6-0.8,1.2-1.2,1.8l0,0c-0.6,0.9-1.2,1.7-1.8,2.5l-0.1,0.1l0,0c-0.3,0.3-0.6,0.7-0.9,1
		c-1,1.2-2,2.3-3.1,3.4c0,0,0,0-0.1,0c-0.3,0.3-0.7,0.7-1.1,1c-0.5,0.4-1,0.9-1.5,1.3c-0.4,0.3-0.7,0.6-1.1,0.9l0,0
		c-0.8,0.7-1.7,1.3-2.6,1.9l0,0c-0.6,0.4-1.2,0.8-1.8,1.2c-1.2,0.8-2.5,1.5-3.8,2.1c-0.7,0.3-1.3,0.6-2,0.9l0,0
		c-0.7,0.3-1.3,0.6-2,0.8c-4.8,1.8-10,2.7-15.5,2.7s-10.6-1-15.5-2.7c-0.7-0.3-1.4-0.5-2-0.8l0,0c-0.5-0.2-1-0.4-1.5-0.7
		c-0.1,0-0.2-0.1-0.2-0.1c-0.5-0.2-1-0.5-1.5-0.7c-0.5-0.3-1-0.5-1.5-0.8c-1-0.6-2-1.2-2.9-1.8c-0.5-0.3-0.9-0.6-1.4-1l0,0
		c-1.4-1-2.7-2.1-3.9-3.2c-0.2-0.2-0.4-0.4-0.6-0.6c-0.1,0-0.1-0.1-0.2-0.2c-0.1-0.1-0.3-0.3-0.4-0.4c-0.1-0.1-0.2-0.2-0.3-0.3
		c-0.1-0.1-0.2-0.2-0.3-0.3c-0.2-0.2-0.3-0.3-0.5-0.5c-0.3-0.3-0.6-0.6-0.8-0.9c-0.3-0.4-0.6-0.7-0.9-1.1c-0.3-0.4-0.6-0.7-0.9-1.1
		c-0.5-0.6-1-1.3-1.5-2s-0.9-1.4-1.3-2.1c-0.3-0.4-0.5-0.9-0.8-1.3c-0.3-0.5-0.6-1-0.8-1.5l0,0c-0.4-0.7-0.7-1.4-1-2.1
		c-0.2-0.5-0.5-1.1-0.7-1.6s-0.4-1.1-0.6-1.6l0,0c-0.3-0.7-0.5-1.4-0.7-2.1c-1.3-4.2-2-8.7-2-13.4c0-4.7,0.7-9.1,2-13.4
		c0.2-0.7,0.5-1.4,0.7-2.1l0,0c0.2-0.5,0.4-1.1,0.6-1.6s0.5-1.1,0.7-1.6c0.3-0.7,0.7-1.4,1-2.1l0,0c0.3-0.5,0.6-1,0.9-1.6l0,0
		c0.5-0.9,1.1-1.8,1.7-2.7c0.6-0.9,1.2-1.8,1.9-2.6c1.9-2.4,4-4.6,6.4-6.6c0.8-0.7,1.6-1.3,2.4-1.9c0.3-0.2,0.7-0.5,1-0.7
		s0.7-0.5,1-0.7s0.7-0.5,1-0.7c0,0,0.1-0.1,0.2-0.1c0.5-0.3,0.9-0.6,1.4-0.8c0.5-0.3,1-0.5,1.5-0.8s1-0.5,1.5-0.7
		c0.1,0,0.1-0.1,0.2-0.1c0.5-0.2,1-0.4,1.5-0.6l0,0c0.7-0.3,1.4-0.5,2-0.8c4.8-1.8,10-2.7,15.5-2.7s10.6,1,15.5,2.7
		c0.7,0.3,1.4,0.5,2,0.8l0,0c0.7,0.3,1.3,0.6,2,0.9c1.3,0.6,2.6,1.3,3.8,2.1c0.6,0.4,1.2,0.8,1.8,1.2l0,0c0.9,0.6,1.8,1.2,2.6,1.9
		l0,0c0.4,0.3,0.7,0.6,1.1,0.8c0.2,0.2,0.4,0.4,0.6,0.6c0.2,0.2,0.4,0.4,0.6,0.6c0.7,0.6,1.4,1.3,2.1,2c0.5,0.5,1,1,1.5,1.6
		c0.3,0.3,0.6,0.7,0.9,1c0.3,0.3,0.6,0.7,0.9,1l0,0l0.1,0.1c0.6,0.8,1.3,1.6,1.8,2.5l0,0c0.4,0.6,0.8,1.2,1.2,1.8
		c0.8,1.2,1.5,2.5,2.1,3.8c0.3,0.7,0.6,1.3,0.9,2l0,0c0.3,0.7,0.6,1.3,0.8,2c1.4,3.9,2.3,8.1,2.6,12.5c0.1,1,0.1,2,0.1,3
		S171.9,129.7,171.8,130.7z"/>
</g>
</svg>
