<?xml version="1.0" encoding="utf-8"?>
<!-- Generator: Adobe Illustrator 22.1.0, SVG Export Plug-In . SVG Version: 6.00 Build 0)  -->
<svg version="1.1" id="Layer_1" xmlns="http://www.w3.org/2000/svg" xmlns:xlink="http://www.w3.org/1999/xlink" x="0px" y="0px"
	 viewBox="0 0 256 256" style="enable-background:new 0 0 256 256;" xml:space="preserve">
<g>
	<path style="fill:#656468;" d="M102.2,77.6c0,0-8.3-7.1-5.9-43.7L55,32.7c0,0,2.4,35.4-5.9,46.1h53.2V77.6z"/>
	<path style="fill:#656468;" d="M118.2,224.7H29.6V96.3c0-6.1,4.9-11,11-11h66.6c6.1,0,11,4.9,11,11V224.7z"/>
	<path style="fill:#656468;" d="M208.6,77.6c0,0-8.3-7.1-5.9-43.7l-41.3-1.2c0,0,2.4,35.4-5.9,46.1h53.2V77.6z"/>
	<path style="fill:#656468;" d="M224.5,224.7h-88.6V96.3c0-6.1,4.9-11,11-11h66.6c6.1,0,11,4.9,11,11V224.7z"/>
</g>
</svg>
