<?xml version="1.0" encoding="utf-8"?>
<!-- Generator: Adobe Illustrator 22.1.0, SVG Export Plug-In . SVG Version: 6.00 Build 0)  -->
<svg version="1.1" id="Layer_1" xmlns="http://www.w3.org/2000/svg" xmlns:xlink="http://www.w3.org/1999/xlink" x="0px" y="0px"
	 viewBox="0 0 256 256" style="enable-background:new 0 0 256 256;" xml:space="preserve">
<g>
	<path style="fill:#7ED5D9;" d="M118.2,240c-31.7,8.5-62.2,9.6-91,0v-5.9h91V240z"/>
	<path style="fill:#0B050C;" d="M97.9,34.5H52.2c-2.1,0-3.8-1.7-3.8-3.8v-9c0-2.1,1.7-3.8,3.8-3.8h45.7c2.1,0,3.8,1.7,3.8,3.8v9
		C101.6,32.8,100,34.5,97.9,34.5z"/>
	<path style="fill:#0B050C;" d="M103.1,93.5H44.6c-2.4,0-4.4-2-4.4-4.4v-7.7c0-2.4,2-4.4,4.4-4.4h58.5c2.4,0,4.4,2,4.4,4.4v7.7
		C107.6,91.6,105.6,93.5,103.1,93.5z"/>
	<path style="fill:#0B050C;" d="M120,236.5H25.4c-1.6,0-2.9-1.3-2.9-2.9v-10.8c0-1.6,1.3-2.9,2.9-2.9H120c1.6,0,2.9,1.3,2.9,2.9
		v10.8C122.9,235.2,121.6,236.5,120,236.5z"/>
	<path style="fill:#10080D;" d="M40.9,168H27.7c-2.2,0-4-1.8-4-4v-1.5c0-2.2,1.8-4,4-4h13.3c2.2,0,4,1.8,4,4v1.5
		C44.9,166.2,43.2,168,40.9,168z"/>
	<path style="fill:#7ED5D9;" d="M224.5,240c-31.7,8.5-62.2,9.6-91,0v-5.9h91V240z"/>
	<path style="fill:#0B050C;" d="M204.2,34.5h-45.7c-2.1,0-3.8-1.7-3.8-3.8v-9c0-2.1,1.7-3.8,3.8-3.8h45.7c2.1,0,3.8,1.7,3.8,3.8v9
		C208,32.8,206.3,34.5,204.2,34.5z"/>
	<path style="fill:#0B050C;" d="M209.5,93.5H151c-2.4,0-4.4-2-4.4-4.4v-7.7c0-2.4,2-4.4,4.4-4.4h58.5c2.4,0,4.4,2,4.4,4.4v7.7
		C213.9,91.6,211.9,93.5,209.5,93.5z"/>
	<path style="fill:#0B050C;" d="M226.4,236.5h-94.7c-1.6,0-2.9-1.3-2.9-2.9v-10.8c0-1.6,1.3-2.9,2.9-2.9h94.7c1.6,0,2.9,1.3,2.9,2.9
		v10.8C229.2,235.2,227.9,236.5,226.4,236.5z"/>
	<path style="fill:#10080D;" d="M227,168.6h-13.3c-2.2,0-4-1.8-4-4v-1.5c0-2.2,1.8-4,4-4H227c2.2,0,4,1.8,4,4v1.5
		C231,166.8,229.2,168.6,227,168.6z"/>
	<path style="fill:#0B050C;" d="M142.1,131.3h-27.8c-3.7,0-6.8-3-6.8-6.8V118c0-3.7,3-6.8,6.8-6.8h27.8c3.7,0,6.8,3,6.8,6.8v6.6
		C148.9,128.3,145.9,131.3,142.1,131.3z"/>
	<path style="fill:#1A151A;" d="M186.7,183.9H68.6c-2.9,0-5.3-2.4-5.3-5.3v-37.8c0-2.9,2.4-5.3,5.3-5.3h118.1c2.9,0,5.3,2.4,5.3,5.3
		v37.8C192,181.5,189.6,183.9,186.7,183.9z"/>
</g>
</svg>
