<?xml version="1.0" encoding="utf-8"?>
<!-- Generator: Adobe Illustrator 22.1.0, SVG Export Plug-In . SVG Version: 6.00 Build 0)  -->
<svg version="1.1" id="Layer_1" xmlns="http://www.w3.org/2000/svg" xmlns:xlink="http://www.w3.org/1999/xlink" x="0px" y="0px"
	 viewBox="0 0 256 256" style="enable-background:new 0 0 256 256;" xml:space="preserve">
<g>
	<path style="opacity:0.2;" d="M120.9,170.8l1.4,19l8.6-1.2c0,0,12.2,44.8,9.9,62.4l12.1-2.4c-2.9-19.8-8.9-40-18.5-60.5l5.8-15.7
		C135.1,169.2,128.7,168.5,120.9,170.8z"/>
	<path style="fill:#47301E;" d="M121.7,190.6c-0.1-0.5,0.1-1,0.6-1.7l12.4-1.4c0.3,0.4,0.4,0.8,0.1,1.3L121.7,190.6z"/>
	<path style="fill:#47301E;" d="M133.8,169.8L135.6,5l-6.8-0.3l-3,165C128.6,169.3,131.3,169.4,133.8,169.8z"/>
</g>
</svg>
