<?xml version="1.0" encoding="utf-8"?>
<!-- Generator: Adobe Illustrator 22.1.0, SVG Export Plug-In . SVG Version: 6.00 Build 0)  -->
<svg version="1.1" id="Layer_1" xmlns="http://www.w3.org/2000/svg" xmlns:xlink="http://www.w3.org/1999/xlink" x="0px" y="0px"
	 viewBox="0 0 256 256" style="enable-background:new 0 0 256 256;" xml:space="preserve">
<g>
	<rect x="131.2" y="153.1" style="fill:#C89D6A;" width="93" height="42.9"/>
	<path style="fill:#784D2B;" d="M189.5,160.2H166c-2.9,0-5.2,2.3-5.2,5.2v3.3c0,1.4,1.2,2.6,2.6,2.6h28.8c1.4,0,2.6-1.2,2.6-2.6
		v-3.3C194.7,162.5,192.4,160.2,189.5,160.2z"/>
	<path style="fill:#936C3E;" d="M189.5,159H166c-2.9,0-5.2,2.3-5.2,5.2v3.3c0,1.4,1.2,2.6,2.6,2.6h28.8c1.4,0,2.6-1.2,2.6-2.6v-3.3
		C194.7,161.3,192.4,159,189.5,159z"/>
	<rect x="131.2" y="198" style="fill:#C89D6A;" width="93" height="42.9"/>
	<path style="fill:#784D2B;" d="M189.5,205H166c-2.9,0-5.2,2.3-5.2,5.2v3.3c0,1.4,1.2,2.6,2.6,2.6h28.8c1.4,0,2.6-1.2,2.6-2.6v-3.3
		C194.7,207.3,192.4,205,189.5,205z"/>
	<path style="fill:#936C3E;" d="M189.5,203.8H166c-2.9,0-5.2,2.3-5.2,5.2v3.3c0,1.4,1.2,2.6,2.6,2.6h28.8c1.4,0,2.6-1.2,2.6-2.6V209
		C194.7,206.1,192.4,203.8,189.5,203.8z"/>
	<path style="opacity:0.2;" d="M128.7,10.9h-11.3H29.8v0v6v65.1v6v25v13.2v19.2v6v91.2v4v2h87.6h11.3H232v-2v-4v-91.2v-6v-19.2
		v-13.2v-25v-6V16.8v-6v0H128.7z M226,242.4h-97.3h-11.3H35.8v-91.2h81.6h11.3H226V242.4z M226,112.9v13.2v19.2h-97.3h-11.3H35.8
		v-19.2v-13.2v-25h81.6h11.3H226V112.9z M226,81.9h-97.3h-11.3H35.8V16.8h81.6h11.3H226V81.9z"/>
	<rect x="37.6" y="153.1" style="fill:#C89D6A;" width="93" height="42.9"/>
	<path style="fill:#784D2B;" d="M95.9,160.2H72.3c-2.9,0-5.2,2.3-5.2,5.2v3.3c0,1.4,1.2,2.6,2.6,2.6h28.8c1.4,0,2.6-1.2,2.6-2.6
		v-3.3C101.1,162.5,98.7,160.2,95.9,160.2z"/>
	<path style="fill:#936C3E;" d="M95.9,159H72.3c-2.9,0-5.2,2.3-5.2,5.2v3.3c0,1.4,1.2,2.6,2.6,2.6h28.8c1.4,0,2.6-1.2,2.6-2.6v-3.3
		C101.1,161.3,98.7,159,95.9,159z"/>
	<rect x="37.6" y="198" style="fill:#C89D6A;" width="93" height="42.9"/>
	<path style="fill:#784D2B;" d="M95.9,205H72.3c-2.9,0-5.2,2.3-5.2,5.2v3.3c0,1.4,1.2,2.6,2.6,2.6h28.8c1.4,0,2.6-1.2,2.6-2.6v-3.3
		C101.1,207.3,98.7,205,95.9,205z"/>
	<path style="fill:#936C3E;" d="M95.9,203.8H72.3c-2.9,0-5.2,2.3-5.2,5.2v3.3c0,1.4,1.2,2.6,2.6,2.6h28.8c1.4,0,2.6-1.2,2.6-2.6V209
		C101.1,206.1,98.7,203.8,95.9,203.8z"/>
</g>
</svg>
