<?xml version="1.0" encoding="utf-8"?>
<!-- Generator: Adobe Illustrator 22.1.0, SVG Export Plug-In . SVG Version: 6.00 Build 0)  -->
<svg version="1.1" id="Layer_1" xmlns="http://www.w3.org/2000/svg" xmlns:xlink="http://www.w3.org/1999/xlink" x="0px" y="0px"
	 viewBox="0 0 256 256" style="enable-background:new 0 0 256 256;" xml:space="preserve">
<g>
	<path id="XMLID_42_" style="opacity:0.2;fill-rule:evenodd;clip-rule:evenodd;fill:#FFFFFF;" d="M129.5,226.3c54,0,98-44,98-98
		c0-54-44-98-98-98c-54,0-98,44-98,98C31.5,182.3,75.5,226.3,129.5,226.3z"/>
	<path id="XMLID_41_" style="opacity:0.2;fill-rule:evenodd;clip-rule:evenodd;" d="M129.5,220.7c50.9,0,92.4-41.5,92.4-92.4
		c0-50.9-41.5-92.4-92.4-92.4c-50.9,0-92.4,41.5-92.4,92.4C37.1,179.2,78.6,220.7,129.5,220.7z"/>
	<polygon id="XMLID_40_" style="fill-rule:evenodd;clip-rule:evenodd;fill:#E77974;" points="129.5,63.2 133,95.2 136.4,127.3 
		129.5,127.3 122.5,127.3 126,95.2 	"/>
	<polygon id="XMLID_39_" style="fill-rule:evenodd;clip-rule:evenodd;fill:#E77974;" points="76.9,128.5 103.2,125.7 129.5,122.8 
		129.5,128.5 129.5,134.2 103.2,131.4 	"/>
	<path id="XMLID_38_" style="fill-rule:evenodd;clip-rule:evenodd;fill:#6F7073;" d="M129.5,138.7c-5.7,0-10.4-4.7-10.4-10.4
		c0-5.7,4.7-10.4,10.4-10.4c5.7,0,10.4,4.7,10.4,10.4C139.9,134,135.2,138.7,129.5,138.7z"/>
	<path id="XMLID_37_" style="fill-rule:evenodd;clip-rule:evenodd;fill:#E77974;" d="M129.5,136.9c4.7,0,8.6-3.8,8.6-8.6
		c0-4.7-3.8-8.6-8.6-8.6c-4.7,0-8.5,3.8-8.5,8.6C120.9,133,124.8,136.9,129.5,136.9z"/>
	<path id="XMLID_36_" style="fill-rule:evenodd;clip-rule:evenodd;fill:#5A5A5D;" d="M127,50h5V38c-0.8,0-1.7,0-2.5,0
		c-0.8,0-1.6,0-2.5,0V50z"/>
	<path id="XMLID_35_" style="fill-rule:evenodd;clip-rule:evenodd;fill:#5A5A5D;" d="M172.5,48.8l-6,10.4l4.3,2.5l6-10.4
		C175.4,50.5,174,49.6,172.5,48.8z"/>
	<path id="XMLID_34_" style="fill-rule:evenodd;clip-rule:evenodd;fill:#5A5A5D;" d="M206.5,81L196,87l2.5,4.3l10.4-6
		C208.2,83.8,207.3,82.4,206.5,81z"/>
	<path id="XMLID_33_" style="fill-rule:evenodd;clip-rule:evenodd;fill:#5A5A5D;" d="M219.8,125.8h-12v5h12c0-0.8,0-1.7,0-2.5
		C219.8,127.5,219.8,126.7,219.8,125.8z"/>
	<path id="XMLID_32_" style="fill-rule:evenodd;clip-rule:evenodd;fill:#5A5A5D;" d="M209,171.3l-10.4-6l-2.5,4.3l10.4,6
		C207.3,174.2,208.2,172.8,209,171.3z"/>
	<path id="XMLID_31_" style="fill-rule:evenodd;clip-rule:evenodd;fill:#5A5A5D;" d="M176.8,205.3l-6-10.4l-4.3,2.5l6,10.4
		C174,207,175.4,206.1,176.8,205.3z"/>
	<path id="XMLID_30_" style="fill-rule:evenodd;clip-rule:evenodd;fill:#5A5A5D;" d="M132,218.6v-12h-5v12c0.8,0,1.6,0,2.5,0
		C130.3,218.6,131.2,218.6,132,218.6z"/>
	<path id="XMLID_29_" style="fill-rule:evenodd;clip-rule:evenodd;fill:#5A5A5D;" d="M86.5,207.8l6-10.4l-4.3-2.5l-6,10.4
		C83.6,206.1,85,207,86.5,207.8z"/>
	<path id="XMLID_28_" style="fill-rule:evenodd;clip-rule:evenodd;fill:#5A5A5D;" d="M52.5,175.6l10.4-6l-2.5-4.3l-10.4,6
		C50.8,172.8,51.7,174.2,52.5,175.6z"/>
	<path id="XMLID_27_" style="fill-rule:evenodd;clip-rule:evenodd;fill:#5A5A5D;" d="M39.2,130.8h12v-5h-12c0,0.8,0,1.6,0,2.5
		C39.2,129.1,39.2,130,39.2,130.8z"/>
	<path id="XMLID_26_" style="fill-rule:evenodd;clip-rule:evenodd;fill:#5A5A5D;" d="M50,85.3l10.4,6L63,87l-10.4-6
		C51.7,82.4,50.8,83.8,50,85.3z"/>
	<path id="XMLID_25_" style="fill-rule:evenodd;clip-rule:evenodd;fill:#5A5A5D;" d="M82.2,51.3l6,10.4l4.3-2.5l-6-10.4
		C85,49.6,83.6,50.5,82.2,51.3z"/>
</g>
</svg>
