<?xml version="1.0" encoding="utf-8"?>
<!-- Generator: Adobe Illustrator 22.1.0, SVG Export Plug-In . SVG Version: 6.00 Build 0)  -->
<svg version="1.1" id="Layer_1" xmlns="http://www.w3.org/2000/svg" xmlns:xlink="http://www.w3.org/1999/xlink" x="0px" y="0px"
	 viewBox="0 0 256 256" style="enable-background:new 0 0 256 256;" xml:space="preserve">
<g>
	<path style="fill:#FFCD96;" d="M147,177.5c1.1,0,2.2,0.1,3.2,0.4l25.3-163.4c-1.5-7.6-5.1-10.2-12-5l-37,118v30c0.2,0,0.3,0,0.5,0
		c4.1,0,7.5,3.8,7.5,8.5c0,4.7-3.4,8.5-7.5,8.5c-0.2,0-0.3,0-0.5,0v8c5,0,9,8.5,9,19s-4,19-9,19v23c3,6,9,6,13,3l9.2-59.1
		c-0.5,0.1-1.1,0.1-1.7,0.1c-4.7,0-8.5-2.2-8.5-5S142.3,177.5,147,177.5z"/>
	<path style="fill:#FFCD96;" d="M106,177.5c-1.1,0-2.2,0.1-3.2,0.4L77.5,14.5c1.5-7.6,5.1-10.2,12-5l37,118v30c-0.2,0-0.3,0-0.5,0
		c-4.1,0-7.5,3.8-7.5,8.5c0,4.7,3.4,8.5,7.5,8.5c0.2,0,0.3,0,0.5,0v8c-5,0-9,8.5-9,19s4,19,9,19v23c-3,6-9,6-13,3l-9.2-59.1
		c0.5,0.1,1.1,0.1,1.7,0.1c4.7,0,8.5-2.2,8.5-5S110.7,177.5,106,177.5z"/>
</g>
</svg>
