<?xml version="1.0" encoding="utf-8"?>
<!-- Generator: Adobe Illustrator 22.1.0, SVG Export Plug-In . SVG Version: 6.00 Build 0)  -->
<svg version="1.1" id="Layer_1" xmlns="http://www.w3.org/2000/svg" xmlns:xlink="http://www.w3.org/1999/xlink" x="0px" y="0px"
	 viewBox="0 0 256 256" style="enable-background:new 0 0 256 256;" xml:space="preserve">
<g>
	<path style="fill-rule:evenodd;clip-rule:evenodd;fill:#98ABF9;" d="M69.6,240.5c0.3-11.7,0.1-56.6-0.2-102
		c22.4-24.6,54-92.3,58.8-108.8c-50.7-3.9-65.7,0.5-97.3,0.5c0.7,21.3-4,194.8-2.1,210.7c2.5,0.5,6.1,0.5,8.3-0.2
		c2.2-0.7,2.4-2.6,4.9-2.6c2.1-0.1,2.4,2.6,6.4,2.6c3.7,0,2.7-2.6,6.1-2.6c2.6,0,2.8,2,6.7,2.7C64.3,241.3,66.1,241.2,69.6,240.5z"
		/>
	<path style="fill-rule:evenodd;clip-rule:evenodd;fill:#98ABF9;" d="M189.5,240.5c-0.3-11.7-0.1-56.6,0.2-102
		c-22.4-24.6-54-92.3-58.8-108.8c50.7-3.9,65.7,0.5,97.3,0.5c-0.7,21.3,4,194.8,2.1,210.7c-2.5,0.5-6.1,0.5-8.3-0.2
		c-2.2-0.7-2.4-2.6-4.9-2.6c-2.1-0.1-2.4,2.6-6.4,2.6c-3.7,0-2.7-2.6-6.1-2.6c-2.6,0-2.8,2-6.7,2.7
		C194.8,241.3,193,241.2,189.5,240.5z"/>
	<path style="fill-rule:evenodd;clip-rule:evenodd;fill:#98ABF9;" d="M230.6,143.4c-4.6,4.4-31.6,9.7-41.1,5.8
		c-1.6-0.9-1-5.9-2.1-9.5c-0.9-3-4.5-5.4-3.2-7.5c7.5,4.7,41.8,4.9,46.3,0.5C231.3,134.8,231.5,140.9,230.6,143.4z"/>
	<path style="fill-rule:evenodd;clip-rule:evenodd;fill:#98ABF9;" d="M229.3,44c-5,6.4-24.4,6.4-29.1,0c-5.6-7.2-22.7-6.4-27.7,0
		s-24,6.4-28.7,0c-5.7-7.2-22.7-6.4-27.7,0c-5,6.4-24,6.4-28.7,0c-5.7-7.2-22.7-6.4-27.7,0c-5,6.4-24,6.4-28.7,0
		c-0.7-7.8-1.8-21.9,0.2-26.1l197.1,0C230.7,22.2,230,36.2,229.3,44z"/>
	<path style="fill-rule:evenodd;clip-rule:evenodd;fill:#98ABF9;" d="M28.5,143.4c4.6,4.4,31.6,9.7,41.1,5.8c1.6-0.9,1-5.9,2.1-9.5
		c0.9-3,4.5-5.4,3.2-7.5c-7.5,4.7-41.8,4.9-46.3,0.5C27.8,134.8,27.6,140.9,28.5,143.4z"/>
</g>
</svg>
