<?xml version="1.0" encoding="utf-8"?>
<!-- Generator: Adobe Illustrator 22.1.0, SVG Export Plug-In . SVG Version: 6.00 Build 0)  -->
<svg version="1.1" id="Layer_1" xmlns="http://www.w3.org/2000/svg" xmlns:xlink="http://www.w3.org/1999/xlink" x="0px" y="0px"
	 viewBox="0 0 256 256" style="enable-background:new 0 0 256 256;" xml:space="preserve">
<g>
	<path style="fill-rule:evenodd;clip-rule:evenodd;fill:#784040;" d="M31.4,18.1h-9.5v4.8h8.6C30.7,20.9,30.9,19.2,31.4,18.1z"/>
	<path style="fill-rule:evenodd;clip-rule:evenodd;fill:#784040;" d="M228.7,18.1c0.5,1.1,0.8,2.8,1,4.8h8.3v-4.8H228.7z"/>
	<path style="fill-rule:evenodd;clip-rule:evenodd;fill:#8B5151;" d="M31,19.4h-9.1v2.2h8.7C30.7,20.8,30.8,20.1,31,19.4z"/>
	<path style="fill-rule:evenodd;clip-rule:evenodd;fill:#8B5151;" d="M229.1,19.4c0.2,0.6,0.3,1.4,0.4,2.2h8.5v-2.2H229.1z"/>
	<path style="fill-rule:evenodd;clip-rule:evenodd;fill:#784040;" d="M21.9,24.2c2,0,3.7-1.6,3.7-3.7s-1.6-3.7-3.7-3.7
		c-2,0-3.7,1.6-3.7,3.7S19.9,24.2,21.9,24.2z"/>
	<path style="fill-rule:evenodd;clip-rule:evenodd;fill:#8B5151;" d="M21.9,22.6c1.1,0,2-0.9,2-2c0-1.1-0.9-2-2-2c-1.1,0-2,0.9-2,2
		C19.9,21.7,20.8,22.6,21.9,22.6z"/>
	<path style="fill-rule:evenodd;clip-rule:evenodd;fill:#784040;" d="M238.9,24.2c2,0,3.7-1.6,3.7-3.7s-1.6-3.7-3.7-3.7
		c-2,0-3.7,1.6-3.7,3.7S236.9,24.2,238.9,24.2z"/>
	<path style="fill-rule:evenodd;clip-rule:evenodd;fill:#8B5151;" d="M238.9,22.6c1.1,0,2-0.9,2-2c0-1.1-0.9-2-2-2c-1.1,0-2,0.9-2,2
		C236.9,21.7,237.8,22.6,238.9,22.6z"/>
	<path style="opacity:0.2;fill-rule:evenodd;clip-rule:evenodd;" d="M34.9,51.1c-1.6,5.1-3.1,84.1-0.8,78.7
		C36.4,124.3,37.6,46.8,34.9,51.1z"/>
	<path style="opacity:0.2;fill-rule:evenodd;clip-rule:evenodd;" d="M69.2,51.5c-0.8,2-3.7,20.2-8,38.7c-5,21.7-11.2,43.8-8.9,40.2
		c2-3.1,8.2-21.4,12-39.7C68.8,69.1,70.7,47.7,69.2,51.5z"/>
	<path style="opacity:0.2;fill-rule:evenodd;clip-rule:evenodd;" d="M108.8,55.1c-1.5,1.4-10.1,22.6-19,41.5
		c-8.4,17.7-17.3,33.3-15.4,31.9c3.2-2.5,11.7-15.8,18.6-30.1C103.6,76.5,112.6,51.7,108.8,55.1z"/>
	<path style="opacity:0.2;fill-rule:evenodd;clip-rule:evenodd;" d="M33.1,150.7c-1.6,4.5-3.5,92.4,0.3,86.4
		C37.1,231.2,35.8,143,33.1,150.7z"/>
	<path style="opacity:0.2;fill-rule:evenodd;clip-rule:evenodd;" d="M46.9,155.6c-1.6,4.5-3.3,81.8,0.5,75.9
		C51.2,225.5,49.6,147.9,46.9,155.6z"/>
	<path style="opacity:0.2;fill-rule:evenodd;clip-rule:evenodd;" d="M62.3,154c-1.6,4.5-3.3,85.9,0.5,79.9
		C66.7,228,65.1,146.2,62.3,154z"/>
	<path style="opacity:0.2;fill-rule:evenodd;clip-rule:evenodd;" d="M224,51.1c1.6,5.1,3.1,84.1,0.8,78.7
		C222.4,124.3,221.2,46.8,224,51.1z"/>
	<path style="opacity:0.2;fill-rule:evenodd;clip-rule:evenodd;" d="M189.6,51.5c0.8,2,3.7,20.2,8,38.7c5,21.7,11.2,43.8,8.9,40.2
		c-2-3.1-8.2-21.4-12-39.7C190,69.1,188.1,47.7,189.6,51.5z"/>
	<path style="opacity:0.2;fill-rule:evenodd;clip-rule:evenodd;" d="M150,55.1c1.5,1.4,10.1,22.6,19,41.5
		c8.4,17.7,17.3,33.3,15.4,31.9c-3.2-2.5-11.7-15.8-18.6-30.1C155.3,76.5,146.3,51.7,150,55.1z"/>
	<path style="opacity:0.2;fill-rule:evenodd;clip-rule:evenodd;" d="M225.8,150.7c1.6,4.5,3.5,92.4-0.3,86.4
		C221.7,231.2,223,143,225.8,150.7z"/>
	<path style="opacity:0.2;fill-rule:evenodd;clip-rule:evenodd;" d="M212,155.6c1.6,4.5,3.3,81.8-0.5,75.9
		C207.6,225.5,209.2,147.9,212,155.6z"/>
	<path style="opacity:0.2;fill-rule:evenodd;clip-rule:evenodd;" d="M196.5,154c1.6,4.5,3.3,85.9-0.5,79.9
		C192.2,228,193.8,146.2,196.5,154z"/>
	<path style="opacity:0.2;fill-rule:evenodd;clip-rule:evenodd;" d="M229.3,44c-5,6.4-24.4,6.4-29.1,0c-5.6-7.2-22.7-6.4-27.7,0
		s-24,6.4-28.7,0c-5.7-7.2-22.7-6.4-27.7,0c-5,6.4-24,6.4-28.7,0c-5.7-7.2-22.7-6.4-27.7,0c-5,6.4-24,6.4-28.7,0
		c-0.7-7.8-1.8-21.9,0.2-26.1l197.1,0C230.7,22.2,230,36.2,229.3,44z"/>
	<path style="opacity:0.2;fill-rule:evenodd;clip-rule:evenodd;" d="M230.6,143.4c-4.6,4.4-31.6,9.7-41.1,5.8
		c-1.6-0.9-1-5.9-2.1-9.5c-0.9-3-4.5-5.4-3.2-7.5c7.5,4.7,41.8,4.9,46.3,0.5C231.3,134.8,231.5,140.9,230.6,143.4z"/>
	<path style="opacity:0.2;fill-rule:evenodd;clip-rule:evenodd;" d="M28.5,143.4c4.6,4.4,31.6,9.7,41.1,5.8c1.6-0.9,1-5.9,2.1-9.5
		c0.9-3,4.5-5.4,3.2-7.5c-7.5,4.7-41.8,4.9-46.3,0.5C27.8,134.8,27.6,140.9,28.5,143.4z"/>
	<path style="opacity:0.2;fill-rule:evenodd;clip-rule:evenodd;" d="M188,142.8c-0.1-1.1-0.3-2.2-0.6-3.1c-0.3-1-1-2-1.6-2.9
		c5.6,2.1,26.7,5.3,32.1,4.7c5.5-0.6,8,0,3,1.4C216,144.2,201.1,145.8,188,142.8z"/>
	<path style="opacity:0.2;fill-rule:evenodd;clip-rule:evenodd;" d="M71.1,142.8c0.1-1.1,0.3-2.2,0.6-3.1c0.3-1,1-2,1.6-2.9
		c-5.6,2.1-26.7,5.3-32.1,4.7c-5.5-0.6-8,0-3,1.4C43.1,144.2,58,145.8,71.1,142.8z"/>
</g>
</svg>
