<?xml version="1.0" encoding="utf-8"?>
<!-- Generator: Adobe Illustrator 22.1.0, SVG Export Plug-In . SVG Version: 6.00 Build 0)  -->
<svg version="1.1" id="Layer_1" xmlns="http://www.w3.org/2000/svg" xmlns:xlink="http://www.w3.org/1999/xlink" x="0px" y="0px"
	 viewBox="0 0 256 256" style="enable-background:new 0 0 256 256;" xml:space="preserve">
<g>
	<rect x="124.6" y="19" style="fill:#00A9AC;" width="28.4" height="20"/>
	<path style="fill:#00A9AC;" d="M96.6,198.9V147c0-8.1,6.6-14.6,14.6-14.6h75c-0.1-13.7-0.3-23.1-0.7-24.6
		c-1.7-5.2-19-50.6-22.2-58.9h-48.1c-14.8,21-36.6,53.4-38,58.8c-1.3,5.2-0.8,78.6-0.1,131.8c0.1,3.9,3.2,6.9,7,6.9h94.3
		c3.9,0,7-3.1,7-7c0.1-8.3,0.2-17.1,0.3-26h-74.6C103.2,213.5,96.6,207,96.6,198.9z M149.5,64.1c1.3-0.6,2.7-0.9,4.1-0.9
		c4,0,7.5,2.4,8.9,6.1l13.2,33.3c1.9,4.7-0.1,9.9-4.6,12.1l-0.5,0.3c-1.3,0.7-2.8,1-4.3,1c0,0,0,0,0,0c-4,0-7.6-2.5-9-6.2
		l-12.7-33.6C142.8,71.5,145,66.2,149.5,64.1z"/>
</g>
</svg>
