<?xml version="1.0" encoding="utf-8"?>
<!-- Generator: Adobe Illustrator 22.1.0, SVG Export Plug-In . SVG Version: 6.00 Build 0)  -->
<svg version="1.1" id="Layer_1" xmlns="http://www.w3.org/2000/svg" xmlns:xlink="http://www.w3.org/1999/xlink" x="0px" y="0px"
	 viewBox="0 0 256 256" style="enable-background:new 0 0 256 256;" xml:space="preserve">
<g>
	<path style="opacity:0.2;" d="M223.8,144.3c-4.1,8.4-27.5,44-42.8,56.3l-2.2-0.7l0,0l2.2,6.3c0,0,28.5-17.2,41-37.9
		c0,0,4.8-6.4,5.4-20.1c0.3-7.8,0.3-13.3,0.2-16.7C226.5,136.9,225.2,141.5,223.8,144.3z"/>
	<path style="opacity:0.2;" d="M214.3,147.2c0.8-1.5,1.6-3.1,2.3-4.6c12.5-26.3,11.3-50.8-18.5-60.3c-29.9-9.6-46-9.2-64.9-5.8
		c-18.9,3.4-50,21.9-58.5,28.1c-8.6,6.2-47.7,37.1-50.4,43.9c24.6-19.4,80.1-32.8,128.7-32.8C195.1,115.7,210.9,140.6,214.3,147.2z"
		/>
	<polygon style="fill:#4D4D4D;" points="19.7,146.9 6.6,154.1 160.7,221 181,200.7 	"/>
	<polygon style="fill:#2C2C2C;" points="181,206.3 160.7,221 181,200.7 	"/>
</g>
</svg>
