<?xml version="1.0" encoding="utf-8"?>
<!-- Generator: Adobe Illustrator 22.1.0, SVG Export Plug-In . SVG Version: 6.00 Build 0)  -->
<svg version="1.1" id="Layer_1" xmlns="http://www.w3.org/2000/svg" xmlns:xlink="http://www.w3.org/1999/xlink" x="0px" y="0px"
	 viewBox="0 0 256 256" style="enable-background:new 0 0 256 256;" xml:space="preserve">
<g>
	<path style="fill:#2DC1FF;" d="M19.7,146.9c0,0,21.5-26.3,47.8-44.2s40.6-25.1,60.9-29.9s44.2-1.2,44.2-1.2s7.2,2.4,14.3-11.9
		s16.7-35.8,41.8-38.2c0,0,15.5,1.2,14.3,11.9s-3.6,13.1-19.1,17.9s-23.5,13.5-26.9,18.5c-3.4,5,1.3,8.2,5.9,9.3s18.3,9.4,23.6,21.5
		s1.3,35.3-2.8,43.7s-27.5,44-42.8,56.3l-6.5-2.2c0,0,29.6-29.7,42.1-56s11.3-50.8-18.5-60.3s-46-9.2-64.9-5.8
		c-18.9,3.4-50,21.9-58.5,28.1c-8.6,6.2-47.7,37.1-50.4,43.9L19.7,146.9z"/>
	<path style="fill:#2AB5EC;" d="M174.5,198.5c0,0,26.3-26.4,39.7-51.4c-3.4-6.5-19.1-31.5-61.4-31.5c-48.6,0-104,13.4-128.7,32.8
		l-1.7-0.6l-1.4,0.8l149.6,55.8l6.3-5.2L174.5,198.5z"/>
	<path style="fill:#2DC1FF;" d="M223.8,144.3c-4.1,8.4-27.5,44-42.8,56.3l-2.2-0.7l0,0l2.2,6.3c0,0,28.5-17.2,41-37.9
		c0,0,4.8-6.4,5.4-20.1c0.3-7.8,0.3-13.3,0.2-16.7C226.5,136.9,225.2,141.5,223.8,144.3z"/>
	<path style="fill:#2DC1FF;" d="M214.3,147.2c0.8-1.5,1.6-3.1,2.3-4.6c12.5-26.3,11.3-50.8-18.5-60.3c-29.9-9.6-46-9.2-64.9-5.8
		c-18.9,3.4-50,21.9-58.5,28.1c-8.6,6.2-47.7,37.1-50.4,43.9c24.6-19.4,80.1-32.8,128.7-32.8C195.1,115.7,210.9,140.6,214.3,147.2z"
		/>
</g>
</svg>
