<?xml version="1.0" encoding="utf-8"?>
<!-- Generator: Adobe Illustrator 22.1.0, SVG Export Plug-In . SVG Version: 6.00 Build 0)  -->
<svg version="1.1" id="Layer_1" xmlns="http://www.w3.org/2000/svg" xmlns:xlink="http://www.w3.org/1999/xlink" x="0px" y="0px"
	 viewBox="0 0 256 256" style="enable-background:new 0 0 256 256;" xml:space="preserve">
<g>
	<g style="opacity:0.2;">
		<path d="M159.7,116c0-13.1,4.1-35.2-5.4-45.9c-4.9-5.6-13.8-7.3-21.4-7.7c0-1.7-0.5-3.3-0.1-4.9c0.4-1.9,2.8-0.3,1.7-3
			c-0.2-0.6-0.8-1.1-1.5-1.4c0.2,0.7,0.1,1.6-0.4,2.2c-1.2,1.5-2.4,0.5-2.9,2.3c-0.3,1.2-0.1,3.3,0,4.5c0,0.1,0,0.3,0.1,0.4
			c0,0.1,0.1,0.2,0.1,0.4c0.1,0.2,0.1,0.4,0.2,0.6h0.2c0.3,0.3,0.8,0.6,1.4,0.8c4.6,2.3,11.7,4.6,13.8,9.4
			c2.3,5.4,1.3,14.2,1.6,20.3c1.7,36.7,0.4,73.5,2.2,110.1c0.3,6.3,1.9,15.1-1.4,20.7c-6.8,11.3-21.7,10.3-32.7,12.5
			c-5.6,1.1-12.8,0.9-17.6-2.1c-2.5-1.6-5.4-3.6-7.8-6c0.1,0.8,0.4,1.6,0.7,2.2c1.8,3.7,7.4,6.2,10.6,8.3c5.7,3.8,11.5,4.4,18.3,2.6
			c3.9-1,5.3-1.1,9.1,0.7c3.1,1.4,6.2,2.2,9.9,1.6c3.5-0.6,4.8-3.4,7.8-4.6c3.8-1.5,5.3,0.2,8.5-3.5c4.8-5.5,4.8-13.9,4.7-21
			C159.3,182.2,159.7,148.7,159.7,116z"/>
		<path d="M125.7,29.9c3.4,3.3,0.6,8.1,3,11.5c0,0,0,0,0,0c2-0.7,3.5-2.2,3.4-5.4c-0.1-4.1-4.1-7.8-6.7-10.4
			c-1.5-1.5-3.3-2.9-5.2-4.2C119.8,25.6,123.5,27.7,125.7,29.9z"/>
	</g>
	<path style="fill:#C2C1C1;" d="M83.5,42.4c0.3,0.1,0.4,1.6,0.4,2.9c5.3-1.9,12.6-0.8,18.3-1.3c3.8-0.3,9.9-0.1,13.5-1.4
		c0-1.1-0.2-2.1-0.7-3.1c-6.3-0.3-13.1-0.3-19.3,0.3c-4.1,0.4-8.8,3-12.6,2.9L83.5,42.4z"/>
	<path style="fill:#C2C1C1;" d="M119.7,54.4c-0.3-1.5,0.7-4.9-0.4-6.4c-1.2-1.7-3.8-1-5.1-2.3c-1.5-1.4-1.2-3.7,0.7-4.8
		c1.9-1.1,4.5,0.3,6.5,0.3c4.6,0.1,8.8-1.3,13.2-1.9c1.4-0.2,5.6-0.8,6.8,0.3c1.3,1.2,0.7,4.9,0.6,6.7c-2-0.9-6.3,1-8.3,1.7
		c-3.6,1.2-3.4,2.1-3.6,6.1c-3.2,0.9-7.2,0.4-10.6,0.4H119.7z"/>
	<path style="opacity:0.1;fill:#FFFFFF;" d="M106.1,78.2c1.2-3.8,5.6-5.4,6.4-9.3c-0.6-0.3-1.8-0.1-2-0.1l-2.3-0.1
		c-5.6,1.2-6.3,0.9-9.7,4.7c-3.9,4.4-3.3,8.9-3.3,15.2c0,14.4-0.6,28.6,0,42.8c0.2,5.6,0.1,11,0.7,16.5c0.3,2.8,0.3,5.6,0.6,8.4
		c0.2,2.4-0.2,67.2,1.3,68.9c2.2,2.5,5.9,1.5,9.6,1.3c0.4-24-1.6-109.2-1.6-133.5C105.8,88.6,104.8,82.4,106.1,78.2z"/>
	<path style="fill:#3D363A;" d="M89.4,161.3c14.5-0.8,30.7-0.3,43.1-0.5c14.8-0.2,25.3-1.7,39.3-2c0.2,3.1,0.2,6.4,0,9.5
		c-14.4,0.6-28.6,1.5-42.6,2.7c-12.7,1.1-41.3,1.3-43.4-0.8C83.5,167.7,83.4,160.8,89.4,161.3L89.4,161.3z"/>
	<path style="fill:#3D363A;" d="M139.4,47.5c9.5-0.4,17.9-1.7,26.4,3.3c10.3,6.1,13.5,18.2,14.5,29.3c1.8,20-9.6,36.1-15.9,54
		c-6.3,18.1-5,38.7-3.2,57.4c1.4,14.6,2.2,29.6,5.1,44c1.3,6.1,10.6,3.5,9.3-2.6c-3.9-19-5.2-40-6-59.3c-0.5-12.5,0.6-25,4.1-37
		c2.8-9.9,8.9-18.7,12.1-28.5c5.5-16.6,5.9-35.8-2-51.6c-3.4-6.8-9.7-12-16.1-15.8c-8.9-5.2-18.6-3.3-28.4-2.9
		C133.2,38.1,133.2,47.8,139.4,47.5L139.4,47.5z"/>
	<path style="fill:#3D363A;" d="M179.7,225.3c-0.5-2.7-1.4-5.3-2-7.5c-1.9-7-4.6-13.5-10.2-18.3c-0.5-0.4-0.9-0.9-1.4-1.2l-1,0.3
		c-1.2,3.6-3.2,6.1-3.9,9.7c-0.7,3.8-0.6,7.4,0,11.3c0.7,5-0.6,17.3,5.3,19.7c4.1,1.7,11.3-1.9,13-5.9
		C180.4,231,180.3,228.1,179.7,225.3z"/>
	<path style="fill:#3D363A;" d="M122.9,43.4c-0.2,0-0.5-0.1-0.7-0.2c-4.5-3-5.5-6.3-3.4-11c0.6-1.4,5-7.3,8.7-7.3c0,0,0,0,0,0
		c0.8,0,2.3,0.3,3.1,2.3c0.3,0.7,0,1.4-0.7,1.7c-0.7,0.3-1.4,0-1.7-0.7c-0.3-0.7-0.5-0.8-0.8-0.7c-1.9,0-5.7,4.5-6.3,5.8
		c-1.6,3.6-0.9,5.5,2.5,7.9c0.6,0.4,0.7,1.2,0.3,1.8C123.7,43.2,123.3,43.4,122.9,43.4z"/>
	<path style="fill:#C2C1C1;" d="M113.9,37.9c-3.4,0-7.1-2-7.2-6.4c0-1.8,0.5-3.2,1.5-4.2c1-1,2.4-1.5,4.1-1.5c2.3,0,4.7,1,6.3,2.7
		c0.4,0.4,0.8,0.9,1.1,1.4l0-0.2l0.1,0.4c0.7,1.1,1,2.4,0.9,3.8l-0.1,2.5l-0.5-2.1c-0.2,0.7-0.6,1.3-1.2,1.9
		C117.7,37.2,115.9,37.9,113.9,37.9z M112.3,26.4c-1.5,0-2.7,0.5-3.6,1.3c-0.9,0.9-1.3,2.1-1.3,3.7c0,3.9,3.4,5.7,6.5,5.7
		c1.8,0,3.5-0.6,4.5-1.7c0.8-0.8,1.2-1.9,1.2-3.1l0-1c-0.4-1.1-1-2-1.6-2.5C116.6,27.4,114.4,26.4,112.3,26.4z"/>
	<path style="fill:#FFFFFF;" d="M133.9,42.4C134.1,42,134.1,42.1,133.9,42.4c-1.6,0-3.2,0-4.7,0.3c0.6,1.1,0.6,2.3,0.6,3.5
		c1.4-0.4,3.2-1.3,4.8-0.7c-0.2-0.9-0.4-2.8-0.3-3.1H133.9z"/>
	<path style="fill:#FFFFFF;" d="M115.5,43.7c3,0.8,6.5,2.5,9.3,0.7c0.1,1.1,0.1,2.3,0,3.5c-2.4-0.1-8.2-1.5-9.3-3.8V43.7z"/>
	<path style="opacity:0.1;fill:#FFFFFF;" d="M116.7,21.4c-3.4-1.8-5.5-3.8-9-5.2c-2.5-1-5.6-3.3-8.3-3.2c0.7,2.3,6.3,4.2,8.3,5.3
		c3.2,1.8,5.9,3.2,9.3,3.9C117.2,21.3,116.7,21.4,116.7,21.4L116.7,21.4z"/>
	<g>
		<path style="fill:#5E5E5E;" d="M151,39.7c-2.4,0.1-4.9-0.1-7.3-0.1c-1.2,0-2.5,0.1-3.7,0.2c-1,0.1-2.8,0.4-2.2,1.9
			c0.3,0.8,1.2,1.1,2,1.2c1.9,0.3,4-0.1,5.9-0.4c1.1-0.2,2.1-0.4,3.2-0.5c0.5-0.1,1.1-0.1,1.6-0.1c3.2,0,6.2,0.8,9.4,0.8
			c0.7,0,2.5,0.5,2.6-0.7c0.1-1.1-1.9-1.6-2.7-1.8c-1-0.3-2.1-0.4-3.2-0.5C154.6,39.6,152.8,39.6,151,39.7z"/>
	</g>
	<path style="fill:#6B6B6B;" d="M111.8,161.9C111.8,161.9,111.7,161.8,111.8,161.9c-0.5-0.5-1.5-0.2-2-0.2c-1.2,0-2.4,0.1-3.6,0.1
		c-2.4,0.1-4.8,0.1-7.2,0.1c-2.3-0.1-4.7-0.2-7,0c-1.2,0.1-2.5,0.2-3.7,0.5c-1.5,0.4-2,1.7-2.1,3.1c-0.1,0.8-0.7,2.9,0.3,3.4
		c1.1,0.6,2.2-0.6,2.5-1.4c0.4-1,0.6-2.2,1.6-2.9c1.6-1.1,5.4-0.8,7.4-0.9c3.1-0.1,6.1,0.3,9.2,0.1c0.8-0.1,1.6-0.2,2.3-0.3
		c0.6-0.1,1.7-0.2,2.2-0.6C111.8,162.6,112,162.2,111.8,161.9z"/>
	<path style="fill:#6B6B6B;" d="M177.5,228.4c-1.3-1.2-3-0.7-4.5-0.2c-2,0.7-7,2.1-8,6.6v0.8c0.1,0.9,1.2,1.2,1.9,1.7
		c1.8,0.1,0.1-2.9,0.7-3.9c0.6-1.1,2.3-1.4,3.3-1.7c2.5-0.9,5.6-3.1,6.8,0.1C179.3,231.6,178.3,229.1,177.5,228.4z"/>
	<path style="fill:#282827;" d="M176.7,229c-2.5-1.1-7,1.2-8.9,2.8c-1.7,1.4-2.4,3.4-1.2,5.3l0-0.2c0.5,0.9,2.2,1.1,3.1,1
		c1-0.1,1.9-0.6,2.9-0.8c1-0.2,1.9-0.5,2.7-1.1C177.2,234.6,180.2,230.5,176.7,229z"/>
</g>
</svg>
