<?xml version="1.0" encoding="utf-8"?>
<!-- Generator: Adobe Illustrator 22.1.0, SVG Export Plug-In . SVG Version: 6.00 Build 0)  -->
<svg version="1.1" id="Layer_1" xmlns="http://www.w3.org/2000/svg" xmlns:xlink="http://www.w3.org/1999/xlink" x="0px" y="0px"
	 viewBox="0 0 256 256" style="enable-background:new 0 0 256 256;" xml:space="preserve">
<g>
	<path style="fill:#DE3227;" d="M97.7,235.2c4.9,3.1,12,3.3,17.6,2.1c11-2.2,25.9-1.2,32.7-12.5c3.3-5.5,1.7-14.3,1.4-20.7
		c-1.8-36.7-0.6-73.4-2.2-110.1c-0.3-6.1,0.7-14.9-1.6-20.3c-2.1-4.9-9.2-7.2-13.8-9.4c0-0.5,0-1.3,0-2.1c-0.5,0-1,0-1.5,0
		c-11.6,0.1-23-0.3-32.4,7.1C91,74.8,87.5,87.5,87.8,95.8c1.5,41.7-1.1,83.1,1.8,124.7c0.2,2.6-0.2,5.9,0.4,8.6
		C92.3,231.6,95.2,233.6,97.7,235.2z"/>
	<path style="fill:#DE3227;" d="M125.7,29.9c-2.3-2.2-5.9-4.3-5.4-8.4c-7-5-16.1-8.9-24.1-10.4c-1.1,6.5,12.3,8.9,16.6,12
		c1.1,0.8,3.6,2.1,4.3,3.3c0.3,0.7,0.6,4.6,0.3,5.1c-1.7,3.1-5.6-0.4-8.3,1c1.3,2,3.7,2.2,6,2.8c-0.1,3-11.2,1.2-13.9,1.5
		c-3.7,0.3-7.6,0.4-11.3,1.2c-2.3,0.5-8.1,1.2-9.5,2.4c-0.3,1-0.5,2.1-0.7,3.1c6.7-0.2,13.3-1.3,20.3-1.4c7.6-0.1,14.9,0.5,22.1,0.1
		c2.1-0.1,4.7,0,6.7-0.7c0,0,0,0,0,0C126.3,38,129.1,33.2,125.7,29.9z"/>
	<path style="fill:#DE3227;" d="M129.8,57.5c0.4-1.8,1.7-0.8,2.9-2.3c0.4-0.6,0.6-1.5,0.4-2.2c-2.2-1-6.1-0.8-7.9-0.8
		c-2.5,0-9.3,0.4-9.5,3c-0.1,1.6,2.1,1.6,2.6,3c0.6,1.8,0.1,3.2,0,5.2h11.9c-0.1-0.5-0.3-1-0.4-1.4
		C129.6,60.8,129.5,58.7,129.8,57.5z"/>
	<path style="fill:#DE3227;" d="M159.7,116c0-13.1,4.1-35.2-5.4-45.9c-4.9-5.6-13.8-7.3-21.4-7.7c0-1.7-0.5-3.3-0.1-4.9
		c0.4-1.9,2.8-0.3,1.7-3c-0.2-0.6-0.8-1.1-1.5-1.4c0.2,0.7,0.1,1.6-0.4,2.2c-1.2,1.5-2.4,0.5-2.9,2.3c-0.3,1.2-0.1,3.3,0,4.5
		c0,0.1,0,0.3,0.1,0.4c0,0.1,0.1,0.2,0.1,0.4c0.1,0.2,0.1,0.4,0.2,0.6h0.2c0.3,0.3,0.8,0.6,1.4,0.8c4.6,2.3,11.7,4.6,13.8,9.4
		c2.3,5.4,1.3,14.2,1.6,20.3c1.7,36.7,0.4,73.5,2.2,110.1c0.3,6.3,1.9,15.1-1.4,20.7c-6.8,11.3-21.7,10.3-32.7,12.5
		c-5.6,1.1-12.8,0.9-17.6-2.1c-2.5-1.6-5.4-3.6-7.8-6c0.1,0.8,0.4,1.6,0.7,2.2c1.8,3.7,7.4,6.2,10.6,8.3c5.7,3.8,11.5,4.4,18.3,2.6
		c3.9-1,5.3-1.1,9.1,0.7c3.1,1.4,6.2,2.2,9.9,1.6c3.5-0.6,4.8-3.4,7.8-4.6c3.8-1.5,5.3,0.2,8.5-3.5c4.8-5.5,4.8-13.9,4.7-21
		C159.3,182.2,159.7,148.7,159.7,116z"/>
	<path style="fill:#DE3227;" d="M125.7,29.9c3.4,3.3,0.6,8.1,3,11.5c0,0,0,0,0,0c2-0.7,3.5-2.2,3.4-5.4c-0.1-4.1-4.1-7.8-6.7-10.4
		c-1.5-1.5-3.3-2.9-5.2-4.2C119.8,25.6,123.5,27.7,125.7,29.9z"/>
</g>
</svg>
