<?xml version="1.0" encoding="utf-8"?>
<!-- Generator: Adobe Illustrator 22.1.0, SVG Export Plug-In . SVG Version: 6.00 Build 0)  -->
<svg version="1.1" id="Layer_1" xmlns="http://www.w3.org/2000/svg" xmlns:xlink="http://www.w3.org/1999/xlink" x="0px" y="0px"
	 viewBox="0 0 256 256" style="enable-background:new 0 0 256 256;" xml:space="preserve">
<g>
	<polygon style="fill:#D30A00;" points="180,129 144.5,129 144.5,93.5 110.5,93.5 110.5,129 75,129 75,163 110.5,163 110.5,198.5 
		144.5,198.5 144.5,163 180,163 	"/>
	<path d="M100.5,79.5V67.1c0-5.3,4.3-9.6,9.6-9.6h33.8c5.3,0,9.6,4.3,9.6,9.6v12.4h6.6V63.1c0-5.3-4.3-9.6-9.6-9.6h-47
		c-5.3,0-9.6,4.3-9.6,9.6v16.4H100.5z"/>
	<path d="M207.5,79.5v-3c0-1.7-1.3-3-3-3h-10c-1.7,0-3,1.3-3,3v3H207.5z"/>
	<path d="M68.5,79.5v-3c0-1.7-1.3-3-3-3h-10c-1.7,0-3,1.3-3,3v3H68.5z"/>
</g>
</svg>
