<?xml version="1.0" encoding="utf-8"?>
<!-- Generator: Adobe Illustrator 22.1.0, SVG Export Plug-In . SVG Version: 6.00 Build 0)  -->
<svg version="1.1" id="Layer_1" xmlns="http://www.w3.org/2000/svg" xmlns:xlink="http://www.w3.org/1999/xlink" x="0px" y="0px"
	 viewBox="0 0 256 256" style="enable-background:new 0 0 256 256;" xml:space="preserve">
<g>
	<path style="opacity:0.2;" d="M130.5,17.8v88.6v6.3v0l-31.3,0l0,10h31.3v117.5h25.6c3.2,0,5.8-2.6,5.8-5.8V122.7v-10l0,0h3.3
		c3.2,0,5.8-2.6,5.8-5.8V17.8H130.5z"/>
	<path style="fill:#EE4036;" d="M130.5,70.4c-5.9,0-10.6,4.8-10.6,10.6c0,5.9,4.8,10.6,10.6,10.6c5.9,0,10.6-4.8,10.6-10.6
		C141.2,75.1,136.4,70.4,130.5,70.4z"/>
	<rect x="90.1" y="17.8" style="fill:#464851;" width="80.8" height="26.1"/>
	<rect x="130.5" y="17.8" style="fill:#282F39;" width="40.4" height="26.1"/>
	<path style="fill:#E1F3FC;" d="M159.8,17.8c-8.6-4.9-18.6-7.7-29.2-7.7s-20.6,2.8-29.2,7.7H159.8z"/>
	<rect x="99.2" y="216.4" style="fill:#464851;" width="62.7" height="8.1"/>
	<rect x="130.5" y="216.4" style="fill:#282F39;" width="31.3" height="8.1"/>
</g>
</svg>
