<?xml version="1.0" encoding="utf-8"?>
<!-- Generator: Adobe Illustrator 22.1.0, SVG Export Plug-In . SVG Version: 6.00 Build 0)  -->
<svg version="1.1" id="Layer_1" xmlns="http://www.w3.org/2000/svg" xmlns:xlink="http://www.w3.org/1999/xlink" x="0px" y="0px"
	 viewBox="0 0 256 256" style="enable-background:new 0 0 256 256;" xml:space="preserve">
<path style="fill:#A0B3B5;" d="M145.5,30.5c0,0,4,15,4,22v29.8c0,5.2-1.3,10.4-3.9,14.9c-1.7,2.9-3.9,5.9-6.6,7.5l-1.9,69.1
	c-0.1,2.9,0.2,5.9,0.9,8.7l5.4,23.4c1,4.3,1.4,8.8,1.1,13.2c-0.5,6.5-2.1,14.7-7.4,15.3h-6.4c0,0-10-4.3-7.6-23.1l6.3-26.3
	c0.7-3,1-6.1,0.9-9.2l-2.2-71c0,0-7.9-8.2-9.5-15.3c-0.1-0.3-0.1-0.6-0.2-0.8c-0.8-5.3-0.4-24.2-0.2-33.8c0.1-3.7,0.5-7.4,1.3-11.1
	l2.7-12.7l1.9-0.6l0.4,49.8l4.3-0.5l-0.1-49.3h2.9l0.4,49.1l4.3,0.1l0.1-49.3h2.8v49.3h4.3l0.8-49.3H145.5z"/>
</svg>
