<?xml version="1.0" encoding="utf-8"?>
<!-- Generator: Adobe Illustrator 22.1.0, SVG Export Plug-In . SVG Version: 6.00 Build 0)  -->
<svg version="1.1" id="Layer_1" xmlns="http://www.w3.org/2000/svg" xmlns:xlink="http://www.w3.org/1999/xlink" x="0px" y="0px"
	 viewBox="0 0 256 256" style="enable-background:new 0 0 256 256;" xml:space="preserve">
<g>
	<path style="opacity:0.2;" d="M16.7,141.9l0.9,12.3c0.2,2.5,2.3,4.5,4.8,4.5h209c2.7,0,4.8-2.2,4.8-4.8v-11.1
		c0-2.7-2.1-4.8-4.8-4.8l-210-1.3C18.7,136.7,16.5,139.1,16.7,141.9z"/>
	
		<line style="fill:none;stroke:#000000;stroke-width:5;stroke-linecap:round;stroke-miterlimit:10;" x1="106" y1="148.3" x2="146.3" y2="148.3"/>
	<circle style="fill:#050505;" cx="177.8" cy="147.7" r="8.7"/>
	
		<line style="fill:none;stroke:#000000;stroke-width:5;stroke-linecap:round;stroke-miterlimit:10;" x1="171" y1="153.1" x2="177.8" y2="147.7"/>
	<circle style="fill:#050505;" cx="68.8" cy="147.7" r="8.7"/>
	
		<line style="fill:none;stroke:#000000;stroke-width:5;stroke-linecap:round;stroke-miterlimit:10;" x1="62" y1="153.1" x2="68.8" y2="147.7"/>
	<ellipse style="opacity:0.2;" cx="73.5" cy="109.5" rx="32.8" ry="12.8"/>
	<ellipse style="opacity:0.2;" cx="177.8" cy="109.5" rx="32.8" ry="12.8"/>
	<ellipse style="fill:#EAE54E;" cx="73.5" cy="109.5" rx="14.2" ry="5.5"/>
	<ellipse style="fill:#EAE54E;" cx="177.8" cy="109.5" rx="14.2" ry="5.5"/>
	<path style="opacity:0.2;" d="M215,98.7c0,0,13.7,20.6-13,26.3h31l-17.3-28.3L215,98.7z"/>
	<path style="opacity:0.2;" d="M37.3,98.7c0,0-13.7,20.6,13,26.3h-31l17.3-28.3L37.3,98.7z"/>
	<path style="opacity:0.2;" d="M106,96.7l39,0c-8.5,2.3-10.7,20,1.4,28.2l-42,0C115.7,120.3,116.7,101.3,106,96.7z"/>
</g>
</svg>
