<?xml version="1.0" encoding="utf-8"?>
<!-- Generator: Adobe Illustrator 22.1.0, SVG Export Plug-In . SVG Version: 6.00 Build 0)  -->
<svg version="1.1" id="Layer_1" xmlns="http://www.w3.org/2000/svg" xmlns:xlink="http://www.w3.org/1999/xlink" x="0px" y="0px"
	 viewBox="0 0 256 256" style="enable-background:new 0 0 256 256;" xml:space="preserve">
<path style="fill:#EFA66A;" d="M242.2,178.3c-0.7-1.1-1.7-2.1-2.9-2.6c-9.4-4.3-54.5-25.4-73.3-44.2c-19-19-20-22.4-34.8-22.2l0,0
	L131,99c0,0,14-6,13-17s-8-16-17-16s-18,10-15,17s7.5,0.5,7.5,0.5s1-12,9-9s8,8,3,14s-8,1-8,10c0,4.8,0,8.5,0,10.8
	c-16-0.4-16.5,2.7-36,22.2c-18.8,18.8-63.9,39.9-73.3,44.2c-1.2,0.6-2.2,1.5-2.9,2.6c-4,6.6-2.2,9.7,0,11c1.5,1,3.4,1.2,5.1,0.7
	c17.7-5,76.5-36.9,85.1-46.5c7.9-8.7,21.9-14.4,25.3-15.7c3.4,1.3,17.4,7,25.3,15.7c8.7,9.6,67.4,41.5,85.1,46.5
	c1.7,0.5,3.6,0.3,5.1-0.7C244.4,188,246.2,184.9,242.2,178.3z"/>
</svg>
