<?xml version="1.0" encoding="utf-8"?>
<!-- Generator: Adobe Illustrator 22.1.0, SVG Export Plug-In . SVG Version: 6.00 Build 0)  -->
<svg version="1.1" id="Layer_1" xmlns="http://www.w3.org/2000/svg" xmlns:xlink="http://www.w3.org/1999/xlink" x="0px" y="0px"
	 viewBox="0 0 256 256" style="enable-background:new 0 0 256 256;" xml:space="preserve">
<g>
	<path style="opacity:0.2;" d="M238.6,160.9c-4-13.1-25-21.6-36.9-24.6c-2-0.8-4.2-1.7-6.3-2.6c-1.9-0.9-3.6-1.7-5.2-2.4
		c-1.1-8.2-4.6-16.1-7.3-23.7c0-0.1-0.1-0.3-0.1-0.4c-0.5,10.4-4.8,20.4-14.8,29.3c-41.5,38.4-107.1,20.6-144.3-16.7
		c-1.7-1.7-3.1-3.8-4.3-6.2c1.2,2.5-1,9.7-1.1,12.5c-0.2,5.1,0,10.3,0.9,15.4c0.2,1.3,0.5,2.5,0.8,3.6c-1.8,4.7-3.4,9.9-0.4,15.2
		c9.8,17.6,28.2,22.1,44.9,24.2c3.1,0.4,6.2,0.7,8.7,0.9c5.6,0.7,11.4,1.2,17.6,1.7c2.8,0.2,5.6,0.4,8.8,0.6l1.3,0.1
		c23.9,1.2,46.4,2.2,69.4,2.6c2.6,0,5.2,0.1,7.8,0.1l0.1,0c4.1-0.3,8.4-0.4,12.6-0.5c8.9-0.2,17.9-0.4,26.1-2.6
		c6.1-1.6,11.8-4.4,16.6-9.2C238.6,172.3,240.3,166.6,238.6,160.9z M231.6,176.2c-10.3,10.3-25.8,10.6-40.8,10.9
		c-4.2,0.1-8.5,0.2-12.7,0.5c-2.6,0-5.2-0.1-7.7-0.1c-23-0.4-45.5-1.5-69.4-2.6l-1.2-0.1c-3.1-0.2-6-0.4-8.7-0.6
		c-6.2-0.5-11.9-1-17.5-1.7c-2.6-0.2-5.6-0.5-8.7-0.9c-16.1-2-33.7-6.3-42.9-22.8c-1.8-3.3-1.5-6.7-0.4-10c3,6.6,8.4,10.9,16.2,13.3
		c24.6,7.6,50.5,12.4,76.3,10.9c16.8-1,33.6-4,49.4-9.8c11.7-4.3,26.6-11.3,27.1-25.9c0-1,0-2,0-3c1.2,0.6,2.4,1.2,3.8,1.8
		c2.2,0.9,4.4,1.9,6.4,2.7l0.2,0.1c10.5,2.7,31.5,10.9,35.1,22.9C237.5,166.4,236,171.3,231.6,176.2z"/>
	<path style="opacity:0.2;" d="M142.8,100c-2.6,0.8-6.7-4.9-8.6-6.4c-3.3-2.6-7-4.9-10.7-6.9c-7.4-4-15.4-7.2-23.6-9.3
		C94.3,76,89.3,77,83.6,76.7c-8.3-0.5-16.7-1.5-25.1-1.4c-4.6,0-9.2,0.6-13.7,1.4c-2.3,0.4-7.8,2.6-10,1.1c-4.4-2.9,0.3-10.2,3.6-12
		c5-2.7,11.5-2.2,16.9-2.9c6.7-0.9,14-0.2,20.7-0.2c6.6,0,14.4,0.5,20.9,1.7c6.9,1.4,13.8,3.5,19.8,7.3c5.6,3.5,10.1,8.2,14.4,13.2
		c3.9,4.5,9.9,9.7,11.3,15.6L142.8,100z"/>
	<path style="opacity:0.2;" d="M131.3,51.6c5,2.9,10,6.3,14.6,10.1c5,1.3,9.8,3.3,13.8,6.6l-0.1-0.4c-4.5-12-18.4-15.1-29.4-18.2
		c-1.7-0.5-3.4-0.9-5.1-1.2C127.2,49.3,129.2,50.4,131.3,51.6z"/>
	<path style="opacity:0.2;" d="M53.2,60.2c11-0.2,22.7-2.2,33.5,0.2c3.7-0.1,7.4-0.1,11.1,0.1c11.7,0.8,23.5,2.8,34.4,7.3
		c12.7,5.2,21.6,15.5,32.3,23.6l-0.6-2.1c-5.7-16-19.6-27.1-33.4-35.3c-11-6.5-23.1-8.8-35.6-10.3c-6.2-0.7-13.2-1.4-19.3,0.2
		c-6.9,1.7-19.8,7-23.4,13.5c-0.6,1.2-0.9,2.1-0.8,2.9C52.1,60.2,52.6,60.2,53.2,60.2z"/>
	<path style="opacity:0.2;" d="M242.9,164.7c0.8,3.9,0.6,7.9-1.2,11.3c-2.4,4.7-6.1,8.6-10.7,11.1c-7,3.9-14.8,5.6-22.7,6.5
		c-2.6,0.3-5.3,0.6-7.9,0.8c-7.5,0.6-13.6,1.3-20.8,1.9c-2.3,0.2-4.6,0.4-6.9,0.5c-4.6,0.3-9.3,0.4-13.9,0.2
		c-11.8-0.3-23.7-0.6-35.5-1.1c-3-0.1-5.9-0.3-8.9-0.4c-26.4-2.3-54-0.3-77.4-11.2c-1.9-0.9-3.7-1.8-5.6-2.8c-3.2-1.6-6-3.4-8.5-5.5
		c-3.7-3.3-6.4-7.9-8.1-12.9c1.4,6.2,4.4,12.1,8.9,16c2.4,2.1,5.2,4,8.5,5.5c1.8,1,3.7,1.9,5.6,2.8c23.4,10.9,51,8.9,77.4,11.2
		c3,0.1,5.9,0.3,8.9,0.4c11.8,0.5,23.7,0.8,35.5,1.1c4.6,0.1,9.3,0,13.9-0.2c2.3-0.1,4.6-0.3,6.9-0.5c7.1-0.6,13.3-1.3,20.8-1.9
		c2.6-0.2,5.3-0.5,7.9-0.8c7.9-1,15.7-2.6,22.7-6.5c4.6-2.6,8.3-6.4,10.7-11.1C244.8,174.8,244.5,169.5,242.9,164.7z"/>
</g>
</svg>
