<?xml version="1.0" encoding="utf-8"?>
<!-- Generator: Adobe Illustrator 22.1.0, SVG Export Plug-In . SVG Version: 6.00 Build 0)  -->
<svg version="1.1" id="Layer_1" xmlns="http://www.w3.org/2000/svg" xmlns:xlink="http://www.w3.org/1999/xlink" x="0px" y="0px"
	 viewBox="0 0 256 256" style="enable-background:new 0 0 256 256;" xml:space="preserve">
<g>
	<path style="fill:#FDE500;" d="M237.4,155.3c-1.9-2.1-4.1-4-6.4-5.6c-9.6-7.1-20.3-12.5-31.6-16.3c-2.2-0.8-4.5-1.4-6.8-2.1
		c-27.8-3.4-51.1-22.6-78.9-22.6c-2.1-0.2-4.2-0.3-6.3-0.3c-2.8-0.1-5.7,0-8.6,0.2c-2.3,0.1-4.5,0.2-6.8,0.4
		c-2.3,0.2-4.6,0.4-6.9,0.6c-2.5,0.3-5,0.6-7.5,1.1c-12.5,2.5-24.9,7.8-36.8,13.4c-2.9,1.5-5.7,3.2-8.4,4.9
		c-2.8,1.7-5.5,3.5-8.1,5.4c-2.1,1.3-4,3.1-5.5,5.3c-1.6,2.1-2.8,4.6-3.6,7.3c-3.1,10.8,0.3,24.7,8.6,32c2.4,2.1,5.2,4,8.5,5.5
		c1.8,1,3.7,1.9,5.6,2.8c23.4,10.9,51,8.9,77.4,11.2c3,0.1,5.9,0.3,8.9,0.4c11.8,0.5,23.7,0.8,35.5,1.1c4.6,0.1,9.3,0,13.9-0.2
		c2.3-0.1,4.6-0.3,6.9-0.5c7.1-0.6,13.3-1.3,20.8-1.9c2.6-0.2,5.3-0.5,7.9-0.8c7.9-1,15.7-2.6,22.7-6.5c4.6-2.6,8.3-6.4,10.7-11.1
		C246.4,171.6,242.8,161.1,237.4,155.3z"/>
	<path style="fill:#FDE500;" d="M130.4,47.4c-6.7-1.9-14.1-3-21-2.6c-14.6,0.9-1.8,10.1,6.2,11.1c14.4,1.7,32.1,2.6,44.1,12.3
		l0.1-2.6C155.2,53.6,141.3,50.5,130.4,47.4z"/>
	<path style="fill:#FDE500;" d="M236.6,152.2c-1.9-2.1-4.1-4-6.4-5.6c-9.6-7.1-20.3-12.5-31.6-16.3c-2.2-0.8-4.5-1.4-6.8-2.1
		c-27.8-3.4-51.1-22.6-78.9-22.6c-2.1-0.2-4.2-0.3-6.3-0.3c-2.8-0.1-5.7,0-8.6,0.2c-2.3,0.1-4.5,0.2-6.8,0.4
		c-2.3,0.2-4.6,0.4-6.9,0.6c-2.5,0.3-5,0.6-7.5,1.1c-12.5,2.5-24.9,7.8-36.8,13.4c-2.9,1.5-5.7,3.2-8.4,4.9
		c-2.8,1.7-5.5,3.5-8.1,5.4c-2.1,1.3-4,3.1-5.5,5.3c-1.6,2.1-2.8,4.6-3.6,7.3c-3.1,10.8,0.3,24.7,8.6,32c2.4,2.1,5.2,4,8.5,5.5
		c1.8,1,3.7,1.9,5.6,2.8c23.4,10.9,51,8.9,77.4,11.2c3,0.1,5.9,0.3,8.9,0.4c11.8,0.5,23.7,0.8,35.5,1.1c4.6,0.1,9.3,0,13.9-0.2
		c2.3-0.1,4.6-0.3,6.9-0.5c7.1-0.6,13.3-1.3,20.8-1.9c2.6-0.2,5.3-0.5,7.9-0.8c7.9-1,15.7-2.6,22.7-6.5c4.6-2.6,8.3-6.4,10.7-11.1
		C245.6,168.4,241.9,158,236.6,152.2z"/>
	<path style="fill:#FDE500;" d="M142.8,100c-2.6,0.8-6.7-4.9-8.6-6.4c-3.3-2.6-7-4.9-10.7-6.9c-7.4-4-15.4-7.2-23.6-9.3
		C94.3,76,89.3,77,83.6,76.7c-8.3-0.5-16.7-1.5-25.1-1.4c-4.6,0-9.2,0.6-13.7,1.4c-2.3,0.4-7.8,2.6-10,1.1c-4.4-2.9,0.3-10.2,3.6-12
		c5-2.7,11.5-2.2,16.9-2.9c6.7-0.9,14-0.2,20.7-0.2c6.6,0,14.4,0.5,20.9,1.7c6.9,1.4,13.8,3.5,19.8,7.3c5.6,3.5,10.1,8.2,14.4,13.2
		c3.9,4.5,9.9,9.7,11.3,15.6L142.8,100z"/>
	<path style="fill:#FDE500;" d="M22.8,94.6c4.1-12.4,11.8-17,20.7-25.5c11.4-10.7,26.1-14,40.6-17.9c7.4-2,11.8-2.9,19.3-1.9
		c7.8,1,15.2,3,23,3.7c5.1,0.4,10.9,0.7,15.8,2.5c9,3.3,18.2,10.7,23.8,18.4c7.2,9.7,12.5,20.8,16.4,32.2c3.3,9.5,8,19.5,7.6,29.8
		c-0.5,13.7-14.9,18.6-26,21.4c-15.9,4-33.1,6-49.4,6.2c-13.2,0.1-26.3-1.4-39.5-1.5c-12.1-0.1-22.7-1.3-34.4-3.6
		c-9.2-1.8-18.9-2.7-20.7-13.8C17.5,128.2,17.6,110.6,22.8,94.6z"/>
	<path style="fill:#FDE500;" d="M131.3,51.6c-11-6.5-23.1-8.8-35.6-10.3c-6.2-0.7-13.2-1.4-19.3,0.2c-6.9,1.7-19.8,7-23.4,13.5
		c-3.8,7,7,5.7,10.7,5.2c11.5-1.5,23.1-2.8,34.8-2c11.7,0.8,23.5,2.8,34.4,7.3c12.7,5.2,20.9,18,31.6,26.1l0.1-4.6
		C159,70.9,145.1,59.7,131.3,51.6z"/>
	<path style="fill:#FDE500;" d="M142.8,96.7c-1.7-6.6-7.5-13.3-12.2-18c-3.4-3.4-5.9-7.2-10.3-9.4c-5.2-2.5-10.5-4.7-16.1-6.2
		c-5.4-1.4-11.1-1.1-16.5-2.4c-11.2-2.8-23.3-0.7-34.6-0.5C47.4,60.3,42.6,62,38,65.5l0.1,2c4.7-0.8,10.2,0.6,15,0.3
		c4.5-0.3,9.2-0.6,13.6,0.1c4.4,0.7,8.6,1.8,13.1,1.7c13.3-0.3,31,1.8,41.7,10.6c1.8,1.5,3.8,2.3,5.7,3.8c3.3,2.6,6.1,5.7,9,8.7
		c2,2,3.4,5.8,5.7,7.1C144.4,101.1,143.2,98.2,142.8,96.7z"/>
</g>
</svg>
