<?xml version="1.0" encoding="utf-8"?>
<!-- Generator: Adobe Illustrator 22.1.0, SVG Export Plug-In . SVG Version: 6.00 Build 0)  -->
<svg version="1.1" id="Layer_1" xmlns="http://www.w3.org/2000/svg" xmlns:xlink="http://www.w3.org/1999/xlink" x="0px" y="0px"
	 viewBox="0 0 256 256" style="enable-background:new 0 0 256 256;" xml:space="preserve">
<g>
	<path style="fill:#DC5C27;" d="M188,52.5H89c-2.5,0-4.5-2-4.5-4.5v0c0-2.5,2-4.5,4.5-4.5h99c2.5,0,4.5,2,4.5,4.5v0
		C192.5,50.5,190.5,52.5,188,52.5z"/>
	<path style="fill:#DC5C27;" d="M192.7,43.5H83.1c-2.2,0-4.1-1.6-4.5-3.7c-1.2-6.5-1.1-13.5,0.2-20.9c0.4-2,2-3.5,4-3.7
		c37.3-4,74-3.7,110.1,0c2.1,0.2,3.8,1.9,4.1,4c0.9,7.3,1.1,14.2,0.2,20.4C196.9,41.8,195,43.5,192.7,43.5z"/>
	<path style="opacity:0.2;" d="M102,96c0,0-4-27,19.5-43.5h-15c0,0,0.5,4.5-8.5,10.5S87,88,87,97s-1,139-1,139h15L102,96z"/>
</g>
</svg>
