<?xml version="1.0" encoding="utf-8"?>
<!-- Generator: Adobe Illustrator 22.1.0, SVG Export Plug-In . SVG Version: 6.00 Build 0)  -->
<svg version="1.1" id="Layer_1" xmlns="http://www.w3.org/2000/svg" xmlns:xlink="http://www.w3.org/1999/xlink" x="0px" y="0px"
	 viewBox="0 0 256 256" style="enable-background:new 0 0 256 256;" xml:space="preserve">
<g>
	<path style="fill:#BABABA;" d="M156.6,144.6h-30.1c0,0-0.7-98.3-0.3-109.1c0.3-10.7,0-19.3,5.4-29.2c4.4,5.4,10.9,20,13.4,33.3
		C147.4,52.8,156.1,104.4,156.6,144.6z"/>
	<path style="fill:#9E9E9E;" d="M128.6,13c-2.3,7.3-2.2,14.2-2.5,22.5c-0.3,10.7,0.3,109.1,0.3,109.1l23.1,0
		c-0.5-40.2-9.2-91.7-11.7-104.9C136.1,30.2,132.3,20.1,128.6,13z"/>
	<path style="opacity:0.2;" d="M143.2,249.6c5.3-3.8,3.5-6.1-0.1-13.4c-3.6-7.3,0.9-4.8,0.9-18c0-13.2,1.1-30.1-1.8-41
		c-2.9-10.8-4.4-11,1.4-16.4c3.2-3.1,3.3-3.9,3.4-5.9c0.1-2,0-10.4,0-10.4l-12.7,0l0,109.4C136.1,253.9,139.2,252.6,143.2,249.6z"/>
</g>
</svg>
