<?xml version="1.0" encoding="utf-8"?>
<!-- Generator: Adobe Illustrator 22.1.0, SVG Export Plug-In . SVG Version: 6.00 Build 0)  -->
<svg version="1.1" id="Layer_1" xmlns="http://www.w3.org/2000/svg" xmlns:xlink="http://www.w3.org/1999/xlink" x="0px" y="0px"
	 viewBox="0 0 256 256" style="enable-background:new 0 0 256 256;" xml:space="preserve">
<path style="fill:#92552A;" d="M147.3,202.4c-2.5-9-2.6-18.5-3.5-27.9c0.1-55,4.7-138.9,2.1-165.7c-4.5-4.1-12.7-5.6-19.2,0.8l0,0
	c0,0,3.4,157.2,3.4,159.8c0,2.6,0.4,23.7,0.8,26.7c0.4,8.3-18.5,6.5-33.1,21.4c-4.4,3.1-20.9,16.7-3.4,28.3
	c16.7,11.7,35.8,6.1,50.3-3.6C156,230.5,158.5,217.7,147.3,202.4z M136.6,25.2c-2.1,0-3.8-1.9-3.8-4.3c0-2.4,1.7-4.3,3.8-4.3
	c2.1,0,3.8,1.9,3.8,4.3C140.4,23.3,138.7,25.2,136.6,25.2z"/>
</svg>
