<?xml version="1.0" encoding="utf-8"?>
<!-- Generator: Adobe Illustrator 22.1.0, SVG Export Plug-In . SVG Version: 6.00 Build 0)  -->
<svg version="1.1" id="Layer_1" xmlns="http://www.w3.org/2000/svg" xmlns:xlink="http://www.w3.org/1999/xlink" x="0px" y="0px"
	 viewBox="0 0 256 256" style="enable-background:new 0 0 256 256;" xml:space="preserve">
<g>
	<path style="opacity:0.2;" d="M96.9,244.9c-1.7-28.8,34.9-38.9,55.1-28.3c-0.2-0.6,0-2.8-0.6-4.3c-2-4.7-2.1-8.1-4.4-10
		c-6.7-0.7-15.3,0-22.4,0.1c-18.2,4.4-55.4,31.3-28,44.3L96.9,244.9z"/>
	<path style="fill:#92552A;" d="M154.3,218.3c3.3,34.5-48.9,44.9-64.1,23.9c29.6,16.7,72.2-8.7,57.6-39.2
		C151.4,207.4,153.3,212.8,154.3,218.3L154.3,218.3z"/>
	<path style="opacity:0.1;fill:#FFFFFF;" d="M154.3,218.3c3.3,34.5-48.9,44.9-64.1,23.9c29.6,16.7,72.2-8.7,57.6-39.2
		C151.4,207.4,153.3,212.8,154.3,218.3L154.3,218.3z"/>
</g>
</svg>
