<?xml version="1.0" encoding="utf-8"?>
<!-- Generator: Adobe Illustrator 22.1.0, SVG Export Plug-In . SVG Version: 6.00 Build 0)  -->
<svg version="1.1" id="Layer_1" xmlns="http://www.w3.org/2000/svg" xmlns:xlink="http://www.w3.org/1999/xlink" x="0px" y="0px"
	 viewBox="0 0 256 256" style="enable-background:new 0 0 256 256;" xml:space="preserve">
<g>
	<path style="fill:#247EA1;" d="M151.5,76.5h23.6c3.1,0,5.8,2.3,6.3,5.4l17.4,109.1c0.4,2.7-1,5.4-3.4,6.5l-43.8,21l-3-6.5
		l38.7-17.5c2.5-1.2,4-3.9,3.5-6.6l-16.3-99c-0.5-3.1-3.2-5.3-6.3-5.3h-15.6L151.5,76.5z"/>
	<path style="fill:#247EA1;" d="M104.9,76.5H81.3c-3.1,0-5.8,2.3-6.3,5.4L57.6,190.9c-0.4,2.7,1,5.4,3.4,6.5l43.8,21l3-6.5
		l-38.7-17.5c-2.5-1.2-4-3.9-3.5-6.6l16.3-99c0.5-3.1,3.2-5.3,6.3-5.3h15.6L104.9,76.5z"/>
	<path style="fill:#247EA1;" d="M128.5,15.5c-9.4,0-17,7.6-17,17s7.6,17,17,17s17-7.6,17-17S137.9,15.5,128.5,15.5z M128.5,45.5
		c-7.2,0-13-5.8-13-13s5.8-13,13-13s13,5.8,13,13S135.7,45.5,128.5,45.5z"/>
	<path style="fill:#247EA1;" d="M152.5,234.5h-50v-16.8c0-4,3.2-7.3,7.3-7.3h35.5c4,0,7.3,3.2,7.3,7.3V234.5z"/>
	<path style="fill:#247EA1;" d="M151,110.5h-46c-0.8,0-1.5-0.7-1.5-1.5v-1c0-0.8,0.7-1.5,1.5-1.5h46c0.8,0,1.5,0.7,1.5,1.5v1
		C152.5,109.8,151.8,110.5,151,110.5z"/>
	<path style="fill:#247EA1;" d="M147,106.5h-38c-0.8,0-1.5-0.7-1.5-1.5l0,0c0-0.8,0.7-1.5,1.5-1.5h38c0.8,0,1.5,0.7,1.5,1.5l0,0
		C148.5,105.8,147.8,106.5,147,106.5z"/>
	<path style="fill:#247EA1;" d="M152.5,77.5h-49V58.7c0-2.3,1.9-4.2,4.2-4.2h40.6c2.3,0,4.2,1.9,4.2,4.2V77.5z"/>
	<path style="fill:#247EA1;" d="M135.5,58.5h-15V45c0-4.1,3.4-7.5,7.5-7.5h0c4.1,0,7.5,3.4,7.5,7.5V58.5z"/>
	<path style="fill:#247EA1;" d="M144,103.5h-32c-0.8,0-1.5-0.7-1.5-1.5l0,0c0-0.8,0.7-1.5,1.5-1.5h32c0.8,0,1.5,0.7,1.5,1.5l0,0
		C145.5,102.8,144.8,103.5,144,103.5z"/>
	<rect x="111.5" y="82.5" style="fill:#247EA1;" width="33" height="18"/>
	<path style="fill:#247EA1;" d="M160.5,239.5h-65c-1.7,0-3-1.3-3-3l0,0c0-1.7,1.3-3,3-3h65c1.7,0,3,1.3,3,3l0,0
		C163.5,238.2,162.2,239.5,160.5,239.5z"/>
	<path style="fill:#247EA1;" d="M160.5,83.5h-65c-1.7,0-3-1.3-3-3v-1.1c0-1.7,1.3-3,3-3h65c1.7,0,3,1.3,3,3v1.1
		C163.5,82.2,162.2,83.5,160.5,83.5z"/>
</g>
</svg>
