<?xml version="1.0" encoding="utf-8"?>
<!-- Generator: Adobe Illustrator 22.1.0, SVG Export Plug-In . SVG Version: 6.00 Build 0)  -->
<svg version="1.1" id="Layer_1" xmlns="http://www.w3.org/2000/svg" xmlns:xlink="http://www.w3.org/1999/xlink" x="0px" y="0px"
	 viewBox="0 0 256 256" style="enable-background:new 0 0 256 256;" xml:space="preserve">
<g>
	<path style="opacity:0.2;" d="M151,110.5h-46c-0.8,0-1.5-0.7-1.5-1.5v-1c0-0.8,0.7-1.5,1.5-1.5h46c0.8,0,1.5,0.7,1.5,1.5v1
		C152.5,109.8,151.8,110.5,151,110.5z"/>
	<path style="opacity:0.2;" d="M147,106.5h-38c-0.8,0-1.5-0.7-1.5-1.5l0,0c0-0.8,0.7-1.5,1.5-1.5h38c0.8,0,1.5,0.7,1.5,1.5l0,0
		C148.5,105.8,147.8,106.5,147,106.5z"/>
	<path style="opacity:0.2;" d="M144,103.5h-32c-0.8,0-1.5-0.7-1.5-1.5l0,0c0-0.8,0.7-1.5,1.5-1.5h32c0.8,0,1.5,0.7,1.5,1.5l0,0
		C145.5,102.8,144.8,103.5,144,103.5z"/>
	<path style="opacity:0.2;" d="M160.5,239.5h-65c-1.7,0-3-1.3-3-3l0,0c0-1.7,1.3-3,3-3h65c1.7,0,3,1.3,3,3l0,0
		C163.5,238.2,162.2,239.5,160.5,239.5z"/>
	<path style="opacity:0.2;" d="M128.5,15.5c-9.4,0-17,7.6-17,17c0,6.5,3.6,12.1,9,15V45c0-0.7,0.1-1.4,0.3-2
		c-3.2-2.4-5.3-6.2-5.3-10.5c0-7.2,5.8-13,13-13s13,5.8,13,13c0,4.7-2.5,8.7-6.1,11c0.1,0.5,0.1,1,0.1,1.5v3c5.9-2.7,10-8.6,10-15.5
		C145.5,23.1,137.9,15.5,128.5,15.5z"/>
	<path style="fill:#C7C2C1;" d="M168.5,160.5c-2-32-17-50-17-50l-0.3,0c-0.1,0-0.1,0-0.2,0h-46c-0.1,0-0.3,0-0.4-0.1l-0.8,0.1
		c0,0-15,18-17,50c-1.9,29.7,4.9,43.8,20.2,50.5c0.8-0.3,1.8-0.5,2.7-0.5h35.5c1,0,2,0.2,2.9,0.6
		C163.6,204.4,170.4,190.2,168.5,160.5z"/>
	<path style="opacity:0.2;" d="M198.8,190.9L181.4,81.9c-0.5-3.1-3.2-5.4-6.3-5.4h-13.9c-0.2-0.1-0.4-0.1-0.7-0.1h-65
		c-0.2,0-0.5,0-0.7,0.1H81.3c-3.1,0-5.8,2.3-6.3,5.4L57.6,190.9c-0.4,2.7,1,5.4,3.4,6.5l43.8,21l3-6.5l-38.7-17.5
		c-2.5-1.2-4-3.9-3.5-6.6l16.3-99c0.5-3.1,3.2-5.3,6.3-5.3h7.3h8.4h48.6h8h7.6c3.1,0,5.8,2.3,6.3,5.3l16.3,99c0.5,2.8-1,5.5-3.5,6.6
		L148.5,212l3,6.5l43.8-21C197.8,196.3,199.2,193.6,198.8,190.9z"/>
</g>
</svg>
