<?xml version="1.0" encoding="utf-8"?>
<!-- Generator: Adobe Illustrator 22.1.0, SVG Export Plug-In . SVG Version: 6.00 Build 0)  -->
<svg version="1.1" id="Layer_1" xmlns="http://www.w3.org/2000/svg" xmlns:xlink="http://www.w3.org/1999/xlink" x="0px" y="0px"
	 viewBox="0 0 256 256" style="enable-background:new 0 0 256 256;" xml:space="preserve">
<g>
	<path style="fill:#575756;" d="M130.5,20.1c0,1.5-1.2,2.7-2.7,2.7c-1.5,0-2.7-1.2-2.7-2.7s1.2-2.7,2.7-2.7
		C129.3,17.4,130.5,18.6,130.5,20.1z"/>
	<path style="fill:#DDC252;" d="M57.8,147c0-50.7,31.3-92,70.3-93.5c-0.7,0-1.5,0-2.2,0c-40,0-72.5,41.9-72.5,93.6
		s32.5,93.6,72.5,93.6c0.7,0,1.5,0,2.2,0C89.1,238.9,57.8,197.7,57.8,147z"/>
	<path style="opacity:0.2;" d="M191.3,140.5c-0.5-8.6-2-16.8-4.3-24.5c-3.1-10.1-7.6-19.3-13.3-27c-1.7-2.4-3.6-4.6-5.5-6.8
		c-1.4-1.5-2.9-3-4.3-4.3c1.9,2.1,3.7,4.3,5.4,6.6c5.7,7.8,10.2,16.9,13.3,27c2.3,7.7,3.8,15.9,4.3,24.5c0.1,2.1,0.2,4.3,0.2,6.5
		c0,46.7-29.4,84.6-65.6,84.6c-14.1,0-27.2-5.7-37.8-15.5c11.4,12.5,26.2,20,42.3,20c36.2,0,65.6-37.9,65.6-84.6
		C191.5,144.8,191.4,142.6,191.3,140.5z"/>
	<path style="fill:#575756;" d="M66.2,101.7h4.2c0.3-0.6,0.5-1.1,0.8-1.7h-3.4L128,16.1l54.4,83.8h-2c0.3,0.6,0.6,1.1,0.9,1.7h2.7
		c0,0,0,0,0,0c0.5,0,0.8-0.4,0.8-0.8c0-0.2-0.1-0.4-0.2-0.6l-55.8-86.1c-0.2-0.2-0.4-0.4-0.7-0.4c-0.3,0-0.5,0.1-0.7,0.4l-61.8,86.2
		c-0.2,0.3-0.2,0.6-0.1,0.9C65.6,101.5,65.9,101.7,66.2,101.7z"/>
	<path style="fill:#F4DE7F;" d="M125.8,53.4c-40,0-72.5,41.9-72.5,93.6c0,51.7,32.5,93.6,72.5,93.6c40,0,72.5-41.9,72.5-93.6
		C198.4,95.3,165.9,53.4,125.8,53.4z M125.8,231.6c-17.4,0-33.1-8.7-44.9-22.9c-4.7-5.7-8.8-12.4-12.1-19.7
		c-4.1-9.2-6.9-19.4-8-30.3c-0.3-3.2-0.6-6.5-0.6-9.8c0-0.6,0-1.3,0-1.9c0-46.8,29.4-84.6,65.6-84.6c16.1,0,30.8,7.5,42.2,19.8
		c2,2.1,3.8,4.4,5.5,6.8c5.7,7.8,10.2,16.9,13.3,27c2.3,7.7,3.8,15.9,4.3,24.5c0.1,2.1,0.2,4.3,0.2,6.5
		C191.4,193.7,162.1,231.6,125.8,231.6z"/>
</g>
</svg>
