<?xml version="1.0" encoding="utf-8"?>
<!-- Generator: Adobe Illustrator 22.1.0, SVG Export Plug-In . SVG Version: 6.00 Build 0)  -->
<svg version="1.1" id="Layer_1" xmlns="http://www.w3.org/2000/svg" xmlns:xlink="http://www.w3.org/1999/xlink" x="0px" y="0px"
	 viewBox="0 0 256 256" style="enable-background:new 0 0 256 256;" xml:space="preserve">
<g>
	<path style="fill:#B8E3FE;" d="M191.4,147c0,46.7-29.4,84.6-65.6,84.6c-17.4,0-33.1-8.7-44.9-22.9c-4.7-5.7-8.8-12.4-12.1-19.7
		c-4.1-9.2-6.9-19.4-8-30.3c-0.3-3.2-0.6-6.5-0.6-9.8c0-0.6,0-1.3,0-1.9c0-46.8,29.4-84.6,65.6-84.6c16.1,0,30.8,7.5,42.2,19.8
		c2,2.1,3.8,4.4,5.5,6.8c5.7,7.8,10.2,16.9,13.3,27c2.3,7.7,3.8,15.9,4.3,24.5C191.4,142.6,191.4,144.8,191.4,147z"/>
</g>
</svg>
