<?xml version="1.0" encoding="utf-8"?>
<!-- Generator: Adobe Illustrator 22.1.0, SVG Export Plug-In . SVG Version: 6.00 Build 0)  -->
<svg version="1.1" id="Layer_1" xmlns="http://www.w3.org/2000/svg" xmlns:xlink="http://www.w3.org/1999/xlink" x="0px" y="0px"
	 viewBox="0 0 256 256" style="enable-background:new 0 0 256 256;" xml:space="preserve">
<g>
	<path style="fill:#119B9C;" d="M167.9,220c-0.1,1.4-0.2,2.8-0.4,4.1c-0.3,2.8-0.8,5.6-1.4,8.4c-1,4.4-6.8,7-10.7,8.3
		c-14.1,4.6-28.3,5.9-42.9,4.9c-3.8-0.2-7.3-1.3-11.1-1.9c-8.7-1.3-17.4-3.6-25.7-6.5c-3.5-1.2-7.5-3.1-9.5-6.4
		c-1.1-1.8-0.7-3-0.6-4.7c0.1-2.9-0.5-5.9-0.3-8.8c0-0.4,0-0.8,0.1-1.1c0.5-6.4,1.2-12.2,2.9-18.4c1.8-6.7,4.3-11.9,7.7-16.5
		c3.8-5.1,8.8-9.5,15.1-14l47.3-0.6c7.4,0.6,13.1,3.7,17.5,8.2c7.3,7.6,10.9,19.3,11.9,30.1C168.2,210,168.2,215,167.9,220z"/>
	<path style="fill:#119B9C;" d="M156.8,50.7c-11,3.4-21.5,3.8-33.2,3.8c-13.3,0-26.4-0.3-39.3-2.7c-7.7-1.4-15.4-3.6-23-6.8
		c-5.7-2.4-2.6-5.6,1.8-8.1c3.5-2,7.9-3.6,9.2-4c0.5-0.2,1.1-0.3,1.7-0.5c0.1,0,0.2,0,0.3-0.1c22-6.7,45.3-8.5,67.5-3.1
		c5.4,1.3,11.9,2.8,17.5,5.6c2.2,1.1,4.2,2.3,5.9,3.8C172.6,45,161.4,49.2,156.8,50.7z"/>
</g>
</svg>
