<?xml version="1.0" encoding="utf-8"?>
<!-- Generator: Adobe Illustrator 22.1.0, SVG Export Plug-In . SVG Version: 6.00 Build 0)  -->
<svg version="1.1" id="Layer_1" xmlns="http://www.w3.org/2000/svg" xmlns:xlink="http://www.w3.org/1999/xlink" x="0px" y="0px"
	 viewBox="0 0 256 256" style="enable-background:new 0 0 256 256;" xml:space="preserve">
<g>
	<path style="fill:#A4B9C2;" d="M166,49c0.2-0.7,2.4-6.9,1.5-6.9c0.9,4.5-7,7.4-10.7,8.6c-11,3.4-21.5,3.8-33.2,3.8
		c-13.3,0-26.4-0.3-39.3-2.7c-7.7-1.4-15.4-3.6-23-6.8c-1.6-0.7-2.5-1.4-2.9-2.2c-0.3,0.1,1.9,2.1,1.6,2.2c0.6,4,3.1,4.7,5.5,8.1
		c6.4,9.2,7.2,12.9,7.2,23.8c0,21.8,5,48,13.4,68.1c2.5,5.9,1.1,14.8,6.5,19.2c5.5,4.5,14.3,3.9,20.9,4.2c8.4,0.4,25.1,4.5,29.1-3.5
		c2.5-4.9,2.6-13.5,4.2-19c1.6-5.4,3.3-10.7,4.5-16.2c2.8-12.9,6.7-25.7,8.7-38.7c1.7-11.6-0.5-22.9,3.8-34.1
		C164.3,55.6,164.1,54.9,166,49z"/>
	<path style="fill:#4F5253;" d="M88.1,154.2c0,0,36.1,11.3,57.8,0c0,0,0.7,11.3-1.4,17.4c0,0-28.7,7.4-55-1.6L88.1,154.2z"/>
	<path style="fill:#4D4C4C;" d="M115.9,35.8c8.1,0.5,16.5,0.1,18-1.7c4-4.6-4.6-7.9-8.1-8.5c-4.8-0.9-9.6,0-14.4-0.2
		c-3.1-0.2-11.2,1.6-12.3,5.3C98.3,33.4,107,35.2,115.9,35.8z"/>
	<path style="fill:#383838;" d="M121.1,27.1c1-1.8,0.3-8.8-1-10c-0.6-0.6-3.6-1.5-4.6-1.6c-2.6-0.3-2.5,0.2-3.4,2.1
		c-1.4,2.8-1.5,7.7,0.9,10.1C114.9,29.6,119.6,30,121.1,27.1z"/>
	<path style="fill:#4D4C4C;" d="M115.3,20.1c7.2,0.5,14.5,0,15.9-1.5c3.6-4-4-7-7.1-7.5c-4.2-0.8-8.5,0-12.7-0.2
		c-2.7-0.2-9.9,1.4-10.9,4.7C99.8,17.9,107.4,19.5,115.3,20.1z"/>
	<path style="fill:#CEDDE2;" d="M79.3,83.6c0.3,5.1,0.9,10.3,1.8,15.3c1.9,10.1,3.3,20.1,6.4,29.9c1,3.2,1.8,10.8,4.6,12.9
		c5.7,4.2,6.7-3.2,6.9-7.3c0.5-10.5-6.2-20.2-7.2-30.5C91.1,96.5,91,88,90.6,81.1c-0.2-3.3,1-8-1.5-10.7
		C82,62.5,79.1,79.4,79.3,83.6z"/>
	<path style="fill:#4D4C4C;" d="M122.6,68.4c1.2,27.5,0,55,0.6,82.4c0,1,1.6,1,1.6,0c-0.6-27.5,0.6-55-0.6-82.4
		C124.2,67.3,122.6,67.3,122.6,68.4L122.6,68.4z"/>
	<path style="fill:#4D4C4C;" d="M118.8,76.5c2.9-0.6,5.9-0.5,8.7,0c1,0.2,1.4-1.3,0.4-1.5c-3.2-0.6-6.4-0.7-9.6,0
		C117.3,75.1,117.8,76.7,118.8,76.5L118.8,76.5z"/>
	<path style="fill:#4D4C4C;" d="M118.8,88.7c2.9-0.6,5.9-0.5,8.7,0c1,0.2,1.4-1.3,0.4-1.5c-3.2-0.6-6.4-0.7-9.6,0
		C117.3,87.4,117.8,88.9,118.8,88.7L118.8,88.7z"/>
	<path style="fill:#4D4C4C;" d="M118.8,100.9c2.9-0.6,5.9-0.5,8.7,0c1,0.2,1.4-1.3,0.4-1.5c-3.2-0.6-6.4-0.7-9.6,0
		C117.3,99.6,117.8,101.1,118.8,100.9L118.8,100.9z"/>
	<path style="fill:#4D4C4C;" d="M118.8,113.1c2.9-0.6,5.9-0.5,8.7,0c1,0.2,1.4-1.3,0.4-1.5c-3.2-0.6-6.4-0.7-9.6,0
		C117.3,111.8,117.8,113.3,118.8,113.1L118.8,113.1z"/>
	<path style="fill:#4D4C4C;" d="M118.8,125.3c2.9-0.6,5.9-0.5,8.7,0c1,0.2,1.4-1.3,0.4-1.5c-3.2-0.6-6.4-0.7-9.6,0
		C117.3,124,117.8,125.5,118.8,125.3L118.8,125.3z"/>
	<path style="fill:#4D4C4C;" d="M118.8,137.5c2.9-0.6,5.9-0.5,8.7,0c1,0.2,1.4-1.3,0.4-1.5c-3.2-0.6-6.4-0.7-9.6,0
		C117.3,136.2,117.8,137.7,118.8,137.5L118.8,137.5z"/>
	<path style="fill:#4D4C4C;" d="M118.8,149.7c2.9-0.6,5.9-0.5,8.7,0c1,0.2,1.4-1.3,0.4-1.5c-3.2-0.6-6.4-0.7-9.6,0
		C117.3,148.4,117.8,150,118.8,149.7L118.8,149.7z"/>
	<path style="fill:#4F5253;" d="M167.9,220c-0.1,1.4-0.2,2.8-0.4,4.1c-0.3,2.8-0.8,5.6-1.4,8.4c-1,4.4-6.8,7-10.7,8.3
		c-14.1,4.6-28.3,5.9-42.9,4.9c-3.8-0.2-7.3-1.3-11.1-1.9c-8.7-1.3-17.4-3.6-25.7-6.5c-3.5-1.2-7.5-3.1-9.5-6.4
		c-1.1-1.8-0.7-3-0.6-4.7c0.1-2.9-0.5-5.9-0.3-8.8c0-0.4,0-0.8,0.1-1.1c0.2,0.1,0.3,0.2,0.4,0.3c3.1,2.1,6.7,4.1,10.1,5.7
		c7.6,3.5,16.5,5.7,24.8,6.1c15.9,0.9,32.3,0.3,47.9-2.6c3.8-0.7,7.7-1.5,11.4-2.5C162.6,222.6,165.3,220.8,167.9,220z"/>
	<path style="fill:#D3D526;" d="M72.2,199.8c-1,5.9,0.6,13.7-2,19.2c-1.9,4-8.9,3.3-9-1.5c0-4.6,1.6-9.1,2.3-13.6
		c0.7-4.5,0-9.4,1.2-13.8c1-3.6,5.7-5,8.8-2.6C76.3,189.9,72.7,196.7,72.2,199.8z"/>
	<path style="fill:#3B3E3F;" d="M194.4,111.4c-2.1,4.4-3.9,9.1-7.4,12.6c-1.7,1.7-4.1,4-6.5,4.6c-1.7,0.5-2.6,0.3-3.7-0.1
		c-0.6-0.2-1.4-0.5-2.4-0.8c6.4-9.8,9.6-26.6,11.5-38.2c0.3-2.2,2.1-6,0.8-7.8c-2.1-2.9-9.7-0.9-12.7-0.5c-4,0.5-8.5,3.6-12.5,3.2
		c-4-0.4-3.5-3.9-2.8-7.4c0.3-1.6,0.8-3.2,0.9-4.6c0.4-4.6-0.1-6.6,4.3-8.6c4-1.8,8.6-1.9,12.9-1.7c7.7,0.3,18,1.2,23.8,7
		C211.5,79.8,199.7,100.6,194.4,111.4z"/>
	<path style="fill:#4F5253;" d="M194.4,111.4c-2.1,4.4-3.9,9.1-7.4,12.6c-1.7,1.7-4.1,4-6.5,4.6c-1.7,0.5-2.6,0.3-3.7-0.1
		c1.3-5.3,5.6-11.5,6.9-14.7c1.7-4.1,3.3-8.2,4.9-12.3c2-5.1,10-27,0.5-28.4c-7.1-1-17.4,1.1-24.4,2.6c-1.6,0.3-4,1.3-6.2,1.3
		c0.3-1.6,0.8-3.2,0.9-4.6c0.4-4.6-0.1-6.6,4.3-8.6c4-1.8,8.6-1.9,12.9-1.7c7.7,0.3,18,1.2,23.8,7
		C211.5,79.8,199.7,100.6,194.4,111.4z"/>
	<path style="fill:#3B3E3F;" d="M164.5,80.8c0.3,3.9-3.3,20-7.2,22.2c-0.8-5.1-0.5-9.6-0.2-14.8c0.1-2.2,0.4-4.6,0.9-6.7
		c0.8-3.6,0.5-3.3,4.6-3.4L164.5,80.8z"/>
	<path style="opacity:0.2;" d="M156.8,50.7c-11,3.4-21.5,3.8-33.2,3.8c-13.3,0-26.4-0.3-39.3-2.7c-7.7-1.4-15.4-3.6-23-6.8
		c-5.7-2.4-2.6-5.6,1.8-8.1c0,1.2,0.5,2.4,1.6,3.5c2.5,2.4,8,2.6,11.1,3.2c13.5,2.6,27.2,4.6,41,4.6c8.3,0,46.4,3.5,42.7-12.5
		c-0.1-0.3-0.2-0.6-0.3-0.9c2.2,1.1,4.2,2.3,5.9,3.8C172.6,45,161.4,49.2,156.8,50.7z"/>
	<path style="opacity:0.2;" d="M145.4,168.1c-0.2,1.2-0.5,2.4-0.9,3.4c0,0-28.7,7.4-55-1.6l-0.1-1.4c-5.6,4.1-10,8.1-13.5,12.8
		c18.9,7.8,46.4,5.2,65.6,0.1c4.7-1.3,10.1-3.3,14.3-6.5C153,171.9,149.5,169.6,145.4,168.1z"/>
</g>
</svg>
