<?xml version="1.0" encoding="utf-8"?>
<!-- Generator: Adobe Illustrator 22.1.0, SVG Export Plug-In . SVG Version: 6.00 Build 0)  -->
<svg version="1.1" id="Layer_1" xmlns="http://www.w3.org/2000/svg" xmlns:xlink="http://www.w3.org/1999/xlink" x="0px" y="0px"
	 viewBox="0 0 256 256" style="enable-background:new 0 0 256 256;" xml:space="preserve">
<g>
	<path style="fill:#707487;" d="M191.1,183.2H29.4c-4.4,0-7.9-3.5-7.9-7.9V72.8c0-4.4,3.5-7.9,7.9-7.9h161.7c4.4,0,7.9,3.5,7.9,7.9
		v102.6C199,179.7,195.5,183.2,191.1,183.2z"/>
	<path style="fill:#AFB9D2;" d="M183.2,171.4L183.2,171.4c2.2,0,3.9-1.8,3.9-3.9V80.7c0-2.2-1.8-3.9-3.9-3.9l0,0
		c-2.2,0-3.9,1.8-3.9,3.9v86.8C179.3,169.6,181,171.4,183.2,171.4z"/>
	<path style="fill:#FFD764;" d="M37.3,171.4h126.2c2.2,0,3.9-1.8,3.9-3.9V80.7c0-2.2-1.8-3.9-3.9-3.9H37.3c-2.2,0-3.9,1.8-3.9,3.9
		v86.8C33.3,169.6,35.1,171.4,37.3,171.4z"/>
	<g>
		<circle style="fill:#E4EAF6;" cx="220.7" cy="165.5" r="9.9"/>
		<circle style="fill:#E4EAF6;" cx="220.7" cy="137.9" r="9.9"/>
	</g>
	<g style="opacity:0.2;">
		<path d="M226.6,112.2h-11.8c-2.2,0-3.9-1.8-3.9-3.9l0,0c0-2.2,1.8-3.9,3.9-3.9h11.8c2.2,0,3.9,1.8,3.9,3.9l0,0
			C230.6,110.5,228.8,112.2,226.6,112.2z"/>
		<path d="M226.6,96.4h-11.8c-2.2,0-3.9-1.8-3.9-3.9l0,0c0-2.2,1.8-3.9,3.9-3.9h11.8c2.2,0,3.9,1.8,3.9,3.9l0,0
			C230.6,94.7,228.8,96.4,226.6,96.4z"/>
		<path d="M226.6,80.7h-11.8c-2.2,0-3.9-1.8-3.9-3.9l0,0c0-2.2,1.8-3.9,3.9-3.9h11.8c2.2,0,3.9,1.8,3.9,3.9l0,0
			C230.6,78.9,228.8,80.7,226.6,80.7z"/>
	</g>
	<path style="fill:#707487;" d="M214.8,195.1c0,2.2,1.8,3.9,3.9,3.9h7.9c2.2,0,3.9-1.8,3.9-3.9v-3.9h-15.8V195.1z"/>
	<path style="fill:#707487;" d="M25.4,191.1C25.4,191.1,25.4,191.1,25.4,191.1l0,3.9c0,2.2,1.8,3.9,3.9,3.9h7.9
		c2.2,0,3.9-1.8,3.9-3.9v-3.9H25.4z"/>
</g>
</svg>
