<?xml version="1.0" encoding="utf-8"?>
<!-- Generator: Adobe Illustrator 22.1.0, SVG Export Plug-In . SVG Version: 6.00 Build 0)  -->
<svg version="1.1" id="Layer_1" xmlns="http://www.w3.org/2000/svg" xmlns:xlink="http://www.w3.org/1999/xlink" x="0px" y="0px"
	 viewBox="0 0 256 256" style="enable-background:new 0 0 256 256;" xml:space="preserve">
<g>
	<path style="fill:#C6C4C6;" d="M121.8,26c-6.4-1.4-12.9-2.1-19.5-2.1c-18.1,0-53.9,3.2-78,25.8C-9,81,13.7,118.3,24.3,129
		S75,165,126,157.7c51-7.3,70.3-34,73.7-58C202.9,76.5,191.8,41.6,121.8,26z"/>
	<path style="fill:#C6C4C6;" d="M126,157.7c-29.3,4.2-54.9-2.3-73.4-10.7c7.6,7.4,23.1,17.5,52.2,19c40.8,2.2,53.1-13.7,55.7-18
		C151,152.3,139.7,155.7,126,157.7z"/>
</g>
</svg>
