<?xml version="1.0" encoding="utf-8"?>
<!-- Generator: Adobe Illustrator 22.1.0, SVG Export Plug-In . SVG Version: 6.00 Build 0)  -->
<svg version="1.1" id="Layer_1" xmlns="http://www.w3.org/2000/svg" xmlns:xlink="http://www.w3.org/1999/xlink" x="0px" y="0px"
	 viewBox="0 0 256 256" style="enable-background:new 0 0 256 256;" xml:space="preserve">
<g>
	
		<ellipse transform="matrix(0.1242 -0.9923 0.9923 0.1242 -5.2702 188.8701)" style="opacity:0.2;" cx="104.4" cy="97.4" rx="46.5" ry="77.2"/>
	<path style="opacity:0.2;" d="M126,157.7c-29.3,4.2-54.9-2.3-73.4-10.7c7.6,7.4,23.1,17.5,52.2,19c40.8,2.2,53.1-13.7,55.7-18
		C151,152.3,139.7,155.7,126,157.7z"/>
	<path style="fill:#111111;" d="M151,156l10.8,10.3c0,0,1.5,11.2,16.3,10.2c0,0,10.3,0.8,23.5,18.8s33.8,38.8,46,32
		s-12.3-32-20.5-40.5s-18-12-30-23.8c0,0-3.9-9.1-11.4-11.7l-8.1-13.8L161,147l-6,5L151,156z"/>
</g>
</svg>
