<?xml version="1.0" encoding="utf-8"?>
<!-- Generator: Adobe Illustrator 22.1.0, SVG Export Plug-In . SVG Version: 6.00 Build 0)  -->
<svg version="1.1" id="Layer_1" xmlns="http://www.w3.org/2000/svg" xmlns:xlink="http://www.w3.org/1999/xlink" x="0px" y="0px"
	 viewBox="0 0 256 256" style="enable-background:new 0 0 256 256;" xml:space="preserve">
<g>
	<polyline style="fill:none;stroke:#808080;stroke-width:3;stroke-miterlimit:10;" points="94.5,51.5 125.4,20.3 156.5,50.5 	"/>
	<path style="fill:#B3B2B3;" d="M119,19.9c0,3.6,2.9,6.4,6.4,6.4c3.6,0,6.4-2.9,6.4-6.4s-2.9-6.4-6.4-6.4
		C121.9,13.4,119,16.3,119,19.9z"/>
	<g>
		<defs>
			<rect id="XMLID_3_" x="53.8" y="71.4" width="141.4" height="136.6"/>
		</defs>
		<use xlink:href="#XMLID_3_"  style="overflow:visible;fill:#F2F2F2;"/>
		<clipPath id="XMLID_2_">
			<use xlink:href="#XMLID_3_"  style="overflow:visible;"/>
		</clipPath>
		<polygon style="clip-path:url(#XMLID_2_);fill:#E5E5E4;" points="51.7,210.8 194.5,72.4 51.7,72.4 		"/>
	</g>
	<rect x="68.8" y="86.3" style="fill:#FFFFFF;" width="109.4" height="107.3"/>
	<g>
		<rect x="68.8" y="86.3" style="fill:#B3B2B3;" width="1.1" height="107.3"/>
		<polygon style="fill:#808080;" points="69.3,193.6 178.4,193.6 178.4,193.6 69.3,193.6 		"/>
		<rect x="68.8" y="86.3" style="fill:#808080;" width="109.4" height="2.1"/>
	</g>
</g>
</svg>
