<?xml version="1.0" encoding="utf-8"?>
<!-- Generator: Adobe Illustrator 22.1.0, SVG Export Plug-In . SVG Version: 6.00 Build 0)  -->
<svg version="1.1" id="Layer_1" xmlns="http://www.w3.org/2000/svg" xmlns:xlink="http://www.w3.org/1999/xlink" x="0px" y="0px"
	 viewBox="0 0 256 256" style="enable-background:new 0 0 256 256;" xml:space="preserve">
<g>
	<rect x="85" y="241" width="89" height="3"/>
	<path d="M87.5,69.5L87.5,69.5c-1.7,0-3-1.3-3-3v-21c0-1.7,1.3-3,3-3l0,0c1.7,0,3,1.3,3,3v21C90.5,68.2,89.2,69.5,87.5,69.5z"/>
	<path d="M87.5,160.5L87.5,160.5c-1.7,0-3-1.3-3-3v-27c0-1.7,1.3-3,3-3l0,0c1.7,0,3,1.3,3,3v27C90.5,159.2,89.2,160.5,87.5,160.5z"
		/>
	<rect x="75.5" y="107" width="107" height="2"/>
	<path style="fill:none;stroke:#000000;stroke-miterlimit:10;" d="M173.3,241.5H84.7c-5.1,0-9.2-4.1-9.2-9.2V28.7
		c0-5.1,4.1-9.2,9.2-9.2h88.7c5.1,0,9.2,4.1,9.2,9.2v203.7C182.5,237.4,178.4,241.5,173.3,241.5z"/>
</g>
</svg>
