<?xml version="1.0" encoding="utf-8"?>
<!-- Generator: Adobe Illustrator 22.1.0, SVG Export Plug-In . SVG Version: 6.00 Build 0)  -->
<svg version="1.1" id="Layer_1" xmlns="http://www.w3.org/2000/svg" xmlns:xlink="http://www.w3.org/1999/xlink" x="0px" y="0px"
	 viewBox="0 0 256 256" style="enable-background:new 0 0 256 256;" xml:space="preserve">
<g>
	<path style="opacity:0.2;fill:#FFFFFF;" d="M145.4,124.7l-34.8,38.1c-5.3,5.8-6.8,14.3-3.2,21.3c2.6,5,7.9,9.9,18.4,12.9
		c28.1,7.9,47.4,14.5,47.4,14.5s21.9,6.6,31.6-10.5s22.4-48.2,22.4-48.2s8.3-16.7-17.1-24.6l-35.1-7.4
		C175,120.8,154.3,114.9,145.4,124.7z"/>
	<path style="opacity:0.2;" d="M121.2,137.5c0,0-28.8-14-46.3-4.2s-35.7,29.9-35.7,29.9l22.7,8.5c6,2.3,12.1,4.2,18.2,2.8
		c6.3-1.5,11.4-3.5,14.4-6.3L109,153L121.2,137.5z"/>
	<path style="opacity:0.2;" d="M120,195c0,0,22.5-49.4,46.6-46s55,16.9,55,16.9L206,198.8c-2.5,5.3-6.3,9.2-11.4,11.6
		c-6.5,2.5-12.7,3.2-18.5,1.8l-19.6-6L120,195z"/>
	
		<line style="fill:none;stroke:#491D54;stroke-width:5;stroke-linecap:round;stroke-miterlimit:10;" x1="123.9" y1="103.9" x2="172.1" y2="114.4"/>
	<path style="fill:none;stroke:#491D54;stroke-width:5;stroke-linecap:round;stroke-miterlimit:10;" d="M167,113.3
		c0,0-4.1-20.6,15.3-15.5"/>
	<path style="fill:none;stroke:#491D54;stroke-width:5;stroke-linecap:round;stroke-miterlimit:10;" d="M126.4,104.4
		c0,0,2.6-17-4.5-16.4c-7.1,0.6-10.2,2.3-10.2,2.3"/>
	<path style="fill:none;stroke:#491D54;stroke-width:5;stroke-linecap:round;stroke-miterlimit:10;" d="M145.5,108.6l-4.7-81.7
		c0,0-2.2-16.6-14-11.9s-9.1,59.3-9.1,59.3"/>
	<path style="opacity:0.2;fill:#FFFFFF;" d="M69.8,103.9c-1,0.4-1.9,1-2.7,1.7l-41.8,34.1c0,0-15.3,13.6,4.8,20.4S65.2,173,65.2,173
		s17.1,7.5,32.4-7.5s31.6-39.5,31.6-39.5s5.7-14-12.7-18.9c-18.4-4.8-31.1-7-31.1-7S80.6,99.1,69.8,103.9z"/>
</g>
</svg>
