<?xml version="1.0" encoding="utf-8"?>
<!-- Generator: Adobe Illustrator 22.1.0, SVG Export Plug-In . SVG Version: 6.00 Build 0)  -->
<svg version="1.1" id="Layer_1" xmlns="http://www.w3.org/2000/svg" xmlns:xlink="http://www.w3.org/1999/xlink" x="0px" y="0px"
	 viewBox="0 0 256 256" style="enable-background:new 0 0 256 256;" xml:space="preserve">
<g>
	<rect x="122.7" y="95.5" style="opacity:0.2;" width="12.6" height="7.4"/>
	<path style="fill:#FF9E16;" d="M120.2,94.8c0,2.7,2.2,5,5,5h7.7c2.7,0,5-2.2,5-5V11c0-2.7-2.2-5-5-5h-7.7c-2.7,0-5,2.2-5,5V94.8z"
		/>
	<rect x="120.2" y="27.5" style="fill:#FFD26C;" width="17.6" height="2.8"/>
	<path style="fill:#B07C57;" d="M132.6,15.1c0-2-1.6-3.6-3.6-3.6c-2,0-3.6,1.6-3.6,3.6c0,2,1.6,3.6,3.6,3.6
		C131,18.7,132.6,17.1,132.6,15.1z"/>
</g>
</svg>
