<?xml version="1.0" encoding="utf-8"?>
<!-- Generator: Adobe Illustrator 22.1.0, SVG Export Plug-In . SVG Version: 6.00 Build 0)  -->
<svg version="1.1" id="Layer_1" xmlns="http://www.w3.org/2000/svg" xmlns:xlink="http://www.w3.org/1999/xlink" x="0px" y="0px"
	 viewBox="0 0 256 256" style="enable-background:new 0 0 256 256;" xml:space="preserve">
<path style="fill:#7D868C;" d="M100.9,253.3h56.3c2.7,0,5-2.2,5-5v-58.2c0-2.7-1.3-6.8-3-8.9l-9.3-12.3c-1.6-2.2-5.2-4-8-4h-6.6
	V95.5h-12.6v69.4h-6.6c-2.7,0-6.3,1.8-8,4l-9.3,12.3c-1.6,2.2-3,6.2-3,8.9v58.2C95.9,251,98.1,253.3,100.9,253.3z M144.2,192.9
	c0-1.6,1.3-2.9,2.9-2.9c1.6,0,2.9,1.3,2.9,2.9v48.3c0,1.6-1.3,2.9-2.9,2.9c-1.6,0-2.9-1.3-2.9-2.9V192.9z M126.1,192.9
	c0-1.6,1.3-2.9,2.9-2.9c1.6,0,2.9,1.3,2.9,2.9v48.3c0,1.6-1.3,2.9-2.9,2.9c-1.6,0-2.9-1.3-2.9-2.9V192.9z M108,192.9
	c0-1.6,1.3-2.9,2.9-2.9c1.6,0,2.9,1.3,2.9,2.9v48.3c0,1.6-1.3,2.9-2.9,2.9c-1.6,0-2.9-1.3-2.9-2.9V192.9z"/>
</svg>
