<?xml version="1.0" encoding="utf-8"?>
<!-- Generator: Adobe Illustrator 22.1.0, SVG Export Plug-In . SVG Version: 6.00 Build 0)  -->
<svg version="1.1" id="Layer_1" xmlns="http://www.w3.org/2000/svg" xmlns:xlink="http://www.w3.org/1999/xlink" x="0px" y="0px"
	 viewBox="0 0 256 256" style="enable-background:new 0 0 256 256;" xml:space="preserve">
<g>
	<path style="fill:#AFAFAF;" d="M85,74c0,0-15.6-5.9-20.2-20c0,0-11.3,4.6-15.9-1.8L34.5,40.6c0,0,7.4,43.7,32.4,50.1
		c0,0-24.7-4.2-41.3-43.4c0,0,5.3,29.2,18.7,41c0,0-18.8-21.3-27.6-47.7s5.6-32.4,5.6-32.4s11.8-7,28.8,12.8S84,58,85,74z"/>
	<path style="fill:#AFAFAF;" d="M238.8,243.9C228.4,227.7,207,204.3,175,177c27.6,21.6,53.3,42.1,68.3,56
		C243.3,233,247.5,241,238.8,243.9z"/>
</g>
</svg>
