<?xml version="1.0" encoding="utf-8"?>
<!-- Generator: Adobe Illustrator 22.1.0, SVG Export Plug-In . SVG Version: 6.00 Build 0)  -->
<svg version="1.1" id="Layer_1" xmlns="http://www.w3.org/2000/svg" xmlns:xlink="http://www.w3.org/1999/xlink" x="0px" y="0px"
	 viewBox="0 0 256 256" style="enable-background:new 0 0 256 256;" xml:space="preserve">
<g>
	<rect x="4.9" y="103.1" style="fill:#00B3E3;" width="21.3" height="9.3"/>
	<rect x="228.7" y="103.1" style="fill:#00B3E3;" width="21.3" height="9.3"/>
	<path style="fill:#00B3E3;" d="M234.4,90.1c0-2-1.7-3.7-3.7-3.7H24.2c-2,0-3.7,1.7-3.7,3.7v1.5c0,2,1.7,3.7,3.7,3.7h206.5
		c2,0,3.7-1.7,3.7-3.7V90.1z"/>
	<rect x="26.2" y="95.3" style="fill:#C3C6C8;" width="202.4" height="4.7"/>
	<path style="fill:#00B3E3;" d="M110.1,45.9c2.3-5.4,9.9-6.2,17.3-6.2s15,0.8,17.3,6.2c2,0.1,4,0.3,6,0.4
		c-2.4-12.3-18-12.3-23.3-12.3c-5.4,0-21,0-23.3,12.3C106.1,46.2,108.1,46,110.1,45.9z"/>
</g>
</svg>
