<?xml version="1.0" encoding="utf-8"?>
<!-- Generator: Adobe Illustrator 22.1.0, SVG Export Plug-In . SVG Version: 6.00 Build 0)  -->
<svg version="1.1" id="Layer_1" xmlns="http://www.w3.org/2000/svg" xmlns:xlink="http://www.w3.org/1999/xlink" x="0px" y="0px"
	 viewBox="0 0 256 256" style="enable-background:new 0 0 256 256;" xml:space="preserve">
<g>
	<path style="opacity:0.2;fill:#FFFFFF;" d="M157.6,135.5l0.3,10.8l-0.3,1.2c0,0-4.2,1.6-4.9,13.1c-0.7,11.5-2.5,24-14.1,26.7
		c0,0,13-0.9,15.7-22.9c0,0,3.1-18.3,8.5-18.7c0,0,0.1-9.7-0.5-11c-0.1-0.4-0.8-1.2-1.7-1.5c-2.9-1.1-6.8-2.1-6.8-2.1l-4,0.1
		c0,0-1.6-0.4-2.6-0.7c0,0-39.7-9.9-59.9-6.4C87.3,123.9,123.5,123.1,157.6,135.5z"/>
	<path style="fill:#262C2D;" d="M59.6,119.2c-7.7-4.4-16.2-9.2-25.1-10.2c-2.4-0.3-5.1-0.8-7.1-0.1c-0.9,0.9-1.5,2.8-1.8,4
		c-0.3,1.1-0.5,2.3-0.6,3.4l0.6,7.6c0.5,2.6,1.2,5.2,1.7,7.6c0.7,2.9,1.6,5.7,2.6,8.5c1.4,3.7,2.7,7.4,5.2,10.6
		c1,1.3,2.3,2.9,3.7,4.4c4.7,4,9.9,5.8,14.3,6.3c10.1,1.2,12.8-9.5,15.6-19.6C71.4,132.4,67.8,124,59.6,119.2z"/>
	<path style="fill:#262C2D;" d="M139.9,139.4c-28.5-12.7-43.9-9.8-43.9-9.8s-6.1,1.3-5.7,6.6c0,0-0.5,8.2,4.2,19.9
		c0.8,1.9,1.6,3.6,2.3,4.9c2.2,4.3,4.6,8.1,7,10.8c7.7,8.7,20.8,11.7,27,12c6.2,0.3,14.9-0.8,16.5-21
		C148.9,142.6,139.9,139.4,139.9,139.4z"/>
	<path style="fill:#3D3D3D;" d="M248.9,139.7c-1.8-16.4-13.9-14.5-13.9-14.5l-0.5,0.2c-1.1-0.1-2.3,0-3.4,0.1
		c-3.7,0.3-7.4,1.1-11.1,1.5c-6.1,0.6-12.1,1.4-18.1,2c-11.2,1.2-22.5,2.5-33.7,3.8c-0.8,0.1-6.4,1.4-7,0.8l1.1,1
		c-0.7,0.3-1.4,0.6-1.4,0.9c-0.2,0.6,2,10.2,2,10.2s29.4-3,47-3.6c17.7-0.6,20.8-4.1,20.8-4.1c5.2-5.3,8.4-3.6,8.4-3.6
		c5.3,5.5,2.9,11.5,4.3,14.3c1.4,2.8,2.4,1.5,2.4,1.5l2.7-5.5C249.3,142.9,248.9,139.7,248.9,139.7z"/>
	<path style="fill:#353535;" d="M170.7,117.6l-14.5-8.2c-18.4-10.2-30.8-13.7-46-15.4c-15.2-1.8-85.3,2.8-85.3,2.8l1,0.4l24.9,10.4
		l55.5-1c5.2-2.6,10.6-3.9,17.5-3.1c6.8,0.9,26.8,16.7,26.8,16.7c13,10.8,21.2,5.1,21.2,5.1C177.3,121,170.7,117.6,170.7,117.6z"/>
	<path style="fill:#E4E4E4;" d="M155.6,139.9c0.2-0.9-1.8-2.2-4.5-2.9c-2.7-0.7-5.1-0.5-5.3,0.4c-0.2,0.9,1.8,2.2,4.5,2.9
		C153,141,155.3,140.8,155.6,139.9z"/>
	<path style="fill:#E4E4E4;" d="M24.4,103.4c0.1-0.6-1.1-1.4-2.8-1.8c-1.7-0.4-3.2-0.3-3.4,0.2c-0.1,0.6,1.1,1.4,2.8,1.8
		C22.8,104.1,24.3,104,24.4,103.4z"/>
	<path style="opacity:0.2;" d="M96,129.7c0,0-6.1,1.3-5.7,6.6c0,0-0.8,12.1,7.9,27.6c0,0-13.2-24.6-8-32
		C90.3,131.8,91.8,129.4,96,129.7z"/>
	<path style="opacity:0.2;fill:#FFFFFF;" d="M79,134.2c0,0-2.8-0.7-3.9,4.5c-1.1,5.2-4.7,20.8-13.9,24.9c0,0,14.5-5.6,17.9-26.9
		L79,134.2z"/>
	<path style="opacity:0.2;fill:#FFFFFF;" d="M78.7,123.7c0,0-5.3-6.2-26.1-15.3c-7.8-3.4-13.7-7-23.6-10.3l0,0l-4.1-1.2L20,96.8
		l-3,1.7c0,0,30.7,5.9,58.3,24.9c0,0,2.1,1.7,6.1,1L78.7,123.7z"/>
	<path style="opacity:0.2;" d="M27.4,108.9c-0.9,0.9-1.5,2.8-1.8,4c-1.6,6,0.5,12.6,1.8,18.6c0.7,2.9,1.6,5.7,2.6,8.5
		c1.4,3.7,2.7,7.4,5.2,10.6c2.1,2.7,5.3,7,8.8,7.9c0,0-13-3.4-18.8-28.7C19.3,104.5,27.1,109.2,27.4,108.9z"/>
</g>
</svg>
