<?xml version="1.0" encoding="utf-8"?>
<!-- Generator: Adobe Illustrator 22.1.0, SVG Export Plug-In . SVG Version: 6.00 Build 0)  -->
<svg version="1.1" id="Layer_1" xmlns="http://www.w3.org/2000/svg" xmlns:xlink="http://www.w3.org/1999/xlink" x="0px" y="0px"
	 viewBox="0 0 256 256" style="enable-background:new 0 0 256 256;" xml:space="preserve">
<g>
	<path style="fill:#04BEE8;" d="M85.1,124.1c0,0,23.4-4.4,65,7l3.7-0.2l6.6,2.1c0,0,2.5-0.4,2.3,5.7l0.1,6.9c0,0-4.7,1.6-5.3,6.7
		c0,0-4.3,15.8-5.1,20.2c-0.8,4.4-5.2,13.1-14.8,14.9c-9.6,1.8-26.7-2.5-37.7-14.8c-11-12.2-16.9-36.4-16.9-36.4s-1.4-2.2-3.9-2
		c0,0,0.6,16.4-16.8,28.8c0,0-27.4,9.9-37.9-27.8l-4.9-22.4c0,0-0.9-3-2.1-4.2L17,98.4l3-1.7l4.9,0.1l19.2,7.8
		c0,0,22.6,9.8,29.6,15.1c0,0,3.1,3,5.1,4C78.7,123.7,84.3,125.3,85.1,124.1z"/>
	<path style="fill:#04BEE8;" d="M147.2,130.4c0,0-39.7-9.9-59.9-6.4"/>
	<path style="fill:#04BEE8;" d="M79,134.2c0,0-2.8-0.7-3.9,4.5c-1.1,5.2-4.7,20.8-13.9,24.9c0,0,14.5-5.6,17.9-26.9L79,134.2z"/>
	<path style="fill:#04BEE8;" d="M78.7,123.7c0,0-5.3-6.2-26.1-15.3"/>
</g>
</svg>
