<?xml version="1.0" encoding="utf-8"?>
<!-- Generator: Adobe Illustrator 22.1.0, SVG Export Plug-In . SVG Version: 6.00 Build 0)  -->
<svg version="1.1" id="Layer_1" xmlns="http://www.w3.org/2000/svg" xmlns:xlink="http://www.w3.org/1999/xlink" x="0px" y="0px"
	 viewBox="0 0 256 256" style="enable-background:new 0 0 256 256;" xml:space="preserve">
<g>
	<path style="opacity:0.1;" d="M198.8,65.1c0,24.9-32,45.1-71.5,45.1c-39.6,0-71.5-20.1-71.5-45.1c0-24.8,32-45.1,71.5-45.1
		C166.9,20,198.8,40.3,198.8,65.1z"/>
	<g>
		<path style="fill:#E59A51;" d="M154.7,60.9c0,9.5-12.2,17.2-27.4,17.2c-15.2,0-27.4-7.7-27.4-17.2c0-9.5,12.2-17.3,27.4-17.3
			C142.5,43.7,154.7,51.4,154.7,60.9z"/>
		<path style="fill:#D68847;" d="M127.3,78.2c-15.1,0-27.3-7.6-27.4-17.1h0c0,0,0,2.1,0,2.4c0,9.5,12.2,17.2,27.4,17.2
			c15.1,0,27.4-7.7,27.4-17.2c0-0.2,0-2.4,0-2.4l0,0C154.6,70.6,142.4,78.2,127.3,78.2z"/>
		<path style="fill:#F9B569;" d="M145.7,60.9c0,6.4-8.2,11.5-18.3,11.5c-10.1,0-18.3-5.2-18.3-11.5c0-6.4,8.2-11.6,18.3-11.6
			C137.5,49.3,145.7,54.5,145.7,60.9z"/>
	</g>
	<path style="opacity:0.2;" d="M199.2,67.5v92c0,0-1.5,23-27.8,38.7c-18.3,10.9-28.6,15.3-51.9,41.8V137.8c0,0,14.3-18.3,51.9-33.5
		C171.4,104.3,198.4,93.5,199.2,67.5z"/>
</g>
</svg>
