<?xml version="1.0" encoding="utf-8"?>
<!-- Generator: Adobe Illustrator 22.1.0, SVG Export Plug-In . SVG Version: 6.00 Build 0)  -->
<svg version="1.1" id="Layer_1" xmlns="http://www.w3.org/2000/svg" xmlns:xlink="http://www.w3.org/1999/xlink" x="0px" y="0px"
	 viewBox="0 0 256 256" style="enable-background:new 0 0 256 256;" xml:space="preserve">
<g>
	<path style="fill:#EDEDED;" d="M127.3,110.1c-39.4,0-71.2-19.9-71.5-44.7h-0.1c0,0,0,88.5,0,89.1c0,24.9,32,45.1,71.5,45.1
		c39.5,0,71.5-20.1,71.5-45.1c0-0.6,0-89.1,0-89.1l0,0C198.5,90.2,166.7,110.1,127.3,110.1z"/>
	<path style="fill:#CECECE;" d="M198.8,65.1c0,24.9-32,45.1-71.5,45.1c-39.6,0-71.5-20.1-71.5-45.1c0-24.8,32-45.1,71.5-45.1
		C166.9,20,198.8,40.3,198.8,65.1z"/>
	<path style="fill:#EDEDED;" d="M199.2,67.5v92c0,0-1.5,23-27.8,38.7c-18.3,10.9-28.6,15.3-51.9,41.8V137.8c0,0,14.3-18.3,51.9-33.5
		C171.4,104.3,198.4,93.5,199.2,67.5z"/>
</g>
</svg>
