<?xml version="1.0" encoding="utf-8"?>
<!-- Generator: Adobe Illustrator 22.1.0, SVG Export Plug-In . SVG Version: 6.00 Build 0)  -->
<svg version="1.1" id="Layer_1" xmlns="http://www.w3.org/2000/svg" xmlns:xlink="http://www.w3.org/1999/xlink" x="0px" y="0px"
	 viewBox="0 0 256 256" style="enable-background:new 0 0 256 256;" xml:space="preserve">
<g>
	<polygon style="fill:#D8D8D8;" points="64.8,72.4 198,72.4 198,240 65.1,240 	"/>
	<path style="opacity:0.2;" d="M185.8,129.2c0,29.6-24,53.5-53.5,53.5c-29.6,0-53.5-24-53.5-53.5c0-29.6,24-53.5,53.5-53.5
		C161.8,75.7,185.8,99.6,185.8,129.2z"/>
	<path style="fill:#FFFFFF;" d="M185.8,133.7c0,29.6-24,53.5-53.5,53.5c-29.6,0-53.5-24-53.5-53.5c0-29.6,24-53.5,53.5-53.5
		C161.8,80.1,185.8,104.1,185.8,133.7z"/>
	<path style="opacity:0.2;" d="M107.7,226.5c0,1.4-1.1,2.5-2.5,2.5H79.3c-1.4,0-2.5-1.1-2.5-2.5v-15.9c0-1.4,1.1-2.5,2.5-2.5h25.9
		c1.4,0,2.5,1.1,2.5,2.5V226.5z"/>
	<path style="opacity:0.54;fill:#FFFFFF;" d="M142.9,100.5c-4-1.6-8.4-2.5-13-2.5c-19.1,0-34.6,15.5-34.6,34.6
		c0,9.8,4.1,18.6,10.6,24.9C93.1,111.7,132.6,102.2,142.9,100.5z"/>
	<path style="fill:#D8D8D8;" d="M74.1,52.2l2.7-23.8c0,0,0-4.7,4.7-4.2h101.2c0,0,4.4-0.7,5.1,4.4l1.8,23.6l-5.1,1.3h-109L74.1,52.2
		z"/>
</g>
</svg>
