<?xml version="1.0" encoding="utf-8"?>
<!-- Generator: Adobe Illustrator 22.1.0, SVG Export Plug-In . SVG Version: 6.00 Build 0)  -->
<svg version="1.1" id="Layer_1" xmlns="http://www.w3.org/2000/svg" xmlns:xlink="http://www.w3.org/1999/xlink" x="0px" y="0px"
	 viewBox="0 0 256 256" style="enable-background:new 0 0 256 256;" xml:space="preserve">
<g>
	<path style="fill:#AABBF9;" d="M175.1,133.7c0,23.6-19.1,42.7-42.7,42.7c-23.6,0-42.7-19.1-42.7-42.7c0-23.6,19.1-42.7,42.7-42.7
		C156,91,175.1,110.1,175.1,133.7z"/>
	<rect x="64.8" y="65.1" style="fill:#004477;" width="133.3" height="8.5"/>
	<polygon style="fill:#AABBF9;" points="64.8,65.1 74.1,52.2 189.6,52.2 198,65.1 194.5,67.5 67,67.5 	"/>
	<path style="fill:#FFFFFF;stroke:#B7B7B7;" d="M97,29.7v16c0,0,45.4,4.4,70.7,0V29.2C167.8,29.2,118.4,23.7,97,29.7z"/>
	<path style="fill:#FFFFFF;stroke:#B7B7B7;" d="M171.1,37.5c0,3.2-2.6,5.8-5.8,5.8c-3.2,0-5.8-2.6-5.8-5.8c0-3.2,2.6-5.8,5.8-5.8
		C168.5,31.7,171.1,34.3,171.1,37.5z"/>
	<path style="fill:#AABBF9;" d="M168.9,37.5c0,2-1.6,3.6-3.6,3.6c-2,0-3.6-1.6-3.6-3.6c0-2,1.6-3.6,3.6-3.6
		C167.3,33.9,168.9,35.5,168.9,37.5z"/>
	<path style="fill:#FFFFFF;stroke:#B7B7B7;" d="M188.5,84.2c0,3.2-2.6,5.8-5.8,5.8c-3.2,0-5.8-2.6-5.8-5.8c0-3.2,2.6-5.8,5.8-5.8
		C185.9,78.4,188.5,81,188.5,84.2z"/>
	<path style="fill:#AABBF9;" d="M186.2,84.2c0,2-1.6,3.6-3.6,3.6c-2,0-3.6-1.6-3.6-3.6c0-2,1.6-3.6,3.6-3.6
		C184.6,80.6,186.2,82.2,186.2,84.2z"/>
	<path style="fill:#004477;" d="M148.6,40.4c0,1.1-1.1,1.9-2.5,1.9H120c-1.4,0-2.5-0.9-2.5-1.9v-7c0-1.1,1.1-1.9,2.5-1.9h26.1
		c1.4,0,2.5,0.9,2.5,1.9V40.4z"/>
	<path style="fill:#AABBF9;" d="M106.1,36.4c0,1.3-1.1,2.4-2.4,2.4l0,0c-1.4,0-2.4-1.1-2.4-2.4l0,0c0-1.4,1.1-2.4,2.4-2.4l0,0
		C105.1,33.9,106.1,35,106.1,36.4L106.1,36.4z"/>
</g>
</svg>
