<?xml version="1.0" encoding="utf-8"?>
<!-- Generator: Adobe Illustrator 22.1.0, SVG Export Plug-In . SVG Version: 6.00 Build 0)  -->
<svg version="1.1" id="Layer_1" xmlns="http://www.w3.org/2000/svg" xmlns:xlink="http://www.w3.org/1999/xlink" x="0px" y="0px"
	 viewBox="0 0 256 256" style="enable-background:new 0 0 256 256;" xml:space="preserve">
<g>
	<path style="opacity:0.2;" d="M157.6,18.7c0.8-0.7,1.4-2.4,1.4-3.8v-4.5c0-1.4-1.1-2.6-2.6-2.6h-25.9c-1.4,0-3.7,0-5.1,0H99.6
		C98.2,7.8,97,9,97,10.4v4.5c0,1.4,0.6,3.1,1.4,3.8c0.8,0.7,1.4,2.4,1.4,3.8v1.6c0,1.4-0.6,3.2-1.4,4c-0.8,0.8-1.4,2.6-1.4,4v1.4
		c0,1.4,0.4,3.3,0.8,4.3c0.4,1,0.8,2.9,0.8,4.3v27c0,1.4-0.4,3.2-0.8,4.1C97.4,74,97,75.8,97,77.2v3.7c0,1.4,0.5,3.2,1.2,4.1
		c0.7,0.9,0.8,2.6,0.4,4c-0.4,1.3,0.1,3.1,1.2,3.9l11.5,8.6c1.1,0.8,3.2,1.6,4.6,1.7l9.6,0.5c1.4,0.1,3.7,0.1,5.1,0l9.6-0.5
		c1.4-0.1,3.5-0.8,4.6-1.7l11.1-8.5c1.1-0.9,1.7-2.6,1.4-4c-0.3-1.3-0.1-3.1,0.6-4c0.7-0.9,1.2-2.7,1.2-4.1v-3.7
		c0-1.4-0.4-3.2-0.8-4.1c-0.4-0.9-0.8-2.7-0.8-4.1v-27c0-1.4,0.4-3.3,0.8-4.3c0.4-1,0.8-2.9,0.8-4.3v-1.4c0-1.4-0.6-3.2-1.4-4
		c-0.8-0.8-1.4-2.6-1.4-4v-1.6C156.1,21.1,156.8,19.4,157.6,18.7z M152.1,20c1.4,0.3,2.5,1.7,2.5,3.1v0.5c0,1.4-1.1,2.6-2.5,2.7
		l-10.1,0.8c-1.4,0.1-1.4,0.3,0,0.3l11.1,0.7c1.4,0.1,3,0.6,3.5,1.1c0.5,0.5,0.9,2.1,0.9,3.5v0.4c0,1.4-0.2,2.9-0.3,3.3
		c-0.2,0.4-1.5,1.1-2.8,1.4l-2.2,0.6c-1.4,0.4-1.4,1,0,1.4l1.3,0.4c1.4,0.4,2.5,1.8,2.5,3.2v23.7c0,1.4-1.1,2.9-2.5,3.3l-2.8,0.8
		c-1.3,0.4-1.3,0.9,0.1,1.1l3.4,0.5c1.4,0.2,2.7,0.8,3,1.3c0.3,0.5,0.5,2,0.5,3.4v2.8c0,1.4-0.3,2.9-0.6,3.4
		c-0.3,0.5-1.8,0.9-3.2,1.1l-11,1.1c-1.4,0.1-1.4,0.4,0,0.6l10.2,1.3c1.4,0.2,2.7,0.9,2.9,1.7c0.2,0.7-0.6,1.9-1.9,2.6l-10.6,6.2
		c-1.2,0.7-3.3,1.5-4.7,1.8l-8.1,1.7c-1.4,0.3-3.6,0.2-5-0.1l-8.7-2.1c-1.4-0.3-3.5-1.1-4.7-1.8L101.9,92c-1.2-0.7-2-1.8-1.8-2.6
		c0.3-0.8,1.6-1.5,3-1.6l11.3-1.3c1.4-0.2,1.4-0.4,0-0.5l-11.9-1.1c-1.4-0.1-2.8-0.6-3.2-1.1c-0.4-0.5-0.7-2-0.7-3.4v-2.8
		c0-1.4,0.2-3,0.5-3.5c0.3-0.5,1.6-1.1,3-1.2l5.7-0.6c1.4-0.2,1.4-0.6,0.1-1l-5.2-1.4c-1.4-0.4-2.5-1.8-2.5-3.2v-23
		c0-1.4,1.1-2.9,2.4-3.4l0.8-0.3c1.3-0.4,1.3-1.1,0-1.5l-1.5-0.4c-1.4-0.4-2.6-1.1-2.9-1.5c-0.2-0.5-0.4-2-0.4-3.4v-0.4
		c0-1.4,0.4-3,0.9-3.5c0.5-0.5,2.1-1,3.5-1.1l12.9-0.7c1.4-0.1,1.4-0.3,0-0.5l-11.9-1.5c-1.4-0.2-2.5-1.3-2.5-2.5
		c0-1.2,1.1-2.5,2.5-2.8l1.8-0.4c1.4-0.3,1.4-0.7,0-0.9l-3.2-0.5c-1.4-0.2-2.8-0.7-3.2-1c-0.4-0.4-0.7-1.8-0.7-3.2v-2.2
		c0-1.4,1.1-2.6,2.6-2.6h53.7c1.4,0,2.6,1.1,2.6,2.6v2.2c0,1.4-0.3,2.8-0.6,3.1c-0.3,0.3-1.8,0.8-3.1,1.1l-2.3,0.5
		c-1.4,0.3-1.4,0.7,0,1.1L152.1,20z"/>
	<path style="fill:#E5E5E4;" d="M164,244.3c0,2.3-1.9,4.3-4.3,4.3H96.3c-2.3,0-4.3-1.9-4.3-4.3V106c0-2.3,1.9-4.3,4.3-4.3h63.5
		c2.3,0,4.3,1.9,4.3,4.3V244.3z"/>
	<path style="fill:#C8C8C8;" d="M157.4,180.1c0,2.8-2.3,5.1-5.1,5.1h-48.6c-2.8,0-5.1-2.3-5.1-5.1v-55c0-2.8,2.3-5.1,5.1-5.1h48.6
		c2.8,0,5.1,2.3,5.1,5.1V180.1z"/>
	<path style="fill:#A5A5A5;" d="M98.6,179.8v0.3c0,2.8,2.3,5.1,5.1,5.1h48.6c2.8,0,5.1-2.3,5.1-5.1v-0.3H98.6z"/>
	<path style="fill:#4A8C93;" d="M152.3,120H128v5.5h29.4v-0.4C157.4,122.3,155.1,120,152.3,120z"/>
	<path style="fill:#E4582C;" d="M103.7,120H128v5.5H98.6v-0.4C98.6,122.3,100.9,120,103.7,120z"/>
	<path style="fill:#A5A5A5;" d="M98.6,180.1c0,2.8,2.3,5.1,5.1,5.1h48.6c2.8,0,5.1-2.3,5.1-5.1v-0.3H98.6V180.1z"/>
	<rect x="92" y="110.2" style="fill:#A5A5A5;" width="72" height="1.3"/>
</g>
</svg>
