<?xml version="1.0" encoding="utf-8"?>
<!-- Generator: Adobe Illustrator 22.1.0, SVG Export Plug-In . SVG Version: 6.00 Build 0)  -->
<svg version="1.1" id="Layer_1" xmlns="http://www.w3.org/2000/svg" xmlns:xlink="http://www.w3.org/1999/xlink" x="0px" y="0px"
	 viewBox="0 0 256 256" style="enable-background:new 0 0 256 256;" xml:space="preserve">
<path style="fill:#AED0CE;" d="M157.6,18.7c0.8-0.7,1.4-2.4,1.4-3.8v-4.5c0-1.4-1.1-2.6-2.6-2.6h-25.9c-1.4,0-3.7,0-5.1,0H99.6
	C98.2,7.8,97,9,97,10.4v4.5c0,1.4,0.6,3.1,1.4,3.8c0.8,0.7,1.4,2.4,1.4,3.8v1.6c0,1.4-0.6,3.2-1.4,4c-0.8,0.8-1.4,2.6-1.4,4v1.4
	c0,1.4,0.4,3.3,0.8,4.3c0.4,1,0.8,2.9,0.8,4.3v27c0,1.4-0.4,3.2-0.8,4.1C97.4,74,97,75.8,97,77.2v3.7c0,1.4,0.5,3.2,1.2,4.1
	c0.7,0.9,0.8,2.6,0.4,4c-0.4,1.3,0.1,3.1,1.2,3.9l11.5,8.6c1.1,0.8,3.2,1.6,4.6,1.7l9.6,0.5c1.4,0.1,3.7,0.1,5.1,0l9.6-0.5
	c1.4-0.1,3.5-0.8,4.6-1.7l11.1-8.5c1.1-0.9,1.7-2.6,1.4-4c-0.3-1.3-0.1-3.1,0.6-4c0.7-0.9,1.2-2.7,1.2-4.1v-3.7
	c0-1.4-0.4-3.2-0.8-4.1c-0.4-0.9-0.8-2.7-0.8-4.1v-27c0-1.4,0.4-3.3,0.8-4.3c0.4-1,0.8-2.9,0.8-4.3v-1.4c0-1.4-0.6-3.2-1.4-4
	c-0.8-0.8-1.4-2.6-1.4-4v-1.6C156.1,21.1,156.8,19.4,157.6,18.7z"/>
</svg>
