<?xml version="1.0" encoding="utf-8"?>
<!-- Generator: Adobe Illustrator 22.1.0, SVG Export Plug-In . SVG Version: 6.00 Build 0)  -->
<svg version="1.1" id="Layer_1" xmlns="http://www.w3.org/2000/svg" xmlns:xlink="http://www.w3.org/1999/xlink" x="0px" y="0px"
	 viewBox="0 0 256 256" style="enable-background:new 0 0 256 256;" xml:space="preserve">
<path id="path3415_1_" style="fill:#C8C8C8;" d="M157.3,53.5c-9,0-18.5,2.1-27.5,6.3l0,0l-1.3,0.7c-1,0.5-2,1-3,1.6
	c-0.3,0.2-0.6,0.3-0.8,0.5L13.3,121V155l37.3,39.7l67.7-37.6l23.2,24.6c0.2,0.2,0.3,0.4,0.5,0.5l0.5,0.5l0,0
	c16.5,16.5,45.5,19.3,70.1,5.1c28.6-16.5,40.4-49.5,26.4-73.8c-2-3.4-4.4-6.5-7.1-9.2l0,0l-39.6-38.4
	C183.4,58,170.8,53.4,157.3,53.5z"/>
</svg>
