<?xml version="1.0" encoding="utf-8"?>
<!-- Generator: Adobe Illustrator 22.1.0, SVG Export Plug-In . SVG Version: 6.00 Build 0)  -->
<svg version="1.1" id="Layer_1" xmlns="http://www.w3.org/2000/svg" xmlns:xlink="http://www.w3.org/1999/xlink" x="0px" y="0px"
	 viewBox="0 0 256 256" style="enable-background:new 0 0 256 256;" xml:space="preserve">
<g>
	<path id="path3413_1_" style="fill:#323232;" d="M158.8,89.9L145,97.2l-23.4-24.2l13.8-7.2L158.8,89.9z"/>
	<path id="path3419_1_" style="fill-opacity:0.6902;" d="M13.3,121l37.3,40l0,33.6L13.3,155V121z"/>
	<path id="path3442_1_" style="fill-opacity:0.6902;" d="M129.6,150.9l-11.2,6.2l23.2,24.6c-2.2-2.4-4.2-5-5.9-7.9
		C131.5,166.6,129.4,158.9,129.6,150.9z"/>
	<path style="opacity:0.2;" d="M241,117.7c-11.4-25-43.8-34.1-72.9-20.8l0-0.1l-1,0.6c-0.2,0.1-0.4,0.2-0.7,0.3l-0.1,0.1L50.6,161.1
		l0,33.6l78.9-43.8l0,0c-0.2,7.2,1.6,13.6,4.2,19.2c11.6,25.5,45,34.5,74.7,20S252.6,143.2,241,117.7z"/>
</g>
</svg>
