<?xml version="1.0" encoding="utf-8"?>
<!-- Generator: Adobe Illustrator 22.1.0, SVG Export Plug-In . SVG Version: 6.00 Build 0)  -->
<svg version="1.1" id="Layer_1" xmlns="http://www.w3.org/2000/svg" xmlns:xlink="http://www.w3.org/1999/xlink" x="0px" y="0px"
	 viewBox="0 0 256 256" style="enable-background:new 0 0 256 256;" xml:space="preserve">
<path style="fill:#EA5A1B;" d="M245,105.6c0,18.5-8.2,35.2-21.1,46.4l-0.3,0.3l-92.8,84.1L34,153.7l-2.8-2.4l-0.2-0.1
	c-0.7-0.7-1.4-1.3-2.1-2C17.9,138,11,122.6,11,105.6c0-34.1,27.6-61.7,61.7-61.7c21,0,39.5,10.5,50.7,26.5l-26.5,31.7l45.5,34
	l-33.5,19.7l35.6,37.8l-22.3-36.2l39.8-20.2l-49.8-35.1l39-49.1c9.4-5.7,20.4-9,32.2-9C217.4,43.9,245,71.6,245,105.6z"/>
</svg>
