<?xml version="1.0" encoding="utf-8"?>
<!-- Generator: Adobe Illustrator 22.1.0, SVG Export Plug-In . SVG Version: 6.00 Build 0)  -->
<svg version="1.1" id="Layer_1" xmlns="http://www.w3.org/2000/svg" xmlns:xlink="http://www.w3.org/1999/xlink" x="0px" y="0px"
	 viewBox="0 0 256 256" style="enable-background:new 0 0 256 256;" xml:space="preserve">
<g>
	<rect x="113" y="57.7" style="fill:#441D00;" width="121.3" height="22.7"/>
	<rect x="213.7" y="72.3" style="fill:#441D00;" width="8" height="156"/>
	<rect x="37.7" y="74.1" style="fill:#441D00;" width="8" height="156"/>
	<rect x="176" y="193" style="fill:#441D00;" width="8" height="33.8"/>
	<rect x="16" y="219.7" style="fill:#441D00;" width="218.3" height="20.8"/>
	<path style="fill:#441D00;" d="M167.1,193h50.6v8.7h-50.6c-2.4,0-4.3-1.9-4.3-4.3v0C162.8,194.9,164.7,193,167.1,193z"/>
	<g>
		<path style="fill:#441D00;" d="M68.4,38.4v58.2c0,3.3-2.6,5.9-5.9,5.9H20.8c-3.2,0-5.9-2.6-5.9-5.9V38.4c0-3.3,2.6-5.9,5.9-5.9
			h41.8C65.8,32.5,68.4,35.1,68.4,38.4z"/>
	</g>
</g>
<g style="opacity:0;">
	<g>
		<path style="fill:#F4F4F4;" d="M62.5,36.5H20.8c-1,0-1.9,0.8-1.9,1.9v58.2c0,1,0.8,1.9,1.9,1.9h41.8c1,0,1.9-0.8,1.9-1.9V38.4
			C64.4,37.3,63.6,36.5,62.5,36.5z M53.3,75.5c0.1,0.5-0.4,0.9-0.9,0.9h-2.6c0,0,0,0,0,0v2.4c0,0.7-0.6,1.3-1.3,1.3
			c-0.7,0-1.3-0.6-1.3-1.3v-2.4c0,0,0,0,0,0h-14c0,0,0,0,0,0v2.4c0,0.7-0.6,1.3-1.3,1.3s-1.3-0.6-1.3-1.3v-2.4c0,0,0,0,0,0H28
			c-0.6,0-1-0.4-0.9-0.9l-0.3-11.9L29,50.3c0.1-0.6,0.5-1,1-1c6.6-1.7,13.2-1.7,19.9,0c0.5,0,0.9,0.4,1,1l2.4,13.6L53.3,75.5z"/>
	</g>
	<g>
		<polygon style="fill:#F7F7F7;" points="50.8,63.2 29,63.2 30.4,53.3 49.4,53.3 		"/>
	</g>
	<circle style="fill:#F7F7F7;" cx="30.4" cy="68.9" r="1.5"/>
	<circle style="fill:#F7F7F7;" cx="49.3" cy="68.9" r="1.5"/>
	<line style="fill:none;stroke:#F7F7F7;stroke-linecap:round;stroke-miterlimit:10;" x1="32" y1="50.9" x2="47.8" y2="50.9"/>
</g>
</svg>
