<?xml version="1.0" encoding="utf-8"?>
<!-- Generator: Adobe Illustrator 22.1.0, SVG Export Plug-In . SVG Version: 6.00 Build 0)  -->
<svg version="1.1" id="Layer_1" xmlns="http://www.w3.org/2000/svg" xmlns:xlink="http://www.w3.org/1999/xlink" x="0px" y="0px"
	 viewBox="0 0 256 256" style="enable-background:new 0 0 256 256;" xml:space="preserve">
<g>
	<path style="fill:#65B552;" d="M216.4,218.2c-25.3,7.5-50.6,10.8-76,11.3c-11,0.2-22-0.1-33-0.9c-24.9-1.7-49.9-5.6-75.2-10.3
		l-0.8-0.5h0l27.9-38.4c43.7,14.3,87.2,14.4,130.4-0.4L216.4,218.2z"/>
	<path style="fill:#65B552;" d="M189.7,179.1c-43.3,14.7-86.7,14.7-130.4,0.4c-1.4-0.4-2.8-0.9-4.2-1.4l19.6-29.9
		c30.6,5.7,63.6,7.9,99.3,0.1l15.6,24.9l0,0l-3,1.5L189.7,179.1z"/>
	<path style="fill:#65B552;" d="M181.2,146.5c-2.4,0.6-4.8,1.2-7.2,1.7c-35.7,7.8-68.7,5.6-99.3-0.1c-2.8-0.5-5.5-1-8.2-1.6l25-42.1
		c3.4,1,6.8,1.9,10.2,2.6c15.3,3.4,30.9,4,46.7,0.2c3-0.7,6-1.6,9.1-2.7L181.2,146.5z"/>
	<path style="fill:#65B552;" d="M163.6,102.2c-2.1,0.9-4.2,1.7-6.2,2.5c-3,1.1-6,2-9.1,2.7c-0.4,0.1-0.8,0.2-1.3,0.3
		c-1.5,0.4-3.1,0.7-4.6,0.9c-0.3,0.1-0.7,0.1-1,0.2c-0.6,0.1-1.2,0.2-1.9,0.3c-0.5,0.1-1.1,0.2-1.7,0.2c-0.6,0.1-1.3,0.2-1.9,0.2
		c0,0,0,0-0.1,0c-0.6,0.1-1.3,0.1-1.9,0.2c-3.3,0.3-6.6,0.4-9.9,0.3c-1.5,0-2.9-0.1-4.4-0.2c-2.2-0.1-4.4-0.3-6.6-0.6
		c-0.6-0.1-1.2-0.2-1.7-0.2c-0.9-0.1-1.8-0.3-2.6-0.4c-0.7-0.1-1.4-0.2-2.2-0.4c-0.6-0.1-1.3-0.2-1.9-0.4c-0.1,0-0.2,0-0.3-0.1
		c-0.7-0.1-1.4-0.3-2.1-0.4c-0.2,0-0.4-0.1-0.7-0.1c-3.4-0.8-6.8-1.6-10.2-2.6c-2.5-0.7-4.9-1.5-7.3-2.3l41.1-69.6L163.6,102.2z"/>
</g>
<g style="opacity:0;">
	<path style="opacity:0.2;" d="M216.4,218.2c-25.3,7.5-50.6,10.8-76,11.3c-11,0.2-22-0.1-33-0.9c-24.9-1.7-49.9-5.6-75.2-10.3
		l-0.8-0.5h0l27.9-38.4c43.7,14.3,87.2,14.4,130.4-0.4L216.4,218.2z"/>
	<path style="opacity:0.1;" d="M189.7,179.1c-43.3,14.7-86.7,14.7-130.4,0.4c-1.4-0.4-2.8-0.9-4.2-1.4l19.6-29.9
		c30.6,5.7,63.6,7.9,99.3,0.1l15.6,24.9l0,0l-3,1.5L189.7,179.1z"/>
	<path style="opacity:5.000000e-02;" d="M181.2,146.5c-2.4,0.6-4.8,1.2-7.2,1.7c-35.7,7.8-68.7,5.6-99.3-0.1c-2.8-0.5-5.5-1-8.2-1.6
		l25-42.1c3.4,1,6.8,1.9,10.2,2.6c15.3,3.4,30.9,4,46.7,0.2c3-0.7,6-1.6,9.1-2.7L181.2,146.5z"/>
	<path style="fill:#935124;" d="M140.4,229.5v14.9h-33v-15.7C118.4,229.4,129.4,229.7,140.4,229.5z"/>
	<path style="fill:#5A9B45;" d="M189.6,173.2L189.6,173.2c0.1,0,0.1-0.1,0.2-0.1L189.6,173.2z"/>
	<circle style="fill:#FFD833;" cx="123.9" cy="229.1" r="5.1"/>
	<circle style="fill:#FFD833;" cx="30.6" cy="218" r="5.1"/>
	<circle style="fill:#FFD833;" cx="213.4" cy="218.2" r="5.1"/>
	<path style="fill:#5FA84A;" d="M192.7,178.1c-1,0.4-2,0.7-3,1l-3.1-4.5l3-1.5L192.7,178.1z"/>
	<polygon style="fill:#FFD833;" points="123.9,8 128.4,22 143.1,22 131.2,30.6 135.8,44.6 123.9,35.9 112,44.6 116.5,30.6 104.6,22 
		119.3,22 	"/>
	<circle style="fill:#FFD833;" cx="86.5" cy="102.2" r="5.1"/>
	<circle style="fill:#FFD833;" cx="164.1" cy="102.2" r="5.1"/>
	<circle style="fill:#FFD833;" cx="180.8" cy="146.5" r="5.1"/>
	<circle style="fill:#FFD833;" cx="123.9" cy="150.5" r="5.1"/>
	<circle style="fill:#FFD833;" cx="123.9" cy="107.3" r="5.1"/>
	<circle style="fill:#FFD833;" cx="68.2" cy="146.5" r="5.1"/>
	<path style="fill:#5A9B45;" d="M60.4,179.7l-0.2,0.2c-1.2-0.5-2-0.8-2.3-1.1L60.4,179.7z"/>
	<circle style="fill:#FFD833;" cx="123.9" cy="187.8" r="5.1"/>
	<circle style="fill:#FFD833;" cx="53.1" cy="177.5" r="5.1"/>
	<circle style="fill:#FFD833;" cx="189.1" cy="175.9" r="5.1"/>
</g>
</svg>
