<?xml version="1.0" encoding="utf-8"?>
<!-- Generator: Adobe Illustrator 22.1.0, SVG Export Plug-In . SVG Version: 6.00 Build 0)  -->
<svg version="1.1" id="Layer_1" xmlns="http://www.w3.org/2000/svg" xmlns:xlink="http://www.w3.org/1999/xlink" x="0px" y="0px"
	 viewBox="0 0 256 256" style="enable-background:new 0 0 256 256;" xml:space="preserve">
<g style="opacity:0;">
	<path style="fill:#E53E23;" d="M41,211.3H15.3C26,180.2,29.5,149,26,117.9h23.3C50,149,47.2,180.2,41,211.3z"/>
	<path style="fill:#E53E23;" d="M92.4,211.3l-25.7,0l5.9-93.4l23.3,0C97.2,149.5,96.2,180.6,92.4,211.3z"/>
	<polygon style="fill:#E53E23;" points="143.9,211.3 118.1,211.3 119.3,117.9 142.7,117.9 	"/>
	<path style="fill:#E53E23;" d="M195.3,211.3l-25.7,0c-3.7-29.9-4.7-61.1-3.6-93.4l23.3,0L195.3,211.3z"/>
	<path style="fill:#E53E23;" d="M246.7,211.3H221c-8.7-30.1-11-61.3-8.3-93.4H236C232.5,149,236,180.2,246.7,211.3z"/>
	<path style="fill:#E53E23;" d="M131,33.9C131,33.9,131,33.9,131,33.9c0,0,7.8,63,11.7,84h-23.3c3.8-20.4,11.2-80.2,11.6-83.8
		c-4,20.8-35,83.8-35,83.8H72.7C72.7,117.9,98.7,93.4,131,33.9c-1.8,2.8-40.3,60.5-81.7,84H26C66.7,97.7,101.7,69.7,131,33.9
		C131,33.9,131,33.9,131,33.9z"/>
	<path style="fill:#E53E23;" d="M131.1,34c32.3,59.5,58.3,83.9,58.3,83.9H166C166,117.9,134.9,54.5,131.1,34
		C131,33.9,131,33.9,131.1,34C131,33.9,131,33.9,131.1,34c25.6,34.9,57.9,64.9,105,83.9h-23.3C171.3,94.4,132.8,36.7,131.1,34z"/>
	<polyline style="fill:#E53E23;stroke:#E53E23;stroke-linecap:round;stroke-miterlimit:10;" points="131,32.3 147.1,29.8 131,27.3 
		131,40.5 	"/>
</g>
<g>
	<path style="fill:#F4F4F4;" d="M66.7,211.3l-25.7,0c6.2-31.1,9-62.2,8.3-93.4l23.3,0L66.7,211.3z"/>
	<path style="fill:#F4F4F4;" d="M118.1,211.3l-25.7,0c3.7-30.2,4.7-61.4,3.6-93.4l23.3,0L118.1,211.3z"/>
	<polygon style="fill:#F4F4F4;" points="169.6,211.3 143.9,211.3 142.7,117.9 166,117.9 	"/>
	<path style="fill:#F4F4F4;" d="M221,211.3h-25.7c-5.9-31.1-7.9-62.2-5.9-93.4h23.3C209.9,152.1,212.7,183.2,221,211.3z"/>
	<path style="fill:#E5E5E5;" d="M131,145.9c0,0,13.2,47.1,40.8,52.9l-2.3,12.4l-77.1,0l-5.4-8.6C87,202.7,114.7,185.6,131,145.9z"/>
	<path style="fill:#4C130D;" d="M92.4,211.3c0,0,26.9-24.9,38.6-65.4c0,0,12.9,52.1,38.6,65.4L92.4,211.3z"/>
	<path style="fill:#FFBC36;" d="M37.6,135L37.6,135c-6.4,0-11.7-5.2-11.7-11.7v-5.4h23.3v5.4C49.3,129.8,44.1,135,37.6,135z"/>
	<path style="fill:#FFBC36;" d="M61,135L61,135c-6.4,0-11.7-5.2-11.7-11.7v-5.4h23.3v5.4C72.6,129.8,67.4,135,61,135z"/>
	<path style="fill:#FFBC36;" d="M84.3,135L84.3,135c-6.4,0-11.7-5.2-11.7-11.7v-5.4H96v5.4C96,129.8,90.8,135,84.3,135z"/>
	<path style="fill:#FFBC36;" d="M107.7,135L107.7,135c-6.4,0-11.7-5.2-11.7-11.7v-5.4h23.3v5.4C119.3,129.8,114.1,135,107.7,135z"/>
	<path style="fill:#FFBC36;" d="M131,135L131,135c-6.4,0-11.7-5.2-11.7-11.7v-5.4h23.3v5.4C142.7,129.8,137.4,135,131,135z"/>
	<path style="fill:#FFBC36;" d="M154.3,135L154.3,135c-6.4,0-11.7-5.2-11.7-11.7v-5.4H166v5.4C166,129.8,160.8,135,154.3,135z"/>
	<path style="fill:#FFBC36;" d="M177.7,135L177.7,135c-6.4,0-11.7-5.2-11.7-11.7v-5.4h23.3v5.4C189.4,129.8,184.1,135,177.7,135z"/>
	<path style="fill:#FFBC36;" d="M201,135L201,135c-6.4,0-11.7-5.2-11.7-11.7v-5.4h23.3v5.4C212.7,129.8,207.5,135,201,135z"/>
	<path style="fill:#FFBC36;" d="M224.4,135L224.4,135c-6.4,0-11.7-5.2-11.7-11.7v-5.4H236v5.4C236,129.8,230.8,135,224.4,135z"/>
	<path style="fill:#F4F4F4;" d="M130.9,34c-32.3,59.5-58.3,83.9-58.3,83.9H49.3C90.7,94.4,129.2,36.7,130.9,34z"/>
	<path style="fill:#F4F4F4;" d="M131,33.9c-0.2,1.9-7.8,63.3-11.7,84H96C96,117.9,127.1,54.6,131,33.9z"/>
	<path style="fill:#F4F4F4;" d="M212.7,117.9h-23.3c0,0-26-24.5-58.3-83.9C132.8,36.7,171.3,94.4,212.7,117.9z"/>
	<path style="fill:#F4F4F4;" d="M166,117.9h-23.3c-3.9-21-11.7-84-11.7-84C134.9,54.5,166,117.9,166,117.9z"/>
</g>
</svg>
