<?xml version="1.0" encoding="utf-8"?>
<!-- Generator: Adobe Illustrator 22.1.0, SVG Export Plug-In . SVG Version: 6.00 Build 0)  -->
<svg version="1.1" id="Layer_1" xmlns="http://www.w3.org/2000/svg" xmlns:xlink="http://www.w3.org/1999/xlink" x="0px" y="0px"
	 viewBox="0 0 256 256" style="enable-background:new 0 0 256 256;" xml:space="preserve">
<path style="fill:#B6FFEE;" d="M236.3,138.4c0,21.3-17.3,38.6-38.6,38.6c-0.6,0-1.2,0-1.7,0l0,0H38.2c-16.5,0-29.9-13.4-29.9-29.9
	s13.4-29.9,29.9-29.9c2.8,0,5.5,0.4,8.1,1.1c0-0.6,0-1.1,0-1.7c0-1.8,0.1-3.5,0.4-5.2c2.5-17.6,17.6-31.1,35.9-31.1
	c8.1,0,15.6,2.7,21.7,7.2c5.3-20,23.5-34.8,45.1-34.8c25.8,0,46.6,20.9,46.6,46.6c0,0.2,0,0.4,0,0.6c0.6,0,1.2,0,1.7,0
	C219,99.8,236.3,117.1,236.3,138.4z"/>
</svg>
