<?xml version="1.0" encoding="utf-8"?>
<!-- Generator: Adobe Illustrator 22.1.0, SVG Export Plug-In . SVG Version: 6.00 Build 0)  -->
<svg version="1.1" id="Layer_1" xmlns="http://www.w3.org/2000/svg" xmlns:xlink="http://www.w3.org/1999/xlink" x="0px" y="0px"
	 viewBox="0 0 256 256" style="enable-background:new 0 0 256 256;" xml:space="preserve">
<circle style="fill:none;stroke:#F4682A;stroke-width:15;stroke-miterlimit:10;" cx="129.7" cy="122.5" r="114"/>
<g style="enable-background:new    ;">
	<path style="fill:#F4682A;" d="M171.2,139.8l17.3,4.4c-3.6,14.2-10.2,25.1-19.6,32.5c-9.4,7.5-21,11.2-34.6,11.2
		c-14.1,0-25.6-2.9-34.4-8.6c-8.8-5.7-15.6-14.1-20.2-24.9c-4.6-10.9-6.9-22.6-6.9-35.1c0-13.6,2.6-25.5,7.8-35.6
		c5.2-10.1,12.6-17.8,22.2-23.1c9.6-5.3,20.2-7.9,31.7-7.9c13.1,0,24.1,3.3,33,10c8.9,6.7,15.1,16,18.6,28.1l-17,4
		c-3-9.5-7.4-16.4-13.2-20.8c-5.8-4.3-13-6.5-21.8-6.5c-10.1,0-18.5,2.4-25.2,7.2c-6.8,4.8-11.5,11.3-14.2,19.4
		c-2.7,8.1-4.1,16.5-4.1,25.1c0,11.1,1.6,20.8,4.9,29.1c3.2,8.3,8.3,14.5,15.1,18.6c6.8,4.1,14.2,6.2,22.2,6.2
		c9.7,0,17.9-2.8,24.6-8.4C164.3,159.1,168.8,150.8,171.2,139.8z"/>
</g>
</svg>
