<?xml version="1.0" encoding="utf-8"?>
<!-- Generator: Adobe Illustrator 22.1.0, SVG Export Plug-In . SVG Version: 6.00 Build 0)  -->
<svg version="1.1" id="Layer_1" xmlns="http://www.w3.org/2000/svg" xmlns:xlink="http://www.w3.org/1999/xlink" x="0px" y="0px"
	 viewBox="0 0 256 256" style="enable-background:new 0 0 256 256;" xml:space="preserve">
<g>
	<path style="fill:#FC3250;" d="M219,242.7c-5.2,0-10.4-2-14.3-6L18.7,47.3C11,39.4,11.1,26.8,19,19c7.9-7.7,20.5-7.6,28.3,0.3
		l186,189.4c7.7,7.9,7.6,20.5-0.3,28.3C229.1,240.8,224.1,242.7,219,242.7z"/>
</g>
<g>
	<path style="fill:#FC3250;" d="M33,242.7c-5.1,0-10.1-1.9-14-5.7c-7.9-7.7-8-20.4-0.3-28.3l186-189.4c7.7-7.9,20.4-8,28.3-0.3
		c7.9,7.7,8,20.4,0.3,28.3l-186,189.4C43.4,240.7,38.2,242.7,33,242.7z"/>
</g>
</svg>
