<?xml version="1.0" encoding="utf-8"?>
<!-- Generator: Adobe Illustrator 22.1.0, SVG Export Plug-In . SVG Version: 6.00 Build 0)  -->
<svg version="1.1" id="Layer_1" xmlns="http://www.w3.org/2000/svg" xmlns:xlink="http://www.w3.org/1999/xlink" x="0px" y="0px"
	 viewBox="0 0 256 256" style="enable-background:new 0 0 256 256;" xml:space="preserve">
<g style="opacity:0;">
	<polygon style="fill:#F4C634;" points="56.8,205.8 23.7,79.3 87.3,121.7 128.8,38.2 170.2,122.3 232.3,79.3 200.5,205.8 	"/>
	<path style="fill:#F4C634;" d="M201.6,205.8H53.7c-4,0-7.3-3.2-7.3-7.3v0c0-4,3.2-7.3,7.3-7.3h147.9c4,0,7.3,3.2,7.3,7.3v0
		C208.8,202.5,205.6,205.8,201.6,205.8z"/>
	<circle style="fill:#F4C634;" cx="23.7" cy="79.3" r="9.9"/>
	<circle style="fill:#F4C634;" cx="128" cy="41.3" r="9.9"/>
	<circle style="fill:#F4C634;" cx="232.3" cy="79.3" r="9.9"/>
</g>
<g>
	<path style="fill:#72E7ED;" d="M136.4,162.6c0,7.6-3.8,14.1-8.4,14.1s-8.4-6.5-8.4-14.1c0-7.6,3.8-14.1,8.4-14.1
		S136.4,155,136.4,162.6z"/>
	<path style="opacity:0.1;" d="M128,145.5c-6.4,0-11.4,7.5-11.4,17.1c0,9.6,5,17.1,11.4,17.1s11.4-7.5,11.4-17.1
		C139.4,153,134.4,145.5,128,145.5z M128,176.7c-4.5,0-8.4-6.5-8.4-14.1c0-7.6,3.8-14.1,8.4-14.1s8.4,6.5,8.4,14.1
		C136.4,170.2,132.5,176.7,128,176.7z"/>
	<path style="opacity:0.1;" d="M201.6,205.8H53.7c-4,0-7.3-3.2-7.3-7.3v0c0-4,3.2-7.3,7.3-7.3h147.9c4,0,7.3,3.2,7.3,7.3v0
		C208.8,202.5,205.6,205.8,201.6,205.8z"/>
	<circle style="opacity:0.1;" cx="23.7" cy="79.3" r="9.9"/>
	<circle style="opacity:0.1;" cx="128" cy="41.3" r="9.9"/>
	<circle style="opacity:0.1;" cx="232.3" cy="79.3" r="9.9"/>
</g>
</svg>
