<?xml version="1.0" encoding="utf-8"?>
<!-- Generator: Adobe Illustrator 22.1.0, SVG Export Plug-In . SVG Version: 6.00 Build 0)  -->
<svg version="1.1" id="Layer_1" xmlns="http://www.w3.org/2000/svg" xmlns:xlink="http://www.w3.org/1999/xlink" x="0px" y="0px"
	 viewBox="0 0 256 256" style="enable-background:new 0 0 256 256;" xml:space="preserve">
<g>
	<path style="fill:#ED671D;" d="M225.7,208.3H30.3c-1.4,0-2.8-0.8-3.5-2s-0.7-2.8,0-4l97.7-164.7c0.7-1.2,2-2,3.4-2s2.7,0.7,3.4,2
		l97.7,164.7c0.7,1.2,0.7,2.8,0,4C228.4,207.6,227.1,208.3,225.7,208.3z M37.4,200.3h181.3L128,47.5L37.4,200.3z"/>
</g>
<g>
	<g>
		<path style="fill:#ED671D;" d="M120.5,174.6c0-4.4,3.1-7.6,7.3-7.6c4.4,0,7.3,3.2,7.3,7.6c0,4.3-2.8,7.6-7.3,7.6
			C123.4,182.3,120.5,178.9,120.5,174.6z M123.4,152.9l-1.4-49c-0.1-3.2,2.5-5.9,5.7-5.9h0c3.2,0,5.8,2.7,5.7,5.9l-1.4,49
			c-0.1,2.3-2,4.2-4.3,4.2h0C125.4,157,123.5,155.2,123.4,152.9z"/>
	</g>
</g>
</svg>
