<?xml version="1.0" encoding="utf-8"?>
<!-- Generator: Adobe Illustrator 22.1.0, SVG Export Plug-In . SVG Version: 6.00 Build 0)  -->
<svg version="1.1" id="Layer_1" xmlns="http://www.w3.org/2000/svg" xmlns:xlink="http://www.w3.org/1999/xlink" x="0px" y="0px"
	 viewBox="0 0 256 256" style="enable-background:new 0 0 256 256;" xml:space="preserve">
<g>
	<path style="fill:#EF6D25;" d="M156.6,245.8c8.1-4.8,16.7-13.1,25-27.6c19.8-34.8-48-97.5-48-97.5c10.4,50.1-8.3,87.9-23.1,87.9
		c-14.8,0-21.4-29.5-21.4-29.5c-10.9,39.2-1.1,57.7,11.3,66.4c-13.4-6-31.1-16.9-41.8-35.5c-19.1-33.1,12.2-51.4,6.1-78.3
		c-6.1-27-18.3-27-18.3-27s39.2-10.4,42.7,31.3c0,0,31.3-75.7-27-123.6c0,0,62.7-0.9,90.1,50.5c13.9,26,18.5,38.4,19.7,44.3
		c2.4-10,10.1-30.8,33.8-32.1c0,0-20,27.9-9.6,47.9C205.4,140.5,235.6,222.5,156.6,245.8z"/>
	<path style="fill:#EF6D25;" d="M176,78.7c0,0-21.9-6.8-10.3-30C178,24.2,160.3,11,160.3,11S187.5,17,183,38
		C180.5,49.4,167.1,66.5,176,78.7z"/>
</g>
<g style="opacity:0;">
	<path style="opacity:0.1;" d="M176,78.7c0,0-21.9-6.8-10.3-30C178,24.2,160.3,11,160.3,11S187.5,17,183,38
		C180.5,49.4,167.1,66.5,176,78.7z"/>
</g>
</svg>
