<?xml version="1.0" encoding="utf-8"?>
<!-- Generator: Adobe Illustrator 22.1.0, SVG Export Plug-In . SVG Version: 6.00 Build 0)  -->
<svg version="1.1" id="Layer_1" xmlns="http://www.w3.org/2000/svg" xmlns:xlink="http://www.w3.org/1999/xlink" x="0px" y="0px"
	 viewBox="0 0 256 256" style="enable-background:new 0 0 256 256;" xml:space="preserve">
<g>
	<path style="fill:#FFF8BB;" d="M217.5,180.7C198.7,210.9,165.2,231,127,231c-58.9,0-106.7-47.8-106.7-106.7
		c0-52.6,38-96.3,88.1-105C98.2,35.6,92.3,55,92.3,75.7c0,13.1,2.3,25.6,6.6,37.1c6.7,5.2,18.9,12.1,34,9.5
		c19.8-3.4-2.9,20.6-10.2,27.9c2.9,3,5.9,5.7,9.1,8.3c5.9,4.8,12.4,9,19.3,12.5c14.4,7.2,30.6,11.3,47.8,11.3
		C205.3,182.3,211.5,181.8,217.5,180.7z"/>
</g>
<g style="opacity:0;">
	<path style="fill:none;stroke:#383838;stroke-width:4;stroke-linecap:round;stroke-miterlimit:10;" d="M55.4,135
		c0,0,16,12.9,24-9.9"/>
	<path style="fill:#383838;" d="M119.3,182.6c5.8-0.8,15.9-3.2,20.5-11.2c0,0,3.8,8-2.8,11.5c-4.4,2.3-12.7,1.6-17.8,0.8
		C118.6,183.6,118.6,182.7,119.3,182.6z"/>
</g>
</svg>
