<?xml version="1.0" encoding="utf-8"?>
<!-- Generator: Adobe Illustrator 22.1.0, SVG Export Plug-In . SVG Version: 6.00 Build 0)  -->
<svg version="1.1" id="Layer_1" xmlns="http://www.w3.org/2000/svg" xmlns:xlink="http://www.w3.org/1999/xlink" x="0px" y="0px"
	 viewBox="0 0 256 256" style="enable-background:new 0 0 256 256;" xml:space="preserve">
<path style="fill:#ED62A7;" d="M86.9,44c-12.3,2.6-33,8.9-43.1,22.7c-5,6.8-6,15.6-3.2,23.5c1.9,5.2,4.9,13.4,9.9,26.2
	c10.8,27.9,10.8,40.4,18,56.6c7.2,16.2,31.4,33.2,40.4-8.1c0,0,0.9-13.5-17.1-35.9s2.7-37.7,9.9-50.3c3.3-5.8,5.6-12.4,5.6-18.5
	C107.4,49.6,97.3,41.8,86.9,44z"/>
<path style="fill:#ED62A7;" d="M98.3,37.6L93.5,39c-4.8,1.3-9.8-1.5-11.1-6.3l-2.9-10.4c-1.7-6.1,1.9-12.5,8-14.2l0,0
	c6.1-1.7,12.5,1.9,14.2,8l2.9,10.4C105.9,31.3,103.1,36.3,98.3,37.6z"/>
<path style="fill:#ED62A7;" d="M38.5,68.9L38.5,68.9c-3.2,2.1-7.5,1.1-9.5-2.1l-3-4.7c-2.1-3.2-1.1-7.5,2.1-9.5l0,0
	c3.2-2.1,7.5-1.1,9.5,2.1l3,4.7C42.7,62.6,41.7,66.9,38.5,68.9z"/>
<path style="fill:#ED62A7;" d="M49.6,58.2L49.6,58.2c-3.2,2.1-7.5,1.1-9.5-2.1l-5.6-8.7c-2.1-3.2-1.1-7.5,2.1-9.5l0,0
	c3.2-2.1,7.5-1.1,9.5,2.1l5.6,8.7C53.7,51.8,52.8,56.1,49.6,58.2z"/>
<path style="fill:#ED62A7;" d="M61.2,50.1L61.2,50.1c-3.7,1.8-8.1,0.3-9.9-3.4l-4.6-9.4c-1.8-3.7-0.3-8.1,3.4-9.9l0,0
	c3.7-1.8,8.1-0.3,9.9,3.4l4.6,9.4C66.4,43.8,64.9,48.3,61.2,50.1z"/>
<path style="fill:#ED62A7;" d="M75.6,43L75.6,43c-4.7,1.6-9.9-0.9-11.5-5.6l-2.9-8.6c-1.6-4.7,0.9-9.9,5.6-11.5l0,0
	c4.7-1.6,9.9,0.9,11.5,5.6l2.9,8.6C82.8,36.2,80.3,41.4,75.6,43z"/>
<path style="fill:#ED62A7;" d="M149.7,103.9c12.3,2.6,33,8.9,43.1,22.7c5,6.8,6,15.6,3.2,23.5c-1.9,5.2-4.9,13.4-9.9,26.2
	c-10.8,27.9-10.8,40.4-18,56.6c-7.2,16.2-31.4,33.2-40.4-8.1c0,0-0.9-13.5,17.1-35.9s-2.7-37.7-9.9-50.3c-3.3-5.8-5.6-12.4-5.6-18.5
	C129.1,109.6,139.3,101.7,149.7,103.9z"/>
<path style="fill:#ED62A7;" d="M138.3,97.5l4.8,1.3c4.8,1.3,9.8-1.5,11.1-6.3l2.9-10.4c1.7-6.1-1.9-12.5-8-14.2l0,0
	c-6.1-1.7-12.5,1.9-14.2,8L132,86.4C130.7,91.2,133.5,96.2,138.3,97.5z"/>
<path style="fill:#ED62A7;" d="M198,128.8L198,128.8c3.2,2.1,7.5,1.1,9.5-2.1l3-4.7c2.1-3.2,1.1-7.5-2.1-9.5l0,0
	c-3.2-2.1-7.5-1.1-9.5,2.1l-3,4.7C193.9,122.5,194.8,126.8,198,128.8z"/>
<path style="fill:#ED62A7;" d="M187,118.1L187,118.1c3.2,2.1,7.5,1.1,9.5-2.1l5.6-8.7c2.1-3.2,1.1-7.5-2.1-9.5l0,0
	c-3.2-2.1-7.5-1.1-9.5,2.1l-5.6,8.7C182.8,111.8,183.8,116,187,118.1z"/>
<path style="fill:#ED62A7;" d="M175.4,110L175.4,110c3.7,1.8,8.1,0.3,9.9-3.4l4.6-9.4c1.8-3.7,0.3-8.1-3.4-9.9l0,0
	c-3.7-1.8-8.1-0.3-9.9,3.4L172,100C170.2,103.7,171.7,108.2,175.4,110z"/>
<path style="fill:#ED62A7;" d="M161,102.9L161,102.9c4.7,1.6,9.9-0.9,11.5-5.6l2.9-8.6c1.6-4.7-0.9-9.9-5.6-11.5l0,0
	c-4.7-1.6-9.9,0.9-11.5,5.6l-2.9,8.6C153.8,96.1,156.3,101.3,161,102.9z"/>
</svg>
