<?xml version="1.0" encoding="utf-8"?>
<!-- Generator: Adobe Illustrator 22.1.0, SVG Export Plug-In . SVG Version: 6.00 Build 0)  -->
<svg version="1.1" id="Layer_1" xmlns="http://www.w3.org/2000/svg" xmlns:xlink="http://www.w3.org/1999/xlink" x="0px" y="0px"
	 viewBox="0 0 256 256" style="enable-background:new 0 0 256 256;" xml:space="preserve">
<g>
	<path style="fill:#F78C2D;" d="M118.2,80v128c0,3.9-3.1,7-7,7H48.7c-3.9,0-7-3.1-7-7V80c0-3.9,3.1-7,7-7h62.5
		C115,73,118.2,76.1,118.2,80z"/>
	<path style="fill:#F78C2D;" d="M80.1,47.5c-8.2,0-14.9,6.7-14.9,14.9v14.9h29.8V62.3C94.9,54.1,88.3,47.5,80.1,47.5z"/>
</g>
<g style="opacity:0;">
	<g>
		<path style="fill:#353535;" d="M160.7,102.1v72.4c0,8.6-7,15.5-15.5,15.5s-15.5-6.9-15.5-15.5v-41c0-5.2-4.3-9.5-9.5-9.5h-2v-6h2
			c8.5,0,15.5,7,15.5,15.5v41c0,5.2,4.3,9.5,9.5,9.5s9.5-4.3,9.5-9.5v-70.6l-13.8-21.7c-0.9-1.4-0.5-3.3,0.9-4.1
			c1.4-0.9,3.3-0.5,4.1,0.9L160.7,102.1z"/>
	</g>
	<g>
		<path style="fill:#353535;" d="M128.2,219.5H34.7c-2.5,0-4.5-2-4.5-4.5l0,0c0-2.5,2-4.5,4.5-4.5h93.5c2.5,0,4.5,2,4.5,4.5l0,0
			C132.7,217.5,130.7,219.5,128.2,219.5z"/>
	</g>
	<path style="fill:#353535;" d="M157.7,107.2c0,5.4,1,9.8-5.7,9.8c-3.2,0-5.7-4.4-5.7-9.8c0-16.8,3.5-14,5.7-11.8
		C154.8,98.3,157.7,101.8,157.7,107.2z"/>
	<rect x="10.5" y="14" style="fill:#353535;" width="223.5" height="19.5"/>
	<rect x="196.5" y="30" style="fill:#353535;" width="11" height="189.5"/>
	<path style="opacity:0.7;fill:#FFFFFF;" d="M107.9,109h-56c-2.6,0-4.8-2.1-4.8-4.8v-21c0-2.6,2.1-4.8,4.8-4.8h56
		c2.6,0,4.8,2.1,4.8,4.8v21C112.7,106.8,110.6,109,107.9,109z"/>
	<path style="opacity:0.7;fill:#FFFFFF;" d="M107.9,126.4h-56c-2.6,0-4.8-2.1-4.8-4.8v0c0-2.6,2.1-4.8,4.8-4.8h56
		c2.6,0,4.8,2.1,4.8,4.8v0C112.7,124.3,110.6,126.4,107.9,126.4z"/>
	<path style="opacity:0.7;fill:#FFFFFF;" d="M91.9,61.7V73H68.2V61.7c0-6.2,5.3-11.3,11.9-11.3C86.6,50.5,91.9,55.5,91.9,61.7z"/>
	<path style="fill:#E53E23;" d="M85,64.2c0,2.8-2.3,5.1-5.1,5.1c-2.8,0-5.1-2.3-5.1-5.1s5.1-8.7,5.1-8.7S85,61.4,85,64.2z"/>
	<circle style="opacity:0.4;fill:#FFFFFF;" cx="82.7" cy="63.6" r="1.3"/>
</g>
</svg>
