<?xml version="1.0" encoding="utf-8"?>
<!-- Generator: Adobe Illustrator 22.1.0, SVG Export Plug-In . SVG Version: 6.00 Build 0)  -->
<svg version="1.1" id="Layer_1" xmlns="http://www.w3.org/2000/svg" xmlns:xlink="http://www.w3.org/1999/xlink" x="0px" y="0px"
	 viewBox="0 0 256 256" style="enable-background:new 0 0 256 256;" xml:space="preserve">
<g>
	<path style="fill:#F9F4E8;" d="M247.7,239.8c-21.3,10.3-55.2,1.5-73.6-9.6s-15.5,11-32.4,9.6c-10.4-0.9-24.2-14.9-38.5-19.9
		c-6-2.1-12-2.6-18,0c-3,1.3-6.1,3.5-9,6.6c-21.8,23.2-54.5,10.3-54.5,10.3c11,0,20.8-14,28.4-30.4c8.1-17.3,12.1-36.2,12.1-55.2
		V78.7c0-36.4,29.1-66.7,65.5-67.1c18.6-0.2,35.4,7.2,47.6,19.4c12,12,19.4,28.5,19.4,46.8v56.1c0,41,19,79.8,51.6,104.8
		C247.2,239.4,247.7,239.8,247.7,239.8z"/>
	<path style="fill:#F9F4E8;" d="M69.4,107.2c0,0-26.6-5.9-34.9-17.5s-28.6,7-4.1,28s34,25.5,34,25.5"/>
	<path style="fill:#F9F4E8;" d="M183.3,114.8c0,0,26-8.1,33.3-20.5s29.1,4.5,6.6,27.5s-31.7,28.4-31.7,28.4"/>
</g>
<g style="opacity:0;">
	<path style="opacity:0.7;fill:#2D2D2D;" d="M107.6,111.8c-1.8-2.1-0.6-4.7,0.1-7.3c1.5-5.6,9.4-14.5,21.2-14.5
		c15.5,0,23.4,19.2,21.1,22c-7.3,8.7-14.7-7.8-27.2-1.4C113.7,115.3,109.5,114.1,107.6,111.8z"/>
	
		<ellipse transform="matrix(0.3885 -0.9215 0.9215 0.3885 4.6074 139.7587)" style="opacity:0.7;fill:#2D2D2D;" cx="107.6" cy="66.4" rx="18" ry="9.8"/>
	
		<ellipse transform="matrix(0.9215 -0.3885 0.3885 0.9215 -14.1548 62.6763)" style="opacity:0.7;fill:#2D2D2D;" cx="147.9" cy="66.3" rx="9.8" ry="18"/>
</g>
</svg>
