<?xml version="1.0" encoding="utf-8"?>
<!-- Generator: Adobe Illustrator 22.1.0, SVG Export Plug-In . SVG Version: 6.00 Build 0)  -->
<svg version="1.1" id="Layer_1" xmlns="http://www.w3.org/2000/svg" xmlns:xlink="http://www.w3.org/1999/xlink" x="0px" y="0px"
	 viewBox="0 0 256 256" style="enable-background:new 0 0 256 256;" xml:space="preserve">
<path style="fill:#FC3250;" d="M247,78.1c0.3,10.8-2.3,20.9-7,29.8l-14.8,18.2l-84.1,103.4c-7.5,9.2-21.5,8.9-28.7-0.5L32.6,123.1
	L21.2,108l0,0l0,0l0,0c-4.7-8.9-7.2-19-7-29.8C15,46.4,40.9,20.4,72.7,19.5c26.3-0.7,48.9,15.3,57.9,38.3c9-23,31.6-39,57.9-38.3
	C220.3,20.4,246.2,46.4,247,78.1z"/>
</svg>
