<?xml version="1.0" encoding="utf-8"?>
<!-- Generator: Adobe Illustrator 22.1.0, SVG Export Plug-In . SVG Version: 6.00 Build 0)  -->
<svg version="1.1" id="Layer_1" xmlns="http://www.w3.org/2000/svg" xmlns:xlink="http://www.w3.org/1999/xlink" x="0px" y="0px"
	 viewBox="0 0 256 256" style="enable-background:new 0 0 256 256;" xml:space="preserve">
<g>
	<path style="fill:#FFC639;" d="M123.5,191.8v-69l-29.6-18.3c-10.6-6.6-20-15.1-27.5-25.1l0-0.1h117.9c-3.5,4.8-7.5,9.2-11.8,13.3
		c-4.3,4.1-9,7.7-13.9,11l-29,19v69.2l56.6,33.9H64L123.5,191.8z"/>
</g>
<g style="opacity:0;">
	<g>
		<path style="fill:#F4F4F4;" d="M137.8,126.9l36.2-23.2c13.8-8.8,22.1-24.1,22.1-40.4V31.4H56.9v31.9c0,16.4,8.3,31.6,22.1,40.4
			l36.8,23.5c1.2,0.8,2.1,1.8,2.8,2.9c0.6,1.2,1,2.5,1,3.9c0,2.8-1.4,5.3-3.8,6.8L79,164.5c-13.8,8.8-22.1,24-22.1,40.4v26.6h139.2
			v-26.6c0-16.4-8.3-31.6-22.1-40.4l-36.2-23.2c-2.3-1.5-3.8-4.1-3.8-6.8v-0.7C134,131,135.4,128.4,137.8,126.9z M186.2,225.8H64
			l59.4-34v-69l-29.6-18.3c-10.6-6.6-20-15.1-27.5-25.1l0-0.1h117.9c-3.5,4.8-7.5,9.2-11.8,13.3c-4.3,4.1-9,7.7-13.9,11l-29,19v69.2
			L186.2,225.8z"/>
	</g>
	<g>
		<path style="fill:#1B515E;" d="M206,24.5c0,3.8-3.1,6.8-6.9,6.8H53.9c-3.8,0-6.8-3.1-6.8-6.8c0-3.8,3.1-6.9,6.8-6.9h145.3
			C203,17.7,206,20.7,206,24.5z"/>
	</g>
	<g>
		<path style="fill:#1B515E;" d="M206,238.3c0,3.8-3.1,6.8-6.9,6.8H53.9c-3.8,0-6.8-3.1-6.8-6.8c0-3.8,3.1-6.9,6.8-6.9h145.3
			C203,231.5,206,234.5,206,238.3z"/>
	</g>
</g>
</svg>
