<?xml version="1.0" encoding="utf-8"?>
<!-- Generator: Adobe Illustrator 22.1.0, SVG Export Plug-In . SVG Version: 6.00 Build 0)  -->
<svg version="1.1" id="Layer_1" xmlns="http://www.w3.org/2000/svg" xmlns:xlink="http://www.w3.org/1999/xlink" x="0px" y="0px"
	 viewBox="0 0 256 256" style="enable-background:new 0 0 256 256;" xml:space="preserve">
<g>
	<path style="fill:#662F7C;" d="M240,158H14.5c0,0,36.6-20.4,68-36.3c2.7-1.4,5.4-2.7,8-4c16.4-8.1,30.3-14.4,35-14.7
		c2.8-0.2,9,1.9,17.3,5.3c8,3.4,17.9,8.1,28.3,13.2c0.9,0.4,1.8,0.9,2.7,1.3c6.5,3.2,13.1,6.6,19.5,10C218.1,145.8,240,158,240,158z
		"/>
</g>
<g style="opacity:0;">
	<g style="opacity:0.5;">
		<path d="M240,158H14.5c0,0,36.6-20.4,68-36.3c2.7-1.4,5.4-2.7,8-4c16.4-8.1,30.3-14.4,35-14.7c2.8-0.2,9,1.9,17.3,5.3
			c8,3.4,17.9,8.1,28.3,13.2c0.9,0.4,1.8,0.9,2.7,1.3c6.5,3.2,13.1,6.6,19.5,10C218.1,145.8,240,158,240,158z"/>
	</g>
	<path style="fill:#F2581C;" d="M200,114.3c0,7.1-2.5,13.5-6.7,18.5c-6.4-3.3-13.1-6.8-19.5-10c-0.9-0.5-1.8-0.9-2.7-1.3
		c-10.4-5.1-20.3-9.8-28.3-13.2c2.8-13.1,14.4-23,28.3-23C187,85.4,200,98.3,200,114.3z"/>
	<path style="fill:#F2F2F2;" d="M173.7,122.9c-2,0.3-4,0.2-5.9-0.5l-10-2.2c-1.3-0.4-2.6-0.7-3.9-0.7c-2,0-4.1,0.5-5.9,1.5
		c-3,1.7-8,2.6-10.5,1.4l-4.2-2c-2-0.9-4.2-0.9-6.2,0l-4.4,2.1c-2.2,1.1-4.7,1-6.8-0.3l-2.5-1.5c-2.1-1.2-4.4-1.3-6.5-0.4l-6.3,2.7
		c-1.8,0.8-10.8,0.8-13.1,0.1l-4.8-1.5c2.7-1.4,5.4-2.7,8-4c16.4-8.1,30.3-14.4,35-14.7c5.5-0.4,24.6,8.1,45.6,18.5
		C172,122,172.8,122.4,173.7,122.9z"/>
</g>
</svg>
