<?xml version="1.0" encoding="utf-8"?>
<!-- Generator: Adobe Illustrator 22.1.0, SVG Export Plug-In . SVG Version: 6.00 Build 0)  -->
<svg version="1.1" id="Layer_1" xmlns="http://www.w3.org/2000/svg" xmlns:xlink="http://www.w3.org/1999/xlink" x="0px" y="0px"
	 viewBox="0 0 256 256" style="enable-background:new 0 0 256 256;" xml:space="preserve">
<g>
	<rect style="fill:#24354F;" width="256" height="256"/>
	<polygon style="fill:#24354F;" points="8.3,235 79,201 122,229.7 149.1,222.3 161,229 195,218 209,228.3 256,228.3 256,256 0,256 
		0,239.7 	"/>
</g>
<g style="opacity:0;">
	<polygon style="opacity:0.1;" points="256,0 256,228.3 209,228.3 195,218 161,229 149.1,222.3 122,229.7 79,201 8.3,235 0,239.7 
		0,0 	"/>
	<g>
		<polygon style="fill:#FFE35A;" points="24.5,34.6 25,39.2 29.6,39.7 25,40.2 24.5,44.7 24,40.2 19.4,39.7 24,39.2 		"/>
		<polygon style="fill:#FFE35A;" points="122,34.6 122.5,39.2 127.1,39.7 122.5,40.2 122,44.7 121.5,40.2 116.9,39.7 121.5,39.2 		
			"/>
		<polygon style="fill:#FFE35A;" points="111.8,85.4 112.3,90 116.9,90.5 112.3,91 111.8,95.6 111.3,91 106.8,90.5 111.3,90 		"/>
		<polygon style="fill:#FFE35A;" points="145.7,169.6 143.9,165.4 139.4,166.2 143.6,164.4 142.8,159.9 144.6,164.1 149.1,163.3 
			144.9,165.1 		"/>
		<polygon style="fill:#FFE35A;" points="187.6,84.2 186.4,81.4 183.4,82 186.2,80.8 185.6,77.8 186.8,80.6 189.8,80 187,81.2 		"/>
		<polygon style="fill:#FFE35A;" points="47.5,146 45.7,141.8 41.1,142.6 45.4,140.8 44.5,136.3 46.3,140.5 50.9,139.7 46.6,141.5 
					"/>
		<polygon style="fill:#FFE35A;" points="63.1,87 65.9,85.6 65.1,82.5 66.6,85.3 69.6,84.5 66.8,86 67.6,89 66.2,86.2 		"/>
		<polygon style="fill:#FFE35A;" points="173.9,120.1 178,118 176.9,113.5 178.9,117.7 183.4,116.5 179.3,118.6 180.4,123.1 
			178.3,118.9 		"/>
		<polygon style="fill:#FFE35A;" points="212.8,82.5 223.9,77 220.8,65 226.4,76.1 238.4,73 227.3,78.6 230.4,90.6 224.8,79.5 		"/>
	</g>
	<polygon style="opacity:0.5;" points="256,228.3 256,256 0,256 0,239.7 8.3,235 79,201 122,229.7 149.1,222.3 161,229 195,218 
		209,228.3 	"/>
</g>
</svg>
