<?xml version="1.0" encoding="utf-8"?>
<!-- Generator: Adobe Illustrator 22.1.0, SVG Export Plug-In . SVG Version: 6.00 Build 0)  -->
<svg version="1.1" id="Layer_1" xmlns="http://www.w3.org/2000/svg" xmlns:xlink="http://www.w3.org/1999/xlink" x="0px" y="0px"
	 viewBox="0 0 256 256" style="enable-background:new 0 0 256 256;" xml:space="preserve">
<g>
	<rect x="16.5" y="183" style="fill:#FF9D3B;" width="215" height="3.5"/>
	<rect x="16.5" y="44.5" style="fill:#FF9D3B;" width="215" height="138.5"/>
</g>
<g style="opacity:0;">
	<path style="fill:#F4F4F4;" d="M124,176H22V41.7h79.5c12.4,0,22.5,10.1,22.5,22.5V176z"/>
	<path style="fill:#F4F4F4;" d="M226.7,176H124V64.2c0-12.4,10.1-22.5,22.5-22.5h80.2V176z"/>
	<path style="fill:#F7F7F7;" d="M124,176H25V39.3h76.5c12.4,0,22.5,10.1,22.5,22.5V176z"/>
	<path style="fill:#F7F7F7;" d="M223.3,176H124V61.8c0-12.4,10.1-22.5,22.5-22.5h76.8V176z"/>
	<path style="fill:#FFFFFF;" d="M124,176H28.3V37.5h73.2c12.4,0,22.5,10.1,22.5,22.5V176z"/>
	<path style="fill:#FFFFFF;" d="M219.7,176H124V60c0-12.4,10.1-22.5,22.5-22.5h73.2V176z"/>
	<g>
		<g>
			<rect x="137.5" y="62.5" style="fill:#EDEDED;" width="66.5" height="3"/>
		</g>
		<g>
			<rect x="137.5" y="84.8" style="fill:#EDEDED;" width="66.5" height="3"/>
		</g>
		<g>
			<rect x="137.5" y="107.2" style="fill:#EDEDED;" width="66.5" height="3"/>
		</g>
		<g>
			<rect x="37.2" y="62.5" style="fill:#EDEDED;" width="66.5" height="3"/>
		</g>
		<g>
			<rect x="37.2" y="84.8" style="fill:#EDEDED;" width="66.5" height="3"/>
		</g>
		<g>
			<rect x="37.2" y="107.2" style="fill:#EDEDED;" width="66.5" height="3"/>
		</g>
		<g>
			<rect x="37.2" y="129.5" style="fill:#EDEDED;" width="66.5" height="3"/>
		</g>
		<g>
			<rect x="37.2" y="151.8" style="fill:#EDEDED;" width="66.5" height="3"/>
		</g>
		<g>
			<rect x="137.5" y="129.5" style="fill:#EDEDED;" width="66.5" height="3"/>
		</g>
		<g>
			<rect x="137.5" y="151.8" style="fill:#EDEDED;" width="66.5" height="3"/>
		</g>
	</g>
	<rect x="16.5" y="183" style="opacity:0.2;" width="215" height="3.5"/>
</g>
</svg>
