<?xml version="1.0" encoding="utf-8"?>
<!-- Generator: Adobe Illustrator 22.1.0, SVG Export Plug-In . SVG Version: 6.00 Build 0)  -->
<svg version="1.1" id="Layer_1" xmlns="http://www.w3.org/2000/svg" xmlns:xlink="http://www.w3.org/1999/xlink" x="0px" y="0px"
	 viewBox="0 0 256 256" style="enable-background:new 0 0 256 256;" xml:space="preserve">
<path style="fill:#9B5094;" d="M46.1,104L46.1,104c8.6-6.8,13.7-17.9,14-28.9l0,0c5.2-12.8,22.4-14.8,30.4-3.6v0
	c3.9,11.7,11.3,20,21.5,27.1l0.1,0c10.3,12.4-0.3,31-16.3,28.4l0,0c-8.4-4.9-18.5-2.9-26.8,2.1l-2.9,1.7
	C49.8,136.8,35.7,117.9,46.1,104z"/>
<ellipse transform="matrix(0.6595 -0.7517 0.7517 0.6595 -51.3021 50.2959)" style="fill:#9B5094;" cx="29.9" cy="81.8" rx="15.9" ry="19.8"/>
<ellipse transform="matrix(0.8523 -0.5231 0.5231 0.8523 -17.9713 31.8339)" style="fill:#9B5094;" cx="47.4" cy="47.7" rx="15.9" ry="22.5"/>
<ellipse transform="matrix(0.3086 -0.9512 0.9512 0.3086 28.6781 115.4036)" style="fill:#9B5094;" cx="93.7" cy="38" rx="22.8" ry="15.9"/>
<ellipse transform="matrix(0.6946 -0.7194 0.7194 0.6946 -10.8093 105.9919)" style="fill:#9B5094;" cx="119.4" cy="65.7" rx="19.8" ry="15.9"/>
<path style="fill:#9B5094;" d="M149.7,197L149.7,197c10.1-4.2,18-13.6,21.2-24.1l0,0c8.4-10.9,25.6-8.3,30.3,4.6v0
	c0.7,12.4,5.6,22.3,13.5,31.9l0,0.1c6.6,14.7-8.6,29.7-23.3,23h0c-6.8-6.9-17-7.8-26.3-5.1l-3.2,0.9
	C144.5,229.7,135.9,207.6,149.7,197z"/>
<ellipse transform="matrix(0.8362 -0.5484 0.5484 0.8362 -70.9886 104.8046)" style="fill:#9B5094;" cx="140" cy="171.3" rx="15.9" ry="19.8"/>
<ellipse transform="matrix(0.961 -0.2766 0.2766 0.961 -33.1138 51.4811)" style="fill:#9B5094;" cx="165.9" cy="143.1" rx="15.9" ry="22.5"/>
<ellipse transform="matrix(0.5513 -0.8343 0.8343 0.5513 -26.2265 243.4334)" style="fill:#9B5094;" cx="213.2" cy="146.1" rx="22.8" ry="15.9"/>
<ellipse transform="matrix(0.8615 -0.5078 0.5078 0.8615 -59.3149 141.9841)" style="fill:#9B5094;" cx="230.6" cy="179.7" rx="19.8" ry="15.9"/>
</svg>
