<?xml version="1.0" encoding="utf-8"?>
<!-- Generator: Adobe Illustrator 22.1.0, SVG Export Plug-In . SVG Version: 6.00 Build 0)  -->
<svg version="1.1" id="Layer_1" xmlns="http://www.w3.org/2000/svg" xmlns:xlink="http://www.w3.org/1999/xlink" x="0px" y="0px"
	 viewBox="0 0 256 256" style="enable-background:new 0 0 256 256;" xml:space="preserve">
<circle style="fill:none;stroke:#232323;stroke-width:15;stroke-miterlimit:10;" cx="129.7" cy="122.5" r="114"/>
<g style="enable-background:new    ;">
	<path style="fill:#232323;" d="M78.1,185.7V54.8h58c11.7,0,20.5,1.2,26.6,3.5c6.1,2.4,10.9,6.5,14.5,12.4
		c3.6,5.9,5.4,12.5,5.4,19.7c0,9.3-3,17.1-9,23.5s-15.3,10.4-27.8,12.1c4.6,2.2,8.1,4.4,10.4,6.5c5.1,4.6,9.8,10.4,14.4,17.4
		l22.8,35.6h-21.8l-17.3-27.2c-5.1-7.9-9.2-13.9-12.5-18c-3.3-4.2-6.2-7.1-8.8-8.7c-2.6-1.7-5.2-2.8-7.9-3.5c-2-0.4-5.2-0.6-9.6-0.6
		H95.4v58.1L78.1,185.7L78.1,185.7z M95.4,112.6h37.2c7.9,0,14.1-0.8,18.6-2.5c4.5-1.6,7.9-4.3,10.2-7.9s3.5-7.5,3.5-11.7
		c0-6.2-2.2-11.3-6.7-15.3s-11.6-6-21.3-6H95.4V112.6z"/>
</g>
</svg>
