<?xml version="1.0" encoding="utf-8"?>
<!-- Generator: Adobe Illustrator 22.1.0, SVG Export Plug-In . SVG Version: 6.00 Build 0)  -->
<svg version="1.1" id="Layer_1" xmlns="http://www.w3.org/2000/svg" xmlns:xlink="http://www.w3.org/1999/xlink" x="0px" y="0px"
	 viewBox="0 0 256 256" style="enable-background:new 0 0 256 256;" xml:space="preserve">
<g>
	<path style="fill:#F4EED0;" d="M221.2,171.6c0,15.9-14.5,28.7-32.3,28.7v12c0-3.3-1.3-6.3-3.5-8.5c-2.2-2.2-5.2-3.5-8.5-3.5
		c-6.6,0-12,5.4-12,12c0-3.3-1.3-6.3-3.5-8.5c-2.2-2.2-5.1-3.5-8.5-3.5c-6.6,0-12,5.4-12,12c0-3.3-1.3-6.3-3.5-8.5
		c-2.2-2.2-5.2-3.5-8.5-3.5c-6.6,0-12,5.4-12,12c0-3.3-1.3-6.3-3.5-8.5c-2.2-2.2-5.2-3.5-8.5-3.5c-6.6,0-12,5.4-12,12
		c0-3.3-1.3-6.3-3.5-8.5c-2.2-2.2-5.1-3.5-8.5-3.5c-6.6,0-12,5.4-12,12v-12c-17.9,0-32.3-12.8-32.3-28.7c0-10,5.8-18.8,14.5-23.9
		c-11.5-14.1-18.3-31.4-18.3-50.1c0-47.1,43-85.3,96.1-85.3c53.1,0,96.1,38.2,96.1,85.3c0,18.7-6.8,36-18.3,50.1
		C215.4,152.8,221.2,161.6,221.2,171.6z"/>
	<path style="fill:#F4EED0;" d="M188.8,212.3v10.5H69v-10.5c0-6.6,5.4-12,12-12c3.3,0,6.3,1.3,8.5,3.5c2.2,2.2,3.5,5.2,3.5,8.5
		c0-6.6,5.4-12,12-12c3.3,0,6.3,1.3,8.5,3.5c2.2,2.2,3.5,5.2,3.5,8.5c0-6.6,5.4-12,12-12c3.3,0,6.3,1.3,8.5,3.5
		c2.2,2.2,3.5,5.2,3.5,8.5c0-6.6,5.4-12,12-12c3.3,0,6.3,1.3,8.5,3.5c2.2,2.2,3.5,5.2,3.5,8.5c0-6.6,5.4-12,12-12
		c3.3,0,6.3,1.3,8.5,3.5C187.5,206,188.8,209,188.8,212.3z"/>
	<path style="fill:#F4EED0;" d="M93,212.3v19.4c0,6.6-5.4,12-12,12c-6.6,0-12-5.4-12-12v-19.4c0-6.6,5.4-12,12-12
		c3.3,0,6.3,1.3,8.5,3.5C91.7,206,93,209,93,212.3z"/>
	<path style="fill:#F4EED0;" d="M117,212.3v19.4c0,6.6-5.4,12-12,12c-6.6,0-12-5.4-12-12v-19.4c0-6.6,5.4-12,12-12
		c3.3,0,6.3,1.3,8.5,3.5C115.6,206,117,209,117,212.3z"/>
	<path style="fill:#F4EED0;" d="M140.9,212.3v19.4c0,6.6-5.4,12-12,12c-6.6,0-12-5.4-12-12v-19.4c0-6.6,5.4-12,12-12
		c3.3,0,6.3,1.3,8.5,3.5C139.6,206,140.9,209,140.9,212.3z"/>
	<path style="fill:#F4EED0;" d="M164.9,212.3v19.4c0,6.6-5.4,12-12,12c-6.6,0-12-5.4-12-12v-19.4c0-6.6,5.4-12,12-12
		c3.3,0,6.3,1.3,8.5,3.5C163.5,206,164.9,209,164.9,212.3z"/>
	<path style="fill:#F4EED0;" d="M188.8,212.3v19.4c0,6.6-5.4,12-12,12c-6.6,0-12-5.4-12-12v-19.4c0-6.6,5.4-12,12-12
		c3.3,0,6.3,1.3,8.5,3.5C187.5,206,188.8,209,188.8,212.3z"/>
</g>
<g style="opacity:0;">
	<path style="opacity:0.2;" d="M140.2,182.8h-22.5c-4.1,0-6.7-4.5-4.6-8l11.3-19c2.1-3.5,7.1-3.5,9.1,0l11.3,19
		C146.9,178.3,144.3,182.8,140.2,182.8z"/>
	<circle style="opacity:0.2;" cx="94.8" cy="141.2" r="19.3"/>
	<circle style="opacity:0.2;" cx="164.9" cy="142.9" r="19.3"/>
	<path style="opacity:5.000000e-02;" d="M93,212.3v19.4c0,6.6-5.4,12-12,12c-6.6,0-12-5.4-12-12v-19.4c0-6.6,5.4-12,12-12
		c3.3,0,6.3,1.3,8.5,3.5C91.7,206,93,209,93,212.3z"/>
	<path style="opacity:5.000000e-02;" d="M117,212.3v19.4c0,6.6-5.4,12-12,12c-6.6,0-12-5.4-12-12v-19.4c0-6.6,5.4-12,12-12
		c3.3,0,6.3,1.3,8.5,3.5C115.6,206,117,209,117,212.3z"/>
	<path style="opacity:5.000000e-02;" d="M140.9,212.3v19.4c0,6.6-5.4,12-12,12c-6.6,0-12-5.4-12-12v-19.4c0-6.6,5.4-12,12-12
		c3.3,0,6.3,1.3,8.5,3.5C139.6,206,140.9,209,140.9,212.3z"/>
	<path style="opacity:5.000000e-02;" d="M164.9,212.3v19.4c0,6.6-5.4,12-12,12c-6.6,0-12-5.4-12-12v-19.4c0-6.6,5.4-12,12-12
		c3.3,0,6.3,1.3,8.5,3.5C163.5,206,164.9,209,164.9,212.3z"/>
	<path style="opacity:5.000000e-02;" d="M188.8,212.3v19.4c0,6.6-5.4,12-12,12c-6.6,0-12-5.4-12-12v-19.4c0-6.6,5.4-12,12-12
		c3.3,0,6.3,1.3,8.5,3.5C187.5,206,188.8,209,188.8,212.3z"/>
</g>
</svg>
