<?xml version="1.0" encoding="utf-8"?>
<!-- Generator: Adobe Illustrator 22.1.0, SVG Export Plug-In . SVG Version: 6.00 Build 0)  -->
<svg version="1.1" id="Layer_1" xmlns="http://www.w3.org/2000/svg" xmlns:xlink="http://www.w3.org/1999/xlink" x="0px" y="0px"
	 viewBox="0 0 256 256" style="enable-background:new 0 0 256 256;" xml:space="preserve">
<g style="opacity:0;">
	<g>
		<path style="fill:#58E0CD;" d="M146.1,43c-0.3-0.7-0.8-1.5-1.3-2.3l10.4-4.2L143.7,39c0,0,0,0,0,0l-1.2-1l5.1-9.5l-8.7,8l-1.2-0.1
			l-1.9-0.2l0,0l-2.1-13.2v13.3c-0.8,0.1-1.6,0.3-2.3,0.5l-11.5-8.8l9,10.1c-1.7,1.2-2.9,2.7-3.7,3.9h-9l8.8,3.1v24H146V45.6
			l12.3-1.7L146.1,43z M143.7,54c0,4.6-3.7,8.3-8.3,8.3c-4.6,0-8.3-3.7-8.3-8.3v-8.1c4.8-0.9,7-5,7.8-7.4c0.2,0,0.4,0,0.7,0
			c0.9,2.3,3.1,6.5,8.1,7.4V54z"/>
		<path style="fill:#58E0CD;" d="M143.7,45.9V54c0,4.6-3.7,8.3-8.3,8.3c-4.6,0-8.3-3.7-8.3-8.3v-8.1c4.8-0.9,7-5,7.8-7.4
			c0.2,0,0.4,0,0.7,0C136.5,40.9,138.8,45,143.7,45.9z"/>
	</g>
	<path style="fill:#58E0CD;" d="M151.5,68.8L163,92.6c0,0,2.2,16.4-13.2,14.8L151.5,68.8z"/>
	<polygon style="fill:#58E0CD;" points="170.2,85.9 152.8,102.1 152.1,84.5 160.3,76.6 	"/>
	<polygon style="fill:#58E0CD;" points="151.2,141.4 151.2,173.6 111.9,173.6 	"/>
	<path style="fill:#58E0CD;" d="M143.7,45.9V54c0,4.6-3.7,8.3-8.3,8.3c-4.6,0-8.3-3.7-8.3-8.3v-8.1c4.8-0.9,7-5,7.8-7.4
		c0.2,0,0.4,0,0.7,0C136.5,40.9,138.8,45,143.7,45.9z"/>
	<polygon style="fill:#58E0CD;" points="154.3,138.8 151.2,141.4 111.9,173.6 111.9,102.9 114.2,102.9 114.2,91 116.3,87.9 
		111.9,78.3 125.1,68.8 151.5,68.8 152.1,84.5 152.8,102.1 	"/>
	<polygon style="fill:#58E0CD;" points="116.3,87.9 137.3,68.8 151.5,68.8 151.9,78.4 114.2,102.9 114.2,91 	"/>
	<polygon style="fill:#58E0CD;" points="125.1,68.8 119.3,62.3 108.8,68.8 113.2,77.4 	"/>
	<polygon style="fill:#58E0CD;" points="108.8,68.8 107.4,34.5 111.9,34.5 119.3,62.3 	"/>
	<path style="fill:#58E0CD;" d="M118.9,20.5v2.4c0,0.9-0.8,1.7-1.7,1.7h-3.8v12.2c0,0.9-0.8,1.7-1.7,1.7h-2.4
		c-0.9,0-1.7-0.8-1.7-1.7V24.6h-4.2c-0.9,0-1.7-0.8-1.7-1.7v-2.4c0-0.9,0.8-1.7,1.7-1.7h4.2v-3.3h5.8v3.3h3.8
		C118.1,18.8,118.9,19.6,118.9,20.5z"/>
	<path style="fill:#58E0CD;" d="M107.6,15.5c0,0-2.4-3,1.9-5.1c4.2-2.1,4.4-5.4,4.4-5.4s5.7,6.9-0.5,10.5H107.6z"/>
</g>
<g>
	<path style="opacity:0.1;" d="M141.4,50.1H139c-0.6,0-1-0.4-1-1s0.4-1,1-1h2.3c0.6,0,1,0.4,1,1S141.9,50.1,141.4,50.1z"/>
	<path style="opacity:0.1;" d="M132,50.1h-2.3c-0.6,0-1-0.4-1-1s0.4-1,1-1h2.3c0.6,0,1,0.4,1,1S132.6,50.1,132,50.1z"/>
	<path style="opacity:0.1;" d="M118.9,20.5v2.4c0,0.9-0.8,1.7-1.7,1.7h-3.8v12.2c0,0.9-0.8,1.7-1.7,1.7h-2.4c-0.9,0-1.7-0.8-1.7-1.7
		V24.6h-4.2c-0.9,0-1.7-0.8-1.7-1.7v-2.4c0-0.9,0.8-1.7,1.7-1.7h4.2v-3.3h5.8v3.3h3.8C118.1,18.8,118.9,19.6,118.9,20.5z"/>
	<polygon style="opacity:0.1;" points="170.2,85.9 152.8,102.1 152.1,84.5 160.3,76.6 	"/>
	<polygon style="opacity:0.1;" points="116.3,87.9 137.3,68.8 151.5,68.8 151.9,78.4 114.2,102.9 114.2,91 	"/>
	<polygon style="opacity:0.1;" points="125.1,68.8 119.3,62.3 108.8,68.8 113.2,77.4 	"/>
	<polygon style="opacity:0.1;" points="151.2,141.4 151.2,173.6 111.9,173.6 	"/>
	<rect x="93.7" y="173.6" style="fill:#B2C19D;" width="73.4" height="73.4"/>
	<rect x="87.3" y="182.9" style="fill:#A1AF8C;" width="86.1" height="12.3"/>
	<g style="opacity:0.1;">
		<path d="M146.1,43c-0.3-0.7-0.8-1.5-1.3-2.3l10.4-4.2L143.7,39c0,0,0,0,0,0l-1.2-1l5.1-9.5l-8.7,8l-1.2-0.1l-1.9-0.2l0,0
			l-2.1-13.2v13.3c-0.8,0.1-1.6,0.3-2.3,0.5l-11.5-8.8l9,10.1c-1.7,1.2-2.9,2.7-3.7,3.9h-9l8.8,3.1v24H146V45.6l12.3-1.7L146.1,43z
			 M143.7,54c0,4.6-3.7,8.3-8.3,8.3c-4.6,0-8.3-3.7-8.3-8.3v-8.1c4.8-0.9,7-5,7.8-7.4c0.2,0,0.4,0,0.7,0c0.9,2.3,3.1,6.5,8.1,7.4V54
			z"/>
	</g>
</g>
</svg>
