<?xml version="1.0" encoding="utf-8"?>
<!-- Generator: Adobe Illustrator 22.1.0, SVG Export Plug-In . SVG Version: 6.00 Build 0)  -->
<svg version="1.1" id="Layer_1" xmlns="http://www.w3.org/2000/svg" xmlns:xlink="http://www.w3.org/1999/xlink" x="0px" y="0px"
	 viewBox="0 0 256 256" style="enable-background:new 0 0 256 256;" xml:space="preserve">
<g style="opacity:0;">
	<path style="fill:#FFCC3E;" d="M219.1,125.5L238,96L206.9,80l1.6-35l-35,1.6l-16.1-31.1L128,34.4L98.5,15.5L82.5,46.6l-35-1.6
		l1.6,35L18,96l18.9,29.5L18,155L49.1,171l-1.6,35l35-1.6l16.1,31.1l29.5-18.9l29.5,18.9l16.1-31.1l35,1.6l-1.6-35L238,155
		L219.1,125.5z M128,216c-50,0-90.5-40.5-90.5-90.5S78,35,128,35s90.5,40.5,90.5,90.5S178,216,128,216z"/>
	<circle style="fill:#FFCC3E;" cx="128" cy="125.5" r="90.5"/>
</g>
<g>
	<g style="opacity:0.2;">
		<circle cx="163.5" cy="120.5" r="8.8"/>
	</g>
	<g style="opacity:0.2;">
		<circle cx="96.5" cy="120.5" r="8.8"/>
	</g>
	<g style="opacity:0.2;">
		<path d="M128,185c-38.4,0-50.3-34.4-50.4-34.7c-0.4-1.3,0.3-2.7,1.6-3.2c1.3-0.4,2.7,0.3,3.2,1.6l0,0C82.8,150,93.3,180,128,180
			c37.7,0,47-31.1,47.1-31.4c0.4-1.3,1.8-2.1,3.1-1.7c1.3,0.4,2.1,1.8,1.7,3.1C179.8,150.3,169.4,185,128,185z"/>
	</g>
	<path style="opacity:0.1;" d="M219.1,125.5L238,96L206.9,80l1.6-35l-35,1.6l-16.1-31.1L128,34.4L98.5,15.5L82.5,46.6l-35-1.6
		l1.6,35L18,96l18.9,29.5L18,155L49.1,171l-1.6,35l35-1.6l16.1,31.1l29.5-18.9l29.5,18.9l16.1-31.1l35,1.6l-1.6-35L238,155
		L219.1,125.5z M128,216c-50,0-90.5-40.5-90.5-90.5S78,35,128,35s90.5,40.5,90.5,90.5S178,216,128,216z"/>
</g>
</svg>
