<?xml version="1.0" encoding="utf-8"?>
<!-- Generator: Adobe Illustrator 22.1.0, SVG Export Plug-In . SVG Version: 6.00 Build 0)  -->
<svg version="1.1" id="Layer_1" xmlns="http://www.w3.org/2000/svg" xmlns:xlink="http://www.w3.org/1999/xlink" x="0px" y="0px"
	 viewBox="0 0 256 256" style="enable-background:new 0 0 256 256;" xml:space="preserve">
<g style="opacity:0;">
	<path style="fill:#EA5A1B;" d="M201.7,131.9c0,14.4-6.4,27.4-16.4,36.2l-0.2,0.2l-72.3,65.6l-75.5-64.5l-2.2-1.9l-0.1-0.1
		c-0.5-0.5-1.1-1-1.6-1.6c-8.6-8.7-14-20.7-14-33.9c0-26.6,21.5-48.1,48.1-48.1c18.9,0,35.2,10.9,43.1,26.8
		c7.9-15.9,24.2-26.8,43.1-26.8C180.1,83.8,201.7,105.4,201.7,131.9z"/>
	<path style="fill:#EA5A1B;" d="M244,37.2c0,7.1-3.1,13.4-8.1,17.7l-0.1,0.1l-35.4,32.1l-37-31.6l-1.1-0.9l-0.1-0.1
		c-0.3-0.2-0.5-0.5-0.8-0.8c-4.2-4.3-6.8-10.1-6.8-16.6c0-13,10.5-23.6,23.6-23.6c9.3,0,17.3,5.3,21.1,13.1
		c3.9-7.8,11.9-13.1,21.1-13.1C233.5,13.7,244,24.2,244,37.2z"/>
</g>
<g style="opacity:0.1;">
	<path d="M244,37.2c0,7.1-3.1,13.4-8.1,17.7l-0.1,0.1l-35.4,32.1l-37-31.6l-1.1-0.9l-0.1-0.1c-0.3-0.2-0.5-0.5-0.8-0.8
		c-4.2-4.3-6.8-10.1-6.8-16.6c0-13,10.5-23.6,23.6-23.6c9.3,0,17.3,5.3,21.1,13.1c3.9-7.8,11.9-13.1,21.1-13.1
		C233.5,13.7,244,24.2,244,37.2z"/>
</g>
</svg>
