<?xml version="1.0" encoding="utf-8"?>
<!-- Generator: Adobe Illustrator 22.1.0, SVG Export Plug-In . SVG Version: 6.00 Build 0)  -->
<svg version="1.1" id="Layer_1" xmlns="http://www.w3.org/2000/svg" xmlns:xlink="http://www.w3.org/1999/xlink" x="0px" y="0px"
	 viewBox="0 0 256 256" style="enable-background:new 0 0 256 256;" xml:space="preserve">
<g style="opacity:0;">
	<path style="fill:#B74118;" d="M174.8,167.8c-0.5,4.4-3,8.3-6.7,10.7c-0.2,0.1-0.4,0.3-0.7,0.4c-7.3,4.2-13.4,8.6-18.5,13
		c-14.9,13-21.6,26.4-26,36c-6.1,9.5-18.3,6.8-76.3,3.8c-0.4,0-0.8,0.1-1.2,0.2c0-0.3,0-0.5,0-0.8c-0.2-3.8-0.4-8.7-0.2-11.6
		c0.2-4,3.1-7.4,6.9-8.3c6.5-1.5,37.9-12.3,43.8-27.8c6.9-18.3,7.9-102.7,8-145h70.5c-3,26.4-7.8,65.9-9.8,75.1c-3,14,5,24.7,5,24.7
		C176.5,141.9,175.9,158,174.8,167.8z"/>
	<rect x="98.4" y="11" style="fill:#B74118;" width="84" height="27.5"/>
</g>
<g>
	<path style="fill:#444444;" d="M163.7,241.8h-13.3c1.8-14,0-36.1-1.5-49.8c5.1-4.5,11.2-8.9,18.5-13c0.2-0.1,0.4-0.3,0.7-0.4
		C162.5,205.2,163.7,241.8,163.7,241.8z"/>
	<path style="fill:#444444;" d="M122.9,228c-3.6,8-5.6,13.3-9.2,13.6c-0.9,0.1-2.3,0.1-4,0c-14.6-0.2-55-3.4-62.6-3.2
		c-1.5,0-2.8-1.1-2.9-2.6c0-0.4-0.1-0.8-0.1-1.3c-0.1-1.1,0.5-2,1.4-2.4c0.4-0.2,0.8-0.2,1.2-0.2C104.6,234.8,116.8,237.5,122.9,228
		z"/>
	<rect x="98.4" y="11" style="opacity:0.2;" width="84" height="27.5"/>
</g>
</svg>
