<?xml version="1.0" encoding="utf-8"?>
<!-- Generator: Adobe Illustrator 22.1.0, SVG Export Plug-In . SVG Version: 6.00 Build 0)  -->
<svg version="1.1" id="Layer_1" xmlns="http://www.w3.org/2000/svg" xmlns:xlink="http://www.w3.org/1999/xlink" x="0px" y="0px"
	 viewBox="0 0 143 149" style="enable-background:new 0 0 143 149;" xml:space="preserve">
<g>
	<path style="fill:#FFEB5C;" d="M71,107L71,107c-15.5,0-28-12.5-28-28V36h56v43C99,94.5,86.5,107,71,107z"/>
	<path style="fill:#2DBEF7;" d="M71,90L71,90c-8,0-14.6-6.5-14.6-14.6V55.6C56.4,47.5,63,41,71,41h0c8,0,14.6,6.5,14.6,14.6v19.9
		C85.6,83.5,79,90,71,90z"/>
	<path d="M71,81L71,81c-4.4,0-8-3.6-8-8V58c0-4.4,3.6-8,8-8h0c4.4,0,8,3.6,8,8v15C79,77.4,75.4,81,71,81z"/>
	<circle style="fill:#FFFFFF;" cx="75" cy="52" r="6"/>
</g>
</svg>
