<?xml version="1.0" encoding="utf-8"?>
<!-- Generator: Adobe Illustrator 22.1.0, SVG Export Plug-In . SVG Version: 6.00 Build 0)  -->
<svg version="1.1" id="Layer_1" xmlns="http://www.w3.org/2000/svg" xmlns:xlink="http://www.w3.org/1999/xlink" x="0px" y="0px"
	 viewBox="0 0 143 149" style="enable-background:new 0 0 143 149;" xml:space="preserve">
<g>
	<path style="fill:#F4F4F4;" d="M111,74c0,19.3-15.7,35-35,35S41,93.3,41,74c0-3.1,0.4-6.1,1.2-9c4-15,17.6-26,33.8-26
		s29.9,11,33.8,26C110.6,67.9,111,70.9,111,74z"/>
	<path d="M97,74c0,11.6-9.4,21-21,21s-21-9.4-21-21c0-1.9,0.2-3.7,0.7-5.4C58.1,59.6,66.3,53,76,53s17.9,6.6,20.3,15.6
		C96.8,70.3,97,72.1,97,74z"/>
	<path style="fill:#F7461C;" d="M109.8,65H42.2c4-15,17.6-26,33.8-26S105.9,50,109.8,65z"/>
</g>
</svg>
