<?xml version="1.0" encoding="utf-8"?>
<!-- Generator: Adobe Illustrator 22.1.0, SVG Export Plug-In . SVG Version: 6.00 Build 0)  -->
<svg version="1.1" id="Layer_1" xmlns="http://www.w3.org/2000/svg" xmlns:xlink="http://www.w3.org/1999/xlink" x="0px" y="0px"
	 viewBox="0 0 143 149" style="enable-background:new 0 0 143 149;" xml:space="preserve">
<g>
	<g>
		<path d="M71,47.3c-1.6,0-2.9-1.3-2.9-2.9V19.9c0-1.6,1.3-2.9,2.9-2.9s2.9,1.3,2.9,2.9v24.5C73.9,46,72.6,47.3,71,47.3z"/>
	</g>
	<g>
		<path d="M56.6,50.2c-1.1,0-2.2-0.7-2.7-1.8l-9.5-22.6c-0.6-1.5,0.1-3.2,1.5-3.8c1.5-0.6,3.2,0.1,3.8,1.5l9.5,22.6
			c0.6,1.5-0.1,3.2-1.5,3.8C57.3,50.1,57,50.2,56.6,50.2z"/>
	</g>
	<g>
		<path d="M43.6,58.8c-0.9,0-1.7-0.4-2.3-1.1l-15-19.4c-1-1.3-0.7-3.1,0.5-4c1.3-1,3.1-0.7,4,0.5l15,19.4c1,1.3,0.7,3.1-0.5,4
			C44.8,58.6,44.2,58.8,43.6,58.8z"/>
	</g>
	<g>
		<path d="M97.8,58.8c-0.6,0-1.2-0.2-1.8-0.6c-1.3-1-1.5-2.8-0.5-4l15-19.4c1-1.3,2.8-1.5,4-0.5c1.3,1,1.5,2.8,0.5,4l-15,19.4
			C99.5,58.4,98.7,58.8,97.8,58.8z"/>
	</g>
	<g>
		<path d="M84.6,50.2c-0.4,0-0.8-0.1-1.1-0.2c-1.5-0.6-2.2-2.3-1.5-3.8l9.5-22.6c0.6-1.5,2.3-2.2,3.8-1.5c1.5,0.6,2.2,2.3,1.5,3.8
			l-9.5,22.6C86.8,49.5,85.7,50.2,84.6,50.2z"/>
	</g>
	<g>
		<circle style="fill:#FFDD71;" cx="71" cy="81.9" r="46.1"/>
	</g>
	<g>
		<circle cx="71" cy="81.9" r="30.3"/>
	</g>
	<g>
		<circle style="fill:#90ED2E;" cx="71" cy="81.9" r="8.6"/>
	</g>
</g>
</svg>
