<?xml version="1.0" encoding="utf-8"?>
<!-- Generator: Adobe Illustrator 22.1.0, SVG Export Plug-In . SVG Version: 6.00 Build 0)  -->
<svg version="1.1" id="Layer_1" xmlns="http://www.w3.org/2000/svg" xmlns:xlink="http://www.w3.org/1999/xlink" x="0px" y="0px"
	 viewBox="0 0 143 149" style="enable-background:new 0 0 143 149;" xml:space="preserve">
<g>
	<path style="fill:#F4F4F4;" d="M136.4,91.9V94c0,7.7-6.3,14-14,14H28.6c-7.7,0-14-6.3-14-14v-2.1c0-10.4,2.6-20.1,7.2-28.7
		C32,44,52.2,31,75.5,31c16.8,0,32,6.8,43.1,17.8c4.2,4.2,7.8,9.1,10.7,14.4C133.8,71.8,136.4,81.5,136.4,91.9z"/>
	<circle cx="74.8" cy="63.2" r="21"/>
	<circle style="fill:#FFFFFF;" cx="90.2" cy="57.6" r="11.2"/>
	<path style="fill:#4F18D3;" d="M129.2,63.2H21.8C32,44,52.2,31,75.5,31c16.8,0,32,6.8,43.1,17.8C122.8,53.1,126.4,57.9,129.2,63.2z
		"/>
	<path style="fill:#4F18D3;" d="M122.4,108H28.6c-7.7,0-14-6.3-14-14v0c40.6,9.3,81.2,9.3,121.8,0v0
		C136.4,101.7,130.1,108,122.4,108z"/>
</g>
</svg>
