<?xml version="1.0" encoding="utf-8"?>
<!-- Generator: Adobe Illustrator 22.1.0, SVG Export Plug-In . SVG Version: 6.00 Build 0)  -->
<svg version="1.1" id="Layer_1" xmlns="http://www.w3.org/2000/svg" xmlns:xlink="http://www.w3.org/1999/xlink" x="0px" y="0px"
	 viewBox="0 0 143 149" style="enable-background:new 0 0 143 149;" xml:space="preserve">
<g>
	<path style="fill:#2DBEF7;" d="M98,55v27c0,14.9-12.1,27-27,27S44,96.9,44,82V55c0-1,0.1-2,0.2-3C45.7,38.5,57.1,28,71,28
		c7.5,0,14.2,3,19.1,7.9c4.2,4.2,7,9.8,7.7,16.1C97.9,53,98,54,98,55z"/>
	<path style="fill:#F4F4F4;" d="M71,103L71,103c-12.2,0-22-9.8-22-22V56c0-12.2,9.8-22,22-22h0c12.2,0,22,9.8,22,22v25
		C93,93.2,83.2,103,71,103z"/>
	<polygon style="stroke:#FFEB5C;stroke-width:3;stroke-miterlimit:10;" points="56,40 70.6,89 87,40 	"/>
	<path style="fill:#1792E5;" d="M97.8,52c-17.7-6.7-35.6-6.6-53.7,0C45.7,38.5,57.1,28,71,28c7.5,0,14.2,3,19.1,7.9
		C94.3,40.1,97.1,45.7,97.8,52z"/>
</g>
</svg>
