<?xml version="1.0" encoding="utf-8"?>
<!-- Generator: Adobe Illustrator 22.1.0, SVG Export Plug-In . SVG Version: 6.00 Build 0)  -->
<svg version="1.1" id="Layer_1" xmlns="http://www.w3.org/2000/svg" xmlns:xlink="http://www.w3.org/1999/xlink" x="0px" y="0px"
	 viewBox="0 0 143 149" style="enable-background:new 0 0 143 149;" xml:space="preserve">
<g>
	<path style="fill:#F7FF50;" d="M85,99H57c-16,0-29-13-29-29v0c0-16,13-29,29-29h28c16,0,29,13,29,29v0C114,86,101,99,85,99z"/>
	<path style="fill:#F4F4F4;" d="M85,92H57c-12.2,0-22-9.8-22-22v0c0-12.2,9.8-22,22-22h28c12.2,0,22,9.8,22,22v0
		C107,82.2,97.2,92,85,92z"/>
	<ellipse style="fill:#A0001B;" cx="70.5" cy="68.5" rx="7.5" ry="14.5"/>
</g>
</svg>
