<?xml version="1.0" encoding="utf-8"?>
<!-- Generator: Adobe Illustrator 22.1.0, SVG Export Plug-In . SVG Version: 6.00 Build 0)  -->
<svg version="1.1" id="Layer_1" xmlns="http://www.w3.org/2000/svg" xmlns:xlink="http://www.w3.org/1999/xlink" x="0px" y="0px"
	 viewBox="0 0 70 141" style="enable-background:new 0 0 70 141;" xml:space="preserve">
<g>
	<path style="fill:#17BEE5;" d="M48,121.6c-1,0.8-2,1.5-3.1,2c-2.8,1.5-6.1,2.4-9.6,2.4c-3.6,0-7-0.9-9.9-2.5
		c-1.1-0.6-2.2-1.4-3.2-2.2c-4.6-3.8-7.5-9.6-7.5-15.9c0-1.4,0.1-2.7,0.4-4.1l0.8-3.7l0.7-3.5L25.9,48l0.8-3.9L34,8l3,13l0.9,3.8
		L45,56.3l0.9,3.7l8.7,38.1l0.6,2.7c0,0.2,0.1,0.4,0.1,0.6C56.9,109.4,53.7,117,48,121.6z"/>
	<circle style="fill:#FFFFFF;" cx="33" cy="39" r="2"/>
	<path style="fill:#FFFFFF;" d="M28,46c0,1.1-0.9,2-2,2c0,0-0.1,0-0.1,0l0.8-3.9C27.4,44.4,28,45.1,28,46z"/>
	<path style="fill:#FFFFFF;" d="M45.9,60c-1.1,0-1.9-0.9-1.9-2c0-0.8,0.4-1.4,1-1.8L45.9,60z"/>
	<path style="fill:#FFFFFF;" d="M37.8,24.8C37.6,24.9,37.3,25,37,25c-1.1,0-2-0.9-2-2c0-1.1,0.9-2,2-2L37.8,24.8z"/>
	<circle style="fill:#FFFFFF;" cx="29" cy="56" r="2"/>
	<circle style="fill:#FFFFFF;" cx="38" cy="48" r="2"/>
	<circle style="fill:#FFFFFF;" cx="42" cy="66" r="2"/>
	<circle style="fill:#FFFFFF;" cx="33" cy="67" r="2"/>
	<circle style="fill:#FFFFFF;" cx="24" cy="83" r="2"/>
	<circle style="fill:#FFFFFF;" cx="38" cy="78" r="2"/>
	<circle style="fill:#FFFFFF;" cx="49" cy="90" r="2"/>
	<circle style="fill:#FFFFFF;" cx="36" cy="89" r="2"/>
	<circle style="fill:#FFFFFF;" cx="28" cy="100" r="2"/>
	<path style="fill:#FFFFFF;" d="M19,96c0,1.1-0.9,2-2,2c-0.5,0-0.9-0.2-1.2-0.4l0.7-3.5C16.7,94,16.8,94,17,94
		C18.1,94,19,94.9,19,96z"/>
	<path style="fill:#FFFFFF;" d="M55.4,101.5c-0.3,0.3-0.8,0.5-1.4,0.5c-1.1,0-2-0.9-2-2c0-1.1,0.9-2,2-2c0.2,0,0.4,0,0.6,0.1
		l0.6,2.7C55.3,101,55.3,101.2,55.4,101.5z"/>
	<path style="fill:#FFFFFF;" d="M48,121.6c-1,0.8-2,1.5-3.1,2c-0.5-0.4-0.8-1-0.8-1.6c0-1.1,0.9-2,2-2C47,120,47.8,120.7,48,121.6z"
		/>
	<path style="fill:#FFFFFF;" d="M26,122c0,0.6-0.3,1.1-0.7,1.5c-1.1-0.6-2.2-1.4-3.2-2.2c0.3-0.8,1-1.3,1.9-1.3
		C25.1,120,26,120.9,26,122z"/>
	<circle style="fill:#FFFFFF;" cx="21" cy="111" r="2"/>
	<circle style="fill:#FFFFFF;" cx="36" cy="120" r="2"/>
	<circle style="fill:#FFFFFF;" cx="35" cy="110" r="2"/>
	<circle style="fill:#FFFFFF;" cx="47" cy="106" r="2"/>
</g>
</svg>
