<?xml version="1.0" encoding="utf-8"?>
<!-- Generator: Adobe Illustrator 22.1.0, SVG Export Plug-In . SVG Version: 6.00 Build 0)  -->
<svg version="1.1" id="Layer_1" xmlns="http://www.w3.org/2000/svg" xmlns:xlink="http://www.w3.org/1999/xlink" x="0px" y="0px"
	 viewBox="0 0 70 141" style="enable-background:new 0 0 70 141;" xml:space="preserve">
<g>
	<path style="fill:#A1EA2D;" d="M50.5,113.1c-0.9,2.7-2.7,5.1-5,6.9c-2.4,1.9-5.5,3-8.9,3h-3.7c-6.9,0-12.6-4.8-14.2-11
		c-0.3-1.3-0.5-2.6-0.4-4c0-0.8,0.1-1.7,0.3-2.6L21,93l1.2-5.8l2.9-14.6l0.8-4.1L29.8,49l1-5l1.7-8.6l0.8-3.9L36,18l2.3,13.1
		l0.8,4.8L42.2,54l1.5,9l0.9,5.3l0.7,4.3l3.9,22.5l1.1,6.5l0.7,4.1C51.5,108.4,51.3,110.9,50.5,113.1z"/>
	<path style="fill:#FFE922;" d="M37,46.5c0,1.4-2.7,2.5-6,2.5c-0.4,0-0.8,0-1.2,0l1-5H31C34.3,44,37,45.1,37,46.5z"/>
	<path style="fill:#FFE922;" d="M43.7,63h-0.2c-5.3,0-9.5-2-9.5-4.5c0-2.3,3.6-4.2,8.2-4.5L43.7,63z"/>
	<path style="fill:#FFE922;" d="M45.4,72.6C42.6,72.9,39.4,73,36,73c-4.1,0-7.9-0.2-10.9-0.5l0.8-4.1C28.8,68.2,32.3,68,36,68
		c3.1,0,6.1,0.1,8.6,0.3L45.4,72.6z"/>
	<path style="fill:#FFE922;" d="M39.1,35.9c-2.4-0.1-4.7-0.3-6.6-0.5l0.8-3.9c1.5-0.2,3.1-0.3,4.9-0.4L39.1,35.9z"/>
	<path style="fill:#FFE922;" d="M29,90c0,1.5-3.5,2.7-8,3l1.2-5.8C26.1,87.5,29,88.6,29,90z"/>
	<path style="fill:#FFE922;" d="M50.3,101.7c-2.1,0.2-4.4,0.3-6.8,0.3c-9.7,0-17.5-1.6-17.5-3.5S33.8,95,43.5,95
		c2,0,3.9,0.1,5.7,0.2L50.3,101.7z"/>
	<path style="fill:#FFE922;" d="M50.5,113.1c-0.9,2.7-2.7,5.1-5,6.9c-9.6,0-17.5-1.6-17.5-3.5s7.8-3.5,17.5-3.5
		C47.2,113,48.9,113,50.5,113.1z"/>
	<path style="fill:#FFE922;" d="M29,110c0,1.1-4.3,2-9.5,2c-0.3,0-0.6,0-0.8,0c-0.3-1.3-0.5-2.6-0.4-4c0.4,0,0.8,0,1.3,0
		C24.8,108,29,108.9,29,110z"/>
</g>
</svg>
