<?xml version="1.0" encoding="utf-8"?>
<!-- Generator: Adobe Illustrator 22.1.0, SVG Export Plug-In . SVG Version: 6.00 Build 0)  -->
<svg version="1.1" id="Layer_1" xmlns="http://www.w3.org/2000/svg" xmlns:xlink="http://www.w3.org/1999/xlink" x="0px" y="0px"
	 viewBox="0 0 70 141" style="enable-background:new 0 0 70 141;" xml:space="preserve">
<g>
	<polygon style="fill:#EF5C1B;" points="61,130 14,130 16.3,118 16.6,116.4 19.9,99 20,98.5 21.6,90.2 21.8,89 26.5,64.9 26.8,63 
		29.9,47 30.3,44.9 36,15 41.2,38.8 41.7,41 42.7,45.6 43,47 44.8,55.7 45.1,57 50.9,83.4 51.2,85 53.7,96.5 53.7,96.5 54.3,99 
		57,111.8 57.3,113 	"/>
	<polygon style="fill:#FCA147;" points="41.7,41 34,41 41.2,38.8 	"/>
	<polygon style="fill:#FCA147;" points="45.1,57 32,57 44.8,55.7 	"/>
	<polygon style="fill:#FCA147;" points="40,63 26.5,64.9 26.8,63 	"/>
	<polygon style="fill:#FCA147;" points="51.2,85 29,85 50.9,83.4 	"/>
	<polygon style="fill:#FCA147;" points="40,89 21.6,90.2 21.8,89 	"/>
	<polygon style="fill:#FCA147;" points="57.3,113 42,113 57,111.8 	"/>
	<polygon style="fill:#FCA147;" points="54.3,99 19.9,99 20,98.5 53.7,96.5 	"/>
	<polygon style="fill:#FCA147;" points="43,47 29.9,47 30.3,44.9 42.7,45.6 	"/>
	<polygon style="fill:#FCA147;" points="52,118 16.3,118 16.6,116.4 	"/>
</g>
</svg>
