<?xml version="1.0" encoding="utf-8"?>
<!-- Generator: Adobe Illustrator 22.1.0, SVG Export Plug-In . SVG Version: 6.00 Build 0)  -->
<svg version="1.1" id="Layer_1" xmlns="http://www.w3.org/2000/svg" xmlns:xlink="http://www.w3.org/1999/xlink" x="0px" y="0px"
	 viewBox="0 0 70 141" style="enable-background:new 0 0 70 141;" xml:space="preserve">
<g>
	<polygon style="fill:#E22348;" points="61,122 14,122 17.6,103.1 18.4,99.1 22.2,79.2 23,75 26.4,57.1 27.2,52.9 29.6,40.5 
		29.6,40.5 30.4,36.2 32,27.6 32.9,23.2 32.9,23.2 36,7 39.2,21.6 40,25.6 41.8,33.5 42.6,37.5 45,48.6 45.9,52.6 49.5,68.9 
		50.3,73 54.3,91.1 55.2,95.1 59.3,114.1 60.2,118.1 	"/>
	<path style="fill:#FFBA9F;" d="M40,25.6c-2.6,0.7-5.3,1.4-8,2l0.8-4.4v0c2.1-0.5,4.2-1.1,6.3-1.7L40,25.6z"/>
	<path style="fill:#FFBA9F;" d="M42.6,37.5c-4.3,1.1-8.7,2.1-13,3l0.8-4.3c3.8-0.8,7.6-1.7,11.4-2.7L42.6,37.5z"/>
	<path style="fill:#FFBA9F;" d="M45.9,52.6c-6.4,1.8-12.9,3.2-19.5,4.5l0.8-4.2c6-1.2,11.9-2.6,17.8-4.3L45.9,52.6z"/>
	<path style="fill:#FFBA9F;" d="M50.3,73c-9.2,2.6-18.6,4.7-28.2,6.2L23,75c8.8-1.5,17.7-3.5,26.5-6.1L50.3,73z"/>
	<path style="fill:#FFBA9F;" d="M55.2,95.1c-12.2,3.6-24.7,6.3-37.5,8l0.8-4.1c12-1.7,24-4.4,35.9-8L55.2,95.1z"/>
	<path style="fill:#FFBA9F;" d="M60.2,118.1c-4.8,1.4-9.7,2.7-14.6,3.9H23.9c11.8-1.7,23.6-4.4,35.4-7.9L60.2,118.1z"/>
</g>
</svg>
