<?xml version="1.0" encoding="utf-8"?>
<!-- Generator: Adobe Illustrator 22.1.0, SVG Export Plug-In . SVG Version: 6.00 Build 0)  -->
<svg version="1.1" id="Layer_1" xmlns="http://www.w3.org/2000/svg" xmlns:xlink="http://www.w3.org/1999/xlink" x="0px" y="0px"
	 viewBox="0 0 70 141" style="enable-background:new 0 0 70 141;" xml:space="preserve">
<g>
	<path style="fill:#ED4CB3;" d="M50,113.2c-1.9,2.6-4.4,4.6-7.4,6c-2.4,1.1-5.2,1.8-8.1,1.8c-10.8,0-19.3-8.9-19.3-19.2
		c0-1.3,0.1-2.6,0.4-3.9l5-24.5l2-9.8l6-29.2l2-9.8L33,13l12.5,52l2.2,9.2l5.5,23C54.7,103.1,53.3,108.8,50,113.2z"/>
	<path style="fill:#F7AC28;" d="M38,93c0-7.8,3.8-14.6,9.7-18.8L45.5,65C35.7,70.4,29,80.9,29,93c0,10.8,5.4,20.4,13.7,26.2
		c3-1.4,5.5-3.5,7.4-6C42.9,109.3,38,101.7,38,93z"/>
	<path style="fill:#F7AC28;" d="M30.6,24.6l-2,9.8C30.2,37.6,31,41.2,31,45c0,7.4-3.2,14-8.3,18.6l-2,9.8C31,68.1,38,57.4,38,45
		C38,37.2,35.2,30.1,30.6,24.6z"/>
</g>
</svg>
