<?xml version="1.0" encoding="utf-8"?>
<!-- Generator: Adobe Illustrator 22.1.0, SVG Export Plug-In . SVG Version: 6.00 Build 0)  -->
<svg version="1.1" id="Layer_1" xmlns="http://www.w3.org/2000/svg" xmlns:xlink="http://www.w3.org/1999/xlink" x="0px" y="0px"
	 viewBox="0 0 70 141" style="enable-background:new 0 0 70 141;" xml:space="preserve">
<g>
	<polygon style="fill:#30004C;" points="63,121 7,121 10.2,108.4 11.5,103.5 16.4,84.1 17.6,79.3 21.9,62.5 23.1,57.6 27.4,40.9 
		28.6,36.1 31.6,24.3 32.8,19.4 35,11 37.5,20.8 38.9,26.5 42.4,40.2 43.9,45.8 48.8,65.3 50.3,70.9 55.2,90.5 56.7,96.1 
		62.4,118.7 	"/>
	<polygon style="fill:#F9B51C;" points="38.9,26.5 31.6,24.3 32.8,19.4 37.5,20.8 	"/>
	<polygon style="fill:#F9B51C;" points="43.9,45.8 27.4,40.9 28.6,36.1 42.4,40.2 	"/>
	<polygon style="fill:#F9B51C;" points="50.3,70.9 21.9,62.5 23.1,57.6 48.8,65.3 	"/>
	<polygon style="fill:#F9B51C;" points="56.7,96.1 16.4,84.1 17.6,79.3 55.2,90.5 	"/>
	<polygon style="fill:#F9B51C;" points="63,121 52.7,121 10.2,108.4 11.5,103.5 62.4,118.7 	"/>
</g>
</svg>
