<?xml version="1.0" encoding="utf-8"?>
<!-- Generator: Adobe Illustrator 22.1.0, SVG Export Plug-In . SVG Version: 6.00 Build 0)  -->
<svg version="1.1" id="Layer_1" xmlns="http://www.w3.org/2000/svg" xmlns:xlink="http://www.w3.org/1999/xlink" x="0px" y="0px"
	 viewBox="0 0 70 141" style="enable-background:new 0 0 70 141;" xml:space="preserve">
<g>
	<polygon style="fill:#7BAF37;" points="33,20 7,125 64,125 38,20 	"/>
	<path style="fill:#94D62B;" d="M54,125H17c-4.4,0-8-3.6-8-8v0c0-4.4,3.6-8,8-8h37c4.4,0,8,3.6,8,8v0C62,121.4,58.4,125,54,125z"/>
	<path style="fill:#94D62B;" d="M50.5,105h-30c-3.6,0-6.5-2.9-6.5-6.5v0c0-3.6,2.9-6.5,6.5-6.5h30c3.6,0,6.5,2.9,6.5,6.5v0
		C57,102.1,54.1,105,50.5,105z"/>
	<path style="fill:#94D62B;" d="M47,88H24c-3.3,0-6-2.7-6-6v0c0-3.3,2.7-6,6-6h23c3.3,0,6,2.7,6,6v0C53,85.3,50.3,88,47,88z"/>
	<path style="fill:#94D62B;" d="M44.5,73h-18c-3,0-5.5-2.5-5.5-5.5v0c0-3,2.5-5.5,5.5-5.5h18c3,0,5.5,2.5,5.5,5.5v0
		C50,70.5,47.5,73,44.5,73z"/>
	<path style="fill:#94D62B;" d="M41,58H30c-2.8,0-5-2.2-5-5v0c0-2.8,2.2-5,5-5h11c2.8,0,5,2.2,5,5v0C46,55.8,43.8,58,41,58z"/>
	<path style="fill:#94D62B;" d="M39,44h-7c-2.2,0-4-1.8-4-4v0c0-2.2,1.8-4,4-4h7c2.2,0,4,1.8,4,4v0C43,42.2,41.2,44,39,44z"/>
	<path style="fill:#94D62B;" d="M37,33h-3c-1.7,0-3-1.3-3-3v0c0-1.7,1.3-3,3-3h3c1.7,0,3,1.3,3,3v0C40,31.7,38.7,33,37,33z"/>
	<path style="fill:#94D62B;" d="M35.5,24L35.5,24c-2.1,0-3.3-2.3-2.2-4l2.5-4l2.1,4.2C38.7,21.9,37.5,24,35.5,24z"/>
</g>
</svg>
