<?xml version="1.0" encoding="utf-8"?>
<!-- Generator: Adobe Illustrator 22.1.0, SVG Export Plug-In . SVG Version: 6.00 Build 0)  -->
<svg version="1.1" id="Layer_1" xmlns="http://www.w3.org/2000/svg" xmlns:xlink="http://www.w3.org/1999/xlink" x="0px" y="0px"
	 viewBox="0 0 256 256" style="enable-background:new 0 0 256 256;" xml:space="preserve">
<path style="fill:#FF5500;" d="M235,141.5c-8-10.4-19.4-17.8-34.3-22.1c10.5-4.8,18.9-11.9,25.1-21.5c6.2-9.5,9.2-20,9.2-31.5
	c0-10.5-2.5-20.1-7.5-28.6c-5-8.5-11.2-15.3-18.7-20.4c-7.5-5.1-16-8.5-25.5-10.1C173.8,5.8,159.4,5,140.1,5h-14.4H42.5H28.1v244.1
	h14.4h68.7h14.4c31.4-0.2,51.2-0.8,59.4-1.7c13.1-1.4,24.1-5.3,33.1-11.6c8.9-6.3,16-14.7,21.1-25.1c5.2-10.5,7.7-21.3,7.7-32.4
	C247,164.2,243,152,235,141.5z M105.7,45.6c23.2,0,37.2,0.3,42.1,0.8c8.2,1,14.4,3.9,18.6,8.6c4.2,4.7,6.2,10.9,6.2,18.4
	c0,7.9-2.4,14.2-7.2,19.1c-4.8,4.8-11.5,7.7-19.9,8.7c-4.7,0.6-16.6,0.8-35.8,0.8H91.8V45.6H105.7z M91.8,208v-65.3h25.4
	c22.4,0,37,1.2,43.7,3.5c6.7,2.3,11.8,6.1,15.4,11.2c3.6,5.1,5.3,11.3,5.3,18.6c0,8.7-2.3,15.6-6.9,20.7c-4.6,5.2-10.6,8.4-17.9,9.7
	c-4.8,1-16,1.5-33.8,1.5H91.8z"/>
</svg>
