<?xml version="1.0" encoding="utf-8"?>
<!-- Generator: Adobe Illustrator 22.1.0, SVG Export Plug-In . SVG Version: 6.00 Build 0)  -->
<svg version="1.1" id="Layer_1" xmlns="http://www.w3.org/2000/svg" xmlns:xlink="http://www.w3.org/1999/xlink" x="0px" y="0px"
	 viewBox="0 0 256 256" style="enable-background:new 0 0 256 256;" xml:space="preserve">
<g style="opacity:0.2;">
	<path d="M235,141.5c-8-10.4-19.4-17.8-34.3-22.1c10.5-4.8,18.9-11.9,25.1-21.5c6.2-9.5,9.2-20,9.2-31.5c0-10.5-2.5-20.1-7.5-28.6
		c-5-8.5-11.2-15.3-18.7-20.4c-7.5-5.1-16-8.5-25.5-10.1C173.8,5.8,159.4,5,140.1,5h-14.4c19.3,0,33.7,0.8,43.2,2.4
		c9.5,1.6,18,5,25.5,10.1c7.5,5.1,13.7,11.9,18.7,20.4c5,8.5,7.5,18,7.5,28.6c0,11.4-3.1,21.9-9.2,31.5
		c-6.2,9.5-14.5,16.7-25.1,21.5c14.9,4.3,26.3,11.7,34.3,22.1c8,10.4,12,22.7,12,36.8c0,11.1-2.6,21.9-7.7,32.4
		c-5.2,10.5-12.2,18.9-21.1,25.1c-8.9,6.3-20,10.1-33.1,11.6c-8.2,0.9-28,1.4-59.4,1.7h14.4c31.4-0.2,51.2-0.8,59.4-1.7
		c13.1-1.4,24.1-5.3,33.1-11.6c8.9-6.3,16-14.7,21.1-25.1c5.2-10.5,7.7-21.3,7.7-32.4C247,164.2,243,152,235,141.5z"/>
	<rect x="77.4" y="142.7" width="14.4" height="65.3"/>
	<rect x="77.4" y="45.6" width="14.4" height="56.4"/>
</g>
</svg>
