<?xml version="1.0" encoding="utf-8"?>
<!-- Generator: Adobe Illustrator 22.1.0, SVG Export Plug-In . SVG Version: 6.00 Build 0)  -->
<svg version="1.1" id="Layer_1" xmlns="http://www.w3.org/2000/svg" xmlns:xlink="http://www.w3.org/1999/xlink" x="0px" y="0px"
	 viewBox="0 0 256 256" style="enable-background:new 0 0 256 256;" xml:space="preserve">
<path style="fill:#FF5500;" d="M182,158.9h-14.2l13.1,4.2l0,0l-13.1-4.2c-4,17.6-10.7,30.5-20,38.7c-7.6,6.7-16.4,10.7-26.4,11.9
	c0,0,0,0,0,0c-3.5-0.4-6.8-1.1-10-2c-0.1,0-0.2,0-0.2-0.1c-0.7-0.2-1.3-0.4-2-0.7c-0.2-0.1-0.4-0.1-0.6-0.2
	c-0.6-0.2-1.2-0.5-1.8-0.7c-0.2-0.1-0.5-0.2-0.7-0.3c-0.6-0.2-1.2-0.5-1.7-0.8c-0.2-0.1-0.5-0.2-0.7-0.3c-0.6-0.3-1.1-0.5-1.7-0.8
	c-0.2-0.1-0.3-0.2-0.5-0.3c-1-0.6-2-1.2-3-1.8c-0.3-0.2-0.6-0.4-0.9-0.6c-0.4-0.3-0.8-0.5-1.1-0.8c-0.4-0.3-0.8-0.5-1.1-0.8
	c-0.3-0.3-0.7-0.5-1-0.8c-0.4-0.3-0.8-0.6-1.2-1c-0.3-0.3-0.6-0.5-1-0.8c-0.4-0.4-0.8-0.7-1.2-1.1c-0.3-0.3-0.6-0.5-0.9-0.8
	c-0.4-0.4-0.9-0.9-1.3-1.3c-0.2-0.2-0.5-0.5-0.7-0.7c-0.7-0.7-1.3-1.4-1.9-2.2c-10.9-12.9-16.4-34.5-16.4-64.9
	c0-28.6,5.5-49.3,16.6-62.1c0.6-0.7,1.3-1.5,2-2.2c0.2-0.2,0.5-0.5,0.7-0.7c0.4-0.5,0.9-0.9,1.4-1.3c0.3-0.3,0.6-0.5,0.9-0.8
	c0.4-0.4,0.8-0.8,1.3-1.1c0.3-0.3,0.6-0.5,1-0.8c0.4-0.3,0.8-0.7,1.2-1c0.3-0.3,0.7-0.5,1-0.8c0.4-0.3,0.8-0.6,1.2-0.9
	c0.4-0.3,0.7-0.5,1.1-0.8c0.4-0.3,0.8-0.5,1.2-0.7c0.9-0.6,1.9-1.1,2.8-1.6c0.2-0.1,0.4-0.2,0.6-0.3c0.5-0.3,1-0.5,1.6-0.8
	c0.3-0.1,0.6-0.3,0.9-0.4c0.5-0.2,1.1-0.5,1.6-0.7c0.3-0.1,0.6-0.2,0.9-0.4c0.6-0.2,1.1-0.4,1.7-0.6c0.3-0.1,0.5-0.2,0.8-0.3
	c0.6-0.2,1.2-0.4,1.8-0.6c0.2-0.1,0.4-0.1,0.7-0.2c0.7-0.2,1.3-0.4,2-0.5c0.1,0,0.1,0,0.2,0c2.5-0.6,5.1-1,7.8-1.3c0,0,0,0,0,0
	c9.9,1.1,18.5,4.6,25.8,10.4c9,7.2,14.9,17,17.8,29.5l13.3-3.2l0,0l-13.3,3.2h14.2l48-11.5c-5.5-19.2-13.7-34-24.6-44.2
	c-18.3-17.4-42.2-26-71.6-26c-1.2,0-2.4,0-3.6,0c-0.1,0-0.1,0-0.2,0c-1.2,0-2.3,0.1-3.4,0.1C122.7,3.1,120.4,3,118,3
	C84.4,3,57.3,14.1,36.6,36.2c-20.6,22.1-31,53.2-31,93.1c0,37.8,10.3,67.6,30.8,89.3c20.5,21.8,46.7,32.7,78.6,32.7
	c2.4,0,4.8-0.1,7.2-0.2c0,0,0,0,0,0c0,0,0,0,0,0c0,0,0,0,0,0c1.1,0.1,2.2,0.1,3.3,0.1c0.1,0,0.1,0,0.2,0c1.1,0,2.3,0,3.5,0
	c25.8,0,47-6.4,63.8-19.1c16.8-12.7,28.7-32.2,36-58.4L182,158.9z"/>
</svg>
