<?xml version="1.0" encoding="utf-8"?>
<!-- Generator: Adobe Illustrator 22.1.0, SVG Export Plug-In . SVG Version: 6.00 Build 0)  -->
<svg version="1.1" id="Layer_1" xmlns="http://www.w3.org/2000/svg" xmlns:xlink="http://www.w3.org/1999/xlink" x="0px" y="0px"
	 viewBox="0 0 256 256" style="enable-background:new 0 0 256 256;" xml:space="preserve">
<g style="opacity:0.2;">
	<path d="M182,158.9h-14.2l13.1,4.2l0,0l33.9,10.7c-7.2,26.2-19.2,45.7-36,58.4c-15.2,11.5-34.1,17.8-56.6,18.9c0,0,0,0,0,0
		c0,0,0,0,0,0c0,0,0,0,0,0c1.1,0.1,2.2,0.1,3.3,0.1c0.1,0,0.1,0,0.2,0c1.1,0,2.3,0,3.5,0c25.8,0,47-6.4,63.8-19.1
		c16.8-12.7,28.7-32.2,36-58.4L182,158.9z"/>
	<path d="M189.6,29c10.9,10.3,19.1,25,24.6,44.2l-34.6,8.3l0,0l-13.3,3.2h14.2l48-11.5c-5.5-19.2-13.7-34-24.6-44.2
		c-18.3-17.4-42.2-26-71.6-26c-1.2,0-2.4,0-3.6,0c-0.1,0-0.1,0-0.2,0c-1.2,0-2.3,0.1-3.4,0.1C151.2,4.5,172.7,13.1,189.6,29z"/>
	<path d="M121.5,209.5c-3.5-0.4-6.8-1.1-10-2c-0.1,0-0.2,0-0.2-0.1c-0.7-0.2-1.3-0.4-2-0.7c-0.2-0.1-0.4-0.1-0.6-0.2
		c-0.6-0.2-1.2-0.5-1.8-0.7c-0.2-0.1-0.5-0.2-0.7-0.3c-0.6-0.2-1.2-0.5-1.7-0.8c-0.2-0.1-0.5-0.2-0.7-0.3c-0.6-0.3-1.1-0.5-1.7-0.8
		c-0.2-0.1-0.3-0.2-0.5-0.3c-1-0.6-2-1.2-3-1.8c-0.3-0.2-0.6-0.4-0.9-0.6c-0.4-0.3-0.8-0.5-1.1-0.8c-0.4-0.3-0.8-0.5-1.1-0.8
		c-0.3-0.3-0.7-0.5-1-0.8c-0.4-0.3-0.8-0.6-1.2-1c-0.3-0.3-0.6-0.5-1-0.8c-0.4-0.4-0.8-0.7-1.2-1.1c-0.3-0.3-0.6-0.5-0.9-0.8
		c-0.4-0.4-0.9-0.9-1.3-1.3c-0.2-0.2-0.5-0.5-0.7-0.7c-0.7-0.7-1.3-1.4-1.9-2.2c-10.9-12.9-16.4-34.5-16.4-64.9
		c0-28.6,5.5-49.3,16.6-62.1c0.6-0.7,1.3-1.5,2-2.2c0.2-0.2,0.5-0.5,0.7-0.7c0.4-0.5,0.9-0.9,1.4-1.3c0.3-0.3,0.6-0.5,0.9-0.8
		c0.4-0.4,0.8-0.8,1.3-1.1c0.3-0.3,0.6-0.5,1-0.8c0.4-0.3,0.8-0.7,1.2-1c0.3-0.3,0.7-0.5,1-0.8c0.4-0.3,0.8-0.6,1.2-0.9
		c0.4-0.3,0.7-0.5,1.1-0.8c0.4-0.3,0.8-0.5,1.2-0.7c0.9-0.6,1.9-1.1,2.8-1.6c0.2-0.1,0.4-0.2,0.6-0.3c0.5-0.3,1-0.5,1.6-0.8
		c0.3-0.1,0.6-0.3,0.9-0.4c0.5-0.2,1.1-0.5,1.6-0.7c0.3-0.1,0.6-0.2,0.9-0.4c0.6-0.2,1.1-0.4,1.7-0.6c0.3-0.1,0.5-0.2,0.8-0.3
		c0.6-0.2,1.2-0.4,1.8-0.6c0.2-0.1,0.4-0.1,0.7-0.2c0.7-0.2,1.3-0.4,2-0.5c0.1,0,0.1,0,0.2,0c2.5-0.6,5.1-1,7.8-1.3c0,0,0,0,0,0
		c-2.3-0.3-4.6-0.4-7-0.4c-17.8,0-32.2,6.4-43.3,19.2c-11.1,12.8-16.6,33.5-16.6,62.1c0,30.4,5.5,52,16.4,64.9
		c10.9,12.9,25.1,19.3,42.6,19.3C116.9,209.9,119.2,209.7,121.5,209.5C121.5,209.5,121.5,209.5,121.5,209.5z"/>
</g>
</svg>
