<?xml version="1.0" encoding="utf-8"?>
<!-- Generator: Adobe Illustrator 22.1.0, SVG Export Plug-In . SVG Version: 6.00 Build 0)  -->
<svg version="1.1" id="Layer_1" xmlns="http://www.w3.org/2000/svg" xmlns:xlink="http://www.w3.org/1999/xlink" x="0px" y="0px"
	 viewBox="0 0 256 256" style="enable-background:new 0 0 256 256;" xml:space="preserve">
<path style="fill:#FF5500;" d="M244,71.6c-5.5-16-13.5-29.6-24-40.7c-10.5-11.1-23.1-18.8-37.8-23.1c-11-3.2-26.9-4.8-47.8-4.8
	h-14.8H41.8H27v251h14.8h80.6h14.8c18.7,0,33.7-1.8,44.9-5.3c15-4.8,26.8-11.5,35.6-20c11.6-11.3,20.6-26.1,26.9-44.3
	c5.1-15,7.7-32.8,7.7-53.4C252.2,107.4,249.5,87.6,244,71.6z M92.4,211.7V45.5h8c20.7,0,34.5,0.8,41.6,2.4c9.5,2.1,17.3,6,23.5,11.8
	c6.2,5.8,11,13.9,14.4,24.3c3.4,10.4,5.1,25.3,5.1,44.7c0,19.4-1.7,34.7-5.1,46c-3.4,11.2-7.8,19.3-13.3,24.2
	c-5.4,4.9-12.2,8.4-20.5,10.4c-6.3,1.6-16.5,2.4-30.6,2.4H92.4z"/>
</svg>
