<?xml version="1.0" encoding="utf-8"?>
<!-- Generator: Adobe Illustrator 22.1.0, SVG Export Plug-In . SVG Version: 6.00 Build 0)  -->
<svg version="1.1" id="Layer_1" xmlns="http://www.w3.org/2000/svg" xmlns:xlink="http://www.w3.org/1999/xlink" x="0px" y="0px"
	 viewBox="0 0 256 256" style="enable-background:new 0 0 256 256;" xml:space="preserve">
<g style="opacity:0.2;">
	<rect x="77.6" y="45.5" width="14.8" height="166.2"/>
	<path d="M244,71.6c-5.5-16-13.5-29.6-24-40.7c-10.5-11.1-23.1-18.8-37.8-23.1c-11-3.2-26.9-4.8-47.8-4.8h-14.8
		c20.9,0,36.8,1.6,47.8,4.8c14.7,4.3,27.3,12,37.8,23.1c10.5,11.1,18.5,24.6,24,40.7c5.5,16,8.2,35.8,8.2,59.3
		c0,20.7-2.6,38.5-7.7,53.4c-6.3,18.3-15.2,33-26.9,44.3c-8.8,8.6-20.7,15.2-35.6,20c-11.2,3.5-26.1,5.3-44.9,5.3h14.8
		c18.7,0,33.7-1.8,44.9-5.3c15-4.8,26.8-11.5,35.6-20c11.6-11.3,20.6-26.1,26.9-44.3c5.1-15,7.7-32.8,7.7-53.4
		C252.2,107.4,249.5,87.6,244,71.6z"/>
</g>
</svg>
