<?xml version="1.0" encoding="utf-8"?>
<!-- Generator: Adobe Illustrator 22.1.0, SVG Export Plug-In . SVG Version: 6.00 Build 0)  -->
<svg version="1.1" id="Layer_1" xmlns="http://www.w3.org/2000/svg" xmlns:xlink="http://www.w3.org/1999/xlink" x="0px" y="0px"
	 viewBox="0 0 256 256" style="enable-background:new 0 0 256 256;" xml:space="preserve">
<path style="fill:#FF5500;" d="M227.5,120h-89.1h-14v39.9h14h40.8v30.1c-7.2,5.6-15.9,10.4-25.9,14.3c-7.8,3-15.6,4.9-23.3,5.6
	C113,208.3,99,201.4,88,189c-12.5-14.1-18.7-35.1-18.7-63.3c0-26.1,6.2-45.7,18.5-59c10.9-11.7,25-18.2,42.6-19.6
	c10.9,0.9,20.1,4.2,27.8,9.8c9.2,6.7,15.5,15.9,18.8,27.5l13.3,0l0.6-0.1c0,0,0,0,0,0.1l47.5-8.9c-4.7-21.8-15.4-38.8-31.9-51.1
	C190,12.2,167,6.1,137.6,6.1c-2.4,0-4.7,0.1-6.9,0.1c-2.3-0.1-4.6-0.1-7-0.1C101,6.1,82.1,10,66.9,17.8C47,28.1,31.9,42.8,21.5,62
	C11.2,81.1,6,103.1,6,127.7c0,22.7,4.6,43.8,13.9,63.1c9.3,19.3,23.1,34.2,41.5,44.6c18.4,10.4,40,15.6,64.8,15.6
	c2.3,0,4.6-0.1,6.9-0.2c2.3,0.1,4.7,0.2,7.1,0.2c19.5,0,38.7-3.7,57.8-11.1c19-7.4,33.5-15.9,43.5-25.6V120H227.5z"/>
</svg>
