<?xml version="1.0" encoding="utf-8"?>
<!-- Generator: Adobe Illustrator 22.1.0, SVG Export Plug-In . SVG Version: 6.00 Build 0)  -->
<svg version="1.1" id="Layer_1" xmlns="http://www.w3.org/2000/svg" xmlns:xlink="http://www.w3.org/1999/xlink" x="0px" y="0px"
	 viewBox="0 0 256 256" style="enable-background:new 0 0 256 256;" xml:space="preserve">
<g style="opacity:0.2;">
	<path d="M88,189c-12.5-14.1-18.7-35.1-18.7-63.3c0-26.1,6.2-45.7,18.5-59c10.9-11.7,25-18.2,42.6-19.6c-2.2-0.2-4.4-0.3-6.7-0.3
		c-20.9,0-37.5,6.6-49.8,19.9c-12.3,13.2-18.5,32.9-18.5,59c0,28.1,6.2,49.2,18.7,63.3c12.5,14.1,28.9,21.1,49.1,21.1
		c2.3,0,4.5-0.1,6.8-0.3C113,208.3,99,201.4,88,189z"/>
	<path d="M192.5,24.6c16.5,12.3,27.2,29.4,31.9,51.1l-47.5,8.9l13.3,0l0.6-0.1c0,0,0,0,0,0.1l47.5-8.9
		c-4.7-21.8-15.4-38.8-31.9-51.1C190,12.2,167,6.1,137.6,6.1c-2.4,0-4.7,0.1-6.9,0.1C156.7,7.1,177.4,13.2,192.5,24.6z"/>
	<path d="M227.5,120v94.4c-10,9.7-24.5,18.2-43.5,25.6c-16.8,6.5-33.7,10.1-50.8,10.9c2.3,0.1,4.7,0.2,7.1,0.2
		c19.5,0,38.7-3.7,57.8-11.1c19-7.4,33.5-15.9,43.5-25.6V120H227.5z"/>
</g>
</svg>
