<?xml version="1.0" encoding="utf-8"?>
<!-- Generator: Adobe Illustrator 22.1.0, SVG Export Plug-In . SVG Version: 6.00 Build 0)  -->
<svg version="1.1" id="Layer_1" xmlns="http://www.w3.org/2000/svg" xmlns:xlink="http://www.w3.org/1999/xlink" x="0px" y="0px"
	 viewBox="0 0 256 256" style="enable-background:new 0 0 256 256;" xml:space="preserve">
<path style="fill:#FF5500;" d="M190.8,2h-35.2h-14.6v160.1c0,20.1-2.3,33.3-6.9,39.6c-3.4,4.7-8.7,7.7-15.7,8.9
	c-7.7-1.5-13.7-5.7-18-12.7c-3.6-5.9-7.4-17.5-7.9-31.7l-12.9,1.7c0,0,0-0.1,0-0.1l-47.2,5.4c0.1,26.5,6.8,46.6,19.9,60.3
	c13.2,13.7,32,20.5,56.5,20.5c2.6,0,5.2-0.1,7.7-0.2c2.3,0.1,4.5,0.2,6.9,0.2c20.8,0,37.6-4.4,50.4-13.1
	c12.7-8.7,21.5-20.3,26.4-34.7c3.6-11,5.4-26.8,5.4-47.3V2H190.8z"/>
</svg>
