<?xml version="1.0" encoding="utf-8"?>
<!-- Generator: Adobe Illustrator 22.1.0, SVG Export Plug-In . SVG Version: 6.00 Build 0)  -->
<svg version="1.1" id="Layer_1" xmlns="http://www.w3.org/2000/svg" xmlns:xlink="http://www.w3.org/1999/xlink" x="0px" y="0px"
	 viewBox="0 0 256 256" style="enable-background:new 0 0 256 256;" xml:space="preserve">
<g style="opacity:0.2;">
	<path d="M85.6,197.9c5.4,8.9,13.6,13.4,24.7,13.4c2.9,0,5.5-0.2,7.9-0.6c-7.7-1.5-13.7-5.7-18-12.7c-3.6-5.9-7.4-17.5-7.9-31.7
		l-12.9,1.7C80,182,82,192,85.6,197.9z"/>
	<path d="M190.8,2v156.8c0,20.5-1.8,36.3-5.4,47.3c-4.8,14.4-13.6,26-26.4,34.7c-11.1,7.6-25.3,11.9-42.6,12.9
		c2.3,0.1,4.5,0.2,6.9,0.2c20.8,0,37.6-4.4,50.4-13.1c12.7-8.7,21.5-20.3,26.4-34.7c3.6-11,5.4-26.8,5.4-47.3V2H190.8z"/>
</g>
</svg>
