<?xml version="1.0" encoding="utf-8"?>
<!-- Generator: Adobe Illustrator 22.1.0, SVG Export Plug-In . SVG Version: 6.00 Build 0)  -->
<svg version="1.1" id="Layer_1" xmlns="http://www.w3.org/2000/svg" xmlns:xlink="http://www.w3.org/1999/xlink" x="0px" y="0px"
	 viewBox="0 0 256 256" style="enable-background:new 0 0 256 256;" xml:space="preserve">
<path style="fill:#FF5500;" d="M219.4,39.5c-20.7-21.3-48.2-32-82.6-32c-2.4,0-4.7,0-7,0.1c-2.2-0.1-4.5-0.1-6.8-0.1
	c-19,0-35.8,3.1-50.3,9.2c-10.9,4.6-21,11.6-30.2,21c-9.2,9.5-16.4,20.1-21.7,32C13.6,85.9,10,105.9,10,129.7
	c0,37.2,10.2,66.4,30.7,87.5c20.5,21.2,48.1,31.8,82.8,31.8c2.3,0,4.6-0.1,6.8-0.1c2.3,0.1,4.6,0.1,6.9,0.1
	c34.3,0,61.7-10.6,82.2-31.9c20.5-21.3,30.7-50.8,30.7-88.5C250.3,90.5,240,60.8,219.4,39.5z M90.7,188.2
	c-12.2-13.6-18.3-33.7-18.3-60.1c0-26.9,5.9-47,17.8-60.3c10.5-11.7,23.8-18.3,40.1-19.7c16.3,1.4,29.5,7.9,39.8,19.5
	c11.7,13.2,17.6,33.1,17.6,59.9c0,27.1-6,47.4-18.1,60.9c-10.5,11.8-23.7,18.5-39.4,20C114.6,206.9,101.4,200.2,90.7,188.2z"/>
</svg>
