<?xml version="1.0" encoding="utf-8"?>
<!-- Generator: Adobe Illustrator 22.1.0, SVG Export Plug-In . SVG Version: 6.00 Build 0)  -->
<svg version="1.1" id="Layer_1" xmlns="http://www.w3.org/2000/svg" xmlns:xlink="http://www.w3.org/1999/xlink" x="0px" y="0px"
	 viewBox="0 0 256 256" style="enable-background:new 0 0 256 256;" xml:space="preserve">
<path style="fill:#FF5500;" d="M220.4,30.3c-9.7-12.6-21.7-20.8-36.1-24.6C174.9,3.3,154.9,2,124,2h-14.8H42.7H27.9v251h14.8h35.9
	h14.8v-94.7h18.2h14.8c22.9,0,40.5-1.2,52.6-3.6c8.9-1.9,17.7-5.9,26.3-11.9c8.6-6,15.7-14.2,21.3-24.7c5.6-10.5,8.4-23.5,8.4-38.9
	C235,59.2,230.1,42.9,220.4,30.3z M93.4,115.7V44.5h9.7c18.3,0,30.4,0.6,36.5,1.7c8.2,1.5,15,5.2,20.4,11.1c5.4,5.9,8,13.5,8,22.6
	c0,7.4-1.9,13.9-5.7,19.5c-3.8,5.6-9.1,9.7-15.8,12.3c-6.7,2.6-20.1,3.9-40.1,3.9H93.4z"/>
</svg>
