<?xml version="1.0" encoding="utf-8"?>
<!-- Generator: Adobe Illustrator 22.1.0, SVG Export Plug-In . SVG Version: 6.00 Build 0)  -->
<svg version="1.1" id="Layer_1" xmlns="http://www.w3.org/2000/svg" xmlns:xlink="http://www.w3.org/1999/xlink" x="0px" y="0px"
	 viewBox="0 0 256 256" style="enable-background:new 0 0 256 256;" xml:space="preserve">
<g style="opacity:0.2;">
	<path d="M220.4,30.3c-9.7-12.6-21.7-20.8-36.1-24.6C174.9,3.3,154.9,2,124,2h-14.8c30.8,0,50.9,1.3,60.3,3.8
		c14.4,3.8,26.4,12,36.1,24.6c9.7,12.6,14.6,28.9,14.6,48.9c0,15.4-2.8,28.4-8.4,38.9c-5.6,10.5-12.7,18.7-21.3,24.7
		c-8.6,6-17.4,10-26.3,11.9c-12.1,2.4-29.6,3.6-52.6,3.6h14.8c22.9,0,40.5-1.2,52.6-3.6c8.9-1.9,17.7-5.9,26.3-11.9
		c8.6-6,15.7-14.2,21.3-24.7c5.6-10.5,8.4-23.5,8.4-38.9C235,59.2,230.1,42.9,220.4,30.3z"/>
	<rect x="78.6" y="44.5" width="14.8" height="71.2"/>
	<rect x="78.6" y="158.3" width="14.8" height="94.7"/>
</g>
</svg>
