<?xml version="1.0" encoding="utf-8"?>
<!-- Generator: Adobe Illustrator 22.1.0, SVG Export Plug-In . SVG Version: 6.00 Build 0)  -->
<svg version="1.1" id="Layer_1" xmlns="http://www.w3.org/2000/svg" xmlns:xlink="http://www.w3.org/1999/xlink" x="0px" y="0px"
	 viewBox="0 0 256 256" style="enable-background:new 0 0 256 256;" xml:space="preserve">
<path style="fill:#FF5500;" d="M206,200.4c8.9-10.4,15.4-21.2,19.5-32.4c5.4-14.6,8.1-31.5,8.1-50.8c0-36.4-9.7-64.7-29-84.9
	C185.1,12.1,158.9,2,125.9,2c-2.2,0-4.4,0-6.6,0.1C117.2,2,115,2,112.8,2C79.4,2,53,12.1,33.6,32.3C14.1,52.5,4.4,80.8,4.4,117.2
	c0,36.5,9.7,64.8,29.1,85c19.4,20.2,46.2,30.3,80.5,30.3c2.1,0,4.2,0,6.3-0.1c2.2,0.1,4.5,0.1,6.8,0.1c14.4,0,27.8-2.1,40.2-6.3
	c15.4,10.4,23.8,15.9,25.1,16.5c6.5,3.5,13.1,6.3,19.9,8.4l0.1-0.2h12.5c0.2,0.1,0.4,0.1,0.5,0.2l16.6-31.8
	C229.1,214.6,217.1,208.3,206,200.4z M127.9,152.4l-0.1-0.2h-0.4c0,0,0,0,0,0l0,0h-12.8l0.2,0.2c-0.2-0.1-0.4-0.1-0.5-0.2
	l-12.6,25.7c9.4,3.3,18.7,8,27.8,14c-3.9,1.4-7.9,2.4-12.1,2.8c-14.4-1.5-26.5-7.8-36.4-19c-11.4-12.9-17.1-32.4-17.1-58.4
	c0-25.6,5.7-44.8,17.1-57.6c10-11.2,22.7-17.5,38-18.9c15.3,1.4,28,7.6,38,18.8c11.3,12.7,17,31.9,17,57.7c0,12.5-1.4,23.5-4.3,33.1
	c-2.1,6.9-4.9,13.1-8.5,18.6C150.5,161.9,139.4,156.3,127.9,152.4z"/>
</svg>
