<?xml version="1.0" encoding="utf-8"?>
<!-- Generator: Adobe Illustrator 22.1.0, SVG Export Plug-In . SVG Version: 6.00 Build 0)  -->
<svg version="1.1" id="Layer_1" xmlns="http://www.w3.org/2000/svg" xmlns:xlink="http://www.w3.org/1999/xlink" x="0px" y="0px"
	 viewBox="0 0 256 256" style="enable-background:new 0 0 256 256;" xml:space="preserve">
<g style="opacity:0.2;">
	<path d="M67.8,59.6c-11.4,12.8-17.1,32-17.1,57.6c0,26,5.7,45.5,17.1,58.4c11.4,12.9,25.8,19.4,43.2,19.4c2.1,0,4.2-0.1,6.3-0.4
		c-14.4-1.5-26.5-7.8-36.4-19c-11.4-12.9-17.1-32.4-17.1-58.4c0-25.6,5.7-44.8,17.1-57.6c10-11.2,22.7-17.5,38-18.9
		c-2.1-0.2-4.3-0.3-6.6-0.3C94.1,40.5,79.2,46.8,67.8,59.6z"/>
	<path d="M161.2,168.9c-10.7-7-21.8-12.6-33.3-16.6l-0.1-0.2h-0.4c0,0,0,0,0,0l0,0h-12.8l0.2,0.2c14.6,5.1,28.6,12.6,41.9,22.6
		C158.3,173.1,159.8,171,161.2,168.9z"/>
	<path d="M162.5,222.9c-12.8,5.6-26.9,8.8-42.2,9.4c2.2,0.1,4.5,0.1,6.8,0.1c14.4,0,27.8-2.1,40.2-6.3
		C165.7,225.1,164.2,224,162.5,222.9z"/>
	<path d="M206,200.4c8.9-10.4,15.4-21.2,19.5-32.4c5.4-14.6,8.1-31.5,8.1-50.8c0-36.4-9.7-64.7-29-84.9C185.1,12.1,158.9,2,125.9,2
		c-2.2,0-4.4,0-6.6,0.1c30,1.3,54,11.3,72,30.2c19.4,20.2,29,48.5,29,84.9c0,19.3-2.7,36.2-8.1,50.8c-4.1,11.1-10.5,21.9-19.5,32.4
		c11,7.9,23.1,14.2,36,18.8l-16.5,31.6h12.5c0.2,0.1,0.4,0.1,0.5,0.2l16.6-31.8C229.1,214.6,217.1,208.3,206,200.4z"/>
</g>
</svg>
