<?xml version="1.0" encoding="utf-8"?>
<!-- Generator: Adobe Illustrator 22.1.0, SVG Export Plug-In . SVG Version: 6.00 Build 0)  -->
<svg version="1.1" id="Layer_1" xmlns="http://www.w3.org/2000/svg" xmlns:xlink="http://www.w3.org/1999/xlink" x="0px" y="0px"
	 viewBox="0 0 256 256" style="enable-background:new 0 0 256 256;" xml:space="preserve">
<path style="fill:#FF5500;" d="M216.2,204.2c-12.1-19.4-21.6-33-28.7-40.6c-7.1-7.6-16.1-14.6-27-21c21.9-3.2,38.4-10.9,49.5-23.1
	c11-12.2,16.5-27.7,16.5-46.5c0-14.8-3.6-27.9-10.9-39.4c-7.3-11.5-17-19.5-29.1-24C174.3,5.2,154.9,3,128.2,3h-14.8H22H7.2v250H22
	h35.7h14.8V148.7c9.3,0.2,16.3,1.1,20.9,2.8c5.3,1.9,10.4,5.3,15.2,10.4c4.8,5.1,13.6,17.3,26.6,36.7l36.5,54.4h14.8H232h14.8
	L216.2,204.2z M97.1,45.3c20.5,0,32.7,0.3,36.8,0.9c8.2,1.4,14.5,4.6,19,9.8c4.5,5.2,6.7,12,6.7,20.4c0,7.5-1.7,13.8-5.1,18.8
	c-3.4,5-8.1,8.5-14.2,10.6c-6,2-21.1,3.1-45.4,3.1H72.4V45.3H97.1z"/>
</svg>
