<?xml version="1.0" encoding="utf-8"?>
<!-- Generator: Adobe Illustrator 22.1.0, SVG Export Plug-In . SVG Version: 6.00 Build 0)  -->
<svg version="1.1" id="Layer_1" xmlns="http://www.w3.org/2000/svg" xmlns:xlink="http://www.w3.org/1999/xlink" x="0px" y="0px"
	 viewBox="0 0 256 256" style="enable-background:new 0 0 256 256;" xml:space="preserve">
<g style="opacity:0.2;">
	<rect x="57.7" y="45.3" width="14.8" height="63.4"/>
	<path d="M216.2,204.2c-12.1-19.4-21.6-33-28.7-40.6c-7.1-7.6-16.1-14.6-27-21c21.9-3.2,38.4-10.9,49.5-23.1
		c11-12.2,16.5-27.7,16.5-46.5c0-14.8-3.6-27.9-10.9-39.4c-7.3-11.5-17-19.5-29.1-24C174.3,5.2,154.9,3,128.2,3h-14.8
		c26.7,0,46.1,2.2,58.2,6.7c12.1,4.5,21.8,12.5,29.1,24c7.3,11.5,10.9,24.6,10.9,39.4c0,18.8-5.5,34.3-16.5,46.5
		c-11,12.2-27.5,19.9-49.5,23.1c10.9,6.4,19.9,13.4,27,21c7.1,7.6,16.7,21.1,28.7,40.6L232,253h14.8L216.2,204.2z"/>
	<path d="M67.9,148.6H57.7V253h14.8V148.7C71,148.7,69.5,148.6,67.9,148.6z"/>
</g>
</svg>
