<?xml version="1.0" encoding="utf-8"?>
<!-- Generator: Adobe Illustrator 22.1.0, SVG Export Plug-In . SVG Version: 6.00 Build 0)  -->
<svg version="1.1" id="Layer_1" xmlns="http://www.w3.org/2000/svg" xmlns:xlink="http://www.w3.org/1999/xlink" x="0px" y="0px"
	 viewBox="0 0 256 256" style="enable-background:new 0 0 256 256;" xml:space="preserve">
<path style="fill:#FF5500;" d="M222.5,140.5c-6.3-10.2-15.1-18.2-26.2-24.1c-11.2-5.9-28.4-11.6-51.7-17.1
	c-23.3-5.5-38-10.8-44-15.9c-4.8-4-7.1-8.8-7.1-14.4c0-6.2,2.5-11.1,7.6-14.7c6.5-4.7,15.1-7.5,25.7-8.3c10,0.8,17.8,3.4,23.3,7.7
	c6.7,5.3,11.1,14.1,13.2,26.3l13.9-0.6c0,0.2,0.1,0.4,0.1,0.6l47.9-2.1c-0.8-21.8-8.7-39.2-23.7-52.3C186.4,12.5,164,6,134.2,6
	c-2.4,0-4.7,0-7,0.1c-2.3-0.1-4.6-0.1-7-0.1C102,6,86.4,8.8,73.5,14.3c-12.9,5.5-22.8,13.5-29.6,24C37,48.8,33.6,60.1,33.6,72.2
	c0,18.8,7.3,34.7,21.9,47.8c10.4,9.3,28.4,17.1,54.1,23.5c20,5,32.8,8.4,38.4,10.4c8.2,2.9,13.9,6.3,17.2,10.3
	c3.3,3.9,4.9,8.7,4.9,14.3c0,8.7-3.9,16.4-11.7,22.9c-6.5,5.4-15.7,8.6-27.5,9.5c-11.5-1-20.9-4.5-28.1-10.7
	c-8.6-7.3-14-20.9-16.8-36.6l-15.6,2.2L25,170.2c3.1,26.5,12.7,46.8,28.8,60.6c16.1,13.9,39.1,20.8,69.1,20.8c2.5,0,5,0,7.4-0.1
	c2.2,0.1,4.4,0.1,6.6,0.1c20.6,0,37.8-2.9,51.6-8.7c13.8-5.8,24.5-14.6,32.1-26.5c7.6-11.9,11.3-24.6,11.3-38.2
	C232,163.3,228.8,150.7,222.5,140.5z"/>
</svg>
