<?xml version="1.0" encoding="utf-8"?>
<!-- Generator: Adobe Illustrator 22.1.0, SVG Export Plug-In . SVG Version: 6.00 Build 0)  -->
<svg version="1.1" id="Layer_1" xmlns="http://www.w3.org/2000/svg" xmlns:xlink="http://www.w3.org/1999/xlink" x="0px" y="0px"
	 viewBox="0 0 256 256" style="enable-background:new 0 0 256 256;" xml:space="preserve">
<g style="opacity:0.2;">
	<path d="M102.7,200.1c-8.6-7.3-14-20.9-16.8-36.6l-15.6,2.2l1.3-0.1c2.8,15.6,8.5,27.1,17.1,34.5c8.6,7.3,20.2,11,34.7,11
		c2.6,0,5-0.1,7.4-0.3C119.3,209.9,110,206.3,102.7,200.1z"/>
	<path d="M187.5,25.6c15.1,13.1,23,30.5,23.7,52.3l-34,1.5c0,0.2,0.1,0.4,0.1,0.6l47.9-2.1c-0.8-21.8-8.7-39.2-23.7-52.3
		C186.4,12.5,164,6,134.2,6c-2.4,0-4.7,0-7,0.1C153.5,7.1,173.6,13.6,187.5,25.6z"/>
	<path d="M222.5,140.5c-6.3-10.2-15.1-18.2-26.2-24.1c-11.2-5.9-28.4-11.6-51.7-17.1c-23.3-5.5-38-10.8-44-15.9
		c-4.8-4-7.1-8.8-7.1-14.4c0-6.2,2.5-11.1,7.6-14.7c6.5-4.7,15.1-7.5,25.7-8.3c-2.2-0.2-4.6-0.3-7-0.3c-13.9,0-24.8,2.9-32.7,8.6
		c-5.1,3.7-7.6,8.6-7.6,14.7c0,5.6,2.4,10.4,7.1,14.4c6,5.1,20.7,10.4,44,15.9c23.3,5.5,40.6,11.2,51.7,17.1
		c11.2,5.9,19.9,13.9,26.2,24.1c6.3,10.2,9.5,22.8,9.5,37.8c0,13.6-3.8,26.3-11.3,38.2c-7.6,11.9-18.2,20.7-32.1,26.5
		c-12.1,5.1-26.9,7.9-44.3,8.5c2.2,0.1,4.4,0.1,6.6,0.1c20.6,0,37.8-2.9,51.6-8.7c13.8-5.8,24.5-14.6,32.1-26.5
		c7.6-11.9,11.3-24.6,11.3-38.2C232,163.3,228.8,150.7,222.5,140.5z"/>
</g>
</svg>
