<?xml version="1.0" encoding="utf-8"?>
<!-- Generator: Adobe Illustrator 22.1.0, SVG Export Plug-In . SVG Version: 6.00 Build 0)  -->
<svg version="1.1" id="Layer_1" xmlns="http://www.w3.org/2000/svg" xmlns:xlink="http://www.w3.org/1999/xlink" x="0px" y="0px"
	 viewBox="0 0 256 256" style="enable-background:new 0 0 256 256;" xml:space="preserve">
<path style="fill:#FF5500;" d="M225.3,2h-35.4h-14.6v137.1c0,19.6-0.7,33.6-2.2,42.1c-1.5,8.5-5.8,15.6-13,21.4
	c-5.9,4.7-14.1,7.5-24.7,8.4c-10.6-0.9-19.3-3.9-25.9-8.9c-8.1-6.1-13.2-14.3-15.3-24.4c-1.2-6.3-1.9-20.1-1.9-41.4V2H77.7H42.3
	H27.7v132.2c0,27.7,1.6,48.7,4.9,62.9c2.3,9.6,6.9,18.7,14,27.5c7.1,8.7,16.8,15.8,29,21.3c12.2,5.5,30.2,8.2,53.8,8.2
	c2.3,0,4.6,0,6.8-0.1c2.5,0.1,5.1,0.1,7.8,0.1c19.6,0,35.5-2.5,47.7-7.5c12.2-5,21.9-11.7,29.2-20.2c7.3-8.5,12.3-18.8,15-31.1
	c2.7-12.3,4.1-33.3,4.1-63V2H225.3z"/>
</svg>
