<?xml version="1.0" encoding="utf-8"?>
<!-- Generator: Adobe Illustrator 22.1.0, SVG Export Plug-In . SVG Version: 6.00 Build 0)  -->
<svg version="1.1" id="Layer_1" xmlns="http://www.w3.org/2000/svg" xmlns:xlink="http://www.w3.org/1999/xlink" x="0px" y="0px"
	 viewBox="0 0 256 256" style="enable-background:new 0 0 256 256;" xml:space="preserve">
<g style="opacity:0.2;">
	<path d="M79.6,177.6c2.1,10.1,7.2,18.3,15.3,24.4c8.1,6.1,19.1,9.2,33,9.2c2.6,0,5.1-0.1,7.5-0.3c-10.6-0.9-19.3-3.9-25.9-8.9
		c-8.1-6.1-13.2-14.3-15.3-24.4c-1.2-6.3-1.9-20.1-1.9-41.4V2H77.7v134.2C77.7,157.5,78.3,171.3,79.6,177.6z"/>
	<path d="M225.3,2v130.1c0,29.7-1.4,50.8-4.1,63c-2.7,12.3-7.7,22.6-15,31.1c-7.3,8.5-17,15.2-29.2,20.2
		c-10.7,4.4-24.3,6.9-40.8,7.4c2.5,0.1,5.1,0.1,7.8,0.1c19.6,0,35.5-2.5,47.7-7.5c12.2-5,21.9-11.7,29.2-20.2
		c7.3-8.5,12.3-18.8,15-31.1c2.7-12.3,4.1-33.3,4.1-63V2H225.3z"/>
</g>
</svg>
