<?xml version="1.0" encoding="utf-8"?>
<!-- Generator: Adobe Illustrator 22.1.0, SVG Export Plug-In . SVG Version: 6.00 Build 0)  -->
<svg version="1.1" id="Layer_1" xmlns="http://www.w3.org/2000/svg" xmlns:xlink="http://www.w3.org/1999/xlink" x="0px" y="0px"
	 viewBox="0 0 83 75" style="enable-background:new 0 0 83 75;" xml:space="preserve">
<g>
	<path style="fill:#72AF31;" d="M58.8,51c0,0-7.6-21.4-10.9-35.6c-0.7-3.1-3.5-5.4-6.7-5.4h0c-3.1,0-5.9,2.1-6.7,5.1
		c-2.4,9-7.5,27.7-10.7,35.8H58.8z"/>
	<path style="fill:#5FA020;" d="M59.9,65.1c-2.7,0.8-8.9,1.1-13.8,0.3c-2.4-0.4-4.9-0.5-7.3-0.1c-5.8,0.9-13.5,0.6-16.2-0.3
		c-4.5-1.3-7.1-6.1-5.8-10.6c0.4-1.2,1-2.3,1.8-3.2c1.8-2,3.6-4.3,5.3-6.5c1.7-2.2,3.4-4.5,5-6.9c1.6-2.3,3.2-4.7,4.6-7.1
		c0.6-1,1.2-2.4,1.9-3.8c1-2.3,3.4-3.8,5.9-3.8h0c2.6,0,4.9,1.5,5.9,3.8c0.6,1.4,1.3,2.8,1.9,3.8c1.4,2.5,2.9,4.8,4.6,7.1
		s3.3,4.6,5,6.9c1.7,2.2,3.5,4.5,5.3,6.5c0.8,0.9,1.4,2,1.8,3.2C67,59,64.4,63.7,59.9,65.1z"/>
	<path style="fill:#285911;" d="M26,48.6c0.9-1,1.8-2.2,2.7-3.3c0.9-1.1,1.7-2.3,2.6-3.5c0.8-1.2,1.6-2.4,2.3-3.6
		c0.7-1.2,1.4-2.5,1.8-3.9l0,0c0.1-0.2,0.3-0.4,0.5-0.3c0.2,0.1,0.3,0.2,0.3,0.4c0.2,1.5,0.1,3.1,0,4.6c-0.1,1.5-0.4,3.1-0.6,4.6
		c-0.3,1.5-0.6,3-0.9,4.5c-0.4,1.5-0.7,3-1.2,4.5l0,0.1c-0.7,2.3-3.1,3.6-5.4,2.9c-2.3-0.7-3.6-3.1-2.9-5.4
		C25.3,49.6,25.6,49.1,26,48.6z"/>
	<path style="fill:#285911;" d="M56.2,48.6c-0.9-1-1.8-2.2-2.7-3.3c-0.9-1.1-1.7-2.3-2.6-3.5c-0.8-1.2-1.6-2.4-2.3-3.6
		c-0.7-1.2-1.4-2.5-1.8-3.9l0,0c-0.1-0.2-0.3-0.4-0.5-0.3c-0.2,0.1-0.3,0.2-0.3,0.4c-0.2,1.5-0.1,3.1,0,4.6c0.1,1.5,0.4,3.1,0.6,4.6
		c0.3,1.5,0.6,3,0.9,4.5c0.4,1.5,0.7,3,1.2,4.5l0,0.1c0.7,2.3,3.1,3.6,5.4,2.9c2.3-0.7,3.6-3.1,2.9-5.4
		C56.9,49.6,56.6,49.1,56.2,48.6z"/>
</g>
</svg>
