<?xml version="1.0" encoding="utf-8"?>
<!-- Generator: Adobe Illustrator 22.1.0, SVG Export Plug-In . SVG Version: 6.00 Build 0)  -->
<svg version="1.1" id="Layer_1" xmlns="http://www.w3.org/2000/svg" xmlns:xlink="http://www.w3.org/1999/xlink" x="0px" y="0px"
	 viewBox="0 0 83 75" style="enable-background:new 0 0 83 75;" xml:space="preserve">
<g>
	<path style="fill:#8E3900;" d="M23.7,55.1c0,0-15.8-9.3-1.2-15.6s39.5-3.1,41.3,0.9c1.8,4,3.2,11.9-4.9,14.7
		C50.9,57.8,23.7,55.1,23.7,55.1z"/>
	<path style="fill:#D65C09;" d="M59,55.1c0.4-0.3,9.9-7.5,0.9-12.2c-6.9-3.6-11.3,6.3-14.6,9.7c-2.4,2.5-5.2,2.5-7.7,0
		c-3.3-3.4-7.8-13.3-14.6-9.7c-9,4.7,0.5,11.9,0.9,12.2c-24-12.4-7.8-28,4.8-27.4c5.4,0.3,7.5-3.3,8.3-6.2c0.6-2,2.4-3.4,4.5-3.4h0
		c2.1,0,3.9,1.4,4.4,3.4c0.9,3.2,2.9,7.3,7.8,6.4C67.3,25.2,82.9,42.7,59,55.1z"/>
</g>
</svg>
