<?xml version="1.0" encoding="utf-8"?>
<!-- Generator: Adobe Illustrator 22.1.0, SVG Export Plug-In . SVG Version: 6.00 Build 0)  -->
<svg version="1.1" id="Layer_1" xmlns="http://www.w3.org/2000/svg" xmlns:xlink="http://www.w3.org/1999/xlink" x="0px" y="0px"
	 viewBox="0 0 83 75" style="enable-background:new 0 0 83 75;" xml:space="preserve">
<g>
	<circle style="fill:#69B4ED;" cx="41.8" cy="35.5" r="31.5"/>
	<g>
		<path style="fill:#56A8DB;" d="M32.1,44.3h-1.6c-2.3,0-4.2-1.9-4.2-4.2V18.3c0-2.3,1.9-4.2,4.2-4.2h1.6c2.3,0,4.2,1.9,4.2,4.2
			v21.8C36.3,42.4,34.5,44.3,32.1,44.3z"/>
		<path style="fill:#56A8DB;" d="M53.1,44.3h-1.6c-2.3,0-4.2-1.9-4.2-4.2V18.3c0-2.3,1.9-4.2,4.2-4.2h1.6c2.3,0,4.2,1.9,4.2,4.2
			v21.8C57.3,42.4,55.4,44.3,53.1,44.3z"/>
	</g>
	<g>
		<path style="fill:#B3E6FF;" d="M32.1,49.4h-1.6c-2.3,0-4.2-1.9-4.2-4.2V23.3c0-2.3,1.9-4.2,4.2-4.2h1.6c2.3,0,4.2,1.9,4.2,4.2
			v21.8C36.3,47.5,34.5,49.4,32.1,49.4z"/>
		<path style="fill:#B3E6FF;" d="M53.1,49.4h-1.6c-2.3,0-4.2-1.9-4.2-4.2V23.3c0-2.3,1.9-4.2,4.2-4.2h1.6c2.3,0,4.2,1.9,4.2,4.2
			v21.8C57.3,47.5,55.4,49.4,53.1,49.4z"/>
	</g>
</g>
</svg>
