<?xml version="1.0" encoding="utf-8"?>
<!-- Generator: Adobe Illustrator 22.1.0, SVG Export Plug-In . SVG Version: 6.00 Build 0)  -->
<svg version="1.1" id="Layer_1" xmlns="http://www.w3.org/2000/svg" xmlns:xlink="http://www.w3.org/1999/xlink" x="0px" y="0px"
	 viewBox="0 0 83 75" style="enable-background:new 0 0 83 75;" xml:space="preserve">
<g>
	<path style="fill:#FC83E5;" d="M79,50.5c-3.1,1.2-6.2,2.3-9.3,3.2C61,56.4,52.4,57.8,43.8,58c-1.5,0-3,0-4.5,0
		c-8.6-0.2-17.3-1.6-25.9-4.2c-3.1-0.9-6.2-2-9.3-3.2C4,40.2,8.2,30.8,15,24c6.8-6.8,16.2-11,26.5-11S61.2,17.2,68,24
		C74.8,30.8,79,40.2,79,50.5z"/>
	<path style="fill:#BF1F58;" d="M39.3,57.1c0,0.3,0,0.6,0,0.8c-8.6-0.2-17.3-1.6-25.9-4.2c1.5-5.7,6.6-9.8,12.8-9.8
		C33.4,43.9,39.3,49.8,39.3,57.1z"/>
	<path style="fill:#BF1F58;" d="M69.7,53.7C61,56.4,52.4,57.8,43.8,58c0-0.3,0-0.6,0-0.8c0-7.3,5.9-13.2,13.2-13.2
		C63.1,43.9,68.2,48,69.7,53.7z"/>
</g>
</svg>
