<?xml version="1.0" encoding="utf-8"?>
<!-- Generator: Adobe Illustrator 22.1.0, SVG Export Plug-In . SVG Version: 6.00 Build 0)  -->
<svg version="1.1" id="Layer_1" xmlns="http://www.w3.org/2000/svg" xmlns:xlink="http://www.w3.org/1999/xlink" x="0px" y="0px"
	 viewBox="0 0 83 75" style="enable-background:new 0 0 83 75;" xml:space="preserve">
<g>
	<path style="fill:#D65C09;" d="M12.2,51.5c0,0-0.5-21.5,12.5-21.5s17,14,17,14S49,29,59.2,29.9c10.2,0.9,11.9,21.5,11.9,21.5"/>
	<path style="fill:#FF8429;" d="M65.3,52c-0.6-7.2-3.7-15.9-6.6-16.2c-4.5-0.4-10,7.2-11.7,10.8c-1.1,2.2-3.4,3.5-5.8,3.2
		c-2.4-0.2-4.5-1.9-5.1-4.3c-0.1-0.4-3-9.7-11.3-9.7c-1.2,0-2,0.3-2.8,1.2c-3,3.1-3.8,11-3.8,14.3L6.3,51.6c0-1.6-0.2-15.4,7.1-22.9
		c3-3.1,6.9-4.7,11.3-4.7c8,0,13.8,4,17.5,8.6c4-4.7,10.1-9.3,17.6-8.6C74.5,25.4,76.8,48.4,77.1,51L65.3,52z"/>
</g>
</svg>
