<?xml version="1.0" encoding="utf-8"?>
<!-- Generator: Adobe Illustrator 22.1.0, SVG Export Plug-In . SVG Version: 6.00 Build 0)  -->
<svg version="1.1" id="Layer_1" xmlns="http://www.w3.org/2000/svg" xmlns:xlink="http://www.w3.org/1999/xlink" x="0px" y="0px"
	 viewBox="0 0 256 256" style="enable-background:new 0 0 256 256;" xml:space="preserve">
<g>
	<path style="fill:#FFD473;" d="M202.6,246.7H54.3c0-14-4.8-34.6,1.8-41.9c4-4.4,8.4-7.6,13.5-10.3c9-4.6,19.5-7,32.5-9.1
		c0.5-0.1,0.9-0.1,1.3-0.4c4.2-1.3,7.1-5.1,7.1-9.5v-8c-15.2-5.9-26.6-19.5-29.2-36.2c-6.4-1.4-11.1-7.1-11.1-14
		c0-5.9,3.5-10.8,8.4-13.1c2.8,0,5.6-0.4,8.6-1.1c19.4-4.6,42-14.3,60.6-30.6c4.8,15.4,14.3,26.9,25.7,30.2v0.3
		c7,1,12.5,7,12.5,14.3c0,7.6-5.9,13.9-13.2,14.3c-2.8,15.9-13.6,29.3-28,35.3v8.1c0,4.3,2.7,8,6.5,9.4c0.8,0.3,1.3,0.5,2,0.5
		c12.5,1.8,23.9,4,33.3,9.4c4.6,2.7,8.8,6,12.3,10.4C205,212.6,202.6,232.9,202.6,246.7z"/>
</g>
<g style="opacity:0;">
	<g>
		<g>
			<path style="fill:#4B4351;" d="M186.6,85.3v109.2c-9.4-5.4-21-7.5-33.3-9.4c-0.8-0.1-1.4-0.3-2-0.5c-3.9-1.4-6.5-5.1-6.5-9.4V167
				c14.5-6.1,25.2-19.5,28-35.3c7.4-0.7,13.2-6.7,13.2-14.3c0-7.2-5.5-13.4-12.5-14.3v-0.3c-11.4-3.5-20.9-14.9-25.7-30.2
				c-18.5,16.1-41.2,26-60.6,30.6c-3,0.7-6,1-8.6,1c-5,2.3-8.4,7.2-8.4,13.1c0,6.7,4.7,12.5,11.1,14c2.5,16.6,14,30.2,29.2,36.2v8
				c0,4.4-3,8.4-7.1,9.5c-0.5,0.1-0.9,0.3-1.3,0.4c-13,2.1-23.6,4.5-32.5,9.1V85.3c0-32.3,26.2-58.6,58.6-58.6
				c16.2,0,30.8,6.5,41.3,17.1c0.4,0.4,0.8,0.8,1.1,1.1C180.5,55.4,186.6,69.7,186.6,85.3z"/>
		</g>
		<g>
			<circle style="fill:#0C0C0C;" cx="105.2" cy="114" r="5.4"/>
		</g>
		<g>
			<circle style="fill:#0C0C0C;" cx="151.4" cy="114" r="5.4"/>
		</g>
		<g style="opacity:0.1;">
			<path style="fill:#0C0C0C;" d="M128.1,144.8c-9.1,0-14.3-2.8-14.7-2.8c-0.8-0.4-1.1-1.3-0.7-2c0.4-0.8,1.3-1.1,2-0.7
				c0.1,0.1,11.6,5.7,28.9-0.1c0.9-0.3,1.6,0.1,1.9,1c0.3,0.9-0.1,1.6-1,1.9C138.3,144.2,132.8,144.8,128.1,144.8z"/>
		</g>
	</g>
	<g>
		<path style="fill:#7FC8CC;" d="M205.1,247.2H54c0,0-4.6-34.9,2.7-46.2c7.3-11.3,48.4-18.5,48.4-18.5c2,16.5,23.4,16.3,23.4,16.3
			c24.8-1.7,24.7-16.2,24.7-16.3c0,0,1.9,0.5,2.1,0.6c0,0,5.1,0.8,13,3.2c2.6,0.8,5.5,1.8,8.6,2.9c3.3,1.2,6.8,2.6,10.4,4.3
			C210.9,204.3,205.1,247.2,205.1,247.2z"/>
		<path style="fill:#446F9E;" d="M78.8,189v1.9l-0.1,14.5c0,6.1-1.1,12.1-3.3,17.8l-1.8,4.8v19.2h108.5V228l-1.8-4.8
			c-2.2-5.7-3.3-11.7-3.3-17.8l-0.1-16v-0.2c-3.1-1.2-6-2.1-8.6-2.9v14.4c0,21.4-17.3,38.7-38.7,38.7h-3.4
			c-21.4,0-38.7-17.3-38.7-38.7v-14.4C87.5,186.3,81.4,188.1,78.8,189z"/>
		<g>
			<path style="fill:#898989;" d="M222.7,186c0,6.4-4.9,11.9-11.7,13.7v43.7c0,2.6-2.1,4.8-4.8,4.8c-2.6,0-4.8-2.1-4.8-4.8v-43.6
				c-7-1.7-12.2-7.2-12.2-13.8c0-5.1,3.1-9.6,7.8-12.1v15.6h17.8v-15.6C219.6,176.4,222.7,180.9,222.7,186z"/>
			<g>
				<path style="fill:#757575;" d="M60.8,217.7L60.8,217.7c-2,0-3.6-1.6-3.6-3.6l0.1-37.8H40l0,0c0-6.8,5.5-12.3,12.3-12.3h12.3
					l-0.2,50.1C64.4,216.2,62.8,217.8,60.8,217.7z"/>
			</g>
			<path style="fill:#EA4949;" d="M66.8,201.4v-17.5H47.7v60.2c0,2.2,1.8,4,4,4l0,0c2.2,0,4-1.8,4-4v-31.6c0-0.7,0.1-1.3,0.2-1.9
				h8.7c0.8,0,1.5-0.7,1.5-1.5s-0.7-1.5-1.5-1.5h-7.7c0.5-1.1,1.2-2,2.1-2.9C61,202.7,63.7,201.4,66.8,201.4z M51.7,245.3
				c-0.6,0-1.1-0.5-1.1-1.1s0.5-1.1,1.1-1.1s1.1,0.5,1.1,1.1C52.7,244.8,52.3,245.3,51.7,245.3z"/>
		</g>
		<g>
			<path style="fill:#4ABBCE;" d="M184.5,77.7c-36.1-11.5-74-12.1-114.1,0c0-31.6,13.7-59.9,48.8-63.5c0-0.1,0-0.3,0-0.4
				c0-3.2,2.6-5.8,5.8-5.8c3.2,0,5.8,2.6,5.8,5.8v0.1C165.8,15.8,184.5,43.8,184.5,77.7z"/>
			<path style="fill:#42ACB7;" d="M79.9,66c0,0-15,14-13.1,26.4c0.4,2.6,5,2.3,7.3,1c28.8-16,76.9-18,108.2,0.3
				c2.5,1.5,7.5,1.3,7.6-1.6c0.5-13.8-13.3-25-13.3-25C144.4,45.9,102.5,48.4,79.9,66z"/>
			<circle style="fill:#55CBD8;" cx="125.6" cy="38.1" r="10.1"/>
		</g>
	</g>
</g>
</svg>
