<?xml version="1.0" encoding="utf-8"?>
<!-- Generator: Adobe Illustrator 22.1.0, SVG Export Plug-In . SVG Version: 6.00 Build 0)  -->
<svg version="1.1" id="Layer_1" xmlns="http://www.w3.org/2000/svg" xmlns:xlink="http://www.w3.org/1999/xlink" x="0px" y="0px"
	 viewBox="0 0 256 256" style="enable-background:new 0 0 256 256;" xml:space="preserve">
<g>
	<path style="fill:#FFD473;" d="M209.4,251.6H47.4c0-15.2-5.3-37.7,2-45.7c4.4-4.8,9.2-8.3,14.7-11.2c9.8-5.1,21.2-7.7,35.4-10
		c0.5-0.1,0.9-0.1,1.4-0.4c4.6-1.4,7.8-5.6,7.8-10.4v-8.7c-16.6-6.4-29-21.3-31.9-39.5c-6.9-1.6-12.1-7.8-12.1-15.3
		c0-6.4,3.8-11.8,9.2-14.3c3,0,6.1-0.4,9.4-1.2c21.1-5.1,45.9-15.7,66.1-33.4c5.3,16.8,15.6,29.3,28.1,33v0.3
		c7.7,1,13.7,7.7,13.7,15.6c0,8.3-6.4,15.1-14.4,15.7c-3.1,17.4-14.8,32-30.6,38.6v8.8c0,4.7,2.9,8.7,7,10.3
		c0.8,0.3,1.4,0.5,2.2,0.5c13.7,2,26.1,4.4,36.4,10.3c5.1,2.9,9.6,6.5,13.5,11.4C212,214.4,209.4,236.6,209.4,251.6z"/>
</g>
<g style="opacity:0;">
	<g>
		<g>
			<path style="fill:#4B4351;" d="M191.9,75.4v119.3c-10.3-5.9-22.9-8.2-36.4-10.3c-0.8-0.1-1.6-0.3-2.2-0.5c-4.2-1.6-7-5.6-7-10.3
				v-8.8c15.9-6.6,27.6-21.2,30.6-38.6c8.1-0.7,14.4-7.4,14.4-15.7c0-7.9-6-14.6-13.7-15.6v-0.3c-12.4-3.8-22.8-16.3-28.1-33
				c-20.2,17.6-45,28.4-66.1,33.4C80.1,95.7,76.9,96,74,96c-5.5,2.5-9.2,7.9-9.2,14.3c0,7.4,5.2,13.7,12.1,15.3
				c2.7,18.1,15.2,33,31.9,39.5v8.7c0,4.8-3.3,9.1-7.8,10.4c-0.5,0.1-0.9,0.3-1.4,0.4c-14.2,2.3-25.8,4.9-35.4,10V75.4
				c0-35.2,28.6-63.9,63.9-63.9c17.7,0,33.7,7.2,45.1,18.7c0.4,0.4,0.8,0.8,1.2,1.2C185.2,42.8,191.9,58.3,191.9,75.4z"/>
		</g>
		<g>
			<circle style="fill:#0C0C0C;" cx="102.9" cy="106.8" r="5.9"/>
		</g>
		<g>
			<circle style="fill:#0C0C0C;" cx="153.4" cy="106.8" r="5.9"/>
		</g>
		<g style="opacity:0.1;">
			<path style="fill:#0C0C0C;" d="M128,140.4c-9.9,0-15.7-3-16.1-3.1c-0.8-0.4-1.2-1.4-0.7-2.2c0.4-0.8,1.4-1.2,2.2-0.7
				c0.1,0.1,12.6,6.2,31.5-0.1c0.9-0.3,1.8,0.1,2.1,1c0.3,0.9-0.1,1.8-1,2.1C139.1,139.7,133.1,140.4,128,140.4z"/>
		</g>
	</g>
	<g>
		<path style="fill:#E8E8E8;" d="M210.8,251.4H45.4c0-16-3.5-39.6,3.9-47.8c7.5-8.4,16.2-13.4,26.7-16.8c4-1.3,8.2-2.4,12.7-3.4
			c1.1-0.3,2.2-0.5,3.4-0.8c2.4-0.6,4.9-1.3,7.6-1.8c0.5-0.1,1.2-0.3,1.7-0.5c5.4,11.3,25.4,16.3,25.4,16.3c0.1,0,22.8-2.2,27-15.8
			c0,0,0,0,0,0c0.1-0.2,0.2-0.3,0.3-0.5c0,0,0.1,0,0.1,0c0.7,0.3,1.4,0.4,2.2,0.6c2.6,0.4,5.2,0.8,7.7,1.3c1,0.2,2,0.4,3,0.6
			c4.4,0.9,8.7,1.9,12.7,3.1c10.7,3.4,20,8.5,27,17.7C213.5,212.5,210.8,235.7,210.8,251.4z"/>
		<polygon style="fill:#EA4253;" points="117.4,205 123.5,212.3 119.2,251.4 133.2,251.4 129.5,212.3 136.7,205 126.8,196.6 		"/>
		<path style="fill:#F4F4F4;" d="M126.8,196.6l9.9,15.7c0,0,20.1-17.3,24.6-30.2l-12.2-3.1C150.6,181.5,140.1,194.1,126.8,196.6z"/>
		<path style="fill:#F4F4F4;" d="M126.8,196.1l-9.1,16.3c0,0-20.7-17.3-25.2-30.2l13.5-2.6C101.8,182.4,113.5,193.5,126.8,196.1z"/>
		<path style="fill:#3E5468;" d="M210.8,251.4H45.4c0-16-3.5-39.6,3.9-47.8c7.5-8.4,16.2-13.4,26.7-16.8c4-1.3,8.2-2.4,12.7-3.4
			c1.1-0.3,6.6-1.6,7-1.7c-3.3,4.8,13.3,59.9,19.3,69.7h21.6c5.1-9.3,25.3-65.9,17.1-70.6c0,0,0,0,0,0c0.1-0.2,0.2-0.3,0.3-0.5
			c0,0,0.1,0,0.1,0c0.7,0.3,1.4,0.4,2.2,0.6c2.6,0.4,5.2,0.8,7.7,1.3c1,0.2,2,0.4,3,0.6c4.4,0.9,8.7,1.9,12.7,3.1
			c10.7,3.4,20,8.5,27,17.7C213.5,212.5,210.8,235.7,210.8,251.4z"/>
		<polygon style="fill:#939393;" points="196.9,251.4 191.5,251.4 190.2,220.7 198.2,220.7 		"/>
		<circle style="fill:#2B2B2B;" cx="193.6" cy="190.5" r="17.8"/>
		<path style="fill:#EA4253;" d="M209.6,222.5h-32.1c-1,0-1.7-0.8-1.7-1.7v-16.3c0-1,0.8-1.7,1.7-1.7h32.1c1,0,1.7,0.8,1.7,1.7v16.3
			C211.4,221.7,210.6,222.5,209.6,222.5z"/>
	</g>
</g>
</svg>
