<?xml version="1.0" encoding="utf-8"?>
<!-- Generator: Adobe Illustrator 22.1.0, SVG Export Plug-In . SVG Version: 6.00 Build 0)  -->
<svg version="1.1" id="Layer_1" xmlns="http://www.w3.org/2000/svg" xmlns:xlink="http://www.w3.org/1999/xlink" x="0px" y="0px"
	 viewBox="0 0 256 256" style="enable-background:new 0 0 256 256;" xml:space="preserve">
<g style="opacity:0;">
	<path style="fill:#FFD473;" d="M203.4,239.5H52c0-14.3-5-35.3,1.9-42.6c4.1-4.5,8.7-7.8,13.7-10.5c9.1-4.8,19.8-7.2,33.1-9.4
		c0.5-0.1,0.9-0.2,1.3-0.3c4.3-1.3,7.3-5.2,7.3-9.8v-8.1c-15.6-6-27.2-20-29.8-36.9c-6.5-1.5-11.3-7.3-11.3-14.3
		c0-6,3.6-11.1,8.7-13.4c2.8,0,5.7-0.3,8.8-1.1c19.7-4.7,42.9-14.8,61.8-31.2c5,15.7,14.7,27.3,26.3,30.9V93
		c7.2,0.9,12.8,7.1,12.8,14.6c0,7.7-6,14.1-13.5,14.7c-2.9,16.2-13.8,29.9-28.6,36.1v8.2c0,4.3,2.7,8.1,6.6,9.6
		c0.7,0.3,1.4,0.4,2.1,0.5c12.7,1.9,24.5,4.2,34.1,9.6c4.8,2.7,9,6.1,12.6,10.7C205.9,204.8,203.4,225.5,203.4,239.5z"/>
</g>
<g>
	<g>
		<g>
			<path style="fill:#4B4351;" d="M187,74.8v111.5c-9.6-5.4-21.4-7.7-34.1-9.6c-0.7-0.1-1.4-0.3-2.1-0.5c-3.9-1.5-6.6-5.3-6.6-9.6
				v-8.2c14.8-6.2,25.7-19.9,28.6-36.1c7.6-0.6,13.5-6.9,13.5-14.7c0-7.5-5.6-13.6-12.8-14.6v-0.2c-11.6-3.5-21.3-15.2-26.3-30.9
				c-18.9,16.4-42.1,26.5-61.8,31.2c-3.1,0.7-6,1.1-8.8,1.1c-5.1,2.3-8.7,7.4-8.7,13.4c0,7,4.8,12.8,11.3,14.3
				c2.6,16.9,14.2,30.9,29.8,36.9v8.1c0,4.5-3,8.5-7.3,9.8c-0.4,0.1-0.9,0.3-1.3,0.3c-13.3,2.2-24.1,4.6-33.1,9.4V74.8
				c0-33,26.8-59.8,59.8-59.8c16.5,0,31.4,6.7,42.3,17.5c0.4,0.4,0.7,0.7,1.1,1.1C180.8,44.3,187,58.8,187,74.8z"/>
		</g>
		<g>
			<circle style="fill:#0C0C0C;" cx="103.8" cy="104.2" r="5.4"/>
		</g>
		<g>
			<circle style="fill:#0C0C0C;" cx="151" cy="104.2" r="5.4"/>
		</g>
		<g style="opacity:0.1;">
			<path style="fill:#0C0C0C;" d="M127.3,135.6c-9.2,0-14.8-2.8-15.1-3c-0.8-0.4-1-1.3-0.7-2.1c0.4-0.8,1.3-1,2.1-0.7
				c0.2,0.1,11.8,5.9,29.5-0.1c0.8-0.3,1.7,0.2,2,1c0.3,0.8-0.2,1.7-1,2C137.7,134.9,132,135.6,127.3,135.6z"/>
		</g>
	</g>
	<g>
		<rect x="104.8" y="187.5" style="fill:#EAEAEA;" width="47.3" height="52.8"/>
		<path style="fill:#455660;" d="M205.8,240.2h-157c0-14.6-3.3-36.1,3.7-43.7c11.9-12.8,26.8-16.9,48-20.4c0.5-0.1,0.9-0.2,1.4-0.3
			l14.1,64.4l12.6,0l13.3,0l10.1-65c0.7,0.3,1.4,0.5,2.2,0.6c19.5,2.9,36.7,6.7,47.9,20.7C208.3,204.7,205.8,225.9,205.8,240.2z"/>
		<path style="fill:#F4F4F4;" d="M147,171.3c-5.2,11-10.6,16.7-19.5,16l20.7,10.5l3.9-23.1L147,171.3z"/>
		<path style="fill:#F4F4F4;" d="M106,173.4c3.5,8,9.4,14.9,21.5,13.9l-19.9,10.5l-7.2-21.6L106,173.4z"/>
		<g>
			<path style="fill:none;stroke:#0C0C0C;stroke-width:3;stroke-linecap:round;stroke-linejoin:round;stroke-miterlimit:10;" d="
				M108.8,114.5c-6.2,0.7-9.7,0.7-15.9-0.7c-1-0.2-1.9-0.9-2.3-1.8c-2.1-4.3-2.8-10.3-1.8-14.8c0.3-1.4,1.5-2.4,2.9-2.5
				c8.8-0.9,17.5-0.6,26,1.2c1.5,0.3,2.6,1.7,2.6,3.2c0,2.9-0.7,5.8-1.7,8.2C117,111.2,113.2,114,108.8,114.5z"/>
			<path style="fill:none;stroke:#0C0C0C;stroke-width:3;stroke-linecap:round;stroke-linejoin:round;stroke-miterlimit:10;" d="
				M145.4,114.6c6.3,0.6,9.7,0.6,15.9-0.9c1-0.2,1.9-0.9,2.3-1.8c2.1-4.4,2.7-10.3,1.7-14.9c-0.3-1.4-1.5-2.4-2.9-2.5
				c-8.8-0.8-17.5-0.4-26,1.4c-1.5,0.3-2.6,1.7-2.6,3.2c0,2.9,0.8,5.7,1.8,8.2C137.2,111.4,141,114.1,145.4,114.6z"/>
			
				<line style="fill:none;stroke:#0C0C0C;stroke-width:3;stroke-linecap:round;stroke-linejoin:round;stroke-miterlimit:10;" x1="172.7" y1="93.3" x2="165.8" y2="98"/>
			
				<line style="fill:none;stroke:#0C0C0C;stroke-width:3;stroke-linecap:round;stroke-linejoin:round;stroke-miterlimit:10;" x1="81.4" y1="93.3" x2="88.3" y2="98"/>
			<path style="fill:none;stroke:#0C0C0C;stroke-width:3;stroke-linecap:round;stroke-linejoin:round;stroke-miterlimit:10;" d="
				M121,99.6c0,0,7.7-1.3,12.4,0"/>
		</g>
	</g>
</g>
</svg>
