<?xml version="1.0" encoding="utf-8"?>
<!-- Generator: Adobe Illustrator 22.1.0, SVG Export Plug-In . SVG Version: 6.00 Build 0)  -->
<svg version="1.1" id="Layer_1" xmlns="http://www.w3.org/2000/svg" xmlns:xlink="http://www.w3.org/1999/xlink" x="0px" y="0px"
	 viewBox="0 0 256 256" style="enable-background:new 0 0 256 256;" xml:space="preserve">
<g>
	<path style="fill:#FFD473;" d="M204,251.6H53.4c0-14.1-4.9-35,1.9-42.5c4.1-4.5,8.6-7.7,13.7-10.4c9.1-4.7,19.7-7.2,32.9-9.3
		c0.5-0.1,0.8-0.1,1.3-0.4c4.3-1.3,7.3-5.2,7.3-9.7v-8.1c-15.4-5.9-27-19.8-29.7-36.7c-6.4-1.5-11.2-7.3-11.2-14.2
		c0-5.9,3.5-11,8.6-13.3c2.8,0,5.7-0.4,8.7-1.1c19.6-4.7,42.7-14.6,61.5-31.1c4.9,15.6,14.5,27.2,26.1,30.7v0.3
		c7.2,0.9,12.7,7.2,12.7,14.5c0,7.7-5.9,14-13.4,14.6c-2.9,16.2-13.8,29.7-28.4,35.9v8.2c0,4.4,2.7,8.1,6.5,9.6
		c0.7,0.3,1.3,0.5,2,0.5c12.7,1.9,24.3,4.1,33.8,9.6c4.7,2.7,8.9,6,12.6,10.6C206.4,217,204,237.7,204,251.6z"/>
</g>
<g style="opacity:0;">
	<g>
		<g>
			<path style="fill:#4B4351;" d="M187.7,87.8v110.9c-9.6-5.5-21.3-7.6-33.8-9.6c-0.7-0.1-1.5-0.3-2-0.5c-3.9-1.5-6.5-5.2-6.5-9.6
				v-8.2c14.8-6.1,25.7-19.7,28.4-35.9c7.5-0.7,13.4-6.9,13.4-14.6c0-7.3-5.6-13.6-12.7-14.5v-0.3c-11.5-3.5-21.2-15.2-26.1-30.7
				c-18.8,16.4-41.8,26.4-61.5,31.1c-3.1,0.7-6,0.9-8.7,0.9c-5.1,2.3-8.6,7.3-8.6,13.3c0,6.9,4.8,12.7,11.2,14.2
				c2.5,16.8,14.1,30.7,29.7,36.7v8.1c0,4.5-3.1,8.5-7.3,9.7c-0.5,0.1-0.8,0.3-1.3,0.4c-13.2,2.1-24,4.6-32.9,9.3V87.8
				c0-32.7,26.6-59.4,59.4-59.4c16.5,0,31.3,6.7,41.9,17.4c0.4,0.4,0.7,0.7,1.1,1.1C181.5,57.5,187.7,71.9,187.7,87.8z"/>
		</g>
		<g>
			<circle style="fill:#0C0C0C;" cx="105" cy="117" r="5.5"/>
		</g>
		<g>
			<circle style="fill:#0C0C0C;" cx="151.9" cy="117" r="5.5"/>
		</g>
		<g style="opacity:0.1;">
			<path style="fill:#0C0C0C;" d="M128.3,148.2c-9.2,0-14.6-2.8-15-2.9c-0.7-0.4-1.1-1.3-0.7-2c0.4-0.7,1.3-1.1,2-0.7
				c0.1,0.1,11.7,5.8,29.3-0.1c0.8-0.3,1.7,0.1,2,0.9c0.3,0.8-0.1,1.7-0.9,2C138.7,147.6,133.1,148.2,128.3,148.2z"/>
		</g>
	</g>
	<g>
		<path style="fill:#E8E8E8;" d="M205,251.3H52c0-14.8-3.2-36.6,3.6-44.3c7-7.8,14.9-12.4,24.7-15.6c3.7-1.2,7.6-2.2,11.8-3.1
			c1-0.2,2.1-0.5,3.1-0.8c2.2-0.6,4.5-1.2,7-1.7c0.5-0.1,1.1-0.3,1.5-0.4c5,10.5,23.5,15.1,23.5,15.1c0.1,0,21.1-2.1,25-14.6
			c0,0,0,0,0,0c0.1-0.1,0.2-0.3,0.2-0.4c0,0,0.1,0,0.1,0c0.6,0.2,1.3,0.4,2,0.5c2.4,0.4,4.8,0.7,7.1,1.2c0.9,0.2,1.9,0.3,2.8,0.5
			c4.1,0.8,8,1.7,11.8,2.9c9.9,3.1,18.5,7.9,24.9,16.4C207.5,215.3,205,236.8,205,251.3z"/>
		<polygon style="fill:#565656;" points="118.6,208.4 124.3,215.1 120.2,251.2 133.2,251.2 129.8,215.1 136.4,208.4 127.2,200.6 		
			"/>
		<g>
			<path style="fill:#24485E;" d="M74.8,74.9h108.9c0,0-12.6,30.3-50.8,30.8S74.8,74.9,74.8,74.9z"/>
			<path style="fill:#24485E;" d="M70,73.2l-14.6-48c49.3-23.3,98.1-24.9,146.3,0l-14,47.3L70,73.2z"/>
			<circle style="fill:#EAC347;" cx="129.3" cy="45.9" r="8.5"/>
			
				<line style="fill:none;stroke:#376282;stroke-width:10;stroke-linecap:round;stroke-linejoin:round;stroke-miterlimit:10;" x1="70.8" y1="74.9" x2="187.7" y2="74.9"/>
		</g>
		<path style="fill:#F4F4F4;" d="M127.2,200.6l13.7,14.8c0,0,9.5-17.4,13.7-29.3l-6.7-1.7C149.3,186.7,139.5,198.3,127.2,200.6z"/>
		<path style="fill:#F4F4F4;" d="M127.2,200.1l-14.9,15.3c0,0-11.3-15.7-11.3-29.3l7-1.4C104.2,187.4,114.9,197.7,127.2,200.1z"/>
		<path style="fill:#376282;" d="M136.4,251.3H52c0-14.8-3.2-36.6,3.6-44.3c3.3-3.7,6.9-6.7,10.7-9.1c3.5-2.2,7.2-4,11.3-5.5
			c0.9-0.3,1.8-0.6,2.7-0.9c3.7-1.2,7.6-2.2,11.8-3.1c1-0.2,8.5-2.1,9-2.3c1.3,6.4,8.7,37.4,12.9,54.8c1.1,4.7,2,8.4,2.5,10.4h7
			L136.4,251.3z"/>
		<path style="fill:#376282;" d="M205,251.3h-68.6c1.8-8.5,14.6-49.4,15.8-65.3c0,0,0,0,0,0c0.1-0.1,0.2-0.3,0.2-0.4
			c0,0,0.1,0,0.1,0c0.6,0.2,1.3,0.4,2,0.5c2.4,0.4,4.8,0.7,7.1,1.2c0.9,0.2,1.9,0.4,2.8,0.5c4.1,0.8,8,1.7,11.8,2.9
			c9.9,3.1,18.5,7.9,24.9,16.4C207.5,215.3,205,236.8,205,251.3z"/>
		<g>
			<path style="fill:#8E5E25;" d="M123.4,251.3h-16.9c-18-20.2-33.3-42.8-40.2-53.4c3.5-2.2,7.2-4,11.3-5.5
				c6.8,10.3,20.6,30.4,36.3,48.5c1.1,4.7,2,8.4,2.5,10.4L123.4,251.3C123.4,251.3,123.4,251.3,123.4,251.3z"/>
		</g>
		<polygon style="fill:#477693;" points="152.5,185.5 169.3,203.7 136.4,251.3 		"/>
		<polygon style="fill:#477693;" points="101,186.1 83.8,203.7 116.6,251.3 		"/>
	</g>
</g>
</svg>
