<?xml version="1.0" encoding="utf-8"?>
<!-- Generator: Adobe Illustrator 22.1.0, SVG Export Plug-In . SVG Version: 6.00 Build 0)  -->
<svg version="1.1" id="Layer_1" xmlns="http://www.w3.org/2000/svg" xmlns:xlink="http://www.w3.org/1999/xlink" x="0px" y="0px"
	 viewBox="0 0 256 256" style="enable-background:new 0 0 256 256;" xml:space="preserve">
<g>
	<path style="fill:#FFD473;" d="M193.5,251.6H65.3c0-12.1-4.2-29.8,1.6-36.1c3.5-3.8,7.3-6.6,11.6-8.9c7.7-4.1,16.8-6.1,28-8
		c0.4-0.1,0.8-0.2,1.1-0.3c3.6-1.1,6.1-4.4,6.1-8.3v-6.9c-13.2-5.1-23-16.9-25.2-31.2c-5.5-1.3-9.6-6.2-9.6-12.1c0-5,3-9.4,7.3-11.3
		c2.3,0,4.8-0.3,7.4-0.9c16.6-4,36.3-12.5,52.3-26.4c4.2,13.3,12.4,23.1,22.2,26.1v0.2c6.1,0.8,10.8,6,10.8,12.3
		c0,6.5-5,11.9-11.4,12.4c-2.5,13.7-11.7,25.3-24.2,30.6v7c0,3.7,2.3,6.9,5.6,8.1c0.6,0.2,1.2,0.4,1.8,0.5
		c10.8,1.6,20.7,3.5,28.8,8.1c4,2.3,7.6,5.2,10.7,9C195.6,222.2,193.5,239.7,193.5,251.6z"/>
</g>
<g style="opacity:0;">
	<g>
		<g>
			<circle style="fill:#F95D43;" cx="128.8" cy="149.5" r="6.9"/>
		</g>
		<g>
			<path style="fill:#F95D43;" d="M128.9,163.7c-8.1,0-12.9-2.5-13.2-2.6c-0.7-0.3-0.9-1.2-0.6-1.8c0.3-0.7,1.2-0.9,1.8-0.6
				c0.1,0.1,10.3,5.1,25.8-0.1c0.7-0.2,1.5,0.1,1.7,0.8c0.2,0.7-0.1,1.5-0.8,1.7C137.9,163.1,133,163.7,128.9,163.7z"/>
		</g>
		<g>
			<path style="fill:#FFFFFF;" d="M156.3,136.2c0,3.7-6.7,12.2-6.7,12.2s-6.7-8.5-6.7-12.2s6.7-12.2,6.7-12.2
				S156.3,132.5,156.3,136.2z"/>
		</g>
		<g>
			<path style="fill:#FFFFFF;" d="M115,136.2c0,3.7-6.7,12.2-6.7,12.2s-6.7-8.5-6.7-12.2s6.7-12.2,6.7-12.2S115,132.5,115,136.2z"/>
		</g>
		<g>
			<path style="fill:#4B4351;" d="M179.6,112.2v94.3c-8.1-4.6-18.1-6.5-28.8-8.1c-0.6-0.1-1.2-0.2-1.8-0.5c-3.3-1.3-5.6-4.4-5.6-8.1
				v-7c12.5-5.3,21.8-16.8,24.2-30.6c6.4-0.5,11.4-5.9,11.4-12.4c0-6.3-4.7-11.5-10.8-12.3v-0.2c-9.8-3-18-12.9-22.2-26.1
				c-16,13.9-35.6,22.4-52.3,26.4c-2.6,0.6-5.1,0.9-7.4,0.9c-4.3,1.9-7.3,6.3-7.3,11.3c0,5.9,4.1,10.8,9.6,12.1
				c2.2,14.3,12,26.2,25.2,31.2v6.9c0,3.8-2.5,7.2-6.1,8.3c-0.4,0.1-0.7,0.2-1.1,0.3c-11.2,1.9-20.3,3.9-28,8v-94.5
				c0-27.9,22.6-50.5,50.5-50.5c14,0,26.6,5.7,35.7,14.8c0.3,0.3,0.6,0.6,0.9,0.9C174.3,86.4,179.6,98.7,179.6,112.2z"/>
		</g>
		<g>
			<circle style="fill:#0C0C0C;" cx="109.2" cy="137.1" r="4.6"/>
		</g>
		<g>
			<circle style="fill:#0C0C0C;" cx="149.2" cy="137.1" r="4.6"/>
		</g>
		<g style="opacity:0.1;">
			<path style="fill:#0C0C0C;" d="M129.1,163.7c-7.8,0-12.5-2.4-12.8-2.5c-0.6-0.3-0.9-1.1-0.6-1.8c0.3-0.6,1.1-0.9,1.8-0.6
				c0.1,0.1,9.9,5,24.9-0.1c0.7-0.2,1.4,0.1,1.7,0.8c0.2,0.7-0.1,1.4-0.8,1.7C137.9,163.1,133.1,163.7,129.1,163.7z"/>
		</g>
	</g>
	<g>
		<path style="fill:#71D13F;" d="M195.5,251.8H64.6c0-12.7-2.8-31.4,3.1-37.9c6-6.7,12.8-10.6,21.1-13.3c0.4-0.1,0.7-0.2,1.1-0.3
			c2.8-0.9,5.7-1.6,8.8-2.3c0,0,0.1,0,0.2,0c0.9-0.2,1.8-0.4,2.7-0.7c1.9-0.5,3.9-1.1,6-1.4c0.4-0.1,1-0.3,1.3-0.4
			c4.3,9,20.1,12.9,20.1,12.9c0.1,0,18.1-1.8,21.4-12.5c0,0,0,0,0,0c0.1-0.1,0.1-0.3,0.2-0.4c0,0,0.1,0,0.1,0
			c0.6,0.2,1.1,0.4,1.7,0.5c2.1,0.3,4.1,0.6,6.1,1c0.8,0.1,1.6,0.3,2.4,0.5c0.1,0,0.1,0,0.2,0c3,0.6,6,1.3,8.8,2.1
			c0.4,0.1,0.7,0.2,1.1,0.3c8.5,2.7,15.8,6.8,21.3,14C197.6,221,195.5,239.4,195.5,251.8z"/>
		<path style="fill:#5FB52D;" d="M169.8,199.6v52.2H161v-54.4C164.1,198.1,167,198.8,169.8,199.6z"/>
		<path style="fill:#5FB52D;" d="M98.7,198v53.8h-8.8v-51.6C92.6,199.4,95.6,198.7,98.7,198z"/>
		<g>
			<path style="fill:#71D13F;" d="M137.4,72.7c0,0-3.1-17.6,53.6-31.4c0,0-18.7,18.7-11.1,53.1h-42.6
				C137.4,94.5,136,80.5,137.4,72.7z"/>
			<path style="fill:#71D13F;" d="M118.8,72.7c0,0-1.5-17.6-58.3-31.4c0,0,22.5,21,15.7,53.1h42.6C118.8,94.5,120.2,80.5,118.8,72.7
				z"/>
			<path style="fill:#F95D43;" d="M105.1,95.9c0,0-6.7-65.3,41.4-83.4c0,0-10.7,65,5.3,83.4H105.1z"/>
			<circle style="fill:#FFB339;" cx="60.5" cy="41.4" r="7"/>
			<circle style="fill:#FFB339;" cx="146.7" cy="12.5" r="7"/>
			<circle style="fill:#FFB339;" cx="190.8" cy="40.5" r="7"/>
			<g>
				<path style="fill:#F95D43;" d="M183.8,99.4H73c-1.9,0-3.5-1.6-3.5-3.5s1.6-3.5,3.5-3.5h110.9c1.9,0,3.5,1.6,3.5,3.5
					S185.8,99.4,183.8,99.4z"/>
			</g>
		</g>
	</g>
</g>
</svg>
