<?xml version="1.0" encoding="utf-8"?>
<!-- Generator: Adobe Illustrator 22.1.0, SVG Export Plug-In . SVG Version: 6.00 Build 0)  -->
<svg version="1.1" id="Layer_1" xmlns="http://www.w3.org/2000/svg" xmlns:xlink="http://www.w3.org/1999/xlink" x="0px" y="0px"
	 viewBox="0 0 256 256" style="enable-background:new 0 0 256 256;" xml:space="preserve">
<g style="opacity:0;">
	<path style="fill:#FFD473;" d="M204,251.6H53.4c0-14.1-4.9-35,1.9-42.5c4.1-4.5,8.6-7.7,13.7-10.4c9.1-4.7,19.7-7.2,32.9-9.3
		c0.5-0.1,0.8-0.1,1.3-0.4c4.3-1.3,7.3-5.2,7.3-9.7v-8.1c-15.4-5.9-27-19.8-29.7-36.7c-6.4-1.5-11.2-7.3-11.2-14.2
		c0-5.9,3.5-11,8.6-13.3c2.8,0,5.7-0.4,8.7-1.1c19.6-4.7,42.7-14.6,61.5-31.1c4.9,15.6,14.5,27.2,26.1,30.7v0.3
		c7.2,0.9,12.7,7.2,12.7,14.5c0,7.7-5.9,14-13.4,14.6c-2.9,16.2-13.8,29.7-28.4,35.9v8.2c0,4.4,2.7,8.1,6.5,9.6
		c0.7,0.3,1.3,0.5,2,0.5c12.7,1.9,24.3,4.1,33.8,9.6c4.7,2.7,8.9,6,12.6,10.6C206.4,217,204,237.7,204,251.6z"/>
</g>
<g>
	<g>
		<g>
			<path style="fill:#4B4351;" d="M187.7,87.8v110.9c-9.6-5.5-21.3-7.6-33.8-9.6c-0.7-0.1-1.5-0.3-2-0.5c-3.9-1.5-6.5-5.2-6.5-9.6
				v-8.2c14.8-6.1,25.7-19.7,28.4-35.9c7.5-0.7,13.4-6.9,13.4-14.6c0-7.3-5.6-13.6-12.7-14.5v-0.3c-11.5-3.5-21.2-15.2-26.1-30.7
				c-18.8,16.4-41.8,26.4-61.5,31.1c-3.1,0.7-6,0.9-8.7,0.9c-5.1,2.3-8.6,7.3-8.6,13.3c0,6.9,4.8,12.7,11.2,14.2
				c2.5,16.8,14.1,30.7,29.7,36.7v8.1c0,4.5-3.1,8.5-7.3,9.7c-0.5,0.1-0.8,0.3-1.3,0.4c-13.2,2.1-24,4.6-32.9,9.3V87.8
				c0-32.7,26.6-59.4,59.4-59.4c16.5,0,31.3,6.7,41.9,17.4c0.4,0.4,0.7,0.7,1.1,1.1C181.5,57.5,187.7,71.9,187.7,87.8z"/>
		</g>
		<g>
			<circle style="fill:#0C0C0C;" cx="105" cy="117" r="5.5"/>
		</g>
		<g>
			<circle style="fill:#0C0C0C;" cx="151.9" cy="117" r="5.5"/>
		</g>
		<g style="opacity:0.1;">
			<path style="fill:#0C0C0C;" d="M128.3,148.2c-9.2,0-14.6-2.8-15-2.9c-0.7-0.4-1.1-1.3-0.7-2c0.4-0.7,1.3-1.1,2-0.7
				c0.1,0.1,11.7,5.8,29.3-0.1c0.8-0.3,1.7,0.1,2,0.9c0.3,0.8-0.1,1.7-0.9,2C138.7,147.6,133.1,148.2,128.3,148.2z"/>
		</g>
	</g>
	<g>
		<path style="fill:#F7F7F7;" d="M205.7,251.6H51.6c0-14.9-3.2-36.3,3.6-43.9c7-7.8,15.1-12.5,24.9-15.7c3.7-1.2,7.6-2.2,11.9-3.1
			c3.3-0.7,6.5-1.8,10.2-2.5c0.5-0.1,1.1-0.3,1.6-0.4c6.8,7.8,25.2,9.4,25.2,9.4s19,0,23.9-9.4c0.7,0.3,1.4,0.5,2.1,0.6
			c3.4,0.5,6.7,1.1,10,1.7c4.1,0.8,8.1,1.8,11.9,2.9c10,3.1,18.6,7.9,25.1,16.5C208.2,215.9,205.7,236.9,205.7,251.6z"/>
		<path style="fill:#7E8435;" d="M81,223.9h-6.5c0.2,10.5-0.4,21.1-3.2,27.7H47.8c0-14.9,0.6-36.2,7.4-43.9c5-5.6,10.6-9.6,17-12.6
			c1.7-0.8,3.4-1.5,5.2-2.2C79,199.6,81.7,212.5,81,223.9z"/>
		<path style="fill:#7E8435;" d="M162.1,187.7c0.2,0,0.4,0.1,0.5,0.1c-0.8,11.1-5.7,37-34.3,37c-27.6,0-35.1-24.2-37.1-35.8
			c0.2,0,0.5-0.1,0.7-0.1c1.1-0.2,2.1-0.5,3.2-0.8c2.3-0.6,4.6-1.3,7-1.7c0.5-0.1,1.1-0.3,1.6-0.4c5.1,10.5,23.7,15.2,23.7,15.2
			c0.1,0,21.3-2.1,25.2-14.7c0,0,0,0,0,0c0.1-0.1,0.2-0.3,0.2-0.4c0,0,0.1,0,0.1,0c0.7,0.2,1.3,0.4,2,0.5
			C157.3,186.9,159.7,187.3,162.1,187.7z"/>
		<path style="fill:#7E8435;" d="M208.2,251.6h-19.9c-1.5-5.9-3.8-16.7-4.9-28.3h-6.6c-0.6-11.3,2-24.2,3.6-30.9
			c1.5,0.6,3,1.2,4.5,1.9c6.6,3,12.3,7.3,17,13.4C208.2,215.9,208.2,236.9,208.2,251.6z"/>
		<g>
			<path style="fill:none;stroke:#646624;stroke-width:4;stroke-miterlimit:10;" d="M79.8,90.6c0,0-10.9,84.4,45.8,84.4
				c60.9,0,49.4-85.6,49.4-85.6"/>
			<path style="fill:#646624;" d="M187.8,100c-43.6-31.4-84.1-29.3-122.2,0V62.1c0-27.4,22.2-49.6,49.6-49.6h22.9
				c27.4,0,49.6,22.2,49.6,49.6L187.8,100z"/>
			<path style="fill:none;stroke:#7E8435;stroke-width:12;stroke-linecap:round;stroke-linejoin:round;stroke-miterlimit:10;" d="
				M66.3,95.3c0,0,55.3-43.4,121.5,1.2"/>
		</g>
		<path style="fill:#696B29;" d="M195.6,215.9c0,0-4.3-2.1-5.7-3.8c-1.4-1.7-4.2-7.6-10.4-4.2c-6.3,3.5,0.5,7.1,2.2,10.9
			s-4.7,4.8,4.5,6s10.9,0.4,11.3-1.8C197.8,220.7,195.6,215.9,195.6,215.9z"/>
		<path style="fill:#9E9E5E;" d="M72.6,240.2c0,0-4.3-2.1-5.7-3.8s-4.2-7.6-10.4-4.2c-6.3,3.5,0.5,7.1,2.2,10.9
			c1.7,3.8-4.7,4.8,4.5,6s10.9,0.4,11.3-1.8S72.6,240.2,72.6,240.2z"/>
		<path style="fill:#696B29;" d="M146.4,205.4c0,0-10.8,6.1-13.2,4.5s-6.6-7.1-8-2.1c-1.4,5-1.1,7.1,4.6,8.3c5.8,1.2,1,6.4,7.7,3.6
			c6.7-2.8,8.2-5.2,8.8-6.8S153,207,146.4,205.4z"/>
		<path style="fill:#696B29;" d="M103.7,199.5c-1.4-2.4-11.6-5.2-10.2-1.5c1.4,3.7,3.8,7.1-0.1,10.2c-3.9,3.1-4.9,7.3,5.2,7.8
			s12.8-2.5,10.2-6.2C106.1,206.1,103.7,199.5,103.7,199.5z"/>
		<path style="fill:#9E9E5E;" d="M189.8,231.3c-1.4-2.4-11.6-5.2-10.2-1.5c1.4,3.7,3.8,7.1-0.1,10.2c-3.9,3.1-4.9,7.3,5.2,7.8
			c10,0.5,12.8-2.5,10.2-6.2C192.2,237.9,189.8,231.3,189.8,231.3z"/>
		<path style="fill:#9E9E5E;" d="M166.2,193.3c-1.4-2.4-11.6-5.2-10.2-1.5c1.4,3.7,3.8,7.1-0.1,10.2s-4.9,7.3,5.2,7.8
			c10,0.5,12.8-2.5,10.2-6.2C168.6,199.9,166.2,193.3,166.2,193.3z"/>
		<path style="fill:#696B29;" d="M74.1,202.4c-0.5,1.1-8.3-2.2-8.5,2.8c-0.2,5,4.9,9.6,4.2,12s3.6,3,6.3,0c2.8-3,6-1.7,2.8-6
			s-0.8-8.3-1.5-8.8C76.8,201.9,75.8,198.3,74.1,202.4z"/>
		<path style="fill:#9E9E5E;" d="M115.6,215.9c-0.5,1.1-8.3-2.2-8.5,2.8c-0.2,5,4.9,9.6,4.2,12s3.6,3,6.3,0s6-1.7,2.8-6
			c-3.2-4.4-0.8-8.3-1.5-8.8S117.3,211.8,115.6,215.9z"/>
		<path style="fill:#515140;" d="M71.3,251.6c2.8-6.6,3.4-17.2,3.2-27.7H81c0.6-11.4-2-24.4-3.6-31.1c0.9-0.3,1.7-0.6,2.6-0.9
			c3.5-1.2,7.2-2.1,11.2-3c2,11.6,9.6,35.8,37.1,35.8c28.5,0,33.5-25.9,34.3-37c0.8,0.1,1.5,0.3,2.3,0.4c4.1,0.8,8.1,1.8,11.8,2.9
			c1.2,0.4,2.4,0.8,3.6,1.3c-1.6,6.7-4.2,19.6-3.6,30.9h6.6c1.1,11.6,3.5,22.4,4.9,28.3H71.3z"/>
	</g>
</g>
</svg>
