<?xml version="1.0" encoding="utf-8"?>
<!-- Generator: Adobe Illustrator 22.1.0, SVG Export Plug-In . SVG Version: 6.00 Build 0)  -->
<svg version="1.1" id="Layer_1" xmlns="http://www.w3.org/2000/svg" xmlns:xlink="http://www.w3.org/1999/xlink" x="0px" y="0px"
	 viewBox="0 0 256 256" style="enable-background:new 0 0 256 256;" xml:space="preserve">
<g style="opacity:0;">
	<path style="fill:#FFD473;" d="M203.4,251.7H52c0-14.3-5-35.3,1.9-42.6c4.1-4.5,8.7-7.8,13.7-10.5c9.1-4.8,19.8-7.2,33.1-9.4
		c0.5-0.1,0.9-0.2,1.3-0.3c4.3-1.3,7.3-5.2,7.3-9.8v-8.1c-15.6-6-27.2-20-29.8-36.9c-6.5-1.5-11.3-7.3-11.3-14.3
		c0-6,3.6-11.1,8.7-13.4c2.8,0,5.7-0.3,8.8-1.1c19.7-4.7,42.9-14.8,61.8-31.2c5,15.7,14.7,27.3,26.3,30.9v0.2
		c7.2,0.9,12.8,7.1,12.8,14.6c0,7.7-6,14.1-13.5,14.7c-2.9,16.2-13.8,29.9-28.6,36.1v8.2c0,4.3,2.7,8.1,6.6,9.6
		c0.7,0.3,1.4,0.4,2.1,0.5c12.7,1.9,24.5,4.2,34.1,9.6c4.8,2.7,9,6.1,12.6,10.7C205.9,217,203.4,237.7,203.4,251.7z"/>
</g>
<g>
	<g>
		<g>
			<path style="fill:#4B4351;" d="M187,86.9v111.5c-9.6-5.4-21.4-7.7-34.1-9.6c-0.7-0.1-1.4-0.3-2.1-0.5c-3.9-1.5-6.6-5.3-6.6-9.6
				v-8.2c14.8-6.2,25.7-19.9,28.6-36.1c7.6-0.6,13.5-6.9,13.5-14.7c0-7.5-5.6-13.6-12.8-14.6v-0.2c-11.6-3.5-21.3-15.2-26.3-30.9
				c-18.9,16.4-42.1,26.5-61.8,31.2c-3.1,0.7-6,1.1-8.8,1.1c-5.1,2.3-8.7,7.4-8.7,13.4c0,7,4.8,12.8,11.3,14.3
				c2.6,16.9,14.2,30.9,29.8,36.9v8.1c0,4.5-3,8.5-7.3,9.8c-0.4,0.1-0.9,0.3-1.3,0.3c-13.3,2.2-24.1,4.6-33.1,9.4V86.9
				c0-33,26.8-59.8,59.8-59.8c16.5,0,31.4,6.7,42.3,17.5c0.4,0.4,0.7,0.7,1.1,1.1C180.8,56.5,187,71,187,86.9z"/>
		</g>
		<g>
			<circle style="fill:#0C0C0C;" cx="103.8" cy="116.4" r="5.4"/>
		</g>
		<g>
			<circle style="fill:#0C0C0C;" cx="151" cy="116.4" r="5.4"/>
		</g>
		<g style="opacity:0.1;">
			<path style="fill:#0C0C0C;" d="M127.3,147.8c-9.2,0-14.8-2.8-15.1-3c-0.8-0.4-1-1.3-0.7-2.1c0.4-0.8,1.3-1,2.1-0.7
				c0.2,0.1,11.8,5.9,29.5-0.1c0.8-0.3,1.7,0.2,2,1c0.3,0.8-0.2,1.7-1,2C137.7,147.1,132,147.8,127.3,147.8z"/>
		</g>
	</g>
	<g>
		<path style="fill:#44B764;" d="M202.9,251.7H51.4c0-14.7-3.2-36.3,3.6-43.8c6.9-7.7,14.8-12.3,24.4-15.4c3.6-1.2,7.5-2.2,11.7-3.1
			c3.2-0.7,6.6-1.3,10.2-2c0.5-0.1,0.9-0.2,1.3-0.3c4.6,13.7,13.3,23.9,24.8,32c11.8-6.4,19.5-17.4,23.5-32.6
			c0.7,0.3,1.4,0.5,2.1,0.6c3.4,0.5,6.6,1.1,9.8,1.7c4,0.8,7.9,1.7,11.7,2.9c9.8,3.1,18.3,7.8,24.7,16.2
			C205.4,216,202.9,237.3,202.9,251.7z"/>
		<g>
			<path style="fill:#E8A231;" d="M198.4,59.4c0,13.1-31.6,31.2-70.6,31.2s-70.4-18-70.4-31.2S89,35.7,127.9,35.7
				S198.4,46.3,198.4,59.4z"/>
			<path style="fill:#D8932E;" d="M173.4,50.3c0,3.6-18.6,13.3-43.5,13.3c-24.9,0-46.6-9.7-46.6-13.3l0.5-4.5
				c8.6,4.1,26.4,9.1,45.9,9.1c19.5,0,35.5-4.9,43.1-9.1L173.4,50.3z"/>
			<path style="fill:#E8A231;" d="M172.9,45.8c-7.6,4.1-23.6,9.1-43.1,9.1c-19.6,0-37.4-5-45.9-9.1l3.7-31.5
				c0-3.6,18.3-6.5,40.8-6.5c22.5,0,40.8,2.9,40.8,6.5L172.9,45.8z"/>
		</g>
		<path style="fill:#286E9E;" d="M174.5,191.6v60H79.5v-59.2c3.6-1.2,7.5-2.2,11.7-3.1v39.1l71.7-0.5v-39.2
			C166.9,189.5,170.8,190.5,174.5,191.6z"/>
	</g>
</g>
</svg>
