<?xml version="1.0" encoding="utf-8"?>
<!-- Generator: Adobe Illustrator 22.1.0, SVG Export Plug-In . SVG Version: 6.00 Build 0)  -->
<svg version="1.1" id="Layer_1" xmlns="http://www.w3.org/2000/svg" xmlns:xlink="http://www.w3.org/1999/xlink" x="0px" y="0px"
	 viewBox="0 0 256 256" style="enable-background:new 0 0 256 256;" xml:space="preserve">
<g>
	<path style="fill:#FFD473;" d="M204.5,251.6H49.8c0-14.6-5.1-36,1.9-43.5c4.2-4.6,8.9-8,14-10.7c9.3-4.9,20.3-7.4,33.8-9.6
		c0.5-0.1,0.9-0.2,1.4-0.3c4.4-1.3,7.4-5.3,7.4-10v-8.3c-15.9-6.1-27.7-20.4-30.4-37.7c-6.6-1.6-11.6-7.5-11.6-14.6
		c0-6.1,3.6-11.3,8.8-13.7c2.8,0,5.8-0.3,9-1.1c20.1-4.8,43.8-15.1,63.1-31.9c5.1,16,15,27.9,26.8,31.5v0.2c7.4,1,13,7.3,13,14.9
		c0,7.9-6.1,14.4-13.8,15c-3,16.6-14.1,30.5-29.2,36.9v8.4c0,4.4,2.8,8.3,6.7,9.8c0.7,0.3,1.4,0.4,2.2,0.6c13,1.9,25,4.2,34.8,9.8
		c4.9,2.7,9.2,6.2,12.9,10.9C207,216.1,204.5,237.3,204.5,251.6z"/>
</g>
<g style="opacity:0;">
	<g>
		<g>
			<path style="fill:#4B4351;" d="M187.7,83.3v113.9c-9.8-5.5-21.8-7.9-34.8-9.8c-0.7-0.1-1.5-0.3-2.2-0.6c-4-1.5-6.7-5.4-6.7-9.8
				v-8.4c15.1-6.4,26.3-20.3,29.2-36.9c7.7-0.6,13.8-7.1,13.8-15c0-7.6-5.7-13.9-13-14.9v-0.2c-11.9-3.6-21.7-15.5-26.8-31.5
				c-19.3,16.8-43,27.1-63.1,31.9c-3.1,0.8-6.2,1.1-9,1.1c-5.2,2.3-8.8,7.6-8.8,13.7c0,7.1,4.9,13.1,11.6,14.6
				c2.7,17.3,14.5,31.6,30.4,37.7v8.3c0,4.6-3.1,8.7-7.4,10c-0.4,0.2-0.9,0.3-1.4,0.3c-13.6,2.3-24.6,4.7-33.8,9.6V83.3
				c0-33.7,27.3-61,61-61c16.9,0,32.1,6.8,43.2,17.9c0.4,0.4,0.7,0.7,1.1,1.1C181.4,52.2,187.7,67,187.7,83.3z"/>
		</g>
		<g>
			<circle style="fill:#0C0C0C;" cx="102.7" cy="113.3" r="5.6"/>
		</g>
		<g>
			<circle style="fill:#0C0C0C;" cx="151" cy="113.3" r="5.6"/>
		</g>
		<g style="opacity:0.1;">
			<path style="fill:#0C0C0C;" d="M126.8,145.4c-9.4,0-15.1-2.9-15.4-3c-0.8-0.4-1.1-1.4-0.7-2.1c0.4-0.8,1.3-1.1,2.1-0.7
				c0.2,0.1,12,6,30.1-0.1c0.8-0.3,1.7,0.2,2,1c0.3,0.8-0.2,1.7-1,2C137.3,144.7,131.6,145.4,126.8,145.4z"/>
		</g>
	</g>
	<g>
		<g>
			<path style="fill:#FFDA40;" d="M187.4,66c0,30.5-122.1,30.5-122.1,0c0-25,12.5-46.1,40.3-52.9c3.5-0.9,7.3-1.5,11.3-1.9
				c3-0.3,6.1-0.4,9.4-0.4c3.4,0,6.6,0.2,9.7,0.5c4,0.4,7.8,1.1,11.3,1.9C174.8,20.1,187.4,41.1,187.4,66z"/>
			<g>
				<path style="fill:#FFDA40;" d="M133.7,88.6c-2.4,0-4.9,0-7.4,0c-28-0.3-62.6-3.2-68.5-15.1c-2.1-4.2-0.4-9.2,3.8-11.3
					c3.6-1.8,7.9-0.8,10.3,2.2c1.6,1,12,6.8,54.6,7.3c42.8,0.5,53.7-3.6,55.4-4.4c2.8-2.4,7-2.8,10.2-0.6c3.9,2.6,4.9,7.9,2.2,11.7
					C192.7,81,187.5,88.6,133.7,88.6z M180.5,68.9C180.5,68.9,180.5,68.9,180.5,68.9C180.5,68.9,180.5,68.9,180.5,68.9z M180.5,68.9
					C180.5,68.9,180.5,68.9,180.5,68.9C180.5,68.9,180.5,68.9,180.5,68.9z M180.5,68.9C180.5,68.9,180.5,68.9,180.5,68.9
					C180.5,68.9,180.5,68.9,180.5,68.9z M72.9,66C72.9,66,72.9,66,72.9,66C72.9,66,72.9,66,72.9,66z M72.9,66
					C72.9,66,72.9,66,72.9,66C72.9,66,72.9,66,72.9,66z M72.9,65.9C72.9,65.9,72.9,65.9,72.9,65.9C72.9,65.9,72.9,65.9,72.9,65.9z
					 M71.7,64.2L71.7,64.2L71.7,64.2z"/>
			</g>
			<path style="fill:#FCC62B;" d="M147.4,13.1c-5.6,6.7-11.3,32.2-11.3,32.2V11.2C140.1,11.6,143.8,12.3,147.4,13.1z"/>
			<path style="fill:#FCC62B;" d="M117,11.2v34.1c0,0-5.8-25.6-11.3-32.3C109.2,12.2,112.9,11.6,117,11.2z"/>
			<rect x="114.7" y="4.7" style="fill:#FFDA40;" width="23.3" height="38.7"/>
		</g>
		<path style="fill:#F9AC30;" d="M203.2,251.6H50c0-14.9-3.2-36.7,3.6-44.3c7-7.8,15-12.4,24.7-15.6c3.7-1.2,7.6-2.2,11.8-3.1
			c3.3-0.7,6.7-1.4,10.3-2c0.5-0.1,0.9-0.2,1.3-0.3c4.6,13.8,13.5,24.2,25.1,32.4c11.9-6.5,19.7-17.6,23.8-33
			c0.7,0.3,1.4,0.5,2.1,0.6c3.4,0.5,6.7,1.1,9.9,1.7c4.1,0.8,8,1.7,11.8,2.9c9.9,3.1,18.5,7.9,25,16.4
			C205.7,215.5,203.2,237,203.2,251.6z"/>
		<path style="fill:#FFDA40;" d="M174.5,190.8v60.8H78.3v-59.9c3.7-1.2,7.6-2.2,11.8-3.1V228l72.6-0.5v-39.7
			C166.8,188.7,170.7,189.7,174.5,190.8z"/>
	</g>
</g>
</svg>
