<?xml version="1.0" encoding="utf-8"?>
<!-- Generator: Adobe Illustrator 22.1.0, SVG Export Plug-In . SVG Version: 6.00 Build 0)  -->
<svg version="1.1" id="Layer_1" xmlns="http://www.w3.org/2000/svg" xmlns:xlink="http://www.w3.org/1999/xlink" x="0px" y="0px"
	 viewBox="0 0 256 256" style="enable-background:new 0 0 256 256;" xml:space="preserve">
<g>
	<path style="fill:#FFD473;" d="M201.7,251.6H57c0-13.6-4.8-33.7,1.7-40.8c3.9-4.3,8.2-7.4,13.1-10c8.7-4.5,18.9-6.9,31.6-8.9
		c0.5-0.1,0.8-0.1,1.3-0.3c4.1-1.3,7-5,7-9.3v-7.8c-14.9-5.7-25.9-19-28.5-35.3c-6.2-1.4-10.8-7-10.8-13.7c0-5.7,3.4-10.6,8.2-12.8
		c2.7,0,5.5-0.3,8.4-1c18.8-4.5,41-14.1,59-29.8c4.8,15,13.9,26.1,25.1,29.5v0.2c6.9,0.9,12.2,6.9,12.2,13.9
		c0,7.4-5.7,13.5-12.9,14.1c-2.8,15.6-13.2,28.6-27.3,34.5v7.9c0,4.2,2.6,7.8,6.3,9.2c0.7,0.2,1.3,0.5,2,0.5
		c12.2,1.7,23.3,3.9,32.5,9.2c4.5,2.6,8.6,5.8,12.1,10.2C204,218.4,201.7,238.2,201.7,251.6z"/>
</g>
<g style="opacity:0;">
	<g>
		<g>
			<path style="fill:#4B4351;" d="M186,94.3v106.5c-9.2-5.2-20.4-7.3-32.5-9.2c-0.7-0.1-1.4-0.2-2-0.5c-3.7-1.4-6.3-5-6.3-9.2V174
				c14.2-5.9,24.6-18.9,27.3-34.5c7.2-0.6,12.9-6.6,12.9-14.1c0-7.1-5.3-13-12.2-13.9v-0.2c-11-3.4-20.3-14.5-25.1-29.5
				c-18,15.7-40.2,25.3-59,29.8c-2.9,0.7-5.8,1-8.4,1c-4.9,2.2-8.2,7.1-8.2,12.8c0,6.6,4.6,12.2,10.8,13.7
				c2.4,16.1,13.6,29.5,28.5,35.3v7.8c0,4.3-2.9,8.1-7,9.3c-0.5,0.1-0.8,0.2-1.3,0.3c-12.7,2.1-23,4.4-31.6,8.9V94.3
				c0-31.5,25.5-57,57-57c15.8,0,30.1,6.4,40.3,16.7c0.3,0.3,0.7,0.7,1,1C180.1,65.2,186,79,186,94.3z"/>
		</g>
		<g>
			<circle style="fill:#0C0C0C;" cx="106.6" cy="122.4" r="5.2"/>
		</g>
		<g>
			<circle style="fill:#0C0C0C;" cx="151.6" cy="122.4" r="5.2"/>
		</g>
		<g style="opacity:0.1;">
			<path style="fill:#0C0C0C;" d="M129,152.3c-8.8,0-14.1-2.7-14.4-2.8c-0.7-0.3-1-1.3-0.6-2c0.3-0.7,1.3-1,2-0.6
				c0.1,0.1,11.3,5.6,28.1-0.1c0.8-0.2,1.6,0.1,1.9,0.9s-0.1,1.6-0.9,1.9C138.9,151.7,133.5,152.3,129,152.3z"/>
		</g>
	</g>
	<path style="fill:#E8E8E8;" d="M202.5,251.6H55.7c0-14.2-3.1-35,3.5-42.4c6.7-7.5,14.3-11.9,23.7-14.9c3.5-1.2,7.3-2.1,11.3-3
		c1-0.2,2-0.5,3-0.7c2.1-0.6,4.3-1.2,6.7-1.6c0.4-0.1,1.1-0.3,1.5-0.4c4.8,10,22.5,14.5,22.5,14.5c0.1,0,20.2-2,24-14c0,0,0,0,0,0
		c0.1-0.1,0.1-0.3,0.2-0.4c0,0,0.1,0,0.1,0c0.6,0.2,1.3,0.4,1.9,0.5c2.3,0.3,4.6,0.7,6.8,1.1c0.9,0.2,1.8,0.3,2.7,0.5
		c3.9,0.8,7.7,1.7,11.3,2.8c9.5,3,17.7,7.6,23.9,15.7C204.9,217.1,202.5,237.6,202.5,251.6z"/>
	<polygon style="fill:#474747;" points="119.6,210.5 125,217 121.2,251.6 133.6,251.6 130.3,217 136.7,210.5 127.9,203.1 	"/>
	<path style="fill:#474747;" d="M202.5,251.6H55.7c0-14.2-3.1-35,3.5-42.4c6.7-7.5,14.3-11.9,23.7-14.9c3.5-1.2,7.3-2.1,11.3-3
		c1-0.2,5.8-1.4,6.3-1.5c-2.9,4.2,11.8,53.1,17.1,61.8h19.1c4.6-8.2,22.4-58.4,15.2-62.6c0,0,0,0,0,0c0.1-0.1,0.1-0.3,0.2-0.4
		c0,0,0.1,0,0.1,0c0.6,0.2,1.3,0.4,1.9,0.5c2.3,0.3,4.6,0.7,6.8,1.1c0.9,0.2,1.8,0.3,2.7,0.5c3.9,0.8,7.7,1.7,11.3,2.8
		c9.5,3,17.7,7.6,23.9,15.7C204.9,217.1,202.5,237.6,202.5,251.6z"/>
	<path style="fill:#F4F4F4;" d="M127.9,203.1l8.8,13.9c0,0,17.9-15.4,21.8-26.8l-10.8-2.7C149,189.7,139.7,200.8,127.9,203.1z"/>
	<path style="fill:#F4F4F4;" d="M127.9,202.5l-8.1,14.4c0,0-18.4-15.4-22.4-26.8l12-2.3C105.8,190.4,116.1,200.3,127.9,202.5z"/>
	<path style="fill:#666666;" d="M151.7,188.6c0,0-10.5,49.7-15,63l29.3-29.2l-11.2-9.4l12.1-2.3l-6.9-20.7L151.7,188.6z"/>
	<path style="fill:#666666;" d="M102.8,188.3c0,0,10.5,49.9,14.9,63.3L89,222.8l11.2-9.4l-15-0.9l9-21.2L102.8,188.3z"/>
	<g>
		<path style="fill:#FFDA40;" d="M188.7,68.8c0,29.3-117.1,29.3-117.1,0c0-24,12-44.2,38.6-50.7c3.4-0.8,7-1.4,10.9-1.8
			c2.9-0.3,5.9-0.4,9-0.4c3.2,0,6.3,0.2,9.3,0.4c3.9,0.4,7.5,1,10.8,1.9C176.6,24.7,188.7,44.9,188.7,68.8z"/>
		<g>
			<path style="fill:#FFDA40;" d="M137.2,90.5c-2.3,0-4.7,0-7.1,0c-26.8-0.3-60-3.1-65.7-14.5c-2-4-0.4-8.8,3.6-10.8
				c3.4-1.7,7.5-0.7,9.9,2.1c1.5,1,11.5,6.5,52.4,7c41,0.5,51.5-3.5,53.2-4.2c2.7-2.3,6.7-2.7,9.8-0.6c3.7,2.5,4.7,7.5,2.2,11.2
				C193.7,83.1,188.8,90.5,137.2,90.5z M182,71.6C182,71.6,182,71.6,182,71.6C182,71.6,182,71.6,182,71.6z M182,71.6
				C182,71.6,182,71.6,182,71.6C182,71.6,182,71.6,182,71.6z M182,71.6C182,71.6,182,71.6,182,71.6C182,71.6,182,71.6,182,71.6z
				 M78.9,68.7C78.9,68.7,78.9,68.7,78.9,68.7C78.9,68.7,78.9,68.7,78.9,68.7z M78.8,68.7C78.8,68.7,78.8,68.7,78.8,68.7
				C78.8,68.7,78.8,68.7,78.8,68.7z M78.8,68.7C78.8,68.7,78.8,68.7,78.8,68.7C78.8,68.7,78.8,68.7,78.8,68.7z M77.7,67.1L77.7,67.1
				L77.7,67.1z"/>
		</g>
		<path style="fill:#FCC62B;" d="M150.3,18.1c-5.3,6.5-10.8,30.9-10.8,30.9V16.2C143.3,16.6,146.9,17.2,150.3,18.1z"/>
		<path style="fill:#FCC62B;" d="M121.1,16.2v32.8c0,0-5.5-24.5-10.9-30.9C113.6,17.2,117.3,16.6,121.1,16.2z"/>
		<rect x="119" y="10" style="fill:#FFDA40;" width="22.3" height="37.1"/>
	</g>
</g>
</svg>
