<?xml version="1.0" encoding="utf-8"?>
<!-- Generator: Adobe Illustrator 22.1.0, SVG Export Plug-In . SVG Version: 6.00 Build 0)  -->
<svg version="1.1" id="Layer_1" xmlns="http://www.w3.org/2000/svg" xmlns:xlink="http://www.w3.org/1999/xlink" x="0px" y="0px"
	 viewBox="0 0 256 256" style="enable-background:new 0 0 256 256;" xml:space="preserve">
<g style="opacity:0;">
	<path style="fill:#FFD473;" d="M204,251.6H53.4c0-14.1-4.9-35,1.9-42.5c4.1-4.5,8.6-7.7,13.7-10.4c9.1-4.7,19.7-7.2,32.9-9.3
		c0.5-0.1,0.8-0.1,1.3-0.4c4.3-1.3,7.3-5.2,7.3-9.7v-8.1c-15.4-5.9-27-19.8-29.7-36.7c-6.4-1.5-11.2-7.3-11.2-14.2
		c0-5.9,3.5-11,8.6-13.3c2.8,0,5.7-0.4,8.7-1.1c19.6-4.7,42.7-14.6,61.5-31.1c4.9,15.6,14.5,27.2,26.1,30.7v0.3
		c7.2,0.9,12.7,7.2,12.7,14.5c0,7.7-5.9,14-13.4,14.6c-2.9,16.2-13.8,29.7-28.4,35.9v8.2c0,4.4,2.7,8.1,6.5,9.6
		c0.7,0.3,1.3,0.5,2,0.5c12.7,1.9,24.3,4.1,33.8,9.6c4.7,2.7,8.9,6,12.6,10.6C206.4,217,204,237.7,204,251.6z"/>
</g>
<g>
	<g>
		<g>
			<path style="fill:#4B4351;" d="M187.7,87.8v110.9c-9.6-5.5-21.3-7.6-33.8-9.6c-0.7-0.1-1.5-0.3-2-0.5c-3.9-1.5-6.5-5.2-6.5-9.6
				v-8.2c14.8-6.1,25.7-19.7,28.4-35.9c7.5-0.7,13.4-6.9,13.4-14.6c0-7.3-5.6-13.6-12.7-14.5v-0.3c-11.5-3.5-21.2-15.2-26.1-30.7
				c-18.8,16.4-41.8,26.4-61.5,31.1c-3.1,0.7-6,0.9-8.7,0.9c-5.1,2.3-8.6,7.3-8.6,13.3c0,6.9,4.8,12.7,11.2,14.2
				c2.5,16.8,14.1,30.7,29.7,36.7v8.1c0,4.5-3.1,8.5-7.3,9.7c-0.5,0.1-0.8,0.3-1.3,0.4c-13.2,2.1-24,4.6-32.9,9.3V87.8
				c0-32.7,26.6-59.4,59.4-59.4c16.5,0,31.3,6.7,41.9,17.4c0.4,0.4,0.7,0.7,1.1,1.1C181.5,57.5,187.7,71.9,187.7,87.8z"/>
		</g>
		<g>
			<circle style="fill:#0C0C0C;" cx="105" cy="117" r="5.5"/>
		</g>
		<g>
			<circle style="fill:#0C0C0C;" cx="151.9" cy="117" r="5.5"/>
		</g>
		<g style="opacity:0.1;">
			<path style="fill:#0C0C0C;" d="M128.3,148.2c-9.2,0-14.6-2.8-15-2.9c-0.7-0.4-1.1-1.3-0.7-2c0.4-0.7,1.3-1.1,2-0.7
				c0.1,0.1,11.7,5.8,29.3-0.1c0.8-0.3,1.7,0.1,2,0.9c0.3,0.8-0.1,1.7-0.9,2C138.7,147.6,133.1,148.2,128.3,148.2z"/>
		</g>
	</g>
	<path style="fill:#F7F7F7;" d="M202.3,251H52.4c0-14.5-3.2-35.9,3.5-43.4c6.8-7.6,14.6-12.1,24.2-15.2c3.6-1.2,7.4-2.2,11.5-3.1
		c3.2-0.7,6.4-1.8,9.9-2.4c0.4-0.1,1.1-0.3,1.5-0.4c6.7,7.5,24.5,9.2,24.5,9.2s18.5,0,23.2-9.2c0.7,0.3,1.3,0.4,2.1,0.6
		c3.3,0.5,6.6,1,9.7,1.7c4,0.8,7.9,1.7,11.5,2.9c9.7,3,18.1,7.7,24.4,16C204.7,215.7,202.3,236.7,202.3,251z"/>
	<path style="fill:#76B7E2;" d="M202.3,251H52.4c0-14.5-3.2-35.9,3.5-43.4c6.8-7.6,14.6-12.1,24.2-15.2c3.6-1.2,7.4-2.2,11.5-3.1
		c1-0.2,2-0.5,3.1-0.8c2.2-0.6,4.4-1.2,6.9-1.6c0.5-0.1,1.1-0.3,1.5-0.4c4.9,10.3,23,14.8,23,14.8c0.1,0,20.7-2,24.5-14.3
		c0,0,0,0,0,0c0.1-0.1,0.2-0.3,0.2-0.4c0,0,0.1,0,0.1,0c0.6,0.2,1.3,0.4,2,0.5c2.4,0.4,4.7,0.7,7,1.1c0.9,0.2,1.8,0.3,2.8,0.5
		c4,0.8,7.9,1.7,11.5,2.8c9.7,3,18.1,7.7,24.4,16C204.7,215.7,202.3,236.7,202.3,251z"/>
	<path style="fill:#B6BC46;" d="M202.3,251H52.4c0-14.5-3.2-35.9,3.5-43.4c6.8-7.6,14.6-12.1,24.2-15.2c3.6-1.2,7.4-2.2,11.5-3.1
		c1-0.2,6-1.4,6.4-1.5c-3,4.3,12.1,54.3,17.5,63.2l19.5,0c4.7-8.4,22.9-59.7,15.5-64c0,0,0,0,0,0c0.1-0.1,0.2-0.3,0.2-0.4
		c0,0,0.1,0,0.1,0c0.6,0.2,1.3,0.4,2,0.5c2.4,0.4,4.7,0.7,7,1.1c0.9,0.2,1.8,0.3,2.8,0.5c4,0.8,7.9,1.7,11.5,2.8
		c9.7,3,18.1,7.7,24.4,16C204.7,215.7,202.3,236.7,202.3,251z"/>
	<path style="fill:#AAAA3C;" d="M150.3,186.5c0,0-10.7,51.1-15.3,64.7l29.9-30.1l-11.5-9.6l12.4-2.3l-7.1-21.2L150.3,186.5z"/>
	<path style="fill:#AAAA3C;" d="M100.5,186.3c0,0,10.7,51.7,15.2,65.3l-29.4-30.1l11.5-9.6L82.5,211l9.2-21.6L100.5,186.3z"/>
	<g>
		<path style="fill:#B6BC46;" d="M200.9,60.8c0,13.7-32.9,32.4-73.4,32.4S54.3,74.4,54.3,60.8S87.1,36,127.6,36
			S200.9,47.1,200.9,60.8z"/>
		<path style="fill:#ADAD3D;" d="M175,51.2c0,3.8-19.3,13.9-45.2,13.9c-25.9,0-48.5-10.1-48.5-13.9l0.6-4.7
			c8.9,4.3,27.4,9.5,47.8,9.5c20.3,0,37-5.1,44.8-9.5L175,51.2z"/>
		<path style="fill:#B6BC46;" d="M174.4,46.6c-7.9,4.3-24.5,9.5-44.8,9.5c-20.4,0-38.9-5.2-47.8-9.5l3.8-32.7c0-3.8,19-6.8,42.5-6.8
			c23.4,0,42.5,3.1,42.5,6.8L174.4,46.6z"/>
	</g>
	<rect x="177.1" y="209.7" style="fill:#F9D153;" width="31" height="41.6"/>
	
		<line style="fill:none;stroke:#E8BD46;stroke-width:2;stroke-linecap:round;stroke-linejoin:round;stroke-miterlimit:10;" x1="180.6" y1="209.2" x2="180.6" y2="211.6"/>
	
		<line style="fill:none;stroke:#E8BD46;stroke-width:2;stroke-linecap:round;stroke-linejoin:round;stroke-miterlimit:10;" x1="184.7" y1="209.2" x2="184.7" y2="211.6"/>
	
		<line style="fill:none;stroke:#E8BD46;stroke-width:2;stroke-linecap:round;stroke-linejoin:round;stroke-miterlimit:10;" x1="188.5" y1="209.2" x2="188.5" y2="211.6"/>
	
		<line style="fill:none;stroke:#E8BD46;stroke-width:2;stroke-linecap:round;stroke-linejoin:round;stroke-miterlimit:10;" x1="192.6" y1="209.2" x2="192.6" y2="211.6"/>
	
		<line style="fill:none;stroke:#E8BD46;stroke-width:2;stroke-linecap:round;stroke-linejoin:round;stroke-miterlimit:10;" x1="196.8" y1="209.2" x2="196.8" y2="211.6"/>
	
		<line style="fill:none;stroke:#E8BD46;stroke-width:2;stroke-linecap:round;stroke-linejoin:round;stroke-miterlimit:10;" x1="200.9" y1="209.2" x2="200.9" y2="211.6"/>
	
		<line style="fill:none;stroke:#E8BD46;stroke-width:2;stroke-linecap:round;stroke-linejoin:round;stroke-miterlimit:10;" x1="205" y1="209.2" x2="205" y2="211.6"/>
	
		<line style="fill:none;stroke:#E8BD46;stroke-width:2;stroke-linejoin:round;stroke-miterlimit:10;" x1="179.9" y1="222.1" x2="205" y2="222.1"/>
	
		<line style="fill:none;stroke:#E8BD46;stroke-width:2;stroke-linejoin:round;stroke-miterlimit:10;" x1="179.9" y1="226.9" x2="194.5" y2="226.9"/>
	<line style="fill:none;stroke:#FFA05F;stroke-width:3;stroke-miterlimit:10;" x1="213.9" y1="212.3" x2="199.6" y2="239.8"/>
	<line style="fill:none;stroke:#3D3D3D;stroke-width:3;stroke-miterlimit:10;" x1="212.8" y1="214.4" x2="199.6" y2="239.8"/>
	<polygon style="fill:#686868;" points="198.2,239.1 197.7,242.5 200.8,240.5 	"/>
</g>
</svg>
