<?xml version="1.0" encoding="utf-8"?>
<!-- Generator: Adobe Illustrator 22.1.0, SVG Export Plug-In . SVG Version: 6.00 Build 0)  -->
<svg version="1.1" id="Layer_1" xmlns="http://www.w3.org/2000/svg" xmlns:xlink="http://www.w3.org/1999/xlink" x="0px" y="0px"
	 viewBox="0 0 256 256" style="enable-background:new 0 0 256 256;" xml:space="preserve">
<g style="opacity:0;">
	<path style="fill:#FFD473;" d="M207.4,251.6H46.9c0-15.1-5.3-37.4,2-45.2c4.4-4.7,9.2-8.3,14.5-11.1c9.6-5.1,21-7.6,35.1-10
		c0.5-0.1,1-0.2,1.4-0.3c4.5-1.4,7.7-5.5,7.7-10.4V166c-16.5-6.3-28.8-21.2-31.5-39.1c-6.9-1.6-12-7.8-12-15.2
		c0-6.3,3.8-11.8,9.2-14.2c2.9,0,6.1-0.3,9.3-1.1c20.9-5,45.5-15.7,65.5-33.1c5.3,16.6,15.5,29,27.8,32.7v0.2
		c7.6,1,13.5,7.5,13.5,15.5c0,8.2-6.3,14.9-14.3,15.5c-3.1,17.2-14.7,31.7-30.3,38.3v8.7c0,4.6,2.9,8.6,7,10.2
		c0.7,0.3,1.5,0.5,2.2,0.6c13.5,2,25.9,4.4,36.1,10.1c5.1,2.8,9.6,6.5,13.4,11.3C210,214.8,207.4,236.8,207.4,251.6z"/>
</g>
<g>
	<g>
		<g>
			<path style="fill:#4B4351;" d="M190,77v118.1c-10.2-5.7-22.6-8.1-36.1-10.1c-0.8-0.1-1.5-0.3-2.2-0.6c-4.1-1.6-7-5.6-7-10.2v-8.7
				c15.7-6.6,27.3-21.1,30.3-38.3c8-0.6,14.3-7.3,14.3-15.5c0-7.9-5.9-14.4-13.5-15.5v-0.2c-12.3-3.8-22.5-16.1-27.8-32.7
				c-20,17.4-44.6,28.1-65.5,33.1c-3.3,0.8-6.4,1.1-9.3,1.1c-5.4,2.4-9.2,7.9-9.2,14.2c0,7.4,5.1,13.6,12,15.2
				c2.8,18,15.1,32.8,31.5,39.1v8.6c0,4.8-3.2,9-7.7,10.4c-0.5,0.2-0.9,0.3-1.4,0.3c-14.1,2.3-25.5,4.9-35.1,10V77
				c0-35,28.3-63.3,63.3-63.3c17.5,0,33.3,7.1,44.8,18.5c0.4,0.4,0.8,0.8,1.1,1.2C183.4,44.7,190,60.1,190,77z"/>
		</g>
		<g>
			<circle style="fill:#0C0C0C;" cx="101.8" cy="108.2" r="5.8"/>
		</g>
		<g>
			<circle style="fill:#0C0C0C;" cx="151.9" cy="108.2" r="5.8"/>
		</g>
		<g style="opacity:0.1;">
			<path style="fill:#0C0C0C;" d="M126.8,141.5c-9.8,0-15.6-3-16-3.2c-0.8-0.4-1.1-1.4-0.7-2.2c0.4-0.8,1.4-1.1,2.2-0.7
				c0.2,0.1,12.5,6.2,31.2-0.1c0.9-0.3,1.8,0.2,2.1,1c0.3,0.9-0.2,1.8-1,2.1C137.7,140.7,131.7,141.5,126.8,141.5z"/>
		</g>
	</g>
	<path style="fill:#F9AC30;" d="M208.5,251.6H44.7c0-15.9-3.5-39.2,3.9-47.4c7.5-8.3,16-13.3,26.4-16.7c3.9-1.3,8.1-2.4,12.6-3.3
		c0,0,2.9,29.1,39.3,32.1c33.6-1.7,38.3-32.8,38.3-32.8c4.4,0.9,8.6,1.9,12.6,3.1c10.6,3.3,19.8,8.4,26.7,17.5
		C211.2,213,208.5,236,208.5,251.6z"/>
	<path style="fill:#F9AC30;" d="M189.9,74.6c0,2.4-0.2,4.8-0.5,7.1c-4-26.9-30.5-47.7-62.6-47.7c-32.1,0-58.6,20.8-62.6,47.7
		c-0.4-2.3-0.5-4.7-0.5-7.1c0-30.3,28.3-54.9,63.2-54.9C161.6,19.7,189.9,44.3,189.9,74.6z"/>
</g>
</svg>
