<?xml version="1.0" encoding="utf-8"?>
<!-- Generator: Adobe Illustrator 22.1.0, SVG Export Plug-In . SVG Version: 6.00 Build 0)  -->
<svg version="1.1" id="Layer_1" xmlns="http://www.w3.org/2000/svg" xmlns:xlink="http://www.w3.org/1999/xlink" x="0px" y="0px"
	 viewBox="0 0 256 256" style="enable-background:new 0 0 256 256;" xml:space="preserve">
<g style="opacity:0;">
	<path style="fill:#FFD473;" d="M204.5,251.6H49.8c0-14.6-5.1-36,1.9-43.5c4.2-4.6,8.9-8,14-10.7c9.3-4.9,20.3-7.4,33.8-9.6
		c0.5-0.1,0.9-0.2,1.4-0.3c4.4-1.3,7.4-5.3,7.4-10v-8.3c-15.9-6.1-27.7-20.4-30.4-37.7c-6.6-1.6-11.6-7.5-11.6-14.6
		c0-6.1,3.6-11.3,8.8-13.7c2.8,0,5.8-0.3,9-1.1c20.1-4.8,43.8-15.1,63.1-31.9c5.1,16,15,27.9,26.8,31.5v0.2c7.4,1,13,7.3,13,14.9
		c0,7.9-6.1,14.4-13.8,15c-3,16.6-14.1,30.5-29.2,36.9v8.4c0,4.4,2.8,8.3,6.7,9.8c0.7,0.3,1.4,0.4,2.2,0.6c13,1.9,25,4.2,34.8,9.8
		c4.9,2.7,9.2,6.2,12.9,10.9C207,216.1,204.5,237.3,204.5,251.6z"/>
</g>
<g>
	<g>
		<g>
			<path style="fill:#4B4351;" d="M187.7,83.3v113.9c-9.8-5.5-21.8-7.9-34.8-9.8c-0.7-0.1-1.5-0.3-2.2-0.6c-4-1.5-6.7-5.4-6.7-9.8
				v-8.4c15.1-6.4,26.3-20.3,29.2-36.9c7.7-0.6,13.8-7.1,13.8-15c0-7.6-5.7-13.9-13-14.9v-0.2c-11.9-3.6-21.7-15.5-26.8-31.5
				c-19.3,16.8-43,27.1-63.1,31.9c-3.1,0.8-6.2,1.1-9,1.1c-5.2,2.3-8.8,7.6-8.8,13.7c0,7.1,4.9,13.1,11.6,14.6
				c2.7,17.3,14.5,31.6,30.4,37.7v8.3c0,4.6-3.1,8.7-7.4,10c-0.4,0.2-0.9,0.3-1.4,0.3c-13.6,2.3-24.6,4.7-33.8,9.6V83.3
				c0-33.7,27.3-61,61-61c16.9,0,32.1,6.8,43.2,17.9c0.4,0.4,0.7,0.7,1.1,1.1C181.4,52.2,187.7,67,187.7,83.3z"/>
		</g>
		<g>
			<circle style="fill:#0C0C0C;" cx="102.7" cy="113.3" r="5.6"/>
		</g>
		<g>
			<circle style="fill:#0C0C0C;" cx="151" cy="113.3" r="5.6"/>
		</g>
		<g style="opacity:0.1;">
			<path style="fill:#0C0C0C;" d="M126.8,145.4c-9.4,0-15.1-2.9-15.4-3c-0.8-0.4-1.1-1.4-0.7-2.1c0.4-0.8,1.3-1.1,2.1-0.7
				c0.2,0.1,12,6,30.1-0.1c0.8-0.3,1.7,0.2,2,1c0.3,0.8-0.2,1.7-1,2C137.3,144.7,131.6,145.4,126.8,145.4z"/>
		</g>
	</g>
	<g>
		<path style="fill:#E8E8E8;" d="M205.2,251.3H48.7c0-15.2-3.3-37.4,3.7-45.2c7.1-8,15.3-12.7,25.2-15.9c3.8-1.2,7.8-2.3,12-3.2
			c1.1-0.2,2.1-0.5,3.2-0.8c2.3-0.6,4.6-1.3,7.2-1.7c0.5-0.1,1.1-0.3,1.6-0.4c5.1,10.7,24,15.5,24,15.5c0.1,0,21.6-2.1,25.6-15
			c0,0,0,0,0,0c0.1-0.1,0.2-0.3,0.2-0.4c0,0,0.1,0,0.1,0c0.7,0.2,1.3,0.4,2.1,0.5c2.5,0.4,4.9,0.8,7.3,1.2c1,0.2,1.9,0.4,2.9,0.5
			c4.2,0.8,8.2,1.8,12,3c10.1,3.2,18.9,8.1,25.5,16.7C207.7,214.5,205.2,236.4,205.2,251.3z"/>
		<polygon style="fill:#474747;" points="116.7,207.5 122.6,214.4 118.5,251.3 131.7,251.3 128.2,214.4 135,207.5 125.6,199.5 		"/>
		<path style="fill:#474747;" d="M205.2,251.3H48.7c0-15.2-3.3-37.4,3.7-45.2c7.1-8,15.3-12.7,25.2-15.9c3.8-1.2,7.8-2.3,12-3.2
			c1.1-0.2,6.2-1.5,6.7-1.6c-3.1,4.5,12.6,56.6,18.3,65.9H135c4.9-8.8,23.9-62.2,16.2-66.7c0,0,0,0,0,0c0.1-0.1,0.2-0.3,0.2-0.4
			c0,0,0.1,0,0.1,0c0.7,0.2,1.3,0.4,2.1,0.5c2.5,0.4,4.9,0.8,7.3,1.2c1,0.2,1.9,0.4,2.9,0.5c4.2,0.8,8.2,1.8,12,3
			c10.1,3.2,18.9,8.1,25.5,16.7C207.7,214.5,205.2,236.4,205.2,251.3z"/>
		<path style="fill:#F4F4F4;" d="M125.6,199.5l9.4,14.8c0,0,19.1-16.4,23.3-28.6l-11.5-2.9C148.1,185.3,138.2,197.1,125.6,199.5z"/>
		<path style="fill:#F4F4F4;" d="M125.6,199l-8.6,15.4c0,0-19.6-16.4-23.8-28.6l12.8-2.5C102,186,113,196.6,125.6,199z"/>
		<path style="fill:#666666;" d="M150.9,184.1c0,0-11.2,52.9-15.9,67.2l31.2-31.1l-12-10l12.9-2.4l-7.4-22.1L150.9,184.1z"/>
		<path style="fill:#666666;" d="M98.9,183.8c0,0,11.2,53.2,15.9,67.5l-30.7-30.7l12-10l-16-1l9.6-22.6L98.9,183.8z"/>
	</g>
	<g>
		<path style="fill:#474747;" d="M195.3,53.5l-6.4,9.4l-3.7,5.4c-39.2-18.3-78.7-18.4-118.3,0l-3.4-4.9l-7-10.3
			c-4.6-6.8-5.1-15.7-0.6-22.6c1.8-2.7,4.2-5,7.2-6.8c23.5-13.4,71.7-31.4,126,0.6c2.2,1.3,4,2.9,5.5,4.8
			C200.3,36.1,200.3,46.1,195.3,53.5z"/>
		<path style="fill:#2D2D2D;" d="M74.2,64.6c34.4-13.4,68.8-13.4,103.2,0c0,0-17.1,20.9-51.5,21.2S74.2,64.6,74.2,64.6z"/>
		<path style="fill:#FCD73D;" d="M188.8,62.9l-3.7,5.4c-39.2-18.3-78.7-18.4-118.3,0l-3.4-4.9c8.4-4.2,31-13.9,62.5-13.7
			C156.2,50,179.2,58.6,188.8,62.9z"/>
		<path style="fill:#FCD73D;" d="M111,25.4c0,0,14.1,4.5,29.1,0c0,0-9,12-14.7,12S111,25.4,111,25.4z"/>
	</g>
</g>
</svg>
