<?xml version="1.0" encoding="utf-8"?>
<!-- Generator: Adobe Illustrator 22.1.0, SVG Export Plug-In . SVG Version: 6.00 Build 0)  -->
<svg version="1.1" id="Layer_1" xmlns="http://www.w3.org/2000/svg" xmlns:xlink="http://www.w3.org/1999/xlink" x="0px" y="0px"
	 viewBox="0 0 256 256" style="enable-background:new 0 0 256 256;" xml:space="preserve">
<g>
	<path style="fill:#FFD473;" d="M205.7,251.6H51.7c0-14.5-5-35.9,1.9-43.5c4.2-4.6,8.7-7.9,14-10.7c9.3-4.8,20.2-7.3,33.7-9.5
		c0.5-0.1,0.9-0.1,1.3-0.4c4.4-1.3,7.4-5.3,7.4-9.9v-8.3c-15.8-6.1-27.6-20.3-30.3-37.6c-6.6-1.5-11.5-7.4-11.5-14.5
		c0-6.1,3.6-11.2,8.7-13.6c2.9,0,5.8-0.4,8.9-1.1c20.1-4.8,43.6-14.9,62.9-31.8c5,16,14.8,27.9,26.7,31.4v0.3c7.3,1,13,7.3,13,14.8
		c0,7.9-6.1,14.4-13.7,14.9c-2.9,16.5-14.1,30.4-29.1,36.7v8.4c0,4.5,2.8,8.3,6.7,9.8c0.8,0.3,1.3,0.5,2.1,0.5
		c13,1.9,24.8,4.2,34.6,9.8c4.8,2.8,9.1,6.2,12.8,10.8C208.2,216.2,205.7,237.3,205.7,251.6z"/>
</g>
<g style="opacity:0;">
	<g>
		<g>
			<path style="fill:#4B4351;" d="M189.1,84v113.4c-9.8-5.6-21.8-7.8-34.6-9.8c-0.8-0.1-1.5-0.3-2.1-0.5c-4-1.5-6.7-5.3-6.7-9.8
				v-8.4c15.1-6.3,26.2-20.2,29.1-36.7c7.7-0.7,13.7-7,13.7-14.9c0-7.5-5.7-13.9-13-14.8v-0.3c-11.8-3.6-21.7-15.5-26.7-31.4
				c-19.2,16.7-42.8,27-62.9,31.8c-3.1,0.7-6.2,1-8.9,1c-5.2,2.4-8.7,7.5-8.7,13.6c0,7,4.9,13,11.5,14.5
				c2.6,17.2,14.5,31.4,30.3,37.6v8.3c0,4.6-3.1,8.7-7.4,9.9c-0.5,0.1-0.9,0.3-1.3,0.4c-13.5,2.2-24.5,4.7-33.7,9.5V84
				c0-33.5,27.2-60.8,60.8-60.8c16.8,0,32,6.8,42.9,17.8c0.4,0.4,0.8,0.8,1.1,1.1C182.7,53,189.1,67.8,189.1,84z"/>
		</g>
		<g>
			<circle style="fill:#0C0C0C;" cx="104.5" cy="113.9" r="5.6"/>
		</g>
		<g>
			<circle style="fill:#0C0C0C;" cx="152.5" cy="113.9" r="5.6"/>
		</g>
		<g style="opacity:0.1;">
			<path style="fill:#0C0C0C;" d="M128.3,145.8c-9.4,0-14.9-2.9-15.3-2.9c-0.8-0.4-1.1-1.3-0.7-2.1c0.4-0.8,1.3-1.1,2.1-0.7
				c0.1,0.1,12,5.9,30-0.1c0.9-0.3,1.7,0.1,2,1s-0.1,1.7-1,2C138.9,145.2,133.2,145.8,128.3,145.8z"/>
		</g>
	</g>
	<g>
		<path style="fill:#31425B;" d="M206.5,251.9h-156c0-15.1-3.3-37.4,3.7-45.2c3.5-4,7.3-7.1,11.5-9.7c4.2-2.6,8.7-4.6,13.7-6.2
			c1.8-0.6,3.6-1.1,5.4-1.6c2.1-0.6,4.3-1.1,6.6-1.6c1.1-0.2,2.1-0.5,3.2-0.8c2.3-0.6,4.6-1.3,7.1-1.7c0.5-0.1,1.1-0.3,1.6-0.5
			c5.1,10.7,24,15.4,24,15.4c0.1,0,21.5-2.1,25.5-14.9c0,0,0,0,0,0c0.1-0.1,0.2-0.3,0.2-0.5c0,0,0.1,0,0.1,0
			c0.7,0.2,1.3,0.4,2.1,0.5c2.5,0.4,4.9,0.8,7.2,1.2c1,0.2,1.9,0.4,2.9,0.5c1.6,0.3,3.3,0.7,4.9,1c2.4,0.6,4.8,1.2,7.1,1.9
			c4.3,1.4,8.4,3,12.2,5.2c5,2.9,9.5,6.6,13.3,11.5C209.1,215.1,206.5,237.1,206.5,251.9z"/>
		<polygon style="fill:#5094B2;" points="118.4,208.1 124.2,215 120.1,251.8 133.3,251.8 129.8,215 136.6,208.1 127.2,200.2 		"/>
		<g>
			<path style="fill:#31425B;" d="M72.3,65.5h112.9c0,0-13.1,31.4-52.6,31.9C93,97.9,72.3,65.5,72.3,65.5z"/>
			<path style="fill:#31425B;" d="M67.4,63.9L52.3,36.1C77.8,24,102.8,6.2,128,6c25.3-0.2,50.9,17.1,75.8,30.1l-14.5,27L67.4,63.9z"
				/>
			<path style="fill:#EAC347;" d="M137.6,28.9c0,0-3.7,15.6-8.5,15.6s-9.1-15.6-9.1-15.6C119.9,32,137.5,32.3,137.6,28.9z"/>
			
				<line style="fill:none;stroke:#EAC347;stroke-width:10;stroke-linecap:round;stroke-linejoin:round;stroke-miterlimit:10;" x1="68.2" y1="65.5" x2="189.3" y2="65.5"/>
		</g>
		<path style="fill:#E8E8E8;" d="M127.2,200.2l17.3,14.5c0,0,6.4-17.2,10.6-29.4l-9.3-8.1C147.2,179.6,139.8,197.8,127.2,200.2z"/>
		<path style="fill:#E8E8E8;" d="M127.2,199.6L112,215.2c0,0-11.5-16-11.5-29.9l9.6-7.4C108.3,181.8,114.7,197.2,127.2,199.6z"/>
		<path style="opacity:0.3;fill:#4AA1D1;" d="M173.9,248.3h-16.5c-2.4,0-4.4-2-4.4-4.4V223h25.3v20.9
			C178.3,246.4,176.3,248.3,173.9,248.3z"/>
		<rect x="71.6" y="221.5" style="fill:#ADADAD;" width="28.1" height="7"/>
	</g>
</g>
</svg>
