<?xml version="1.0" encoding="utf-8"?>
<!-- Generator: Adobe Illustrator 22.1.0, SVG Export Plug-In . SVG Version: 6.00 Build 0)  -->
<svg version="1.1" id="Layer_1" xmlns="http://www.w3.org/2000/svg" xmlns:xlink="http://www.w3.org/1999/xlink" x="0px" y="0px"
	 viewBox="0 0 256 256" style="enable-background:new 0 0 256 256;" xml:space="preserve">
<g>
	<path style="fill:#FFD473;" d="M208.6,246.5H47.8c0-15.1-5.2-37.5,2-45.4c4.4-4.8,9.1-8.3,14.6-11.2c9.7-5,21.1-7.6,35.2-9.9
		c0.5-0.1,0.9-0.1,1.4-0.4c4.6-1.4,7.7-5.5,7.7-10.3v-8.7c-16.5-6.4-28.8-21.2-31.6-39.3c-6.9-1.6-12-7.7-12-15.1
		c0-6.4,3.8-11.7,9.1-14.2c3,0,6.1-0.4,9.3-1.1c21-5,45.5-15.6,65.7-33.2c5.2,16.7,15.5,29.1,27.9,32.8v0.3
		c7.6,1,13.6,7.6,13.6,15.5c0,8.3-6.4,15-14.3,15.6c-3,17.2-14.7,31.7-30.4,38.3v8.8c0,4.7,2.9,8.7,7,10.2c0.8,0.3,1.4,0.5,2.2,0.5
		c13.6,2,25.9,4.4,36.1,10.2c5,2.9,9.5,6.5,13.4,11.3C211.3,209.6,208.6,231.6,208.6,246.5z"/>
</g>
<g style="opacity:0;">
	<g>
		<g>
			<path style="fill:#4B4351;" d="M191.3,71.5v118.4c-10.2-5.8-22.8-8.1-36.1-10.2c-0.8-0.1-1.6-0.3-2.2-0.5c-4.2-1.6-7-5.5-7-10.2
				v-8.8c15.8-6.6,27.4-21.1,30.4-38.3c8-0.7,14.3-7.3,14.3-15.6c0-7.8-6-14.5-13.6-15.5v-0.3c-12.3-3.8-22.7-16.2-27.9-32.8
				c-20.1,17.4-44.7,28.2-65.7,33.2c-3.2,0.7-6.5,1-9.3,1c-5.4,2.5-9.1,7.8-9.1,14.2c0,7.3,5.1,13.6,12,15.1
				c2.7,18,15.1,32.8,31.6,39.3v8.7c0,4.8-3.2,9.1-7.7,10.3c-0.5,0.1-0.9,0.3-1.4,0.4c-14.1,2.3-25.6,4.9-35.2,9.9V71.5
				C64.5,36.5,92.9,8,128,8c17.5,0,33.4,7.1,44.8,18.6c0.4,0.4,0.8,0.8,1.1,1.1C184.6,39.1,191.3,54.6,191.3,71.5z"/>
		</g>
		<g>
			<circle style="fill:#0C0C0C;" cx="103" cy="102.7" r="5.8"/>
		</g>
		<g>
			<circle style="fill:#0C0C0C;" cx="153.1" cy="102.7" r="5.8"/>
		</g>
		<g style="opacity:0.1;">
			<path style="fill:#0C0C0C;" d="M127.8,136c-9.8,0-15.6-3-16-3c-0.8-0.4-1.1-1.4-0.7-2.2s1.4-1.1,2.2-0.7
				c0.1,0.1,12.5,6.2,31.3-0.1c0.9-0.3,1.8,0.1,2.1,1s-0.1,1.8-1,2.1C138.9,135.4,132.9,136,127.8,136z"/>
		</g>
	</g>
	<g>
		<path style="fill:#CCCCCC;" d="M209.7,247H47.9c0,0-5-37.4,2.9-49.5s51.8-19.8,51.8-19.8c2.1,17.6,25.1,17.5,25.1,17.5
			c26.5-1.8,26.4-17.3,26.5-17.5c0,0,2.1,0.6,2.2,0.6c0,0,5.5,0.9,13.9,3.4c2.8,0.8,5.9,1.9,9.3,3.1c3.5,1.3,7.2,2.8,11.1,4.6
			C215.8,201.1,209.7,247,209.7,247z"/>
		<path style="fill:#3A685A;" d="M185.1,226.5V247H68.9v-20.6l2-5.1c2.3-6.1,3.5-12.6,3.6-19.1l0.1-15.5v-1.4l0,0
			c1.1-0.4,2.2-0.8,3.3-1.2c1.4-0.4,2.8-0.9,4.2-1.3c0.1,0,0.2,0,0.2-0.1c0,0,0,0,0.1,0s0.3-0.1,0.4-0.1c0.3-0.1,0.5-0.1,0.8-0.2
			c0.1,0,0.2-0.1,0.3-0.1v14.8c0,22.9,18.5,41.4,41.4,41.4h3.6c22.9,0,41.4-18.5,41.4-41.4v-15.4c2.8,0.8,5.9,1.9,9.3,3.1v0.2
			l0.1,17.1c0,6.5,1.2,13,3.6,19.1L185.1,226.5z"/>
		<g>
			<g>
				<path style="fill:#898989;" d="M200.5,218.7l17.9-59.4l0,0c5.6,1.7,8.2,9.8,5.7,18l-10,39.1c-0.8,3.2-4.1,5.1-7.3,4.1
					L200.5,218.7z"/>
			</g>
			<g>
				
					<rect x="193.6" y="218.8" transform="matrix(0.2892 -0.9573 0.9573 0.2892 -68.2437 352.0271)" style="fill:#898989;" width="18.7" height="6.3"/>
			</g>
			<g>
				<path style="fill:#898989;" d="M176.4,222.3c3.8-4.7,10.2-6.9,16.3-5c8.1,2.4,12.6,11,10.2,19c-1.2,3.9-3.8,7.1-7.4,9
					c-3.6,1.9-7.7,2.3-11.6,1.2l0,0c-3.9-1.2-7.1-3.8-9-7.4c-1.9-3.6-2.3-7.7-1.2-11.6C174.2,225.5,175.2,223.8,176.4,222.3z
					 M195.5,237.7c0.7-0.9,1.3-2,1.7-3.1c1.5-4.9-1.3-10.1-6.2-11.5c-4.9-1.5-10.1,1.3-11.5,6.2c-0.7,2.4-0.5,4.9,0.7,7.1
					c1.2,2.2,3.1,3.8,5.5,4.5l0,0c2.4,0.7,4.9,0.5,7.1-0.7C193.8,239.4,194.7,238.6,195.5,237.7z"/>
			</g>
		</g>
		<g>
			<g>
				<path style="fill:#A5A5A5;" d="M215.8,218.1l-18.6-59.2l0,0c-5.6,1.8-8.1,9.9-5.5,18.1l10.1,37.9c1,3.8,5,6,8.7,4.8L215.8,218.1
					z"/>
			</g>
			<g>
				
					<rect x="210.3" y="211.9" transform="matrix(0.9541 -0.2996 0.2996 0.9541 -56.4931 74.1204)" style="fill:#A5A5A5;" width="6.3" height="18.7"/>
			</g>
			<g>
				<path style="fill:#A5A5A5;" d="M216.3,221.5c1.9-2.3,4.4-4,7.3-5c3.9-1.2,8-0.9,11.6,1s6.3,5.1,7.5,9s0.9,8-1,11.6
					s-5.1,6.3-9,7.5l0,0c-3.9,1.2-8,0.9-11.6-1s-6.3-5.1-7.5-9s-0.9-8,1-11.6C215.1,223.1,215.7,222.3,216.3,221.5z M235.4,236.9
					c0.4-0.5,0.7-1,1-1.5c1.1-2.2,1.4-4.7,0.6-7.1c-0.7-2.4-2.4-4.3-4.5-5.4c-2.2-1.1-4.7-1.4-7.1-0.6c-2.4,0.7-4.3,2.4-5.4,4.5
					c-1.1,2.2-1.4,4.7-0.6,7.1c0.7,2.4,2.4,4.3,4.5,5.4c2.2,1.1,4.7,1.4,7.1,0.6C232.7,239.4,234.2,238.3,235.4,236.9z"/>
			</g>
		</g>
		<g>
			<path style="fill:#D86F41;" d="M49.5,181.1v2.2H35.2v3.6h14.3v2.2H35.2v3.8h14.3v2.2H35.2v3.6h14.3v2.2H35.2v4.1h14.3v2.2H35.2
				v3.6h14.3v2.2H35.2v3.6h14.3v2.2H35.2v3.6h14.3v2.2H35.2v4.1h14.3v2.2H35.2v3.6h14.3v2.2H35.2v3.6h14.3v2.2H35.2v5.7h15.5
				c4.6,0,8.3-3.7,8.3-8.3v-55.2c0-4.6-3.7-8.3-8.3-8.3H35.2v5h14.3V181.1z"/>
		</g>
		<g>
			<circle style="fill:#262626;" cx="208.2" cy="212.4" r="2.2"/>
		</g>
	</g>
</g>
</svg>
