<?xml version="1.0" encoding="utf-8"?>
<!-- Generator: Adobe Illustrator 22.1.0, SVG Export Plug-In . SVG Version: 6.00 Build 0)  -->
<svg version="1.1" id="Layer_1" xmlns="http://www.w3.org/2000/svg" xmlns:xlink="http://www.w3.org/1999/xlink" x="0px" y="0px"
	 viewBox="0 0 256 256" style="enable-background:new 0 0 256 256;" xml:space="preserve">
<g>
	<path style="fill:#FFD473;" d="M208.3,251.6H46c0-15.3-5.4-37.8,2-45.7c4.4-4.8,9.3-8.4,14.7-11.2c9.7-5.1,21.3-7.7,35.5-10.1
		c0.5-0.1,1-0.2,1.4-0.4c4.6-1.4,7.8-5.6,7.8-10.5v-8.7c-16.7-6.4-29.1-21.4-31.9-39.6c-7-1.6-12.1-7.9-12.1-15.3
		c0-6.4,3.8-11.9,9.3-14.4c3,0,6.1-0.4,9.4-1.1c21.1-5,46-15.8,66.2-33.4c5.3,16.8,15.7,29.3,28.1,33.1v0.2
		c7.7,1,13.7,7.6,13.7,15.6c0,8.3-6.4,15.1-14.5,15.7c-3.1,17.4-14.8,32-30.7,38.7v8.8c0,4.6,2.9,8.7,7.1,10.3
		c0.7,0.3,1.5,0.5,2.3,0.6c13.7,2,26.2,4.4,36.5,10.3c5.1,2.9,9.7,6.5,13.5,11.4C210.9,214.4,208.3,236.6,208.3,251.6z"/>
</g>
<g style="opacity:0;">
	<g>
		<g>
			<path style="fill:#4B4351;" d="M190.7,75v119.5c-10.3-5.8-22.9-8.2-36.5-10.3c-0.8-0.1-1.5-0.3-2.3-0.6
				c-4.2-1.6-7.1-5.6-7.1-10.3v-8.8c15.9-6.7,27.6-21.3,30.7-38.7c8.1-0.6,14.5-7.4,14.5-15.7c0-8-6-14.6-13.7-15.6v-0.2
				c-12.4-3.8-22.8-16.3-28.1-33.1C128,78.8,103.1,89.6,82,94.7c-3.3,0.8-6.5,1.2-9.4,1.1c-5.5,2.5-9.3,8-9.3,14.4
				c0,7.5,5.2,13.7,12.1,15.3c2.8,18.2,15.2,33.1,31.9,39.6v8.7c0,4.9-3.2,9.1-7.8,10.5c-0.5,0.2-0.9,0.3-1.4,0.4
				c-14.2,2.4-25.8,5-35.5,10.1V75c0-35.4,28.7-64,64-64c17.7,0,33.7,7.2,45.3,18.7c0.4,0.4,0.8,0.8,1.2,1.2
				C184,42.4,190.7,57.9,190.7,75z"/>
		</g>
		<g>
			<circle style="fill:#0C0C0C;" cx="101.5" cy="106.6" r="5.8"/>
		</g>
		<g>
			<circle style="fill:#0C0C0C;" cx="152.2" cy="106.6" r="5.8"/>
		</g>
		<g style="opacity:0.1;">
			<path style="fill:#0C0C0C;" d="M126.8,140.3c-9.9,0-15.8-3-16.2-3.2c-0.8-0.4-1.1-1.4-0.7-2.2c0.4-0.8,1.4-1.1,2.2-0.7
				c0.2,0.1,12.6,6.3,31.6-0.1c0.9-0.3,1.8,0.2,2.1,1c0.3,0.9-0.2,1.8-1,2.1C137.9,139.5,131.8,140.3,126.8,140.3z"/>
		</g>
	</g>
	<path style="fill:#8BEA86;" d="M208.5,252.4H44.7c0-15.9-3.5-39.2,3.9-47.4c7.5-8.3,16-13.3,26.4-16.7c3.9-1.3,8.1-2.4,12.6-3.3
		c1.1-0.2,2.2-0.5,3.4-0.8c2.4-0.6,4.9-1.3,7.5-1.8c0.5-0.1,1.2-0.3,1.7-0.5c7.3,8.2,24.9,41.5,24.9,41.5c0.1,0,21.5-31.4,27.1-40.9
		c0,0,0,0,0,0c0.1-0.2,0.2-0.3,0.2-0.5c0,0,0.1,0,0.1,0c0.7,0.2,1.4,0.4,2.2,0.6c2.6,0.4,5.1,0.8,7.6,1.3c1,0.2,2,0.4,3,0.6
		c4.4,0.9,8.6,1.9,12.6,3.1c10.6,3.3,19.8,8.5,26.7,17.5C211.2,213.8,208.5,236.9,208.5,252.4z"/>
	<path style="fill:#474747;" d="M208.5,252.4H44.7c0-15.9-3.5-39.2,3.9-47.4c7.5-8.3,16-13.3,26.4-16.7c3.9-1.3,8.1-2.4,12.6-3.3
		c1.1-0.2,2.2-0.5,3.4-0.8c2.4-0.6,4.9-1.3,7.5-1.8c0.5-0.1,1.2-0.3,1.7-0.5c-0.7,26.9,1.8,51.5,11.8,70.5h25.8
		c3.5-1.8,16.5-61.5,14.3-70c0,0,0,0,0,0c0.1-0.2,0.2-0.3,0.2-0.5c0,0,0.1,0,0.1,0c0.7,0.2,1.4,0.4,2.2,0.6c2.6,0.4,5.1,0.8,7.6,1.3
		c1,0.2,2,0.4,3,0.6c4.4,0.9,8.6,1.9,12.6,3.1c10.6,3.3,19.8,8.5,26.7,17.5C211.2,213.8,208.5,236.9,208.5,252.4z"/>
	<path style="fill:#666666;" d="M148.5,181.2c0,0-4.3,56.4-10.5,71.3l23.3-26.2l-6.1-16.9l6.1,2.8l-5.4-29.6L148.5,181.2z"/>
	<path style="fill:#666666;" d="M101,182c0,0,4.6,55.6,10.8,70.5L88.3,227l6.1-16.9l-6.1,2.8l5.4-29.6L101,182z"/>
	<g>
		<path style="fill:#0C0C0C;" d="M107.1,118.5c-7.1,0.8-11,0.8-18-0.8c-1.1-0.3-2.1-1-2.6-2c-2.4-4.9-3.2-11.6-2.1-16.8
			c0.3-1.5,1.7-2.7,3.3-2.9c10-1,19.8-0.6,29.4,1.3c1.8,0.4,3,1.9,3,3.6c0,3.3-0.8,6.5-2,9.3C116.4,114.8,112.1,117.9,107.1,118.5z"
			/>
		<path style="fill:#0C0C0C;" d="M148.6,118.6c7.1,0.7,11,0.7,18-1c1.1-0.3,2.1-1,2.6-2c2.3-4.9,3.1-11.7,1.9-16.8
			c-0.3-1.5-1.7-2.7-3.3-2.8c-10-0.9-19.8-0.4-29.4,1.6c-1.7,0.4-3,1.9-3,3.6c0,3.3,0.9,6.5,2,9.3
			C139.3,114.9,143.5,118.1,148.6,118.6z"/>
		<g>
			<path style="fill:#0C0C0C;" d="M171.6,102c-0.7,0-1.4-0.3-1.8-1c-0.7-1-0.4-2.4,0.6-3.1l7.8-5.3c1-0.7,2.4-0.4,3.1,0.6
				c0.7,1,0.4,2.4-0.6,3.1l-7.8,5.3C172.5,101.9,172,102,171.6,102z"/>
		</g>
		<g>
			<path style="fill:#0C0C0C;" d="M83.9,102c-0.4,0-0.9-0.1-1.2-0.4l-7.8-5.3c-1-0.7-1.3-2.1-0.6-3.1c0.7-1,2.1-1.3,3.1-0.6l7.8,5.3
				c1,0.7,1.3,2.1,0.6,3.1C85.3,101.7,84.6,102,83.9,102z"/>
		</g>
		<g>
			<path style="fill:#0C0C0C;" d="M134.9,103.7c-0.2,0-0.4,0-0.6-0.1c-3.9-1.1-10.8-0.3-13,0.1c-1.2,0.2-2.3-0.6-2.5-1.8
				c-0.2-1.2,0.6-2.3,1.8-2.5c0.4-0.1,9.3-1.6,15,0.1c1.2,0.3,1.8,1.6,1.5,2.7C136.8,103.1,135.9,103.7,134.9,103.7z"/>
		</g>
	</g>
</g>
</svg>
