<?xml version="1.0" encoding="utf-8"?>
<!-- Generator: Adobe Illustrator 22.1.0, SVG Export Plug-In . SVG Version: 6.00 Build 0)  -->
<svg version="1.1" id="Layer_1" xmlns="http://www.w3.org/2000/svg" xmlns:xlink="http://www.w3.org/1999/xlink" x="0px" y="0px"
	 viewBox="0 0 256 256" style="enable-background:new 0 0 256 256;" xml:space="preserve">
<g>
	<path style="fill:#FFD473;" d="M195.8,251.7H58.2c0-13-4.5-32,1.7-38.7c3.8-4.1,7.9-7.1,12.4-9.5c8.3-4.4,18-6.6,30.1-8.6
		c0.4-0.1,0.8-0.2,1.2-0.3c3.9-1.2,6.6-4.7,6.6-8.9v-7.4c-14.1-5.4-24.7-18.1-27.1-33.5c-5.9-1.4-10.3-6.7-10.3-13
		c0-5.4,3.2-10.1,7.9-12.2c2.5,0,5.2-0.3,8-1c17.9-4.3,39-13.4,56.1-28.4c4.5,14.2,13.3,24.8,23.9,28.1v0.2
		c6.5,0.9,11.6,6.5,11.6,13.2c0,7-5.4,12.8-12.3,13.3c-2.6,14.8-12.6,27.2-26,32.8v7.5c0,3.9,2.5,7.4,6,8.7c0.6,0.2,1.3,0.4,1.9,0.5
		c11.6,1.7,22.2,3.8,31,8.7c4.3,2.4,8.2,5.6,11.5,9.7C198.1,220.2,195.8,239,195.8,251.7z"/>
</g>
<g style="opacity:0;">
	<g>
		<g>
			<path style="fill:#4B4351;" d="M180.9,102v101.3c-8.7-4.9-19.4-7-31-8.7c-0.7-0.1-1.3-0.3-1.9-0.5c-3.5-1.3-6-4.8-6-8.7V178
				c13.4-5.7,23.4-18.1,26-32.8c6.9-0.5,12.3-6.3,12.3-13.3c0-6.8-5.1-12.4-11.6-13.2v-0.2c-10.5-3.2-19.3-13.8-23.9-28.1
				c-17.1,14.9-38.2,24.1-56.1,28.4c-2.8,0.7-5.5,1-8,1c-4.6,2.1-7.9,6.8-7.9,12.2c0,6.3,4.4,11.6,10.3,13
				c2.4,15.4,12.9,28.1,27.1,33.5v7.4c0,4.1-2.7,7.7-6.6,8.9c-0.4,0.1-0.8,0.2-1.2,0.3c-12.1,2-21.9,4.2-30.1,8.6V102
				c0-30,24.3-54.3,54.3-54.3c15,0,28.6,6.1,38.4,15.9c0.3,0.3,0.7,0.7,1,1C175.3,74.4,180.9,87.5,180.9,102z"/>
		</g>
		<g>
			<circle style="fill:#0C0C0C;" cx="105.3" cy="128.8" r="4.9"/>
		</g>
		<g>
			<circle style="fill:#0C0C0C;" cx="148.2" cy="128.8" r="4.9"/>
		</g>
		<g style="opacity:0.1;">
			<path style="fill:#0C0C0C;" d="M126.7,157.3c-8.4,0-13.4-2.5-13.7-2.7c-0.7-0.4-1-1.2-0.6-1.9c0.4-0.7,1.2-0.9,1.9-0.6
				c0.1,0.1,10.7,5.3,26.8-0.1c0.7-0.2,1.5,0.2,1.8,0.9c0.2,0.7-0.1,1.5-0.9,1.8C136.1,156.7,131,157.3,126.7,157.3z"/>
		</g>
	</g>
	<g>
		<path style="fill:#FCF5E8;" d="M195.7,251H57.1c0-13.4-2.9-33.2,3.3-40.1c6.3-7.1,13.5-11.2,22.4-14.1c3.3-1.1,6.9-2,10.7-2.8
			c0.9-0.2,1.9-0.4,2.8-0.7c2-0.5,4.1-1.1,6.3-1.5c0.4-0.1,1-0.3,1.4-0.4c6.2,7,22.7,8.5,22.7,8.5c0.1,0,16.5,0,21.2-8c0,0,0,0,0,0
			c0.1-0.1,0.1-0.3,0.2-0.4c0,0,0.1,0,0.1,0c0.6,0.2,1.2,0.4,1.8,0.5c2.2,0.3,4.3,0.7,6.4,1.1c0.9,0.2,1.7,0.3,2.6,0.5
			c3.7,0.7,7.3,1.6,10.7,2.6c9,2.8,16.7,7.1,22.6,14.8C197.9,218.3,195.7,237.8,195.7,251z"/>
		<path style="fill:#302B23;" d="M66.4,70.7L69,92.2c0.3,2.4,2.6,3.9,4.9,3.3c13.2-3.8,55-13.4,106.5,0.1c2.4,0.6,4.7-1.1,4.8-3.6
			l2.2-61.1L66.4,70.7z"/>
		<path style="fill:#4C4535;" d="M202.3,41.8c4,24.4-39.8,34.2-68,36.7c-39.6,3.5-84,9.5-86.9-8.2c-2.9-17.7,33.8-41.6,70.4-52.5
			C144.5,9.8,197.5,12.8,202.3,41.8z"/>
		<circle style="fill:#4C4535;" cx="115.6" cy="19.2" r="9.2"/>
		<path style="fill:#64A549;" d="M156.5,192.9c-1.9,4.9-7.8,8.7-17.1,9.4c-3.9,0.3-8.7,2.7-13.1,2.7c-14.8,0-27.1-5-30-11.8
			c0,0,9.3-5.5,12.3-3.5c0,0,0,0,0,0c0.8,4.9,8.2,7.3,16.9,8.7c5.3,0.9,10.9,1,14-1.3c2.2-1.6,3-6.2,3-8.4c0-0.3,0-0.6-0.1-0.9
			C148.8,186.6,156.5,191.4,156.5,192.9z"/>
		<path style="fill:#64A549;" d="M131.8,201.6c0,0,0.1,0.4,0.3,1.2c0.4,1.8,1.1,5.2,0.8,8.8c-0.4,5,1.6,10.6,2.1,9.5
			c0.5-1.1,6.4-11.3,1.1-18.6C136.2,202.4,134.2,200.5,131.8,201.6z"/>
		<path style="fill:#64A549;" d="M135.1,201.9c0,0,0.4,0.3,0.9,0.8c1.3,1.3,3.7,3.8,5.3,7c2.3,4.5,6.9,8.1,6.8,7
			c-0.1-1.2-0.5-13-8.8-16.4C139.3,200.3,136.6,199.8,135.1,201.9z"/>
		<path style="fill:#75B259;" d="M138.6,202.9c-1.4,0.6-2.8,1-4.3,1.3c-1,0.2-1.9-0.3-2.2-1.1l-0.8-2.7c-0.2-0.8,0.4-1.8,1.4-2.1
			c1.3-0.4,2.7-0.8,4-1.2c1.1-0.3,2.1,0.2,2.3,1l0.8,2.7C140.1,201.6,139.6,202.5,138.6,202.9z"/>
		<g>
			<path style="fill:#D6D6D6;" d="M168.8,248.3c-0.6,0-1.3-0.2-1.8-0.5c-1.7-1-2.3-3.2-1.2-5c12-21.3,25-46.8,30.8-52
				c1-1.7,3.2-2.3,4.9-1.3c1.7,1,2.3,3.2,1.2,5c-2.5,10.2-17.6,31.5-30.8,52C171.2,247.7,170,248.3,168.8,248.3z"/>
		</g>
		<path style="fill:#72C8ED;" d="M203.2,196.6c0,0-6.9,0.6-9-5.2c0,0-4.8-14.2,9-18.4c13.8-4.2,14.6-6.9,14.6-6.9
			s-0.1,13.6-0.9,17.8S208.9,196.9,203.2,196.6z"/>
	</g>
</g>
</svg>
