<?xml version="1.0" encoding="utf-8"?>
<!-- Generator: Adobe Illustrator 22.1.0, SVG Export Plug-In . SVG Version: 6.00 Build 0)  -->
<svg version="1.1" id="Layer_1" xmlns="http://www.w3.org/2000/svg" xmlns:xlink="http://www.w3.org/1999/xlink" x="0px" y="0px"
	 viewBox="0 0 256 256" style="enable-background:new 0 0 256 256;" xml:space="preserve">
<g style="opacity:0;">
	<path style="fill:#FFD473;" d="M209.4,251.6H47.4c0-15.2-5.3-37.7,2-45.7c4.4-4.8,9.2-8.3,14.7-11.2c9.8-5.1,21.2-7.7,35.4-10
		c0.5-0.1,0.9-0.1,1.4-0.4c4.6-1.4,7.8-5.6,7.8-10.4v-8.7c-16.6-6.4-29-21.3-31.9-39.5c-6.9-1.6-12.1-7.8-12.1-15.3
		c0-6.4,3.8-11.8,9.2-14.3c3,0,6.1-0.4,9.4-1.2c21.1-5.1,45.9-15.7,66.1-33.4c5.3,16.8,15.6,29.3,28.1,33v0.3
		c7.7,1,13.7,7.7,13.7,15.6c0,8.3-6.4,15.1-14.4,15.7c-3.1,17.4-14.8,32-30.6,38.6v8.8c0,4.7,2.9,8.7,7,10.3
		c0.8,0.3,1.4,0.5,2.2,0.5c13.7,2,26.1,4.4,36.4,10.3c5.1,2.9,9.6,6.5,13.5,11.4C212,214.4,209.4,236.6,209.4,251.6z"/>
</g>
<g>
	<g>
		<g>
			<path style="fill:#4B4351;" d="M191.9,75.4v119.3c-10.3-5.9-22.9-8.2-36.4-10.3c-0.8-0.1-1.6-0.3-2.2-0.5c-4.2-1.6-7-5.6-7-10.3
				v-8.8c15.9-6.6,27.6-21.2,30.6-38.6c8.1-0.7,14.4-7.4,14.4-15.7c0-7.9-6-14.6-13.7-15.6v-0.3c-12.4-3.8-22.8-16.3-28.1-33
				c-20.2,17.6-45,28.4-66.1,33.4C80.1,95.7,76.9,96,74,96c-5.5,2.5-9.2,7.9-9.2,14.3c0,7.4,5.2,13.7,12.1,15.3
				c2.7,18.1,15.2,33,31.9,39.5v8.7c0,4.8-3.3,9.1-7.8,10.4c-0.5,0.1-0.9,0.3-1.4,0.4c-14.2,2.3-25.8,4.9-35.4,10V75.4
				c0-35.2,28.6-63.9,63.9-63.9c17.7,0,33.7,7.2,45.1,18.7c0.4,0.4,0.8,0.8,1.2,1.2C185.2,42.8,191.9,58.3,191.9,75.4z"/>
		</g>
		<g>
			<circle style="fill:#0C0C0C;" cx="102.9" cy="106.8" r="5.9"/>
		</g>
		<g>
			<circle style="fill:#0C0C0C;" cx="153.4" cy="106.8" r="5.9"/>
		</g>
		<g style="opacity:0.1;">
			<path style="fill:#0C0C0C;" d="M128,140.4c-9.9,0-15.7-3-16.1-3.1c-0.8-0.4-1.2-1.4-0.7-2.2c0.4-0.8,1.4-1.2,2.2-0.7
				c0.1,0.1,12.6,6.2,31.5-0.1c0.9-0.3,1.8,0.1,2.1,1c0.3,0.9-0.1,1.8-1,2.1C139.1,139.7,133.1,140.4,128,140.4z"/>
		</g>
	</g>
	<path style="fill:#E8E8E8;" d="M210.6,251.7H45.7c0-16-3.5-39.5,3.9-47.8c7.5-8.4,16.1-13.3,26.6-16.8c4-1.3,8.2-2.4,12.7-3.4
		c1.1-0.2,2.2-0.5,3.4-0.8c2.4-0.6,4.9-1.3,7.5-1.8c0.5-0.1,1.2-0.3,1.7-0.5c5.4,11.3,25.3,16.3,25.3,16.3c0.1,0,22.7-2.2,26.9-15.8
		c0,0,0,0,0,0c0.1-0.2,0.2-0.3,0.2-0.5c0,0,0.1,0,0.1,0c0.7,0.2,1.4,0.4,2.2,0.6c2.6,0.4,5.1,0.8,7.7,1.3c1,0.2,2,0.4,3,0.6
		c4.4,0.9,8.6,1.9,12.7,3.1c10.7,3.3,19.9,8.5,26.9,17.6C213.3,212.7,210.6,236,210.6,251.7z"/>
	<path style="fill:#364456;" d="M210.6,251.7H45.7c0-16-3.5-39.5,3.9-47.8c7.5-8.4,16.1-13.3,26.6-16.8c4-1.3,8.2-2.4,12.7-3.4
		c1.1-0.2,6.6-1.6,7-1.7c-3.3,4.8,13.3,59.8,19.3,69.6h21.5c5.1-9.2,25.2-65.7,17.1-70.5c0,0,0,0,0,0c0.1-0.2,0.2-0.3,0.2-0.5
		c0,0,0.1,0,0.1,0c0.7,0.2,1.4,0.4,2.2,0.6c2.6,0.4,5.1,0.8,7.7,1.3c1,0.2,2,0.4,3,0.6c4.4,0.9,8.6,1.9,12.7,3.1
		c10.7,3.3,19.9,8.5,26.9,17.6C213.3,212.7,210.6,236,210.6,251.7z"/>
	<polygon style="fill:#66BFE2;" points="117.4,205.3 123.6,212.6 119.2,251.7 133.2,251.7 129.5,212.6 136.6,205.3 126.8,196.9 	"/>
	<path style="fill:#F4F4F4;" d="M126.8,196.9l9.9,15.6c0,0,20.1-17.3,24.5-30.1l-12.2-3.1C150.5,181.9,140,194.4,126.8,196.9z"/>
	<path style="fill:#F4F4F4;" d="M126.8,196.4l-9.1,16.2c0,0-20.7-17.3-25.1-30.1l13.5-2.6C101.9,182.7,113.5,193.8,126.8,196.4z"/>
	<path style="fill:#25323F;" d="M153.5,180.7c0,0-11.8,56-16.8,71l32.9-33l-12.6-10.5l13.6-2.6l-7.8-23.3L153.5,180.7z"/>
	<path style="fill:#25323F;" d="M98.6,180.4c0,0,11.8,56.2,16.8,71.3l-32.3-32.6l12.6-10.5l-16.9-1l10.1-23.8L98.6,180.4z"/>
</g>
</svg>
