<?xml version="1.0" encoding="utf-8"?>
<!-- Generator: Adobe Illustrator 22.1.0, SVG Export Plug-In . SVG Version: 6.00 Build 0)  -->
<svg version="1.1" id="Layer_1" xmlns="http://www.w3.org/2000/svg" xmlns:xlink="http://www.w3.org/1999/xlink" x="0px" y="0px"
	 viewBox="0 0 256 256" style="enable-background:new 0 0 256 256;" xml:space="preserve">
<g style="opacity:0;">
	<path style="fill:#FFD473;" d="M209.4,251.6H47.4c0-15.2-5.3-37.7,2-45.7c4.4-4.8,9.2-8.3,14.7-11.2c9.8-5.1,21.2-7.7,35.4-10
		c0.5-0.1,0.9-0.1,1.4-0.4c4.6-1.4,7.8-5.6,7.8-10.4v-8.7c-16.6-6.4-29-21.3-31.9-39.5c-6.9-1.6-12.1-7.8-12.1-15.3
		c0-6.4,3.8-11.8,9.2-14.3c3,0,6.1-0.4,9.4-1.2c21.1-5.1,45.9-15.7,66.1-33.4c5.3,16.8,15.6,29.3,28.1,33v0.3
		c7.7,1,13.7,7.7,13.7,15.6c0,8.3-6.4,15.1-14.4,15.7c-3.1,17.4-14.8,32-30.6,38.6v8.8c0,4.7,2.9,8.7,7,10.3
		c0.8,0.3,1.4,0.5,2.2,0.5c13.7,2,26.1,4.4,36.4,10.3c5.1,2.9,9.6,6.5,13.5,11.4C212,214.4,209.4,236.6,209.4,251.6z"/>
</g>
<g>
	<g>
		<g>
			<path style="fill:#4B4351;" d="M191.9,75.4v119.3c-10.3-5.9-22.9-8.2-36.4-10.3c-0.8-0.1-1.6-0.3-2.2-0.5c-4.2-1.6-7-5.6-7-10.3
				v-8.8c15.9-6.6,27.6-21.2,30.6-38.6c8.1-0.7,14.4-7.4,14.4-15.7c0-7.9-6-14.6-13.7-15.6v-0.3c-12.4-3.8-22.8-16.3-28.1-33
				c-20.2,17.6-45,28.4-66.1,33.4C80.1,95.7,76.9,96,74,96c-5.5,2.5-9.2,7.9-9.2,14.3c0,7.4,5.2,13.7,12.1,15.3
				c2.7,18.1,15.2,33,31.9,39.5v8.7c0,4.8-3.3,9.1-7.8,10.4c-0.5,0.1-0.9,0.3-1.4,0.4c-14.2,2.3-25.8,4.9-35.4,10V75.4
				c0-35.2,28.6-63.9,63.9-63.9c17.7,0,33.7,7.2,45.1,18.7c0.4,0.4,0.8,0.8,1.2,1.2C185.2,42.8,191.9,58.3,191.9,75.4z"/>
		</g>
		<g>
			<circle style="fill:#0C0C0C;" cx="102.9" cy="106.8" r="5.9"/>
		</g>
		<g>
			<circle style="fill:#0C0C0C;" cx="153.4" cy="106.8" r="5.9"/>
		</g>
		<g style="opacity:0.1;">
			<path style="fill:#0C0C0C;" d="M128,140.4c-9.9,0-15.7-3-16.1-3.1c-0.8-0.4-1.2-1.4-0.7-2.2c0.4-0.8,1.4-1.2,2.2-0.7
				c0.1,0.1,12.6,6.2,31.5-0.1c0.9-0.3,1.8,0.1,2.1,1c0.3,0.9-0.1,1.8-1,2.1C139.1,139.7,133.1,140.4,128,140.4z"/>
		</g>
	</g>
	<g>
		<path style="fill:#E8E8E8;" d="M211.6,251.6H46c0-16.1-3.5-39.8,3.9-48.1c7.5-8.4,16.2-13.4,26.7-16.8c4-1.3,8.2-2.4,12.7-3.4
			c1.1-0.3,2.2-0.5,3.4-0.8c2.4-0.6,4.9-1.3,7.6-1.8c0.5-0.1,1.2-0.3,1.7-0.5c5.4,11.3,25.4,16.4,25.4,16.4
			c0.1,0,22.8-2.2,27.1-15.8c0,0,0,0,0,0c0.1-0.2,0.2-0.3,0.3-0.5c0,0,0.1,0,0.1,0c0.7,0.3,1.4,0.4,2.2,0.6c2.6,0.4,5.2,0.8,7.7,1.3
			c1,0.2,2,0.4,3.1,0.6c4.4,0.9,8.7,1.9,12.7,3.1c10.7,3.4,20,8.5,27,17.7C214.3,212.4,211.6,235.9,211.6,251.6z"/>
		<path style="fill:#C46C1E;" d="M211.6,251.6H46c0-16.1-3.5-39.8,3.9-48.1c7.5-8.4,16.2-13.4,26.7-16.8c4-1.3,8.2-2.4,12.7-3.4
			c1.1-0.3,6.6-1.6,7.1-1.7c-3.3,4.8,13.4,60.1,19.3,70h21.6c5.2-9.3,25.3-66.1,17.1-70.9c0,0,0,0,0,0c0.1-0.2,0.2-0.3,0.3-0.5
			c0,0,0.1,0,0.1,0c0.7,0.3,1.4,0.4,2.2,0.6c2.6,0.4,5.2,0.8,7.7,1.3c1,0.2,2,0.4,3.1,0.6c4.4,0.9,8.7,1.9,12.7,3.1
			c10.7,3.4,20,8.5,27,17.7C214.3,212.4,211.6,235.9,211.6,251.6z"/>
		<path style="fill:#DD792F;" d="M154.2,180.2c0,0-11.9,56.3-16.9,71.4l33-33.2l-6.8-8.2l14.3-6l-14.3-22.4L154.2,180.2z"/>
		<path style="fill:#DD792F;" d="M99.2,179.9c0,0,11.8,56.5,16.8,71.7l-32.5-32.8l6.2-8.6l-13.9-4.4l13.6-22.5L99.2,179.9z"/>
		<line style="fill:none;stroke:#333333;stroke-width:3;stroke-miterlimit:10;" x1="208.8" y1="234.9" x2="208.8" y2="251.6"/>
		<polygon style="fill:#565656;" points="213.6,239.7 203.9,239.7 197.8,186.5 219.7,186.5 		"/>
		<circle style="fill:#BCBCBC;" cx="208.8" cy="169.7" r="20.7"/>
		<g>
			<defs>
				<circle id="SVGID_1_" cx="208.8" cy="169.7" r="20.7"/>
			</defs>
			<clipPath id="SVGID_2_">
				<use xlink:href="#SVGID_1_"  style="overflow:visible;"/>
			</clipPath>
			<g style="clip-path:url(#SVGID_2_);">
				<line style="fill:none;stroke:#A5A5A5;stroke-width:2;stroke-miterlimit:10;" x1="205.8" y1="144.5" x2="234.9" y2="176.2"/>
				<line style="fill:none;stroke:#A5A5A5;stroke-width:2;stroke-miterlimit:10;" x1="207.9" y1="148.5" x2="178.7" y2="180.2"/>
				<line style="fill:none;stroke:#A5A5A5;stroke-width:2;stroke-miterlimit:10;" x1="217.2" y1="149.8" x2="188.1" y2="181.5"/>
				<line style="fill:none;stroke:#A5A5A5;stroke-width:2;stroke-miterlimit:10;" x1="224.3" y1="154.8" x2="195.2" y2="186.5"/>
				<line style="fill:none;stroke:#A5A5A5;stroke-width:2;stroke-miterlimit:10;" x1="230.1" y1="159.7" x2="200.9" y2="191.4"/>
				<line style="fill:none;stroke:#A5A5A5;stroke-width:2;stroke-miterlimit:10;" x1="235.7" y1="164.4" x2="206.5" y2="196.1"/>
				<line style="fill:none;stroke:#A5A5A5;stroke-width:2;stroke-miterlimit:10;" x1="198.7" y1="150.6" x2="227.9" y2="182.3"/>
				<line style="fill:none;stroke:#A5A5A5;stroke-width:2;stroke-miterlimit:10;" x1="191.2" y1="155.9" x2="220.3" y2="187.6"/>
				<line style="fill:none;stroke:#A5A5A5;stroke-width:2;stroke-miterlimit:10;" x1="184.2" y1="162.8" x2="213.3" y2="194.5"/>
			</g>
		</g>
	</g>
</g>
</svg>
