<?xml version="1.0" encoding="utf-8"?>
<!-- Generator: Adobe Illustrator 22.1.0, SVG Export Plug-In . SVG Version: 6.00 Build 0)  -->
<svg version="1.1" id="Layer_1" xmlns="http://www.w3.org/2000/svg" xmlns:xlink="http://www.w3.org/1999/xlink" x="0px" y="0px"
	 viewBox="0 0 256 256" style="enable-background:new 0 0 256 256;" xml:space="preserve">
<g>
	<path style="fill:#FFD473;" d="M188.5,251.7H66.8c0-11.5-4-28.3,1.5-34.2c3.3-3.6,7-6.3,11-8.4c7.3-3.8,15.9-5.8,26.6-7.6
		c0.4-0.1,0.7-0.1,1.1-0.3c3.4-1,5.8-4.2,5.8-7.8v-6.5c-12.5-4.8-21.8-16-23.9-29.7c-5.2-1.2-9.1-5.9-9.1-11.5c0-4.8,2.9-8.9,7-10.8
		c2.2,0,4.6-0.3,7.1-0.9c15.8-3.8,34.5-11.9,49.6-25.1c4,12.6,11.8,22,21.1,24.8v0.2c5.8,0.8,10.3,5.7,10.3,11.7
		c0,6.2-4.8,11.3-10.9,11.8c-2.3,13-11.1,24-23,29v6.6c0,3.5,2.2,6.5,5.3,7.7c0.5,0.2,1.1,0.4,1.7,0.4c10.2,1.5,19.7,3.3,27.4,7.7
		c3.8,2.1,7.2,4.9,10.1,8.6C190.5,223.8,188.5,240.5,188.5,251.7z"/>
</g>
<g style="opacity:0;">
	<g>
		<g>
			<path style="fill:#4B4351;" d="M175.3,119.4v89.6c-7.7-4.4-17.2-6.2-27.4-7.7c-0.6-0.1-1.2-0.2-1.7-0.4c-3.1-1.2-5.3-4.2-5.3-7.7
				v-6.6c11.9-5,20.7-16,23-29c6.1-0.5,10.9-5.6,10.9-11.8c0-6-4.5-11-10.3-11.7v-0.2c-9.3-2.9-17.1-12.2-21.1-24.8
				c-15.2,13.2-33.8,21.3-49.6,25.1c-2.5,0.6-4.8,0.9-7.1,0.9c-4.1,1.8-7,6-7,10.8c0,5.6,3.9,10.3,9.1,11.5
				c2.1,13.6,11.4,24.8,23.9,29.7v6.5c0,3.7-2.4,6.8-5.8,7.8c-0.3,0.1-0.7,0.2-1.1,0.3c-10.7,1.8-19.3,3.7-26.6,7.6v-89.7
				c0-26.5,21.5-48,48-48c13.3,0,25.3,5.4,33.9,14.1c0.3,0.3,0.6,0.6,0.9,0.9C170.3,94.9,175.3,106.5,175.3,119.4z"/>
		</g>
		<g>
			<circle style="fill:#0C0C0C;" cx="108.5" cy="143" r="4.4"/>
		</g>
		<g>
			<circle style="fill:#0C0C0C;" cx="146.4" cy="143" r="4.4"/>
		</g>
		<g style="opacity:0.1;">
			<path style="fill:#0C0C0C;" d="M127.4,168.3c-7.4,0-11.9-2.2-12.1-2.4c-0.6-0.3-0.8-1.1-0.5-1.7c0.3-0.6,1.1-0.8,1.7-0.5
				c0.1,0.1,9.4,4.7,23.7-0.1c0.6-0.2,1.3,0.1,1.6,0.8c0.2,0.6-0.1,1.3-0.8,1.6C135.7,167.7,131.2,168.3,127.4,168.3z"/>
		</g>
	</g>
	<g>
		<path style="fill:#F7F7F7;" d="M193.3,49.4c0,13.7-9.4,25.1-22.1,28.3l5.9,38.5H78.7l5.9-38.5c-12.7-3.2-22.1-14.6-22.1-28.3
			c0-16.1,13.1-29.2,29.2-29.2c5.4,0,10.5,1.5,14.8,4C108.1,13.9,117.1,6,127.9,6c10.8,0,19.8,7.9,21.4,18.2c4.3-2.6,9.4-4,14.8-4
			C180.2,20.2,193.3,33.3,193.3,49.4z"/>
		<path style="fill:#333333;" d="M129.2,208.4v-4.6c0,0,13.6-0.8,17.1-4.5C146.3,199.3,142.1,209.7,129.2,208.4z"/>
		<path style="fill:#333333;" d="M124.4,208.4v-4.6c0,0-13.6-0.8-17.1-4.5C107.4,199.3,111.5,209.7,124.4,208.4z"/>
		<path style="fill:#F7F7F7;" d="M188.2,251.9H66.1c0-11.8-2.6-29.2,2.9-35.4c5.6-6.2,11.9-9.9,19.7-12.4c2.9-1,6.1-1.8,9.4-2.5
			c2.6-0.6,5.2-1.4,8.1-1.9c0.4-0.1,0.9-0.2,1.2-0.3c5.4,6.1,20,7.5,20,7.5s15.1,0,18.9-7.5c0.5,0.2,1.1,0.4,1.7,0.5
			c2.7,0.4,5.4,0.9,7.9,1.4c3.3,0.6,6.4,1.4,9.4,2.3c7.9,2.5,14.7,6.3,19.9,13.1C190.2,223.1,188.2,240.3,188.2,251.9z"/>
	</g>
</g>
</svg>
