<?xml version="1.0" encoding="utf-8"?>
<!-- Generator: Adobe Illustrator 22.1.0, SVG Export Plug-In . SVG Version: 6.00 Build 0)  -->
<svg version="1.1" id="Layer_1" xmlns="http://www.w3.org/2000/svg" xmlns:xlink="http://www.w3.org/1999/xlink" x="0px" y="0px"
	 viewBox="0 0 256 256" style="enable-background:new 0 0 256 256;" xml:space="preserve">
<g style="opacity:0;">
	<path style="fill:#FFD473;" d="M187.9,117.4c0,7.9-6,14.3-13.7,14.9c-3,16.5-14.1,30.4-29,36.7v8.1c-5.6,1.2-11.5,1.9-17.5,1.9
		c-6.2,0-12.2-0.7-18-2c0,0-0.1,0-0.1,0v-7.4c-15.8-6-27.5-20.3-30.3-37.5c-6.5-1.5-11.5-7.4-11.5-14.6c0-6,3.6-11.2,8.8-13.6
		c2.8,0,5.8-0.4,8.9-1.1c20-4.8,43.6-14.9,62.7-31.7c5.1,15.9,14.8,27.8,26.7,31.4v0.3C182.2,103.5,187.9,109.8,187.9,117.4z"/>
</g>
<g>
	<g>
		<path style="fill:#4B4351;" d="M188.6,84.1v66.9c-11.1,12.8-26.2,22.1-43.3,26v-8c15.1-6.3,26.2-20.1,29-36.7
			c7.7-0.6,13.7-7,13.7-14.9c0-7.5-5.7-13.8-13-14.8v-0.3c-11.7-3.6-21.6-15.4-26.7-31.4c-19.2,16.7-42.7,26.9-62.8,31.7
			c-3.1,0.7-6.2,1.1-8.9,1.1c-5.2,2.3-8.8,7.5-8.8,13.6c0,7,4.9,13,11.5,14.6c2.6,17.2,14.5,31.4,30.3,37.5v7.5
			c-16.8-3.9-31.5-13-42.4-25.7V84.1c0-7.1,1.2-13.9,3.4-20.2c14.6-7.1,34.7-10.3,56.8-10.3c22.6,0,43.1,3.2,57.8,10.6
			C187.5,70.5,188.6,77.2,188.6,84.1z"/>
		<g>
			<circle style="fill:#0C0C0C;" cx="104.1" cy="114" r="5.6"/>
		</g>
		<g>
			<circle style="fill:#0C0C0C;" cx="152.1" cy="114" r="5.6"/>
		</g>
		<g style="opacity:0.1;">
			<path style="fill:#0C0C0C;" d="M128,145.9c-9.4,0-14.9-2.8-15.3-3c-0.7-0.4-1.1-1.4-0.6-2.1c0.4-0.7,1.4-1.1,2.1-0.6
				c0.1,0.1,12,5.9,29.9-0.1c0.9-0.2,1.7,0.1,2,1c0.2,0.9-0.1,1.7-1,2C138.5,145.3,132.8,145.9,128,145.9z"/>
		</g>
	</g>
	<g>
		<g>
			<path style="fill:#D8D8D8;" d="M219,246.7H38.6c0-15.3,5.5-37.8,12.9-45.6c4.1-4.4,8.5-7.8,13.3-10.5c1.4-0.8,2.7-1.5,4.2-2.1
				c7.2-3.3,15.3-5.5,24.8-7.3c0.1,0,0.3,0,0.4-0.1c1.9-0.4,3.8-0.7,5.8-1c0.5-0.1,1.1-0.2,1.7-0.3c0.5-0.1,1-0.2,1.4-0.3
				c2.9-0.9,5.2-2.9,6.6-5.5v3c0,0,0.1,0,0.1,0c5.8,1.3,11.8,2,18,2c6,0,11.8-0.7,17.5-1.9V169c1-0.4,2.1-0.9,3.1-1.4v1
				c0,1.7,0.4,3.2,1,4.6c1.2,2.6,3.3,4.6,6,5.6c0.7,0.3,1.5,0.5,2.3,0.6c0.7,0.1,1.3,0.2,2,0.3c1.2,0.2,2.5,0.4,3.7,0.6
				c1,0.2,2,0.3,3,0.5c9.9,1.8,19,4.1,26.8,8.3c1.5,0.8,2.9,1.6,4.3,2.6c3.8,2.5,7.3,5.6,10.3,9.4C214.3,209.5,219,231.7,219,246.7z
				"/>
		</g>
	</g>
	<path style="fill:#D8D8D8;" d="M220.8,84.3h-5c-6.8-42.5-43.6-75-88-75c-45.2,0-82.5,33.6-88.3,77.2h-4.7c-2.8,0-5.1,2.3-5.1,5.1
		v21.5c0,2.8,2.3,5.1,5.1,5.1h6.1c4,18,13.5,33.9,26.6,45.9c7.8,7.1,16.8,12.9,26.7,17c4,1.6,8.2,3,12.4,4c0.1,0,0.1,0,0.1,0
		c6.8,1.6,13.8,2.5,21.1,2.5c7.2,0,14.2-0.8,20.9-2.5c0,0,0.1,0,0.1,0c5-1.2,9.9-2.9,14.6-4.9c9.4-4.1,18-9.8,25.4-16.7
		c13.3-12.5,22.8-29,26.5-47.5h5.6c2.8,0,5.1-2.3,5.1-5.1V89.4C225.8,86.6,223.6,84.3,220.8,84.3z M174.2,132.3
		c-2.8,15.4-12.6,28.4-25.9,35.3c-1,0.5-2,1-3.1,1.4v8.1c-5.6,1.2-11.5,1.9-17.5,1.9c-6.2,0-12.2-0.7-18-2c0,0-0.1,0-0.1,0v-7.4
		c-15.8-6-27.5-20.3-30.3-37.5c-6.5-1.5-11.5-7.4-11.5-14.6c0-6,3.6-11.2,8.8-13.6c2.8,0,5.8-0.4,8.9-1.1
		c20-4.8,43.6-14.9,62.7-31.7c5.1,15.9,14.8,27.8,26.7,31.4v0.3c7.3,1,13,7.3,13,14.8C187.9,125.3,181.8,131.7,174.2,132.3z"/>
	<path style="fill:none;stroke:#C4C4C4;stroke-width:10;stroke-linecap:round;stroke-miterlimit:10;" d="M88.9,182.1
		c0,0,43,19.3,77.3-1.3"/>
	<g>
		<path style="fill:#C4C4C4;" d="M197.3,191.6C197.3,191.6,197.3,191.7,197.3,191.6c-0.2,0.3-12.7,19.3-10.3,54.9c0,0.1,0,0.1,0,0.2
			h-5c-2.4-35.9,9.6-55.5,11-57.6c0.1-0.1,0.1-0.2,0.1-0.2c0.8-1.1,2.3-1.4,3.5-0.7C197.7,189,198,190.5,197.3,191.6z"/>
	</g>
	<g>
		<path style="fill:#C4C4C4;" d="M80.4,246.7h-5c0-0.1,0-0.1,0-0.2c2.4-35.7-10.2-54.6-10.3-54.8c-0.2-0.3-0.4-0.8-0.4-1.1
			c-0.1-0.9,0.3-1.8,1.1-2.3c1-0.7,2.3-0.5,3.1,0.2c0.1,0.1,0.3,0.3,0.4,0.4C69.8,189.7,82.9,209.3,80.4,246.7z"/>
	</g>
	
		<rect x="46" y="206.6" transform="matrix(0.8952 0.4456 -0.4456 0.8952 99.6786 -3.0364)" style="fill:#76CEE2;" width="20.5" height="7.7"/>
	<path style="fill:#E5E5E5;" d="M173.3,223.8h-14.2c-2.5,0-4.5-2-4.5-4.5v-14.2c0-2.5,2-4.5,4.5-4.5h14.2c2.5,0,4.5,2,4.5,4.5v14.2
		C177.8,221.8,175.8,223.8,173.3,223.8z"/>
	<circle style="fill:#3F3F3F;" cx="166.2" cy="212.2" r="6.2"/>
	<path style="fill:#3F3F3F;" d="M208.2,98.5c0,20.1-7.4,38.5-19.6,52.6c-11.1,12.8-26.2,22.1-43.3,26c0,0-0.1,0-0.1,0V169
		c14.9-6.3,26.1-20.1,29-36.7c7.7-0.6,13.7-7,13.7-14.9c0-7.5-5.7-13.8-13-14.8v-0.3c-11.9-3.6-21.6-15.4-26.7-31.4
		c-19.1,16.8-42.7,26.9-62.7,31.7c-3.1,0.7-6,1.1-8.9,1.1c-5.2,2.3-8.8,7.5-8.8,13.6c0,7.2,4.9,13.1,11.5,14.6
		c2.7,17.3,14.5,31.5,30.3,37.5v7.4c-16.8-3.9-31.4-13-42.2-25.6c-12.2-14.1-19.7-32.6-20.1-52.8C46.8,82.5,56,71.2,70.8,64
		c14.6-7.1,34.7-10.3,56.8-10.3c22.6,0,43.1,3.2,57.8,10.6C199.5,71.4,208.2,82.5,208.2,98.5z"/>
	<g style="opacity:0.3;">
		<path style="fill:#FFFFFF;" d="M194,109.9c-1.5,0-2.7-1.1-3-2.5c0-0.1-1.6-10.2-6-17.5c-6.6-11.1-15.7-14.3-15.8-14.3
			c-1.6-0.5-2.4-2.2-1.9-3.8c0.5-1.6,2.2-2.4,3.8-1.9c0.5,0.1,11.3,3.8,19.1,17c4.9,8.3,6.7,19.2,6.7,19.6c0.3,1.6-0.9,3.2-2.5,3.4
			C194.3,109.9,194.2,109.9,194,109.9z"/>
	</g>
	<g style="opacity:0.3;">
		<path style="fill:#FFFFFF;" d="M195.3,121.9c5.1,0,5.2-8,0-8C190.2,113.9,190.2,121.9,195.3,121.9L195.3,121.9z"/>
	</g>
</g>
</svg>
