<?xml version="1.0" encoding="utf-8"?>
<!-- Generator: Adobe Illustrator 22.1.0, SVG Export Plug-In . SVG Version: 6.00 Build 0)  -->
<svg version="1.1" id="Layer_1" xmlns="http://www.w3.org/2000/svg" xmlns:xlink="http://www.w3.org/1999/xlink" x="0px" y="0px"
	 viewBox="0 0 256 256" style="enable-background:new 0 0 256 256;" xml:space="preserve">
<g>
	<path style="fill:#FFD473;" d="M191.6,251.6H67c0-11.7-4.1-29,1.5-35.1c3.4-3.7,7.1-6.4,11.3-8.6c7.5-3.9,16.3-5.9,27.2-7.7
		c0.4-0.1,0.7-0.1,1.1-0.3c3.5-1.1,6-4.3,6-8v-6.7c-12.8-4.9-22.3-16.4-24.5-30.4c-5.3-1.2-9.3-6-9.3-11.8c0-4.9,2.9-9.1,7.1-11
		c2.3,0,4.7-0.3,7.2-0.9c16.2-3.9,35.3-12.1,50.8-25.7c4.1,12.9,12,22.5,21.6,25.4v0.2c5.9,0.8,10.5,5.9,10.5,12
		c0,6.4-4.9,11.6-11.1,12.1c-2.4,13.4-11.4,24.6-23.5,29.7v6.8c0,3.6,2.2,6.7,5.4,7.9c0.6,0.2,1.1,0.4,1.7,0.4
		c10.5,1.5,20.1,3.4,28,7.9c3.9,2.2,7.4,5,10.4,8.8C193.6,223,191.6,240.1,191.6,251.6z"/>
</g>
<g style="opacity:0;">
	<g>
		<g>
			<path style="fill:#4B4351;" d="M178.1,116.1v91.7c-7.9-4.5-17.6-6.3-28-7.9c-0.6-0.1-1.2-0.2-1.7-0.4c-3.2-1.2-5.4-4.3-5.4-7.9
				v-6.8c12.2-5.1,21.2-16.3,23.5-29.7c6.2-0.5,11.1-5.7,11.1-12.1c0-6.1-4.6-11.2-10.5-12v-0.2c-9.5-2.9-17.5-12.5-21.6-25.4
				c-15.5,13.5-34.6,21.8-50.8,25.7c-2.5,0.6-5,0.9-7.2,0.9c-4.2,1.9-7.1,6.1-7.1,11c0,5.7,4,10.5,9.3,11.8
				c2.1,13.9,11.7,25.4,24.5,30.4v6.7c0,3.7-2.5,7-6,8c-0.4,0.1-0.7,0.2-1.1,0.3c-10.9,1.8-19.8,3.8-27.2,7.7v-91.8
				c0-27.1,22-49.1,49.1-49.1c13.6,0,25.9,5.5,34.7,14.4c0.3,0.3,0.6,0.6,0.9,0.9C173,91.1,178.1,103,178.1,116.1z"/>
		</g>
		<g>
			<circle style="fill:#0C0C0C;" cx="109.7" cy="140.3" r="4.5"/>
		</g>
		<g>
			<circle style="fill:#0C0C0C;" cx="148.5" cy="140.3" r="4.5"/>
		</g>
		<g style="opacity:0.1;">
			<path style="fill:#0C0C0C;" d="M129,166.1c-7.6,0-12.1-2.3-12.4-2.4c-0.6-0.3-0.9-1.1-0.5-1.7c0.3-0.6,1.1-0.9,1.7-0.5
				c0.1,0.1,9.7,4.8,24.2-0.1c0.7-0.2,1.4,0.1,1.6,0.8c0.2,0.7-0.1,1.4-0.8,1.6C137.5,165.6,132.9,166.1,129,166.1z"/>
		</g>
	</g>
	<g>
		<path style="fill:#E8E8E8;" d="M193.3,251.1H66.1c0-12.3-2.7-30.4,3-36.8c5.8-6.5,12.4-10.3,20.5-12.9c3.1-1,6.3-1.8,9.8-2.6
			c0.9-0.2,1.7-0.4,2.6-0.6c1.9-0.5,3.8-1,5.8-1.4c0.4-0.1,0.9-0.2,1.3-0.4c4.2,8.7,19.5,12.6,19.5,12.6c0.1,0,17.5-1.7,20.8-12.2
			c0,0,0,0,0,0c0.1-0.1,0.1-0.2,0.2-0.4c0,0,0.1,0,0.1,0c0.5,0.2,1.1,0.3,1.7,0.4c2,0.3,4,0.6,5.9,1c0.8,0.1,1.6,0.3,2.3,0.4
			c3.4,0.7,6.7,1.4,9.8,2.4c8.2,2.6,15.3,6.6,20.7,13.6C195.3,221.1,193.3,239,193.3,251.1z"/>
		<path style="fill:#333333;" d="M193.3,251.1H66.1c0-12.3-2.7-30.4,3-36.8c5.8-6.5,12.4-10.3,20.5-12.9c3.1-1,6.3-1.8,9.8-2.6
			c0.9-0.2,5.1-1.2,5.4-1.3c-2.5,3.7,10.3,46.1,14.9,53.6l16.6,0c4-7.1,19.4-50.7,13.2-54.3c0,0,0,0,0,0c0.1-0.1,0.1-0.2,0.2-0.4
			c0,0,0.1,0,0.1,0c0.5,0.2,1.1,0.3,1.7,0.4c2,0.3,4,0.6,5.9,1c0.8,0.1,1.6,0.3,2.3,0.4c3.4,0.7,6.7,1.4,9.8,2.4
			c8.2,2.6,15.3,6.6,20.7,13.6C195.3,221.1,193.3,239,193.3,251.1z"/>
		<polygon style="fill:#333333;" points="121.4,215.4 126.1,221 122.8,251 133.5,251 130.7,221 136.2,215.4 128.6,208.9 		"/>
		<path style="fill:#F4F4F4;" d="M128.6,208.9l7.6,12.1c0,0,15.5-13.3,18.9-23.2l-9.4-2.4C146.9,197.3,138.8,207,128.6,208.9z"/>
		<path style="fill:#F4F4F4;" d="M128.6,208.5l-7,12.5c0,0-15.9-13.3-19.4-23.2l10.4-2C109.4,198,118.4,206.5,128.6,208.5z"/>
		<path style="fill:#666666;" d="M149.2,196.3c0,0-9.1,43.3-13,54.9l25.4-25.6l-9.7-8.1l10.5-2l-6-18L149.2,196.3z"/>
		<path style="fill:#666666;" d="M106.9,196.1c0,0,9.1,43.8,12.9,55.4L94.9,226l9.7-8.1l-13-0.8l7.8-18.4L106.9,196.1z"/>
		<line style="fill:none;stroke:#636363;stroke-width:7;stroke-miterlimit:10;" x1="178.2" y1="247.1" x2="209.2" y2="170.7"/>
		<line style="fill:none;stroke:#1E1E1E;stroke-width:7;stroke-miterlimit:10;" x1="178.2" y1="247.1" x2="205.4" y2="180"/>
		<g>
			<polygon style="fill:#1E1E1E;" points="79.6,100.9 79.6,7.7 177.6,7.7 177.6,100.9 			"/>
			<g>
				<rect x="79.6" y="93.3" style="fill:#F7D134;" width="98" height="10.4"/>
			</g>
			<g>
				<rect x="64.4" y="102.6" style="fill:#1E1E1E;" width="128.5" height="10.4"/>
			</g>
		</g>
	</g>
</g>
</svg>
