<?xml version="1.0" encoding="utf-8"?>
<!-- Generator: Adobe Illustrator 22.1.0, SVG Export Plug-In . SVG Version: 6.00 Build 0)  -->
<svg version="1.1" id="Layer_1" xmlns="http://www.w3.org/2000/svg" xmlns:xlink="http://www.w3.org/1999/xlink" x="0px" y="0px"
	 viewBox="0 0 256 256" style="enable-background:new 0 0 256 256;" xml:space="preserve">
<g>
	<path style="fill:#FFD473;" d="M205.5,250.5H48.1c0-14.8-5.2-36.6,1.9-44.3c12.1-13,27.2-17.1,48.7-20.7c0.5-0.1,0.9-0.2,1.4-0.4
		c4.4-1.3,7.5-5.4,7.5-10.1v-3.9c-17.2-7.1-29.4-24.1-29.4-43.9v-2.5c-6.4-1.6-11.1-7.4-11.1-14.3c0-4,1.6-7.6,4.2-10.3
		c1.9-1.9,4.3-3.3,7-4v-20c0-7.5,6.1-13.6,13.6-13.6H139c4.6,9.1,12.1,16.5,21.3,20.9c0.4,0.2,0.8,0.4,1.2,0.6
		c0.3,0.1,0.5,0.2,0.8,0.3c0.4,0.2,0.7,0.3,1.1,0.5c0.4,0.2,0.9,0.3,1.3,0.5c0.5,0.2,1,0.4,1.5,0.5c0.4,0.1,0.9,0.3,1.3,0.4
		c0.3,0.1,0.7,0.2,1,0.3c0.3,0.1,0.6,0.2,1,0.2c0.1,0,0.2,0.1,0.3,0.1c0.3,0.1,0.7,0.2,1,0.2c0.3,0.1,0.5,0.1,0.8,0.2
		c0.5,0.1,1,0.2,1.4,0.3V96c2.9,0.5,5.6,1.8,7.6,3.7c2.9,2.7,4.8,6.5,4.8,10.8c0,7.3-5.4,13.4-12.4,14.5v1.3
		c0,19.8-11.9,37.2-29,44.6v3.8c0,4.5,2.8,8.4,6.9,10c0.7,0.3,1.4,0.5,2.2,0.6c19.8,2.9,37.2,6.7,48.5,21
		C208,214.4,205.5,236,205.5,250.5z"/>
</g>
<g style="opacity:0;">
	<g>
		<g>
			<path style="fill:#4B4351;" d="M180.7,57.8v41.9c-2.1-1.9-4.7-3.2-7.6-3.7v-8.4c-0.5-0.1-1-0.2-1.4-0.3c-0.3-0.1-0.5-0.1-0.8-0.2
				c-0.3-0.1-0.7-0.1-1-0.2c-0.1,0-0.2,0-0.3-0.1c-0.3-0.1-0.7-0.2-1-0.2c-0.3-0.1-0.7-0.2-1-0.3c-0.4-0.1-0.9-0.3-1.3-0.4
				c-0.5-0.2-1-0.3-1.5-0.5c-0.5-0.2-0.9-0.3-1.3-0.5c-0.4-0.1-0.7-0.3-1.1-0.5c-0.3-0.1-0.5-0.2-0.8-0.3c-0.4-0.2-0.8-0.4-1.2-0.6
				c-9.2-4.4-16.7-11.8-21.3-20.9H91.9c-7.5,0-13.6,6.1-13.6,13.6v20c-2.7,0.7-5.1,2.1-7,4V63.1c0-5.8,3.3-10.8,8-13.3
				C67.1,29.9,81.2,7,108.2,7c28.4,0,68.2,21.4,72.3,49.3c0,0.2,0.1,0.5,0.1,0.7v0.1C180.7,57.3,180.7,57.5,180.7,57.8z"/>
		</g>
		<g>
			<circle style="fill:#0C0C0C;" cx="102.5" cy="106.1" r="5.4"/>
		</g>
		<g>
			<circle style="fill:#0C0C0C;" cx="149.7" cy="106.1" r="5.4"/>
		</g>
		<g style="opacity:0.1;">
			<path style="fill:#0C0C0C;" d="M124.9,147.7c-11.9,0-19.1-8.4-19.2-8.6c-0.5-0.7-0.4-1.6,0.2-2.2c0.7-0.5,1.6-0.4,2.2,0.2
				c0.6,0.7,14.3,16.7,35.9-0.2c0.7-0.5,1.6-0.4,2.2,0.3c0.5,0.7,0.4,1.6-0.3,2.2C137.9,145.6,130.8,147.7,124.9,147.7z"/>
		</g>
	</g>
	<g>
		<g>
			<path style="fill:#8BEA86;" d="M205.4,250.5H47.2c0-15.3-3.3-37.9,3.7-45.8c7.2-8.1,15.5-12.8,25.5-16.1
				c3.8-1.3,7.8-2.3,12.2-3.2c1.1-0.2,2.1-0.5,3.2-0.8c2.3-0.6,4.7-1.3,7.2-1.7c0.5-0.1,1.1-0.3,1.6-0.5c7,7.9,24,40,24,40
				c0.1,0,20.8-30.4,26.1-39.5c0,0,0,0,0,0c0.1-0.1,0.2-0.3,0.2-0.5c0,0,0.1,0,0.1,0c0.7,0.2,1.4,0.4,2.1,0.5
				c2.5,0.4,4.9,0.8,7.3,1.2c1,0.2,1.9,0.4,2.9,0.5c4.2,0.8,8.3,1.8,12.2,3c10.2,3.2,19.1,8.2,25.8,16.9
				C207.9,213.2,205.4,235.5,205.4,250.5z"/>
			<path style="fill:#474747;" d="M205.4,250.5H47.2c0-15.3-3.3-37.9,3.7-45.8c7.2-8.1,15.5-12.8,25.5-16.1
				c3.8-1.3,7.8-2.3,12.2-3.2c1.1-0.2,2.1-0.5,3.2-0.8c2.3-0.6,4.7-1.3,7.2-1.7c0.5-0.1,1.1-0.3,1.6-0.5c-0.6,26,1.8,49.7,11.4,68
				H137c3.4-1.7,15.9-59.4,13.8-67.6c0,0,0,0,0,0c0.1-0.1,0.2-0.3,0.2-0.5c0,0,0.1,0,0.1,0c0.7,0.2,1.4,0.4,2.1,0.5
				c2.5,0.4,4.9,0.8,7.3,1.2c1,0.2,1.9,0.4,2.9,0.5c4.2,0.8,8.3,1.8,12.2,3c10.2,3.2,19.1,8.2,25.8,16.9
				C207.9,213.2,205.4,235.5,205.4,250.5z"/>
			<path style="fill:#666666;" d="M147.5,181.7c0,0-4.2,54.5-10.2,68.8l22.5-25.3l-5.9-16.3l5.9,2.7l-5.3-28.6L147.5,181.7z"/>
			<path style="fill:#666666;" d="M101.6,182.4c0,0,4.5,53.7,10.5,68l-22.8-24.6l5.9-16.3l-5.9,2.7l5.3-28.6L101.6,182.4z"/>
		</g>
		<g>
			<path style="fill:#0C0C0C;" d="M107,116.6c-6.5,0.7-10.1,0.7-16.6-0.7c-1-0.2-1.9-0.9-2.4-1.8c-2.2-4.5-2.9-10.7-1.9-15.4
				c0.3-1.4,1.5-2.5,3-2.6c9.2-0.9,18.2-0.6,27,1.2c1.6,0.3,2.8,1.7,2.8,3.3c0,3-0.8,6-1.8,8.6C115.5,113.2,111.6,116.1,107,116.6z"
				/>
			<path style="fill:#0C0C0C;" d="M145,116.7c6.5,0.7,10.1,0.7,16.6-0.9c1-0.3,1.9-0.9,2.4-1.9c2.1-4.5,2.8-10.7,1.7-15.4
				c-0.3-1.4-1.5-2.5-3-2.6c-9.2-0.9-18.2-0.4-27,1.5c-1.6,0.3-2.7,1.7-2.7,3.3c0,3,0.8,6,1.9,8.5
				C136.5,113.3,140.4,116.2,145,116.7z"/>
			<g>
				<path style="fill:#0C0C0C;" d="M165,101.7c-0.7,0-1.3-0.3-1.7-1c-0.6-1-0.3-2.2,0.7-2.8l8.3-5.1c0.9-0.6,2.2-0.3,2.8,0.7
					c0.6,1,0.3,2.2-0.7,2.8l-8.3,5.1C165.7,101.6,165.4,101.7,165,101.7z"/>
			</g>
			<g>
				<path style="fill:#0C0C0C;" d="M86.7,102.2c-0.4,0-0.8-0.1-1.1-0.4l-8.2-5.6c-0.9-0.6-1.2-1.9-0.5-2.8c0.6-0.9,1.9-1.2,2.8-0.5
					l8.2,5.6c0.9,0.6,1.2,1.9,0.5,2.8C88,101.9,87.4,102.2,86.7,102.2z"/>
			</g>
			<g>
				<path style="fill:#0C0C0C;" d="M133.2,103.1c-0.2,0-0.4,0-0.6-0.1c-4-1-11-0.3-13.3,0c-1.2,0.2-2.4-0.5-2.6-1.6
					c-0.2-1.1,0.6-2.1,1.8-2.3c0.4-0.1,9.5-1.4,15.3,0c1.2,0.3,1.9,1.4,1.5,2.5C135.1,102.5,134.2,103.1,133.2,103.1z"/>
			</g>
		</g>
	</g>
</g>
</svg>
