<?xml version="1.0" encoding="utf-8"?>
<!-- Generator: Adobe Illustrator 22.1.0, SVG Export Plug-In . SVG Version: 6.00 Build 0)  -->
<svg version="1.1" id="Layer_1" xmlns="http://www.w3.org/2000/svg" xmlns:xlink="http://www.w3.org/1999/xlink" x="0px" y="0px"
	 viewBox="0 0 256 256" style="enable-background:new 0 0 256 256;" xml:space="preserve">
<g style="opacity:0;">
	<path style="fill:#FFD473;" d="M185.7,119.8c0,7.2-5.3,13.1-12.1,14.2v1.2c0,0.6,0,1.1,0,1.7c0,0.2,0,0.3,0,0.5
		c0,0.4,0,0.8-0.1,1.2c0,0.2,0,0.5,0,0.7c0,0.4-0.1,0.7-0.1,1.1c0,0.1,0,0.3,0,0.4c-0.1,0.5-0.1,1-0.2,1.5c0,0,0,0.1,0,0.1
		c-0.1,0.6-0.2,1.1-0.3,1.7c-0.1,0.5-0.2,1-0.3,1.5c-0.1,0.3-0.1,0.6-0.2,0.9c-0.1,0.3-0.1,0.6-0.2,0.9c0,0.1-0.1,0.3-0.1,0.4
		c-0.1,0.3-0.2,0.7-0.3,1c-0.1,0.2-0.1,0.4-0.2,0.7c-0.1,0.2-0.1,0.4-0.2,0.7c-0.1,0.3-0.2,0.7-0.4,1c-0.3,0.9-0.7,1.8-1,2.7
		c-0.2,0.5-0.4,0.9-0.6,1.4c-0.2,0.4-0.3,0.7-0.5,1.1c-0.3,0.6-0.6,1.2-0.9,1.7c-0.1,0.3-0.3,0.6-0.5,0.9c0,0.1-0.1,0.2-0.1,0.2
		c-0.2,0.4-0.4,0.7-0.6,1c-0.5,0.8-1,1.6-1.6,2.4c-0.2,0.3-0.4,0.5-0.5,0.8c-0.1,0.2-0.3,0.4-0.4,0.6c-0.2,0.3-0.5,0.6-0.7,0.9
		c-0.3,0.3-0.5,0.6-0.8,0.9c-1.3,1.6-2.7,3-4.2,4.4c-0.2,0.2-0.5,0.4-0.7,0.6c-0.8,0.7-1.7,1.4-2.5,2.1c-0.7,0.5-1.4,1-2.1,1.5
		c0,0,0,0-0.1,0c0,0,0,0,0,0c-8.4,3-17.5,4.6-26.9,4.6c-7.5,0-14.8-1-21.7-3h0c0,0,0,0-0.1,0c-0.4-0.2-0.8-0.4-1.1-0.7
		c-0.1,0-0.1-0.1-0.2-0.1c-0.3-0.2-0.7-0.4-1-0.6c-0.1-0.1-0.3-0.2-0.4-0.3c-0.3-0.2-0.6-0.4-1-0.7c-0.5-0.4-1-0.7-1.5-1.1
		c-1.1-0.8-2.1-1.7-3.1-2.7c-0.4-0.3-0.7-0.7-1.1-1c-0.4-0.4-0.7-0.7-1-1.1c-0.3-0.3-0.6-0.6-0.8-0.9c-0.1-0.1-0.2-0.3-0.3-0.4
		c-0.3-0.3-0.5-0.6-0.8-0.9c-0.3-0.4-0.6-0.8-0.9-1.2c-0.6-0.8-1.2-1.6-1.7-2.4c-0.3-0.4-0.6-0.9-0.8-1.3c-0.3-0.4-0.5-0.8-0.8-1.3
		c-0.2-0.4-0.5-0.8-0.7-1.2c0,0,0-0.1-0.1-0.1c-0.2-0.3-0.3-0.6-0.5-0.9c-0.1-0.2-0.3-0.5-0.4-0.7c-0.1-0.3-0.3-0.6-0.4-0.8
		c-0.1-0.1-0.1-0.3-0.2-0.4c-0.1-0.3-0.3-0.6-0.4-1c-0.1-0.2-0.1-0.3-0.2-0.5c-0.1-0.3-0.3-0.6-0.4-0.9c0-0.1-0.1-0.2-0.1-0.4
		c-0.2-0.4-0.3-0.8-0.4-1.2c-0.2-0.5-0.3-1-0.5-1.4c-0.2-0.5-0.3-1.1-0.5-1.6c-0.2-0.6-0.3-1.2-0.5-1.9c-0.1-0.5-0.2-1-0.3-1.5
		c0,0,0,0,0-0.1c-0.1-0.5-0.2-1-0.3-1.5c0-0.1,0-0.3-0.1-0.4c-0.1-0.4-0.1-0.8-0.2-1.1c0-0.3-0.1-0.5-0.1-0.8
		c-0.1-0.7-0.2-1.5-0.2-2.2c0-0.4-0.1-0.8-0.1-1.1c0-0.5,0-1.1,0-1.6v-2.4c-6.2-1.6-10.8-7.2-10.8-13.9c0-3.8,1.6-7.4,4.1-10
		c1.8-1.9,4.2-3.2,6.8-4V86.3c0-7.3,5.9-13.2,13.2-13.2h45.8c4.4,8.9,11.8,16.1,20.8,20.4c0.4,0.2,0.7,0.4,1.2,0.6
		c0.2,0.1,0.5,0.2,0.7,0.4c0.4,0.1,0.7,0.4,1.1,0.5c0.5,0.1,0.8,0.4,1.3,0.5c0.5,0.2,1,0.4,1.4,0.5s0.8,0.2,1.3,0.4
		c0.4,0.1,0.6,0.2,1,0.2c0.4,0.1,0.6,0.1,1,0.2c0.1,0,0.2,0,0.2,0.1c0.4,0.1,0.6,0.1,1,0.2c0.2,0.1,0.5,0.1,0.7,0.1
		c0.5,0.1,1,0.1,1.4,0.2v8.2c2.9,0.5,5.4,1.7,7.4,3.6C183.9,111.9,185.7,115.6,185.7,119.8z"/>
</g>
<g>
	<g>
		<g>
			<path style="fill:#4B4351;" d="M180.9,68.4v40.8c-2-1.9-4.6-3.1-7.4-3.6v-8.2c-0.5-0.1-1-0.1-1.4-0.2c-0.2,0-0.5-0.1-0.7-0.1
				c-0.4-0.1-0.6-0.1-1-0.2c-0.1,0-0.2,0-0.2-0.1c-0.4-0.1-0.6-0.1-1-0.2c-0.4-0.1-0.6-0.1-1-0.2c-0.5-0.1-0.8-0.2-1.3-0.4
				c-0.5-0.1-1-0.4-1.4-0.5c-0.5-0.1-0.8-0.4-1.3-0.5c-0.4-0.1-0.7-0.2-1.1-0.5c-0.2-0.1-0.5-0.2-0.7-0.4c-0.4-0.1-0.8-0.4-1.2-0.6
				c-9-4.3-16.3-11.5-20.8-20.4H94.5c-7.3,0-13.2,5.9-13.2,13.2v19.4c-2.6,0.6-4.9,2-6.8,4V73.6c0-5.6,3.1-10.4,7.8-13
				C70.4,41.3,84.2,19,110.5,19c27.6,0,66.4,20.9,70.3,48c0,0.2,0,0.5,0.1,0.7l0,0C180.9,68,180.9,68.2,180.9,68.4z"/>
		</g>
		<g>
			<circle style="fill:#0C0C0C;" cx="104.9" cy="115.5" r="5.3"/>
		</g>
		<g>
			<circle style="fill:#0C0C0C;" cx="150.9" cy="115.5" r="5.3"/>
		</g>
		<g style="opacity:0.1;">
			<path style="fill:#0C0C0C;" d="M126.7,155.9c-11.6,0-18.6-8.3-18.7-8.4c-0.5-0.6-0.5-1.6,0.2-2.2c0.6-0.5,1.6-0.5,2.2,0.2
				c0.6,0.7,13.9,16.2,35-0.2c0.6-0.5,1.6-0.4,2.2,0.2c0.5,0.6,0.4,1.6-0.2,2.2C139.4,153.9,132.4,155.9,126.7,155.9z"/>
		</g>
	</g>
	<g>
		<g>
			<g>
				<path style="fill:#D8D8D8;" d="M217.4,246.7H36.9c0-15.3,5.5-37.8,12.9-45.6c4.1-4.4,8.5-7.8,13.3-10.5c1.3-0.8,2.7-1.5,4.2-2.1
					c7.2-3.3,15.3-5.5,24.8-7.3c0.1,0,0.3,0,0.4-0.1c1.9-0.4,3.8-0.7,5.8-1c0.5-0.1,1.1-0.2,1.7-0.3c0.5-0.1,1-0.2,1.4-0.3
					c1.8-0.6,3.5-1.6,4.7-2.9c6.4,1.6,13.1,2.5,20,2.5c8,0,15.8-1.2,23.1-3.4c1.2,1.4,2.7,2.5,4.5,3.2c0.7,0.3,1.5,0.5,2.3,0.6
					c0.7,0.1,1.3,0.2,2,0.3c1.2,0.2,2.5,0.4,3.7,0.6c1,0.2,2,0.3,3,0.5c9.9,1.8,19,4.1,26.8,8.3c1.5,0.8,2.9,1.6,4.3,2.6
					c3.8,2.5,7.3,5.6,10.3,9.4C212.7,209.5,217.4,231.7,217.4,246.7z"/>
			</g>
		</g>
		<g>
			<path style="fill:#C4C4C4;" d="M127.7,195.3c-22.7,0-41.3-8.1-42.4-8.7c-2.5-1.1-3.6-4.1-2.5-6.6c1.1-2.5,4.1-3.6,6.6-2.5
				c0.6,0.3,41.2,17.9,72.7-1.1c2.4-1.4,5.4-0.7,6.9,1.7c1.4,2.4,0.7,5.4-1.7,6.9C154.2,192.8,140.3,195.3,127.7,195.3z"/>
		</g>
		<g>
			<path style="fill:#C4C4C4;" d="M195.7,191.6C195.7,191.6,195.7,191.7,195.7,191.6c-0.2,0.3-12.7,19.3-10.3,54.9
				c0,0.1,0,0.1,0,0.2h-5c-2.4-35.9,9.6-55.5,11-57.6c0.1-0.1,0.1-0.2,0.1-0.2c0.8-1.1,2.3-1.4,3.5-0.7
				C196.1,189,196.4,190.5,195.7,191.6z"/>
		</g>
		<g>
			<path style="fill:#C4C4C4;" d="M78.8,246.7h-5c0-0.1,0-0.1,0-0.2c2.4-35.7-10.2-54.6-10.3-54.8c-0.2-0.3-0.4-0.8-0.4-1.1
				c-0.1-0.9,0.3-1.8,1.1-2.3c1-0.7,2.3-0.5,3.1,0.2c0.1,0.1,0.3,0.3,0.4,0.4C68.2,189.7,81.3,209.3,78.8,246.7z"/>
		</g>
		
			<rect x="44.4" y="206.6" transform="matrix(0.8952 0.4456 -0.4456 0.8952 99.5083 -2.3146)" style="fill:#76CEE2;" width="20.5" height="7.7"/>
		<path style="fill:#E5E5E5;" d="M171.7,223.8h-14.2c-2.5,0-4.5-2-4.5-4.5v-14.2c0-2.5,2-4.5,4.5-4.5h14.2c2.5,0,4.5,2,4.5,4.5v14.2
			C176.2,221.8,174.1,223.8,171.7,223.8z"/>
		<circle style="fill:#3F3F3F;" cx="164.6" cy="212.2" r="6.2"/>
		<path style="fill:#D8D8D8;" d="M219.1,84.3h-5c-6.8-42.5-43.6-75-88-75c-45.2,0-82.5,33.6-88.3,77.2H33c-2.8,0-5.1,2.3-5.1,5.1
			v21.5c0,2.8,2.3,5.1,5.1,5.1h6.1c6.5,28.6,26.7,52,53.3,62.9c5.4,2.2,11,3.9,16.8,5c5.4,1,11.1,1.6,16.8,1.6
			c6.8,0,13.4-0.8,19.7-2.2c5.5-1.2,10.8-3,15.8-5.2c26.4-11.5,46.1-35.3,51.9-64.3h5.6c2.8,0,5.1-2.3,5.1-5.1V89.4
			C224.2,86.6,221.9,84.3,219.1,84.3z M173.6,134v1.2c0,0.6,0,1.1,0,1.7c0,0.2,0,0.3,0,0.5c0,0.4,0,0.8-0.1,1.2c0,0.2,0,0.5,0,0.7
			c0,0.4-0.1,0.7-0.1,1.1c0,0.1,0,0.3,0,0.4c-0.1,0.5-0.1,1-0.2,1.5c0,0,0,0.1,0,0.1c-0.1,0.6-0.2,1.1-0.3,1.7
			c-0.1,0.5-0.2,1-0.3,1.5c-0.1,0.3-0.1,0.6-0.2,0.9c-0.1,0.3-0.1,0.6-0.2,0.9c0,0.1-0.1,0.3-0.1,0.4c-0.1,0.3-0.2,0.7-0.3,1
			c-0.1,0.2-0.1,0.4-0.2,0.7c-0.1,0.2-0.1,0.4-0.2,0.7c-0.1,0.3-0.2,0.7-0.4,1c-0.3,0.9-0.7,1.8-1,2.7c-0.2,0.5-0.4,0.9-0.6,1.4
			c-0.2,0.4-0.3,0.7-0.5,1.1c-0.3,0.6-0.6,1.2-0.9,1.7c-0.1,0.3-0.3,0.6-0.5,0.9c0,0.1-0.1,0.2-0.1,0.2c-0.2,0.3-0.4,0.7-0.6,1
			c-0.5,0.8-1,1.6-1.6,2.4c-0.2,0.3-0.3,0.5-0.5,0.8c-0.1,0.2-0.3,0.4-0.4,0.6c-0.2,0.3-0.5,0.6-0.7,0.9c-0.2,0.3-0.5,0.6-0.8,0.9
			c-1.3,1.6-2.7,3-4.2,4.4c-0.2,0.2-0.5,0.4-0.7,0.6c-0.8,0.7-1.7,1.4-2.5,2.1c-0.7,0.5-1.4,1.1-2.1,1.5c0,0,0,0-0.1,0c0,0,0,0,0,0
			c-1.2,0.4-2.5,0.8-3.8,1.2c-7.3,2.2-15.1,3.4-23.1,3.4c-6.9,0-13.6-0.9-20-2.5c-0.6-0.1-1.1-0.3-1.7-0.5h0c0,0,0,0-0.1,0
			c-0.4-0.2-0.8-0.4-1.1-0.7c-0.1,0-0.1-0.1-0.2-0.1c-0.3-0.2-0.7-0.4-1-0.6c-0.1-0.1-0.3-0.2-0.4-0.3c-0.3-0.2-0.6-0.4-1-0.7
			c-0.5-0.4-1-0.7-1.5-1.1c-1.1-0.8-2.1-1.7-3.1-2.7c-0.4-0.3-0.7-0.7-1.1-1c-0.4-0.3-0.7-0.7-1-1.1c-0.3-0.3-0.6-0.6-0.8-0.9
			c-0.1-0.1-0.2-0.3-0.3-0.4c-0.3-0.3-0.5-0.6-0.8-0.9c-0.3-0.4-0.6-0.8-0.9-1.2c-0.6-0.8-1.2-1.6-1.7-2.4c-0.3-0.4-0.6-0.9-0.8-1.3
			c-0.3-0.4-0.5-0.8-0.8-1.3c-0.2-0.4-0.5-0.8-0.7-1.2c0,0,0-0.1-0.1-0.1c-0.2-0.3-0.3-0.6-0.5-0.9c-0.1-0.2-0.3-0.5-0.4-0.7
			c-0.2-0.3-0.3-0.6-0.4-0.8c-0.1-0.1-0.1-0.3-0.2-0.4c-0.2-0.3-0.3-0.6-0.4-1c-0.1-0.2-0.1-0.3-0.2-0.5c-0.1-0.3-0.3-0.6-0.4-0.9
			c0-0.1-0.1-0.2-0.1-0.4c-0.2-0.4-0.3-0.8-0.4-1.2c-0.2-0.5-0.3-1-0.5-1.4c-0.2-0.5-0.3-1.1-0.5-1.6c-0.2-0.6-0.3-1.2-0.5-1.9
			c-0.1-0.5-0.2-1-0.3-1.5c0,0,0,0,0-0.1c-0.1-0.5-0.2-1-0.3-1.5c0-0.1,0-0.3-0.1-0.4c-0.1-0.4-0.1-0.8-0.2-1.1
			c0-0.3-0.1-0.5-0.1-0.8c-0.1-0.7-0.2-1.5-0.2-2.2c0-0.4-0.1-0.8-0.1-1.1c0-0.5,0-1.1,0-1.6v-2.4c-6.2-1.6-10.8-7.2-10.8-13.9
			c0-3.8,1.6-7.4,4.1-10c1.8-1.9,4.2-3.2,6.8-4V86.3c0-7.3,5.9-13.2,13.2-13.2h45.8c4.4,8.9,11.8,16.1,20.8,20.4
			c0.4,0.2,0.7,0.4,1.2,0.6c0.2,0.1,0.5,0.2,0.7,0.4c0.4,0.1,0.7,0.4,1.1,0.5c0.5,0.1,0.8,0.4,1.3,0.5c0.5,0.2,1,0.4,1.4,0.5
			s0.8,0.2,1.3,0.4c0.4,0.1,0.6,0.2,1,0.2c0.4,0.1,0.6,0.1,1,0.2c0.1,0,0.2,0,0.2,0.1c0.4,0.1,0.6,0.1,1,0.2
			c0.2,0.1,0.5,0.1,0.7,0.1c0.5,0.1,1,0.1,1.4,0.2v8.2c2.9,0.5,5.4,1.7,7.4,3.6c2.9,2.6,4.7,6.4,4.7,10.6
			C185.7,127,180.4,132.9,173.6,134z"/>
		<path style="fill:#3F3F3F;" d="M206.6,98.5c0,35-22.4,64.8-53.6,75.9c12.5-8.5,20.6-23.1,20.6-39.2V134c6.8-1.1,12.1-7,12.1-14.2
			c0-4.2-1.8-7.9-4.7-10.6c-2-1.9-4.6-3.1-7.4-3.6v-8.2c-0.5-0.1-1-0.1-1.4-0.2c-0.2,0-0.5,0-0.7-0.1c-0.4-0.1-0.6-0.1-1-0.2
			c0-0.1-0.1-0.1-0.2-0.1c-0.4-0.1-0.6-0.1-1-0.2c-0.4,0-0.6-0.1-1-0.2c-0.5-0.1-0.8-0.2-1.3-0.4s-1-0.2-1.4-0.5
			c-0.5-0.1-0.8-0.4-1.3-0.5c-0.4-0.1-0.7-0.4-1.1-0.5c-0.2-0.1-0.5-0.2-0.7-0.4c-0.5-0.2-0.8-0.4-1.2-0.6
			c-9-4.3-16.3-11.5-20.8-20.4H94.6c-7.3,0-13.2,5.9-13.2,13.2v19.4c-2.6,0.7-5,2-6.8,4c-2.5,2.5-4.1,6.1-4.1,10
			c0,6.7,4.6,12.4,10.8,13.9v2.4c0,17.1,9.3,32,23.1,40c-33.7-9.5-58-40.6-58.8-77.5c-0.7-31.8,35.9-44.8,80.3-44.8
			C170.4,53.7,206.6,66,206.6,98.5z"/>
		<g style="opacity:0.3;">
			<path style="fill:#FFFFFF;" d="M196.4,127.4c5.1,0,5.2-8,0-8C191.3,119.4,191.3,127.4,196.4,127.4L196.4,127.4z"/>
			<path style="fill:#FFFFFF;" d="M195.1,115.4c-1.5,0-2.7-1.1-3-2.5c0-0.1-1.6-10.2-6-17.5c-6.6-11.1-15.7-14.3-15.8-14.3
				c-1.6-0.5-2.4-2.2-1.9-3.8c0.5-1.6,2.2-2.4,3.8-1.9c0.5,0.1,11.3,3.8,19.1,17c4.9,8.3,6.7,19.2,6.7,19.6c0.3,1.6-0.9,3.2-2.5,3.4
				C195.4,115.4,195.2,115.4,195.1,115.4z"/>
		</g>
	</g>
</g>
</svg>
