<?xml version="1.0" encoding="utf-8"?>
<!-- Generator: Adobe Illustrator 22.1.0, SVG Export Plug-In . SVG Version: 6.00 Build 0)  -->
<svg version="1.1" id="Layer_1" xmlns="http://www.w3.org/2000/svg" xmlns:xlink="http://www.w3.org/1999/xlink" x="0px" y="0px"
	 viewBox="0 0 256 256" style="enable-background:new 0 0 256 256;" xml:space="preserve">
<g style="opacity:0;">
	<path style="fill:#FFD473;" d="M204.1,250.5H50.9c0-14.4-5-35.6,1.9-43.1c11.8-12.7,26.5-16.7,47.4-20.2c0.5-0.1,1-0.2,1.3-0.4
		c4.3-1.3,7.3-5.3,7.3-9.8v-3.8c-16.8-7-28.6-23.4-28.6-42.7v-2.4c-6.2-1.6-10.8-7.2-10.8-13.9c0-3.8,1.6-7.4,4.1-10
		c1.8-1.9,4.2-3.2,6.8-4V80.8c0-7.3,5.9-13.2,13.2-13.2h45.8c4.4,8.9,11.8,16.1,20.8,20.4c0.4,0.2,0.7,0.4,1.2,0.6
		c0.2,0.1,0.5,0.2,0.7,0.4c0.4,0.1,0.7,0.4,1.1,0.5c0.5,0.1,0.8,0.4,1.3,0.5c0.5,0.2,1,0.4,1.4,0.5c0.5,0.1,0.8,0.2,1.3,0.4
		c0.4,0.1,0.6,0.2,1,0.2c0.4,0.1,0.6,0.1,1,0.2c0.1,0,0.2,0,0.2,0.1c0.4,0.1,0.6,0.1,1,0.2c0.2,0.1,0.5,0.1,0.7,0.1
		c0.5,0.1,1,0.1,1.4,0.2v8.2c2.9,0.5,5.4,1.7,7.4,3.6c2.9,2.6,4.7,6.4,4.7,10.6c0,7.2-5.3,13.1-12.1,14.2v1.2
		c0,19.2-11.5,36.2-28.3,43.4v3.7c0,4.3,2.8,8.2,6.7,9.7c0.7,0.2,1.4,0.5,2.2,0.6c19.3,2.9,36.2,6.6,47.3,20.4
		C206.6,215.3,204.1,236.3,204.1,250.5z"/>
</g>
<g>
	<g>
		<g>
			<path style="fill:#4B4351;" d="M179.8,62.9v40.8c-2-1.9-4.6-3.1-7.4-3.6V92c-0.5-0.1-1-0.1-1.4-0.2c-0.2,0-0.5-0.1-0.7-0.1
				c-0.4-0.1-0.6-0.1-1-0.2c-0.1,0-0.2,0-0.2-0.1c-0.4-0.1-0.6-0.1-1-0.2c-0.4-0.1-0.6-0.1-1-0.2c-0.5-0.1-0.8-0.2-1.3-0.4
				c-0.5-0.1-1-0.4-1.4-0.5c-0.5-0.1-0.8-0.4-1.3-0.5c-0.4-0.1-0.7-0.2-1.1-0.5c-0.2-0.1-0.5-0.2-0.7-0.4c-0.4-0.1-0.8-0.4-1.2-0.6
				c-9-4.3-16.3-11.5-20.8-20.4H93.5c-7.3,0-13.2,5.9-13.2,13.2v19.4c-2.6,0.6-4.9,2-6.8,4V68.1c0-5.6,3.1-10.4,7.8-13
				c-11.9-19.3,1.9-41.6,28.2-41.6c27.6,0,66.4,20.9,70.3,48c0,0.2,0,0.5,0.1,0.7l0,0C179.8,62.5,179.8,62.7,179.8,62.9z"/>
		</g>
		<g>
			<circle style="fill:#0C0C0C;" cx="103.8" cy="110" r="5.3"/>
		</g>
		<g>
			<circle style="fill:#0C0C0C;" cx="149.8" cy="110" r="5.3"/>
		</g>
		<g style="opacity:0.1;">
			<path style="fill:#0C0C0C;" d="M125.6,150.4c-11.6,0-18.6-8.3-18.7-8.4c-0.5-0.6-0.5-1.6,0.2-2.2c0.6-0.5,1.6-0.5,2.2,0.2
				c0.6,0.7,13.9,16.2,35-0.2c0.6-0.5,1.6-0.4,2.2,0.2c0.5,0.6,0.4,1.6-0.2,2.2C138.3,148.4,131.4,150.4,125.6,150.4z"/>
		</g>
	</g>
	<g>
		<path style="fill:#E8E8E8;" d="M204.8,250.6h-156c0-15.1-3.3-37.4,3.7-45.2c7.1-7.9,15.2-12.6,25.2-15.9c3.7-1.2,7.7-2.3,12-3.2
			c1.1-0.2,2.1-0.5,3.2-0.8c2.3-0.6,4.6-1.3,7.1-1.7c0.5-0.1,1.1-0.3,1.6-0.4c5.1,10.7,24,15.4,24,15.4c0.1,0,21.5-2.1,25.5-14.9
			c0,0,0,0,0,0c0.1-0.1,0.2-0.3,0.2-0.4c0,0,0.1,0,0.1,0c0.7,0.2,1.3,0.4,2.1,0.5c2.5,0.4,4.9,0.8,7.2,1.2c1,0.2,1.9,0.4,2.9,0.5
			c4.2,0.8,8.2,1.8,12,3c10.1,3.2,18.8,8,25.4,16.7C207.4,213.8,204.8,235.8,204.8,250.6z"/>
		<path style="fill:#364456;" d="M204.8,250.6h-156c0-15.1-3.3-37.4,3.7-45.2c7.1-7.9,15.2-12.6,25.2-15.9c3.7-1.2,7.7-2.3,12-3.2
			c1.1-0.2,6.2-1.5,6.7-1.6c-3.1,4.5,12.6,56.5,18.2,65.8l20.3,0c4.9-8.8,23.8-62.2,16.1-66.7c0,0,0,0,0,0c0.1-0.1,0.2-0.3,0.2-0.4
			c0,0,0.1,0,0.1,0c0.7,0.2,1.3,0.4,2.1,0.5c2.5,0.4,4.9,0.8,7.2,1.2c1,0.2,1.9,0.4,2.9,0.5c4.2,0.8,8.2,1.8,12,3
			c10.1,3.2,18.8,8,25.4,16.7C207.4,213.8,204.8,235.8,204.8,250.6z"/>
		<polygon style="fill:#66BFE2;" points="116.7,206.8 122.5,213.7 118.4,250.5 131.6,250.5 128.1,213.7 134.9,206.8 125.5,198.9 		
			"/>
		<path style="fill:#F4F4F4;" d="M125.5,198.9l9.4,14.8c0,0,19-16.4,23.2-28.5l-11.5-2.9C148,184.6,138,196.5,125.5,198.9z"/>
		<path style="fill:#F4F4F4;" d="M125.5,198.3l-8.6,15.3c0,0-19.6-16.3-23.8-28.5l12.7-2.5C102,185.4,113,195.9,125.5,198.3z"/>
		<path style="fill:#25323F;" d="M150.8,183.5c0,0-11.2,53.2-15.9,67.4l31.1-31.4l-11.9-10l12.9-2.4l-7.4-22.1L150.8,183.5z"/>
		<path style="fill:#25323F;" d="M98.9,183.2c0,0,11.1,53.8,15.9,68l-30.6-31.4l11.9-10l-16-1l9.5-22.5L98.9,183.2z"/>
	</g>
</g>
</svg>
