<?xml version="1.0" encoding="utf-8"?>
<!-- Generator: Adobe Illustrator 22.1.0, SVG Export Plug-In . SVG Version: 6.00 Build 0)  -->
<svg version="1.1" id="Layer_1" xmlns="http://www.w3.org/2000/svg" xmlns:xlink="http://www.w3.org/1999/xlink" x="0px" y="0px"
	 viewBox="0 0 256 256" style="enable-background:new 0 0 256 256;" xml:space="preserve">
<g style="opacity:0;">
	<path style="fill:#FFD473;" d="M200.1,250.6H55.4c0-13.6-4.7-33.6,1.8-40.7c11.2-12,25-15.8,44.8-19.1c0.5-0.1,0.9-0.2,1.2-0.4
		c4.1-1.2,6.9-5,6.9-9.3v-3.6c-15.9-6.6-27-22.1-27-40.4V135c-5.9-1.5-10.2-6.8-10.2-13.1c0-3.6,1.5-7,3.9-9.4c1.7-1.8,4-3,6.4-3.8
		V90.3c0-6.9,5.6-12.5,12.5-12.5h43.3c4.2,8.4,11.2,15.2,19.7,19.3c0.4,0.2,0.7,0.4,1.1,0.6c0.2,0.1,0.5,0.2,0.7,0.4
		c0.4,0.1,0.7,0.4,1,0.5c0.5,0.1,0.8,0.4,1.2,0.5c0.5,0.2,0.9,0.4,1.3,0.5c0.5,0.1,0.8,0.2,1.2,0.4c0.4,0.1,0.6,0.2,0.9,0.2
		c0.4,0.1,0.6,0.1,0.9,0.2c0.1,0,0.2,0,0.2,0.1c0.4,0.1,0.6,0.1,0.9,0.2c0.2,0.1,0.5,0.1,0.7,0.1c0.5,0.1,0.9,0.1,1.3,0.2v7.7
		c2.7,0.5,5.1,1.6,7,3.4c2.7,2.5,4.4,6,4.4,10c0,6.8-5,12.4-11.4,13.4v1.1c0,18.1-10.9,34.2-26.7,41v3.5c0,4.1,2.6,7.7,6.3,9.2
		c0.7,0.2,1.3,0.5,2.1,0.6c18.2,2.7,34.2,6.2,44.7,19.3C202.5,217.4,200.1,237.2,200.1,250.6z"/>
</g>
<g>
	<g>
		<g>
			<path style="fill:#4B4351;" d="M177.2,73.4v38.6c-1.9-1.8-4.3-2.9-7-3.4v-7.7c-0.5-0.1-0.9-0.1-1.3-0.2c-0.2,0-0.5-0.1-0.7-0.1
				c-0.4-0.1-0.6-0.1-0.9-0.2c-0.1,0-0.2,0-0.2-0.1c-0.4-0.1-0.6-0.1-0.9-0.2c-0.4-0.1-0.6-0.1-0.9-0.2c-0.5-0.1-0.8-0.2-1.2-0.4
				c-0.5-0.1-0.9-0.4-1.3-0.5c-0.5-0.1-0.8-0.4-1.2-0.5c-0.4-0.1-0.7-0.2-1-0.5c-0.2-0.1-0.5-0.2-0.7-0.4c-0.4-0.1-0.8-0.4-1.1-0.6
				c-8.5-4.1-15.4-10.9-19.7-19.3H95.6c-6.9,0-12.5,5.6-12.5,12.5v18.3c-2.5,0.6-4.6,1.9-6.4,3.8V78.3c0-5.3,2.9-9.8,7.4-12.3
				c-11.2-18.2,1.8-39.3,26.6-39.3c26.1,0,62.7,19.7,66.4,45.4c0,0.2,0,0.5,0.1,0.7l0,0C177.2,73,177.2,73.2,177.2,73.4z"/>
		</g>
		<g>
			<circle style="fill:#0C0C0C;" cx="105.4" cy="117.9" r="5"/>
		</g>
		<g>
			<circle style="fill:#0C0C0C;" cx="148.8" cy="117.9" r="5"/>
		</g>
		<g style="opacity:0.1;">
			<path style="fill:#0C0C0C;" d="M126,156c-11,0-17.6-7.8-17.7-7.9c-0.5-0.6-0.5-1.5,0.2-2.1c0.6-0.5,1.5-0.5,2.1,0.2
				c0.6,0.7,13.1,15.3,33.1-0.2c0.6-0.5,1.5-0.4,2.1,0.2c0.5,0.6,0.4,1.5-0.2,2.1C138,154.1,131.4,156,126,156z"/>
		</g>
	</g>
	<path style="fill:#F7F7F7;" d="M201.2,250.6H54.4c0-14.2-3.1-34.5,3.5-41.8c6.7-7.5,14.3-11.9,23.7-14.9c3.5-1.2,7.3-2.1,11.3-3
		c3.1-0.7,6.2-1.7,9.7-2.3c0.4-0.1,1.1-0.3,1.5-0.4c6.5,7.4,24,9,24,9s18.1,0,22.7-9c0.6,0.2,1.3,0.4,2,0.5c3.2,0.5,6.4,1,9.5,1.6
		c3.9,0.8,7.7,1.7,11.3,2.8c9.5,3,17.7,7.6,23.9,15.7C203.5,216.7,201.2,236.7,201.2,250.6z"/>
	<path style="fill:#7E8435;" d="M82.5,224.3h-6.2c0.2,10-0.4,20.1-3.1,26.3H50.8c0-14.2,0.5-34.5,7.1-41.8c4.8-5.4,10.1-9.1,16.2-12
		c1.6-0.8,3.3-1.4,5-2.1C80.6,201.1,83.1,213.4,82.5,224.3z"/>
	<path style="fill:#7E8435;" d="M159.6,189.8c0.2,0,0.3,0.1,0.5,0.1c-0.8,10.5-5.4,35.2-32.6,35.2c-26.2,0-33.4-23-35.4-34.1
		c0.2,0,0.4-0.1,0.7-0.1c1-0.2,2-0.5,3-0.7c2.1-0.6,4.3-1.2,6.7-1.6c0.4-0.1,1.1-0.3,1.5-0.4c4.8,10,22.5,14.5,22.5,14.5
		c0.1,0,20.2-2,24-14c0,0,0,0,0,0c0.1-0.1,0.1-0.3,0.2-0.4c0,0,0.1,0,0.1,0c0.6,0.2,1.3,0.4,1.9,0.5
		C155.1,189,157.4,189.4,159.6,189.8z"/>
	<path style="fill:#7E8435;" d="M203.6,250.6h-18.9c-1.4-5.6-3.7-15.9-4.7-26.9h-6.3c-0.6-10.8,1.9-23.1,3.4-29.4
		c1.5,0.5,2.9,1.1,4.3,1.8c6.3,2.9,11.7,6.9,16.2,12.7C203.5,216.6,203.6,236.7,203.6,250.6z"/>
	<g>
		<path style="fill:none;stroke:#646624;stroke-width:4;stroke-miterlimit:10;" d="M83.9,97.4c0,0-10.1,82.2,42.4,82.2
			c56.3,0,45.8-83.4,45.8-83.4"/>
		<path style="fill:#646624;" d="M184.1,106.3c-41.5-29.9-80.1-27.9-116.3,0V70.2C67.8,44.2,89,23,115.1,23h21.8
			c26.1,0,47.2,21.1,47.2,47.2V106.3z"/>
		<path style="fill:none;stroke:#7E8435;stroke-width:12;stroke-linecap:round;stroke-linejoin:round;stroke-miterlimit:10;" d="
			M68.5,101.9c0,0,52.6-41.3,115.6,1.2"/>
	</g>
	<path style="fill:#696B29;" d="M191.5,216.6c0,0-4.1-2-5.4-3.6s-4-7.3-9.9-4c-6,3.3,0.5,6.7,2.1,10.4c1.7,3.7-4.4,4.6,4.3,5.7
		c8.8,1.1,10.4,0.4,10.8-1.7C193.7,221.2,191.5,216.6,191.5,216.6z"/>
	<path style="fill:#9E9E5E;" d="M74.5,239.8c0,0-4.1-2-5.4-3.6c-1.3-1.7-4-7.3-9.9-4c-6,3.3,0.5,6.7,2.1,10.4s-4.4,4.6,4.3,5.7
		s10.4,0.4,10.8-1.7C76.7,244.4,74.5,239.8,74.5,239.8z"/>
	<path style="fill:#696B29;" d="M144.8,206.6c0,0-10.3,5.8-12.6,4.3c-2.3-1.5-6.3-6.8-7.6-2c-1.3,4.8-1.1,6.8,4.4,7.9
		c5.5,1.1,0.9,6.1,7.4,3.5c6.4-2.7,7.8-4.9,8.4-6.4C145.4,212.3,151.1,208.2,144.8,206.6z"/>
	<path style="fill:#9E9E5E;" d="M186.1,231.3c-1.3-2.3-11-4.9-9.7-1.4s3.6,6.7-0.1,9.7c-3.7,3-4.6,7,4.9,7.5s12.2-2.4,9.7-5.9
		C188.4,237.6,186.1,231.3,186.1,231.3z"/>
	<path style="fill:#696B29;" d="M75.9,203.8c-0.4,1-7.9-2.1-8.1,2.7c-0.2,4.8,4.6,9.1,4,11.4c-0.6,2.3,3.4,2.8,6,0s5.7-1.6,2.7-5.8
		c-3-4.2-0.7-7.9-1.4-8.4C78.5,203.3,77.5,199.9,75.9,203.8z"/>
	<path style="fill:#9E9E5E;" d="M115.4,216.6c-0.4,1-7.9-2.1-8.1,2.7s4.6,9.1,4,11.4c-0.6,2.3,3.4,2.8,6,0s5.7-1.6,2.7-5.8
		c-3-4.2-0.7-7.9-1.4-8.4C118,216.2,117,212.8,115.4,216.6z"/>
	<path style="fill:#515140;" d="M73.3,250.6c2.6-6.2,3.3-16.4,3.1-26.3h6.2c0.6-10.9-1.9-23.2-3.4-29.6c0.8-0.3,1.6-0.6,2.5-0.9
		c3.3-1.1,6.9-2,10.6-2.8c1.9,11.1,9.1,34.1,35.4,34.1c27.2,0,31.9-24.7,32.6-35.2c0.7,0.1,1.4,0.3,2.2,0.4
		c3.9,0.8,7.7,1.7,11.3,2.8c1.2,0.4,2.3,0.8,3.5,1.2c-1.5,6.4-4,18.7-3.4,29.4h6.3c1,11,3.3,21.3,4.7,26.9H73.3z"/>
</g>
</svg>
