<?xml version="1.0" encoding="utf-8"?>
<!-- Generator: Adobe Illustrator 22.1.0, SVG Export Plug-In . SVG Version: 6.00 Build 0)  -->
<svg version="1.1" id="Layer_1" xmlns="http://www.w3.org/2000/svg" xmlns:xlink="http://www.w3.org/1999/xlink" x="0px" y="0px"
	 viewBox="0 0 256 256" style="enable-background:new 0 0 256 256;" xml:space="preserve">
<g>
	<path style="fill:#FFD473;" d="M200.1,250.6H55.4c0-13.6-4.7-33.6,1.8-40.7c11.2-12,25-15.8,44.8-19.1c0.5-0.1,0.9-0.2,1.2-0.4
		c4.1-1.2,6.9-5,6.9-9.3v-3.6c-15.9-6.6-27-22.1-27-40.4V135c-5.9-1.5-10.2-6.8-10.2-13.1c0-3.6,1.5-7,3.9-9.4c1.7-1.8,4-3,6.4-3.8
		V90.3c0-6.9,5.6-12.5,12.5-12.5h43.3c4.2,8.4,11.2,15.2,19.7,19.3c0.4,0.2,0.7,0.4,1.1,0.6c0.2,0.1,0.5,0.2,0.7,0.4
		c0.4,0.1,0.7,0.4,1,0.5c0.5,0.1,0.8,0.4,1.2,0.5c0.5,0.2,0.9,0.4,1.3,0.5c0.5,0.1,0.8,0.2,1.2,0.4c0.4,0.1,0.6,0.2,0.9,0.2
		c0.4,0.1,0.6,0.1,0.9,0.2c0.1,0,0.2,0,0.2,0.1c0.4,0.1,0.6,0.1,0.9,0.2c0.2,0.1,0.5,0.1,0.7,0.1c0.5,0.1,0.9,0.1,1.3,0.2v7.7
		c2.7,0.5,5.1,1.6,7,3.4c2.7,2.5,4.4,6,4.4,10c0,6.8-5,12.4-11.4,13.4v1.1c0,18.1-10.9,34.2-26.7,41v3.5c0,4.1,2.6,7.7,6.3,9.2
		c0.7,0.2,1.3,0.5,2.1,0.6c18.2,2.7,34.2,6.2,44.7,19.3C202.5,217.4,200.1,237.2,200.1,250.6z"/>
</g>
<g style="opacity:0;">
	<g>
		<g>
			<path style="fill:#4B4351;" d="M177.2,73.4v38.6c-1.9-1.8-4.3-2.9-7-3.4v-7.7c-0.5-0.1-0.9-0.1-1.3-0.2c-0.2,0-0.5-0.1-0.7-0.1
				c-0.4-0.1-0.6-0.1-0.9-0.2c-0.1,0-0.2,0-0.2-0.1c-0.4-0.1-0.6-0.1-0.9-0.2c-0.4-0.1-0.6-0.1-0.9-0.2c-0.5-0.1-0.8-0.2-1.2-0.4
				c-0.5-0.1-0.9-0.4-1.3-0.5c-0.5-0.1-0.8-0.4-1.2-0.5c-0.4-0.1-0.7-0.2-1-0.5c-0.2-0.1-0.5-0.2-0.7-0.4c-0.4-0.1-0.8-0.4-1.1-0.6
				c-8.5-4.1-15.4-10.9-19.7-19.3H95.6c-6.9,0-12.5,5.6-12.5,12.5v18.3c-2.5,0.6-4.6,1.9-6.4,3.8V78.3c0-5.3,2.9-9.8,7.4-12.3
				c-11.2-18.2,1.8-39.3,26.6-39.3c26.1,0,62.7,19.7,66.4,45.4c0,0.2,0,0.5,0.1,0.7l0,0C177.2,73,177.2,73.2,177.2,73.4z"/>
		</g>
		<g>
			<circle style="fill:#0C0C0C;" cx="105.4" cy="117.9" r="5"/>
		</g>
		<g>
			<circle style="fill:#0C0C0C;" cx="148.8" cy="117.9" r="5"/>
		</g>
		<g style="opacity:0.1;">
			<path style="fill:#0C0C0C;" d="M126,156c-11,0-17.6-7.8-17.7-7.9c-0.5-0.6-0.5-1.5,0.2-2.1c0.6-0.5,1.5-0.5,2.1,0.2
				c0.6,0.7,13.1,15.3,33.1-0.2c0.6-0.5,1.5-0.4,2.1,0.2c0.5,0.6,0.4,1.5-0.2,2.1C138,154.1,131.4,156,126,156z"/>
		</g>
	</g>
	<g>
		<path style="fill:#E8E8E8;" d="M202.1,251.5H54.2c0-14.3-3.1-35.4,3.5-42.8c6.7-7.5,14.4-12,23.9-15c3.5-1.2,7.3-2.1,11.4-3
			c1-0.2,2-0.5,3-0.7c2.2-0.6,4.4-1.2,6.8-1.6c0.4-0.1,1.1-0.3,1.5-0.4c4.9,10.1,22.7,14.6,22.7,14.6c0.1,0,20.4-2,24.2-14.1
			c0,0,0,0,0,0c0.1-0.1,0.1-0.3,0.2-0.4c0,0,0.1,0,0.1,0c0.6,0.2,1.3,0.4,2,0.5c2.3,0.3,4.6,0.7,6.9,1.1c0.9,0.2,1.8,0.3,2.7,0.5
			c3.9,0.8,7.8,1.7,11.4,2.8c9.6,3,17.8,7.6,24.1,15.8C204.5,216.6,202.1,237.4,202.1,251.5z"/>
		<polygon style="fill:#565656;" points="118.5,210 124,216.5 120.1,251.4 132.6,251.4 129.3,216.5 135.8,210 126.9,202.4 		"/>
		<g>
			<path style="fill:#24485E;" d="M78.2,72.9h100.9c0,0-11.7,28.1-47,28.5C96.7,101.8,78.2,72.9,78.2,72.9z"/>
			<path style="fill:#24485E;" d="M73.8,71.4L60.3,26.9c45.7-21.5,90.9-23.1,135.5,0l-13,43.8L73.8,71.4z"/>
			<circle style="fill:#EAC347;" cx="128.6" cy="46" r="7.9"/>
			
				<line style="fill:none;stroke:#376282;stroke-width:10;stroke-linecap:round;stroke-linejoin:round;stroke-miterlimit:10;" x1="74.5" y1="72.9" x2="182.8" y2="72.9"/>
		</g>
		<path style="fill:#F4F4F4;" d="M126.9,201.9l-14.4,14.8c0,0-10.9-15.1-10.9-28.3l6.7-1.3C104.6,189.7,115,199.7,126.9,201.9z"/>
		<path style="fill:#376282;" d="M135.8,251.5H54.2c0-14.3-3.1-35.4,3.5-42.8c3.2-3.6,6.6-6.5,10.4-8.8c3.4-2.2,7-3.9,10.9-5.3
			c0.9-0.3,1.7-0.6,2.6-0.9c3.5-1.2,7.3-2.1,11.4-3c1-0.2,8.2-2,8.7-2.2c1.2,6.2,8.4,36.1,12.5,53c1.1,4.5,2,8.1,2.4,10h6.7
			L135.8,251.5z"/>
		<path style="fill:#376282;" d="M202.1,251.5h-66.3c1.8-8.3,14.1-47.8,15.3-63.2c0,0,0,0,0,0c0.1-0.1,0.1-0.3,0.2-0.4
			c0,0,0.1,0,0.1,0c0.6,0.2,1.3,0.4,2,0.5c2.3,0.3,4.6,0.7,6.9,1.1c0.9,0.2,1.8,0.3,2.7,0.5c3.9,0.8,7.8,1.7,11.4,2.8
			c9.6,3,17.8,7.6,24.1,15.8C204.5,216.6,202.1,237.4,202.1,251.5z"/>
		<g>
			<path style="fill:#8E5E25;" d="M123.2,251.5h-16.3C89.5,232,74.7,210.1,68,199.8c3.4-2.2,7-3.9,10.9-5.3
				c6.6,10,19.9,29.4,35.1,46.9c1.1,4.5,2,8.1,2.4,10L123.2,251.5C123.2,251.5,123.2,251.5,123.2,251.5z"/>
		</g>
		<polygon style="fill:#477693;" points="151.3,187.8 167.5,205.5 135.8,251.5 		"/>
		<polygon style="fill:#477693;" points="101.6,188.4 84.9,205.5 116.6,251.5 		"/>
	</g>
</g>
</svg>
