<?xml version="1.0" encoding="utf-8"?>
<!-- Generator: Adobe Illustrator 22.1.0, SVG Export Plug-In . SVG Version: 6.00 Build 0)  -->
<svg version="1.1" id="Layer_1" xmlns="http://www.w3.org/2000/svg" xmlns:xlink="http://www.w3.org/1999/xlink" x="0px" y="0px"
	 viewBox="0 0 256 256" style="enable-background:new 0 0 256 256;" xml:space="preserve">
<g style="opacity:0;">
	<path style="fill:#FFD473;" d="M205.5,250.5H48.1c0-14.8-5.2-36.6,1.9-44.3c12.1-13,27.2-17.1,48.7-20.7c0.5-0.1,0.9-0.2,1.4-0.4
		c4.4-1.3,7.5-5.4,7.5-10.1v-3.9c-17.2-7.1-29.4-24.1-29.4-43.9v-2.5c-6.4-1.6-11.1-7.4-11.1-14.3c0-4,1.6-7.6,4.2-10.3
		c1.9-1.9,4.3-3.3,7-4v-20c0-7.5,6.1-13.6,13.6-13.6H139c4.6,9.1,12.1,16.5,21.3,20.9c0.4,0.2,0.8,0.4,1.2,0.6
		c0.3,0.1,0.5,0.2,0.8,0.3c0.4,0.2,0.7,0.3,1.1,0.5c0.4,0.2,0.9,0.3,1.3,0.5c0.5,0.2,1,0.4,1.5,0.5c0.4,0.1,0.9,0.3,1.3,0.4
		c0.3,0.1,0.7,0.2,1,0.3c0.3,0.1,0.6,0.2,1,0.2c0.1,0,0.2,0.1,0.3,0.1c0.3,0.1,0.7,0.2,1,0.2c0.3,0.1,0.5,0.1,0.8,0.2
		c0.5,0.1,1,0.2,1.4,0.3V96c2.9,0.5,5.6,1.8,7.6,3.7c2.9,2.7,4.8,6.5,4.8,10.8c0,7.3-5.4,13.4-12.4,14.5v1.3
		c0,19.8-11.9,37.2-29,44.6v3.8c0,4.5,2.8,8.4,6.9,10c0.7,0.3,1.4,0.5,2.2,0.6c19.8,2.9,37.2,6.7,48.5,21
		C208,214.4,205.5,236,205.5,250.5z"/>
</g>
<g>
	<g>
		<g>
			<path style="fill:#4B4351;" d="M180.7,57.8v41.9c-2.1-1.9-4.7-3.2-7.6-3.7v-8.4c-0.5-0.1-1-0.2-1.4-0.3c-0.3-0.1-0.5-0.1-0.8-0.2
				c-0.3-0.1-0.7-0.1-1-0.2c-0.1,0-0.2,0-0.3-0.1c-0.3-0.1-0.7-0.2-1-0.2c-0.3-0.1-0.7-0.2-1-0.3c-0.4-0.1-0.9-0.3-1.3-0.4
				c-0.5-0.2-1-0.3-1.5-0.5c-0.5-0.2-0.9-0.3-1.3-0.5c-0.4-0.1-0.7-0.3-1.1-0.5c-0.3-0.1-0.5-0.2-0.8-0.3c-0.4-0.2-0.8-0.4-1.2-0.6
				c-9.2-4.4-16.7-11.8-21.3-20.9H91.9c-7.5,0-13.6,6.1-13.6,13.6v20c-2.7,0.7-5.1,2.1-7,4V63.1c0-5.8,3.3-10.8,8-13.3
				C67.1,29.9,81.2,7,108.2,7c28.4,0,68.2,21.4,72.3,49.3c0,0.2,0.1,0.5,0.1,0.7v0.1C180.7,57.3,180.7,57.5,180.7,57.8z"/>
		</g>
		<g>
			<circle style="fill:#0C0C0C;" cx="102.5" cy="106.1" r="5.4"/>
		</g>
		<g>
			<circle style="fill:#0C0C0C;" cx="149.7" cy="106.1" r="5.4"/>
		</g>
		<g style="opacity:0.1;">
			<path style="fill:#0C0C0C;" d="M124.9,147.7c-11.9,0-19.1-8.4-19.2-8.6c-0.5-0.7-0.4-1.6,0.2-2.2c0.7-0.5,1.6-0.4,2.2,0.2
				c0.6,0.7,14.3,16.7,35.9-0.2c0.7-0.5,1.6-0.4,2.2,0.3c0.5,0.7,0.4,1.6-0.3,2.2C137.9,145.6,130.8,147.7,124.9,147.7z"/>
		</g>
	</g>
	<g>
		<path style="fill:#E8E8E8;" d="M205.2,250.1H47.4c0-15.3-3.3-37.8,3.7-45.7c7.2-8,15.4-12.8,25.5-16.1c3.8-1.2,7.8-2.3,12.1-3.2
			c1.1-0.2,2.1-0.5,3.2-0.8c2.3-0.6,4.7-1.3,7.2-1.7c0.5-0.1,1.1-0.3,1.6-0.5c5.2,10.8,24.2,15.6,24.2,15.6
			c0.1,0,21.8-2.1,25.8-15.1c0,0,0,0,0,0c0.1-0.1,0.2-0.3,0.2-0.5c0,0,0.1,0,0.1,0c0.7,0.2,1.4,0.4,2.1,0.5c2.5,0.4,4.9,0.8,7.3,1.2
			c1,0.2,1.9,0.4,2.9,0.5c4.2,0.8,8.3,1.8,12.1,3c10.2,3.2,19,8.1,25.7,16.9C207.8,212.9,205.2,235.1,205.2,250.1z"/>
		<path style="fill:#474747;" d="M205.2,250.1H47.4c0-15.3-3.3-37.8,3.7-45.7c7.2-8,15.4-12.8,25.5-16.1c3.8-1.2,7.8-2.3,12.1-3.2
			c1.1-0.2,6.3-1.5,6.7-1.6c-3.1,4.6,12.7,57.1,18.4,66.6l20.6,0c4.9-8.9,24.1-62.9,16.3-67.4c0,0,0,0,0,0c0.1-0.1,0.2-0.3,0.2-0.5
			c0,0,0.1,0,0.1,0c0.7,0.2,1.4,0.4,2.1,0.5c2.5,0.4,4.9,0.8,7.3,1.2c1,0.2,1.9,0.4,2.9,0.5c4.2,0.8,8.3,1.8,12.1,3
			c10.2,3.2,19,8.1,25.7,16.9C207.8,212.9,205.2,235.1,205.2,250.1z"/>
		<polygon style="fill:#474747;" points="116,205.8 121.9,212.8 117.7,250 131.1,250 127.6,212.8 134.4,205.8 125,197.8 		"/>
		<path style="fill:#F4F4F4;" d="M125,197.8l9.5,15c0,0,19.2-16.5,23.5-28.8l-11.6-2.9C147.7,183.4,137.6,195.4,125,197.8z"/>
		<path style="fill:#F4F4F4;" d="M125,197.3l-8.7,15.5c0,0-19.8-16.5-24-28.8l12.9-2.5C101.2,184.2,112.3,194.8,125,197.3z"/>
		<path style="fill:#666666;" d="M150.5,182.2c0,0-11.3,53.8-16.1,68.2l31.5-31.7l-12.1-10.1l13-2.4l-7.5-22.3L150.5,182.2z"/>
		<path style="fill:#666666;" d="M98,182c0,0,11.3,54.4,16,68.8l-31-31.7l12.1-10.1L79,208l9.6-22.8L98,182z"/>
	</g>
	<g>
		<path style="fill:#474747;" d="M192.2,49.3l-6.1,9l-3.5,5.1c-37.4-17.5-74.9-17.6-112.7,0l-3.2-4.7L60.1,49
			c-4.4-6.4-4.8-15-0.6-21.5c1.7-2.6,4-4.8,6.8-6.4c22.4-12.8,68.3-29.9,120,0.6c2.1,1.2,3.8,2.8,5.3,4.5
			C197,32.7,197.1,42.2,192.2,49.3z"/>
		<path style="fill:#2D2D2D;" d="M77,59.8c32.7-12.8,65.5-12.8,98.2,0c0,0-16.3,19.9-49,20.2S77,59.8,77,59.8z"/>
		<path style="fill:#FCD73D;" d="M186.1,58.3l-3.5,5.1c-37.4-17.5-74.9-17.6-112.7,0l-3.2-4.7c8-4,29.6-13.3,59.5-13
			C155,45.9,176.9,54.1,186.1,58.3z"/>
		<path style="fill:#FCD73D;" d="M112,22.5c0,0,13.4,4.3,27.7,0c0,0-8.6,11.4-14,11.4C120.3,34,112,22.5,112,22.5z"/>
	</g>
</g>
</svg>
