<?xml version="1.0" encoding="utf-8"?>
<!-- Generator: Adobe Illustrator 22.1.0, SVG Export Plug-In . SVG Version: 6.00 Build 0)  -->
<svg version="1.1" id="Layer_1" xmlns="http://www.w3.org/2000/svg" xmlns:xlink="http://www.w3.org/1999/xlink" x="0px" y="0px"
	 viewBox="0 0 256 256" style="enable-background:new 0 0 256 256;" xml:space="preserve">
<g style="opacity:0;">
	<path style="fill:#FFD473;" d="M200.1,250.6H55.4c0-13.6-4.7-33.6,1.8-40.7c11.2-12,25-15.8,44.8-19.1c0.5-0.1,0.9-0.2,1.2-0.4
		c4.1-1.2,6.9-5,6.9-9.3v-3.6c-15.9-6.6-27-22.1-27-40.4V135c-5.9-1.5-10.2-6.8-10.2-13.1c0-3.6,1.5-7,3.9-9.4c1.7-1.8,4-3,6.4-3.8
		V90.3c0-6.9,5.6-12.5,12.5-12.5h43.3c4.2,8.4,11.2,15.2,19.7,19.3c0.4,0.2,0.7,0.4,1.1,0.6c0.2,0.1,0.5,0.2,0.7,0.4
		c0.4,0.1,0.7,0.4,1,0.5c0.5,0.1,0.8,0.4,1.2,0.5c0.5,0.2,0.9,0.4,1.3,0.5c0.5,0.1,0.8,0.2,1.2,0.4c0.4,0.1,0.6,0.2,0.9,0.2
		c0.4,0.1,0.6,0.1,0.9,0.2c0.1,0,0.2,0,0.2,0.1c0.4,0.1,0.6,0.1,0.9,0.2c0.2,0.1,0.5,0.1,0.7,0.1c0.5,0.1,0.9,0.1,1.3,0.2v7.7
		c2.7,0.5,5.1,1.6,7,3.4c2.7,2.5,4.4,6,4.4,10c0,6.8-5,12.4-11.4,13.4v1.1c0,18.1-10.9,34.2-26.7,41v3.5c0,4.1,2.6,7.7,6.3,9.2
		c0.7,0.2,1.3,0.5,2.1,0.6c18.2,2.7,34.2,6.2,44.7,19.3C202.5,217.4,200.1,237.2,200.1,250.6z"/>
</g>
<g>
	<g>
		<g>
			<path style="fill:#4B4351;" d="M177.2,73.4v38.6c-1.9-1.8-4.3-2.9-7-3.4v-7.7c-0.5-0.1-0.9-0.1-1.3-0.2c-0.2,0-0.5-0.1-0.7-0.1
				c-0.4-0.1-0.6-0.1-0.9-0.2c-0.1,0-0.2,0-0.2-0.1c-0.4-0.1-0.6-0.1-0.9-0.2c-0.4-0.1-0.6-0.1-0.9-0.2c-0.5-0.1-0.8-0.2-1.2-0.4
				c-0.5-0.1-0.9-0.4-1.3-0.5c-0.5-0.1-0.8-0.4-1.2-0.5c-0.4-0.1-0.7-0.2-1-0.5c-0.2-0.1-0.5-0.2-0.7-0.4c-0.4-0.1-0.8-0.4-1.1-0.6
				c-8.5-4.1-15.4-10.9-19.7-19.3H95.6c-6.9,0-12.5,5.6-12.5,12.5v18.3c-2.5,0.6-4.6,1.9-6.4,3.8V78.3c0-5.3,2.9-9.8,7.4-12.3
				c-11.2-18.2,1.8-39.3,26.6-39.3c26.1,0,62.7,19.7,66.4,45.4c0,0.2,0,0.5,0.1,0.7l0,0C177.2,73,177.2,73.2,177.2,73.4z"/>
		</g>
		<g>
			<circle style="fill:#0C0C0C;" cx="105.4" cy="117.9" r="5"/>
		</g>
		<g>
			<circle style="fill:#0C0C0C;" cx="148.8" cy="117.9" r="5"/>
		</g>
		<g style="opacity:0.1;">
			<path style="fill:#0C0C0C;" d="M126,156c-11,0-17.6-7.8-17.7-7.9c-0.5-0.6-0.5-1.5,0.2-2.1c0.6-0.5,1.5-0.5,2.1,0.2
				c0.6,0.7,13.1,15.3,33.1-0.2c0.6-0.5,1.5-0.4,2.1,0.2c0.5,0.6,0.4,1.5-0.2,2.1C138,154.1,131.4,156,126,156z"/>
		</g>
	</g>
	<path style="fill:#76B7E2;" d="M200.3,252.2H53.2c0-14.3-3.1-35.2,3.5-42.6c6.7-7.5,14.4-11.9,23.7-15c3.5-1.2,7.3-2.1,11.3-3
		c1-0.2,2-0.5,3-0.7c2.2-0.6,4.4-1.2,6.7-1.6c0.4-0.1,1.1-0.3,1.5-0.4c4.8,10.1,22.6,14.5,22.6,14.5c0.1,0,20.3-2,24-14.1
		c0,0,0,0,0,0c0.1-0.1,0.1-0.3,0.2-0.4c0,0,0.1,0,0.1,0c0.6,0.2,1.3,0.4,1.9,0.5c2.3,0.3,4.6,0.7,6.8,1.1c0.9,0.2,1.8,0.3,2.7,0.5
		c3.9,0.8,7.7,1.7,11.3,2.8c9.5,3,17.7,7.6,24,15.7C202.7,217.6,200.3,238.3,200.3,252.2z"/>
	<path style="fill:#B6BC46;" d="M200.3,252.2H53.2c0-14.3-3.1-35.2,3.5-42.6c6.7-7.5,14.4-11.9,23.7-15c3.5-1.2,7.3-2.1,11.3-3
		c1-0.2,5.8-1.4,6.3-1.5c-2.9,4.3,11.9,53.2,17.2,62l19.2,0c4.6-8.2,22.5-58.6,15.2-62.8c0,0,0,0,0,0c0.1-0.1,0.1-0.3,0.2-0.4
		c0,0,0.1,0,0.1,0c0.6,0.2,1.3,0.4,1.9,0.5c2.3,0.3,4.6,0.7,6.8,1.1c0.9,0.2,1.8,0.3,2.7,0.5c3.9,0.8,7.7,1.7,11.3,2.8
		c9.5,3,17.7,7.6,24,15.7C202.7,217.6,200.3,238.3,200.3,252.2z"/>
	<path style="fill:#AAAA3C;" d="M149.3,189c0,0-10.5,50.1-15,63.5l29.3-29.6l-11.3-9.4l12.1-2.3l-7-20.8L149.3,189z"/>
	<path style="fill:#AAAA3C;" d="M100.4,188.7c0,0,10.5,50.7,15,64.1l-28.8-29.6l11.3-9.4l-15-0.9l9-21.2L100.4,188.7z"/>
	<g>
		<path style="fill:#B6BC46;" d="M190.7,55.1c0,12.1-29.1,28.7-65,28.7S60.9,67.2,60.9,55.1s29.1-21.9,64.9-21.9
			S190.7,43,190.7,55.1z"/>
		<path style="fill:#ADAD3D;" d="M167.7,46.7c0,3.3-17.1,12.3-40,12.3c-22.9,0-43-8.9-43-12.3l0.5-4.1c7.9,3.8,24.3,8.4,42.3,8.4
			c18,0,32.7-4.6,39.7-8.4L167.7,46.7z"/>
		<path style="fill:#B6BC46;" d="M167.2,42.5c-7,3.8-21.7,8.4-39.7,8.4c-18,0-34.4-4.6-42.3-8.4l3.4-29c0-3.3,16.8-6,37.6-6
			c20.8,0,37.6,2.7,37.6,6L167.2,42.5z"/>
	</g>
	<rect x="175.6" y="211.7" style="fill:#F9D153;" width="30.4" height="40.8"/>
	
		<line style="fill:none;stroke:#E8BD46;stroke-width:2;stroke-linecap:round;stroke-linejoin:round;stroke-miterlimit:10;" x1="179" y1="211.3" x2="179" y2="213.6"/>
	
		<line style="fill:none;stroke:#E8BD46;stroke-width:2;stroke-linecap:round;stroke-linejoin:round;stroke-miterlimit:10;" x1="183.1" y1="211.3" x2="183.1" y2="213.6"/>
	
		<line style="fill:none;stroke:#E8BD46;stroke-width:2;stroke-linecap:round;stroke-linejoin:round;stroke-miterlimit:10;" x1="186.7" y1="211.3" x2="186.7" y2="213.6"/>
	
		<line style="fill:none;stroke:#E8BD46;stroke-width:2;stroke-linecap:round;stroke-linejoin:round;stroke-miterlimit:10;" x1="190.8" y1="211.3" x2="190.8" y2="213.6"/>
	
		<line style="fill:none;stroke:#E8BD46;stroke-width:2;stroke-linecap:round;stroke-linejoin:round;stroke-miterlimit:10;" x1="194.9" y1="211.3" x2="194.9" y2="213.6"/>
	
		<line style="fill:none;stroke:#E8BD46;stroke-width:2;stroke-linecap:round;stroke-linejoin:round;stroke-miterlimit:10;" x1="199" y1="211.3" x2="199" y2="213.6"/>
	
		<line style="fill:none;stroke:#E8BD46;stroke-width:2;stroke-linecap:round;stroke-linejoin:round;stroke-miterlimit:10;" x1="203" y1="211.3" x2="203" y2="213.6"/>
	
		<line style="fill:none;stroke:#E8BD46;stroke-width:2;stroke-linejoin:round;stroke-miterlimit:10;" x1="178.4" y1="223.9" x2="203" y2="223.9"/>
	
		<line style="fill:none;stroke:#E8BD46;stroke-width:2;stroke-linejoin:round;stroke-miterlimit:10;" x1="178.4" y1="228.6" x2="192.7" y2="228.6"/>
	<line style="fill:none;stroke:#FFA05F;stroke-width:3;stroke-miterlimit:10;" x1="211.7" y1="214.3" x2="197.6" y2="241.3"/>
	<line style="fill:none;stroke:#3D3D3D;stroke-width:3;stroke-miterlimit:10;" x1="210.6" y1="216.3" x2="197.6" y2="241.3"/>
	<polygon style="fill:#686868;" points="196.4,240.6 195.8,243.9 198.9,242 	"/>
</g>
</svg>
