<?xml version="1.0" encoding="utf-8"?>
<!-- Generator: Adobe Illustrator 22.1.0, SVG Export Plug-In . SVG Version: 6.00 Build 0)  -->
<svg version="1.1" id="Layer_1" xmlns="http://www.w3.org/2000/svg" xmlns:xlink="http://www.w3.org/1999/xlink" x="0px" y="0px"
	 viewBox="0 0 256 256" style="enable-background:new 0 0 256 256;" xml:space="preserve">
<g>
	<path style="fill:#FFD473;" d="M191.9,250.5H64.2c0-12-4.2-29.7,1.6-35.9c9.8-10.6,22.1-13.9,39.5-16.8c0.4-0.1,0.8-0.2,1.1-0.3
		c3.6-1.1,6.1-4.4,6.1-8.2v-3.2c-14-5.8-23.8-19.5-23.8-35.6v-2c-5.2-1.3-9-6-9-11.6c0-3.2,1.3-6.2,3.4-8.3c1.5-1.6,3.5-2.7,5.7-3.3
		v-16.2c0-6.1,4.9-11,11-11h38.2c3.7,7.4,9.8,13.4,17.3,17c0.3,0.2,0.6,0.3,1,0.5c0.2,0.1,0.4,0.2,0.6,0.3c0.3,0.1,0.6,0.3,0.9,0.4
		c0.4,0.1,0.7,0.3,1.1,0.4c0.4,0.2,0.8,0.3,1.2,0.4c0.4,0.1,0.7,0.2,1.1,0.3c0.3,0.1,0.5,0.2,0.8,0.2c0.3,0.1,0.5,0.1,0.8,0.2
		c0.1,0,0.2,0,0.2,0.1c0.3,0.1,0.5,0.1,0.8,0.2c0.2,0.1,0.4,0.1,0.6,0.1c0.4,0.1,0.8,0.1,1.2,0.2v6.8c2.4,0.4,4.5,1.4,6.2,3
		c2.4,2.2,3.9,5.3,3.9,8.8c0,6-4.4,10.9-10.1,11.8v1c0,16-9.6,30.2-23.6,36.2v3.1c0,3.6,2.3,6.8,5.6,8.1c0.6,0.2,1.2,0.4,1.8,0.5
		c16.1,2.4,30.2,5.5,39.4,17C194,221.2,191.9,238.7,191.9,250.5z"/>
</g>
<g style="opacity:0;">
	<g>
		<g>
			<path style="fill:#4B4351;" d="M171.7,94.2v34c-1.7-1.6-3.8-2.6-6.2-3v-6.8c-0.4-0.1-0.8-0.1-1.2-0.2c-0.2,0-0.4-0.1-0.6-0.1
				c-0.3-0.1-0.5-0.1-0.8-0.2c-0.1,0-0.2,0-0.2-0.1c-0.3-0.1-0.5-0.1-0.8-0.2c-0.3-0.1-0.5-0.1-0.8-0.2c-0.4-0.1-0.7-0.2-1.1-0.3
				c-0.4-0.1-0.8-0.3-1.2-0.4c-0.4-0.1-0.7-0.3-1.1-0.4c-0.3-0.1-0.6-0.2-0.9-0.4c-0.2-0.1-0.4-0.2-0.6-0.3c-0.3-0.1-0.7-0.3-1-0.5
				c-7.5-3.6-13.6-9.6-17.3-17H99.7c-6.1,0-11,4.9-11,11v16.2c-2.2,0.5-4.1,1.7-5.7,3.3V98.5c0-4.7,2.6-8.7,6.5-10.8
				C79.6,71.6,91.1,53,113,53c23,0,55.3,17.4,58.6,40c0,0.2,0,0.4,0.1,0.6v0C171.7,93.8,171.7,94,171.7,94.2z"/>
		</g>
		<g>
			<circle style="fill:#0C0C0C;" cx="108.3" cy="133.4" r="4.4"/>
		</g>
		<g>
			<circle style="fill:#0C0C0C;" cx="146.7" cy="133.4" r="4.4"/>
		</g>
		<g style="opacity:0.1;">
			<path style="fill:#0C0C0C;" d="M126.5,167.1c-9.7,0-15.5-6.9-15.6-7c-0.4-0.5-0.4-1.3,0.2-1.8c0.5-0.4,1.3-0.4,1.8,0.2
				c0.5,0.6,11.6,13.5,29.2-0.2c0.5-0.4,1.3-0.3,1.8,0.2c0.4,0.5,0.3,1.3-0.2,1.8C137.1,165.4,131.3,167.1,126.5,167.1z"/>
		</g>
	</g>
	<g>
		<path style="fill:#E8E8E8;" d="M192.7,250H63.1c0-12.6-2.7-31,3.1-37.5c5.9-6.6,12.7-10.5,20.9-13.2c3.1-1,6.4-1.9,10-2.6
			c0.9-0.2,1.8-0.4,2.6-0.7c1.9-0.5,3.8-1,5.9-1.4c0.4-0.1,0.9-0.3,1.3-0.4c4.3,8.9,19.9,12.8,19.9,12.8c0.1,0,17.9-1.7,21.2-12.4
			c0,0,0,0,0,0c0.1-0.1,0.1-0.3,0.2-0.4c0,0,0.1,0,0.1,0c0.5,0.2,1.1,0.3,1.7,0.4c2,0.3,4,0.6,6,1c0.8,0.1,1.6,0.3,2.4,0.4
			c3.5,0.7,6.8,1.5,10,2.5c8.4,2.6,15.6,6.7,21.1,13.9C194.8,219.4,192.7,237.7,192.7,250z"/>
		<path style="fill:#333333;" d="M192.7,250H63.1c0-12.6-2.7-31,3.1-37.5c5.9-6.6,12.7-10.5,20.9-13.2c3.1-1,6.4-1.9,10-2.6
			c0.9-0.2,5.2-1.2,5.5-1.3c-2.6,3.7,10.5,46.9,15.1,54.6l16.9,0c4-7.3,19.8-51.6,13.4-55.3c0,0,0,0,0,0c0.1-0.1,0.1-0.3,0.2-0.4
			c0,0,0.1,0,0.1,0c0.5,0.2,1.1,0.3,1.7,0.4c2,0.3,4,0.6,6,1c0.8,0.1,1.6,0.3,2.4,0.4c3.5,0.7,6.8,1.5,10,2.5
			c8.4,2.6,15.6,6.7,21.1,13.9C194.8,219.4,192.7,237.7,192.7,250z"/>
		<polygon style="fill:#333333;" points="119.5,213.6 124.3,219.3 120.9,249.9 131.8,249.9 128.9,219.3 134.6,213.6 126.8,207 		"/>
		<path style="fill:#F4F4F4;" d="M126.8,207l7.8,12.3c0,0,15.8-13.6,19.3-23.7l-9.6-2.4C145.4,195.2,137.2,205,126.8,207z"/>
		<path style="fill:#F4F4F4;" d="M126.8,206.6l-7.1,12.7c0,0-16.2-13.6-19.7-23.6l10.6-2.1C107.3,195.9,116.4,204.6,126.8,206.6z"/>
		<path style="fill:#666666;" d="M147.8,194.2c0,0-9.3,44.1-13.2,56l25.9-26.1l-9.9-8.3l10.7-2l-6.1-18.3L147.8,194.2z"/>
		<path style="fill:#666666;" d="M104.7,194c0,0,9.3,44.7,13.2,56.5l-25.4-26.1l9.9-8.3l-13.2-0.8l7.9-18.7L104.7,194z"/>
		<line style="fill:none;stroke:#636363;stroke-width:7;stroke-miterlimit:10;" x1="177.3" y1="246" x2="208.9" y2="168.1"/>
		<line style="fill:none;stroke:#1E1E1E;stroke-width:7;stroke-miterlimit:10;" x1="177.3" y1="246" x2="205" y2="177.6"/>
		<g>
			<polygon style="fill:#1E1E1E;" points="86,91.6 86.1,9.7 172.2,9.7 172.2,91.6 			"/>
			<g>
				<rect x="86" y="85" style="fill:#F7D134;" width="86.2" height="9.2"/>
			</g>
			<g>
				<rect x="72.7" y="93.1" style="fill:#1E1E1E;" width="112.9" height="9.2"/>
			</g>
		</g>
	</g>
</g>
</svg>
