<?xml version="1.0" encoding="utf-8"?>
<!-- Generator: Adobe Illustrator 22.1.0, SVG Export Plug-In . SVG Version: 6.00 Build 0)  -->
<svg version="1.1" id="Layer_1" xmlns="http://www.w3.org/2000/svg" xmlns:xlink="http://www.w3.org/1999/xlink" x="0px" y="0px"
	 viewBox="0 0 256 256" style="enable-background:new 0 0 256 256;" xml:space="preserve">
<g style="opacity:0;">
	<path style="fill:#FFD473;" d="M203.8,250.5H52.3c0-14.3-5-35.3,1.9-42.6c11.7-12.5,26.2-16.5,46.8-19.9c0.5-0.1,0.9-0.2,1.3-0.3
		c4.3-1.3,7.3-5.2,7.3-9.8v-3.8c-16.6-6.8-28.3-23.2-28.3-42.2v-2.4c-6.2-1.5-10.7-7.1-10.7-13.8c0-3.8,1.5-7.3,4-9.9
		c1.8-1.9,4.1-3.2,6.7-3.9V82.7c0-7.2,5.9-13.1,13.1-13.1h45.4c4.4,8.8,11.7,15.9,20.5,20.1c0.4,0.2,0.8,0.4,1.2,0.5
		c0.3,0.1,0.5,0.2,0.8,0.3c0.3,0.2,0.7,0.3,1.1,0.5c0.4,0.2,0.8,0.3,1.3,0.5c0.5,0.2,0.9,0.3,1.4,0.5c0.4,0.1,0.8,0.3,1.3,0.4
		c0.3,0.1,0.6,0.2,1,0.3c0.3,0.1,0.6,0.2,0.9,0.2c0.1,0,0.2,0.1,0.3,0.1c0.3,0.1,0.6,0.2,1,0.2c0.3,0.1,0.5,0.1,0.7,0.2
		c0.5,0.1,0.9,0.2,1.4,0.3v8.1c2.8,0.5,5.3,1.7,7.4,3.6c2.8,2.6,4.6,6.3,4.6,10.4c0,7.1-5.2,12.9-11.9,14v1.2
		c0,19-11.4,35.8-28,42.9v3.6c0,4.3,2.7,8.1,6.6,9.6c0.7,0.3,1.4,0.4,2.1,0.5c19,2.8,35.8,6.5,46.7,20.2
		C206.3,215.7,203.8,236.5,203.8,250.5z"/>
</g>
<g>
	<g>
		<g>
			<path style="fill:#4B4351;" d="M179.9,65v40.3c-2-1.9-4.5-3.1-7.4-3.6v-8.1c-0.5-0.1-0.9-0.2-1.4-0.3c-0.3,0-0.5-0.1-0.7-0.2
				c-0.3-0.1-0.7-0.1-1-0.2c-0.1,0-0.2,0-0.3-0.1c-0.3-0.1-0.6-0.1-0.9-0.2c-0.3-0.1-0.6-0.2-1-0.3c-0.4-0.1-0.9-0.3-1.3-0.4
				c-0.5-0.2-1-0.3-1.4-0.5c-0.4-0.2-0.9-0.3-1.3-0.5c-0.4-0.1-0.7-0.3-1.1-0.5c-0.3-0.1-0.5-0.2-0.8-0.3c-0.4-0.2-0.8-0.4-1.2-0.5
				c-8.9-4.3-16.1-11.4-20.5-20.1H94.4c-7.2,0-13.1,5.9-13.1,13.1V102c-2.6,0.6-4.9,2-6.7,3.9V70.1c0-5.5,3.1-10.3,7.7-12.8
				c-11.8-19.2,1.9-41.2,27.9-41.2c27.3,0,65.7,20.6,69.6,47.5c0,0.2,0,0.4,0.1,0.7v0C179.9,64.5,179.9,64.7,179.9,65z"/>
		</g>
		<g>
			<circle style="fill:#0C0C0C;" cx="104.6" cy="111.5" r="5.2"/>
		</g>
		<g>
			<circle style="fill:#0C0C0C;" cx="150.1" cy="111.5" r="5.2"/>
		</g>
		<g style="opacity:0.1;">
			<path style="fill:#0C0C0C;" d="M126.2,151.5c-11.5,0-18.4-8.1-18.5-8.3c-0.5-0.6-0.4-1.6,0.2-2.1c0.6-0.5,1.6-0.4,2.1,0.2
				c0.6,0.7,13.8,16.1,34.6-0.2c0.7-0.5,1.6-0.4,2.1,0.3c0.5,0.6,0.4,1.6-0.3,2.1C138.7,149.5,131.9,151.5,126.2,151.5z"/>
		</g>
	</g>
	<g>
		<g>
			<path style="fill:none;stroke:#0C0C0C;stroke-width:3;stroke-linecap:round;stroke-linejoin:round;stroke-miterlimit:10;" d="
				M108.7,121.9c-6.2,0.7-9.7,0.7-15.9-0.7c-1-0.2-1.9-0.9-2.3-1.8c-2.1-4.3-2.8-10.3-1.8-14.8c0.3-1.4,1.5-2.4,2.9-2.5
				c8.8-0.9,17.5-0.6,26,1.2c1.5,0.3,2.6,1.7,2.6,3.2c0,2.9-0.7,5.8-1.7,8.2C116.9,118.6,113.1,121.4,108.7,121.9z"/>
			<path style="fill:none;stroke:#0C0C0C;stroke-width:3;stroke-linecap:round;stroke-linejoin:round;stroke-miterlimit:10;" d="
				M145.3,121.9c6.3,0.6,9.7,0.6,15.9-0.9c1-0.2,1.9-0.9,2.3-1.8c2.1-4.4,2.7-10.3,1.7-14.9c-0.3-1.4-1.5-2.4-2.9-2.5
				c-8.8-0.8-17.5-0.4-26,1.4c-1.5,0.3-2.6,1.7-2.6,3.2c0,2.9,0.8,5.7,1.8,8.2C137.1,118.7,140.9,121.5,145.3,121.9z"/>
			
				<line style="fill:none;stroke:#0C0C0C;stroke-width:3;stroke-linecap:round;stroke-linejoin:round;stroke-miterlimit:10;" x1="172.6" y1="100.7" x2="165.7" y2="105.4"/>
			
				<line style="fill:none;stroke:#0C0C0C;stroke-width:3;stroke-linecap:round;stroke-linejoin:round;stroke-miterlimit:10;" x1="81.3" y1="100.7" x2="88.2" y2="105.4"/>
			<path style="fill:none;stroke:#0C0C0C;stroke-width:3;stroke-linecap:round;stroke-linejoin:round;stroke-miterlimit:10;" d="
				M120.9,106.9c0,0,7.7-1.3,12.4,0"/>
		</g>
		<g>
			<path style="fill:#32BFB5;" d="M203.8,250.5H50.6c0-14.8-3.2-36.7,3.6-44.3c11.7-13,26.2-17.1,46.8-20.7c0.5-0.1,0.9-0.2,1.3-0.3
				l25.1,42.2l23.8-42.8c0.7,0.3,1.4,0.5,2.1,0.6c19,2.9,35.8,6.8,46.7,21C206.3,214.4,203.8,235.9,203.8,250.5z"/>
			<path style="fill:#32BFB5;" d="M74.2,75.4c0,0,47.3-45,105.5,0c1.7-16-1.3-38.5-13.5-59.5c0,0-29.8-21.5-78.5-2.5
				C87.8,13.4,73.9,26.9,74.2,75.4z"/>
			<path style="fill:#FFFFFF;" d="M151.8,145.7v12.1c3.7-0.3,11-2.5,14.5-3.5c-1.7,3.1-2.5,4.2-4.9,7c-0.8,0.1-8.7,2.2-9.6,2.2v0.2
				c-16.5,3.8-33,3.8-49.5,0v-0.2c-0.9,0-8.3-0.7-9.7-1.6c-2.3-2.3-3.1-3.7-4.7-6.5c3.5,1,10.6,2.1,14.4,2.4v-12.1
				c-7.4-0.4-14.1-2.8-20.3-6c-0.3-1.9-0.5-3.9-0.5-5.7c6.7,2.9,13.1,5.4,20.8,6v-0.2c16.5-2.8,33-2.8,49.5,0v0.2
				c7.8-0.6,13.9-2.6,20.6-5.6c0,1.8-0.1,3.6-0.7,5.5C165.5,143.2,159.3,145.3,151.8,145.7z"/>
		</g>
	</g>
</g>
</svg>
