<?xml version="1.0" encoding="utf-8"?>
<!-- Generator: Adobe Illustrator 22.1.0, SVG Export Plug-In . SVG Version: 6.00 Build 0)  -->
<svg version="1.1" id="Layer_1" xmlns="http://www.w3.org/2000/svg" xmlns:xlink="http://www.w3.org/1999/xlink" x="0px" y="0px"
	 viewBox="0 0 256 256" style="enable-background:new 0 0 256 256;" xml:space="preserve">
<g style="opacity:0;">
	<path style="fill:#FFD473;" d="M188.2,250.6H67.8c0-11.4-4-28,1.5-33.9c9.3-10,20.8-13.1,37.2-15.8c0.4-0.1,0.7-0.2,1.1-0.3
		c3.4-1,5.8-4.2,5.8-7.8v-3c-13.2-5.4-22.5-18.4-22.5-33.6v-1.9c-4.9-1.2-8.5-5.7-8.5-10.9c0-3.1,1.2-5.8,3.2-7.8
		c1.4-1.5,3.3-2.6,5.3-3.1v-15.3c0-5.8,4.7-10.4,10.4-10.4h36.1c3.5,7,9.3,12.6,16.3,16c0.3,0.2,0.6,0.3,0.9,0.4
		c0.2,0.1,0.4,0.2,0.6,0.3c0.3,0.1,0.6,0.2,0.8,0.4c0.3,0.1,0.7,0.3,1,0.4c0.4,0.1,0.7,0.3,1.1,0.4c0.3,0.1,0.7,0.2,1,0.3
		c0.3,0.1,0.5,0.2,0.8,0.2c0.2,0.1,0.5,0.1,0.7,0.2c0.1,0,0.1,0,0.2,0c0.3,0.1,0.5,0.1,0.8,0.2c0.2,0,0.4,0.1,0.6,0.1
		c0.4,0.1,0.7,0.1,1.1,0.2v6.4c2.2,0.4,4.3,1.4,5.9,2.8c2.2,2.1,3.6,5,3.6,8.3c0,5.6-4.1,10.3-9.5,11.1v1c0,15.1-9.1,28.5-22.2,34.1
		v2.9c0,3.4,2.1,6.4,5.2,7.6c0.5,0.2,1.1,0.3,1.7,0.4c15.1,2.2,28.5,5.2,37.1,16.1C190.1,223,188.2,239.4,188.2,250.6z"/>
</g>
<g>
	<g>
		<g>
			<path style="fill:#4B4351;" d="M169.2,103.1v32.1c-1.6-1.5-3.6-2.5-5.9-2.8v-6.4c-0.4-0.1-0.7-0.1-1.1-0.2
				c-0.2,0-0.4-0.1-0.6-0.1c-0.3,0-0.5-0.1-0.8-0.2c-0.1,0-0.1,0-0.2,0c-0.3-0.1-0.5-0.1-0.7-0.2c-0.3-0.1-0.5-0.1-0.8-0.2
				c-0.3-0.1-0.7-0.2-1-0.3c-0.4-0.1-0.8-0.2-1.1-0.4c-0.3-0.1-0.7-0.3-1-0.4c-0.3-0.1-0.6-0.2-0.8-0.4c-0.2-0.1-0.4-0.2-0.6-0.3
				c-0.3-0.1-0.6-0.3-0.9-0.4c-7-3.4-12.8-9.1-16.3-16h-36.1c-5.8,0-10.4,4.7-10.4,10.4v15.3c-2.1,0.5-3.9,1.6-5.3,3.1v-28.4
				c0-4.4,2.5-8.2,6.1-10.2c-9.3-15.2,1.5-32.8,22.1-32.8c21.7,0,52.2,16.4,55.3,37.7c0,0.2,0,0.3,0.1,0.5v0
				C169.2,102.7,169.2,102.9,169.2,103.1z"/>
		</g>
		<g>
			<circle style="fill:#0C0C0C;" cx="109.4" cy="140.1" r="4.2"/>
		</g>
		<g>
			<circle style="fill:#0C0C0C;" cx="145.5" cy="140.1" r="4.2"/>
		</g>
		<g style="opacity:0.1;">
			<path style="fill:#0C0C0C;" d="M126.5,171.9c-9.1,0-14.6-6.5-14.7-6.6c-0.4-0.5-0.3-1.2,0.2-1.7c0.5-0.4,1.2-0.3,1.7,0.2
				c0.5,0.5,10.9,12.8,27.5-0.2c0.5-0.4,1.3-0.3,1.7,0.2c0.4,0.5,0.3,1.3-0.2,1.7C136.5,170.3,131,171.9,126.5,171.9z"/>
		</g>
	</g>
	<g>
		<path style="fill:#F7F7F7;" d="M185.9,47.1c0,12.4-8.5,22.8-20.1,25.7l5.3,35H81.8l5.3-35c-11.5-2.9-20-13.3-20-25.7
			c0-14.7,11.9-26.5,26.5-26.5c4.9,0,9.5,1.3,13.4,3.7c1.5-9.4,9.6-16.6,19.5-16.6c9.8,0,18,7.2,19.5,16.6c3.9-2.3,8.5-3.7,13.4-3.7
			C174,20.6,185.9,32.4,185.9,47.1z"/>
		<path style="fill:#333333;" d="M129.6,207.6V203c0,0,13.5-0.8,16.9-4.4C146.5,198.6,142.4,208.9,129.6,207.6z"/>
		<path style="fill:#333333;" d="M124.9,207.6V203c0,0-13.5-0.8-16.9-4.4C108,198.6,112.1,208.9,124.9,207.6z"/>
		<path style="fill:#F7F7F7;" d="M188,250.6H67.1c0-11.7-2.5-28.9,2.9-35c5.5-6.2,11.8-9.8,19.5-12.3c2.9-1,6-1.8,9.3-2.5
			c2.6-0.6,5.1-1.4,8-1.9c0.4-0.1,0.9-0.2,1.2-0.3c5.4,6.1,19.8,7.4,19.8,7.4s14.9,0,18.7-7.4c0.5,0.2,1.1,0.4,1.7,0.4
			c2.7,0.4,5.3,0.8,7.8,1.3c3.2,0.6,6.3,1.4,9.3,2.3c7.8,2.4,14.6,6.2,19.7,12.9C189.9,222.1,188,239.1,188,250.6z"/>
	</g>
</g>
</svg>
