<?xml version="1.0" encoding="utf-8"?>
<!-- Generator: Adobe Illustrator 22.1.0, SVG Export Plug-In . SVG Version: 6.00 Build 0)  -->
<svg version="1.1" id="Layer_1" xmlns="http://www.w3.org/2000/svg" xmlns:xlink="http://www.w3.org/1999/xlink" x="0px" y="0px"
	 viewBox="0 0 256 256" style="enable-background:new 0 0 256 256;" xml:space="preserve">
<g>
	<path style="fill:#FFD473;" d="M191.9,250.5H64.2c0-12-4.2-29.7,1.6-35.9c9.8-10.6,22.1-13.9,39.5-16.8c0.4-0.1,0.8-0.2,1.1-0.3
		c3.6-1.1,6.1-4.4,6.1-8.2v-3.2c-14-5.8-23.8-19.5-23.8-35.6v-2c-5.2-1.3-9-6-9-11.6c0-3.2,1.3-6.2,3.4-8.3c1.5-1.6,3.5-2.7,5.7-3.3
		v-16.2c0-6.1,4.9-11,11-11h38.2c3.7,7.4,9.8,13.4,17.3,17c0.3,0.2,0.6,0.3,1,0.5c0.2,0.1,0.4,0.2,0.6,0.3c0.3,0.1,0.6,0.3,0.9,0.4
		c0.4,0.1,0.7,0.3,1.1,0.4c0.4,0.2,0.8,0.3,1.2,0.4c0.4,0.1,0.7,0.2,1.1,0.3c0.3,0.1,0.5,0.2,0.8,0.2c0.3,0.1,0.5,0.1,0.8,0.2
		c0.1,0,0.2,0,0.2,0.1c0.3,0.1,0.5,0.1,0.8,0.2c0.2,0.1,0.4,0.1,0.6,0.1c0.4,0.1,0.8,0.1,1.2,0.2v6.8c2.4,0.4,4.5,1.4,6.2,3
		c2.4,2.2,3.9,5.3,3.9,8.8c0,6-4.4,10.9-10.1,11.8v1c0,16-9.6,30.2-23.6,36.2v3.1c0,3.6,2.3,6.8,5.6,8.1c0.6,0.2,1.2,0.4,1.8,0.5
		c16.1,2.4,30.2,5.5,39.4,17C194,221.2,191.9,238.7,191.9,250.5z"/>
</g>
<g style="opacity:0;">
	<g>
		<g>
			<path style="fill:#F95D43;" d="M126.8,167.1c-10,0-16-7.1-16-7.2c-0.5-0.5-0.4-1.4,0.2-1.8c0.5-0.5,1.4-0.4,1.8,0.2
				c0.5,0.6,12,14,30.1-0.2c0.6-0.4,1.4-0.3,1.8,0.2c0.4,0.6,0.3,1.4-0.2,1.8C137.7,165.4,131.7,167.1,126.8,167.1z"/>
		</g>
		<g>
			<circle style="fill:#F95D43;" cx="127.3" cy="144.5" r="6.3"/>
		</g>
		<g>
			<path style="fill:#FFFFFF;" d="M153.1,132.4c0,3.4-6.1,11.1-6.1,11.1s-6.1-7.7-6.1-11.1s6.1-11.1,6.1-11.1S153.1,129,153.1,132.4
				z"/>
		</g>
		<g>
			<path style="fill:#FFFFFF;" d="M114.2,132.4c0,3.4-6.1,11.1-6.1,11.1s-6.1-7.7-6.1-11.1s6.1-11.1,6.1-11.1S114.2,129,114.2,132.4
				z"/>
		</g>
		<g>
			<path style="fill:#4B4351;" d="M171.7,94.2v34c-1.7-1.6-3.8-2.6-6.2-3v-6.8c-0.4-0.1-0.8-0.1-1.2-0.2c-0.2,0-0.4-0.1-0.6-0.1
				c-0.3-0.1-0.5-0.1-0.8-0.2c-0.1,0-0.2,0-0.2-0.1c-0.3-0.1-0.5-0.1-0.8-0.2c-0.3-0.1-0.5-0.1-0.8-0.2c-0.4-0.1-0.7-0.2-1.1-0.3
				c-0.4-0.1-0.8-0.3-1.2-0.4c-0.4-0.1-0.7-0.3-1.1-0.4c-0.3-0.1-0.6-0.2-0.9-0.4c-0.2-0.1-0.4-0.2-0.6-0.3c-0.3-0.1-0.7-0.3-1-0.5
				c-7.5-3.6-13.6-9.6-17.3-17H99.7c-6.1,0-11,4.9-11,11v16.2c-2.2,0.5-4.1,1.7-5.7,3.3V98.5c0-4.7,2.6-8.7,6.5-10.8
				C79.6,71.6,91.1,53,113,53c23,0,55.3,17.4,58.6,40c0,0.2,0,0.4,0.1,0.6v0C171.7,93.8,171.7,94,171.7,94.2z"/>
		</g>
		<g>
			<circle style="fill:#0C0C0C;" cx="108.3" cy="133.4" r="4.4"/>
		</g>
		<g>
			<circle style="fill:#0C0C0C;" cx="146.7" cy="133.4" r="4.4"/>
		</g>
		<g style="opacity:0.1;">
			<path style="fill:#0C0C0C;" d="M126.5,167.1c-9.7,0-15.5-6.9-15.6-7c-0.4-0.5-0.4-1.3,0.2-1.8c0.5-0.4,1.3-0.4,1.8,0.2
				c0.5,0.6,11.6,13.5,29.2-0.2c0.5-0.4,1.3-0.3,1.8,0.2c0.4,0.5,0.3,1.3-0.2,1.8C137.1,165.4,131.3,167.1,126.5,167.1z"/>
		</g>
	</g>
	<g>
		<path style="fill:#71D13F;" d="M192.3,250.5H62.7c0-12.6-2.7-31,3-37.5c5.9-6.6,12.7-10.5,20.9-13.2c0.4-0.1,0.7-0.2,1.1-0.3
			c2.7-0.9,5.7-1.6,8.7-2.3c0,0,0.1,0,0.2,0c0.9-0.2,1.8-0.4,2.6-0.7c1.9-0.5,3.8-1,5.9-1.4c0.4-0.1,0.9-0.3,1.3-0.4
			c4.3,8.9,19.9,12.8,19.9,12.8c0.1,0,17.9-1.7,21.2-12.4c0,0,0,0,0,0c0.1-0.1,0.1-0.3,0.2-0.4c0,0,0.1,0,0.1,0
			c0.5,0.2,1.1,0.3,1.7,0.5c2,0.3,4,0.6,6,1c0.8,0.1,1.6,0.3,2.4,0.5c0.1,0,0.1,0,0.2,0c3,0.6,5.9,1.3,8.7,2.1
			c0.4,0.1,0.7,0.2,1.1,0.3c8.4,2.6,15.6,6.7,21.1,13.9C194.4,220,192.3,238.2,192.3,250.5z"/>
		<path style="fill:#5FB52D;" d="M166.9,198.8v51.7h-8.7v-53.8C161.2,197.3,164.1,198,166.9,198.8z"/>
		<path style="fill:#5FB52D;" d="M96.4,197.2v53.3h-8.7v-51C90.5,198.6,93.4,197.9,96.4,197.2z"/>
		<g>
			<path style="fill:#71D13F;" d="M136.2,68.6c0,0-2.9-16.5,50.3-29.4c0,0-17.6,17.5-10.4,49.8h-39.9
				C136.2,89,134.9,75.9,136.2,68.6z"/>
			<path style="fill:#71D13F;" d="M118.7,68.6c0,0-1.4-16.5-54.7-29.4c0,0,21.1,19.7,14.8,49.8h39.9C118.7,89,120.1,75.9,118.7,68.6
				z"/>
			<path style="fill:#F95D43;" d="M105.9,90.3c0,0-6.3-61.3,38.9-78.3c0,0-10.1,61,5,78.3H105.9z"/>
			<circle style="fill:#FFB339;" cx="64" cy="39.2" r="6.6"/>
			<circle style="fill:#FFB339;" cx="145" cy="12.1" r="6.6"/>
			<circle style="fill:#FFB339;" cx="186.4" cy="38.4" r="6.6"/>
			<g>
				<path style="fill:#F95D43;" d="M179.8,93.6H75.7c-1.8,0-3.3-1.5-3.3-3.3c0-1.8,1.5-3.3,3.3-3.3h104.1c1.8,0,3.3,1.5,3.3,3.3
					C183.1,92.2,181.6,93.6,179.8,93.6z"/>
			</g>
		</g>
	</g>
</g>
</svg>
