<?xml version="1.0" encoding="utf-8"?>
<!-- Generator: Adobe Illustrator 22.1.0, SVG Export Plug-In . SVG Version: 6.00 Build 0)  -->
<svg version="1.1" id="Layer_1" xmlns="http://www.w3.org/2000/svg" xmlns:xlink="http://www.w3.org/1999/xlink" x="0px" y="0px"
	 viewBox="0 0 256 256" style="enable-background:new 0 0 256 256;" xml:space="preserve">
<g>
	<path style="fill:#FFD473;" d="M203.8,250.5H52.3c0-14.3-5-35.3,1.9-42.6c11.7-12.5,26.2-16.5,46.8-19.9c0.5-0.1,0.9-0.2,1.3-0.3
		c4.3-1.3,7.3-5.2,7.3-9.8v-3.8c-16.6-6.8-28.3-23.2-28.3-42.2v-2.4c-6.2-1.5-10.7-7.1-10.7-13.8c0-3.8,1.5-7.3,4-9.9
		c1.8-1.9,4.1-3.2,6.7-3.9V82.7c0-7.2,5.9-13.1,13.1-13.1h45.4c4.4,8.8,11.7,15.9,20.5,20.1c0.4,0.2,0.8,0.4,1.2,0.5
		c0.3,0.1,0.5,0.2,0.8,0.3c0.3,0.2,0.7,0.3,1.1,0.5c0.4,0.2,0.8,0.3,1.3,0.5c0.5,0.2,0.9,0.3,1.4,0.5c0.4,0.1,0.8,0.3,1.3,0.4
		c0.3,0.1,0.6,0.2,1,0.3c0.3,0.1,0.6,0.2,0.9,0.2c0.1,0,0.2,0.1,0.3,0.1c0.3,0.1,0.6,0.2,1,0.2c0.3,0.1,0.5,0.1,0.7,0.2
		c0.5,0.1,0.9,0.2,1.4,0.3v8.1c2.8,0.5,5.3,1.7,7.4,3.6c2.8,2.6,4.6,6.3,4.6,10.4c0,7.1-5.2,12.9-11.9,14v1.2
		c0,19-11.4,35.8-28,42.9v3.6c0,4.3,2.7,8.1,6.6,9.6c0.7,0.3,1.4,0.4,2.1,0.5c19,2.8,35.8,6.5,46.7,20.2
		C206.3,215.7,203.8,236.5,203.8,250.5z"/>
</g>
<g style="opacity:0;">
	<g>
		<g>
			<path style="fill:#4B4351;" d="M179.9,65v40.3c-2-1.9-4.5-3.1-7.4-3.6v-8.1c-0.5-0.1-0.9-0.2-1.4-0.3c-0.3,0-0.5-0.1-0.7-0.2
				c-0.3-0.1-0.7-0.1-1-0.2c-0.1,0-0.2,0-0.3-0.1c-0.3-0.1-0.6-0.1-0.9-0.2c-0.3-0.1-0.6-0.2-1-0.3c-0.4-0.1-0.9-0.3-1.3-0.4
				c-0.5-0.2-1-0.3-1.4-0.5c-0.4-0.2-0.9-0.3-1.3-0.5c-0.4-0.1-0.7-0.3-1.1-0.5c-0.3-0.1-0.5-0.2-0.8-0.3c-0.4-0.2-0.8-0.4-1.2-0.5
				c-8.9-4.3-16.1-11.4-20.5-20.1H94.4c-7.2,0-13.1,5.9-13.1,13.1V102c-2.6,0.6-4.9,2-6.7,3.9V70.1c0-5.5,3.1-10.3,7.7-12.8
				c-11.8-19.2,1.9-41.2,27.9-41.2c27.3,0,65.7,20.6,69.6,47.5c0,0.2,0,0.4,0.1,0.7v0C179.9,64.5,179.9,64.7,179.9,65z"/>
		</g>
		<g>
			<circle style="fill:#0C0C0C;" cx="104.6" cy="111.5" r="5.2"/>
		</g>
		<g>
			<circle style="fill:#0C0C0C;" cx="150.1" cy="111.5" r="5.2"/>
		</g>
		<g style="opacity:0.1;">
			<path style="fill:#0C0C0C;" d="M126.2,151.5c-11.5,0-18.4-8.1-18.5-8.3c-0.5-0.6-0.4-1.6,0.2-2.1c0.6-0.5,1.6-0.4,2.1,0.2
				c0.6,0.7,13.8,16.1,34.6-0.2c0.7-0.5,1.6-0.4,2.1,0.3c0.5,0.6,0.4,1.6-0.3,2.1C138.7,149.5,131.9,151.5,126.2,151.5z"/>
		</g>
	</g>
	<g>
		<path style="fill:#32BFB5;" d="M204.8,251.9H51.5c0-14.9-3.2-36.7,3.6-44.3c11.6-13,26.2-17.1,46.8-20.7c0.5-0.1,0.9-0.2,1.3-0.3
			l25.1,42.2l23.8-42.8c0.7,0.3,1.4,0.5,2.1,0.6c19,2.9,35.8,6.8,46.7,21C207.2,215.8,204.8,237.3,204.8,251.9z"/>
		<path style="fill:#E5E5E5;" d="M204.8,251.9H51.5c0-14.9-3.2-36.7,3.6-44.3c11.6-13,26.2-17.1,46.8-20.7c0.5-0.1,0.9-0.2,1.3-0.3
			l5,65.4l20,0l18,0l5.8-65.9c0.7,0.3,1.4,0.5,2.1,0.6c19,2.9,35.8,6.8,46.7,21C207.2,215.8,204.8,237.3,204.8,251.9z"/>
		<path style="fill:#F4F4F4;" d="M145.8,182c0,0,3.2,33.4-5.8,69.9h11.1c0,0,11.7-10.9,15.5-22.9l-10.3-6.5l10.3-1.5
			c0,0-3.2-23.4-12.4-34.5L145.8,182z"/>
		<path style="fill:#F4F4F4;" d="M109.5,182c0,0-3.2,33.4,5.8,69.9h-11.1c0,0-11.7-10.9-15.5-22.9l10.3-6.5L88.7,221
			c0,0,3.2-23.4,12.4-34.5L109.5,182z"/>
		<g>
			<path style="fill:#383838;" d="M110.1,177.5v1c0,1.2-0.2,2.3-0.6,3.4c-3.7,1.3-6.9,3.8-9.6,7c-12,14.1-15.6,42-15.7,42.4l-4-0.5
				c0.2-1.5,3.3-25.4,13.8-40.8C98.2,183.9,103.5,179.1,110.1,177.5z"/>
		</g>
		<g>
			<path style="fill:#383838;" d="M164.2,194l-3.8,1.4c-1-2.6-2.7-4.9-4.8-6.8c-3-2.8-6.8-4.8-9.6-6.1c-0.6-1.3-1-2.8-1-4.3v-0.4
				c3.9,1.5,12.2,5.2,16.8,11.8C162.8,190.9,163.6,192.4,164.2,194z"/>
		</g>
		<g>
			<path style="fill:#383838;" d="M153,211.6c-0.1-0.3-2.4-7,0.6-12.7c1.6-3.1,4.4-5.1,8.2-6.2c3.7-1.1,7.2-0.7,10.2,1
				c5.7,3.3,7.7,10.4,7.8,10.7l-3.9,1c0-0.1-1.6-5.9-5.9-8.3c-2.1-1.2-4.4-1.4-7.1-0.6c-2.8,0.8-4.7,2.2-5.8,4.2
				c-2.1,4.1-0.4,9.5-0.4,9.5L153,211.6z"/>
		</g>
		<g>
			<g>
				<path style="fill:#383838;" d="M165.3,237.1c-3.6,0-8.3-0.7-8.9-4.2c-0.5-2.7-3.7-22.1-3.8-22.9c-0.2-1.1,0.6-2.1,1.6-2.3
					c1.1-0.2,2.1,0.6,2.3,1.6c0,0.2,3.3,20.1,3.8,22.9c0.5,0.8,4.5,1.2,8,0.8c1.1-0.1,2.1,0.7,2.2,1.8s-0.7,2.1-1.8,2.2
					C168,237,166.7,237.1,165.3,237.1z"/>
			</g>
			<g>
				<path style="fill:#383838;" d="M178.3,234.6c-0.7,0-1.5-0.4-1.8-1.1c-0.5-1,0-2.2,1-2.7c2.7-1.3,5.4-3.3,5.6-4.2
					c-1-2.9-7.4-21.7-7.5-21.9c-0.4-1,0.2-2.2,1.2-2.5c1-0.4,2.2,0.2,2.5,1.2c0.3,0.8,6.6,19.3,7.5,22c1.4,4.2-5,7.7-7.7,9
					C178.9,234.5,178.6,234.6,178.3,234.6z"/>
			</g>
		</g>
		<g>
			<path style="fill:#7C7C7C;" d="M165,237.2c-1.8,0-7.7-0.3-8.6-4.1c-0.7-2.8-3.7-22.2-3.9-23.1l4-0.6c0.9,5.6,3.3,20.6,3.8,22.7
				c0.3,0.5,2.6,1.1,5,1.1l0.1,4C165.2,237.2,165.1,237.2,165,237.2z"/>
		</g>
		<g>
			<path style="fill:#7C7C7C;" d="M181,233.4l-1.8-3.6c2.1-1.1,3.8-2.7,3.8-3.3c-0.6-2.1-5.6-16.5-7.4-21.8l3.8-1.3
				c0.3,0.8,6.8,19.4,7.5,22.1C188,229.6,182.2,232.8,181,233.4z"/>
		</g>
		<circle style="fill:#7C7C7C;" cx="82.3" cy="236.3" r="7.7"/>
		<circle style="fill:#A3A3A3;" cx="82.3" cy="236.3" r="4.8"/>
	</g>
</g>
</svg>
