<?xml version="1.0" encoding="utf-8"?>
<!-- Generator: Adobe Illustrator 22.1.0, SVG Export Plug-In . SVG Version: 6.00 Build 0)  -->
<svg version="1.1" id="Layer_1" xmlns="http://www.w3.org/2000/svg" xmlns:xlink="http://www.w3.org/1999/xlink" x="0px" y="0px"
	 viewBox="0 0 256 256" style="enable-background:new 0 0 256 256;" xml:space="preserve">
<g style="opacity:0;">
	<path style="fill:#FFD473;" d="M204.1,250.5H50.9c0-14.4-5-35.6,1.9-43.1c11.8-12.7,26.5-16.7,47.4-20.2c0.5-0.1,1-0.2,1.3-0.4
		c4.3-1.3,7.3-5.3,7.3-9.8v-3.8c-16.8-7-28.6-23.4-28.6-42.7v-2.4c-6.2-1.6-10.8-7.2-10.8-13.9c0-3.8,1.6-7.4,4.1-10
		c1.8-1.9,4.2-3.2,6.8-4V80.8c0-7.3,5.9-13.2,13.2-13.2h45.8c4.4,8.9,11.8,16.1,20.8,20.4c0.4,0.2,0.7,0.4,1.2,0.6
		c0.2,0.1,0.5,0.2,0.7,0.4c0.4,0.1,0.7,0.4,1.1,0.5c0.5,0.1,0.8,0.4,1.3,0.5c0.5,0.2,1,0.4,1.4,0.5c0.5,0.1,0.8,0.2,1.3,0.4
		c0.4,0.1,0.6,0.2,1,0.2c0.4,0.1,0.6,0.1,1,0.2c0.1,0,0.2,0,0.2,0.1c0.4,0.1,0.6,0.1,1,0.2c0.2,0.1,0.5,0.1,0.7,0.1
		c0.5,0.1,1,0.1,1.4,0.2v8.2c2.9,0.5,5.4,1.7,7.4,3.6c2.9,2.6,4.7,6.4,4.7,10.6c0,7.2-5.3,13.1-12.1,14.2v1.2
		c0,19.2-11.5,36.2-28.3,43.4v3.7c0,4.3,2.8,8.2,6.7,9.7c0.7,0.2,1.4,0.5,2.2,0.6c19.3,2.9,36.2,6.6,47.3,20.4
		C206.6,215.3,204.1,236.3,204.1,250.5z"/>
</g>
<g>
	<g>
		<g>
			<path style="fill:#4B4351;" d="M179.8,62.9v40.8c-2-1.9-4.6-3.1-7.4-3.6V92c-0.5-0.1-1-0.1-1.4-0.2c-0.2,0-0.5-0.1-0.7-0.1
				c-0.4-0.1-0.6-0.1-1-0.2c-0.1,0-0.2,0-0.2-0.1c-0.4-0.1-0.6-0.1-1-0.2c-0.4-0.1-0.6-0.1-1-0.2c-0.5-0.1-0.8-0.2-1.3-0.4
				c-0.5-0.1-1-0.4-1.4-0.5c-0.5-0.1-0.8-0.4-1.3-0.5c-0.4-0.1-0.7-0.2-1.1-0.5c-0.2-0.1-0.5-0.2-0.7-0.4c-0.4-0.1-0.8-0.4-1.2-0.6
				c-9-4.3-16.3-11.5-20.8-20.4H93.5c-7.3,0-13.2,5.9-13.2,13.2v19.4c-2.6,0.6-4.9,2-6.8,4V68.1c0-5.6,3.1-10.4,7.8-13
				c-11.9-19.3,1.9-41.6,28.2-41.6c27.6,0,66.4,20.9,70.3,48c0,0.2,0,0.5,0.1,0.7l0,0C179.8,62.5,179.8,62.7,179.8,62.9z"/>
		</g>
		<g>
			<circle style="fill:#0C0C0C;" cx="103.8" cy="110" r="5.3"/>
		</g>
		<g>
			<circle style="fill:#0C0C0C;" cx="149.8" cy="110" r="5.3"/>
		</g>
		<g style="opacity:0.1;">
			<path style="fill:#0C0C0C;" d="M125.6,150.4c-11.6,0-18.6-8.3-18.7-8.4c-0.5-0.6-0.5-1.6,0.2-2.2c0.6-0.5,1.6-0.5,2.2,0.2
				c0.6,0.7,13.9,16.2,35-0.2c0.6-0.5,1.6-0.4,2.2,0.2c0.5,0.6,0.4,1.6-0.2,2.2C138.3,148.4,131.4,150.4,125.6,150.4z"/>
		</g>
	</g>
	<path style="fill:#E8E8E8;" d="M204.2,250H49.8c0-15-3.3-37,3.6-44.7c7-7.9,15.1-12.5,24.9-15.7c3.7-1.2,7.7-2.2,11.9-3.1
		c1.1-0.2,2.1-0.5,3.2-0.8c2.3-0.6,4.6-1.2,7.1-1.7c0.5-0.1,1.1-0.3,1.6-0.4c5.1,10.6,23.7,15.3,23.7,15.3c0.1,0,21.3-2.1,25.2-14.8
		c0,0,0,0,0,0c0.1-0.1,0.2-0.3,0.2-0.4c0,0,0.1,0,0.1,0c0.6,0.2,1.3,0.4,2,0.5c2.4,0.4,4.8,0.8,7.2,1.2c0.9,0.2,1.9,0.4,2.8,0.5
		c4.1,0.8,8.1,1.8,11.9,2.9c10,3.1,18.6,8,25.2,16.5C206.7,213.6,204.2,235.3,204.2,250z"/>
	<path style="fill:#C46C1E;" d="M204.2,250H49.8c0-15-3.3-37,3.6-44.7c7-7.9,15.1-12.5,24.9-15.7c3.7-1.2,7.7-2.2,11.9-3.1
		c1.1-0.2,6.1-1.5,6.6-1.6c-3.1,4.5,12.5,55.9,18,65.1l20.1,0c4.8-8.7,23.6-61.5,16-65.9c0,0,0,0,0,0c0.1-0.1,0.2-0.3,0.2-0.4
		c0,0,0.1,0,0.1,0c0.6,0.2,1.3,0.4,2,0.5c2.4,0.4,4.8,0.8,7.2,1.2c0.9,0.2,1.9,0.4,2.8,0.5c4.1,0.8,8.1,1.8,11.9,2.9
		c10,3.1,18.6,8,25.2,16.5C206.7,213.6,204.2,235.3,204.2,250z"/>
	<path style="fill:#DD792F;" d="M150.7,183.5c0,0-11.1,52.6-15.7,66.7l30.8-31.1l-6.4-7.7l13.3-5.6l-13.3-20.9L150.7,183.5z"/>
	<path style="fill:#DD792F;" d="M99.4,183.3c0,0,11,53.2,15.7,67.3l-30.3-31.1l5.7-8l-13-4.1l12.7-21L99.4,183.3z"/>
	<line style="fill:none;stroke:#333333;stroke-width:3;stroke-miterlimit:10;" x1="201.6" y1="234.5" x2="201.6" y2="250.2"/>
	<polygon style="fill:#565656;" points="206.1,239 197,239 191.4,189.4 211.7,189.4 	"/>
	<circle style="fill:#BCBCBC;" cx="201.6" cy="173.8" r="19.3"/>
	<g>
		<defs>
			<circle id="SVGID_1_" cx="201.6" cy="173.8" r="19.3"/>
		</defs>
		<clipPath id="SVGID_2_">
			<use xlink:href="#SVGID_1_"  style="overflow:visible;"/>
		</clipPath>
		<g style="clip-path:url(#SVGID_2_);">
			<line style="fill:none;stroke:#A5A5A5;stroke-width:2;stroke-miterlimit:10;" x1="198.8" y1="150.3" x2="225.9" y2="179.8"/>
			<line style="fill:none;stroke:#A5A5A5;stroke-width:2;stroke-miterlimit:10;" x1="200.8" y1="154" x2="173.6" y2="183.5"/>
			<line style="fill:none;stroke:#A5A5A5;stroke-width:2;stroke-miterlimit:10;" x1="209.5" y1="155.2" x2="182.3" y2="184.8"/>
			<line style="fill:none;stroke:#A5A5A5;stroke-width:2;stroke-miterlimit:10;" x1="216.1" y1="159.8" x2="188.9" y2="189.4"/>
			<line style="fill:none;stroke:#A5A5A5;stroke-width:2;stroke-miterlimit:10;" x1="221.4" y1="164.4" x2="194.3" y2="194"/>
			<line style="fill:none;stroke:#A5A5A5;stroke-width:2;stroke-miterlimit:10;" x1="226.7" y1="168.8" x2="199.5" y2="198.3"/>
			<line style="fill:none;stroke:#A5A5A5;stroke-width:2;stroke-miterlimit:10;" x1="192.2" y1="155.9" x2="219.4" y2="185.5"/>
			<line style="fill:none;stroke:#A5A5A5;stroke-width:2;stroke-miterlimit:10;" x1="185.2" y1="160.9" x2="212.4" y2="190.4"/>
			<line style="fill:none;stroke:#A5A5A5;stroke-width:2;stroke-miterlimit:10;" x1="178.6" y1="167.3" x2="205.8" y2="196.8"/>
		</g>
	</g>
</g>
</svg>
