<?xml version="1.0" encoding="utf-8"?>
<!-- Generator: Adobe Illustrator 22.1.0, SVG Export Plug-In . SVG Version: 6.00 Build 0)  -->
<svg version="1.1" id="Layer_1" xmlns="http://www.w3.org/2000/svg" xmlns:xlink="http://www.w3.org/1999/xlink" x="0px" y="0px"
	 viewBox="0 0 256 256" style="enable-background:new 0 0 256 256;" xml:space="preserve">
<g>
	<path style="fill:#FFD473;" d="M201.5,250.5H52c0-14.1-4.9-34.8,1.8-42.1c11.5-12.4,25.8-16.2,46.2-19.6c0.4-0.1,0.9-0.2,1.3-0.3
		c4.2-1.3,7.2-5.2,7.2-9.6v-3.7c-16.4-6.7-27.9-22.8-27.9-41.6v-2.4c-6.1-1.5-10.6-7-10.6-13.6c0-3.8,1.5-7.2,3.9-9.7
		c1.8-1.8,4.1-3.2,6.6-3.8V85c0-7.1,5.8-12.9,12.9-12.9h44.8c4.4,8.6,11.5,15.7,20.2,19.9c0.4,0.2,0.8,0.4,1.1,0.5
		c0.2,0.1,0.5,0.2,0.7,0.3c0.3,0.2,0.7,0.3,1,0.4c0.4,0.2,0.8,0.3,1.3,0.5c0.5,0.2,0.9,0.3,1.4,0.5c0.4,0.1,0.8,0.3,1.3,0.4
		c0.3,0.1,0.6,0.2,0.9,0.3c0.3,0.1,0.6,0.2,0.9,0.2c0.1,0,0.2,0,0.3,0.1c0.3,0.1,0.6,0.2,1,0.2c0.2,0.1,0.5,0.1,0.7,0.2
		c0.5,0.1,0.9,0.2,1.4,0.2v8c2.8,0.4,5.3,1.7,7.3,3.5c2.8,2.5,4.5,6.2,4.5,10.3c0,7-5.1,12.8-11.8,13.8v1.2
		c0,18.8-11.3,35.3-27.6,42.4v3.6c0,4.3,2.7,8,6.5,9.5c0.7,0.2,1.4,0.4,2.1,0.5c18.8,2.8,35.4,6.4,46.1,19.9
		C203.9,216.2,201.5,236.7,201.5,250.5z"/>
</g>
<g style="opacity:0;">
	<g>
		<g>
			<path style="fill:#4B4351;" d="M177.9,67.5v39.8c-2-1.8-4.5-3.1-7.3-3.5v-8c-0.5-0.1-0.9-0.2-1.4-0.2c-0.2,0-0.5-0.1-0.7-0.2
				c-0.3-0.1-0.6-0.1-1-0.2c-0.1,0-0.2,0-0.3-0.1c-0.3-0.1-0.6-0.1-0.9-0.2c-0.3-0.1-0.6-0.2-0.9-0.3c-0.4-0.1-0.8-0.2-1.3-0.4
				c-0.5-0.1-0.9-0.3-1.4-0.5c-0.4-0.1-0.8-0.3-1.3-0.5c-0.4-0.1-0.7-0.3-1-0.4c-0.3-0.1-0.5-0.2-0.7-0.3c-0.4-0.2-0.8-0.3-1.1-0.5
				c-8.7-4.2-15.9-11.2-20.2-19.9H93.6c-7.1,0-12.9,5.8-12.9,12.9v19c-2.6,0.6-4.8,2-6.6,3.8V72.5c0-5.5,3.1-10.2,7.6-12.6
				C70,41,83.5,19.2,109.1,19.2c26.9,0,64.8,20.3,68.7,46.8c0,0.2,0,0.4,0.1,0.7v0C177.9,67,177.9,67.2,177.9,67.5z"/>
		</g>
		<g>
			<circle style="fill:#0C0C0C;" cx="103.7" cy="113.4" r="5.2"/>
		</g>
		<g>
			<circle style="fill:#0C0C0C;" cx="148.5" cy="113.4" r="5.2"/>
		</g>
		<g style="opacity:0.1;">
			<path style="fill:#0C0C0C;" d="M124.9,152.9c-11.3,0-18.1-8-18.2-8.1c-0.5-0.6-0.4-1.5,0.2-2.1c0.6-0.5,1.5-0.4,2.1,0.2
				c0.6,0.7,13.6,15.8,34.1-0.2c0.6-0.5,1.6-0.4,2.1,0.3c0.5,0.6,0.4,1.6-0.3,2.1C137.3,150.9,130.6,152.9,124.9,152.9z"/>
		</g>
	</g>
	<path style="fill:#ED9F21;" d="M200.6,250.5h-151c0-14.6-3.2-36.1,3.6-43.7c6.9-7.7,14.8-12.2,24.4-15.4c3.6-1.2,7.5-2.2,11.6-3.1
		c3.2-0.7,6.6-1.3,10.2-2c0.5-0.1,0.9-0.2,1.3-0.3c4.6,13.6,13.3,23.9,24.7,31.9c11.7-6.4,19.4-17.4,23.4-32.5
		c0.7,0.3,1.4,0.5,2.1,0.6c3.3,0.5,6.6,1.1,9.8,1.7c4,0.8,7.9,1.7,11.6,2.9c9.8,3.1,18.2,7.8,24.6,16.2
		C203,214.9,200.6,236.1,200.6,250.5z"/>
</g>
</svg>
