<?xml version="1.0" encoding="utf-8"?>
<!-- Generator: Adobe Illustrator 22.1.0, SVG Export Plug-In . SVG Version: 6.00 Build 0)  -->
<svg version="1.1" id="Layer_1" xmlns="http://www.w3.org/2000/svg" xmlns:xlink="http://www.w3.org/1999/xlink" x="0px" y="0px"
	 viewBox="0 0 256 256" style="enable-background:new 0 0 256 256;" xml:space="preserve">
<g style="opacity:0;">
	<path style="fill:#FFD473;" d="M195.9,250.5H57.6c0-13-4.6-32.2,1.7-38.9c10.6-11.4,23.9-15,42.8-18.2c0.4-0.1,0.8-0.2,1.2-0.3
		c3.9-1.2,6.6-4.8,6.6-8.9v-3.4C94.7,174.5,84,159.6,84,142.2V140c-5.6-1.4-9.8-6.5-9.8-12.6c0-3.5,1.4-6.7,3.7-9
		c1.7-1.7,3.8-2.9,6.1-3.5V97.3c0-6.6,5.4-12,12-12h41.4c4.1,8,10.7,14.5,18.7,18.4c0.3,0.2,0.7,0.3,1.1,0.5
		c0.2,0.1,0.5,0.2,0.7,0.3c0.3,0.1,0.6,0.3,1,0.4c0.4,0.1,0.8,0.3,1.2,0.4c0.4,0.2,0.9,0.3,1.3,0.4c0.4,0.1,0.8,0.2,1.2,0.4
		c0.3,0.1,0.6,0.2,0.9,0.2c0.3,0.1,0.6,0.2,0.9,0.2c0.1,0,0.2,0,0.2,0.1c0.3,0.1,0.6,0.1,0.9,0.2c0.2,0.1,0.4,0.1,0.7,0.1
		c0.4,0.1,0.8,0.2,1.3,0.2v7.4c2.6,0.4,4.9,1.6,6.7,3.3c2.6,2.4,4.2,5.8,4.2,9.5c0,6.5-4.7,11.8-10.9,12.8v1.1
		c0,17.4-10.4,32.7-25.5,39.2v3.3c0,4,2.5,7.4,6,8.7c0.6,0.2,1.3,0.4,1.9,0.5c17.4,2.6,32.7,5.9,42.7,18.5
		C198.1,218.8,195.9,237.7,195.9,250.5z"/>
</g>
<g>
	<g>
		<g>
			<path style="fill:#4B4351;" d="M174.1,81.1v36.8c-1.8-1.7-4.2-2.8-6.7-3.3v-7.4c-0.4-0.1-0.8-0.1-1.3-0.2c-0.2,0-0.4-0.1-0.7-0.1
				c-0.3-0.1-0.6-0.1-0.9-0.2c-0.1,0-0.2,0-0.2-0.1c-0.3-0.1-0.6-0.1-0.9-0.2c-0.3-0.1-0.6-0.2-0.9-0.2c-0.4-0.1-0.8-0.2-1.2-0.4
				c-0.4-0.1-0.9-0.3-1.3-0.4c-0.4-0.1-0.8-0.3-1.2-0.4c-0.3-0.1-0.6-0.3-1-0.4c-0.2-0.1-0.5-0.2-0.7-0.3c-0.4-0.2-0.7-0.3-1.1-0.5
				c-8.1-3.9-14.7-10.4-18.7-18.4H96c-6.6,0-12,5.4-12,12v17.6c-2.4,0.6-4.5,1.8-6.1,3.5V85.8c0-5.1,2.9-9.5,7-11.7
				c-10.7-17.5,1.7-37.6,25.4-37.6c24.9,0,60,18.8,63.6,43.3c0,0.2,0,0.4,0.1,0.6v0C174.1,80.7,174.1,80.9,174.1,81.1z"/>
		</g>
		<g>
			<circle style="fill:#0C0C0C;" cx="105.3" cy="123.6" r="4.8"/>
		</g>
		<g>
			<circle style="fill:#0C0C0C;" cx="146.9" cy="123.6" r="4.8"/>
		</g>
		<g style="opacity:0.1;">
			<path style="fill:#0C0C0C;" d="M125,160.2c-10.5,0-16.8-7.4-16.9-7.5c-0.5-0.6-0.4-1.4,0.2-1.9c0.6-0.5,1.4-0.4,1.9,0.2
				c0.5,0.6,12.6,14.7,31.6-0.2c0.6-0.5,1.4-0.4,1.9,0.2c0.5,0.6,0.4,1.4-0.2,1.9C136.5,158.3,130.2,160.2,125,160.2z"/>
		</g>
	</g>
	<g>
		<path style="fill:#F7F7F7;" d="M196.2,251.1H56.7c0-13.5-2.9-33.4,3.3-40.4c6.3-7.1,13.6-11.3,22.5-14.2c3.3-1.1,6.9-2,10.7-2.8
			c3-0.6,5.9-1.7,9.2-2.2c0.4-0.1,1-0.3,1.4-0.4c6.2,7,22.8,8.5,22.8,8.5s17.2,0,21.6-8.5c0.6,0.2,1.3,0.4,1.9,0.5
			c3.1,0.5,6.1,1,9,1.5c3.7,0.7,7.3,1.6,10.7,2.7c9,2.8,16.8,7.2,22.7,14.9C198.5,218.2,196.2,237.8,196.2,251.1z"/>
		<path style="fill:#FCF5E8;" d="M196.2,251.1H56.7c0-13.5-2.9-33.4,3.3-40.4c6.3-7.1,13.6-11.3,22.5-14.2c3.3-1.1,6.9-2,10.7-2.8
			c1-0.2,1.9-0.4,2.9-0.7c2-0.5,4.1-1.1,6.4-1.5c0.4-0.1,1-0.3,1.4-0.4c6.2,7,22.8,8.5,22.8,8.5c0.1,0,16.6,0,21.4-8.1c0,0,0,0,0,0
			c0.1-0.1,0.1-0.3,0.2-0.4c0,0,0.1,0,0.1,0c0.6,0.2,1.2,0.4,1.8,0.5c2.2,0.3,4.4,0.7,6.5,1.1c0.9,0.2,1.7,0.3,2.6,0.5
			c3.7,0.7,7.3,1.6,10.7,2.7c9,2.8,16.8,7.2,22.7,14.9C198.5,218.2,196.2,237.8,196.2,251.1z"/>
		<path style="fill:#64A549;" d="M156.7,192.6c-1.9,4.9-7.8,8.8-17.2,9.5c-3.9,0.3-8.8,2.7-13.2,2.7c-14.9,0-27.3-5.1-30.2-11.8
			c0,0,9.4-5.6,12.4-3.5c0,0,0,0,0,0c0.8,4.9,8.2,7.3,17,8.8c5.3,0.9,10.9,1,14.1-1.3c2.2-1.6,3.1-6.2,3.1-8.4c0-0.3,0-0.6-0.1-1
			C149,186.3,156.7,191.1,156.7,192.6z"/>
		<path style="fill:#64A549;" d="M132,201.3c0,0,0.1,0.5,0.3,1.2c0.5,1.8,1.2,5.3,0.8,8.8c-0.5,5.1,1.6,10.6,2.1,9.5
			c0.5-1.1,6.5-11.4,1.1-18.7C136.3,202.2,134.3,200.3,132,201.3z"/>
		<path style="fill:#64A549;" d="M135.3,201.6c0,0,0.4,0.3,0.9,0.9c1.3,1.3,3.8,3.9,5.4,7.1c2.3,4.6,7,8.2,6.8,7s-0.5-13.1-8.9-16.5
			C139.5,200.1,136.7,199.6,135.3,201.6z"/>
		<path style="fill:#75B259;" d="M138.8,202.7c-1.4,0.6-2.9,1-4.3,1.3c-1,0.2-1.9-0.3-2.2-1.1l-0.8-2.7c-0.2-0.8,0.4-1.8,1.4-2.1
			c1.3-0.4,2.7-0.8,4-1.2c1.1-0.3,2.1,0.2,2.3,1l0.8,2.7C140.3,201.4,139.7,202.3,138.8,202.7z"/>
		<g>
			<path style="fill:#302B23;" d="M71.3,69.4l2.3,19.2c0.3,2.1,2.3,3.5,4.4,2.9c11.8-3.4,49.3-12,95.3,0.1c2.1,0.6,4.2-1,4.3-3.2
				l2-54.7L71.3,69.4z"/>
			<path style="fill:#4C4535;" d="M193,43.5c3.6,21.8-35.6,30.6-60.9,32.9c-35.5,3.2-75.2,8.5-77.8-7.4s30.3-37.2,63-47
				C141.3,14.8,188.7,17.5,193,43.5z"/>
			<circle style="fill:#4C4535;" cx="115.4" cy="23.3" r="8.3"/>
		</g>
		<g>
			<path style="fill:#D6D6D6;" d="M169.1,248.4c-0.6,0-1.3-0.2-1.9-0.5c-1.7-1-2.3-3.3-1.2-5c12.1-21.4,25.2-47.1,31-52.4
				c1-1.7,3.2-2.3,5-1.3c1.7,1,2.3,3.3,1.2,5c-2.5,10.3-17.7,31.7-31,52.4C171.6,247.7,170.4,248.4,169.1,248.4z"/>
		</g>
		<path style="fill:#72C8ED;" d="M203.8,196.3c0,0-6.9,0.6-9.1-5.3c0,0-4.8-14.3,9.1-18.5s14.7-6.9,14.7-6.9s-0.1,13.6-0.9,17.9
			C216.9,187.8,209.6,196.6,203.8,196.3z"/>
	</g>
</g>
</svg>
