<?xml version="1.0" encoding="utf-8"?>
<!-- Generator: Adobe Illustrator 22.1.0, SVG Export Plug-In . SVG Version: 6.00 Build 0)  -->
<svg version="1.1" id="Layer_1" xmlns="http://www.w3.org/2000/svg" xmlns:xlink="http://www.w3.org/1999/xlink" x="0px" y="0px"
	 viewBox="0 0 256 256" style="enable-background:new 0 0 256 256;" xml:space="preserve">
<g style="opacity:0;">
	<path style="fill:#FFD473;" d="M202.9,251.6H52c0-14.2-5-35.1,1.9-42.5c11.6-12.5,26.1-16.5,46.7-19.9c0.5-0.1,1-0.2,1.3-0.4
		c4.2-1.3,7.2-5.3,7.2-9.6v-3.7c-16.6-6.9-28.2-23-28.2-42.1v-2.3c-6.1-1.6-10.6-7.1-10.6-13.6c0-3.7,1.6-7.3,4-9.8
		c1.8-1.9,4.1-3.1,6.7-3.9V84.6c0-7.2,5.8-13,13-13h45.1c4.3,8.8,11.6,15.9,20.5,20.1c0.4,0.2,0.7,0.4,1.2,0.6
		c0.2,0.1,0.5,0.2,0.7,0.4c0.4,0.1,0.7,0.4,1.1,0.5c0.5,0.1,0.8,0.4,1.3,0.5c0.5,0.2,1,0.4,1.4,0.5c0.5,0.1,0.8,0.2,1.3,0.4
		c0.4,0.1,0.6,0.2,1,0.2c0.4,0.1,0.6,0.1,1,0.2c0.1,0,0.2,0,0.2,0.1c0.4,0.1,0.6,0.1,1,0.2c0.2,0.1,0.5,0.1,0.7,0.1
		c0.5,0.1,1,0.1,1.4,0.2v8.1c2.8,0.5,5.4,1.7,7.3,3.5c2.8,2.5,4.6,6.3,4.6,10.4c0,7.1-5.3,12.9-11.9,13.9v1.2
		c0,18.9-11.3,35.7-27.9,42.8v3.6c0,4.2,2.7,8.1,6.6,9.6c0.7,0.2,1.4,0.5,2.1,0.6c19,2.8,35.7,6.5,46.6,20.1
		C205.4,217,202.9,237.7,202.9,251.6z"/>
</g>
<g>
	<g>
		<g>
			<path style="fill:#4B4351;" d="M179,66.9v40.2c-1.9-1.9-4.5-3-7.3-3.5v-8c-0.5-0.1-1-0.1-1.4-0.2c-0.2,0-0.5-0.1-0.7-0.1
				c-0.4-0.1-0.6-0.1-1-0.2c-0.1,0-0.2,0-0.2-0.1c-0.4-0.1-0.6-0.1-1-0.2s-0.6-0.1-1-0.2c-0.5-0.1-0.8-0.2-1.3-0.4
				c-0.5-0.1-1-0.4-1.4-0.5c-0.5-0.1-0.8-0.4-1.3-0.5c-0.4-0.1-0.7-0.2-1.1-0.5c-0.2-0.1-0.5-0.2-0.7-0.4c-0.4-0.1-0.8-0.4-1.2-0.6
				c-8.9-4.2-16.1-11.3-20.5-20.1H94c-7.2,0-13,5.8-13,13v19.1c-2.5,0.6-4.9,1.9-6.7,3.9V72c0-5.6,3-10.2,7.7-12.8
				c-11.7-19,1.9-40.9,27.8-40.9c27.2,0,65.4,20.6,69.2,47.3c0,0.2,0,0.5,0.1,0.7l0,0C179,66.5,179,66.7,179,66.9z"/>
		</g>
		<g>
			<circle style="fill:#0C0C0C;" cx="104.2" cy="113.3" r="5.3"/>
		</g>
		<g>
			<circle style="fill:#0C0C0C;" cx="149.5" cy="113.3" r="5.3"/>
		</g>
		<g style="opacity:0.1;">
			<path style="fill:#0C0C0C;" d="M125.6,153.1c-11.4,0-18.3-8.2-18.4-8.3c-0.5-0.6-0.5-1.6,0.2-2.1c0.6-0.5,1.6-0.5,2.1,0.2
				c0.6,0.7,13.6,16,34.5-0.2c0.6-0.5,1.6-0.4,2.1,0.2c0.5,0.6,0.4,1.6-0.2,2.1C138.1,151.1,131.4,153.1,125.6,153.1z"/>
		</g>
	</g>
	<g>
		<path style="fill:#7FC8CC;" d="M205.4,252.2H53.8c0,0-4.8-35.1,2.7-46.4c7.6-11.4,48.7-18.6,48.6-18.6c2,16.5,23.5,16.4,23.5,16.4
			c24.9-1.7,24.8-16.2,24.8-16.4c0,0,1.9,0.5,2.1,0.6c0,0,5.2,0.8,13,3.2c2.6,0.8,5.5,1.8,8.7,2.9c3.3,1.2,6.8,2.6,10.4,4.3
			C211.2,209.1,205.4,252.2,205.4,252.2z"/>
		<path style="fill:#446F9E;" d="M78.7,193.7v0.5v1.3v14.6c0,6.1-1.2,12.2-3.3,17.9l-1.8,4.8v19.3h108.9v-19.3l-1.8-4.8
			c-2.2-5.7-3.3-11.8-3.3-17.9v-16v-0.2c-3.1-1.2-6.1-2.1-8.7-2.9v14.4c0,21.5-17.4,38.8-38.8,38.8h-3.4
			c-21.5,0-38.8-17.4-38.8-38.8l-0.1-14.2C87.3,191.2,79.8,193.4,78.7,193.7z"/>
		<g>
			<path style="fill:#898989;" d="M223,190.7c0,6.4-4.9,11.9-11.7,13.7v43.9c0,2.7-2.2,4.8-4.8,4.8s-4.8-2.1-4.8-4.8v-43.7
				c-7-1.7-12.2-7.3-12.2-13.9c0-5.1,3.1-9.6,7.8-12.2v15.7h17.8v-15.7C219.9,181,223,185.5,223,190.7z"/>
			<g>
				<path style="fill:#757575;" d="M60.6,222.6L60.6,222.6c-2,0-3.6-1.6-3.6-3.6l0.1-37.9H39.7l0,0c0-6.8,5.5-12.3,12.3-12.3h12.4
					L64.2,219C64.2,221,62.6,222.6,60.6,222.6z"/>
			</g>
			<path style="fill:#EA4949;" d="M66.6,206.2v-17.6H47.4V249c0,2.2,1.8,4,4,4l0,0c2.2,0,4-1.8,4-4v-31.8c0-0.7,0.1-1.3,0.2-1.9h8.7
				c0.8,0,1.5-0.7,1.5-1.5c0-0.9-0.7-1.5-1.5-1.5h-7.7c0.5-1.1,1.2-2.1,2.1-2.9C60.7,207.4,63.5,206.2,66.6,206.2z M51.4,250.2
				c-0.6,0-1.1-0.5-1.1-1.1s0.5-1.1,1.1-1.1s1.1,0.5,1.1,1.1C52.5,249.8,52,250.2,51.4,250.2z"/>
		</g>
		<g>
			<path style="fill:#4ABBCE;" d="M182.4,75c-35.8-11.4-73.3-12-113,0c0-31.3,13.6-59.4,48.3-62.9c0-0.1,0-0.3,0-0.4
				c0-3.2,2.6-5.7,5.7-5.7c3.2,0,5.7,2.6,5.7,5.7v0.1C163.9,13.7,182.4,41.5,182.4,75z"/>
			<path style="fill:#42ACB7;" d="M78.8,63.5c0,0-14.9,13.9-13,26.1c0.4,2.6,4.9,2.3,7.2,1c28.5-15.8,76.2-17.8,107.1,0.3
				c2.5,1.5,7.5,1.2,7.6-1.6c0.5-13.7-13.1-24.8-13.1-24.8C142.6,43.6,101.1,46,78.8,63.5z"/>
			<circle style="fill:#55CBD8;" cx="124" cy="35.8" r="10"/>
		</g>
	</g>
</g>
</svg>
