<?xml version="1.0" encoding="utf-8"?>
<!-- Generator: Adobe Illustrator 22.1.0, SVG Export Plug-In . SVG Version: 6.00 Build 0)  -->
<svg version="1.1" id="Layer_1" xmlns="http://www.w3.org/2000/svg" xmlns:xlink="http://www.w3.org/1999/xlink" x="0px" y="0px"
	 viewBox="0 0 256 256" style="enable-background:new 0 0 256 256;" xml:space="preserve">
<g>
	<path style="fill:#FFD473;" d="M203.9,240.3H52.4c0-14.3-5-35.3,1.9-42.6c11.7-12.5,26.2-16.5,46.8-19.9c0.5-0.1,0.9-0.2,1.3-0.3
		c4.3-1.3,7.3-5.2,7.3-9.8v-3.8c-16.6-6.8-28.3-23.2-28.3-42.2v-2.4c-6.2-1.5-10.7-7.1-10.7-13.8c0-3.8,1.5-7.3,4-9.9
		c1.8-1.9,4.1-3.2,6.7-3.9V72.5c0-7.2,5.9-13.1,13.1-13.1h45.4c4.4,8.8,11.7,15.9,20.5,20.1c0.4,0.2,0.8,0.4,1.2,0.5
		c0.3,0.1,0.5,0.2,0.8,0.3c0.3,0.2,0.7,0.3,1.1,0.5c0.4,0.2,0.8,0.3,1.3,0.5c0.5,0.2,0.9,0.3,1.4,0.5c0.4,0.1,0.8,0.3,1.3,0.4
		c0.3,0.1,0.6,0.2,1,0.3c0.3,0.1,0.6,0.2,0.9,0.2c0.1,0,0.2,0.1,0.3,0.1c0.3,0.1,0.6,0.2,1,0.2c0.3,0.1,0.5,0.1,0.7,0.2
		c0.5,0.1,0.9,0.2,1.4,0.3v8.1c2.8,0.5,5.3,1.7,7.4,3.6c2.8,2.6,4.6,6.3,4.6,10.4c0,7.1-5.2,12.9-11.9,14v1.2
		c0,19-11.4,35.8-28,42.9v3.6c0,4.3,2.7,8.1,6.6,9.6c0.7,0.3,1.4,0.4,2.1,0.5c19,2.8,35.8,6.5,46.7,20.2
		C206.3,205.5,203.9,226.3,203.9,240.3z"/>
</g>
<g style="opacity:0;">
	<g>
		<rect x="105.4" y="188.8" style="fill:#EAEAEA;" width="46.2" height="51.5"/>
		<path style="fill:#455660;" d="M203.9,240.2H50.7c0-14.3-3.2-35.3,3.6-42.6c11.7-12.5,26.2-16.5,46.8-19.9
			c0.5-0.1,0.9-0.2,1.3-0.3l13.7,62.8l12.3,0l13,0l9.8-63.4c0.7,0.3,1.4,0.4,2.1,0.5c19,2.8,35.8,6.5,46.7,20.2
			C206.3,205.5,203.9,226.2,203.9,240.2z"/>
		<path style="fill:#F4F4F4;" d="M146.5,173c-5.1,10.7-10.4,16.3-19,15.6l20.2,10.2l3.8-22.5L146.5,173z"/>
		<path style="fill:#F4F4F4;" d="M106.5,175c3.4,7.8,9.2,14.5,21,13.6l-19.5,10.2l-7-21.1L106.5,175z"/>
		<g>
			<path style="fill:none;stroke:#0C0C0C;stroke-width:3;stroke-linecap:round;stroke-linejoin:round;stroke-miterlimit:10;" d="
				M108.8,111.6c-6.2,0.7-9.7,0.7-15.9-0.7c-1-0.2-1.9-0.9-2.3-1.8c-2.1-4.3-2.8-10.3-1.8-14.8c0.3-1.4,1.5-2.4,2.9-2.5
				c8.8-0.9,17.5-0.6,26,1.2c1.5,0.3,2.6,1.7,2.6,3.2c0,2.9-0.7,5.8-1.7,8.2C117,108.3,113.2,111.1,108.8,111.6z"/>
			<path style="fill:none;stroke:#0C0C0C;stroke-width:3;stroke-linecap:round;stroke-linejoin:round;stroke-miterlimit:10;" d="
				M145.4,111.7c6.3,0.6,9.7,0.6,15.9-0.9c1-0.2,1.9-0.9,2.3-1.8c2.1-4.4,2.7-10.3,1.7-14.9c-0.3-1.4-1.5-2.4-2.9-2.5
				c-8.8-0.8-17.5-0.4-26,1.4c-1.5,0.3-2.6,1.7-2.6,3.2c0,2.9,0.8,5.7,1.8,8.2C137.2,108.5,140.9,111.3,145.4,111.7z"/>
			
				<line style="fill:none;stroke:#0C0C0C;stroke-width:3;stroke-linecap:round;stroke-linejoin:round;stroke-miterlimit:10;" x1="172.6" y1="90.4" x2="165.8" y2="95.2"/>
			
				<line style="fill:none;stroke:#0C0C0C;stroke-width:3;stroke-linecap:round;stroke-linejoin:round;stroke-miterlimit:10;" x1="81.4" y1="90.4" x2="88.3" y2="95.2"/>
			<path style="fill:none;stroke:#0C0C0C;stroke-width:3;stroke-linecap:round;stroke-linejoin:round;stroke-miterlimit:10;" d="
				M121,96.7c0,0,7.7-1.3,12.4,0"/>
		</g>
	</g>
	<g>
		<g>
			<path style="fill:#4B4351;" d="M180,54.8v40.3c-2-1.9-4.5-3.1-7.4-3.6v-8.1c-0.5-0.1-0.9-0.2-1.4-0.3c-0.3,0-0.5-0.1-0.7-0.2
				c-0.3-0.1-0.7-0.1-1-0.2c-0.1,0-0.2,0-0.3-0.1c-0.3-0.1-0.6-0.1-0.9-0.2c-0.3-0.1-0.6-0.2-1-0.3c-0.4-0.1-0.9-0.3-1.3-0.4
				c-0.5-0.2-1-0.3-1.4-0.5c-0.4-0.2-0.9-0.3-1.3-0.5c-0.4-0.1-0.7-0.3-1.1-0.5c-0.3-0.1-0.5-0.2-0.8-0.3c-0.4-0.2-0.8-0.4-1.2-0.5
				c-8.9-4.3-16.1-11.4-20.5-20.1H94.5c-7.2,0-13.1,5.9-13.1,13.1v19.3c-2.6,0.6-4.9,2-6.7,3.9V59.9c0-5.5,3.1-10.3,7.7-12.8
				C70.7,27.9,84.3,5.9,110.3,5.9c27.3,0,65.7,20.6,69.6,47.5c0,0.2,0,0.4,0.1,0.7v0C180,54.3,180,54.5,180,54.8z"/>
		</g>
		<g>
			<circle style="fill:#0C0C0C;" cx="104.7" cy="101.3" r="5.2"/>
		</g>
		<g>
			<circle style="fill:#0C0C0C;" cx="150.2" cy="101.3" r="5.2"/>
		</g>
		<g style="opacity:0.1;">
			<path style="fill:#0C0C0C;" d="M126.3,141.3c-11.5,0-18.4-8.1-18.5-8.3c-0.5-0.6-0.4-1.6,0.2-2.1c0.6-0.5,1.6-0.4,2.1,0.2
				c0.6,0.7,13.8,16.1,34.6-0.2c0.7-0.5,1.6-0.4,2.1,0.3c0.5,0.6,0.4,1.6-0.3,2.1C138.8,139.3,132,141.3,126.3,141.3z"/>
		</g>
	</g>
</g>
</svg>
