<?xml version="1.0" encoding="utf-8"?>
<!-- Generator: Adobe Illustrator 22.1.0, SVG Export Plug-In . SVG Version: 6.00 Build 0)  -->
<svg version="1.1" id="Layer_1" xmlns="http://www.w3.org/2000/svg" xmlns:xlink="http://www.w3.org/1999/xlink" x="0px" y="0px"
	 viewBox="0 0 256 256" style="enable-background:new 0 0 256 256;" xml:space="preserve">
<g>
	<path style="fill:#FFD473;" d="M202.4,250.6H53.1c0-14-4.9-34.7,1.9-42c11.5-12.4,25.8-16.3,46.2-19.7c0.5-0.1,1-0.2,1.3-0.4
		c4.2-1.3,7.1-5.2,7.1-9.5v-3.7c-16.4-6.8-27.9-22.8-27.9-41.6v-2.3c-6-1.6-10.5-7-10.5-13.5c0-3.7,1.6-7.2,4-9.7
		c1.8-1.9,4.1-3.1,6.6-3.9V85.3c0-7.1,5.7-12.9,12.9-12.9h44.6c4.3,8.7,11.5,15.7,20.3,19.9c0.4,0.2,0.7,0.4,1.2,0.6
		c0.2,0.1,0.5,0.2,0.7,0.4c0.4,0.1,0.7,0.4,1.1,0.5c0.5,0.1,0.8,0.4,1.3,0.5c0.5,0.2,1,0.4,1.4,0.5c0.5,0.1,0.8,0.2,1.3,0.4
		c0.4,0.1,0.6,0.2,1,0.2c0.4,0.1,0.6,0.1,1,0.2c0.1,0,0.2,0,0.2,0.1c0.4,0.1,0.6,0.1,1,0.2c0.2,0.1,0.5,0.1,0.7,0.1
		c0.5,0.1,1,0.1,1.4,0.2v8c2.8,0.5,5.3,1.7,7.2,3.5c2.8,2.5,4.6,6.2,4.6,10.3c0,7-5.2,12.8-11.8,13.8v1.2
		c0,18.7-11.2,35.3-27.6,42.3v3.6c0,4.2,2.7,8,6.5,9.5c0.7,0.2,1.4,0.5,2.1,0.6c18.8,2.8,35.3,6.4,46.1,19.9
		C204.8,216.3,202.4,236.8,202.4,250.6z"/>
</g>
<g style="opacity:0;">
	<g>
		<g>
			<path style="fill:#4B4351;" d="M178.7,67.8v39.8c-1.9-1.9-4.5-3-7.2-3.5v-7.9c-0.5-0.1-1-0.1-1.4-0.2c-0.2,0-0.5-0.1-0.7-0.1
				c-0.4-0.1-0.6-0.1-1-0.2c-0.1,0-0.2,0-0.2-0.1c-0.4-0.1-0.6-0.1-1-0.2c-0.4-0.1-0.6-0.1-1-0.2c-0.5-0.1-0.8-0.2-1.3-0.4
				c-0.5-0.1-1-0.4-1.4-0.5c-0.5-0.1-0.8-0.4-1.3-0.5c-0.4-0.1-0.7-0.2-1.1-0.5c-0.2-0.1-0.5-0.2-0.7-0.4c-0.4-0.1-0.8-0.4-1.2-0.6
				c-8.8-4.2-15.9-11.2-20.3-19.9H94.6c-7.1,0-12.9,5.7-12.9,12.9v18.9c-2.5,0.6-4.8,1.9-6.6,3.9V72.9c0-5.5,3-10.1,7.6-12.7
				c-11.6-18.8,1.9-40.5,27.5-40.5c26.9,0,64.7,20.4,68.5,46.8c0,0.2,0,0.5,0.1,0.7l0,0C178.7,67.4,178.7,67.6,178.7,67.8z"/>
		</g>
		<g>
			<circle style="fill:#0C0C0C;" cx="104.7" cy="113.7" r="5.2"/>
		</g>
		<g>
			<circle style="fill:#0C0C0C;" cx="149.5" cy="113.7" r="5.2"/>
		</g>
		<g style="opacity:0.1;">
			<path style="fill:#0C0C0C;" d="M125.9,153.1c-11.3,0-18.1-8.1-18.2-8.2c-0.5-0.6-0.5-1.6,0.2-2.1c0.6-0.5,1.6-0.5,2.1,0.2
				c0.6,0.7,13.5,15.8,34.1-0.2c0.6-0.5,1.6-0.4,2.1,0.2c0.5,0.6,0.4,1.6-0.2,2.1C138.3,151.1,131.6,153.1,125.9,153.1z"/>
		</g>
	</g>
	<g>
		<path style="fill:#31425B;" d="M203.4,251.2H50.9c0-14.8-3.2-36.5,3.6-44.1c3.5-3.9,7.2-6.9,11.2-9.5c4.1-2.5,8.5-4.5,13.4-6.1
			c1.7-0.6,3.5-1.1,5.3-1.6c2.1-0.6,4.2-1.1,6.4-1.5c1-0.2,2.1-0.5,3.1-0.8c2.2-0.6,4.5-1.2,7-1.6c0.5-0.1,1.1-0.3,1.5-0.4
			c5,10.4,23.4,15.1,23.4,15.1c0.1,0,21-2.1,24.9-14.6c0,0,0,0,0,0c0.1-0.1,0.2-0.3,0.2-0.4c0,0,0.1,0,0.1,0c0.6,0.2,1.3,0.4,2,0.5
			c2.4,0.4,4.8,0.7,7.1,1.2c0.9,0.2,1.9,0.4,2.8,0.5c1.6,0.3,3.2,0.6,4.8,1c2.4,0.6,4.7,1.2,7,1.9c4.2,1.3,8.2,3,11.9,5.1
			c4.9,2.8,9.3,6.4,13,11.3C205.8,215.3,203.4,236.7,203.4,251.2z"/>
		<polygon style="fill:#5094B2;" points="117.2,208.4 122.9,215.1 118.9,251.1 131.8,251.1 128.4,215.1 135,208.4 125.8,200.7 		"/>
		<g>
			<path style="fill:#31425B;" d="M75.6,65.4h104c0,0-12,29-48.5,29.4S75.6,65.4,75.6,65.4z"/>
			<path style="fill:#31425B;" d="M71.1,63.8L57.1,38.2c23.5-11.1,46.5-27.5,69.8-27.7s46.9,15.8,69.9,27.7l-13.4,24.9L71.1,63.8z"
				/>
			<path style="fill:#EAC347;" d="M135.7,31.6c0,0-3.4,14.4-7.9,14.4c-4.5,0-8.4-14.4-8.4-14.4C119.4,34.5,135.7,34.8,135.7,31.6z"
				/>
			
				<line style="fill:none;stroke:#EAC347;stroke-width:10;stroke-linecap:round;stroke-linejoin:round;stroke-miterlimit:10;" x1="71.8" y1="65.4" x2="183.5" y2="65.4"/>
		</g>
		<path style="fill:#E8E8E8;" d="M125.8,200.7l16.9,14.2c0,0,6.2-16.9,10.3-28.7l-9.1-7.9C145.4,180.6,138.1,198.3,125.8,200.7z"/>
		<path style="fill:#E8E8E8;" d="M125.8,200.1L111,215.4c0,0-11.3-15.6-11.3-29.2l9.4-7.2C107.3,182.7,113.6,197.8,125.8,200.1z"/>
		<path style="opacity:0.3;fill:#4AA1D1;" d="M171.4,247.7h-15.9c-2.4,0-4.4-2-4.4-4.4V223h24.8v20.3
			C175.8,245.7,173.8,247.7,171.4,247.7z"/>
		<rect x="71.5" y="221.5" style="fill:#ADADAD;" width="27.5" height="6.9"/>
	</g>
</g>
</svg>
