<?xml version="1.0" encoding="utf-8"?>
<!-- Generator: Adobe Illustrator 22.1.0, SVG Export Plug-In . SVG Version: 6.00 Build 0)  -->
<svg version="1.1" id="Layer_1" xmlns="http://www.w3.org/2000/svg" xmlns:xlink="http://www.w3.org/1999/xlink" x="0px" y="0px"
	 viewBox="0 0 256 256" style="enable-background:new 0 0 256 256;" xml:space="preserve">
<g style="opacity:0;">
	<path style="fill:#FFD473;" d="M198.5,250.5H57.7c0-13.2-4.6-32.8,1.8-39.6c10.8-11.7,24.4-15.3,43.6-18.5c0.4-0.1,0.9-0.2,1.2-0.3
		c4-1.2,6.7-4.9,6.7-9v-3.5c-15.4-6.4-26.2-21.5-26.2-39.3V138c-5.7-1.4-9.9-6.6-9.9-12.8c0-3.5,1.4-6.8,3.7-9.2
		c1.7-1.8,3.9-3,6.3-3.6V94.6c0-6.7,5.4-12.1,12.1-12.1H139c4.1,8.2,10.8,14.8,19.1,18.7c0.3,0.2,0.7,0.3,1.1,0.6
		c0.2,0.1,0.4,0.2,0.7,0.3c0.3,0.1,0.7,0.3,1,0.4c0.4,0.1,0.8,0.3,1.2,0.4c0.4,0.2,0.9,0.3,1.3,0.4s0.8,0.2,1.2,0.3
		c0.3,0.1,0.6,0.2,0.9,0.2c0.3,0.1,0.6,0.1,0.9,0.2c0.1,0,0.2,0,0.2,0.1c0.3,0.1,0.6,0.1,0.9,0.2c0.2,0.1,0.4,0.1,0.7,0.1
		c0.4,0.1,0.9,0.1,1.3,0.2v7.5c2.6,0.4,5,1.5,6.8,3.3c2.6,2.4,4.3,5.8,4.3,9.7c0,6.6-4.9,12-11.1,13v1.1c0,17.6-10.6,33.3-26,39.9
		v3.4c0,4,2.5,7.5,6.2,8.9c0.7,0.2,1.3,0.4,2,0.6c17.8,2.6,33.3,6.1,43.4,18.7C200.8,218.2,198.5,237.5,198.5,250.5z"/>
</g>
<g>
	<g>
		<g>
			<path style="fill:#4B4351;" d="M176.2,78.1v37.5c-1.9-1.8-4.2-2.9-6.8-3.3v-7.5c-0.4-0.1-0.9-0.1-1.3-0.2c-0.2,0-0.4-0.1-0.7-0.1
				c-0.3-0.1-0.6-0.1-0.9-0.2c-0.1,0-0.2,0-0.2-0.1c-0.3-0.1-0.6-0.1-0.9-0.2c-0.3-0.1-0.6-0.1-0.9-0.2c-0.4-0.1-0.8-0.2-1.2-0.3
				c-0.4-0.1-0.9-0.3-1.3-0.4s-0.8-0.3-1.2-0.4c-0.3-0.1-0.7-0.2-1-0.4c-0.2-0.1-0.4-0.2-0.7-0.3c-0.3-0.1-0.8-0.3-1.1-0.6
				c-8.3-4-15-10.6-19.1-18.7H96.8c-6.7,0-12.1,5.4-12.1,12.1v17.9c-2.4,0.6-4.5,1.9-6.3,3.6V82.9c0-5.2,2.9-9.6,7.2-11.9
				c-10.9-17.8,1.8-38.3,25.9-38.3c25.4,0,61,19.2,64.6,44.1c0,0.2,0,0.4,0.1,0.7l0,0C176.2,77.7,176.2,77.9,176.2,78.1z"/>
		</g>
		<g>
			<circle style="fill:#0C0C0C;" cx="106.3" cy="121.4" r="4.9"/>
		</g>
		<g>
			<circle style="fill:#0C0C0C;" cx="148.6" cy="121.4" r="4.9"/>
		</g>
		<g style="opacity:0.1;">
			<path style="fill:#0C0C0C;" d="M126.4,158.5c-10.7,0-17.1-7.6-17.2-7.7c-0.4-0.6-0.4-1.4,0.2-2c0.6-0.4,1.4-0.4,2,0.2
				c0.6,0.7,12.8,14.9,32.2-0.2c0.6-0.4,1.4-0.3,2,0.2c0.4,0.6,0.3,1.4-0.2,2C138.1,156.7,131.7,158.5,126.4,158.5z"/>
		</g>
	</g>
	<g>
		<path style="fill:#E8E8E8;" d="M199.4,249.9H56.5c0-13.9-3-34.2,3.4-41.4c6.5-7.3,14-11.6,23-14.6c3.4-1.1,7.1-2.1,11-2.9
			c1-0.2,2-0.4,2.9-0.8c2.1-0.6,4.2-1.1,6.5-1.5c0.4-0.1,1-0.3,1.4-0.4c4.7,9.8,21.9,14.1,21.9,14.1c0.1,0,19.7-1.9,23.4-13.7l0,0
			c0.1-0.1,0.1-0.3,0.2-0.4h0.1c0.6,0.2,1.2,0.3,1.9,0.4c2.2,0.3,4.4,0.7,6.6,1.1c0.9,0.1,1.8,0.3,2.6,0.4c3.9,0.8,7.5,1.7,11,2.8
			c9.3,2.9,17.2,7.4,23.3,15.3C201.7,216.2,199.4,236.4,199.4,249.9z"/>
		<path style="fill:#474747;" d="M199.4,249.9H56.5c0-13.9-3-34.2,3.4-41.4c6.5-7.3,14-11.6,23-14.6c3.4-1.1,7.1-2.1,11-2.9
			c1-0.2,5.7-1.3,6.1-1.4c-2.9,4.1,11.6,51.7,16.7,60.2h18.6c4.4-8.1,21.8-56.9,14.8-61l0,0c0.1-0.1,0.1-0.3,0.2-0.4h0.1
			c0.6,0.2,1.2,0.3,1.9,0.4c2.2,0.3,4.4,0.7,6.6,1.1c0.9,0.1,1.8,0.3,2.6,0.4c3.9,0.8,7.5,1.7,11,2.8c9.3,2.9,17.2,7.4,23.3,15.3
			C201.7,216.2,199.4,236.4,199.4,249.9z"/>
		<polygon style="fill:#474747;" points="118.6,209.8 123.9,216.1 120.2,249.8 132.2,249.8 129,216.1 135.3,209.8 126.7,202.5 		"/>
		<path style="fill:#F4F4F4;" d="M126.7,202.5l8.6,13.6c0,0,17.4-15,21.3-26.1l-10.6-2.6C147.2,189.5,138.2,200.3,126.7,202.5z"/>
		<path style="fill:#F4F4F4;" d="M126.7,202.1l-7.8,14c0,0-17.9-15-21.7-26l11.7-2.3C105.2,190.3,115.2,199.9,126.7,202.1z"/>
		<path style="fill:#666666;" d="M149.9,188.4c0,0-10.3,48.6-14.6,61.8l28.6-28.8l-10.9-9.2l11.8-2.2l-6.7-20.2L149.9,188.4z"/>
		<path style="fill:#666666;" d="M102.3,188.2c0,0,10.3,49.3,14.6,62.3l-28-28.8l10.9-9.2l-14.6-0.9l8.7-20.6L102.3,188.2z"/>
		<g>
			<path style="fill:#FFDA40;" d="M178.7,68.7c0,26-104,26-104,0c0-21.3,10.6-39.2,34.3-45.1c3-0.7,6.2-1.3,9.6-1.6
				c2.6-0.2,5.2-0.4,8-0.4c2.9,0,5.6,0.1,8.2,0.4c3.4,0.3,6.6,0.9,9.6,1.6C168,29.6,178.7,47.5,178.7,68.7z"/>
			<g>
				<path style="fill:#FFDA40;" d="M132.9,88c-2,0-4.1,0-6.3,0c-23.8-0.3-53.3-2.8-58.3-12.9c-1.8-3.6-0.3-7.9,3.2-9.6
					c3.1-1.5,6.7-0.7,8.8,1.9c1.3,0.9,10.2,5.8,46.5,6.2c36.4,0.4,45.7-3.1,47.2-3.8c2.4-2.1,6-2.4,8.7-0.5c3.3,2.2,4.1,6.7,1.9,10
					C183.1,81.5,178.7,88,132.9,88z M172.8,71.2C172.8,71.2,172.8,71.2,172.8,71.2C172.8,71.2,172.8,71.2,172.8,71.2z M172.8,71.2
					C172.8,71.2,172.8,71.2,172.8,71.2C172.8,71.2,172.8,71.2,172.8,71.2z M172.8,71.2C172.8,71.2,172.8,71.2,172.8,71.2
					C172.8,71.2,172.8,71.2,172.8,71.2z M81.1,68.7C81.1,68.7,81.1,68.7,81.1,68.7C81.1,68.7,81.1,68.7,81.1,68.7z M81.1,68.7
					C81.1,68.7,81.1,68.7,81.1,68.7C81.1,68.7,81.1,68.7,81.1,68.7z M81.1,68.7C81.1,68.7,81.1,68.7,81.1,68.7
					C81.1,68.7,81.1,68.7,81.1,68.7z M80.1,67.2L80.1,67.2L80.1,67.2z"/>
			</g>
			<path style="fill:#FCC62B;" d="M144.5,23.7c-4.7,5.7-9.6,27.5-9.6,27.5V22C138.3,22.4,141.6,22.9,144.5,23.7z"/>
			<path style="fill:#FCC62B;" d="M118.7,22v29.1c0,0-4.9-21.8-9.6-27.5C112,22.9,115.2,22.3,118.7,22z"/>
			<rect x="116.8" y="16.5" style="fill:#FFDA40;" width="19.8" height="33"/>
		</g>
	</g>
</g>
</svg>
