<?xml version="1.0" encoding="utf-8"?>
<!-- Generator: Adobe Illustrator 22.1.0, SVG Export Plug-In . SVG Version: 6.00 Build 0)  -->
<svg version="1.1" id="Layer_1" xmlns="http://www.w3.org/2000/svg" xmlns:xlink="http://www.w3.org/1999/xlink" x="0px" y="0px"
	 viewBox="0 0 256 256" style="enable-background:new 0 0 256 256;" xml:space="preserve">
<g style="opacity:0;">
	<path style="fill:#FFD473;" d="M204.7,246.9H50.1c0-14.5-5.1-35.9,2-43.5C64,190.6,78.8,186.6,99.9,183c0.5-0.1,1-0.2,1.3-0.4
		c4.3-1.3,7.4-5.4,7.4-9.8V169c-17-7-28.9-23.6-28.9-43.1v-2.4c-6.2-1.7-10.9-7.2-10.9-14c0-3.8,1.7-7.5,4.1-10c1.9-2,4.2-3.2,6.8-4
		V75.8c0-7.4,5.9-13.4,13.4-13.4h46.2c4.5,9,11.9,16.3,21,20.6c0.4,0.2,0.7,0.4,1.2,0.6c0.2,0.1,0.5,0.2,0.7,0.4
		c0.4,0.1,0.7,0.4,1.1,0.5c0.5,0.1,0.8,0.4,1.3,0.5c0.5,0.2,1,0.4,1.4,0.5c0.5,0.1,0.8,0.2,1.3,0.4c0.4,0.1,0.6,0.2,1,0.2
		c0.4,0.1,0.6,0.1,1,0.2c0.1,0,0.2,0,0.2,0.1c0.4,0.1,0.6,0.1,1,0.2c0.2,0.1,0.5,0.1,0.7,0.1c0.5,0.1,1,0.1,1.4,0.2v8.3
		c2.9,0.5,5.5,1.8,7.5,3.6c2.9,2.6,4.8,6.4,4.8,10.7c0,7.2-5.4,13.3-12.2,14.3v1.2c0,19.4-11.6,36.5-28.6,43.8v3.7
		c0,4.3,2.8,8.3,6.7,9.8c0.7,0.2,1.4,0.5,2.2,0.6c19.5,2.9,36.5,6.6,47.7,20.6C207.2,211.4,204.7,232.6,204.7,246.9z"/>
</g>
<g>
	<g>
		<g>
			<path style="fill:#4B4351;" d="M180.1,57.7v41.2c-2-2-4.7-3.1-7.5-3.6v-8.2c-0.5-0.1-1-0.1-1.4-0.2c-0.2,0-0.5-0.1-0.7-0.1
				c-0.4-0.1-0.6-0.1-1-0.2c-0.1,0-0.2,0-0.2-0.1c-0.4-0.1-0.6-0.1-1-0.2s-0.6-0.1-1-0.2c-0.5-0.1-0.8-0.2-1.3-0.4
				c-0.5-0.1-1-0.4-1.4-0.5c-0.5-0.1-0.8-0.4-1.3-0.5c-0.4-0.1-0.7-0.2-1.1-0.5c-0.2-0.1-0.5-0.2-0.7-0.4c-0.4-0.1-0.8-0.4-1.2-0.6
				c-9.1-4.3-16.5-11.6-21-20.6H93.1c-7.4,0-13.4,5.9-13.4,13.4v19.6c-2.6,0.6-5,2-6.8,4V62.9c0-5.7,3.1-10.5,7.9-13.1
				c-12-19.5,2-41.9,28.5-41.9c27.9,0,67,21.1,70.9,48.5c0,0.2,0,0.5,0.1,0.7l0,0C180.1,57.3,180.1,57.5,180.1,57.7z"/>
		</g>
		<g>
			<circle style="fill:#0C0C0C;" cx="103.5" cy="105.2" r="5.4"/>
		</g>
		<g>
			<circle style="fill:#0C0C0C;" cx="149.9" cy="105.2" r="5.4"/>
		</g>
		<g style="opacity:0.1;">
			<path style="fill:#0C0C0C;" d="M125.5,146c-11.7,0-18.7-8.4-18.8-8.5c-0.5-0.6-0.5-1.7,0.2-2.2c0.6-0.5,1.7-0.5,2.2,0.2
				c0.6,0.7,14,16.4,35.3-0.2c0.6-0.5,1.7-0.4,2.2,0.2c0.5,0.6,0.4,1.7-0.2,2.2C138.3,143.9,131.4,146,125.5,146z"/>
		</g>
	</g>
	<g>
		<path style="fill:#CCCCCC;" d="M205.8,247.2H50c0,0-4.8-36,2.8-47.6c7.6-11.6,49.9-19.1,49.9-19.1c2.1,17,24.1,16.8,24.1,16.8
			c25.5-1.7,25.4-16.7,25.5-16.8c0,0,2,0.5,2.2,0.6c0,0,5.3,0.9,13.4,3.3c2.7,0.8,5.7,1.8,8.9,3c3.4,1.2,7,2.7,10.7,4.4
			C211.8,203,205.8,247.2,205.8,247.2z"/>
		<path style="fill:#3A685A;" d="M182.2,227.4v19.8H70.3v-19.8l1.9-5c2.2-5.9,3.4-12.1,3.4-18.4l0.1-15v-1.4l0,0
			c1-0.4,2.1-0.8,3.2-1.1c1.3-0.4,2.7-0.8,4-1.2c0.1,0,0.1,0,0.2-0.1c0,0,0,0,0.1,0s0.3-0.1,0.4-0.1c0.2-0.1,0.5-0.1,0.7-0.2
			c0.1,0,0.2-0.1,0.3-0.1v14.3c0,22,17.9,39.9,39.9,39.9h3.5c22,0,39.9-17.9,39.9-39.9v-14.8c2.7,0.8,5.7,1.8,8.9,3v0.2l0.1,16.4
			c0,6.3,1.2,12.5,3.4,18.4L182.2,227.4z"/>
		<g>
			<g>
				<path style="fill:#898989;" d="M197,219.9l17.3-57.2l0,0c5.4,1.6,7.9,9.4,5.5,17.4l-9.6,37.7c-0.8,3.1-4,4.9-7,4L197,219.9z"/>
			</g>
			<g>
				
					<rect x="190.3" y="219.9" transform="matrix(0.2892 -0.9573 0.9573 0.2892 -71.7641 349.3174)" style="fill:#898989;" width="18" height="6.1"/>
			</g>
			<g>
				<path style="fill:#898989;" d="M173.8,223.4c3.6-4.5,9.8-6.6,15.7-4.9c7.8,2.3,12.2,10.6,9.8,18.3c-1.1,3.8-3.7,6.9-7.1,8.7
					c-3.5,1.9-7.4,2.3-11.2,1.1l0,0c-3.8-1.1-6.9-3.7-8.7-7.1c-1.9-3.5-2.3-7.4-1.1-11.2C171.7,226.5,172.6,224.8,173.8,223.4z
					 M192.2,238.2c0.7-0.9,1.3-1.9,1.6-3c1.4-4.7-1.3-9.7-6-11.1c-4.7-1.4-9.7,1.3-11.1,6c-0.7,2.3-0.4,4.7,0.7,6.8
					c1.1,2.1,3,3.6,5.3,4.3l0,0c2.3,0.7,4.7,0.4,6.8-0.7C190.5,239.9,191.4,239.1,192.2,238.2z"/>
			</g>
		</g>
		<g>
			<g>
				<path style="fill:#A5A5A5;" d="M211.7,219.4l-17.9-57l0,0c-5.4,1.7-7.8,9.5-5.3,17.4l9.8,36.5c1,3.7,4.8,5.8,8.4,4.6
					L211.7,219.4z"/>
			</g>
			<g>
				
					<rect x="206.4" y="213.5" transform="matrix(0.9541 -0.2996 0.2996 0.9541 -57.0261 72.9574)" style="fill:#A5A5A5;" width="6.1" height="18"/>
			</g>
			<g>
				<path style="fill:#A5A5A5;" d="M212.2,222.6c1.8-2.2,4.2-3.9,7-4.8c3.7-1.2,7.7-0.8,11.2,1s6,4.9,7.2,8.6
					c1.2,3.7,0.8,7.7-1,11.2s-4.9,6-8.6,7.2l0,0c-3.7,1.2-7.7,0.8-11.2-1s-6-4.9-7.2-8.6c-1.2-3.7-0.8-7.7,1-11.2
					C211.1,224.2,211.6,223.3,212.2,222.6z M230.6,237.5c0.4-0.5,0.7-1,1-1.5c1.1-2.1,1.3-4.5,0.6-6.8s-2.3-4.1-4.4-5.2
					c-2.1-1.1-4.5-1.3-6.8-0.6s-4.1,2.3-5.2,4.4c-1.1,2.1-1.3,4.5-0.6,6.8s2.3,4.1,4.4,5.2c2.1,1.1,4.5,1.3,6.8,0.6
					C228,239.8,229.5,238.8,230.6,237.5z"/>
			</g>
		</g>
		<g>
			<path style="fill:#D86F41;" d="M51.6,183.7v2.1H37.8v3.4h13.8v2.1H37.8v3.7h13.8v2.1H37.8v3.4h13.8v2.1H37.8v4h13.8v2.1H37.8v3.4
				h13.8v2.1H37.8v3.4h13.8v2.1H37.8v3.4h13.8v2.1H37.8v4h13.8v2.1H37.8v3.4h13.8v2.1H37.8v3.4h13.8v2.1H37.8v5.5h14.9
				c4.4,0,8-3.6,8-8v-53.2c0-4.4-3.6-8-8-8H37.8v4.8h13.8V183.7z"/>
		</g>
		<g>
			<circle style="fill:#262626;" cx="204.3" cy="213.6" r="2.1"/>
		</g>
	</g>
</g>
</svg>
