<?xml version="1.0" encoding="utf-8"?>
<!-- Generator: Adobe Illustrator 22.1.0, SVG Export Plug-In . SVG Version: 6.00 Build 0)  -->
<svg version="1.1" id="Layer_1" xmlns="http://www.w3.org/2000/svg" xmlns:xlink="http://www.w3.org/1999/xlink" x="0px" y="0px"
	 viewBox="0 0 256 256" style="enable-background:new 0 0 256 256;" xml:space="preserve">
<rect x="0" style="fill:#FFC06C;" width="256" height="256"/>
<g style="opacity:0;">
	<circle style="fill:#FFFFFF;" cx="84.7" cy="101.5" r="26.7"/>
	<circle style="fill:#3F3F3F;" cx="84.7" cy="101.5" r="12.4"/>
	<circle style="fill:#FFFFFF;" cx="175.9" cy="101.5" r="26.7"/>
	<circle style="fill:#3F3F3F;" cx="175.9" cy="101.5" r="12.4"/>
	<path style="fill:none;stroke:#3F3F3F;stroke-width:8;stroke-linecap:round;stroke-linejoin:round;stroke-miterlimit:10;" d="
		M165.1,60c0,0,19.4-13.8,34.9,3.1"/>
	<path style="fill:none;stroke:#3F3F3F;stroke-width:8;stroke-linecap:round;stroke-linejoin:round;stroke-miterlimit:10;" d="
		M96.9,60c0,0-19.4-13.8-34.9,3.1"/>
	<g>
		<defs>
			<path id="XMLID_21_" d="M159.4,181.2c-7.6,4.2-17.8,6.9-31.4,6.9c-13.6,0-23.7-2.7-31.4-6.9c-25.1-13.8-22.8-43.3-22.8-43.3
				h108.4C182.2,137.9,184.5,167.4,159.4,181.2z"/>
		</defs>
		<use xlink:href="#XMLID_21_"  style="overflow:visible;fill:#3F3F3F;"/>
		<clipPath id="XMLID_2_">
			<use xlink:href="#XMLID_21_"  style="overflow:visible;"/>
		</clipPath>
		<rect x="67.4" y="128.9" style="clip-path:url(#XMLID_2_);fill:#FFFFFF;" width="125.7" height="22.7"/>
		<ellipse style="clip-path:url(#XMLID_2_);fill:#FF9FB8;" cx="128" cy="186.7" rx="35.6" ry="20.6"/>
	</g>
</g>
</svg>
