<?xml version="1.0" encoding="utf-8"?>
<!-- Generator: Adobe Illustrator 22.1.0, SVG Export Plug-In . SVG Version: 6.00 Build 0)  -->
<svg version="1.1" id="Layer_1" xmlns="http://www.w3.org/2000/svg" xmlns:xlink="http://www.w3.org/1999/xlink" x="0px" y="0px"
	 viewBox="0 0 256 256" style="enable-background:new 0 0 256 256;" xml:space="preserve">
<rect x="0" style="fill:#FFC06C;" width="256" height="256"/>
<g style="opacity:0;">
	<path style="fill:#FFFFFF;" d="M104.5,117.6c0,14.7-11.9,26.7-26.7,26.7c-14.7,0-26.7-11.9-26.7-26.7c0-1.8,0.2-3.5,0.5-5.2
		c5.8-0.4,11.2-1.8,16.2-3.9c4-1.7,7.8-3.8,11.4-6.4c3.6-2.5,7-5.4,10.3-8.4C98.5,98.1,104.5,107.1,104.5,117.6z"/>
	<path style="fill:#FFFFFF;" d="M205.7,117.6c0,14.7-11.9,26.7-26.7,26.7c-14.7,0-26.7-11.9-26.7-26.7c0-10.5,6-19.5,14.8-23.9
		c3.3,3.1,6.8,5.9,10.4,8.4c3.6,2.5,7.3,4.6,11.3,6.3c5,2.1,10.4,3.5,16.3,3.9C205.5,114,205.7,115.8,205.7,117.6z"/>
	<path style="fill:#3F3F3F;" d="M193,120c0,10-8.1,18-18,18c-10,0-18-8.1-18-18s8.1-18,18-18c0.9,0,1.7,0.1,2.5,0.2
		c3.6,2.5,7.3,4.6,11.3,6.3C191.5,111.6,193,115.6,193,120z"/>
	<path style="fill:#3F3F3F;" d="M99.8,120c0,10-8.1,18-18,18c-10,0-18-8.1-18-18c0-4.4,1.6-8.4,4.2-11.5c4-1.7,7.8-3.8,11.4-6.4
		c0.8-0.1,1.6-0.2,2.4-0.2C91.7,102,99.8,110,99.8,120z"/>
	<ellipse style="fill:#3F3F3F;" cx="128" cy="166.2" rx="12.4" ry="8.5"/>
	<path style="fill:none;stroke:#3F3F3F;stroke-width:8;stroke-linecap:round;stroke-linejoin:round;stroke-miterlimit:10;" d="
		M158.6,52.3c0,0,10.6,15.3,24.8,14.7"/>
	<path style="fill:none;stroke:#3F3F3F;stroke-width:8;stroke-linecap:round;stroke-linejoin:round;stroke-miterlimit:10;" d="
		M98.8,52.3c0,0-10.6,15.3-24.8,14.7"/>
</g>
</svg>
