<?xml version="1.0" encoding="utf-8"?>
<!-- Generator: Adobe Illustrator 22.1.0, SVG Export Plug-In . SVG Version: 6.00 Build 0)  -->
<svg version="1.1" id="Layer_1" xmlns="http://www.w3.org/2000/svg" xmlns:xlink="http://www.w3.org/1999/xlink" x="0px" y="0px"
	 viewBox="0 0 256 256" style="enable-background:new 0 0 256 256;" xml:space="preserve">
<g>
	<path style="fill:#FFDF97;" d="M70,34.9c-1.2,1.5-2.4,3.1-3.5,4.7v-4.7H70z"/>
	<path style="fill:#FFDF97;" d="M171.1,34.9v2.6c-0.7-0.9-1.3-1.8-2-2.6H171.1z"/>
	<path style="fill:#FFDF97;" d="M198.3,198.4c-0.7-0.6-1.4-1.3-2.2-1.9c-3-2.4-6.8-4.5-11.5-6c-0.5-0.2-1-0.3-1.4-0.5
		c-2.7-0.9-5.2-1.7-7.6-2.5c-22.1-7.4-33-11.8-33-11.8l-4.6-17c19.4-7.6,33.1-26.5,33.1-48.6V98c-29.5-1.1-52.5-12.3-67-22.1
		c-0.4-0.2-0.7-0.5-1.1-0.7c-0.3-0.2-0.7-0.5-1-0.7c-8.2-5.7-13.3-10.7-15-12.4l-0.2-0.2c-0.3-0.3-0.5-0.5-0.5-0.5
		c-0.2,0.5-0.4,1.1-0.6,1.6c-0.1,0.3-0.2,0.6-0.3,0.9c-0.2,0.5-0.4,1.1-0.6,1.6c-0.2,0.6-0.4,1.1-0.7,1.6c-0.3,0.6-0.5,1.2-0.8,1.8
		c-0.1,0.3-0.2,0.5-0.4,0.7c-0.2,0.4-0.4,0.7-0.5,1.1c-0.4,0.7-0.7,1.4-1.1,2.1c-0.6,1.1-1.3,2.2-1.9,3.2
		c-4.1,6.5-8.8,11.3-12.9,14.8v19.3c0,22.5,14.2,41.6,34.1,49l-3.7,15.7l-34.8,11.5l-6.3,2.1l-6.7,2.2c0,0-3.9,0.6-8.7,4.8
		c-0.3,0.3-0.7,0.6-1.1,1c-5.5,5.4-11.9,15.7-14.6,35.3h188.7C213.5,231.6,212.1,211.3,198.3,198.4z M93.3,120.1
		c-3.8,0-6.9-3.1-6.9-6.9c0-3.8,3.1-6.9,6.9-6.9s6.9,3.1,6.9,6.9C100.2,117,97.1,120.1,93.3,120.1z M130.3,136.4
		c-3.4,3.4-7,5.1-10.8,5.1c-0.2,0-0.3,0-0.5,0c-6.1-0.2-10.3-4.9-10.5-5.1c-0.5-0.6-0.5-1.5,0.1-2c0.6-0.5,1.5-0.5,2,0.1
		c0,0,0.9,1,2.4,2c1.5,1,3.6,2,6,2.1c3.1,0.1,6.1-1.3,9-4.2c0.6-0.6,1.5-0.6,2,0S130.9,135.8,130.3,136.4z M144.3,107.7
		c3.8,0,6.9,3.1,6.9,6.9c0,3.8-3.1,6.9-6.9,6.9c-3.8,0-6.9-3.1-6.9-6.9C137.4,110.8,140.5,107.7,144.3,107.7z"/>
</g>
<g style="opacity:0;">
	<g>
		<circle style="fill:#4F2B0D;" cx="93.3" cy="113.2" r="6.9"/>
	</g>
	<g>
		<path style="fill:#4F2B0D;" d="M151.3,114.6c0,3.8-3.1,6.9-6.9,6.9c-3.8,0-6.9-3.1-6.9-6.9c0-3.8,3.1-6.9,6.9-6.9
			C148.2,107.7,151.3,110.8,151.3,114.6z"/>
	</g>
	<g>
		<path style="fill:#4F2B0D;" d="M130.3,136.4c-3.4,3.4-7,5.1-10.8,5.1c-0.2,0-0.3,0-0.5,0c-6.1-0.2-10.3-4.9-10.5-5.1
			c-0.5-0.6-0.5-1.5,0.1-2c0.6-0.5,1.5-0.5,2,0.1c0,0,0.9,1,2.4,2c1.5,1,3.6,2,6,2.1c3.1,0.1,6.1-1.3,9-4.2c0.6-0.6,1.5-0.6,2,0
			S130.9,135.8,130.3,136.4z"/>
	</g>
	<g>
		<path style="fill:#EDEDED;" d="M39.3,92.4v103.9c0.4-0.3,0.7-0.7,1.1-1c4.8-4.2,8.7-4.8,8.7-4.8l6.7-2.2V75
			c0-13.1,4-25.3,10.7-35.4c1.1-1.6,2.2-3.2,3.5-4.7c1.4-1.7,2.9-3.4,4.5-5c4.9-4.9,10.6-9,16.9-12.1C61,29,39.3,58.2,39.3,92.4z
			 M175,36.2c-6.5-6.5-14.2-12-22.7-15.9c6.4,3.8,12.1,8.8,16.8,14.6c0.7,0.9,1.4,1.7,2,2.6C178.7,48,183.2,61,183.2,75v115
			c0.5,0.2,1,0.3,1.4,0.5c4.7,1.5,8.5,3.6,11.5,6c0.8,0.6,1.5,1.2,2.2,1.9v-106C198.3,70.5,189.4,50.6,175,36.2z"/>
		<path style="fill:#EDEDED;" d="M192.6,194.1c-3.1,8.7-4.6,27.9-3.1,37.5H46.3c0.2-9.9-0.6-25-5.9-36.2c4.8-4.2,8.7-4.8,8.7-4.8
			l13-4.3c0,0,47.6,31.1,113.5,1.3c2.8,0.9,5.9,1.9,9.1,3C187.8,191.6,189.6,192.3,192.6,194.1z"/>
	</g>
	<g>
		<path style="fill:#4F2B0D;" d="M130.3,134.4c-0.6-0.6-1.5-0.6-2,0c-2.9,2.9-5.9,4.4-9,4.2c-2.4-0.1-4.5-1.1-6-2.1
			c-1.5-1-2.4-2-2.4-2c-0.5-0.6-1.4-0.7-2-0.1c-0.6,0.5-0.7,1.4-0.1,2c0.2,0.2,4.3,4.9,10.5,5.1c0.2,0,0.3,0,0.5,0
			c3.8,0,7.4-1.7,10.8-5.1C130.9,135.8,130.9,134.9,130.3,134.4z M171.1,37.5c-0.7-0.9-1.3-1.8-2-2.6c-4.7-5.8-10.4-10.7-16.8-14.6
			c-9.6-5.8-20.8-9.1-32.8-9.1c-10.1,0-19.7,2.3-28.1,6.5c-6.3,3.1-12,7.2-16.9,12.1c-1.6,1.6-3.1,3.2-4.5,5
			c-1.2,1.5-2.4,3.1-3.5,4.7C59.8,49.7,55.8,61.9,55.8,75v113.3l6.3-2.1l34.8-11.5l3.7-15.7c-19.9-7.4-34.1-26.6-34.1-49V90.8
			c4.1-3.5,8.8-8.4,12.9-14.8c0.6-1,1.3-2.1,1.9-3.2c0.4-0.7,0.8-1.4,1.1-2.1c0.2-0.3,0.4-0.7,0.5-1.1c0.1-0.3,0.3-0.5,0.4-0.7
			c0.3-0.6,0.5-1.2,0.8-1.8c0.2-0.5,0.5-1.1,0.7-1.6c0.2-0.5,0.4-1,0.6-1.6c0.1-0.3,0.2-0.6,0.3-0.9c0.2-0.5,0.4-1.1,0.6-1.6
			c0,0,0.2,0.2,0.5,0.5l0.2,0.2c1.7,1.8,6.8,6.7,15,12.4c0.3,0.2,0.7,0.5,1,0.7c0.4,0.2,0.7,0.5,1.1,0.7c14.5,9.8,37.4,21,67,22.1
			v12c0,22.1-13.7,41-33.1,48.6l4.6,17c0,0,10.8,4.4,33,11.8c2.4,0.8,5,1.6,7.6,2.5V75C183.2,61,178.7,48,171.1,37.5z"/>
		<circle style="fill:#4F2B0D;" cx="93.3" cy="113.2" r="6.9"/>
		<path style="fill:#4F2B0D;" d="M151.3,114.6c0,3.8-3.1,6.9-6.9,6.9c-3.8,0-6.9-3.1-6.9-6.9c0-3.8,3.1-6.9,6.9-6.9
			C148.2,107.7,151.3,110.8,151.3,114.6z"/>
	</g>
	<path style="fill:#EDEDED;" d="M122.7,46.1c-29.6,0-52.3-8-53.7-8.5c-1.5-0.5-2.3-2.2-1.7-3.7c0.5-1.5,2.2-2.3,3.7-1.7
		c0.5,0.2,51.3,18,99.1,0c1.5-0.6,3.1,0.2,3.7,1.7c0.6,1.5-0.2,3.1-1.7,3.7C155.1,44,138,46.1,122.7,46.1z"/>
</g>
</svg>
