<?xml version="1.0" encoding="utf-8"?>
<!-- Generator: Adobe Illustrator 22.1.0, SVG Export Plug-In . SVG Version: 6.00 Build 0)  -->
<svg version="1.1" id="Layer_1" xmlns="http://www.w3.org/2000/svg" xmlns:xlink="http://www.w3.org/1999/xlink" x="0px" y="0px"
	 viewBox="0 0 256 256" style="enable-background:new 0 0 256 256;" xml:space="preserve">
<rect style="opacity:0;fill:#FF6B57;" width="256" height="256"/>
<g>
	<path style="fill:none;stroke:#3F3F3F;stroke-width:8;stroke-linecap:round;stroke-linejoin:round;stroke-miterlimit:10;" d="
		M181.9,53.1c0,0,29.1,7.3,45.2,27.5"/>
	<path style="fill:none;stroke:#3F3F3F;stroke-width:8;stroke-linecap:round;stroke-linejoin:round;stroke-miterlimit:10;" d="
		M75.6,53.1c0,0-29.1,7.3-45.2,27.5"/>
	<rect x="173.2" y="104.5" style="fill:#78D9EA;" width="31.3" height="151.5"/>
	<rect x="53" y="104.5" style="fill:#78D9EA;" width="31.3" height="151.5"/>
	<path style="fill:#3F3F3F;" d="M177.8,179.8c-5.3,11.5-14.3,10.6-23.9,7.1c-8.8-3.2-18.1-8.5-25.9-8.6c-7.8,0.1-17.1,5.4-25.9,8.6
		c-9.6,3.5-18.5,4.3-23.9-7.1c-13.5-29,39.3-42.4,49.8-40.8C138.5,137.2,191.3,150.8,177.8,179.8z"/>
	<path style="fill:#F95A71;" d="M153.9,186.9c-8.8-3.2-18.1-8.5-25.9-8.6c-7.8,0.1-17.1,5.4-25.9,8.6c0.1-12.7,11.6-22.9,25.9-22.9
		S153.8,174.2,153.9,186.9z"/>
	<path style="fill:none;stroke:#3F3F3F;stroke-width:8;stroke-linecap:round;stroke-linejoin:round;stroke-miterlimit:10;" d="
		M157.5,117.9c0,0,8.1-16.5,26.7-16.4c17.8,0,25.7,16.4,25.7,16.4"/>
	<path style="fill:none;stroke:#3F3F3F;stroke-width:8;stroke-linecap:round;stroke-linejoin:round;stroke-miterlimit:10;" d="
		M99.9,117.9c0,0-3.3-16.4-26.7-16.4c-19.9,0-25.7,16.4-25.7,16.4"/>
</g>
</svg>
