<?xml version="1.0" encoding="utf-8"?>
<!-- Generator: Adobe Illustrator 22.1.0, SVG Export Plug-In . SVG Version: 6.00 Build 0)  -->
<svg version="1.1" id="Layer_1" xmlns="http://www.w3.org/2000/svg" xmlns:xlink="http://www.w3.org/1999/xlink" x="0px" y="0px"
	 viewBox="0 0 256 256" style="enable-background:new 0 0 256 256;" xml:space="preserve">
<g>
	<g>
		<path style="fill:#FFDF97;" d="M239,170.3l-10.8,18.2c-4.6,7.8-12.6,13-21.5,14.1l-33.8,4.1c-1.2,0.2-2.4,0.2-3.6,0.2
			c-13.4,0-25.2-9.3-28.3-22.3h0.1c12,0,22.3-7.2,26.7-17.5c5.2,8.1,14.2,13.4,24.5,13.4c16.1,0,29.2-13,29.2-29.1V65.1l20.6,83.3
			C244,155.9,242.8,163.7,239,170.3z"/>
	</g>
	<g>
		<path style="fill:#FFDF97;" d="M221.5,64.5v86.8c0,16.1-13,29.1-29.2,29.1c-10.3,0-19.3-5.3-24.5-13.4
			c-4.5,10.3-14.8,17.5-26.7,17.5H141c-13.4,0-24.7-9.2-28-21.5c-5,8.7-14.4,14.5-25.2,14.5c-11.8,0-21.9-7-26.5-17.1
			c-5,4-11.3,6.3-18.1,6.3c-16.1,0-29.1-13-29.1-29.1V96c0-16.1,13-29.1,29.1-29.1c5.8,0,11.2,1.7,15.8,4.6
			C60.8,57.2,73,46.2,87.8,46.2c10.1,0,19,5.1,24.2,12.9v-4.4c0-16.1,13-29.1,29.1-29.1c13.4,0,24.7,9.1,28.1,21.4
			c5.3-7,13.7-11.5,23.2-11.5C208.5,35.4,221.5,48.5,221.5,64.5z"/>
	</g>
</g>
<g style="opacity:0;">
	<path style="opacity:0.1;" d="M239,170.3l-10.8,18.2c-4.6,7.8-12.6,13-21.5,14.1l-33.8,4.1c-1.2,0.2-2.4,0.2-3.6,0.2
		c-13.4,0-25.2-9.3-28.3-22.3h0.1c12,0,22.3-7.2,26.7-17.5c5.2,8.1,14.2,13.4,24.5,13.4c16.1,0,29.2-13,29.2-29.1V65.1l20.6,83.3
		C244,155.9,242.8,163.7,239,170.3z"/>
</g>
</svg>
