<?xml version="1.0" encoding="utf-8"?>
<!-- Generator: Adobe Illustrator 22.1.0, SVG Export Plug-In . SVG Version: 6.00 Build 0)  -->
<svg version="1.1" id="Layer_1" xmlns="http://www.w3.org/2000/svg" xmlns:xlink="http://www.w3.org/1999/xlink" x="0px" y="0px"
	 viewBox="0 0 256 256" style="enable-background:new 0 0 256 256;" xml:space="preserve">
<rect x="0" style="fill:#FFC06C;" width="256" height="256"/>
<g style="opacity:0;">
	<path style="fill:none;stroke:#3F3F3F;stroke-width:8;stroke-linecap:round;stroke-linejoin:round;stroke-miterlimit:10;" d="
		M149.2,83.9c0,0,8.1-16.5,26.7-16.4c17.8,0,25.7,16.4,25.7,16.4"/>
	<path style="fill:none;stroke:#3F3F3F;stroke-width:8;stroke-linecap:round;stroke-linejoin:round;stroke-miterlimit:10;" d="
		M106.8,83.9c0,0-3.3-16.4-26.7-16.4c-19.9,0-25.7,16.4-25.7,16.4"/>
	<path style="fill:#FFFFFF;" d="M65.5,108h133c0,0-4,56.5-66.5,56.5C65.5,164.5,65.5,108,65.5,108z"/>
	<g>
		<defs>
			<path id="SVGID_1_" d="M65.5,108h133c0,0-4,56.5-66.5,56.5C65.5,164.5,65.5,108,65.5,108z"/>
		</defs>
		<clipPath id="SVGID_2_">
			<use xlink:href="#SVGID_1_"  style="overflow:visible;"/>
		</clipPath>
		<g style="clip-path:url(#SVGID_2_);">
			<g>
				<rect x="81.5" y="105.5" style="fill:#EAEAEA;" width="5" height="51.5"/>
			</g>
			<g>
				<rect x="101" y="105.5" style="fill:#EAEAEA;" width="5" height="67"/>
			</g>
			<g>
				<rect x="119.8" y="105.5" style="fill:#EAEAEA;" width="5" height="67"/>
			</g>
			<g>
				<rect x="139.3" y="105.5" style="fill:#EAEAEA;" width="5" height="67"/>
			</g>
			<g>
				<rect x="157.5" y="105.5" style="fill:#EAEAEA;" width="5" height="67"/>
			</g>
			<g>
				<rect x="177" y="105.5" style="fill:#EAEAEA;" width="5" height="51.5"/>
			</g>
		</g>
	</g>
</g>
</svg>
