<?xml version="1.0" encoding="utf-8"?>
<!-- Generator: Adobe Illustrator 22.1.0, SVG Export Plug-In . SVG Version: 6.00 Build 0)  -->
<svg version="1.1" id="Layer_1" xmlns="http://www.w3.org/2000/svg" xmlns:xlink="http://www.w3.org/1999/xlink" x="0px" y="0px"
	 viewBox="0 0 256 256" style="enable-background:new 0 0 256 256;" xml:space="preserve">
<g>
	<path style="fill:#FFDF97;" d="M190.4,231.7H1.7c2.9-20.9,9.9-31.2,15.6-36.3c4.8-4.2,8.7-4.8,8.7-4.8l6.7-2.2l6.3-2.1l34.8-11.5
		l3.7-15.7c-19.9-7.4-34.1-26.5-34.1-49V90.9c6.8-5.8,15.2-15.3,19.8-29.4c0,0,31.8,34.7,84.7,36.6v12c0,22.1-13.7,41-33.1,48.6
		l4.6,17c0,0,10.8,4.5,33,11.8c2.8,0.9,5.9,2,9.1,3c4.7,1.5,8.5,3.6,11.5,6c2.5,2,4.7,4.3,6.5,6.7
		C189.3,215.9,190.4,231.7,190.4,231.7z"/>
</g>
<g style="opacity:0;">
	<g>
		<g>
			<path style="fill:#A8A8A8;" d="M214.4,111.3l-52.5,21.3l0,0c-2-5,2.3-11.4,9.6-14.4l33.6-15.3c2.7-1.3,6,0,7.1,2.8L214.4,111.3z"
				/>
		</g>
		<g>
			
				<rect x="206.8" y="104.9" transform="matrix(0.9267 -0.3758 0.3758 0.9267 -24.718 88.804)" style="fill:#A8A8A8;" width="17.1" height="5.8"/>
		</g>
		<g>
			<path style="fill:#A8A8A8;" d="M230.8,126.4c-5.5,0-10.8-3.3-12.9-8.7c-2.9-7.1,0.6-15.3,7.7-18.2c3.5-1.4,7.2-1.4,10.7,0.1
				c3.4,1.5,6.1,4.2,7.5,7.6l0,0c1.4,3.5,1.4,7.2-0.1,10.7c-1.5,3.4-4.2,6.1-7.6,7.5C234.3,126.1,232.5,126.4,230.8,126.4z
				 M230.8,104c-1.1,0-2.2,0.2-3.2,0.6c-4.3,1.8-6.4,6.7-4.7,11c1.8,4.3,6.7,6.4,11,4.7c2.1-0.8,3.7-2.5,4.6-4.5
				c0.9-2.1,0.9-4.4,0-6.5l0,0c-0.8-2.1-2.5-3.7-4.5-4.6C233,104.2,231.9,104,230.8,104z"/>
		</g>
	</g>
	<g>
		<path style="fill:#61D8B0;" d="M169.5,194.2c-3.1,8.7-4.6,27.9-3.1,37.5H23.2c0.2-9.9-0.6-25-5.9-36.2c4.8-4.2,8.7-4.8,8.7-4.8
			l13-4.3c0,0,47.6,31.1,113.5,1.3c2.8,0.9,5.9,1.9,9.1,3C164.6,191.7,166.5,192.4,169.5,194.2z"/>
	</g>
	<g>
		<circle style="fill:#262626;" cx="206.3" cy="108.4" r="2.1"/>
	</g>
	<g>
		<circle style="fill:#4F2B0D;" cx="70.2" cy="113.3" r="6.9"/>
	</g>
	<g>
		<circle style="fill:#4F2B0D;" cx="121.2" cy="114.7" r="6.9"/>
	</g>
	<g>
		<path style="fill:#4F2B0D;" d="M96.5,141.6c-0.2,0-0.3,0-0.5,0c-6.1-0.2-10.3-5-10.5-5.2c-0.5-0.6-0.5-1.5,0.1-2
			c0.6-0.5,1.5-0.5,2,0.1l0,0c0,0,3.5,4,8.4,4.2c3.1,0.1,6.1-1.3,9-4.2c0.6-0.6,1.5-0.6,2,0c0.6,0.6,0.6,1.5,0,2
			C103.8,139.9,100.2,141.6,96.5,141.6z"/>
	</g>
	<g>
		<path style="fill:#4F2B0D;" d="M231.4,141.6c-7.3,33.3-25.4,52.9-51.8,61.7c-1.8-2.4-4-4.7-6.5-6.7c-3-2.4-6.8-4.5-11.5-6
			c-3.2-1-6.2-2-9.1-3c-22.2-7.4-33-11.8-33-11.8l-4.6-17c19.4-7.7,33.1-26.5,33.1-48.6v-12c-53-1.9-84.7-36.6-84.7-36.6
			c-4.6,14.1-13,23.6-19.8,29.4v19.3c0,22.5,14.2,41.6,34.1,49l-3.7,15.7L39,186.3l-6.3,2.1V75.1c0-13.1,4-25.3,10.7-35.4
			c1.1-1.6,2.2-3.2,3.5-4.7c1.4-1.7,2.9-3.4,4.5-5c11.5-11.5,27.5-18.7,45.1-18.7c20,0,37.8,9.2,49.5,23.6c0.7,0.9,1.4,1.7,2,2.6
			c7.7,10.5,12.2,23.5,12.2,37.5v1C174.7,127.2,199.3,146.3,231.4,141.6z"/>
	</g>
	<g>
		<g>
			<path style="fill:#BCBCBC;" d="M205.2,100.8L173.8,148h0c4.5,3,11.7,0.1,16-6.5l21.2-29c2.1-2.9,1.4-7-1.6-9L205.2,100.8z"/>
		</g>
		<g>
			
				<rect x="200.3" y="97.7" transform="matrix(0.5546 -0.8321 0.8321 0.5546 9.2967 218.5764)" style="fill:#BCBCBC;" width="17.1" height="5.8"/>
		</g>
		<g>
			<path style="fill:#BCBCBC;" d="M207.3,98.5c-2.7,0-5.4-0.8-7.7-2.3c-3.1-2.1-5.2-5.2-5.9-8.9c-0.7-3.7,0-7.4,2.1-10.5
				c2.1-3.1,5.2-5.2,8.9-5.9c3.7-0.7,7.4,0,10.5,2.1l0,0c3.1,2.1,5.2,5.2,5.9,8.9c0.7,3.7,0,7.4-2.1,10.5c-2.1,3.1-5.2,5.2-8.9,5.9
				C209.2,98.4,208.2,98.5,207.3,98.5z M207.4,76c-0.6,0-1.1,0.1-1.7,0.2c-2.2,0.4-4.1,1.7-5.4,3.6c-1.3,1.9-1.7,4.1-1.3,6.4
				c0.4,2.2,1.7,4.1,3.6,5.4c1.9,1.3,4.1,1.7,6.4,1.3c2.2-0.4,4.1-1.7,5.4-3.6c1.3-1.9,1.7-4.1,1.3-6.4c-0.4-2.2-1.7-4.1-3.6-5.4
				C210.6,76.5,209,76,207.4,76z"/>
		</g>
	</g>
</g>
</svg>
