<?xml version="1.0" encoding="utf-8"?>
<!-- Generator: Adobe Illustrator 22.1.0, SVG Export Plug-In . SVG Version: 6.00 Build 0)  -->
<svg version="1.1" id="Layer_1" xmlns="http://www.w3.org/2000/svg" xmlns:xlink="http://www.w3.org/1999/xlink" x="0px" y="0px"
	 viewBox="0 0 256 256" style="enable-background:new 0 0 256 256;" xml:space="preserve">
<rect style="fill:#FF6B57;" width="256" height="256"/>
<g style="opacity:0;">
	<g>
		<defs>
			<path id="XMLID_18_" d="M159.4,197.7c-7.6,4.2-17.8,6.9-31.4,6.9c-13.6,0-23.7-2.7-31.4-6.9c-25.1-13.8-22.8-43.3-22.8-43.3
				h108.4C182.2,154.4,184.5,183.9,159.4,197.7z"/>
		</defs>
		<use xlink:href="#XMLID_18_"  style="overflow:visible;fill:#3F3F3F;"/>
		<clipPath id="XMLID_2_">
			<use xlink:href="#XMLID_18_"  style="overflow:visible;"/>
		</clipPath>
		<rect x="67.4" y="145.4" style="clip-path:url(#XMLID_2_);fill:#FFFFFF;" width="125.7" height="22.7"/>
		<ellipse style="clip-path:url(#XMLID_2_);fill:#FF9FB8;" cx="128" cy="203.2" rx="35.6" ry="20.6"/>
	</g>
	<path style="fill:none;stroke:#3F3F3F;stroke-width:8;stroke-linecap:round;stroke-linejoin:round;stroke-miterlimit:10;" d="
		M162.1,60c0,0,19.4-13.8,34.9,3.1"/>
	<path style="fill:none;stroke:#3F3F3F;stroke-width:8;stroke-linecap:round;stroke-linejoin:round;stroke-miterlimit:10;" d="
		M93.9,60c0,0-19.4-13.8-34.9,3.1"/>
	<path style="fill:none;stroke:#3F3F3F;stroke-width:8;stroke-linecap:round;stroke-linejoin:round;stroke-miterlimit:10;" d="
		M149.2,117.9c0,0,8.1-16.5,26.7-16.4c17.8,0,25.7,16.4,25.7,16.4"/>
	<path style="fill:none;stroke:#3F3F3F;stroke-width:8;stroke-linecap:round;stroke-linejoin:round;stroke-miterlimit:10;" d="
		M106.8,117.9c0,0-3.3-16.4-26.7-16.4c-19.9,0-25.7,16.4-25.7,16.4"/>
</g>
</svg>
