<?xml version="1.0" encoding="utf-8"?>
<!-- Generator: Adobe Illustrator 22.1.0, SVG Export Plug-In . SVG Version: 6.00 Build 0)  -->
<svg version="1.1" id="Layer_1" xmlns="http://www.w3.org/2000/svg" xmlns:xlink="http://www.w3.org/1999/xlink" x="0px" y="0px"
	 viewBox="0 0 256 256" style="enable-background:new 0 0 256 256;" xml:space="preserve">
<rect x="0" style="opacity:0;fill:#FFC06C;" width="256" height="256"/>
<g>
	<path style="fill:none;stroke:#3F3F3F;stroke-width:8;stroke-linecap:round;stroke-linejoin:round;stroke-miterlimit:10;" d="
		M149.2,80.1c0,0,9.3,10.8,26.7,10.8c17.8,0,25.7-10.8,25.7-10.8"/>
	<path style="fill:none;stroke:#3F3F3F;stroke-width:8;stroke-linecap:round;stroke-linejoin:round;stroke-miterlimit:10;" d="
		M106.8,80.1c0,0-9.3,10.8-26.7,10.8c-15.5,0-25.7-10.8-25.7-10.8"/>
	
		<line style="fill:none;stroke:#3F3F3F;stroke-width:8;stroke-linecap:round;stroke-linejoin:round;stroke-miterlimit:10;" x1="145.7" y1="50.2" x2="179.7" y2="34.2"/>
	
		<line style="fill:none;stroke:#3F3F3F;stroke-width:8;stroke-linecap:round;stroke-linejoin:round;stroke-miterlimit:10;" x1="109.8" y1="50.2" x2="75.8" y2="34.2"/>
	<path style="fill:none;stroke:#3F3F3F;stroke-width:8;stroke-linecap:round;stroke-linejoin:round;stroke-miterlimit:10;" d="
		M81.1,137.4c0,0,23.9-16.7,52.2-16.7s47.4,16.7,47.4,16.7"/>
	<g>
		<path style="fill:#F4F4F4;" d="M144.6,106.4l35.2,50.6l-16.6,9.1l-23.7-55.6c-1-1.5-0.5-3.6,1-4.6l0,0
			C141.9,105.2,143.5,105.3,144.6,106.4z"/>
		<circle style="fill:#F4F4F4;" cx="182.1" cy="161.2" r="14.2"/>
		<circle style="fill:#F4F4F4;" cx="179.3" cy="177.1" r="14.2"/>
		<circle style="fill:#F4F4F4;" cx="165.7" cy="172.5" r="14.2"/>
	</g>
	<g>
		<path style="fill:#F4F4F4;" d="M119.8,106.4L82,157l16.6,9.1l26.2-55.6c1-1.5,0.5-3.6-1-4.6l0,0
			C122.5,105.2,120.9,105.3,119.8,106.4z"/>
		<circle style="fill:#F4F4F4;" cx="79.7" cy="161.2" r="14.2"/>
		<circle style="fill:#F4F4F4;" cx="82.6" cy="177.1" r="14.2"/>
		<circle style="fill:#F4F4F4;" cx="96.1" cy="172.5" r="14.2"/>
	</g>
</g>
</svg>
