<?xml version="1.0" encoding="utf-8"?>
<!-- Generator: Adobe Illustrator 22.1.0, SVG Export Plug-In . SVG Version: 6.00 Build 0)  -->
<svg version="1.1" id="Layer_1" xmlns="http://www.w3.org/2000/svg" xmlns:xlink="http://www.w3.org/1999/xlink" x="0px" y="0px"
	 viewBox="0 0 256 256" style="enable-background:new 0 0 256 256;" xml:space="preserve">
<rect x="0" style="opacity:0;fill:#FFC06C;" width="256" height="256"/>
<g>
	<path style="fill:none;stroke:#3F3F3F;stroke-width:8;stroke-linecap:round;stroke-linejoin:round;stroke-miterlimit:10;" d="
		M181,118.1c0,27.1-23.7,49.1-53,49.1s-53-22-53-49.1"/>
	<path style="fill:none;stroke:#3F3F3F;stroke-width:8;stroke-linecap:round;stroke-linejoin:round;stroke-miterlimit:10;" d="
		M149.2,81.5c0,0,8.1-16.5,26.7-16.4c17.8,0,25.7,16.4,25.7,16.4"/>
	<path style="fill:none;stroke:#3F3F3F;stroke-width:8;stroke-linecap:round;stroke-linejoin:round;stroke-miterlimit:10;" d="
		M106.8,81.5c0,0-3.3-16.4-26.7-16.4c-19.9,0-25.7,16.4-25.7,16.4"/>
	<path style="fill:none;stroke:#3F3F3F;stroke-width:8;stroke-linecap:round;stroke-linejoin:round;stroke-miterlimit:10;" d="
		M163.1,25.2c0,0,30.6-5.1,50.5,15.9"/>
	<path style="fill:none;stroke:#3F3F3F;stroke-width:8;stroke-linecap:round;stroke-linejoin:round;stroke-miterlimit:10;" d="
		M92.9,25.2c0,0-30.6-5.1-50.5,15.9"/>
	<path style="fill:#FFDF97;" d="M186.3,251.9c-1.1,0.4-2.3,0.6-3.5,0.7c-4.2,0.1-13.9-0.3-17.5-1.8c-9.6-4.1-18.5-20.3-13-35.2
		c1.2-3.3-0.3-10.7,25.6-30.2c0,0,15.7-18.7,16.8-18.2c10.9,4.9-5.7,27.9-5.5,30.1l41.1-19.9c2.1-0.8,4.8,0.5,6.4,1.9
		c0.6,0.5,1.1,1.2,1.4,2.1c1.1,2.9-0.6,6.2-3.5,7.3l-34.3,17.3c-0.4,0.1-0.6,0.6-0.4,1c0.1,0.4,0.6,0.6,1,0.4l46-17.4
		c2.2,0,4.4,1,5.4,3.7c0.4,1.1,0.5,2.1,0.4,3.1c-0.2,1.5-1.3,2.7-2.7,3.2l-47.3,17.9c-0.4,0.1-0.6,0.6-0.4,1s0.6,0.6,1,0.4l36-9.7
		c5.5-2.1,10.4,4.7,6.4,9.1c-0.2,0.2-0.3,0.4-0.5,0.5l-40.8,11.6c-0.4,0.1-0.6,0.6-0.4,1s0.6,0.6,1,0.4l29.6-5
		c3.2-1.2,6.7,1.1,6.7,4.4c0,1.5-0.7,3.1-2.7,4.5C235,238.6,193.5,249.4,186.3,251.9z"/>
	<path style="fill:#FFDF97;" d="M69.7,251.9c1.1,0.4,2.3,0.6,3.5,0.7c4.2,0.1,13.9-0.3,17.5-1.8c9.6-4.1,18.5-20.3,13-35.2
		c-1.2-3.3,0.3-10.7-25.6-30.2c0,0-15.7-18.7-16.8-18.2c-10.9,4.9,5.7,27.9,5.5,30.1l-41.1-19.9c-2.1-0.8-4.8,0.5-6.4,1.9
		c-0.6,0.5-1.1,1.2-1.4,2.1c-1.1,2.9,0.6,6.2,3.5,7.3l34.3,17.3c0.4,0.1,0.6,0.6,0.4,1c-0.1,0.4-0.6,0.6-1,0.4l-46-17.4
		c-2.2,0-4.4,1-5.4,3.7c-0.4,1.1-0.5,2.1-0.4,3.1c0.2,1.5,1.3,2.7,2.7,3.2l47.3,17.9c0.4,0.1,0.6,0.6,0.4,1c-0.1,0.4-0.6,0.6-1,0.4
		l-36-9.7c-5.5-2.1-10.4,4.7-6.4,9.1c0.2,0.2,0.3,0.4,0.5,0.5l40.8,11.6c0.4,0.1,0.6,0.6,0.4,1c-0.1,0.4-0.6,0.6-1,0.4l-29.6-5
		c-3.2-1.2-6.7,1.1-6.7,4.4c0,1.5,0.7,3.1,2.7,4.5C21,238.6,62.5,249.4,69.7,251.9z"/>
</g>
</svg>
