<?xml version="1.0" encoding="utf-8"?>
<!-- Generator: Adobe Illustrator 22.1.0, SVG Export Plug-In . SVG Version: 6.00 Build 0)  -->
<svg version="1.1" id="Layer_1" xmlns="http://www.w3.org/2000/svg" xmlns:xlink="http://www.w3.org/1999/xlink" x="0px" y="0px"
	 viewBox="0 0 256 256" style="enable-background:new 0 0 256 256;" xml:space="preserve">
<rect style="fill:#FF6B57;" width="256" height="256"/>
<g style="opacity:0;">
	<circle style="fill:#3F3F3F;" cx="82.4" cy="101.3" r="12.4"/>
	<circle style="fill:#3F3F3F;" cx="173.6" cy="101.3" r="12.4"/>
	<path style="fill:#78D9EA;" d="M111.8,198.8L111.8,198.8c-4.6,0-8.3-3.7-8.3-8.2v-21.8H120v21.8C120,195.1,116.3,198.8,111.8,198.8
		z"/>
	<path style="fill:#78D9EA;" d="M97.9,189.7L97.9,189.7c-3.1,0-5.6-2.5-5.6-5.6v-24.4h11.2v24.4C103.5,187.2,101,189.7,97.9,189.7z"
		/>
	<path style="fill:none;stroke:#3F3F3F;stroke-width:8;stroke-linecap:round;stroke-linejoin:round;stroke-miterlimit:10;" d="
		M161.1,62c0,0,21.1-15.5,37,5.2"/>
	<path style="fill:none;stroke:#3F3F3F;stroke-width:8;stroke-linecap:round;stroke-linejoin:round;stroke-miterlimit:10;" d="
		M54.5,68.6c0,0,14.5-22.9,37.8-9"/>
	<ellipse style="fill:#78D9EA;" cx="122.8" cy="170.5" rx="30.5" ry="13.3"/>
	<path style="fill:#3F3F3F;" d="M168.8,146.7c-4.4-9.4-11.7-8.7-19.6-5.9c-7.2,2.6-14.9,3.6-21.2,3.7c-6.4-0.1-14-1.1-21.2-3.7
		c-7.9-2.8-15.2-3.6-19.6,5.9c-11.1,23.8,32.2,34.8,40.8,33.5C136.6,181.7,179.9,170.5,168.8,146.7z"/>
</g>
</svg>
