<?xml version="1.0" encoding="utf-8"?>
<!-- Generator: Adobe Illustrator 22.1.0, SVG Export Plug-In . SVG Version: 6.00 Build 0)  -->
<svg version="1.1" id="Layer_1" xmlns="http://www.w3.org/2000/svg" xmlns:xlink="http://www.w3.org/1999/xlink" x="0px" y="0px"
	 viewBox="0 0 256 256" style="enable-background:new 0 0 256 256;" xml:space="preserve">
<rect x="0" style="fill:#FFC06C;" width="256" height="256"/>
<g style="opacity:0;">
	<circle style="fill:#3F3F3F;" cx="76.7" cy="104.4" r="18.8"/>
	<path style="fill:none;stroke:#3F3F3F;stroke-width:8;stroke-linecap:round;stroke-linejoin:round;stroke-miterlimit:10;" d="
		M153.6,110c0,0,7.7-11.2,26.2-11.2c17.8,0,26.2,11.2,26.2,11.2"/>
	<path style="fill:none;stroke:#3F3F3F;stroke-width:8;stroke-linecap:round;stroke-linejoin:round;stroke-miterlimit:10;" d="
		M164.6,68.9c0,0,24.1-8.3,49,6.4"/>
	<path style="fill:none;stroke:#3F3F3F;stroke-width:8;stroke-linecap:round;stroke-linejoin:round;stroke-miterlimit:10;" d="
		M81.1,40c0,0-21.9-5.9-43.1,13.8"/>
	<g>
		<path style="fill:#3F3F3F;" d="M128.5,142.9c4.8,0.8,9.5,2,14.2,3.5c2.3,0.8,4.6,1.7,7,2.7c1.2,0.6,2.3,1.2,3.5,2
			c0.6,0.5,1.2,0.9,1.9,1.6c0.2,0.2,0.3,0.3,0.5,0.6c0.2,0.3,0.3,0.4,0.5,0.8c0.2,0.4,0.3,0.7,0.4,1.1c0.1,0.5,0.2,1.1,0.1,1.6
			c-0.1,0.4-0.2,0.9-0.3,1.3c-0.1,0.3-0.3,0.6-0.5,0.9c-0.2,0.3-0.3,0.5-0.5,0.7c-0.2,0.2-0.3,0.4-0.5,0.6c-0.3,0.3-0.6,0.6-0.9,0.9
			c-0.3,0.3-0.6,0.5-0.9,0.7c-1.2,0.8-2.3,1.5-3.5,2c-2.3,1.1-4.6,2.1-6.9,2.9c-4.6,1.6-9.3,2.9-14.1,3.8l0,0l0.1-3.8
			c4.3,1.1,8.5,2.6,12.6,4.3c2.1,0.9,4.1,1.9,6.1,3c1,0.6,2,1.2,3,2c0.5,0.4,1,0.8,1.6,1.3c0.5,0.6,1.1,1.1,1.7,2.2
			c0.1,0.1,0.1,0.2,0.2,0.4c0.1,0.2,0.2,0.4,0.2,0.7c0.1,0.5,0.2,0.9,0.1,1.4c0,0.5-0.1,1-0.2,1.3c-0.1,0.3-0.3,0.8-0.4,1
			c-0.2,0.3-0.3,0.5-0.5,0.7c-0.2,0.2-0.3,0.4-0.5,0.6c-0.3,0.4-0.6,0.6-1,0.9c-1.2,0.9-2.3,1.5-3.4,2c-2.2,1-4.4,1.7-6.5,2.3
			c-4.3,1.2-8.7,2.1-13.1,2.5c-1.2,0.1-2.2-0.8-2.3-1.9c-0.1-1,0.5-1.9,1.4-2.2l0,0c4-1.5,8.1-2.9,12-4.3c1.9-0.8,3.9-1.5,5.6-2.4
			c0.8-0.4,1.7-0.9,2.1-1.3c0.1-0.1,0.2-0.2,0.2-0.2c0,0,0.1-0.1,0,0c0,0,0,0,0,0.1c-0.1,0.1-0.2,0.3-0.2,0.8c0,0.2,0,0.4,0.1,0.6
			c0,0.1,0.1,0.2,0.1,0.3c0,0,0,0,0,0c0.1,0.1-0.1-0.2-0.3-0.4c-0.3-0.3-0.6-0.5-0.9-0.8c-0.7-0.6-1.5-1.1-2.4-1.7
			c-1.7-1.1-3.5-2.1-5.4-3.2c-3.7-2-7.5-4-11.3-6.1l-0.5-0.3c-0.9-0.5-1.2-1.7-0.7-2.6c0.3-0.5,0.8-0.9,1.3-0.9l0,0
			c4.3-1.9,8.7-3.7,13-5.6c2.1-1,4.2-1.9,6.2-3c1-0.5,1.9-1.1,2.7-1.6c0.2-0.1,0.4-0.3,0.5-0.4c0.2-0.1,0.3-0.2,0.4-0.4
			c0.1-0.1,0.1-0.1,0.1-0.1c0,0,0.1-0.1,0,0c0,0-0.1,0.1-0.1,0.1c-0.1,0.1-0.1,0.3-0.1,0.4c0,0.2,0,0.5,0.1,0.7c0,0.2,0,0.2,0.1,0.3
			c0.1,0.1,0,0,0,0c0,0,0,0-0.1-0.1c-0.1-0.2-0.5-0.4-0.8-0.7c-0.7-0.5-1.7-1.1-2.7-1.6c-1.9-1.1-4.1-2-6.2-2.9
			c-4.3-1.8-8.7-3.6-13.1-5.4l0,0c-1-0.4-1.4-1.5-1-2.5C126.8,143.2,127.7,142.8,128.5,142.9z"/>
	</g>
	<path style="fill:#F43521;" d="M216.6,181.4c0,0-21.6,5.8-36.1,8.2c-3.1-14.5-4.8-36.1-4.8-36.2c-0.8-4,0.8-9.4,3.3-13
		c5-7.3,15-9.2,22.3-4.2c4.6,3.1,7,8.3,7,13.4c4.8-1.9,10.5-1.5,15.1,1.6c7.3,5,9.2,15,4.2,22.3C225,177.2,220.5,180.6,216.6,181.4z
		"/>
</g>
</svg>
