<?xml version="1.0" encoding="utf-8"?>
<!-- Generator: Adobe Illustrator 22.1.0, SVG Export Plug-In . SVG Version: 6.00 Build 0)  -->
<svg version="1.1" id="Layer_1" xmlns="http://www.w3.org/2000/svg" xmlns:xlink="http://www.w3.org/1999/xlink" x="0px" y="0px"
	 viewBox="0 0 256 256" style="enable-background:new 0 0 256 256;" xml:space="preserve">
<rect style="fill:#FF6B57;" width="256" height="256"/>
<g style="opacity:0;">
	<path style="fill:none;stroke:#3F3F3F;stroke-width:8;stroke-linecap:round;stroke-linejoin:round;stroke-miterlimit:10;" d="
		M149.2,117.9c0,0,8.1-16.5,26.7-16.4c17.8,0,25.7,16.4,25.7,16.4"/>
	<path style="fill:none;stroke:#3F3F3F;stroke-width:8;stroke-linecap:round;stroke-linejoin:round;stroke-miterlimit:10;" d="
		M106.8,117.9c0,0-3.3-16.4-26.7-16.4c-19.9,0-25.7,16.4-25.7,16.4"/>
	<g>
		<defs>
			<path id="XMLID_17_" d="M149.2,177c-5.2,2.8-12.1,4.7-21.2,4.7c-9.2,0-16-1.8-21.2-4.7c-17-9.3-15.5-29.3-15.5-29.3h73.3
				C164.7,147.7,166.2,167.7,149.2,177z"/>
		</defs>
		<use xlink:href="#XMLID_17_"  style="overflow:visible;fill:#3F3F3F;"/>
		<clipPath id="XMLID_2_">
			<use xlink:href="#XMLID_17_"  style="overflow:visible;"/>
		</clipPath>
		<rect x="87" y="141.7" style="clip-path:url(#XMLID_2_);fill:#FFFFFF;" width="85" height="15.3"/>
	</g>
	<path style="fill:#78D9EA;" d="M223.6,128.3c4.3,3.8,4.8,10.4,1,14.7c-3.8,4.3-10.4,4.8-14.7,1c-4.3-3.8-12.7-24.9-12.7-24.9
		S219.2,124.5,223.6,128.3z"/>
	<path style="fill:#78D9EA;" d="M31.8,128.3c-4.3,3.8-4.8,10.4-1,14.7c3.8,4.3,10.4,4.8,14.7,1c4.3-3.8,12.7-24.9,12.7-24.9
		S36.1,124.5,31.8,128.3z"/>
	<path style="fill:none;stroke:#3F3F3F;stroke-width:8;stroke-linecap:round;stroke-linejoin:round;stroke-miterlimit:10;" d="
		M164.7,60.9c0,0,29.1,7.3,45.2,27.5"/>
	<path style="fill:none;stroke:#3F3F3F;stroke-width:8;stroke-linecap:round;stroke-linejoin:round;stroke-miterlimit:10;" d="
		M91.3,63.7c0,0-29.1,7.3-45.2,27.5"/>
</g>
</svg>
