<?xml version="1.0" encoding="utf-8"?>
<!-- Generator: Adobe Illustrator 22.1.0, SVG Export Plug-In . SVG Version: 6.00 Build 0)  -->
<svg version="1.1" id="Layer_1" xmlns="http://www.w3.org/2000/svg" xmlns:xlink="http://www.w3.org/1999/xlink" x="0px" y="0px"
	 viewBox="0 0 256 256" style="enable-background:new 0 0 256 256;" xml:space="preserve">
<rect x="0" style="fill:#FFC06C;" width="256" height="256"/>
<g style="opacity:0;">
	<circle style="fill:#FFFFFF;" cx="79.7" cy="101.5" r="26.7"/>
	<circle style="fill:#3F3F3F;" cx="79.7" cy="101.5" r="12.4"/>
	<circle style="fill:#FFFFFF;" cx="178.9" cy="101.5" r="26.7"/>
	<circle style="fill:#3F3F3F;" cx="178.9" cy="101.5" r="12.4"/>
	
		<line style="fill:none;stroke:#3F3F3F;stroke-width:8;stroke-linecap:round;stroke-linejoin:round;stroke-miterlimit:10;" x1="84.3" y1="158.3" x2="171.9" y2="158.3"/>
	<rect x="89.8" y="156.9" style="fill:#CECECE;" width="7.2" height="10.8"/>
	<rect x="97" y="148.8" style="fill:#CECECE;" width="7.2" height="10.8"/>
	<rect x="104.2" y="156.9" style="fill:#CECECE;" width="7.2" height="10.8"/>
	<rect x="111.3" y="148.8" style="fill:#CECECE;" width="7.2" height="10.8"/>
	<rect x="118.5" y="156.9" style="fill:#CECECE;" width="7.2" height="10.8"/>
	<rect x="125.7" y="148.8" style="fill:#CECECE;" width="7.2" height="10.8"/>
	<rect x="132.8" y="156.9" style="fill:#CECECE;" width="7.2" height="10.8"/>
	<rect x="140" y="148.8" style="fill:#CECECE;" width="7.2" height="10.8"/>
	<rect x="147.2" y="156.9" style="fill:#CECECE;" width="7.2" height="10.8"/>
	<rect x="154.3" y="148.8" style="fill:#CECECE;" width="7.2" height="10.8"/>
	<path style="fill:#CECECE;" d="M176.1,169l-8.8-10.5c-0.4-0.4-0.8-0.8-1.3-1c-1.3-0.7-2.8-0.7-4.1,0c-1.8,1-2.7,3.2-2,5.2l4.2,13
		c0.9,2.6,3.9,3.8,6.3,2.5l4.5-2.5C177.3,174.3,177.9,171.1,176.1,169z M171.6,174.3l-1.5,0.8c-0.8,0.4-1.8,0-2-0.8l-1.4-4.3
		c-0.2-0.6,0.1-1.4,0.7-1.7c0.4-0.2,0.9-0.2,1.3,0c0.2,0.1,0.3,0.2,0.4,0.3l2.9,3.4C172.5,172.8,172.4,173.9,171.6,174.3z"/>
</g>
</svg>
