<?xml version="1.0" encoding="utf-8"?>
<!-- Generator: Adobe Illustrator 22.1.0, SVG Export Plug-In . SVG Version: 6.00 Build 0)  -->
<svg version="1.1" id="Layer_1" xmlns="http://www.w3.org/2000/svg" xmlns:xlink="http://www.w3.org/1999/xlink" x="0px" y="0px"
	 viewBox="0 0 256 256" style="enable-background:new 0 0 256 256;" xml:space="preserve">
<path style="fill:#FFDF97;" d="M191.2,183.4c-0.5,2.3-1.5,4.6-2.7,6.6c-4.2,7.1-14.9,24.1-22,27.3c-9,4.2-6,28.2-6,28.2L87.7,230
	c0,0,10.5-23.2,6.1-28.7c-4.4-5.5-21.7-7.1-20.1-73.5c0,0,0-20-9.4-35.4c-9.6-15.7-6.1-17.7-5.2-18.1C86.6,61.1,99.1,118,103,119.9
	l12.1-87.3c0.6-4.3,5.2-8,9.3-9.5c1.1-0.4,2.5-0.7,4.1-0.6c6.6,0.3,11.4,6.4,10.6,12.9l-9.5,75.4c-0.2,0.8,0.3,1.6,1.2,1.8
	c0.8,0.2,1.6-0.3,1.8-1.2l20.4-95.7c2.3-3.7,6.3-6.3,12.1-5.1c2.1,0.5,4,1.3,5.6,2.6c2.3,2,3.2,5.1,2.6,8.1l-21,98.3
	c-0.2,0.8,0.3,1.6,1.2,1.8c0.8,0.2,1.6-0.3,1.8-1.2L175.5,48c4.5-11.1,21.1-8.7,22,3.3c0,0.3,0,0.7,0,1l-22.2,78.6
	c-0.2,0.8,0.3,1.6,1.2,1.8c0.8,0.2,1.6-0.3,1.8-1.2l22.9-51.2c3.4-5.8,11.6-6.8,15.9-1.6c1.9,2.3,2.8,5.6,1.5,10.2
	C216.4,96.9,194.7,168.6,191.2,183.4z"/>
</svg>
