<?xml version="1.0" encoding="utf-8"?>
<!-- Generator: Adobe Illustrator 22.1.0, SVG Export Plug-In . SVG Version: 6.00 Build 0)  -->
<svg version="1.1" id="Layer_1" xmlns="http://www.w3.org/2000/svg" xmlns:xlink="http://www.w3.org/1999/xlink" x="0px" y="0px"
	 viewBox="0 0 256 256" style="enable-background:new 0 0 256 256;" xml:space="preserve">
<path style="fill:#FFDF97;" d="M179.4,139.1c0,1.9-0.4,3.9-1,5.7c-2.1,6.4-7.6,21.6-12.6,25.5c-6.4,4.9,0.1,71.3,0.1,71.3l-60.4,0.4
	c0,0,4.3-68.1-0.2-71.7c-4.5-3.6-18.4-1.8-28.7-54.6c0,0-3.5-15.8-13.6-26.4c-10.3-10.7-7.9-12.9-7.2-13.5
	c19.5-15.3,39.2,27.6,42.7,28.4l-5.6-71.2c-0.3-3.5,2.7-7.2,5.7-9.2c0.8-0.5,1.9-1,3.1-1.2c5.2-0.9,10.1,3.1,10.6,8.4l5.6,61.3
	c0,0.7,0.6,1.2,1.2,1.2c0.7,0,1.2-0.6,1.2-1.2l-0.5-79.3c1.2-3.3,3.9-6.1,8.7-6.1c1.8,0,3.4,0.4,4.9,1.1c2.2,1.2,3.5,3.5,3.5,6
	l0.5,81.4c0,0.7,0.6,1.2,1.2,1.2c0.7,0,1.2-0.6,1.2-1.2l3.5-60.9c1.7-9.5,15.2-10.5,18-1.3c0.1,0.3,0.1,0.5,0.2,0.8l-3.8,66.1
	c0,0.7,0.6,1.2,1.2,1.2c0.7,0,1.2-0.6,1.2-1.2l9.2-44.5c1.7-5.2,8-7.4,12.3-4c1.9,1.5,3.2,3.9,3,7.8
	C184.2,66.2,179.5,126.8,179.4,139.1z"/>
</svg>
