<?xml version="1.0" encoding="utf-8"?>
<!-- Generator: Adobe Illustrator 22.1.0, SVG Export Plug-In . SVG Version: 6.00 Build 0)  -->
<svg version="1.1" id="Layer_1" xmlns="http://www.w3.org/2000/svg" xmlns:xlink="http://www.w3.org/1999/xlink" x="0px" y="0px"
	 viewBox="0 0 256 256" style="enable-background:new 0 0 256 256;" xml:space="preserve">
<rect x="0" style="opacity:0;fill:#FFC06C;" width="256" height="256"/>
<g>
	<path style="fill:none;stroke:#3F3F3F;stroke-width:8;stroke-linecap:round;stroke-linejoin:round;stroke-miterlimit:10;" d="
		M167.9,60.2c0,0,26.6-6,43.9,18.7"/>
	<path style="fill:none;stroke:#3F3F3F;stroke-width:8;stroke-linecap:round;stroke-linejoin:round;stroke-miterlimit:10;" d="
		M87,60.2c0,0-26.6-6-43.9,18.7"/>
	<path style="fill:none;stroke:#3F3F3F;stroke-width:8;stroke-linecap:round;stroke-linejoin:round;stroke-miterlimit:10;" d="
		M149.2,100.7c0,0,9.3,10.8,26.7,10.8c17.8,0,25.7-10.8,25.7-10.8"/>
	<path style="fill:#3F3F3F;" d="M128.5,145.8c13.1-0.2,25.8-5.5,25.8-5.5c1.2-0.6,2.6-0.1,3.1,1.1c0.1,0.3,0.2,0.6,0.2,0.9l0,0.8
		c0,0.2,0,0.5,0,0.7c0,0.4,0,0.9,0,1.3c0,0.9-0.2,1.7-0.3,2.6c-0.4,1.7-0.9,3.4-1.7,5c-1.5,3.2-3.9,6.2-6.9,8.5
		c-1.5,1.1-3,2.2-4.7,2.9c-0.8,0.4-1.6,0.9-2.5,1.1l-2.6,0.9c-0.9,0.3-1.7,0.5-2.6,0.6l-2.6,0.5c-1.7,0.2-3.4,0.3-5.1,0.4
		c-1.7-0.1-3.4-0.1-5.1-0.3l-2.6-0.5c-0.9-0.2-1.7-0.3-2.6-0.6l-2.6-0.8c-0.9-0.3-1.7-0.7-2.5-1.1c-1.7-0.7-3.2-1.8-4.8-2.9
		c-3-2.3-5.4-5.3-7-8.5c-0.8-1.6-1.4-3.3-1.8-5c-0.2-0.9-0.3-1.7-0.4-2.6c0-0.4-0.1-0.9-0.1-1.3c0-0.2,0-0.4,0-0.7l0-0.8
		c0-1.2,1-2.1,2.2-2.1c0.1,0,1.9,0.7,2,0.7C103.5,141,115,145.8,128.5,145.8z"/>
	<path style="fill:none;stroke:#3F3F3F;stroke-width:8;stroke-linecap:round;stroke-linejoin:round;stroke-miterlimit:10;" d="
		M106.8,100.7c0,0-9.3,10.8-26.7,10.8c-15.5,0-25.7-10.8-25.7-10.8"/>
</g>
</svg>
