<?xml version="1.0" encoding="utf-8"?>
<!-- Generator: Adobe Illustrator 22.1.0, SVG Export Plug-In . SVG Version: 6.00 Build 0)  -->
<svg version="1.1" id="Layer_1" xmlns="http://www.w3.org/2000/svg" xmlns:xlink="http://www.w3.org/1999/xlink" x="0px" y="0px"
	 viewBox="0 0 256 256" style="enable-background:new 0 0 256 256;" xml:space="preserve">
<rect style="fill:#FFC06C;" width="256" height="256"/>
<g style="opacity:0;">
	<path style="fill:none;stroke:#3F3F3F;stroke-width:8;stroke-linecap:round;stroke-linejoin:round;stroke-miterlimit:10;" d="
		M181,154.6c0,27.1-23.7,49.1-53,49.1s-53-22-53-49.1"/>
	<path style="fill:#F43521;" d="M99.8,101.4c0,0-14.5,17-25.2,27.1c-10.8-10.2-24.4-27.1-24.4-27.1c-2.9-2.9-4.7-8.2-4.7-12.6
		c0-8.9,7.2-16,16-16c5.6,0,10.5,2.8,13.4,7.2c2.9-4.3,7.8-7.2,13.4-7.2c8.9,0,16,7.2,16,16C104.4,93.1,102.6,98.5,99.8,101.4z"/>
	<path style="fill:#F43521;" d="M205.8,101.4c0,0-14.5,17-25.2,27.1c-10.8-10.2-24.4-27.1-24.4-27.1c-2.9-2.9-4.7-8.2-4.7-12.6
		c0-8.9,7.2-16,16-16c5.6,0,10.5,2.8,13.4,7.2c2.9-4.3,7.8-7.2,13.4-7.2c8.9,0,16,7.2,16,16C210.4,93.1,208.6,98.5,205.8,101.4z"/>
</g>
</svg>
