<?xml version="1.0" encoding="utf-8"?>
<!-- Generator: Adobe Illustrator 22.1.0, SVG Export Plug-In . SVG Version: 6.00 Build 0)  -->
<svg version="1.1" id="Layer_1" xmlns="http://www.w3.org/2000/svg" xmlns:xlink="http://www.w3.org/1999/xlink" x="0px" y="0px"
	 viewBox="0 0 256 256" style="enable-background:new 0 0 256 256;" xml:space="preserve">
<rect x="0" style="opacity:0;fill:#FF6B57;" width="256" height="256"/>
<g>
	<g>
		<defs>
			<path id="XMLID_16_" d="M145.5,165.7v18.7c0,10-8.1,18-18,18s-18-8-18-18v-18.7c0-9.9,8.1-18,18-18c5,0,9.5,2,12.7,5.3
				C143.5,156.2,145.5,160.7,145.5,165.7z"/>
		</defs>
		<use xlink:href="#XMLID_16_"  style="overflow:visible;fill:#3F3F3F;"/>
		<clipPath id="XMLID_2_">
			<use xlink:href="#XMLID_16_"  style="overflow:visible;"/>
		</clipPath>
		<rect x="100.8" y="145.3" style="clip-path:url(#XMLID_2_);fill:#FFFFFF;" width="49.7" height="13.7"/>
	</g>
	<path style="fill:none;stroke:#3F3F3F;stroke-width:8;stroke-linecap:round;stroke-linejoin:round;stroke-miterlimit:10;" d="
		M149,54.7c0,0,16,16,50.7,15.3"/>
	<path style="fill:none;stroke:#3F3F3F;stroke-width:8;stroke-linecap:round;stroke-linejoin:round;stroke-miterlimit:10;" d="
		M105.9,56.2c0,0-16,16-50.7,15.3"/>
	<path style="fill:#78D9EA;" d="M236.1,105c0,9.1-7.4,16.5-16.5,16.5c-9.1,0-16.5-7.4-16.5-16.5s16.5-41.1,16.5-41.1
		S236.1,95.8,236.1,105z"/>
	<circle style="fill:#FFFFFF;" cx="81.8" cy="117.6" r="26.7"/>
	<circle style="fill:#3F3F3F;" cx="81.8" cy="117.6" r="12.4"/>
	<circle style="fill:#FFFFFF;" cx="173" cy="117.6" r="26.7"/>
	<circle style="fill:#3F3F3F;" cx="173" cy="117.6" r="12.4"/>
</g>
</svg>
