<?xml version="1.0" encoding="utf-8"?>
<!-- Generator: Adobe Illustrator 22.1.0, SVG Export Plug-In . SVG Version: 6.00 Build 0)  -->
<svg version="1.1" id="Layer_1" xmlns="http://www.w3.org/2000/svg" xmlns:xlink="http://www.w3.org/1999/xlink" x="0px" y="0px"
	 viewBox="0 0 256 256" style="enable-background:new 0 0 256 256;" xml:space="preserve">
<g style="opacity:0;">
	<path style="fill:#FFDF97;" d="M184.1,148.8l-24.4-14.7l-3.4-2.1l0.5-0.5l3,1.9l22.3,13.8C182.8,147.7,183.5,148.2,184.1,148.8z"/>
	<polygon style="fill:#FFDF97;" points="156.7,153.4 168.4,161.4 156.5,154.6 150.3,151.1 151.8,150.1 	"/>
	<path style="fill:#FFDF97;" d="M159.7,134.1l-3.4-2.1l0.5-0.5l3,1.9l22.3,13.8c0.8,0.4,1.4,0.9,2,1.5L159.7,134.1z"/>
	<path style="fill:#FFDF97;" d="M202.1,146.4c-1.8,3.6-5.5,5.7-9.2,5.7c-1.5,0-3.1-0.4-4.6-1.1l-3.4-1.7l-0.8-0.5
		c1.8,1.8,2.8,4.3,2.8,6.7c0,1.6-0.4,3.3-1.3,4.8c-2.6,4.5-8.4,6.1-13,3.5l-4.2-2.4c2.8,1.6,4.3,4.5,4.3,7.4c0,1.5-0.4,3.1-1.3,4.5
		c-2.2,3.6-6.8,5-10.6,3.3l-7.3-3.1c3.2,1.4,4.1,5.5,1.8,8.2c-2.9,3.3-7,5.1-11.2,5.1c-1.4,0-2.9-0.2-4.3-0.6l-21.3-6.3
		c-0.4-0.1-0.9-0.3-1.2-0.5c0,0,0,0,0,0l5.2-6.9c3.3-4.4,2.5-10.7-2-14c-3.8-2.9-9-2.6-12.5,0.3l1.9-2.7c3.2-4.5,2.3-10.7-2.2-14
		c-4.1-3-9.7-2.4-13.1,1.2l2.1-3c3.3-4.8,2.2-11.3-2.6-14.7c-4.8-3.3-11.3-2.2-14.7,2.6l-4.8,6.9c0.3-3.1-0.9-6.2-3.5-8.3
		c-4.1-3.3-10-2.6-13.3,1.5l-4.1,5.2c-5.8-5.2-10.8-10.3-14.5-15c-0.3-0.4-0.6-0.9-0.8-1.4l30-53.5c0.8,0,1.7,0.2,2.4,0.6
		c6.3,3.4,18.1,9.1,27.8,10.1c-7.9,10.1-19.6,27.8-18.7,29.2c1.1,1.8,20,2.6,27-5.2c7-7.8,16.3-12.9,20.7-11.8
		c3.5,0.9,26.3,15.5,35.8,21.7c0,0,0,0,0,0c2.5,1.7,4.1,2.7,4.1,2.7l31,22.6c0.1,0,0.1,0.1,0.2,0.1C203,136.6,204.3,142,202.1,146.4
		z"/>
	<polygon style="fill:#FFDF97;" points="151.8,150.1 156.7,153.4 156.5,154.6 153.5,173.5 130.9,163.7 150.3,151.1 	"/>
	<polygon style="fill:#FFDF97;" points="159.8,133.4 159.7,134.1 156.3,132 156.8,131.6 	"/>
	<g>
		<path style="fill:#FFDF97;" d="M122.6,172.3l-5.2,6.9l-8.5,11.2c-2,2.6-5,4-8,4c-2.1,0-4.2-0.7-6-2c-3.6-2.7-4.8-7.3-3.4-11.3
			c-1.8,1.6-4.1,2.4-6.5,2.4c-2,0-4.1-0.6-5.9-1.9c-3.5-2.6-4.9-7-3.7-10.9c-2,2-4.7,3-7.4,3c-2.1,0-4.2-0.6-6-1.9
			c-4.8-3.3-5.9-9.9-2.6-14.7l3.6-5.1c-1.7,1.4-3.8,2.1-6,2.1c-2.1,0-4.1-0.7-5.9-2.1c-4.1-3.2-4.7-9.2-1.5-13.2l4.2-5.3l4.1-5.2
			c3.3-4.1,9.2-4.8,13.3-1.5c2.6,2.1,3.8,5.2,3.5,8.3l4.8-6.9c3.3-4.8,9.9-5.9,14.7-2.6c4.8,3.3,5.9,9.9,2.6,14.7l-2.1,3
			c3.4-3.6,9-4.2,13.1-1.2c4.5,3.3,5.4,9.5,2.2,14l-1.9,2.7c3.5-3,8.7-3.2,12.5-0.3C125.1,161.7,126,167.9,122.6,172.3z"/>
	</g>
	<path style="fill:#FFDF97;" d="M218.3,119.1l-18.4,15.1l-0.8-0.6c-0.1-0.1-0.1-0.1-0.2-0.1l-31-22.6c0,0-1.6-1-4.1-2.7c0,0,0,0,0,0
		c-9.5-6.2-32.3-20.8-35.8-21.7c-4.4-1.1-13.7,4.1-20.7,11.8c-7,7.8-25.9,7-27,5.2C79.4,102,91.1,84.3,99,74.2
		c1.9-2.5,3.7-4.5,4.9-5.7c6.3-6.1,34-6,44-4.9c10,1.1,17.7,3.7,23.7,4.8c4.9,0.9,13.6-3,16.4-4.3L218.3,119.1z"/>
	<path style="fill:#FFDF97;" d="M199.1,133.6l-35.3-25.4c2.5,1.7,4.1,2.7,4.1,2.7l31,22.6C199,133.5,199,133.5,199.1,133.6z"/>
	<path style="fill:#FFDF97;" d="M241.1,119l-11.5,6.6c-3.3,1.9-7.4,0.7-9.2-2.6l-2.1-3.9L188,64l-2.3-4.1c-1.7-3.1-0.7-7.1,2.4-8.9
		l9.8-6c3.2-2,7.4-0.9,9.3,2.3l36.4,62.5C245.5,113,244.3,117.2,241.1,119z"/>
	<path style="fill:#FFDF97;" d="M70.9,59.7l-2.2,3.9l-30,53.5l-3.3,5.9c-1.8,3.3-6,4.4-9.3,2.5L15.3,119c-3.2-1.9-4.2-5.9-2.4-9.1
		L49,47.2c1.8-3.2,5.9-4.3,9.1-2.5l10.3,5.9C71.6,52.4,72.7,56.4,70.9,59.7z"/>
</g>
<g>
	<path style="opacity:5.000000e-02;" d="M202.1,146.4c-1.8,3.6-5.5,5.7-9.2,5.7c-1.5,0-3.1-0.4-4.6-1.1l-3.4-1.7l-0.8-0.5
		c1.8,1.8,2.8,4.3,2.8,6.7c0,1.6-0.4,3.3-1.3,4.8c-2.6,4.5-8.4,6.1-13,3.5l-4.2-2.4c2.8,1.6,4.3,4.5,4.3,7.4c0,1.5-0.4,3.1-1.3,4.5
		c-2.2,3.6-6.8,5-10.6,3.3l-7.3-3.1c3.2,1.4,4.1,5.5,1.8,8.2c-2.9,3.3-7,5.1-11.2,5.1c-1.4,0-2.9-0.2-4.3-0.6l-21.3-6.3
		c-0.4-0.1-0.9-0.3-1.2-0.5c0,0,0,0,0,0l5.2-6.9c3.3-4.4,2.5-10.7-2-14c-3.8-2.9-9-2.6-12.5,0.3l1.9-2.7c3.2-4.5,2.3-10.7-2.2-14
		c-4.1-3-9.7-2.4-13.1,1.2l2.1-3c3.3-4.8,2.2-11.3-2.6-14.7c-4.8-3.3-11.3-2.2-14.7,2.6l-4.8,6.9c0.3-3.1-0.9-6.2-3.5-8.3
		c-4.1-3.3-10-2.6-13.3,1.5l-4.1,5.2c-5.8-5.2-10.8-10.3-14.5-15c-0.3-0.4-0.6-0.9-0.8-1.4l30-53.5c0.8,0,1.7,0.2,2.4,0.6
		c6.3,3.4,18.1,9.1,27.8,10.1c-7.9,10.1-19.6,27.8-18.7,29.2c1.1,1.8,20,2.6,27-5.2c7-7.8,16.3-12.9,20.7-11.8
		c3.5,0.9,26.3,15.5,35.8,21.7c0,0,0,0,0,0c2.5,1.7,4.1,2.7,4.1,2.7l31,22.6c0.1,0,0.1,0.1,0.2,0.1C203,136.6,204.3,142,202.1,146.4
		z"/>
	<path style="opacity:0.1;" d="M241.1,119l-11.5,6.6c-3.3,1.9-7.4,0.7-9.2-2.6l-2.1-3.9L188,64l-2.3-4.1c-1.7-3.1-0.7-7.1,2.4-8.9
		l9.8-6c3.2-2,7.4-0.9,9.3,2.3l36.4,62.5C245.5,113,244.3,117.2,241.1,119z"/>
	<path style="opacity:0.1;" d="M70.9,59.7l-2.2,3.9l-30,53.5l-3.3,5.9c-1.8,3.3-6,4.4-9.3,2.5L15.3,119c-3.2-1.9-4.2-5.9-2.4-9.1
		L49,47.2c1.8-3.2,5.9-4.3,9.1-2.5l10.3,5.9C71.6,52.4,72.7,56.4,70.9,59.7z"/>
</g>
</svg>
