<?xml version="1.0" encoding="utf-8"?>
<!-- Generator: Adobe Illustrator 22.1.0, SVG Export Plug-In . SVG Version: 6.00 Build 0)  -->
<svg version="1.1" id="Layer_1" xmlns="http://www.w3.org/2000/svg" xmlns:xlink="http://www.w3.org/1999/xlink" x="0px" y="0px"
	 viewBox="0 0 256 256" style="enable-background:new 0 0 256 256;" xml:space="preserve">
<rect style="opacity:0;fill:#FF6B57;" width="256" height="256"/>
<g>
	<circle style="fill:#FFFFFF;" cx="81.8" cy="117.6" r="26.7"/>
	<circle style="fill:#3F3F3F;" cx="81.8" cy="117.6" r="12.4"/>
	<circle style="fill:#FFFFFF;" cx="173" cy="117.6" r="26.7"/>
	<circle style="fill:#3F3F3F;" cx="173" cy="117.6" r="12.4"/>
	<path style="fill:none;stroke:#3F3F3F;stroke-width:8;stroke-linecap:round;stroke-linejoin:round;stroke-miterlimit:10;" d="
		M164.7,48.5c0,0,29.1,7.3,45.2,27.5"/>
	<path style="fill:none;stroke:#3F3F3F;stroke-width:8;stroke-linecap:round;stroke-linejoin:round;stroke-miterlimit:10;" d="
		M91.3,48.5c0,0-29.1,7.3-45.2,27.5"/>
	<g>
		<defs>
			<path id="XMLID_20_" d="M145.5,165.7v18.7c0,10-8.1,18-18,18s-18-8-18-18v-18.7c0-9.9,8.1-18,18-18c5,0,9.5,2,12.7,5.3
				C143.5,156.2,145.5,160.7,145.5,165.7z"/>
		</defs>
		<use xlink:href="#XMLID_20_"  style="overflow:visible;fill:#3F3F3F;"/>
		<clipPath id="XMLID_2_">
			<use xlink:href="#XMLID_20_"  style="overflow:visible;"/>
		</clipPath>
		<ellipse style="clip-path:url(#XMLID_2_);fill:#F95A71;" cx="128.3" cy="200.5" rx="18.5" ry="14.5"/>
	</g>
</g>
</svg>
