<?xml version="1.0" encoding="utf-8"?>
<!-- Generator: Adobe Illustrator 22.1.0, SVG Export Plug-In . SVG Version: 6.00 Build 0)  -->
<svg version="1.1" id="Layer_1" xmlns="http://www.w3.org/2000/svg" xmlns:xlink="http://www.w3.org/1999/xlink" x="0px" y="0px"
	 viewBox="0 0 256 256" style="enable-background:new 0 0 256 256;" xml:space="preserve">
<rect style="fill:#FF6B57;" width="256" height="256"/>
<g style="opacity:0;">
	
		<polyline style="fill:none;stroke:#3F3F3F;stroke-width:8;stroke-linecap:round;stroke-linejoin:round;stroke-miterlimit:10;" points="
		192.2,99 159.5,119.7 192.2,136.3 	"/>
	
		<polyline style="fill:none;stroke:#3F3F3F;stroke-width:8;stroke-linecap:round;stroke-linejoin:round;stroke-miterlimit:10;" points="
		62.8,99 95.5,119.7 62.8,136.3 	"/>
	<path style="fill:none;stroke:#3F3F3F;stroke-width:8;stroke-linecap:round;stroke-linejoin:round;stroke-miterlimit:10;" d="
		M164.5,44.3c0,0,11.5,25.5,36.4,28"/>
	<path style="fill:none;stroke:#3F3F3F;stroke-width:8;stroke-linecap:round;stroke-linejoin:round;stroke-miterlimit:10;" d="
		M90.8,44.3c0,0-11.5,25.5-36.4,28"/>
	<path style="fill:#3F3F3F;" d="M159.9,176.4c-1.5,0.9-3,1.8-4.5,2.6c-1.4,0.8-2.8,1.5-4,2.1h-48.1c-0.6-0.1-1.3-0.3-1.9-0.5
		c-1.9-0.6-3.7-1.5-5.3-2.4c-3.5-2.1-4.3-6.8-1.6-9.9c1.7-2,4-4.2,6.8-6.4c6.2-4.7,15.2-9,27.3-9c11.5,0,20.4,4.2,26.7,8.6
		c2.2,1.5,4,3.1,5.6,4.6C164.1,169.1,163.6,174.2,159.9,176.4z"/>
	<path style="fill:#78D9EA;" d="M241.2,95.2c0,9.1-7.4,16.5-16.5,16.5c-9.1,0-16.5-7.4-16.5-16.5s16.5-41.1,16.5-41.1
		S241.2,86,241.2,95.2z"/>
	<path style="fill:#5BCC40;" d="M155.4,161.6l0,17.4l0,35.2c0,3.6-3,6.6-6.6,6.6c-1.8,0-3.5,0.7-4.7,1.9s-1.9,2.8-1.9,4.7v7.3
		c0,5.5-4.4,9.9-9.9,9.9c-2.7,0-5.2-1.1-7-2.9c-1.8-1.8-2.9-4.3-2.9-7v-15.5c0-1.9-1.5-3.4-3.4-3.4c-0.9,0-1.8,0.4-2.4,1
		s-1,1.5-1,2.4v0.3c0,3.9-3.2,7.1-7.1,7.1c-2,0-3.7-0.8-5-2.1c-1.3-1.3-2.1-3-2.1-5l-0.1-38.9l0-18.7c6.2-4.7,15.2-9,27.3-9
		C140.2,153,149.2,157.2,155.4,161.6z"/>
</g>
</svg>
