<?xml version="1.0" encoding="utf-8"?>
<!-- Generator: Adobe Illustrator 22.1.0, SVG Export Plug-In . SVG Version: 6.00 Build 0)  -->
<svg version="1.1" id="Layer_1" xmlns="http://www.w3.org/2000/svg" xmlns:xlink="http://www.w3.org/1999/xlink" x="0px" y="0px"
	 viewBox="0 0 256 256" style="enable-background:new 0 0 256 256;" xml:space="preserve">
<rect style="opacity:0;fill:#FF6B57;" width="256" height="256"/>
<g>
	<path style="fill:none;stroke:#3F3F3F;stroke-width:8;stroke-linecap:round;stroke-linejoin:round;stroke-miterlimit:10;" d="
		M149.2,69.6c0,0,8.1,16.5,26.7,16.4c17.8,0,25.7-16.4,25.7-16.4"/>
	<path style="fill:none;stroke:#3F3F3F;stroke-width:8;stroke-linecap:round;stroke-linejoin:round;stroke-miterlimit:10;" d="
		M106.8,69.6c0,0-3.3,16.4-26.7,16.4c-19.9,0-25.7-16.4-25.7-16.4"/>
	<path style="fill:#78D9EA;" d="M111.8,166.5L111.8,166.5c-4.6,0-8.3-3.7-8.3-8.2v-21.8H120v21.8C120,162.8,116.3,166.5,111.8,166.5
		z"/>
	<path style="fill:#3F3F3F;" d="M159.9,141.9c-3.4,7.4-9.2,6.8-15.3,4.6c-5.6-2-11.6-2.8-16.6-2.9c-5,0.1-11,0.8-16.6,2.9
		c-6.2,2.2-11.9,2.8-15.3-4.6c-8.7-18.6,25.2-27.2,31.9-26.2C134.7,114.6,168.6,123.3,159.9,141.9z"/>
	<g>
		<path style="fill:#3F3F3F;" d="M178.6,132.4c0-0.6,0.2-1.2,0.6-1.6l8.6-11.1c1.3-1.5,2.3-2.7,3.6-4.1v-0.1H182
			c-1.4,0-2.5-1.1-2.5-2.5v0c0-1.4,1.1-2.5,2.5-2.5h14.3c1.5,0,2.7,1.2,2.7,2.7v0.2c0,0.6-0.2,1.2-0.6,1.6l-8.4,10.8
			c-1.2,1.5-2.4,2.9-3.6,4.2v0.1h10.5c1.4,0,2.5,1.1,2.5,2.5l0,0c0,1.4-1.1,2.5-2.5,2.5h-15.6C179.8,135,178.6,133.8,178.6,132.4
			L178.6,132.4z"/>
	</g>
	<g>
		<path style="fill:#3F3F3F;" d="M207.2,132c0-0.7,0.2-1.3,0.6-1.9l16.9-22c1.7-2.1,3.3-3.9,5-6V102h-18.1c-1.5,0-2.8-1.3-2.8-2.8
			v-0.1c0-1.5,1.3-2.8,2.8-2.8h23.6c1.7,0,3.1,1.4,3,3.1l0,0.3c0,0.7-0.2,1.3-0.6,1.8l-16.7,21.7c-1.6,2.2-3.2,4.1-5,6.1v0.2h19.8
			c1.5,0,2.8,1.3,2.8,2.8l0,0c0,1.5-1.3,2.8-2.8,2.8h-25.6C208.5,135,207.2,133.7,207.2,132L207.2,132z"/>
	</g>
</g>
</svg>
