<?xml version="1.0" encoding="utf-8"?>
<!-- Generator: Adobe Illustrator 22.1.0, SVG Export Plug-In . SVG Version: 6.00 Build 0)  -->
<svg version="1.1" id="Layer_1" xmlns="http://www.w3.org/2000/svg" xmlns:xlink="http://www.w3.org/1999/xlink" x="0px" y="0px"
	 viewBox="0 0 256 256" style="enable-background:new 0 0 256 256;" xml:space="preserve">
<g>
	<g>
		<path style="fill:#FFDF97;" d="M171.2,103.9L142,83.7c-1.5-1-3-1.8-4.7-2.3l-20.5-17.4c-7.6-6.4-8.5-17.8-2.1-25.4
			c4.1-4.8,10.2-7,16-6.2c0.4,0.8,0.8,1.6,1.3,2.4l32.2,49.3L171.2,103.9z"/>
	</g>
	<g>
		<path style="fill:#FFDF97;" d="M221.4,140.7c-1.3-2.2-3.1-4.2-5.4-5.8L200.3,124l-29.1-20.1l-6.9-19.7L132,34.8
			c-0.5-0.8-1-1.6-1.3-2.4c-3.6-8-1-17.6,6.5-22.5c8.3-5.4,19.5-3.1,24.9,5.2l34.6,52.9l23.7,67.5C221,137.3,221.4,139,221.4,140.7z
			"/>
	</g>
	<g>
		<path style="fill:#FFDF97;" d="M220.7,159.9c-0.4,0.6-0.8,1.1-1.3,1.6l-12.7,44.9c-4.6,16.1-17.1,28.7-33.2,33.4l-25.9,7.5
			c-18,5.2-37.3-0.5-49.8-14.5l-13.4-15.2c-1.5-1-2.8-2.2-4-3.7l-27.2-34.4c-3.1-3.9-4.4-8.9-3.7-13.8c1.2-7.8-2.9-11.5-2.9-11.5
			c-8-5.9-9.7-17.2-3.8-25.2c5.9-8,17.2-9.7,25.2-3.7c7,5.2,17.6,18.4,17.7,37.4l10.1,12.7c11.8,3.3,31.6,4.4,47.5-16.5
			c7.6-10,10.3-17.6,10.3-23.3L127,117.1l-57.5,5.3c-9.9,0.9-18.7-6.4-19.6-16.3c-0.9-9.9,6.4-18.7,16.3-19.6l64-5.9
			c2.5-0.2,4.9,0,7.2,0.8c1.7,0.5,3.2,1.3,4.7,2.3l29.1,20.1l29.1,20.1l15.8,10.9c2.3,1.6,4.1,3.6,5.4,5.8
			C224.8,146.5,224.8,154,220.7,159.9z"/>
	</g>
</g>
<g style="opacity:0;">
	<g style="opacity:0.1;">
		<path d="M171.2,103.9L142,83.7c-1.5-1-3-1.8-4.7-2.3l-20.5-17.4c-7.6-6.4-8.5-17.8-2.1-25.4c4.1-4.8,10.2-7,16-6.2
			c0.4,0.8,0.8,1.6,1.3,2.4l32.2,49.3L171.2,103.9z"/>
	</g>
	<g style="opacity:5.000000e-02;">
		<path d="M221.4,140.7c-1.3-2.2-3.1-4.2-5.4-5.8L200.3,124l-29.1-20.1l-6.9-19.7L132,34.8c-0.5-0.8-1-1.6-1.3-2.4
			c-3.6-8-1-17.6,6.5-22.5c8.3-5.4,19.5-3.1,24.9,5.2l34.6,52.9l23.7,67.5C221,137.3,221.4,139,221.4,140.7z"/>
	</g>
</g>
</svg>
