<?xml version="1.0" encoding="utf-8"?>
<!-- Generator: Adobe Illustrator 22.1.0, SVG Export Plug-In . SVG Version: 6.00 Build 0)  -->
<svg version="1.1" id="Layer_1" xmlns="http://www.w3.org/2000/svg" xmlns:xlink="http://www.w3.org/1999/xlink" x="0px" y="0px"
	 viewBox="0 0 256 256" style="enable-background:new 0 0 256 256;" xml:space="preserve">
<rect x="0" style="opacity:0;fill:#FFC06C;" width="256" height="256"/>
<g>
	<path style="fill:none;stroke:#3F3F3F;stroke-width:8;stroke-linecap:round;stroke-linejoin:round;stroke-miterlimit:10;" d="
		M188,38.8c0,0-20.1-10.8-42.5-2.2"/>
	<circle style="fill:#FFFFFF;" cx="82.8" cy="102.9" r="26.7"/>
	<circle style="fill:#3F3F3F;" cx="88.8" cy="94.9" r="12.4"/>
	<circle style="fill:#FFFFFF;" cx="172.2" cy="102.9" r="26.7"/>
	<circle style="fill:#3F3F3F;" cx="178.2" cy="94.9" r="12.4"/>
	<path style="fill:none;stroke:#3F3F3F;stroke-width:8;stroke-linecap:round;stroke-linejoin:round;stroke-miterlimit:10;" d="
		M105.1,62.7c0,0-13.7-9.3-36.4-5.1"/>
	<path style="fill:none;stroke:#3F3F3F;stroke-width:8;stroke-linecap:round;stroke-linejoin:round;stroke-miterlimit:10;" d="
		M99.3,161.6c10.7-11.4,22-20.9,38.5-16.2"/>
	<path style="fill:#FFDF97;" d="M148.8,160.4c-0.5,1.7-1.8,3.1-3.4,3.7l-40.8,15.4c-0.3,0.1-0.4,0.4-0.3,0.7
		c0.1,0.3,0.4,0.4,0.7,0.3l4.7-1.8c2.5-1,5.4-0.1,6.9,2.2c1.9,2.7,3.3,6.4,1,9.8l-12.5,4.7c-0.3,0.1-0.4,0.4-0.3,0.7
		c0.1,0.3,0.4,0.4,0.7,0.3l7.9-3c3-1.1,6.4,0.5,7.3,3.5c0.8,2.7,0.7,6.1-2.9,9.2l-11.9,4.5c-0.3,0.1-0.4,0.4-0.3,0.7
		c0.1,0.3,0.4,0.4,0.7,0.3l7-2.6c2.7-1,5.7,0.2,6.9,2.8c1,2.2,1,5-2.3,7.6c-5.8,4.6-21.1,10.6-26.6,12.5c-1.3,0.5-2.7,0.5-4,0.8
		c-8.7,1.9-15.5-1-19.8-2.1c-6.8-1.7-21.5-22.9-14.7-39.7c0.3-0.8,0.6-1.8,1.2-3.1c1.1-4.7,5.7-11.2,11.7-15.6
		c7.3-5.4,7.9-12.2,9.8-20.9c1.4-6.2,3.3-8.3,6.5-7.7c3.4,0.6,6,6.1,6.5,8.3c2.6,13.5-4.7,20-4.7,22.3c0,0,0,0.1,0,0.1l57.3-21
		c1.4-0.5,2.9-0.5,4.3,0.2C147.3,154.4,149.8,156.4,148.8,160.4z"/>
</g>
</svg>
