<?xml version="1.0" encoding="utf-8"?>
<!-- Generator: Adobe Illustrator 22.1.0, SVG Export Plug-In . SVG Version: 6.00 Build 0)  -->
<svg version="1.1" id="Layer_1" xmlns="http://www.w3.org/2000/svg" xmlns:xlink="http://www.w3.org/1999/xlink" x="0px" y="0px"
	 viewBox="0 0 256 256" style="enable-background:new 0 0 256 256;" xml:space="preserve">
<g style="opacity:0;">
	<path style="fill:#FFDF97;" d="M199.3,46.5L184,122.5l11.7,40.5c1.1,2.1,1.7,4.3,1.9,6.6c0.1,0.5,0.1,1.1,0.1,1.6
		c0,0.8,0,1.6-0.2,2.4c0.3,2.5-0.1,5.3-0.4,8.6c-1.9,14.8-8.8,28-18.8,38.1c-2,2-4.2,4-6.5,5.7c-11.1,8.6-25.1,13.6-40.2,13.6
		c-35,0-63.9-27.3-66-62.2L63,132.2l0.3,0.1V120c0-9.9,8.1-18,18-18c4.4,0,8.5,1.6,11.6,4.3C95,98.6,102,93,110.3,93
		c1.7,0,3.4,0.3,5,0.7l-13.6-47c-2.8-9.5,2.7-19.5,12.3-22.3c9.6-2.8,19.5,2.7,22.3,12.3L153,94.3l11-54.8
		c2-9.8,11.5-16.1,21.2-14.1C195,27.3,201.3,36.8,199.3,46.5z"/>
</g>
<g>
	<path style="opacity:0.1;" d="M199.3,46.5L184,122.5l11.7,40.5c-1.3-2.5-3.2-4.8-5.7-6.5l-29.3-20.9c-3-2.1-6.6-3.2-10.3-3.2h-22
		V111c0-8.2-5.5-15.1-13-17.3l-13.6-47c-2.8-9.5,2.7-19.5,12.3-22.3c9.6-2.8,19.5,2.7,22.3,12.3L153,94.3l11-54.8
		c2-9.8,11.5-16.1,21.2-14.1C195,27.3,201.3,36.8,199.3,46.5z"/>
	<path style="opacity:0.1;" d="M171.8,226c-11.1,8.6-25.1,13.6-40.2,13.6c-35,0-63.9-27.3-66-62.2L63,132.2l0.3,0.1v2.9
		c0,9.9,8.1,18,18,18c6.7,0,12.5-3.6,15.6-9c1.2,1.4,2.7,2.6,4.3,3.5c-0.1,0.9-0.2,1.7-0.2,2.6c0,9.9,8.1,18,18,18h25.7l0.9,0.6
		c-7,6-11.5,14.9-11.5,24.9c0,18,14.6,32.6,32.6,32.6C168.4,226.4,170.1,226.3,171.8,226z"/>
	<path style="opacity:5.000000e-02;" d="M128.3,111v21.3H119c-7.4,0-13.8,4.5-16.5,10.9c-0.6,1.4-1,2.9-1.3,4.5
		c-1.6-1-3-2.1-4.3-3.5c-3.1,5.4-8.9,9-15.6,9c-9.9,0-18-8.1-18-18V120c0-9.9,8.1-18,18-18c4.4,0,8.5,1.6,11.6,4.3
		C95,98.6,102,93,110.3,93c1.7,0,3.4,0.3,5,0.7C122.8,95.9,128.3,102.8,128.3,111z"/>
</g>
</svg>
