<?xml version="1.0" encoding="utf-8"?>
<!-- Generator: Adobe Illustrator 22.1.0, SVG Export Plug-In . SVG Version: 6.00 Build 0)  -->
<svg version="1.1" id="Layer_1" xmlns="http://www.w3.org/2000/svg" xmlns:xlink="http://www.w3.org/1999/xlink" x="0px" y="0px"
	 viewBox="0 0 221 228" style="enable-background:new 0 0 221 228;" xml:space="preserve">
<g>
	<path style="fill:#130E54;" d="M207.5,188.2c-62.3,28.5-157.9,10.9-193.3,2.8c-4.6-1.1-5.3-7.4-1-9.4l47.1-22l1.6-1.1l5.9-15
		L98,67.4l-8.4-25.3l-26.8,6.1L40.5,16l22.2,22.2l36.8-17.6L134,60.5l-1.5,25.3l18.5,58l3.8,11.8l5.2,3.8l47.4,19.7
		C211.3,180.8,211.4,186.4,207.5,188.2z"/>
	<g>
		<path style="fill:#A83AD6;" d="M159.9,159.4c-19.2,6.5-36.7,8.8-51.6,8.8c-22.9,0-39.8-5.3-48-8.5l1.6-1.1l5.9-15
			c4.6,1.7,12.2,4.1,22.1,5.5c14.1,2.1,35.6,2.6,61.1-5.4l3.8,11.8L159.9,159.4z"/>
	</g>
	<polygon style="fill:none;stroke:#F7E666;stroke-width:5;stroke-miterlimit:10;" points="100.3,150.5 119.5,148.7 121.8,169.4 
		99.5,168.8 	"/>
</g>
</svg>
