<?xml version="1.0" encoding="utf-8"?>
<!-- Generator: Adobe Illustrator 22.1.0, SVG Export Plug-In . SVG Version: 6.00 Build 0)  -->
<svg version="1.1" id="Layer_1" xmlns="http://www.w3.org/2000/svg" xmlns:xlink="http://www.w3.org/1999/xlink" x="0px" y="0px"
	 viewBox="0 0 201 168" style="enable-background:new 0 0 201 168;" xml:space="preserve">
<g>
	<path style="fill:#701652;" d="M164.3,137.8c0.3,2.1,0.1,0.3,0.5,2.4H34.3c0.5-2.1-0.3-0.3,0.1-2.4c2.9-13.8,5.3-27.6,6.4-41.4
		c1.8-21.6,1.8-48.6-2.6-82.4h121.9c-4.1,35.1-2.8,59.4-0.8,83.4C160.6,110.8,162.1,124.3,164.3,137.8z"/>
	<g>
		<path style="fill:#32E0AA;" d="M164.3,137.8l-64.8,5.8l-65.1-5.8c2.9-13.8,3.8-16.9,5.1-30.7c20.4,4.6,67.7,10.8,121,0
			C161.5,120.6,162.1,124.3,164.3,137.8z"/>
	</g>
	<g>
		<path style="fill:#4C0C3A;" d="M98.7,149.7c-46.9,0-80.7-9-82.8-9.5l5.2-9.8c0,0,0,0,0,0l0,0c1.1,0.3,77.6,20.3,157.9-1.3l5.2,9.8
			C153.8,147.1,124.3,149.7,98.7,149.7z"/>
	</g>
	<circle style="fill:#F4E956;" cx="101.3" cy="125.4" r="12.2"/>
</g>
</svg>
