<?xml version="1.0" encoding="utf-8"?>
<!-- Generator: Adobe Illustrator 22.1.0, SVG Export Plug-In . SVG Version: 6.00 Build 0)  -->
<svg version="1.1" id="Layer_1" xmlns="http://www.w3.org/2000/svg" xmlns:xlink="http://www.w3.org/1999/xlink" x="0px" y="0px"
	 viewBox="0 0 185 116" style="enable-background:new 0 0 185 116;" xml:space="preserve">
<g>
	<path style="fill:#63D85D;" d="M162.5,101.2h-140c0-38.7,31.3-69.7,70-69.7h0.2c0.3,0,0.6,0,0.9,0c0.1,0,0.2,0,0.2,0
		C131.7,32.2,162.2,63.2,162.5,101.2C162.5,101.4,162.5,101.1,162.5,101.2z"/>
	<path style="fill:#67B8F4;" d="M148.2,101.2H77.3c-5-37.1,12.7-65.7,15.3-69.7C92.9,31.2,93,31,93,31c0.3,0.2,0.5,0.3,0.8,0.5
		C114.2,44.4,136.3,79.9,148.2,101.2z"/>
	<path style="fill:#F9E84B;" d="M93,31c0,0-41,17.2-43,70.2h42C92,101.2,90,59,93,31z"/>
	<path style="fill:#F7991E;" d="M130,101.2c0-47-31.5-65.5-36.4-69.7c38,0.6,68.6,31.7,68.9,69.7H130z"/>
	<circle style="fill:#EF581D;" cx="93" cy="25" r="4"/>
	<path style="fill:#EF581D;" d="M98,24c0,0,47-13,47,1C145,35,123,31,98,24z"/>
	<path style="fill:#EF581D;" d="M87,25c0,0-47-13-47,1C40,36,62,32,87,25z"/>
</g>
</svg>
