<?xml version="1.0" encoding="utf-8"?>
<!-- Generator: Adobe Illustrator 22.1.0, SVG Export Plug-In . SVG Version: 6.00 Build 0)  -->
<svg version="1.1" id="Layer_1" xmlns="http://www.w3.org/2000/svg" xmlns:xlink="http://www.w3.org/1999/xlink" x="0px" y="0px"
	 viewBox="0 0 185 195" style="enable-background:new 0 0 185 195;" xml:space="preserve">
<g>
	<path style="fill:#FCA129;" d="M151.8,171.3c0,0-5.7,1.8-15.1,3.8c-2.8,0.6-5.9,1.2-9.2,1.8c-9.3,1.6-20.7,3.1-33.1,3.6
		c-19.7,0.7-42-1.2-62.5-9.2L75,65.3l6.3-15.4l10.4-25.6c0,0,0,0,0,0c0,0,0,0,0,0l39.5,96.7l11.6,28.3L151.8,171.3z"/>
	<polygon style="fill:#F4E956;" points="72.8,151.3 66.2,141.6 54.4,141.6 61.6,132.3 58,121.1 69.1,125 78.6,118.2 78.2,129.9 
		87.7,136.8 76.5,140.1 	"/>
	<polygon style="fill:#F4E956;" points="57.1,162.8 53.4,162.4 50.9,165.3 50.1,161.6 46.6,160.2 49.9,158.3 50.2,154.5 53,157 
		56.7,156.1 55.1,159.6 	"/>
	<polygon style="fill:#F4E956;" points="99.8,62.3 89.5,64.7 85.8,74.6 80.2,65.6 75,65.3 81.3,49.9 83.6,50.9 92.4,45.1 91.6,55.6 
			"/>
	<path style="opacity:0.2;fill:#A3310D;" d="M94.3,180.5c-19.7,0.7-42-1.2-62.5-9.2L75,65.3l6.3-15.4l10.4-25.6
		c-1,2.8-37.8,106.4-25,138.9C71.4,174.9,82.2,179.5,94.3,180.5z"/>
	<polygon style="fill:#F4E956;" points="142.9,160.8 129.9,150.9 114.4,156 119.7,140.6 110.1,127.4 126.4,127.8 131.3,121 
		142.8,149.3 	"/>
	<circle style="fill:#E51F4E;" cx="91.8" cy="24.3" r="10"/>
	<path d="M142.7,172.3c-0.4,0.2-2.5,1.3-6.1,2.8c-2.8,0.6-5.9,1.2-9.2,1.8C136,174.8,142.1,172.6,142.7,172.3z"/>
	<path style="fill:none;stroke:#E51F4E;stroke-width:14;stroke-linecap:round;stroke-linejoin:round;stroke-miterlimit:10;" d="
		M28.8,169.3c0,0,56,28,127,0"/>
	<polygon style="fill:#F4E956;" points="101.6,105.3 98.3,100.4 92.4,100.4 96,95.7 94.2,90.1 99.7,92.1 104.5,88.6 104.4,94.5 
		109.1,98 103.5,99.7 	"/>
	<polygon style="fill:#F4E956;" points="97.9,166.9 93.9,165.1 90.1,167.3 90.7,162.9 87.4,160 91.7,159.2 93.4,155.2 95.6,159 
		99.9,159.4 96.9,162.6 	"/>
</g>
</svg>
