<?xml version="1.0" encoding="utf-8"?>
<!-- Generator: Adobe Illustrator 22.1.0, SVG Export Plug-In . SVG Version: 6.00 Build 0)  -->
<svg version="1.1" id="Layer_1" xmlns="http://www.w3.org/2000/svg" xmlns:xlink="http://www.w3.org/1999/xlink" x="0px" y="0px"
	 viewBox="0 0 219 147" style="enable-background:new 0 0 219 147;" xml:space="preserve">
<g>
	<ellipse style="fill:#C99E75;" cx="109" cy="96.4" rx="100.2" ry="24.6"/>
	<path style="fill:#BC8F5E;" d="M166,95.8c-38.3,9.9-76.6,9.9-114.9,0c-2.3-0.6-3.8-2.9-3.4-5.3l1.2-6.8L56.8,40
		c0.6-3.3,2.4-6.2,4.9-8.2c1.4-1.2,3.1-2,4.9-2.5c2.7-0.7,5.4-1.4,8.2-2c0,0,0.1,0,0.1,0c8.8-1.4,21.1-2.2,34.8-2.2
		c19.9,0,37,1.8,44.3,4.4c1.4,0.8,2.6,1.9,3.7,3.2c1.4,1.8,2.4,3.9,2.8,6.2l7.9,45.1l1.2,6.6C169.9,92.9,168.4,95.2,166,95.8z"/>
	<g>
		<path style="fill:#563112;" d="M166,95.8c-38.3,9.9-76.6,9.9-114.9,0c-2.3-0.6-3.8-2.9-3.4-5.3l1.2-6.8
			c17.3,4.3,66.8,14.1,119.3,0.3l1.2,6.6C169.9,92.9,168.4,95.2,166,95.8z"/>
	</g>
	<path style="fill:#C99E75;" d="M157.6,32.2c0,0.1,0,0.3-0.1,0.4c-1.3,3.8-22.3,6.8-47.9,6.8c-26.5,0-48-3.2-48-7.2
		c0-0.2,0-0.3,0.1-0.5c0.8-1.7,5.6-3.3,13.1-4.5c0,0,0.1,0,0.1,0c8.8-1.4,21.1-2.2,34.8-2.2c19.9,0,37,1.8,44.3,4.4
		C156.3,30.3,157.6,31.2,157.6,32.2z"/>
</g>
</svg>
