<?xml version="1.0" encoding="utf-8"?>
<!-- Generator: Adobe Illustrator 22.1.0, SVG Export Plug-In . SVG Version: 6.00 Build 0)  -->
<svg version="1.1" id="Layer_1" xmlns="http://www.w3.org/2000/svg" xmlns:xlink="http://www.w3.org/1999/xlink" x="0px" y="0px"
	 viewBox="0 0 187 147" style="enable-background:new 0 0 187 147;" xml:space="preserve">
<g>
	<path style="fill:#26B560;" d="M147,118.4c0,0-0.5-0.1-1.6-0.3h0c-9.5-1.5-59.3-8.7-89.2,2.2c0,0,10.1-35.8,1.6-57.3
		c-7.2-18-28.1-31.6-34.6-35.5c-1.3-0.8-2-1.2-2-1.2s31.4-11.7,61.6-5.8C124.8,28.8,166.9,59.2,147,118.4z"/>
	<path style="fill:#1DA052;" d="M145.4,118.2L145.4,118.2c-9.5-1.5-59.3-8.7-89.2,2.2c0,0,10.1-35.8,1.6-57.3
		c-7.2-18-28.1-31.6-34.6-35.5l-0.1-1.2c0,0,19.2,7.9,25.5,14.9s41.2,33.5,63.6,36.3C140.7,81.3,145.4,118.2,145.4,118.2z"/>
	<path style="fill:#EF5425;" d="M49.8,120.2c0,0-1.2-11.7-15.6-20.6c0,0,22.2-10.5,37,15.6L49.8,120.2z"/>
	<path style="fill:#EF5425;" d="M155.4,122.1c0,0,1.2-11.7,15.6-20.6c0,0-22.2-10.5-37,15.6L155.4,122.1z"/>
	<circle style="fill:#FCD73D;" cx="148.5" cy="83.8" r="3.1"/>
	<path style="fill:#EF5425;" d="M68.7,115.7c0,0-3.1-19.5-14-31.2c0,0,29.6-2.3,37,28.1L68.7,115.7z"/>
	<path style="fill:#EF5425;" d="M137.2,115.7c0,0,2.7-18.3,11.3-31.2c0,0-28.8-2.3-34.3,28.1L137.2,115.7z"/>
	<path style="fill:#EF5425;" d="M91.7,112.6c0,0,2.3-17.1-9-37.4c0,0,33.1,2.3,33.1,37.4H91.7z"/>
	<circle style="fill:#FCD73D;" cx="32.1" cy="99.3" r="3.1"/>
	<circle style="fill:#FCD73D;" cx="54.6" cy="84.5" r="3.1"/>
	<circle style="fill:#FCD73D;" cx="82.7" cy="74.4" r="3.1"/>
	<circle style="fill:#FCD73D;" cx="171.1" cy="101.3" r="3.1"/>
	<g>
		<path style="fill:#E8E8E8;" d="M155.6,128c-0.6,0-1.2-0.1-1.8-0.4c-50.4-20.3-101.4-0.2-101.9,0c-2.5,1-5.4-0.2-6.4-2.7
			c-1-2.5,0.2-5.4,2.7-6.4c0.6-0.2,14-5.6,34.2-8.3c18.6-2.5,46.8-3.1,75.1,8.3c2.5,1,3.7,3.9,2.7,6.4
			C159.3,126.8,157.5,128,155.6,128z"/>
	</g>
	<circle style="fill:#FCD73D;" cx="21.1" cy="26.5" r="7.4"/>
</g>
</svg>
