<?xml version="1.0" encoding="utf-8"?>
<!-- Generator: Adobe Illustrator 22.1.0, SVG Export Plug-In . SVG Version: 6.00 Build 0)  -->
<svg version="1.1" id="Layer_1" xmlns="http://www.w3.org/2000/svg" xmlns:xlink="http://www.w3.org/1999/xlink" x="0px" y="0px"
	 viewBox="0 0 187 147" style="enable-background:new 0 0 187 147;" xml:space="preserve">
<g>
	<path style="fill:#EA5F1B;" d="M109.8,99.4L71,113.2l-16.4,5.8c-0.2,0-8.2-0.1-12.3-15.6c-1.1-4-1.9-9.1-2.3-15.5
		c-1-17.5-5.6-26-15.6-25.3c-10,0.7-11.7,14.6-11.7,14.6S2.6,51.2,21.5,39.3C37.1,29.6,55.7,30.5,76,51S108,94.8,109.8,99.4z"/>
	<path style="opacity:0.1;fill:#631700;" d="M75,79.2l-4,34l-16.4,5.8c-0.2,0-8.2-0.1-12.3-15.6c4,1.7,10.7,2.4,15.2-8.7
		C64.3,78.2,75,79.2,75,79.2z"/>
	<path style="fill:#F4DF47;" d="M173.2,79.2c0.1-0.7,1.7-11.8-5.8-15.5c-5.1-2.5-16.5-2.9-18.3,25.5c-0.2,3-0.5,5.8-0.8,8.2
		c-1.1,7.5-2.8,12.3-4.6,15.2c-3.6,5.8-7.5,4.6-7.5,4.6l-59.6-14.8c1.8-4.6,12.1-29,32.3-49.4s42.8-26.3,58.1-14.8
		C184.7,51.4,173.6,78.2,173.2,79.2z"/>
	<path style="opacity:0.2;fill:#EA5F1B;" d="M148.3,97.3c-1.1,7.5-2.8,12.3-4.6,15.2l-21.1,1.1l3.9-41.2c0,0,1.9,27.2,13.6,26.3
		C143.9,98.3,146.5,97.8,148.3,97.3z"/>
	<path style="fill:#F79E1C;" d="M128.5,117.1H62.4c0,0-5.8-25.3,12.6-50.6c5.8-7.9,8.8-13.9,10-18.6c2.5-10.3-3.9-14.1-10-17.4
		c-8.8-4.9-20.4,8.8-20.4,8.8S65.3,13,87.7,14c20.4,1,32.1,21.4,39.9,48.6C135.4,90.3,129.5,112.2,128.5,117.1z"/>
	<circle style="fill:#F4DF47;" cx="55.6" cy="38.3" r="6.8"/>
	<circle style="fill:#F4DF47;" cx="173.2" cy="79.2" r="6.8"/>
	<circle style="fill:#F4DF47;" cx="12.8" cy="76.3" r="6.8"/>
	<path style="opacity:0.2;fill:#EA5F1B;" d="M103.2,115.2L77,117.1H62.4c0,0-5.8-25.3,12.6-50.6c5.8-7.9,8.8-13.9,10-18.6
		c0.7,6.1,0.8,14.6-2.2,24.4C77,91.8,82.8,111.3,103.2,115.2z"/>
	<path style="fill:#702A2D;" d="M42,105.8c0,0,56.6,15.2,106-1.6c0,0-2.3,11.7-3.7,14.3c0,0-36.3,16.2-97.4,1.7
		C46.8,120.1,42.9,113.9,42,105.8z"/>
</g>
</svg>
