<?xml version="1.0" encoding="utf-8"?>
<!-- Generator: Adobe Illustrator 22.1.0, SVG Export Plug-In . SVG Version: 6.00 Build 0)  -->
<svg version="1.1" id="Layer_1" xmlns="http://www.w3.org/2000/svg" xmlns:xlink="http://www.w3.org/1999/xlink" x="0px" y="0px"
	 viewBox="0 0 187 147" style="enable-background:new 0 0 187 147;" xml:space="preserve">
<g>
	<ellipse style="fill:#DDB143;" cx="94.2" cy="88" rx="88" ry="23"/>
	<path style="fill:#E5CF4C;" d="M140.5,91.7c2.5,27.3-1.8,19.3-46.6,21.2c-41.1,1.7-46.6,3.7-44.2-21.2C52.4,64.6,63.2,4.9,95.1,4.9
		S138.1,64.6,140.5,91.7z"/>
	<path style="fill:#EFE267;" d="M166.6,112.5c-31,16.3-128,13.9-144.9,0c-2.1-1.7-4.8-4.6-6.1-7l-9.5-16c27.6,23.9,137.4,27,176.1,0
		l-9.5,15.9C171.4,107.9,169.1,111.2,166.6,112.5z"/>
	<g>
		<g>
			<path style="fill:#DB943E;" d="M95.4,123.9c-0.3,0-0.5-0.1-0.7-0.3l-9-10.7l-6.7,10c-0.2,0.2-0.4,0.4-0.7,0.4
				c-0.3,0-0.6-0.1-0.8-0.3L68,111.7c-2.5,4-7.8,9.8-8,10.1c-0.2,0.2-0.4,0.3-0.7,0.3c-0.2,0-0.5-0.1-0.7-0.3
				c-2.1-2.1-8.9-9.7-11-12.2c-1.2,1.6-3,5.8-4,8.8c-0.1,0.3-0.3,0.5-0.6,0.6c-0.3,0.1-0.6,0-0.8-0.2c-3.1-2.6-8.6-9.7-10.5-12.2
				c-2.7,2.9-5.3,6.4-5.3,6.5c-0.2,0.2-0.5,0.4-0.8,0.4c-0.3,0-0.6-0.2-0.8-0.4c-2.9-4.3-9.8-14.6-9.8-14.7c-0.3-0.4-0.2-1,0.3-1.3
				c0.4-0.3,1-0.2,1.3,0.3c0.1,0.1,5.9,8.9,9.1,13.6c1.1-1.5,3.3-4.2,5.5-6.4c0.2-0.2,0.4-0.3,0.7-0.3c0.3,0,0.5,0.2,0.7,0.4
				c0.1,0.1,6.2,8.2,9.9,11.8c1-2.7,3.1-7.9,4.8-9c0.4-0.3,0.9-0.2,1.2,0.2c0.1,0.1,7.8,8.9,10.9,12.1c1.7-1.9,6.2-7.1,7.8-10.1
				c0.1-0.3,0.4-0.5,0.7-0.5c0.3,0,0.6,0.1,0.8,0.3l9.6,11.3l6.7-10c0.2-0.2,0.4-0.4,0.7-0.4c0.3,0,0.6,0.1,0.8,0.3l9,10.7l7.3-10.7
				c0.2-0.2,0.4-0.4,0.7-0.4c0.3,0,0.6,0.1,0.8,0.4l7.8,10.1l8.5-11.3c0.2-0.3,0.5-0.4,0.8-0.4c0.3,0,0.6,0.2,0.7,0.5
				c1.6,3,6.6,7.9,8.4,9.6c3.1-3.2,10.9-12.1,11-12.2c0.2-0.2,0.4-0.3,0.7-0.3c2.4,0.1,4.4,5.5,5.4,9c3.8-3.7,9.7-11.6,9.8-11.7
				c0.2-0.2,0.4-0.3,0.7-0.4c0.3,0,0.5,0.1,0.7,0.3c2.2,2.2,4.8,5.1,6,6.5c3.1-4.6,8.5-13,8.5-13.1c0.3-0.4,0.8-0.6,1.3-0.3
				c0.4,0.3,0.6,0.8,0.3,1.3c-0.1,0.1-6.3,9.9-9.2,14.1c-0.2,0.2-0.4,0.4-0.7,0.4c-0.3,0-0.6-0.1-0.7-0.3c0,0-3.1-3.6-6-6.6
				c-1.9,2.5-7.4,9.6-10.5,12.2c-0.2,0.2-0.6,0.3-0.9,0.2c-0.3-0.1-0.5-0.3-0.6-0.6c-1.2-4.6-2.8-8.2-3.7-9
				c-1.8,2.1-9.1,10.3-11.3,12.5c-0.3,0.3-0.9,0.4-1.3,0c-0.3-0.2-6-5.5-8.7-9.5l-8.4,11.2c-0.2,0.2-0.4,0.4-0.7,0.4
				c-0.3,0-0.6-0.1-0.7-0.4l-7.8-10l-7.3,10.6C96,123.8,95.8,123.9,95.4,123.9C95.5,123.9,95.4,123.9,95.4,123.9z"/>
		</g>
	</g>
	<g>
		<path style="fill:#FFF988;" d="M93.9,109.8c-44.2,0-88.9-7.6-88.9-22.1c0-9,18-16.8,48.2-20.8l0.3,2.4C25.5,73,7.4,80.2,7.4,87.7
			c0,5.1,9,10.2,24.7,13.8c16.1,3.8,38.1,5.8,61.8,5.8c22.9,0,45-2.3,62.1-6.5c18.4-4.5,25-9.8,25-13.2c0-7.2-17.3-14.4-44.1-18.1
			l0.3-2.4c29,4.1,46.2,11.7,46.2,20.5c0,7.8-16.8,13.1-26.9,15.6C139.3,107.5,117,109.8,93.9,109.8z"/>
	</g>
</g>
</svg>
