<?xml version="1.0" encoding="utf-8"?>
<!-- Generator: Adobe Illustrator 22.1.0, SVG Export Plug-In . SVG Version: 6.00 Build 0)  -->
<svg version="1.1" id="Layer_1" xmlns="http://www.w3.org/2000/svg" xmlns:xlink="http://www.w3.org/1999/xlink" x="0px" y="0px"
	 viewBox="0 0 231 131" style="enable-background:new 0 0 231 131;" xml:space="preserve">
<g>
	<circle style="fill:#3D0C63;" cx="99.2" cy="26.9" r="8.1"/>
	<path style="fill:#581A75;" d="M56,95.4c0,0-36.9,8.1-42.3-2.7s56.8-62.3,129.7-74.8c73.9-12.6,76.6,8.1,73,20.7
		C212.8,51.3,177,89.6,177,89.6L56,95.4z"/>
	<path style="fill:#581A75;" d="M35.2,107.5c0,0,102.1-12.5,155.8,0c0,0-3.9-8.6-14-16.4c0,0-42.1-9.3-125.4-0.8
		C51.5,90.4,43,95.8,35.2,107.5z"/>
	<path style="fill:#3D0C63;" d="M216.7,35c0,0-17.9,24.2-53,34.3c-27.3,7.9-61.5,17.4-94.3,23.4c-14.3,2.6-31.7,5.6-36.6,5.5H43
		c0,0,35.1-5.5,48.3-7c10.9-1.3,70.1-3.9,85.7,0C177,91.1,208.9,60,216.7,35z"/>
</g>
</svg>
