<?xml version="1.0" encoding="utf-8"?>
<!-- Generator: Adobe Illustrator 22.1.0, SVG Export Plug-In . SVG Version: 6.00 Build 0)  -->
<svg version="1.1" id="Layer_1" xmlns="http://www.w3.org/2000/svg" xmlns:xlink="http://www.w3.org/1999/xlink" x="0px" y="0px"
	 viewBox="0 0 231 131" style="enable-background:new 0 0 231 131;" xml:space="preserve">
<g>
	<path style="fill:#34EA9C;" d="M160.1,55.6v23.6H72.8V55.6c0-24.1,19.5-43.6,43.6-43.6c12,0,23,4.9,30.8,12.8
		C155.2,32.7,160.1,43.6,160.1,55.6z"/>
	<g>
		<path style="fill:#F2E353;" d="M160.1,55.1v14.7c-5.8,1.4-11.6,2.4-17.2,3.1c-8,1-15.8,1.4-23.1,1.4c-8.7,0-16.8-0.6-23.9-1.4
			c-9.6-1.1-17.6-2.8-23-4.1V54C85.4,57.2,121.9,64.7,160.1,55.1z"/>
	</g>
	<path style="fill:#4BF9AA;" d="M72.8,66.7c0,0-52.4,9-54.5,19.5s18.3-3.4,40.9,6.8c21,9.5,46.7,9.7,83-1.1
		c28.4-8.4,49.9,2.3,66.6-4.5c17.9-7.4-48.7-20.7-48.7-20.7C114.9,77.2,72.8,66.7,72.8,66.7z"/>
	<g>
		<path style="fill:#A01C32;" d="M143.7,53.6c0,0-12.1-1.2-14.5,10.8c-2.4,12.1,4.2,13.3,7.2,13.9s19.1-2.3,17.5-10.8
			S143.7,53.6,143.7,53.6z"/>
		<path style="fill:#DD5075;" d="M137.1,71.1c0,0-5.4-0.6-5.4-5.4c0-3,4.2-9,8.4-4.8c0,0-2.9,0.5-4.8,3.6
			C134.3,65.9,135.2,68.6,137.1,71.1z"/>
		<path style="fill:#DD5075;" d="M137.7,66.8c0,0,1.3,2.7,3,1.8c1.2-0.6,1.2-2.4,1.2-2.4s2.4-0.6,1.2,2.4
			C141.6,72.2,136.5,71.7,137.7,66.8z"/>
		<path style="fill:#DD5075;" d="M139.5,66.8c0,0,1.8-3.6,4.8-1.2c0,0-0.6-3-3.6-3C138.2,62.6,137.1,65,139.5,66.8z"/>
		<path style="fill:#DD5075;" d="M140.1,59c0,0,7.2,4.8,4.8,9.6c-2.4,4.8-9,3-9,3s4.8,4.2,10.2-0.6S147.9,56.6,140.1,59z"/>
		<path style="fill:#DD5075;" d="M137.1,54.8c0,0-6,4.2-6.6,9c-0.3,2.3,0.1,5.4,2.4,7.2c6.7,5.2,10.2,4.2,10.2,4.2
			s-10.2,5.4-15.1-2.4C123.2,65,128,53,137.1,54.8z"/>
		<path style="fill:#DD5075;" d="M132.8,60.8c0,0,5.4-6.6,13.9-3c7.2,3,7.2,12.1,7.2,12.1s5-8-2.4-14.5c-4.7-4.1-10.4-2.5-13.9,0
			C134.5,57.7,132.8,60.8,132.8,60.8z"/>
		<path style="fill:#DD5075;" d="M133.4,77.7c0,0,9,1.2,13.9-3.6c2.2-2.2,3.6-6.6,1.8-11.5c0,0,9,8.4,1.8,15.7
			C145.2,84,133.4,77.7,133.4,77.7z"/>
	</g>
</g>
</svg>
