<?xml version="1.0" encoding="utf-8"?>
<!-- Generator: Adobe Illustrator 22.1.0, SVG Export Plug-In . SVG Version: 6.00 Build 0)  -->
<svg version="1.1" id="Layer_1" xmlns="http://www.w3.org/2000/svg" xmlns:xlink="http://www.w3.org/1999/xlink" x="0px" y="0px"
	 viewBox="0 0 256 256" style="enable-background:new 0 0 256 256;" xml:space="preserve">
<g style="opacity:0.2;">
	<path d="M127,28.2c-2.1-0.3-4.2-0.4-6.4-0.4c-11.5,0-21,3.7-28.6,11c-7.6,7.3-11.4,16.1-11.4,26.4c0,11.6,3.7,21,11.2,28.4
		c7.5,7.3,17.1,11,29.1,11c2.2,0,4.4-0.1,6.4-0.4c-9-1.1-16.4-4.7-22.5-10.6c-7.5-7.3-11.2-16.8-11.2-28.4c0-10.2,3.8-19,11.4-26.4
		C111.1,32.8,118.4,29.3,127,28.2z"/>
	<path d="M108.2,221.7c-8-4.4-14.1-10.6-18.1-18.6c-4.1-8-6.1-16.3-6.1-24.9c0-14,4.6-25.7,13.9-35.1c7.8-7.9,17.4-12.4,28.7-13.7
		c-2.1-0.2-4.3-0.4-6.6-0.4c-14.1,0-25.9,4.7-35.2,14c-9.3,9.4-13.9,21-13.9,35.1c0,8.6,2,16.9,6.1,24.9c4.1,8,10.1,14.2,18.1,18.6
		c8,4.4,16.6,6.6,25.9,6.6c2.3,0,4.5-0.1,6.7-0.4C120.9,227.1,114.3,225.1,108.2,221.7z"/>
	<path d="M202.6,139.8c-7.8-10.9-19.3-18.8-34.3-23.7c12.1-4.6,21.2-11,27.1-19.5c6-8.4,8.9-18.3,8.9-29.6
		c0-17.8-6.5-32.9-19.5-45.3C171.8,9.2,154.6,3,133.2,3c-2.2,0-4.4,0.1-6.5,0.2c18.4,1.1,33.4,7.3,45.1,18.4
		c13,12.4,19.5,27.5,19.5,45.3c0,11.4-3,21.2-8.9,29.6c-6,8.4-15,14.9-27.1,19.5c15,4.9,26.5,12.8,34.3,23.7
		c7.8,10.9,11.8,23.9,11.8,39.1c0,20.9-7.4,38.5-22.2,52.8c-13.5,12.9-30.8,20-51.9,21.2c2.1,0.1,4.3,0.2,6.5,0.2
		c24.2,0,43.6-7.1,58.4-21.4c14.8-14.2,22.2-31.8,22.2-52.8C214.4,163.7,210.5,150.7,202.6,139.8z"/>
</g>
</svg>
