<?xml version="1.0" encoding="utf-8"?>
<!-- Generator: Adobe Illustrator 22.1.0, SVG Export Plug-In . SVG Version: 6.00 Build 0)  -->
<svg version="1.1" id="Layer_1" xmlns="http://www.w3.org/2000/svg" xmlns:xlink="http://www.w3.org/1999/xlink" x="0px" y="0px"
	 viewBox="0 0 256 256" style="enable-background:new 0 0 256 256;" xml:space="preserve">
<path style="fill:#EF4230;" d="M202.6,139.8c-7.8-10.9-19.3-18.8-34.3-23.7c12.1-4.6,21.2-11,27.1-19.5c6-8.4,8.9-18.3,8.9-29.6
	c0-17.8-6.5-32.9-19.5-45.3C171.8,9.2,154.6,3,133.2,3c-2.2,0-4.4,0.1-6.5,0.2c0,0,0,0,0,0c-1-0.1-2.1-0.1-3.1-0.2
	c-1.1,0-2.2-0.1-3.3-0.1C99,3,81.9,9.1,69.1,21.2C56.3,33.3,49.9,48.3,49.9,66.1c0,11.8,3,21.9,9,30.4c6,8.5,15.3,15,27.7,19.5
	c-14.9,3.9-26.4,11.2-34.5,22c-8.1,10.7-12.1,24.1-12.1,40c0,21.4,7.4,39.2,22.2,53.5c14.8,14.3,34.3,21.5,58.5,21.5
	c1.2,0,2.4,0,3.5-0.1c1,0,2-0.1,3-0.1c0,0,0,0,0,0c2.1,0.1,4.3,0.2,6.5,0.2c24.2,0,43.6-7.1,58.4-21.4
	c14.8-14.2,22.2-31.8,22.2-52.8C214.4,163.7,210.5,150.7,202.6,139.8z M155,216c-0.2,0.2-0.4,0.3-0.6,0.5c-0.4,0.3-0.7,0.6-1.1,1
	c-0.2,0.2-0.5,0.4-0.7,0.6c-0.3,0.3-0.7,0.5-1,0.8c-0.3,0.2-0.5,0.4-0.8,0.6c-0.3,0.2-0.7,0.5-1,0.7c-0.3,0.2-0.6,0.4-0.9,0.6
	c-0.3,0.2-0.6,0.4-0.9,0.6c-0.8,0.5-1.7,1-2.6,1.5c0,0-0.1,0-0.1,0.1c-0.4,0.2-0.9,0.4-1.3,0.7c-0.2,0.1-0.4,0.2-0.6,0.3
	c-0.5,0.2-0.9,0.4-1.4,0.6c-0.2,0.1-0.4,0.2-0.5,0.2c-0.5,0.2-1,0.4-1.5,0.6c-0.1,0-0.3,0.1-0.4,0.1c-3.7,1.3-7.7,2.2-11.8,2.7
	c-6.9-0.8-13.4-2.8-19.6-6.2c-8-4.4-14.1-10.6-18.1-18.6c-4.1-8-6.1-16.3-6.1-24.9c0-14,4.6-25.7,13.9-35.1
	c7.8-7.9,17.4-12.4,28.7-13.7c0,0,0,0,0,0c3.6,0.4,7,1.1,10.3,2.1c0,0,0.1,0,0.1,0c0.6,0.2,1.1,0.4,1.7,0.6c0.1,0.1,0.3,0.1,0.4,0.2
	c0.5,0.2,1,0.4,1.5,0.6c0.2,0.1,0.3,0.1,0.5,0.2c0.5,0.2,1,0.4,1.4,0.6c0.2,0.1,0.3,0.2,0.5,0.2c1.4,0.7,2.8,1.5,4.2,2.3
	c0.3,0.2,0.6,0.4,0.9,0.6c0.3,0.2,0.6,0.4,0.9,0.6c0.3,0.2,0.7,0.5,1,0.7c0.3,0.2,0.6,0.4,0.8,0.6c0.4,0.3,0.7,0.5,1,0.8
	c0.2,0.2,0.5,0.4,0.7,0.6c0.4,0.3,0.8,0.6,1.2,1c0.2,0.2,0.4,0.3,0.6,0.5c0.6,0.5,1.1,1,1.7,1.6c9.6,9.5,14.4,21.4,14.4,35.9
	c0,14.3-4.7,26-14,35.2C156.1,215,155.5,215.5,155,216z M105,38.7c6.1-5.9,13.4-9.4,22-10.6c0.9,0.1,1.8,0.3,2.6,0.5
	c0.2,0,0.4,0.1,0.6,0.1c0.3,0.1,0.7,0.2,1,0.2c0.2,0.1,0.5,0.1,0.7,0.2c0.3,0.1,0.6,0.2,1,0.3c0.2,0.1,0.5,0.1,0.7,0.2
	c0.3,0.1,0.6,0.2,0.9,0.3c0.3,0.1,0.6,0.2,0.9,0.3c0.4,0.2,0.9,0.3,1.3,0.5c0.3,0.1,0.6,0.2,0.8,0.4c0.3,0.1,0.5,0.2,0.8,0.4
	c0.3,0.1,0.6,0.3,0.8,0.4c0.2,0.1,0.5,0.2,0.7,0.4c0.3,0.2,0.6,0.3,0.9,0.5c0.2,0.1,0.4,0.2,0.6,0.4c0.5,0.3,0.9,0.6,1.4,0.9
	c0.1,0.1,0.2,0.2,0.3,0.2c0.4,0.3,0.8,0.5,1.1,0.8c0.2,0.1,0.3,0.3,0.5,0.4c0.3,0.2,0.6,0.5,0.9,0.7c0.2,0.1,0.3,0.3,0.5,0.4
	c0.3,0.3,0.6,0.5,0.9,0.8c0.1,0.1,0.3,0.3,0.4,0.4c0.4,0.4,0.9,0.8,1.3,1.2c7.6,7.5,11.4,16.8,11.4,27.8c0,10.6-3.7,19.5-11.1,26.8
	c-0.7,0.7-1.4,1.3-2.1,1.9c-0.1,0.1-0.3,0.2-0.4,0.4c-0.7,0.6-1.4,1.1-2.1,1.6c-0.1,0.1-0.2,0.2-0.4,0.3c-0.7,0.5-1.4,0.9-2.1,1.4
	c-0.1,0.1-0.2,0.1-0.3,0.2c-0.8,0.5-1.6,0.9-2.4,1.3c-0.2,0.1-0.3,0.1-0.5,0.2c-0.8,0.4-1.7,0.8-2.5,1.1c0,0-0.1,0-0.1,0
	c-0.9,0.3-1.7,0.6-2.6,0.9c-0.1,0-0.3,0.1-0.4,0.1c-0.9,0.3-1.8,0.5-2.8,0.7c-0.1,0-0.3,0.1-0.4,0.1c-1,0.2-1.9,0.4-3,0.5
	c-9-1.1-16.4-4.7-22.5-10.6c-7.5-7.3-11.2-16.8-11.2-28.4C93.6,54.9,97.4,46.1,105,38.7z"/>
</svg>
