<?xml version="1.0" encoding="utf-8"?>
<!-- Generator: Adobe Illustrator 22.1.0, SVG Export Plug-In . SVG Version: 6.00 Build 0)  -->
<svg version="1.1" id="Layer_1" xmlns="http://www.w3.org/2000/svg" xmlns:xlink="http://www.w3.org/1999/xlink" x="0px" y="0px"
	 viewBox="0 0 256 256" style="enable-background:new 0 0 256 256;" xml:space="preserve">
<g>
	<path style="fill:#EF4230;" d="M77.8,133.4c-0.3,0.4-0.6,0.9-0.8,1.3h0C77.2,134.2,77.5,133.8,77.8,133.4z"/>
	<path style="fill:#EF4230;" d="M76.9,134.7C76.9,134.7,76.9,134.7,76.9,134.7L48,130.9L72.3,2.4H210v29.4h-99.9L98.4,90.4
		c-0.3,0.1-0.6,0.3-0.9,0.4c0.3-0.1,0.6-0.3,0.9-0.4v0c10.4-4.7,21.2-7.1,32.3-7.1c2.4,0,4.7,0.1,6.9,0.3c2.1-0.2,4.2-0.3,6.3-0.3
		c21.9,0,40.3,7.6,55.3,22.7c15,15.1,22.5,34.6,22.5,58.4c0,22.6-6.6,42.2-19.8,58.7c-16,20.3-38,30.4-65.7,30.4
		c-2.3,0-4.5-0.1-6.7-0.2c-2.2,0.1-4.4,0.2-6.6,0.2c-22.8,0-41.3-6.4-55.7-19.1c-14.4-12.7-22.6-29.6-24.7-50.7l32.3-2.7
		c0,0,0,0.1,0,0.1l12.4-1.1c2.4,15.7,8.8,28.5,17.5,36.4c7.1,6.4,15.4,10.3,24.8,11.5c-1.1,0.1-2.2,0.2-3.3,0.3
		c13.3-0.8,24.7-6.3,34.2-16.6c10.2-11.1,15.4-25.9,15.4-44.4c0-17.5-4.9-31.3-14.8-41.5c-9.2-9.4-21-14.5-35.5-15.1
		c1.2,0.1,2.5,0.2,3.7,0.3c-7.4,0.8-14.2,2.9-20.4,6.4c-8,4.5-16.9,11.6-21.4,18.8L76.9,134.7"/>
	<path style="fill:#EF4230;" d="M98.4,90.4L98.4,90.4c-0.3,0.1-0.6,0.3-0.9,0.4C97.8,90.7,98.1,90.6,98.4,90.4z"/>
</g>
</svg>
