<?xml version="1.0" encoding="utf-8"?>
<!-- Generator: Adobe Illustrator 22.1.0, SVG Export Plug-In . SVG Version: 6.00 Build 0)  -->
<svg version="1.1" id="Layer_1" xmlns="http://www.w3.org/2000/svg" xmlns:xlink="http://www.w3.org/1999/xlink" x="0px" y="0px"
	 viewBox="0 0 256 256" style="enable-background:new 0 0 256 256;" xml:space="preserve">
<g style="opacity:0.2;">
	<path d="M108.9,117.2c6.2-3.5,13-5.6,20.4-6.4c-2.2-0.2-4.5-0.3-6.9-0.3c-9.9,0-18.8,2.2-26.8,6.7c-7.9,4.5-14.2,10.3-18.7,17.4
		l10.6,1.4C92.1,128.9,101,121.7,108.9,117.2z"/>
	<rect x="196.7" y="2.4" width="13.3" height="29.4"/>
	<path d="M104.8,216.4c-8.7-7.9-15.1-20.7-17.5-36.4L74.8,181c2.4,15.7,7.9,27.4,16.6,35.3c8.7,7.9,19.2,11.9,31.5,11.9
		c2.3,0,4.5-0.1,6.6-0.4C120.1,226.6,111.8,222.8,104.8,216.4z"/>
	<path d="M199.2,106c-15-15.1-33.5-22.7-55.3-22.7c-2.2,0-4.3,0.1-6.4,0.3c18.9,1.4,35,8.9,48.5,22.4c15,15.1,22.5,34.6,22.5,58.4
		c0,22.6-6.6,42.2-19.8,58.7c-14.8,18.6-34.5,28.7-59.2,30.2c2.2,0.1,4.5,0.2,6.8,0.2c27.8,0,49.7-10.1,65.7-30.4
		c13.2-16.5,19.8-36.1,19.8-58.7C221.8,140.6,214.3,121.2,199.2,106z"/>
	<path d="M83.4,99c4.9-3.4,9.9-6.3,15-8.6l11.8-58.7H96.9L83.4,99z"/>
</g>
</svg>
