<?xml version="1.0" encoding="utf-8"?>
<!-- Generator: Adobe Illustrator 22.1.0, SVG Export Plug-In . SVG Version: 6.00 Build 0)  -->
<svg version="1.1" id="Layer_1" xmlns="http://www.w3.org/2000/svg" xmlns:xlink="http://www.w3.org/1999/xlink" x="0px" y="0px"
	 viewBox="0 0 256 256" style="enable-background:new 0 0 256 256;" xml:space="preserve">
<g>
	<path style="fill:#EF4230;" d="M149.9,6.2c1.2,0.4,2.3,0.9,3.5,1.3C152.2,7.1,151,6.6,149.9,6.2z"/>
	<path style="fill:#EF4230;" d="M210.4,51.8c-6.9-16.1-17.1-28.5-30.5-37.2c-13.4-8.7-28.1-13-44.3-13c-2.2,0-4.4,0.1-6.6,0.3
		c0,0,0,0,0,0c-2.2-0.2-4.4-0.3-6.6-0.3c-22.3,0-40.9,7.7-55.8,23C51.9,40,44.5,60.2,44.5,85.4c0,24.4,7.1,44,21.3,58.9
		c14.2,14.9,31.6,22.4,52.1,22.4c2.2,0,4.3-0.1,6.5-0.3c2.2,0.2,4.4,0.3,6.7,0.3c12.3,0,23.7-3,34.3-9.1c4.3-2.4,8.1-5.2,11.7-8.2
		c-0.6,9.5-2,18.8-4.3,28c-3,12.2-6.8,21.9-11.3,29c-4.5,7.2-10.3,12.9-17.4,17.2c-5.3,3.2-11.3,5.3-17.9,6c-8.1-1-14.9-4-20.5-8.9
		c-7-6.2-12-17.4-14.5-31.1l-12.9,1.2v0L49,193.4c2.5,19.5,9.9,34.7,22.2,45.4c12.3,10.8,28.2,16.2,47.6,16.2c2.2,0,4.5-0.1,6.6-0.2
		c2.1,0.1,4.3,0.2,6.6,0.2c18.3,0,34.2-4.9,47.8-14.7c13.6-9.8,23.8-24.1,30.7-42.9c6.9-18.8,10.3-44,10.3-75.8
		C220.8,91.1,217.4,67.9,210.4,51.8z M153.4,7.6c-1.2-0.5-2.3-0.9-3.5-1.3C151,6.6,152.2,7.1,153.4,7.6z M103.3,124.9
		C93.7,115,89,102.2,89,86.4c0-17.6,5-31.9,15.1-43c8.4-9.2,18-14.6,28.8-16.1c10.3,1.5,19.3,6.4,27,14.9c9.3,10.3,14,24.2,14,41.7
		s-4.5,31.2-13.6,41c-8.4,9.1-18.8,14-31.4,14.7c1.1-0.1,2.2-0.2,3.2-0.3C120.8,138,111.3,133.2,103.3,124.9z"/>
</g>
</svg>
