<?xml version="1.0" encoding="utf-8"?>
<!-- Generator: Adobe Illustrator 22.1.0, SVG Export Plug-In . SVG Version: 6.00 Build 0)  -->
<svg version="1.1" id="Layer_1" xmlns="http://www.w3.org/2000/svg" xmlns:xlink="http://www.w3.org/1999/xlink" x="0px" y="0px"
	 viewBox="0 0 256 256" style="enable-background:new 0 0 256 256;" xml:space="preserve">
<g style="opacity:0.2;">
	<path d="M105.7,220.6c-7-6.2-12-17.4-14.5-31.1l-12.9,1.2c2.5,13.8,7.2,23.8,14.2,30c7,6.2,16,9.3,26.9,9.3c2.3,0,4.6-0.1,6.7-0.4
		C118.1,228.5,111.3,225.6,105.7,220.6z"/>
	<path d="M131.1,166.6c12.3,0,23.7-3,34.3-9.1c4.3-2.4,8.1-5.2,11.7-8.2c0.2-3.1,0.3-6.2,0.3-9.3c0-1.4-0.1-3.4-0.2-6.1
		c-6.1,9.7-14.4,17.6-25,23.6c-8.7,5-18,7.9-27.8,8.8C126.6,166.5,128.8,166.6,131.1,166.6z"/>
	<path d="M210.4,51.8c-6.9-16.1-17.1-28.5-30.5-37.2c-13.4-8.7-28.1-13-44.3-13c-2.2,0-4.4,0.1-6.6,0.3c13.6,1,26.2,5.3,37.7,12.8
		c13.4,8.7,23.5,21.1,30.5,37.2c6.9,16.1,10.4,39.4,10.4,69.8c0,31.7-3.4,57-10.3,75.8c-6.9,18.8-17.1,33.1-30.7,42.9
		c-11.9,8.6-25.7,13.4-41.2,14.5c2.1,0.1,4.3,0.2,6.6,0.2c18.3,0,34.2-4.9,47.8-14.7c13.6-9.8,23.8-24.1,30.7-42.9
		c6.9-18.8,10.3-44,10.3-75.8C220.8,91.1,217.4,67.9,210.4,51.8z"/>
	<path d="M132.8,27.3c-2.1-0.3-4.3-0.5-6.6-0.5c-13.5,0-25.3,5.5-35.4,16.6c-10,11.1-15.1,25.4-15.1,43c0,15.8,4.8,28.6,14.3,38.5
		c9.5,9.9,21.3,14.8,35.3,14.8c2.3,0,4.5-0.1,6.6-0.4c-11.1-1.3-20.7-6.1-28.7-14.4C93.7,115,89,102.2,89,86.4
		c0-17.6,5-31.9,15.1-43C112.4,34.2,122,28.8,132.8,27.3z"/>
</g>
</svg>
