<?xml version="1.0" encoding="utf-8"?>
<!-- Generator: Adobe Illustrator 22.1.0, SVG Export Plug-In . SVG Version: 6.00 Build 0)  -->
<svg version="1.1" id="Layer_1" xmlns="http://www.w3.org/2000/svg" xmlns:xlink="http://www.w3.org/1999/xlink" x="0px" y="0px"
	 viewBox="0 0 256 256" style="enable-background:new 0 0 256 256;" xml:space="preserve">
<g>
	<path style="fill:#EF4230;" d="M146,252.6c-2.9,0.6-5.9,0.9-8.9,1.2C140.1,253.5,143.1,253.2,146,252.6z"/>
	<path style="fill:#EF4230;" d="M199.5,112.3c-14.2-14.8-31.3-22.3-51.5-22.3c-2.1,0-4.2,0.1-6.3,0.3h0c-2.2-0.2-4.5-0.3-6.8-0.3
		c-11.5,0-22.6,2.7-33.1,8.1c-4.7,2.4-9,5.3-13.1,8.9v0.1c-2.5,2.2-4.9,4.6-7.2,7.2c2.2-2.6,4.7-5.1,7.2-7.3
		c1.1-17.1,3.8-30.8,8-41.1c5.5-13.3,13-23.4,22.5-30.4c5.6-4.1,11.8-6.6,18.8-7.6c9.2,1.3,17.1,5.5,23.7,12.5
		c4.9,5.4,8.7,14,11.4,25.9l14.1-1.1l29-1.2c-2.5-19.1-9.9-34.2-22.2-45C181.7,8,165.8,2.6,146.5,2.6c-2.2,0-4.3,0.1-6.4,0.2
		c0,0,0,0,0,0c-2.2-0.1-4.4-0.2-6.6-0.2c-26,0-46.6,9.4-62,28.2C53.9,52.4,45.1,87,45.1,134.6c0,42.6,7.9,73.1,23.9,91.6
		c15.9,18.5,36.4,27.8,61.6,27.8c2.2,0,4.4-0.1,6.5-0.2c0,0,0,0,0,0c3-0.2,6-0.6,8.9-1.2c-2.9,0.6-5.9,0.9-8.9,1.2
		c2.2,0.1,4.3,0.2,6.5,0.2c14.8,0,28-3.5,39.6-10.6c11.6-7,20.8-17.2,27.5-30.5c6.7-13.3,10-27.6,10-43.1
		C220.7,146.4,213.6,127.2,199.5,112.3z M163,213.7c-7.6,8.5-16.4,13.5-26.4,15c-6.4-0.9-12.5-3.3-18.5-7
		c-7.9-5-14.1-12.2-18.5-21.7c-4.4-9.5-6.6-19.5-6.6-29.9c0-15.9,4.8-28.7,14.3-38.5c8-8.2,17.4-13,28.2-14.3
		c-1.1-0.1-2.1-0.2-3.2-0.3c1.1,0.1,2.2,0.2,3.2,0.3c10.9,1.3,20.1,6.1,27.7,14.3c9.1,9.8,13.6,23.2,13.6,40.2
		C176.7,189.4,172.1,203.4,163,213.7z"/>
	<path style="fill:#EF4230;" d="M88.8,107L88.8,107c-2.5,2.2-4.9,4.7-7.2,7.3C83.8,111.7,86.2,109.2,88.8,107z"/>
</g>
</svg>
