<?xml version="1.0" encoding="utf-8"?>
<!-- Generator: Adobe Illustrator 22.1.0, SVG Export Plug-In . SVG Version: 6.00 Build 0)  -->
<svg version="1.1" id="Layer_1" xmlns="http://www.w3.org/2000/svg" xmlns:xlink="http://www.w3.org/1999/xlink" x="0px" y="0px"
	 viewBox="0 0 256 256" style="enable-background:new 0 0 256 256;" xml:space="preserve">
<g style="opacity:0.2;">
	<path d="M135.4,117.2c-2.1-0.3-4.3-0.4-6.6-0.4c-13.7,0-25.2,4.9-34.8,14.7c-9.5,9.8-14.3,22.6-14.3,38.5c0,10.4,2.2,20.4,6.6,29.9
		c4.4,9.5,10.6,16.8,18.6,21.7c7.9,5,16.3,7.5,25,7.5c2.2,0,4.4-0.2,6.5-0.5c-6.4-0.9-12.5-3.3-18.5-7c-8-5-14.1-12.2-18.6-21.7
		c-4.4-9.5-6.6-19.5-6.6-29.9c0-15.9,4.8-28.7,14.3-38.5C115.1,123.3,124.6,118.5,135.4,117.2z"/>
	<path d="M181,18.9c12.4,10.9,19.8,25.9,22.3,45l-16.1,1.3l29.2-1.3c-2.5-19.1-9.9-34.1-22.3-45C181.7,8,165.8,2.6,146.5,2.6
		c-2.2,0-4.3,0.1-6.5,0.2C156.4,3.9,170.1,9.3,181,18.9z"/>
	<path d="M199.5,112.3c-14.2-14.8-31.3-22.3-51.5-22.3c-2.1,0-4.2,0.1-6.3,0.3c17.2,1.5,32.1,8.8,44.7,21.9
		c14.2,14.8,21.2,34,21.2,57.5c0,15.4-3.3,29.8-10,43.1c-6.7,13.3-15.8,23.4-27.5,30.5c-9.9,6-21,9.4-33.1,10.3
		c2.2,0.1,4.3,0.2,6.6,0.2c14.8,0,28-3.5,39.6-10.6c11.6-7.1,20.8-17.2,27.5-30.5c6.7-13.3,10-27.6,10-43.1
		C220.7,146.3,213.6,127.2,199.5,112.3z"/>
	<path d="M131.6,27.4c-9.6,0-18.1,2.7-25.4,8.1c-9.5,6.9-17,17.1-22.5,30.4c-5.5,13.3-8.3,32.3-8.6,56.9c4-6.1,8.6-11.4,13.6-15.8
		c1.1-17.1,3.8-30.8,8-41.2c5.5-13.3,13-23.5,22.5-30.4c5.6-4.1,11.9-6.6,18.8-7.6C136,27.6,133.8,27.4,131.6,27.4z"/>
</g>
</svg>
