<?xml version="1.0" encoding="utf-8"?>
<!-- Generator: Adobe Illustrator 22.1.0, SVG Export Plug-In . SVG Version: 6.00 Build 0)  -->
<svg version="1.1" id="Layer_1" xmlns="http://www.w3.org/2000/svg" xmlns:xlink="http://www.w3.org/1999/xlink" x="0px" y="0px"
	 viewBox="0 0 256 256" style="enable-background:new 0 0 256 256;" xml:space="preserve">
<g>
	<path style="fill:#EF4230;" d="M62.4,28.8c-4.3,8.7-11.6,17.6-21.9,26.9C30.2,64.9,18.1,72.8,4.3,79.2v23.8v3.3
		C12,103.6,32.4,96,42.1,90.3c4.2-2.5,8.1-5,11.6-7.4v147.7h24.7h11.8V28.8H78.3H62.4z"/>
	<path style="fill:#EF4230;" d="M244.5,84c-3-11.7-7.2-21.7-12.5-29.9c-5.3-8.2-12-14.4-20.1-18.8c-8.1-4.3-17.6-6.5-28.4-6.5
		c-2.1,0-4.1,0.1-6,0.2c0,0,0,0,0,0c-1.9-0.1-3.8-0.2-5.8-0.2c-14.6,0-26.8,3.9-36.4,11.8c-9.6,7.9-16.9,19-21.8,33.5
		c-4.9,14.5-7.3,33.6-7.3,57.4c0,37.7,6.6,65,19.9,81.7c11.1,13.9,26.3,20.8,45.6,20.8c2,0,4-0.1,6-0.2c0,0,0,0,0,0
		c1.9,0.1,3.8,0.2,5.8,0.2c14.7,0,26.9-4,36.5-11.9c9.6-7.9,16.9-19.1,21.7-33.6c4.8-14.5,7.3-33.5,7.3-57.1
		C249,111.5,247.5,95.7,244.5,84z M177.5,213.2C177.6,213.2,177.6,213.2,177.5,213.2c-8.7-1.6-16.3-6.9-22.6-15.9
		c-7.7-10.9-11.6-32.9-11.6-65.9c0-33,4.2-55.6,12.7-67.8c5.5-7.8,12.6-12.5,21.1-13.9c-0.8-0.1-1.5-0.2-2.3-0.3
		c10,1,18.5,6.4,25.4,16.1c7.7,10.9,11.6,32.8,11.6,65.9c0,32.9-3.9,54.8-11.6,65.8C193.9,206.3,186.3,211.6,177.5,213.2z
		 M200.2,227.5c-0.3,0.2-0.7,0.4-1,0.5C199.5,227.8,199.8,227.7,200.2,227.5z M198.2,228.5c-0.3,0.2-0.6,0.3-1,0.4
		C197.6,228.8,197.9,228.6,198.2,228.5z M194.8,230c-0.1,0.1-0.3,0.1-0.4,0.2C194.5,230.1,194.6,230,194.8,230z M197.2,33.9
		c1,0.4,1.9,0.9,2.8,1.4C199.2,34.8,198.2,34.4,197.2,33.9z M194.4,32.7c0.6,0.2,1.2,0.5,1.8,0.7C195.5,33.2,195,33,194.4,32.7z
		 M189.6,31.2c-0.3-0.1-0.5-0.1-0.8-0.2C189.1,31,189.4,31.1,189.6,31.2z M192.9,32.2c-0.5-0.2-0.9-0.3-1.4-0.5
		C191.9,31.9,192.4,32,192.9,32.2z M174,49.3c-0.3,0-0.5,0-0.8,0C173.5,49.3,173.8,49.3,174,49.3z M176.1,213.4
		c-0.3,0-0.6,0.1-0.8,0.1C175.6,213.5,175.9,213.4,176.1,213.4z M174.2,213.6c-0.2,0-0.5,0-0.7,0C173.8,213.6,174,213.6,174.2,213.6
		z M186.5,232.5c-0.2,0-0.3,0.1-0.5,0.1C186.2,232.5,186.4,232.5,186.5,232.5z M193,230.6c-0.2,0.1-0.5,0.2-0.7,0.2
		C192.5,230.8,192.8,230.7,193,230.6z M190.9,231.3c-0.2,0.1-0.5,0.1-0.7,0.2C190.4,231.5,190.7,231.4,190.9,231.3z M188.7,231.9
		c-0.2,0.1-0.4,0.1-0.6,0.2C188.3,232,188.5,232,188.7,231.9z M206.5,223.5c0.6-0.4,1.2-0.9,1.7-1.3
		C207.7,222.6,207.1,223,206.5,223.5z M201.1,227c0.3-0.2,0.7-0.4,1-0.6C201.8,226.6,201.4,226.8,201.1,227z M202.9,225.9
		c0.4-0.2,0.7-0.5,1.1-0.7C203.7,225.5,203.3,225.7,202.9,225.9z M204.7,224.7c0.4-0.3,0.8-0.5,1.2-0.8
		C205.5,224.2,205.1,224.5,204.7,224.7z"/>
</g>
</svg>
