<?xml version="1.0" encoding="utf-8"?>
<!-- Generator: Adobe Illustrator 22.1.0, SVG Export Plug-In . SVG Version: 6.00 Build 0)  -->
<svg version="1.1" id="Layer_1" xmlns="http://www.w3.org/2000/svg" xmlns:xlink="http://www.w3.org/1999/xlink" x="0px" y="0px"
	 viewBox="0 0 256 256" style="enable-background:new 0 0 256 256;" xml:space="preserve">
<g>
	<g style="opacity:0.2;">
		<path d="M177.2,49.7c-1.9-0.3-3.8-0.5-5.7-0.5c-11.3,0-20.4,4.8-27.1,14.4c-8.5,12.2-12.7,34.9-12.7,67.8c0,33,3.9,54.9,11.6,65.9
			c7.7,10.9,17.2,16.4,28.6,16.4c2,0,4-0.2,5.9-0.5c-8.8-1.6-16.3-6.9-22.7-15.8c-7.7-10.9-11.6-32.9-11.6-65.9
			c0-33,4.2-55.6,12.7-67.8C161.6,55.8,168.6,51.2,177.2,49.7z"/>
		<path d="M244.5,84c-3-11.7-7.2-21.7-12.5-29.9c-5.3-8.2-12-14.4-20.1-18.8c-8.1-4.3-17.6-6.5-28.4-6.5c-2.1,0-4.1,0.1-6,0.2
			c8.4,0.6,16,2.7,22.6,6.3c8.1,4.3,14.8,10.6,20.1,18.8c5.3,8.2,9.5,18.1,12.5,29.9c3,11.7,4.5,27.6,4.5,47.5
			c0,23.6-2.4,42.6-7.3,57.1c-4.8,14.5-12.1,25.7-21.7,33.6c-8.3,6.8-18.5,10.7-30.5,11.6c1.9,0.1,3.8,0.2,5.8,0.2
			c14.7,0,26.9-4,36.5-11.9c9.6-7.9,16.9-19.1,21.7-33.6c4.8-14.5,7.3-33.5,7.3-57.1C249,111.5,247.5,95.7,244.5,84z"/>
	</g>
	<g style="opacity:0.2;">
		<path d="M53.7,73.3c-5.9,5.7-13.7,11.3-23.4,17c-9.6,5.7-18.3,9.9-26,12.7v3.3C12,103.6,32.4,96,42.1,90.3c4.2-2.5,8.1-5,11.6-7.4
			V73.3z"/>
		<rect x="78.3" y="28.8" width="11.8" height="201.8"/>
	</g>
</g>
</svg>
