<?xml version="1.0" encoding="utf-8"?>
<!-- Generator: Adobe Illustrator 22.1.0, SVG Export Plug-In . SVG Version: 6.00 Build 0)  -->
<svg version="1.1" id="Layer_1" xmlns="http://www.w3.org/2000/svg" xmlns:xlink="http://www.w3.org/1999/xlink" x="0px" y="0px"
	 viewBox="0 0 256 256" style="enable-background:new 0 0 256 256;" xml:space="preserve">
<g style="opacity:0.2;">
	<path d="M100.9,213.6c-8.1-7.3-13.8-19.3-17.7-37.6L71,177.7c3.4,16.6,9.1,28.6,17.2,36c8.1,7.3,18,11,29.6,11
		c2.2,0,4.3-0.1,6.4-0.4C115.3,223.2,107.5,219.6,100.9,213.6z"/>
	<path d="M199.2,135.5c-7.8-10.3-18.8-17.1-33-20.3c10.9-5,19.1-11.7,24.6-20.2c5.5-8.5,8.3-17.9,8.3-28.2c0-10.9-2.9-21.2-8.7-30.8
		c-5.8-9.7-14.2-17.3-25.2-22.9c-11-5.6-23-8.4-36.1-8.4c-2.2,0-4.4,0.1-6.5,0.2c10.7,0.8,20.6,3.5,29.8,8.2
		c11,5.6,19.4,13.2,25.2,22.9c5.8,9.7,8.7,20,8.7,30.8c0,10.3-2.8,19.7-8.3,28.2c-5.5,8.5-13.8,15.2-24.6,20.2
		c14.1,3.3,25.1,10,33,20.3c7.8,10.3,11.8,23.1,11.8,38.6c0,20.9-7.6,38.6-22.8,53.1c-13.8,13.2-30.9,20.3-51.4,21.6
		c2.1,0.1,4.2,0.2,6.3,0.2c23.3,0,42.5-7.3,57.8-21.8s22.8-32.2,22.8-53.1C211,158.6,207.1,145.7,199.2,135.5z"/>
	<path d="M101.3,39.4c6.2-5.8,13.6-9.3,22.2-10.4c-2.1-0.3-4.2-0.4-6.4-0.4c-11.4,0-20.9,3.6-28.6,10.8c-7.6,7.2-12.5,18-14.7,32.3
		l-18.1-3.2c0,0,0,0,0,0l29.4,5.2C87.4,59.4,93.7,46.6,101.3,39.4z"/>
</g>
</svg>
