<?xml version="1.0" encoding="utf-8"?>
<!-- Generator: Adobe Illustrator 22.1.0, SVG Export Plug-In . SVG Version: 6.00 Build 0)  -->
<svg version="1.1" id="Layer_1" xmlns="http://www.w3.org/2000/svg" xmlns:xlink="http://www.w3.org/1999/xlink" x="0px" y="0px"
	 viewBox="0 0 256 256" style="enable-background:new 0 0 256 256;" xml:space="preserve">
<path style="fill:#EF4230;" d="M199.3,135.5c-7.8-10.3-18.8-17-33-20.3c10.9-5,19.1-11.8,24.6-20.2c5.5-8.5,8.3-17.9,8.3-28.2
	c0-10.9-2.9-21.2-8.7-30.9c-5.8-9.7-14.2-17.3-25.2-22.9c-11-5.6-23-8.4-36.1-8.4c-2.2,0-4.3,0.1-6.5,0.2c-2.1-0.2-4.1-0.2-6.2-0.2
	C97.6,4.5,81.8,9.9,69,20.7C56.3,31.6,48.2,46.8,44.6,66.5l11.3,2v0l29.4,5.2c2.2-14.4,8.5-27.2,16.1-34.4
	c6.1-5.8,13.5-9.3,22.1-10.4c-0.9-0.1-1.8-0.2-2.8-0.3c1,0.1,1.9,0.2,2.9,0.3c0,0-0.1,0-0.1,0c8.7,1.1,16,4.5,21.9,10.2
	c7.3,7.1,10.9,16,10.9,26.8c0,13.6-5,23.7-15,30.2c-10,6.5-21.3,9.8-33.8,9.8c-1.2,0-2.8-0.1-4.7-0.3l-3.3,25.8
	c8.3-2.2,15.2-3.3,20.7-3.3c13.6,0,24.8,4.4,33.6,13.1c8.8,8.8,13.2,19.9,13.2,33.4c0,14.1-4.8,26-14.3,35.6
	c-8,8.1-17.5,12.7-28.6,14c-9-1.1-16.7-4.7-23.3-10.6c-8.1-7.4-13.8-19.3-17.7-37.6L71,177.6c0,0,0,0,0,0l-29.4,3.9
	c2,19.9,9.9,36.1,23.7,48.6S96.7,249,117.7,249c2.2,0,4.3-0.1,6.4-0.2c2.1,0.1,4.2,0.2,6.3,0.2c23.3,0,42.5-7.3,57.8-21.8
	c15.2-14.5,22.8-32.2,22.8-53.1C211,158.6,207.1,145.7,199.3,135.5z M123.1,224.4c0.4,0,0.7-0.1,1.1-0.1
	C123.8,224.3,123.4,224.4,123.1,224.4z"/>
</svg>
