<?xml version="1.0" encoding="utf-8"?>
<!-- Generator: Adobe Illustrator 22.1.0, SVG Export Plug-In . SVG Version: 6.00 Build 0)  -->
<svg version="1.1" id="Layer_1" xmlns="http://www.w3.org/2000/svg" xmlns:xlink="http://www.w3.org/1999/xlink" x="0px" y="0px"
	 viewBox="0 0 256 256" style="enable-background:new 0 0 256 256;" xml:space="preserve">
<path style="fill:#EF4230;" d="M220.7,222v29H45.3c-0.2-7.3,0.9-14.3,3.5-20.9c4.1-11.1,10.8-22,19.9-32.7
	c9.1-10.7,22.3-23.1,39.5-37.2c26.7-21.9,44.7-39.2,54.1-52c9.4-12.8,14.1-24.9,14.1-36.3c0-11.9-4.3-22-12.8-30.2
	c-7.2-6.9-16.2-10.9-27-12c-11.5,1.1-20.9,5.4-28.2,12.7c-8.7,8.7-13.1,22.1-13.2,37.5l-13-1.3v0l-31-3.2
	c2.1-23.1,10.1-40.7,24-52.9c13.8-12.1,32.4-18.2,55.8-18.2c2.2,0,4.3,0.1,6.4,0.2c0,0,0,0,0,0c2.2-0.1,4.4-0.2,6.6-0.2
	c23.6,0,42.2,6.5,56,19.6c13.7,13.1,20.6,29.3,20.6,48.6c0,9.8-2,19.5-6,29c-4,9.5-10.7,19.5-20,30c-9.3,10.5-24.8,24.9-46.5,43.2
	c-18.1,15.2-29.7,25.5-34.9,30.9c-5.1,5.4-9.4,10.9-12.7,16.3H220.7z"/>
</svg>
