<?xml version="1.0" encoding="utf-8"?>
<!-- Generator: Adobe Illustrator 22.1.0, SVG Export Plug-In . SVG Version: 6.00 Build 0)  -->
<svg version="1.1" id="Layer_1" xmlns="http://www.w3.org/2000/svg" xmlns:xlink="http://www.w3.org/1999/xlink" x="0px" y="0px"
	 viewBox="0 0 256 256" style="enable-background:new 0 0 256 256;" xml:space="preserve">
<g style="opacity:0.2;">
	<path d="M95.3,42.4C86.6,51.1,82.1,63.2,82,78.6l13,1.3c0.1-15.4,4.5-28.8,13.2-37.5c7.3-7.3,16.8-11.6,28.3-12.7
		c-2.1-0.2-4.2-0.3-6.4-0.3C115.6,29.3,104,33.7,95.3,42.4z"/>
	<path d="M186.7,24c13.7,13.1,20.6,29.3,20.6,48.6c0,9.8-2,19.5-6,29c-4,9.5-10.7,19.5-20,30c-9.3,10.5-24.8,24.9-46.5,43.2
		c-18.1,15.2-29.7,25.5-34.8,30.9c-5.1,5.4-9.4,10.9-12.7,16.3h13c3.4-5.5,7.6-10.9,12.7-16.3c5.1-5.4,16.8-15.7,34.8-30.9
		c21.7-18.3,37.2-32.7,46.5-43.2c9.3-10.5,16-20.5,20-30c4-9.5,6-19.2,6-29c0-19.3-6.9-35.5-20.6-48.6c-13.7-13.1-32.4-19.6-56-19.6
		c-2.3,0-4.5,0.1-6.6,0.2C157.7,5.7,174.3,12.1,186.7,24z"/>
	<rect x="207.7" y="222" width="13" height="29"/>
</g>
</svg>
