<?xml version="1.0" encoding="utf-8"?>
<!-- Generator: Adobe Illustrator 22.1.0, SVG Export Plug-In . SVG Version: 6.00 Build 0)  -->
<svg version="1.1" id="Layer_1" xmlns="http://www.w3.org/2000/svg" xmlns:xlink="http://www.w3.org/1999/xlink" x="0px" y="0px"
	 viewBox="0 0 256 256" style="enable-background:new 0 0 256 256;" xml:space="preserve">
<g style="opacity:0.2;">
	<path d="M131.7,28.1c-2.1-0.3-4.2-0.5-6.4-0.5c-13.9,0-25,5.9-33.3,17.6c-10.4,15-15.6,42.7-15.6,83.1c0,40.4,4.7,67.3,14.2,80.7
		c9.5,13.4,21.1,20.1,35,20.1c2.2,0,4.4-0.2,6.5-0.5c-11-1.8-20.5-8.3-28.5-19.5c-9.5-13.4-14.2-40.3-14.2-80.7
		c0-40.4,5.2-68.1,15.6-83.1C112,35.4,120.9,29.7,131.7,28.1z"/>
	<path d="M213.4,70.2c-3.7-14.4-8.8-26.6-15.3-36.6c-6.5-10-14.7-17.7-24.7-23c-10-5.3-21.6-8-34.8-8c-2.3,0-4.5,0.1-6.6,0.2
		c10.6,0.7,20,3.3,28.3,7.7c10,5.3,18.2,13,24.7,23c6.5,10,11.6,22.2,15.3,36.6c3.7,14.4,5.5,33.8,5.5,58.2c0,28.9-3,52.2-8.9,69.9
		c-5.9,17.7-14.8,31.5-26.6,41.1c-10.3,8.5-23,13.2-38,14.3c2.1,0.1,4.2,0.2,6.3,0.2c18,0,32.9-4.8,44.8-14.5
		c11.8-9.7,20.7-23.4,26.6-41.1c5.9-17.7,8.9-41.1,8.9-69.9C219,104,217.1,84.6,213.4,70.2z"/>
</g>
</svg>
