<?xml version="1.0" encoding="utf-8"?>
<!-- Generator: Adobe Illustrator 22.1.0, SVG Export Plug-In . SVG Version: 6.00 Build 0)  -->
<svg version="1.1" id="Layer_1" xmlns="http://www.w3.org/2000/svg" xmlns:xlink="http://www.w3.org/1999/xlink" x="0px" y="0px"
	 viewBox="0 0 256 256" style="enable-background:new 0 0 256 256;" xml:space="preserve">
<path style="fill:#EF4230;" d="M213.4,70.2c-3.7-14.4-8.8-26.6-15.3-36.6c-6.5-10-14.7-17.7-24.7-23c-10-5.3-21.6-8-34.8-8
	c-2.3,0-4.5,0.1-6.6,0.2c0,0,0,0,0,0c-2.1-0.1-4.3-0.2-6.5-0.2C107.7,2.6,92.8,7.4,81,17c-11.8,9.6-20.7,23.3-26.7,41.1
	c-6,17.7-9,41.2-9,70.3c0,46.2,8.1,79.6,24.4,100.1c13.5,17,32.2,25.5,55.9,25.5c3.3,0,6.5-0.2,9.6-0.5c-1,0.1-1.9,0.2-2.9,0.3
	c2.1,0.1,4.2,0.2,6.3,0.2c18,0,32.9-4.8,44.8-14.5c11.8-9.7,20.7-23.4,26.6-41.1c5.9-17.7,8.9-41.1,8.9-69.9
	C219,104,217.1,84.6,213.4,70.2z M129.5,228.9c0.9-0.1,1.8-0.2,2.6-0.3c-11-1.8-20.5-8.3-28.5-19.5c-9.5-13.4-14.2-40.3-14.2-80.7
	c0-40.4,5.2-68.1,15.6-83.1c6.9-9.8,15.8-15.5,26.6-17.1c11.3,1.7,21,8.2,29,19.5c9.5,13.3,14.2,40.3,14.2,80.8
	c0,40.3-4.7,67.2-14.2,80.6C152.1,221.1,141.7,227.8,129.5,228.9z M160.5,246c-0.5,0.3-1,0.5-1.4,0.7
	C159.5,246.5,160,246.3,160.5,246z M158.1,247.3c-0.5,0.3-1.1,0.5-1.6,0.7C157,247.8,157.6,247.5,158.1,247.3z M155.6,248.4
	c-0.8,0.3-1.6,0.7-2.5,1C154,249.1,154.8,248.7,155.6,248.4z M157,8.9c0.2,0.1,0.3,0.2,0.5,0.2C157.3,9.1,157.2,9,157,8.9z
	 M154.1,7.7c-0.2-0.1-0.3-0.1-0.5-0.2C153.8,7.5,154,7.6,154.1,7.7z M147.2,5.4c-0.1,0-0.2-0.1-0.3-0.1C147,5.3,147.1,5.3,147.2,5.4
	z M143.5,4.4c-0.1,0-0.1,0-0.2,0C143.4,4.4,143.5,4.4,143.5,4.4z M136,3.2C136,3.2,136,3.2,136,3.2C136,3.2,136,3.2,136,3.2z
	 M131.7,28.1c-0.8-0.1-1.7-0.2-2.5-0.3C130,27.9,130.8,28,131.7,28.1z M128.4,27.7c-0.3,0-0.6,0-0.9-0.1
	C127.7,27.7,128,27.7,128.4,27.7z M128.7,229c-0.3,0-0.6,0-1,0.1C128,229.1,128.4,229,128.7,229z M138.2,253.1
	c-0.6,0.1-1.1,0.1-1.7,0.2C137,253.3,137.6,253.2,138.2,253.1z M152.5,249.6c-0.7,0.2-1.3,0.5-2,0.7
	C151.2,250.1,151.9,249.8,152.5,249.6z M149.4,250.6c-0.5,0.2-1,0.3-1.6,0.5C148.4,251,148.9,250.8,149.4,250.6z M146.7,251.4
	c-0.5,0.1-1,0.3-1.5,0.4C145.7,251.7,146.2,251.6,146.7,251.4z M143.9,252.1c-0.5,0.1-1,0.2-1.5,0.3
	C142.9,252.3,143.4,252.2,143.9,252.1z M141,252.7c-0.5,0.1-1,0.2-1.6,0.3C140,252.9,140.5,252.8,141,252.7z M168.2,241.1
	c0.7-0.5,1.4-1.1,2.1-1.7C169.7,240,169,240.6,168.2,241.1z M161.5,245.5c0.5-0.3,0.9-0.5,1.4-0.8
	C162.4,245,161.9,245.3,161.5,245.5z M163.8,244.1c0.5-0.3,0.9-0.6,1.4-0.9C164.7,243.6,164.3,243.9,163.8,244.1z M166.1,242.7
	c0.5-0.3,1-0.7,1.5-1C167,242,166.6,242.3,166.1,242.7z"/>
</svg>
