<?xml version="1.0" encoding="utf-8"?>
<!-- Generator: Adobe Illustrator 22.1.0, SVG Export Plug-In . SVG Version: 6.00 Build 0)  -->
<svg version="1.1" id="Layer_1" xmlns="http://www.w3.org/2000/svg" xmlns:xlink="http://www.w3.org/1999/xlink" x="0px" y="0px"
	 viewBox="0 0 256 256" style="enable-background:new 0 0 256 256;" xml:space="preserve">
<g style="opacity:0;">
	<rect style="fill:#F4AC2C;" width="256" height="256"/>
</g>
<g>
	<g>
		<path style="fill:#FFFFFF;" d="M89.6,133c-2.3,0-4.4-1.6-4.9-3.9L77,93.9l-56.7,38.2c-2.3,1.5-5.4,0.9-6.9-1.3
			c-1.5-2.3-0.9-5.4,1.3-6.9l62.8-42.3c1.4-0.9,3.1-1.1,4.7-0.5c1.5,0.6,2.7,2,3,3.6l9.2,42.3c0.6,2.7-1.1,5.4-3.8,6
			C90.3,133,89.9,133,89.6,133z"/>
	</g>
	<g>
		<path style="fill:#FFFFFF;" d="M161.6,133c-2.3,0-4.4-1.6-4.9-3.9L149,93.9l-56.7,38.2c-2.3,1.5-5.4,0.9-6.9-1.3
			c-1.5-2.3-0.9-5.4,1.3-6.9l62.8-42.3c1.4-0.9,3.1-1.1,4.7-0.5c1.5,0.6,2.7,2,3,3.6l9.2,42.3c0.6,2.7-1.1,5.4-3.8,6
			C162.3,133,161.9,133,161.6,133z"/>
	</g>
	<g>
		<path style="fill:#FFFFFF;" d="M233.6,133c-2.3,0-4.4-1.6-4.9-3.9L221,93.9l-56.7,38.2c-2.3,1.5-5.4,0.9-6.9-1.3
			c-1.5-2.3-0.9-5.4,1.3-6.9l62.8-42.3c1.4-0.9,3.1-1.1,4.7-0.5c1.5,0.6,2.7,2,3,3.6l9.2,42.3c0.6,2.7-1.1,5.4-3.8,6
			C234.3,133,233.9,133,233.6,133z"/>
	</g>
</g>
</svg>
