<?xml version="1.0" encoding="utf-8"?>
<!-- Generator: Adobe Illustrator 22.1.0, SVG Export Plug-In . SVG Version: 6.00 Build 0)  -->
<svg version="1.1" id="Layer_1" xmlns="http://www.w3.org/2000/svg" xmlns:xlink="http://www.w3.org/1999/xlink" x="0px" y="0px"
	 viewBox="0 0 256 256" style="enable-background:new 0 0 256 256;" xml:space="preserve">
<g>
	<rect style="fill:#F4AC2C;" width="256" height="256"/>
</g>
<g style="opacity:0;">
	<g>
		<path style="fill:#FFFFFF;" d="M128,232.6c-2.4,0-4.4-1.6-4.9-3.9l-33-151.3c0,0,0-0.1,0-0.1C85.3,60.8,70,49.4,52.8,49.4
			C31.4,49.4,14,66.8,14,88.2c0,12.3,5.7,23.7,15.5,31.1c2.2,1.7,2.7,4.8,1,7c-1.7,2.2-4.8,2.7-7,1C11.1,118,4,103.7,4,88.2
			c0-26.9,21.9-48.8,48.8-48.8c21.8,0,41.1,14.6,47,35.5c0.1,0.2,0.1,0.5,0.1,0.7l28,128.3l27.7-128.7c0.1-0.3,0.1-0.5,0.2-0.8
			l0.7-1.9c6.5-20.3,25.2-34,46.5-34c26.9,0,48.8,21.9,48.8,48.8c0,16.6-8.3,31.9-22.2,40.9c-2.3,1.5-5.4,0.9-6.9-1.5
			c-1.5-2.3-0.9-5.4,1.5-6.9c11.1-7.2,17.7-19.4,17.7-32.6c0-21.4-17.4-38.8-38.8-38.8c-17,0-31.9,10.9-37.1,27.2
			c0,0.1-0.1,0.2-0.1,0.3l-0.7,1.7l-32.4,150.9C132.4,230.9,130.4,232.6,128,232.6C128,232.6,128,232.6,128,232.6z"/>
	</g>
</g>
</svg>
