<?xml version="1.0" encoding="utf-8"?>
<!-- Generator: Adobe Illustrator 22.1.0, SVG Export Plug-In . SVG Version: 6.00 Build 0)  -->
<svg version="1.1" id="Layer_1" xmlns="http://www.w3.org/2000/svg" xmlns:xlink="http://www.w3.org/1999/xlink" x="0px" y="0px"
	 viewBox="0 0 256 256" style="enable-background:new 0 0 256 256;" xml:space="preserve">
<g style="opacity:0;">
	<rect style="fill:#F4AC2C;" width="256" height="256"/>
</g>
<g>
	<g>
		<path style="fill:#FFFFFF;" d="M55.2,150.6c-20.8,0-37.7-16.9-37.7-37.7s16.9-37.7,37.7-37.7s37.7,16.9,37.7,37.7
			S76,150.6,55.2,150.6z M55.2,85.2c-15.3,0-27.7,12.4-27.7,27.7c0,15.3,12.4,27.7,27.7,27.7c15.3,0,27.7-12.4,27.7-27.7
			C82.9,97.6,70.5,85.2,55.2,85.2z"/>
	</g>
	<g>
		<path style="fill:#FFFFFF;" d="M200.8,171.5c-20.8,0-37.7-16.9-37.7-37.7s16.9-37.7,37.7-37.7s37.7,16.9,37.7,37.7
			S221.6,171.5,200.8,171.5z M200.8,106.1c-15.3,0-27.7,12.4-27.7,27.7c0,15.3,12.4,27.7,27.7,27.7s27.7-12.4,27.7-27.7
			C228.5,118.6,216.1,106.1,200.8,106.1z"/>
	</g>
	<g>
		<path style="fill:#FFFFFF;" d="M49.9,85.7c-1.8,0-3.5-1-4.4-2.6c-1.3-2.4-0.4-5.5,2-6.8c2.3-1.3,58.2-30.4,158.2-7.6
			c2.7,0.6,4.4,3.3,3.8,6c-0.6,2.7-3.3,4.4-6,3.8c-96-21.9-150.7,6.4-151.2,6.6C51.5,85.5,50.7,85.7,49.9,85.7z"/>
	</g>
	<g>
		<path style="fill:#FFFFFF;" d="M128.6,179.3c-53.7,0-83.2-15.4-84.8-16.3c-2.4-1.3-3.3-4.3-2-6.8c1.3-2.4,4.3-3.3,6.8-2l0,0
			c0.5,0.3,55.2,28.6,151.2,6.6c2.7-0.6,5.4,1.1,6,3.8c0.6,2.7-1.1,5.4-3.8,6C173.9,177,149.4,179.3,128.6,179.3z"/>
	</g>
</g>
</svg>
