<?xml version="1.0" encoding="utf-8"?>
<!-- Generator: Adobe Illustrator 22.1.0, SVG Export Plug-In . SVG Version: 6.00 Build 0)  -->
<svg version="1.1" id="Layer_1" xmlns="http://www.w3.org/2000/svg" xmlns:xlink="http://www.w3.org/1999/xlink" x="0px" y="0px"
	 viewBox="0 0 256 256" style="enable-background:new 0 0 256 256;" xml:space="preserve">
<g style="opacity:0;">
	<rect style="fill:#F4AC2C;" width="256" height="256"/>
</g>
<g>
	<g>
		<path style="fill:#FFFFFF;" d="M193.8,220.4c-2.2,0-4.4-0.2-6.5-0.7c-19.3-4.3-30.4-27-35.7-37.9c-0.6-1.3-1.2-2.4-1.6-3.3
			c-0.8-1.5-1.7-4.1-2.6-7.6c-8,13-17.3,23.7-27.2,31.1c-16.8,12.6-34.6,15.5-51.5,8.4c-2.5-1.1-3.7-4-2.7-6.5
			c1.1-2.5,4-3.8,6.5-2.7c29.4,12.3,55.9-14.9,71.5-44.8c-2-9.9-4.4-22.8-7.2-38.4c-5.1-27.9-10.8-59.5-15.4-73.4
			c-1.9-5.7-5.2-12.7-10-13.5c-4.9-0.8-12.3,4.3-19.6,13.8c-9.2,12-26.1,70.1-31.8,91.5c-0.7,2.5-3.2,4.1-5.7,3.6
			c-2.6-0.5-4.3-2.8-4.1-5.4c2.2-22.8-5.2-69.3-12.1-84.8c-5.7-12.9-20-13.6-20.6-13.7c-2.7-0.1-4.9-2.4-4.8-5.2
			c0.1-2.8,2.4-4.9,5.2-4.8c0.9,0,21,0.9,29.3,19.6c4.9,10.9,9.8,34.4,12.1,56.5c7.2-23.9,17.2-53.9,24.5-63.4
			c7-9.1,17.7-19.5,29.2-17.6c7.8,1.3,13.8,8.2,17.8,20.3c4.8,14.5,10.3,45.1,15.7,74.7c1.5,8.4,3.1,17.2,4.7,25.4
			c14.8-27.2,37.4-35.1,67.2-23.6c11.5,4.5,21.4,19.6,24,36.8c1.9,12.3,1.4,35.8-22.7,55C210.9,216.9,202.2,220.4,193.8,220.4z
			 M154.5,157.9c1.7,8,3.2,14,4.2,16c0.5,1,1.1,2.1,1.8,3.5c4.7,9.5,14.3,29.3,28.9,32.5c7.3,1.6,15.4-1,24.1-8
			c20.2-16,20.6-35.5,19.1-45.6c-2.3-15.2-10.9-26.3-17.8-28.9c-17-6.6-41.5-11.1-57.8,25C156.3,154.3,155.4,156.1,154.5,157.9z"/>
	</g>
</g>
</svg>
