<?xml version="1.0" encoding="utf-8"?>
<!-- Generator: Adobe Illustrator 22.1.0, SVG Export Plug-In . SVG Version: 6.00 Build 0)  -->
<svg version="1.1" id="Layer_1" xmlns="http://www.w3.org/2000/svg" xmlns:xlink="http://www.w3.org/1999/xlink" x="0px" y="0px"
	 viewBox="0 0 256 256" style="enable-background:new 0 0 256 256;" xml:space="preserve">
<g>
	<rect style="fill:#F4AC2C;" width="256" height="256"/>
</g>
<g style="opacity:0;">
	<g>
		<path style="fill:#FFFFFF;" d="M77.8,170.1c-28.1,0-51-22.9-51-51c0-28.1,22.9-51,51-51c28.1,0,51,22.9,51,51
			C128.9,147.3,106,170.1,77.8,170.1z M77.8,78.1c-22.6,0-41,18.4-41,41c0,22.6,18.4,41,41,41s41-18.4,41-41
			C118.9,96.5,100.5,78.1,77.8,78.1z"/>
	</g>
	<g>
		<path style="fill:#FFFFFF;" d="M179.1,252.6c-3.2,0-6.5-0.4-9.9-1.3c-8.5-2.3-14.5-7.8-17.3-15.9c-7.7-22.3,9.7-58.7,20.6-73.3
			c14.5-19.2,43.9-71.6,45.9-86.2c1.5-10.6,2.1-30.5-10.1-44.2c-9.2-10.3-24.3-15.2-44.9-14.6c-17.5,0.5-30.4,5.9-38.1,16.2
			c-15.2,20.1-7.2,52.2-7.1,52.5c0.7,2.7-0.9,5.4-3.6,6.1c-2.7,0.7-5.4-0.9-6.1-3.6c-0.4-1.5-9.2-37.2,8.8-61
			c9.7-12.8,25.1-19.6,45.9-20.2c23.7-0.6,41.4,5.4,52.6,18c14.9,16.6,14.3,39.9,12.6,52.2c-2.4,17.6-34,72.4-47.8,90.8
			c-11.5,15.3-24.7,47.8-19.2,64c1.7,5,5.1,8.1,10.4,9.5c26.4,7.1,41.5-25.1,42.1-26.5c1.2-2.5,4.1-3.6,6.6-2.5
			c2.5,1.1,3.6,4.1,2.5,6.6C217.3,231.8,201.5,252.6,179.1,252.6z"/>
	</g>
</g>
</svg>
