<?xml version="1.0" encoding="utf-8"?>
<!-- Generator: Adobe Illustrator 22.1.0, SVG Export Plug-In . SVG Version: 6.00 Build 0)  -->
<svg version="1.1" id="Layer_1" xmlns="http://www.w3.org/2000/svg" xmlns:xlink="http://www.w3.org/1999/xlink" x="0px" y="0px"
	 viewBox="0 0 256 256" style="enable-background:new 0 0 256 256;" xml:space="preserve">
<g style="opacity:0;">
	<rect style="fill:#F4AC2C;" width="256" height="256"/>
</g>
<g>
	<g>
		<path style="fill:#FFFFFF;" d="M154.7,125.9c-1.5,0-3-0.7-4-2c-1.7-2.2-1.2-5.3,1-7c10.9-8.3,17.1-20.8,17.1-34.5
			c0-23.9-19.4-43.3-43.3-43.3c-23.9,0-43.3,19.4-43.3,43.3c0,13.7,6.2,26.2,17.1,34.5c2.2,1.7,2.6,4.8,1,7s-4.8,2.6-7,1
			C80,114.7,72.3,99.3,72.3,82.5c0-29.4,23.9-53.3,53.3-53.3c29.4,0,53.3,23.9,53.3,53.3c0,16.8-7.7,32.3-21.1,42.5
			C156.8,125.6,155.7,125.9,154.7,125.9z"/>
	</g>
	<g>
		<path style="fill:#FFFFFF;" d="M248.7,125.9h-94c-2.8,0-5-2.2-5-5s2.2-5,5-5h94c2.8,0,5,2.2,5,5S251.4,125.9,248.7,125.9z"/>
	</g>
	<g>
		<path style="fill:#FFFFFF;" d="M96.4,125.9H7.3c-2.8,0-5-2.2-5-5s2.2-5,5-5h89.1c2.8,0,5,2.2,5,5S99.2,125.9,96.4,125.9z"/>
	</g>
	<g>
		<path style="fill:#FFFFFF;" d="M248.7,180.7H7.3c-2.8,0-5-2.2-5-5s2.2-5,5-5h241.3c2.8,0,5,2.2,5,5S251.4,180.7,248.7,180.7z"/>
	</g>
</g>
</svg>
