<?xml version="1.0" encoding="utf-8"?>
<!-- Generator: Adobe Illustrator 22.1.0, SVG Export Plug-In . SVG Version: 6.00 Build 0)  -->
<svg version="1.1" id="Layer_1" xmlns="http://www.w3.org/2000/svg" xmlns:xlink="http://www.w3.org/1999/xlink" x="0px" y="0px"
	 viewBox="0 0 256 256" style="enable-background:new 0 0 256 256;" xml:space="preserve">
<g style="opacity:0;">
	<rect style="fill:#F4AC2C;" width="256" height="256"/>
</g>
<g>
	<g>
		<path style="fill:#FFFFFF;" d="M125.4,234.7c-42.7,0-77.5-34.8-77.5-77.5V32.4c0-2.8,2.2-5,5-5s5,2.2,5,5v124.8
			c0,37.2,30.3,67.5,67.5,67.5c37.2,0,67.5-30.3,67.5-67.5V30.5c0-2.8,2.2-5,5-5s5,2.2,5,5v126.7
			C202.9,199.9,168.1,234.7,125.4,234.7z"/>
	</g>
	<g>
		<path style="fill:#FFFFFF;" d="M12.5,115.9c-1.1,0-2.2-0.3-3.1-1.1c-2.2-1.7-2.6-4.8-0.9-7c0.5-0.7,12.8-16.4,32.6-28
			c26.8-15.7,54.2-16.1,79.3-1.2c47,27.9,84.3,24.3,114-11c1.8-2.1,4.9-2.4,7-0.6c2.1,1.8,2.4,4.9,0.6,7c-18.5,22-40.2,33-64.7,33
			c-19,0-39.7-6.6-62.1-19.9C93.3,74.1,70,74.5,46.3,88.4c-18.2,10.6-29.7,25.3-29.8,25.5C15.5,115.2,14,115.9,12.5,115.9z"/>
	</g>
</g>
</svg>
