<?xml version="1.0" encoding="utf-8"?>
<!-- Generator: Adobe Illustrator 22.1.0, SVG Export Plug-In . SVG Version: 6.00 Build 0)  -->
<svg version="1.1" id="Layer_1" xmlns="http://www.w3.org/2000/svg" xmlns:xlink="http://www.w3.org/1999/xlink" x="0px" y="0px"
	 viewBox="0 0 256 256" style="enable-background:new 0 0 256 256;" xml:space="preserve">
<g style="opacity:0;">
	<rect style="fill:#F4AC2C;" width="256" height="256"/>
</g>
<g>
	<g>
		<path style="fill:#FFFFFF;" d="M37.9,240c-1.2,0-2.4-0.4-3.3-1.3c-2.1-1.8-2.2-5-0.4-7.1c41.9-46.4,53.9-95.6,35.8-146
			C56.4,47.8,30.2,23.5,30,23.3c-2-1.9-2.2-5-0.3-7.1c1.9-2,5-2.2,7.1-0.3c1.1,1.1,28.3,26.3,42.7,66.4c8.5,23.7,10.8,47.7,6.7,71.2
			c-5.1,29.3-20,57.8-44.5,84.9C40.7,239.4,39.3,240,37.9,240z"/>
	</g>
	<g>
		<path style="fill:#FFFFFF;" d="M196.9,236.1c-1.4,0-2.7-0.6-3.7-1.7c-24.4-27.1-39.4-55.6-44.5-84.9c-4.1-23.5-1.8-47.5,6.7-71.2
			C169.8,38.3,197,13,198.1,12c2-1.9,5.2-1.7,7.1,0.3c1.9,2,1.7,5.2-0.3,7.1c-0.3,0.3-26.7,24.9-40.2,62.7
			c-18,50.3-5.9,99.3,35.9,145.7c1.8,2.1,1.7,5.2-0.4,7.1C199.3,235.7,198.1,236.1,196.9,236.1z"/>
	</g>
	<g>
		<path style="fill:#FFFFFF;" d="M201.5,128.4H33.4c-2.8,0-5-2.2-5-5s2.2-5,5-5h168.1c2.8,0,5,2.2,5,5S204.3,128.4,201.5,128.4z"/>
	</g>
</g>
</svg>
