<?xml version="1.0" encoding="utf-8"?>
<!-- Generator: Adobe Illustrator 22.1.0, SVG Export Plug-In . SVG Version: 6.00 Build 0)  -->
<svg version="1.1" id="Layer_1" xmlns="http://www.w3.org/2000/svg" xmlns:xlink="http://www.w3.org/1999/xlink" x="0px" y="0px"
	 viewBox="0 0 256 256" style="enable-background:new 0 0 256 256;" xml:space="preserve">
<g style="opacity:0;">
	<rect style="fill:#F4AC2C;" width="256" height="256"/>
</g>
<g>
	<g>
		<path style="fill:#FFFFFF;" d="M22.3,241c-1.3,0-2.5-0.5-3.5-1.4c-2-1.9-2-5.1-0.1-7.1l197-201.6H109.8c-2.8,0-5-2.2-5-5
			s2.2-5,5-5h117.8c2,0,3.8,1.2,4.6,3.1c0.8,1.9,0.4,4-1,5.4L25.9,239.5C24.9,240.5,23.6,241,22.3,241z"/>
	</g>
	<g>
		<path style="fill:#FFFFFF;" d="M227.6,141.1c-2.8,0-5-2.2-5-5V25.9c0-2.8,2.2-5,5-5s5,2.2,5,5v110.2
			C232.6,138.8,230.4,141.1,227.6,141.1z"/>
	</g>
	<g>
		<path style="fill:#FFFFFF;" d="M131,231.6c-1.2,0-2.4-0.4-3.4-1.3L21.1,130.9c-2-1.9-2.1-5-0.2-7.1c1.9-2,5-2.1,7.1-0.2
			l106.4,99.4c2,1.9,2.1,5,0.2,7.1C133.7,231,132.3,231.6,131,231.6z"/>
	</g>
</g>
</svg>
