<?xml version="1.0" encoding="utf-8"?>
<!-- Generator: Adobe Illustrator 22.1.0, SVG Export Plug-In . SVG Version: 6.00 Build 0)  -->
<svg version="1.1" id="Layer_1" xmlns="http://www.w3.org/2000/svg" xmlns:xlink="http://www.w3.org/1999/xlink" x="0px" y="0px"
	 viewBox="0 0 256 256" style="enable-background:new 0 0 256 256;" xml:space="preserve">
<g style="opacity:0;">
	<rect style="fill:#F4AC2C;" width="256" height="256"/>
</g>
<g>
	<g>
		<path style="fill:#FFFFFF;" d="M80,204.4C80,204.4,80,204.4,80,204.4c-2.8,0-5-2.3-5-5c0.2-42-0.1-125.3-3.2-140.1
			c-3.7-17.7-21.9-39.3-22.1-39.5c-1.8-2.1-1.5-5.3,0.6-7s5.3-1.5,7,0.6c0.8,1,20.1,23.7,24.3,44c4,19.5,3.4,137.2,3.4,142.2
			C85,202.2,82.7,204.4,80,204.4z"/>
	</g>
	<g>
		<path style="fill:#FFFFFF;" d="M137.6,204.4c-2.7,0-5-2.2-5-4.9c0-1.3-2-126.6-2.6-140.3c-0.5-9.9-14.7-29.3-21-36.4
			c-5.4,5.6-17.7,22-27.6,36.4c-1.6,2.3-4.7,2.9-7,1.3c-2.3-1.6-2.9-4.7-1.3-7c28.2-41,33.2-41.8,35.4-42.1c1.6-0.2,3.1,0.2,4.4,1.2
			c3.9,3.1,26.3,30.1,27.1,46.1c0.7,13.8,2.6,135.5,2.7,140.6C142.7,202.1,140.5,204.3,137.6,204.4
			C137.7,204.4,137.7,204.4,137.6,204.4z"/>
	</g>
	<g>
		<path style="fill:#FFFFFF;" d="M213.8,236.8c-1.6,0-3.1-0.7-4.1-2.1c-2.8-3.9-17-23.9-19.1-28.8c-1.3-3-1.8-17.8-2.5-99.6
			c-0.2-20.9-0.3-38.9-0.5-44.7c-0.5-14.1-16.4-34.8-22.2-39.7c-4.9,3.9-17.1,19.7-26.6,33.7c-1.6,2.3-4.7,2.9-6.9,1.3
			c-2.3-1.6-2.9-4.7-1.3-6.9c0.3-0.4,6.7-9.8,13.9-19.2c14-18.3,18.9-20.8,23.4-19.1c7.3,2.7,29,30.4,29.7,49.5
			c0.2,5.9,0.4,24,0.6,45c0.3,33.6,0.7,89.4,1.8,96c1.7,3.5,11.3,17.4,17.9,26.6c1.6,2.2,1.1,5.4-1.2,7
			C215.9,236.5,214.8,236.8,213.8,236.8z"/>
	</g>
	<g>
		<path style="fill:#FFFFFF;" d="M220.6,244.6c-0.2,0-0.5,0-0.7,0l-21.2-2.9c-2.7-0.4-4.6-2.9-4.3-5.6c0.4-2.7,2.9-4.6,5.6-4.3
			l15.5,2.1v-14c0-2.8,2.2-5,5-5s5,2.2,5,5v19.7c0,1.4-0.6,2.8-1.7,3.8C222.9,244.2,221.8,244.6,220.6,244.6z"/>
	</g>
</g>
</svg>
