<?xml version="1.0" encoding="utf-8"?>
<!-- Generator: Adobe Illustrator 22.1.0, SVG Export Plug-In . SVG Version: 6.00 Build 0)  -->
<svg version="1.1" id="Layer_1" xmlns="http://www.w3.org/2000/svg" xmlns:xlink="http://www.w3.org/1999/xlink" x="0px" y="0px"
	 viewBox="0 0 256 256" style="enable-background:new 0 0 256 256;" xml:space="preserve">
<g>
	<rect style="fill:#F4AC2C;" width="256" height="256"/>
</g>
<g style="opacity:0;">
	<g>
		<path style="fill:#FFFFFF;" d="M128,234.7c-38.6,0-70-31.4-70-70s31.4-70,70-70c38.6,0,70,31.4,70,70S166.6,234.7,128,234.7z
			 M128,104.7c-33.1,0-60,26.9-60,60c0,33.1,26.9,60,60,60c33.1,0,60-26.9,60-60C188,131.6,161.1,104.7,128,104.7z"/>
	</g>
	<g>
		<path style="fill:#FFFFFF;" d="M126.2,104.8c-0.4,0-0.7,0-1.1,0c-13.4-0.6-28-16.9-30.1-26.7c-1-4.8-8.3-17.2-12.7-24.1
			C60.9,28.4,17.8,31.5,17.4,31.5c-2.7,0.2-5.2-1.8-5.4-4.6c-0.2-2.8,1.8-5.2,4.6-5.4c2-0.2,48.9-3.6,73.6,26.2
			c0.1,0.1,0.2,0.3,0.3,0.5c1.3,2,12.5,19.4,14.2,27.7c1.2,5.6,12.4,18.4,20.8,18.8c9,0.4,22.3-7.8,26.5-19.4
			c3.7-10.3,14.3-29.8,25.3-39c9-7.5,27.1-16.2,61.9-14.8c2.8,0.1,4.9,2.4,4.8,5.2c-0.1,2.8-2.5,4.9-5.2,4.8
			c-31.6-1.3-47.4,6.1-55.1,12.5c-9.2,7.6-18.8,25-22.3,34.7C155.7,94.6,138.8,104.7,126.2,104.8z"/>
	</g>
</g>
</svg>
