<?xml version="1.0" encoding="utf-8"?>
<!-- Generator: Adobe Illustrator 22.1.0, SVG Export Plug-In . SVG Version: 6.00 Build 0)  -->
<svg version="1.1" id="Layer_1" xmlns="http://www.w3.org/2000/svg" xmlns:xlink="http://www.w3.org/1999/xlink" x="0px" y="0px"
	 viewBox="0 0 256 256" style="enable-background:new 0 0 256 256;" xml:space="preserve">
<g style="opacity:0;">
	<rect style="fill:#F4AC2C;" width="256" height="256"/>
</g>
<g>
	<g>
		<path style="fill:#FFFFFF;" d="M51.9,212.7C51.9,212.7,51.9,212.7,51.9,212.7c-2.8,0-5-2.3-5-5C47.1,162.6,46.7,73,43.4,57
			c-4-19.2-23.6-42.4-23.8-42.6c-1.8-2.1-1.5-5.3,0.6-7c2.1-1.8,5.3-1.5,7,0.6c0.9,1,21.5,25.4,26,47.1
			c4.3,20.9,3.7,147.4,3.7,152.8C56.9,210.5,54.6,212.7,51.9,212.7z"/>
	</g>
	<g>
		<path style="fill:#FFFFFF;" d="M113.9,212.7c-2.7,0-5-2.2-5-4.9c0-1.4-2.1-136.1-2.8-150.8c-0.5-10.7-16.3-32.2-22.9-39.6
			C77.4,23.1,64,41,53.1,56.8c-1.6,2.3-4.7,2.9-7,1.3c-2.3-1.6-2.9-4.7-1.3-7c0.1-0.1,7.4-10.7,15.3-21.3
			C77.2,6.9,80.2,6.4,82.7,6.1c1.6-0.2,3.2,0.2,4.4,1.2c4.2,3.3,28.1,32.2,28.9,49.3c0.7,14.9,2.8,145.6,2.9,151.2
			C118.9,210.4,116.7,212.7,113.9,212.7C113.9,212.7,113.9,212.7,113.9,212.7z"/>
	</g>
	<g>
		<path style="fill:#FFFFFF;" d="M195.8,247.6c-1.6,0-3.1-0.7-4.1-2.1c-3-4.2-18.2-25.6-20.5-30.9c-1.5-3.4-2-24.4-2.7-106.9
			c-0.2-22.4-0.3-41.8-0.6-48.1c-0.6-15.2-18.2-38.2-24.2-43.2c-5.2,3.9-18.5,21.2-28.9,36.5c-1.6,2.3-4.7,2.9-6.9,1.3
			c-2.3-1.6-2.9-4.7-1.3-6.9c0.1-0.1,7.2-10.6,14.9-20.6c15-19.5,20.1-22.1,24.7-20.4c7.8,2.9,30.9,32.5,31.7,52.9
			c0.2,6.4,0.4,25.8,0.6,48.4c0.3,38.5,0.8,96.6,2,103.3c1.8,3.7,12.2,18.8,19.3,28.7c1.6,2.2,1.1,5.4-1.2,7
			C197.8,247.3,196.8,247.6,195.8,247.6z"/>
	</g>
	<g>
		<path style="fill:#FFFFFF;" d="M126,253.3c-1.8,0-3.5-1-4.4-2.7c-1.3-2.4-0.4-5.5,2.1-6.8c0.7-0.4,66.1-35.5,90-73.1
			c23.9-37.6,18.5-73.9,15.7-93.5c-1.7-11.6-13.4-14.2-23.2-14.3c-3.8,2.6-17,16.2-27.6,28c-1.9,2.1-5,2.2-7.1,0.4
			c-2-1.9-2.2-5-0.4-7.1c28.2-31.3,31.7-31.3,34-31.3l0.3,0c0.1,0,0.2,0,0.3,0c19.1,0,31.3,8.3,33.5,22.8
			c2.9,19.3,8.8,59.5-17.1,100.3c-25.3,39.8-91,75-93.8,76.5C127.6,253.1,126.8,253.3,126,253.3z M205.1,63.1L205.1,63.1
			C205,63.1,205.1,63.1,205.1,63.1z"/>
	</g>
</g>
</svg>
