<?xml version="1.0" encoding="utf-8"?>
<!-- Generator: Adobe Illustrator 22.1.0, SVG Export Plug-In . SVG Version: 6.00 Build 0)  -->
<svg version="1.1" id="Layer_1" xmlns="http://www.w3.org/2000/svg" xmlns:xlink="http://www.w3.org/1999/xlink" x="0px" y="0px"
	 viewBox="0 0 256 256" style="enable-background:new 0 0 256 256;" xml:space="preserve">
<g>
	<g>
		<rect x="68.7" y="25.6" style="fill:#A5E2FD;" width="13.2" height="16.7"/>
		<rect x="83.1" y="25.6" style="fill:#A5E2FD;" width="13.2" height="16.7"/>
		<rect x="97.4" y="25.6" style="fill:#A5E2FD;" width="13.2" height="16.7"/>
		<rect x="111.8" y="25.6" style="fill:#A5E2FD;" width="13.2" height="16.7"/>
		<rect x="126" y="25.6" style="fill:#A5E2FD;" width="13.2" height="16.7"/>
		<rect x="140.4" y="25.6" style="fill:#A5E2FD;" width="13.2" height="16.7"/>
		<rect x="154.7" y="25.6" style="fill:#A5E2FD;" width="13.2" height="16.7"/>
		<rect x="169.1" y="25.6" style="fill:#A5E2FD;" width="13.2" height="16.7"/>
	</g>
	<g>
		<rect x="68.7" y="49.9" style="fill:#A5E2FD;" width="13.2" height="16.7"/>
		<rect x="83.1" y="49.9" style="fill:#A5E2FD;" width="13.2" height="16.7"/>
		<rect x="97.4" y="49.9" style="fill:#A5E2FD;" width="13.2" height="16.7"/>
		<rect x="111.8" y="49.9" style="fill:#A5E2FD;" width="13.2" height="16.7"/>
		<rect x="126" y="49.9" style="fill:#A5E2FD;" width="13.2" height="16.7"/>
		<rect x="140.4" y="49.9" style="fill:#A5E2FD;" width="13.2" height="16.7"/>
		<rect x="154.7" y="49.9" style="fill:#A5E2FD;" width="13.2" height="16.7"/>
		<rect x="169.1" y="49.9" style="fill:#A5E2FD;" width="13.2" height="16.7"/>
	</g>
	<g>
		<g>
			<rect x="68.7" y="85.5" style="fill:#A5E2FD;" width="13.2" height="16.7"/>
			<rect x="83.1" y="85.5" style="fill:#A5E2FD;" width="13.2" height="16.7"/>
			<rect x="97.4" y="85.5" style="fill:#A5E2FD;" width="13.2" height="16.7"/>
			<rect x="111.8" y="85.5" style="fill:#A5E2FD;" width="13.2" height="16.7"/>
			<rect x="126" y="85.5" style="fill:#A5E2FD;" width="13.2" height="16.7"/>
			<rect x="140.4" y="85.5" style="fill:#A5E2FD;" width="13.2" height="16.7"/>
			<rect x="154.7" y="85.5" style="fill:#A5E2FD;" width="13.2" height="16.7"/>
			<rect x="169.1" y="85.5" style="fill:#A5E2FD;" width="13.2" height="16.7"/>
		</g>
		<g>
			<rect x="68.7" y="109.7" style="fill:#A5E2FD;" width="13.2" height="16.7"/>
			<rect x="83.1" y="109.7" style="fill:#A5E2FD;" width="13.2" height="16.7"/>
			<rect x="97.4" y="109.7" style="fill:#A5E2FD;" width="13.2" height="16.7"/>
			<rect x="111.8" y="109.7" style="fill:#A5E2FD;" width="13.2" height="16.7"/>
			<rect x="126" y="109.7" style="fill:#A5E2FD;" width="13.2" height="16.7"/>
			<rect x="140.4" y="109.7" style="fill:#A5E2FD;" width="13.2" height="16.7"/>
			<rect x="154.7" y="109.7" style="fill:#A5E2FD;" width="13.2" height="16.7"/>
			<rect x="169.1" y="109.7" style="fill:#A5E2FD;" width="13.2" height="16.7"/>
		</g>
	</g>
	<g>
		<g>
			<rect x="68.7" y="144.4" style="fill:#A5E2FD;" width="13.2" height="16.7"/>
			<rect x="83.1" y="144.4" style="fill:#A5E2FD;" width="13.2" height="16.7"/>
			<rect x="97.4" y="144.4" style="fill:#A5E2FD;" width="13.2" height="16.7"/>
			<rect x="111.8" y="144.4" style="fill:#A5E2FD;" width="13.2" height="16.7"/>
			<rect x="126" y="144.4" style="fill:#A5E2FD;" width="13.2" height="16.7"/>
			<rect x="140.4" y="144.4" style="fill:#A5E2FD;" width="13.2" height="16.7"/>
			<rect x="154.7" y="144.4" style="fill:#A5E2FD;" width="13.2" height="16.7"/>
			<rect x="169.1" y="144.4" style="fill:#A5E2FD;" width="13.2" height="16.7"/>
		</g>
		<g>
			<rect x="68.7" y="168.6" style="fill:#A5E2FD;" width="13.2" height="16.7"/>
			<rect x="83.1" y="168.6" style="fill:#A5E2FD;" width="13.2" height="16.7"/>
			<rect x="97.4" y="168.6" style="fill:#A5E2FD;" width="13.2" height="16.7"/>
			<rect x="111.8" y="168.6" style="fill:#A5E2FD;" width="13.2" height="16.7"/>
			<rect x="126" y="168.6" style="fill:#A5E2FD;" width="13.2" height="16.7"/>
			<rect x="140.4" y="168.6" style="fill:#A5E2FD;" width="13.2" height="16.7"/>
			<rect x="154.7" y="168.6" style="fill:#A5E2FD;" width="13.2" height="16.7"/>
			<rect x="169.1" y="168.6" style="fill:#A5E2FD;" width="13.2" height="16.7"/>
		</g>
	</g>
	<rect x="72.7" y="203.8" style="fill:#A5E2FD;" width="20.4" height="45.1"/>
	<rect x="156.9" y="203.8" style="fill:#A5E2FD;" width="20.4" height="45.1"/>
	<g>
		<rect x="114.2" y="207.7" style="fill:#7FD8EF;" width="10.8" height="44.3"/>
		<rect x="126" y="207.7" style="fill:#7FD8EF;" width="10.8" height="44.3"/>
	</g>
	<rect x="64.7" y="193.7" style="opacity:0.2;" width="120.5" height="3"/>
	<rect x="64.7" y="134.5" style="opacity:0.2;" width="120.5" height="3"/>
	<rect x="64.7" y="74.8" style="opacity:0.2;" width="120.5" height="3"/>
	<rect x="64.7" y="12.5" style="opacity:0.2;" width="120.5" height="6.6"/>
	<rect x="64.7" y="248.6" style="opacity:0.2;" width="36.5" height="3.4"/>
	<rect x="149.8" y="248.6" style="opacity:0.2;" width="35.6" height="3.4"/>
	<rect x="58.8" y="4" style="fill:#CE9772;" width="130.4" height="8.3"/>
	<rect x="97.8" y="196.6" style="fill:#E5AE89;" width="54.3" height="7.1"/>
	<g>
		<rect x="101.2" y="203.8" style="fill:#E5AE89;" width="2.8" height="48.2"/>
		<rect x="107.8" y="203.8" style="fill:#E5AE89;" width="2.8" height="48.2"/>
	</g>
	<g>
		<rect x="140.4" y="203.8" style="fill:#E5AE89;" width="2.8" height="48.2"/>
		<rect x="147" y="203.8" style="fill:#E5AE89;" width="2.8" height="48.2"/>
	</g>
</g>
</svg>
