<?xml version="1.0" encoding="utf-8"?>
<!-- Generator: Adobe Illustrator 22.1.0, SVG Export Plug-In . SVG Version: 6.00 Build 0)  -->
<svg version="1.1" id="Layer_1" xmlns="http://www.w3.org/2000/svg" xmlns:xlink="http://www.w3.org/1999/xlink" x="0px" y="0px"
	 viewBox="0 0 256 256" style="enable-background:new 0 0 256 256;" xml:space="preserve">
<g>
	<polygon style="opacity:0.2;" points="241.4,149.3 241.4,183.2 144.2,183.3 144.2,146.3 150.2,149 	"/>
	<polygon style="opacity:0.2;" points="97.5,106.4 66.3,106.4 66.3,109.6 73.5,109.6 73.5,141 90.6,141 90.6,109.6 97.5,109.6 	"/>
	<polygon style="fill:#838984;" points="249.5,147.5 151.5,147.5 128.5,134.5 221.5,134.5 	"/>
	<polygon style="fill:#6F6D69;" points="205.5,104.5 221.5,134.5 128.5,134.5 111.5,104.5 	"/>
	<polygon style="fill:#838984;" points="173.5,86.5 205.5,104.5 111.5,104.5 82.5,86.5 	"/>
	<rect x="62.1" y="146.3" style="fill:#33373D;" width="40.5" height="37"/>
	<rect x="34.9" y="144.1" style="fill:none;stroke:#DEE8E3;stroke-miterlimit:10;" width="93.6" height="2.1"/>
	<rect x="42.5" y="146.3" style="fill:none;stroke:#DEE8E3;stroke-miterlimit:10;" width="19.1" height="37"/>
	<rect x="102.6" y="146.3" style="fill:none;stroke:#DEE8E3;stroke-miterlimit:10;" width="19.1" height="37"/>
	<line style="fill:none;stroke:#DEE8E3;stroke-miterlimit:10;" x1="102.6" y1="146.3" x2="121.7" y2="183.2"/>
	<line style="fill:none;stroke:#DEE8E3;stroke-miterlimit:10;" x1="121.7" y1="146.3" x2="102.6" y2="183.2"/>
	<line style="fill:none;stroke:#DEE8E3;stroke-miterlimit:10;" x1="61.6" y1="183.3" x2="42.5" y2="146.3"/>
	<line style="fill:none;stroke:#DEE8E3;stroke-miterlimit:10;" x1="61.6" y1="146.3" x2="42.5" y2="183.3"/>
	<polygon style="fill:#DEE8E3;" points="249.5,150.5 150.5,150.5 125.5,136.5 109.5,106.5 82.5,90.5 54.5,106.5 37.5,136.5 
		17.8,148 13.5,150.5 11.5,148.5 36.3,134.5 52.8,104.5 82.5,86.5 111.5,104.5 128.5,134.5 151.5,147.5 250.5,147.5 	"/>
	<rect x="152.8" y="160" style="fill:none;stroke:#F9FEFF;stroke-miterlimit:10;" width="6.6" height="11.1"/>
	<line style="fill:none;stroke:#F9FEFF;stroke-miterlimit:10;" x1="152.8" y1="165.5" x2="159.4" y2="165.5"/>
	<line style="fill:none;stroke:#F9FEFF;stroke-miterlimit:10;" x1="156.4" y1="159.8" x2="156.4" y2="171.1"/>
	<rect x="178.6" y="160" style="fill:none;stroke:#F9FEFF;stroke-miterlimit:10;" width="6.6" height="11.1"/>
	<line style="fill:none;stroke:#F9FEFF;stroke-miterlimit:10;" x1="178.6" y1="165.5" x2="185.2" y2="165.5"/>
	<line style="fill:none;stroke:#F9FEFF;stroke-miterlimit:10;" x1="182.1" y1="159.8" x2="182.1" y2="171.1"/>
	<rect x="204.3" y="160" style="fill:none;stroke:#F9FEFF;stroke-miterlimit:10;" width="6.6" height="11.1"/>
	<line style="fill:none;stroke:#F9FEFF;stroke-miterlimit:10;" x1="204.3" y1="165.5" x2="210.9" y2="165.5"/>
	<line style="fill:none;stroke:#F9FEFF;stroke-miterlimit:10;" x1="207.9" y1="159.8" x2="207.9" y2="171.1"/>
	<rect x="230.1" y="160" style="fill:none;stroke:#F9FEFF;stroke-miterlimit:10;" width="6.6" height="11.1"/>
	<line style="fill:none;stroke:#F9FEFF;stroke-miterlimit:10;" x1="230.1" y1="165.5" x2="236.7" y2="165.5"/>
	<line style="fill:none;stroke:#F9FEFF;stroke-miterlimit:10;" x1="233.6" y1="159.8" x2="233.6" y2="171.1"/>
</g>
</svg>
