<?xml version="1.0" encoding="utf-8"?>
<!-- Generator: Adobe Illustrator 22.1.0, SVG Export Plug-In . SVG Version: 6.00 Build 0)  -->
<svg version="1.1" id="Layer_1" xmlns="http://www.w3.org/2000/svg" xmlns:xlink="http://www.w3.org/1999/xlink" x="0px" y="0px"
	 viewBox="0 0 256 256" style="enable-background:new 0 0 256 256;" xml:space="preserve">
<g>
	<polygon style="fill:#AF7751;" points="10.9,22.3 14.3,22.3 14.3,22.5 14.3,28.3 14.3,77.7 14.3,80.4 14.3,130.6 14.3,133.3 
		14.3,183.1 14.3,185.7 14.3,231.8 14.3,234.8 35,234.8 62.6,234.8 82.8,234.8 82.8,234.8 82.8,231.8 82.8,231.8 82.8,185.7 
		82.8,183.1 82.8,133.3 82.8,130.6 82.8,80.4 82.8,77.7 82.8,28.3 82.8,22.5 82.8,22.3 85,22.3 85,15 10.9,15 	"/>
	<polygon style="fill:#AF7751;" points="88.9,22.3 92.3,22.3 92.3,22.5 92.3,28.3 92.3,77.7 92.3,80.4 92.3,130.6 92.3,133.3 
		92.3,183.1 92.3,185.7 92.3,231.8 92.3,234.8 113,234.8 140.6,234.8 160.8,234.8 160.8,234.8 160.8,231.8 160.8,231.8 160.8,185.7 
		160.8,183.1 160.8,133.3 160.8,130.6 160.8,80.4 160.8,77.7 160.8,28.3 160.8,22.5 160.8,22.3 163,22.3 163,15 88.9,15 	"/>
	<polygon style="fill:#AF7751;" points="238.8,183.1 238.8,133.3 238.8,130.6 238.8,80.4 238.8,77.7 238.8,28.3 238.8,22.5 
		238.8,22.3 241,22.3 241,15 166.9,15 166.9,22.3 170.3,22.3 170.3,22.5 170.3,28.3 170.3,77.7 170.3,80.4 170.3,130.6 170.3,133.3 
		170.3,183.1 170.3,185.7 170.3,231.8 170.3,234.8 191,234.8 218.6,234.8 238.8,234.8 238.8,234.8 238.8,231.8 238.8,231.8 
		238.8,185.7 	"/>
</g>
</svg>
