<?xml version="1.0" encoding="utf-8"?>
<!-- Generator: Adobe Illustrator 22.1.0, SVG Export Plug-In . SVG Version: 6.00 Build 0)  -->
<svg version="1.1" id="Layer_1" xmlns="http://www.w3.org/2000/svg" xmlns:xlink="http://www.w3.org/1999/xlink" x="0px" y="0px"
	 viewBox="0 0 256 256" style="enable-background:new 0 0 256 256;" xml:space="preserve">
<g>
	<rect x="16.6" y="34.1" style="fill:#A5E2FD;" width="7.5" height="14.8"/>
	<rect x="24.7" y="34.1" style="fill:#A5E2FD;" width="7.5" height="14.8"/>
	<rect x="32.9" y="34.1" style="fill:#A5E2FD;" width="7.5" height="14.8"/>
	<rect x="41" y="34.1" style="fill:#A5E2FD;" width="7.5" height="14.8"/>
	<rect x="49.1" y="34.1" style="fill:#A5E2FD;" width="7.5" height="14.8"/>
	<rect x="57.3" y="34.1" style="fill:#A5E2FD;" width="7.5" height="14.8"/>
	<rect x="65.4" y="34.1" style="fill:#A5E2FD;" width="7.5" height="14.8"/>
	<rect x="73.6" y="34.1" style="fill:#A5E2FD;" width="7.5" height="14.8"/>
	<rect x="16.6" y="55.6" style="fill:#A5E2FD;" width="7.5" height="14.8"/>
	<rect x="24.7" y="55.6" style="fill:#A5E2FD;" width="7.5" height="14.8"/>
	<rect x="32.9" y="55.6" style="fill:#A5E2FD;" width="7.5" height="14.8"/>
	<rect x="41" y="55.6" style="fill:#A5E2FD;" width="7.5" height="14.8"/>
	<rect x="49.1" y="55.6" style="fill:#A5E2FD;" width="7.5" height="14.8"/>
	<rect x="57.3" y="55.6" style="fill:#A5E2FD;" width="7.5" height="14.8"/>
	<rect x="65.4" y="55.6" style="fill:#A5E2FD;" width="7.5" height="14.8"/>
	<rect x="73.6" y="55.6" style="fill:#A5E2FD;" width="7.5" height="14.8"/>
	<rect x="16.6" y="87.2" style="fill:#A5E2FD;" width="7.5" height="14.8"/>
	<rect x="24.7" y="87.2" style="fill:#A5E2FD;" width="7.5" height="14.8"/>
	<rect x="32.9" y="87.2" style="fill:#A5E2FD;" width="7.5" height="14.8"/>
	<rect x="41" y="87.2" style="fill:#A5E2FD;" width="7.5" height="14.8"/>
	<rect x="49.1" y="87.2" style="fill:#A5E2FD;" width="7.5" height="14.8"/>
	<rect x="57.3" y="87.2" style="fill:#A5E2FD;" width="7.5" height="14.8"/>
	<rect x="65.4" y="87.2" style="fill:#A5E2FD;" width="7.5" height="14.8"/>
	<rect x="73.6" y="87.2" style="fill:#A5E2FD;" width="7.5" height="14.8"/>
	<rect x="16.6" y="108.7" style="fill:#A5E2FD;" width="7.5" height="14.8"/>
	<rect x="24.7" y="108.7" style="fill:#A5E2FD;" width="7.5" height="14.8"/>
	<rect x="32.9" y="108.7" style="fill:#A5E2FD;" width="7.5" height="14.8"/>
	<rect x="41" y="108.7" style="fill:#A5E2FD;" width="7.5" height="14.8"/>
	<rect x="49.1" y="108.7" style="fill:#A5E2FD;" width="7.5" height="14.8"/>
	<rect x="57.3" y="108.7" style="fill:#A5E2FD;" width="7.5" height="14.8"/>
	<rect x="65.4" y="108.7" style="fill:#A5E2FD;" width="7.5" height="14.8"/>
	<rect x="73.6" y="108.7" style="fill:#A5E2FD;" width="7.5" height="14.8"/>
	<rect x="16.6" y="139.4" style="fill:#A5E2FD;" width="7.5" height="14.8"/>
	<rect x="24.7" y="139.4" style="fill:#A5E2FD;" width="7.5" height="14.8"/>
	<rect x="32.9" y="139.4" style="fill:#A5E2FD;" width="7.5" height="14.8"/>
	<rect x="41" y="139.4" style="fill:#A5E2FD;" width="7.5" height="14.8"/>
	<rect x="49.1" y="139.4" style="fill:#A5E2FD;" width="7.5" height="14.8"/>
	<rect x="57.3" y="139.4" style="fill:#A5E2FD;" width="7.5" height="14.8"/>
	<rect x="65.4" y="139.4" style="fill:#A5E2FD;" width="7.5" height="14.8"/>
	<rect x="73.6" y="139.4" style="fill:#A5E2FD;" width="7.5" height="14.8"/>
	<rect x="16.6" y="160.9" style="fill:#A5E2FD;" width="7.5" height="14.8"/>
	<rect x="24.7" y="160.9" style="fill:#A5E2FD;" width="7.5" height="14.8"/>
	<rect x="32.9" y="160.9" style="fill:#A5E2FD;" width="7.5" height="14.8"/>
	<rect x="41" y="160.9" style="fill:#A5E2FD;" width="7.5" height="14.8"/>
	<rect x="49.1" y="160.9" style="fill:#A5E2FD;" width="7.5" height="14.8"/>
	<rect x="57.3" y="160.9" style="fill:#A5E2FD;" width="7.5" height="14.8"/>
	<rect x="65.4" y="160.9" style="fill:#A5E2FD;" width="7.5" height="14.8"/>
	<rect x="73.6" y="160.9" style="fill:#A5E2FD;" width="7.5" height="14.8"/>
	<rect x="36.6" y="192" style="fill:#BC845E;" width="24.4" height="42.8"/>
	<rect x="35" y="192" style="fill:#E5AE89;" width="1.6" height="42.8"/>
	<rect x="38.8" y="192" style="fill:#E5AE89;" width="1.6" height="42.8"/>
	<rect x="57.3" y="192" style="fill:#E5AE89;" width="1.6" height="42.8"/>
	<rect x="61" y="192" style="fill:#E5AE89;" width="1.6" height="42.8"/>
	<rect x="18.8" y="192" style="fill:#A5E2FD;" width="11.6" height="39.6"/>
	<rect x="66.7" y="192" style="fill:#A5E2FD;" width="11.6" height="39.6"/>
	<rect x="42.4" y="195.5" style="fill:#7FD8EF;" width="6.2" height="39.3"/>
	<rect x="49.1" y="195.5" style="fill:#7FD8EF;" width="6.2" height="39.3"/>
	<rect x="94.6" y="34.1" style="fill:#A5E2FD;" width="7.5" height="14.8"/>
	<rect x="102.7" y="34.1" style="fill:#A5E2FD;" width="7.5" height="14.8"/>
	<rect x="110.9" y="34.1" style="fill:#A5E2FD;" width="7.5" height="14.8"/>
	<rect x="119" y="34.1" style="fill:#A5E2FD;" width="7.5" height="14.8"/>
	<rect x="127.1" y="34.1" style="fill:#A5E2FD;" width="7.5" height="14.8"/>
	<rect x="135.3" y="34.1" style="fill:#A5E2FD;" width="7.5" height="14.8"/>
	<rect x="143.4" y="34.1" style="fill:#A5E2FD;" width="7.5" height="14.8"/>
	<rect x="151.6" y="34.1" style="fill:#A5E2FD;" width="7.5" height="14.8"/>
	<rect x="94.6" y="55.6" style="fill:#A5E2FD;" width="7.5" height="14.8"/>
	<rect x="102.7" y="55.6" style="fill:#A5E2FD;" width="7.5" height="14.8"/>
	<rect x="110.9" y="55.6" style="fill:#A5E2FD;" width="7.5" height="14.8"/>
	<rect x="119" y="55.6" style="fill:#A5E2FD;" width="7.5" height="14.8"/>
	<rect x="127.1" y="55.6" style="fill:#A5E2FD;" width="7.5" height="14.8"/>
	<rect x="135.3" y="55.6" style="fill:#A5E2FD;" width="7.5" height="14.8"/>
	<rect x="143.4" y="55.6" style="fill:#A5E2FD;" width="7.5" height="14.8"/>
	<rect x="151.6" y="55.6" style="fill:#A5E2FD;" width="7.5" height="14.8"/>
	<rect x="94.6" y="87.2" style="fill:#A5E2FD;" width="7.5" height="14.8"/>
	<rect x="102.7" y="87.2" style="fill:#A5E2FD;" width="7.5" height="14.8"/>
	<rect x="110.9" y="87.2" style="fill:#A5E2FD;" width="7.5" height="14.8"/>
	<rect x="119" y="87.2" style="fill:#A5E2FD;" width="7.5" height="14.8"/>
	<rect x="127.1" y="87.2" style="fill:#A5E2FD;" width="7.5" height="14.8"/>
	<rect x="135.3" y="87.2" style="fill:#A5E2FD;" width="7.5" height="14.8"/>
	<rect x="143.4" y="87.2" style="fill:#A5E2FD;" width="7.5" height="14.8"/>
	<rect x="151.6" y="87.2" style="fill:#A5E2FD;" width="7.5" height="14.8"/>
	<rect x="94.6" y="108.7" style="fill:#A5E2FD;" width="7.5" height="14.8"/>
	<rect x="102.7" y="108.7" style="fill:#A5E2FD;" width="7.5" height="14.8"/>
	<rect x="110.9" y="108.7" style="fill:#A5E2FD;" width="7.5" height="14.8"/>
	<rect x="119" y="108.7" style="fill:#A5E2FD;" width="7.5" height="14.8"/>
	<rect x="127.1" y="108.7" style="fill:#A5E2FD;" width="7.5" height="14.8"/>
	<rect x="135.3" y="108.7" style="fill:#A5E2FD;" width="7.5" height="14.8"/>
	<rect x="143.4" y="108.7" style="fill:#A5E2FD;" width="7.5" height="14.8"/>
	<rect x="151.6" y="108.7" style="fill:#A5E2FD;" width="7.5" height="14.8"/>
	<rect x="94.6" y="139.4" style="fill:#A5E2FD;" width="7.5" height="14.8"/>
	<rect x="102.7" y="139.4" style="fill:#A5E2FD;" width="7.5" height="14.8"/>
	<rect x="110.9" y="139.4" style="fill:#A5E2FD;" width="7.5" height="14.8"/>
	<rect x="119" y="139.4" style="fill:#A5E2FD;" width="7.5" height="14.8"/>
	<rect x="127.1" y="139.4" style="fill:#A5E2FD;" width="7.5" height="14.8"/>
	<rect x="135.3" y="139.4" style="fill:#A5E2FD;" width="7.5" height="14.8"/>
	<rect x="143.4" y="139.4" style="fill:#A5E2FD;" width="7.5" height="14.8"/>
	<rect x="151.6" y="139.4" style="fill:#A5E2FD;" width="7.5" height="14.8"/>
	<rect x="94.6" y="160.9" style="fill:#A5E2FD;" width="7.5" height="14.8"/>
	<rect x="102.7" y="160.9" style="fill:#A5E2FD;" width="7.5" height="14.8"/>
	<rect x="110.9" y="160.9" style="fill:#A5E2FD;" width="7.5" height="14.8"/>
	<rect x="119" y="160.9" style="fill:#A5E2FD;" width="7.5" height="14.8"/>
	<rect x="127.1" y="160.9" style="fill:#A5E2FD;" width="7.5" height="14.8"/>
	<rect x="135.3" y="160.9" style="fill:#A5E2FD;" width="7.5" height="14.8"/>
	<rect x="143.4" y="160.9" style="fill:#A5E2FD;" width="7.5" height="14.8"/>
	<rect x="151.6" y="160.9" style="fill:#A5E2FD;" width="7.5" height="14.8"/>
	<rect x="114.6" y="192" style="fill:#BC845E;" width="24.4" height="42.8"/>
	<rect x="113" y="192" style="fill:#E5AE89;" width="1.6" height="42.8"/>
	<rect x="116.8" y="192" style="fill:#E5AE89;" width="1.6" height="42.8"/>
	<rect x="135.3" y="192" style="fill:#E5AE89;" width="1.6" height="42.8"/>
	<rect x="139" y="192" style="fill:#E5AE89;" width="1.6" height="42.8"/>
	<rect x="96.8" y="192" style="fill:#A5E2FD;" width="11.6" height="39.6"/>
	<rect x="144.7" y="192" style="fill:#A5E2FD;" width="11.6" height="39.6"/>
	<rect x="120.4" y="195.5" style="fill:#7FD8EF;" width="6.2" height="39.3"/>
	<rect x="127.1" y="195.5" style="fill:#7FD8EF;" width="6.2" height="39.3"/>
	<rect x="172.6" y="34.1" style="fill:#A5E2FD;" width="7.5" height="14.8"/>
	<rect x="180.7" y="34.1" style="fill:#A5E2FD;" width="7.5" height="14.8"/>
	<rect x="188.9" y="34.1" style="fill:#A5E2FD;" width="7.5" height="14.8"/>
	<rect x="197" y="34.1" style="fill:#A5E2FD;" width="7.5" height="14.8"/>
	<rect x="205.1" y="34.1" style="fill:#A5E2FD;" width="7.5" height="14.8"/>
	<rect x="213.3" y="34.1" style="fill:#A5E2FD;" width="7.5" height="14.8"/>
	<rect x="221.4" y="34.1" style="fill:#A5E2FD;" width="7.5" height="14.8"/>
	<rect x="229.6" y="34.1" style="fill:#A5E2FD;" width="7.5" height="14.8"/>
	<rect x="172.6" y="55.6" style="fill:#A5E2FD;" width="7.5" height="14.8"/>
	<rect x="180.7" y="55.6" style="fill:#A5E2FD;" width="7.5" height="14.8"/>
	<rect x="188.9" y="55.6" style="fill:#A5E2FD;" width="7.5" height="14.8"/>
	<rect x="197" y="55.6" style="fill:#A5E2FD;" width="7.5" height="14.8"/>
	<rect x="205.1" y="55.6" style="fill:#A5E2FD;" width="7.5" height="14.8"/>
	<rect x="213.3" y="55.6" style="fill:#A5E2FD;" width="7.5" height="14.8"/>
	<rect x="221.4" y="55.6" style="fill:#A5E2FD;" width="7.5" height="14.8"/>
	<rect x="229.6" y="55.6" style="fill:#A5E2FD;" width="7.5" height="14.8"/>
	<rect x="172.6" y="87.2" style="fill:#A5E2FD;" width="7.5" height="14.8"/>
	<rect x="180.7" y="87.2" style="fill:#A5E2FD;" width="7.5" height="14.8"/>
	<rect x="188.9" y="87.2" style="fill:#A5E2FD;" width="7.5" height="14.8"/>
	<rect x="197" y="87.2" style="fill:#A5E2FD;" width="7.5" height="14.8"/>
	<rect x="205.1" y="87.2" style="fill:#A5E2FD;" width="7.5" height="14.8"/>
	<rect x="213.3" y="87.2" style="fill:#A5E2FD;" width="7.5" height="14.8"/>
	<rect x="221.4" y="87.2" style="fill:#A5E2FD;" width="7.5" height="14.8"/>
	<rect x="229.6" y="87.2" style="fill:#A5E2FD;" width="7.5" height="14.8"/>
	<rect x="172.6" y="108.7" style="fill:#A5E2FD;" width="7.5" height="14.8"/>
	<rect x="180.7" y="108.7" style="fill:#A5E2FD;" width="7.5" height="14.8"/>
	<rect x="188.9" y="108.7" style="fill:#A5E2FD;" width="7.5" height="14.8"/>
	<rect x="197" y="108.7" style="fill:#A5E2FD;" width="7.5" height="14.8"/>
	<rect x="205.1" y="108.7" style="fill:#A5E2FD;" width="7.5" height="14.8"/>
	<rect x="213.3" y="108.7" style="fill:#A5E2FD;" width="7.5" height="14.8"/>
	<rect x="221.4" y="108.7" style="fill:#A5E2FD;" width="7.5" height="14.8"/>
	<rect x="229.6" y="108.7" style="fill:#A5E2FD;" width="7.5" height="14.8"/>
	<rect x="172.6" y="139.4" style="fill:#A5E2FD;" width="7.5" height="14.8"/>
	<rect x="180.7" y="139.4" style="fill:#A5E2FD;" width="7.5" height="14.8"/>
	<rect x="188.9" y="139.4" style="fill:#A5E2FD;" width="7.5" height="14.8"/>
	<rect x="197" y="139.4" style="fill:#A5E2FD;" width="7.5" height="14.8"/>
	<rect x="205.1" y="139.4" style="fill:#A5E2FD;" width="7.5" height="14.8"/>
	<rect x="213.3" y="139.4" style="fill:#A5E2FD;" width="7.5" height="14.8"/>
	<rect x="221.4" y="139.4" style="fill:#A5E2FD;" width="7.5" height="14.8"/>
	<rect x="229.6" y="139.4" style="fill:#A5E2FD;" width="7.5" height="14.8"/>
	<rect x="172.6" y="160.9" style="fill:#A5E2FD;" width="7.5" height="14.8"/>
	<rect x="180.7" y="160.9" style="fill:#A5E2FD;" width="7.5" height="14.8"/>
	<rect x="188.9" y="160.9" style="fill:#A5E2FD;" width="7.5" height="14.8"/>
	<rect x="197" y="160.9" style="fill:#A5E2FD;" width="7.5" height="14.8"/>
	<rect x="205.1" y="160.9" style="fill:#A5E2FD;" width="7.5" height="14.8"/>
	<rect x="213.3" y="160.9" style="fill:#A5E2FD;" width="7.5" height="14.8"/>
	<rect x="221.4" y="160.9" style="fill:#A5E2FD;" width="7.5" height="14.8"/>
	<rect x="229.6" y="160.9" style="fill:#A5E2FD;" width="7.5" height="14.8"/>
	<rect x="192.6" y="192" style="fill:#BC845E;" width="24.4" height="42.8"/>
	<rect x="191" y="192" style="fill:#E5AE89;" width="1.6" height="42.8"/>
	<rect x="194.8" y="192" style="fill:#E5AE89;" width="1.6" height="42.8"/>
	<rect x="213.3" y="192" style="fill:#E5AE89;" width="1.6" height="42.8"/>
	<rect x="217" y="192" style="fill:#E5AE89;" width="1.6" height="42.8"/>
	<rect x="174.8" y="192" style="fill:#A5E2FD;" width="11.6" height="39.6"/>
	<rect x="222.7" y="192" style="fill:#A5E2FD;" width="11.6" height="39.6"/>
	<rect x="198.4" y="195.5" style="fill:#7FD8EF;" width="6.2" height="39.3"/>
	<rect x="205.1" y="195.5" style="fill:#7FD8EF;" width="6.2" height="39.3"/>
	<rect x="3" y="235" style="fill:#8CC63F;" width="249" height="6"/>
	<rect x="218.6" y="231.8" style="opacity:0.2;" width="20.2" height="3"/>
	<rect x="14.3" y="183.1" style="opacity:0.2;" width="68.5" height="2.6"/>
	<rect x="14.3" y="130.6" style="opacity:0.2;" width="68.5" height="2.6"/>
	<rect x="14.3" y="77.7" style="opacity:0.2;" width="68.5" height="2.6"/>
	<rect x="14.3" y="22.5" style="opacity:0.2;" width="68.5" height="5.8"/>
	<rect x="10.9" y="15" style="opacity:0.1;" width="74.1" height="7.3"/>
	<rect x="33.1" y="185.7" style="opacity:0.1;" width="30.9" height="6.3"/>
	<rect x="14.3" y="231.8" style="opacity:0.2;" width="20.7" height="3"/>
	<rect x="62.6" y="231.8" style="opacity:0.2;" width="20.2" height="3"/>
	<rect x="92.3" y="183.1" style="opacity:0.2;" width="68.5" height="2.6"/>
	<rect x="92.3" y="130.6" style="opacity:0.2;" width="68.5" height="2.6"/>
	<rect x="92.3" y="77.7" style="opacity:0.2;" width="68.5" height="2.6"/>
	<rect x="92.3" y="22.5" style="opacity:0.2;" width="68.5" height="5.8"/>
	<rect x="88.9" y="15" style="opacity:0.1;" width="74.1" height="7.3"/>
	<rect x="111.1" y="185.7" style="opacity:0.1;" width="30.9" height="6.3"/>
	<rect x="92.3" y="231.8" style="opacity:0.2;" width="20.7" height="3"/>
	<rect x="140.6" y="231.8" style="opacity:0.2;" width="20.2" height="3"/>
	<rect x="170.3" y="183.1" style="opacity:0.2;" width="68.5" height="2.6"/>
	<rect x="170.3" y="130.6" style="opacity:0.2;" width="68.5" height="2.6"/>
	<rect x="170.3" y="77.7" style="opacity:0.2;" width="68.5" height="2.6"/>
	<rect x="170.3" y="22.5" style="opacity:0.2;" width="68.5" height="5.8"/>
	<rect x="166.9" y="15" style="opacity:0.1;" width="74.1" height="7.3"/>
	<rect x="189.1" y="185.7" style="opacity:0.1;" width="30.9" height="6.3"/>
	<rect x="170.3" y="231.8" style="opacity:0.2;" width="20.7" height="3"/>
</g>
</svg>
