<?xml version="1.0" encoding="utf-8"?>
<!-- Generator: Adobe Illustrator 22.1.0, SVG Export Plug-In . SVG Version: 6.00 Build 0)  -->
<svg version="1.1" id="Layer_1" xmlns="http://www.w3.org/2000/svg" xmlns:xlink="http://www.w3.org/1999/xlink" x="0px" y="0px"
	 viewBox="0 0 256 256" style="enable-background:new 0 0 256 256;" xml:space="preserve">
<g>
	<g>
		<polygon style="fill:#FFE48D;" points="215.9,122 208.8,202.9 123.6,220.1 125.2,127 		"/>
		<polygon style="fill:#EFD895;" points="125.2,127 48,124 58.9,210.2 123.6,220.1 		"/>
		<path style="fill:#FFE48D;" d="M110.5,143.1l-6,51l-20.8,6.2l-5.5-43.1l-7.2,3.1l6.4,66.2l32.1-8.5l6.1-77.1L110.5,143.1z
			 M89.8,219.2l-3.2,0.9l-1.8-15.6h5.1V219.2z M97.7,216.2l-4.5,1.9v-15.4l4.5-0.9V216.2z M104.1,214.3l-3.4,2.3v-14.9l3.4-2.1
			V214.3z"/>
		<path style="fill:#FFE48D;" d="M65.7,161.3h-4.3l0.2,26.4l-17.1,6l-4.2-34.1h-7.3l7.9,59.5l27.9-7.5L65.7,161.3z M47.4,212.4
			l-1.6-13.8H49l1.8,13.8H47.4z M53.7,211l-0.7-12.4h4.5l0.3,11.3L53.7,211z M63.2,209.1l-2.4,0.8l-1.9-13.2l4.3-0.6V209.1z"/>
		<polygon style="fill:#FFE48D;" points="48.6,212.4 47.5,198.6 49,198.6 50.8,212.4 		"/>
		<polygon style="fill:#FFE48D;" points="55.5,210.5 55.7,198.6 57.4,198.6 57.8,209.9 		"/>
		<polygon style="fill:#FFE48D;" points="61.9,209.6 61.6,196.4 63.2,196.2 63.2,209.1 		"/>
		<polygon style="fill:#FFE48D;" points="101.9,201 101.9,215.8 104.1,214.3 104.1,199.7 		"/>
		<polygon style="fill:#FFE48D;" points="94.2,217.6 94.6,202.4 97.7,201.8 97.7,216.2 		"/>
		<polygon style="fill:#FFE48D;" points="88.5,219.6 88,204.6 89.8,204.6 89.8,219.2 		"/>
		<polygon style="fill:#FFE48D;" points="70.9,160.3 65.7,161.3 72.4,225.1 77.3,226.5 		"/>
		<polygon style="fill:#FFE48D;" points="32.9,158.5 28.6,157.9 37.8,219.2 40.7,219.2 		"/>
	</g>
</g>
</svg>
