<?xml version="1.0" encoding="utf-8"?>
<!-- Generator: Adobe Illustrator 22.1.0, SVG Export Plug-In . SVG Version: 6.00 Build 0)  -->
<svg version="1.1" id="Layer_1" xmlns="http://www.w3.org/2000/svg" xmlns:xlink="http://www.w3.org/1999/xlink" x="0px" y="0px"
	 viewBox="0 0 256 256" style="enable-background:new 0 0 256 256;" xml:space="preserve">
<g>
	<g>
		<polygon style="opacity:0.5;" points="48.6,212.4 47.5,198.6 49,198.6 50.8,212.4 		"/>
		<polygon style="opacity:0.5;" points="55.5,210.5 55.7,198.6 57.4,198.6 57.8,209.9 		"/>
		<polygon style="opacity:0.5;" points="61.9,209.6 61.6,196.4 63.2,196.2 63.2,209.1 		"/>
		<polygon style="opacity:0.5;" points="101.9,201 101.9,215.8 104.1,214.3 104.1,199.7 		"/>
		<polygon style="opacity:0.5;" points="94.2,217.6 94.6,202.4 97.7,201.8 97.7,216.2 		"/>
		<polygon style="opacity:0.5;" points="88.5,219.6 88,204.6 89.8,204.6 89.8,219.2 		"/>
		<polygon style="opacity:0.5;" points="70.9,160.3 65.7,161.3 72.4,225.1 77.3,226.5 		"/>
		<polygon style="opacity:0.5;" points="32.9,158.5 28.6,157.9 37.8,219.2 40.7,219.2 		"/>
	</g>
	<polygon style="fill:#F09048;" points="121.7,138.3 121.7,133.9 67.9,157.2 68.7,161.3 	"/>
	<polygon style="fill:#BC7432;" points="65.3,132.4 20.1,154.4 67.9,157.2 121.7,133.9 	"/>
	<polygon style="fill:#B05A26;" points="68.7,161.3 20.1,158.5 20.1,154.4 67.9,157.2 	"/>
	<polygon style="fill:#EB9244;" points="233.2,127.9 132,47 27.4,127.9 135.5,131.9 	"/>
	<polygon style="fill:#BE7330;" points="132,47 135.5,131.9 27.4,127.9 	"/>
	<polygon style="fill:#F28D40;" points="165.3,152.3 135.9,153.6 135.4,191.8 165.3,190.3 	"/>
	<polygon style="fill:#91D2CB;" points="150.4,157.2 141.5,157.9 142.3,171 150.4,169.9 	"/>
	<polygon style="fill:#91D2CB;" points="154.7,156.1 154.7,169.7 160.1,169.7 161,156.1 	"/>
	<polygon style="fill:#91D2CB;" points="142.3,174.6 149.2,174.6 149.2,187 142.3,187.7 	"/>
	<path style="fill:#91D2CB;" d="M153.9,174.6v11.6c0,0,6.2,0.4,6.2,0c0-0.4,0-12.4,0-12.4L153.9,174.6z"/>
	<polygon style="fill:#F28D40;" points="175.6,149.9 175.6,187.7 202.8,186.4 202.8,149.9 	"/>
	<polygon style="fill:#91D2CB;" points="181.6,156.1 181.6,167.3 189.2,167.3 189.2,155.3 	"/>
	<polygon style="fill:#91D2CB;" points="193.8,154.4 198.9,154.4 198.9,167.3 193.8,166.5 	"/>
	<rect x="181.6" y="172.1" style="fill:#91D2CB;" width="6.7" height="11.9"/>
	<rect x="192.9" y="171" style="fill:#91D2CB;" width="6" height="12.2"/>
	<path style="fill:#BC7535;" d="M83.6,200.3l-5.5-43c1.2-0.7,22.5,0.6,22.5,0.6l-0.9,37l0,0.6L83.6,200.3z"/>
	<polygon style="fill:#BC7535;" points="94.3,215.6 93.2,215.5 93.2,202.7 94.6,202.4 	"/>
	<polygon style="fill:#BC7535;" points="88.3,214.7 85.9,214.4 84.8,204.6 88,204.6 	"/>
</g>
</svg>
