<?xml version="1.0" encoding="utf-8"?>
<!-- Generator: Adobe Illustrator 22.1.0, SVG Export Plug-In . SVG Version: 6.00 Build 0)  -->
<svg version="1.1" id="Layer_1" xmlns="http://www.w3.org/2000/svg" xmlns:xlink="http://www.w3.org/1999/xlink" x="0px" y="0px"
	 viewBox="0 0 256 256" style="enable-background:new 0 0 256 256;" xml:space="preserve">
<g>
	<g id="XMLID_403_">
		<rect id="XMLID_404_" x="236.8" y="143" style="fill:#2C2B33;" width="12.5" height="8.1"/>
		<rect id="XMLID_405_" x="235" y="146.3" style="fill:#141414;" width="1.8" height="1.6"/>
		<path id="XMLID_406_" style="fill:#2C2B33;" d="M241.1,151.1c0,0-0.9,11.6,9.9,11.4v2.5c0,0-12,0.8-12.2-13.9L241.1,151.1
			L241.1,151.1z"/>
	</g>
	<path id="XMLID_411_" style="opacity:0.7;fill:#FFFFFF;enable-background:new    ;" d="M83.4,85.9H64.5c-4.5,0-8.2,3.5-8.2,7.9
		v54.3v1c0,4.3,3.7,7.9,8.2,7.9h18.9c4.5,0,8.2-3.5,8.2-7.9v-1V93.8C91.6,89.5,87.9,85.9,83.4,85.9z"/>
	<path style="fill:#FFFFFF;" d="M82.7,87.2H65.2c-4.2,0-7.6,3.4-7.6,7.6v52.3v0.9c0,4.2,3.4,7.6,7.6,7.6h17.5c4.2,0,7.6-3.4,7.6-7.6
		v-0.9V94.8C90.3,90.6,86.9,87.2,82.7,87.2z"/>
	<circle id="XMLID_415_" cx="119.2" cy="164.7" r="15.1"/>
	<rect id="XMLID_418_" x="19.4" y="101.5" style="fill:#FFFFFF;" width="24.2" height="18.5"/>
	<rect id="XMLID_419_" x="181.7" y="101.5" style="fill:#FFFFFF;" width="24.2" height="18.5"/>
	<path id="XMLID_422_" style="fill:#412933;" d="M61.7,134.3L61.7,134.3c-0.5,0-1-0.4-1-1v-5.7c0-0.5,0.4-1,1-1l0,0c0.5,0,1,0.4,1,1
		v5.7C62.6,133.9,62.2,134.3,61.7,134.3z"/>
	<path id="XMLID_423_" style="fill:none;" d="M113.8,147.1C113.7,147.1,113.7,147.1,113.8,147.1c4.3,0,8.6,0,13,0
		c-0.6-0.1-1.3-0.2-2-0.2L113.8,147.1z"/>
	<path id="XMLID_424_" style="fill:#D9BB88;" d="M236.4,142.6c-0.2,2.7-1,5.7-2.8,8.5C235.2,148.8,236.3,146,236.4,142.6z"/>
	
		<line id="XMLID_430_" style="fill:none;stroke:#FFFFFF;stroke-width:6;stroke-miterlimit:10;" x1="115.6" y1="117.2" x2="131.1" y2="117.2"/>
	
		<line id="XMLID_431_" style="fill:none;stroke:#FFFFFF;stroke-width:6;stroke-miterlimit:10;" x1="115.6" y1="131.7" x2="131.1" y2="131.7"/>
	<path id="XMLID_1106_" style="fill:#F04E2C;" d="M206.3,140.6h-7.7c-1.1,0-2-0.9-2-2l0,0c0-1.1,0.9-2,2-2h7.7c1.1,0,2,0.9,2,2l0,0
		C208.3,139.7,207.4,140.6,206.3,140.6z"/>
	<path id="XMLID_1110_" style="fill:#F04E2C;" d="M29.4,140.6h-7.7c-1.1,0-2-0.9-2-2l0,0c0-1.1,0.9-2,2-2h7.7c1.1,0,2,0.9,2,2l0,0
		C31.4,139.7,30.5,140.6,29.4,140.6z"/>
	<circle id="XMLID_432_" style="fill:#3D3A48;" cx="119.2" cy="164.7" r="6.6"/>
	<g>
		<path style="fill:#8E8D8D;" d="M91.6,93.8v1.8h135.2l-0.7-2.5H91.5C91.6,93.4,91.6,93.6,91.6,93.8z"/>
		<path style="fill:#8E8D8D;" d="M56.3,93.8c0-0.2,0-0.4,0-0.7H7.8l-0.5,2.5h49.1V93.8z"/>
	</g>
	<path style="opacity:0.2;" d="M11.7,156.1c-3.8-6.9-4-12.8-5.1-19.1c0,0.2,2.1,9.5,10.4,9.9c2.3,0.1,18.3,0.2,40.5,0.2v0.9
		c0,4.2,3.4,7.6,7.6,7.6h10.2l9.2-0.3c3.3-0.8,5.7-3.8,5.7-7.3v-0.9c7.6,0,15.5,0,23.4,0c-3.6,0.1-6.9,2.2-8.6,5.4l-1.2,2.4l-3.1,6
		c-0.7,1.3-2,2.1-3.4,2.1c-34.7,0-84.8-6.2-84.8-6.2L11.7,156.1"/>
	<path style="opacity:0.2;" d="M236.4,139.6c-0.2-1.6-0.4-3.4-0.7-5.3c-1.2,12.9-12.6,12.6-12.6,12.6s-47.2,0.1-96.4,0.2
		c3.3,0.6,6.1,2.8,7.4,6l1.6,3.8h0l1.7,4.1c0.6,1.5,2.1,2.5,3.7,2.4l75.5-2.3c0,0,5.6-0.9,10.9-4.2h0c2.3-1.4,4.5-3.3,6.2-5.8
		c1.8-2.8,2.5-5.8,2.8-8.5C236.5,141.7,236.5,140.7,236.4,139.6z"/>
</g>
</svg>
