<?xml version="1.0" encoding="utf-8"?>
<!-- Generator: Adobe Illustrator 22.1.0, SVG Export Plug-In . SVG Version: 6.00 Build 0)  -->
<svg version="1.1" id="Layer_1" xmlns="http://www.w3.org/2000/svg" xmlns:xlink="http://www.w3.org/1999/xlink" x="0px" y="0px"
	 viewBox="0 0 256 256" style="enable-background:new 0 0 256 256;" xml:space="preserve">
<path style="fill:#6D6D6D;" d="M236.4,139.6c-0.2-1.6-0.4-3.4-0.7-5.3c0,0.4-0.1,0.8-0.2,1.1c0.1-0.4,0.1-0.7,0.1-1.1
	c-2.9-19.2-11.6-50.5-11.6-50.5s-0.3-4.9-12.8-6.8C200.5,75.4,61.1,76.6,22,76.9C15.7,77,10.2,81.3,8.7,87.4
	C6,98.1,3.1,116.2,6.7,137c0,0,0,0.1,0,0.1c-0.1-0.1-0.1-0.1-0.1-0.1c1.1,6.3,1.3,12.2,5.1,19.1l0.7,0.6c0,0,50,6.3,84.8,6.2
	c1.4,0,2.8-0.8,3.4-2.1l3.1-6l1.2-2.4c1.7-3.2,5-5.3,8.6-5.4c-0.2,0-0.4,0-0.5,0c0.2,0,0.4,0,0.6,0c0,0,0.1,0,0.1,0l10.9-0.2
	c0.7,0,1.4,0,2,0.2c0,0,0.1,0,0.1,0c3.2,0.6,6,2.8,7.3,6l1.6,3.8h0l1.7,4.1c0.6,1.5,2.1,2.5,3.7,2.4l75.5-2.3c0,0,5.6-0.9,10.9-4.2
	h0c2.3-1.4,4.5-3.3,6.2-5.8c1.8-2.8,2.5-5.8,2.8-8.5C236.5,141.7,236.5,140.7,236.4,139.6z M90.3,143.6l0,4.4c0,3.5-2.4,6.5-5.7,7.3
	l-9.2,0.3H65.1c-4.2,0-7.6-3.4-7.6-7.6l-0.1-0.9c0.1,0,0.1,0,0.1,0V94.8c0-4.2,3.4-7.6,7.6-7.6h17.5c4.2,0,7.6,3.4,7.6,7.6
	L90.3,143.6C90.3,143.6,90.3,143.6,90.3,143.6z"/>
</svg>
