<?xml version="1.0" encoding="utf-8"?>
<!-- Generator: Adobe Illustrator 22.1.0, SVG Export Plug-In . SVG Version: 6.00 Build 0)  -->
<svg version="1.1" id="Layer_1" xmlns="http://www.w3.org/2000/svg" xmlns:xlink="http://www.w3.org/1999/xlink" x="0px" y="0px"
	 viewBox="0 0 256 256" style="enable-background:new 0 0 256 256;" xml:space="preserve">
<g>
	<polygon style="opacity:0.2;" points="93.5,39.5 93.5,48.5 85.5,48.5 85.5,39.5 76.5,39.5 76.5,48.5 67.5,48.5 67.5,39.5 
		58.5,39.5 58.5,48.5 49.5,48.5 49.5,39.5 40.5,39.5 40.5,48.5 40.5,63.5 102.5,63.5 102.5,48.5 102.5,39.5 	"/>
	<polygon style="opacity:0.2;" points="208.5,39.5 208.5,48.5 200.5,48.5 200.5,39.5 191.5,39.5 191.5,48.5 182.5,48.5 182.5,39.5 
		173.5,39.5 173.5,48.5 164.5,48.5 164.5,39.5 155.5,39.5 155.5,48.5 155.5,63.5 217.5,63.5 217.5,48.5 217.5,39.5 	"/>
	<path style="fill:#8E613D;" d="M132.5,172L132.5,172c-11.9,0-21.5,9.6-21.5,21.5V236h43v-42.5C154,181.6,144.4,172,132.5,172z"/>
	<g style="opacity:0.2;">
		<polygon points="38.5,150.5 38.5,142.5 29.5,142.5 29.5,150.5 20.5,150.5 20.5,142.5 11.5,142.5 11.5,150.5 11.5,151.5 
			11.5,236.5 47.5,236.5 47.5,150.5 		"/>
		<polygon points="236.5,142.5 236.5,150.5 227.5,150.5 227.5,142.5 218.5,142.5 218.5,150.5 209.5,150.5 209.5,236.5 245.5,236.5 
			245.5,151.5 245.5,150.5 245.5,142.5 		"/>
	</g>
</g>
</svg>
