<?xml version="1.0" encoding="utf-8"?>
<!-- Generator: Adobe Illustrator 22.1.0, SVG Export Plug-In . SVG Version: 6.00 Build 0)  -->
<svg version="1.1" id="Layer_1" xmlns="http://www.w3.org/2000/svg" xmlns:xlink="http://www.w3.org/1999/xlink" x="0px" y="0px"
	 viewBox="0 0 256 256" style="enable-background:new 0 0 256 256;" xml:space="preserve">
<g>
	<polygon style="fill:#E5E5E5;" points="162.5,52.5 162.5,129.5 149.5,129.5 149.5,121.5 140.5,121.5 140.5,129.5 131.5,129.5 
		131.5,121.5 122.5,121.5 122.5,129.5 113.5,129.5 113.5,121.5 104.5,121.5 104.5,129.5 94.5,129.5 94.5,52.5 47.5,52.5 47.5,236.5 
		209.5,236.5 209.5,52.5 	"/>
	<polygon style="fill:#E5E5E5;" points="93.5,39.5 93.5,48.5 85.5,48.5 85.5,39.5 76.5,39.5 76.5,48.5 67.5,48.5 67.5,39.5 
		58.5,39.5 58.5,48.5 49.5,48.5 49.5,39.5 40.5,39.5 40.5,48.5 40.5,63.5 102.5,63.5 102.5,48.5 102.5,39.5 	"/>
	<polygon style="fill:#E5E5E5;" points="208.5,39.5 208.5,48.5 200.5,48.5 200.5,39.5 191.5,39.5 191.5,48.5 182.5,48.5 182.5,39.5 
		173.5,39.5 173.5,48.5 164.5,48.5 164.5,39.5 155.5,39.5 155.5,48.5 155.5,63.5 217.5,63.5 217.5,48.5 217.5,39.5 	"/>
	<g>
		<polygon style="fill:#E5E5E5;" points="38.5,150.5 38.5,142.5 29.5,142.5 29.5,150.5 20.5,150.5 20.5,142.5 11.5,142.5 
			11.5,150.5 11.5,151.5 11.5,236.5 47.5,236.5 47.5,150.5 		"/>
		<polygon style="fill:#E5E5E5;" points="236.5,142.5 236.5,150.5 227.5,150.5 227.5,142.5 218.5,142.5 218.5,150.5 209.5,150.5 
			209.5,236.5 245.5,236.5 245.5,151.5 245.5,150.5 245.5,142.5 		"/>
	</g>
</g>
</svg>
