<?xml version="1.0" encoding="utf-8"?>
<!-- Generator: Adobe Illustrator 22.1.0, SVG Export Plug-In . SVG Version: 6.00 Build 0)  -->
<svg version="1.1" id="Layer_1" xmlns="http://www.w3.org/2000/svg" xmlns:xlink="http://www.w3.org/1999/xlink" x="0px" y="0px"
	 viewBox="0 0 256 256" style="enable-background:new 0 0 256 256;" xml:space="preserve">
<g>
	<g style="opacity:0.2;">
		<polygon points="51.6,209.4 51.6,132 27,132 27,211.2 51.6,211.2 		"/>
		<polygon points="204.4,132 204.4,209.4 204.4,211.2 229,211.2 229,132 		"/>
	</g>
	<rect x="204.3" y="155.2" style="fill:#6261AF;stroke:#FFFFFF;stroke-miterlimit:10;" width="11.1" height="30"/>
	<rect x="40.7" y="155.2" style="fill:#6261AF;stroke:#FFFFFF;stroke-miterlimit:10;" width="11.1" height="30"/>
	<polygon style="fill:#5A6568;" points="215.3,77.7 40.7,77.7 70.7,39.5 185.3,39.5 	"/>
	<rect x="58.4" y="99.5" style="fill:#6261AF;stroke:#FFFFFF;stroke-miterlimit:10;" width="21.8" height="30"/>
	<rect x="71.4" y="148.7" style="fill:#6261AF;stroke:#FFFFFF;stroke-miterlimit:10;" width="30" height="30"/>
	<rect x="98" y="99.5" style="fill:#6261AF;stroke:#FFFFFF;stroke-miterlimit:10;" width="21.8" height="30"/>
	<rect x="136.2" y="99.5" style="fill:#6261AF;stroke:#FFFFFF;stroke-miterlimit:10;" width="21.8" height="30"/>
	<rect x="177.1" y="99.5" style="fill:#6261AF;stroke:#FFFFFF;stroke-miterlimit:10;" width="21.8" height="30"/>
	<line style="fill:#6261AF;stroke:#FFFFFF;stroke-miterlimit:10;" x1="71.4" y1="163.7" x2="102.1" y2="163.7"/>
	<line style="fill:#6261AF;stroke:#FFFFFF;stroke-miterlimit:10;" x1="86.7" y1="148.3" x2="86.7" y2="179"/>
	<rect x="151.9" y="148.7" style="fill:#6261AF;stroke:#FFFFFF;stroke-miterlimit:10;" width="30" height="30"/>
	<line style="fill:#6261AF;stroke:#FFFFFF;stroke-miterlimit:10;" x1="151.9" y1="163.7" x2="182.6" y2="163.7"/>
	<line style="fill:#6261AF;stroke:#FFFFFF;stroke-miterlimit:10;" x1="167.2" y1="148.3" x2="167.2" y2="179"/>
	<rect x="115" y="151.8" style="fill:#BB602A;" width="28" height="59.4"/>
	<polygon style="fill:#5A6568;" points="51.6,109.3 12,132.3 51.6,132.3 	"/>
	<polygon style="fill:#5A6568;" points="204.4,109.3 204.4,132.3 244,132.3 	"/>
</g>
</svg>
