<?xml version="1.0" encoding="utf-8"?>
<!-- Generator: Adobe Illustrator 22.1.0, SVG Export Plug-In . SVG Version: 6.00 Build 0)  -->
<svg version="1.1" id="Layer_1" xmlns="http://www.w3.org/2000/svg" xmlns:xlink="http://www.w3.org/1999/xlink" x="0px" y="0px"
	 viewBox="0 0 256 256" style="enable-background:new 0 0 256 256;" xml:space="preserve">
<g>
	<polygon style="opacity:0.2;" points="235.2,106 222.7,184 152,231.3 158.7,122 	"/>
	<path style="fill:#FEB729;" d="M119.1,223.2c0.1-0.2,0.2-0.4,0.4-0.7c3.4-6.5,5.8-16.9,7.3-27.8c-7,0.7-33.3,4-57.8,14.6
		c0,0,0,0,0,0.1l-6.7,3.1l56.2,11.9c0,0,0,0,0,0C118.7,223.9,118.9,223.6,119.1,223.2z"/>
	<path style="fill:#663838;" d="M95.8,112.7C48.6,119.5,59.7,165,69,209.3c24.5-10.6,50.8-13.9,57.8-14.6c2.4-17.2,3-36.1,3-44.2
		C129.8,136.8,118,114.1,95.8,112.7z"/>
	<polygon style="fill:#865556;" points="243.5,99.5 179.5,24.5 90.5,27.5 173.5,126.5 	"/>
	<polygon style="fill:#AA5B5D;" points="167,131.7 90.5,35.7 18.3,112.7 13.7,109 90.5,27.5 173.5,126.5 	"/>
	<polygon style="fill:#744440;" points="241.7,103.3 167,131.7 173.5,126.5 243.5,99.5 	"/>
	<polygon style="fill:#784141;" points="32.7,110.3 18.3,112.7 90.5,35.7 95,41.4 	"/>
	<path style="opacity:0.2;" d="M95.8,112.7c-17.7,0-34.7,10.5-39.2,26.7c-9,26.3,5.6,73.1,5.6,73.1l6.8-3.1
		C59.7,165,48.6,119.5,95.8,112.7z"/>
	<path style="fill:#FFE8B7;" d="M81.2,92.2L107,96c0,0,3,8.5,8.3,7.5c5.3-1,2.8-7.5,0-10c0,0,5.1-2.8,3.1-7.5s-10.8-1.7-10.3,4.2
		l-24-4.7c0,0-4.5-11-11.7-6.3c-7.2,4.7,3,7,3,7s-8,6.7-1.3,10C80.8,99.5,81.2,92.2,81.2,92.2z"/>
</g>
</svg>
