<?xml version="1.0" encoding="utf-8"?>
<!-- Generator: Adobe Illustrator 22.1.0, SVG Export Plug-In . SVG Version: 6.00 Build 0)  -->
<svg version="1.1" id="Layer_1" xmlns="http://www.w3.org/2000/svg" xmlns:xlink="http://www.w3.org/1999/xlink" x="0px" y="0px"
	 viewBox="0 0 256 256" style="enable-background:new 0 0 256 256;" xml:space="preserve">
<g>
	<rect x="50.5" y="90.5" style="opacity:0.2;" width="40" height="92"/>
	<rect x="6.5" y="59.5" style="opacity:0.2;" width="48" height="6"/>
	<rect x="50.5" y="81.5" style="fill:#D21929;" width="200" height="9"/>
	<rect x="57.5" y="94.5" style="fill:#EA1C25;" width="27" height="38"/>
	<rect x="58.4" y="95.4" style="fill:#231F20;" width="10.8" height="17.1"/>
	<rect x="72.4" y="95.4" style="fill:#231F20;" width="10.8" height="17.1"/>
	<rect x="58.6" y="115.6" style="fill:#231F20;" width="10.8" height="16.1"/>
	<rect x="72.6" y="115.6" style="fill:#231F20;" width="10.8" height="16.1"/>
	<rect x="57.5" y="136.5" style="fill:#EA1C25;" width="27" height="38"/>
	<rect x="58.4" y="137.4" style="fill:#231F20;" width="10.8" height="17.1"/>
	<rect x="72.4" y="137.4" style="fill:#231F20;" width="10.8" height="17.1"/>
	<rect x="58.6" y="157.6" style="fill:#231F20;" width="10.8" height="16.1"/>
	<rect x="72.6" y="157.6" style="fill:#231F20;" width="10.8" height="16.1"/>
	<rect x="24.8" y="65.5" style="fill:#EC1C24;" width="11.8" height="107"/>
	<rect x="27" y="73" style="fill:#D1D3D4;" width="6.7" height="6.7"/>
	<rect x="27" y="88.8" style="fill:#D1D3D4;" width="6.7" height="6.7"/>
	<rect x="27" y="104.5" style="fill:#D1D3D4;" width="6.7" height="6.7"/>
	<rect x="27" y="120.3" style="fill:#D1D3D4;" width="6.7" height="6.7"/>
	<rect x="27" y="136" style="fill:#D1D3D4;" width="6.7" height="6.7"/>
	<rect x="27" y="151.8" style="fill:#D1D3D4;" width="6.7" height="6.7"/>
	<path style="fill:#D21929;" d="M200.9,182.5v-47.6c0-10.7,8.7-19.3,19.3-19.3s19.3,8.7,19.3,19.3v47.6h3.4v-48.3
		c0-12.6-10.2-22.7-22.8-22.7s-22.8,10.2-22.8,22.7v48.3H200.9z"/>
	<path style="fill:#D21929;" d="M150.9,182.5v-47.6c0-10.7,8.7-19.3,19.3-19.3s19.3,8.7,19.3,19.3v47.6h3.4v-48.3
		c0-12.6-10.2-22.7-22.8-22.7s-22.8,10.2-22.8,22.7v48.3H150.9z"/>
	<path style="fill:#D21929;" d="M99.7,182.5v-47.6c0-10.7,8.7-19.3,19.3-19.3s19.3,8.7,19.3,19.3v47.6h3.4v-48.3
		c0-12.6-10.2-22.7-22.8-22.7s-22.8,10.2-22.8,22.7v48.3H99.7z"/>
	<circle style="fill:#F4161C;" cx="169.8" cy="100.8" r="4.6"/>
	<line style="fill:none;stroke:#F4161C;stroke-linecap:round;stroke-miterlimit:10;" x1="164.3" y1="105.8" x2="174.4" y2="96.9"/>
	<path style="fill:#F4161C;" d="M171.7,94.8c0,0,3.5,1.8,3.6,4.1l2.9-0.5c0,0-0.4-4.6-4.4-5.7l0.4,1.6L171.7,94.8z"/>
	<path style="fill:#F4161C;" d="M168.3,94.7l-2.3-0.6l0.4-1.3c0,0-4.7,2.3-4.5,5.8l2.8,0.4C164.6,98.9,165.7,95.3,168.3,94.7z"/>
	<line style="fill:none;stroke:#F4161C;stroke-linecap:round;stroke-miterlimit:10;" x1="175.8" y1="106" x2="164.7" y2="96"/>
</g>
</svg>
