<?xml version="1.0" encoding="utf-8"?>
<!-- Generator: Adobe Illustrator 22.1.0, SVG Export Plug-In . SVG Version: 6.00 Build 0)  -->
<svg version="1.1" id="Layer_1" xmlns="http://www.w3.org/2000/svg" xmlns:xlink="http://www.w3.org/1999/xlink" x="0px" y="0px"
	 viewBox="0 0 256 256" style="enable-background:new 0 0 256 256;" xml:space="preserve">
<g>
	<rect x="5.5" y="90" style="opacity:0.2;" width="82" height="136.5"/>
	<rect x="161.5" y="90" style="opacity:0.2;" width="87" height="136.5"/>
	<rect x="2.5" y="83.5" style="opacity:0.1;" width="85" height="7"/>
	<rect x="161.5" y="83.5" style="opacity:0.1;" width="90" height="7"/>
	<rect x="83.5" y="38.5" style="opacity:0.1;" width="82" height="8"/>
	<rect x="53.2" y="97.5" style="fill:#90B4FC;" width="26.3" height="35.9"/>
	<rect x="53.2" y="143.1" style="fill:#90B4FC;" width="26.3" height="35.9"/>
	<rect x="12.2" y="97.5" style="fill:#90B4FC;" width="26.3" height="35.9"/>
	<rect x="12.2" y="143.1" style="fill:#90B4FC;" width="26.3" height="35.9"/>
	<rect x="53.2" y="186.1" style="fill:#90B4FC;" width="26.3" height="35.9"/>
	<rect x="12.2" y="186.1" style="fill:#90B4FC;" width="26.3" height="35.9"/>
	<rect x="209.2" y="97.5" style="fill:#90B4FC;" width="26.3" height="35.9"/>
	<rect x="209.2" y="143.1" style="fill:#90B4FC;" width="26.3" height="35.9"/>
	<rect x="168.2" y="97.5" style="fill:#90B4FC;" width="26.3" height="35.9"/>
	<rect x="168.2" y="143.1" style="fill:#90B4FC;" width="26.3" height="35.9"/>
	<rect x="209.2" y="186.1" style="fill:#90B4FC;" width="26.3" height="35.9"/>
	<rect x="168.2" y="186.1" style="fill:#90B4FC;" width="26.3" height="35.9"/>
	<rect x="101.2" y="84.5" style="fill:#90B4FC;" width="16.3" height="22.3"/>
	<rect x="130.2" y="84.5" style="fill:#90B4FC;" width="16.3" height="22.3"/>
	<rect x="101.2" y="116.5" style="fill:#90B4FC;" width="16.3" height="22.3"/>
	<rect x="108.2" y="198.5" style="fill:#90B4FC;" width="32.3" height="28.3"/>
	<rect x="130.2" y="116.5" style="fill:#90B4FC;" width="16.3" height="22.3"/>
	<rect x="101.2" y="150.5" style="fill:#90B4FC;" width="16.3" height="22.3"/>
	<rect x="130.2" y="150.5" style="fill:#90B4FC;" width="16.3" height="22.3"/>
	<polygon style="fill:#FF957F;" points="135.5,58.5 127.5,58.5 127.5,50.5 121.5,50.5 121.5,58.5 113.5,58.5 113.5,64.5 121.5,64.5 
		121.5,72.5 127.5,72.5 127.5,64.5 135.5,64.5 	"/>
	<g>
		<rect x="94.5" y="195" style="opacity:0.2;" width="60" height="31.5"/>
		<rect x="94.5" y="76.5" style="opacity:0.2;" width="60" height="107"/>
	</g>
</g>
</svg>
