<?xml version="1.0" encoding="utf-8"?>
<!-- Generator: Adobe Illustrator 22.1.0, SVG Export Plug-In . SVG Version: 6.00 Build 0)  -->
<svg version="1.1" id="Layer_1" xmlns="http://www.w3.org/2000/svg" xmlns:xlink="http://www.w3.org/1999/xlink" x="0px" y="0px"
	 viewBox="0 0 256 256" style="enable-background:new 0 0 256 256;" xml:space="preserve">
<g>
	<rect x="68.7" y="20.3" style="fill:#E6DBAF;" width="126.6" height="3.7"/>
	<g>
		<rect x="115.5" y="223.8" style="fill:#428296;" width="33" height="29.8"/>
		<rect x="118.2" y="226.6" style="fill:#BEE0EB;" width="27.6" height="27"/>
		<rect x="130.9" y="224.8" style="fill:#428296;" width="2.2" height="28.8"/>
	</g>
	<g style="opacity:0.4;">
		<g>
			<polygon style="fill:#FFFFFF;" points="130.9,227.7 118.2,244.1 118.2,243.1 130.9,226.6 			"/>
			<polygon style="fill:#FFFFFF;" points="130.9,237 118.2,253.6 118.2,251.6 130.9,235.2 			"/>
			<polygon style="fill:#FFFFFF;" points="130.9,233.7 118.2,250.2 118.2,246.5 130.9,230.1 			"/>
		</g>
		<g>
			<polygon style="fill:#FFFFFF;" points="145.8,227.7 133.1,244.1 133.1,243.1 145.8,226.6 			"/>
			<polygon style="fill:#FFFFFF;" points="145.8,237 133.1,253.6 133.1,251.6 145.8,235.2 			"/>
			<polygon style="fill:#FFFFFF;" points="145.8,233.7 133.1,250.2 133.1,246.5 145.8,230.1 			"/>
		</g>
	</g>
	<g>
		<path style="fill:#428296;" d="M129.1,246.7c0,0.3-0.2,0.5-0.5,0.5l0,0c-0.3,0-0.5-0.2-0.5-0.5v-4.8c0-0.3,0.2-0.5,0.5-0.5l0,0
			c0.3,0,0.5,0.2,0.5,0.5V246.7z"/>
		<path style="fill:#428296;" d="M136,246.7c0,0.3-0.2,0.5-0.5,0.5l0,0c-0.3,0-0.5-0.2-0.5-0.5v-4.8c0-0.3,0.2-0.5,0.5-0.5l0,0
			c0.3,0,0.5,0.2,0.5,0.5V246.7z"/>
	</g>
	<g>
		<path style="fill:#DE4747;" d="M157.8,226.9c-2.4-11.3-13-19.8-25.8-19.8c-12.7,0-23.4,8.5-25.8,19.8H157.8z"/>
		<path style="fill:#F55B5B;" d="M153.2,226.9c-2-11.3-10.7-19.8-21.2-19.8s-19.2,8.5-21.2,19.8H153.2z"/>
		<path style="fill:#DE4747;" d="M146.7,226.9c-1.4-11.3-7.5-19.8-14.7-19.8c-7.3,0-13.3,8.5-14.7,19.8H146.7z"/>
		<path style="fill:#F55B5B;" d="M137.7,226.9c-0.5-11.3-2.9-19.8-5.7-19.8c-2.8,0-5.2,8.5-5.7,19.8H137.7z"/>
	</g>
	<g>
		<path style="fill:#B33939;" d="M109.4,230.1c1.8,0,3.2-1.4,3.2-3.2h-6.4C106.2,228.6,107.7,230.1,109.4,230.1z"/>
		<path style="fill:#B33939;" d="M115.9,230.1c1.8,0,3.2-1.4,3.2-3.2h-6.4C112.7,228.6,114.1,230.1,115.9,230.1z"/>
		<path style="fill:#B33939;" d="M122.3,230.1c1.8,0,3.2-1.4,3.2-3.2h-6.4C119.1,228.6,120.6,230.1,122.3,230.1z"/>
		<path style="fill:#B33939;" d="M128.8,230.1c1.8,0,3.2-1.4,3.2-3.2h-6.4C125.6,228.6,127,230.1,128.8,230.1z"/>
		<path style="fill:#B33939;" d="M135.2,230.1c1.8,0,3.2-1.4,3.2-3.2H132C132,228.6,133.4,230.1,135.2,230.1z"/>
		<path style="fill:#B33939;" d="M141.7,230.1c1.8,0,3.2-1.4,3.2-3.2h-6.4C138.4,228.6,139.9,230.1,141.7,230.1z"/>
		<path style="fill:#B33939;" d="M148.1,230.1c1.8,0,3.2-1.4,3.2-3.2h-6.4C144.9,228.6,146.3,230.1,148.1,230.1z"/>
		<path style="fill:#B33939;" d="M154.6,230.1c1.8,0,3.2-1.4,3.2-3.2h-6.4C151.3,228.6,152.8,230.1,154.6,230.1z"/>
	</g>
	<g>
		<g>
			<rect x="75.3" y="208" style="fill:#428296;" width="9.9" height="19.5"/>
			<rect x="76.1" y="208.9" style="fill:#BEE0EB;" width="8.2" height="17.6"/>
		</g>
		<g>
			<rect x="93.4" y="208" style="fill:#428296;" width="9.9" height="19.5"/>
			<rect x="94.3" y="208.9" style="fill:#BEE0EB;" width="8.2" height="17.6"/>
		</g>
		<g>
			<rect x="84.3" y="208" style="fill:#428296;" width="9.9" height="19.5"/>
			<rect x="85.2" y="208.9" style="fill:#BEE0EB;" width="8.2" height="17.6"/>
		</g>
	</g>
	<g>
		<g>
			<rect x="160.6" y="208" style="fill:#428296;" width="9.9" height="19.5"/>
			<rect x="161.5" y="208.9" style="fill:#BEE0EB;" width="8.2" height="17.6"/>
		</g>
		<g>
			<rect x="178.8" y="208" style="fill:#428296;" width="9.9" height="19.5"/>
			<rect x="179.7" y="208.9" style="fill:#BEE0EB;" width="8.2" height="17.6"/>
		</g>
		<g>
			<rect x="169.7" y="208" style="fill:#428296;" width="9.9" height="19.5"/>
			<rect x="170.6" y="208.9" style="fill:#BEE0EB;" width="8.2" height="17.6"/>
		</g>
	</g>
	<rect x="65.3" y="10.8" style="fill:#1E6D85;" width="133.4" height="9.5"/>
	<rect x="65.3" y="10.8" style="fill:#448BA1;" width="133.4" height="4.8"/>
	<rect x="68.6" y="243" style="opacity:0.2;" width="126.6" height="10.5"/>
	<rect x="68.7" y="20.3" style="opacity:0.2;" width="126.6" height="3.7"/>
	<rect x="115.5" y="223.8" style="fill:#428296;" width="33" height="29.7"/>
	<rect x="118.2" y="226.7" style="fill:#BEE0EB;" width="27.6" height="26.9"/>
	<rect x="130.9" y="224.8" style="fill:#428296;" width="2.2" height="28.7"/>
	<g>
		<polygon style="fill:#FFFFFF;" points="130.9,227.7 118.2,244.1 118.2,243.1 130.9,226.6 		"/>
		<polygon style="fill:#FFFFFF;" points="130.9,237 118.2,253.6 118.2,251.6 130.9,235.2 		"/>
		<polygon style="fill:#FFFFFF;" points="130.9,233.7 118.2,250.2 118.2,246.5 130.9,230.1 		"/>
	</g>
	<g>
		<polygon style="fill:#FFFFFF;" points="145.8,227.7 133.1,244.1 133.1,243.1 145.8,226.6 		"/>
		<polygon style="fill:#FFFFFF;" points="145.8,237 133.1,253.6 133.1,251.6 145.8,235.2 		"/>
		<polygon style="fill:#FFFFFF;" points="145.8,233.7 133.1,250.2 133.1,246.5 145.8,230.1 		"/>
	</g>
	<g>
		<path style="fill:#428296;" d="M129,242.7c0,0.3-0.2,0.5-0.5,0.5l0,0c-0.3,0-0.5-0.2-0.5-0.5v-4.8c0-0.3,0.2-0.5,0.5-0.5l0,0
			c0.3,0,0.5,0.2,0.5,0.5V242.7z"/>
		<path style="fill:#428296;" d="M136,242.7c0,0.3-0.2,0.5-0.5,0.5l0,0c-0.3,0-0.5-0.2-0.5-0.5v-4.8c0-0.3,0.2-0.5,0.5-0.5l0,0
			c0.3,0,0.5,0.2,0.5,0.5V242.7z"/>
	</g>
	<rect x="65.3" y="10.8" style="fill:#1E6D85;" width="133.4" height="9.5"/>
	<g>
		<path style="fill:#DE4747;" d="M163.3,2c1.3,0,2.4,0.6,2.4,1.3v15.1c0,0.7-1.1,1.3-2.4,1.3h-62.5c-1.3,0-2.4-0.6-2.4-1.3V3.3
			c0-0.7,1.1-1.3,2.4-1.3H163.3z"/>
	</g>
	<g>
		<path style="fill:none;stroke:#FFDE5A;stroke-miterlimit:10;" d="M160.4,3.2c1.2,0,2.1,0.5,2.1,1.2v12.9c0,0.6-1,1.2-2.1,1.2
			h-56.7c-1.2,0-2.1-0.5-2.1-1.2V4.4c0-0.6,1-1.2,2.1-1.2H160.4z"/>
	</g>
	<g>
		<polygon style="fill:#FFDE5A;" points="108.3,8.9 108.9,10.1 110.3,10.3 109.3,11.3 109.5,12.7 108.3,12.1 107,12.7 107.2,11.3 
			106.2,10.3 107.6,10.1 		"/>
		<polygon style="fill:#FFDE5A;" points="120.1,8.9 120.7,10.1 122.1,10.3 121.1,11.3 121.4,12.7 120.1,12.1 118.9,12.7 119.1,11.3 
			118.1,10.3 119.5,10.1 		"/>
		<polygon style="fill:#FFDE5A;" points="131.9,8.9 132.6,10.1 134,10.3 133,11.3 133.2,12.7 131.9,12.1 130.7,12.7 130.9,11.3 
			129.9,10.3 131.3,10.1 		"/>
		<polygon style="fill:#FFDE5A;" points="143.8,8.9 144.4,10.1 145.8,10.3 144.8,11.3 145,12.7 143.8,12.1 142.5,12.7 142.8,11.3 
			141.8,10.3 143.2,10.1 		"/>
		<polygon style="fill:#FFDE5A;" points="155.6,8.9 156.3,10.1 157.7,10.3 156.7,11.3 156.9,12.7 155.6,12.1 154.4,12.7 154.6,11.3 
			153.6,10.3 155,10.1 		"/>
	</g>
	<g>
		<rect x="60" y="32.9" style="fill:#DE4747;" width="8.7" height="1.4"/>
		<polygon style="fill:#F55B5B;" points="68.7,30.8 60,32.9 66.5,32.9 68.7,32.9 		"/>
	</g>
	<g>
		<rect x="60" y="68.5" style="fill:#DE4747;" width="8.7" height="1.4"/>
		<polygon style="fill:#F55B5B;" points="68.7,66.4 60,68.5 66.5,68.5 68.7,68.5 		"/>
	</g>
	<g>
		<rect x="60" y="104.1" style="fill:#DE4747;" width="8.7" height="1.4"/>
		<polygon style="fill:#F55B5B;" points="68.7,102 60,104.1 66.5,104.1 68.7,104.1 		"/>
	</g>
	<g>
		<rect x="60" y="139.7" style="fill:#DE4747;" width="8.7" height="1.4"/>
		<polygon style="fill:#F55B5B;" points="68.7,137.6 60,139.7 66.5,139.7 68.7,139.7 		"/>
	</g>
	<g>
		<rect x="60" y="175.3" style="fill:#DE4747;" width="8.7" height="1.4"/>
		<polygon style="fill:#F55B5B;" points="68.7,173.2 60,175.3 66.5,175.3 68.7,175.3 		"/>
	</g>
	<g>
		<rect x="195.3" y="32.9" style="fill:#DE4747;" width="8.7" height="1.4"/>
		<polygon style="fill:#F55B5B;" points="195.3,30.8 204,32.9 197.5,32.9 195.3,32.9 		"/>
	</g>
	<g>
		<rect x="195.3" y="68.5" style="fill:#DE4747;" width="8.7" height="1.4"/>
		<polygon style="fill:#F55B5B;" points="195.3,66.4 204,68.5 197.5,68.5 195.3,68.5 		"/>
	</g>
	<g>
		<rect x="195.3" y="104.1" style="fill:#DE4747;" width="8.7" height="1.4"/>
		<polygon style="fill:#F55B5B;" points="195.3,102 204,104.1 197.5,104.1 195.3,104.1 		"/>
	</g>
	<g>
		<rect x="195.3" y="139.7" style="fill:#DE4747;" width="8.7" height="1.4"/>
		<polygon style="fill:#F55B5B;" points="195.3,137.6 204,139.7 197.5,139.7 195.3,139.7 		"/>
	</g>
	<g>
		<rect x="195.3" y="175.3" style="fill:#DE4747;" width="8.7" height="1.4"/>
		<polygon style="fill:#F55B5B;" points="195.3,173.2 204,175.3 197.5,175.3 195.3,175.3 		"/>
	</g>
	<g>
		<rect x="109.4" y="222" style="fill:#8AA0B3;" width="1.5" height="26.3"/>
		<rect x="108.2" y="246.4" style="fill:#7C90A1;" width="3.9" height="7.1"/>
	</g>
	<g>
		<rect x="153.1" y="222" style="fill:#8AA0B3;" width="1.5" height="26.3"/>
		<rect x="151.9" y="246.4" style="fill:#7C90A1;" width="3.9" height="7.1"/>
	</g>
	<g>
		<path style="fill:#DE4747;" d="M157.8,226.9c-2.4-11.3-13-19.8-25.8-19.8c-12.7,0-23.4,8.5-25.8,19.8H157.8z"/>
		<path style="fill:#F55B5B;" d="M153.2,226.9c-2-11.3-10.7-19.8-21.2-19.8s-19.2,8.5-21.2,19.8H153.2z"/>
		<path style="fill:#DE4747;" d="M146.7,226.9c-1.4-11.3-7.5-19.8-14.7-19.8c-7.3,0-13.3,8.5-14.7,19.8H146.7z"/>
		<path style="fill:#F55B5B;" d="M137.7,226.9c-0.5-11.3-2.9-19.8-5.7-19.8c-2.8,0-5.2,8.5-5.7,19.8H137.7z"/>
	</g>
	<g>
		<path style="fill:#B33939;" d="M109.4,230.1c1.8,0,3.2-1.4,3.2-3.2h-6.4C106.2,228.6,107.7,230.1,109.4,230.1z"/>
		<path style="fill:#B33939;" d="M115.9,230.1c1.8,0,3.2-1.4,3.2-3.2h-6.4C112.7,228.6,114.1,230.1,115.9,230.1z"/>
		<path style="fill:#B33939;" d="M122.3,230.1c1.8,0,3.2-1.4,3.2-3.2h-6.4C119.1,228.6,120.6,230.1,122.3,230.1z"/>
		<path style="fill:#B33939;" d="M128.8,230.1c1.8,0,3.2-1.4,3.2-3.2h-6.4C125.6,228.6,127,230.1,128.8,230.1z"/>
		<path style="fill:#B33939;" d="M135.2,230.1c1.8,0,3.2-1.4,3.2-3.2H132C132,228.6,133.4,230.1,135.2,230.1z"/>
		<path style="fill:#B33939;" d="M141.7,230.1c1.8,0,3.2-1.4,3.2-3.2h-6.4C138.4,228.6,139.9,230.1,141.7,230.1z"/>
		<path style="fill:#B33939;" d="M148.1,230.1c1.8,0,3.2-1.4,3.2-3.2h-6.4C144.9,228.6,146.3,230.1,148.1,230.1z"/>
		<path style="fill:#B33939;" d="M154.6,230.1c1.8,0,3.2-1.4,3.2-3.2h-6.4C151.3,228.6,152.8,230.1,154.6,230.1z"/>
	</g>
	<g>
		<g>
			<g>
				<rect x="98.7" y="244.1" style="fill:#B37A4D;" width="1.2" height="6.8"/>
				<g>
					<polygon style="fill:#B34F39;" points="99.3,248 96,248 97.1,253.6 99.3,253.6 101.5,253.6 102.5,248 					"/>
					<polygon style="fill:#CF5B42;" points="96.4,250.1 102.1,250.1 102.3,249.2 96.2,249.2 					"/>
					<polygon style="opacity:0.1;fill:#FFFFFF;" points="99.3,248 99.3,248 96,248 97.1,253.6 99.3,253.6 99.3,253.6 					"/>
				</g>
			</g>
			<g>
				<path style="fill:#3DB830;" d="M104.6,239.3c0,4.2-2.4,5.7-5.4,5.7s-5.4-1.5-5.4-5.7c0-4.2,3.7-9.4,5.4-9.4
					C100.9,229.9,104.6,235.1,104.6,239.3z"/>
				<path style="opacity:0.2;fill:#FFFFFF;" d="M93.9,239.3c0,4.2,2.4,5.7,5.4,5.7v-15.1C97.6,229.9,93.9,235.1,93.9,239.3z"/>
				<circle style="opacity:0.2;fill:#FFFFFF;" cx="98.9" cy="234.5" r="1.6"/>
				<path style="opacity:0.2;fill:#FFFFFF;" d="M103.1,241.4c0,1-0.8,1.8-1.8,1.8s-1.8-0.8-1.8-1.8s0.8-1.8,1.8-1.8
					S103.1,240.4,103.1,241.4z"/>
				<path style="opacity:0.2;fill:#FFFFFF;" d="M98.1,239.7c0,0.6-0.5,1.2-1.2,1.2s-1.2-0.5-1.2-1.2c0-0.6,0.5-1.2,1.2-1.2
					S98.1,239,98.1,239.7z"/>
			</g>
		</g>
		<g>
			<g>
				<rect x="84.1" y="244.1" style="fill:#B37A4D;" width="1.2" height="6.8"/>
				<g>
					<polygon style="fill:#B34F39;" points="84.7,248 81.4,248 82.5,253.6 84.7,253.6 86.9,253.6 87.9,248 					"/>
					<polygon style="fill:#CF5B42;" points="81.8,250.1 87.5,250.1 87.7,249.2 81.6,249.2 					"/>
					<polygon style="opacity:0.1;fill:#FFFFFF;" points="84.7,248 84.7,248 81.4,248 82.5,253.6 84.7,253.6 84.7,253.6 					"/>
				</g>
			</g>
			<g>
				<path style="fill:#3DB830;" d="M90,239.3c0,4.2-2.4,5.7-5.4,5.7c-3,0-5.4-1.5-5.4-5.7c0-4.2,3.7-9.4,5.4-9.4
					C86.4,229.9,90,235.1,90,239.3z"/>
				<path style="opacity:0.2;fill:#FFFFFF;" d="M79.3,239.3c0,4.2,2.4,5.7,5.4,5.7v-15.1C83,229.9,79.3,235.1,79.3,239.3z"/>
				<circle style="opacity:0.2;fill:#FFFFFF;" cx="84.3" cy="234.5" r="1.6"/>
				<path style="opacity:0.2;fill:#FFFFFF;" d="M88.5,241.4c0,1-0.8,1.8-1.8,1.8c-1,0-1.8-0.8-1.8-1.8s0.8-1.8,1.8-1.8
					C87.8,239.7,88.5,240.4,88.5,241.4z"/>
				<path style="opacity:0.2;fill:#FFFFFF;" d="M83.5,239.7c0,0.6-0.5,1.2-1.2,1.2c-0.6,0-1.2-0.5-1.2-1.2c0-0.6,0.5-1.2,1.2-1.2
					C83,238.5,83.5,239,83.5,239.7z"/>
			</g>
		</g>
	</g>
	<g>
		<g>
			<g>
				<rect x="178.7" y="244.1" style="fill:#B37A4D;" width="1.2" height="6.8"/>
				<g>
					<polygon style="fill:#B34F39;" points="179.3,248 176.1,248 177.1,253.6 179.3,253.6 181.5,253.6 182.6,248 					"/>
					<polygon style="fill:#CF5B42;" points="176.5,250.1 182.2,250.1 182.4,249.2 176.3,249.2 					"/>
					<polygon style="opacity:0.1;fill:#FFFFFF;" points="179.3,248 179.3,248 176.1,248 177.1,253.6 179.3,253.6 179.3,253.6 					
						"/>
				</g>
			</g>
			<g>
				<path style="fill:#3DB830;" d="M184.7,239.3c0,4.2-2.4,5.7-5.4,5.7c-3,0-5.4-1.5-5.4-5.7c0-4.2,3.7-9.4,5.4-9.4
					C181,229.9,184.7,235.1,184.7,239.3z"/>
				<path style="opacity:0.2;fill:#FFFFFF;" d="M174,239.3c0,4.2,2.4,5.7,5.4,5.7v-15.1C177.6,229.9,174,235.1,174,239.3z"/>
				<circle style="opacity:0.2;fill:#FFFFFF;" cx="178.9" cy="234.5" r="1.6"/>
				<path style="opacity:0.2;fill:#FFFFFF;" d="M183.2,241.4c0,1-0.8,1.8-1.8,1.8s-1.8-0.8-1.8-1.8s0.8-1.8,1.8-1.8
					S183.2,240.4,183.2,241.4z"/>
				<path style="opacity:0.2;fill:#FFFFFF;" d="M178.1,239.7c0,0.6-0.5,1.2-1.2,1.2s-1.2-0.5-1.2-1.2c0-0.6,0.5-1.2,1.2-1.2
					S178.1,239,178.1,239.7z"/>
			</g>
		</g>
		<g>
			<g>
				<rect x="164.2" y="244.1" style="fill:#B37A4D;" width="1.2" height="6.8"/>
				<g>
					<polygon style="fill:#B34F39;" points="164.7,248 161.5,248 162.5,253.6 164.7,253.6 166.9,253.6 168,248 					"/>
					<polygon style="fill:#CF5B42;" points="161.9,250.1 167.6,250.1 167.8,249.2 161.7,249.2 					"/>
					<polygon style="opacity:0.1;fill:#FFFFFF;" points="164.7,248 164.7,248 161.5,248 162.5,253.6 164.7,253.6 164.7,253.6 					
						"/>
				</g>
			</g>
			<g>
				<path style="fill:#3DB830;" d="M170.1,239.3c0,4.2-2.4,5.7-5.4,5.7s-5.4-1.5-5.4-5.7c0-4.2,3.7-9.4,5.4-9.4
					S170.1,235.1,170.1,239.3z"/>
				<path style="opacity:0.2;fill:#FFFFFF;" d="M159.4,239.3c0,4.2,2.4,5.7,5.4,5.7v-15.1C163.1,229.9,159.4,235.1,159.4,239.3z"/>
				<circle style="opacity:0.2;fill:#FFFFFF;" cx="164.3" cy="234.5" r="1.6"/>
				<path style="opacity:0.2;fill:#FFFFFF;" d="M168.6,241.4c0,1-0.8,1.8-1.8,1.8s-1.8-0.8-1.8-1.8s0.8-1.8,1.8-1.8
					S168.6,240.4,168.6,241.4z"/>
				<path style="opacity:0.2;fill:#FFFFFF;" d="M163.5,239.7c0,0.6-0.5,1.2-1.2,1.2s-1.2-0.5-1.2-1.2c0-0.6,0.5-1.2,1.2-1.2
					S163.5,239,163.5,239.7z"/>
			</g>
		</g>
	</g>
	<g>
		<rect x="167.9" y="30.3" style="fill:#428296;" width="14" height="22.3"/>
		<rect x="169.1" y="31.4" style="fill:#BEE0EB;" width="11.6" height="20.2"/>
		<rect x="166.3" y="51.6" style="fill:#1E6D85;" width="17.1" height="1.7"/>
	</g>
	<g>
		<rect x="166.5" y="31.4" style="fill:#DE4747;" width="16.7" height="1.4"/>
		<polygon style="fill:#F55B5B;" points="181.7,29.3 174.9,29.3 168.1,29.3 166.5,31.4 174.9,31.4 183.3,31.4 		"/>
	</g>
	<g>
		<rect x="138.9" y="30.3" style="fill:#428296;" width="14" height="22.3"/>
		<rect x="140.1" y="31.4" style="fill:#BEE0EB;" width="11.6" height="20.2"/>
		<rect x="137.3" y="51.6" style="fill:#1E6D85;" width="17.1" height="1.7"/>
	</g>
	<g>
		<rect x="137.5" y="31.4" style="fill:#DE4747;" width="16.7" height="1.4"/>
		<polygon style="fill:#F55B5B;" points="152.7,29.3 145.9,29.3 139.1,29.3 137.5,31.4 145.9,31.4 154.3,31.4 		"/>
	</g>
	<g>
		<rect x="109.9" y="30.3" style="fill:#428296;" width="14" height="22.3"/>
		<rect x="111.1" y="31.4" style="fill:#BEE0EB;" width="11.6" height="20.2"/>
		<rect x="108.3" y="51.6" style="fill:#1E6D85;" width="17.1" height="1.7"/>
	</g>
	<g>
		<rect x="108.5" y="31.4" style="fill:#DE4747;" width="16.7" height="1.4"/>
		<polygon style="fill:#F55B5B;" points="123.7,29.3 116.9,29.3 110.1,29.3 108.5,31.4 116.9,31.4 125.3,31.4 		"/>
	</g>
	<g>
		<rect x="80.9" y="30.3" style="fill:#428296;" width="14" height="22.3"/>
		<rect x="82.1" y="31.4" style="fill:#BEE0EB;" width="11.6" height="20.2"/>
		<rect x="79.3" y="51.6" style="fill:#1E6D85;" width="17.1" height="1.7"/>
	</g>
	<g>
		<rect x="79.5" y="31.4" style="fill:#DE4747;" width="16.7" height="1.4"/>
		<polygon style="fill:#F55B5B;" points="94.7,29.3 87.9,29.3 81.1,29.3 79.5,31.4 87.9,31.4 96.3,31.4 		"/>
	</g>
	<g>
		<rect x="167.9" y="68" style="fill:#428296;" width="14" height="22.3"/>
		<rect x="169.1" y="69.1" style="fill:#BEE0EB;" width="11.6" height="20.2"/>
		<rect x="166.3" y="89.3" style="fill:#1E6D85;" width="17.1" height="1.7"/>
	</g>
	<g>
		<rect x="166.5" y="69.1" style="fill:#DE4747;" width="16.7" height="1.4"/>
		<polygon style="fill:#F55B5B;" points="181.7,67 174.9,67 168.1,67 166.5,69.1 174.9,69.1 183.3,69.1 		"/>
	</g>
	<g>
		<rect x="138.9" y="68" style="fill:#428296;" width="14" height="22.3"/>
		<rect x="140.1" y="69.1" style="fill:#BEE0EB;" width="11.6" height="20.2"/>
		<rect x="137.3" y="89.3" style="fill:#1E6D85;" width="17.1" height="1.7"/>
	</g>
	<g>
		<rect x="137.5" y="69.1" style="fill:#DE4747;" width="16.7" height="1.4"/>
		<polygon style="fill:#F55B5B;" points="152.7,67 145.9,67 139.1,67 137.5,69.1 145.9,69.1 154.3,69.1 		"/>
	</g>
	<g>
		<rect x="109.9" y="68" style="fill:#428296;" width="14" height="22.3"/>
		<rect x="111.1" y="69.1" style="fill:#BEE0EB;" width="11.6" height="20.2"/>
		<rect x="108.3" y="89.3" style="fill:#1E6D85;" width="17.1" height="1.7"/>
	</g>
	<g>
		<rect x="108.5" y="69.1" style="fill:#DE4747;" width="16.7" height="1.4"/>
		<polygon style="fill:#F55B5B;" points="123.7,67 116.9,67 110.1,67 108.5,69.1 116.9,69.1 125.3,69.1 		"/>
	</g>
	<g>
		<rect x="80.9" y="68" style="fill:#428296;" width="14" height="22.3"/>
		<rect x="82.1" y="69.1" style="fill:#BEE0EB;" width="11.6" height="20.2"/>
		<rect x="79.3" y="89.3" style="fill:#1E6D85;" width="17.1" height="1.7"/>
	</g>
	<g>
		<rect x="79.5" y="69.1" style="fill:#DE4747;" width="16.7" height="1.4"/>
		<polygon style="fill:#F55B5B;" points="94.7,67 87.9,67 81.1,67 79.5,69.1 87.9,69.1 96.3,69.1 		"/>
	</g>
	<g>
		<rect x="167.9" y="107.7" style="fill:#428296;" width="14" height="22.3"/>
		<rect x="169.1" y="108.7" style="fill:#BEE0EB;" width="11.6" height="20.2"/>
		<rect x="166.3" y="128.9" style="fill:#1E6D85;" width="17.1" height="1.7"/>
	</g>
	<g>
		<rect x="166.5" y="108.7" style="fill:#DE4747;" width="16.7" height="1.4"/>
		<polygon style="fill:#F55B5B;" points="181.7,106.7 174.9,106.7 168.1,106.7 166.5,108.7 174.9,108.7 183.3,108.7 		"/>
	</g>
	<g>
		<rect x="138.9" y="107.7" style="fill:#428296;" width="14" height="22.3"/>
		<rect x="140.1" y="108.7" style="fill:#BEE0EB;" width="11.6" height="20.2"/>
		<rect x="137.3" y="128.9" style="fill:#1E6D85;" width="17.1" height="1.7"/>
	</g>
	<g>
		<rect x="137.5" y="108.7" style="fill:#DE4747;" width="16.7" height="1.4"/>
		<polygon style="fill:#F55B5B;" points="152.7,106.7 145.9,106.7 139.1,106.7 137.5,108.7 145.9,108.7 154.3,108.7 		"/>
	</g>
	<g>
		<rect x="109.9" y="107.7" style="fill:#428296;" width="14" height="22.3"/>
		<rect x="111.1" y="108.7" style="fill:#BEE0EB;" width="11.6" height="20.2"/>
		<rect x="108.3" y="128.9" style="fill:#1E6D85;" width="17.1" height="1.7"/>
	</g>
	<g>
		<rect x="108.5" y="108.7" style="fill:#DE4747;" width="16.7" height="1.4"/>
		<polygon style="fill:#F55B5B;" points="123.7,106.7 116.9,106.7 110.1,106.7 108.5,108.7 116.9,108.7 125.3,108.7 		"/>
	</g>
	<g>
		<rect x="80.9" y="107.7" style="fill:#428296;" width="14" height="22.3"/>
		<rect x="82.1" y="108.7" style="fill:#BEE0EB;" width="11.6" height="20.2"/>
		<rect x="79.3" y="128.9" style="fill:#1E6D85;" width="17.1" height="1.7"/>
	</g>
	<g>
		<rect x="79.5" y="108.7" style="fill:#DE4747;" width="16.7" height="1.4"/>
		<polygon style="fill:#F55B5B;" points="94.7,106.7 87.9,106.7 81.1,106.7 79.5,108.7 87.9,108.7 96.3,108.7 		"/>
	</g>
	<g>
		<rect x="167.9" y="144.3" style="fill:#428296;" width="14" height="22.3"/>
		<rect x="169.1" y="145.4" style="fill:#BEE0EB;" width="11.6" height="20.2"/>
		<rect x="166.3" y="165.6" style="fill:#1E6D85;" width="17.1" height="1.7"/>
	</g>
	<g>
		<rect x="166.5" y="145.4" style="fill:#DE4747;" width="16.7" height="1.4"/>
		<polygon style="fill:#F55B5B;" points="181.7,143.3 174.9,143.3 168.1,143.3 166.5,145.4 174.9,145.4 183.3,145.4 		"/>
	</g>
	<g>
		<rect x="138.9" y="144.3" style="fill:#428296;" width="14" height="22.3"/>
		<rect x="140.1" y="145.4" style="fill:#BEE0EB;" width="11.6" height="20.2"/>
		<rect x="137.3" y="165.6" style="fill:#1E6D85;" width="17.1" height="1.7"/>
	</g>
	<g>
		<rect x="137.5" y="145.4" style="fill:#DE4747;" width="16.7" height="1.4"/>
		<polygon style="fill:#F55B5B;" points="152.7,143.3 145.9,143.3 139.1,143.3 137.5,145.4 145.9,145.4 154.3,145.4 		"/>
	</g>
	<g>
		<rect x="109.9" y="144.3" style="fill:#428296;" width="14" height="22.3"/>
		<rect x="111.1" y="145.4" style="fill:#BEE0EB;" width="11.6" height="20.2"/>
		<rect x="108.3" y="165.6" style="fill:#1E6D85;" width="17.1" height="1.7"/>
	</g>
	<g>
		<rect x="108.5" y="145.4" style="fill:#DE4747;" width="16.7" height="1.4"/>
		<polygon style="fill:#F55B5B;" points="123.7,143.3 116.9,143.3 110.1,143.3 108.5,145.4 116.9,145.4 125.3,145.4 		"/>
	</g>
	<g>
		<rect x="80.9" y="144.3" style="fill:#428296;" width="14" height="22.3"/>
		<rect x="82.1" y="145.4" style="fill:#BEE0EB;" width="11.6" height="20.2"/>
		<rect x="79.3" y="165.6" style="fill:#1E6D85;" width="17.1" height="1.7"/>
	</g>
	<g>
		<rect x="79.5" y="145.4" style="fill:#DE4747;" width="16.7" height="1.4"/>
		<polygon style="fill:#F55B5B;" points="94.7,143.3 87.9,143.3 81.1,143.3 79.5,145.4 87.9,145.4 96.3,145.4 		"/>
	</g>
	<g>
		<rect x="167.9" y="181" style="fill:#428296;" width="14" height="22.3"/>
		<rect x="169.1" y="182.1" style="fill:#BEE0EB;" width="11.6" height="20.2"/>
		<rect x="166.3" y="202.3" style="fill:#1E6D85;" width="17.1" height="1.7"/>
	</g>
	<g>
		<rect x="166.5" y="182.1" style="fill:#DE4747;" width="16.7" height="1.4"/>
		<polygon style="fill:#F55B5B;" points="181.7,180 174.9,180 168.1,180 166.5,182.1 174.9,182.1 183.3,182.1 		"/>
	</g>
	<g>
		<rect x="138.9" y="181" style="fill:#428296;" width="14" height="22.3"/>
		<rect x="140.1" y="182.1" style="fill:#BEE0EB;" width="11.6" height="20.2"/>
		<rect x="137.3" y="202.3" style="fill:#1E6D85;" width="17.1" height="1.7"/>
	</g>
	<g>
		<rect x="137.5" y="182.1" style="fill:#DE4747;" width="16.7" height="1.4"/>
		<polygon style="fill:#F55B5B;" points="152.7,180 145.9,180 139.1,180 137.5,182.1 145.9,182.1 154.3,182.1 		"/>
	</g>
	<g>
		<rect x="109.9" y="181" style="fill:#428296;" width="14" height="22.3"/>
		<rect x="111.1" y="182.1" style="fill:#BEE0EB;" width="11.6" height="20.2"/>
		<rect x="108.3" y="202.3" style="fill:#1E6D85;" width="17.1" height="1.7"/>
	</g>
	<g>
		<rect x="108.5" y="182.1" style="fill:#DE4747;" width="16.7" height="1.4"/>
		<polygon style="fill:#F55B5B;" points="123.7,180 116.9,180 110.1,180 108.5,182.1 116.9,182.1 125.3,182.1 		"/>
	</g>
	<g>
		<rect x="80.9" y="181" style="fill:#428296;" width="14" height="22.3"/>
		<rect x="82.1" y="182.1" style="fill:#BEE0EB;" width="11.6" height="20.2"/>
		<rect x="79.3" y="202.3" style="fill:#1E6D85;" width="17.1" height="1.7"/>
	</g>
	<g>
		<rect x="79.5" y="182.1" style="fill:#DE4747;" width="16.7" height="1.4"/>
		<polygon style="fill:#F55B5B;" points="94.7,180 87.9,180 81.1,180 79.5,182.1 87.9,182.1 96.3,182.1 		"/>
	</g>
</g>
</svg>
