<?xml version="1.0" encoding="utf-8"?>
<!-- Generator: Adobe Illustrator 22.1.0, SVG Export Plug-In . SVG Version: 6.00 Build 0)  -->
<svg version="1.1" id="Layer_1" xmlns="http://www.w3.org/2000/svg" xmlns:xlink="http://www.w3.org/1999/xlink" x="0px" y="0px"
	 viewBox="0 0 256 256" style="enable-background:new 0 0 256 256;" xml:space="preserve">
<g>
	<ellipse style="opacity:0.5;" cx="63.1" cy="168.2" rx="15" ry="15.3"/>
	<path style="opacity:0.5;" d="M211.7,137.4l-18.5,8.7l-18.8-10.9l-19.5,10.1l-21.2-13.1l-18.6,11.5l-10.5-9.3l-16.8,7.3l-10.6-7.9
		l-14.4,8.1l-8.1-7.9L43,140.6l-2.1-2c-0.1,1.4-0.1,2.9-0.2,4.3l1.4,1.6l12.7-6.1l8.3,7.3l14.9-6.1l8.5,5.7l16.7-5.4l11.9,9.2
		l17.6-9.8l21.7,10.9l20.6-9.4l16.8,10.8l2.4,5.7c8.4,19.6,10.1,41.5,4.5,62.1c-1.6,5.7-3.7,11.4-6.6,16.5
		c6.5-0.7,13.1-1.5,19.7-2.4c9.4-26.5,15.2-58.6,13.9-92L211.7,137.4z"/>
	<path style="opacity:0.5;" d="M61.7,154.3c2.3-0.7,5.1-0.7,10.2,1.5c-2.1-1.6-4.6-2.7-7.3-3.1c-8.2-1-15.6,5.1-16.6,13.7
		c-1,8.5,4.9,16.3,13.2,17.2c2.3,0.3,4.5,0,6.6-0.8l1.7-0.7c0.2-0.1,0.4-0.2,0.5-0.3c-1.2,0.2-7.5,1.3-11.8-0.8
		c-4.3-2.1-7.6-7.7-6.2-13.7C53.4,161,56.8,155.9,61.7,154.3z"/>
	<ellipse style="opacity:0.5;" cx="143" cy="176.4" rx="15" ry="15.3"/>
	<path style="opacity:0.5;" d="M141.6,162.5c2.3-0.7,5.1-0.7,10.2,1.5c-2.1-1.6-4.6-2.7-7.3-3.1c-8.2-1-15.6,5.1-16.6,13.7
		c-1,8.5,4.9,16.3,13.2,17.2c2.3,0.3,4.5,0,6.6-0.8l1.7-0.7c0.2-0.1,0.4-0.2,0.5-0.3c-1.2,0.2-7.5,1.3-11.8-0.8
		c-4.3-2.1-7.6-7.7-6.2-13.7C133.3,169.1,136.7,164.1,141.6,162.5z"/>
	<path style="opacity:0.5;" d="M116.5,231L84,225l0,0c-1.3-3.7-7.9-24.6,2.6-50.8l-5.3-0.3c0,0-12.2,33.5-3,54.5
		c11.8,3.8,24.7,6.3,38.3,7.8L116.5,231z"/>
	<path style="opacity:0.5;" d="M81.3,173.9C77,190,71,208,78.4,228.3c12.2,3.6,24.9,6.2,38.2,7.7c0.1-22.5-1.2-43.2,2.1-60
		L81.3,173.9z"/>
	<path style="fill:#B08735;" d="M14,137.1C41.5,102,62.4,69,129.7,35.6c61.5,26.5,94.5,70.1,117.5,111.7l-35.4-9.9l-18.5,8.7
		l-18.8-10.9l-19.5,10.1l-21.2-13.1l-18.6,11.5l-10.5-9.3l-16.8,7.3l-10.6-7.9l-14.4,8.1l-8.1-7.9L43,140.6l-8.1-7.9L14,137.1z"/>
	<path style="fill:#C6A041;" d="M60.5,110.2c0,0,20-35.9,51.9-50.6C112.4,59.7,67.9,100.6,60.5,110.2z"/>
	<path style="fill:#C6A041;" d="M150.4,55.3c0,0,32.9,27.4,39.3,58.8C189.7,114.1,158.6,64.4,150.4,55.3z"/>
	<path style="fill:#C6A041;" d="M138.5,59.2c0,0,21.2,17.7,25.3,37.9C163.8,97.2,143.8,65.1,138.5,59.2z"/>
	<path style="fill:#C6A041;" d="M90.5,109.5c0,0,6.9-25.4,26.4-40C116.9,69.5,93.8,102.3,90.5,109.5z"/>
	<path style="fill:#C6A041;" d="M124.1,112.4c0,0-5.8-25.6,5-46.1C129,66.3,123.6,104.7,124.1,112.4z"/>
	<polygon style="fill:#C6A041;" points="111.7,24.5 112.7,23 118.2,19.8 123.5,27.9 123.5,29.9 117.9,21.5 	"/>
	<polygon style="fill:#C6A041;" points="130.5,17 131.8,19.2 131.1,27.9 129.8,30.8 	"/>
	<polygon style="fill:#C6A041;" points="144.5,19.7 145.1,21.8 140,30.6 139.1,30.3 	"/>
	<polygon style="fill:#B08735;" points="121.5,35.8 111.7,24.5 117.9,21.1 123.5,29.9 121.8,17.5 130.5,17 130.2,29.9 134.9,18.3 
		144.5,19.7 139.1,30.3 144.5,24.1 151.1,28.8 139.7,36.6 137.8,37 	"/>
	<path style="fill:#81632A;" d="M140.5,40.7h-20.7c-1.3,0-2.3-1-2.3-2.3v-0.6c0-1.3,1-2.3,2.3-2.3h20.7c1.3,0,2.3,1,2.3,2.3v0.6
		C142.7,39.7,141.7,40.7,140.5,40.7z"/>
</g>
</svg>
