<?xml version="1.0" encoding="utf-8"?>
<!-- Generator: Adobe Illustrator 22.1.0, SVG Export Plug-In . SVG Version: 6.00 Build 0)  -->
<svg version="1.1" id="Layer_1" xmlns="http://www.w3.org/2000/svg" xmlns:xlink="http://www.w3.org/1999/xlink" x="0px" y="0px"
	 viewBox="0 0 256 256" style="enable-background:new 0 0 256 256;" xml:space="preserve">
<g>
	<path style="opacity:0.2;fill:#FFFFFF;" d="M25.5,179.5v-27c0,0,1-16,9-21s20-4,20-4s14,1,20,14s4,25,4,25v25l20,7L99,170
		c0,0-1-30-7-42s-26.7-21.3-38-21s-17.5,0.5-32.5,12.5s-13,56-13,56L25.5,179.5z"/>
	<path style="opacity:0.1;" d="M54.5,127.5c0,0-12-1-20,4s-9,21-9,21v1v26l28-13v-23c1.1-9.3,3-15.7,3-15.7
		C55.3,127.6,54.5,127.5,54.5,127.5z"/>
	<path style="fill:#96DBF6;" d="M54.5,127.5c0,0,0.8,0.1,2,0.3C55.3,127.6,54.5,127.5,54.5,127.5z"/>
	<path style="fill:#96DBF6;" d="M54,127.5C54,127.5,54,127.5,54,127.5C54,127.5,54,127.5,54,127.5z"/>
	<path style="opacity:0.2;" d="M53.5,143.5v7.6c8-1,17.7-1.4,23.8-1.5c-0.6-2.6-1.6-5.3-2.8-8.1c-4.6-10-13.9-12.9-18-13.7
		C56.5,127.8,54.6,134.2,53.5,143.5z"/>
	<path style="fill:#96DBF6;" d="M54.3,127.5C54.3,127.5,54.3,127.5,54.3,127.5C54.3,127.5,54.3,127.5,54.3,127.5z"/>
	<path style="fill:#96DBF6;" d="M54.4,127.5C54.4,127.5,54.4,127.5,54.4,127.5C54.4,127.5,54.4,127.5,54.4,127.5z"/>
	<polyline style="fill:none;stroke:#7CBFCE;stroke-miterlimit:10;" points="77.8,166.3 98.8,170 125.8,157 	"/>
	<polyline style="fill:none;stroke:#7CBFCE;stroke-miterlimit:10;" points="115.8,118.8 92,128 73.8,140.3 	"/>
	<polyline style="fill:none;stroke:#7CBFCE;stroke-miterlimit:10;" points="55.3,127.8 56.5,107 80.3,96.5 	"/>
	<line style="fill:none;stroke:#7CBFCE;stroke-miterlimit:10;" x1="34.5" y1="131.5" x2="22" y2="118.8"/>
	<polyline style="fill:none;stroke:#7CBFCE;stroke-miterlimit:10;" points="9,150.3 25.8,153.3 54,142 	"/>
	<line style="fill:none;stroke:#7CBFCE;stroke-miterlimit:10;" x1="140" y1="146" x2="140" y2="183.5"/>
	<path style="fill:none;stroke:#7CBFCE;stroke-miterlimit:10;" d="M190.3,142c0,0,4.3,28,3.8,37"/>
	<path style="fill:none;stroke:#7CBFCE;stroke-miterlimit:10;" d="M231.5,132c0,0,4.8,33.3,4.8,38"/>
	<path style="fill:none;stroke:#7CBFCE;stroke-miterlimit:10;" d="M241.5,127.8c-20.8,12.7-59.5,19-117,18.3"/>
	<path style="fill:none;stroke:#7CBFCE;stroke-miterlimit:10;" d="M160.5,110c0,0,3.3,27.3,3,35.3"/>
	<path style="fill:none;stroke:#7CBFCE;stroke-miterlimit:10;" d="M205.5,102.3c0,0,12.4,26.3,12.2,35.3"/>
	<path style="fill:none;stroke:#7CBFCE;stroke-miterlimit:10;" d="M227.5,93.3c-20.6,14.1-63.5,17.6-118.3,15.5"/>
	<path style="fill:none;stroke:#7CBFCE;stroke-miterlimit:10;" d="M194,64c-17.8,14.5-86,16.5-108.5,0"/>
	<path style="fill:none;stroke:#7CBFCE;stroke-miterlimit:10;" d="M199.5,104.1c-5.2-11.8-11.3-23.1-18.7-33.7"/>
	<line style="fill:none;stroke:#7CBFCE;stroke-miterlimit:10;" x1="144.2" y1="109.2" x2="141.3" y2="75.6"/>
	<path style="fill:none;stroke:#7CBFCE;stroke-miterlimit:10;" d="M101.8,71.2c0,0-13.3,21-16.3,27"/>
	<line style="fill:none;stroke:#7CBFCE;stroke-miterlimit:10;" x1="52.3" y1="93.3" x2="56.5" y2="96.5"/>
	<path style="fill:none;stroke:#7CBFCE;stroke-miterlimit:10;" d="M148,54.7c6.2,6.5,11.2,13,14,19.6"/>
	<path style="fill:none;stroke:#7CBFCE;stroke-miterlimit:10;" d="M132.1,54.7c-6.3,5.9-11.3,12.4-15,19.6"/>
	<path style="fill:none;stroke:#7CBFCE;stroke-miterlimit:10;" d="M129.1,50.4c0,0-1.4,4.1,7.9,5.4s13.5-1.3,13.4-5.4"/>
</g>
</svg>
