<?xml version="1.0" encoding="utf-8"?>
<!-- Generator: Adobe Illustrator 22.1.0, SVG Export Plug-In . SVG Version: 6.00 Build 0)  -->
<svg version="1.1" id="Layer_1" xmlns="http://www.w3.org/2000/svg" xmlns:xlink="http://www.w3.org/1999/xlink" x="0px" y="0px"
	 viewBox="0 0 256 256" style="enable-background:new 0 0 256 256;" xml:space="preserve">
<g>
	<g>
		<rect x="5.6" y="192.7" style="opacity:0.2;fill-rule:evenodd;clip-rule:evenodd;" width="243.6" height="11.3"/>
		<rect x="21.7" y="103.8" style="opacity:0.2;fill-rule:evenodd;clip-rule:evenodd;" width="10.6" height="84.1"/>
		<rect x="222.5" y="103.8" style="opacity:0.2;fill-rule:evenodd;clip-rule:evenodd;" width="10.6" height="84.1"/>
		<path style="opacity:0.2;fill-rule:evenodd;clip-rule:evenodd;" d="M160.9,167h23.6v3c0,1.6-1.3,3-3,3h-17.6c-1.6,0-3-1.3-3-3V167
			z"/>
		<path style="opacity:0.2;fill-rule:evenodd;clip-rule:evenodd;" d="M41.1,167h23.6v3c0,1.6-1.3,3-3,3H44.1c-1.6,0-3-1.3-3-3V167z"
			/>
		<path style="opacity:0.2;fill-rule:evenodd;clip-rule:evenodd;" d="M190.2,167h23.6v3c0,1.6-1.3,3-3,3h-17.6c-1.6,0-3-1.3-3-3V167
			z"/>
		<path style="opacity:0.2;fill-rule:evenodd;clip-rule:evenodd;" d="M70.4,167h23.6v3c0,1.6-1.3,3-3,3H73.3c-1.6,0-3-1.3-3-3V167z"
			/>
		<path style="opacity:0.2;fill-rule:evenodd;clip-rule:evenodd;" d="M106.1,123.2h15.9v2c0,1.1-0.9,2-2,2H108c-1.1,0-2-0.9-2-2
			V123.2z"/>
		<path style="opacity:0.2;fill-rule:evenodd;clip-rule:evenodd;" d="M52.3,123.2h15.9v2c0,1.1-0.9,2-2,2H54.3c-1.1,0-2-0.9-2-2
			V123.2z"/>
		<path style="opacity:0.2;fill-rule:evenodd;clip-rule:evenodd;" d="M132.9,123.2h15.9v2c0,1.1-0.9,2-2,2h-11.9c-1.1,0-2-0.9-2-2
			V123.2z"/>
		<path style="opacity:0.2;fill-rule:evenodd;clip-rule:evenodd;" d="M159.8,123.2h15.9v2c0,1.1-0.9,2-2,2h-11.9c-1.1,0-2-0.9-2-2
			V123.2z"/>
		<path style="opacity:0.2;fill-rule:evenodd;clip-rule:evenodd;" d="M186.7,123.2h15.9v2c0,1.1-0.9,2-2,2h-11.9c-1.1,0-2-0.9-2-2
			V123.2z"/>
		<path style="opacity:0.2;fill-rule:evenodd;clip-rule:evenodd;" d="M79.2,123.2h15.9v2c0,1.1-0.9,2-2,2H81.2c-1.1,0-2-0.9-2-2
			V123.2z"/>
		<rect x="32.4" y="130.9" style="opacity:0.2;fill-rule:evenodd;clip-rule:evenodd;" width="190.1" height="3.2"/>
	</g>
	<polygon style="fill-rule:evenodd;clip-rule:evenodd;fill:#F3C759;" points="5.6,98.9 44.1,98.9 98.7,98.9 156.1,98.9 182.8,98.9 
		249.2,98.9 223.1,53.3 182.8,53.3 129.9,53.3 124.9,53.3 44.1,53.3 31.8,53.3 	"/>
	<polygon style="fill-rule:evenodd;clip-rule:evenodd;fill:#DCAA48;" points="5.6,98.9 44.1,98.9 98.7,98.9 156.1,98.9 182.8,98.9 
		249.2,98.9 243.4,88.7 11.4,88.7 	"/>
	<path style="fill-rule:evenodd;clip-rule:evenodd;fill:#F2DB92;" d="M17.2,98.9h19.6v2.4c0,1.3-1.1,2.4-2.4,2.4H19.6
		c-1.3,0-2.4-1.1-2.4-2.4V98.9z"/>
	<path style="fill-rule:evenodd;clip-rule:evenodd;fill:#F2DB92;" d="M218,98.9h19.6v2.4c0,1.3-1.1,2.4-2.4,2.4h-14.8
		c-1.3,0-2.4-1.1-2.4-2.4V98.9z"/>
	<path style="fill-rule:evenodd;clip-rule:evenodd;fill:#F2DB92;" d="M17.2,192.7h19.6v-2.4c0-1.3-1.1-2.4-2.4-2.4H19.6
		c-1.3,0-2.4,1.1-2.4,2.4V192.7z"/>
	<path style="fill-rule:evenodd;clip-rule:evenodd;fill:#F2DB92;" d="M218,192.7h19.6v-2.4c0-1.3-1.1-2.4-2.4-2.4h-14.8
		c-1.3,0-2.4,1.1-2.4,2.4V192.7z"/>
	<rect x="105.1" y="136.7" style="fill-rule:evenodd;clip-rule:evenodd;fill:#9A6931;" width="44.6" height="55.9"/>
	<rect x="108.4" y="140.5" style="fill-rule:evenodd;clip-rule:evenodd;fill:#F1E6CB;" width="38" height="52.2"/>
	<rect x="165.9" y="145.8" style="fill-rule:evenodd;clip-rule:evenodd;fill:#F1E6CB;" width="13.6" height="20.2"/>
	<path style="fill-rule:evenodd;clip-rule:evenodd;fill:#9A6931;" d="M176.4,144.7h4.2V167h-4.2v-1.1h3.1v-9.5h-3.1v-1.1h3.1v-9.5
		h-3.1V144.7z M169,144.7h3.1h1.1h3.1v1.1h-3.1v9.5h3.1v1.1h-3.1v9.5h3.1v1.1h-3.1v0h-1.1v0H169v-1.1h3.1v-9.5H169v-1.1h3.1v-9.5
		H169V144.7z M164.8,144.7h4.2v1.1h-3.1v9.5h3.1v1.1h-3.1v9.5h3.1v1.1h-4.2V144.7z"/>
	<rect x="46.1" y="145.8" style="fill-rule:evenodd;clip-rule:evenodd;fill:#F1E6CB;" width="13.6" height="20.2"/>
	<path style="fill-rule:evenodd;clip-rule:evenodd;fill:#9A6931;" d="M56.6,144.7h4.2V167h-4.2v-1.1h3.1v-9.5h-3.1v-1.1h3.1v-9.5
		h-3.1V144.7z M49.2,144.7h3.1h1.1h3.1v1.1h-3.1v9.5h3.1v1.1h-3.1v9.5h3.1v1.1h-3.1v0h-1.1v0h-3.1v-1.1h3.1v-9.5h-3.1v-1.1h3.1v-9.5
		h-3.1V144.7z M45,144.7h4.2v1.1h-3.1v9.5h3.1v1.1h-3.1v9.5h3.1v1.1H45V144.7z"/>
	<rect x="195.2" y="145.8" style="fill-rule:evenodd;clip-rule:evenodd;fill:#F1E6CB;" width="13.6" height="20.2"/>
	<path style="fill-rule:evenodd;clip-rule:evenodd;fill:#9A6931;" d="M205.6,144.7h4.2V167h-4.2v-1.1h3.1v-9.5h-3.1v-1.1h3.1v-9.5
		h-3.1V144.7z M198.3,144.7h3.1h1.1h3.1v1.1h-3.1v9.5h3.1v1.1h-3.1v9.5h3.1v1.1h-3.1v0h-1.1v0h-3.1v-1.1h3.1v-9.5h-3.1v-1.1h3.1
		v-9.5h-3.1V144.7z M194.1,144.7h4.2v1.1h-3.1v9.5h3.1v1.1h-3.1v9.5h3.1v1.1h-4.2V144.7z"/>
	<rect x="75.3" y="145.8" style="fill-rule:evenodd;clip-rule:evenodd;fill:#F1E6CB;" width="13.6" height="20.2"/>
	<path style="fill-rule:evenodd;clip-rule:evenodd;fill:#9A6931;" d="M85.8,144.7h4.2V167h-4.2v-1.1H89v-9.5h-3.1v-1.1H89v-9.5h-3.1
		V144.7z M78.5,144.7h3.1h1.1h3.1v1.1h-3.1v9.5h3.1v1.1h-3.1v9.5h3.1v1.1h-3.1v0h-1.1v0h-3.1v-1.1h3.1v-9.5h-3.1v-1.1h3.1v-9.5h-3.1
		V144.7z M74.3,144.7h4.2v1.1h-3.1v9.5h3.1v1.1h-3.1v9.5h3.1v1.1h-4.2V144.7z"/>
	<rect x="109.4" y="108.9" style="fill-rule:evenodd;clip-rule:evenodd;fill:#F1E6CB;" width="9.2" height="13.6"/>
	<path style="fill-rule:evenodd;clip-rule:evenodd;fill:#9A6931;" d="M116.5,108.2h2.8v15h-2.8v-0.7h2.1v-6.4h-2.1v-0.7h2.1v-6.4
		h-2.1V108.2z M111.5,108.2h2.1h0.7h2.1v0.7h-2.1v6.4h2.1v0.7h-2.1v6.4h2.1v0.7h-2.1v0h-0.7v0h-2.1v-0.7h2.1v-6.4h-2.1v-0.7h2.1
		v-6.4h-2.1V108.2z M108.7,108.2h2.8v0.7h-2.1v6.4h2.1v0.7h-2.1v6.4h2.1v0.7h-2.8V108.2z"/>
	<rect x="55.7" y="108.9" style="fill-rule:evenodd;clip-rule:evenodd;fill:#F1E6CB;" width="9.2" height="13.6"/>
	<path style="fill-rule:evenodd;clip-rule:evenodd;fill:#9A6931;" d="M62.7,108.2h2.8v15h-2.8v-0.7h2.1v-6.4h-2.1v-0.7h2.1v-6.4
		h-2.1V108.2z M57.8,108.2h2.1h0.7h2.1v0.7h-2.1v6.4h2.1v0.7h-2.1v6.4h2.1v0.7h-2.1v0h-0.7v0h-2.1v-0.7h2.1v-6.4h-2.1v-0.7h2.1v-6.4
		h-2.1V108.2z M54.9,108.2h2.8v0.7h-2.1v6.4h2.1v0.7h-2.1v6.4h2.1v0.7h-2.8V108.2z"/>
	<rect x="136.3" y="108.9" style="fill-rule:evenodd;clip-rule:evenodd;fill:#F1E6CB;" width="9.2" height="13.6"/>
	<path style="fill-rule:evenodd;clip-rule:evenodd;fill:#9A6931;" d="M143.3,108.2h2.8v15h-2.8v-0.7h2.1v-6.4h-2.1v-0.7h2.1v-6.4
		h-2.1V108.2z M138.4,108.2h2.1h0.7h2.1v0.7h-2.1v6.4h2.1v0.7h-2.1v6.4h2.1v0.7h-2.1v0h-0.7v0h-2.1v-0.7h2.1v-6.4h-2.1v-0.7h2.1
		v-6.4h-2.1V108.2z M135.5,108.2h2.8v0.7h-2.1v6.4h2.1v0.7h-2.1v6.4h2.1v0.7h-2.8V108.2z"/>
	<rect x="163.1" y="108.9" style="fill-rule:evenodd;clip-rule:evenodd;fill:#F1E6CB;" width="9.2" height="13.6"/>
	<path style="fill-rule:evenodd;clip-rule:evenodd;fill:#9A6931;" d="M170.2,108.2h2.8v15h-2.8v-0.7h2.1v-6.4h-2.1v-0.7h2.1v-6.4
		h-2.1V108.2z M165.2,108.2h2.1h0.7h2.1v0.7h-2.1v6.4h2.1v0.7h-2.1v6.4h2.1v0.7h-2.1v0h-0.7v0h-2.1v-0.7h2.1v-6.4h-2.1v-0.7h2.1
		v-6.4h-2.1V108.2z M162.4,108.2h2.8v0.7h-2.1v6.4h2.1v0.7h-2.1v6.4h2.1v0.7h-2.8V108.2z"/>
	<rect x="190" y="108.9" style="fill-rule:evenodd;clip-rule:evenodd;fill:#F1E6CB;" width="9.2" height="13.6"/>
	<path style="fill-rule:evenodd;clip-rule:evenodd;fill:#9A6931;" d="M197.1,108.2h2.8v15h-2.8v-0.7h2.1v-6.4h-2.1v-0.7h2.1v-6.4
		h-2.1V108.2z M192.1,108.2h2.1h0.7h2.1v0.7H195v6.4h2.1v0.7H195v6.4h2.1v0.7H195v0h-0.7v0h-2.1v-0.7h2.1v-6.4h-2.1v-0.7h2.1v-6.4
		h-2.1V108.2z M189.3,108.2h2.8v0.7H190v6.4h2.1v0.7H190v6.4h2.1v0.7h-2.8V108.2z"/>
	<rect x="82.5" y="108.9" style="fill-rule:evenodd;clip-rule:evenodd;fill:#F1E6CB;" width="9.2" height="13.6"/>
	<path style="fill-rule:evenodd;clip-rule:evenodd;fill:#9A6931;" d="M89.6,108.2h2.8v15h-2.8v-0.7h2.1v-6.4h-2.1v-0.7h2.1v-6.4
		h-2.1V108.2z M84.6,108.2h2.1h0.7h2.1v0.7h-2.1v6.4h2.1v0.7h-2.1v6.4h2.1v0.7h-2.1v0h-0.7v0h-2.1v-0.7h2.1v-6.4h-2.1v-0.7h2.1v-6.4
		h-2.1V108.2z M81.8,108.2h2.8v0.7h-2.1v6.4h2.1v0.7h-2.1v6.4h2.1v0.7h-2.8V108.2z"/>
</g>
</svg>
