<?xml version="1.0" encoding="utf-8"?>
<!-- Generator: Adobe Illustrator 22.1.0, SVG Export Plug-In . SVG Version: 6.00 Build 0)  -->
<svg version="1.1" id="Layer_1" xmlns="http://www.w3.org/2000/svg" xmlns:xlink="http://www.w3.org/1999/xlink" x="0px" y="0px"
	 viewBox="0 0 256 256" style="enable-background:new 0 0 256 256;" xml:space="preserve">
<g>
	
		<rect id="XMLID_245_" x="69.7" y="105.6" transform="matrix(-1.836970e-16 1 -1 -1.836970e-16 260.4436 49.0451)" style="opacity:0.2;fill:#020202;" width="72" height="98.3"/>
	<rect id="XMLID_242_" x="34.4" y="227.6" style="opacity:0.2;fill:#020202;" width="194.6" height="9.4"/>
	<rect id="XMLID_89_" x="164.7" y="114.3" style="opacity:0.2;fill:#020202;" width="51.3" height="113.3"/>
	<rect x="123" y="50" style="fill:#CE5433;" width="2" height="8"/>
	<g id="XMLID_93_">
		<g id="XMLID_211_">
			<g id="XMLID_238_">
				<path id="XMLID_239_" style="fill:#FA4200;" d="M29.2,106.2c4.3,0,7.8-3.8,7.8-8.5H21.4C21.4,102.4,24.9,106.2,29.2,106.2z"/>
			</g>
			<g id="XMLID_236_">
				<path id="XMLID_237_" style="fill:#FA4200;" d="M44.9,106.2c4.3,0,7.8-3.8,7.8-8.5H37C37,102.4,40.5,106.2,44.9,106.2z"/>
			</g>
			<g id="XMLID_234_">
				<path id="XMLID_235_" style="fill:#FA4200;" d="M60.5,106.2c4.3,0,7.8-3.8,7.8-8.5H52.7C52.7,102.4,56.2,106.2,60.5,106.2z"/>
			</g>
			<g id="XMLID_232_">
				<path id="XMLID_233_" style="fill:#FA4200;" d="M76.2,106.2c4.3,0,7.8-3.8,7.8-8.5H68.3C68.3,102.4,71.8,106.2,76.2,106.2z"/>
			</g>
			<g id="XMLID_230_">
				<path id="XMLID_231_" style="fill:#FA4200;" d="M91.8,106.2c4.3,0,7.8-3.8,7.8-8.5H84C84,102.4,87.5,106.2,91.8,106.2z"/>
			</g>
			<g id="XMLID_228_">
				<path id="XMLID_229_" style="fill:#FA4200;" d="M107.5,106.2c4.3,0,7.8-3.8,7.8-8.5H99.6C99.6,102.4,103.1,106.2,107.5,106.2z"
					/>
			</g>
			<g id="XMLID_226_">
				<path id="XMLID_227_" style="fill:#FA4200;" d="M123.1,106.2c4.3,0,7.8-3.8,7.8-8.5h-15.7C115.3,102.4,118.8,106.2,123.1,106.2z
					"/>
			</g>
			<g id="XMLID_224_">
				<path id="XMLID_225_" style="fill:#FA4200;" d="M138.8,106.2c4.3,0,7.8-3.8,7.8-8.5h-15.7C130.9,102.4,134.4,106.2,138.8,106.2z
					"/>
			</g>
			<g id="XMLID_222_">
				<path id="XMLID_223_" style="fill:#FA4200;" d="M154.4,106.2c4.3,0,7.8-3.8,7.8-8.5h-15.7C146.6,102.4,150.1,106.2,154.4,106.2z
					"/>
			</g>
			<g id="XMLID_220_">
				<path id="XMLID_221_" style="fill:#FA4200;" d="M170.1,106.2c4.3,0,7.8-3.8,7.8-8.5h-15.7C162.2,102.4,165.8,106.2,170.1,106.2z
					"/>
			</g>
			<g id="XMLID_218_">
				<path id="XMLID_219_" style="fill:#FA4200;" d="M185.7,106.2c4.3,0,7.8-3.8,7.8-8.5h-15.7C177.9,102.4,181.4,106.2,185.7,106.2z
					"/>
			</g>
			<g id="XMLID_216_">
				<path id="XMLID_217_" style="fill:#FA4200;" d="M201.4,106.2c4.3,0,7.8-3.8,7.8-8.5h-15.7C193.6,102.4,197.1,106.2,201.4,106.2z
					"/>
			</g>
			<g id="XMLID_214_">
				<path id="XMLID_215_" style="fill:#FA4200;" d="M217.1,106.2c4.3,0,7.8-3.8,7.8-8.5h-15.7C209.2,102.4,212.7,106.2,217.1,106.2z
					"/>
			</g>
			<g id="XMLID_212_">
				<path id="XMLID_213_" style="fill:#FA4200;" d="M232.7,106.2c4.3,0,7.8-3.8,7.8-8.5h-15.7C224.9,102.4,228.4,106.2,232.7,106.2z
					"/>
			</g>
		</g>
		<g id="XMLID_172_">
			<path id="XMLID_210_" style="fill:#FA4200;" d="M29.2,103.6c-3.5,0-6.4-2.5-7.5-5.9h-0.4c0,4.7,3.5,8.5,7.8,8.5s7.8-3.8,7.8-8.5
				h-0.4C35.7,101.1,32.7,103.6,29.2,103.6z"/>
			<path id="XMLID_209_" style="fill:#FA4200;" d="M44.9,103.6c-3.5,0-6.4-2.5-7.5-5.9H37c0,4.7,3.5,8.5,7.8,8.5s7.8-3.8,7.8-8.5
				h-0.4C51.3,101.1,48.3,103.6,44.9,103.6z"/>
			<path id="XMLID_208_" style="fill:#FA4200;" d="M60.5,103.6c-3.5,0-6.4-2.5-7.5-5.9h-0.4c0,4.7,3.5,8.5,7.8,8.5s7.8-3.8,7.8-8.5
				H68C67,101.1,64,103.6,60.5,103.6z"/>
			<path id="XMLID_207_" style="fill:#FA4200;" d="M76.2,103.6c-3.5,0-6.4-2.5-7.5-5.9h-0.4c0,4.7,3.5,8.5,7.8,8.5
				c4.3,0,7.8-3.8,7.8-8.5h-0.4C82.6,101.1,79.6,103.6,76.2,103.6z"/>
			<path id="XMLID_206_" style="fill:#FA4200;" d="M91.9,103.6c-3.5,0-6.4-2.5-7.5-5.9H84c0,4.7,3.5,8.5,7.8,8.5s7.8-3.8,7.8-8.5
				h-0.4C98.3,101.1,95.3,103.6,91.9,103.6z"/>
			<path id="XMLID_199_" style="fill:#FA4200;" d="M107.5,103.6c-3.5,0-6.4-2.5-7.5-5.9h-0.4c0,4.7,3.5,8.5,7.8,8.5
				c4.3,0,7.8-3.8,7.8-8.5h-0.4C113.9,101.1,111,103.6,107.5,103.6z"/>
			<path id="XMLID_197_" style="fill:#FA4200;" d="M123.2,103.6c-3.5,0-6.4-2.5-7.5-5.9h-0.4c0,4.7,3.5,8.5,7.8,8.5s7.8-3.8,7.8-8.5
				h-0.4C129.6,101.1,126.6,103.6,123.2,103.6z"/>
			<path id="XMLID_195_" style="fill:#FA4200;" d="M138.8,103.6c-3.5,0-6.4-2.5-7.5-5.9h-0.4c0,4.7,3.5,8.5,7.8,8.5
				c4.3,0,7.8-3.8,7.8-8.5h-0.4C145.2,101.1,142.3,103.6,138.8,103.6z"/>
			<path id="XMLID_178_" style="fill:#FA4200;" d="M154.5,103.6c-3.5,0-6.4-2.5-7.5-5.9h-0.4c0,4.7,3.5,8.5,7.8,8.5
				c4.3,0,7.8-3.8,7.8-8.5h-0.4C160.9,101.1,158,103.6,154.5,103.6z"/>
			<path id="XMLID_177_" style="fill:#FA4200;" d="M170.1,103.6c-3.5,0-6.4-2.5-7.5-5.9h-0.4c0,4.7,3.5,8.5,7.8,8.5
				c4.3,0,7.8-3.8,7.8-8.5h-0.4C176.5,101.1,173.6,103.6,170.1,103.6z"/>
			<path id="XMLID_176_" style="fill:#FA4200;" d="M185.8,103.6c-3.5,0-6.4-2.5-7.5-5.9h-0.4c0,4.7,3.5,8.5,7.8,8.5
				c4.3,0,7.8-3.8,7.8-8.5h-0.4C192.2,101.1,189.3,103.6,185.8,103.6z"/>
			<path id="XMLID_175_" style="fill:#FA4200;" d="M201.4,103.6c-3.5,0-6.4-2.5-7.5-5.9h-0.4c0,4.7,3.5,8.5,7.8,8.5s7.8-3.8,7.8-8.5
				h-0.4C207.8,101.1,204.9,103.6,201.4,103.6z"/>
			<path id="XMLID_174_" style="fill:#FA4200;" d="M217.1,103.6c-3.5,0-6.4-2.5-7.5-5.9h-0.4c0,4.7,3.5,8.5,7.8,8.5
				c4.3,0,7.8-3.8,7.8-8.5h-0.4C223.5,101.1,220.6,103.6,217.1,103.6z"/>
			<path id="XMLID_173_" style="fill:#FA4200;" d="M232.7,103.6c-3.5,0-6.4-2.5-7.5-5.9h-0.4c0,4.7,3.5,8.5,7.8,8.5
				c4.3,0,7.8-3.8,7.8-8.5h-0.4C239.1,101.1,236.2,103.6,232.7,103.6z"/>
		</g>
		<g id="XMLID_94_">
			<rect id="XMLID_167_" x="21.4" y="56.8" style="fill:#FA4200;" width="219.6" height="40.9"/>
		</g>
	</g>
	<rect id="XMLID_88_" x="169.5" y="118.7" style="fill:#A3291B;" width="42.9" height="108.9"/>
	<g>
		<g>
			<path style="fill:#CE5433;" d="M124,21.2c-7.5,0-13.5,6.1-13.5,13.5c0,5.4,3.2,10,7.7,12.2l0.4-8.2c0,0-0.8-0.3-1-0.3
				c-1.7-0.7-2.9-2.9-2.9-5.8c0-3.1,2.4-5.8,4.7-5.8c0,0,0,0,0,0c0,0,0,0,0,0c2.3,0,4.7,2.7,4.7,5.8c0,2.8-1.2,5-2.9,5.8
				c0,0-1,0.4-1,0.4l0.5,9.1c1,0.3,2.1,0.4,3.2,0.4c1.5,0,2.9-0.3,4.3-0.7l0.4-8.1c-1.1-0.2-2-0.9-2.6-1.8
				c-0.7-1.1,0.6-10.8,0.6-10.8h0.8v9.1h0.8v-9.1h0.9v9.1h0.8v-9.1h0.9v9.1h0.8v-9.1h0.6c0,0,1.3,9.7,0.6,10.8
				c-0.6,0.9-1.5,1.6-2.6,1.8c0,0,0,0,0,0l0.4,7c4-2.3,6.7-6.7,6.7-11.7C137.5,27.3,131.4,21.2,124,21.2z"/>
			<path style="fill:#CE5433;" d="M116.7,31.3c0-0.2,0.1-0.4,0.1-0.4c0-0.1,0-0.1-0.1-0.2c-0.1,0-0.2,0-0.2,0c0,0-0.1,0.1-0.2,0.4
				c-0.1,0.2-0.3,0.5-0.4,0.9c-0.1,0.3-0.2,0.8-0.3,1.2c0,0.3,0,0.5,0,0.7c0,0.3,0.1,0.5,0.1,0.8c0.3,0.8,0.5,1.5,1.2,2.2
				c0.2,0.2,0.5,0.4,0.6,0.5l0.1,0c0,0,0.1,0,0.1,0.1c0.1,0.1,0.2,0.1,0.3,0.1c0.1,0,0.1,0,0.2-0.1c0-0.1,0-0.1-0.1-0.2
				c0,0-0.1-0.1-0.2-0.2c-0.1-0.1-0.2-0.2-0.2-0.3c-0.1-0.1-0.1-0.2-0.2-0.3c-0.4-0.5-0.6-1.3-0.9-2.1c-0.1-0.2-0.1-0.4-0.1-0.6
				c0-0.2,0-0.4,0-0.6c0-0.4,0-0.8,0.1-1.1C116.6,31.7,116.6,31.5,116.7,31.3z"/>
			<path style="fill:#CE5433;" d="M124,18.7c-8.8,0-16,7.2-16,16c0,8.8,7.2,16,16,16c8.8,0,16-7.2,16-16
				C140,25.9,132.8,18.7,124,18.7z M124,49.6c-8.2,0-14.8-6.7-14.8-14.8c0-8.2,6.7-14.8,14.8-14.8c8.2,0,14.8,6.7,14.8,14.8
				C138.8,42.9,132.1,49.6,124,49.6z"/>
		</g>
	</g>
	
		<rect id="XMLID_244_" x="73.5" y="109.5" transform="matrix(-1.836970e-16 1 -1 -1.836970e-16 260.4196 48.71)" style="fill:#6ACEE5;" width="64.7" height="90.1"/>
</g>
</svg>
