<?xml version="1.0" encoding="utf-8"?>
<!-- Generator: Adobe Illustrator 22.1.0, SVG Export Plug-In . SVG Version: 6.00 Build 0)  -->
<svg version="1.1" id="Layer_1" xmlns="http://www.w3.org/2000/svg" xmlns:xlink="http://www.w3.org/1999/xlink" x="0px" y="0px"
	 viewBox="0 0 256 256" style="enable-background:new 0 0 256 256;" xml:space="preserve">
<g>
	<rect x="95" y="33.5" style="fill:#45C0DD;" width="15.4" height="21"/>
	<rect x="120.7" y="33.5" style="fill:#45C0DD;" width="15.4" height="21"/>
	<rect x="147.6" y="33.5" style="fill:#45C0DD;" width="15.4" height="21"/>
	<rect x="95" y="64.5" style="fill:#45C0DD;" width="15.4" height="21"/>
	<rect x="120.7" y="64.5" style="fill:#45C0DD;" width="15.4" height="21"/>
	<rect x="147.6" y="64.5" style="fill:#45C0DD;" width="15.4" height="21"/>
	<rect x="95" y="95.5" style="fill:#45C0DD;" width="15.4" height="21"/>
	<rect x="120.7" y="95.5" style="fill:#45C0DD;" width="15.4" height="21"/>
	<rect x="147.6" y="95.5" style="fill:#45C0DD;" width="15.4" height="21"/>
	<rect x="95" y="126.5" style="fill:#45C0DD;" width="15.4" height="21"/>
	<rect x="120.7" y="126.5" style="fill:#45C0DD;" width="15.4" height="21"/>
	<rect x="147.6" y="126.5" style="fill:#45C0DD;" width="15.4" height="21"/>
	<rect x="95" y="157.5" style="fill:#45C0DD;" width="15.4" height="21"/>
	<rect x="120.7" y="157.5" style="fill:#45C0DD;" width="15.4" height="21"/>
	<rect x="147.6" y="157.5" style="fill:#45C0DD;" width="15.4" height="21"/>
	<rect x="95" y="188.5" style="fill:#45C0DD;" width="15.4" height="21"/>
	<rect x="120.7" y="188.5" style="fill:#45C0DD;" width="15.4" height="21"/>
	<rect x="114.5" y="216.5" style="fill:#45C0DD;" width="28" height="32"/>
	<rect x="147.6" y="188.5" style="fill:#45C0DD;" width="15.4" height="21"/>
	<rect x="84.5" y="13.5" style="opacity:0.2;" width="87" height="9"/>
</g>
</svg>
