<?xml version="1.0" encoding="utf-8"?>
<!-- Generator: Adobe Illustrator 22.1.0, SVG Export Plug-In . SVG Version: 6.00 Build 0)  -->
<svg version="1.1" id="Layer_1" xmlns="http://www.w3.org/2000/svg" xmlns:xlink="http://www.w3.org/1999/xlink" x="0px" y="0px"
	 viewBox="0 0 256 256" style="enable-background:new 0 0 256 256;" xml:space="preserve">
<g>
	<polygon style="opacity:0.2;" points="189.7,201.6 189.7,117.9 187.9,117.9 187.9,201.6 129.5,201.6 129.5,117.9 127.7,117.9 
		127.7,201.6 68.1,201.6 68.1,117.9 66.3,117.9 66.3,201.6 5.4,201.6 5.4,205.2 252,205.2 252,201.6 	"/>
	<rect x="7" y="102.2" style="fill:#44403F;" width="121.6" height="18.5"/>
	<rect x="12.9" y="123.5" style="fill:#C2E7E8;stroke:#FFFFFF;stroke-miterlimit:10;" width="9.9" height="27.6"/>
	<rect x="12.9" y="136.1" style="fill:#FFFFFF;" width="9.9" height="2.2"/>
	<rect x="39.4" y="123.5" style="fill:#C2E7E8;stroke:#FFFFFF;stroke-miterlimit:10;" width="17.8" height="27.6"/>
	<rect x="39.4" y="136.1" style="fill:#FFFFFF;" width="17.8" height="2.2"/>
	<rect x="39.4" y="162" style="fill:#C2E7E8;stroke:#FFFFFF;stroke-miterlimit:10;" width="17.8" height="27.6"/>
	<rect x="39.4" y="174.6" style="fill:#FFFFFF;" width="17.8" height="2.2"/>
	<rect x="77.8" y="162" style="fill:#C2E7E8;stroke:#FFFFFF;stroke-miterlimit:10;" width="17.8" height="27.6"/>
	<rect x="77.8" y="174.6" style="fill:#FFFFFF;" width="17.8" height="2.2"/>
	<rect x="77.8" y="123.5" style="fill:#C2E7E8;stroke:#FFFFFF;stroke-miterlimit:10;" width="17.8" height="27.6"/>
	<rect x="77.8" y="136.1" style="fill:#FFFFFF;" width="17.8" height="2.2"/>
	<rect x="112.6" y="123.5" style="fill:#C2E7E8;stroke:#FFFFFF;stroke-miterlimit:10;" width="9.6" height="27.6"/>
	<rect x="112.6" y="136.1" style="fill:#FFFFFF;" width="9.6" height="2.2"/>
	<path style="fill:#D5D2C7;" d="M11.2,124.2v-4c4.3-1.8,8.7-1.6,13.2,0v4H11.2z"/>
	<path style="fill:#D5D2C7;" d="M110.8,124.2v-4c4.3-1.8,8.7-1.6,13.2,0v4H110.8z"/>
	<path style="fill:#D5D2C7;" d="M36.9,124.2v-4.3c7.3-2,14.9-1.8,22.7,0v4.3H36.9z"/>
	<path style="fill:#D5D2C7;" d="M36.9,162v-4.3c7.3-2,14.9-1.8,22.7,0v4.3H36.9z"/>
	<path style="fill:#D5D2C7;" d="M75.4,124.2v-4.3c7.3-2,14.9-1.8,22.7,0v4.3H75.4z"/>
	<path style="fill:#D5D2C7;" d="M75.4,162v-4.3c7.3-2,14.9-1.8,22.7,0v4.3H75.4z"/>
	<rect x="10.1" y="169.3" style="fill:#FFFFFF;" width="15.6" height="33.2"/>
	<rect x="109.6" y="169.3" style="fill:#FFFFFF;" width="15.6" height="33.2"/>
	<circle style="fill:#AF8433;" cx="11" cy="186.1" r="1"/>
	<circle style="fill:#AF8433;" cx="112.1" cy="186.1" r="1"/>
	<rect x="128.6" y="102.2" style="fill:#44403F;" width="121.6" height="18.5"/>
	<rect x="134.5" y="123.5" style="fill:#C2E7E8;stroke:#FFFFFF;stroke-miterlimit:10;" width="9.9" height="27.6"/>
	<rect x="134.5" y="136.1" style="fill:#FFFFFF;" width="9.9" height="2.2"/>
	<rect x="161" y="123.5" style="fill:#C2E7E8;stroke:#FFFFFF;stroke-miterlimit:10;" width="17.8" height="27.6"/>
	<rect x="161" y="136.1" style="fill:#FFFFFF;" width="17.8" height="2.2"/>
	<rect x="137.9" y="162" style="fill:#C2E7E8;stroke:#FFFFFF;stroke-miterlimit:10;" width="17.8" height="27.6"/>
	<rect x="137.9" y="174.6" style="fill:#FFFFFF;" width="17.8" height="2.2"/>
	<rect x="199.4" y="162" style="fill:#C2E7E8;stroke:#FFFFFF;stroke-miterlimit:10;" width="17.8" height="27.6"/>
	<rect x="199.4" y="174.6" style="fill:#FFFFFF;" width="17.8" height="2.2"/>
	<rect x="199.4" y="123.5" style="fill:#C2E7E8;stroke:#FFFFFF;stroke-miterlimit:10;" width="17.8" height="27.6"/>
	<rect x="199.4" y="136.1" style="fill:#FFFFFF;" width="17.8" height="2.2"/>
	<rect x="234.2" y="123.5" style="fill:#C2E7E8;stroke:#FFFFFF;stroke-miterlimit:10;" width="9.6" height="27.6"/>
	<rect x="234.2" y="136.1" style="fill:#FFFFFF;" width="9.6" height="2.2"/>
	<path style="fill:#D5D2C7;" d="M132.8,124.2v-4c4.3-1.8,8.7-1.6,13.2,0v4H132.8z"/>
	<path style="fill:#D5D2C7;" d="M232.4,124.2v-4c4.3-1.8,8.7-1.6,13.2,0v4H232.4z"/>
	<path style="fill:#D5D2C7;" d="M158.5,124.2v-4.3c7.3-2,14.9-1.8,22.7,0v4.3H158.5z"/>
	<path style="fill:#D5D2C7;" d="M135.4,162v-4.3c7.3-2,14.9-1.8,22.7,0v4.3H135.4z"/>
	<path style="fill:#D5D2C7;" d="M197,124.2v-4.3c7.3-2,14.9-1.8,22.7,0v4.3H197z"/>
	<path style="fill:#D5D2C7;" d="M197,162v-4.3c7.3-2,14.9-1.8,22.7,0v4.3H197z"/>
	<rect x="168.6" y="169.3" style="fill:#FFFFFF;" width="15.6" height="33.2"/>
	<rect x="231.2" y="169.3" style="fill:#FFFFFF;" width="15.6" height="33.2"/>
	<circle style="fill:#AF8433;" cx="169.5" cy="186.1" r="1"/>
	<circle style="fill:#AF8433;" cx="233.7" cy="186.1" r="1"/>
</g>
</svg>
