<?xml version="1.0" encoding="utf-8"?>
<!-- Generator: Adobe Illustrator 22.1.0, SVG Export Plug-In . SVG Version: 6.00 Build 0)  -->
<svg version="1.1" id="Layer_1" xmlns="http://www.w3.org/2000/svg" xmlns:xlink="http://www.w3.org/1999/xlink" x="0px" y="0px"
	 viewBox="0 0 256 256" style="enable-background:new 0 0 256 256;" xml:space="preserve">
<g>
	<polygon style="fill:#9A4832;" points="63.3,103.2 71.3,103.2 71.3,95 71.8,95 71.8,94 71.3,94 71.3,92.7 71.8,92.7 71.8,91.7 
		71.3,91.7 71.3,91.1 63.3,91.1 63.3,91.7 62.7,91.7 62.7,92.7 63.3,92.7 63.3,94 62.7,94 62.7,95 63.3,95 	"/>
	<polygon style="fill:#9A4832;" points="184.9,103.2 192.9,103.2 192.9,95 193.4,95 193.4,94 192.9,94 192.9,92.7 193.4,92.7 
		193.4,91.7 192.9,91.7 192.9,91.1 184.9,91.1 184.9,91.7 184.3,91.7 184.3,92.7 184.9,92.7 184.9,94 184.3,94 184.3,95 184.9,95 	
		"/>
	<polygon style="fill:#9A4832;" points="250.2,201.6 250.2,117.9 189.7,117.9 187.9,117.9 129.5,117.9 128.6,117.9 127.7,117.9 
		68.1,117.9 66.3,117.9 7,117.9 7,201.6 5.4,201.6 5.4,205.2 252,205.2 252,201.6 	"/>
</g>
</svg>
