<?xml version="1.0" encoding="utf-8"?>
<!-- Generator: Adobe Illustrator 22.1.0, SVG Export Plug-In . SVG Version: 6.00 Build 0)  -->
<svg version="1.1" id="Layer_1" xmlns="http://www.w3.org/2000/svg" xmlns:xlink="http://www.w3.org/1999/xlink" x="0px" y="0px"
	 viewBox="0 0 256 256" style="enable-background:new 0 0 256 256;" xml:space="preserve">
<g>
	<rect x="96" y="172" style="opacity:0.2;" width="123.6" height="5.5"/>
	<ellipse style="fill:#A3C147;" cx="69.2" cy="29.2" rx="41" ry="25.7"/>
	<ellipse style="fill:#A3C147;" cx="70.2" cy="68.6" rx="17" ry="9.3"/>
	<ellipse style="fill:#A3C147;" cx="204.2" cy="53.3" rx="43.8" ry="24.6"/>
	<ellipse style="fill:#A3C147;" cx="207" cy="86.6" rx="8.2" ry="4.4"/>
	<ellipse style="fill:#A3C147;" cx="199.9" cy="197.7" rx="30.6" ry="13.7"/>
	<path style="fill:#846436;" d="M138.1,87.2c0,0-9.3-13.7-21.3-23.5S99.2,44,104.7,33c5.5-10.9-4.4-15.3-5.5-4.4
		c-1.1,10.9,1.1,10.9-3.3,12c-4.4,1.1-54.7-3.3-51.4,1.1c3.3,4.4,2.2,1.1,19.7,3.3s27.3,0,31.7,7.7c4.4,7.7,16.4,14.2,0,14.2
		s-25.2-1.1-25.2-1.1s42.7,4.4,45.9,10.9c3.3,6.6,9.3,14.8,9.3,14.8"/>
	<path style="fill:#846436;" d="M182.4,88.3l23-3.3h-24.1c0,0-3.3-8.8,5.5-13.1c8.8-4.4,29.5,2.2,30.6-3.3
		c1.1-5.5-13.1-4.4-25.2-1.1c-12,3.3-14.2-2.2-15.3-7.7c-1.1-5.5-9.8-8.8-6.6-3.3s13.1,13.1,1.1,25.2"/>
	<path style="fill:#846436;" d="M145.1,177.2c0,0,10.9,20.8,4.4,38.3c-6.6,17.5-6.6,39.4-6.6,39.4l31.7-2.2c0,0-9.8-16.4-6.6-27.3
		c0,0,23-10.9,25.2-29.5h-5.5c0,0-5.5,14.2-18.6,19.7l0.5-38.2"/>
	<rect x="115.1" y="132" style="fill:#372821;" width="20.8" height="39.4"/>
	<polygon style="fill:#262227;" points="92.1,104.7 157.8,81.7 222.3,102.5 222.3,98.1 157.8,76.2 89.9,98.1 	"/>
	<rect x="161" y="126.6" style="fill:#372821;" width="28.4" height="26.3"/>
	<polygon style="fill:#372821;" points="213.8,105.8 213.5,103.6 157.8,85 104.2,103.6 104.8,105.8 	"/>
</g>
</svg>
