<?xml version="1.0" encoding="utf-8"?>
<!-- Generator: Adobe Illustrator 22.1.0, SVG Export Plug-In . SVG Version: 6.00 Build 0)  -->
<svg version="1.1" id="Layer_1" xmlns="http://www.w3.org/2000/svg" xmlns:xlink="http://www.w3.org/1999/xlink" x="0px" y="0px"
	 viewBox="0 0 256 256" style="enable-background:new 0 0 256 256;" xml:space="preserve">
<g>
	<rect x="66.6" y="34.1" style="fill:#A5E2FD;" width="7.5" height="14.8"/>
	<rect x="74.7" y="34.1" style="fill:#A5E2FD;" width="7.5" height="14.8"/>
	<rect x="82.9" y="34.1" style="fill:#A5E2FD;" width="7.5" height="14.8"/>
	<rect x="91" y="34.1" style="fill:#A5E2FD;" width="7.5" height="14.8"/>
	<rect x="99.1" y="34.1" style="fill:#A5E2FD;" width="7.5" height="14.8"/>
	<rect x="107.3" y="34.1" style="fill:#A5E2FD;" width="7.5" height="14.8"/>
	<rect x="115.4" y="34.1" style="fill:#A5E2FD;" width="7.5" height="14.8"/>
	<rect x="123.6" y="34.1" style="fill:#A5E2FD;" width="7.5" height="14.8"/>
	<rect x="66.6" y="55.6" style="fill:#A5E2FD;" width="7.5" height="14.8"/>
	<rect x="74.7" y="55.6" style="fill:#A5E2FD;" width="7.5" height="14.8"/>
	<rect x="82.9" y="55.6" style="fill:#A5E2FD;" width="7.5" height="14.8"/>
	<rect x="91" y="55.6" style="fill:#A5E2FD;" width="7.5" height="14.8"/>
	<rect x="99.1" y="55.6" style="fill:#A5E2FD;" width="7.5" height="14.8"/>
	<rect x="107.3" y="55.6" style="fill:#A5E2FD;" width="7.5" height="14.8"/>
	<rect x="115.4" y="55.6" style="fill:#A5E2FD;" width="7.5" height="14.8"/>
	<rect x="123.6" y="55.6" style="fill:#A5E2FD;" width="7.5" height="14.8"/>
	<rect x="66.6" y="87.2" style="fill:#A5E2FD;" width="7.5" height="14.8"/>
	<rect x="74.7" y="87.2" style="fill:#A5E2FD;" width="7.5" height="14.8"/>
	<rect x="82.9" y="87.2" style="fill:#A5E2FD;" width="7.5" height="14.8"/>
	<rect x="91" y="87.2" style="fill:#A5E2FD;" width="7.5" height="14.8"/>
	<rect x="99.1" y="87.2" style="fill:#A5E2FD;" width="7.5" height="14.8"/>
	<rect x="107.3" y="87.2" style="fill:#A5E2FD;" width="7.5" height="14.8"/>
	<rect x="115.4" y="87.2" style="fill:#A5E2FD;" width="7.5" height="14.8"/>
	<rect x="123.6" y="87.2" style="fill:#A5E2FD;" width="7.5" height="14.8"/>
	<rect x="66.6" y="108.7" style="fill:#A5E2FD;" width="7.5" height="14.8"/>
	<rect x="74.7" y="108.7" style="fill:#A5E2FD;" width="7.5" height="14.8"/>
	<rect x="82.9" y="108.7" style="fill:#A5E2FD;" width="7.5" height="14.8"/>
	<rect x="91" y="108.7" style="fill:#A5E2FD;" width="7.5" height="14.8"/>
	<rect x="99.1" y="108.7" style="fill:#A5E2FD;" width="7.5" height="14.8"/>
	<rect x="107.3" y="108.7" style="fill:#A5E2FD;" width="7.5" height="14.8"/>
	<rect x="115.4" y="108.7" style="fill:#A5E2FD;" width="7.5" height="14.8"/>
	<rect x="123.6" y="108.7" style="fill:#A5E2FD;" width="7.5" height="14.8"/>
	<rect x="66.6" y="139.4" style="fill:#A5E2FD;" width="7.5" height="14.8"/>
	<rect x="74.7" y="139.4" style="fill:#A5E2FD;" width="7.5" height="14.8"/>
	<rect x="82.9" y="139.4" style="fill:#A5E2FD;" width="7.5" height="14.8"/>
	<rect x="91" y="139.4" style="fill:#A5E2FD;" width="7.5" height="14.8"/>
	<rect x="99.1" y="139.4" style="fill:#A5E2FD;" width="7.5" height="14.8"/>
	<rect x="107.3" y="139.4" style="fill:#A5E2FD;" width="7.5" height="14.8"/>
	<rect x="115.4" y="139.4" style="fill:#A5E2FD;" width="7.5" height="14.8"/>
	<rect x="123.6" y="139.4" style="fill:#A5E2FD;" width="7.5" height="14.8"/>
	<rect x="66.6" y="160.9" style="fill:#A5E2FD;" width="7.5" height="14.8"/>
	<rect x="74.7" y="160.9" style="fill:#A5E2FD;" width="7.5" height="14.8"/>
	<rect x="82.9" y="160.9" style="fill:#A5E2FD;" width="7.5" height="14.8"/>
	<rect x="91" y="160.9" style="fill:#A5E2FD;" width="7.5" height="14.8"/>
	<rect x="99.1" y="160.9" style="fill:#A5E2FD;" width="7.5" height="14.8"/>
	<rect x="107.3" y="160.9" style="fill:#A5E2FD;" width="7.5" height="14.8"/>
	<rect x="115.4" y="160.9" style="fill:#A5E2FD;" width="7.5" height="14.8"/>
	<rect x="123.6" y="160.9" style="fill:#A5E2FD;" width="7.5" height="14.8"/>
	<rect x="86.6" y="192" style="fill:#BC845E;" width="24.4" height="42.8"/>
	<rect x="85" y="192" style="fill:#E5AE89;" width="1.6" height="42.8"/>
	<rect x="88.8" y="192" style="fill:#E5AE89;" width="1.6" height="42.8"/>
	<rect x="107.3" y="192" style="fill:#E5AE89;" width="1.6" height="42.8"/>
	<rect x="111" y="192" style="fill:#E5AE89;" width="1.6" height="42.8"/>
	<rect x="68.8" y="192" style="fill:#A5E2FD;" width="11.6" height="39.6"/>
	<rect x="116.7" y="192" style="fill:#A5E2FD;" width="11.6" height="39.6"/>
	<rect x="92.4" y="195.5" style="fill:#7FD8EF;" width="6.2" height="39.3"/>
	<rect x="99.1" y="195.5" style="fill:#7FD8EF;" width="6.2" height="39.3"/>
	<rect x="144.6" y="34.1" style="fill:#A5E2FD;" width="7.5" height="14.8"/>
	<rect x="152.7" y="34.1" style="fill:#A5E2FD;" width="7.5" height="14.8"/>
	<rect x="160.9" y="34.1" style="fill:#A5E2FD;" width="7.5" height="14.8"/>
	<rect x="169" y="34.1" style="fill:#A5E2FD;" width="7.5" height="14.8"/>
	<rect x="177.1" y="34.1" style="fill:#A5E2FD;" width="7.5" height="14.8"/>
	<rect x="185.3" y="34.1" style="fill:#A5E2FD;" width="7.5" height="14.8"/>
	<rect x="193.4" y="34.1" style="fill:#A5E2FD;" width="7.5" height="14.8"/>
	<rect x="201.6" y="34.1" style="fill:#A5E2FD;" width="7.5" height="14.8"/>
	<rect x="144.6" y="55.6" style="fill:#A5E2FD;" width="7.5" height="14.8"/>
	<rect x="152.7" y="55.6" style="fill:#A5E2FD;" width="7.5" height="14.8"/>
	<rect x="160.9" y="55.6" style="fill:#A5E2FD;" width="7.5" height="14.8"/>
	<rect x="169" y="55.6" style="fill:#A5E2FD;" width="7.5" height="14.8"/>
	<rect x="177.1" y="55.6" style="fill:#A5E2FD;" width="7.5" height="14.8"/>
	<rect x="185.3" y="55.6" style="fill:#A5E2FD;" width="7.5" height="14.8"/>
	<rect x="193.4" y="55.6" style="fill:#A5E2FD;" width="7.5" height="14.8"/>
	<rect x="201.6" y="55.6" style="fill:#A5E2FD;" width="7.5" height="14.8"/>
	<rect x="144.6" y="87.2" style="fill:#A5E2FD;" width="7.5" height="14.8"/>
	<rect x="152.7" y="87.2" style="fill:#A5E2FD;" width="7.5" height="14.8"/>
	<rect x="160.9" y="87.2" style="fill:#A5E2FD;" width="7.5" height="14.8"/>
	<rect x="169" y="87.2" style="fill:#A5E2FD;" width="7.5" height="14.8"/>
	<rect x="177.1" y="87.2" style="fill:#A5E2FD;" width="7.5" height="14.8"/>
	<rect x="185.3" y="87.2" style="fill:#A5E2FD;" width="7.5" height="14.8"/>
	<rect x="193.4" y="87.2" style="fill:#A5E2FD;" width="7.5" height="14.8"/>
	<rect x="201.6" y="87.2" style="fill:#A5E2FD;" width="7.5" height="14.8"/>
	<rect x="144.6" y="108.7" style="fill:#A5E2FD;" width="7.5" height="14.8"/>
	<rect x="152.7" y="108.7" style="fill:#A5E2FD;" width="7.5" height="14.8"/>
	<rect x="160.9" y="108.7" style="fill:#A5E2FD;" width="7.5" height="14.8"/>
	<rect x="169" y="108.7" style="fill:#A5E2FD;" width="7.5" height="14.8"/>
	<rect x="177.1" y="108.7" style="fill:#A5E2FD;" width="7.5" height="14.8"/>
	<rect x="185.3" y="108.7" style="fill:#A5E2FD;" width="7.5" height="14.8"/>
	<rect x="193.4" y="108.7" style="fill:#A5E2FD;" width="7.5" height="14.8"/>
	<rect x="201.6" y="108.7" style="fill:#A5E2FD;" width="7.5" height="14.8"/>
	<rect x="144.6" y="139.4" style="fill:#A5E2FD;" width="7.5" height="14.8"/>
	<rect x="152.7" y="139.4" style="fill:#A5E2FD;" width="7.5" height="14.8"/>
	<rect x="160.9" y="139.4" style="fill:#A5E2FD;" width="7.5" height="14.8"/>
	<rect x="169" y="139.4" style="fill:#A5E2FD;" width="7.5" height="14.8"/>
	<rect x="177.1" y="139.4" style="fill:#A5E2FD;" width="7.5" height="14.8"/>
	<rect x="185.3" y="139.4" style="fill:#A5E2FD;" width="7.5" height="14.8"/>
	<rect x="193.4" y="139.4" style="fill:#A5E2FD;" width="7.5" height="14.8"/>
	<rect x="201.6" y="139.4" style="fill:#A5E2FD;" width="7.5" height="14.8"/>
	<rect x="144.6" y="160.9" style="fill:#A5E2FD;" width="7.5" height="14.8"/>
	<rect x="152.7" y="160.9" style="fill:#A5E2FD;" width="7.5" height="14.8"/>
	<rect x="160.9" y="160.9" style="fill:#A5E2FD;" width="7.5" height="14.8"/>
	<rect x="169" y="160.9" style="fill:#A5E2FD;" width="7.5" height="14.8"/>
	<rect x="177.1" y="160.9" style="fill:#A5E2FD;" width="7.5" height="14.8"/>
	<rect x="185.3" y="160.9" style="fill:#A5E2FD;" width="7.5" height="14.8"/>
	<rect x="193.4" y="160.9" style="fill:#A5E2FD;" width="7.5" height="14.8"/>
	<rect x="201.6" y="160.9" style="fill:#A5E2FD;" width="7.5" height="14.8"/>
	<rect x="164.6" y="192" style="fill:#BC845E;" width="24.4" height="42.8"/>
	<rect x="163" y="192" style="fill:#E5AE89;" width="1.6" height="42.8"/>
	<rect x="166.8" y="192" style="fill:#E5AE89;" width="1.6" height="42.8"/>
	<rect x="185.3" y="192" style="fill:#E5AE89;" width="1.6" height="42.8"/>
	<rect x="189" y="192" style="fill:#E5AE89;" width="1.6" height="42.8"/>
	<rect x="146.8" y="192" style="fill:#A5E2FD;" width="11.6" height="39.6"/>
	<rect x="194.7" y="192" style="fill:#A5E2FD;" width="11.6" height="39.6"/>
	<rect x="170.4" y="195.5" style="fill:#7FD8EF;" width="6.2" height="39.3"/>
	<rect x="177.1" y="195.5" style="fill:#7FD8EF;" width="6.2" height="39.3"/>
	<rect x="53" y="235" style="fill:#8CC63F;" width="166.5" height="6.5"/>
	<rect x="64.3" y="183.1" style="opacity:0.2;" width="68.5" height="2.6"/>
	<rect x="64.3" y="130.6" style="opacity:0.2;" width="68.5" height="2.6"/>
	<rect x="64.3" y="77.7" style="opacity:0.2;" width="68.5" height="2.6"/>
	<rect x="64.3" y="22.5" style="opacity:0.2;" width="68.5" height="5.8"/>
	<rect x="60.9" y="15" style="opacity:0.1;" width="74.1" height="7.3"/>
	<rect x="83.1" y="185.7" style="opacity:0.1;" width="30.9" height="6.3"/>
	<rect x="64.3" y="231.8" style="opacity:0.2;" width="20.7" height="3"/>
	<rect x="112.6" y="231.8" style="opacity:0.2;" width="20.2" height="3"/>
	<rect x="142.3" y="183.1" style="opacity:0.2;" width="68.5" height="2.6"/>
	<rect x="142.3" y="130.6" style="opacity:0.2;" width="68.5" height="2.6"/>
	<rect x="142.3" y="77.7" style="opacity:0.2;" width="68.5" height="2.6"/>
	<rect x="142.3" y="22.5" style="opacity:0.2;" width="68.5" height="5.8"/>
	<rect x="138.9" y="15" style="opacity:0.1;" width="74.1" height="7.3"/>
	<rect x="161.1" y="185.7" style="opacity:0.1;" width="30.9" height="6.3"/>
	<rect x="142.3" y="231.8" style="opacity:0.2;" width="20.7" height="3"/>
	<rect x="190.6" y="231.8" style="opacity:0.2;" width="20.2" height="3"/>
</g>
</svg>
