<?xml version="1.0" encoding="utf-8"?>
<!-- Generator: Adobe Illustrator 22.1.0, SVG Export Plug-In . SVG Version: 6.00 Build 0)  -->
<svg version="1.1" id="Layer_1" xmlns="http://www.w3.org/2000/svg" xmlns:xlink="http://www.w3.org/1999/xlink" x="0px" y="0px"
	 viewBox="0 0 256 256" style="enable-background:new 0 0 256 256;" xml:space="preserve">
<g>
	<polygon style="fill:#AF7751;" points="60.9,22.3 64.3,22.3 64.3,22.5 64.3,28.3 64.3,77.7 64.3,80.4 64.3,130.6 64.3,133.3 
		64.3,183.1 64.3,185.7 64.3,231.8 64.3,234.8 85,234.8 112.6,234.8 132.8,234.8 132.8,234.8 132.8,231.8 132.8,231.8 132.8,185.7 
		132.8,183.1 132.8,133.3 132.8,130.6 132.8,80.4 132.8,77.7 132.8,28.3 132.8,22.5 132.8,22.3 135,22.3 135,15 60.9,15 	"/>
	<polygon style="fill:#AF7751;" points="138.9,22.3 142.3,22.3 142.3,22.5 142.3,28.3 142.3,77.7 142.3,80.4 142.3,130.6 
		142.3,133.3 142.3,183.1 142.3,185.7 142.3,231.8 142.3,234.8 163,234.8 190.6,234.8 210.8,234.8 210.8,234.8 210.8,231.8 
		210.8,231.8 210.8,185.7 210.8,183.1 210.8,133.3 210.8,130.6 210.8,80.4 210.8,77.7 210.8,28.3 210.8,22.5 210.8,22.3 213,22.3 
		213,15 138.9,15 	"/>
</g>
</svg>
