<?xml version="1.0" encoding="utf-8"?>
<!-- Generator: Adobe Illustrator 22.1.0, SVG Export Plug-In . SVG Version: 6.00 Build 0)  -->
<svg version="1.1" id="Layer_1" xmlns="http://www.w3.org/2000/svg" xmlns:xlink="http://www.w3.org/1999/xlink" x="0px" y="0px"
	 viewBox="0 0 352 493.8" style="enable-background:new 0 0 352 493.8;" xml:space="preserve">
<title>Lion</title>
<g id="Layer_2_1_">
	<g id="Layer_1-2">
		<path style="fill:#FCC427;" d="M112.5,342.1c0,0-74.1-6.9-47.6,58.4s69.9,90,69.9,90h105.2c0,0,122.5-158.4,5.5-148.5L112.5,342.1
			z"/>
		<rect x="149.7" y="315.6" style="fill:#FCC427;" width="61.8" height="178.2"/>
		<path style="fill:#FCC427;" d="M239.8,485.1h6.7c1.4,0,2.8,0.5,3.8,1.4l0,0c2.7,2.6,0.4,6.5-3.8,6.5h-33v-8L239.8,485.1z"/>
		<path style="fill:#FCC427;" d="M129.2,485.1h-7c-1.4,0-2.8,0.5-3.9,1.4l0,0c-2.8,2.6-0.4,6.5,3.9,6.5h34.1v-8L129.2,485.1z"/>
		<path style="fill:#FFE131;" d="M160.1,493.8h-17.2c-3.3,0-6.1-2.4-6.6-5.6l-26.5-173.9H175v164.7
			C175,487.1,168.4,493.8,160.1,493.8C160.1,493.8,160.1,493.8,160.1,493.8z"/>
		<path style="fill:#FFE131;" d="M204.4,493.8h17.2c3.3,0,6.1-2.4,6.6-5.6l26.5-173.9h-65.2v164.7
			C189.6,487.1,196.2,493.8,204.4,493.8z"/>
		<circle style="fill:#FF9433;" cx="172.4" cy="29.3" r="29.3"/>
		<circle style="fill:#FF9433;" cx="225.6" cy="37.8" r="29.3"/>
		<circle style="fill:#FF9433;" cx="274.6" cy="69.1" r="28.8"/>
		<circle style="fill:#FF9433;" cx="306.8" cy="111.7" r="28.8"/>
		<circle style="fill:#FF9433;" cx="323.1" cy="157.3" r="28.8"/>
		<circle style="fill:#FF9433;" cx="321.3" cy="210.7" r="28.8"/>
		<circle style="fill:#FF9433;" cx="300" cy="260.9" r="28.8"/>
		<circle style="fill:#FF9433;" cx="261.6" cy="298" r="28.8"/>
		<circle style="fill:#FF9433;" cx="207.1" cy="321.6" r="29.3"/>
		<circle style="fill:#FF9433;" cx="152.9" cy="322.8" r="29.3"/>
		<circle style="fill:#FF9433;" cx="99.3" cy="300.6" r="28.8"/>
		<circle style="fill:#FF9433;" cx="60" cy="264.4" r="28.8"/>
		<circle style="fill:#FF9433;" cx="33.7" cy="214.7" r="28.8"/>
		<circle style="fill:#FF9433;" cx="28.9" cy="161.5" r="28.8"/>
		<circle style="fill:#FF9433;" cx="43.8" cy="109.1" r="28.8"/>
		<circle style="fill:#FF9433;" cx="77.3" cy="67.5" r="28.8"/>
		<circle style="fill:#FF9433;" cx="122.5" cy="39.4" r="28.8"/>
		<circle style="fill:#FF9433;" cx="176.6" cy="177" r="149.6"/>
		<circle style="fill:#FFE131;" cx="177.3" cy="196.9" r="96.7"/>
		<circle style="fill:#FFFFFF;" cx="136.4" cy="190.6" r="19.9"/>
		<circle cx="139" cy="191.9" r="10"/>
		<circle style="fill:#FFFFFF;" cx="218.8" cy="190.6" r="19.9"/>
		<circle cx="216.2" cy="191.9" r="10"/>
		<path style="fill:#FCC427;" d="M157,182c0,0-2,54.5,8.6,57.8s17.1,3.5,25.3,0c9.3-4,7.3-57.8,7.3-57.8"/>
		<path d="M163,238.1l14.6,16.6l14.6-16.6C192.3,238.1,175.6,243.4,163,238.1z"/>
		<path d="M155.3,270.4c1.8-1.6,3.6-3,5.4-4.4s3.7-2.8,5.6-4.2s3.8-2.7,5.7-4l5.8-3.9l0.9-0.6l0.9,0.7c1.8,1.4,3.5,2.8,5.3,4.2
			s3.5,2.9,5.2,4.4s3.4,3,5,4.5s3.3,3.1,4.9,4.7c-2-1.1-3.9-2.4-5.8-3.6s-3.8-2.5-5.6-3.8s-3.6-2.6-5.5-4s-3.6-2.7-5.4-4.1l1.8,0.1
			l-5.9,3.8c-2,1.2-3.9,2.5-5.9,3.6s-4,2.3-6.1,3.5S157.5,269.4,155.3,270.4z"/>
		<path style="fill:#FFE131;" d="M106.5,106.3l-24.8,22.1c-6.1-6.9-5.5-17.4,1.4-23.5C89.8,98.8,100.4,99.5,106.5,106.3z"/>
		<path style="fill:#FFE131;" d="M243.6,107.6l24.8,22.1c6.1-6.9,5.5-17.4-1.4-23.5S249.7,100.8,243.6,107.6L243.6,107.6z"/>
	</g>
</g>
</svg>
