<?xml version="1.0" encoding="utf-8"?>
<!-- Generator: Adobe Illustrator 22.1.0, SVG Export Plug-In . SVG Version: 6.00 Build 0)  -->
<svg version="1.1" xmlns="http://www.w3.org/2000/svg" xmlns:xlink="http://www.w3.org/1999/xlink" x="0px" y="0px"
	 viewBox="0 0 256 182.9" style="enable-background:new 0 0 256 182.9;" xml:space="preserve">
<g id="Layer_1">
	<g style="opacity:0.5;">
		<path d="M123,99.6c-1.4-2.5-2.9-5-4.4-7.5c-0.1-0.2-0.2-0.4-0.1-0.6c0,0,0,0,0,0c1.5-2.5,2.9-5,4.4-7.5c0.3-0.5,0.6-0.7,1.2-0.7
			c1.3,0,2.6,0.1,3.9-0.1c0-0.5,0-1,0-1.5c-1.4,0-2.9,0-4.3,0.1c-0.4,0-0.5-0.2-0.7-0.5c-1.4-2.5-2.9-4.9-4.3-7.4
			c-0.2-0.4-0.2-0.7,0-1c1.5-2.5,2.9-4.9,4.3-7.4c0.2-0.3,0.3-0.5,0.7-0.5c1.4,0,2.9,0,4.3,0.1c0-0.5,0-1.1,0-1.6
			c-1.3,0-2.6,0-3.9,0c-0.5,0-0.8-0.2-1-0.6c-1.4-2.5-2.8-4.9-4.3-7.3c-0.2-0.4-0.2-0.6,0-1c1.4-2.4,2.9-4.9,4.3-7.3
			c0.2-0.4,0.5-0.6,1-0.6c1.3,0,2.6,0,3.9,0c0-0.5,0-1,0-1.5c-1.3,0-2.6,0-3.9,0c-0.5,0-0.8-0.1-1-0.6c-1.4-2.4-2.8-4.8-4.2-7.2
			c-0.3-0.4-0.2-0.7,0-1.2c1.4-2.4,2.8-4.8,4.2-7.2c0.2-0.4,0.5-0.6,1-0.6c1.3,0,2.6,0,3.9,0c0-0.5,0-1,0-1.5c-1.3,0-2.7-0.1-4,0
			c-0.5,0-0.8-0.2-1.1-0.6c-1.4-2.4-2.8-4.8-4.2-7.2c-0.3-0.5-0.3-0.8,0-1.2c1.4-2.4,2.8-4.8,4.2-7.2c0.3-0.5,0.6-0.6,1.1-0.6
			c1.3,0,2.7,0,4,0c0-0.5,0-1,0-1.5c-1.4,0-2.7,0-4.1,0c-0.4,0-0.7,0-0.9-0.4c-1.4-2.5-2.9-5-4.4-7.5c-0.1-0.2-0.2-0.4-0.1-0.6
			c-4.2,0-8.4,0-12.6,0c-1.6,2.7-3.2,5.5-4.7,8.2c-0.2,0.3-0.4,0.4-0.8,0.4c-2.9,0-5.8,0-8.7,0c-0.3,0-0.6,0-0.8-0.3
			c-1.5-2.6-3.1-5.3-4.6-7.9c-0.1-0.1,0-0.2-0.1-0.4c-4.2,0-8.4,0-12.6,0c0,0.2,0,0.3-0.1,0.5c-1.5,2.5-3,5-4.4,7.6
			c-0.2,0.4-0.5,0.5-1,0.5c-2.8,0-5.7,0-8.5,0c-0.4,0-0.7-0.1-1-0.5c-1.4-2.5-2.9-4.9-4.3-7.4c-0.1-0.2-0.3-0.4-0.1-0.7
			C50,0,45.8,0,41.5,0c0.1,0.3-0.1,0.5-0.2,0.8c-1.4,2.4-2.8,4.8-4.2,7.2c-0.2,0.4-0.5,0.6-1,0.6c-2.8,0-5.7,0-8.5,0
			c-0.4,0-0.7,0-0.9-0.4c-1.5-2.6-3-5.1-4.5-7.6c-0.1-0.2-0.1-0.3-0.1-0.5c-4.2,0-8.4,0-12.6,0C7.9,2.7,6.4,5.5,4.8,8.2
			C4.6,8.6,4.2,8.6,3.9,8.6c-1.3,0-2.6,0-3.9,0c0,0.5,0,1,0,1.5c1.3,0,2.7,0,4,0c0.4,0,0.7,0.1,0.9,0.5c1.4,2.5,2.9,5,4.4,7.5
			c0.2,0.3,0.2,0.5,0,0.8c-1.5,2.5-2.9,5-4.4,7.5c-0.2,0.4-0.5,0.5-1,0.5c-1.3,0-2.6,0-3.9,0.1c0,0.5,0,1,0,1.5c1.3,0,2.7,0,4,0
			c0.5,0,0.8,0.1,1,0.5c1.4,2.5,2.8,4.9,4.3,7.3c0.2,0.4,0.2,0.7,0,1.1c-1.4,2.4-2.9,4.9-4.3,7.3c-0.2,0.4-0.5,0.5-0.9,0.5
			c-1.4,0-2.7,0-4.1,0c0,0.5,0,1,0,1.5c1.4,0,2.7,0,4.1,0c0.5,0,0.7,0.1,0.9,0.5c1.4,2.5,2.9,4.9,4.3,7.4c0.2,0.3,0.2,0.6,0,0.9
			C7.9,58,6.4,60.5,5,63c-0.2,0.4-0.5,0.5-0.9,0.5c-1.4,0-2.7,0-4.1,0c0,0.5,0,1,0,1.5C1.3,65.1,2.6,65,3.9,65c0.5,0,0.8,0.1,1,0.6
			c1.4,2.4,2.8,4.8,4.2,7.3c0.2,0.4,0.3,0.7,0,1.2c-1.4,2.4-2.8,4.8-4.2,7.2c-0.3,0.5-0.6,0.7-1.2,0.7c-1.3-0.1-2.6,0-3.8-0.1
			c0,0.5,0,1,0,1.5c1.3,0,2.6,0.1,3.9,0.1c0.4,0,0.7,0,1,0.5c1.5,2.6,3,5.1,4.5,7.7c0.1,0,0.1,0,0.2,0c-1.6,2.7-3.2,5.5-4.7,8.2
			C4.6,100,4.2,100,3.9,100c-1.3,0-2.6,0-3.9,0c0,0.5,0,1,0,1.5c1.3,0,2.7,0,4,0c0.4,0,0.7,0.1,0.9,0.5c1.4,2.5,2.9,5,4.4,7.5
			c0.2,0.3,0.2,0.5,0,0.8c-1.5,2.5-2.9,5-4.4,7.5c-0.2,0.4-0.5,0.5-1,0.5c-1.3,0-2.6,0-3.9,0.1c0,0.5,0,1,0,1.5c1.3,0,2.7,0,4,0
			c0.5,0,0.8,0.1,1,0.5c1.4,2.5,2.8,4.9,4.3,7.3c0.2,0.4,0.2,0.7,0,1.1c-1.4,2.4-2.9,4.9-4.3,7.3c-0.2,0.4-0.5,0.5-0.9,0.5
			c-1.4,0-2.7,0-4.1,0c0,0.5,0,1,0,1.5c1.4,0,2.7,0,4.1,0c0.5,0,0.7,0.1,0.9,0.5c1.4,2.5,2.9,4.9,4.3,7.4c0.2,0.3,0.2,0.6,0,0.9
			c-1.5,2.5-2.9,5-4.4,7.5c-0.2,0.4-0.5,0.5-0.9,0.5c-1.4,0-2.7,0-4.1,0c0,0.5,0,1,0,1.5c1.3,0.2,2.6,0.1,3.9,0.1
			c0.5,0,0.8,0.1,1,0.6c1.4,2.4,2.8,4.8,4.2,7.3c0.2,0.4,0.3,0.7,0,1.2c-1.4,2.4-2.8,4.8-4.2,7.2c-0.3,0.5-0.6,0.7-1.2,0.7
			c-1.3-0.1-2.6,0-3.8-0.1c0,0.5,0,1,0,1.5c1.3,0,2.6,0.1,3.9,0.1c0.4,0,0.7,0,1,0.5c1.5,2.6,3,5.1,4.5,7.7c4.3,0,8.7,0,13,0
			c-0.1-0.4,0.2-0.6,0.4-0.9c1.3-2.2,2.6-4.4,3.8-6.5c0.3-0.6,0.7-0.7,1.3-0.7c2.7,0,5.4,0,8.1,0c0.6,0,0.9,0.2,1.2,0.7
			c1.4,2.5,2.9,5,4.4,7.5c4.3,0,8.5,0,12.8,0c1.5-2.5,3-5.1,4.4-7.6c0.2-0.4,0.4-0.5,0.9-0.5c2.9,0,5.8,0,8.7,0c0.3,0,0.6,0,0.8,0.3
			c1.5,2.6,3.1,5.1,4.5,7.8c4.3,0,8.7,0,13,0c1.1-2.2,2.6-4.3,3.6-6.5c0.7-1.4,1.6-1.8,3.1-1.7c2.3,0.1,4.7,0,7,0
			c0.5,0,0.8,0.1,1.1,0.6c1.4,2.5,2.9,5,4.4,7.6c4.3,0,8.5,0,12.8,0c1.5-2.5,2.9-5,4.4-7.5c0.3-0.5,0.6-0.7,1.2-0.7
			c1.3,0,2.6,0.1,3.9-0.1c0-0.5,0-1,0-1.5c-1.4,0-2.9,0-4.3,0.1c-0.4,0-0.5-0.2-0.7-0.5c-1.4-2.5-2.9-4.9-4.3-7.4
			c-0.2-0.4-0.2-0.7,0-1c1.5-2.5,2.9-4.9,4.3-7.4c0.2-0.3,0.3-0.5,0.7-0.5c1.4,0,2.9,0,4.3,0.1c0-0.5,0-1.1,0-1.6
			c-1.3,0-2.6,0-3.9,0c-0.5,0-0.8-0.2-1-0.6c-1.4-2.5-2.8-4.9-4.3-7.3c-0.2-0.4-0.2-0.6,0-1c1.4-2.4,2.9-4.9,4.3-7.3
			c0.2-0.4,0.5-0.6,1-0.6c1.3,0,2.6,0,3.9,0c0-0.5,0-1,0-1.5c-1.3,0-2.6,0-3.9,0c-0.5,0-0.8-0.1-1-0.6c-1.4-2.4-2.8-4.8-4.2-7.2
			c-0.3-0.4-0.2-0.7,0-1.2c1.4-2.4,2.8-4.8,4.2-7.2c0.2-0.4,0.5-0.6,1-0.6c1.3,0,2.6,0,3.9,0c0-0.5,0-1,0-1.5c-1.3,0-2.7-0.1-4,0
			c-0.5,0-0.8-0.2-1.1-0.6c-1.4-2.4-2.8-4.8-4.2-7.2c-0.3-0.5-0.3-0.8,0-1.2c1.4-2.4,2.8-4.8,4.2-7.2c0.3-0.5,0.6-0.6,1.1-0.6
			c1.3,0,2.7,0,4,0c0-0.5,0-1,0-1.5c-1.4,0-2.7,0-4.1,0C123.5,100,123.2,100,123,99.6z M27.6,81.8c-0.5,0-0.8-0.1-1-0.6
			c-1.4-2.4-2.8-4.8-4.2-7.3c-0.2-0.4-0.2-0.7,0-1.1c1.4-2.4,2.9-4.9,4.3-7.3c0.2-0.4,0.5-0.6,1-0.6c2.8,0,5.6,0,8.4,0
			c0.5,0,0.8,0.1,1,0.6c1.4,2.4,2.8,4.8,4.2,7.2c0.3,0.4,0.3,0.8,0,1.2c-1.4,2.4-2.8,4.8-4.2,7.2c-0.3,0.5-0.5,0.6-1.1,0.6
			c-1.4,0-2.8,0-4.2,0c0,0,0,0,0,0C30.4,81.8,29,81.8,27.6,81.8z M57.4,118.4c0.3,0.5,0.2,0.8,0,1.2c-1.4,2.4-2.8,4.7-4.1,7.1
			c-0.3,0.5-0.6,0.7-1.1,0.7c-1.4,0-2.8,0-4.2,0c-1.3,0-2.7,0-4,0c-0.6,0-0.9-0.1-1.2-0.7c-1.4-2.4-2.7-4.7-4.1-7.1
			c-0.3-0.4-0.3-0.8,0-1.2c1.4-2.4,2.8-4.8,4.2-7.2c0.3-0.4,0.5-0.6,1.1-0.6c2.8,0,5.6,0,8.4,0c0.5,0,0.8,0.2,1.1,0.6
			C54.6,113.6,56,116,57.4,118.4z M54.5,109.3c1.4-2.4,2.8-4.8,4.2-7.2c0.3-0.5,0.6-0.6,1.1-0.6c2.8,0,5.6,0,8.4,0
			c0.5,0,0.8,0.2,1.1,0.6c1.4,2.4,2.8,4.8,4.2,7.2c0.2,0.4,0.3,0.7,0,1.2c-1.4,2.4-2.8,4.8-4.2,7.3c-0.3,0.5-0.6,0.6-1.1,0.6
			c-1.4,0-2.8,0-4.2,0c-1.4,0-2.7,0-4.1,0c-0.5,0-0.8-0.1-1.1-0.6c-1.4-2.4-2.8-4.9-4.2-7.3C54.2,110,54.2,109.7,54.5,109.3z
			 M42.7,129.7c0.3-0.5,0.6-0.7,1.2-0.7c2.7,0,5.4,0,8.1,0c0.6,0,1,0.1,1.3,0.7c1.3,2.4,2.7,4.7,4.1,7.1c0.2,0.4,0.3,0.7,0,1.2
			c-1.4,2.4-2.8,4.8-4.2,7.2c-0.3,0.5-0.6,0.7-1.1,0.7c-1.4,0-2.8,0-4.2,0c-1.4,0-2.7,0-4.1,0c-0.5,0-0.8-0.1-1.1-0.6
			c-1.4-2.4-2.8-4.9-4.2-7.3c-0.3-0.4-0.2-0.7,0-1.2C40,134.4,41.4,132,42.7,129.7z M54.6,128.8c-0.2-0.4-0.2-0.7,0-1.1
			c1.4-2.4,2.8-4.8,4.2-7.3c0.3-0.4,0.5-0.6,1.1-0.6c2.8,0,5.6,0,8.4,0c0.5,0,0.8,0.2,1,0.6c1.4,2.5,2.8,4.9,4.3,7.3
			c0.2,0.4,0.2,0.7,0,1.1c-1.4,2.4-2.9,4.9-4.3,7.3c-0.2,0.4-0.5,0.5-0.9,0.5c-1.5,0-2.9,0-4.4,0c-1.4,0-2.7,0-4.1,0
			c-0.5,0-0.8-0.1-1.1-0.6C57.4,133.6,56,131.2,54.6,128.8z M70.6,136.9c1.5-2.5,2.9-5,4.4-7.5c0.2-0.3,0.4-0.4,0.8-0.4
			c2.9,0,5.8,0,8.7,0c0.4,0,0.7,0.1,0.9,0.5c1.4,2.5,2.9,4.9,4.3,7.4c0.2,0.4,0.2,0.6,0,1c-1.4,2.4-2.9,4.9-4.3,7.3
			c-0.2,0.4-0.5,0.6-1,0.6c-1.4,0-2.8,0-4.2,0c-1.4,0-2.9,0-4.3,0c-0.5,0-0.7-0.1-0.9-0.5c-1.4-2.5-2.9-4.9-4.3-7.4
			C70.4,137.5,70.4,137.2,70.6,136.9z M85.3,126.7c-0.3,0.5-0.6,0.7-1.1,0.7c-2.8,0-5.5,0-8.3,0c-0.5,0-0.8-0.2-1.1-0.6
			c-1.4-2.4-2.8-4.8-4.2-7.3c-0.2-0.4-0.3-0.7,0-1.1c1.4-2.4,2.8-4.8,4.2-7.3c0.3-0.5,0.5-0.6,1.1-0.6c1.4,0,2.8,0,4.2,0
			c1.4,0,2.8,0,4.2,0c0.5,0,0.8,0.1,1,0.6c1.4,2.5,2.8,4.9,4.3,7.3c0.2,0.4,0.2,0.7,0,1.1C88.1,121.9,86.7,124.3,85.3,126.7z
			 M84.1,109.2c-2.8,0-5.5,0-8.3,0c-0.5,0-0.8-0.2-1.1-0.6c-1.4-2.4-2.8-4.8-4.2-7.2c-0.3-0.5-0.3-0.8,0-1.2
			c1.4-2.4,2.8-4.7,4.1-7.1c0.3-0.5,0.6-0.7,1.1-0.7c1.4,0,2.8,0,4.2,0c1.4,0,2.8,0,4.2,0c0.5,0,0.8,0.2,1,0.6
			c1.4,2.4,2.8,4.8,4.2,7.3c0.3,0.4,0.2,0.7,0,1.2c-1.4,2.4-2.8,4.7-4.1,7.1C85,108.9,84.7,109.2,84.1,109.2z M84.2,90.9
			c-1.4,0-2.8,0-4.2,0c0,0,0,0,0,0c-1.4,0-2.9,0-4.3,0c-0.4,0-0.7-0.1-0.9-0.5c-1.4-2.5-2.8-4.9-4.3-7.3c-0.2-0.4-0.2-0.7,0-1.1
			c1.4-2.4,2.8-4.8,4.2-7.2c0.3-0.5,0.6-0.7,1.2-0.6c2.8,0,5.5,0,8.3,0c0.5,0,0.8,0.1,1.1,0.6c1.4,2.4,2.8,4.8,4.2,7.3
			c0.2,0.4,0.2,0.7,0,1.1c-1.4,2.4-2.8,4.8-4.2,7.3C85,90.8,84.7,90.9,84.2,90.9z M84.4,54.3c-1.4,0-2.8,0-4.2,0c-1.4,0-2.9,0-4.3,0
			c-0.5,0-0.7-0.1-0.9-0.5c-1.4-2.5-2.9-4.9-4.3-7.4c-0.2-0.3-0.2-0.6,0-0.9c1.5-2.5,2.9-5,4.4-7.5c0.2-0.3,0.4-0.4,0.8-0.4
			c2.9,0,5.8,0,8.7,0c0.4,0,0.7,0.1,0.9,0.5c1.4,2.5,2.9,4.9,4.3,7.4c0.2,0.4,0.2,0.6,0,1c-1.4,2.4-2.9,4.9-4.3,7.3
			C85.1,54.2,84.8,54.3,84.4,54.3z M89.6,63.6c0.2,0.4,0.2,0.7,0,1.1c-1.5,2.5-2.9,4.9-4.3,7.4c-0.2,0.4-0.5,0.5-0.9,0.5
			c-2.9,0-5.7,0-8.6,0c-0.4,0-0.7-0.1-0.9-0.5c-1.4-2.5-2.9-5-4.4-7.5c-0.2-0.3-0.2-0.6,0-0.9c1.5-2.5,2.9-4.9,4.3-7.4
			c0.2-0.4,0.5-0.5,1-0.5c1.4,0,2.9,0,4.3,0c1.4,0,2.8,0,4.2,0c0.5,0,0.8,0.2,1,0.6C86.8,58.8,88.2,61.2,89.6,63.6z M73.6,54.6
			c0.2,0.4,0.2,0.6,0,1c-1.4,2.4-2.9,4.9-4.3,7.3c-0.2,0.4-0.5,0.6-0.9,0.6c-2.9,0-5.7,0-8.6,0c-0.4,0-0.7-0.1-0.9-0.5
			c-1.4-2.5-2.9-5-4.3-7.4c-0.2-0.3-0.2-0.6,0-0.9c1.5-2.5,2.9-4.9,4.3-7.4c0.2-0.4,0.5-0.5,1-0.5c1.4,0,2.9,0,4.3,0
			c1.4,0,2.8,0,4.2,0c0.5,0,0.8,0.1,1,0.6C70.7,49.7,72.2,52.1,73.6,54.6z M57.5,46.5c-1.4,2.4-2.8,4.8-4.2,7.2
			c-0.3,0.5-0.6,0.7-1.1,0.7c-1.4,0-2.8,0-4.2,0c-1.4,0-2.7,0-4.1,0c-0.5,0-0.8-0.1-1.1-0.6c-1.4-2.4-2.8-4.9-4.2-7.3
			c-0.3-0.4-0.2-0.7,0-1.2c1.4-2.4,2.8-4.7,4.1-7.1c0.3-0.5,0.6-0.7,1.2-0.7c2.7,0,5.4,0,8.1,0c0.6,0,1,0.1,1.3,0.7
			c1.3,2.4,2.7,4.7,4.1,7.1C57.8,45.8,57.8,46.1,57.5,46.5z M42.9,56.3c0.2-0.4,0.5-0.5,1-0.5c1.4,0,2.9,0,4.3,0c1.4,0,2.7,0,4.1,0
			c0.5,0,0.8,0.1,1.1,0.6c1.4,2.4,2.8,4.8,4.2,7.2c0.2,0.4,0.2,0.7,0,1.1c-1.4,2.4-2.9,4.9-4.3,7.3c-0.2,0.4-0.5,0.6-1,0.6
			c-2.8,0-5.6,0-8.4,0c-0.5,0-0.8-0.1-1-0.6c-1.4-2.5-2.8-4.9-4.3-7.3c-0.2-0.4-0.2-0.6,0-1C40,61.2,41.4,58.8,42.9,56.3z
			 M54.5,72.9c1.4-2.4,2.9-4.8,4.2-7.3c0.3-0.5,0.6-0.6,1.1-0.6c2.8,0,5.5,0,8.3,0c0.5,0,0.8,0.1,1.1,0.6c1.4,2.4,2.8,4.8,4.2,7.2
			c0.3,0.5,0.2,0.8,0,1.2c-1.4,2.4-2.8,4.7-4.1,7.1c-0.3,0.5-0.6,0.7-1.1,0.7c-1.4,0-2.8,0-4.2,0c-1.4,0-2.8,0-4.2,0
			c-0.5,0-0.8-0.2-1-0.6c-1.4-2.4-2.8-4.8-4.2-7.2C54.3,73.6,54.2,73.3,54.5,72.9z M86.6,74.1c-0.3-0.5-0.2-0.8,0-1.2
			c1.4-2.4,2.8-4.8,4.2-7.2c0.3-0.5,0.5-0.6,1.1-0.6c1.4,0,2.9,0,4.3,0c1.4,0,2.7,0,4.1,0c0.5,0,0.8,0.2,1,0.6
			c1.4,2.4,2.8,4.8,4.2,7.3c0.3,0.4,0.2,0.7,0,1.2c-1.4,2.4-2.8,4.7-4.1,7.1c-0.3,0.5-0.6,0.7-1.2,0.7c-2.7,0-5.5,0-8.2,0
			c-0.6,0-0.9-0.2-1.2-0.6C89.4,78.8,88,76.4,86.6,74.1z M100.4,63.5c-2.8,0-5.6,0-8.4,0c-0.5,0-0.8-0.1-1-0.6
			c-1.4-2.4-2.8-4.8-4.2-7.3c-0.2-0.4-0.3-0.7,0-1.2c1.4-2.4,2.8-4.8,4.2-7.3c0.3-0.4,0.6-0.6,1-0.5c1.4,0,2.8,0,4.2,0
			c1.4,0,2.8,0,4.2,0c0.5,0,0.8,0.1,1,0.6c1.4,2.5,2.8,4.9,4.3,7.3c0.2,0.4,0.2,0.6,0,1c-1.4,2.4-2.9,4.9-4.3,7.3
			C101.2,63.3,100.9,63.5,100.4,63.5z M101.4,44.6c-0.2,0.4-0.5,0.5-0.9,0.5c-1.4,0-2.9,0-4.3,0c-1.4,0-2.9,0-4.3,0
			c-0.5,0-0.7-0.2-0.9-0.5c-1.4-2.4-2.8-4.8-4.2-7.2c-0.2-0.4-0.3-0.7,0-1.2c1.4-2.4,2.8-4.8,4.2-7.2c0.2-0.4,0.5-0.6,1-0.6
			c2.8,0,5.7,0,8.5,0c0.5,0,0.8,0.2,1,0.6c1.4,2.4,2.8,4.8,4.2,7.2c0.3,0.4,0.3,0.8,0,1.2C104.2,39.8,102.8,42.2,101.4,44.6z
			 M89.5,28.1c-1.4,2.4-2.8,4.8-4.2,7.2C85,35.8,84.7,36,84.2,36c-2.8,0-5.5,0-8.3,0c-0.5,0-0.8-0.2-1.1-0.6
			c-1.4-2.4-2.8-4.8-4.2-7.3c-0.2-0.4-0.3-0.7,0-1.1c1.4-2.4,2.8-4.8,4.2-7.3c0.3-0.5,0.5-0.6,1.1-0.6c1.4,0,2.8,0,4.2,0
			c1.4,0,2.8,0,4.2,0c0.5,0,0.8,0.1,1,0.6c1.4,2.5,2.8,4.9,4.3,7.3C89.8,27.5,89.7,27.7,89.5,28.1z M73.6,36.3
			c0.2,0.4,0.2,0.7,0,1.1c-1.4,2.4-2.9,4.9-4.3,7.3c-0.2,0.4-0.5,0.5-0.9,0.5c-1.5,0-2.9,0-4.4,0c-1.4,0-2.7,0-4.1,0
			c-0.5,0-0.8-0.1-1.1-0.6c-1.4-2.4-2.8-4.8-4.2-7.2c-0.2-0.4-0.2-0.7,0-1.1c1.4-2.4,2.8-4.8,4.2-7.3c0.3-0.4,0.5-0.6,1.1-0.6
			c2.8,0,5.6,0,8.4,0c0.5,0,0.8,0.2,1,0.6C70.7,31.4,72.1,33.9,73.6,36.3z M57.4,28.2c-1.4,2.4-2.8,4.7-4.1,7.1
			c-0.3,0.5-0.6,0.7-1.1,0.7c-1.4,0-2.8,0-4.2,0c-1.3,0-2.7,0-4,0c-0.6,0-0.9-0.1-1.2-0.7c-1.4-2.4-2.7-4.7-4.1-7.1
			c-0.3-0.4-0.3-0.8,0-1.2c1.4-2.4,2.8-4.8,4.2-7.2c0.3-0.4,0.5-0.6,1.1-0.6c2.8,0,5.6,0,8.4,0c0.5,0,0.8,0.2,1.1,0.6
			c1.4,2.4,2.8,4.8,4.2,7.2C57.7,27.4,57.6,27.8,57.4,28.2z M41.5,36.3c0.2,0.4,0.2,0.7,0,1.1c-1.4,2.4-2.8,4.8-4.2,7.3
			c-0.2,0.4-0.5,0.6-1,0.6c-1.4,0-2.9,0-4.3,0c-1.4,0-2.7,0-4.1,0c-0.5,0-0.8-0.1-1.1-0.6c-1.4-2.5-2.8-4.9-4.3-7.3
			c-0.2-0.3-0.2-0.6,0-0.9c1.5-2.5,2.9-5,4.4-7.5c0.2-0.4,0.5-0.5,0.9-0.5c2.9,0,5.7,0,8.6,0c0.5,0,0.7,0.2,0.9,0.6
			C38.6,31.4,40,33.8,41.5,36.3z M26.7,47.2c0.2-0.4,0.5-0.5,1-0.5c2.8,0,5.7,0,8.5,0c0.5,0,0.8,0.1,1,0.6c1.4,2.5,2.8,4.9,4.3,7.3
			c0.2,0.4,0.2,0.6,0,1C40,58,38.6,60.5,37.1,63c-0.2,0.4-0.5,0.5-0.9,0.5c-1.5,0-2.9,0-4.4,0c-1.4,0-2.7,0-4.1,0
			c-0.5,0-0.8-0.1-1.1-0.6c-1.4-2.4-2.8-4.9-4.2-7.3c-0.2-0.4-0.2-0.7,0-1.1C23.9,52.1,25.3,49.6,26.7,47.2z M38.4,81.9
			c1.4-2.4,2.8-4.8,4.2-7.2c0.2-0.4,0.5-0.6,1-0.6c1.4,0,2.9,0,4.3,0c0,0,0,0,0,0c1.4,0,2.7,0,4.1,0c0.6,0,0.9,0.2,1.2,0.7
			c1.4,2.4,2.7,4.7,4.1,7.1c0.3,0.5,0.3,0.8,0,1.2c-1.4,2.4-2.8,4.8-4.2,7.2c-0.2,0.4-0.5,0.6-1,0.6c-2.8,0-5.7,0-8.5,0
			c-0.5,0-0.8-0.1-1-0.6c-1.4-2.4-2.8-4.9-4.2-7.3C38.2,82.7,38.2,82.3,38.4,81.9z M54.3,91.4c1.5-2.5,3-5.1,4.4-7.6
			c0.2-0.4,0.4-0.5,0.9-0.5c2.9,0,5.8,0,8.7,0c0.3,0,0.6,0,0.8,0.3c1.5,2.6,3.1,5.1,4.5,7.8c0.1,0,0.1,0,0.2,0c0,0.2,0,0.3-0.1,0.5
			c-1.5,2.5-3,5-4.4,7.6c-0.2,0.4-0.5,0.5-1,0.5c-2.8,0-5.7,0-8.5,0c-0.4,0-0.7-0.1-1-0.5c-1.4-2.5-2.9-4.9-4.3-7.4
			C54.3,91.9,54.1,91.7,54.3,91.4C54.3,91.4,54.3,91.4,54.3,91.4z M43.7,92.3c2.8,0,5.7,0,8.5,0c0.5,0,0.8,0.2,1,0.6
			c1.4,2.4,2.8,4.8,4.2,7.3c0.2,0.4,0.3,0.7,0,1.1c-1.4,2.4-2.8,4.8-4.2,7.3c-0.3,0.4-0.6,0.6-1.1,0.6c-1.4,0-2.8,0-4.2,0
			c-1.4,0-2.8,0-4.2,0c-0.5,0-0.8-0.1-1-0.6c-1.4-2.5-2.8-4.9-4.3-7.3c-0.2-0.4-0.2-0.7,0-1.1c1.4-2.4,2.8-4.8,4.2-7.3
			C42.9,92.5,43.2,92.3,43.7,92.3z M41.3,109.3c0.3,0.4,0.2,0.7,0,1.2c-1.4,2.4-2.8,4.8-4.2,7.2c-0.2,0.4-0.5,0.6-0.9,0.6
			c-2.9,0-5.7,0-8.6,0c-0.4,0-0.7-0.1-0.9-0.5c-1.4-2.5-2.9-5-4.4-7.5c-0.2-0.3-0.2-0.6,0-0.9c1.5-2.5,2.9-5,4.4-7.5
			c0.2-0.4,0.5-0.4,0.9-0.4c1.4,0,2.9,0,4.3,0c1.4,0,2.8,0,4.2,0c0.5,0,0.8,0.1,1,0.6C38.5,104.5,39.9,106.9,41.3,109.3z
			 M26.8,120.3c0.2-0.4,0.5-0.5,0.9-0.5c2.9,0,5.7,0,8.6,0c0.5,0,0.7,0.2,0.9,0.6c1.4,2.5,2.8,4.9,4.3,7.3c0.2,0.4,0.2,0.7,0,1.1
			c-1.4,2.4-2.8,4.8-4.2,7.3c-0.2,0.4-0.5,0.6-1,0.6c-1.4,0-2.9,0-4.3,0c-1.4,0-2.7,0-4.1,0c-0.5,0-0.8-0.1-1.1-0.6
			c-1.4-2.5-2.8-4.9-4.3-7.3c-0.2-0.3-0.2-0.6,0-0.9C23.9,125.3,25.3,122.8,26.8,120.3z M26.7,138.6c0.2-0.4,0.5-0.5,1-0.5
			c2.8,0,5.7,0,8.5,0c0.5,0,0.8,0.1,1,0.6c1.4,2.5,2.8,4.9,4.3,7.3c0.2,0.4,0.2,0.6,0,1c-1.5,2.5-2.9,4.9-4.3,7.4
			c-0.2,0.4-0.5,0.5-0.9,0.5c-1.5,0-2.9,0-4.4,0c-1.4,0-2.7,0-4.1,0c-0.5,0-0.8-0.1-1.1-0.6c-1.4-2.4-2.8-4.9-4.2-7.3
			c-0.2-0.4-0.2-0.7,0-1.1C23.9,143.5,25.3,141.1,26.7,138.6z M38.5,155.1c1.5-2.5,2.9-4.9,4.3-7.4c0.2-0.4,0.5-0.5,1-0.5
			c1.4,0,2.9,0,4.3,0c1.4,0,2.7,0,4.1,0c0.5,0,0.8,0.1,1.1,0.6c1.4,2.4,2.8,4.8,4.2,7.2c0.2,0.4,0.2,0.7,0,1.1
			c-1.4,2.4-2.9,4.9-4.3,7.3c-0.2,0.4-0.5,0.6-1,0.6c-2.8,0-5.6,0-8.4,0c-0.5,0-0.8-0.1-1-0.6c-1.4-2.5-2.8-4.9-4.3-7.3
			C38.3,155.8,38.3,155.5,38.5,155.1z M54.5,146.9c-0.2-0.3-0.2-0.6,0-0.9c1.5-2.5,2.9-4.9,4.3-7.4c0.2-0.4,0.5-0.5,1-0.5
			c1.4,0,2.9,0,4.3,0c1.4,0,2.8,0,4.2,0c0.5,0,0.8,0.1,1,0.6c1.4,2.5,2.8,4.9,4.3,7.3c0.2,0.4,0.2,0.6,0,1c-1.4,2.4-2.9,4.9-4.3,7.3
			c-0.2,0.4-0.5,0.6-0.9,0.6c-2.9,0-5.7,0-8.6,0c-0.4,0-0.7-0.1-0.9-0.5C57.4,151.9,56,149.4,54.5,146.9z M70.6,155.1
			c1.5-2.5,2.9-4.9,4.3-7.4c0.2-0.4,0.5-0.5,1-0.5c1.4,0,2.9,0,4.3,0c1.4,0,2.8,0,4.2,0c0.5,0,0.8,0.2,1,0.6
			c1.4,2.4,2.8,4.8,4.2,7.2c0.2,0.4,0.2,0.7,0,1.1c-1.5,2.5-2.9,4.9-4.3,7.4c-0.2,0.4-0.5,0.5-0.9,0.5c-2.9,0-5.7,0-8.6,0
			c-0.4,0-0.7-0.1-0.9-0.5c-1.4-2.5-2.9-5-4.4-7.5C70.4,155.7,70.4,155.5,70.6,155.1z M86.7,147.1c-0.2-0.4-0.3-0.7,0-1.2
			c1.4-2.4,2.8-4.8,4.2-7.3c0.3-0.4,0.6-0.6,1-0.5c1.4,0,2.8,0,4.2,0c1.4,0,2.8,0,4.2,0c0.5,0,0.8,0.1,1,0.6
			c1.4,2.5,2.8,4.9,4.3,7.3c0.2,0.4,0.2,0.6,0,1c-1.4,2.4-2.9,4.9-4.3,7.3c-0.2,0.4-0.5,0.6-1,0.6c-2.8,0-5.6,0-8.4,0
			c-0.5,0-0.8-0.1-1-0.6C89.6,151.9,88.1,149.5,86.7,147.1z M101.4,136.1c-0.2,0.4-0.5,0.5-0.9,0.5c-1.4,0-2.9,0-4.3,0
			c-1.4,0-2.9,0-4.3,0c-0.5,0-0.7-0.2-0.9-0.5c-1.4-2.4-2.8-4.8-4.2-7.2c-0.2-0.4-0.3-0.7,0-1.2c1.4-2.4,2.8-4.8,4.2-7.2
			c0.2-0.4,0.5-0.6,1-0.6c2.8,0,5.7,0,8.5,0c0.5,0,0.8,0.2,1,0.6c1.4,2.4,2.8,4.8,4.2,7.2c0.3,0.4,0.3,0.8,0,1.2
			C104.2,131.2,102.8,133.6,101.4,136.1z M101.3,117.7c-0.3,0.5-0.6,0.6-1.1,0.6c-2.8,0-5.6,0-8.4,0c-0.5,0-0.8-0.1-1-0.6
			c-1.4-2.4-2.8-4.8-4.2-7.3c-0.3-0.4-0.3-0.7,0-1.2c1.4-2.4,2.9-4.8,4.2-7.3c0.3-0.4,0.5-0.6,1-0.6c1.4,0,2.9,0,4.3,0
			c1.4,0,2.7,0,4.1,0c0.5,0,0.8,0.1,1.1,0.6c1.4,2.4,2.8,4.8,4.2,7.3c0.2,0.4,0.2,0.7,0,1.1C104.1,112.8,102.7,115.2,101.3,117.7z
			 M101.1,99.6c-0.2,0.3-0.4,0.4-0.8,0.4c-2.9,0-5.8,0-8.7,0c-0.3,0-0.6,0-0.8-0.3c-1.5-2.6-3.1-5.3-4.6-7.9c-0.1-0.1,0-0.2-0.1-0.4
			c0.1,0,0.1,0,0.2,0c1.1-2.2,2.6-4.3,3.6-6.5c0.7-1.4,1.6-1.8,3.1-1.7c2.3,0.1,4.7,0,7,0c0.5,0,0.8,0.1,1.1,0.6
			c1.4,2.5,2.9,5,4.4,7.6c0.1,0,0.1,0,0.2,0C104.3,94.2,102.7,96.9,101.1,99.6z M121.6,82c0.3,0.4,0.2,0.7,0,1.2
			c-1.4,2.4-2.8,4.8-4.2,7.2c-0.3,0.5-0.6,0.6-1.1,0.6c-2.8,0-5.6,0-8.4,0c-0.5,0-0.8-0.1-1-0.6c-1.4-2.4-2.8-4.8-4.2-7.3
			c-0.3-0.4-0.2-0.7,0-1.2c1.4-2.4,2.8-4.8,4.2-7.3c0.2-0.4,0.5-0.5,0.9-0.5c1.4,0,2.9,0,4.3,0c1.4,0,2.8,0,4.2,0
			c0.5,0,0.8,0.2,1.1,0.6C118.8,77.2,120.2,79.6,121.6,82z M121.7,63.6c0.2,0.4,0.2,0.7,0,1.1c-1.5,2.5-2.9,4.9-4.3,7.4
			c-0.2,0.4-0.5,0.5-0.9,0.5c-1.4,0-2.8,0-4.2,0c-1.4,0-2.8,0-4.2,0c-0.5,0-0.8-0.1-1-0.5c-1.4-2.5-2.8-4.9-4.3-7.3
			c-0.2-0.4-0.2-0.7,0-1.1c1.4-2.4,2.8-4.8,4.2-7.2c0.3-0.5,0.6-0.6,1.1-0.6c2.8,0,5.6,0,8.4,0c0.5,0,0.8,0.1,1,0.6
			C118.9,58.8,120.3,61.2,121.7,63.6z M121.7,45.3c0.3,0.5,0.3,0.8,0,1.2c-1.4,2.4-2.8,4.7-4.1,7.1c-0.3,0.5-0.6,0.7-1.1,0.7
			c-1.4,0-2.8,0-4.2,0c-1.3,0-2.7,0-4,0c-0.6,0-0.9-0.1-1.2-0.7c-1.3-2.4-2.7-4.7-4.1-7.1c-0.3-0.4-0.3-0.8,0-1.2
			c1.4-2.4,2.8-4.8,4.2-7.2c0.2-0.4,0.5-0.6,1-0.6c2.8,0,5.7,0,8.5,0c0.5,0,0.8,0.2,1,0.6C118.9,40.5,120.3,42.9,121.7,45.3z
			 M121.6,27.1c0.2,0.4,0.2,0.6,0,1c-1.5,2.5-2.9,4.9-4.3,7.4c-0.2,0.4-0.5,0.5-1,0.5c-1.4,0-2.8,0-4.2,0c0,0,0,0,0,0
			c-1.4,0-2.8,0-4.2,0c-0.5,0-0.8-0.1-1.1-0.6c-1.4-2.4-2.8-4.8-4.2-7.3c-0.3-0.4-0.2-0.7,0-1.2c1.4-2.4,2.8-4.8,4.2-7.2
			c0.3-0.4,0.5-0.6,1.1-0.6c2.8,0,5.6,0,8.4,0c0.5,0,0.8,0.1,1,0.6C118.8,22.2,120.2,24.6,121.6,27.1z M102.7,8.7
			c1.4-2.4,2.8-4.8,4.2-7.2c0.3-0.4,0.5-0.6,1.1-0.6c2.8,0,5.6,0,8.4,0c0.5,0,0.8,0.2,1.1,0.6c1.4,2.4,2.7,4.7,4.1,7.1
			c0.3,0.5,0.3,0.8,0,1.3c-1.4,2.4-2.8,4.8-4.2,7.2c-0.3,0.5-0.6,0.6-1.1,0.6c-1.4,0-2.8,0-4.2,0c-1.4,0-2.7,0-4.1,0
			c-0.5,0-0.8-0.1-1.1-0.6c-1.4-2.4-2.8-4.8-4.2-7.3C102.4,9.4,102.4,9.1,102.7,8.7z M91.8,10c1.4,0,2.9,0,4.3,0c1.4,0,2.7,0,4.1,0
			c0.5,0,0.8,0.1,1.1,0.6c1.4,2.4,2.8,4.8,4.2,7.3c0.2,0.4,0.2,0.7,0,1.1c-1.4,2.4-2.8,4.8-4.2,7.3c-0.3,0.5-0.6,0.6-1.1,0.6
			c-2.8,0-5.6,0-8.4,0c-0.5,0-0.8-0.1-1-0.6c-1.4-2.4-2.8-4.8-4.2-7.3c-0.3-0.4-0.3-0.7,0-1.2c1.4-2.4,2.9-4.8,4.2-7.3
			C91.1,10.2,91.3,10,91.8,10z M70.6,8.7C72,6.3,73.3,4,74.7,1.6c0.3-0.5,0.6-0.7,1.1-0.7c1.4,0,2.8,0,4.2,0c1.4,0,2.8,0,4.2,0
			c0.5,0,0.8,0.2,1,0.6c1.4,2.4,2.8,4.8,4.2,7.3c0.3,0.4,0.2,0.7,0,1.2c-1.4,2.4-2.8,4.7-4.1,7.1c-0.3,0.5-0.6,0.7-1.2,0.7
			c-2.8,0-5.5,0-8.3,0c-0.5,0-0.8-0.2-1.1-0.6c-1.4-2.4-2.8-4.8-4.2-7.2C70.3,9.5,70.3,9.1,70.6,8.7z M59.8,10c2.8,0,5.6,0,8.4,0
			c0.5,0,0.8,0.2,1.1,0.6c1.4,2.4,2.8,4.8,4.2,7.2c0.2,0.4,0.3,0.7,0,1.2c-1.4,2.4-2.8,4.8-4.2,7.3c-0.3,0.5-0.6,0.6-1.1,0.6
			c-1.4,0-2.8,0-4.2,0c-1.4,0-2.7,0-4.1,0c-0.5,0-0.8-0.1-1.1-0.6c-1.4-2.4-2.8-4.9-4.2-7.3c-0.3-0.4-0.2-0.7,0-1.2
			c1.4-2.4,2.8-4.8,4.2-7.2C58.9,10.2,59.2,10,59.8,10z M38.4,8.7c1.4-2.4,2.8-4.8,4.2-7.3c0.2-0.4,0.5-0.6,1-0.6c2.8,0,5.7,0,8.5,0
			c0.5,0,0.8,0.2,1,0.6c1.4,2.4,2.8,4.8,4.2,7.3c0.2,0.4,0.3,0.7,0,1.1c-1.4,2.4-2.8,4.8-4.2,7.3c-0.3,0.4-0.6,0.6-1.1,0.6
			c-1.4,0-2.8,0-4.2,0c-1.4,0-2.8,0-4.2,0c-0.5,0-0.8-0.1-1-0.6c-1.4-2.5-2.8-4.9-4.3-7.3C38.2,9.4,38.2,9.1,38.4,8.7z M27.6,10
			c1.4,0,2.9,0,4.3,0c1.4,0,2.8,0,4.2,0c0.5,0,0.8,0.1,1,0.6c1.4,2.4,2.8,4.8,4.2,7.2c0.3,0.4,0.2,0.7,0,1.2
			c-1.4,2.4-2.8,4.8-4.2,7.2c-0.2,0.4-0.5,0.6-0.9,0.6c-2.9,0-5.7,0-8.6,0c-0.4,0-0.7-0.1-0.9-0.5c-1.4-2.5-2.9-5-4.4-7.5
			c-0.2-0.3-0.2-0.6,0-0.9c1.5-2.5,2.9-5,4.4-7.5C26.9,10.1,27.2,10,27.6,10z M6.3,9.8c-0.2-0.4-0.2-0.6,0-1
			c1.4-2.4,2.9-4.9,4.3-7.3c0.2-0.4,0.5-0.6,0.9-0.6c2.9,0,5.7,0,8.6,0c0.5,0,0.7,0.1,0.9,0.5c1.4,2.5,2.9,4.9,4.3,7.4
			c0.2,0.3,0.2,0.6,0,0.9c-1.5,2.5-2.9,4.9-4.3,7.4c-0.2,0.4-0.5,0.5-0.9,0.5c-1.4,0-2.9,0-4.3,0c-1.4,0-2.8,0-4.2,0
			c-0.5,0-0.8-0.2-1-0.6C9.1,14.7,7.7,12.2,6.3,9.8z M6.2,28c-0.2-0.3-0.2-0.6,0-0.9c1.5-2.5,2.9-4.9,4.3-7.4
			c0.2-0.4,0.5-0.5,0.9-0.5c1.4,0,2.9,0,4.3,0c1.4,0,2.8,0,4.2,0c0.5,0,0.8,0.1,1,0.6c1.4,2.5,2.8,4.9,4.3,7.3c0.2,0.4,0.2,0.6,0,1
			c-1.4,2.4-2.9,4.9-4.3,7.3c-0.2,0.4-0.5,0.6-1,0.6c-2.8,0-5.7,0-8.5,0c-0.4,0-0.7-0.1-0.9-0.5C9.2,33,7.7,30.5,6.2,28z M6.4,46.5
			c-0.2-0.4-0.3-0.7,0-1.1c1.4-2.4,2.8-4.8,4.2-7.3c0.3-0.4,0.5-0.6,1.1-0.6c2.8,0,5.6,0,8.4,0c0.5,0,0.8,0.2,1.1,0.6
			c1.4,2.4,2.8,4.8,4.2,7.2c0.2,0.4,0.3,0.7,0,1.2c-1.4,2.4-2.8,4.8-4.2,7.2c-0.2,0.4-0.5,0.6-1,0.6c-1.4,0-2.9,0-4.3,0
			c-1.4,0-2.7,0-4.1,0c-0.5,0-0.8-0.1-1.1-0.6C9.3,51.3,7.9,48.9,6.4,46.5z M6.5,64.8c-0.2-0.4-0.3-0.7,0-1.1
			c1.5-2.5,2.9-4.9,4.3-7.4c0.2-0.4,0.5-0.5,1-0.5c1.4,0,2.9,0,4.3,0c1.4,0,2.7,0,4.1,0c0.5,0,0.8,0.1,1.1,0.6
			c1.4,2.4,2.7,4.7,4.1,7.1c0.3,0.5,0.3,0.8,0,1.3c-1.4,2.4-2.8,4.8-4.2,7.2c-0.3,0.5-0.6,0.6-1.2,0.6c-2.7,0-5.5,0-8.2,0
			c-0.6,0-0.9-0.2-1.1-0.6C9.3,69.5,7.9,67.2,6.5,64.8z M6.3,83.1c-0.3-0.4-0.2-0.7,0-1.2c1.4-2.4,2.8-4.8,4.2-7.2
			c0.3-0.5,0.6-0.6,1.1-0.6c2.8,0,5.6,0,8.4,0c0.5,0,0.8,0.2,1.1,0.6c1.4,2.4,2.8,4.8,4.2,7.2c0.2,0.4,0.2,0.6,0,1
			c-1.5,2.5-2.9,4.9-4.3,7.4c-0.2,0.4-0.5,0.5-1,0.5c-1.4,0-2.9,0-4.3,0c0,0,0,0,0,0c-1.4,0-2.8,0-4.2,0c-0.5,0-0.8-0.2-1-0.6
			C9.1,87.9,7.7,85.5,6.3,83.1z M22.3,91.4c-0.1-0.4,0.2-0.6,0.4-0.9c1.3-2.2,2.6-4.4,3.8-6.5c0.3-0.6,0.7-0.7,1.3-0.7
			c2.7,0,5.4,0,8.1,0c0.6,0,0.9,0.2,1.2,0.7c1.4,2.5,2.9,5,4.4,7.5c0,0,0,0,0,0c0.1,0.3-0.1,0.5-0.2,0.8c-1.4,2.4-2.8,4.8-4.2,7.2
			c-0.2,0.4-0.5,0.6-1,0.6c-2.8,0-5.7,0-8.5,0c-0.4,0-0.7,0-0.9-0.4c-1.5-2.6-3-5.1-4.5-7.6c-0.1-0.2-0.1-0.3-0.1-0.5
			C22.2,91.4,22.2,91.4,22.3,91.4z M6.3,101.2c-0.2-0.4-0.2-0.6,0-1c1.4-2.4,2.9-4.9,4.3-7.3c0.2-0.4,0.5-0.6,0.9-0.6
			c2.9,0,5.7,0,8.6,0c0.5,0,0.7,0.1,0.9,0.5c1.4,2.5,2.9,4.9,4.3,7.4c0.2,0.3,0.2,0.6,0,0.9c-1.5,2.5-2.9,4.9-4.3,7.4
			c-0.2,0.4-0.5,0.5-0.9,0.5c-1.4,0-2.9,0-4.3,0c-1.4,0-2.8,0-4.2,0c-0.5,0-0.8-0.2-1-0.6C9.1,106.1,7.7,103.7,6.3,101.2z
			 M6.2,119.5c-0.2-0.3-0.2-0.6,0-0.9c1.5-2.5,2.9-4.9,4.3-7.4c0.2-0.4,0.5-0.5,0.9-0.5c1.4,0,2.9,0,4.3,0c1.4,0,2.8,0,4.2,0
			c0.5,0,0.8,0.1,1,0.6c1.4,2.5,2.8,4.9,4.3,7.3c0.2,0.4,0.2,0.6,0,1c-1.4,2.4-2.9,4.9-4.3,7.3c-0.2,0.4-0.5,0.6-1,0.6
			c-2.8,0-5.7,0-8.5,0c-0.4,0-0.7-0.1-0.9-0.5C9.1,124.4,7.7,121.9,6.2,119.5z M6.4,137.9c-0.2-0.4-0.3-0.7,0-1.1
			c1.4-2.4,2.8-4.8,4.2-7.3c0.3-0.4,0.5-0.6,1.1-0.6c2.8,0,5.6,0,8.4,0c0.5,0,0.8,0.2,1.1,0.6c1.4,2.4,2.8,4.8,4.2,7.2
			c0.2,0.4,0.3,0.7,0,1.2c-1.4,2.4-2.8,4.8-4.2,7.2c-0.2,0.4-0.5,0.6-1,0.6c-1.4,0-2.9,0-4.3,0c-1.4,0-2.7,0-4.1,0
			c-0.5,0-0.8-0.1-1.1-0.6C9.3,142.7,7.9,140.3,6.4,137.9z M6.5,156.2c-0.2-0.4-0.3-0.7,0-1.1c1.5-2.5,2.9-4.9,4.3-7.4
			c0.2-0.4,0.5-0.5,1-0.5c1.4,0,2.9,0,4.3,0c1.4,0,2.7,0,4.1,0c0.5,0,0.8,0.1,1.1,0.6c1.4,2.4,2.7,4.7,4.1,7.1
			c0.3,0.5,0.3,0.8,0,1.3c-1.4,2.4-2.8,4.8-4.2,7.2c-0.3,0.5-0.6,0.6-1.2,0.6c-2.7,0-5.5,0-8.2,0c-0.6,0-0.9-0.2-1.1-0.6
			C9.3,161,7.9,158.6,6.5,156.2z M25.3,174.5c-1.5,2.5-2.9,4.9-4.3,7.4c-0.2,0.4-0.5,0.5-1,0.5c-1.4,0-2.9,0-4.3,0c0,0,0,0,0,0
			c-1.4,0-2.8,0-4.2,0c-0.5,0-0.8-0.2-1-0.6c-1.4-2.4-2.8-4.8-4.2-7.2c-0.3-0.4-0.2-0.7,0-1.2c1.4-2.4,2.8-4.8,4.2-7.2
			c0.3-0.5,0.6-0.6,1.1-0.6c2.8,0,5.6,0,8.4,0c0.5,0,0.8,0.2,1.1,0.6c1.4,2.4,2.8,4.8,4.2,7.2C25.5,173.8,25.5,174.1,25.3,174.5z
			 M37.1,172.6c-0.3,0.5-0.5,0.6-1.1,0.6c-1.4,0-2.8,0-4.2,0c0,0,0,0,0,0c-1.4,0-2.8,0-4.2,0c-0.5,0-0.8-0.1-1-0.6
			c-1.4-2.4-2.8-4.8-4.2-7.3c-0.2-0.4-0.2-0.7,0-1.1c1.4-2.4,2.9-4.9,4.3-7.3c0.2-0.4,0.5-0.6,1-0.6c2.8,0,5.6,0,8.4,0
			c0.5,0,0.8,0.1,1,0.6c1.4,2.4,2.8,4.8,4.2,7.2c0.3,0.4,0.3,0.8,0,1.2C39.9,167.8,38.5,170.2,37.1,172.6z M57.4,174.6
			c-1.4,2.4-2.8,4.8-4.2,7.2c-0.2,0.4-0.5,0.6-1,0.6c-2.8,0-5.7,0-8.5,0c-0.5,0-0.8-0.1-1-0.6c-1.4-2.4-2.8-4.9-4.2-7.3
			c-0.3-0.4-0.2-0.8,0-1.2c1.4-2.4,2.8-4.8,4.2-7.2c0.2-0.4,0.5-0.6,1-0.6c1.4,0,2.9,0,4.3,0c0,0,0,0,0,0c1.4,0,2.7,0,4.1,0
			c0.6,0,0.9,0.2,1.2,0.7c1.4,2.4,2.7,4.7,4.1,7.1C57.6,173.8,57.6,174.1,57.4,174.6z M68.1,173.2c-1.4,0-2.8,0-4.2,0
			c-1.4,0-2.8,0-4.2,0c-0.5,0-0.8-0.2-1-0.6c-1.4-2.4-2.8-4.8-4.2-7.2c-0.2-0.4-0.3-0.7,0-1.2c1.4-2.4,2.9-4.8,4.2-7.3
			c0.3-0.5,0.6-0.6,1.1-0.6c2.8,0,5.5,0,8.3,0c0.5,0,0.8,0.1,1.1,0.6c1.4,2.4,2.8,4.8,4.2,7.2c0.3,0.5,0.2,0.8,0,1.2
			c-1.4,2.4-2.8,4.7-4.1,7.1C69,173,68.7,173.3,68.1,173.2z M89.5,174.5c-1.4,2.4-2.8,4.8-4.2,7.3c-0.2,0.4-0.5,0.6-1,0.6
			c-1.4,0-2.8,0-4.2,0c0,0,0,0,0,0c-1.4,0-2.9,0-4.3,0c-0.4,0-0.7-0.1-0.9-0.5c-1.4-2.5-2.8-4.9-4.3-7.3c-0.2-0.4-0.2-0.7,0-1.1
			c1.4-2.4,2.8-4.8,4.2-7.2c0.3-0.5,0.6-0.7,1.2-0.6c2.8,0,5.5,0,8.3,0c0.5,0,0.8,0.1,1.1,0.6c1.4,2.4,2.8,4.8,4.2,7.3
			C89.8,173.9,89.7,174.2,89.5,174.5z M100.1,173.2c-2.7,0-5.5,0-8.2,0c-0.6,0-0.9-0.2-1.2-0.6c-1.4-2.4-2.7-4.7-4.1-7.1
			c-0.3-0.5-0.2-0.8,0-1.2c1.4-2.4,2.8-4.8,4.2-7.2c0.3-0.5,0.5-0.6,1.1-0.6c1.4,0,2.9,0,4.3,0c1.4,0,2.7,0,4.1,0
			c0.5,0,0.8,0.2,1,0.6c1.4,2.4,2.8,4.8,4.2,7.3c0.3,0.4,0.2,0.7,0,1.2c-1.4,2.4-2.8,4.7-4.1,7.1
			C101.1,173.1,100.7,173.2,100.1,173.2z M121.6,173.4c0.3,0.4,0.2,0.7,0,1.2c-1.4,2.4-2.8,4.8-4.2,7.2c-0.3,0.5-0.6,0.6-1.1,0.6
			c-2.8,0-5.6,0-8.4,0c-0.5,0-0.8-0.1-1-0.6c-1.4-2.4-2.8-4.8-4.2-7.3c-0.3-0.4-0.2-0.7,0-1.2c1.4-2.4,2.8-4.8,4.2-7.3
			c0.2-0.4,0.5-0.5,0.9-0.5c1.4,0,2.9,0,4.3,0c1.4,0,2.8,0,4.2,0c0.5,0,0.8,0.2,1.1,0.6C118.8,168.6,120.2,171,121.6,173.4z
			 M121.7,155c0.2,0.4,0.2,0.7,0,1.1c-1.5,2.5-2.9,4.9-4.3,7.4c-0.2,0.4-0.5,0.5-0.9,0.5c-1.4,0-2.8,0-4.2,0c-1.4,0-2.8,0-4.2,0
			c-0.5,0-0.8-0.1-1-0.5c-1.4-2.5-2.8-4.9-4.3-7.3c-0.2-0.4-0.2-0.7,0-1.1c1.4-2.4,2.8-4.8,4.2-7.2c0.3-0.5,0.6-0.6,1.1-0.6
			c2.8,0,5.6,0,8.4,0c0.5,0,0.8,0.1,1,0.6C118.9,150.2,120.3,152.6,121.7,155z M121.7,136.7c0.3,0.5,0.3,0.8,0,1.2
			c-1.4,2.4-2.8,4.7-4.1,7.1c-0.3,0.5-0.6,0.7-1.1,0.7c-1.4,0-2.8,0-4.2,0c-1.3,0-2.7,0-4,0c-0.6,0-0.9-0.1-1.2-0.7
			c-1.3-2.4-2.7-4.7-4.1-7.1c-0.3-0.4-0.3-0.8,0-1.2c1.4-2.4,2.8-4.8,4.2-7.2c0.2-0.4,0.5-0.6,1-0.6c2.8,0,5.7,0,8.5,0
			c0.5,0,0.8,0.2,1,0.6C118.9,132,120.3,134.4,121.7,136.7z M121.6,118.5c0.2,0.4,0.2,0.6,0,1c-1.5,2.5-2.9,4.9-4.3,7.4
			c-0.2,0.4-0.5,0.5-1,0.5c-1.4,0-2.8,0-4.2,0c0,0,0,0,0,0c-1.4,0-2.8,0-4.2,0c-0.5,0-0.8-0.1-1.1-0.6c-1.4-2.4-2.8-4.8-4.2-7.3
			c-0.3-0.4-0.2-0.7,0-1.2c1.4-2.4,2.8-4.8,4.2-7.2c0.3-0.4,0.5-0.6,1.1-0.6c2.8,0,5.6,0,8.4,0c0.5,0,0.8,0.1,1,0.6
			C118.8,113.6,120.2,116,121.6,118.5z M121.6,101.4c-1.4,2.4-2.8,4.8-4.2,7.2c-0.3,0.5-0.6,0.6-1.1,0.6c-1.4,0-2.8,0-4.2,0
			c-1.4,0-2.7,0-4.1,0c-0.5,0-0.8-0.1-1.1-0.6c-1.4-2.4-2.8-4.8-4.2-7.3c-0.3-0.4-0.2-0.7,0-1.2c1.4-2.4,2.8-4.8,4.2-7.2
			c0.3-0.4,0.5-0.6,1.1-0.6c2.8,0,5.6,0,8.4,0c0.5,0,0.8,0.2,1.1,0.6c1.4,2.4,2.7,4.7,4.1,7.1C121.8,100.5,121.9,100.9,121.6,101.4z
			"/>
		<path d="M250.9,10.6c0.3-0.5,0.6-0.6,1.1-0.6c1.3,0,2.7,0,4,0c0-0.5,0-1,0-1.5c-1.4,0-2.7,0-4.1,0c-0.4,0-0.7,0-0.9-0.4
			c-1.4-2.5-2.9-5-4.4-7.5c-0.1-0.2-0.2-0.4-0.1-0.6c-4.2,0-8.4,0-12.6,0c-1.6,2.7-3.2,5.5-4.7,8.2c-0.2,0.3-0.4,0.4-0.8,0.4
			c-2.9,0-5.8,0-8.7,0c-0.3,0-0.6,0-0.8-0.3c-1.5-2.6-3.1-5.3-4.6-7.9c-0.1-0.1,0-0.2-0.1-0.4c-4.2,0-8.4,0-12.6,0
			c0,0.2,0,0.3-0.1,0.5c-1.5,2.5-3,5-4.4,7.6c-0.2,0.4-0.5,0.5-1,0.5c-2.8,0-5.7,0-8.5,0c-0.4,0-0.7-0.1-1-0.5
			c-1.4-2.5-2.9-4.9-4.3-7.4c-0.1-0.2-0.3-0.4-0.1-0.7c-4.3,0-8.5,0-12.8,0c0.1,0.3-0.1,0.5-0.2,0.8c-1.4,2.4-2.8,4.8-4.2,7.2
			c-0.2,0.4-0.5,0.6-1,0.6c-2.8,0-5.7,0-8.5,0c-0.4,0-0.7,0-0.9-0.4c-1.5-2.6-3-5.1-4.5-7.6c-0.1-0.2-0.1-0.3-0.1-0.5
			c-4.2,0-8.4,0-12.6,0c-1.6,2.7-3.2,5.5-4.7,8.2c-0.2,0.4-0.5,0.3-0.9,0.3c-1.3,0-2.6,0-3.9,0c0,0.5,0,1,0,1.5c1.3,0,2.7,0,4,0
			c0.4,0,0.7,0.1,0.9,0.5c1.4,2.5,2.9,5,4.4,7.5c0.2,0.3,0.2,0.5,0,0.8c-1.5,2.5-2.9,5-4.4,7.5c-0.2,0.4-0.5,0.5-1,0.5
			c-1.3,0-2.6,0-3.9,0.1c0,0.5,0,1,0,1.5c1.3,0,2.7,0,4,0c0.5,0,0.8,0.1,1,0.5c1.4,2.5,2.8,4.9,4.3,7.3c0.2,0.4,0.2,0.7,0,1.1
			c-1.4,2.4-2.9,4.9-4.3,7.3c-0.2,0.4-0.5,0.5-0.9,0.5c-1.4,0-2.7,0-4.1,0c0,0.5,0,1,0,1.5c1.4,0,2.7,0,4.1,0c0.5,0,0.7,0.1,0.9,0.5
			c1.4,2.5,2.9,4.9,4.3,7.4c0.2,0.3,0.2,0.6,0,0.9c-1.5,2.5-2.9,5-4.4,7.5c-0.2,0.4-0.5,0.5-0.9,0.5c-1.4,0-2.7,0-4.1,0
			c0,0.5,0,1,0,1.5c1.3,0.2,2.6,0.1,3.9,0.1c0.5,0,0.8,0.1,1,0.6c1.4,2.4,2.8,4.8,4.2,7.3c0.2,0.4,0.3,0.7,0,1.2
			c-1.4,2.4-2.8,4.8-4.2,7.2c-0.3,0.5-0.6,0.7-1.2,0.7c-1.3-0.1-2.6,0-3.8-0.1c0,0.5,0,1,0,1.5c1.3,0,2.6,0.1,3.9,0.1
			c0.4,0,0.7,0,1,0.5c1.5,2.6,3,5.1,4.5,7.7c0.1,0,0.1,0,0.2,0c-1.6,2.7-3.2,5.5-4.7,8.2c-0.2,0.4-0.5,0.3-0.9,0.3
			c-1.3,0-2.6,0-3.9,0c0,0.5,0,1,0,1.5c1.3,0,2.7,0,4,0c0.4,0,0.7,0.1,0.9,0.5c1.4,2.5,2.9,5,4.4,7.5c0.2,0.3,0.2,0.5,0,0.8
			c-1.5,2.5-2.9,5-4.4,7.5c-0.2,0.4-0.5,0.5-1,0.5c-1.3,0-2.6,0-3.9,0.1c0,0.5,0,1,0,1.5c1.3,0,2.7,0,4,0c0.5,0,0.8,0.1,1,0.5
			c1.4,2.5,2.8,4.9,4.3,7.3c0.2,0.4,0.2,0.7,0,1.1c-1.4,2.4-2.9,4.9-4.3,7.3c-0.2,0.4-0.5,0.5-0.9,0.5c-1.4,0-2.7,0-4.1,0
			c0,0.5,0,1,0,1.5c1.4,0,2.7,0,4.1,0c0.5,0,0.7,0.1,0.9,0.5c1.4,2.5,2.9,4.9,4.3,7.4c0.2,0.3,0.2,0.6,0,0.9c-1.5,2.5-2.9,5-4.4,7.5
			c-0.2,0.4-0.5,0.5-0.9,0.5c-1.4,0-2.7,0-4.1,0c0,0.5,0,1,0,1.5c1.3,0.2,2.6,0.1,3.9,0.1c0.5,0,0.8,0.1,1,0.6
			c1.4,2.4,2.8,4.8,4.2,7.3c0.2,0.4,0.3,0.7,0,1.2c-1.4,2.4-2.8,4.8-4.2,7.2c-0.3,0.5-0.6,0.7-1.2,0.7c-1.3-0.1-2.6,0-3.8-0.1
			c0,0.5,0,1,0,1.5c1.3,0,2.6,0.1,3.9,0.1c0.4,0,0.7,0,1,0.5c1.5,2.6,3,5.1,4.5,7.7c4.3,0,8.7,0,13,0c-0.1-0.4,0.2-0.6,0.4-0.9
			c1.3-2.2,2.6-4.4,3.8-6.5c0.3-0.6,0.7-0.7,1.3-0.7c2.7,0,5.4,0,8.1,0c0.6,0,0.9,0.2,1.2,0.7c1.4,2.5,2.9,5,4.4,7.5
			c4.3,0,8.5,0,12.8,0c1.5-2.5,3-5.1,4.4-7.6c0.2-0.4,0.4-0.5,0.9-0.5c2.9,0,5.8,0,8.7,0c0.3,0,0.6,0,0.8,0.3
			c1.5,2.6,3.1,5.1,4.5,7.8c4.3,0,8.7,0,13,0c1.1-2.2,2.6-4.3,3.6-6.5c0.7-1.4,1.6-1.8,3.1-1.7c2.3,0.1,4.7,0,7,0
			c0.5,0,0.8,0.1,1.1,0.6c1.4,2.5,2.9,5,4.4,7.6c4.3,0,8.5,0,12.8,0c1.5-2.5,2.9-5,4.4-7.5c0.3-0.5,0.6-0.7,1.2-0.7
			c1.3,0,2.6,0.1,3.9-0.1c0-0.5,0-1,0-1.5c-1.4,0-2.9,0-4.3,0.1c-0.4,0-0.5-0.2-0.7-0.5c-1.4-2.5-2.9-4.9-4.3-7.4
			c-0.2-0.4-0.2-0.7,0-1c1.5-2.5,2.9-4.9,4.3-7.4c0.2-0.3,0.3-0.5,0.7-0.5c1.4,0,2.9,0,4.3,0.1c0-0.5,0-1.1,0-1.6
			c-1.3,0-2.6,0-3.9,0c-0.5,0-0.8-0.2-1-0.6c-1.4-2.5-2.8-4.9-4.3-7.3c-0.2-0.4-0.2-0.6,0-1c1.4-2.4,2.9-4.9,4.3-7.3
			c0.2-0.4,0.5-0.6,1-0.6c1.3,0,2.6,0,3.9,0c0-0.5,0-1,0-1.5c-1.3,0-2.6,0-3.9,0c-0.5,0-0.8-0.1-1-0.6c-1.4-2.4-2.8-4.8-4.2-7.2
			c-0.3-0.4-0.2-0.7,0-1.2c1.4-2.4,2.8-4.8,4.2-7.2c0.2-0.4,0.5-0.6,1-0.6c1.3,0,2.6,0,3.9,0c0-0.5,0-1,0-1.5c-1.3,0-2.7-0.1-4,0
			c-0.5,0-0.8-0.2-1.1-0.6c-1.4-2.4-2.8-4.8-4.2-7.2c-0.3-0.5-0.3-0.8,0-1.2c1.4-2.4,2.8-4.8,4.2-7.2c0.3-0.5,0.6-0.6,1.1-0.6
			c1.3,0,2.7,0,4,0c0-0.5,0-1,0-1.5c-1.4,0-2.7,0-4.1,0c-0.4,0-0.7,0-0.9-0.4c-1.4-2.5-2.9-5-4.4-7.5c-0.1-0.2-0.2-0.4-0.1-0.6
			c0,0,0,0,0,0c1.5-2.5,2.9-5,4.4-7.5c0.3-0.5,0.6-0.7,1.2-0.7c1.3,0,2.6,0.1,3.9-0.1c0-0.5,0-1,0-1.5c-1.4,0-2.9,0-4.3,0.1
			c-0.4,0-0.5-0.2-0.7-0.5c-1.4-2.5-2.9-4.9-4.3-7.4c-0.2-0.4-0.2-0.7,0-1c1.5-2.5,2.9-4.9,4.3-7.4c0.2-0.3,0.3-0.5,0.7-0.5
			c1.4,0,2.9,0,4.3,0.1c0-0.5,0-1.1,0-1.6c-1.3,0-2.6,0-3.9,0c-0.5,0-0.8-0.2-1-0.6c-1.4-2.5-2.8-4.9-4.3-7.3c-0.2-0.4-0.2-0.6,0-1
			c1.4-2.4,2.9-4.9,4.3-7.3c0.2-0.4,0.5-0.6,1-0.6c1.3,0,2.6,0,3.9,0c0-0.5,0-1,0-1.5c-1.3,0-2.6,0-3.9,0c-0.5,0-0.8-0.1-1-0.6
			c-1.4-2.4-2.8-4.8-4.2-7.2c-0.3-0.4-0.2-0.7,0-1.2c1.4-2.4,2.8-4.8,4.2-7.2c0.2-0.4,0.5-0.6,1-0.6c1.3,0,2.6,0,3.9,0
			c0-0.5,0-1,0-1.5c-1.3,0-2.7-0.1-4,0c-0.5,0-0.8-0.2-1.1-0.6c-1.4-2.4-2.8-4.8-4.2-7.2c-0.3-0.5-0.3-0.8,0-1.2
			C248.1,15.4,249.5,13,250.9,10.6z M219.8,10c1.4,0,2.9,0,4.3,0c1.4,0,2.7,0,4.1,0c0.5,0,0.8,0.1,1.1,0.6c1.4,2.4,2.8,4.8,4.2,7.3
			c0.2,0.4,0.2,0.7,0,1.1c-1.4,2.4-2.8,4.8-4.2,7.3c-0.3,0.5-0.6,0.6-1.1,0.6c-2.8,0-5.6,0-8.4,0c-0.5,0-0.8-0.1-1-0.6
			c-1.4-2.4-2.8-4.8-4.2-7.3c-0.3-0.4-0.3-0.7,0-1.2c1.4-2.4,2.9-4.8,4.2-7.3C219.1,10.2,219.3,10,219.8,10z M155.6,81.8
			c-0.5,0-0.8-0.1-1-0.6c-1.4-2.4-2.8-4.8-4.2-7.3c-0.2-0.4-0.2-0.7,0-1.1c1.4-2.4,2.9-4.9,4.3-7.3c0.2-0.4,0.5-0.6,1-0.6
			c2.8,0,5.6,0,8.4,0c0.5,0,0.8,0.1,1,0.6c1.4,2.4,2.8,4.8,4.2,7.2c0.3,0.4,0.3,0.8,0,1.2c-1.4,2.4-2.8,4.8-4.2,7.2
			c-0.3,0.5-0.5,0.6-1.1,0.6c-1.4,0-2.8,0-4.2,0c0,0,0,0,0,0C158.4,81.8,157,81.8,155.6,81.8z M185.5,46.5c-1.4,2.4-2.8,4.8-4.2,7.2
			c-0.3,0.5-0.6,0.7-1.1,0.7c-1.4,0-2.8,0-4.2,0c-1.4,0-2.7,0-4.1,0c-0.5,0-0.8-0.1-1.1-0.6c-1.4-2.4-2.8-4.9-4.2-7.3
			c-0.3-0.4-0.2-0.7,0-1.2c1.4-2.4,2.8-4.7,4.1-7.1c0.3-0.5,0.6-0.7,1.2-0.7c2.7,0,5.4,0,8.1,0c0.6,0,1,0.1,1.3,0.7
			c1.3,2.4,2.7,4.7,4.1,7.1C185.8,45.8,185.8,46.1,185.5,46.5z M186.9,47.2c0.2-0.4,0.5-0.5,1-0.5c1.4,0,2.9,0,4.3,0
			c1.4,0,2.8,0,4.2,0c0.5,0,0.8,0.1,1,0.6c1.4,2.5,2.8,4.9,4.3,7.3c0.2,0.4,0.2,0.6,0,1c-1.4,2.4-2.9,4.9-4.3,7.3
			c-0.2,0.4-0.5,0.6-0.9,0.6c-2.9,0-5.7,0-8.6,0c-0.4,0-0.7-0.1-0.9-0.5c-1.4-2.5-2.9-5-4.3-7.4c-0.2-0.3-0.2-0.6,0-0.9
			C184,52.1,185.5,49.7,186.9,47.2z M170.9,56.3c0.2-0.4,0.5-0.5,1-0.5c1.4,0,2.9,0,4.3,0c1.4,0,2.7,0,4.1,0c0.5,0,0.8,0.1,1.1,0.6
			c1.4,2.4,2.8,4.8,4.2,7.2c0.2,0.4,0.2,0.7,0,1.1c-1.4,2.4-2.9,4.9-4.3,7.3c-0.2,0.4-0.5,0.6-1,0.6c-2.8,0-5.6,0-8.4,0
			c-0.5,0-0.8-0.1-1-0.6c-1.4-2.5-2.8-4.9-4.3-7.3c-0.2-0.4-0.2-0.6,0-1C168,61.2,169.4,58.8,170.9,56.3z M182.5,72.9
			c1.4-2.4,2.9-4.8,4.2-7.3c0.3-0.5,0.6-0.6,1.1-0.6c2.8,0,5.5,0,8.3,0c0.5,0,0.8,0.1,1.1,0.6c1.4,2.4,2.8,4.8,4.2,7.2
			c0.3,0.5,0.2,0.8,0,1.2c-1.4,2.4-2.8,4.7-4.1,7.1c-0.3,0.5-0.6,0.7-1.1,0.7c-1.4,0-2.8,0-4.2,0c-1.4,0-2.8,0-4.2,0
			c-0.5,0-0.8-0.2-1-0.6c-1.4-2.4-2.8-4.8-4.2-7.2C182.3,73.6,182.2,73.3,182.5,72.9z M198.6,64.6c-0.2-0.3-0.2-0.6,0-0.9
			c1.5-2.5,2.9-4.9,4.3-7.4c0.2-0.4,0.5-0.5,1-0.5c1.4,0,2.9,0,4.3,0c1.4,0,2.8,0,4.2,0c0.5,0,0.8,0.2,1,0.6
			c1.4,2.4,2.8,4.8,4.2,7.2c0.2,0.4,0.2,0.7,0,1.1c-1.5,2.5-2.9,4.9-4.3,7.4c-0.2,0.4-0.5,0.5-0.9,0.5c-2.9,0-5.7,0-8.6,0
			c-0.4,0-0.7-0.1-0.9-0.5C201.5,69.6,200.1,67.1,198.6,64.6z M212.4,54.3c-1.4,0-2.8,0-4.2,0c-1.4,0-2.9,0-4.3,0
			c-0.5,0-0.7-0.1-0.9-0.5c-1.4-2.5-2.9-4.9-4.3-7.4c-0.2-0.3-0.2-0.6,0-0.9c1.5-2.5,2.9-5,4.4-7.5c0.2-0.3,0.4-0.4,0.8-0.4
			c2.9,0,5.8,0,8.7,0c0.4,0,0.7,0.1,0.9,0.5c1.4,2.5,2.9,4.9,4.3,7.4c0.2,0.4,0.2,0.6,0,1c-1.4,2.4-2.9,4.9-4.3,7.3
			C213.1,54.2,212.9,54.3,212.4,54.3z M213.3,35.3c-0.3,0.5-0.6,0.7-1.1,0.7c-2.8,0-5.5,0-8.3,0c-0.5,0-0.8-0.2-1.1-0.6
			c-1.4-2.4-2.8-4.8-4.2-7.3c-0.2-0.4-0.3-0.7,0-1.1c1.4-2.4,2.8-4.8,4.2-7.3c0.3-0.5,0.5-0.6,1.1-0.6c1.4,0,2.8,0,4.2,0
			c1.4,0,2.8,0,4.2,0c0.5,0,0.8,0.1,1,0.6c1.4,2.5,2.8,4.9,4.3,7.3c0.2,0.4,0.2,0.7,0,1.1C216.1,30.5,214.7,32.9,213.3,35.3z
			 M201.6,36.3c0.2,0.4,0.2,0.7,0,1.1c-1.4,2.4-2.9,4.9-4.3,7.3c-0.2,0.4-0.5,0.5-0.9,0.5c-1.5,0-2.9,0-4.4,0c-1.4,0-2.7,0-4.1,0
			c-0.5,0-0.8-0.1-1.1-0.6c-1.4-2.4-2.8-4.8-4.2-7.2c-0.2-0.4-0.2-0.7,0-1.1c1.4-2.4,2.8-4.8,4.2-7.3c0.3-0.4,0.5-0.6,1.1-0.6
			c2.8,0,5.6,0,8.4,0c0.5,0,0.8,0.2,1,0.6C198.7,31.4,200.1,33.9,201.6,36.3z M185.4,28.2c-1.4,2.4-2.8,4.7-4.1,7.1
			c-0.3,0.5-0.6,0.7-1.1,0.7c-1.4,0-2.8,0-4.2,0c-1.3,0-2.7,0-4,0c-0.6,0-0.9-0.1-1.2-0.7c-1.4-2.4-2.7-4.7-4.1-7.1
			c-0.3-0.4-0.3-0.8,0-1.2c1.4-2.4,2.8-4.8,4.2-7.2c0.3-0.4,0.5-0.6,1.1-0.6c2.8,0,5.6,0,8.4,0c0.5,0,0.8,0.2,1.1,0.6
			c1.4,2.4,2.8,4.8,4.2,7.2C185.7,27.4,185.6,27.8,185.4,28.2z M169.5,36.3c0.2,0.4,0.2,0.7,0,1.1c-1.4,2.4-2.8,4.8-4.2,7.3
			c-0.2,0.4-0.5,0.6-1,0.6c-1.4,0-2.9,0-4.3,0c-1.4,0-2.7,0-4.1,0c-0.5,0-0.8-0.1-1.1-0.6c-1.4-2.5-2.8-4.9-4.3-7.3
			c-0.2-0.3-0.2-0.6,0-0.9c1.5-2.5,2.9-5,4.4-7.5c0.2-0.4,0.5-0.5,0.9-0.5c2.9,0,5.7,0,8.6,0c0.5,0,0.7,0.2,0.9,0.6
			C166.6,31.4,168,33.8,169.5,36.3z M154.7,47.2c0.2-0.4,0.5-0.5,1-0.5c2.8,0,5.7,0,8.5,0c0.5,0,0.8,0.1,1,0.6
			c1.4,2.5,2.8,4.9,4.3,7.3c0.2,0.4,0.2,0.6,0,1c-1.5,2.5-2.9,4.9-4.3,7.4c-0.2,0.4-0.5,0.5-0.9,0.5c-1.5,0-2.9,0-4.4,0
			c-1.4,0-2.7,0-4.1,0c-0.5,0-0.8-0.1-1.1-0.6c-1.4-2.4-2.8-4.9-4.2-7.3c-0.2-0.4-0.2-0.7,0-1.1C151.9,52.1,153.3,49.6,154.7,47.2z
			 M166.5,81.9c1.4-2.4,2.8-4.8,4.2-7.2c0.2-0.4,0.5-0.6,1-0.6c1.4,0,2.9,0,4.3,0c0,0,0,0,0,0c1.4,0,2.7,0,4.1,0
			c0.6,0,0.9,0.2,1.2,0.7c1.4,2.4,2.7,4.7,4.1,7.1c0.3,0.5,0.3,0.8,0,1.2c-1.4,2.4-2.8,4.8-4.2,7.2c-0.2,0.4-0.5,0.6-1,0.6
			c-2.8,0-5.7,0-8.5,0c-0.5,0-0.8-0.1-1-0.6c-1.4-2.4-2.8-4.9-4.2-7.3C166.2,82.7,166.2,82.3,166.5,81.9z M171.7,92.3
			c2.8,0,5.7,0,8.5,0c0.5,0,0.8,0.2,1,0.6c1.4,2.4,2.8,4.8,4.2,7.3c0.2,0.4,0.3,0.7,0,1.1c-1.4,2.4-2.8,4.8-4.2,7.3
			c-0.3,0.4-0.6,0.6-1.1,0.6c-1.4,0-2.8,0-4.2,0c-1.4,0-2.8,0-4.2,0c-0.5,0-0.8-0.1-1-0.6c-1.4-2.5-2.8-4.9-4.3-7.3
			c-0.2-0.4-0.2-0.7,0-1.1c1.4-2.4,2.8-4.8,4.2-7.3C170.9,92.5,171.2,92.3,171.7,92.3z M170.7,129.7c0.3-0.5,0.6-0.7,1.2-0.7
			c2.7,0,5.4,0,8.1,0c0.6,0,1,0.1,1.3,0.7c1.3,2.4,2.7,4.7,4.1,7.1c0.2,0.4,0.3,0.7,0,1.2c-1.4,2.4-2.8,4.8-4.2,7.2
			c-0.3,0.5-0.6,0.7-1.1,0.7c-1.4,0-2.8,0-4.2,0c-1.4,0-2.7,0-4.1,0c-0.5,0-0.8-0.1-1.1-0.6c-1.4-2.4-2.8-4.9-4.2-7.3
			c-0.3-0.4-0.2-0.7,0-1.2C168,134.4,169.4,132,170.7,129.7z M170.6,126.7c-1.4-2.4-2.7-4.7-4.1-7.1c-0.3-0.4-0.3-0.8,0-1.2
			c1.4-2.4,2.8-4.8,4.2-7.2c0.3-0.4,0.5-0.6,1.1-0.6c2.8,0,5.6,0,8.4,0c0.5,0,0.8,0.2,1.1,0.6c1.4,2.4,2.8,4.8,4.2,7.2
			c0.3,0.5,0.2,0.8,0,1.2c-1.4,2.4-2.8,4.7-4.1,7.1c-0.3,0.5-0.6,0.7-1.1,0.7c-1.4,0-2.8,0-4.2,0c-1.3,0-2.7,0-4,0
			C171.3,127.4,170.9,127.3,170.6,126.7z M182.6,128.8c-0.2-0.4-0.2-0.7,0-1.1c1.4-2.4,2.8-4.8,4.2-7.3c0.3-0.4,0.5-0.6,1.1-0.6
			c2.8,0,5.6,0,8.4,0c0.5,0,0.8,0.2,1,0.6c1.4,2.5,2.8,4.9,4.3,7.3c0.2,0.4,0.2,0.7,0,1.1c-1.4,2.4-2.9,4.9-4.3,7.3
			c-0.2,0.4-0.5,0.5-0.9,0.5c-1.5,0-2.9,0-4.4,0c-1.4,0-2.7,0-4.1,0c-0.5,0-0.8-0.1-1.1-0.6C185.4,133.6,184,131.2,182.6,128.8z
			 M198.6,136.9c1.5-2.5,2.9-5,4.4-7.5c0.2-0.3,0.4-0.4,0.8-0.4c2.9,0,5.8,0,8.7,0c0.4,0,0.7,0.1,0.9,0.5c1.4,2.5,2.9,4.9,4.3,7.4
			c0.2,0.4,0.2,0.6,0,1c-1.4,2.4-2.9,4.9-4.3,7.3c-0.2,0.4-0.5,0.6-1,0.6c-1.4,0-2.8,0-4.2,0c-1.4,0-2.9,0-4.3,0
			c-0.5,0-0.7-0.1-0.9-0.5c-1.4-2.5-2.9-4.9-4.3-7.4C198.4,137.5,198.4,137.2,198.6,136.9z M213.3,126.7c-0.3,0.5-0.6,0.7-1.1,0.7
			c-2.8,0-5.5,0-8.3,0c-0.5,0-0.8-0.2-1.1-0.6c-1.4-2.4-2.8-4.8-4.2-7.3c-0.2-0.4-0.3-0.7,0-1.1c1.4-2.4,2.8-4.8,4.2-7.3
			c0.3-0.5,0.5-0.6,1.1-0.6c1.4,0,2.8,0,4.2,0c1.4,0,2.8,0,4.2,0c0.5,0,0.8,0.1,1,0.6c1.4,2.5,2.8,4.9,4.3,7.3
			c0.2,0.4,0.2,0.7,0,1.1C216.1,121.9,214.7,124.3,213.3,126.7z M201.4,110.4c-1.4,2.4-2.8,4.8-4.2,7.3c-0.3,0.5-0.6,0.6-1.1,0.6
			c-1.4,0-2.8,0-4.2,0c-1.4,0-2.7,0-4.1,0c-0.5,0-0.8-0.1-1.1-0.6c-1.4-2.4-2.8-4.9-4.2-7.3c-0.3-0.4-0.2-0.7,0-1.2
			c1.4-2.4,2.8-4.8,4.2-7.2c0.3-0.5,0.6-0.6,1.1-0.6c2.8,0,5.6,0,8.4,0c0.5,0,0.8,0.2,1.1,0.6c1.4,2.4,2.8,4.8,4.2,7.2
			C201.7,109.7,201.7,110,201.4,110.4z M169.3,109.3c0.3,0.4,0.2,0.7,0,1.2c-1.4,2.4-2.8,4.8-4.2,7.2c-0.2,0.4-0.5,0.6-0.9,0.6
			c-2.9,0-5.7,0-8.6,0c-0.4,0-0.7-0.1-0.9-0.5c-1.4-2.5-2.9-5-4.4-7.5c-0.2-0.3-0.2-0.6,0-0.9c1.5-2.5,2.9-5,4.4-7.5
			c0.2-0.4,0.5-0.4,0.9-0.4c1.4,0,2.9,0,4.3,0c1.4,0,2.8,0,4.2,0c0.5,0,0.8,0.1,1,0.6C166.5,104.5,167.9,106.9,169.3,109.3z
			 M154.8,120.3c0.2-0.4,0.5-0.5,0.9-0.5c2.9,0,5.7,0,8.6,0c0.5,0,0.7,0.2,0.9,0.6c1.4,2.5,2.8,4.9,4.3,7.3c0.2,0.4,0.2,0.7,0,1.1
			c-1.4,2.4-2.8,4.8-4.2,7.3c-0.2,0.4-0.5,0.6-1,0.6c-1.4,0-2.9,0-4.3,0c-1.4,0-2.7,0-4.1,0c-0.5,0-0.8-0.1-1.1-0.6
			c-1.4-2.5-2.8-4.9-4.3-7.3c-0.2-0.3-0.2-0.6,0-0.9C151.9,125.3,153.3,122.8,154.8,120.3z M154.7,138.6c0.2-0.4,0.5-0.5,1-0.5
			c2.8,0,5.7,0,8.5,0c0.5,0,0.8,0.1,1,0.6c1.4,2.5,2.8,4.9,4.3,7.3c0.2,0.4,0.2,0.6,0,1c-1.5,2.5-2.9,4.9-4.3,7.4
			c-0.2,0.4-0.5,0.5-0.9,0.5c-1.5,0-2.9,0-4.4,0c-1.4,0-2.7,0-4.1,0c-0.5,0-0.8-0.1-1.1-0.6c-1.4-2.4-2.8-4.9-4.2-7.3
			c-0.2-0.4-0.2-0.7,0-1.1C151.9,143.5,153.3,141.1,154.7,138.6z M166.5,155.1c1.5-2.5,2.9-4.9,4.3-7.4c0.2-0.4,0.5-0.5,1-0.5
			c1.4,0,2.9,0,4.3,0c1.4,0,2.7,0,4.1,0c0.5,0,0.8,0.1,1.1,0.6c1.4,2.4,2.8,4.8,4.2,7.2c0.2,0.4,0.2,0.7,0,1.1
			c-1.4,2.4-2.9,4.9-4.3,7.3c-0.2,0.4-0.5,0.6-1,0.6c-2.8,0-5.6,0-8.4,0c-0.5,0-0.8-0.1-1-0.6c-1.4-2.5-2.8-4.9-4.3-7.3
			C166.3,155.8,166.3,155.5,166.5,155.1z M182.5,146.9c-0.2-0.3-0.2-0.6,0-0.9c1.5-2.5,2.9-4.9,4.3-7.4c0.2-0.4,0.5-0.5,1-0.5
			c1.4,0,2.9,0,4.3,0c1.4,0,2.8,0,4.2,0c0.5,0,0.8,0.1,1,0.6c1.4,2.5,2.8,4.9,4.3,7.3c0.2,0.4,0.2,0.6,0,1c-1.4,2.4-2.9,4.9-4.3,7.3
			c-0.2,0.4-0.5,0.6-0.9,0.6c-2.9,0-5.7,0-8.6,0c-0.4,0-0.7-0.1-0.9-0.5C185.4,151.9,184,149.4,182.5,146.9z M198.6,155.1
			c1.5-2.5,2.9-4.9,4.3-7.4c0.2-0.4,0.5-0.5,1-0.5c1.4,0,2.9,0,4.3,0c1.4,0,2.8,0,4.2,0c0.5,0,0.8,0.2,1,0.6
			c1.4,2.4,2.8,4.8,4.2,7.2c0.2,0.4,0.2,0.7,0,1.1c-1.5,2.5-2.9,4.9-4.3,7.4c-0.2,0.4-0.5,0.5-0.9,0.5c-2.9,0-5.7,0-8.6,0
			c-0.4,0-0.7-0.1-0.9-0.5c-1.4-2.5-2.9-5-4.4-7.5C198.4,155.7,198.4,155.5,198.6,155.1z M214.7,147.1c-0.2-0.4-0.3-0.7,0-1.2
			c1.4-2.4,2.8-4.8,4.2-7.3c0.3-0.4,0.6-0.6,1-0.5c1.4,0,2.8,0,4.2,0c1.4,0,2.8,0,4.2,0c0.5,0,0.8,0.1,1,0.6
			c1.4,2.5,2.8,4.9,4.3,7.3c0.2,0.4,0.2,0.6,0,1c-1.4,2.4-2.9,4.9-4.3,7.3c-0.2,0.4-0.5,0.6-1,0.6c-2.8,0-5.6,0-8.4,0
			c-0.5,0-0.8-0.1-1-0.6C217.6,151.9,216.1,149.5,214.7,147.1z M229.4,136.1c-0.2,0.4-0.5,0.5-0.9,0.5c-1.4,0-2.9,0-4.3,0
			c-1.4,0-2.9,0-4.3,0c-0.5,0-0.7-0.2-0.9-0.5c-1.4-2.4-2.8-4.8-4.2-7.2c-0.2-0.4-0.3-0.7,0-1.2c1.4-2.4,2.8-4.8,4.2-7.2
			c0.2-0.4,0.5-0.6,1-0.6c2.8,0,5.7,0,8.5,0c0.5,0,0.8,0.2,1,0.6c1.4,2.4,2.8,4.8,4.2,7.2c0.3,0.4,0.3,0.8,0,1.2
			C232.2,131.2,230.8,133.6,229.4,136.1z M229.3,117.7c-0.3,0.5-0.6,0.6-1.1,0.6c-2.8,0-5.6,0-8.4,0c-0.5,0-0.8-0.1-1-0.6
			c-1.4-2.4-2.8-4.8-4.2-7.3c-0.3-0.4-0.3-0.7,0-1.2c1.4-2.4,2.9-4.8,4.2-7.3c0.3-0.4,0.5-0.6,1-0.6c1.4,0,2.9,0,4.3,0
			c1.4,0,2.7,0,4.1,0c0.5,0,0.8,0.1,1.1,0.6c1.4,2.4,2.8,4.8,4.2,7.3c0.2,0.4,0.2,0.7,0,1.1C232.1,112.8,230.7,115.2,229.3,117.7z
			 M217.5,101.3c-1.4,2.4-2.8,4.7-4.1,7.1c-0.3,0.5-0.6,0.7-1.2,0.7c-2.8,0-5.5,0-8.3,0c-0.5,0-0.8-0.2-1.1-0.6
			c-1.4-2.4-2.8-4.8-4.2-7.2c-0.3-0.5-0.3-0.8,0-1.2c1.4-2.4,2.8-4.7,4.1-7.1c0.3-0.5,0.6-0.7,1.1-0.7c1.4,0,2.8,0,4.2,0
			c1.4,0,2.8,0,4.2,0c0.5,0,0.8,0.2,1,0.6c1.4,2.4,2.8,4.8,4.2,7.3C217.8,100.6,217.7,100.9,217.5,101.3z M201.5,91.9
			c-1.5,2.5-3,5-4.4,7.6c-0.2,0.4-0.5,0.5-1,0.5c-2.8,0-5.7,0-8.5,0c-0.4,0-0.7-0.1-1-0.5c-1.4-2.5-2.9-4.9-4.3-7.4
			c-0.1-0.2-0.3-0.4-0.1-0.7c0,0,0,0,0,0c1.5-2.5,3-5.1,4.4-7.6c0.2-0.4,0.4-0.5,0.9-0.5c2.9,0,5.8,0,8.7,0c0.3,0,0.6,0,0.8,0.3
			c1.5,2.6,3.1,5.1,4.5,7.8c0.1,0,0.1,0,0.2,0C201.7,91.6,201.6,91.8,201.5,91.9z M212.2,90.9c-1.4,0-2.8,0-4.2,0c0,0,0,0,0,0
			c-1.4,0-2.9,0-4.3,0c-0.4,0-0.7-0.1-0.9-0.5c-1.4-2.5-2.8-4.9-4.3-7.3c-0.2-0.4-0.2-0.7,0-1.1c1.4-2.4,2.8-4.8,4.2-7.2
			c0.3-0.5,0.6-0.7,1.2-0.6c2.8,0,5.5,0,8.3,0c0.5,0,0.8,0.1,1.1,0.6c1.4,2.4,2.8,4.8,4.2,7.3c0.2,0.4,0.2,0.7,0,1.1
			c-1.4,2.4-2.8,4.8-4.2,7.3C213,90.8,212.7,90.9,212.2,90.9z M214.6,74.1c-0.3-0.5-0.2-0.8,0-1.2c1.4-2.4,2.8-4.8,4.2-7.2
			c0.3-0.5,0.5-0.6,1.1-0.6c1.4,0,2.9,0,4.3,0c1.4,0,2.7,0,4.1,0c0.5,0,0.8,0.2,1,0.6c1.4,2.4,2.8,4.8,4.2,7.3
			c0.3,0.4,0.2,0.7,0,1.2c-1.4,2.4-2.8,4.7-4.1,7.1c-0.3,0.5-0.6,0.7-1.2,0.7c-2.7,0-5.5,0-8.2,0c-0.6,0-0.9-0.2-1.2-0.6
			C217.4,78.8,216,76.4,214.6,74.1z M228.4,63.5c-2.8,0-5.6,0-8.4,0c-0.5,0-0.8-0.1-1-0.6c-1.4-2.4-2.8-4.8-4.2-7.3
			c-0.2-0.4-0.3-0.7,0-1.2c1.4-2.4,2.8-4.8,4.2-7.3c0.3-0.4,0.6-0.6,1-0.5c1.4,0,2.8,0,4.2,0c1.4,0,2.8,0,4.2,0c0.5,0,0.8,0.1,1,0.6
			c1.4,2.5,2.8,4.9,4.3,7.3c0.2,0.4,0.2,0.6,0,1c-1.4,2.4-2.9,4.9-4.3,7.3C229.2,63.3,228.9,63.5,228.4,63.5z M229.4,44.6
			c-0.2,0.4-0.5,0.5-0.9,0.5c-1.4,0-2.9,0-4.3,0c-1.4,0-2.9,0-4.3,0c-0.5,0-0.7-0.2-0.9-0.5c-1.4-2.4-2.8-4.8-4.2-7.2
			c-0.2-0.4-0.3-0.7,0-1.2c1.4-2.4,2.8-4.8,4.2-7.2c0.2-0.4,0.5-0.6,1-0.6c2.8,0,5.7,0,8.5,0c0.5,0,0.8,0.2,1,0.6
			c1.4,2.4,2.8,4.8,4.2,7.2c0.3,0.4,0.3,0.8,0,1.2C232.2,39.8,230.8,42.2,229.4,44.6z M198.6,8.7c1.4-2.4,2.8-4.7,4.1-7.1
			c0.3-0.5,0.6-0.7,1.1-0.7c1.4,0,2.8,0,4.2,0c1.4,0,2.8,0,4.2,0c0.5,0,0.8,0.2,1,0.6c1.4,2.4,2.8,4.8,4.2,7.3
			c0.3,0.4,0.2,0.7,0,1.2c-1.4,2.4-2.8,4.7-4.1,7.1c-0.3,0.5-0.6,0.7-1.2,0.7c-2.8,0-5.5,0-8.3,0c-0.5,0-0.8-0.2-1.1-0.6
			c-1.4-2.4-2.8-4.8-4.2-7.2C198.3,9.5,198.3,9.1,198.6,8.7z M187.8,10c2.8,0,5.6,0,8.4,0c0.5,0,0.8,0.2,1.1,0.6
			c1.4,2.4,2.8,4.8,4.2,7.2c0.2,0.4,0.3,0.7,0,1.2c-1.4,2.4-2.8,4.8-4.2,7.3c-0.3,0.5-0.6,0.6-1.1,0.6c-1.4,0-2.8,0-4.2,0
			c-1.4,0-2.7,0-4.1,0c-0.5,0-0.8-0.1-1.1-0.6c-1.4-2.4-2.8-4.9-4.2-7.3c-0.3-0.4-0.2-0.7,0-1.2c1.4-2.4,2.8-4.8,4.2-7.2
			C186.9,10.2,187.2,10,187.8,10z M166.4,8.7c1.4-2.4,2.8-4.8,4.2-7.3c0.2-0.4,0.5-0.6,1-0.6c2.8,0,5.7,0,8.5,0c0.5,0,0.8,0.2,1,0.6
			c1.4,2.4,2.8,4.8,4.2,7.3c0.2,0.4,0.3,0.7,0,1.1c-1.4,2.4-2.8,4.8-4.2,7.3c-0.3,0.4-0.6,0.6-1.1,0.6c-1.4,0-2.8,0-4.2,0
			c-1.4,0-2.8,0-4.2,0c-0.5,0-0.8-0.1-1-0.6c-1.4-2.5-2.8-4.9-4.3-7.3C166.2,9.4,166.2,9.1,166.4,8.7z M155.6,10c1.4,0,2.9,0,4.3,0
			c1.4,0,2.8,0,4.2,0c0.5,0,0.8,0.1,1,0.6c1.4,2.4,2.8,4.8,4.2,7.2c0.3,0.4,0.2,0.7,0,1.2c-1.4,2.4-2.8,4.8-4.2,7.2
			c-0.2,0.4-0.5,0.6-0.9,0.6c-2.9,0-5.7,0-8.6,0c-0.4,0-0.7-0.1-0.9-0.5c-1.4-2.5-2.9-5-4.4-7.5c-0.2-0.3-0.2-0.6,0-0.9
			c1.5-2.5,2.9-5,4.4-7.5C154.9,10.1,155.2,10,155.6,10z M134.3,9.8c-0.2-0.4-0.2-0.6,0-1c1.4-2.4,2.9-4.9,4.3-7.3
			c0.2-0.4,0.5-0.6,0.9-0.6c2.9,0,5.7,0,8.6,0c0.5,0,0.7,0.1,0.9,0.5c1.4,2.5,2.9,4.9,4.3,7.4c0.2,0.3,0.2,0.6,0,0.9
			c-1.5,2.5-2.9,4.9-4.3,7.4c-0.2,0.4-0.5,0.5-0.9,0.5c-1.4,0-2.9,0-4.3,0c-1.4,0-2.8,0-4.2,0c-0.5,0-0.8-0.2-1-0.6
			C137.1,14.7,135.7,12.2,134.3,9.8z M134.2,28c-0.2-0.3-0.2-0.6,0-0.9c1.5-2.5,2.9-4.9,4.3-7.4c0.2-0.4,0.5-0.5,0.9-0.5
			c1.4,0,2.9,0,4.3,0c1.4,0,2.8,0,4.2,0c0.5,0,0.8,0.1,1,0.6c1.4,2.5,2.8,4.9,4.3,7.3c0.2,0.4,0.2,0.6,0,1c-1.4,2.4-2.9,4.9-4.3,7.3
			c-0.2,0.4-0.5,0.6-1,0.6c-2.8,0-5.7,0-8.5,0c-0.4,0-0.7-0.1-0.9-0.5C137.2,33,135.7,30.5,134.2,28z M134.4,46.5
			c-0.2-0.4-0.3-0.7,0-1.1c1.4-2.4,2.8-4.8,4.2-7.3c0.3-0.4,0.5-0.6,1.1-0.6c2.8,0,5.6,0,8.4,0c0.5,0,0.8,0.2,1.1,0.6
			c1.4,2.4,2.8,4.8,4.2,7.2c0.2,0.4,0.3,0.7,0,1.2c-1.4,2.4-2.8,4.8-4.2,7.2c-0.2,0.4-0.5,0.6-1,0.6c-1.4,0-2.9,0-4.3,0
			c-1.4,0-2.7,0-4.1,0c-0.5,0-0.8-0.1-1.1-0.6C137.3,51.3,135.9,48.9,134.4,46.5z M134.5,64.8c-0.2-0.4-0.3-0.7,0-1.1
			c1.5-2.5,2.9-4.9,4.3-7.4c0.2-0.4,0.5-0.5,1-0.5c1.4,0,2.9,0,4.3,0c1.4,0,2.7,0,4.1,0c0.5,0,0.8,0.1,1.1,0.6
			c1.4,2.4,2.7,4.7,4.1,7.1c0.3,0.5,0.3,0.8,0,1.3c-1.4,2.4-2.8,4.8-4.2,7.2c-0.3,0.5-0.6,0.6-1.2,0.6c-2.7,0-5.5,0-8.2,0
			c-0.6,0-0.9-0.2-1.1-0.6C137.3,69.5,135.9,67.2,134.5,64.8z M134.3,83.1c-0.3-0.4-0.2-0.7,0-1.2c1.4-2.4,2.8-4.8,4.2-7.2
			c0.3-0.5,0.6-0.6,1.1-0.6c2.8,0,5.6,0,8.4,0c0.5,0,0.8,0.2,1.1,0.6c1.4,2.4,2.8,4.8,4.2,7.2c0.2,0.4,0.2,0.6,0,1
			c-1.5,2.5-2.9,4.9-4.3,7.4c-0.2,0.4-0.5,0.5-1,0.5c-1.4,0-2.9,0-4.3,0c0,0,0,0,0,0c-1.4,0-2.8,0-4.2,0c-0.5,0-0.8-0.2-1-0.6
			C137.1,87.9,135.7,85.5,134.3,83.1z M150.3,91.4c-0.1-0.4,0.2-0.6,0.4-0.9c1.3-2.2,2.6-4.4,3.8-6.5c0.3-0.6,0.7-0.7,1.3-0.7
			c2.7,0,5.4,0,8.1,0c0.6,0,0.9,0.2,1.2,0.7c1.4,2.5,2.9,5,4.4,7.5c0,0,0,0,0,0c0.1,0.3-0.1,0.5-0.2,0.8c-1.4,2.4-2.8,4.8-4.2,7.2
			c-0.2,0.4-0.5,0.6-1,0.6c-2.8,0-5.7,0-8.5,0c-0.4,0-0.7,0-0.9-0.4c-1.5-2.6-3-5.1-4.5-7.6c-0.1-0.2-0.1-0.3-0.1-0.5
			C150.2,91.4,150.2,91.4,150.3,91.4z M134.3,101.2c-0.2-0.4-0.2-0.6,0-1c1.4-2.4,2.9-4.9,4.3-7.3c0.2-0.4,0.5-0.6,0.9-0.6
			c2.9,0,5.7,0,8.6,0c0.5,0,0.7,0.1,0.9,0.5c1.4,2.5,2.9,4.9,4.3,7.4c0.2,0.3,0.2,0.6,0,0.9c-1.5,2.5-2.9,4.9-4.3,7.4
			c-0.2,0.4-0.5,0.5-0.9,0.5c-1.4,0-2.9,0-4.3,0c-1.4,0-2.8,0-4.2,0c-0.5,0-0.8-0.2-1-0.6C137.1,106.1,135.7,103.7,134.3,101.2z
			 M134.2,119.5c-0.2-0.3-0.2-0.6,0-0.9c1.5-2.5,2.9-4.9,4.3-7.4c0.2-0.4,0.5-0.5,0.9-0.5c1.4,0,2.9,0,4.3,0c1.4,0,2.8,0,4.2,0
			c0.5,0,0.8,0.1,1,0.6c1.4,2.5,2.8,4.9,4.3,7.3c0.2,0.4,0.2,0.6,0,1c-1.4,2.4-2.9,4.9-4.3,7.3c-0.2,0.4-0.5,0.6-1,0.6
			c-2.8,0-5.7,0-8.5,0c-0.4,0-0.7-0.1-0.9-0.5C137.2,124.4,135.7,121.9,134.2,119.5z M134.4,137.9c-0.2-0.4-0.3-0.7,0-1.1
			c1.4-2.4,2.8-4.8,4.2-7.3c0.3-0.4,0.5-0.6,1.1-0.6c2.8,0,5.6,0,8.4,0c0.5,0,0.8,0.2,1.1,0.6c1.4,2.4,2.8,4.8,4.2,7.2
			c0.2,0.4,0.3,0.7,0,1.2c-1.4,2.4-2.8,4.8-4.2,7.2c-0.2,0.4-0.5,0.6-1,0.6c-1.4,0-2.9,0-4.3,0c-1.4,0-2.7,0-4.1,0
			c-0.5,0-0.8-0.1-1.1-0.6C137.3,142.7,135.9,140.3,134.4,137.9z M134.5,156.2c-0.2-0.4-0.3-0.7,0-1.1c1.5-2.5,2.9-4.9,4.3-7.4
			c0.2-0.4,0.5-0.5,1-0.5c1.4,0,2.9,0,4.3,0c1.4,0,2.7,0,4.1,0c0.5,0,0.8,0.1,1.1,0.6c1.4,2.4,2.7,4.7,4.1,7.1
			c0.3,0.5,0.3,0.8,0,1.3c-1.4,2.4-2.8,4.8-4.2,7.2c-0.3,0.5-0.6,0.6-1.2,0.6c-2.7,0-5.5,0-8.2,0c-0.6,0-0.9-0.2-1.1-0.6
			C137.3,161,135.9,158.6,134.5,156.2z M153.3,174.5c-1.5,2.5-2.9,4.9-4.3,7.4c-0.2,0.4-0.5,0.5-1,0.5c-1.4,0-2.9,0-4.3,0
			c0,0,0,0,0,0c-1.4,0-2.8,0-4.2,0c-0.5,0-0.8-0.2-1-0.6c-1.4-2.4-2.8-4.8-4.2-7.2c-0.3-0.4-0.2-0.7,0-1.2c1.4-2.4,2.8-4.8,4.2-7.2
			c0.3-0.5,0.6-0.6,1.1-0.6c2.8,0,5.6,0,8.4,0c0.5,0,0.8,0.2,1.1,0.6c1.4,2.4,2.8,4.8,4.2,7.2C153.5,173.8,153.5,174.1,153.3,174.5z
			 M165.1,172.6c-0.3,0.5-0.5,0.6-1.1,0.6c-1.4,0-2.8,0-4.2,0c0,0,0,0,0,0c-1.4,0-2.8,0-4.2,0c-0.5,0-0.8-0.1-1-0.6
			c-1.4-2.4-2.8-4.8-4.2-7.3c-0.2-0.4-0.2-0.7,0-1.1c1.4-2.4,2.9-4.9,4.3-7.3c0.2-0.4,0.5-0.6,1-0.6c2.8,0,5.6,0,8.4,0
			c0.5,0,0.8,0.1,1,0.6c1.4,2.4,2.8,4.8,4.2,7.2c0.3,0.4,0.3,0.8,0,1.2C167.9,167.8,166.5,170.2,165.1,172.6z M185.4,174.6
			c-1.4,2.4-2.8,4.8-4.2,7.2c-0.2,0.4-0.5,0.6-1,0.6c-2.8,0-5.7,0-8.5,0c-0.5,0-0.8-0.1-1-0.6c-1.4-2.4-2.8-4.9-4.2-7.3
			c-0.3-0.4-0.2-0.8,0-1.2c1.4-2.4,2.8-4.8,4.2-7.2c0.2-0.4,0.5-0.6,1-0.6c1.4,0,2.9,0,4.3,0c0,0,0,0,0,0c1.4,0,2.7,0,4.1,0
			c0.6,0,0.9,0.2,1.2,0.7c1.4,2.4,2.7,4.7,4.1,7.1C185.6,173.8,185.6,174.1,185.4,174.6z M196.1,173.2c-1.4,0-2.8,0-4.2,0
			c-1.4,0-2.8,0-4.2,0c-0.5,0-0.8-0.2-1-0.6c-1.4-2.4-2.8-4.8-4.2-7.2c-0.2-0.4-0.3-0.7,0-1.2c1.4-2.4,2.9-4.8,4.2-7.3
			c0.3-0.5,0.6-0.6,1.1-0.6c2.8,0,5.5,0,8.3,0c0.5,0,0.8,0.1,1.1,0.6c1.4,2.4,2.8,4.8,4.2,7.2c0.3,0.5,0.2,0.8,0,1.2
			c-1.4,2.4-2.8,4.7-4.1,7.1C197,173,196.7,173.3,196.1,173.2z M217.5,174.5c-1.4,2.4-2.8,4.8-4.2,7.3c-0.2,0.4-0.5,0.6-1,0.6
			c-1.4,0-2.8,0-4.2,0c0,0,0,0,0,0c-1.4,0-2.9,0-4.3,0c-0.4,0-0.7-0.1-0.9-0.5c-1.4-2.5-2.8-4.9-4.3-7.3c-0.2-0.4-0.2-0.7,0-1.1
			c1.4-2.4,2.8-4.8,4.2-7.2c0.3-0.5,0.6-0.7,1.2-0.6c2.8,0,5.5,0,8.3,0c0.5,0,0.8,0.1,1.1,0.6c1.4,2.4,2.8,4.8,4.2,7.3
			C217.8,173.9,217.7,174.2,217.5,174.5z M228.1,173.2c-2.7,0-5.5,0-8.2,0c-0.6,0-0.9-0.2-1.2-0.6c-1.4-2.4-2.7-4.7-4.1-7.1
			c-0.3-0.5-0.2-0.8,0-1.2c1.4-2.4,2.8-4.8,4.2-7.2c0.3-0.5,0.5-0.6,1.1-0.6c1.4,0,2.9,0,4.3,0c1.4,0,2.7,0,4.1,0
			c0.5,0,0.8,0.2,1,0.6c1.4,2.4,2.8,4.8,4.2,7.3c0.3,0.4,0.2,0.7,0,1.2c-1.4,2.4-2.8,4.7-4.1,7.1
			C229.1,173.1,228.7,173.2,228.1,173.2z M249.6,173.4c0.3,0.4,0.2,0.7,0,1.2c-1.4,2.4-2.8,4.8-4.2,7.2c-0.3,0.5-0.6,0.6-1.1,0.6
			c-2.8,0-5.6,0-8.4,0c-0.5,0-0.8-0.1-1-0.6c-1.4-2.4-2.8-4.8-4.2-7.3c-0.3-0.4-0.2-0.7,0-1.2c1.4-2.4,2.8-4.8,4.2-7.3
			c0.2-0.4,0.5-0.5,0.9-0.5c1.4,0,2.9,0,4.3,0c1.4,0,2.8,0,4.2,0c0.5,0,0.8,0.2,1.1,0.6C246.8,168.6,248.2,171,249.6,173.4z
			 M249.7,155c0.2,0.4,0.2,0.7,0,1.1c-1.5,2.5-2.9,4.9-4.3,7.4c-0.2,0.4-0.5,0.5-0.9,0.5c-1.4,0-2.8,0-4.2,0c-1.4,0-2.8,0-4.2,0
			c-0.5,0-0.8-0.1-1-0.5c-1.4-2.5-2.8-4.9-4.3-7.3c-0.2-0.4-0.2-0.7,0-1.1c1.4-2.4,2.8-4.8,4.2-7.2c0.3-0.5,0.6-0.6,1.1-0.6
			c2.8,0,5.6,0,8.4,0c0.5,0,0.8,0.1,1,0.6C246.9,150.2,248.3,152.6,249.7,155z M249.7,136.7c0.3,0.5,0.3,0.8,0,1.2
			c-1.4,2.4-2.8,4.7-4.1,7.1c-0.3,0.5-0.6,0.7-1.1,0.7c-1.4,0-2.8,0-4.2,0c-1.3,0-2.7,0-4,0c-0.6,0-0.9-0.1-1.2-0.7
			c-1.3-2.4-2.7-4.7-4.1-7.1c-0.3-0.4-0.3-0.8,0-1.2c1.4-2.4,2.8-4.8,4.2-7.2c0.2-0.4,0.5-0.6,1-0.6c2.8,0,5.7,0,8.5,0
			c0.5,0,0.8,0.2,1,0.6C246.9,132,248.3,134.4,249.7,136.7z M249.6,118.5c0.2,0.4,0.2,0.6,0,1c-1.5,2.5-2.9,4.9-4.3,7.4
			c-0.2,0.4-0.5,0.5-1,0.5c-1.4,0-2.8,0-4.2,0c0,0,0,0,0,0c-1.4,0-2.8,0-4.2,0c-0.5,0-0.8-0.1-1.1-0.6c-1.4-2.4-2.8-4.8-4.2-7.3
			c-0.3-0.4-0.2-0.7,0-1.2c1.4-2.4,2.8-4.8,4.2-7.2c0.3-0.4,0.5-0.6,1.1-0.6c2.8,0,5.6,0,8.4,0c0.5,0,0.8,0.1,1,0.6
			C246.8,113.6,248.2,116,249.6,118.5z M249.6,100.1c0.3,0.5,0.3,0.8,0,1.3c-1.4,2.4-2.8,4.8-4.2,7.2c-0.3,0.5-0.6,0.6-1.1,0.6
			c-1.4,0-2.8,0-4.2,0c-1.4,0-2.7,0-4.1,0c-0.5,0-0.8-0.1-1.1-0.6c-1.4-2.4-2.8-4.8-4.2-7.3c-0.3-0.4-0.2-0.7,0-1.2
			c1.4-2.4,2.8-4.8,4.2-7.2c0.3-0.4,0.5-0.6,1.1-0.6c2.8,0,5.6,0,8.4,0c0.5,0,0.8,0.2,1.1,0.6C246.8,95.3,248.2,97.7,249.6,100.1z
			 M229.1,99.6c-0.2,0.3-0.4,0.4-0.8,0.4c-2.9,0-5.8,0-8.7,0c-0.3,0-0.6,0-0.8-0.3c-1.5-2.6-3.1-5.3-4.6-7.9c-0.1-0.1,0-0.2-0.1-0.4
			c0.1,0,0.1,0,0.2,0c1.1-2.2,2.6-4.3,3.6-6.5c0.7-1.4,1.6-1.8,3.1-1.7c2.3,0.1,4.7,0,7,0c0.5,0,0.8,0.1,1.1,0.6
			c1.4,2.5,2.9,5,4.4,7.6c0.1,0,0.1,0,0.2,0C232.3,94.2,230.7,96.9,229.1,99.6z M249.6,82c0.3,0.4,0.2,0.7,0,1.2
			c-1.4,2.4-2.8,4.8-4.2,7.2c-0.3,0.5-0.6,0.6-1.1,0.6c-2.8,0-5.6,0-8.4,0c-0.5,0-0.8-0.1-1-0.6c-1.4-2.4-2.8-4.8-4.2-7.3
			c-0.3-0.4-0.2-0.7,0-1.2c1.4-2.4,2.8-4.8,4.2-7.3c0.2-0.4,0.5-0.5,0.9-0.5c1.4,0,2.9,0,4.3,0c1.4,0,2.8,0,4.2,0
			c0.5,0,0.8,0.2,1.1,0.6C246.8,77.2,248.2,79.6,249.6,82z M249.7,63.6c0.2,0.4,0.2,0.7,0,1.1c-1.5,2.5-2.9,4.9-4.3,7.4
			c-0.2,0.4-0.5,0.5-0.9,0.5c-1.4,0-2.8,0-4.2,0c-1.4,0-2.8,0-4.2,0c-0.5,0-0.8-0.1-1-0.5c-1.4-2.5-2.8-4.9-4.3-7.3
			c-0.2-0.4-0.2-0.7,0-1.1c1.4-2.4,2.8-4.8,4.2-7.2c0.3-0.5,0.6-0.6,1.1-0.6c2.8,0,5.6,0,8.4,0c0.5,0,0.8,0.1,1,0.6
			C246.9,58.8,248.3,61.2,249.7,63.6z M249.7,45.3c0.3,0.5,0.3,0.8,0,1.2c-1.4,2.4-2.8,4.7-4.1,7.1c-0.3,0.5-0.6,0.7-1.1,0.7
			c-1.4,0-2.8,0-4.2,0c-1.3,0-2.7,0-4,0c-0.6,0-0.9-0.1-1.2-0.7c-1.3-2.4-2.7-4.7-4.1-7.1c-0.3-0.4-0.3-0.8,0-1.2
			c1.4-2.4,2.8-4.8,4.2-7.2c0.2-0.4,0.5-0.6,1-0.6c2.8,0,5.7,0,8.5,0c0.5,0,0.8,0.2,1,0.6C246.9,40.5,248.3,42.9,249.7,45.3z
			 M249.6,27.1c0.2,0.4,0.2,0.6,0,1c-1.5,2.5-2.9,4.9-4.3,7.4c-0.2,0.4-0.5,0.5-1,0.5c-1.4,0-2.8,0-4.2,0c0,0,0,0,0,0
			c-1.4,0-2.8,0-4.2,0c-0.5,0-0.8-0.1-1.1-0.6c-1.4-2.4-2.8-4.8-4.2-7.3c-0.3-0.4-0.2-0.7,0-1.2c1.4-2.4,2.8-4.8,4.2-7.2
			c0.3-0.4,0.5-0.6,1.1-0.6c2.8,0,5.6,0,8.4,0c0.5,0,0.8,0.1,1,0.6C246.8,22.2,248.2,24.6,249.6,27.1z M245.4,17.1
			c-0.3,0.5-0.6,0.6-1.1,0.6c-1.4,0-2.8,0-4.2,0c-1.4,0-2.7,0-4.1,0c-0.5,0-0.8-0.1-1.1-0.6c-1.4-2.4-2.8-4.8-4.2-7.3
			c-0.3-0.4-0.2-0.7,0-1.2c1.4-2.4,2.8-4.8,4.2-7.2c0.3-0.4,0.5-0.6,1.1-0.6c2.8,0,5.6,0,8.4,0c0.5,0,0.8,0.2,1.1,0.6
			c1.4,2.4,2.7,4.7,4.1,7.1c0.3,0.5,0.3,0.8,0,1.3C248.2,12.3,246.8,14.7,245.4,17.1z"/>
	</g>
</g>
<g id="Layer_2" style="opacity:0;">
</g>
</svg>
