<?xml version="1.0" encoding="utf-8"?>
<!-- Generator: Adobe Illustrator 22.1.0, SVG Export Plug-In . SVG Version: 6.00 Build 0)  -->
<svg version="1.1" id="Layer_1" xmlns="http://www.w3.org/2000/svg" xmlns:xlink="http://www.w3.org/1999/xlink" x="0px" y="0px"
	 viewBox="0 0 256 256" style="enable-background:new 0 0 256 256;" xml:space="preserve">
<g>
	<polygon style="fill:#E0E0E0;" points="133.6,5.8 134.2,14.2 124.8,13.7 124.2,6 72,7 72.6,37.9 97.1,36.8 100.5,209.7 
		131.4,252.7 161.6,208.5 158.2,35.6 184,34.6 182.7,4.8 	"/>
	<polygon style="fill:#E0E0E0;" points="163.3,125.5 98,158.7 98.4,177.8 163.7,144.6 	"/>
	<polygon style="fill:#E0E0E0;" points="162.5,103.6 97.2,136.8 97.6,155.9 162.9,122.7 	"/>
	<polygon style="fill:#E0E0E0;" points="162.4,81.1 97.1,114.3 97.4,133.4 162.7,100.2 	"/>
	<polygon style="fill:#E0E0E0;" points="161.5,59.2 96.2,92.4 96.6,111.5 161.9,78.3 	"/>
	<polygon style="fill:#E0E0E0;" points="160.7,37.3 95.4,70.5 95.8,89.6 161.1,56.4 	"/>
	<polygon style="fill:#E0E0E0;" points="98.9,181.6 164.2,148.5 164.6,167.6 99.3,200.7 	"/>
</g>
</svg>
