<?xml version="1.0" encoding="utf-8"?>
<!-- Generator: Adobe Illustrator 22.1.0, SVG Export Plug-In . SVG Version: 6.00 Build 0)  -->
<svg version="1.1" id="Layer_1" xmlns="http://www.w3.org/2000/svg" xmlns:xlink="http://www.w3.org/1999/xlink" x="0px" y="0px"
	 viewBox="0 0 256 256" style="enable-background:new 0 0 256 256;" xml:space="preserve">
<g>
	<g>
		<polygon style="fill:#DEDEDE;" points="140,122.5 138.4,108.1 125.4,108.2 124,122.6 113.8,122.6 114.1,249.8 145.8,249.7 
			145.5,122.5 		"/>
		<path d="M113.2,96.9l0,1.4c0.1,3.7,10.4,7.1,12.3,9.9l13,0c1.9-2.9,12.1-6.3,12.2-10l0-1.4L113.2,96.9z"/>
		<path d="M152.8,25.7l-42,0.1c-0.1,1-0.1,2-0.1,3l0.2,6.5l41.7-0.1l0.2-6.5C152.9,27.7,152.9,26.7,152.8,25.7z"/>
		<polygon style="fill:#B0B0B0;" points="150.1,122.5 143.6,122.5 143.9,249.7 150.3,249.7 		"/>
		<polygon style="fill:#C0C0C0;" points="143.8,246.6 120.7,246.6 114.1,249.8 150.4,249.7 		"/>
	</g>
</g>
</svg>
