<?xml version="1.0" encoding="utf-8"?>
<!-- Generator: Adobe Illustrator 22.1.0, SVG Export Plug-In . SVG Version: 6.00 Build 0)  -->
<svg version="1.1" id="Layer_1" xmlns="http://www.w3.org/2000/svg" xmlns:xlink="http://www.w3.org/1999/xlink" x="0px" y="0px"
	 viewBox="0 0 256 256" style="enable-background:new 0 0 256 256;" xml:space="preserve">
<g>
	<path style="fill:#5F6656;" d="M115.8,227.2c-9.9-9.3-18.5-49.5-0.6-72.5c0.5-0.6,1-1.2,1.5-1.8c7-8.3,16-12.1,16.2-33.4
		c0,0-15.1-15.2-25-14.6c-10,0.6-0.1,10.2-0.1,10.2s6,1.5-10.6,24.8c-27.2,38.1-21,85.2-5.9,97.4c24,19.3,32.5,4.7,27.7-5.7
		C118.2,230,117.2,228.5,115.8,227.2z"/>
	<path style="fill:#5F6656;" d="M136.3,119.5c0,0,15.4-14.9,25.4-14c9.9,0.9-0.1,10.2-0.1,10.2s-6,1.4,10.1,25
		c26.4,38.7,19.1,85.7,3.7,97.5c-28.2,21.6-34.7-1.4-24.3-10.7c10.3-9.3,20.1-50.3,0.8-74.3C144.9,144.8,136.1,140.9,136.3,119.5z"
		/>
</g>
</svg>
