<?xml version="1.0" encoding="utf-8"?>
<!-- Generator: Adobe Illustrator 22.1.0, SVG Export Plug-In . SVG Version: 6.00 Build 0)  -->
<svg version="1.1" id="Layer_1" xmlns="http://www.w3.org/2000/svg" xmlns:xlink="http://www.w3.org/1999/xlink" x="0px" y="0px"
	 viewBox="0 0 256 256" style="enable-background:new 0 0 256 256;" xml:space="preserve">
<g>
	<polygon style="fill:#AAAAAA;" points="135.1,53 133.3,55.3 135.8,7 	"/>
	<polygon style="fill:#CACACA;" points="135.6,53.2 137.4,55.3 136.4,7 	"/>
	<path style="fill:#AAAAAA;" d="M136.4,7l-0.3,34.2l-0.5,12l0.2,0l1.7,2.2l-0.9,1.3l1,1.4l-1,1.4l1.1,1.5l-1,1.6l1.1,1.7l-1.1,1.8
		l1.2,1.9l-0.9,1.6c1.3,1,2.3,3.4,2.5,6.3c0.2,4.5-1.6,6.3-4.1,6.3l-0.1,5c-7.9-0.1-14.4,6.2-14.5,14.2c0,0.5,0,0.9,0.1,1.4l-2.7,0
		L118,108c6.2,3.4,12,8.7,14.1,10.7l0-3.2c0.9,0.2,1.8,0.3,2.8,0.3c7.9,0.1,14.4-6.2,14.5-14.2l0.7,0l6.9-5.9L136.4,7z"/>
	<path style="fill:#CACACA;" d="M137.2,118.7c2.1-1.9,8.1-7.1,14.3-10.4l0.1-5.3l-2.7,0c0-0.5,0.1-0.9,0.1-1.4
		c0.1-7.9-6.2-14.4-14.2-14.5l0.1-5c-2.5,0-4.2-1.9-3.9-6.4c0.2-3,1.3-5.3,2.6-6.3l-0.9-1.6l1.2-1.9l-1.1-1.8l1.2-1.7l-1-1.6
		l1.1-1.5l-0.9-1.4l1-1.3l-0.9-1.3l1.7-2.1l0.2,0l-0.3-11.8l1-34.3l-23,88.3l6.8,6.1l0.7,0c-0.1,7.9,6.2,14.4,14.2,14.5
		c0.9,0,1.9-0.1,2.8-0.2L137.2,118.7z"/>
	<path style="fill:#CC1E47;" d="M119.6,120.8c0,2.3,1.9,4.3,4.2,4.3c2.3,0,4.3-1.9,4.3-4.2c0-2.3-1.9-4.3-4.2-4.3
		C121.5,116.6,119.6,118.5,119.6,120.8z"/>
	
		<ellipse transform="matrix(1.114524e-02 -0.9999 0.9999 1.114524e-02 21.9279 264.4331)" style="fill:#CC1E47;" cx="144.7" cy="121.1" rx="4.2" ry="4.3"/>
	
		<ellipse transform="matrix(0.9888 -0.1492 0.1492 0.9888 -13.5638 21.247)" style="fill:#CACACA;" cx="134.9" cy="101" rx="8.5" ry="8.5"/>
	<path style="fill:#777777;" d="M126.3,100.9c0.1-4.7,3.9-8.5,8.7-8.5c4.7,0.1,8.5,3.9,8.5,8.7c-0.1,4.7-3.9,8.5-8.7,8.5
		C130,109.6,126.2,105.7,126.3,100.9z M126.5,100.9c-0.1,4.6,3.7,8.4,8.3,8.4c4.6,0.1,8.4-3.7,8.4-8.3c0.1-4.6-3.7-8.4-8.3-8.4
		C130.3,92.6,126.6,96.3,126.5,100.9z"/>
	<path style="opacity:0.2;" d="M115.8,227.2c-9.9-9.3-18.5-49.5-0.6-72.5c-13.5,9.9-24.9,39.9-19.3,58.4c2.3,6,5.2,12,11.2,15.6
		c3.8,2.2,7.9,3.1,11.9,2.9C118.2,230,117.2,228.5,115.8,227.2z"/>
	<path style="opacity:0.2;" d="M151.1,227.6c10.1-9.1,19.6-49.1,2.2-72.4c13.2,10.2,24,40.4,18,58.8c-2.5,5.9-5.5,11.9-11.5,15.4
		c-3.8,2.1-8,2.9-11.9,2.6C148.6,230.3,149.7,228.8,151.1,227.6z"/>
</g>
</svg>
