<?xml version="1.0" encoding="utf-8"?>
<!-- Generator: Adobe Illustrator 22.1.0, SVG Export Plug-In . SVG Version: 6.00 Build 0)  -->
<svg version="1.1" id="Layer_1" xmlns="http://www.w3.org/2000/svg" xmlns:xlink="http://www.w3.org/1999/xlink" x="0px" y="0px"
	 viewBox="0 0 256 256" style="enable-background:new 0 0 256 256;" xml:space="preserve">
<g>
	<path style="opacity:0.2;" d="M210.9,117.4h-67.4l-5.8,24.5c-0.2,1-0.9,1.9-1.5,1.9c-0.6,0-0.9-0.8-0.6-1.9l5.8-24.5h-2.2
		l-5.8,24.5c-0.2,1-0.9,1.9-1.5,1.9c-0.6,0-0.9-0.8-0.6-1.9l5.8-24.5h-2.2l-5.8,24.5c-0.2,1-0.9,1.9-1.5,1.9s-0.9-0.8-0.6-1.9
		l5.8-24.5h-2.2l-5.8,24.5c-0.2,1-0.9,1.9-1.5,1.9s-0.9-0.8-0.6-1.9l5.8-24.5h-2.2l-5.8,24.5c-0.2,1-0.9,1.9-1.5,1.9
		s-0.9-0.8-0.6-1.9l5.8-24.5h-9.5v27.8c0,1.5,1.2,2.7,2.7,2.7H170c-0.9-2-1.3-4.3-1.3-6.6c0-9.3,7.5-16.9,16.9-16.9
		c5.9,0,11.1,3,14.1,7.6l4-4.9c10.9,4.9,19.5,24.9,22.7,33.2C241.9,140.9,210.9,117.4,210.9,117.4z"/>
	<polygon style="fill:#B3B3B3;" points="65.1,116.3 65.3,116.3 65.3,116.1 	"/>
	<rect x="76" y="101" style="fill:#3D3D3D;" width="10.9" height="15.3"/>
	<path style="fill:#2F2F2F;" d="M77.5,117.1c0,1.6-1.3,3-3,3h-7.1c-1.6,0-3-1.3-3-3v-16.9c0-1.6,1.3-3,3-3h7.1c1.6,0,3,1.3,3,3
		V117.1z"/>
	<g>
		<rect x="11" y="107.3" style="fill:#B3B3B3;" width="39.8" height="2.5"/>
		<polygon style="fill:#EFEFEF;" points="48.4,110.1 48.4,109.3 45.4,107 40.3,107 44.3,110.1 		"/>
		<polygon style="fill:#EFEFEF;" points="19.8,107 23.8,110.1 28.9,110.1 24.9,107 		"/>
		<polygon style="fill:#EFEFEF;" points="12.7,107 12.7,110.1 18.7,110.1 14.6,107 		"/>
		<polygon style="fill:#EFEFEF;" points="30,107 34,110.1 39.1,110.1 35.1,107 		"/>
		<path style="fill:#EFEFEF;" d="M10.2,110.9c-0.4,0-0.9-0.3-1.1-0.6l-0.9-1.2c-0.2-0.3-0.2-0.8,0-1.2l0.9-1.2
			c0.2-0.3,0.8-0.6,1.1-0.6h2c0.4,0,0.5,0.3,0.3,0.6l-0.9,1.2c-0.2,0.3-0.2,0.8,0,1.2l0.9,1.2c0.2,0.3,0.1,0.6-0.3,0.6H10.2z"/>
	</g>
	<g>
		<polygon style="fill:#DCDCDC;" points="50.1,103.5 50.1,104 57.8,111.7 57.8,109.5 51.4,103.1 		"/>
		<polygon style="fill:#DCDCDC;" points="50.1,106.7 57.8,114.4 57.8,112.2 50.1,104.5 		"/>
		<polygon style="fill:#DCDCDC;" points="50.1,112.1 52.2,114.2 55.6,115.4 50.1,109.9 		"/>
		<polygon style="fill:#DCDCDC;" points="50.1,109.4 56.4,115.7 57.8,116.2 57.8,114.9 50.1,107.2 		"/>
		<polygon style="fill:#DCDCDC;" points="51.8,103 57.8,109 57.8,106.8 53.4,102.4 		"/>
		<polygon style="fill:#DCDCDC;" points="50.1,113.5 51.4,114 50.1,112.6 		"/>
		<polygon style="fill:#DCDCDC;" points="55.4,101.7 53.8,102.3 57.8,106.3 57.8,104.1 		"/>
		<polygon style="fill:#DCDCDC;" points="57.8,100.9 55.8,101.6 57.8,103.6 		"/>
		<polygon style="fill:#C5C5C5;" points="57.8,103.6 55.8,101.6 55.4,101.7 57.8,104.1 		"/>
		<polygon style="fill:#C5C5C5;" points="53.4,102.4 57.8,106.8 57.8,106.3 53.8,102.3 		"/>
		<polygon style="fill:#C5C5C5;" points="51.4,103.1 57.8,109.5 57.8,109 51.8,103 		"/>
		<polygon style="fill:#C5C5C5;" points="50.1,104.5 57.8,112.2 57.8,111.7 50.1,104 		"/>
		<polygon style="fill:#C5C5C5;" points="50.1,107.2 57.8,114.9 57.8,114.4 50.1,106.7 		"/>
		<polygon style="fill:#C5C5C5;" points="50.1,109.9 55.6,115.4 56.4,115.7 50.1,109.4 		"/>
		<polygon style="fill:#C5C5C5;" points="50.1,112.6 51.4,114 52.2,114.2 50.1,112.1 		"/>
		<polygon style="fill:#C5C5C5;" points="56.8,101 56.8,102.8 58.6,101 		"/>
		<polygon style="fill:#C5C5C5;" points="60.8,116.3 62.7,116.3 65.3,113.7 65.3,111.8 		"/>
		<polygon style="fill:#C5C5C5;" points="56.8,115.5 56.8,116.3 57.8,116.3 65.3,108.8 65.3,107 		"/>
		<polygon style="fill:#C5C5C5;" points="56.8,113.1 56.8,114.9 65.3,106.4 65.3,104.6 		"/>
		<polygon style="fill:#C5C5C5;" points="64,101 56.8,108.2 56.8,110.1 65.3,101.6 65.3,101 		"/>
		<polygon style="fill:#C5C5C5;" points="58.4,116.3 60.3,116.3 65.3,111.3 65.3,109.4 		"/>
		<polygon style="fill:#C5C5C5;" points="56.8,110.6 56.8,112.5 65.3,104 65.3,102.1 		"/>
		<polygon style="fill:#C5C5C5;" points="59.1,101 56.8,103.4 56.8,105.2 61,101 		"/>
		<polygon style="fill:#C5C5C5;" points="61.6,101 56.8,105.8 56.8,107.7 63.4,101 		"/>
		<polygon style="fill:#B3B3B3;" points="58.6,101 56.8,102.8 56.8,103.4 59.1,101 		"/>
		<polygon style="fill:#B3B3B3;" points="61,101 56.8,105.2 56.8,105.8 61.6,101 		"/>
		<polygon style="fill:#B3B3B3;" points="63.4,101 56.8,107.7 56.8,108.2 64,101 		"/>
		<polygon style="fill:#B3B3B3;" points="56.8,110.1 56.8,110.6 65.3,102.1 65.3,101.6 		"/>
		<polygon style="fill:#B3B3B3;" points="56.8,112.5 56.8,113.1 65.3,104.6 65.3,104 		"/>
		<polygon style="fill:#B3B3B3;" points="56.8,114.9 56.8,115.5 65.3,107 65.3,106.4 		"/>
		<polygon style="fill:#B3B3B3;" points="57.8,116.3 58.4,116.3 65.3,109.4 65.3,108.8 		"/>
		<polygon style="fill:#B3B3B3;" points="60.3,116.3 60.8,116.3 65.3,111.8 65.3,111.3 		"/>
		<polygon style="fill:#C5C5C5;" points="63.2,116.3 65.1,116.3 65.3,116.1 65.3,114.2 		"/>
		<polygon style="fill:#B3B3B3;" points="62.7,116.3 63.2,116.3 65.3,114.2 65.3,113.7 		"/>
	</g>
	<circle style="fill:#2F2F2F;" cx="183.7" cy="138.8" r="5.1"/>
	
		<rect x="178.5" y="130.5" transform="matrix(0.7596 -0.6504 0.6504 0.7596 -44.6713 149.6514)" style="fill:#2F2F2F;" width="3.2" height="9.5"/>
	<circle style="fill:#2F2F2F;" cx="172.6" cy="126.8" r="1.2"/>
	<path style="fill:#2F2F2F;" d="M186.9,122.4c0,0.6-0.5,1.2-1.2,1.2c-0.6,0-1.2-0.5-1.2-1.2c0-0.6,0.5-1.2,1.2-1.2
		C186.4,121.2,186.9,121.7,186.9,122.4z"/>
	<path style="fill:#2F2F2F;" d="M166.3,141.6c0,0.6-0.5,1.2-1.2,1.2s-1.2-0.5-1.2-1.2s0.5-1.2,1.2-1.2S166.3,141,166.3,141.6z"/>
	<path style="fill:#616161;" d="M105.1,135.2V99.5c0-2.9,0.5-5.5,1.2-7.5l-15,2.2c-3.7,0.5-6.7,5-6.7,9.9v12.2
		c0,4.9,2.8,10.4,6.3,12.2l14.2,7.6C105.1,135.8,105.1,135.5,105.1,135.2z"/>
	<path style="fill:#2F2F2F;" d="M114.5,145.2v-27.8V89.5c0-0.4,0.1-0.8,0.3-1.1h-4.9c-2.6,0-4.8,5-4.8,11.1v35.7
		c0,6.2,2.1,11.1,4.8,11.1h4.9C114.6,146,114.5,145.6,114.5,145.2z"/>
	<path style="fill:#3D3D3D;" d="M203.6,127.1l-3,3.7c2.1,2.6,5.4,7.6,7.7,15.1c0,0,5.3,1,10-2.6
		C214.3,136.3,209.3,129.7,203.6,127.1z"/>
	<g>
		<path style="fill:#3D3D3D;" d="M245.3,164.4c0-0.2-0.1-0.3-0.1-0.5c1.2-1.4,1.8-3.3,1.8-5.3c0-1.2-0.3-2.4-0.8-3.5
			c-2.7,3.2-12.2,6.6-16.5,8c1.2,2,3.3,3.4,5.6,3.8c0.1,0.2,0.1,0.4,0.2,0.7l3.5,7.5c0.7,1.5,2.9,2.2,4.8,1.5c2-0.7,3.3-2.4,3-4.1
			L245.3,164.4z"/>
	</g>
	<path style="fill:#2F2F2F;" d="M196.8,101.3c0.1,0.3,0,0.6-0.3,0.6l0,0c-0.3,0-0.7-0.3-0.8-0.6l-4.8-11.4c-0.1-0.3,0-0.6,0.3-0.6
		l0,0c0.3,0,0.7,0.3,0.8,0.6L196.8,101.3z"/>
	<path style="fill:#2F2F2F;" d="M199.1,101.3c0.1,0.3,0,0.6-0.3,0.6l0,0c-0.3,0-0.7-0.3-0.8-0.6l-4.8-11.4c-0.1-0.3,0-0.6,0.3-0.6
		l0,0c0.3,0,0.7,0.3,0.8,0.6L199.1,101.3z"/>
	<path style="fill:#2F2F2F;" d="M201.5,101.3c0.1,0.3,0,0.6-0.3,0.6l0,0c-0.3,0-0.7-0.3-0.8-0.6l-4.8-11.4c-0.1-0.3,0-0.6,0.3-0.6
		l0,0c0.3,0,0.7,0.3,0.8,0.6L201.5,101.3z"/>
	<path style="fill:#2F2F2F;" d="M203.8,101.3c0.1,0.3,0,0.6-0.3,0.6l0,0c-0.3,0-0.7-0.3-0.8-0.6l-4.8-11.4c-0.1-0.3,0-0.6,0.3-0.6
		l0,0c0.3,0,0.7,0.3,0.8,0.6L203.8,101.3z"/>
	<path style="fill:#2F2F2F;" d="M206.1,101.3c0.1,0.3,0,0.6-0.3,0.6l0,0c-0.3,0-0.7-0.3-0.8-0.6l-4.8-11.4c-0.1-0.3,0-0.6,0.3-0.6
		l0,0c0.3,0,0.7,0.3,0.8,0.6L206.1,101.3z"/>
</g>
</svg>
