<?xml version="1.0" encoding="utf-8"?>
<!-- Generator: Adobe Illustrator 22.1.0, SVG Export Plug-In . SVG Version: 6.00 Build 0)  -->
<svg version="1.1" id="Layer_1" xmlns="http://www.w3.org/2000/svg" xmlns:xlink="http://www.w3.org/1999/xlink" x="0px" y="0px"
	 viewBox="0 0 256 256" style="enable-background:new 0 0 256 256;" xml:space="preserve">
<g>
	<polygon style="fill:#EFEFEF;" points="116.8,113.5 119.1,113.5 126.3,104 126.2,88.2 116.7,100.7 	"/>
	<polygon style="fill:#EFEFEF;" points="117,138 119.3,138 126.6,128.5 126.5,112.7 117,125.1 	"/>
	<polygon style="fill:#EFEFEF;" points="117.3,162.5 119.6,162.5 126.8,153 126.7,137.2 117.2,149.6 	"/>
	<polygon style="fill:#EFEFEF;" points="126,38.3 116.5,50.8 116.6,66.6 126.1,54.1 	"/>
	<polygon style="fill:#EFEFEF;" points="126.3,21.7 116.7,21.8 116.8,40.2 126.3,27.8 	"/>
	<polygon style="fill:#EFEFEF;" points="126.4,63 116.9,75.4 117,91.3 126.5,78.8 	"/>
	<path style="fill:#EFEFEF;" d="M114.1,14c0-1.2,0.8-2.8,1.8-3.6l3.7-2.7c1-0.7,2.6-0.7,3.6,0l3.7,2.7c1,0.7,1.8,2.3,1.8,3.5l0,6.2
		c0,1.2-0.8,1.6-1.8,0.9l-3.7-2.7c-1-0.7-2.6-0.7-3.6,0l-3.7,2.7c-1,0.7-1.8,0.3-1.8-0.9L114.1,14z"/>
</g>
</svg>
