<?xml version="1.0" encoding="utf-8"?>
<!-- Generator: Adobe Illustrator 22.1.0, SVG Export Plug-In . SVG Version: 6.00 Build 0)  -->
<svg version="1.1" id="Layer_1" xmlns="http://www.w3.org/2000/svg" xmlns:xlink="http://www.w3.org/1999/xlink" x="0px" y="0px"
	 viewBox="0 0 256 256" style="enable-background:new 0 0 256 256;" xml:space="preserve">
<path style="fill:#D15C30;" d="M247,153.2c-0.1-0.3-0.2-0.7-0.4-1.2c-1.9-6.1-2.7-10.6-15.8-35.6c-9.8-18.8-20.4-29.5-30-29.5h-83.7
	c-1.5,0-2.7,1.2-2.7,2.7v27.8v27.8c0,1.5,1.2,2.7,2.7,2.7H170h11.3c1.5,0,3.2-0.2,3.8-0.5c0.6-0.3,3.1-1.9,4.3-2.8l10.2-12.6l4-4.9
	c10.9,4.9,19.5,24.9,22.7,33.2c0.9,2.2,1.3,3.6,1.3,3.6S248.1,157.8,247,153.2z"/>
</svg>
