<?xml version="1.0" encoding="utf-8"?>
<!-- Generator: Adobe Illustrator 22.1.0, SVG Export Plug-In . SVG Version: 6.00 Build 0)  -->
<svg version="1.1" id="Layer_1" xmlns="http://www.w3.org/2000/svg" xmlns:xlink="http://www.w3.org/1999/xlink" x="0px" y="0px"
	 viewBox="0 0 256 256" style="enable-background:new 0 0 256 256;" xml:space="preserve">
<g>
	<polygon style="fill:#C5C5C5;" points="144.2,48.4 146.3,244.1 150.7,243.8 151.8,242.5 154.3,241.1 151.8,239.8 151.8,239.6 
		154.2,238.2 151.7,236.8 151.7,236.7 154.2,235.3 151.7,233.9 151.7,233.7 154.2,232.3 151.7,231 151.7,230.8 154.1,229.4 
		151.6,228 151.6,227.9 154.1,226.5 151.6,225.1 151.6,225 154.1,223.6 151.6,222.2 151.6,222 154,220.6 151.5,219.3 151.5,219.1 
		154,217.7 151.5,216.3 151.5,216.2 154,214.8 151.5,213.4 151.5,213.3 153.9,211.8 151.4,210.5 151.4,210.3 153.9,208.9 
		151.4,207.6 151.4,207.4 153.9,206 151.4,204.6 151.4,204.5 153.9,203.1 151.3,201.7 151.3,201.5 153.8,200.1 151.3,198.8 
		151.3,198.6 153.8,197.2 151.3,195.8 151.3,195.7 153.8,194.3 151.3,192.9 151.3,192.8 153.7,191.4 151.2,190 151.2,189.8 
		153.7,188.4 151.2,187.1 151.2,186.9 153.7,185.5 151.2,184.1 151.2,184 153.6,182.6 151.1,181.2 151.1,181.1 153.6,179.6 
		151.1,178.3 151.1,178.1 153.6,176.7 151.1,175.4 151.1,175.2 153.5,173.8 151,172.4 151,172.3 153.5,170.9 151,169.5 151,169.3 
		153.5,167.9 151,166.6 151,166.4 153.4,165 150.9,163.7 150.9,163.5 153.4,162.1 150.9,160.7 150.9,160.6 153.4,159.2 150.9,157.8 
		150.9,157.6 153.4,156.2 150.8,154.9 150.8,154.7 153.3,153.3 150.8,151.9 150.8,151.8 153.3,150.4 150.8,149 150.8,148.9 
		153.3,147.4 150.8,146.1 150.8,145.9 153.2,144.5 150.7,143.2 150.7,143 153.2,141.6 150.7,140.2 150.7,140.1 153.2,138.7 
		150.7,137.3 150.7,137.2 153.1,135.7 150.6,134.4 150.6,134.2 153.1,132.8 150.6,131.5 150.6,131.3 153.1,129.9 150.6,128.5 
		150.6,128.4 153,127 150.5,125.6 150.5,125.4 153,124 150.5,122.7 150.5,122.5 153,121.1 150.5,119.7 150.5,119.6 152.9,118.2 
		150.4,116.8 150.4,116.7 152.9,115.3 150.4,113.9 150.4,113.7 152.9,112.3 150.4,111 150.4,110.8 152.9,109.4 150.4,108 
		150.3,107.9 152.8,106.5 150.3,105.1 150.3,105 152.8,103.5 150.3,102.2 150.3,102 152.8,100.6 150.3,99.3 150.3,99.1 152.7,97.7 
		150.2,96.3 150.2,96.2 152.7,94.8 150.2,93.4 150.2,93.2 152.7,91.8 150.2,90.5 150.2,90.3 152.6,88.9 150.1,87.5 150.1,87.4 
		152.6,86 150.1,84.6 150.1,84.5 152.6,83.1 150.1,81.7 150.1,81.5 152.5,80.1 150,78.8 150,78.6 152.5,77.2 150,75.8 150,75.7 
		152.5,74.3 150,72.9 150,72.8 152.4,71.3 149.9,70 149.9,69.8 152.4,68.4 149.9,67.1 149.9,66.9 152.4,65.5 149.9,64.1 149.9,64 
		152.4,62.6 149.9,61.2 149.8,61.1 152.3,59.6 149.8,58.3 149.8,58.1 152.3,56.7 149.8,55.4 149.8,55.2 152.3,53.8 149.8,52.4 
		149.8,52.3 152.2,50.9 149.7,49.5 149.7,48.3 	"/>
	<path d="M146.2,46.8c1.1,0,2,0.9,2,2c0,1.1-0.9,2-2,2c-1.1,0-2-0.9-2-2S145.1,46.8,146.2,46.8z"/>
	<path d="M93.6,35.5L93.7,49l0,0l0.4,40.5l4.8-0.1l-0.5-48.9c8.2-5.9,24.7-6.7,30.2-9.7c7.4-4,19.9-9.2,19.9-9.2
		c7.6-3.3,1.7-13.5,1.7-13.5L93.6,35.5z"/>
	<path d="M147.5,241.8c1.1,0,2,0.9,2,2c0,1.1-0.9,2-2,2c-1.1,0-2-0.9-2-2C145.5,242.7,146.4,241.8,147.5,241.8z"/>
</g>
</svg>
