<?xml version="1.0" encoding="utf-8"?>
<!-- Generator: Adobe Illustrator 22.1.0, SVG Export Plug-In . SVG Version: 6.00 Build 0)  -->
<svg version="1.1" id="Layer_1" xmlns="http://www.w3.org/2000/svg" xmlns:xlink="http://www.w3.org/1999/xlink" x="0px" y="0px"
	 viewBox="0 0 256 256" style="enable-background:new 0 0 256 256;" xml:space="preserve">
<path style="fill:#EFC937;" d="M93.6,35.5L93.7,46c0,0,0,1,0,2.9c0.2,22.2,1.7,163.6,1.8,173c0.1,10.2,5.7,11.8,5.7,11.8l46.7,14.4
	c2.1-0.8,3.9-3,4.5-6.3c-2.8-0.9-34.6-11.5-44.5-14.6c-0.9-0.3-2.3,0.7-2.8,0.6c-5.9-1.8-4.9-6.8-4.9-6.8L98.5,52.9l52.1-0.6
	l-0.1-6.9L98.4,46l-0.1-5.5c8.2-5.9,24.7-6.7,30.2-9.7c7.4-4,19.9-9.2,19.9-9.2c7.6-3.3,1.7-13.5,1.7-13.5L93.6,35.5z"/>
</svg>
