<?xml version="1.0" encoding="utf-8"?>
<!-- Generator: Adobe Illustrator 22.1.0, SVG Export Plug-In . SVG Version: 6.00 Build 0)  -->
<svg version="1.1" id="Layer_1" xmlns="http://www.w3.org/2000/svg" xmlns:xlink="http://www.w3.org/1999/xlink" x="0px" y="0px"
	 viewBox="0 0 256 256" style="enable-background:new 0 0 256 256;" xml:space="preserve">
<g>
	<path d="M139.9,32.6c0,1-1,1.7-2.2,1.7h-22.1c-1.2,0-2.2-0.8-2.2-1.7v-4.6c0-1,1-1.7,2.2-1.7h22.1c1.2,0,2.2,0.8,2.2,1.7V32.6z"/>
	<rect x="105.9" y="7.7" style="fill:#B0B0B0;" width="41.4" height="13.8"/>
	<path style="fill:#3D3D3D;" d="M114.8,247.5c0,2.5,1.6,4.5,3.5,4.5h6.2c1.1-1.4,2.1-2.9,3.1-4.5H114.8z"/>
	<path style="fill:#3D3D3D;" d="M127.6,247.5c-1,1.6-2,3.1-3.1,4.5h8.5c1.9,0,3.5-2,3.5-4.5h0H127.6z"/>
	<path style="fill:#DEDEDE;" d="M143.2,6.5c0-2.1-1.5-3.8-3.4-3.8h-26.7c-1.9,0-3.4,1.7-3.4,3.8v8.7h33.5V6.5z"/>
	<path style="fill:#B0B0B0;" d="M109.6,15.2V24c0,2.1,1.5,3.8,3.4,3.8h26.7c1.9,0,3.4-1.7,3.4-3.8v-8.8H109.6z"/>
	<path style="fill:#DEDEDE;" d="M108.6,7.4c0-1.6-1.3-2.9-2.9-3L82,2.8c-1.6-0.1-2.9,1.1-2.9,2.7v9.1h29.4V7.4z"/>
	<path style="fill:#B0B0B0;" d="M79.1,14.6v9.1c0,1.6,1.3,2.8,2.9,2.7l23.7-1.5c1.6-0.1,2.9-1.5,2.9-3v-7.1H79.1z"/>
	<g>
		<path style="fill:#DEDEDE;" d="M144.5,7.1c-0.1,0-0.1,0-0.2,0v6.7c10.8,0.5,23.7,5.6,25.9,17c0.8,0.3,1.5,0.3,1.5-0.4
			C171.7,20.2,159.5,7.1,144.5,7.1z"/>
		<path style="fill:#B0B0B0;" d="M144.3,13.9v7.9c0.4,0,0.9,0,1.3,0c13.2,0,21.5,3.1,22.2,6.8c0.2,1,1.3,2,2.3,2.4
			C168,19.4,155.2,14.3,144.3,13.9z"/>
	</g>
	<path style="fill:#B0B0B0;" d="M82.9,24c0,1-0.8,1.9-1.9,1.9l0,0c-1,0-1.9-0.8-1.9-1.9V5.2c0-1,0.8-1.9,1.9-1.9l0,0
		c1,0,1.9,0.8,1.9,1.9V24z"/>
	<path style="opacity:0.2;" d="M127.6,247.5h8.8c0,0,6.6-15.5,6.6-47.2s-4.5-71.9-4.5-118.4V33.5h-11.2
		c0.5,23.5,2.5,106.8,7.3,127.1C139.1,179.5,141.1,224.5,127.6,247.5z"/>
</g>
</svg>
