<?xml version="1.0" encoding="utf-8"?>
<!-- Generator: Adobe Illustrator 22.1.0, SVG Export Plug-In . SVG Version: 6.00 Build 0)  -->
<svg version="1.1" id="Layer_1" xmlns="http://www.w3.org/2000/svg" xmlns:xlink="http://www.w3.org/1999/xlink" x="0px" y="0px"
	 viewBox="0 0 256 256" style="enable-background:new 0 0 256 256;" xml:space="preserve">
<g>
	<path style="fill:#E1BC7E;" d="M79.8,42.7c0,2.8-2,5-4.4,5l0,0c-2.4,0-4.4-2.3-4.4-5V9c0-2.8,2-5,4.4-5l0,0c2.4,0,4.4,2.3,4.4,5
		V42.7z"/>
	<path style="fill:#E1BC7E;" d="M126.7,248.5h8.1c0,0,6-14.2,6-43.1c0-29-4.1-65.6-4.1-108.1V53.1h-10.2
		c0.4,21.5,2.3,97.6,6.7,116.1C137.2,186.5,139.1,227.6,126.7,248.5z"/>
	<path style="fill:#E1BC7E;" d="M179,42.7V37L75.4,36.6v11.1h99.2C177,47.7,179,45.5,179,42.7z"/>
	<path d="M138,52.3c0,0.9-0.9,1.6-2,1.6h-20.2c-1.1,0-2-0.7-2-1.6v-4.2c0-0.9,0.9-1.6,2-1.6h20.2c1.1,0,2,0.7,2,1.6V52.3z"/>
	<path style="fill:#3D3D3D;" d="M115.1,248.5c0,2.3,1.4,4.1,3.2,4.1h5.7c1-1.3,2-2.6,2.8-4.1H115.1z"/>
	<path style="fill:#3D3D3D;" d="M126.7,248.5c-0.9,1.5-1.8,2.9-2.8,4.1h7.7c1.7,0,3.2-1.8,3.2-4.1h0H126.7z"/>
</g>
</svg>
