<?xml version="1.0" encoding="utf-8"?>
<!-- Generator: Adobe Illustrator 22.1.0, SVG Export Plug-In . SVG Version: 6.00 Build 0)  -->
<svg version="1.1" id="Layer_1" xmlns="http://www.w3.org/2000/svg" xmlns:xlink="http://www.w3.org/1999/xlink" x="0px" y="0px"
	 viewBox="0 0 256 256" style="enable-background:new 0 0 256 256;" xml:space="preserve">
<path style="fill:#9B9899;" d="M234.9,82.9l-81.2-72.5L43.4,42.2L15.8,148.1l7.3,30.5l82.7,71.1L216,216.3l29-104.4L234.9,82.9z
	 M81.9,127.4c4.7-12.8,15.7-34,37.6-38c22.2-4,40.9,3.2,51.7,15.8c0.8-0.2,1.5-0.4,2.2-0.7c0.3,2.2,0.5,4.4,0.5,6.7
	c0,26-21.8,47.1-48.6,47.1c-20.7,0-38.4-12.6-45.4-30.2C80.6,127.9,81.2,127.7,81.9,127.4z"/>
</svg>
