<?xml version="1.0" encoding="utf-8"?>
<!-- Generator: Adobe Illustrator 22.1.0, SVG Export Plug-In . SVG Version: 6.00 Build 0)  -->
<svg version="1.1" id="Layer_1" xmlns="http://www.w3.org/2000/svg" xmlns:xlink="http://www.w3.org/1999/xlink" x="0px" y="0px"
	 viewBox="0 0 256 256" style="enable-background:new 0 0 256 256;" xml:space="preserve">
<g>
	<path style="fill:#B5B3B1;" d="M123.9,29C73,29,31.8,68,31.8,116.2s41.2,87.3,92.1,87.3s92.1-39.1,92.1-87.3S174.8,29,123.9,29z
		 M125.3,156.4c-25.6,0-46.4-20.2-46.4-45c0-24.9,20.8-45,46.4-45s46.4,20.2,46.4,45C171.7,136.2,150.9,156.4,125.3,156.4z"/>
	<path style="fill:#838182;" d="M122.4,77.8c-33.7,4.5-41.3,29-42.3,43.8c0.2,0.9,0.5,1.8,0.7,2.7c1.3-9.5,6.2-26.4,24.2-36.4
		c0,0,21.8-14.5,43.5-2.9c11.8,6.3,18.2,11.3,21.8,15.8c-0.2-0.9-0.5-1.8-0.7-2.7C162.8,87.3,148.9,74.3,122.4,77.8z"/>
	<path style="fill:#838182;" d="M111.6,71.3c-12.6,4.7-22.2,12.7-28.5,21.4c-2.4,5.1-3.9,10.8-4.2,16.8c4.3-11,13.3-26.4,31.2-33.8
		c18.5-7.6,39.9,0.6,54.9,12.6c-2.2-3.6-4.9-6.8-8.1-9.7C144.9,71.9,127.3,65.4,111.6,71.3z"/>
	<polygon style="opacity:0.2;" points="245,111.9 216,216.3 204.4,187.3 234.9,82.9 	"/>
	<polygon style="opacity:0.2;" points="15.8,148.1 23.1,178.6 105.8,249.7 95.6,220.7 	"/>
	<polygon style="opacity:0.3;" points="204.4,187.3 95.6,220.7 105.8,249.7 216,216.3 	"/>
</g>
</svg>
