<?xml version="1.0" encoding="utf-8"?>
<!-- Generator: Adobe Illustrator 22.1.0, SVG Export Plug-In . SVG Version: 6.00 Build 0)  -->
<svg version="1.1" id="Layer_1" xmlns="http://www.w3.org/2000/svg" xmlns:xlink="http://www.w3.org/1999/xlink" x="0px" y="0px"
	 viewBox="0 0 256 256" style="enable-background:new 0 0 256 256;" xml:space="preserve">
<g>
	<path style="fill:#CC1E47;" d="M117.4,100.1c0,2.8,2.2,5.1,5,5.2c2.8,0,5.1-2.2,5.1-5c0-2.8-2.2-5.1-5-5.1
		C119.7,95,117.4,97.2,117.4,100.1z"/>
	<path style="fill:#CC1E47;" d="M142.4,100.4c0,2.8,2.2,5.1,5,5.2c2.8,0,5.1-2.2,5.2-5c0-2.8-2.2-5.1-5-5.1
		C144.7,95.3,142.4,97.5,142.4,100.4z"/>
	<path style="fill:#AAAAAA;" d="M147,4.9l-10.2-0.1L136.6,19l0.2,0l2,2.6l-1.1,1.5l1.2,1.6l-1.2,1.7l1.3,1.8l-1.2,1.9l1.3,2
		l-1.3,2.1l1.4,2.3l-1.1,1.9c1.6,1.2,2.8,4,3,7.6c0.3,5.4-1.9,7.6-4.9,7.6l-0.1,6c-9.5-0.1-17.2,7.5-17.3,16.9c0,0.6,0,1.1,0.1,1.7
		l-3.3,0l-0.1,6.3c7.4,4.1,14.4,10.5,16.9,12.9l0-3.8c1.1,0.2,2.2,0.3,3.3,0.4c9.5,0.1,17.2-7.5,17.3-16.9l0.8,0l8.3-7.1L147,4.9z"
		/>
	<path style="fill:#CACACA;" d="M138.5,97.6c2.6-2.3,9.7-8.5,17.2-12.5l0.1-6.3l-3.3,0c0.1-0.5,0.1-1.1,0.1-1.7
		c0.1-9.5-7.5-17.2-16.9-17.3l0.1-6c-3,0-5.1-2.3-4.7-7.7c0.3-3.6,1.5-6.4,3.1-7.5l-1.1-2l1.5-2.3l-1.3-2.2l1.4-2l-1.2-1.9l1.3-1.8
		l-1.1-1.7l1.2-1.6l-1.1-1.5l2.1-2.5l0.2,0l0.2-14.2L126,4.7l-16.7,64.7l8.1,7.3l0.8,0c-0.1,9.5,7.5,17.2,16.9,17.3
		c1.1,0,2.2-0.1,3.3-0.3L138.5,97.6z"/>
	<g>
		<circle style="fill:#CACACA;" cx="135.7" cy="76.3" r="10.1"/>
		<path style="fill:#777777;" d="M125.4,76.2c0.1-5.7,4.7-10.2,10.4-10.1c5.7,0.1,10.2,4.7,10.1,10.4c-0.1,5.7-4.7,10.2-10.4,10.1
			C129.9,86.5,125.4,81.9,125.4,76.2z M125.7,76.2c-0.1,5.5,4.4,10.1,9.9,10.1c5.5,0.1,10.1-4.4,10.1-9.9c0.1-5.5-4.4-10.1-9.9-10.1
			C130.3,66.3,125.8,70.7,125.7,76.2z"/>
	</g>
</g>
</svg>
