<?xml version="1.0" encoding="utf-8"?>
<!-- Generator: Adobe Illustrator 22.1.0, SVG Export Plug-In . SVG Version: 6.00 Build 0)  -->
<svg version="1.1" id="Layer_1" xmlns="http://www.w3.org/2000/svg" xmlns:xlink="http://www.w3.org/1999/xlink" x="0px" y="0px"
	 viewBox="0 0 256 256" style="enable-background:new 0 0 256 256;" xml:space="preserve">
<g>
	<path style="fill:#5F6656;" d="M112.8,227.4c-11.8-11.1-22.2-59.3-0.7-86.8c0.6-0.7,1.2-1.5,1.8-2.2c8.4-9.9,19.1-14.5,19.4-40
		c0,0-18.1-18.2-30-17.5c-11.9,0.8-0.1,12.2-0.1,12.2s7.2,1.9-12.8,29.7c-32.7,45.6-25.3,102.1-7.1,116.7
		c28.7,23.1,38.9,5.7,33.2-6.9C115.7,230.8,114.4,229,112.8,227.4z"/>
	<path style="fill:#5F6656;" d="M137.5,98.5c0,0,18.5-17.8,30.4-16.8c11.9,1-0.1,12.2-0.1,12.2s-7.2,1.7,12.1,30
		c31.6,46.4,22.9,102.6,4.3,116.8c-33.7,25.9-41.5-1.6-29.1-12.8c12.4-11.1,24.2-60.3,1-89C147.8,128.8,137.2,124,137.5,98.5z"/>
	<path style="opacity:0.2;" d="M112.8,227.4c-11.8-11.1-22.2-59.3-0.7-86.8C96,152.5,82.3,188.4,89,210.5
		c2.8,7.2,6.3,14.4,13.3,18.7c4.5,2.6,9.4,3.7,14.2,3.4C115.7,230.8,114.4,229,112.8,227.4z"/>
	<path style="opacity:0.2;" d="M155,227.9c12.1-10.9,23.6-58.8,2.7-86.8c15.8,12.3,28.8,48.4,21.5,70.4c-2.9,7.1-6.6,14.2-13.8,18.4
		c-4.6,2.5-9.5,3.5-14.3,3.1C152.1,231.2,153.4,229.4,155,227.9z"/>
</g>
</svg>
