<?xml version="1.0" encoding="utf-8"?>
<!-- Generator: Adobe Illustrator 22.1.0, SVG Export Plug-In . SVG Version: 6.00 Build 0)  -->
<svg version="1.1" id="Layer_1" xmlns="http://www.w3.org/2000/svg" xmlns:xlink="http://www.w3.org/1999/xlink" x="0px" y="0px"
	 viewBox="0 0 256 256" style="enable-background:new 0 0 256 256;" xml:space="preserve">
<g>
	<path style="fill:#EFC937;" d="M103.6,6.2l0.5,47.7c-0.3,4.9,2.2,6.1,3.1,6l53.9-5.1c3.7-0.4,4.6-3.5,4.3-7.3l-0.2-1.9
		c-0.4-3.7-5.8-34-9.7-37.1L112,4.1C107.8,2.5,105,2.7,103.6,6.2z M152,14.2c0,0,0.7,1.4,1.1,3.5c1.6,7.4,0.8,23.8-38.8,22.6
		c-0.3,0-0.6,0-1,0c0,0-2.2-24.2-1.4-25.1C112.8,14.3,152,14.2,152,14.2z"/>
</g>
</svg>
