<?xml version="1.0" encoding="utf-8"?>
<!-- Generator: Adobe Illustrator 22.1.0, SVG Export Plug-In . SVG Version: 6.00 Build 0)  -->
<svg version="1.1" id="Layer_1" xmlns="http://www.w3.org/2000/svg" xmlns:xlink="http://www.w3.org/1999/xlink" x="0px" y="0px"
	 viewBox="0 0 256 256" style="enable-background:new 0 0 256 256;" xml:space="preserve">
<g>
	<path style="opacity:0.2;" d="M114.3,40.4c13,4.7,34.3,9.2,41.1-6.6c2.2-5.6,1-11.3-2.3-16C154.7,25.1,153.9,41.6,114.3,40.4z"/>
	<polygon style="fill:#C5C5C5;" points="107.2,59.9 125.6,253.9 130.2,254.4 131.5,253.2 134.2,252.2 131.9,250.4 131.9,250.2 
		134.7,249.2 132.4,247.4 132.4,247.2 135.1,246.2 132.8,244.4 132.8,244.3 135.6,243.2 133.2,241.4 133.3,241.3 136,240.2 
		133.7,238.4 133.7,238.3 136.5,237.2 134.1,235.4 134.2,235.3 136.9,234.2 134.6,232.5 134.6,232.3 137.4,231.3 135,229.5 
		135.1,229.3 137.8,228.3 135.5,226.5 135.5,226.3 138.3,225.3 135.9,223.5 135.9,223.3 138.7,222.3 136.4,220.5 136.4,220.3 
		139.2,219.3 136.8,217.5 136.8,217.3 139.6,216.3 137.3,214.5 137.3,214.3 140,213.3 137.7,211.5 137.7,211.4 140.5,210.3 
		138.2,208.5 138.2,208.4 140.9,207.3 138.6,205.5 138.6,205.4 141.4,204.3 139.1,202.5 139.1,202.4 141.8,201.3 139.5,199.6 
		139.5,199.4 142.3,198.4 139.9,196.6 140,196.4 142.7,195.4 140.4,193.6 140.4,193.4 143.2,192.4 140.8,190.6 140.9,190.4 
		143.6,189.4 141.3,187.6 141.3,187.4 144.1,186.4 141.7,184.6 141.8,184.4 144.5,183.4 142.2,181.6 142.2,181.4 145,180.4 
		142.6,178.6 142.6,178.5 145.4,177.4 143.1,175.6 143.1,175.5 145.8,174.4 143.5,172.6 143.5,172.5 146.3,171.4 144,169.6 
		144,169.5 146.7,168.4 144.4,166.7 144.4,166.5 147.2,165.5 144.9,163.7 144.9,163.5 147.6,162.5 145.3,160.7 145.3,160.5 
		148.1,159.5 145.7,157.7 145.8,157.5 148.5,156.5 146.2,154.7 146.2,154.5 149,153.5 146.6,151.7 146.7,151.5 149.4,150.5 
		147.1,148.7 147.1,148.5 149.9,147.5 147.5,145.7 147.6,145.6 150.3,144.5 148,142.7 148,142.6 150.8,141.5 148.4,139.7 
		148.5,139.6 151.2,138.5 148.9,136.7 148.9,136.6 151.7,135.5 149.3,133.8 149.3,133.6 152.1,132.6 149.8,130.8 149.8,130.6 
		152.5,129.6 150.2,127.8 150.2,127.6 153,126.6 150.7,124.8 150.7,124.6 153.4,123.6 151.1,121.8 151.1,121.6 153.9,120.6 
		151.6,118.8 151.6,118.6 154.3,117.6 152,115.8 152,115.6 154.8,114.6 152.4,112.8 152.5,112.7 155.2,111.6 152.9,109.8 
		152.9,109.7 155.7,108.6 153.3,106.8 153.4,106.7 156.1,105.6 153.8,103.8 153.8,103.7 156.6,102.7 154.2,100.9 154.3,100.7 
		157,99.7 154.7,97.9 154.7,97.7 157.5,96.7 155.1,94.9 155.1,94.7 157.9,93.7 155.6,91.9 155.6,91.7 158.4,90.7 156,88.9 156,88.7 
		158.8,87.7 156.5,85.9 156.5,85.7 159.2,84.7 156.9,82.9 156.9,82.8 159.7,81.7 157.4,79.9 157.4,79.8 160.1,78.7 157.8,76.9 
		157.8,76.8 160.6,75.7 158.2,73.9 158.3,73.8 161,72.7 158.7,70.9 158.7,70.8 161.5,69.8 159.1,68 159.2,67.8 161.9,66.8 159.6,65 
		159.6,64.8 162.4,63.8 160,62 160.1,61.8 162.8,60.8 160.5,59 160.5,58.8 163.3,57.8 160.9,56 161.1,54.8 	"/>
	<g>
		<path d="M159.9,52c2.2-0.2,4.1,0.9,4.3,2.5c0.1,1.6-1.5,3-3.7,3.2l-50.1,4.7c-2.2,0.2-4.1-0.9-4.3-2.5s1.5-3,3.7-3.2L159.9,52z"/>
	</g>
	<path d="M115.6,15.7l-0.4,4.1c0,0-0.6,2-6.6,1.6l-1-11c0,0,7.4-7.4,7.8-7.4c0.4,0.1,35.5,2.7,36,3.5s4,7.9,4.1,10.4
		c0.1,2.6-1.4,1.9-2,2.1c-0.6,0.2-2.3-2.9-3.3-3.5C149.1,14.9,115.7,13.9,115.6,15.7z"/>
	<path style="fill:#C5C5C5;" d="M111.9,9.9c0.9-0.1,1.7,0.6,1.7,1.4s-0.6,1.7-1.4,1.7c-0.9,0.1-1.7-0.6-1.7-1.4
		C110.4,10.8,111,10,111.9,9.9z"/>
	<circle style="fill:#C5C5C5;" cx="148.4" cy="10.4" r="1.6"/>
</g>
</svg>
