<?xml version="1.0" encoding="utf-8"?>
<!-- Generator: Adobe Illustrator 22.1.0, SVG Export Plug-In . SVG Version: 6.00 Build 0)  -->
<svg version="1.1" id="Layer_1" xmlns="http://www.w3.org/2000/svg" xmlns:xlink="http://www.w3.org/1999/xlink" x="0px" y="0px"
	 viewBox="0 0 256 256" style="enable-background:new 0 0 256 256;" xml:space="preserve">
<g>
	<polygon style="opacity:0.3;" points="129.4,208.8 129.4,208.8 129.1,111.8 122.3,111.9 122.7,208.4 134.3,221.9 127.7,253.1 
		129.6,253.1 136.6,221.1 	"/>
	<path style="fill:#EFC937;" d="M142.5,106.2l2.1-68.9l0.2-7.1c0-1.1,0-2.2-0.1-3.3c-1-13.4-10.8-24.1-23.1-24
		c-12.3,0-22,10.8-22.9,24.2c-0.1,1.1-0.1,2.2-0.1,3.3l0.3,7.1l2.6,68.9c0.2,4,11.4,7.7,13.5,10.8l14.2-0.1
		C131.1,114,142.3,110.2,142.5,106.2z"/>
	<path d="M144.7,26.9l-46.1,0.2c-0.1,1.1-0.1,2.2-0.1,3.3l0.3,7.1l45.7-0.2l0.2-7.1C144.8,29.1,144.7,28,144.7,26.9z"/>
	<polygon points="98.9,38.6 101.2,101.2 142.6,101 144.5,38.5 	"/>
</g>
</svg>
