<?xml version="1.0" encoding="utf-8"?>
<!-- Generator: Adobe Illustrator 22.1.0, SVG Export Plug-In . SVG Version: 6.00 Build 0)  -->
<svg version="1.1" id="Layer_1" xmlns="http://www.w3.org/2000/svg" xmlns:xlink="http://www.w3.org/1999/xlink" x="0px" y="0px"
	 viewBox="0 0 256 256" style="enable-background:new 0 0 256 256;" xml:space="preserve">
<polygon style="fill:#E0E0E0;" points="157.9,126.8 156,127.7 156,124.7 157.5,124 157.5,104.9 156,105.6 156,102.4 157.9,101.5 
	157.8,82.4 156,83.3 156,80.3 157.5,79.5 157.4,60.4 156,61.1 156,58.1 157.1,57.6 157,38.5 156,39 156,35.5 181,5.2 70.2,5.2 
	94.8,35.6 94.8,68.7 91.1,70.5 91.1,89.6 94.8,87.8 94.8,90.8 91.5,92.4 91.5,111.5 94.9,109.9 94.9,112.9 91.9,114.3 91.9,133.4 
	94.9,132 94.9,135.2 91.5,136.9 91.6,156 94.9,154.4 94.9,157.4 91.9,158.8 92,177.9 94.9,176.5 94.9,208.7 125,252.3 156.1,208.7 
	156,146.9 157.9,145.9 "/>
</svg>
