<?xml version="1.0" encoding="utf-8"?>
<!-- Generator: Adobe Illustrator 22.1.0, SVG Export Plug-In . SVG Version: 6.00 Build 0)  -->
<svg version="1.1" id="Layer_1" xmlns="http://www.w3.org/2000/svg" xmlns:xlink="http://www.w3.org/1999/xlink" x="0px" y="0px"
	 viewBox="0 0 256 256" style="enable-background:new 0 0 256 256;" xml:space="preserve">
<path style="fill:#546F7A;" d="M157.2,149.6l-18,0l0-28.3c0-2.7-2.2-4.8-4.8-4.8l-14.3,0c-2.7,0-4.8,2.2-4.8,4.8l0,28.3l-17.9,0
	c-7.3,0-13.2,6-13.2,13.3c0,0,1.5,61.9,43.2,90.8c0,0,0,0,0,0c0,0,0,0,0,0c41.6-29,42.9-91,42.9-91
	C170.4,155.5,164.5,149.6,157.2,149.6z"/>
</svg>
