<?xml version="1.0" encoding="utf-8"?>
<!-- Generator: Adobe Illustrator 22.1.0, SVG Export Plug-In . SVG Version: 6.00 Build 0)  -->
<svg version="1.1" id="Layer_1" xmlns="http://www.w3.org/2000/svg" xmlns:xlink="http://www.w3.org/1999/xlink" x="0px" y="0px"
	 viewBox="0 0 256 256" style="enable-background:new 0 0 256 256;" xml:space="preserve">
<g>
	<path style="opacity:0.2;" d="M157.2,149.6l-18.5,0l0-28.3c0-2.7-2.2-4.8-4.8-4.8l-6.6,0l-0.1,33.1l0,0l0,11l0,14.1l0-0.1l0.1,79.1
		c0,0,0.1,0,0.1,0c41.6-29,42.9-91,42.9-91C170.4,155.5,164.5,149.6,157.2,149.6z"/>
	<path style="fill:#E64A19;" d="M134.8,122.8c0,1.8-1.5,3.3-3.3,3.3l-9.7,0c-1.8,0-3.3-1.5-3.3-3.3L115.9,5.4c0-1.8,1.5-3.3,3.3-3.3
		l14.5,0c1.8,0,3.3,1.5,3.3,3.3L134.8,122.8z"/>
	<path style="fill:#AFBEC5;" d="M145.5,119.6c0,4.5-3.6,8.2-8.2,8.2l-19.6,0c-4.5,0-8.2-3.6-8.2-8.2l0,0c0-4.5,3.6-8.2,8.2-8.2
		l19.6,0C141.8,111.4,145.5,115,145.5,119.6L145.5,119.6z"/>
</g>
</svg>
