<?xml version="1.0" encoding="utf-8"?>
<!-- Generator: Adobe Illustrator 22.1.0, SVG Export Plug-In . SVG Version: 6.00 Build 0)  -->
<svg version="1.1" id="Layer_1" xmlns="http://www.w3.org/2000/svg" xmlns:xlink="http://www.w3.org/1999/xlink" x="0px" y="0px"
	 viewBox="0 0 256 256" style="enable-background:new 0 0 256 256;" xml:space="preserve">
<g id="apple1">
	<path style="fill:#FF4057;" d="M246.6,130.2l-8.1,20.3c-11.1,28.3-28,50.7-43.9,75.8c-8.6,15.1-19.4,25.6-35.5,25.6
		c-13.4,0-25-7.5-30.9-18.5c-5.9,11-17.5,18.5-30.9,18.5c-14.3,0-23.3-8.8-32.1-21c-8.8-15.7-31.5-47.2-44.7-75
		c-2.3-4.8-4.4-9.6-7.2-14C4,126.9,2.1,108.1,7,88.4c5.7-23,23.3-41.4,46.1-47.9c7.4-2.1,14.7-3,21.8-2.8c18.1,0.5,34.4,8,46.3,19.8
		c0.9,0.9,1.8,1.9,2.7,2.9c1.5,1.6,2.9,3.3,4.2,5.1c3.1-4.1,6.7-7.8,10.6-11.1c13.1-11,30.4-17.1,49.1-15.6
		c33.9,2.6,61,30.4,62.7,64.3C251.1,112.7,249.7,121.8,246.6,130.2z"/>
</g>
<g style="opacity:0;">
	<path style="fill:#9B6312;" d="M138.8,15.9v38.6c-3.9,3.3-7.5,7-10.6,11.1c-2.1-2.8-4.4-5.5-6.9-8V15.9c0-4.8,3.9-8.8,8.8-8.8
		c2.4,0,4.6,1,6.2,2.6C137.8,11.3,138.8,13.4,138.8,15.9z"/>
	<path style="fill:#39E275;" d="M124,60.4c-0.9-1-1.8-1.9-2.7-2.9C109.3,45.7,93,38.2,75,37.7c-4.8-11.4-4.8-23.1-4.8-23.1
		s24.3-3.9,39.1,8.9C123.1,35.3,124,57.2,124,60.4z"/>
</g>
</svg>
