<?xml version="1.0" encoding="utf-8"?>
<!-- Generator: Adobe Illustrator 22.1.0, SVG Export Plug-In . SVG Version: 6.00 Build 0)  -->
<svg version="1.1" id="Layer_1" xmlns="http://www.w3.org/2000/svg" xmlns:xlink="http://www.w3.org/1999/xlink" x="0px" y="0px"
	 viewBox="0 0 256 256" style="enable-background:new 0 0 256 256;" xml:space="preserve">
<g>
	<path style="fill:#FFDE3B;" d="M175.1,216.7c-79.2,28.7-142-23.2-142-23.2l6.8-19.1c0,0,1.7,0.3,4.7,0.8
		c16.4,2.3,71.5,7.8,107.2-19.9c42.3-32.8,56-92.9,56-92.9h31.4C247.5,87,254.3,188,175.1,216.7z"/>
</g>
<g style="opacity:0;">
	<path style="fill:#683C0C;" d="M35.6,195.2l-20.8-7.3c-4.2-1.5-6.4-6-4.9-10.2l1.9-5.5c1.5-4.2,6-6.4,10.2-4.9l20.8,7.3L35.6,195.2
		z"/>
	<path style="fill:#683C0C;" d="M239.6,63.4h-31.4V43.5c0-6.4,5.1-11.5,11.5-11.5h8.4c6.4,0,11.5,5.1,11.5,11.5V63.4z"/>
	<path style="opacity:3.000000e-02;enable-background:new    ;" d="M164.2,177.1c-47.8,30-127.7,6.8-127.7,6.8L40,174
		c16.4,2.3,76.2,8.9,111.9-18.7c42.3-32.8,56-92.9,56-92.9h16.4C224.9,88.4,212,147.1,164.2,177.1z"/>
</g>
</svg>
