<?xml version="1.0" encoding="utf-8"?>
<!-- Generator: Adobe Illustrator 22.1.0, SVG Export Plug-In . SVG Version: 6.00 Build 0)  -->
<svg version="1.1" id="Layer_1" xmlns="http://www.w3.org/2000/svg" xmlns:xlink="http://www.w3.org/1999/xlink" x="0px" y="0px"
	 viewBox="0 0 256 256" style="enable-background:new 0 0 256 256;" xml:space="preserve">
<g>
	
		<ellipse transform="matrix(0.9765 -0.2154 0.2154 0.9765 -20.3177 21.3554)" style="fill:#FFFFFF;" cx="87.8" cy="103.9" rx="73.8" ry="95.8"/>
	<path style="fill:#FFFFFF;" d="M55.2,208.3c17.2,29.7,84.2,50.1,133.5,21.6c49.3-28.5,79.3-70.5,46.9-126.7L55.2,208.3z"/>
</g>
<g style="opacity:0;">
	<path style="opacity:0.3;fill:#FFFFFF;" d="M61.6,203c16,27.7,74.1,42.5,119.9,16s76.3-59.6,46.1-111.9L61.6,203z"/>
	<path style="fill:#262626;" d="M185.6,160.8c0,0-6.5-6.5-13-3.3c-6.5,3.3-26.5,26.5-26.5,26.5s35.2-7,39.6-11.4
		C189.9,168.4,185.6,160.8,185.6,160.8z"/>
</g>
</svg>
