<?xml version="1.0" encoding="utf-8"?>
<!-- Generator: Adobe Illustrator 22.1.0, SVG Export Plug-In . SVG Version: 6.00 Build 0)  -->
<svg version="1.1" id="Layer_1" xmlns="http://www.w3.org/2000/svg" xmlns:xlink="http://www.w3.org/1999/xlink" x="0px" y="0px"
	 viewBox="0 0 256 256" style="enable-background:new 0 0 256 256;" xml:space="preserve">
<g style="opacity:0;">
	<path style="fill:#634C9B;" d="M224.2,84.3c-4.1-18.2-22.1-29.7-40.4-25.6c-0.4,0.1-0.8,0.2-1.2,0.3c0.2-3-0.1-6-0.8-9
		c-4.1-18.2-22.2-29.7-40.4-25.6c-8.2,1.8-15,6.5-19.7,12.7c-1.7,2.2-3.1,4.7-4.1,7.2c-2.7-2.4-5.8-4.4-9.1-5.9
		c-6.4-2.8-13.7-3.7-21-2c-18,4-29.5,22.1-25.4,40.3c0.7,3.3,1.9,6.4,3.5,9.2c-14,6.6-22.1,22.2-18.5,37.9
		c3.9,17.4,20.5,28.6,37.9,26.1c-2.7,6.3-3.5,13.4-1.9,20.6c4.1,18.2,22.2,29.7,40.4,25.6c1.8-0.4,3.5-0.9,5.1-1.6
		c-2.2,5.9-2.7,12.4-1.2,19c4.1,18.2,22.2,29.7,40.4,25.6c18.2-4.1,29.7-22.2,25.6-40.4c-1.4-6.4-4.6-11.9-8.8-16.3
		c18.1-4.2,29.4-22.2,25.4-40.3c-1.6-7.1-5.3-13.2-10.4-17.8C217.1,120,228.2,102.2,224.2,84.3z"/>
</g>
<g>
	<g>
		<path style="fill:#683C0C;" d="M121.9,37c-1.7,2.2-3.1,4.7-4.1,7.2c-2.7-2.4-5.8-4.4-9.1-5.9L100.3,12c-1.1-3.4,0.8-7.1,4.2-8.2
			c3.4-1.1,7.1,0.8,8.2,4.2L121.9,37z"/>
	</g>
	<path style="fill:#39E275;" d="M111.9,24.2c0,0,1.7,26.8-13.7,41.6S56,77.9,56,77.9s-1.7-26.8,13.7-41.6S111.9,24.2,111.9,24.2z"/>
	<circle style="opacity:0.1;fill:#FFFFFF;enable-background:new    ;" cx="160.2" cy="206.1" r="33.8"/>
	<circle style="opacity:0.1;fill:#FFFFFF;enable-background:new    ;" cx="134.7" cy="91.5" r="33.8"/>
</g>
</svg>
