<?xml version="1.0" encoding="utf-8"?>
<!-- Generator: Adobe Illustrator 22.1.0, SVG Export Plug-In . SVG Version: 6.00 Build 0)  -->
<svg version="1.1" id="Layer_1" xmlns="http://www.w3.org/2000/svg" xmlns:xlink="http://www.w3.org/1999/xlink" x="0px" y="0px"
	 viewBox="0 0 256 256" style="enable-background:new 0 0 256 256;" xml:space="preserve">
<g>
	<circle style="fill:#FFAD40;" cx="88" cy="104.7" r="81"/>
	<path style="fill:#FFAD40;" d="M98.2,178.2c23.7,38,73.6,49.5,111.6,25.9s49.5-73.6,25.9-111.6L98.2,178.2z"/>
</g>
<g style="opacity:0;">
	<path style="fill:#FFE299;" d="M106.8,172.8c20.7,33.2,64.4,43.4,97.6,22.6S247.8,131,227,97.8L106.8,172.8z"/>
	<g>
		<path style="fill:#FC5135;" d="M160.1,139.8l-14.6,51.1c-11.5-4.6-21.7-12.8-28.8-24.1L160.1,139.8z"/>
		<path style="fill:#FC5135;" d="M150.7,192.7l15.7-55.2l31.2,50C182.8,195.8,165.9,197.2,150.7,192.7z"/>
		<path style="fill:#FC5135;" d="M227.6,144.6c-2.6,15.7-11.3,30.4-25.4,40L171,134.4L227.6,144.6z"/>
		<path style="fill:#FC5135;" d="M219.3,102.9c7,11.3,9.9,24,9,36.3l-52.1-9.4L219.3,102.9z"/>
	</g>
	<circle style="opacity:0.2;fill:#FFFFFF;enable-background:new    ;" cx="125.6" cy="67.2" r="21.5"/>
</g>
</svg>
