<?xml version="1.0" encoding="utf-8"?>
<!-- Generator: Adobe Illustrator 22.1.0, SVG Export Plug-In . SVG Version: 6.00 Build 0)  -->
<svg version="1.1" id="Layer_1" xmlns="http://www.w3.org/2000/svg" xmlns:xlink="http://www.w3.org/1999/xlink" x="0px" y="0px"
	 viewBox="0 0 256 256" style="enable-background:new 0 0 256 256;" xml:space="preserve">
<g style="opacity:0;">
	<path style="fill:#6BE538;" d="M211.1,176.4c0,42.6-35.4,77-78.4,75.4c-39.1-1.5-71-33.3-72.5-72.4c-0.8-19.9,6.2-38.2,18.1-52
		c11.1-12.9,17-29.5,17-46.5l0,0c0-22.2,17.5-40.9,39.7-41.3c11.4-0.2,21.7,4.4,29.2,11.8c7.3,7.3,11.8,17.4,11.8,28.5v0.9
		c0,17.2,6.2,33.8,17.3,46.9C204.4,140.9,211.1,157.8,211.1,176.4z"/>
</g>
<g>
	<path style="opacity:0.3;fill:#FFFFFF;enable-background:new    ;" d="M106.6,143.2c-1,5.7-11.8,19.3-17.5,18.3s-4.3-16.2-3.3-22
		c1-5.7,6.5-9.6,12.2-8.5C103.7,132,107.6,137.5,106.6,143.2z"/>
	<g>
		<path style="fill:#683C0C;" d="M135.2,50.5h-0.1c-3.6-0.1-6.4-3-6.4-6.6l0.6-33c0.1-3.5,3-6.4,6.5-6.4h0.1c3.6,0.1,6.4,3,6.4,6.6
			l-0.6,33C141.6,47.7,138.7,50.5,135.2,50.5z"/>
	</g>
	<path style="fill:#3DB245;" d="M136.2,33c0,0-9.6,33.4-34.8,44.8s-56.7-3.5-56.7-3.5S54.3,41,79.5,29.5S136.2,33,136.2,33z"/>
</g>
</svg>
