<?xml version="1.0" encoding="utf-8"?>
<!-- Generator: Adobe Illustrator 22.1.0, SVG Export Plug-In . SVG Version: 6.00 Build 0)  -->
<svg version="1.1" id="Layer_1" xmlns="http://www.w3.org/2000/svg" xmlns:xlink="http://www.w3.org/1999/xlink" x="0px" y="0px"
	 viewBox="0 0 256 256" style="enable-background:new 0 0 256 256;" xml:space="preserve">
<g style="opacity:0;">
	<path style="fill:#76C146;" d="M218.6,74.5c24.2,34.4,16.7,81.4-16.7,104.9s-80.2,14.7-104.4-19.8c-6.7-9.5-10.3-19.1-11.8-29
		c-2-13.5-4.6-26.9-8.6-40c-5.5-18.1-7.7-44.8,17.5-62.5c19.5-13.7,45.4-12.1,64.6,2.2c10.5,7.8,21.9,14.4,33.4,20.8
		C202.6,56.6,211.6,64.5,218.6,74.5z"/>
	<path style="fill:#76C146;" d="M148.8,205c-16.6,37.1-57.7,54.8-91.8,39.5s-48.1-57.7-31.5-94.8S82,99.7,116,115
		S165.5,167.9,148.8,205z"/>
</g>
<g>
	<path style="opacity:0.2;fill:#FFFFFF;enable-background:new    ;" d="M201.9,179.4c-33.5,23.5-80.2,14.7-104.4-19.8
		c-6.7-9.5-10.3-19.1-11.8-29c-1.9-13.5-4.6-26.9-8.6-40c-5.3-17.2-7.5-42.3,14.1-60c1.1-0.9,2.2-1.7,3.4-2.6c1.3-0.9,2.7-1.8,4-2.5
		c18.9-10.9,42.7-8.5,60.6,4.8c10.5,7.8,21.9,14.4,33.4,20.8c10,5.5,19,13.4,26,23.4C242.8,108.9,235.3,155.9,201.9,179.4z"/>
	<g>
		<path style="fill:#683C0C;" d="M98.6,25.5c-1.4,0.8-2.7,1.6-4,2.5c-1.2,0.8-2.3,1.7-3.4,2.6l-16-22.3c-1.5-2-1-4.8,1-6.3
			c2-1.4,4.8-1,6.3,1L98.6,25.5z"/>
	</g>
	
		<ellipse transform="matrix(0.4095 -0.9123 0.9123 0.4095 -98.121 184.1331)" style="fill:#FFF6B6;" cx="93.2" cy="167.9" rx="60.4" ry="67.6"/>
	<path style="fill:#FFC145;" d="M148.8,188.5l-3.2,6.5c-2.6,5.2-9,7-13.9,4c-5.7-3.6-11.1-7.8-16.2-12.7c-3-3-3.8-7.6-1.9-11.4l0,0
		c1.9-3.9,6.2-6,10.5-5.3c6.6,1.1,13.1,3,19.5,5.4C149,177,151.4,183.3,148.8,188.5z"/>
	<path style="fill:#FFC145;" d="M111.7,221.7l-7.2,0.7c-5.7,0.5-10.7-4-10.7-9.8c0-6.7,0.8-13.6,2.3-20.4c0.9-4.1,4.5-7.2,8.7-7.6
		l0,0c4.3-0.4,8.4,2.1,10,6.1c2.5,6.2,4.4,12.7,5.7,19.4C121.6,215.8,117.5,221.2,111.7,221.7z"/>
	<path style="fill:#FFC145;" d="M34.1,176.7l-2.2-7.6c-1.8-6.1,2-12.4,8.3-13.6c7.3-1.4,14.8-2,22.5-1.9c4.6,0.1,8.7,3.3,10,7.7l0,0
		c1.3,4.6-0.5,9.5-4.5,12.1c-6.2,4.1-12.8,7.4-19.7,10.2C42.5,186.1,35.9,182.8,34.1,176.7z"/>
	<path style="fill:#FFC145;" d="M69.8,216.9l-6.9-3.3c-5.5-2.6-7.6-9.4-4.5-14.7c3.6-6.1,8-11.9,13.1-17.4c3.1-3.3,7.9-4.1,12-2.2
		l0,0c4.2,2,6.5,6.4,5.8,11c-1,7-2.9,13.9-5.3,20.7C81.9,216.9,75.3,219.5,69.8,216.9z"/>
	<path style="fill:#FFC145;" d="M148.2,147.9l1.4,6.4c1.1,5.1-2.5,10.2-7.9,10.9c-6.3,0.8-12.7,0.9-19.3,0.4c-4-0.3-7.2-3.1-8-6.9
		l0,0c-0.9-3.9,1-7.8,4.6-9.8c5.5-3.1,11.3-5.5,17.4-7.5C141.6,139.8,147.1,142.8,148.2,147.9z"/>
	<path style="fill:#FFC145;" d="M123.8,119.3l4.8,4.3c3.8,3.4,3.8,9.5-0.1,13.1c-4.5,4.2-9.5,8-15.1,11.3c-3.3,2-7.5,1.6-10.3-0.9
		l0,0c-2.9-2.6-3.7-6.8-2-10.4c2.6-5.6,5.9-10.9,9.6-15.9C113.9,116.5,120,115.9,123.8,119.3z"/>
	<path style="fill:#FFC145;" d="M86,109.3l6.4-0.3c5.1-0.3,9.4,4.1,9.2,9.4c-0.2,6.2-1.1,12.4-2.7,18.7c-0.9,3.8-4.2,6.4-8,6.6l0,0
		c-3.9,0.2-7.4-2.2-8.7-6c-2.1-5.8-3.5-11.8-4.4-18C77.1,114.3,80.9,109.6,86,109.3z"/>
	<path style="fill:#FFC145;" d="M48.3,127.3l4.3-4.8c3.4-3.8,9.5-3.8,13.1,0.1c4.2,4.5,8,9.6,11.3,15.1c2,3.3,1.6,7.5-0.9,10.3l0,0
		c-2.6,2.9-6.8,3.6-10.4,1.9c-5.6-2.6-10.8-5.9-15.9-9.6C45.6,137.2,44.9,131.1,48.3,127.3z"/>
</g>
</svg>
