<?xml version="1.0" encoding="utf-8"?>
<!-- Generator: Adobe Illustrator 22.1.0, SVG Export Plug-In . SVG Version: 6.00 Build 0)  -->
<svg version="1.1" id="Layer_1" xmlns="http://www.w3.org/2000/svg" xmlns:xlink="http://www.w3.org/1999/xlink" x="0px" y="0px"
	 viewBox="0 0 256 256" style="enable-background:new 0 0 256 256;" xml:space="preserve">
<g style="opacity:0;">
	<g>
		<path style="fill:#B26A22;" d="M90,32.5c-4.3,0-7.8-3.4-8-7.7l-0.5-10.5c-0.2-4.4,3.2-8.1,7.6-8.3s8.1,3.2,8.3,7.6L98,24.2
			c0.2,4.4-3.2,8.1-7.6,8.3C90.2,32.5,90.1,32.5,90,32.5z"/>
	</g>
	<path style="fill:#B26A22;" d="M111.2,199.3H77.5c-25.7,0-46.1-22.6-47.9-51.5c-1.8-29.9-1.1-57.1,2.5-81.9
		C36.4,35.8,61,14,88.8,14h7.7c28.2,0,53,22.6,56.9,53.4c3.2,25.4,5.3,51,5.6,76.2C159.4,174.2,138.3,199.3,111.2,199.3z"/>
	<circle style="fill:#B26A22;" cx="176.9" cy="168.5" r="63.1"/>
</g>
<g>
	<path style="opacity:0.1;fill:#FFFFFF;enable-background:new    ;" d="M113.8,168.5c0,10.7,2.6,20.8,7.3,29.6
		c-3.2,0.8-6.6,1.2-10,1.2H77.5c-25.7,0-46.1-22.6-47.9-51.5c-1.8-29.9-1.1-57.1,2.5-81.9C36.4,35.8,61,14,88.8,14h7.8
		c28.2,0,53,22.6,56.9,53.4c1.7,13.7,3.1,27.4,4.1,41.1C132.1,116.7,113.8,140.5,113.8,168.5z"/>
	<path style="opacity:0.2;fill:#FFFFFF;enable-background:new    ;" d="M240,168.5c0,34.9-28.3,63.1-63.1,63.1
		c-24.2,0-45.2-13.6-55.8-33.5c-4.7-8.8-7.3-18.9-7.3-29.6c0-28.1,18.3-51.8,43.6-60c6.1-2,12.7-3.1,19.5-3.1
		C211.8,105.4,240,133.7,240,168.5z"/>
	<circle style="fill:#6BEF50;" cx="176.9" cy="168.5" r="52.9"/>
	<circle style="fill:#91FF76;" cx="176.9" cy="168.5" r="38.7"/>
	<g>
		<circle style="fill:#3A210D;" cx="185.1" cy="146.1" r="4.1"/>
		<circle style="fill:#3A210D;" cx="195.9" cy="154.1" r="4.1"/>
		<circle style="fill:#3A210D;" cx="200.7" cy="167" r="4.1"/>
		<circle style="fill:#3A210D;" cx="197.8" cy="180.1" r="4.1"/>
		<circle style="fill:#3A210D;" cx="187.6" cy="189.8" r="4.1"/>
		<circle style="fill:#3A210D;" cx="174.4" cy="192.2" r="4.1"/>
		<circle style="fill:#3A210D;" cx="161.7" cy="186.9" r="4.1"/>
		<circle style="fill:#3A210D;" cx="154.2" cy="175.7" r="4.1"/>
		<circle style="fill:#3A210D;" cx="153.7" cy="163.2" r="4.1"/>
		<circle style="fill:#3A210D;" cx="160.6" cy="151.2" r="4.1"/>
		<circle style="fill:#3A210D;" cx="172.5" cy="145.1" r="4.1"/>
	</g>
</g>
</svg>
