<?xml version="1.0" encoding="utf-8"?>
<!-- Generator: Adobe Illustrator 22.1.0, SVG Export Plug-In . SVG Version: 6.00 Build 0)  -->
<svg version="1.1" id="Layer_1" xmlns="http://www.w3.org/2000/svg" xmlns:xlink="http://www.w3.org/1999/xlink" x="0px" y="0px"
	 viewBox="0 0 256 256" style="enable-background:new 0 0 256 256;" xml:space="preserve">
<g>
	<circle style="fill:#7DF431;" cx="94.8" cy="121.2" r="76.5"/>
	<path style="fill:#7DF431;" d="M104.5,190.6c22.4,35.9,69.6,46.8,105.5,24.5s46.8-69.6,24.5-105.5L104.5,190.6z"/>
</g>
<g style="opacity:0;">
	<path style="opacity:0.2;fill:#FFFFFF;enable-background:new    ;" d="M104.5,190.6c22.4,35.9,69.6,46.8,105.5,24.5
		s46.8-69.6,24.5-105.5L104.5,190.6z"/>
	<g>
		<path style="fill:#683C0C;" d="M86.4,56.9c-1.9,0-3.6-1.4-3.9-3.4l-3-19.9c-0.3-2.2,1.2-4.2,3.4-4.6c2.2-0.3,4.2,1.2,4.6,3.4
			l3,19.9c0.3,2.2-1.2,4.2-3.4,4.6C86.8,56.9,86.6,56.9,86.4,56.9z"/>
	</g>
	<path style="fill:#53A022;" d="M85.6,42.6c0,0-3.5,32.7-25.2,47.3S7,95.7,7,95.7S10.5,63,32.2,48.4S85.6,42.6,85.6,42.6z"/>
	<g>
		<path style="fill:#FFFDDC;" d="M226.3,114.7l-113.7,70.9c19.6,31.4,60.9,41,92.3,21.4S245.8,146.1,226.3,114.7z M122,179.9
			l41-25.5l-13.8,48.3C138.3,198.3,128.6,190.6,122,179.9z M154,204.4l14.9-52.2l29.5,47.3C184.4,207.3,168.4,208.7,154,204.4z
			 M202.8,196.7l-29.6-47.4l53.5,9.6C224.3,173.8,216,187.6,202.8,196.7z M178.1,144.9l40.7-25.4c6.6,10.7,9.4,22.7,8.5,34.3
			L178.1,144.9z"/>
	</g>
</g>
</svg>
