<?xml version="1.0" encoding="utf-8"?>
<!-- Generator: Adobe Illustrator 22.1.0, SVG Export Plug-In . SVG Version: 6.00 Build 0)  -->
<svg version="1.1" id="Layer_1" xmlns="http://www.w3.org/2000/svg" xmlns:xlink="http://www.w3.org/1999/xlink" x="0px" y="0px"
	 viewBox="0 0 256 256" style="enable-background:new 0 0 256 256;" xml:space="preserve">
<g style="opacity:0;">
	<path style="fill:#F2333D;" d="M205.4,65.6c21,29,8,75.8-4.5,84.9c-17.1,12.4-61.1,6.9-82.1-22.1s-18.1-56.3,10.3-76.9
		C159.8,29.2,184.4,36.6,205.4,65.6z"/>
	<path style="fill:#F2333D;" d="M129,119.8c0,40.1-42.7,74.1-60,74.1c-23.6,0-60-33.9-60-74.1s20.6-63,60-63
		C111.5,56.7,129,79.6,129,119.8z"/>
	<path style="fill:#F2333D;" d="M244,157.6c0,40.2-42.7,74.1-60,74.1c-23.6,0-60-33.9-60-74.1c2.1,0.5,4.3,0.9,6.4,1.3
		c34.7,6.5,69.3,6.7,104,0.6C237.6,158.9,240.8,158.3,244,157.6z"/>
</g>
<g>
	<path style="opacity:0.1;fill:#FFFFFF;enable-background:new    ;" d="M129,119.8c0,40.1-42.7,74.1-60,74.1
		c-23.6,0-60-33.9-60-74.1s20.6-63,60-63C111.5,56.7,129,79.6,129,119.8z"/>
	<path style="fill:#39E275;" d="M91.2,27.9c0,0-11.9,14.3-26.7,14.5c-14.8,0.1-27-13.9-27-13.9S49.4,14.2,64.2,14
		S91.2,27.9,91.2,27.9z"/>
	<path style="fill:#39E275;" d="M150.2,33.2c0,0-14.3,11.9-28.9,9.2c-14.6-2.6-23.9-18.7-23.9-18.7s14.3-11.9,28.9-9.2
		S150.2,33.2,150.2,33.2z"/>
	<path style="fill:#F2F2F2;" d="M234.4,159.4c-34.7,6.1-69.3,5.9-104-0.6c1.3-32.5,19-50.9,52-50.9
		C218.1,108,233.5,126.6,234.4,159.4z"/>
	<g>
		<path style="fill:#683C0C;" d="M69.8,69.5c-0.4,0-0.8-0.1-1.2-0.3c-1.2-0.7-1.6-2.2-0.9-3.4c0.2-0.3,18.7-32.8,20.2-47.9
			c0.1-0.8,0.6-1.6,1.4-2s1.7-0.4,2.4,0.1c1.8,1,43.3,25.7,49.8,38.9c0.6,1.2,0.1,2.7-1.1,3.4c-1.2,0.6-2.7,0.1-3.4-1.1
			c-4.5-9-31.4-26.7-44.7-34.9c-3.6,16.9-19.5,44.8-20.2,46C71.5,69,70.6,69.5,69.8,69.5z"/>
	</g>
</g>
</svg>
