<?xml version="1.0" encoding="utf-8"?>
<!-- Generator: Adobe Illustrator 22.1.0, SVG Export Plug-In . SVG Version: 6.00 Build 0)  -->
<svg version="1.1" id="Layer_1" xmlns="http://www.w3.org/2000/svg" xmlns:xlink="http://www.w3.org/1999/xlink" x="0px" y="0px"
	 viewBox="0 0 256 256" style="enable-background:new 0 0 256 256;" xml:space="preserve">
<g>
	<path style="fill:#FFC033;" d="M206.5,123.9c0,0,1.6,14.9-0.5,27.1c-14,80-88.1,93.8-120.9,92c-37.1-2-20-19.6-20-19.6
		c7.9-19.2,8-41.2-6.2-59.4c-7.5-9.7-12.9-28.1-12.9-41.2c0-45.7,38.1-82.4,84.3-80.1C173.1,44.8,203,81,206.5,123.9z"/>
</g>
<g style="opacity:0;">
	<path style="fill:#39E275;" d="M96.8,51.1c0,0-18.9,22.7-42.4,23C30.8,74.3,11.5,52,11.5,52s18.9-22.7,42.4-23S96.8,51.1,96.8,51.1
		z"/>
	<path style="fill:none;stroke:#683C0C;stroke-width:8;stroke-linecap:round;stroke-linejoin:round;stroke-miterlimit:10;" d="
		M99.7,58c0,0-6.5-9.8-13.4-34"/>
	<circle style="opacity:0.2;fill:#FFFFFF;enable-background:new    ;" cx="149.5" cy="77.5" r="15.5"/>
</g>
</svg>
