<?xml version="1.0" encoding="utf-8"?>
<!-- Generator: Adobe Illustrator 22.1.0, SVG Export Plug-In . SVG Version: 6.00 Build 0)  -->
<svg version="1.1" id="Layer_1" xmlns="http://www.w3.org/2000/svg" xmlns:xlink="http://www.w3.org/1999/xlink" x="0px" y="0px"
	 viewBox="0 0 291 493" style="enable-background:new 0 0 291 493;" xml:space="preserve">
<title>pen2</title>
<g id="Layer_2_1_">
	<g id="Layer_1-2">
		<g style="opacity:0;">
			<path style="fill:#CE3A99;" d="M280.8,60.2c-3,5.8-6.3,11.3-10,16.7l-2,3.3L121.3,317.1c0,0-16.1-25.8-46.1-21.6l1.1-2L206.1,53
				l12.2-22.3l3.4-4.9c1.5-2.7,6.7-10.8,8.8-13.1c7.1-8,20.9-18.5,44.3-9.1c1,0.4,1.9,0.8,2.9,1.3C299.5,14.9,290,42.3,280.8,60.2z"
				/>
			<path style="fill:#BF2E93;" d="M255.4,70.3c4.7,2.9,9.1,6.2,13.3,9.8L121.3,317.1c0,0-16.1-25.8-46.1-21.6l1.1-2
				c8.7-2.7,23.2-5.9,33.8-0.8C122.9,298.7,214.4,151.3,255.4,70.3z"/>
			<path style="fill:#BF2E93;" d="M280.8,60.2c-4.3-4.8-9-9.2-14.2-13c4.5-10,7.4-17.8,8.4-22.7c1.8-9.5,1.5-16.1-0.1-20.8
				c1,0.4,1.9,0.8,2.9,1.3C299.5,14.9,290,42.3,280.8,60.2z"/>
		</g>
		<g id="Layer_2-2">
			<g id="Layer_1-2-2">
				<path style="fill:#7C7C7C;" d="M121.3,317.1c-9.1,11.2-23,37-23,37c-0.7,0.9-1.4,1.8-2.1,2.8c-4.5-7.5-14.7-12-21-15.3
					c-5.9-3.1-11.4-8.5-20.3-9.6c7.6-11.7,14.4-23.9,20.3-36.5C111.5,282.1,121.3,317.1,121.3,317.1z"/>
				<polygon style="fill:#A5A5A5;" points="89.9,290.5 57.8,345 67.6,349.9 98.3,293 				"/>
				<path style="fill:#FFC033;" d="M87.1,410.6c-14.8-1.8-32,12-45.4,26.1c-8.1,8.7-15.6,17.9-22.4,27.7c0,0,0.2,0.9,0.3,2.2
					c0.3,4-4.5,12.5-10,8.3c-8-6,2.1-12.6,2.1-12.6c0.1-0.4,0.2-0.9,0.3-1.4c3.3-15.8,4.6-84.5,4.6-84.5
					c14.9-11.5,28.2-28.8,38.3-44.5c6.4-0.2,15.8,3,21.7,6.1c3.8,2.2,7.3,4.8,10.5,7.9c3.5,3.3,6.6,7,9.1,11
					C82.7,376.9,87.1,410.6,87.1,410.6z"/>
				<path style="fill:#F79E28;" d="M17.3,460.9c-1.4,3.8,0,4.2,2.1,3.5c0.7,2.8,0.4,5.7-0.7,8.4c-1.4,3.5-6.2,4.3-9.1,2.1
					c-8-6,2.1-12.6,2.1-12.6c2.1,4.2,29.6-69.4,30-70.5L35.4,412C35.4,412,20.1,453.2,17.3,460.9z"/>
				<path style="fill:#F79E28;" d="M87.1,410.6c-14.8-1.8-32,12-45.4,26.1c8.9-14.1,21.4-25.5,36.3-33.1
					c-5.5-34.8,6.1-53.6,9.1-57.8c3.5,3.3,6.6,7,9.1,11C82.7,376.9,87.1,410.6,87.1,410.6z"/>
				<path style="fill:#FFC033;" d="M239.6,25.6c0,0-57.4,98.1-64.6,110.5s5.6,8.3,8.1,2.3s65.3-110.7,65.3-110.7
					S246.9,22.3,239.6,25.6z"/>
				<path style="fill:#F79E28;" d="M280.8,60.2c-3,5.8-6.3,11.3-10,16.7l-2,3.3c-4.2-3.6-8.6-6.9-13.3-9.8
					c4.3-8.5,8.1-16.3,11.1-23.1C271.8,51,276.5,55.4,280.8,60.2z"/>
				<path style="fill:#FFC033;" d="M266.6,47.2c-3,6.8-6.8,14.6-11.1,23.1C240.5,60.9,223.7,55,206.1,53l12.2-22.3
					C235.7,31.1,252.6,36.8,266.6,47.2z"/>
				<path style="opacity:0.7;enable-background:new    ;" d="M9.6,476.2c0,0-21.6,11.9,0,13.3s74.7-16.8,72.6-3.5
					s101.2,3.5,101.2,3.5s-98.5,6.3-95.7-8.4s-52.4,2.1-63.5-1.4S13.8,473.5,9.6,476.2z"/>
			</g>
		</g>
	</g>
</g>
</svg>
