<?xml version="1.0" encoding="utf-8"?>
<!-- Generator: Adobe Illustrator 22.1.0, SVG Export Plug-In . SVG Version: 6.00 Build 0)  -->
<svg version="1.1" id="Layer_1" xmlns="http://www.w3.org/2000/svg" xmlns:xlink="http://www.w3.org/1999/xlink" x="0px" y="0px"
	 viewBox="0 0 136 98" style="enable-background:new 0 0 136 98;" xml:space="preserve">
<g>
	<path style="fill:#F4A11C;" d="M63.2,44.2c0,0-22.4-29.9-31.1-24.9S34.5,33,34.5,33s-11.2,0-11.2,6.2S35.8,48,35.8,48
		s-13.5,4.2-11.2,10c2.5,6.2,13.7,2.5,13.7,2.5s-14.9,12.5-2.5,14.9c12.5,2.5,27.4-23.7,27.4-23.7V44.2z"/>
	<path style="fill:#F4A11C;" d="M73.1,44.2c0,0,22.4-29.9,31.1-24.9S101.8,33,101.8,33s11.2,0,11.2,6.2S100.5,48,100.5,48
		s13.5,4.2,11.2,10c-2.5,6.2-13.7,2.5-13.7,2.5s14.9,12.5,2.5,14.9c-12.5,2.5-27.4-23.7-27.4-23.7V44.2z"/>
	<path style="fill:#ED9118;" d="M76.9,45.5c0,0,8.7-2.5,13.7-5C90.6,40.5,80.6,49.2,76.9,45.5z"/>
	<path style="fill:#ED9118;" d="M78.1,51.7c0,0,5,3.7,10,3.7c0,0-6.2,1.2-11.2-2.5C71.9,49.2,78.1,51.7,78.1,51.7z"/>
	<path style="fill:#ED9118;" d="M61.9,50.5c0,0-11.2,6.2-10,8.7C53.2,61.7,61.9,50.5,61.9,50.5z"/>
	<path style="fill:#ED9118;" d="M59.4,46.7c0,0-8.7-3.7-10-6.2s5,7.5,8.7,7.5C61.9,48,59.4,46.7,59.4,46.7z"/>
	<path style="fill:#F7C32F;" d="M73.6,57.9H62.7c-3.9,0-7-3.1-7-7v-3.4c0-3.9,3.1-7,7-7h10.9c3.9,0,7,3.1,7,7v3.4
		C80.6,54.8,77.5,57.9,73.6,57.9z"/>
</g>
</svg>
