<?xml version="1.0" encoding="utf-8"?>
<!-- Generator: Adobe Illustrator 22.1.0, SVG Export Plug-In . SVG Version: 6.00 Build 0)  -->
<svg version="1.1" id="Layer_1" xmlns="http://www.w3.org/2000/svg" xmlns:xlink="http://www.w3.org/1999/xlink" x="0px" y="0px"
	 viewBox="0 0 136 98" style="enable-background:new 0 0 136 98;" xml:space="preserve">
<g>
	<path style="fill:#F4CB56;" d="M68.6,44.7L43.3,20.2c-3.7-3.6-9.8-2.5-12,2.1c-5,10.3-10.3,28.3,0.4,46.5c2.3,3.9,7.5,4.8,11.1,2.1
		l25.9-20V44.7z"/>
	<path style="fill:#F4CB56;" d="M78.9,44.7l25.2-24.4c3.7-3.6,9.8-2.5,12,2.1c5,10.3,10.3,28.3-0.4,46.5c-2.3,3.9-7.5,4.8-11.1,2.1
		l-25.9-20V44.7z"/>
	<path style="fill:#EFB650;" d="M82.5,48.8c0,0,12.5-3.7,17.4-8.7c0,0-12.5,13.7-17.4,10"/>
	<path style="fill:#EFB650;" d="M63.8,45.1c0,0-8.7-3.7-10-5S60,47.6,63.8,45.1z"/>
	<path style="fill:#EFB650;" d="M62.5,48.8c0,0-3.7,2.5-7.5,5c-3.7,2.5,6.2-1.2,7.5-2.5C63.8,50.1,62.5,48.8,62.5,48.8z"/>
	<ellipse style="fill:#F9E662;" cx="72.7" cy="48.3" rx="12.4" ry="8.8"/>
</g>
</svg>
