<?xml version="1.0" encoding="utf-8"?>
<!-- Generator: Adobe Illustrator 22.1.0, SVG Export Plug-In . SVG Version: 6.00 Build 0)  -->
<svg version="1.1" id="Layer_1" xmlns="http://www.w3.org/2000/svg" xmlns:xlink="http://www.w3.org/1999/xlink" x="0px" y="0px"
	 viewBox="0 0 136 98" style="enable-background:new 0 0 136 98;" xml:space="preserve">
<g>
	<path style="fill:#4DDCEF;" d="M61.7,48.1v8.7c0,0-0.5,3.2-2.4,7.3v0c-1.4,3-3.4,6.4-6.5,9.6c-4.1,4.2-10,7.9-18.4,9.2
		c-1.4,0.2-2.7,0.3-3.8,0.4c-4.8,0.2-7.5-1-8.9-2.9c-3.1-4.3,0.5-12,2.1-14.9c0.4-0.7,0.7-1.2,0.7-1.2c-1.9-1.3-3.4-2.6-4.6-3.9
		c-4.3-4.6-4.4-8.5-3.2-11.4c1.6-3.7,5.3-5.8,5.3-5.8s-0.9-0.9-2.1-2.3c-1.6-2-3.8-5-5-8.4c-0.7-2.1-1.1-4.3-0.7-6.5
		c0.6-3.6,3.1-7.3,9-10.2c4.7-2.3,9.3-1.8,13.6,0.4c2.1,1.1,4.1,2.5,6,4.2c2.5,2.2,4.8,4.8,6.9,7.5c1.3,1.7,2.6,3.5,3.7,5.2
		c2.5,3.8,4.6,7.4,6,10.2C60.9,46.2,61.7,48.1,61.7,48.1z"/>
	<path style="fill:#4DDCEF;" d="M117.2,45.8c2.5,2.8,4.8,7.6-0.2,13.6c-1.3,1.5-3.1,3.2-5.5,4.9c0,0,0.9,1.4,1.8,3.5
		c2.7,6.2,5.9,18-11.8,15.2c-5.1-0.8-9.3-2.5-12.7-4.6c-2.1-1.3-4-2.8-5.5-4.4c-3.4-3.5-5.7-7.3-7-10.5c-1.2-2.6-1.8-4.8-2-5.9
		c-0.1-0.5-0.2-0.8-0.2-0.8v-8.7c0,0,1-2.3,2.8-5.7c1.4-2.6,3.2-5.8,5.4-9.1c7.3-11.1,18.6-23.4,30.4-17.5c1.6,0.8,3,1.7,4.1,2.6
		c2,1.6,3.3,3.3,4.1,5c2.5,5.6-0.5,11.6-3.3,15.5c-1.9,2.6-3.7,4.3-3.7,4.3S115.7,44.1,117.2,45.8z"/>
	<path style="opacity:0.6;fill:#FFFFFF;" d="M42.7,20.3l-28,12.1c-0.7-2.1-1.1-4.3-0.7-6.5l22.7-9.8C38.8,17.2,40.8,18.6,42.7,20.3z
		"/>
	<path style="opacity:0.6;fill:#FFFFFF;" d="M111.5,64.3c0,0,0.9,1.4,1.8,3.5L88.9,78.4c-2.1-1.3-4-2.8-5.5-4.4L117,59.4
		C115.7,61,113.9,62.6,111.5,64.3z"/>
	<path style="opacity:0.6;fill:#FFFFFF;" d="M53.3,33L16.6,49c1.6-3.7,5.3-5.8,5.3-5.8s-0.9-0.9-2.1-2.3l29.9-13
		C51,29.6,52.2,31.3,53.3,33z"/>
	<path style="opacity:0.6;fill:#FFFFFF;" d="M59.3,43.3c1.5,2.9,2.4,4.8,2.4,4.8V49l-38,16.5c0.4-0.7,0.7-1.2,0.7-1.2
		c-1.9-1.3-3.4-2.6-4.6-3.9L59.3,43.3z"/>
	<path style="opacity:0.6;fill:#FFFFFF;" d="M121,23.3L77,42.4c1.4-2.6,3.2-5.8,5.4-9.1l34.5-15C118.9,19.9,120.2,21.6,121,23.3z"/>
	<path style="opacity:0.6;fill:#FFFFFF;" d="M21.6,80.4l37.7-16.3c-1.4,3-3.4,6.4-6.5,9.6l-22.3,9.6C25.7,83.6,23,82.3,21.6,80.4z"
		/>
	<path style="opacity:0.6;fill:#FFFFFF;" d="M117.2,45.8L76.3,63.5c-1.2-2.6-1.8-4.8-2-5.9l43.4-18.8c-1.9,2.6-3.7,4.3-3.7,4.3
		S115.7,44.1,117.2,45.8z"/>
	<path style="fill:#38D8E0;" d="M79.1,51.1v0.3c0,1.1-0.2,2.2-0.7,3.2c-1,2.2-2.9,3.9-5.3,4.5c-0.6,0.2-1.3,0.2-1.9,0.2h-8.9
		c-4.4,0-7.9-3.5-7.9-7.9v-0.3c0-1.5,0.4-2.8,1.1-4c0.7-1.2,1.7-2.2,2.9-2.9c1.2-0.7,2.5-1.1,4-1.1h8.9c0.7,0,1.3,0.1,2,0.3
		c2.8,0.7,5,2.9,5.7,5.8C79,49.8,79.1,50.4,79.1,51.1z"/>
	<path style="opacity:0.7;fill:#FFFFFF;" d="M79.1,51.1v0.3c0,1.1-0.2,2.2-0.7,3.2L67.1,43.1h4.1c0.7,0,1.3,0.1,2,0.3l5.7,5.8
		C79,49.8,79.1,50.4,79.1,51.1z"/>
	<path style="opacity:0.7;fill:#FFFFFF;" d="M73.1,59.1c-0.6,0.2-1.3,0.2-1.9,0.2h-3.6L55.4,47.1c0.7-1.2,1.7-2.2,2.9-2.9L73.1,59.1
		z"/>
</g>
</svg>
