<?xml version="1.0" encoding="utf-8"?>
<!-- Generator: Adobe Illustrator 22.1.0, SVG Export Plug-In . SVG Version: 6.00 Build 0)  -->
<svg version="1.1" id="Layer_1" xmlns="http://www.w3.org/2000/svg" xmlns:xlink="http://www.w3.org/1999/xlink" x="0px" y="0px"
	 viewBox="0 0 136 98" style="enable-background:new 0 0 136 98;" xml:space="preserve">
<g>
	<path style="fill:#C63DD1;" d="M58.6,45.9c0,0-2.8-29.1-24.8-31.9v69.7c0,0,23.9-2.8,24.8-30.9V45.9z"/>
	<path style="fill:#D94BDD;" d="M58.6,46.1c0,0-6.4-23.9-34-29.4V81c0,0,34-2.8,34-28.4V46.1z"/>
	<path style="fill:#C63DD1;" d="M78.2,45.9c0,0,2.8-29.1,24.8-31.9v69.7c0,0-23.9-2.8-24.8-30.9V45.9z"/>
	<path style="fill:#D94BDD;" d="M78.2,46.1c0,0,6.4-23.9,34-29.4V81c0,0-34-2.8-34-28.4V46.1z"/>
	<path style="fill:#C63DD1;" d="M75.4,57.1H60c-3.9,0-7-3.1-7-7v-3.4c0-3.9,3.1-7,7-7h15.4c3.9,0,7,3.1,7,7v3.4
		C82.4,54,79.2,57.1,75.4,57.1z"/>
</g>
</svg>
