<?xml version="1.0" encoding="utf-8"?>
<!-- Generator: Adobe Illustrator 22.1.0, SVG Export Plug-In . SVG Version: 6.00 Build 0)  -->
<svg version="1.1" id="Layer_1" xmlns="http://www.w3.org/2000/svg" xmlns:xlink="http://www.w3.org/1999/xlink" x="0px" y="0px"
	 viewBox="0 0 136 98" style="enable-background:new 0 0 136 98;" xml:space="preserve">
<g>
	<path style="fill:#811A96;" d="M61.4,44.3c0,0-5-31.1-18.7-23.7S34,71.7,46.5,71.7s13.7-17.4,14.9-19.9S61.4,44.3,61.4,44.3z"/>
	<path style="fill:#A823AF;" d="M59,43.1c0,0-23.7-28.6-33.6-11.2s-1.2,33.6,11.2,34.9S57.7,51.8,59,49.3C60.2,46.8,59,43.1,59,43.1
		z"/>
	<path style="fill:#811A96;" d="M73.9,44.3c0,0,5-31.1,18.7-23.7s8.7,51.1-3.7,51.1S75.1,54.3,73.9,51.8S73.9,44.3,73.9,44.3z"/>
	<path style="fill:#A823AF;" d="M76.4,43.1c0,0,23.7-28.6,33.6-11.2s1.2,33.6-11.2,34.9S77.6,51.8,76.4,49.3
		C75.1,46.8,76.4,43.1,76.4,43.1z"/>
	<path style="fill:#F2BD38;" d="M75.6,55.5H59.7c-3.9,0-7-3.1-7-7v-3.4c0-3.9,3.1-7,7-7h15.9c3.9,0,7,3.1,7,7v3.4
		C82.6,52.4,79.5,55.5,75.6,55.5z"/>
</g>
</svg>
