<?xml version="1.0" encoding="utf-8"?>
<!-- Generator: Adobe Illustrator 22.1.0, SVG Export Plug-In . SVG Version: 6.00 Build 0)  -->
<svg version="1.1" id="Layer_1" xmlns="http://www.w3.org/2000/svg" xmlns:xlink="http://www.w3.org/1999/xlink" x="0px" y="0px"
	 viewBox="0 0 136 98" style="enable-background:new 0 0 136 98;" xml:space="preserve">
<g>
	<path style="fill:#2F52C1;" d="M60,52.5c0,0-59-16.1-51.3,2.1S20,84.4,29.9,82.4C39.7,80.4,60.5,58.7,60,52.5z"/>
	<path style="fill:#2F52C1;" d="M72.8,53.8c0,0,59-16.1,51.3,2.1s-11.4,29.8-21.2,27.8C93.1,81.6,72.3,60,72.8,53.8z"/>
	<path style="fill:#3B88DB;" d="M59.6,49.7c0,0-33.6-51.1-39.9-32.4S8.5,47.2,17.2,52.2S55.8,54.7,59.6,49.7z"/>
	<path style="fill:#3B88DB;" d="M73.2,51c0,0,33.6-51.1,39.9-32.4c6.2,18.7,11.2,29.9,2.5,34.9S76.9,55.9,73.2,51z"/>
	<circle style="fill:#2F1F72;" cx="65.8" cy="54.7" r="12.5"/>
</g>
</svg>
