<?xml version="1.0" encoding="utf-8"?>
<!-- Generator: Adobe Illustrator 22.1.0, SVG Export Plug-In . SVG Version: 6.00 Build 0)  -->
<svg version="1.1" id="Layer_1" xmlns="http://www.w3.org/2000/svg" xmlns:xlink="http://www.w3.org/1999/xlink" x="0px" y="0px"
	 viewBox="0 0 136 98" style="enable-background:new 0 0 136 98;" xml:space="preserve">
<g>
	<path style="fill:#D81D95;" d="M61.7,50.7c0,0-36.7-17.6-43.6-6.1s-0.7,17.7,5.5,17.7c0,0-9.4,16.5,10.3,15.7S61.7,50.7,61.7,50.7z
		"/>
	<path style="fill:#D81D95;" d="M69.8,49.5c0,0,36.7-17.6,43.6-6.1s0.7,17.7-5.5,17.7c0,0,9.4,16.5-10.3,15.7S69.8,49.5,69.8,49.5z"
		/>
	<path style="fill:#E523A4;" d="M61.6,50.6c0,0-11.9-38.9-25.1-36.2s-13.5,11.5-9.2,16c0,0-18.5,4.2-4.6,18.2S61.6,50.6,61.6,50.6z"
		/>
	<path style="fill:#E523A4;" d="M69.8,49.4c0,0,15-37.8,27.9-34.1s12.5,12.5,7.9,16.7c0,0,18.1,5.7,3.1,18.5S69.8,49.4,69.8,49.4z"
		/>
	<circle style="fill:#F93DBF;" cx="64.2" cy="50.7" r="11.2"/>
</g>
</svg>
