<?xml version="1.0" encoding="utf-8"?>
<!-- Generator: Adobe Illustrator 22.1.0, SVG Export Plug-In . SVG Version: 6.00 Build 0)  -->
<svg version="1.1" id="Layer_1" xmlns="http://www.w3.org/2000/svg" xmlns:xlink="http://www.w3.org/1999/xlink" x="0px" y="0px"
	 viewBox="0 0 136 98" style="enable-background:new 0 0 136 98;" xml:space="preserve">
<g>
	<path style="fill:#EA325E;" d="M62.4,46.5c-7.8-9.9-18.1-17.9-30.2-24.5c0,0-27.1,23.7,0.4,49.1c10.9-2.8,20.8-10,29.8-20.2V46.5z"
		/>
	<circle style="fill:#FFFFFF;" cx="33.5" cy="26.3" r="0.9"/>
	<circle style="fill:#FFFFFF;" cx="36.1" cy="31.6" r="0.9"/>
	<circle style="fill:#FFFFFF;" cx="44.9" cy="35.1" r="0.9"/>
	<circle style="fill:#FFFFFF;" cx="40.5" cy="30.7" r="0.9"/>
	<circle style="fill:#FFFFFF;" cx="38.2" cy="38.8" r="0.9"/>
	<circle style="fill:#FFFFFF;" cx="43.7" cy="40.8" r="0.9"/>
	<circle style="fill:#FFFFFF;" cx="52.5" cy="37.4" r="0.9"/>
	<circle style="fill:#FFFFFF;" cx="32.3" cy="40.7" r="0.9"/>
	<circle style="fill:#FFFFFF;" cx="26.2" cy="33.7" r="0.9"/>
	<circle style="fill:#FFFFFF;" cx="23.5" cy="47.8" r="0.9"/>
	<circle style="fill:#FFFFFF;" cx="25" cy="53.5" r="0.9"/>
	<circle style="fill:#FFFFFF;" cx="30.2" cy="50.2" r="0.9"/>
	<circle style="fill:#FFFFFF;" cx="32.6" cy="59.9" r="0.9"/>
	<circle style="fill:#FFFFFF;" cx="27.3" cy="60.8" r="0.9"/>
	<circle style="fill:#FFFFFF;" cx="42" cy="47.8" r="0.9"/>
	<circle style="fill:#FFFFFF;" cx="40.5" cy="53.8" r="0.9"/>
	<circle style="fill:#FFFFFF;" cx="44.9" cy="63.1" r="0.9"/>
	<circle style="fill:#FFFFFF;" cx="47" cy="51" r="0.9"/>
	<circle style="fill:#FFFFFF;" cx="54.5" cy="51.7" r="0.9"/>
	<circle style="fill:#FFFFFF;" cx="48.4" cy="45.9" r="0.9"/>
	<circle style="fill:#FFFFFF;" cx="54.8" cy="43.1" r="0.9"/>
	<circle style="fill:#FFFFFF;" cx="36.4" cy="62.4" r="0.9"/>
	<circle style="fill:#FFFFFF;" cx="36.4" cy="67.5" r="0.9"/>
	<circle style="fill:#FFFFFF;" cx="52.8" cy="57" r="0.9"/>
	<path style="fill:#EA325E;" d="M72.9,46.5c7.8-9.9,18.1-17.9,30.2-24.5c0,0,27.1,23.7-0.4,49.1c-10.9-2.8-20.8-10-29.8-20.2V46.5z"
		/>
	<circle style="fill:#FFFFFF;" cx="101.8" cy="26.3" r="0.9"/>
	<circle style="fill:#FFFFFF;" cx="99.2" cy="31.6" r="0.9"/>
	<circle style="fill:#FFFFFF;" cx="90.4" cy="35.1" r="0.9"/>
	<circle style="fill:#FFFFFF;" cx="94.8" cy="30.7" r="0.9"/>
	<circle style="fill:#FFFFFF;" cx="97.2" cy="38.8" r="0.9"/>
	<circle style="fill:#FFFFFF;" cx="91.7" cy="40.8" r="0.9"/>
	<circle style="fill:#FFFFFF;" cx="82.9" cy="37.4" r="0.9"/>
	<circle style="fill:#FFFFFF;" cx="103" cy="40.7" r="0.9"/>
	<circle style="fill:#FFFFFF;" cx="109.2" cy="33.7" r="0.9"/>
	<circle style="fill:#FFFFFF;" cx="111.8" cy="47.8" r="0.9"/>
	<circle style="fill:#FFFFFF;" cx="110.4" cy="53.5" r="0.9"/>
	<circle style="fill:#FFFFFF;" cx="105.1" cy="50.2" r="0.9"/>
	<circle style="fill:#FFFFFF;" cx="102.8" cy="59.9" r="0.9"/>
	<circle style="fill:#FFFFFF;" cx="108" cy="60.8" r="0.9"/>
	<circle style="fill:#FFFFFF;" cx="93.3" cy="47.8" r="0.9"/>
	<circle style="fill:#FFFFFF;" cx="94.9" cy="53.8" r="0.9"/>
	<circle style="fill:#FFFFFF;" cx="90.4" cy="63.1" r="0.9"/>
	<circle style="fill:#FFFFFF;" cx="88.4" cy="51" r="0.9"/>
	<circle style="fill:#FFFFFF;" cx="80.8" cy="51.7" r="0.9"/>
	<circle style="fill:#FFFFFF;" cx="87" cy="45.9" r="0.9"/>
	<circle style="fill:#FFFFFF;" cx="80.5" cy="43.1" r="0.9"/>
	<circle style="fill:#FFFFFF;" cx="98.9" cy="62.4" r="0.9"/>
	<circle style="fill:#FFFFFF;" cx="99" cy="67.5" r="0.9"/>
	<circle style="fill:#FFFFFF;" cx="82.6" cy="57" r="0.9"/>
	<path style="fill:#F44081;" d="M74.9,54.4H58.7c-2.3,0-4.2-1.9-4.2-4.2v-3c0-2.3,1.9-4.2,4.2-4.2h16.2c2.3,0,4.2,1.9,4.2,4.2v3
		C79.1,52.5,77.2,54.4,74.9,54.4z"/>
</g>
</svg>
