<?xml version="1.0" encoding="utf-8"?>
<!-- Generator: Adobe Illustrator 22.1.0, SVG Export Plug-In . SVG Version: 6.00 Build 0)  -->
<svg version="1.1" id="Layer_1" xmlns="http://www.w3.org/2000/svg" xmlns:xlink="http://www.w3.org/1999/xlink" x="0px" y="0px"
	 viewBox="0 0 136 98" style="enable-background:new 0 0 136 98;" xml:space="preserve">
<g>
	<path style="fill:#BC0C36;" d="M62.9,41.3c0,0-15.3-22.9-30.5-22.9s2.5,11,2.5,13.6s-12.7,5.9-8.5,17s11,6.8,11,10.2
		c0,3.4-7.6,9.3-5.1,13.6c2.3,3.9,30.5-9.1,30.5-23.7C62.9,41.3,62.9,41.3,62.9,41.3z"/>
	<path style="fill:#BC0C36;" d="M72.2,41.3c0,0,15.3-22.9,30.5-22.9s-2.5,11-2.5,13.6s12.7,5.9,8.5,17c-4.2,11-11,6.8-11,10.2
		c0,3.4,7.6,9.3,5.1,13.6c-2.3,3.9-30.5-9.1-30.5-23.7C72.2,41.3,72.2,41.3,72.2,41.3z"/>
	<path style="fill:#ED2047;" d="M70.6,52.7h-7.9c-3.2,0-5.8-2.6-5.8-5.8v-2.8c0-3.2,2.6-5.8,5.8-5.8h7.9c3.2,0,5.8,2.6,5.8,5.8v2.8
		C76.4,50.1,73.8,52.7,70.6,52.7z"/>
</g>
</svg>
