<?xml version="1.0" encoding="utf-8"?>
<!-- Generator: Adobe Illustrator 22.1.0, SVG Export Plug-In . SVG Version: 6.00 Build 0)  -->
<svg version="1.1" id="Layer_1" xmlns="http://www.w3.org/2000/svg" xmlns:xlink="http://www.w3.org/1999/xlink" x="0px" y="0px"
	 viewBox="0 0 221 123" style="enable-background:new 0 0 221 123;" xml:space="preserve">
<g>
	<path d="M111.2,43c0,0-74.6-8.1-90.8,22.2s14.1,4,14.1,4s-2,20.2,14.1,0c0,0,4,18.2,20.2-4c0,0,2,22.2,16.1,2c0,0,4,12.1,16.1,0
		C101.1,67.2,129.3,51,111.2,43z"/>
	<path d="M110.5,43c0,0,74.6-8.1,90.8,22.2s-14.1,4-14.1,4s2,20.2-14.1,0c0,0-4,18.2-20.2-4c0,0-2,22.2-16.1,2c0,0-4,12.1-16.1,0
		C120.6,67.2,92.3,51,110.5,43z"/>
</g>
</svg>
