<?xml version="1.0" encoding="utf-8"?>
<!-- Generator: Adobe Illustrator 22.1.0, SVG Export Plug-In . SVG Version: 6.00 Build 0)  -->
<svg version="1.1" id="Layer_1" xmlns="http://www.w3.org/2000/svg" xmlns:xlink="http://www.w3.org/1999/xlink" x="0px" y="0px"
	 viewBox="0 0 221 123" style="enable-background:new 0 0 221 123;" xml:space="preserve">
<g>
	<path d="M120.4,73.5c0,0-17.5-13.4-5.4-28.2s29.5-9.4,38.9,0c8.1,8.1,25.5,20.1,47,9.4C201,54.7,167.4,100.4,120.4,73.5z"/>
	<g>
		<g>
			<path style="fill:#303030;" d="M137.9,46c-0.1,0-0.1,0-0.2,0l-5.4-1.3c-0.4-0.1-0.6-0.5-0.5-0.8c0.1-0.4,0.5-0.6,0.8-0.5l5.4,1.3
				c0.4,0.1,0.6,0.5,0.5,0.8C138.5,45.8,138.2,46,137.9,46z"/>
		</g>
		<g>
			<path style="fill:#303030;" d="M127.1,51.4c-0.2,0-0.4-0.1-0.6-0.3l-2.7-4c-0.2-0.3-0.1-0.7,0.2-0.9c0.3-0.2,0.7-0.1,0.9,0.2
				l2.7,4c0.2,0.3,0.1,0.7-0.2,0.9C127.4,51.3,127.3,51.4,127.1,51.4z"/>
		</g>
		<g>
			<path style="fill:#303030;" d="M120.4,54.1c-0.2,0-0.3-0.1-0.5-0.2l-1.3-1.3c-0.3-0.3-0.3-0.7,0-0.9c0.3-0.3,0.7-0.3,0.9,0
				l1.3,1.3c0.3,0.3,0.3,0.7,0,0.9C120.8,54,120.6,54.1,120.4,54.1z"/>
		</g>
		<g>
			<path style="fill:#303030;" d="M119.1,47.4c-0.2,0-0.3-0.1-0.5-0.2l-1.3-1.3c-0.3-0.3-0.3-0.7,0-0.9c0.3-0.3,0.7-0.3,0.9,0
				l1.3,1.3c0.3,0.3,0.3,0.7,0,0.9C119.4,47.3,119.3,47.4,119.1,47.4z"/>
		</g>
		<g>
			<path style="fill:#303030;" d="M141.9,52.7c-0.1,0-0.1,0-0.2,0l-4-1.3c-0.4-0.1-0.5-0.5-0.4-0.8c0.1-0.4,0.5-0.5,0.8-0.4l4,1.3
				c0.4,0.1,0.5,0.5,0.4,0.8C142.5,52.5,142.2,52.7,141.9,52.7z"/>
		</g>
		<g>
			<path style="fill:#303030;" d="M144.6,42c-0.1,0-0.2,0-0.3-0.1l-2.7-1.3c-0.3-0.2-0.5-0.6-0.3-0.9c0.2-0.3,0.6-0.5,0.9-0.3
				l2.7,1.3c0.3,0.2,0.5,0.6,0.3,0.9C145.1,41.8,144.8,42,144.6,42z"/>
		</g>
		<g>
			<path style="fill:#303030;" d="M151.3,51.4c-0.2,0-0.3-0.1-0.5-0.2l-2.7-2.7c-0.3-0.3-0.3-0.7,0-0.9c0.3-0.3,0.7-0.3,0.9,0
				l2.7,2.7c0.3,0.3,0.3,0.7,0,0.9C151.7,51.3,151.5,51.4,151.3,51.4z"/>
		</g>
		<g>
			<path style="fill:#303030;" d="M129.8,58.1c-0.1,0-0.1,0-0.2,0l-4-1.3c-0.4-0.1-0.5-0.5-0.4-0.8c0.1-0.4,0.5-0.5,0.8-0.4l4,1.3
				c0.4,0.1,0.5,0.5,0.4,0.8C130.4,57.9,130.1,58.1,129.8,58.1z"/>
		</g>
		<g>
			<path style="fill:#303030;" d="M115.1,60.8c-0.3,0-0.5-0.2-0.6-0.5l-1.3-4c-0.1-0.4,0.1-0.7,0.4-0.8c0.4-0.1,0.7,0.1,0.8,0.4
				l1.3,4c0.1,0.4-0.1,0.7-0.4,0.8C115.2,60.8,115.1,60.8,115.1,60.8z"/>
		</g>
		<g>
			<path style="fill:#303030;" d="M121.8,63.5c-0.2,0-0.5-0.1-0.6-0.4l-1.3-2.7c-0.2-0.3,0-0.7,0.3-0.9c0.3-0.2,0.7,0,0.9,0.3
				l1.3,2.7c0.2,0.3,0,0.7-0.3,0.9C122,63.4,121.9,63.5,121.8,63.5z"/>
		</g>
		<g>
			<path style="fill:#303030;" d="M120.4,70.2c-0.2,0-0.4-0.1-0.6-0.3l-2.7-4c-0.2-0.3-0.1-0.7,0.2-0.9c0.3-0.2,0.7-0.1,0.9,0.2
				l2.7,4c0.2,0.3,0.1,0.7-0.2,0.9C120.7,70.1,120.6,70.2,120.4,70.2z"/>
		</g>
		<g>
			<path style="fill:#303030;" d="M129.8,70.2c-0.1,0-0.1,0-0.2,0l-4-1.3c-0.4-0.1-0.5-0.5-0.4-0.8c0.1-0.4,0.5-0.5,0.8-0.4l4,1.3
				c0.4,0.1,0.5,0.5,0.4,0.8C130.4,70,130.1,70.2,129.8,70.2z"/>
		</g>
		<g>
			<path style="fill:#303030;" d="M135.2,76.9c-0.1,0-0.1,0-0.2,0l-5.4-1.3c-0.4-0.1-0.6-0.5-0.5-0.8c0.1-0.4,0.5-0.6,0.8-0.5
				l5.4,1.3c0.4,0.1,0.6,0.5,0.5,0.8C135.8,76.7,135.5,76.9,135.2,76.9z"/>
		</g>
		<g>
			<path style="fill:#303030;" d="M135.2,64.8c-0.1,0-0.1,0-0.2,0l-4-1.3c-0.4-0.1-0.5-0.5-0.4-0.8c0.1-0.4,0.5-0.5,0.8-0.4l4,1.3
				c0.4,0.1,0.5,0.5,0.4,0.8C135.7,64.6,135.5,64.8,135.2,64.8z"/>
		</g>
		<g>
			<path style="fill:#303030;" d="M143.3,68.8h-5.4c-0.4,0-0.7-0.3-0.7-0.7s0.3-0.7,0.7-0.7h5.4c0.4,0,0.7,0.3,0.7,0.7
				S143.6,68.8,143.3,68.8z"/>
		</g>
		<g>
			<path style="fill:#303030;" d="M151.3,72.9h-5.4c-0.4,0-0.7-0.3-0.7-0.7s0.3-0.7,0.7-0.7h5.4c0.4,0,0.7,0.3,0.7,0.7
				S151.7,72.9,151.3,72.9z"/>
		</g>
		<g>
			<path style="fill:#303030;" d="M155.3,78.2H150c-0.4,0-0.7-0.3-0.7-0.7s0.3-0.7,0.7-0.7h5.4c0.4,0,0.7,0.3,0.7,0.7
				S155.7,78.2,155.3,78.2z"/>
		</g>
		<g>
			<path style="fill:#303030;" d="M158,72.9c-0.3,0-0.6-0.2-0.7-0.5c-0.1-0.4,0.1-0.7,0.5-0.8l5.4-1.3c0.4-0.1,0.7,0.1,0.8,0.5
				c0.1,0.4-0.1,0.7-0.5,0.8l-5.4,1.3C158.1,72.9,158.1,72.9,158,72.9z"/>
		</g>
		<g>
			<path style="fill:#303030;" d="M148.6,63.5c-0.1,0-0.1,0-0.2,0l-4-1.3c-0.4-0.1-0.5-0.5-0.4-0.8c0.1-0.4,0.5-0.5,0.8-0.4l4,1.3
				c0.4,0.1,0.5,0.5,0.4,0.8C149.2,63.3,148.9,63.5,148.6,63.5z"/>
		</g>
		<g>
			<path style="fill:#303030;" d="M140.6,59.4c-0.2,0-0.3-0.1-0.5-0.2l-2.7-2.7c-0.3-0.3-0.3-0.7,0-0.9s0.7-0.3,0.9,0l2.7,2.7
				c0.3,0.3,0.3,0.7,0,0.9C140.9,59.4,140.7,59.4,140.6,59.4z"/>
		</g>
		<g>
			<path style="fill:#303030;" d="M154,58.1c-0.1,0-0.1,0-0.2,0l-5.4-1.3c-0.4-0.1-0.6-0.5-0.5-0.8c0.1-0.4,0.5-0.6,0.8-0.5l5.4,1.3
				c0.4,0.1,0.6,0.5,0.5,0.8C154.6,57.9,154.3,58.1,154,58.1z"/>
		</g>
		<g>
			<path style="fill:#303030;" d="M159.4,63.5H154c-0.4,0-0.7-0.3-0.7-0.7s0.3-0.7,0.7-0.7h5.4c0.4,0,0.7,0.3,0.7,0.7
				S159.7,63.5,159.4,63.5z"/>
		</g>
		<g>
			<path style="fill:#303030;" d="M160.7,66.2c-0.3,0-0.6-0.2-0.7-0.5c-0.1-0.4,0.1-0.7,0.5-0.8l5.4-1.3c0.4-0.1,0.7,0.1,0.8,0.5
				c0.1,0.4-0.1,0.7-0.5,0.8l-5.4,1.3C160.8,66.1,160.8,66.2,160.7,66.2z"/>
		</g>
		<g>
			<path style="fill:#303030;" d="M172.8,71.5c-0.2,0-0.5-0.1-0.6-0.4c-0.2-0.3,0-0.7,0.3-0.9l5.4-2.7c0.3-0.2,0.7,0,0.9,0.3
				c0.2,0.3,0,0.7-0.3,0.9l-5.4,2.7C173,71.5,172.9,71.5,172.8,71.5z"/>
		</g>
		<g>
			<path style="fill:#303030;" d="M164.7,76.9c-0.3,0-0.5-0.2-0.6-0.5c-0.1-0.4,0.1-0.7,0.4-0.8l4-1.3c0.4-0.1,0.7,0.1,0.8,0.4
				c0.1,0.4-0.1,0.7-0.4,0.8l-4,1.3C164.9,76.9,164.8,76.9,164.7,76.9z"/>
		</g>
		<g>
			<path style="fill:#303030;" d="M164.7,59.4c-0.1,0-0.3,0-0.4-0.1l-4-2.7c-0.3-0.2-0.4-0.6-0.2-0.9c0.2-0.3,0.6-0.4,0.9-0.2l4,2.7
				c0.3,0.2,0.4,0.6,0.2,0.9C165.2,59.3,165,59.4,164.7,59.4z"/>
		</g>
		<g>
			<path style="fill:#303030;" d="M170.1,67.5c-0.2,0-0.5-0.1-0.6-0.4c-0.2-0.3,0-0.7,0.3-0.9l5.4-2.7c0.3-0.2,0.7,0,0.9,0.3
				c0.2,0.3,0,0.7-0.3,0.9l-5.4,2.7C170.3,67.5,170.2,67.5,170.1,67.5z"/>
		</g>
		<g>
			<path style="fill:#303030;" d="M176.8,62.1c-0.1,0-0.1,0-0.2,0l-4-1.3c-0.4-0.1-0.5-0.5-0.4-0.8c0.1-0.4,0.5-0.5,0.8-0.4l4,1.3
				c0.4,0.1,0.5,0.5,0.4,0.8C177.4,61.9,177.1,62.1,176.8,62.1z"/>
		</g>
		<g>
			<path style="fill:#303030;" d="M183.5,64.8c-0.3,0-0.5-0.2-0.6-0.5c-0.1-0.4,0.1-0.7,0.4-0.8l4-1.3c0.4-0.1,0.7,0.1,0.8,0.4
				c0.1,0.4-0.1,0.7-0.4,0.8l-4,1.3C183.7,64.8,183.6,64.8,183.5,64.8z"/>
		</g>
		<g>
			<path style="fill:#303030;" d="M153.3,68.2h-4c-0.4,0-0.7-0.3-0.7-0.7s0.3-0.7,0.7-0.7h4c0.4,0,0.7,0.3,0.7,0.7
				S153.7,68.2,153.3,68.2z"/>
		</g>
		<g>
			<path style="fill:#303030;" d="M133.2,53.4c-0.2,0-0.5-0.1-0.6-0.4l-1.3-2.7c-0.2-0.3,0-0.7,0.3-0.9c0.3-0.2,0.7,0,0.9,0.3
				l1.3,2.7c0.2,0.3,0,0.7-0.3,0.9C133.4,53.4,133.3,53.4,133.2,53.4z"/>
		</g>
		<g>
			<path style="fill:#303030;" d="M131.8,41.3c-0.1,0-0.1,0-0.2,0l-4-1.3c-0.4-0.1-0.5-0.5-0.4-0.8c0.1-0.4,0.5-0.5,0.8-0.4l4,1.3
				c0.4,0.1,0.5,0.5,0.4,0.8C132.4,41.1,132.1,41.3,131.8,41.3z"/>
		</g>
		<g>
			<path style="fill:#303030;" d="M146.6,50.7c-0.2,0-0.5-0.1-0.6-0.4l-1.3-2.7c-0.2-0.3,0-0.7,0.3-0.9c0.3-0.2,0.7,0,0.9,0.3
				l1.3,2.7c0.2,0.3,0,0.7-0.3,0.9C146.8,50.7,146.7,50.7,146.6,50.7z"/>
		</g>
		<g>
			<path style="fill:#303030;" d="M160,53.4c-0.1,0-0.3,0-0.4-0.1l-4-2.7c-0.3-0.2-0.4-0.6-0.2-0.9c0.2-0.3,0.6-0.4,0.9-0.2l4,2.7
				c0.3,0.2,0.4,0.6,0.2,0.9C160.5,53.3,160.3,53.4,160,53.4z"/>
		</g>
	</g>
	<path d="M101.4,74.9c0,0,17.5-13.4,5.4-28.2s-29.5-9.4-38.9,0c-8.1,8.1-25.5,20.1-47,9.4C20.8,56.1,54.4,101.7,101.4,74.9z"/>
	<g>
		<g>
			<path style="fill:#303030;" d="M83.9,47.4c0.1,0,0.1,0,0.2,0l5.4-1.3c0.4-0.1,0.6-0.5,0.5-0.8c-0.1-0.4-0.5-0.6-0.8-0.5L83.8,46
				c-0.4,0.1-0.6,0.5-0.5,0.8C83.4,47.2,83.6,47.4,83.9,47.4z"/>
		</g>
		<g>
			<path style="fill:#303030;" d="M94.7,52.7c0.2,0,0.4-0.1,0.6-0.3l2.7-4c0.2-0.3,0.1-0.7-0.2-0.9c-0.3-0.2-0.7-0.1-0.9,0.2l-2.7,4
				c-0.2,0.3-0.1,0.7,0.2,0.9C94.4,52.7,94.6,52.7,94.7,52.7z"/>
		</g>
		<g>
			<path style="fill:#303030;" d="M101.4,55.4c0.2,0,0.3-0.1,0.5-0.2l1.3-1.3c0.3-0.3,0.3-0.7,0-0.9c-0.3-0.3-0.7-0.3-0.9,0
				l-1.3,1.3c-0.3,0.3-0.3,0.7,0,0.9C101.1,55.3,101.2,55.4,101.4,55.4z"/>
		</g>
		<g>
			<path style="fill:#303030;" d="M102.7,48.7c0.2,0,0.3-0.1,0.5-0.2l1.3-1.3c0.3-0.3,0.3-0.7,0-0.9c-0.3-0.3-0.7-0.3-0.9,0
				l-1.3,1.3c-0.3,0.3-0.3,0.7,0,0.9C102.4,48.6,102.6,48.7,102.7,48.7z"/>
		</g>
		<g>
			<path style="fill:#303030;" d="M79.9,54.1c0.1,0,0.1,0,0.2,0l4-1.3c0.4-0.1,0.5-0.5,0.4-0.8c-0.1-0.4-0.5-0.5-0.8-0.4l-4,1.3
				c-0.4,0.1-0.5,0.5-0.4,0.8C79.4,53.9,79.6,54.1,79.9,54.1z"/>
		</g>
		<g>
			<path style="fill:#303030;" d="M77.2,43.3c0.1,0,0.2,0,0.3-0.1l2.7-1.3c0.3-0.2,0.5-0.6,0.3-0.9c-0.2-0.3-0.6-0.5-0.9-0.3
				l-2.7,1.3c-0.3,0.2-0.5,0.6-0.3,0.9C76.7,43.2,77,43.3,77.2,43.3z"/>
		</g>
		<g>
			<path style="fill:#303030;" d="M70.5,52.7c0.2,0,0.3-0.1,0.5-0.2l2.7-2.7c0.3-0.3,0.3-0.7,0-0.9c-0.3-0.3-0.7-0.3-0.9,0L70,51.6
				c-0.3,0.3-0.3,0.7,0,0.9C70.2,52.7,70.3,52.7,70.5,52.7z"/>
		</g>
		<g>
			<path style="fill:#303030;" d="M92,59.4c0.1,0,0.1,0,0.2,0l4-1.3c0.4-0.1,0.5-0.5,0.4-0.8c-0.1-0.4-0.5-0.5-0.8-0.4l-4,1.3
				c-0.4,0.1-0.5,0.5-0.4,0.8C91.5,59.3,91.7,59.4,92,59.4z"/>
		</g>
		<g>
			<path style="fill:#303030;" d="M106.8,62.1c0.3,0,0.5-0.2,0.6-0.5l1.3-4c0.1-0.4-0.1-0.7-0.4-0.8c-0.4-0.1-0.7,0.1-0.8,0.4
				l-1.3,4c-0.1,0.4,0.1,0.7,0.4,0.8C106.6,62.1,106.7,62.1,106.8,62.1z"/>
		</g>
		<g>
			<path style="fill:#303030;" d="M100.1,64.8c0.2,0,0.5-0.1,0.6-0.4l1.3-2.7c0.2-0.3,0-0.7-0.3-0.9c-0.3-0.2-0.7,0-0.9,0.3
				l-1.3,2.7c-0.2,0.3,0,0.7,0.3,0.9C99.8,64.8,100,64.8,100.1,64.8z"/>
		</g>
		<g>
			<path style="fill:#303030;" d="M101.4,71.5c0.2,0,0.4-0.1,0.6-0.3l2.7-4c0.2-0.3,0.1-0.7-0.2-0.9c-0.3-0.2-0.7-0.1-0.9,0.2
				l-2.7,4c-0.2,0.3-0.1,0.7,0.2,0.9C101.1,71.5,101.3,71.5,101.4,71.5z"/>
		</g>
		<g>
			<path style="fill:#303030;" d="M92,71.5c0.1,0,0.1,0,0.2,0l4-1.3c0.4-0.1,0.5-0.5,0.4-0.8c-0.1-0.4-0.5-0.5-0.8-0.4l-4,1.3
				c-0.4,0.1-0.5,0.5-0.4,0.8C91.5,71.3,91.7,71.5,92,71.5z"/>
		</g>
		<g>
			<path style="fill:#303030;" d="M86.6,78.2c0.1,0,0.1,0,0.2,0l5.4-1.3c0.4-0.1,0.6-0.5,0.5-0.8c-0.1-0.4-0.5-0.6-0.8-0.5l-5.4,1.3
				c-0.4,0.1-0.6,0.5-0.5,0.8C86.1,78,86.3,78.2,86.6,78.2z"/>
		</g>
		<g>
			<path style="fill:#303030;" d="M86.6,66.2c0.1,0,0.1,0,0.2,0l4-1.3c0.4-0.1,0.5-0.5,0.4-0.8c-0.1-0.4-0.5-0.5-0.8-0.4l-4,1.3
				c-0.4,0.1-0.5,0.5-0.4,0.8C86.1,66,86.3,66.2,86.6,66.2z"/>
		</g>
		<g>
			<path style="fill:#303030;" d="M78.6,70.2h5.4c0.4,0,0.7-0.3,0.7-0.7s-0.3-0.7-0.7-0.7h-5.4c-0.4,0-0.7,0.3-0.7,0.7
				S78.2,70.2,78.6,70.2z"/>
		</g>
		<g>
			<path style="fill:#303030;" d="M70.5,74.2h5.4c0.4,0,0.7-0.3,0.7-0.7s-0.3-0.7-0.7-0.7h-5.4c-0.4,0-0.7,0.3-0.7,0.7
				S70.1,74.2,70.5,74.2z"/>
		</g>
		<g>
			<path style="fill:#303030;" d="M66.5,79.6h5.4c0.4,0,0.7-0.3,0.7-0.7s-0.3-0.7-0.7-0.7h-5.4c-0.4,0-0.7,0.3-0.7,0.7
				S66.1,79.6,66.5,79.6z"/>
		</g>
		<g>
			<path style="fill:#303030;" d="M63.8,74.2c0.3,0,0.6-0.2,0.7-0.5c0.1-0.4-0.1-0.7-0.5-0.8l-5.4-1.3c-0.4-0.1-0.7,0.1-0.8,0.5
				c-0.1,0.4,0.1,0.7,0.5,0.8l5.4,1.3C63.7,74.2,63.7,74.2,63.8,74.2z"/>
		</g>
		<g>
			<path style="fill:#303030;" d="M73.2,64.8c0.1,0,0.1,0,0.2,0l4-1.3c0.4-0.1,0.5-0.5,0.4-0.8c-0.1-0.4-0.5-0.5-0.8-0.4l-4,1.3
				c-0.4,0.1-0.5,0.5-0.4,0.8C72.7,64.6,72.9,64.8,73.2,64.8z"/>
		</g>
		<g>
			<path style="fill:#303030;" d="M81.3,60.8c0.2,0,0.3-0.1,0.5-0.2l2.7-2.7c0.3-0.3,0.3-0.7,0-0.9c-0.3-0.3-0.7-0.3-0.9,0l-2.7,2.7
				c-0.3,0.3-0.3,0.7,0,0.9C80.9,60.7,81.1,60.8,81.3,60.8z"/>
		</g>
		<g>
			<path style="fill:#303030;" d="M67.8,59.4c0.1,0,0.1,0,0.2,0l5.4-1.3c0.4-0.1,0.6-0.5,0.5-0.8c-0.1-0.4-0.5-0.6-0.8-0.5l-5.4,1.3
				c-0.4,0.1-0.6,0.5-0.5,0.8C67.3,59.2,67.5,59.4,67.8,59.4z"/>
		</g>
		<g>
			<path style="fill:#303030;" d="M62.5,64.8h5.4c0.4,0,0.7-0.3,0.7-0.7c0-0.4-0.3-0.7-0.7-0.7h-5.4c-0.4,0-0.7,0.3-0.7,0.7
				C61.8,64.5,62.1,64.8,62.5,64.8z"/>
		</g>
		<g>
			<path style="fill:#303030;" d="M61.1,67.5c0.3,0,0.6-0.2,0.7-0.5c0.1-0.4-0.1-0.7-0.5-0.8l-5.4-1.3c-0.4-0.1-0.7,0.1-0.8,0.5
				c-0.1,0.4,0.1,0.7,0.5,0.8l5.4,1.3C61,67.5,61.1,67.5,61.1,67.5z"/>
		</g>
		<g>
			<path style="fill:#303030;" d="M49,72.9c0.2,0,0.5-0.1,0.6-0.4c0.2-0.3,0-0.7-0.3-0.9L44,68.9c-0.3-0.2-0.7,0-0.9,0.3
				c-0.2,0.3,0,0.7,0.3,0.9l5.4,2.7C48.8,72.8,48.9,72.9,49,72.9z"/>
		</g>
		<g>
			<path style="fill:#303030;" d="M57.1,78.2c0.3,0,0.5-0.2,0.6-0.5c0.1-0.4-0.1-0.7-0.4-0.8l-4-1.3c-0.4-0.1-0.7,0.1-0.8,0.4
				c-0.1,0.4,0.1,0.7,0.4,0.8l4,1.3C56.9,78.2,57,78.2,57.1,78.2z"/>
		</g>
		<g>
			<path style="fill:#303030;" d="M57.1,60.8c0.1,0,0.3,0,0.4-0.1l4-2.7c0.3-0.2,0.4-0.6,0.2-0.9c-0.2-0.3-0.6-0.4-0.9-0.2l-4,2.7
				c-0.3,0.2-0.4,0.6-0.2,0.9C56.7,60.7,56.9,60.8,57.1,60.8z"/>
		</g>
		<g>
			<path style="fill:#303030;" d="M51.7,68.8c0.2,0,0.5-0.1,0.6-0.4c0.2-0.3,0-0.7-0.3-0.9l-5.4-2.7c-0.3-0.2-0.7,0-0.9,0.3
				c-0.2,0.3,0,0.7,0.3,0.9l5.4,2.7C51.5,68.8,51.6,68.8,51.7,68.8z"/>
		</g>
		<g>
			<path style="fill:#303030;" d="M45,63.5c0.1,0,0.1,0,0.2,0l4-1.3c0.4-0.1,0.5-0.5,0.4-0.8c-0.1-0.4-0.5-0.5-0.8-0.4l-4,1.3
				c-0.4,0.1-0.5,0.5-0.4,0.8C44.5,63.3,44.7,63.5,45,63.5z"/>
		</g>
		<g>
			<path style="fill:#303030;" d="M38.3,66.2c0.3,0,0.5-0.2,0.6-0.5c0.1-0.4-0.1-0.7-0.4-0.8l-4-1.3c-0.4-0.1-0.7,0.1-0.8,0.4
				c-0.1,0.4,0.1,0.7,0.4,0.8l4,1.3C38.1,66.1,38.2,66.2,38.3,66.2z"/>
		</g>
		<g>
			<path style="fill:#303030;" d="M68.5,69.5h4c0.4,0,0.7-0.3,0.7-0.7s-0.3-0.7-0.7-0.7h-4c-0.4,0-0.7,0.3-0.7,0.7
				S68.1,69.5,68.5,69.5z"/>
		</g>
		<g>
			<path style="fill:#303030;" d="M88.6,54.7c0.2,0,0.5-0.1,0.6-0.4l1.3-2.7c0.2-0.3,0-0.7-0.3-0.9c-0.3-0.2-0.7,0-0.9,0.3L88,53.8
				c-0.2,0.3,0,0.7,0.3,0.9C88.4,54.7,88.5,54.7,88.6,54.7z"/>
		</g>
		<g>
			<path style="fill:#303030;" d="M90,42.7c0.1,0,0.1,0,0.2,0l4-1.3c0.4-0.1,0.5-0.5,0.4-0.8c-0.1-0.4-0.5-0.5-0.8-0.4l-4,1.3
				c-0.4,0.1-0.5,0.5-0.4,0.8C89.4,42.5,89.7,42.7,90,42.7z"/>
		</g>
		<g>
			<path style="fill:#303030;" d="M75.2,52.1c0.2,0,0.5-0.1,0.6-0.4l1.3-2.7c0.2-0.3,0-0.7-0.3-0.9c-0.3-0.2-0.7,0-0.9,0.3l-1.3,2.7
				c-0.2,0.3,0,0.7,0.3,0.9C75,52,75.1,52.1,75.2,52.1z"/>
		</g>
		<g>
			<path style="fill:#303030;" d="M61.8,54.7c0.1,0,0.3,0,0.4-0.1l4-2.7c0.3-0.2,0.4-0.6,0.2-0.9c-0.2-0.3-0.6-0.4-0.9-0.2l-4,2.7
				c-0.3,0.2-0.4,0.6-0.2,0.9C61.4,54.6,61.6,54.7,61.8,54.7z"/>
		</g>
	</g>
</g>
</svg>
