<?xml version="1.0" encoding="utf-8"?>
<!-- Generator: Adobe Illustrator 22.1.0, SVG Export Plug-In . SVG Version: 6.00 Build 0)  -->
<svg version="1.1" id="Layer_1" xmlns="http://www.w3.org/2000/svg" xmlns:xlink="http://www.w3.org/1999/xlink" x="0px" y="0px"
	 viewBox="0 0 221 123" style="enable-background:new 0 0 221 123;" xml:space="preserve">
<g>
	<path d="M108.1,55.1c0,0-11.5-19.1-32.5-19.1S50.7,57,37.3,66.6S6.7,80,6.7,80s21,5.7,40.2,0c0,0-1.9,15.3,21-1.9
		c0,0,0,13.4,23-1.9c0,0,3.8,5.7,17.2-1.9S108.1,55.1,108.1,55.1z"/>
	<path d="M116,55.1c0,0,11.5-19.1,32.5-19.1s24.9,21,38.3,30.6c13.4,9.6,30.6,13.4,30.6,13.4s-21,5.7-40.2,0c0,0,1.9,15.3-21-1.9
		c0,0,0,13.4-23-1.9c0,0-3.8,5.7-17.2-1.9S116,55.1,116,55.1z"/>
</g>
</svg>
