<?xml version="1.0" encoding="utf-8"?>
<!-- Generator: Adobe Illustrator 22.1.0, SVG Export Plug-In . SVG Version: 6.00 Build 0)  -->
<svg version="1.1" id="Layer_1" xmlns="http://www.w3.org/2000/svg" xmlns:xlink="http://www.w3.org/1999/xlink" x="0px" y="0px"
	 viewBox="0 0 221 123" style="enable-background:new 0 0 221 123;" xml:space="preserve">
<g>
	<path d="M124.6,51.4l1.1,0.7l1.2,0.8c0.8,0.5,1.7,1,2.5,1.5c1.7,1,3.5,2,5.2,2.9c1.7,0.9,3.5,1.8,5.3,2.6c1.8,0.8,3.5,1.6,5.3,2.2
		c1.8,0.6,3.5,1.2,5.3,1.6c1.7,0.4,3.4,0.7,5.1,0.9c3.7,0.3,7.6,0.1,11.3-0.4c1.8-0.3,3.6-0.7,5.1-1.3c1.6-0.6,3-1.3,3.9-2
		c1-0.8,1.6-1.5,1.9-2.5c0.3-1,0.2-2.5-0.3-4.2c-0.1-0.4-0.3-0.8-0.5-1.2l-0.1-0.3c0-0.1-0.1-0.1-0.1-0.2c-0.1-0.1-0.1-0.3-0.2-0.4
		c-0.3-0.5-0.6-1-1.1-1.4c-1-0.8-2.7-1.2-4.4-1.1c-1.7,0.1-3.5,0.8-4.7,2c-0.6,0.6-1,1.4-1.1,2.3c-0.1,0.9,0.1,1.9,0.6,2.9
		c0.1,0.2,0,0.3-0.1,0.4c-0.1,0.1-0.3,0-0.4-0.1c-0.8-0.8-1.5-1.8-1.9-3.1c-0.3-1.3-0.1-2.7,0.5-3.9c0.6-1.2,1.5-2.3,2.5-3.1
		c1-0.8,2.2-1.5,3.4-2c1.2-0.5,2.6-0.8,4-0.9c1.4-0.1,2.9,0.1,4.4,0.6c1.5,0.5,2.9,1.4,4,2.6c0.3,0.3,0.6,0.6,0.8,0.9l0.4,0.5
		l0.3,0.4c0.4,0.5,0.7,1.1,1.1,1.6c0.7,1.1,1.3,2.4,1.8,3.8c0.5,1.4,0.8,3,0.7,4.6c0,1.6-0.3,3.4-0.9,4.9c-0.6,1.6-1.5,3-2.4,4.2
		c-2,2.5-4.3,4.2-6.6,5.6c-2.3,1.4-4.7,2.4-7.1,3.2c-4.8,1.7-9.6,2.6-14.5,3c-2.7,0.2-5.4,0.1-7.9-0.2c-2.6-0.3-5-0.7-7.4-1.3
		c-2.4-0.6-4.7-1.3-7-2.1c-2.3-0.8-4.5-1.7-6.6-2.7c-2.2-1-4.3-2-6.3-3.2c-1-0.6-2.1-1.2-3.1-1.8c-0.5-0.3-1-0.6-1.5-1l-0.8-0.5
		l-0.9-0.6c-4.2-2.9-5.3-8.6-2.4-12.8c2.8-4.1,8.3-5.3,12.5-2.6L124.6,51.4z"/>
	<path d="M95.5,51.4l-1.1,0.7l-1.2,0.8c-0.8,0.5-1.7,1-2.5,1.5c-1.7,1-3.5,2-5.2,2.9c-1.7,0.9-3.5,1.8-5.3,2.6
		c-1.8,0.8-3.5,1.6-5.3,2.2c-1.8,0.6-3.5,1.2-5.3,1.6c-1.7,0.4-3.4,0.7-5.1,0.9c-3.7,0.3-7.6,0.1-11.3-0.4c-1.8-0.3-3.6-0.7-5.1-1.3
		c-1.6-0.6-3-1.3-3.9-2c-1-0.8-1.6-1.5-1.9-2.5c-0.3-1-0.2-2.5,0.3-4.2c0.1-0.4,0.3-0.8,0.5-1.2l0.1-0.3c0-0.1,0.1-0.1,0.1-0.2
		c0.1-0.1,0.1-0.3,0.2-0.4c0.3-0.5,0.6-1,1.1-1.4c1-0.8,2.7-1.2,4.4-1.1c1.7,0.1,3.5,0.8,4.7,2c0.6,0.6,1,1.4,1.1,2.3
		c0.1,0.9-0.1,1.9-0.6,2.9c-0.1,0.2,0,0.3,0.1,0.4c0.1,0.1,0.3,0,0.4-0.1c0.8-0.8,1.5-1.8,1.9-3.1c0.3-1.3,0.1-2.7-0.5-3.9
		c-0.6-1.2-1.5-2.3-2.5-3.1c-1-0.8-2.2-1.5-3.4-2c-1.2-0.5-2.6-0.8-4-0.9c-1.4-0.1-2.9,0.1-4.4,0.6c-1.5,0.5-2.9,1.4-4,2.6
		c-0.3,0.3-0.6,0.6-0.8,0.9l-0.4,0.5l-0.3,0.4c-0.4,0.5-0.7,1.1-1.1,1.6c-0.7,1.1-1.3,2.4-1.8,3.8c-0.5,1.4-0.8,3-0.7,4.6
		c0,1.6,0.3,3.4,0.9,4.9c0.6,1.6,1.5,3,2.4,4.2c2,2.5,4.3,4.2,6.6,5.6c2.3,1.4,4.7,2.4,7.1,3.2c4.8,1.7,9.6,2.6,14.5,3
		c2.7,0.2,5.4,0.1,7.9-0.2c2.6-0.3,5-0.7,7.4-1.3c2.4-0.6,4.7-1.3,7-2.1c2.3-0.8,4.5-1.7,6.6-2.7c2.2-1,4.3-2,6.3-3.2
		c1-0.6,2.1-1.2,3.1-1.8c0.5-0.3,1-0.6,1.5-1l0.8-0.5l0.9-0.6c4.2-2.9,5.3-8.6,2.4-12.8c-2.8-4.1-8.3-5.3-12.5-2.6L95.5,51.4z"/>
</g>
</svg>
