<?xml version="1.0" encoding="utf-8"?>
<!-- Generator: Adobe Illustrator 22.1.0, SVG Export Plug-In . SVG Version: 6.00 Build 0)  -->
<svg version="1.1" id="Layer_1" xmlns="http://www.w3.org/2000/svg" xmlns:xlink="http://www.w3.org/1999/xlink" x="0px" y="0px"
	 viewBox="0 0 221 123" style="enable-background:new 0 0 221 123;" xml:space="preserve">
<g>
	<path d="M134.9,28.2c1.7,2.3,2.6,4.1,3.4,5.7c0.8,1.6,1.4,3.1,2,4.5c1.1,2.8,2.1,5.5,3,8c1.9,5.1,3.7,9.9,5.7,14.4
		c2.1,4.5,4.4,8.6,7.1,12.1c2.7,3.5,5.7,6.5,9.4,8.5c3.9,2,8,3,11.8,2.4c1.9-0.3,3.7-1.1,5.3-2.2c1.6-1.2,3-2.8,3.8-4.6
		c0.8-1.8,1-3.7,0.5-4.9c-0.2-1.1-2.7-2.4-4.8-2.9c-2.2-0.5-4.6-0.1-6.6,1.1c-1,0.6-1.9,1.4-2.6,2.4c-0.7,1-1,2.1-0.8,3.2l0,0
		c0.1,0.4-0.2,0.9-0.6,0.9c-0.4,0.1-0.7-0.1-0.9-0.5c-0.7-1.6-0.4-3.4,0.2-4.8c0.6-1.5,1.6-2.8,2.8-3.9c2.3-2.2,5.6-3.4,9-3.4
		c1.7,0,3.3,0.3,4.9,0.8c0.4,0.1,0.8,0.3,1.2,0.4c0.4,0.2,0.9,0.4,1.4,0.7c0.9,0.5,1.7,1.2,2.4,2.1c1.4,1.6,2.1,3.6,2.4,5.5
		c0.3,1.9,0.2,3.8-0.1,5.5c-1.4,7.1-6.6,13.1-13.4,16c-3.4,1.4-7,2.1-10.5,2.2c-3.5,0.1-7-0.4-10.2-1.2c-6.8-1.6-13.1-5.2-18.2-9.5
		c-5.1-4.4-9.1-9.4-12.7-14.5C126,67.2,123,62,120.2,57l-4-7.1c-0.6-1.1-1.2-2.1-1.8-2.9c-0.5-0.8-1.1-1.4-1.1-1.3
		c-4.9-5.9-4-14.7,2-19.6C121.3,21.4,130.1,22.3,134.9,28.2z"/>
	<path d="M108,46.6c-0.9,1-2.2,2.9-3.5,5c-1.3,2.2-2.6,4.5-3.9,7c-2.7,4.9-5.7,10.2-9.2,15.3c-3.5,5.1-7.6,10.2-12.8,14.6
		c-5.1,4.4-11.5,7.8-18.2,9.3c-3.3,0.8-6.7,1.3-10.2,1.2c-3.5-0.1-7.2-0.8-10.5-2.2c-6.8-2.9-12-8.9-13.4-15.9
		c-0.3-1.8-0.4-3.6-0.1-5.5c0.3-1.9,1-3.9,2.4-5.5c0.7-0.8,1.5-1.5,2.4-2.1c0.4-0.3,0.9-0.5,1.4-0.7l1.2-0.4
		c1.6-0.5,3.3-0.8,4.9-0.8c3.4,0,6.6,1.3,9,3.4c1.2,1.1,2.1,2.4,2.8,3.9c0.6,1.5,0.9,3.2,0.2,4.8c-0.2,0.4-0.6,0.6-1,0.4
		c-0.4-0.1-0.5-0.5-0.5-0.9l0,0c0.2-1.1-0.2-2.2-0.8-3.2c-0.7-1-1.6-1.8-2.6-2.4c-2-1.2-4.4-1.6-6.6-1.1c-2.1,0.5-4.6,1.7-4.8,2.9
		c-0.5,1.2-0.4,3.2,0.5,5c0.8,1.8,2.2,3.4,3.8,4.6c1.6,1.2,3.4,1.9,5.3,2.2c3.8,0.6,7.9-0.4,11.8-2.4c3.8-2,6.8-5,9.6-8.4
		c2.7-3.5,5-7.5,7-12c2-4.5,3.8-9.3,5.7-14.5c0.9-2.6,1.9-5.3,3-8.1c1.2-2.8,2.5-5.9,4.7-9.5l0.6-0.9C90,23,98.6,21,105.2,25.1
		c6.6,4.1,8.6,12.7,4.5,19.3C109.2,45.2,108.6,46,108,46.6z"/>
</g>
</svg>
