<?xml version="1.0" encoding="utf-8"?>
<!-- Generator: Adobe Illustrator 22.1.0, SVG Export Plug-In . SVG Version: 6.00 Build 0)  -->
<svg version="1.1" id="Layer_1" xmlns="http://www.w3.org/2000/svg" xmlns:xlink="http://www.w3.org/1999/xlink" x="0px" y="0px"
	 viewBox="0 0 221 123" style="enable-background:new 0 0 221 123;" xml:space="preserve">
<g>
	<path d="M95.5,68.7c13.4-3.3,26.1-12.2,20.2-24.6c-0.2-0.4-0.4-0.9-0.7-1.3c-7.8-14.3-26.7-10.7-39-2.6C68.2,45.3,47.4,59.6,37,83
		c-2.4,5.4,3.6,9.9,15.6,3.9C68.2,79.1,73.2,74.2,95.5,68.7z"/>
	<path d="M134.8,68.7c-13.4-3.3-26.1-12.2-20.2-24.6c0.2-0.4,0.4-0.9,0.7-1.3c7.8-14.3,26.7-10.7,39-2.6c7.8,5.2,28.6,19.5,39,42.9
		c2.4,5.4-3.6,9.9-15.6,3.9C162.1,79.1,157.1,74.2,134.8,68.7z"/>
</g>
</svg>
