<?xml version="1.0" encoding="utf-8"?>
<!-- Generator: Adobe Illustrator 22.1.0, SVG Export Plug-In . SVG Version: 6.00 Build 0)  -->
<svg version="1.1" id="Layer_1" xmlns="http://www.w3.org/2000/svg" xmlns:xlink="http://www.w3.org/1999/xlink" x="0px" y="0px"
	 viewBox="0 0 221 123" style="enable-background:new 0 0 221 123;" xml:space="preserve">
<g>
	<path d="M136.1,25.6c-4.1-1.7-8.5-2.6-12.9-2.6c-6.7,0.1-14.4,2.5-13.2,13c2,18.1,70.5,28.2,78.6,36.3s8.1,28.2,8.1,28.2
		s20.1-40.3-12.1-54.4C160.6,35.7,143.4,28.6,136.1,25.6z"/>
	<path d="M84,25.6c4.1-1.7,8.5-2.6,12.9-2.6c6.7,0.1,14.4,2.5,13.2,13c-2,18.1-70.5,28.2-78.6,36.3s-8.1,28.2-8.1,28.2
		S3.3,60.2,35.5,46.1C59.4,35.7,76.6,28.6,84,25.6z"/>
</g>
</svg>
