<?xml version="1.0" encoding="utf-8"?>
<!-- Generator: Adobe Illustrator 22.1.0, SVG Export Plug-In . SVG Version: 6.00 Build 0)  -->
<svg version="1.1" id="Layer_1" xmlns="http://www.w3.org/2000/svg" xmlns:xlink="http://www.w3.org/1999/xlink" x="0px" y="0px"
	 viewBox="0 0 256 256" style="enable-background:new 0 0 256 256;" xml:space="preserve">
<g style="opacity:0;">
	<path style="fill:#FFFFFF;" d="M243.5,165.5L242,165v-26.5c0,0-6.5-14-25.5-14l-16-41h-46v-23h-139v115H25c0-0.2,0-0.3,0-0.5
		c0-13.3,10.7-24,24-24s24,10.7,24,24c0,0.2,0,0.3,0,0.5h108.5c0,0,2-24,24-24s24,21,24,24h14C246.8,172.6,246.8,169.3,243.5,165.5z
		"/>
	<rect x="154.5" y="83.5" style="opacity:0.3;" width="3" height="92"/>
	<path style="opacity:0.3;" d="M227.2,165.3h15.3c0,0,2-0.4,3.5,4.9c1.5,5.3-2.5,5.3-2.5,5.3h-14C229.3,172,228.6,168.6,227.2,165.3
		z"/>
	<path style="opacity:0.3;" d="M27,164H15.5c0,0-5.5,2-5.5,7s7,6,7,6h9L27,164z"/>
</g>
<g>
	<rect x="15.5" y="140.5" style="fill:#F43719;" width="226" height="9"/>
	<polygon style="fill:#F43719;" points="111.5,90.5 96.5,90.5 96.5,75 75.5,75 75.5,90.5 60.5,90.5 60.5,111.5 75.5,111.5 75.5,127 
		96.5,127 96.5,111.5 111.5,111.5 	"/>
	<polygon style="fill:#F43719;" points="170.5,83.5 172.5,63.5 183.5,63.5 186.5,83.5 	"/>
	<path style="fill:#F7CF52;" d="M231.5,137.5v16c-2.6,0.3-4.6-1-6-4v-8C225.5,138.5,228.2,136.2,231.5,137.5z"/>
	<polygon style="fill:#96E0DE;" points="167.5,95.5 193.5,95.5 204.5,124.5 167.5,124.5 	"/>
	<path style="fill:#666666;" d="M49.5,156.5c-10.5,0-19,8.5-19,19s8.5,19,19,19s19-8.5,19-19S60,156.5,49.5,156.5z M49.5,182.5
		c-3.9,0-7-3.1-7-7c0-3.9,3.1-7,7-7s7,3.1,7,7C56.5,179.4,53.4,182.5,49.5,182.5z"/>
	<path style="fill:#666666;" d="M206.5,156.5c-10.5,0-19,8.5-19,19s8.5,19,19,19s19-8.5,19-19S217,156.5,206.5,156.5z M206.5,182.5
		c-3.9,0-7-3.1-7-7c0-3.9,3.1-7,7-7s7,3.1,7,7C213.5,179.4,210.4,182.5,206.5,182.5z"/>
</g>
</svg>
