<?xml version="1.0" encoding="utf-8"?>
<!-- Generator: Adobe Illustrator 22.1.0, SVG Export Plug-In . SVG Version: 6.00 Build 0)  -->
<svg version="1.1" id="Layer_1" xmlns="http://www.w3.org/2000/svg" xmlns:xlink="http://www.w3.org/1999/xlink" x="0px" y="0px"
	 viewBox="0 0 256 256" style="enable-background:new 0 0 256 256;" xml:space="preserve">
<g>
	<path style="fill:#E6E6E6;" d="M246,167.2c0-0.1-0.1-0.2-0.1-0.4c-0.1-0.6-0.4-1.2-0.7-1.9c-0.5-1.2-1.1-1.8-1.5-2.2
		c-0.1-0.1-0.1-0.1-0.2-0.2l-0.3-0.1c-0.2-0.1-0.3-0.1-0.4-0.1L242,162v-26.5c0,0-6.5-14-25.5-14l-16-41h-46v-23h-139V161
		c0,0-5.5,2-5.5,7s7,6,7,6h9l0.9-11.3C30.5,154.1,39,148,49,148c13.3,0,24,10.7,24,24c0,0.2,0,0.3,0,0.5h108.5c0,0,2-24,24-24
		c12.9,0,19,7.3,21.7,13.9c0.1,0.2,0.2,0.4,0.2,0.6c0.3,0.9,0.6,1.7,0.9,2.5c0,0.1,0,0.1,0,0.2c0.1,0.2,0.1,0.4,0.2,0.7
		c0.5,2,0.8,4.1,0.9,6.2h14C243.5,172.5,247.5,172.5,246,167.2z"/>
</g>
</svg>
