<?xml version="1.0" encoding="utf-8"?>
<!-- Generator: Adobe Illustrator 22.1.0, SVG Export Plug-In . SVG Version: 6.00 Build 0)  -->
<svg version="1.1" id="Layer_1" xmlns="http://www.w3.org/2000/svg" xmlns:xlink="http://www.w3.org/1999/xlink" x="0px" y="0px"
	 viewBox="0 0 256 256" style="enable-background:new 0 0 256 256;" xml:space="preserve">
<g>
	<rect x="154.5" y="80.5" style="opacity:0.2;" width="3" height="92"/>
	<path style="opacity:0.2;" d="M227.2,162.3h15.3c0,0,2-0.4,3.5,4.9c1.5,5.3-2.5,5.3-2.5,5.3h-14C229.3,169,228.6,165.6,227.2,162.3
		z"/>
	<path style="opacity:0.2;" d="M27,161H15.5c0,0-5.5,2-5.5,7s7,6,7,6h9L27,161z"/>
	<rect x="15.5" y="137.5" style="fill:#F43719;" width="226" height="9"/>
	<polygon style="fill:#F43719;" points="111.5,87.5 96.5,87.5 96.5,72 75.5,72 75.5,87.5 60.5,87.5 60.5,108.5 75.5,108.5 75.5,124 
		96.5,124 96.5,108.5 111.5,108.5 	"/>
	<polygon style="fill:#F43719;" points="170.5,80.5 172.5,60.5 183.5,60.5 186.5,80.5 	"/>
	<path style="fill:#F7CF52;" d="M231.5,134.5v16c-2.6,0.3-4.6-1-6-4v-8C225.5,135.5,228.2,133.2,231.5,134.5z"/>
	<polygon style="fill:#96E0DE;" points="167.5,92.5 193.5,92.5 204.5,121.5 167.5,121.5 	"/>
	<path style="fill:#666666;" d="M49.5,153.5c-10.5,0-19,8.5-19,19s8.5,19,19,19s19-8.5,19-19S60,153.5,49.5,153.5z M49.5,179.5
		c-3.9,0-7-3.1-7-7c0-3.9,3.1-7,7-7s7,3.1,7,7C56.5,176.4,53.4,179.5,49.5,179.5z"/>
	<path style="fill:#666666;" d="M206.5,153.5c-10.5,0-19,8.5-19,19s8.5,19,19,19s19-8.5,19-19S217,153.5,206.5,153.5z M206.5,179.5
		c-3.9,0-7-3.1-7-7c0-3.9,3.1-7,7-7s7,3.1,7,7C213.5,176.4,210.4,179.5,206.5,179.5z"/>
</g>
</svg>
