<?xml version="1.0" encoding="utf-8"?>
<!-- Generator: Adobe Illustrator 22.1.0, SVG Export Plug-In . SVG Version: 6.00 Build 0)  -->
<svg version="1.1" id="Layer_1" xmlns="http://www.w3.org/2000/svg" xmlns:xlink="http://www.w3.org/1999/xlink" x="0px" y="0px"
	 viewBox="0 0 256 256" style="enable-background:new 0 0 256 256;" xml:space="preserve">
<g>
	<path style="fill:#1CB559;" d="M225.2,177.4l10.2-40.7h-43.6l-4.4,59.6h-14.5v-30.5h-33.4v-13.1h-5.8V75.6h-2.9v77.1v1.5v17.5H84.2
		c0,0-2.9-13.1-14.5-17.5H11.5v59.6l186.2,1.5c0,0,10.2-30.5,48-21.8C245.6,193.4,245.6,177.4,225.2,177.4z M130.7,196.3H84.2v-21.8
		h46.5V196.3z"/>
	<rect x="130.7" y="75.6" style="opacity:0.5;fill:#076F34;enable-background:new    ;" width="2.9" height="78.5"/>
	<rect x="84.2" y="171.6" style="opacity:0.5;fill:#076F34;enable-background:new    ;" width="46.5" height="2.9"/>
	<path style="opacity:0.5;fill:#007244;enable-background:new    ;" d="M16.4,215.2c0-17.6,14.2-31.8,31.8-31.8S80,197.7,80,215.2"
		/>
	<path style="opacity:0.5;fill:#017D43;enable-background:new    ;" d="M194.7,216c0,0-5.7-37.1,31.2-39.4c0,0,19.4-1.1,20.5,17.7
		c0,0-16.1-3.5-25.5-0.1s-17.8,10.1-22.7,21.8H194.7z"/>
</g>
</svg>
