<?xml version="1.0" encoding="utf-8"?>
<!-- Generator: Adobe Illustrator 22.1.0, SVG Export Plug-In . SVG Version: 6.00 Build 0)  -->
<svg version="1.1" id="Layer_1" xmlns="http://www.w3.org/2000/svg" xmlns:xlink="http://www.w3.org/1999/xlink" x="0px" y="0px"
	 viewBox="0 0 256 256" style="enable-background:new 0 0 256 256;" xml:space="preserve">
<g>
	<path style="fill:#1CB559;" d="M225.2,177.4l10.2-40.7h-43.6l-4.4,59.6h-14.5v-30.5h-33.4v-13.1h-5.8V75.6h-2.9v77.1v1.5v17.5H84.2
		c0,0-2.9-13.1-14.5-17.5H11.5v59.6l186.2,1.5c0,0,10.2-30.5,48-21.8C245.6,193.4,245.6,177.4,225.2,177.4z M130.7,196.3H84.2v-21.8
		h46.5V196.3z"/>
	<rect x="130.7" y="75.6" style="opacity:0.5;fill:#076F34;" width="2.9" height="78.5"/>
	<rect x="84.2" y="171.6" style="opacity:0.5;fill:#076F34;" width="46.5" height="2.9"/>
	<path style="opacity:0.5;fill:#007244;" d="M16.4,215.2c0-17.6,14.2-31.8,31.8-31.8S80,197.7,80,215.2"/>
	<path style="opacity:0.5;fill:#017D43;" d="M194.7,216c0,0-5.7-37.1,31.2-39.4c0,0,19.4-1.1,20.5,17.7c0,0-16.1-3.5-25.5-0.1
		s-17.8,10.1-22.7,21.8H194.7z"/>
</g>
<g style="opacity:0;">
	<path style="fill:#221E20;" d="M233.6,192.8c-4.4-0.2-9.1,0.1-12.8,1.5c-8.4,3-15.8,8.6-20.8,17.9c-0.1,1-0.2,2.1-0.2,3.1
		c0,13.5,10.9,24.4,24.4,24.4s24.4-10.9,24.4-24.4C248.5,205.1,242.4,196.5,233.6,192.8z"/>
	<circle style="fill:#C0C1C2;" cx="224.1" cy="215.2" r="10.4"/>
	<path style="fill:#221E20;" d="M48.2,239.6c13.5,0,24.4-10.9,24.4-24.4H23.8C23.8,228.7,34.7,239.6,48.2,239.6z"/>
	<path style="fill:#C0C1C2;" d="M48.2,225.6c5.7,0,10.4-4.6,10.4-10.4H37.8C37.8,221,42.5,225.6,48.2,225.6z"/>
	<path style="fill:#F8D732;" d="M206.3,62.5L186,48H46.1c-7.3,0-14.3,2.9-19.4,8L18,64.7c-5.2,5.2-8,12.1-8,19.4v70.1h59.6
		l-1.2-49.3c-0.2-6.7,2.1-13.1,6.4-18.3l0,0c5-6.1,12.4-9.6,20.3-9.9l89.4-2.6l7.3,62.5h43.6L202,65.5L206.3,62.5z"/>
	<path style="fill:#FFFFFF;" d="M202.5,73.5c0,0-7.8-0.9-9.3,8.2s-3.5,21.3-1.6,30.2c1.8,8.9,6.7,14.7,13.3,14.5
		c6.5-0.2,20.4,0,20.4,0s3.8-0.5,0-7.1S202.5,73.5,202.5,73.5z"/>
	<path style="fill:#221E20;" d="M183.4,166h-44v-13.3h37.4C182.7,155.6,183.9,160.4,183.4,166z"/>
	<path style="fill:#221E20;" d="M141,145.1h-7.4v-15.5h7.4c1.4,0,2.6,1.2,2.6,2.6v10.2C143.6,143.9,142.4,145.1,141,145.1z"/>
	<path style="fill:#221E20;" d="M80.2,162.9h6.8c0.4-5.6-0.7-10.4-6.5-13.3h-11l0.1,4.5C74.6,156,78,159.5,80.2,162.9z"/>
</g>
</svg>
