<?xml version="1.0" encoding="utf-8"?>
<!-- Generator: Adobe Illustrator 22.1.0, SVG Export Plug-In . SVG Version: 6.00 Build 0)  -->
<svg version="1.1" id="Layer_1" xmlns="http://www.w3.org/2000/svg" xmlns:xlink="http://www.w3.org/1999/xlink" x="0px" y="0px"
	 viewBox="0 0 256 256" style="enable-background:new 0 0 256 256;" xml:space="preserve">
<g>
	<path style="fill:#0E8CB3;" d="M205.1,153.2c-3.1,0.7-4.3-0.8-5.1-3.1c-0.2-0.7-1.5-4-3.1-8.3c-0.3-0.9-0.7-1.8-1.1-2.8v0
		c-3.6-9.2-8.1-20.7-8.1-20.7l6.3-2.8l9.1,23.2v0l0.9,2.4l2.9,7.5C207.1,148.7,208.2,152.5,205.1,153.2z"/>
	<path style="fill:#0E8CB3;" d="M59.9,162.6L59.9,162.6c-0.5,0.7-1.4,0.9-2.1,0.5l-0.2-0.1h0l-1.2-0.6l-3.9-2l-0.8-0.4l-1.9-1
		l-0.8-0.4l-1.3-0.7c-0.1-0.1-0.2-0.1-0.3-0.2c-0.2-0.2-0.4-0.5-0.5-0.8v0c-0.1-0.2-0.1-0.5,0-0.7c0-0.2,0.1-0.4,0.2-0.5
		c0,0,0,0,0-0.1c0.3-0.5,0.8-0.8,1.4-0.8c0.3,0,0.5,0.1,0.8,0.2l3.3,1.7l1.9,1l0.1,0l0.6,0.3l0.6,0.3h0v0l3.6,1.9
		C60.1,160.7,60.4,161.8,59.9,162.6z"/>
	<path style="fill:#0E8CB3;" d="M186.3,92.2l-8.1,2.8l-52.4,59.6c-1.1-1.4-2.4-2.5-3.7-3.4c-1.1-0.8-2.4-1.4-3.7-1.8l3.6-4.1
		l2.5-2.9l49.7-57.3L101.7,107l10.3,34.2l1.2,4.1l1,3.4l-7.4-0.8l-14-44.2L83,116l-1.6,2l-0.9,1.2l-1.4,1.8l-17.5,22l-0.6,0.8
		l-0.1,0.2l-1.4,1.7l-0.3,0.4l-0.3,0.4l-0.2,0.3l-2.1,2.6L60,150l0.5,0.1l0.1,0l0.4,0.1v0l3.3,0.6h0l27.6,5l2.3,0.4l1.5,0.3l2.5,0.5
		l12.3,2.2l-3.2-10.1l7.4,0.8l0.9,3.1l2.2-2.6c1.4,0.4,2.7,1,3.9,1.8c1.2,0.8,2.5,1.9,3.6,3.3l-8.5,9.7c0,0-8.6-1.7-19.4-3.8
		c-0.8-0.2-1.6-0.3-2.5-0.5c-0.5-0.1-1-0.2-1.5-0.3c-0.7-0.2-1.5-0.3-2.2-0.4c-2-0.4-4.1-0.8-6.2-1.2c-4.2-0.8-8.4-1.6-12.3-2.3
		c-4.8-0.9-9.1-1.7-12.4-2.3c-0.2,0-0.3-0.1-0.5-0.1c-0.2,0-0.4-0.1-0.5-0.1c-2.4-0.5-4.2-0.8-4.9-0.9c-5.5-0.8-3.6-3.8-3.6-3.8
		l3.9-4.9l0.8-1.1l0.2-0.2l0.1-0.2l0.3-0.4l0.3-0.3l10.7-13.5l6.3-7.9l2.3-3l1.4-1.8l0.9-1.2l1.5-2l12.1-15.2l-0.9-4.4l5.9-1.5
		l3,8.7l72.5-22.1l-0.8-1.6l1.7-0.7l4.9-1.9l1-0.4L186.3,92.2z"/>
</g>
</svg>
