<?xml version="1.0" encoding="utf-8"?>
<!-- Generator: Adobe Illustrator 22.1.0, SVG Export Plug-In . SVG Version: 6.00 Build 0)  -->
<svg version="1.1" id="Layer_1" xmlns="http://www.w3.org/2000/svg" xmlns:xlink="http://www.w3.org/1999/xlink" x="0px" y="0px"
	 viewBox="0 0 256 256" style="enable-background:new 0 0 256 256;" xml:space="preserve">
<g>
	<polygon style="fill:#4D504F;" points="124.5,141.2 124.5,142.4 122,145.3 113.2,145.3 112,141.2 112,141.2 	"/>
	<path style="fill:#D0DCE5;" d="M120,144.4l-2.3,15.6c-0.2,1.1-1.2,1.9-2.4,1.8l0,0c-1.1-0.2-1.9-1.2-1.8-2.4l2.3-15.6
		c0.2-1.1,1.2-1.9,2.4-1.8h0C119.4,142.2,120.2,143.3,120,144.4z"/>
	<path style="fill:#D1D4D7;" d="M81.4,118l-0.9,1.2l-1.4,1.8c8.1,7.3,13.1,17.8,13.1,29.5c0,1.8-0.1,3.5-0.3,5.2l2.3,0.4l1.5,0.3
		c0.3-1.9,0.4-3.9,0.4-5.8C96,137.6,90.4,126,81.4,118z M93.3,160.6c-0.7-0.2-1.5-0.3-2.2-0.4c-4.3,17.3-19.9,30-38.5,30
		c-21.9,0-39.7-17.8-39.7-39.7s17.8-39.7,39.7-39.7c8.5,0,16.4,2.7,22.9,7.3l1.4-1.8l0.9-1.2c-7.1-5.1-15.8-8.1-25.3-8.1
		C28.5,107,9,126.5,9,150.5c0,24,19.5,43.5,43.5,43.5c20.4,0,37.6-14.1,42.3-33.1C94.3,160.8,93.8,160.7,93.3,160.6z"/>
	<path d="M94.8,160.9c-0.5-0.1-1-0.2-1.5-0.3c-4.5,18.3-21.1,31.9-40.8,31.9c-23.2,0-42-18.8-42-42s18.8-42,42-42
		c9.1,0,17.5,2.9,24.3,7.8l0.9-1.2l1.5-2c-7.5-5.4-16.8-8.6-26.8-8.6c-25.4,0-46,20.6-46,46c0,25.4,20.6,46,46,46
		c21.7,0,39.8-15,44.7-35.1C96.4,161.2,95.6,161,94.8,160.9z M83,116l-1.6,2l-0.9,1.2c8.6,7.7,14,18.9,14,31.3
		c0,1.9-0.1,3.8-0.4,5.6l1.5,0.3l2.5,0.5c0.3-2.1,0.4-4.2,0.4-6.3C98.5,136.8,92.5,124.5,83,116z"/>
	<polygon style="fill:#D1D4D7;" points="52.5,160.4 52.5,190.2 51.7,190.2 51.7,160 	"/>
	<polygon style="fill:#D1D4D7;" points="49.8,159 40.4,188.3 39.5,188.1 49,158.6 	"/>
	<path style="fill:#D1D4D7;" d="M47.4,157.7l-18,25.1l-0.7-0.5l18.2-25.4C47,157.2,47.1,157.5,47.4,157.7z"/>
	
		<rect x="33.4" y="147.1" transform="matrix(0.5965 0.8026 -0.8026 0.5965 145.1596 38.9846)" style="fill:#D1D4D7;" width="0.9" height="33.5"/>
	
		<rect x="30.2" y="140.8" transform="matrix(0.3227 0.9465 -0.9465 0.3227 169.8226 77.7025)" style="fill:#D1D4D7;" width="0.9" height="33.5"/>
	
		<rect x="29.1" y="133.7" transform="matrix(1.799142e-02 0.9998 -0.9998 1.799142e-02 179.4556 118.2589)" style="fill:#D1D4D7;" width="0.9" height="33.5"/>
	
		<rect x="30.2" y="126.7" transform="matrix(-0.2884 0.9575 -0.9575 -0.2884 176.8311 155.5169)" style="fill:#D1D4D7;" width="0.9" height="33.5"/>
	
		<rect x="33.4" y="120.4" transform="matrix(-0.5672 0.8236 -0.8236 -0.5672 165.9355 187.0392)" style="fill:#D1D4D7;" width="0.9" height="33.5"/>
	
		<rect x="38.4" y="115.3" transform="matrix(-0.7918 0.6108 -0.6108 -0.7918 150.1929 212.9007)" style="fill:#D1D4D7;" width="0.9" height="33.5"/>
	
		<rect x="44.7" y="112" transform="matrix(-0.9406 0.3397 -0.3397 -0.9406 131.2475 234.5267)" style="fill:#D1D4D7;" width="0.9" height="33.5"/>
	
		<rect x="51.7" y="110.8" transform="matrix(-0.9994 3.597701e-02 -3.597701e-02 -0.9994 108.7548 253.0995)" style="fill:#D1D4D7;" width="0.9" height="33.5"/>
	<polygon style="fill:#D1D4D7;" points="64.1,112.5 55.4,143.3 55.2,143.5 54.4,144.6 54.2,144.5 63.3,112.3 	"/>
	<polygon style="fill:#D1D4D7;" points="75.2,117.9 73.1,121 66.8,128.9 74.4,117.4 	"/>
	<polygon style="fill:#D1D4D7;" points="84,126.3 58.6,146.8 58.8,146.4 59.1,146 59.5,145.6 60.8,143.9 61,143.7 83.5,125.7 	"/>
	
		<rect x="73.7" y="126" transform="matrix(-0.3565 -0.9343 0.9343 -0.3565 -32.7947 262.8315)" style="fill:#D1D4D7;" width="0.9" height="33.5"/>
	<polygon style="fill:#D1D4D7;" points="92.2,149.2 64.3,150.7 64.3,150.7 60.6,150.1 92.2,148.4 	"/>
	<path style="fill:#D1D4D7;" d="M90.9,160.6l-0.2,0.8l-18.2-4.8c3.9,0.7,8.1,1.5,12.3,2.3L90.9,160.6z"/>
	
		<rect x="71.2" y="146.5" transform="matrix(0.5372 -0.8434 0.8434 0.5372 -104.4942 135.9537)" style="fill:#D1D4D7;" width="0.9" height="33.5"/>
	
		<rect x="66.4" y="151.7" transform="matrix(0.7693 -0.6389 0.6389 0.7693 -92.1983 81.5749)" style="fill:#D1D4D7;" width="0.9" height="33.5"/>
	<polygon style="fill:#D1D4D7;" points="55.7,158.4 55.1,158.1 54.5,157.8 54.5,157.7 54,156.6 54.8,156.3 55.3,157.5 55.5,157.9 	
		"/>
	<polygon style="fill:#D1D4D7;" points="67.3,187.3 66.5,187.7 56.4,162.4 57.5,163 57.5,163 	"/>
	<g>
		<path style="fill:#252728;" d="M59.1,154.1c-2.4-0.5-4.2-0.8-4.9-0.9c-5.5-0.8-3.6-3.8-3.6-3.8l4.7-6l0.2-0.2l0.1-0.2
			c-1-0.4-2.2-0.7-3.4-0.6c-4.4,0.2-7.8,3.9-7.6,8.3c0.1,2.1,1,3.9,2.3,5.3c0-0.2,0.1-0.4,0.2-0.5c0,0,0,0,0-0.1
			c0.3-0.5,0.8-0.8,1.4-0.8c0.3,0,0.5,0.1,0.8,0.2l3.3,1.7l1.9,1l0.1,0l0.6,0.3c0.1,0,0.3-0.1,0.4-0.1c1.8-0.7,3.2-2,4.1-3.7
			C59.4,154.2,59.2,154.1,59.1,154.1z M59.1,146l-0.3,0.4l-2.3,2.9L60,150l0.5,0.1C60.4,148.5,59.9,147.2,59.1,146z"/>
		<path d="M59.6,154.2c-0.2,0-0.4-0.1-0.5-0.1c-0.3,0.5-0.6,1-1,1.5c-0.8,0.8-1.7,1.5-2.7,1.9c-0.3,0.1-0.5,0.2-0.8,0.3c0,0,0,0,0,0
			l0.1,0l0.6,0.3l0.6,0.3h0c1.2-0.5,2.2-1.2,3.1-2.1c0.5-0.6,1-1.2,1.3-1.9C59.9,154.3,59.8,154.3,59.6,154.2z M52.1,142
			c-2.3,0.1-4.4,1.1-5.9,2.8c-1.5,1.7-2.3,3.8-2.2,6.1c0.1,2.4,1.2,4.5,2.9,6c-0.1-0.2-0.1-0.5,0-0.7c0-0.2,0.1-0.4,0.2-0.5
			c-1.2-1.3-1.9-3-2-4.8c-0.1-2,0.6-3.9,2-5.4c1.4-1.5,3.2-2.3,5.2-2.4c0.1,0,0.2,0,0.3,0c1,0,1.9,0.2,2.7,0.5l0.2-0.2l0.1-0.2
			l0.3-0.4C54.7,142.2,53.5,142,52.1,142z M59.5,145.6l-0.3,0.4l-0.3,0.4c0.7,1,1.1,2.2,1.2,3.5l0.5,0.1l0.1,0l0.4,0.1
			C60.9,148.5,60.4,146.9,59.5,145.6z"/>
	</g>
	<path style="fill:#D1D4D7;" d="M203.6,107c-24,0-43.5,19.5-43.5,43.5s19.5,43.5,43.5,43.5s43.5-19.5,43.5-43.5S227.6,107,203.6,107
		z M203.6,190.2c-21.9,0-39.7-17.8-39.7-39.7c0-21.9,17.8-39.7,39.7-39.7s39.7,17.8,39.7,39.7C243.3,172.4,225.5,190.2,203.6,190.2z
		"/>
	<path d="M203.6,104.5c-25.4,0-46,20.6-46,46s20.6,46,46,46s46-20.6,46-46S229,104.5,203.6,104.5z M203.6,192.5
		c-23.2,0-42-18.8-42-42c0-23.2,18.8-42,42-42s42,18.8,42,42C245.6,173.7,226.8,192.5,203.6,192.5z"/>
	<rect x="202.8" y="156.7" style="fill:#D1D4D7;" width="0.9" height="33.5"/>
	
		<rect x="195.8" y="155.5" transform="matrix(0.9522 0.3056 -0.3056 0.9522 62.021 -51.7139)" style="fill:#D1D4D7;" width="0.9" height="33.5"/>
	
		<rect x="189.5" y="152.2" transform="matrix(0.8132 0.5819 -0.5819 0.8132 133.7779 -78.9591)" style="fill:#D1D4D7;" width="0.9" height="33.5"/>
	
		<rect x="184.5" y="147.1" transform="matrix(0.5965 0.8026 -0.8026 0.5965 206.1365 -82.3034)" style="fill:#D1D4D7;" width="0.9" height="33.5"/>
	
		<rect x="181.3" y="140.8" transform="matrix(0.3227 0.9465 -0.9465 0.3227 272.1761 -65.3286)" style="fill:#D1D4D7;" width="0.9" height="33.5"/>
	
		<rect x="180.2" y="133.7" transform="matrix(1.799142e-02 0.9998 -0.9998 1.799142e-02 327.8511 -32.8308)" style="fill:#D1D4D7;" width="0.9" height="33.5"/>
	
		<rect x="181.3" y="126.7" transform="matrix(-0.2884 0.9575 -0.9575 -0.2884 371.5285 10.8241)" style="fill:#D1D4D7;" width="0.9" height="33.5"/>
	
		<rect x="184.5" y="120.4" transform="matrix(-0.5672 0.8236 -0.8236 -0.5672 402.7651 62.5868)" style="fill:#D1D4D7;" width="0.9" height="33.5"/>
	<path style="fill:#D1D4D7;" d="M196.9,141.8L179.3,119l0.7-0.5l15.8,20.5v0C196.2,140,196.6,140.9,196.9,141.8z"/>
	<polygon style="fill:#D1D4D7;" points="203.2,138.8 203.2,138.8 202.2,110.8 203,110.8 204.1,141.2 	"/>
	
		<rect x="209.8" y="111.8" transform="matrix(-0.9625 -0.2711 0.2711 -0.9625 377.7884 309.2041)" style="fill:#D1D4D7;" width="0.9" height="33.5"/>
	
		<rect x="216.2" y="114.8" transform="matrix(-0.8336 -0.5523 0.5523 -0.8336 324.5942 360.9439)" style="fill:#D1D4D7;" width="0.9" height="33.5"/>
	
		<rect x="221.4" y="119.7" transform="matrix(-0.625 -0.7806 0.7806 -0.625 253.9012 394.929)" style="fill:#D1D4D7;" width="0.9" height="33.5"/>
	
		<rect x="224.8" y="126" transform="matrix(-0.3565 -0.9343 0.9343 -0.3565 172.1944 404.0157)" style="fill:#D1D4D7;" width="0.9" height="33.5"/>
	
		<rect x="226.1" y="132.9" transform="matrix(-5.395096e-02 -0.9985 0.9985 -5.395096e-02 89.33 384.0078)" style="fill:#D1D4D7;" width="0.9" height="33.5"/>
	
		<rect x="225.3" y="140" transform="matrix(0.2538 -0.9673 0.9673 0.2538 16.8299 335.3003)" style="fill:#D1D4D7;" width="0.9" height="33.5"/>
	
		<rect x="222.3" y="146.5" transform="matrix(0.5372 -0.8434 0.8434 0.5372 -34.5624 263.4092)" style="fill:#D1D4D7;" width="0.9" height="33.5"/>
	
		<rect x="217.5" y="151.7" transform="matrix(0.7693 -0.6389 0.6389 0.7693 -57.3325 178.1245)" style="fill:#D1D4D7;" width="0.9" height="33.5"/>
	
		<rect x="211.4" y="155.2" transform="matrix(0.9277 -0.3733 0.3733 0.9277 -48.8835 91.4851)" style="fill:#D1D4D7;" width="0.9" height="33.5"/>
	<path style="fill:#CDDDE5;" d="M178.7,69.5c-4.5,0.8-0.9,4.9-0.9,4.9l-4.9,1.9c-0.8-2-2.2-5.4-2.6-7.1c-0.6-2.4,8-5.2,8-5.2
		l3.6,3.8C181.8,67.8,183.2,68.8,178.7,69.5z"/>
	<path style="fill:#0A8FAE;" d="M122.2,151.3c-1.1-0.8-2.4-1.4-3.7-1.8l-0.7,0.8c1.4,0.4,2.7,1,3.9,1.8c1.2,0.8,2.5,1.9,3.6,3.3
		l0.7-0.8C124.7,153.2,123.4,152.1,122.2,151.3z M106.8,147.9l0.3,1l7.4,0.8l-0.3-1L106.8,147.9z"/>
	<polygon style="fill:#CDDDE4;" points="95.3,92.3 90.1,74.7 85.6,75.1 91.4,93.3 	"/>
	<path style="fill:#303030;" d="M103.7,72.8l-27.4,3.2c0,0-1.4-0.4-1.8-2.3c-0.4-1.8,0-3.7,0-3.7s-0.2-1.9,2-2.2s26.8,2.2,26.8,2.2
		S104.8,71.3,103.7,72.8z"/>
	<polygon style="fill:#2F332D;" points="178.6,94.9 181.5,101.9 187.9,99.5 185.7,92.4 	"/>
	<polygon style="fill:#CDDDE5;" points="186.8,99.9 193.1,116.1 188.9,117.7 182.4,101.5 	"/>
	<path style="fill:none;stroke:#000000;stroke-miterlimit:10;" d="M56.5,161.2c0,0-7.7,8.9-7.4,10.9l-2.7,0.5c0,0,3,3.7,7.4,3.1
		s-2.9-4.6-0.6-7.7s5.5-6.5,5.5-6.5L56.5,161.2z"/>
	<g>
		<polygon points="55.4,143.3 53.8,143.1 53.9,142.1 56.2,142.4 		"/>
		<path d="M128.5,163.2c-0.5,7.3-5,11.5-13,12c-5.3,0.3-59.9,0.6-60.4,0.6v-1c0.5,0,55.1-0.3,60.3-0.6c7.5-0.5,11.5-4.2,12-11
			c0.2-3.2-0.8-5.7-2.3-7.7c-1.1-1.4-2.4-2.5-3.6-3.3c-1.2-0.8-2.5-1.4-3.9-1.8c-0.6-0.2-1.3-0.3-2-0.4l-1.2-0.1l-7.4-0.8l-46.3-5.1
			l0.7-0.9l45.3,4.9l7.4,0.8l1.6,0.2c0.9,0.1,1.8,0.3,2.6,0.5c1.3,0.4,2.6,1,3.7,1.8c1.2,0.9,2.5,2,3.7,3.4
			C127.5,156.8,128.8,159.6,128.5,163.2z"/>
	</g>
	<path style="fill:#D0DCE5;" d="M115.3,150c-6.8,0-12.4,5.5-12.4,12.4s5.5,12.4,12.4,12.4s12.4-5.5,12.4-12.4S122.1,150,115.3,150z
		 M115.3,172.6c-5.6,0-10.2-4.6-10.2-10.2s4.6-10.2,10.2-10.2s10.2,4.6,10.2,10.2S120.9,172.6,115.3,172.6z"/>
	<polygon style="fill:#D0DCE5;" points="125.9,160.7 119.7,163.6 123.1,169.6 119.7,172.6 115.1,166 111.3,172.6 106.4,169.4 
		111.6,163.4 104.4,160.4 105.6,157.6 112.1,158.4 113.4,151.4 117.1,151.4 117.8,158.7 125.4,157.3 	"/>
	<path style="fill:#D0DCE5;" d="M117,165.9l-2.2,14.9c-0.2,1.1-1.2,1.9-2.4,1.8h0c-1.1-0.2-1.9-1.2-1.8-2.4l2.2-14.9
		c0.2-1.1,1.2-1.9,2.4-1.8l0,0C116.4,163.7,117.2,164.7,117,165.9z"/>
	<rect x="106.8" y="179.4" style="fill:#4D504F;" width="12.5" height="4.2"/>
	<circle style="fill:#4D504F;" cx="118" cy="143.9" r="0.9"/>
	<circle style="fill:#2F332D;" cx="181.6" cy="65.9" r="3.9"/>
	<circle cx="57.7" cy="161.6" r="2.2"/>
	<circle cx="53.9" cy="171.8" r="2.2"/>
	<path style="fill:#252728;" d="M204.7,142.6l2.4,6.1c0,0,1.1,3.8-1.9,4.5s-4.3-0.8-5.1-3.1c-0.2-0.5-0.9-2.6-2-5.4
		c-1.6,1.5-2.5,3.7-2.4,6.1c0.2,4.4,3.9,7.8,8.3,7.6c4.4-0.2,7.8-3.9,7.6-8.3C211.4,146.2,208.4,143.1,204.7,142.6z"/>
	<path d="M209.4,144.2c-1.4-1.3-3.1-2-4.9-2.2l0.4,1.1c1.4,0.2,2.7,0.9,3.8,1.9c1.5,1.4,2.3,3.2,2.4,5.2c0.1,2-0.6,3.9-2,5.4
		c-1.4,1.5-3.2,2.3-5.2,2.4c-2,0.1-3.9-0.6-5.4-2c-1.5-1.4-2.3-3.2-2.4-5.2c-0.1-2,0.6-3.9,2-5.4c0.1-0.1,0.1-0.1,0.2-0.2
		c-0.1-0.3-0.3-0.7-0.4-1c-0.2,0.2-0.3,0.3-0.5,0.5c-1.5,1.7-2.3,3.8-2.2,6.1c0.1,2.3,1.1,4.4,2.7,5.9c1.6,1.4,3.6,2.2,5.7,2.2
		c0.1,0,0.3,0,0.4,0c2.3-0.1,4.4-1.1,5.9-2.7c1.5-1.7,2.3-3.8,2.2-6.1C212,147.9,211,145.8,209.4,144.2z"/>
</g>
</svg>
