<?xml version="1.0" encoding="utf-8"?>
<!-- Generator: Adobe Illustrator 22.1.0, SVG Export Plug-In . SVG Version: 6.00 Build 0)  -->
<svg version="1.1" id="Layer_1" xmlns="http://www.w3.org/2000/svg" xmlns:xlink="http://www.w3.org/1999/xlink" x="0px" y="0px"
	 viewBox="0 0 256 256" style="enable-background:new 0 0 256 256;" xml:space="preserve">
<g>
	<polygon style="fill:#F40B0B;" points="47.8,127.3 44.2,132.4 44.2,134.6 44.6,134.8 50.6,138.4 52.8,136.7 57.6,127.5 	"/>
	<path style="fill:#F40B0B;" d="M47.7,112.1c-6.1,0.7-24.4,3.3-30.3,12.1c0,0,17.4-0.7,31.3,5.4c0,0,5.8,1.2,10.6-0.8l6.6,3.2
		C60.2,123.3,53.4,116.7,47.7,112.1z"/>
	<path id="_x30_5_1_" style="fill:#F40B0B;" d="M213.6,113.4c0,0-0.3,4.2-4.4,5.3c0,0-14.2,1.2-23.2,12.2l-8.6-5.1
		C177.4,125.9,189.8,112,213.6,113.4z"/>
	<path style="fill:#F40B0B;" d="M246.9,82.5l-0.8-7.2L230,75.5l-0.3,0l-3.9,5.4l-27.9,9l-3,5.2l-34.8,9.8c-2.4-1.1-5.2-3.9-6.8-5.6
		l-1.6-9l-0.2-1.3c-13.8-26.9-45.4-16.6-59.8-10.1c0,0.3,0,0.7-0.2,1.1c0,0-1.8,4.1-5,1.3c-1.1,0.6-1.8,1-2.1,1.2l2.4,1l0.5,2
		c25.3,3.2,36.6,20.9,36.6,20.9c0.1,0.2,0.2,0.4,0.3,0.6l0,0c0,0,0,0,0,0c0,0,0,0,0,0l0,0c3.2,6.4,15.1,13.9,20.9,17.3
		c0.4,0.2,0.8,0.5,1.2,0.7c-10.2,5.8-17.4,25.8-17.4,25.8c3.6,14.3,27.3,13.1,27.3,13.1l30-19.3l-0.9-3l8.1-4.2l-0.2-0.2l-7.5-6.8
		l-8.4-4.6h-12.3l57.7-24.1l0.9,0.6l10.4,2.4l4.6,7l8,1.8l-8.8-21.7C241.7,90.8,246.9,82.5,246.9,82.5z"/>
	<path style="fill:#F40B0B;" d="M161.8,165.8c-0.8-0.7-2.5-1.3-5.5-1.9c0,0-23.7,1.2-27.3-13.1c0,0,5.2-16.9,19.5-24.7
		c0,0-1.2-0.7-3.3-1.8c-5.9-3.3-16.8-10.6-20.8-17.1l-0.1-0.1c0,0,0-0.1-0.1-0.1c-0.1-0.2-0.2-0.4-0.3-0.7c0,0-11.4-17.7-36.6-20.9
		c0,0-19.2,7.2-32.7,4.3c-2.5-0.5-4.8-1.4-6.7-2.7c0,0-2-13.3,11.7-21.1c0,0,2.8,0.7,5.1,0.1c0.4-0.1,0.8-0.3,1.1-0.5
		c0,0,3.6-8.4-1.5-11.6c0,0-36.7,16.7-28.3,50.3c0,0,5,2.6,11.6,7.8c5.7,4.6,12.5,11.2,18.2,19.8c6.5,10.1,11.4,23,11,38.8
		c0,0,80.4-3.3,83-1.5C159.9,169.3,164,167.6,161.8,165.8z"/>
	<path style="fill:#F40B0B;" d="M80,72.4l7.9,3.3c0,0,4.7,0.5,3.6,4.2c0,0-1.8,4.1-5,1.3l-9-4.2c0,0-1.2-1.8,0-3.5
		C77.4,73.5,77.9,72.2,80,72.4z"/>
</g>
</svg>
