<?xml version="1.0" encoding="utf-8"?>
<!-- Generator: Adobe Illustrator 22.1.0, SVG Export Plug-In . SVG Version: 6.00 Build 0)  -->
<svg version="1.1" id="Layer_1" xmlns="http://www.w3.org/2000/svg" xmlns:xlink="http://www.w3.org/1999/xlink" x="0px" y="0px"
	 viewBox="0 0 256 256" style="enable-background:new 0 0 256 256;" xml:space="preserve">
<g>
	<path d="M59,128.8c-0.8,0.3-1.6,0.5-2.5,0.7l-3.8,7.1l-2.2,1.7l-6-3.6l-0.4-0.2v-2.2l2.5-3.7c-8.3-3.2-17.4-4.2-23.3-4.5
		c-11.7,5.4-19.8,17.1-19.8,30.8c0,18.7,15.2,33.9,33.9,33.9c18.7,0,33.9-15.2,33.9-33.9C71.5,144.5,66.6,135.1,59,128.8z"/>
	<path style="fill:#B4B4B5;" d="M52.8,136.7L52.8,136.7l-2.2,1.8l-6-3.6l-0.4-0.2v-2.2l0.2-0.3c-2.2-0.6-4.4-1-6.8-1
		c-13.2,0-23.9,10.7-23.9,23.9c0,13.2,10.7,23.9,23.9,23.9c13.2,0,23.9-10.7,23.9-23.9C61.5,147.7,58.1,141.1,52.8,136.7z"/>
	<circle style="fill:#FFFFFF;" cx="37.6" cy="155.1" r="15.5"/>
	<path d="M210.8,121.2c-9.4,0-18,3.9-24.1,10.1l6.6,5.9l0.2,0.2l-8.1,4.2l0.9,3l-9.1,5.8c-0.2,1.5-0.3,3.1-0.3,4.6
		c0,18.7,15.2,33.9,33.9,33.9c18.7,0,33.9-15.2,33.9-33.9C244.7,136.4,229.5,121.2,210.8,121.2z"/>
	<path d="M224.6,74.7c-10,5.4-29.3,4.2-29.3,4.2l-5.8,7.2c-8.2,8.6-33,4.9-37.8,4.1l1.6,9c0,0,0,0.1,0.1,0.1
		c1.6,1.7,4.3,4.5,6.7,5.5l34.8-9.8l3-5.2l27.9-9l3.9-5.4L224.6,74.7z"/>
	<path d="M84.5,82.4l-4.6-1.9l1.5-1.7L77.5,77c0,0-1.2-1.8,0-3.5c0,0,0.4-1.3,2.5-1.1l5.1,2.1c-0.2-4.1-8.3-6.1-8.3-6.1L74,64.6
		l-3.9,0l-0.9,9.6l-2.5,3.1l0.4,6.6l-4.5,0.2l2.4-5.4l-5.9-9.3l5.9-3.4L64.8,66c-2.3,0.7-5.1-0.1-5.1-0.1C46,73.7,48,87,48,87
		c1.9,1.3,4.2,2.2,6.7,2.7c13.3,2.7,32.7-4.3,32.7-4.3l-0.5-2L84.5,82.4z"/>
	<circle style="fill:#B4B4B5;" cx="210.8" cy="155.1" r="23.9"/>
	<circle style="fill:#FFFFFF;" cx="210.8" cy="155.1" r="15.5"/>
	<path style="fill:#D3D3D3;" d="M249.1,121.1l-7.8,0.2l-3.4-2.2l-44.4,18.3l-8.1,4.2l0.9,3l-30,19.3c3.1,0.6,4.7,1.3,5.5,1.9
		l26.5-15.8l1.6,2.4l19.5-5.6l3.2,1.2l5.8-1.8l2.4-4l22.9-8.6l0.4-4l5.6-3L249.1,121.1z"/>
	<path style="fill:#D3D3D3;" d="M44.9,135l-11.3,20c0.5,4.7,5.6,3.4,5.6,3.4l11.1-20.2l0,0L44.9,135z"/>
	<path style="opacity:0.2;" d="M47.7,112.1c-6.1,0.7-24.4,3.3-30.3,12.1c0,0,17.4-0.7,31.3,5.4c0,0,5.8,1.2,10.6-0.8l6.6,3.2
		C60.2,123.3,53.4,116.7,47.7,112.1z"/>
	<path style="opacity:0.2;" d="M246.9,82.5l-0.8-7.2L230,75.5l-0.3,0l-3.9,5.4l-27.9,9l-3,5.2l-34.8,9.8c-2.4-1.1-5.2-3.9-6.8-5.6
		l-1.6-9l-0.2-1.3c-13.8-26.9-45.4-16.6-59.8-10.1c0,0.3,0,0.7-0.2,1.1c0,0-1.8,4.1-5,1.3c-1.1,0.6-1.8,1-2.1,1.2l2.4,1l0.5,2
		c25.3,3.2,36.6,20.9,36.6,20.9c0.1,0.2,0.2,0.4,0.3,0.6l0,0c0,0,0,0,0,0c0,0,0,0,0,0l0,0c3.2,6.4,15.1,13.9,20.9,17.3
		c0.4,0.2,2.9,1.6,3.3,1.8c-15.2,9.3-19.5,24.7-19.5,24.7c3.6,14.3,27.3,13.1,27.3,13.1l30-19.3l-0.9-3l8.1-4.2l-0.2-0.2l-7.5-6.8
		l-8.4-4.6h-12.3l57.7-24.1l0.9,0.6l10.4,2.4l4.6,7l8,1.8l-8.8-21.7C241.7,90.8,246.9,82.5,246.9,82.5z"/>
</g>
</svg>
