<?xml version="1.0" encoding="utf-8"?>
<!-- Generator: Adobe Illustrator 22.1.0, SVG Export Plug-In . SVG Version: 6.00 Build 0)  -->
<svg version="1.1" id="Layer_1" xmlns="http://www.w3.org/2000/svg" xmlns:xlink="http://www.w3.org/1999/xlink" x="0px" y="0px"
	 viewBox="0 0 256 256" style="enable-background:new 0 0 256 256;" xml:space="preserve">
<g>
	<polygon style="fill:#E6E7E8;" points="120.8,36.6 149.3,182.1 246,153.8 	"/>
	<polygon style="fill:#A87C4F;" points="149.3,182.1 150.8,188.5 251.2,158.6 246,153.8 	"/>
	<path style="fill:#EC1C24;" d="M116,12.3c0,0,23.1-7.2,25.8-4.4s14.7,2.4,18.7,2s22.7-4.4,22.7-4.4l-15.9,8.3l25.8-2
		c0,0-39,16.7-43.7,11.9s-27.8-0.8-30.2,5.6"/>
	<path style="opacity:0.2;" d="M11.1,204.5c2.5,5.7,5.5,10.8,8.7,15.3c28.7,4.7,141.6,21.8,201.7,11.3l8.2-23.9
		C166.1,219.8,38.5,207.4,11.1,204.5z"/>
	<path style="fill:#E6E7E8;" d="M74.9,182.4c26.6-4.5,56.5-5.4,73.4,7.7c0,0-27.6-23.4-33.5-49.9c-2.7-15.2-4.9-35.7-3.5-55.7
		c1.1-15.2,3.9-31.3,9.4-48c0,0-20.5,13.8-42.4,34.8c-13.8,13.2-28.1,29.2-38.3,46.4l-0.1,0.3c-10.3,17.4-22.4,44.3-21.5,65.4
		C30.1,181,49.2,178.7,74.9,182.4z"/>
	<path style="fill:#8A5D3B;" d="M153.5,202.9L116,12.3l25.6,188.6C144.9,201.7,148.9,202.4,153.5,202.9z"/>
</g>
</svg>
