<?xml version="1.0" encoding="utf-8"?>
<!-- Generator: Adobe Illustrator 22.1.0, SVG Export Plug-In . SVG Version: 6.00 Build 0)  -->
<svg version="1.1" id="Layer_1" xmlns="http://www.w3.org/2000/svg" xmlns:xlink="http://www.w3.org/1999/xlink" x="0px" y="0px"
	 viewBox="0 0 256 256" style="enable-background:new 0 0 256 256;" xml:space="preserve">
<g style="opacity:0;">
	<polygon style="opacity:0.5;" points="149.3,182.1 150.8,188.5 251.2,158.6 246,153.8 	"/>
	<polygon style="opacity:0.5;" points="116,12.3 142.3,205.5 153.8,204.4 	"/>
	<path style="fill:#FFFFFF;" d="M5.6,187.5c0,0,46-21.3,125.8,10.4c0,0,29.9,12.4,68.9,0.5c0,0,31.1-7.7,36.2-12.7l-20.7,61.9
		L51.4,248C51.4,248,14.9,230.4,5.6,187.5z"/>
	<path style="opacity:0.5;" d="M11.1,204.5c2.5,5.7,5.5,10.8,8.7,15.3c28.7,4.7,141.6,21.8,201.7,11.3l8.2-23.9
		C166.1,219.8,38.5,207.4,11.1,204.5z"/>
</g>
<g>
	<path style="fill:#E6E7E8;" d="M21.1,196.5c0,0,91.8-33.8,127.2-6.4c0,0-29-24.6-33.9-52c-25.2-1.8-55.5-12.6-74.1-20.2
		C27.7,139.2,12.3,174.6,21.1,196.5z"/>
	<path style="fill:#E6E7E8;" d="M111.4,84.5c-11.3-3.8-23.1-8.7-33-13.2c-13.8,13.2-28.1,29.2-38.3,46.4
		c18.7,7.6,48.9,18.4,74.1,20.2C111.6,122.8,109.9,104.6,111.4,84.5z"/>
	<path style="fill:#E6E7E8;" d="M120.8,36.6c0,0-20.5,13.8-42.4,34.8c9.9,4.5,21.6,9.4,33,13.2C112.4,69.4,115.3,53.2,120.8,36.6z"
		/>
	<polygon style="fill:#E6E7E8;" points="120.8,36.6 149.3,182.1 246,153.8 	"/>
	<path style="fill:#EC1C24;" d="M116,12.3c0,0,23.1-7.2,25.8-4.4s14.7,2.4,18.7,2s22.7-4.4,22.7-4.4l-15.9,8.3l25.8-2
		c0,0-39,16.7-43.7,11.9s-27.8-0.8-30.2,5.6"/>
</g>
</svg>
