<?xml version="1.0" encoding="utf-8"?>
<!-- Generator: Adobe Illustrator 22.1.0, SVG Export Plug-In . SVG Version: 6.00 Build 0)  -->
<svg version="1.1" id="Layer_1" xmlns="http://www.w3.org/2000/svg" xmlns:xlink="http://www.w3.org/1999/xlink" x="0px" y="0px"
	 viewBox="0 0 256 256" style="enable-background:new 0 0 256 256;" xml:space="preserve">
<g>
	<path style="fill:#FAC90A;" d="M226.5,138.1v-35.7c0-2.7-2.2-4.9-4.9-4.9h-4.1v-8v-3V51.8c0-3.5-2.8-6.3-6.3-6.3H159
		c-3.2,0-5.8,2.3-6.3,5.4l-4.8,35.6H95.1c-3.7,0-6.6,3-6.6,6.6V137h-8.3c-15.3,0-27.8,12.4-27.8,27.7l0,0c0,0.6,0,1.3,0.1,1.9
		l-17.2,3l4-6.5l-1.1-27.9l-5.6,0.9L30,161.5l-5.5,10l-2.5,0.4c-2.2,0.4-3.6,2.4-3.3,4.6c0.2,1.1,0.8,2,1.6,2.6L11,195.9l8.5-1
		l10.1-16.1l24.7-4.2c4,10.5,14.1,18,26,18h138.5c15.3,0,27.8-12.4,27.8-27.8l0,0C246.5,152.1,238.1,141.5,226.5,138.1z
		 M236.7,164.8c0,10.4-8.4,18.8-18.8,18.8H81.1c-7.5,0-13.9-4.4-16.9-10.7l9.5-1.6c2.1,3.2,5.7,5.3,9.9,5.3c5.4,0,9.9-3.6,11.3-8.6
		l56.6-7.8c2.2-0.3,3.8-2.4,3.4-4.6c-0.3-2.2-2.4-3.7-4.5-3.4l-56.1,7.7c-1.9-4.1-6-6.9-10.7-6.9c-6,0-11,4.5-11.7,10.4l-9.5,1.6
		c0-0.1,0-0.1,0-0.2l0,0c0-10.4,8.4-18.7,18.8-18.7H218C228.3,146,236.7,154.4,236.7,164.8L236.7,164.8z"/>
	<path style="fill:#FAC90A;" d="M216.5,153c-6.3,0-11.5,5-11.8,11.2l-55.8,7.1c-1.9,0.2-3.2,1.9-2.9,3.8c0.2,1.9,1.9,3.2,3.8,2.9
		l56.6-7.2c2.1,3.4,5.8,5.7,10.1,5.7c6.5,0,11.8-5.3,11.8-11.8S223,153,216.5,153z"/>
</g>
</svg>
