<?xml version="1.0" encoding="utf-8"?>
<!-- Generator: Adobe Illustrator 22.1.0, SVG Export Plug-In . SVG Version: 6.00 Build 0)  -->
<svg version="1.1" id="Layer_1" xmlns="http://www.w3.org/2000/svg" xmlns:xlink="http://www.w3.org/1999/xlink" x="0px" y="0px"
	 viewBox="0 0 256 256" style="enable-background:new 0 0 256 256;" xml:space="preserve">
<g>
	<path style="fill:#FFFFFF;" d="M211.3,45.5H159c-3.2,0-5.8,2.3-6.3,5.4l-4.8,35.6H95.1c-3.7,0-6.6,3-6.6,6.6v46.4h129v-50v-3V51.8
		C217.5,48.3,214.7,45.5,211.3,45.5z"/>
	<path style="opacity:0.43;fill:#191919;" d="M226.5,139.5h-9v-42h4.1c2.7,0,4.9,2.2,4.9,4.9V139.5z"/>
	<path style="fill:#C9C9C9;" d="M218.8,137H80.3c-15.3,0-27.8,12.4-27.8,27.7v0c0,15.3,12.4,27.8,27.8,27.8h138.5
		c15.3,0,27.8-12.4,27.8-27.8v0C246.5,149.4,234.1,137,218.8,137z M236.7,164.8c0,10.4-8.4,18.8-18.8,18.8H81.1
		c-10.4,0-18.8-8.4-18.8-18.8v0c0-10.4,8.4-18.7,18.8-18.7h136.8C228.3,146,236.7,154.4,236.7,164.8L236.7,164.8z"/>
	<path style="fill:#C9C9C9;" d="M214.6,169.8l-64.9,8.3c-1.9,0.2-3.6-1.1-3.8-2.9v0c-0.2-1.9,1.1-3.6,2.9-3.8l64.9-8.3L214.6,169.8z
		"/>
	<path style="fill:#C9C9C9;" d="M154.9,155.6c0.3,2.2-1.2,4.3-3.4,4.6l-68,9.4l-60,10.3c-2.2,0.4-4.3-1.1-4.7-3.4l0,0
		c-0.3-2.2,1.1-4.2,3.3-4.6l60-10.3l68.3-9.4C152.5,151.9,154.6,153.4,154.9,155.6L154.9,155.6z"/>
	<circle style="fill:#D4A82B;" cx="83.5" cy="165.8" r="4.3"/>
	<circle style="fill:#C9C9C9;" cx="216.5" cy="164.8" r="11.8"/>
	<circle style="opacity:0.43;fill:#191919;" cx="216.5" cy="165.8" r="4.3"/>
	<polygon style="fill:#FFFFFF;" points="38.3,135.3 39.4,163.1 19.5,194.9 11,195.9 30,161.5 32.6,136.1 	"/>
	<polygon style="opacity:0.43;fill:#191919;" points="189.8,51.7 158.3,51.7 153,91.7 153,131.7 189.8,131.7 	"/>
	<polygon style="opacity:0.43;fill:#191919;" points="194,51.7 194,89.8 217.5,89.8 217.5,51.8 	"/>
	<circle style="fill:#C9C9C9;" cx="83.5" cy="164.8" r="11.8"/>
</g>
<g style="opacity:0;">
	<path style="fill:#41484D;" d="M217.9,146H81.1c-10.4,0-18.8,8.4-18.8,18.7v0c0,0.1,0,0.1,0,0.2l9.5-1.6
		c0.7-5.8,5.7-10.4,11.7-10.4c4.8,0,8.9,2.9,10.7,6.9l56.1-7.7c2.2-0.3,4.2,1.2,4.5,3.4c0.3,2.2-1.2,4.3-3.4,4.6L94.8,168
		c-1.4,4.9-5.9,8.6-11.3,8.6c-4.1,0-7.7-2.1-9.9-5.3l-9.5,1.6c3,6.3,9.4,10.7,16.9,10.7h136.8c10.4,0,18.8-8.4,18.8-18.8v0
		C236.7,154.4,228.3,146,217.9,146z M216.5,176.5c-4.3,0-8-2.3-10.1-5.7l-56.6,7.2c-1.9,0.2-3.6-1.1-3.8-2.9
		c-0.2-1.9,1.1-3.6,2.9-3.8l55.8-7.1c0.3-6.2,5.4-11.2,11.8-11.2c6.5,0,11.8,5.3,11.8,11.8C228.3,171.3,223,176.5,216.5,176.5z"/>
	<polygon style="fill:#40474C;" points="26.9,138 23.9,162.5 7,193.6 11,195.9 30,161.5 32.6,136.1 	"/>
	<rect x="98.6" y="94.9" style="fill:#4F4B43;" width="27.4" height="2.9"/>
	<rect x="98.6" y="100.9" style="fill:#4F4B43;" width="27.4" height="2.9"/>
	<rect x="98.6" y="106.9" style="fill:#4F4B43;" width="27.4" height="2.9"/>
	<rect x="98.6" y="113.3" style="fill:#4F4B43;" width="27.4" height="2.9"/>
	<polygon style="fill:#63AFB8;" points="160.3,54.8 156.5,92.5 187,92.5 187,54.8 	"/>
	<rect x="197.3" y="54.8" style="fill:#63AFB8;" width="17" height="32.5"/>
</g>
</svg>
