<?xml version="1.0" encoding="utf-8"?>
<!-- Generator: Adobe Illustrator 22.1.0, SVG Export Plug-In . SVG Version: 6.00 Build 0)  -->
<svg version="1.1" id="Layer_1" xmlns="http://www.w3.org/2000/svg" xmlns:xlink="http://www.w3.org/1999/xlink" x="0px" y="0px"
	 viewBox="0 0 256 256" style="enable-background:new 0 0 256 256;" xml:space="preserve">
<g>
	<path style="fill:#41484D;" d="M217.9,146H81.1c-10.4,0-18.8,8.4-18.8,18.7l0,0c0,0.1,0,0.1,0,0.2l9.5-1.6
		c0.7-5.8,5.7-10.4,11.7-10.4c4.8,0,8.9,2.9,10.7,6.9l56.1-7.7c2.2-0.3,4.2,1.2,4.5,3.4s-1.2,4.3-3.4,4.6L94.8,168
		c-1.4,4.9-5.9,8.6-11.3,8.6c-4.1,0-7.7-2.1-9.9-5.3l-9.5,1.6c3,6.3,9.4,10.7,16.9,10.7h136.8c10.4,0,18.8-8.4,18.8-18.8l0,0
		C236.7,154.4,228.3,146,217.9,146z M216.5,176.5c-4.3,0-8-2.3-10.1-5.7l-56.6,7.2c-1.9,0.2-3.6-1.1-3.8-2.9
		c-0.2-1.9,1.1-3.6,2.9-3.8l55.8-7.1c0.3-6.2,5.4-11.2,11.8-11.2c6.5,0,11.8,5.3,11.8,11.8C228.3,171.3,223,176.5,216.5,176.5z"/>
	<polygon style="fill:#40474C;" points="26.9,138 23.9,162.5 7,193.6 11,195.9 30,161.5 32.6,136.1 	"/>
	<rect x="98.6" y="94.9" style="fill:#4F4B43;" width="27.4" height="2.9"/>
	<rect x="98.6" y="100.9" style="fill:#4F4B43;" width="27.4" height="2.9"/>
	<rect x="98.6" y="106.9" style="fill:#4F4B43;" width="27.4" height="2.9"/>
	<rect x="98.6" y="113.3" style="fill:#4F4B43;" width="27.4" height="2.9"/>
	<path style="opacity:0.2;enable-background:new    ;" d="M218.8,137H80.3c-15.3,0-27.8,12.4-27.8,27.7l0,0
		c0,15.3,12.4,27.8,27.8,27.8h138.5c15.3,0,27.8-12.4,27.8-27.8l0,0C246.5,149.4,234.1,137,218.8,137z M236.7,164.8
		c0,10.4-8.4,18.8-18.8,18.8H81.1c-10.4,0-18.8-8.4-18.8-18.8l0,0c0-10.4,8.4-18.7,18.8-18.7h136.8
		C228.3,146,236.7,154.4,236.7,164.8L236.7,164.8z"/>
	<path style="opacity:0.2;enable-background:new    ;" d="M73.6,171.2c2.1,3.2,5.7,5.3,9.9,5.3c5.4,0,9.9-3.6,11.3-8.6l56.6-7.8
		c2.2-0.3,3.8-2.4,3.4-4.6c-0.3-2.2-2.4-3.7-4.5-3.4l-56.1,7.7c-1.9-4.1-6-6.9-10.7-6.9c-6,0-11,4.5-11.7,10.4l-9.5,1.6
		c0,2.8,0.7,5.5,1.8,7.9L73.6,171.2z"/>
	<path style="opacity:0.2;enable-background:new    ;" d="M52.6,166.6l-17.2,3l-5.8,9.2l24.7-4.2C53.3,172.1,52.8,169.4,52.6,166.6z
		"/>
	<path style="opacity:0.2;enable-background:new    ;" d="M216.5,153c-6.3,0-11.5,5-11.8,11.2l-55.8,7.1c-1.9,0.2-3.2,1.9-2.9,3.8
		c0.2,1.9,1.9,3.2,3.8,2.9l56.6-7.2c2.1,3.4,5.8,5.7,10.1,5.7c6.5,0,11.8-5.3,11.8-11.8S223,153,216.5,153z"/>
	<path style="opacity:0.2;enable-background:new    ;" d="M218.8,137c2.7,0,5.3,0.4,7.8,1.1v-35.7c0-2.7-2.2-4.9-4.9-4.9h-4.1V137
		H218.8z"/>
	<polygon style="opacity:0.2;enable-background:new    ;" points="189.8,51.7 158.3,51.7 153,91.7 153,131.7 189.8,131.7 	"/>
	<polygon style="opacity:0.2;enable-background:new    ;" points="194,51.7 194,89.8 217.5,89.8 217.5,51.8 	"/>
	<circle style="opacity:0.5;enable-background:new    ;" cx="83.5" cy="165.8" r="4.3"/>
	<circle style="opacity:0.5;enable-background:new    ;" cx="216.5" cy="165.8" r="4.3"/>
	<polygon style="fill:#63AFB8;" points="160.3,54.8 156.5,92.5 187,92.5 187,54.8 	"/>
	<rect x="196.7" y="54.8" style="fill:#63AFB8;" width="18.8" height="32.5"/>
</g>
</svg>
