<?xml version="1.0" encoding="utf-8"?>
<!-- Generator: Adobe Illustrator 22.1.0, SVG Export Plug-In . SVG Version: 6.00 Build 0)  -->
<svg version="1.1" id="Layer_1" xmlns="http://www.w3.org/2000/svg" xmlns:xlink="http://www.w3.org/1999/xlink" x="0px" y="0px"
	 viewBox="0 0 256 256" style="enable-background:new 0 0 256 256;" xml:space="preserve">
<g>
	<g>
		<path style="fill:#FAC90A;" d="M226.5,138.1v-35.7c0-2.7-2.2-4.9-4.9-4.9h-4.1v-8v-3V51.8c0-3.5-2.8-6.3-6.3-6.3H159
			c-3.2,0-5.8,2.3-6.3,5.4l-4.8,35.6H95.1c-3.7,0-6.6,3-6.6,6.6V137h-8.3c-15.3,0-27.8,12.4-27.8,27.7v0c0,0.6,0,1.3,0.1,1.9
			l-17.2,3l4-6.5l-1.1-27.9l-5.6,0.9L30,161.5l-5.5,10l-2.5,0.4c-2.2,0.4-3.6,2.4-3.3,4.6c0.2,1.1,0.8,2,1.6,2.6L11,195.9l8.5-1
			l10.1-16.1l24.7-4.2c4,10.5,14.1,18,26,18h138.5c15.3,0,27.8-12.4,27.8-27.8v0C246.5,152.1,238.1,141.5,226.5,138.1z M236.7,164.8
			c0,10.4-8.4,18.8-18.8,18.8H81.1c-7.5,0-13.9-4.4-16.9-10.7l9.5-1.6c2.1,3.2,5.7,5.3,9.9,5.3c5.4,0,9.9-3.6,11.3-8.6l56.6-7.8
			c2.2-0.3,3.8-2.4,3.4-4.6c-0.3-2.2-2.4-3.7-4.5-3.4l-56.1,7.7c-1.9-4.1-6-6.9-10.7-6.9c-6,0-11,4.5-11.7,10.4l-9.5,1.6
			c0-0.1,0-0.1,0-0.2v0c0-10.4,8.4-18.7,18.8-18.7h136.8C228.3,146,236.7,154.4,236.7,164.8L236.7,164.8z"/>
		<path style="fill:#FAC90A;" d="M216.5,153c-6.3,0-11.5,5-11.8,11.2l-55.8,7.1c-1.9,0.2-3.2,1.9-2.9,3.8c0.2,1.9,1.9,3.2,3.8,2.9
			l56.6-7.2c2.1,3.4,5.8,5.7,10.1,5.7c6.5,0,11.8-5.3,11.8-11.8C228.3,158.2,223,153,216.5,153z"/>
	</g>
	<path style="opacity:0.4;" d="M218.8,137H80.3c-15.3,0-27.8,12.4-27.8,27.7v0c0,15.3,12.4,27.8,27.8,27.8h138.5
		c15.3,0,27.8-12.4,27.8-27.8v0C246.5,149.4,234.1,137,218.8,137z M236.7,164.8c0,10.4-8.4,18.8-18.8,18.8H81.1
		c-10.4,0-18.8-8.4-18.8-18.8v0c0-10.4,8.4-18.7,18.8-18.7h136.8C228.3,146,236.7,154.4,236.7,164.8L236.7,164.8z"/>
	<path style="opacity:0.4;" d="M73.6,171.2c2.1,3.2,5.7,5.3,9.9,5.3c5.4,0,9.9-3.6,11.3-8.6l56.6-7.8c2.2-0.3,3.8-2.4,3.4-4.6
		c-0.3-2.2-2.4-3.7-4.5-3.4l-56.1,7.7c-1.9-4.1-6-6.9-10.7-6.9c-6,0-11,4.5-11.7,10.4l-9.5,1.6c0,2.8,0.7,5.5,1.8,7.9L73.6,171.2z"
		/>
	<path style="opacity:0.4;" d="M52.6,166.6l-17.2,3l-5.8,9.2l24.7-4.2C53.3,172.1,52.8,169.4,52.6,166.6z"/>
	<path style="opacity:0.4;" d="M216.5,153c-6.3,0-11.5,5-11.8,11.2l-55.8,7.1c-1.9,0.2-3.2,1.9-2.9,3.8c0.2,1.9,1.9,3.2,3.8,2.9
		l56.6-7.2c2.1,3.4,5.8,5.7,10.1,5.7c6.5,0,11.8-5.3,11.8-11.8C228.3,158.2,223,153,216.5,153z"/>
	<path style="opacity:0.4;" d="M218.8,137c2.7,0,5.3,0.4,7.8,1.1v-35.7c0-2.7-2.2-4.9-4.9-4.9h-4.1V137H218.8z"/>
	<polygon style="opacity:0.4;" points="189.8,51.7 158.3,51.7 153,91.7 153,131.7 189.8,131.7 	"/>
	<polygon style="opacity:0.4;" points="194,51.7 194,89.8 217.5,89.8 217.5,51.8 	"/>
	<circle style="opacity:0.5;" cx="83.5" cy="165.8" r="4.3"/>
	<circle style="opacity:0.5;" cx="216.5" cy="165.8" r="4.3"/>
</g>
<g style="opacity:0;">
	<path style="fill:#41484D;" d="M217.9,146H81.1c-10.4,0-18.8,8.4-18.8,18.7v0c0,0.1,0,0.1,0,0.2l9.5-1.6
		c0.7-5.8,5.7-10.4,11.7-10.4c4.8,0,8.9,2.9,10.7,6.9l56.1-7.7c2.2-0.3,4.2,1.2,4.5,3.4c0.3,2.2-1.2,4.3-3.4,4.6L94.8,168
		c-1.4,4.9-5.9,8.6-11.3,8.6c-4.1,0-7.7-2.1-9.9-5.3l-9.5,1.6c3,6.3,9.4,10.7,16.9,10.7h136.8c10.4,0,18.8-8.4,18.8-18.8v0
		C236.7,154.4,228.3,146,217.9,146z M216.5,176.5c-4.3,0-8-2.3-10.1-5.7l-56.6,7.2c-1.9,0.2-3.6-1.1-3.8-2.9
		c-0.2-1.9,1.1-3.6,2.9-3.8l55.8-7.1c0.3-6.2,5.4-11.2,11.8-11.2c6.5,0,11.8,5.3,11.8,11.8C228.3,171.3,223,176.5,216.5,176.5z"/>
	<polygon style="fill:#40474C;" points="26.9,138 23.9,162.5 7,193.6 11,195.9 30,161.5 32.6,136.1 	"/>
	<rect x="98.6" y="94.9" style="fill:#4F4B43;" width="27.4" height="2.9"/>
	<rect x="98.6" y="100.9" style="fill:#4F4B43;" width="27.4" height="2.9"/>
	<rect x="98.6" y="106.9" style="fill:#4F4B43;" width="27.4" height="2.9"/>
	<rect x="98.6" y="113.3" style="fill:#4F4B43;" width="27.4" height="2.9"/>
	<polygon style="fill:#63AFB8;" points="160.3,54.8 156.5,92.5 187,92.5 187,54.8 	"/>
	<rect x="197.3" y="54.8" style="fill:#63AFB8;" width="17" height="32.5"/>
</g>
</svg>
