<?xml version="1.0" encoding="utf-8"?>
<!-- Generator: Adobe Illustrator 22.1.0, SVG Export Plug-In . SVG Version: 6.00 Build 0)  -->
<svg version="1.1" id="Layer_1" xmlns="http://www.w3.org/2000/svg" xmlns:xlink="http://www.w3.org/1999/xlink" x="0px" y="0px"
	 viewBox="0 0 256 256" style="enable-background:new 0 0 256 256;" xml:space="preserve">
<g>
	<path style="fill:#7AAFFC;" d="M243.1,73.4L22.8,73.5c0,0-12.8,23.9-15.7,55.6v42.4c0,3.5,2.9,6.4,6.4,6.4h58
		c-0.3-1.4-0.5-2.9-0.5-4.5c0-11.5,9.4-20.9,20.9-20.9s20.9,9.4,20.9,20.9c0,1.5-0.2,3-0.5,4.5h68.1c-0.3-1.4-0.5-2.9-0.5-4.5
		c0-11.5,9.4-20.9,20.9-20.9c11.5,0,20.9,9.4,20.9,20.9c0,1.5-0.2,3-0.5,4.5h21.8c3.5,0,6.4-2.9,6.4-6.4V79.8
		C249.4,76.3,246.6,73.4,243.1,73.4z"/>
</g>
</svg>
