<?xml version="1.0" encoding="utf-8"?>
<!-- Generator: Adobe Illustrator 22.1.0, SVG Export Plug-In . SVG Version: 6.00 Build 0)  -->
<svg version="1.1" id="Layer_1" xmlns="http://www.w3.org/2000/svg" xmlns:xlink="http://www.w3.org/1999/xlink" x="0px" y="0px"
	 viewBox="0 0 256 256" style="enable-background:new 0 0 256 256;" xml:space="preserve">
<g>
	<path style="fill:#DDDDDD;" d="M232.2,84.5H78.6c-4.8,0-8.8,3.9-8.8,8.8v15.6c0,4.8,3.9,8.8,8.8,8.8h153.6c4.8,0,8.8-3.9,8.8-8.8
		V93.2C241,88.4,237,84.5,232.2,84.5z"/>
	<path style="fill:#DDDDDD;" d="M35.1,90h21.6c3,0,5.4,2.4,5.4,5.4v72c0,3-2.4,5.4-5.4,5.4H35.1c-3,0-5.4-2.4-5.4-5.4v-72
		C29.8,92.4,32.2,90,35.1,90z"/>
	<circle style="fill:#070707;" cx="200.5" cy="173.5" r="19.5"/>
	<circle style="fill:#070707;" cx="91.6" cy="173.5" r="19.5"/>
	<circle style="fill:#DDDDDD;" cx="91.6" cy="173.5" r="11.8"/>
	<circle style="fill:#DDDDDD;" cx="200.5" cy="173.5" r="11.8"/>
	<path style="fill:#DDDDDD;" d="M24.2,111.2V92.4c0-3.8-2.7-6.9-6.2-7.6c0,0-0.1,0.1-0.4,0.4c-3.1,8-6.9,19.7-9.2,33.5
		c0,0.1,0,0.1,0.1,0.2h8C20.8,118.9,24.2,115.5,24.2,111.2z"/>
	<path style="opacity:0.2;" d="M102.3,127.1c-14.2,0.2-27.8,1.5-40.1,3.3v36.8c0,3.1-2.5,5.6-5.6,5.6H35.3c-3.1,0-5.6-2.5-5.6-5.6
		v-30.6c-8.9,2.1-17.5,4.4-22.7,5.8v29.2c0,3.5,2.9,6.4,6.4,6.4h58c-0.3-1.4-0.5-2.9-0.5-4.5c0-11.5,9.4-20.9,20.9-20.9
		s20.9,9.4,20.9,20.9c0,1.5-0.2,3-0.5,4.5h68.1c-0.3-1.4-0.5-2.9-0.5-4.5c0-11.5,9.4-20.9,20.9-20.9c11.5,0,20.9,9.4,20.9,20.9
		c0,1.5-0.2,3-0.5,4.5h21.8c3.5,0,6.4-2.9,6.4-6.4v-29.2C186.3,154.1,152.2,126.4,102.3,127.1z"/>
</g>
</svg>
