<?xml version="1.0" encoding="utf-8"?>
<!-- Generator: Adobe Illustrator 22.1.0, SVG Export Plug-In . SVG Version: 6.00 Build 0)  -->
<svg version="1.1" id="Layer_1" xmlns="http://www.w3.org/2000/svg" xmlns:xlink="http://www.w3.org/1999/xlink" x="0px" y="0px"
	 viewBox="0 0 256 256" style="enable-background:new 0 0 256 256;" xml:space="preserve">
<g>
	<path style="fill:#FCC342;" d="M245.5,141.6v-17c0,0-22.2-23.3-47.3-30c-1.6-0.4-3.3-0.7-5-0.7h-62.4c-2,0-4,0.1-6,0.4
		c-9.3,1.4-34.5,6.8-55.4,26.8c0,0-47.7-5.7-59.1,22.7v19.3c0,0,0,4.5,4.5,5.7l20.8-0.3c-1.1-3.6-1.3-7.6-0.3-11.8
		c2.3-9.8,10.9-17.2,21-17.9c13.6-1,25,9.8,25,23.2c0,2-0.3,3.9-0.8,5.8l106.1-1.7c-0.2-1.3-0.4-2.7-0.4-4.1
		c0-12.9,10.4-23.3,23.3-23.3c12.9,0,23.3,10.4,23.3,23.3c0,1.2-0.1,2.3-0.3,3.4c3-0.1,14.5-1,17.5-7.9v-10.2L245.5,141.6z"/>
</g>
</svg>
