<?xml version="1.0" encoding="utf-8"?>
<!-- Generator: Adobe Illustrator 22.1.0, SVG Export Plug-In . SVG Version: 6.00 Build 0)  -->
<svg version="1.1" id="Layer_1" xmlns="http://www.w3.org/2000/svg" xmlns:xlink="http://www.w3.org/1999/xlink" x="0px" y="0px"
	 viewBox="0 0 256 256" style="enable-background:new 0 0 256 256;" xml:space="preserve">
<g>
	<path style="opacity:0.2;enable-background:new    ;" d="M11.1,142.2l23.2-2.5l211.2-12.9v-2.3c0,0-22.2-23.3-47.3-30
		c-1.6-0.4-3.3-0.7-5-0.7h-62.4c-2,0-4,0.1-6,0.4c-9.3,1.4-34.5,6.8-55.4,26.8C69.4,121.2,23.6,115.7,11.1,142.2z"/>
	<circle cx="58" cy="162.1" r="19.3"/>
	<path style="fill:#FFFFF6;" d="M10.3,143.9h18.9c0,0,8.8-5.7,8.7-11.1c-0.1-5.4-19.7,1.9-23.8,4.4
		C12.4,139.4,11.2,141.7,10.3,143.9z"/>
	<path style="fill:#494747;" d="M106.9,98.8c0,0,9.1-0.5,4.1,2.7s-29.3,19.3-29.3,19.3l-12.4,0.4C69.4,121.2,86.2,104.6,106.9,98.8z
		"/>
	<path style="fill:#494747;" d="M148.1,99.5c0,0-0.6,18.3-4.1,20.4l-54.4,1.3c0,0,18.9-16.3,37.1-20.2
		C144.8,97.2,148.1,99.5,148.1,99.5z"/>
	<path style="fill:#494747;" d="M154.9,98.8v20h52.7c0,0-7.1-18-24.3-20H154.9z"/>
	<path style="fill:#494747;" d="M213.5,100.6c0,0-4.3,2.2-2.6,4.4c1.7,2.1,16.2,12.9,16.2,12.9h11.3
		C238.4,117.9,220.3,102.5,213.5,100.6z"/>
	<path style="fill:#BC0C27;" d="M245.5,126.9l-13.1,0.7c0,0,1.7,10.1,13.1,14.1V126.9z"/>
	<rect x="244.8" y="148.9" style="fill:#BC0C27;" width="5.5" height="4.7"/>
	<path style="fill:#423D3E;" d="M10.3,155.3h9.5c0,0,4.5,5.8,4.3,8.8H10.3V155.3z"/>
	<circle style="fill:#BFC7C9;" cx="58" cy="162.1" r="13"/>
	<circle cx="209.1" cy="162.1" r="19.3"/>
	<circle style="fill:#BFC7C9;" cx="209.1" cy="162.1" r="13"/>
</g>
</svg>
