<?xml version="1.0" encoding="utf-8"?>
<!-- Generator: Adobe Illustrator 22.1.0, SVG Export Plug-In . SVG Version: 6.00 Build 0)  -->
<svg version="1.1" id="Layer_1" xmlns="http://www.w3.org/2000/svg" xmlns:xlink="http://www.w3.org/1999/xlink" x="0px" y="0px"
	 viewBox="0 0 256 256" style="enable-background:new 0 0 256 256;" xml:space="preserve">
<g>
	<rect x="15" y="139.4" style="fill:#FFFFFF;" width="147" height="31.2"/>
	<path style="opacity:0.5;" d="M136.4,151.7c-13.5,0-24.5,11-24.5,24.5c0,13.5,11,24.5,24.5,24.5c13.5,0,24.5-11,24.5-24.5
		C160.9,162.6,149.9,151.7,136.4,151.7z M152.4,186.3l-11-8.4l-2,2.7l11,8.4c-3.1,3.4-7.4,5.7-12.3,6.1v-13.8h-3.3V195
		c-3.8-0.3-7.4-1.8-10.2-4.1l9.6-10l-2.4-2.3l-9.6,10c-2.4-2.8-4-6.2-4.5-10l13.8-0.5l-0.1-3.3l-13.8,0.5c0.2-3.9,1.5-7.4,3.7-10.3
		l10.3,9.2l2.2-2.5l-10.3-9.2c2.7-2.5,6.1-4.3,9.8-4.9l1.1,13.8l3.3-0.3l-1.1-13.8c3.9,0,7.5,1.3,10.5,3.3l-8.8,10.7l2.6,2.1
		l8.8-10.7c2.6,2.6,4.5,5.9,5.3,9.7l-13.8,1.6l0.4,3.3l13.7-1.6c0,0.2,0,0.3,0,0.5C155.3,179.9,154.2,183.3,152.4,186.3z"/>
	<path style="opacity:0.5;" d="M46.1,151.7c-13.5,0-24.5,11-24.5,24.5c0,13.5,11,24.5,24.5,24.5c13.5,0,24.5-11,24.5-24.5
		C70.7,162.6,59.7,151.7,46.1,151.7z M62.2,186.3l-11-8.4l-2,2.7l11,8.4c-3.1,3.4-7.4,5.7-12.3,6.1v-13.8h-3.3V195
		c-3.8-0.3-7.4-1.8-10.2-4.1l9.6-10l-2.4-2.3l-9.6,10c-2.4-2.8-4-6.2-4.5-10l13.8-0.5l-0.1-3.3l-13.8,0.5c0.2-3.9,1.5-7.4,3.7-10.3
		l10.3,9.2l2.2-2.5l-10.3-9.2c2.7-2.5,6.1-4.3,9.8-4.9l1.1,13.8l3.3-0.3l-1.1-13.8c3.9,0,7.5,1.3,10.5,3.3L48,171.2l2.6,2.1
		l8.8-10.7c2.6,2.6,4.5,5.9,5.3,9.7l-13.8,1.6l0.4,3.3l13.7-1.6c0,0.2,0,0.3,0,0.5C65.1,179.9,64,183.3,62.2,186.3z"/>
	<polygon style="opacity:0.5;" points="162,157.2 250,150.6 250,153.9 162,161.7 	"/>
	<polygon style="opacity:0.5;" points="174.3,118.2 163.1,133.8 10.5,133.8 10.5,139.4 166.5,139.4 177.6,120.5 	"/>
	<circle style="fill:#FCFCFC;" cx="136.4" cy="176.2" r="6.7"/>
	<circle style="opacity:0.5;" cx="136.4" cy="176.2" r="3.3"/>
	<circle style="fill:#FCFCFC;" cx="46.1" cy="176.2" r="6.7"/>
	<circle style="opacity:0.5;" cx="46.1" cy="176.2" r="3.3"/>
</g>
<g style="opacity:0;">
	<rect x="128.6" y="122.7" style="fill:#524741;" width="24.5" height="11.1"/>
	<path style="fill:#28ABE3;" d="M17.2,133.8l-6.7-57.2l6.7-4.6c0,0,20.1,4.6,37.9,0c0,0,18.9,6.9,36.8,0c0,0,18.9,6.9,37.9,0
		l23.4,3.4l4.5,9.2l-26.7,11.4v37.8H17.2z"/>
	<polygon style="fill:#1F80AB;" points="20,133.9 16.6,133.9 17.1,72 20,72.6 	"/>
	<polygon style="fill:#1F80AB;" points="57.3,133.9 53.9,133.9 55.1,72 57.3,72.7 	"/>
	<polygon style="fill:#1F80AB;" points="94,133.9 90.7,133.9 91.8,72 94,72.7 	"/>
	<polygon style="fill:#1F80AB;" points="130.8,133.8 127.5,133.8 127.9,72 129.6,71.4 130.9,71.6 	"/>
	<polygon style="fill:#1F80AB;" points="152.8,74.9 129.6,86.4 130.2,90.8 154.7,77.4 153.5,74.9 	"/>
</g>
</svg>
