<?xml version="1.0" encoding="utf-8"?>
<!-- Generator: Adobe Illustrator 22.1.0, SVG Export Plug-In . SVG Version: 6.00 Build 0)  -->
<svg version="1.1" id="Layer_1" xmlns="http://www.w3.org/2000/svg" xmlns:xlink="http://www.w3.org/1999/xlink" x="0px" y="0px"
	 viewBox="0 0 256 256" style="enable-background:new 0 0 256 256;" xml:space="preserve">
<g>
	<path style="fill:#CE955D;" d="M143.1,176.2c0,0.3,0,0.6-0.1,0.9c-0.1,0.6-0.2,1.1-0.5,1.7c-0.4,1-1.1,2-2,2.7
		c-0.7,0.6-1.5,1-2.5,1.2c-0.5,0.1-1.1,0.2-1.7,0.2s-1.1-0.1-1.7-0.2c-0.6-0.1-1.1-0.4-1.6-0.7c-1-0.5-1.8-1.3-2.4-2.3
		c-0.3-0.5-0.5-1-0.7-1.6c-0.2-0.6-0.3-1.3-0.3-1.9c0-0.5,0-1,0.2-1.4h0c0.1-0.6,0.3-1.1,0.6-1.6c0.5-1,1.3-1.9,2.2-2.5
		c0.5-0.3,1-0.6,1.6-0.8c0.7-0.2,1.4-0.4,2.2-0.4c0.4,0,0.8,0,1.2,0.1c0.6,0.1,1.1,0.3,1.7,0.5c1,0.5,1.9,1.2,2.6,2.1
		c0.3,0.5,0.6,1,0.8,1.5C142.9,174.5,143.1,175.3,143.1,176.2z"/>
	<rect x="15" y="139.4" style="fill:#CE955D;" width="147" height="31.2"/>
	<polygon style="fill:#CE955D;" points="162,157.2 250,150.6 250,153.9 162,161.7 	"/>
	<polygon style="fill:#CE955D;" points="174.3,118.2 163.1,133.8 10.5,133.8 10.5,139.4 166.5,139.4 177.6,120.5 	"/>
	<path style="fill:#CE955D;" d="M136.4,151.7c-13.5,0-24.5,11-24.5,24.5c0,13.5,11,24.5,24.5,24.5c13.5,0,24.5-11,24.5-24.5
		C160.9,162.6,149.9,151.7,136.4,151.7z M152.4,186.3l-9.9-7.5c-0.4,1-1.1,2-2,2.7l9.9,7.5c-3.1,3.4-7.5,5.7-12.3,6.1v-12.4
		c-0.5,0.1-1.1,0.2-1.7,0.2s-1.1-0.1-1.7-0.2V195c-3.8-0.3-7.4-1.8-10.2-4.1l8.6-8.9c-1-0.5-1.8-1.3-2.4-2.3l-8.6,8.9
		c-2.4-2.8-4-6.2-4.5-10l12.4-0.5c-0.2-0.6-0.3-1.3-0.3-1.9c0-0.5,0-1,0.2-1.4l-12.4,0.5c0.2-3.9,1.5-7.4,3.7-10.3l9.3,8.3
		c0.5-1,1.3-1.9,2.2-2.5l-9.3-8.2c2.7-2.5,6.1-4.3,9.9-4.9l0.9,12.3c0.7-0.2,1.4-0.4,2.2-0.4c0.4,0,0.8,0,1.2,0.1l-1-12.4
		c3.9,0,7.5,1.3,10.5,3.3l-7.9,9.6c1,0.5,1.9,1.2,2.6,2.1l7.9-9.6c2.6,2.6,4.5,5.9,5.3,9.7l-12.3,1.4c0.3,0.7,0.5,1.6,0.5,2.4
		c0,0.3,0,0.6-0.1,0.9l12.3-1.4c0,0.2,0,0.3,0,0.5C155.3,179.9,154.2,183.3,152.4,186.3z"/>
	<circle style="fill:#CE955D;" cx="136.4" cy="176.2" r="3.3"/>
	<path style="fill:#CE955D;" d="M51.2,176.2c0,0.3,0,0.6-0.1,0.9c-0.1,0.6-0.2,1.1-0.5,1.7c-0.4,1-1.1,2-2,2.7
		c-0.7,0.6-1.5,1-2.5,1.2c-0.5,0.1-1.1,0.2-1.7,0.2s-1.1-0.1-1.7-0.2c-0.6-0.1-1.1-0.4-1.6-0.7c-1-0.5-1.8-1.3-2.4-2.3
		c-0.3-0.5-0.5-1-0.7-1.6c-0.2-0.6-0.3-1.3-0.3-1.9c0-0.5,0-1,0.2-1.4h0c0.1-0.6,0.3-1.1,0.6-1.6c0.5-1,1.3-1.9,2.2-2.5
		c0.5-0.3,1-0.6,1.6-0.8c0.7-0.2,1.4-0.4,2.2-0.4c0.4,0,0.8,0,1.2,0.1c0.6,0.1,1.1,0.3,1.7,0.5c1,0.5,1.9,1.2,2.6,2.1
		c0.3,0.5,0.6,1,0.8,1.5C51,174.5,51.2,175.3,51.2,176.2z"/>
	<path style="fill:#CE955D;" d="M44.5,151.7c-13.5,0-24.5,11-24.5,24.5c0,13.5,11,24.5,24.5,24.5c13.5,0,24.5-11,24.5-24.5
		C69,162.6,58,151.7,44.5,151.7z M60.5,186.3l-9.9-7.5c-0.4,1-1.1,2-2,2.7l9.9,7.5c-3.1,3.4-7.5,5.7-12.3,6.1v-12.4
		c-0.5,0.1-1.1,0.2-1.7,0.2s-1.1-0.1-1.7-0.2V195c-3.8-0.3-7.4-1.8-10.2-4.1l8.6-8.9c-1-0.5-1.8-1.3-2.4-2.3l-8.6,8.9
		c-2.4-2.8-4-6.2-4.5-10l12.4-0.5c-0.2-0.6-0.3-1.3-0.3-1.9c0-0.5,0-1,0.2-1.4l-12.4,0.5c0.2-3.9,1.5-7.4,3.7-10.3l9.3,8.3
		c0.5-1,1.3-1.9,2.2-2.5l-9.3-8.2c2.7-2.5,6.1-4.3,9.9-4.9l0.9,12.3c0.7-0.2,1.4-0.4,2.2-0.4c0.4,0,0.8,0,1.2,0.1l-1-12.4
		c3.9,0,7.5,1.3,10.5,3.3l-7.9,9.6c1,0.5,1.9,1.2,2.6,2.1l7.9-9.6c2.6,2.6,4.5,5.9,5.3,9.7l-12.3,1.4c0.3,0.7,0.5,1.6,0.5,2.4
		c0,0.3,0,0.6-0.1,0.9l12.3-1.4c0,0.2,0,0.3,0,0.5C63.4,179.9,62.3,183.3,60.5,186.3z"/>
	<circle style="fill:#CE955D;" cx="44.5" cy="176.2" r="3.3"/>
</g>
</svg>
