<?xml version="1.0" encoding="utf-8"?>
<!-- Generator: Adobe Illustrator 22.1.0, SVG Export Plug-In . SVG Version: 6.00 Build 0)  -->
<svg version="1.1" id="Layer_1" xmlns="http://www.w3.org/2000/svg" xmlns:xlink="http://www.w3.org/1999/xlink" x="0px" y="0px"
	 viewBox="0 0 256 256" style="enable-background:new 0 0 256 256;" xml:space="preserve">
<g>
	<path style="fill:#E4B300;" d="M172.5,24.5c-32,14-59,62-93,60S28,92,28,92v20c0.8-0.2,1.7-0.5,2.8-0.9L31,111v11.3
		c-1.7,0.6-3,2.3-3,4.2s1.3,3.6,3,4.2v4.6c-1.7,0.6-3,2.3-3,4.2s1.3,3.6,3,4.2v4.6c-1.7,0.6-3,2.3-3,4.2s1.3,3.6,3,4.2V169h197
		v-12.8c1.2-0.8,2-2.2,2-3.7s-0.8-2.9-2-3.7v-5.5c1.2-0.8,2-2.2,2-3.7s-0.8-2.9-2-3.7v-5.5c1.2-0.8,2-2.2,2-3.7s-0.8-2.9-2-3.7V32
		h3.5h2.5V15C234,15,204.5,10.5,172.5,24.5z"/>
</g>
</svg>
