<?xml version="1.0" encoding="utf-8"?>
<!-- Generator: Adobe Illustrator 22.1.0, SVG Export Plug-In . SVG Version: 6.00 Build 0)  -->
<svg version="1.1" id="Layer_1" xmlns="http://www.w3.org/2000/svg" xmlns:xlink="http://www.w3.org/1999/xlink" x="0px" y="0px"
	 viewBox="0 0 256 256" style="enable-background:new 0 0 256 256;" xml:space="preserve">
<g>
	<path style="fill:#D3E2E8;" d="M200.4,80.3v23.4h37.8V91.8c0-0.9-0.1-1.7-0.3-2.5c-1.1-5.1-5.7-9-11.3-9H200.4z"/>
	<path style="fill:#D3E2E8;" d="M18.3,103.7V91.8c0-6.3,5.2-11.4,11.5-11.4H56v23.4H18.3z"/>
	<rect x="154.9" y="80.3" style="fill:#D3E2E8;" width="37.7" height="23.4"/>
	<rect x="109.5" y="80.3" style="fill:#D3E2E8;" width="37.7" height="23.4"/>
	<rect x="64.1" y="80.3" style="fill:#D3E2E8;" width="37.7" height="23.4"/>
	<rect x="154.9" y="128.8" style="fill:#D3E2E8;" width="37.7" height="23.4"/>
	<rect x="109.5" y="128.8" style="fill:#D3E2E8;" width="37.7" height="23.4"/>
	<rect x="64.1" y="128.8" style="fill:#D3E2E8;" width="37.7" height="23.4"/>
	<rect x="200.7" y="128.8" style="fill:#D3E2E8;" width="37.4" height="23.4"/>
	<rect x="64.1" y="106.5" style="fill:#FFFFFF;" width="174" height="13.8"/>
	<rect x="8.6" y="123.2" style="fill:#FFFFFF;" width="9.7" height="2.7"/>
	<rect x="56" y="123.2" style="fill:#FFFFFF;" width="191.3" height="2.7"/>
	<path style="fill:#333236;" d="M235.5,176.9c0-6.8-5.5-12.3-12.3-12.3c-6.8,0-12.3,5.5-12.3,12.3c0,6.8,5.5,12.3,12.3,12.3
		C230,189.2,235.5,183.7,235.5,176.9z"/>
	<path style="fill:#808285;" d="M229.9,176.9c0-3.7-3-6.7-6.7-6.7c-3.7,0-6.7,3-6.7,6.7c0,3.7,3,6.7,6.7,6.7
		C226.9,183.5,229.9,180.6,229.9,176.9z"/>
	<path style="fill:#333236;" d="M91.3,176.9c0-6.8-5.5-12.3-12.3-12.3c-6.8,0-12.3,5.5-12.3,12.3c0,6.8,5.5,12.3,12.3,12.3
		C85.8,189.2,91.3,183.7,91.3,176.9z"/>
	<path style="fill:#808285;" d="M85.6,176.9c0-3.7-3-6.7-6.7-6.7c-3.7,0-6.7,3-6.7,6.7c0,3.7,3,6.7,6.7,6.7
		C82.7,183.5,85.6,180.6,85.6,176.9z"/>
	<rect x="200.7" y="128.8" style="opacity:0.5;fill:#FFFFFF;" width="37.4" height="8.9"/>
	<rect x="154.9" y="128.8" style="opacity:0.5;fill:#FFFFFF;" width="37.8" height="8.9"/>
	<rect x="109.5" y="128.8" style="opacity:0.5;fill:#FFFFFF;" width="37.8" height="8.9"/>
	<rect x="64.1" y="128.8" style="opacity:0.5;fill:#FFFFFF;" width="37.8" height="8.9"/>
	<path style="opacity:0.5;fill:#FFFFFF;" d="M200.4,80.3v9h37.5c-1.1-5.1-5.7-9-11.3-9H200.4z"/>
	<path style="opacity:0.5;fill:#FFFFFF;" d="M56,80.3v9H18.6c1.1-5.1,5.7-9,11.3-9H56z"/>
	<rect x="154.9" y="80.3" style="opacity:0.5;fill:#FFFFFF;" width="37.8" height="8.9"/>
	<rect x="109.5" y="80.3" style="opacity:0.5;fill:#FFFFFF;" width="37.8" height="8.9"/>
	<rect x="64.1" y="80.3" style="opacity:0.5;fill:#FFFFFF;" width="37.8" height="8.9"/>
	<path style="opacity:0.2;" d="M65.7,170.2c-1,2-1.6,4.2-1.6,6.6v0H8.6v-6.6H65.7z"/>
	<path style="opacity:0.2;" d="M92.3,170.2H210c-1,2-1.6,4.2-1.6,6.6v0H93.8v0C93.8,174.5,93.3,172.2,92.3,170.2z"/>
	<path style="opacity:0.2;" d="M247.4,170.2v6.6h-9.3c0-0.6,0-1.3-0.1-1.9c-0.2-1.7-0.7-3.3-1.4-4.7H247.4z"/>
	<rect x="18.3" y="108" style="opacity:0.2;" width="37.8" height="59.6"/>
</g>
</svg>
