<?xml version="1.0" encoding="utf-8"?>
<!-- Generator: Adobe Illustrator 22.1.0, SVG Export Plug-In . SVG Version: 6.00 Build 0)  -->
<svg version="1.1" id="Layer_1" xmlns="http://www.w3.org/2000/svg" xmlns:xlink="http://www.w3.org/1999/xlink" x="0px" y="0px"
	 viewBox="0 0 256 256" style="enable-background:new 0 0 256 256;" xml:space="preserve">
<g>
	<path style="fill:#F10C28;" d="M247.4,85.3v74.3c0,0.2,0,0.3,0,0.4c-0.1,3.8-1.4,7.3-3.6,10.1c-1.5,2-3.5,3.6-5.8,4.7
		c-0.2-1.7-0.7-3.3-1.4-4.7c-2.5-4.9-7.5-8.2-13.3-8.2s-10.8,3.3-13.3,8.2c-1,2-1.6,4.2-1.6,6.6H93.8c0-2.4-0.6-4.6-1.6-6.6
		c-2.4-4.9-7.5-8.2-13.3-8.2s-10.8,3.3-13.3,8.2c-1,2-1.6,4.2-1.6,6.6H25.8c-5.5,0-10.4-2.6-13.5-6.6c-2.3-2.9-3.6-6.6-3.6-10.6
		V83.9c0-9.5,9.7-17.2,31.5-17.2h175.8C239,66.7,247.4,75.8,247.4,85.3z"/>
	<path style="fill:#F10C28;" d="M247.4,121.8v55h-9.3c0-0.6,0-1.3-0.1-1.9c-0.2-1.7-0.7-3.3-1.4-4.7c-2.5-4.9-7.5-8.2-13.3-8.2
		s-10.8,3.3-13.3,8.2c-1,2-1.6,4.2-1.6,6.6v0H93.8v0c0-2.4-0.6-4.6-1.6-6.6c-2.4-4.9-7.5-8.2-13.3-8.2s-10.8,3.3-13.3,8.2
		c-1,2-1.6,4.2-1.6,6.6v0H8.6v-55H247.4z"/>
	<path style="fill:#F10C28;" d="M65.7,170.2c-1,2-1.6,4.2-1.6,6.6v0H8.6v-6.6H65.7z"/>
	<path style="fill:#F10C28;" d="M247.4,170.2v6.6h-9.3c0-0.6,0-1.3-0.1-1.9c-0.2-1.7-0.7-3.3-1.4-4.7H247.4z"/>
</g>
</svg>
