<?xml version="1.0" encoding="utf-8"?>
<!-- Generator: Adobe Illustrator 22.1.0, SVG Export Plug-In . SVG Version: 6.00 Build 0)  -->
<svg version="1.1" id="Layer_1" xmlns="http://www.w3.org/2000/svg" xmlns:xlink="http://www.w3.org/1999/xlink" x="0px" y="0px"
	 viewBox="0 0 256 256" style="enable-background:new 0 0 256 256;" xml:space="preserve">
<path style="fill:#DB0811;" d="M246.2,149.8h-1.2V83.5c0-3.6-2.9-6.5-6.5-6.5h-8.7v-5c0-3.6-2.9-6.5-6.5-6.5h-78.8
	c-3.6,0-6.5,2.9-6.5,6.5v5h-7.9c-3.6,0-6.5,2.9-6.5,6.5v8.7h-9.8v-5.3c0-3.6-2.9-6.5-6.5-6.5H32.6l-22.5,37.4v32H9
	c-3,0-5.5,2.4-5.5,5.5v0c0,3,2.4,5.5,5.5,5.5h21.9c0.6-4.1,2.2-7.8,4.6-10.9c4.3-5.6,11.1-9.3,18.7-9.3c7.6,0,14.4,3.6,18.7,9.3
	c2.4,3.1,4,6.8,4.6,10.9h92.7c0.6-4.1,2.2-7.8,4.6-10.9c4.3-5.6,11.1-9.3,18.7-9.3s14.4,3.6,18.7,9.3c2.4,3.1,4,6.8,4.6,10.9h29.3
	c3,0,5.5-2.4,5.5-5.5v0C251.7,152.2,249.3,149.8,246.2,149.8z"/>
</svg>
