<?xml version="1.0" encoding="utf-8"?>
<!-- Generator: Adobe Illustrator 22.1.0, SVG Export Plug-In . SVG Version: 6.00 Build 0)  -->
<svg version="1.1" id="Layer_1" xmlns="http://www.w3.org/2000/svg" xmlns:xlink="http://www.w3.org/1999/xlink" x="0px" y="0px"
	 viewBox="0 0 256 256" style="enable-background:new 0 0 256 256;" xml:space="preserve">
<g>
	<path style="fill:#FFC400;" d="M51.3,81.8H37.5v-8.6c0-3.8,3.1-6.9,6.9-6.9h0c3.8,0,6.9,3.1,6.9,6.9V81.8z"/>
	<rect x="111.2" y="92.2" style="opacity:0.2;" width="13.2" height="57.6"/>
	<polygon style="fill:#FFFFFF;" points="50.4,90.2 32,90.2 18.8,118.4 50.4,118.4 	"/>
	<rect x="62" y="90.2" style="fill:#FFFFFF;" width="44.3" height="26.5"/>
	<rect x="128.2" y="85.6" style="fill:#1F1E1E;" width="123.8" height="4"/>
	<path style="fill:#FFFFFF;" d="M223.8,125.6h-88.7c-2.1,0-3.7-1.7-3.7-3.7v0c0-2.1,1.7-3.7,3.7-3.7h88.7c2.1,0,3.7,1.7,3.7,3.7v0
		C227.5,123.9,225.8,125.6,223.8,125.6z"/>
	<rect x="139.1" y="88.4" style="fill:#1F1E1E;" width="4.6" height="21.3"/>
	<rect x="156.4" y="88.4" style="fill:#1F1E1E;" width="4.6" height="21.3"/>
	<rect x="173.7" y="88.4" style="fill:#1F1E1E;" width="4.6" height="21.3"/>
	<rect x="191" y="88.4" style="fill:#1F1E1E;" width="4.6" height="21.3"/>
	<rect x="208.2" y="88.4" style="fill:#1F1E1E;" width="4.6" height="21.3"/>
	<rect x="225.5" y="88.4" style="fill:#1F1E1E;" width="4.6" height="21.3"/>
	<rect x="55.3" y="80.1" style="opacity:0.2;" width="2.3" height="59.9"/>
	<circle style="fill:#1E1E1E;" cx="54.2" cy="164.2" r="20.2"/>
	<circle style="fill:#FFFFFF;" cx="54.2" cy="164.2" r="8.6"/>
	<circle style="fill:#1E1E1E;" cx="193.5" cy="164.2" r="20.2"/>
	<circle style="fill:#FFFFFF;" cx="193.5" cy="164.2" r="8.6"/>
	<g style="opacity:0.2;">
		<path d="M212.3,149.8c2.4,3.1,4.1,6.9,4.6,10.9h29.3c3,0,5.5-2.4,5.5-5.5l0,0c0-3-2.4-5.5-5.5-5.5H212.3z"/>
		<path d="M170.2,160.7c0.6-4.1,2.2-7.8,4.6-10.9H72.9c2.4,3.1,4.1,6.9,4.6,10.9H170.2z"/>
		<path d="M35.5,149.8H9c-3,0-5.5,2.4-5.5,5.5l0,0c0,3,2.4,5.5,5.5,5.5h21.9C31.4,156.6,33.1,152.9,35.5,149.8z"/>
	</g>
	<rect x="128.2" y="109.8" style="fill:#1F1E1E;" width="123.8" height="4"/>
</g>
</svg>
