<?xml version="1.0" encoding="utf-8"?>
<!-- Generator: Adobe Illustrator 22.1.0, SVG Export Plug-In . SVG Version: 6.00 Build 0)  -->
<svg version="1.1" id="Layer_1" xmlns="http://www.w3.org/2000/svg" xmlns:xlink="http://www.w3.org/1999/xlink" x="0px" y="0px"
	 viewBox="0 0 256 256" style="enable-background:new 0 0 256 256;" xml:space="preserve">
<g>
	<g style="opacity:0.2;">
		<rect x="148.3" y="155.3" width="57.2" height="4.9"/>
		<path d="M14.1,155.3c2,3,5.4,4.9,9.3,4.9h125v-4.9H14.1z"/>
		<path d="M191.4,155.9v4.4h-22.2c0-13.6,11.1-24.6,24.7-24.6c12.1,0,22.3,8.7,24.3,20.3H191.4z"/>
		<path d="M71.6,164.5c0.2-1.4,0.3-2.8,0.3-4.2c0-13.4-10.9-24.3-24.3-24.3S23.4,147,23.4,160.4c0,1.4,0.1,2.8,0.3,4.2H71.6z"/>
		<path d="M243.5,154.5h-20c-2.4,0-4.3,1.9-4.3,4.3l0,0c0,2.4,1.9,4.3,4.3,4.3h20V154.5z"/>
		<circle cx="226.7" cy="158.9" r="3.3"/>
		<rect x="137.1" y="81.9" width="11.2" height="49.6"/>
	</g>
	<polygon style="fill:#00ACCD;" points="156.8,123.2 156.8,93.4 187.6,93.4 202,123.2 	"/>
	<circle style="fill:#282F39;" cx="194" cy="160.4" r="17.3"/>
	<circle style="fill:#FFFFFF;" cx="194" cy="160.4" r="9.8"/>
	<g>
		<circle style="fill:#282F39;" cx="47.7" cy="160.4" r="17.3"/>
		<circle style="fill:#FFFFFF;" cx="47.7" cy="160.4" r="9.8"/>
		<circle style="fill:#282F39;" cx="47.7" cy="160.4" r="5.1"/>
	</g>
	<rect x="223" y="132.8" style="fill:#282F39;" width="7.2" height="30.4"/>
	<path style="fill:#6A6971;" d="M245,177.6h0.4c2.2,0,3.5-2.4,2.4-4.3c-2.1-3.7-3.4-8.8-3.4-14.4c0-5.8,1.4-11.1,3.7-14.9
		c1.2-1.9-0.2-4.3-2.4-4.3l0,0c-4.5,3-7.6,10.4-7.6,19.2C238.1,167.2,240.9,174.3,245,177.6z"/>
	<path style="fill:#282F39;" d="M240.8,158.9c0,7.8,2.5,14.6,6.3,18.1c-0.5,0.3-1.1,0.6-1.7,0.6h-0.4c-4.1-3.3-6.9-10.4-6.9-18.7
		c0-4.4,0.8-8.4,2.1-11.7c1.4-3.3,3.3-5.9,5.5-7.4c0.7,0,1.4,0.3,1.8,0.7c-1.8,1.6-3.4,3.9-4.6,6.8
		C241.7,150.5,240.8,154.5,240.8,158.9z"/>
	<polygon style="fill:#D1D1D1;" points="137.1,131.3 137.1,81.9 121.7,95 6.3,95 6.3,131.3 	"/>
	<rect x="6.3" y="125.9" style="opacity:0.37;fill:#6A6971;enable-background:new    ;" width="130.8" height="5.4"/>
	<g>
		<rect x="17.1" y="100.6" style="opacity:0.6;fill:#6A6971;enable-background:new    ;" width="3" height="18.9"/>
		<rect x="30" y="100.6" style="opacity:0.6;fill:#6A6971;enable-background:new    ;" width="3" height="18.9"/>
		<rect x="42.8" y="100.6" style="opacity:0.6;fill:#6A6971;enable-background:new    ;" width="3" height="18.9"/>
		<rect x="55.7" y="100.6" style="opacity:0.6;fill:#6A6971;enable-background:new    ;" width="3" height="18.9"/>
		<rect x="68.5" y="100.6" style="opacity:0.6;fill:#6A6971;enable-background:new    ;" width="3" height="18.9"/>
		<rect x="81.4" y="100.6" style="opacity:0.6;fill:#6A6971;enable-background:new    ;" width="3" height="18.9"/>
		<rect x="94.2" y="100.6" style="opacity:0.6;fill:#6A6971;enable-background:new    ;" width="3" height="18.9"/>
		<rect x="107.1" y="100.6" style="opacity:0.6;fill:#6A6971;enable-background:new    ;" width="3" height="18.9"/>
		<rect x="120" y="100.6" style="opacity:0.6;fill:#6A6971;enable-background:new    ;" width="3" height="18.9"/>
	</g>
	<circle style="fill:#282F39;" cx="194" cy="160.4" r="5.1"/>
</g>
</svg>
