<?xml version="1.0" encoding="utf-8"?>
<!-- Generator: Adobe Illustrator 22.1.0, SVG Export Plug-In . SVG Version: 6.00 Build 0)  -->
<svg version="1.1" id="Layer_1" xmlns="http://www.w3.org/2000/svg" xmlns:xlink="http://www.w3.org/1999/xlink" x="0px" y="0px"
	 viewBox="0 0 256 256" style="enable-background:new 0 0 256 256;" xml:space="preserve">
<g>
	<path style="fill:#FEB641;" d="M218.3,155.9c-0.3-1.5-0.7-2.9-1.2-4.3h5.9v-23.7l-17.1-8l-15.5-31.5h-42.1v36h0V81.9h-11.2v42.5
		H12.2v0V149c0,2.3,0.7,4.5,2,6.3h-0.1c2,3,5.4,4.9,9.3,4.9h0c0,0,0,0.1,0,0.1c0,1.4,0.1,2.8,0.3,4.2h47.9c0.2-1.4,0.3-2.8,0.3-4.2
		c0,0,0-0.1,0-0.1h72.2h4.2h0h0h20.8h22.2h14.2h0v-4.4H218.3z"/>
	<path style="fill:#FEB641;" d="M223.5,154.5c-1.8,0-3.4,1.2-4,2.8c-0.1,0-0.2,0-0.4,0c-0.9,0-1.6,0.7-1.6,1.6
		c0,0.9,0.7,1.6,1.6,1.6c0.1,0,0.2,0,0.4,0c0.6,1.6,2.2,2.8,4,2.8h20v-8.6H223.5z"/>
</g>
</svg>
