<?xml version="1.0" encoding="utf-8"?>
<!-- Generator: Adobe Illustrator 22.1.0, SVG Export Plug-In . SVG Version: 6.00 Build 0)  -->
<svg version="1.1" id="Layer_1" xmlns="http://www.w3.org/2000/svg" xmlns:xlink="http://www.w3.org/1999/xlink" x="0px" y="0px"
	 viewBox="0 0 256 256" style="enable-background:new 0 0 256 256;" xml:space="preserve">
<g>
	<path style="fill:#5BDD5B;" d="M234.5,123.6v46.3H89.3c0-0.1,0-0.2,0-0.3l0,0H28.1l0,0.2h-0.7v-46.3h61l2.6,5.9l2.1,4.6l2.9,6.5
		h51.2l8.6-17.1H234.5z"/>
	<polygon style="fill:#5BDD5B;" points="234.6,123.7 226.9,116.7 211.5,102.8 163.7,59.8 163.7,58.8 159.5,58.8 159.5,123.6 
		163.7,123.6 163.7,65.2 205.5,102.8 226.9,122.1 228.6,123.6 234.5,123.6 234.5,123.8 	"/>
	<path style="fill:#5BDD5B;" d="M84.8,132.7c-0.3,1.5-0.8,2.7-1,2.6l-2.1-0.5c-0.2-0.1-0.2-1.3,0.2-2.8l11.5-51.7
		c0.3-1.5,0.8-2.7,1-2.6l2.1,0.5c0.2,0.1,0.2,1.3-0.2,2.8L84.8,132.7z"/>
	<polygon style="fill:#5BDD5B;" points="95.5,150.8 76.3,131.7 41.3,131.7 31.8,141.2 30,139.4 40.2,129.2 77.4,129.2 97.2,149 	"/>
	<polygon style="fill:#5BDD5B;" points="229.5,150.8 210.3,131.7 175.3,131.7 165.8,141.2 164,139.4 174.2,129.2 211.4,129.2 
		231.2,149 	"/>
</g>
</svg>
