<?xml version="1.0" encoding="utf-8"?>
<!-- Generator: Adobe Illustrator 22.1.0, SVG Export Plug-In . SVG Version: 6.00 Build 0)  -->
<svg version="1.1" id="Layer_1" xmlns="http://www.w3.org/2000/svg" xmlns:xlink="http://www.w3.org/1999/xlink" x="0px" y="0px"
	 viewBox="0 0 256 256" style="enable-background:new 0 0 256 256;" xml:space="preserve">
<g>
	<g>
		<rect x="14.6" y="156.4" style="fill:#9AA09A;" width="13.3" height="11.9"/>
		<rect x="7.1" y="152.1" style="fill:#9AA09A;" width="10.7" height="18.5"/>
	</g>
	<path style="fill:#F2F266;" d="M27.4,125.4v11.3c0,0,0,0,0,0c-1,0-1.9-2.5-1.9-5.6S26.3,125.4,27.4,125.4
		C27.3,125.4,27.3,125.4,27.4,125.4z"/>
	<path d="M226.9,106c0-1.7-1.2-3.1-2.6-3.1h-12.8l15.5,13.9V106z"/>
	<path d="M205.5,102.8h-34.2c-1.5,0-2.6,1.4-2.6,3.1v15.7c0,0.7,0.2,1.4,0.5,1.9h57.2c0.3-0.4,0.5-0.9,0.5-1.5L205.5,102.8z"/>
	<path d="M121.3,131.3c-0.5,0.5-1.1,0.7-1.7,0.7c-0.7,0-1.3-0.3-1.8-0.8l-7.7-8.2l-17.1,11.1l-2.1-4.6l15.7-10.2l-6.5-6.9
		c-1-1-0.9-2.6,0.1-3.6c1-0.9,2.6-0.9,3.5,0.1l17.6,18.8C122.4,128.8,122.3,130.4,121.3,131.3z"/>
	<g>
		<path d="M159.5,95.9l-4.5-1.8c-1.3-0.5-2.9,0.2-3.4,1.6L134.5,139l-28.5,0.1c-1.1,0-1.9,0.7-1.9,1.5l0,0h21.6h21.5l8.6-17.1h3.5
			l0.2-0.5V95.9z"/>
		<path d="M166.4,98.6l-2.7-1.1v14.9l4.1-10.3C168.4,100.7,167.7,99.1,166.4,98.6z"/>
	</g>
	<polygon style="opacity:0.2;" points="234.6,123.7 226.9,116.7 211.5,102.8 163.7,59.8 163.7,58.8 159.5,58.8 159.5,123.6 
		163.7,123.6 163.7,65.2 205.5,102.8 226.9,122.1 228.6,123.6 234.5,123.6 234.5,123.8 	"/>
	<path style="opacity:0.2;" d="M84.8,132.7c-0.3,1.5-0.8,2.7-1,2.6l-2.1-0.5c-0.2-0.1-0.2-1.3,0.2-2.8l11.5-51.7
		c0.3-1.5,0.8-2.7,1-2.6l2.1,0.5c0.2,0.1,0.2,1.3-0.2,2.8L84.8,132.7z"/>
	<polygon style="opacity:0.2;" points="95.5,150.8 76.3,131.7 41.3,131.7 31.8,141.2 30,139.4 40.2,129.2 77.4,129.2 97.2,149 	"/>
	<polygon style="opacity:0.2;" points="229.5,150.8 210.3,131.7 175.3,131.7 165.8,141.2 164,139.4 174.2,129.2 211.4,129.2 
		231.2,149 	"/>
	<rect x="233.9" y="158.4" style="fill:#9AA09A;" width="14.1" height="15.1"/>
	<g>
		<g id="_x30_1" style="display:none;">
			<path style="display:inline;fill:#FFFFFF;stroke:#000000;stroke-miterlimit:10;" d="M226.1,167.7l-0.1-4.4l-1.4,0
				c-0.2-1.7-0.5-3.3-0.9-4.8l1.3-0.4l-1.4-4.2l-1.3,0.4c-0.7-1.5-1.4-3-2.3-4.3l1.1-0.8l-2.6-3.5l-1.1,0.8
				c-1.1-1.2-2.3-2.4-3.5-3.4l0.8-1.1l-3.6-2.6l-0.8,1.1c-1.4-0.8-2.9-1.6-4.4-2.2l0.4-1.3l-4.2-1.3l-0.4,1.3
				c-1.6-0.4-3.2-0.6-4.9-0.7v-1.4h-4.4v1.4c-2.6,0.2-5,0.7-7.4,1.5l-0.5-1.2l-4.1,1.7l0.5,1.3c-1.5,0.8-2.9,1.6-4.2,2.6l-0.9-1
				l-3.4,2.9l0.9,1c-1.2,1.2-2.2,2.4-3.2,3.7l-1.2-0.7l-2.3,3.7l1.2,0.7c-0.8,1.5-1.4,3-1.9,4.5l-1.3-0.3l-1.1,4.3l1.3,0.3
				c-0.3,1.6-0.4,3.2-0.4,4.9l-1.4,0.1l0.3,4.4l1.4-0.1c0.2,1.6,0.6,3.3,1.1,4.8l-1.3,0.5l1.6,4.1l1.3-0.5c0.7,1.5,1.6,2.9,2.5,4.2
				l-1.1,0.9l2.8,3.4l1.1-0.9c1.1,1.2,2.4,2.3,3.7,3.3l-0.7,1.1l3.7,2.4l0.7-1.1c1.4,0.8,2.9,1.5,4.5,2l-0.4,1.3l4.3,1.2l0.4-1.3
				c1.6,0.3,3.2,0.5,4.9,0.5l0.1,1.4l4.4-0.2l-0.1-1.4c1.7-0.2,3.3-0.5,4.8-1l0.5,1.3l4.1-1.5l-0.5-1.3c1.5-0.7,2.9-1.5,4.3-2.4
				l0.8,1.1l3.5-2.7l-0.8-1.1c1.2-1.1,2.3-2.3,3.4-3.6l1.1,0.8l2.5-3.6l-1.1-0.8c0.8-1.4,1.5-2.9,2.1-4.5l1.3,0.4l1.3-4.2l-1.3-0.4
				c0.3-1.6,0.6-3.2,0.6-4.9L226.1,167.7z"/>
			<circle style="display:inline;fill:#FFFFFF;stroke:#000000;stroke-miterlimit:10;" cx="194.6" cy="166.3" r="19.6"/>
		</g>
		<g id="_x30_2" style="display:none;">
			<path style="display:inline;fill:#FFFFFF;stroke:#000000;stroke-miterlimit:10;" d="M217.9,145l-3.2-3l-0.9,1
				c-1.3-1.1-2.6-2-4-2.8l0.6-1.2l-4-1.9l-0.6,1.2c-1.5-0.6-3.1-1.1-4.7-1.4l0.2-1.3l-4.4-0.6l-0.2,1.4c-1.6-0.1-3.3-0.1-4.9,0.1
				l-0.2-1.3l-4.3,0.7l0.2,1.4c-1.6,0.4-3.2,0.9-4.7,1.6l-0.6-1.2l-3.9,2l0.6,1.2c-1.4,0.9-2.7,1.8-4,2.9l-1-1l-3.1,3.1l1,1
				c-1.7,1.9-3.1,4.1-4.2,6.3l-1.3-0.5l-1.7,4.1l1.3,0.5c-0.5,1.6-0.9,3.2-1.1,4.8l-1.4-0.1l-0.3,4.4l1.4,0.1c0,1.6,0.1,3.3,0.4,4.9
				l-1.3,0.3l1,4.3l1.3-0.3c0.5,1.6,1.1,3.1,1.9,4.6l-1.2,0.7l2.3,3.8l1.2-0.7c0.9,1.3,2,2.6,3.2,3.8l-0.9,1l3.3,2.9l0.9-1
				c1.3,1,2.7,1.9,4.2,2.6l-0.5,1.2l4,1.8l0.5-1.3c1.6,0.5,3.2,0.9,4.8,1.2l-0.1,1.4l4.4,0.4l0.1-1.4c1.6,0,3.3-0.1,4.9-0.3l0.3,1.3
				l4.3-0.9l-0.3-1.3c1.6-0.5,3.1-1,4.6-1.8l0.7,1.2l3.8-2.2l-0.7-1.2c1.3-0.9,2.6-1.9,3.8-3.1l1,0.9l3-3.2l-1-0.9
				c1-1.3,1.9-2.7,2.7-4.1l1.2,0.6l1.8-4l-1.2-0.6c0.6-1.5,1-3.1,1.3-4.7l1.3,0.2l0.5-4.4l-1.4-0.2c0.1-1.6,0-3.3-0.2-4.9l1.3-0.3
				l-0.8-4.3l-1.3,0.3c-0.4-1.6-1-3.1-1.7-4.6l1.2-0.6l-2.1-3.9l-1.2,0.7c-0.9-1.4-1.9-2.7-3-3.9L217.9,145z"/>
			<circle style="display:inline;fill:#FFFFFF;stroke:#000000;stroke-miterlimit:10;" cx="194.6" cy="166.2" r="19.6"/>
		</g>
		<g id="_x30_3" style="display:none;">
			<path style="display:inline;fill:#FFFFFF;stroke:#000000;stroke-miterlimit:10;" d="M196,134.8l-4.4,0.1l0,1.4
				c-1.7,0.2-3.3,0.5-4.8,0.9l-0.4-1.3l-4.2,1.4l0.4,1.3c-1.5,0.7-3,1.4-4.3,2.3l-0.8-1.1l-3.5,2.6l0.8,1.1
				c-1.2,1.1-2.4,2.3-3.4,3.5l-1.1-0.8l-2.6,3.6l1.1,0.8c-0.8,1.4-1.6,2.9-2.2,4.4l-1.3-0.4l-1.3,4.2l1.3,0.4
				c-0.4,1.6-0.6,3.2-0.7,4.9h-1.4v4.4h1.4c0.2,2.6,0.7,5,1.5,7.4l-1.2,0.5l1.7,4.1l1.3-0.5c0.8,1.5,1.6,2.9,2.6,4.2l-1,0.9l2.9,3.4
				l1-0.9c1.2,1.2,2.4,2.2,3.7,3.2l-0.7,1.2l3.7,2.3l0.7-1.2c1.5,0.8,3,1.4,4.5,1.9l-0.3,1.3l4.3,1.1l0.3-1.3
				c1.6,0.3,3.2,0.4,4.9,0.4l0.1,1.4l4.4-0.3l-0.1-1.4c1.6-0.2,3.3-0.6,4.8-1.1l0.5,1.3l4.1-1.6l-0.5-1.3c1.5-0.7,2.9-1.6,4.2-2.5
				l0.9,1.1l3.4-2.8l-0.9-1.1c1.2-1.1,2.3-2.4,3.3-3.7l1.1,0.7l2.4-3.7l-1.1-0.7c0.8-1.4,1.5-2.9,2-4.5l1.3,0.4l1.2-4.3l-1.3-0.4
				c0.3-1.6,0.5-3.2,0.5-4.9l1.4-0.1l-0.2-4.4l-1.4,0.1c-0.2-1.7-0.5-3.3-1-4.8l1.3-0.5l-1.5-4.1l-1.3,0.5c-0.7-1.5-1.5-2.9-2.4-4.3
				l1.1-0.8l-2.7-3.5l-1.1,0.8c-1.1-1.2-2.3-2.3-3.6-3.4l0.8-1.1l-3.6-2.5l-0.8,1.1c-1.4-0.8-2.9-1.5-4.5-2.1l0.4-1.3l-4.2-1.3
				l-0.4,1.3c-1.6-0.3-3.2-0.6-4.9-0.6L196,134.8z"/>
			<circle style="display:inline;fill:#FFFFFF;stroke:#000000;stroke-miterlimit:10;" cx="194.6" cy="166.3" r="19.6"/>
		</g>
		<g id="_x30_4" style="display:none;">
			<path style="display:inline;fill:#FFFFFF;stroke:#000000;stroke-miterlimit:10;" d="M173.3,143l-3,3.2l1,0.9
				c-1.1,1.3-2,2.6-2.8,4l-1.2-0.6l-1.9,4l1.2,0.6c-0.6,1.5-1.1,3.1-1.4,4.7l-1.3-0.2l-0.6,4.4l1.4,0.2c-0.1,1.6-0.1,3.3,0.1,4.9
				l-1.3,0.2l0.7,4.3l1.4-0.2c0.4,1.6,0.9,3.2,1.6,4.7l-1.2,0.6l2,3.9l1.2-0.6c0.9,1.4,1.8,2.7,2.9,4l-1,1l3.1,3.1l1-1
				c1.9,1.7,4.1,3.1,6.3,4.2l-0.5,1.3l4.1,1.7l0.5-1.3c1.6,0.5,3.2,0.9,4.8,1.1l-0.1,1.4l4.4,0.3l0.1-1.4c1.6,0,3.3-0.1,4.9-0.4
				l0.3,1.3l4.3-1l-0.3-1.3c1.6-0.5,3.1-1.1,4.6-1.9l0.7,1.2l3.8-2.3l-0.7-1.2c1.3-0.9,2.6-2,3.8-3.2l1,0.9l2.9-3.3l-1-0.9
				c1-1.3,1.9-2.7,2.6-4.2l1.2,0.5l1.8-4l-1.3-0.5c0.5-1.6,0.9-3.2,1.2-4.8l1.4,0.1l0.4-4.4l-1.4-0.1c0-1.6-0.1-3.3-0.3-4.9l1.3-0.3
				l-0.9-4.3l-1.3,0.3c-0.5-1.6-1-3.1-1.8-4.6l1.2-0.7l-2.2-3.8l-1.2,0.7c-0.9-1.3-1.9-2.6-3.1-3.8l0.9-1l-3.2-3l-0.9,1
				c-1.3-1-2.7-1.9-4.1-2.7l0.6-1.2l-4-1.8l-0.6,1.2c-1.5-0.6-3.1-1-4.7-1.3l0.2-1.3l-4.4-0.5l-0.2,1.4c-1.6-0.1-3.3,0-4.9,0.2
				l-0.3-1.3l-4.3,0.8l0.3,1.3c-1.6,0.4-3.1,1-4.6,1.7l-0.6-1.2l-3.9,2.1l0.7,1.2c-1.4,0.9-2.7,1.9-3.9,3L173.3,143z"/>
			<circle style="display:inline;fill:#FFFFFF;stroke:#000000;stroke-miterlimit:10;" cx="194.6" cy="166.3" r="19.6"/>
		</g>
		<g id="_x30_5">
			<path d="M163.1,164.9l0.1,4.4l1.4,0c0.2,1.7,0.5,3.3,0.9,4.8l-1.3,0.4l1.4,4.2l1.3-0.4c0.7,1.5,1.4,3,2.3,4.3l-1.1,0.8l2.6,3.5
				l1.1-0.8c1.1,1.2,2.3,2.4,3.5,3.4l-0.8,1.1l3.6,2.6l0.8-1.1c1.4,0.8,2.9,1.6,4.4,2.2l-0.4,1.3l4.2,1.3l0.4-1.3
				c1.6,0.4,3.2,0.6,4.9,0.7v1.4h4.4v-1.4c2.6-0.2,5-0.7,7.4-1.5l0.5,1.2l4.1-1.7l-0.5-1.3c1.5-0.8,2.9-1.6,4.2-2.6l0.9,1l3.4-2.9
				l-0.9-1c1.2-1.2,2.2-2.4,3.2-3.7l1.2,0.7l2.3-3.7l-1.2-0.7c0.8-1.5,1.4-3,1.9-4.5l1.3,0.3l1.1-4.3l-1.3-0.3
				c0.3-1.6,0.4-3.2,0.4-4.9l1.4-0.1l-0.3-4.4l-1.4,0.1c-0.2-1.6-0.6-3.3-1.1-4.8l1.3-0.5l-1.6-4.1l-1.3,0.5
				c-0.7-1.5-1.6-2.9-2.5-4.2l1.1-0.9l-2.8-3.4l-1.1,0.9c-1.1-1.2-2.4-2.3-3.7-3.3l0.7-1.1l-3.7-2.4l-0.7,1.1
				c-1.4-0.8-2.9-1.5-4.5-2l0.4-1.3l-4.3-1.2l-0.4,1.3c-1.6-0.3-3.2-0.5-4.9-0.5l-0.1-1.4l-4.4,0.2l0.1,1.4c-1.7,0.2-3.3,0.5-4.8,1
				l-0.5-1.3l-4.1,1.5l0.5,1.3c-1.5,0.7-2.9,1.5-4.3,2.4l-0.8-1.1l-3.5,2.7l0.8,1.1c-1.2,1.1-2.3,2.3-3.4,3.6l-1.1-0.8l-2.5,3.6
				l1.1,0.8c-0.8,1.4-1.5,2.9-2.1,4.5l-1.3-0.4l-1.3,4.2l1.3,0.4c-0.3,1.6-0.6,3.2-0.6,4.9L163.1,164.9z"/>
			<circle style="fill:#767C76;" cx="194.6" cy="166.3" r="19.6"/>
		</g>
	</g>
	<g>
		<g id="_x30_1_1_" style="display:none;">
			<path style="display:inline;fill:#FFFFFF;stroke:#000000;stroke-miterlimit:10;" d="M92.1,167.7l-0.1-4.4l-1.4,0
				c-0.2-1.7-0.5-3.3-0.9-4.8l1.3-0.4l-1.4-4.2l-1.3,0.4c-0.7-1.5-1.4-3-2.3-4.3l1.1-0.8l-2.6-3.5l-1.1,0.8
				c-1.1-1.2-2.3-2.4-3.5-3.4l0.8-1.1l-3.6-2.6l-0.8,1.1c-1.4-0.8-2.9-1.6-4.4-2.2l0.4-1.3l-4.2-1.3l-0.4,1.3
				c-1.6-0.4-3.2-0.6-4.9-0.7v-1.4h-4.4v1.4c-2.6,0.2-5,0.7-7.4,1.5l-0.5-1.2l-4.1,1.7l0.5,1.3c-1.5,0.8-2.9,1.6-4.2,2.6l-0.9-1
				l-3.4,2.9l0.9,1c-1.2,1.2-2.2,2.4-3.2,3.7l-1.2-0.7l-2.3,3.7l1.2,0.7c-0.8,1.5-1.4,3-1.9,4.5l-1.3-0.3l-1.1,4.3l1.3,0.3
				c-0.3,1.6-0.4,3.2-0.4,4.9l-1.4,0.1l0.3,4.4l1.4-0.1c0.2,1.6,0.6,3.3,1.1,4.8l-1.3,0.5l1.6,4.1l1.3-0.5c0.7,1.5,1.6,2.9,2.5,4.2
				l-1.1,0.9l2.8,3.4l1.1-0.9c1.1,1.2,2.4,2.3,3.7,3.3l-0.7,1.1l3.7,2.4l0.7-1.1c1.4,0.8,2.9,1.5,4.5,2l-0.4,1.3l4.3,1.2l0.4-1.3
				c1.6,0.3,3.2,0.5,4.9,0.5l0.1,1.4l4.4-0.2l-0.1-1.4c1.7-0.2,3.3-0.5,4.8-1l0.5,1.3l4.1-1.5l-0.5-1.3c1.5-0.7,2.9-1.5,4.3-2.4
				l0.8,1.1l3.5-2.7l-0.8-1.1c1.2-1.1,2.3-2.3,3.4-3.6l1.1,0.8l2.5-3.6l-1.1-0.8c0.8-1.4,1.5-2.9,2.1-4.5l1.3,0.4l1.3-4.2l-1.3-0.4
				c0.3-1.6,0.6-3.2,0.6-4.9L92.1,167.7z"/>
			<circle style="display:inline;fill:#FFFFFF;stroke:#000000;stroke-miterlimit:10;" cx="60.6" cy="166.3" r="19.6"/>
		</g>
		<g id="_x30_2_1_" style="display:none;">
			<path style="display:inline;fill:#FFFFFF;stroke:#000000;stroke-miterlimit:10;" d="M83.9,145l-3.2-3l-0.9,1
				c-1.3-1.1-2.6-2-4-2.8l0.6-1.2l-4-1.9l-0.6,1.2c-1.5-0.6-3.1-1.1-4.7-1.4l0.2-1.3l-4.4-0.6l-0.2,1.4c-1.6-0.1-3.3-0.1-4.9,0.1
				l-0.2-1.3l-4.3,0.7l0.2,1.4c-1.6,0.4-3.2,0.9-4.7,1.6l-0.6-1.2l-3.9,2l0.6,1.2c-1.4,0.9-2.7,1.8-4,2.9l-1-1l-3.1,3.1l1,1
				c-1.7,1.9-3.1,4.1-4.2,6.3l-1.3-0.5l-1.7,4.1l1.3,0.5c-0.5,1.6-0.9,3.2-1.1,4.8l-1.4-0.1l-0.3,4.4l1.4,0.1c0,1.6,0.1,3.3,0.4,4.9
				l-1.3,0.3l1,4.3l1.3-0.3c0.5,1.6,1.1,3.1,1.9,4.6l-1.2,0.7l2.3,3.8l1.2-0.7c0.9,1.3,2,2.6,3.2,3.8l-0.9,1l3.3,2.9l0.9-1
				c1.3,1,2.7,1.9,4.2,2.6l-0.5,1.2l4,1.8l0.5-1.3c1.6,0.5,3.2,0.9,4.8,1.2l-0.1,1.4l4.4,0.4l0.1-1.4c1.6,0,3.3-0.1,4.9-0.3l0.3,1.3
				l4.3-0.9l-0.3-1.3c1.6-0.5,3.1-1,4.6-1.8l0.7,1.2l3.8-2.2l-0.7-1.2c1.3-0.9,2.6-1.9,3.8-3.1l1,0.9l3-3.2l-1-0.9
				c1-1.3,1.9-2.7,2.7-4.1l1.2,0.6l1.8-4l-1.2-0.6c0.6-1.5,1-3.1,1.3-4.7l1.3,0.2l0.5-4.4l-1.4-0.2c0.1-1.6,0-3.3-0.2-4.9l1.3-0.3
				l-0.8-4.3l-1.3,0.3c-0.4-1.6-1-3.1-1.7-4.6l1.2-0.6l-2.1-3.9l-1.2,0.7c-0.9-1.4-1.9-2.7-3-3.9L83.9,145z"/>
			<circle style="display:inline;fill:#FFFFFF;stroke:#000000;stroke-miterlimit:10;" cx="60.6" cy="166.2" r="19.6"/>
		</g>
		<g id="_x30_3_1_" style="display:none;">
			<path style="display:inline;fill:#FFFFFF;stroke:#000000;stroke-miterlimit:10;" d="M62,134.8l-4.4,0.1l0,1.4
				c-1.7,0.2-3.3,0.5-4.8,0.9l-0.4-1.3l-4.2,1.4l0.4,1.3c-1.5,0.7-3,1.4-4.3,2.3l-0.8-1.1l-3.5,2.6l0.8,1.1
				c-1.2,1.1-2.4,2.3-3.4,3.5l-1.1-0.8l-2.6,3.6l1.1,0.8c-0.8,1.4-1.6,2.9-2.2,4.4l-1.3-0.4l-1.3,4.2l1.3,0.4
				c-0.4,1.6-0.6,3.2-0.7,4.9h-1.4v4.4h1.4c0.2,2.6,0.7,5,1.5,7.4l-1.2,0.5l1.7,4.1l1.3-0.5c0.8,1.5,1.6,2.9,2.6,4.2l-1,0.9l2.9,3.4
				l1-0.9c1.2,1.2,2.4,2.2,3.7,3.2l-0.7,1.2l3.7,2.3l0.7-1.2c1.5,0.8,3,1.4,4.5,1.9l-0.3,1.3l4.3,1.1l0.3-1.3
				c1.6,0.3,3.2,0.4,4.9,0.4l0.1,1.4l4.4-0.3l-0.1-1.4c1.6-0.2,3.3-0.6,4.8-1.1l0.5,1.3l4.1-1.6l-0.5-1.3c1.5-0.7,2.9-1.6,4.2-2.5
				l0.9,1.1l3.4-2.8l-0.9-1.1c1.2-1.1,2.3-2.4,3.3-3.7l1.1,0.7l2.4-3.7l-1.1-0.7c0.8-1.4,1.5-2.9,2-4.5l1.3,0.4l1.2-4.3l-1.3-0.4
				c0.3-1.6,0.5-3.2,0.5-4.9l1.4-0.1l-0.2-4.4l-1.4,0.1c-0.2-1.7-0.5-3.3-1-4.8l1.3-0.5l-1.5-4.1l-1.3,0.5c-0.7-1.5-1.5-2.9-2.4-4.3
				l1.1-0.8l-2.7-3.5l-1.1,0.8c-1.1-1.2-2.3-2.3-3.6-3.4l0.8-1.1l-3.6-2.5l-0.8,1.1c-1.4-0.8-2.9-1.5-4.5-2.1l0.4-1.3l-4.2-1.3
				l-0.4,1.3c-1.6-0.3-3.2-0.6-4.9-0.6L62,134.8z"/>
			<circle style="display:inline;fill:#FFFFFF;stroke:#000000;stroke-miterlimit:10;" cx="60.6" cy="166.3" r="19.6"/>
		</g>
		<g id="_x30_4_1_" style="display:none;">
			<path style="display:inline;fill:#FFFFFF;stroke:#000000;stroke-miterlimit:10;" d="M39.3,143l-3,3.2l1,0.9c-1.1,1.3-2,2.6-2.8,4
				l-1.2-0.6l-1.9,4l1.2,0.6c-0.6,1.5-1.1,3.1-1.4,4.7l-1.3-0.2l-0.6,4.4l1.4,0.2c-0.1,1.6-0.1,3.3,0.1,4.9l-1.3,0.2l0.7,4.3
				l1.4-0.2c0.4,1.6,0.9,3.2,1.6,4.7l-1.2,0.6l2,3.9l1.2-0.6c0.9,1.4,1.8,2.7,2.9,4l-1,1l3.1,3.1l1-1c1.9,1.7,4.1,3.1,6.3,4.2
				l-0.5,1.3l4.1,1.7l0.5-1.3c1.6,0.5,3.2,0.9,4.8,1.1l-0.1,1.4l4.4,0.3l0.1-1.4c1.6,0,3.3-0.1,4.9-0.4l0.3,1.3l4.3-1l-0.3-1.3
				c1.6-0.5,3.1-1.1,4.6-1.9l0.7,1.2l3.8-2.3l-0.7-1.2c1.3-0.9,2.6-2,3.8-3.2l1,0.9l2.9-3.3l-1-0.9c1-1.3,1.9-2.7,2.6-4.2l1.2,0.5
				l1.8-4l-1.3-0.5c0.5-1.6,0.9-3.2,1.2-4.8l1.4,0.1l0.4-4.4l-1.4-0.1c0-1.6-0.1-3.3-0.3-4.9l1.3-0.3l-0.9-4.3l-1.3,0.3
				c-0.5-1.6-1-3.1-1.8-4.6l1.2-0.7l-2.2-3.8l-1.2,0.7c-0.9-1.3-1.9-2.6-3.1-3.8l0.9-1l-3.2-3l-0.9,1c-1.3-1-2.7-1.9-4.1-2.7
				l0.6-1.2l-4-1.8l-0.6,1.2c-1.5-0.6-3.1-1-4.7-1.3l0.2-1.3l-4.4-0.5l-0.2,1.4c-1.6-0.1-3.3,0-4.9,0.2l-0.3-1.3l-4.3,0.8l0.3,1.3
				c-1.6,0.4-3.1,1-4.6,1.7l-0.6-1.2l-3.9,2.1l0.7,1.2c-1.4,0.9-2.7,1.9-3.9,3L39.3,143z"/>
			<circle style="display:inline;fill:#FFFFFF;stroke:#000000;stroke-miterlimit:10;" cx="60.6" cy="166.3" r="19.6"/>
		</g>
		<g id="_x30_5_1_">
			<path d="M29.1,164.9l0.1,4.4l1.4,0c0.2,1.7,0.5,3.3,0.9,4.8l-1.3,0.4l1.4,4.2l1.3-0.4c0.7,1.5,1.4,3,2.3,4.3l-1.1,0.8l2.6,3.5
				l1.1-0.8c1.1,1.2,2.3,2.4,3.5,3.4l-0.8,1.1l3.6,2.6l0.8-1.1c1.4,0.8,2.9,1.6,4.4,2.2l-0.4,1.3l4.2,1.3l0.4-1.3
				c1.6,0.4,3.2,0.6,4.9,0.7v1.4h4.4v-1.4c2.6-0.2,5-0.7,7.4-1.5l0.5,1.2l4.1-1.7l-0.5-1.3c1.5-0.8,2.9-1.6,4.2-2.6l0.9,1l3.4-2.9
				l-0.9-1c1.2-1.2,2.2-2.4,3.2-3.7l1.2,0.7l2.3-3.7l-1.2-0.7c0.8-1.5,1.4-3,1.9-4.5l1.3,0.3l1.1-4.3l-1.3-0.3
				c0.3-1.6,0.4-3.2,0.4-4.9l1.4-0.1l-0.3-4.4l-1.4,0.1c-0.2-1.6-0.6-3.3-1.1-4.8l1.3-0.5l-1.6-4.1l-1.3,0.5
				c-0.7-1.5-1.6-2.9-2.5-4.2l1.1-0.9l-2.8-3.4l-1.1,0.9c-1.1-1.2-2.4-2.3-3.7-3.3l0.7-1.1l-3.7-2.4l-0.7,1.1
				c-1.4-0.8-2.9-1.5-4.5-2l0.4-1.3l-4.3-1.2l-0.4,1.3c-1.6-0.3-3.2-0.5-4.9-0.5l-0.1-1.4l-4.4,0.2l0.1,1.4c-1.7,0.2-3.3,0.5-4.8,1
				l-0.5-1.3l-4.1,1.5l0.5,1.3c-1.5,0.7-2.9,1.5-4.3,2.4l-0.8-1.1l-3.5,2.7l0.8,1.1c-1.2,1.1-2.3,2.3-3.4,3.6l-1.1-0.8l-2.5,3.6
				l1.1,0.8c-0.8,1.4-1.5,2.9-2.1,4.5l-1.3-0.4l-1.3,4.2l1.3,0.4c-0.3,1.6-0.6,3.2-0.6,4.9L29.1,164.9z"/>
			<circle style="fill:#767C76;" cx="60.6" cy="166.3" r="19.6"/>
		</g>
	</g>
</g>
</svg>
