<?xml version="1.0" encoding="utf-8"?>
<!-- Generator: Adobe Illustrator 22.1.0, SVG Export Plug-In . SVG Version: 6.00 Build 0)  -->
<svg version="1.1" id="Layer_1" xmlns="http://www.w3.org/2000/svg" xmlns:xlink="http://www.w3.org/1999/xlink" x="0px" y="0px"
	 viewBox="0 0 256 256" style="enable-background:new 0 0 256 256;" xml:space="preserve">
<g>
	<circle style="fill:#605C59;" cx="54.3" cy="170.8" r="18.5"/>
	<circle style="fill:#DADADA;" cx="54.3" cy="170.8" r="11.9"/>
	<circle style="fill:#605C59;" cx="185.9" cy="170.8" r="18.5"/>
	<circle style="fill:#DADADA;" cx="185.9" cy="170.8" r="11.9"/>
	<circle style="fill:#605C59;" cx="185.9" cy="170.8" r="18.5"/>
	<circle style="fill:#DADADA;" cx="185.9" cy="170.8" r="11.9"/>
	<path style="fill:#E9E8EB;" d="M19,94.5h29.4c1.6,0,3,1.3,3,3v21.8c0,1.6-1.3,3-3,3H13.7C13.7,122.2,14.3,99.8,19,94.5z"/>
	<path style="fill:#454545;" d="M56.3,141.1v9.7c10.2,1,18.2,9.6,18.2,20.1c0,0.7,0,1.4-0.1,2l91-0.8c0-0.3,0-0.6,0-0.9
		c0-11.1,9-20.2,20.2-20.2s20.2,9,20.2,20.2c0,0.2,0,0.3,0,0.5l15-0.1c1,0,1.9-0.3,2.7-0.9l1-0.8c0.8-0.6,1.7-0.9,2.7-0.9
		c1.1,0,2.2-0.5,3.1-1.3l0.1-0.1c0.8-0.8,1.3-1.9,1.3-3.1v-23.3H56.3z"/>
	<polygon style="opacity:0.2;" points="92.5,94.4 94.1,94.4 106.7,131.8 104.2,131.8 	"/>
	<polygon style="opacity:0.2;" points="146.1,94.4 147.6,94.4 160.2,131.8 157.6,131.8 	"/>
	<polygon style="opacity:0.2;" points="202,94.4 203.8,94.4 216.3,131.8 213.8,131.8 	"/>
	<polygon style="opacity:0.2;" points="229.1,94.8 230.2,94.4 248.7,121.8 247.1,123.2 	"/>
</g>
</svg>
