<?xml version="1.0" encoding="utf-8"?>
<!-- Generator: Adobe Illustrator 22.1.0, SVG Export Plug-In . SVG Version: 6.00 Build 0)  -->
<svg version="1.1" id="Layer_1" xmlns="http://www.w3.org/2000/svg" xmlns:xlink="http://www.w3.org/1999/xlink" x="0px" y="0px"
	 viewBox="0 0 256 256" style="enable-background:new 0 0 256 256;" xml:space="preserve">
<g>
	<path style="fill:#FBBD03;" d="M56.3,83.6H25.2c0,0-10.6,2-11.2,13.9c0,0-8.6,17.9-4.6,31.7l-3.9,3.4c-0.9,0.8-1.4,1.9-1.4,3v5.8
		c0,1.1,0.4,2.1,1.2,2.8l3.5,3.5l0.7,12.6l-0.1,0.1c-2,1.2-3.2,3.3-3.2,5.6v2.2c0,1.7,0.7,3.4,1.9,4.6l0.7,0.7l25.6-0.2
		c-0.1-0.8-0.1-1.6-0.1-2.4c0-11.1,9-20.2,20.2-20.2c0.7,0,1.3,0,2,0.1v-9.7V83.6z"/>
	<polygon style="fill:#FBBD03;" points="36.5,76.3 64.2,76.3 72.2,89.5 230.2,89.5 254,123.9 230.2,136.5 82.8,136.5 59,99.4 
		58.3,80.3 36.5,80.3 	"/>
</g>
</svg>
