<?xml version="1.0" encoding="utf-8"?>
<!-- Generator: Adobe Illustrator 22.1.0, SVG Export Plug-In . SVG Version: 6.00 Build 0)  -->
<svg version="1.1" id="Layer_1" xmlns="http://www.w3.org/2000/svg" xmlns:xlink="http://www.w3.org/1999/xlink" x="0px" y="0px"
	 viewBox="0 0 256 256" style="enable-background:new 0 0 256 256;" xml:space="preserve">
<g>
	<path style="opacity:0.3;" d="M28.9,157.5c-0.3-1.5-0.5-3.1-0.5-4.7c0-3.9,1.1-7.5,2.9-10.6H3.5v4.7l2.3,2.3v8.2H28.9z"/>
	<path style="opacity:0.3;" d="M252.3,143.5c-0.5-2.7-1.5-4.2-2.5-5l-39.2,0.7c3.2,3.7,5.1,8.5,5.1,13.7c0,1.6-0.2,3.2-0.5,4.7h3.1
		l29.3-4.7C247.6,152.8,253.5,150.5,252.3,143.5z"/>
	<circle style="fill:#4F4F4F;" cx="49.3" cy="152.8" r="17.6"/>
	<circle style="fill:#4F4F4F;" cx="194.8" cy="152.8" r="17.6"/>
	<circle style="fill:#F6F2F1;" cx="49.3" cy="152.8" r="12.9"/>
	<circle style="fill:#F6F2F1;" cx="194.8" cy="152.8" r="12.9"/>
	<path style="fill:#E3E3E3;" d="M73.9,121.1c0,0-4.7,5.9-3.5,14.1s3.5,22.3,3.5,22.3h99.8c0,0-3.5-12.9,7-21.1
		c10.6-8.2,14.1-14.1,12.9-20s-8.2-17.6-22.3-24.6h-61C110.3,91.8,78.6,114.1,73.9,121.1z"/>
	<path style="fill:#6ADAF8;" d="M127.9,118.8l8.2-23.5c0,0-36.4-2.3-51.6,23.5H127.9z"/>
	<polygon style="fill:#6ADAF8;" points="137.3,118.8 142,95.3 171.4,96.5 170.2,118.8 	"/>
	<path style="fill:#6ADAF8;" d="M173.7,96.5c0,0,11.7,8.2,11.7,15.3c0,0,1.2,5.9-2.3,7h-10.6L173.7,96.5z"/>
	<path style="fill:#FAF7F6;" d="M8.9,134.4c0,0,9.3-6.8,14-4.5c4.7,2.3-8.2,9.4-10.6,9.4S7.8,138.9,8.9,134.4z"/>
	<rect x="62.8" y="125.3" style="fill:#CB303C;" width="5.9" height="3.5"/>
	<path style="fill:#CB303C;" d="M246.5,119.6c0,0-7.6-1.4-10,3.3v7h10V119.6z"/>
	<rect x="128" y="83" style="fill:#FF072A;" width="18.1" height="5.9"/>
	<rect x="116.3" y="123.1" style="fill:#343437;" width="10.7" height="2.2"/>
	<rect x="174.9" y="123.1" style="fill:#343437;" width="10.7" height="2.2"/>
</g>
</svg>
