<?xml version="1.0" encoding="utf-8"?>
<!-- Generator: Adobe Illustrator 22.1.0, SVG Export Plug-In . SVG Version: 6.00 Build 0)  -->
<svg version="1.1" id="Layer_1" xmlns="http://www.w3.org/2000/svg" xmlns:xlink="http://www.w3.org/1999/xlink" x="0px" y="0px"
	 viewBox="0 0 256 256" style="enable-background:new 0 0 256 256;" xml:space="preserve">
<g>
	<path style="fill:#343437;" d="M252.3,143.5c-1.2-7-5.9-5.9-5.9-5.9v-24.6h-27c0,0-27-17.6-47-21.1h-62.2l-39.9,24.6
		c0,0-43.4,3.5-59.9,11.7c0,0-2.3,7-2.3,11.7l-4.7,2.3v4.7l2.3,2.3v8.2h23c-0.3-1.5-0.5-3.1-0.5-4.7c0-11.6,9.4-20.9,20.9-20.9
		s20.9,9.4,20.9,20.9c0,1.6-0.2,3.2-0.5,4.7h104.8c-0.3-1.5-0.5-3.1-0.5-4.7c0-11.6,9.4-20.9,20.9-20.9c11.6,0,20.9,9.4,20.9,20.9
		c0,1.6-0.2,3.2-0.5,4.7h3.1l29.3-4.7C247.6,152.8,253.5,150.5,252.3,143.5z"/>
	<rect x="129.7" y="88.9" width="15.3" height="4.5"/>
</g>
</svg>
