<?xml version="1.0" encoding="utf-8"?>
<!-- Generator: Adobe Illustrator 22.1.0, SVG Export Plug-In . SVG Version: 6.00 Build 0)  -->
<svg version="1.1" id="Layer_1" xmlns="http://www.w3.org/2000/svg" xmlns:xlink="http://www.w3.org/1999/xlink" x="0px" y="0px"
	 viewBox="0 0 256 256" style="enable-background:new 0 0 256 256;" xml:space="preserve">
<g>
	<g>
		
			<rect x="81.3" y="152" transform="matrix(0.312 -0.9501 0.9501 0.312 -73.642 205.6118)" style="fill:#F78F20;" width="47.8" height="3.2"/>
	</g>
	<path style="fill:#F78F20;" d="M182.9,170h-35.7c-4.8,0-8.7,3.9-8.7,8.7l0,0h44.4L182.9,170L182.9,170z"/>
	<g>
		<path style="fill:#F78F20;" d="M37.6,179.2L37.6,179.2c-0.9-0.3-1.3-1.2-1-2.1l16.9-52.8l3.1,1l-16.9,52.9
			C39.4,179,38.4,179.5,37.6,179.2z"/>
	</g>
	<g>
		<path style="fill:#F78F20;" d="M98.9,175.9l-46.8-36.8l1.1-3.3H111l1.1,2l1.4-4.2l-0.1-0.2c-0.3-0.5-0.8-0.8-1.4-0.8H52
			c-0.7,0-1.3,0.5-1.5,1.1l-1.8,5.5c-0.2,0.7,0,1.4,0.5,1.8l47.6,37.4c0.3,0.2,0.6,0.3,1,0.3h0l1.1,0l1.7-2.9L98.9,175.9z"/>
	</g>
	<g>
		<path style="fill:#F78F20;" d="M211.4,178.7H98v-2.9h113.4c1.2,0,2.2-1,2.2-2.2c0-1.2-1-2.2-2.2-2.2h-47.3c-1.3,0-2.6-0.4-3.7-1.1
			l-49.9-34.7l1.6-2.4l49.9,34.7c0.6,0.4,1.3,0.6,2,0.6h47.3c2.8,0,5.1,2.3,5.1,5.1S214.2,178.7,211.4,178.7z"/>
	</g>
	<path style="fill:#F78F20;" d="M248.8,74.9h-11l-14.1,42.9h-12.2c0,0,0,0,0,0c-1.4,0-2.9,0.1-4.3,0.3c-1,0.1-2,0.3-3,0.5
		c-1.5,0.3-3,0.8-4.5,1.3c-0.9,0.4-1.8,0.7-2.7,1.2c-7.7,3.8-13.8,10.6-16.6,19.1l-12.7,38.5h10.3l10.7-32.5v0
		c0.3-0.8,0.5-1.6,0.9-2.3c-0.3,0.8-0.6,1.5-0.9,2.3l-10.7,32.6h32.1c2.6,0,4.9-1.7,5.7-4.2l15.6-47.4h0L248.8,74.9z M202.8,130.1
		c-0.2,0.1-0.4,0.2-0.5,0.3c-0.9,0.5-1.8,1-2.6,1.5c-3.3,2.2-6.1,5.2-8.2,8.7c2.1-3.5,4.9-6.4,8.2-8.7c0.8-0.6,1.7-1.1,2.6-1.5
		C202.5,130.3,202.7,130.1,202.8,130.1c0.5-0.3,1-0.5,1.5-0.7C203.8,129.6,203.3,129.8,202.8,130.1z M206.7,128.5
		c-0.3,0.1-0.5,0.2-0.7,0.3c-0.3,0.1-0.5,0.2-0.8,0.3c0.3-0.1,0.5-0.2,0.8-0.3C206.2,128.7,206.4,128.6,206.7,128.5
		c1.2-0.4,2.3-0.7,3.6-0.9C209,127.8,207.8,128.1,206.7,128.5z"/>
</g>
</svg>
