<?xml version="1.0" encoding="utf-8"?>
<!-- Generator: Adobe Illustrator 22.1.0, SVG Export Plug-In . SVG Version: 6.00 Build 0)  -->
<svg version="1.1" id="Layer_1" xmlns="http://www.w3.org/2000/svg" xmlns:xlink="http://www.w3.org/1999/xlink" x="0px" y="0px"
	 viewBox="0 0 256 256" style="enable-background:new 0 0 256 256;" xml:space="preserve">
<g>
	<path style="opacity:0.2;" d="M231.6,127.2l-15.6,47.4c-0.8,2.5-3.1,4.1-5.7,4.2h-32.1l10.7-32.6c0.3-0.8,0.6-1.6,0.9-2.3
		c0.1-0.3,0.2-0.5,0.3-0.8v0c0.4-0.9,0.9-1.7,1.3-2.5c2.1-3.5,4.9-6.4,8.2-8.7c0.8-0.6,1.7-1.1,2.6-1.5c0.2-0.1,0.4-0.2,0.5-0.3
		c0.5-0.2,1-0.5,1.5-0.7c0,0,0,0,0,0c0.3-0.1,0.5-0.2,0.8-0.3c0.3-0.1,0.5-0.2,0.8-0.3c0.2-0.1,0.5-0.2,0.7-0.3
		c1.2-0.4,2.3-0.7,3.6-0.9c1.6-0.3,3.3-0.5,5-0.5H231.6z"/>
	<path style="fill:#E6E7E8;" d="M122.3,125.6h-13.1c-1.8,0-3.2,1.4-3.2,3.2c0,1.8,1.4,3.2,3.2,3.2h13.1c1.8,0,3.2-1.4,3.2-3.2
		C125.4,127,124,125.6,122.3,125.6z"/>
	<g>
		<path style="fill:#D1D3D4;" d="M98,178.1C98,178.1,98,178.1,98,178.1l-13.6-0.8c-0.5,0-0.8-0.4-0.8-0.9c0-0.5,0.4-0.8,0.9-0.8
			l13.6,0.8c0.5,0,0.8,0.4,0.8,0.9C98.8,177.8,98.4,178.1,98,178.1z"/>
	</g>
	<polygon style="fill:#939598;" points="80.2,177.5 88.7,174.5 89.3,176.4 81,179.5 	"/>
	<g>
		<g>
			<path style="fill:#E6E7E8;" d="M199.9,119.9c-0.9,0.4-1.8,0.7-2.7,1.2l-20.4-88.1l2.8-0.6L199.9,119.9z"/>
		</g>
		<g>
			<path style="fill:#E6E7E8;" d="M217.9,36.4L207.3,118c-1,0.1-2,0.3-3,0.5L215,36L217.9,36.4z"/>
		</g>
		<g>
			<path style="fill:#E6E7E8;" d="M241.3,59.4l-26.5,58.3h-3.1c0,0,0,0,0,0l27.1-59.5L241.3,59.4z"/>
		</g>
	</g>
	<g>
		<path d="M38.2,207.4c-16.6,0-30.1-13.5-30.1-30.1s13.5-30.1,30.1-30.1s30.1,13.5,30.1,30.1S54.8,207.4,38.2,207.4z M38.2,153.7
			c-13,0-23.6,10.6-23.6,23.6c0,13,10.6,23.6,23.6,23.6s23.6-10.6,23.6-23.6C61.8,164.3,51.2,153.7,38.2,153.7z"/>
	</g>
	<circle style="fill:#BCBEC0;" cx="38.2" cy="177.3" r="7.3"/>
	<circle style="fill:#58595B;" cx="54.7" cy="126.4" r="3.4"/>
	<g>
		<path d="M215,207.4c-16.6,0-30.1-13.5-30.1-30.1s13.5-30.1,30.1-30.1s30.1,13.5,30.1,30.1S231.6,207.4,215,207.4z M215,153.7
			c-13,0-23.6,10.6-23.6,23.6c0,13,10.6,23.6,23.6,23.6c13,0,23.6-10.6,23.6-23.6C238.6,164.3,228,153.7,215,153.7z"/>
	</g>
	<g>
		<path style="fill:#846E64;" d="M249,99.9L249,99.9V55.6l-18.1,6.6v13.1C230.9,86.6,238.2,96.6,249,99.9z"/>
		<path style="fill:#9B8579;" d="M162.5,26.1l11.4,11.4c5.6,5.6,13.3,8.8,21.3,8.8H215l4.5-20.2H162.5z"/>
		<polygon style="fill:#917B70;" points="215,46.3 230.9,62.2 249,55.5 219.5,26.1 		"/>
	</g>
	<g>
		<path style="fill:#808285;" d="M215,185.6H98c-4.6,0-8.3-3.7-8.3-8.3c0-4.6,3.7-8.3,8.3-8.3h117c4.6,0,8.3,3.7,8.3,8.3
			C223.3,181.9,219.6,185.6,215,185.6z M98,171c-3.5,0-6.3,2.8-6.3,6.3c0,3.5,2.8,6.3,6.3,6.3h117c3.5,0,6.3-2.8,6.3-6.3
			c0-3.5-2.8-6.3-6.3-6.3H98z"/>
	</g>
	
		<ellipse transform="matrix(0.1602 -0.9871 0.9871 0.1602 5.5921 361.1319)" style="fill:#BCBEC0;" cx="215" cy="177.3" rx="7.3" ry="7.3"/>
	<circle style="fill:#BCBEC0;" cx="98" cy="177.3" r="9"/>
	<path style="fill:#A7A9AC;" d="M98,183.1c-3.2,0-5.9-2.6-5.9-5.9c0-3.2,2.6-5.9,5.9-5.9c3.2,0,5.9,2.6,5.9,5.9
		C103.9,180.5,101.2,183.1,98,183.1z"/>
	<g>
		<path style="fill:#D1D3D4;" d="M115.4,183.6c-0.1,0-0.2,0-0.3,0l-17.4-5.5c-0.5-0.1-0.7-0.6-0.6-1.1c0.1-0.5,0.6-0.7,1.1-0.6
			l17.4,5.5c0.5,0.1,0.7,0.6,0.6,1.1C116.1,183.4,115.7,183.6,115.4,183.6z"/>
	</g>
	<polygon style="fill:#939598;" points="113.2,186.5 119.3,179.9 117.7,178.7 111.6,185.3 	"/>
	<path style="fill:#939598;" d="M98,180c-1.5,0-2.7-1.2-2.7-2.7c0-1.5,1.2-2.7,2.7-2.7s2.7,1.2,2.7,2.7C100.7,178.8,99.5,180,98,180
		z"/>
</g>
</svg>
