<?xml version="1.0" encoding="utf-8"?>
<!-- Generator: Adobe Illustrator 22.1.0, SVG Export Plug-In . SVG Version: 6.00 Build 0)  -->
<svg version="1.1" id="Layer_1" xmlns="http://www.w3.org/2000/svg" xmlns:xlink="http://www.w3.org/1999/xlink" x="0px" y="0px"
	 viewBox="0 0 256 256" style="enable-background:new 0 0 256 256;" xml:space="preserve">
<g>
	<polygon style="fill:#3D3D3D;" points="150.3,88.4 160,38 157,38 147.5,88.5 	"/>
	<path style="fill:#1D1D1D;" d="M156,96l11-10l-5.5-5.5c0-0.8,0.4-1.4,1.5-1.5l14,13c-0.1,1-0.6,1.4-1.6,1.4l-6.9-5.9l-11,11"/>
	<rect x="220.5" y="40.5" style="fill:#3D3D3D;" width="3" height="68"/>
	<polygon style="opacity:0.2;" points="138.5,99.5 77.5,99.5 77.5,126.5 89.5,140.5 138.5,140.5 	"/>
	<circle cx="48" cy="168" r="12.5"/>
	<circle cx="187" cy="145" r="12.5"/>
	<circle cx="166" cy="122" r="6.5"/>
	<circle cx="207" cy="170" r="2.5"/>
	<rect x="42.5" y="136.5" style="fill:#000608;" width="10" height="25"/>
	<rect x="44.5" y="131.5" style="fill:#000608;" width="6" height="7"/>
	<polygon style="fill:#FF3310;" points="225,33 154,30 154,40 225,43 	"/>
	<path style="fill:#000608;" d="M187,93.5c-28.4,0-51.5,23.1-51.5,51.5c0,28.4,23.1,51.5,51.5,51.5s51.5-23.1,51.5-51.5
		C238.5,116.6,215.4,93.5,187,93.5z M187,190.5c-25.1,0-45.5-20.4-45.5-45.5s20.4-45.5,45.5-45.5s45.5,20.4,45.5,45.5
		S212.1,190.5,187,190.5z"/>
	<path style="fill:#000608;" d="M48,138.5c-16.3,0-29.5,13.2-29.5,29.5c0,16.3,13.2,29.5,29.5,29.5s29.5-13.2,29.5-29.5
		C77.5,151.7,64.3,138.5,48,138.5z M48,193.5c-14.1,0-25.5-11.4-25.5-25.5s11.4-25.5,25.5-25.5s25.5,11.4,25.5,25.5
		S62.1,193.5,48,193.5z"/>
</g>
</svg>
