<?xml version="1.0" encoding="utf-8"?>
<!-- Generator: Adobe Illustrator 22.1.0, SVG Export Plug-In . SVG Version: 6.00 Build 0)  -->
<svg version="1.1" id="Layer_1" xmlns="http://www.w3.org/2000/svg" xmlns:xlink="http://www.w3.org/1999/xlink" x="0px" y="0px"
	 viewBox="0 0 256 256" style="enable-background:new 0 0 256 256;" xml:space="preserve">
<g>
	<rect x="39.5" y="116.8" style="opacity:0.2;" width="69" height="28.8"/>
	<rect x="110.5" y="116.8" style="opacity:0.2;" width="69" height="28.8"/>
	<rect x="181" y="116.8" style="opacity:0.2;" width="69" height="28.8"/>
	<rect x="38.5" y="143.9" style="fill:#3F4340;" width="69" height="5.9"/>
	<path style="fill:#3F4340;" d="M43.9,149.5c0,3.3,2.7,5.9,5.9,5.9c3.3,0,5.9-2.7,5.9-5.9c0-3.3-2.7-5.9-5.9-5.9
		C46.5,143.6,43.9,146.2,43.9,149.5z"/>
	<path style="fill:#ADADAD;" d="M46.4,149.5c0,1.9,1.5,3.4,3.4,3.4c1.9,0,3.4-1.5,3.4-3.4c0-1.9-1.5-3.4-3.4-3.4
		C47.9,146.1,46.4,147.6,46.4,149.5z"/>
	
		<ellipse transform="matrix(2.777639e-02 -0.9996 0.9996 2.777639e-02 -54.7898 242.6252)" style="fill:#3F4340;" cx="97.3" cy="149.5" rx="5.9" ry="5.9"/>
	<path style="fill:#ADADAD;" d="M93.9,149.5c0,1.9,1.5,3.4,3.4,3.4c1.9,0,3.4-1.5,3.4-3.4c0-1.9-1.5-3.4-3.4-3.4
		C95.4,146.1,93.9,147.6,93.9,149.5z"/>
	<rect x="107.2" y="145.5" style="fill:#3F4340;" width="2.3" height="2.5"/>
	<rect x="109.5" y="143.9" style="fill:#3F4340;" width="69" height="5.9"/>
	<path style="fill:#3F4340;" d="M114.8,149.5c0,3.3,2.7,5.9,5.9,5.9c3.3,0,5.9-2.7,5.9-5.9c0-3.3-2.7-5.9-5.9-5.9
		C117.5,143.6,114.8,146.2,114.8,149.5z"/>
	<path style="fill:#ADADAD;" d="M117.3,149.5c0,1.9,1.5,3.4,3.4,3.4c1.9,0,3.4-1.5,3.4-3.4c0-1.9-1.5-3.4-3.4-3.4
		C118.9,146.1,117.3,147.6,117.3,149.5z"/>
	
		<ellipse transform="matrix(2.777639e-02 -0.9996 0.9996 2.777639e-02 14.2012 313.56)" style="fill:#3F4340;" cx="168.3" cy="149.5" rx="5.9" ry="5.9"/>
	<path style="fill:#ADADAD;" d="M164.9,149.5c0,1.9,1.5,3.4,3.4,3.4c1.9,0,3.4-1.5,3.4-3.4c0-1.9-1.5-3.4-3.4-3.4
		C166.4,146.1,164.9,147.6,164.9,149.5z"/>
	<rect x="178.2" y="145.5" style="fill:#3F4340;" width="2.3" height="2.5"/>
	<rect x="180" y="143.9" style="fill:#3F4340;" width="69" height="5.9"/>
	<path style="fill:#3F4340;" d="M185.3,149.5c0,3.3,2.7,5.9,5.9,5.9c3.3,0,5.9-2.7,5.9-5.9c0-3.3-2.7-5.9-5.9-5.9
		C188,143.6,185.3,146.2,185.3,149.5z"/>
	<path style="fill:#ADADAD;" d="M187.8,149.5c0,1.9,1.5,3.4,3.4,3.4c1.9,0,3.4-1.5,3.4-3.4c0-1.9-1.5-3.4-3.4-3.4
		C189.3,146.1,187.8,147.6,187.8,149.5z"/>
	
		<ellipse transform="matrix(2.777639e-02 -0.9996 0.9996 2.777639e-02 82.7261 384.0154)" style="fill:#3F4340;" cx="238.8" cy="149.5" rx="5.9" ry="5.9"/>
	<path style="fill:#ADADAD;" d="M235.4,149.5c0,1.9,1.5,3.4,3.4,3.4c1.9,0,3.4-1.5,3.4-3.4c0-1.9-1.5-3.4-3.4-3.4
		C236.9,146.1,235.4,147.6,235.4,149.5z"/>
	<rect x="248.7" y="145.5" style="fill:#3F4340;" width="2.3" height="2.5"/>
	<rect x="36.3" y="142.8" style="fill:#3F4340;" width="2.2" height="2.3"/>
	<rect x="15.8" y="123.5" style="fill:#D2EDF3;" width="6.8" height="6.3"/>
	<rect x="4.5" y="137.3" style="fill:#ECA121;" width="1.5" height="2.6"/>
	<path style="fill:#3F4340;" d="M8.1,149.5c0,3.3,2.7,5.9,5.9,5.9c3.3,0,5.9-2.7,5.9-5.9c0-3.3-2.7-5.9-5.9-5.9
		C10.8,143.6,8.1,146.2,8.1,149.5z"/>
	<path style="fill:#ADADAD;" d="M10.6,149.5c0,1.9,1.5,3.4,3.4,3.4c1.9,0,3.4-1.5,3.4-3.4c0-1.9-1.5-3.4-3.4-3.4
		C12.2,146.1,10.6,147.6,10.6,149.5z"/>
	
		<ellipse transform="matrix(0.9737 -0.2278 0.2278 0.9737 -33.2595 10.8457)" style="fill:#3F4340;" cx="30.3" cy="149.5" rx="5.9" ry="5.9"/>
	<path style="fill:#ADADAD;" d="M26.9,149.5c0,1.9,1.5,3.4,3.4,3.4c1.9,0,3.4-1.5,3.4-3.4c0-1.9-1.5-3.4-3.4-3.4
		C28.5,146.1,26.9,147.6,26.9,149.5z"/>
</g>
</svg>
