<?xml version="1.0" encoding="utf-8"?>
<!-- Generator: Adobe Illustrator 22.1.0, SVG Export Plug-In . SVG Version: 6.00 Build 0)  -->
<svg version="1.1" id="Layer_1" xmlns="http://www.w3.org/2000/svg" xmlns:xlink="http://www.w3.org/1999/xlink" x="0px" y="0px"
	 viewBox="0 0 256 256" style="enable-background:new 0 0 256 256;" xml:space="preserve">
<g>
	<g>
		<polygon style="fill:#194453;" points="175.3,153.6 172.1,205.2 193.4,222.4 195.5,169.4 		"/>
		<polygon style="fill:#194453;" points="85.7,153.4 73.2,165.9 68.3,218.9 89,206.1 		"/>
	</g>
	<path style="fill:#FCD251;" d="M76.5,157.4c-5.9-17.1-10.6-17.1-16.5,0c-5.9,17.1-4.2,34.1-4.2,34.1l4.7,34.4H76l4.7-34.4
		C80.8,191.6,82.5,174.5,76.5,157.4z"/>
	<path style="fill:#4585A7;" d="M61.2,238l-0.7-12H76l-2.8,12.7C68.8,240.5,64.7,241,61.2,238z"/>
	<path style="fill:#FCD251;" d="M202.4,161.7c-5.9-17.1-10.6-17.1-16.5,0s-4.2,34.1-4.2,34.1l4.7,34.4h15.6l4.7-34.4
		C206.6,195.8,208.3,178.7,202.4,161.7z"/>
	<path style="fill:#4585A7;" d="M187.1,242.2l-0.7-12h15.6l-2.8,12.7C194.7,244.8,190.5,245.3,187.1,242.2z"/>
	<polygon style="fill:#194453;" points="116,224 115.6,230.2 107.9,242.2 159.1,242.2 152.4,230.2 152,224 	"/>
	<circle style="fill:#174855;" cx="134" cy="104.3" r="27"/>
	<circle style="fill:#B4D6E2;" cx="134" cy="104.3" r="24"/>
	<path style="fill:#174856;" d="M100,44.6c-1.1,2.2-2.1,4.5-3.1,6.7c20.6,7.7,42.9,8.8,67.6,1.1c-1.1-2.6-2.3-5.2-3.5-7.8
		C139.1-0.2,121.9-0.2,100,44.6z"/>
	<polygon style="opacity:0.2;" points="172.1,204.1 88.8,203.4 90.1,223.8 126.2,224.4 126.2,224.6 130.5,224.5 134.7,224.6 
		134.7,224.4 170.9,223.8 	"/>
</g>
</svg>
