<?xml version="1.0" encoding="utf-8"?>
<!-- Generator: Adobe Illustrator 22.1.0, SVG Export Plug-In . SVG Version: 6.00 Build 0)  -->
<svg version="1.1" id="Layer_1" xmlns="http://www.w3.org/2000/svg" xmlns:xlink="http://www.w3.org/1999/xlink" x="0px" y="0px"
	 viewBox="0 0 256 256" style="enable-background:new 0 0 256 256;" xml:space="preserve">
<g style="opacity:0;">
	<path style="fill:#FFFFFF;" d="M100.5,73.5l-17,39c0,0,1,37,28,44s36-15,34-23s-3-12-9-20s-4-12-4-12l73,7c0,0,21,14,28,26
		s10,22,10,22s2,5-1,5s-55-5.1-66.9-1.6c0,0-2,1.3,0,4.8s-3.5,3.4-3.5,3.4s-40.4,4.9-55.7,3.2s-26.5-7.8-32.8-22.5
		c-6.3-14.7-9.5-21.3-21.5-24.6c0,0-2.1-1.3,0-4.8c2.1-3.5,21.6-39.1,21.6-39.1l5.6-6.3l8.4-0.7H100.5z"/>
	<path style="opacity:0.5;" d="M17.7,140.1c0,0,10.2-15.8,26.4-16.5s24.6,6.5,24.6,6.5s14.9,10.5,17.8,34.5c0,0-14.5-1.5-27.6-12.8
		S19,142,19,142S16.3,142,17.7,140.1z"/>
	<path style="opacity:0.5;" d="M228.7,136c-14.7-17.2-24.8-18-42.2-18.3c-17.3-0.3-31.3,9.5-28.3,24.2c3,14.7,16.5,20.3,16.5,20.3
		c-0.1-1.6,0.9-2.2,0.9-2.2c10.8-3.2,54.3,0.7,64.8,1.5C239.9,155.7,237.5,146.4,228.7,136z"/>
	<path style="opacity:0.5;" d="M73.5,59.6h6.1c0,0,9.4,3.5,12.9,7.9v6.9c0,0-6.9,7.9-14.8,8h-4.2V59.6z"/>
</g>
<g>
	<path style="fill:#515453;" d="M180.8,159.1c-1.6,3.5-2.5,7.4-2.5,11.5c0,15.5,12.6,28.1,28.1,28.1c15.5,0,28.1-12.6,28.1-28.1
		c0-3.4-0.6-6.7-1.8-9.8C218.8,159.7,193.5,157.9,180.8,159.1z"/>
	<path style="fill:#9A9B9A;" d="M195.4,158.7c-3.2,3-5.2,7.2-5.2,11.9c0,8.9,7.2,16.2,16.2,16.2c8.9,0,16.2-7.2,16.2-16.2
		c0-4.2-1.6-8-4.2-10.8C211,159.3,202.8,158.9,195.4,158.7z"/>
	<path style="fill:#515453;" d="M58.9,151.8c-8.4-7.3-22.5-9.2-31.4-9.7c-8.6,5.4-14.3,15-14.3,25.9c0,16.9,13.7,30.7,30.7,30.7
		c16.9,0,30.7-13.7,30.7-30.7c0-2.4-0.3-4.8-0.8-7C69.1,159,63.9,156.1,58.9,151.8z"/>
	<path style="fill:#515453;" d="M97.3,67.4h13.9c0,0,2.6,0.8,2.6,3.5s-2.3,3.4-2.3,3.4H97c0,0-2.2,1.5-4.5,0v-6.9
		C92.5,67.4,94.1,65.3,97.3,67.4z"/>
	<path style="fill:#68B8E5;" d="M73.5,82.4c-1.2,0-2.8-5.1-2.8-11.4s1.5-11.4,2.8-11.4"/>
	<path style="fill:#515453;" d="M128,98.8c0,0-0.5-8.7,7.8-9.5c8.3-0.8,73.3-2.7,73.3-2.7s7.3-0.7,8.5,6.8v8.2c0,0,1.1,7.4-11,7.6
		l-71.5-2.3C135.2,107,127.7,105.2,128,98.8z"/>
	<circle style="fill:#9A9B9A;" cx="43.8" cy="168" r="17.7"/>
	<path style="fill:#515453;" d="M62,124.3l-1.2,1.7c5.3,1.9,8,4.2,8,4.2s0.7,0.5,1.8,1.5l1.3-2.5C69.3,127,66.2,125.4,62,124.3z"/>
</g>
</svg>
