<?xml version="1.0" encoding="utf-8"?>
<!-- Generator: Adobe Illustrator 22.1.0, SVG Export Plug-In . SVG Version: 6.00 Build 0)  -->
<svg version="1.1" id="Layer_1" xmlns="http://www.w3.org/2000/svg" xmlns:xlink="http://www.w3.org/1999/xlink" x="0px" y="0px"
	 viewBox="0 0 256 256" style="enable-background:new 0 0 256 256;" xml:space="preserve">
<g>
	<path style="fill:#69CDFF;" d="M242.5,161.5c-3,0-55-5.1-66.9-1.6c0,0-2,1.3,0,4.8c2,3.6-3.5,3.4-3.5,3.4s-40.4,4.9-55.8,3.2
		c-15.3-1.8-26.5-7.8-32.8-22.5c-4.1-9.5-6.9-15.7-11.6-19.7c-2.5-2.2-5.7-3.7-9.9-4.9c0,0-2.1-1.3,0-4.8
		c1.9-3.2,18.6-33.6,21.2-38.4c-1.7,0.7-3.6,1.2-5.5,1.3h-4.2V59.6h6.1c0,0,9.4,3.5,12.9,7.9v6.5l5.1-0.4h2.9l-17,39c0,0,1,37,28,44
		s36-15,34-23s-3-12-9-20s-4-12-4-12l73,7c0,0,21,14,28,26s10,22,10,22S245.5,161.5,242.5,161.5z"/>
	<path style="fill:#69CDFF;" d="M86.5,164.6c0,0-5.5-0.6-12.8-3.7c-4.5-1.9-9.8-4.8-14.8-9.2c-8.4-7.3-22.5-9.3-31.5-9.7
		c-5-0.3-8.4-0.1-8.4-0.1s-2.7,0-1.3-1.9c0,0,10.2-15.7,26.4-16.5c16.3-0.7,24.6,6.5,24.6,6.5S83.6,140.6,86.5,164.6z"/>
</g>
</svg>
