<?xml version="1.0" encoding="utf-8"?>
<!-- Generator: Adobe Illustrator 22.1.0, SVG Export Plug-In . SVG Version: 6.00 Build 0)  -->
<svg version="1.1" id="Layer_1" xmlns="http://www.w3.org/2000/svg" xmlns:xlink="http://www.w3.org/1999/xlink" x="0px" y="0px"
	 viewBox="0 0 256 256" style="enable-background:new 0 0 256 256;" xml:space="preserve">
<g>
	<path style="fill:#515453;" d="M71.9,129.1l-1.3,2.5c-1.1-1-1.8-1.5-1.8-1.5s-2.7-2.3-8-4.2l1.2-1.7
		C66.2,125.4,69.3,127,71.9,129.1z"/>
	<path style="fill:#515453;" d="M97.3,67.4h13.9c0,0,2.6,0.8,2.6,3.5s-2.3,3.4-2.3,3.4H97c0,0-2.2,1.5-4.5,0v-6.9
		C92.5,67.4,94.1,65.3,97.3,67.4z"/>
	<path style="opacity:0.3;" d="M240.3,161.4c-1.7-0.1-4.3-0.3-7.6-0.6c-4-0.3-9-0.7-14.3-1c-7.5-0.5-15.7-0.9-23.1-1
		c-5.6-0.1-10.7,0-14.6,0.3c-2.1,0.2-3.9,0.5-5.2,0.8c0,0-1,0.6-0.9,2.2c0,0-13.5-5.7-16.5-20.3c-3-14.7,11-24.5,28.3-24.2
		c17.3,0.3,27.5,1.2,42.2,18.3C237.5,146.4,239.9,155.6,240.3,161.4z"/>
	<path style="opacity:0.3;" d="M73.5,59.6h6.1c0,0,9.4,3.5,12.9,7.9v6.9c0,0-6.9,7.9-14.8,8h-4.2V59.6z"/>
	<path style="fill:#68B8E5;" d="M73.5,82.4c-1.2,0-2.8-5.1-2.8-11.4s1.5-11.4,2.8-11.4"/>
	<path style="fill:#515453;" d="M128,98.8c0,0-0.5-8.7,7.8-9.5c8.3-0.8,73.3-2.7,73.3-2.7s7.3-0.7,8.5,6.8v8.2c0,0,1.1,7.4-11,7.6
		l-71.5-2.3C135.2,107,127.7,105.2,128,98.8z"/>
	<path style="fill:#515453;" d="M74.5,168c0,16.9-13.7,30.7-30.7,30.7c-16.9,0-30.7-13.7-30.7-30.7c0-10.9,5.7-20.5,14.3-25.9
		c9,0.5,23,2.5,31.5,9.7c5,4.3,10.3,7.2,14.8,9.2C74.2,163.2,74.5,165.6,74.5,168z"/>
	<circle style="fill:#9A9B9A;" cx="43.8" cy="168" r="17.7"/>
	<path style="fill:#515453;" d="M234.5,170.6c0,15.5-12.6,28.1-28.1,28.1s-28.1-12.6-28.1-28.1c0-4.1,0.9-8,2.5-11.5
		c3.9-0.4,9-0.4,14.6-0.3c7.4,0.1,15.6,0.5,23.1,1c5.3,0.3,10.3,0.7,14.3,1C233.9,163.8,234.5,167.1,234.5,170.6z"/>
	<path style="fill:#9A9B9A;" d="M222.6,170.6c0,8.9-7.2,16.2-16.2,16.2s-16.2-7.2-16.2-16.2c0-4.7,2-8.9,5.2-11.8
		c7.4,0.1,15.6,0.5,23.1,1C221,162.6,222.6,166.4,222.6,170.6z"/>
	<path style="opacity:0.3;fill:#515453;" d="M86.5,164.6c0,0-14.5-1.5-27.6-12.8C45.8,140.5,19,142,19,142s-2.7,0-1.3-1.9
		c0,0,10.2-15.7,26.4-16.5c7-0.3,12.6,0.9,16.7,2.3c5.3,1.9,8,4.2,8,4.2s0.7,0.5,1.8,1.5C74.6,135.3,84.2,145.8,86.5,164.6z"/>
</g>
</svg>
