<?xml version="1.0" encoding="utf-8"?>
<!-- Generator: Adobe Illustrator 22.1.0, SVG Export Plug-In . SVG Version: 6.00 Build 0)  -->
<svg version="1.1" id="Layer_1" xmlns="http://www.w3.org/2000/svg" xmlns:xlink="http://www.w3.org/1999/xlink" x="0px" y="0px"
	 viewBox="0 0 256 256" style="enable-background:new 0 0 256 256;" xml:space="preserve">
<g>
	<polygon style="opacity:0.2;" points="204.4,127 204.4,102.8 135.3,102.8 135.3,118.6 172.3,118.6 172.3,127 53.5,127 53.5,137.8 
		172.3,137.8 204.4,137.8 221,137.8 221,127 	"/>
	<g>
		<polygon style="fill:#FFF100;" points="169.8,89.5 162.1,95.6 198.5,95.6 198.5,89.5 		"/>
	</g>
	<g>
		<rect x="84.6" y="78.5" style="fill:#FFF100;" width="14.1" height="9.2"/>
	</g>
	<g>
		<rect x="84.6" y="87.7" style="fill:#EC1C24;" width="14.1" height="37"/>
	</g>
	<g>
		<rect x="107.2" y="87.7" style="fill:#EC1C24;" width="14.1" height="37"/>
	</g>
	<g>
		<rect x="107.2" y="78.5" style="fill:#FFF100;" width="14.1" height="9.2"/>
	</g>
	<g>
		<polygon style="fill:#FFF100;" points="250,130.1 220.5,130.1 220.3,133.3 66,133.3 54.8,128.6 6,128.6 10.6,137.8 246.3,137.8 		
			"/>
	</g>
	<g>
		<polygon style="fill:#FFF100;" points="28,172.8 229.2,172.8 233.2,164.7 23.9,164.7 		"/>
	</g>
	<g>
		<circle style="fill:#FFFFFF;" cx="100" cy="151.8" r="7.2"/>
		<path style="fill:#FFF100;" d="M100,159.5c-4.2,0-7.7-3.4-7.7-7.7s3.4-7.7,7.7-7.7s7.7,3.4,7.7,7.7S104.2,159.5,100,159.5z
			 M100,145.2c-3.7,0-6.6,3-6.6,6.6s3,6.6,6.6,6.6c3.7,0,6.6-3,6.6-6.6S103.6,145.2,100,145.2z"/>
	</g>
	<g>
		<circle style="fill:#FFFFFF;" cx="76" cy="152.4" r="7.2"/>
		<path style="fill:#FFF100;" d="M76,160.1c-4.2,0-7.7-3.4-7.7-7.7c0-4.2,3.4-7.7,7.7-7.7s7.7,3.4,7.7,7.7
			C83.7,156.7,80.3,160.1,76,160.1z M76,145.8c-3.7,0-6.6,3-6.6,6.6s3,6.6,6.6,6.6s6.6-3,6.6-6.6S79.7,145.8,76,145.8z"/>
	</g>
	<g>
		<circle style="fill:#FFFFFF;" cx="195.8" cy="152.4" r="7.2"/>
		<path style="fill:#FFF100;" d="M195.8,160.1c-4.2,0-7.7-3.4-7.7-7.7c0-4.2,3.4-7.7,7.7-7.7c4.2,0,7.7,3.4,7.7,7.7
			C203.5,156.7,200.1,160.1,195.8,160.1z M195.8,145.8c-3.7,0-6.6,3-6.6,6.6s3,6.6,6.6,6.6s6.6-3,6.6-6.6S199.5,145.8,195.8,145.8z"
			/>
	</g>
	<g>
		<circle style="fill:#FFFFFF;" cx="122.2" cy="151.8" r="7.2"/>
		<path style="fill:#FFF100;" d="M122.2,159.5c-4.2,0-7.7-3.4-7.7-7.7s3.4-7.7,7.7-7.7s7.7,3.4,7.7,7.7S126.4,159.5,122.2,159.5z
			 M122.2,145.2c-3.7,0-6.6,3-6.6,6.6s3,6.6,6.6,6.6s6.6-3,6.6-6.6S125.8,145.2,122.2,145.2z"/>
	</g>
	<g>
		<circle style="fill:#FFFFFF;" cx="145.5" cy="151.8" r="7.2"/>
		<path style="fill:#FFF100;" d="M145.5,159.5c-4.2,0-7.7-3.4-7.7-7.7s3.4-7.7,7.7-7.7s7.7,3.4,7.7,7.7S149.7,159.5,145.5,159.5z
			 M145.5,145.2c-3.7,0-6.6,3-6.6,6.6s3,6.6,6.6,6.6s6.6-3,6.6-6.6S149.2,145.2,145.5,145.2z"/>
	</g>
	<g>
		<circle style="fill:#FFFFFF;" cx="170.5" cy="151.8" r="7.2"/>
		<path style="fill:#FFF100;" d="M170.5,159.5c-4.2,0-7.7-3.4-7.7-7.7s3.4-7.7,7.7-7.7c4.2,0,7.7,3.4,7.7,7.7
			S174.7,159.5,170.5,159.5z M170.5,145.2c-3.7,0-6.6,3-6.6,6.6s3,6.6,6.6,6.6c3.7,0,6.6-3,6.6-6.6S174.1,145.2,170.5,145.2z"/>
	</g>
	<rect x="139.9" y="106.8" style="fill:#FFFFFF;" width="8.2" height="6.2"/>
	<rect x="173.9" y="106.8" style="fill:#FFFFFF;" width="8.2" height="6.2"/>
	<path style="fill:#FFF100;" d="M166.2,113.5H157v-7.2h9.2V113.5z M158,112.5h7.1v-5.1H158V112.5z"/>
	<path style="fill:#FFF100;" d="M199.6,113.5h-9.2v-7.2h9.2V113.5z M191.4,112.5h7.1v-5.1h-7.1V112.5z"/>
	<path style="fill:#FFF100;" d="M183.8,125h-9.2v-7.2h9.2V125z M175.6,123.9h7.1v-5.1h-7.1V123.9z"/>
	<path style="fill:#FFF100;" d="M199.8,125h-9.2v-7.2h9.2V125z M191.7,123.9h7.1v-5.1h-7.1V123.9z"/>
	<path style="fill:#FFF100;" d="M148.5,113.5h-9.2v-7.2h9.2V113.5z M140.4,112.5h7.1v-5.1h-7.1V112.5z"/>
	<path style="fill:#FFF100;" d="M182.6,113.5h-9.2v-7.2h9.2V113.5z M174.4,112.5h7.1v-5.1h-7.1V112.5z"/>
	<g>
		<path style="fill:#6D6E70;" d="M29.7,145.4c-0.2,0-0.4,0-0.5-0.1c-1.6-0.3-2.7-1.9-2.4-3.5c0.1-0.8,0.6-1.5,1.2-1.9
			c0.7-0.5,1.5-0.6,2.2-0.5c0.8,0.1,1.5,0.6,1.9,1.2c0.5,0.7,0.6,1.5,0.5,2.2l0,0C32.4,144.4,31.2,145.4,29.7,145.4z M29.7,140.6
			c-0.4,0-0.7,0.1-1,0.3c-0.4,0.3-0.7,0.7-0.8,1.2c-0.2,1,0.5,1.9,1.4,2.1c1,0.2,1.9-0.5,2.1-1.4l0,0c0.1-0.5,0-1-0.3-1.4
			c-0.3-0.4-0.7-0.7-1.2-0.8C30,140.6,29.9,140.6,29.7,140.6z"/>
	</g>
	<g>
		<path style="fill:#6D6E70;" d="M32,157.4c5.6,2.3,5.9-3.6,5.9-3.6l0.9-0.2l-1.8-1.4l-1.3,2l1.2-0.7c0.2,2.7-3.4,2.4-4.3,2.3
			c-0.9-0.2-0.9-11.4-0.9-11.4l-3,0.5c0,0,2.8,10.9,2.1,11.3c-0.8,0.4-4.2,1.6-4.7-1.1l1.3,0.4l-1.8-1.6l-1.4,1.8l0.9,0
			C24.9,155.6,27.2,161.1,32,157.4"/>
	</g>
</g>
</svg>
