<?xml version="1.0" encoding="utf-8"?>
<!-- Generator: Adobe Illustrator 22.1.0, SVG Export Plug-In . SVG Version: 6.00 Build 0)  -->
<svg version="1.1" id="Layer_1" xmlns="http://www.w3.org/2000/svg" xmlns:xlink="http://www.w3.org/1999/xlink" x="0px" y="0px"
	 viewBox="0 0 256 256" style="enable-background:new 0 0 256 256;" xml:space="preserve">
<g>
	<g>
		<polygon style="fill:#1B75BB;" points="149.3,105.9 198.5,105.9 198.5,95.6 162.1,95.6 		"/>
	</g>
	<g>
		<polygon style="fill:#1B75BB;" points="198.5,82.2 178.9,82.2 169.8,89.5 198.5,89.5 		"/>
	</g>
	<polyline style="fill:#1B75BB;" points="135.3,137.9 135.3,102.8 204.4,102.8 204.4,139.5 	"/>
	<polyline style="fill:#1B75BB;" points="72.8,134.8 72.8,118.6 172.3,118.6 172.3,141 	"/>
	<polyline style="fill:#1B75BB;" points="53.5,146.9 53.5,127 221,127 221,144.5 	"/>
	<g>
		<path style="fill:#1B75BB;" d="M10.6,137.8l13.4,26.9h209.2l13.1-26.9H10.6z"/>
	</g>
	<g>
		<polygon style="fill:#1B75BB;" points="30.9,178.7 226.3,178.7 229.2,172.8 28,172.8 		"/>
	</g>
	<rect x="157.5" y="106.8" style="fill:#FFFFFF;" width="8.2" height="6.2"/>
	<rect x="190.9" y="106.8" style="fill:#FFFFFF;" width="8.2" height="6.2"/>
	<rect x="175.1" y="118.3" style="fill:#FFFFFF;" width="8.2" height="6.2"/>
	<rect x="191.1" y="118.3" style="fill:#FFFFFF;" width="8.2" height="6.2"/>
</g>
</svg>
