<?xml version="1.0" encoding="utf-8"?>
<!-- Generator: Adobe Illustrator 22.1.0, SVG Export Plug-In . SVG Version: 6.00 Build 0)  -->
<svg version="1.1" id="Layer_1" xmlns="http://www.w3.org/2000/svg" xmlns:xlink="http://www.w3.org/1999/xlink" x="0px" y="0px"
	 viewBox="0 0 256 256" style="enable-background:new 0 0 256 256;" xml:space="preserve">
<g style="opacity:0;">
	<polygon style="fill:#669832;" points="6.5,141.5 18.5,126.5 200.5,126.5 212.5,141.5 215.5,139.5 202.5,122.5 17.5,122.5 
		4.5,139.5 	"/>
	<path style="fill:#669832;" d="M23.9,122.5v-14.4H28l42.1-0.6c0,0-3.3-7.5,6-25.8h72.7c0,0,7.2,13.8,6.3,21.7h-4.5v5H163l12,14.7
		L23.9,122.5z"/>
	<rect x="34" y="102.3" style="fill:#669832;" width="2.4" height="19"/>
	<rect x="50.1" y="102.3" style="fill:#669832;" width="2.4" height="19"/>
	<rect x="66.4" y="102.3" style="fill:#669832;" width="2.4" height="19"/>
	<rect x="82.4" y="102.3" style="fill:#669832;" width="2.4" height="19"/>
	<rect x="18.1" y="125" style="fill:#679833;" width="182.6" height="8.3"/>
	<rect x="164.9" y="88.7" style="fill:#659932;" width="66.6" height="5"/>
	<rect x="231.5" y="87.3" style="fill:#659932;" width="15.1" height="8.1"/>
	<path style="fill:#679833;" d="M25,130.1h168.6c0,0,9.8,0.8,11,11.4c0,0,1,8.5-8,12.5l-37,13.4h-101l-38.5-14.5
		c0,0-6.4-4.1-5.8-11.4S20.3,130.1,25,130.1z"/>
	<rect x="117.8" y="76.4" style="fill:#659932;" width="5.8" height="1.4"/>
</g>
<g>
	<path style="fill:#4A5F2D;" d="M148.2,82.3c0,0,7.3-0.1,10.8,4.8h6v7.8H160c0,0-2.5,6-6.3,6.5S148.2,82.3,148.2,82.3z"/>
	<rect x="93.7" y="77.8" style="fill:#4A5F2D;" width="31.8" height="4.5"/>
	<path style="fill:#4A5F2D;" d="M99.8,90.9H82.6c-1.2,0-2.1-1-2.1-2.1v0c0-1.2,1-2.1,2.1-2.1h17.2c1.2,0,2.1,1,2.1,2.1v0
		C101.9,90,101,90.9,99.8,90.9z"/>
	<path style="fill:#4B5F29;" d="M243.1,93.1h-8.4c-0.9,0-1.7-0.8-1.7-1.7l0,0c0-0.9,0.8-1.7,1.7-1.7h8.4c0.9,0,1.7,0.8,1.7,1.7l0,0
		C244.8,92.3,244.1,93.1,243.1,93.1z"/>
	<path style="fill:#4B5F29;" d="M233.2,95.3h11.4c-0.3-0.5-0.8-0.9-1.5-0.9h-8.4C234.1,94.4,233.5,94.8,233.2,95.3z"/>
	<path style="fill:#4B5F29;" d="M233.1,87.3c0.2,0.6,0.9,1.1,1.6,1.1h8.4c0.7,0,1.3-0.4,1.6-1.1H233.1z"/>
	<polygon style="fill:#4B5F29;" points="165.4,111.3 178.8,111.3 189.5,123 175,123 	"/>
	<path style="fill:#4B5F29;" d="M180.1,113.6h3.3c0,0,2.6,0.9,3.3,3h8.2v1.3h-8.3c0,0-0.1,1.6-1,1.7"/>
	<circle style="fill:#4B5F29;" cx="26.9" cy="142.3" r="9.3"/>
	<circle style="fill:#4B5F29;" cx="192.1" cy="142.3" r="9.3"/>
	<circle style="fill:#4B5F29;" cx="54.2" cy="148.4" r="12.4"/>
	<circle style="fill:#4B5F29;" cx="163.7" cy="148.4" r="12.4"/>
	<circle style="fill:#4B5F29;" cx="90.7" cy="148.3" r="15.7"/>
	<circle style="fill:#4B5F29;" cx="128.6" cy="149" r="15.7"/>
	<path style="fill:none;stroke:#4A5F2D;stroke-width:3;stroke-miterlimit:10;" d="M25,130.1h168.6c0,0,9.8,0.8,11,11.4
		c0,0,1,8.5-8,12.5l-37,13.4h-101l-38.5-14.5c0,0-6.4-4.1-5.8-11.4S20.3,130.1,25,130.1z"/>
	<rect x="28.2" y="103" style="fill:#4A5F2D;" width="5.8" height="17.5"/>
	<rect x="36.4" y="103" style="fill:#4A5F2D;" width="13.8" height="17.5"/>
	<rect x="52.5" y="103" style="fill:#4A5F2D;" width="13.9" height="17.5"/>
	<rect x="68.8" y="103" style="fill:#4A5F2D;" width="13.6" height="17.5"/>
	<polygon style="fill:#4A5F2D;" points="91.6,103 89.8,103 84.8,103 84.8,120.5 91.6,120.5 91.6,108.3 151.3,108.3 151.3,103 	"/>
</g>
</svg>
