<?xml version="1.0" encoding="utf-8"?>
<!-- Generator: Adobe Illustrator 22.1.0, SVG Export Plug-In . SVG Version: 6.00 Build 0)  -->
<svg version="1.1" id="Layer_1" xmlns="http://www.w3.org/2000/svg" xmlns:xlink="http://www.w3.org/1999/xlink" x="0px" y="0px"
	 viewBox="0 0 256 256" style="enable-background:new 0 0 256 256;" xml:space="preserve">
<g>
	<polygon style="fill:#669832;" points="6.5,151.5 18.5,136.5 200.5,136.5 212.5,151.5 215.5,149.5 202.5,132.5 17.5,132.5 
		4.5,149.5 	"/>
	<rect x="117.8" y="86.4" style="fill:#659932;" width="5.8" height="1.4"/>
	<path style="fill:#669832;" d="M23.9,132.5v-14.4H28l42.1-0.6c0,0-3.3-7.5,6-25.8h72.7c0,0,7.2,13.8,6.3,21.7h-4.5v5H163l12,14.7
		L23.9,132.5z"/>
	<rect x="18.1" y="135" style="fill:#679833;" width="182.6" height="8.3"/>
	<rect x="164.9" y="98.7" style="fill:#659932;" width="66.6" height="5"/>
	<rect x="231.5" y="97.3" style="fill:#659932;" width="15.1" height="8.1"/>
	<path style="fill:#679833;" d="M25,140.1h168.6c0,0,9.8,0.8,11,11.4c0,0,1,8.5-8,12.5l-37,13.4h-101l-38.5-14.5
		c0,0-6.4-4.1-5.8-11.4S20.3,140.1,25,140.1z"/>
	<rect x="34" y="112.3" style="fill:#669832;" width="2.4" height="19"/>
	<rect x="50.1" y="112.3" style="fill:#669832;" width="2.4" height="19"/>
	<rect x="66.4" y="112.3" style="fill:#669832;" width="2.4" height="19"/>
	<rect x="82.4" y="112.3" style="fill:#669832;" width="2.4" height="19"/>
</g>
</svg>
