<?xml version="1.0" encoding="utf-8"?>
<!-- Generator: Adobe Illustrator 22.1.0, SVG Export Plug-In . SVG Version: 6.00 Build 0)  -->
<svg version="1.1" id="Layer_1" xmlns="http://www.w3.org/2000/svg" xmlns:xlink="http://www.w3.org/1999/xlink" x="0px" y="0px"
	 viewBox="0 0 256 256" style="enable-background:new 0 0 256 256;" xml:space="preserve">
<g>
	<path style="fill:#4A5F2D;" d="M148.2,92.3c0,0,7.3-0.1,10.8,4.8h6v7.8H160c0,0-2.5,6-6.3,6.5S148.2,92.3,148.2,92.3z"/>
	<rect x="93.7" y="87.8" style="fill:#4A5F2D;" width="31.8" height="4.5"/>
	<path style="fill:#4A5F2D;" d="M99.8,100.9H82.6c-1.2,0-2.1-1-2.1-2.1v0c0-1.2,1-2.1,2.1-2.1h17.2c1.2,0,2.1,1,2.1,2.1v0
		C101.9,100,101,100.9,99.8,100.9z"/>
	<path style="fill:#4B5F29;" d="M243.1,103.1h-8.4c-0.9,0-1.7-0.8-1.7-1.7l0,0c0-0.9,0.8-1.7,1.7-1.7h8.4c0.9,0,1.7,0.8,1.7,1.7l0,0
		C244.8,102.3,244.1,103.1,243.1,103.1z"/>
	<path style="fill:#4B5F29;" d="M233.2,105.3h11.4c-0.3-0.5-0.8-0.9-1.5-0.9h-8.4C234.1,104.4,233.5,104.8,233.2,105.3z"/>
	<path style="fill:#4B5F29;" d="M233.1,97.3c0.2,0.6,0.9,1.1,1.6,1.1h8.4c0.7,0,1.3-0.4,1.6-1.1H233.1z"/>
	<polygon style="fill:#4B5F29;" points="165.4,121.3 178.8,121.3 189.5,133 175,133 	"/>
	<path style="fill:#4B5F29;" d="M180.1,123.6h3.3c0,0,2.6,0.9,3.3,3h8.2v1.3h-8.3c0,0-0.1,1.6-1,1.7"/>
	<circle style="fill:#4B5F29;" cx="26.9" cy="152.3" r="9.3"/>
	<circle style="fill:#4B5F29;" cx="192.1" cy="152.3" r="9.3"/>
	<circle style="fill:#4B5F29;" cx="54.2" cy="158.4" r="12.4"/>
	<circle style="fill:#4B5F29;" cx="163.7" cy="158.4" r="12.4"/>
	<circle style="fill:#4B5F29;" cx="90.7" cy="158.3" r="15.7"/>
	<circle style="fill:#4B5F29;" cx="128.6" cy="159" r="15.7"/>
	<path style="fill:none;stroke:#4A5F2D;stroke-width:3;stroke-miterlimit:10;" d="M25,140.1h168.6c0,0,9.8,0.8,11,11.4
		c0,0,1,8.5-8,12.5l-37,13.4h-101l-38.5-14.5c0,0-6.4-4.1-5.8-11.4S20.3,140.1,25,140.1z"/>
	<rect x="28.2" y="113" style="fill:#4A5F2D;" width="5.8" height="17.5"/>
	<rect x="36.4" y="113" style="fill:#4A5F2D;" width="13.8" height="17.5"/>
	<rect x="52.5" y="113" style="fill:#4A5F2D;" width="13.9" height="17.5"/>
	<rect x="68.8" y="113" style="fill:#4A5F2D;" width="13.6" height="17.5"/>
	<polygon style="fill:#4A5F2D;" points="91.6,113 89.8,113 84.8,113 84.8,130.5 91.6,130.5 91.6,118.3 151.3,118.3 151.3,113 	"/>
</g>
</svg>
