<?xml version="1.0" encoding="utf-8"?>
<!-- Generator: Adobe Illustrator 22.1.0, SVG Export Plug-In . SVG Version: 6.00 Build 0)  -->
<svg version="1.1" id="Layer_1" xmlns="http://www.w3.org/2000/svg" xmlns:xlink="http://www.w3.org/1999/xlink" x="0px" y="0px"
	 viewBox="0 0 256 256" style="enable-background:new 0 0 256 256;" xml:space="preserve">
<g style="opacity:0;">
	<polygon style="fill:#9D0B0E;" points="109.5,105.8 117.5,105.8 123.8,119.5 123.8,152 109.5,152.5 	"/>
	<polygon style="fill:#EB1C26;" points="197.3,51.3 98.5,51.3 98.5,54.3 117.8,59.5 197.3,59.5 	"/>
	<path style="fill:#EB1C26;" d="M110.8,104.5c0,0-66-1-79,9s-13,17-13,34v24h7h85V104.5z"/>
	<path style="fill:#9D0B0E;" d="M22.5,183.5c0.1-2.7,0.1-5.4,0.3-8.1c0.8-13.2,9.1-24.9,21.4-29.8c0.1,0,0.2-0.1,0.3-0.1l96,3
		l-0.9,31.4c-0.1,2.5-2.2,4.5-4.7,4.5L22.5,183.5z"/>
	<polygon style="fill:#9D0B0E;" points="44.5,145.5 57,184.5 101.2,188.3 91.4,162.5 70.5,147.3 44.5,144.1 	"/>
	<path style="fill:#C2151B;" d="M102.5,188.5c0,0-1-27-26-40c0,0-18-9-33-6l1,3c0,0,18.2-0.8,30,6C86,158.1,94.6,165,99,187.9
		L102.5,188.5z"/>
	<polygon style="fill:#9D0B0E;" points="138.7,169.5 149.4,169.5 231.8,147.2 240,142.7 227.3,122.3 196.5,112.5 169.7,116.3 
		151.2,130 140.5,143.7 	"/>
	<path style="fill:#EB1C26;" d="M137.2,152.5c0,0-1.5-2.1,1.3-7.3s10-22,29.8-30.8s37.8-4.9,47.9,0s26,17.9,30.9,32.6
		c0,0-4.5,2.5-8.8-4.5s-17-25.6-42.3-27.4c-11.2-0.8-21.1,2.7-28.6,6.8c-7.9,4.4-14.6,10.8-19.3,18.6
		C144.2,146.9,138.7,154.9,137.2,152.5z"/>
	<polygon style="fill:#9D0B0E;" points="109.5,105.8 117.5,105.8 123.8,119.5 123.8,152 109.5,152.5 	"/>
</g>
<g>
	<path style="fill:#BCBEBF;" d="M17.2,142.3h-2.6c-3-3-2.5-22.4,0-25.6h2.6V142.3z"/>
	<g>
		<polygon style="fill:#404040;" points="118.3,110.5 133.3,104.5 134.8,108 118.9,115.1 		"/>
		<path style="fill:#404040;" d="M140.9,117L140.9,117c-1,0.5-2.3,0-2.7-1.1l-8.9-20.5c-0.5-1,0-2.3,1.1-2.7l0,0
			c1-0.5,2.3,0,2.7,1.1l8.9,20.5C142.4,115.3,142,116.6,140.9,117z"/>
	</g>
	<rect x="162.1" y="61.1" style="fill:#22201E;" width="2.9" height="45.5"/>
	<path style="fill:#362E2F;" d="M24.8,120C24.8,120,24.8,120,24.8,120c-2.3-4-7.6-3.3-7.6-3.3v25.6h1.7
		C18.9,132.4,19.7,126.2,24.8,120z"/>
	<path style="fill:#323232;" d="M18.8,171.5v-24c0-0.1,0-0.2,0-0.4h-3.6c-3.8,2.8-5.9,5.9-6.3,9.1v13c0.9,4,3.4,6.2,6.6,7.5h5.9
		v-5.3H18.8z"/>
	<path style="fill:#404040;" d="M66.8,105.9V79c0-3.1-2.4-5.6-5.5-5.7V53l6.4-22.1l-5.6-1.6l-6.6,22.9h0v21.2
		c-2.9,0.3-5.2,2.7-5.2,5.6v28.8C55.4,107,61.1,106.3,66.8,105.9z"/>
	<g>
		<circle style="fill:#404040;" cx="54.7" cy="182" r="28.3"/>
		<circle style="fill:#BABCBE;" cx="54.7" cy="182" r="15.8"/>
		<circle style="fill:#57595B;" cx="54.7" cy="182" r="4.7"/>
		<circle style="fill:#323031;" cx="55.3" cy="172.9" r="2.4"/>
		<circle style="fill:#323031;" cx="46.8" cy="177.7" r="2.4"/>
		<circle style="fill:#323031;" cx="46.8" cy="187.3" r="2.4"/>
		<circle style="fill:#323031;" cx="54.7" cy="192.4" r="2.4"/>
		<circle style="fill:#323031;" cx="63.4" cy="187.7" r="2.4"/>
		<circle style="fill:#323031;" cx="63.8" cy="177.7" r="2.4"/>
		<path style="fill:#2D2C2D;" d="M56.3,213.2c-0.6,0.3-1.4,0.4-2.3-0.1c-0.5-0.2-0.8-0.7-0.8-1.3v-3.1c0-0.9,0.7-1.6,1.5-1.6h0.9
			c0.8,0,1.5,0.7,1.5,1.6v3.2C57,212.5,56.7,213,56.3,213.2z"/>
		<path style="fill:#2D2C2D;" d="M66.9,210.7c-0.5,0.5-1.2,0.8-2.2,0.7c-0.5-0.1-1-0.4-1.1-1l-1.1-2.9c-0.3-0.8,0.1-1.7,0.8-2
			l0.9-0.3c0.8-0.3,1.6,0.2,1.9,1l1.1,3C67.4,209.8,67.3,210.4,66.9,210.7z"/>
		<path style="fill:#2D2C2D;" d="M76,204.8c-0.3,0.7-0.8,1.2-1.9,1.4c-0.5,0.1-1.1-0.1-1.4-0.5l-2-2.4c-0.6-0.7-0.5-1.6,0.1-2.2
			l0.7-0.6c0.6-0.5,1.6-0.4,2.2,0.3l2.1,2.4C76.1,203.7,76.2,204.3,76,204.8z"/>
		<path style="fill:#2D2C2D;" d="M82.6,196.1c0,0.7-0.4,1.4-1.2,2c-0.4,0.3-1,0.3-1.5,0l-2.7-1.5c-0.8-0.4-1.1-1.4-0.7-2.1l0.5-0.8
			c0.4-0.7,1.3-0.9,2.1-0.5l2.8,1.6C82.3,195,82.6,195.5,82.6,196.1z"/>
		<path style="fill:#2D2C2D;" d="M85.7,185.6c0.2,0.7,0.1,1.4-0.5,2.3c-0.3,0.4-0.9,0.6-1.4,0.5l-3-0.5c-0.9-0.1-1.5-0.9-1.3-1.7
			l0.2-0.9c0.1-0.8,0.9-1.3,1.8-1.2l3.1,0.5C85.1,184.7,85.5,185.1,85.7,185.6z"/>
		<path style="fill:#2D2C2D;" d="M85,174.7c0.4,0.6,0.6,1.3,0.3,2.3c-0.1,0.5-0.6,0.9-1.1,1l-3,0.6c-0.9,0.2-1.7-0.4-1.8-1.2
			l-0.2-0.9c-0.1-0.8,0.4-1.6,1.3-1.7l3.1-0.6C84.2,174.1,84.7,174.3,85,174.7z"/>
		<path style="fill:#2D2C2D;" d="M80.7,164.7c0.6,0.4,1,1,1.1,2.1c0,0.5-0.3,1-0.7,1.3l-2.7,1.6c-0.8,0.4-1.7,0.2-2.1-0.5l-0.5-0.8
			c-0.4-0.7-0.1-1.6,0.6-2.1l2.7-1.6C79.7,164.4,80.3,164.4,80.7,164.7z"/>
		<path style="fill:#2D2C2D;" d="M73.2,156.8c0.7,0.2,1.3,0.6,1.7,1.6c0.2,0.5,0.1,1.1-0.2,1.5l-2,2.4c-0.6,0.7-1.5,0.8-2.1,0.3
			l-0.7-0.6c-0.6-0.5-0.7-1.5-0.1-2.2l2-2.5C72.1,156.9,72.7,156.7,73.2,156.8z"/>
		<path style="fill:#2D2C2D;" d="M63.4,152c0.7-0.1,1.4,0.1,2.2,0.9c0.4,0.4,0.5,0.9,0.3,1.5l-1,2.9c-0.3,0.8-1.1,1.3-1.9,1
			l-0.9-0.3c-0.8-0.3-1.2-1.2-0.9-2l1-3C62.4,152.5,62.9,152.1,63.4,152z"/>
		<path style="fill:#2D2C2D;" d="M52.5,150.8c0.6-0.3,1.4-0.4,2.3,0.1c0.5,0.2,0.8,0.7,0.8,1.3l0.1,3.1c0,0.9-0.6,1.6-1.4,1.6
			l-0.9,0c-0.8,0-1.5-0.7-1.5-1.6l-0.1-3.2C51.8,151.6,52.1,151.1,52.5,150.8z"/>
		<path style="fill:#2D2C2D;" d="M42,153.5c0.5-0.5,1.2-0.8,2.2-0.7c0.5,0,1,0.4,1.2,0.9l1.1,2.9c0.3,0.8,0,1.7-0.8,2l-0.9,0.3
			c-0.8,0.3-1.6-0.1-1.9-1l-1.1-3C41.5,154.4,41.6,153.8,42,153.5z"/>
		<path style="fill:#2D2C2D;" d="M32.9,159.6c0.3-0.7,0.8-1.2,1.8-1.5c0.5-0.1,1.1,0.1,1.4,0.5l2,2.3c0.6,0.7,0.6,1.6-0.1,2.2
			l-0.7,0.6c-0.6,0.5-1.6,0.4-2.2-0.2l-2.1-2.4C32.8,160.6,32.7,160,32.9,159.6z"/>
		<path style="fill:#2D2C2D;" d="M26.5,168.4c0-0.7,0.4-1.4,1.2-2c0.4-0.3,1-0.3,1.5,0l2.7,1.5c0.8,0.4,1.1,1.3,0.7,2.1l-0.4,0.8
			c-0.4,0.7-1.3,0.9-2.1,0.5l-2.8-1.5C26.8,169.4,26.5,168.9,26.5,168.4z"/>
		<path style="fill:#2D2C2D;" d="M23.6,178.9c-0.2-0.7-0.1-1.4,0.5-2.3c0.3-0.4,0.8-0.6,1.4-0.5l3.1,0.5c0.9,0.1,1.5,0.9,1.4,1.7
			l-0.1,0.9c-0.1,0.8-0.9,1.3-1.8,1.2l-3.1-0.5C24.2,179.8,23.7,179.4,23.6,178.9z"/>
		<path style="fill:#2D2C2D;" d="M24.4,189.8c-0.4-0.6-0.6-1.3-0.4-2.3c0.1-0.5,0.6-0.9,1.1-1l3-0.6c0.9-0.2,1.7,0.3,1.9,1.1
			l0.2,0.9c0.2,0.8-0.4,1.6-1.3,1.8l-3.1,0.6C25.3,190.4,24.7,190.2,24.4,189.8z"/>
		<path style="fill:#2D2C2D;" d="M28.9,199.7c-0.6-0.4-1-1-1.1-2c-0.1-0.5,0.2-1,0.7-1.3l2.6-1.6c0.7-0.5,1.7-0.3,2.1,0.4l0.5,0.8
			c0.4,0.7,0.2,1.6-0.6,2.1l-2.7,1.7C30,200,29.4,200,28.9,199.7z"/>
		<path style="fill:#2D2C2D;" d="M36.6,207.5c-0.7-0.1-1.3-0.6-1.8-1.5c-0.2-0.5-0.1-1,0.2-1.5l1.9-2.4c0.5-0.7,1.5-0.8,2.1-0.3
			l0.7,0.6c0.6,0.5,0.7,1.5,0.2,2.2l-2,2.5C37.6,207.4,37.1,207.6,36.6,207.5z"/>
		<path style="fill:#2D2C2D;" d="M46.4,212.1c-0.7,0.1-1.4-0.1-2.2-0.8c-0.4-0.4-0.5-0.9-0.3-1.5l1-2.9c0.3-0.8,1.1-1.3,1.9-1.1
			l0.9,0.3c0.8,0.3,1.2,1.1,0.9,2l-1,3C47.4,211.7,46.9,212.1,46.4,212.1z"/>
	</g>
	<g>
		<circle style="fill:#404040;" cx="190.7" cy="165.5" r="43.2"/>
		<circle style="fill:#BABCBE;" cx="190.7" cy="165.5" r="24.1"/>
		<circle style="fill:#57595B;" cx="190.7" cy="165.5" r="7.1"/>
		<circle style="fill:#323031;" cx="191.6" cy="151.7" r="3.6"/>
		<circle style="fill:#323031;" cx="178.6" cy="158.9" r="3.6"/>
		<circle style="fill:#323031;" cx="178.6" cy="173.5" r="3.6"/>
		<circle style="fill:#323031;" cx="190.7" cy="181.4" r="3.6"/>
		<circle style="fill:#323031;" cx="204" cy="174.1" r="3.6"/>
		<circle style="fill:#323031;" cx="204.5" cy="158.9" r="3.6"/>
		<path style="fill:#2D2C2D;" d="M193.1,213.1c-1,0.5-2.1,0.5-3.6-0.2c-0.7-0.3-1.1-1.1-1.1-2v-4.7c0-1.3,1-2.4,2.2-2.4h1.4
			c1.2,0,2.2,1.1,2.2,2.4v4.8C194.3,211.9,193.9,212.7,193.1,213.1z"/>
		<path style="fill:#2D2C2D;" d="M209.3,209.3c-0.8,0.8-1.8,1.2-3.4,1.1c-0.8-0.1-1.5-0.7-1.8-1.5l-1.6-4.4
			c-0.5-1.3,0.1-2.6,1.3-3.1l1.3-0.5c1.2-0.4,2.5,0.3,2.9,1.5l1.7,4.5C210,207.9,209.9,208.8,209.3,209.3z"/>
		<path style="fill:#2D2C2D;" d="M223.3,200.2c-0.4,1-1.3,1.8-2.8,2.2c-0.8,0.2-1.6-0.1-2.1-0.8l-3-3.6c-0.9-1-0.8-2.5,0.1-3.3
			l1.1-0.9c0.9-0.8,2.4-0.6,3.3,0.4l3.1,3.7C223.4,198.6,223.6,199.5,223.3,200.2z"/>
		<path style="fill:#2D2C2D;" d="M233.2,186.9c-0.1,1.1-0.6,2.1-1.9,3c-0.6,0.4-1.6,0.4-2.3,0l-4.1-2.3c-1.2-0.7-1.6-2.1-1-3.1
			l0.7-1.2c0.6-1.1,2.1-1.4,3.2-0.7l4.2,2.4C232.8,185.4,233.3,186.1,233.2,186.9z"/>
		<path style="fill:#2D2C2D;" d="M238,171c0.3,1,0.2,2.2-0.7,3.5c-0.5,0.6-1.3,0.9-2.1,0.8l-4.6-0.8c-1.3-0.2-2.2-1.4-2-2.6l0.2-1.4
			c0.2-1.2,1.4-2,2.8-1.8l4.8,0.8C237.1,169.7,237.8,170.2,238,171z"/>
		<path style="fill:#2D2C2D;" d="M237,154.4c0.7,0.9,0.9,2,0.5,3.5c-0.2,0.8-0.9,1.3-1.7,1.5l-4.6,0.9c-1.3,0.2-2.6-0.5-2.8-1.8
			l-0.3-1.4c-0.2-1.2,0.7-2.4,2-2.6l4.8-0.9C235.7,153.5,236.5,153.8,237,154.4z"/>
		<path style="fill:#2D2C2D;" d="M230.4,139.2c0.9,0.6,1.5,1.6,1.7,3.1c0.1,0.8-0.4,1.6-1.1,2l-4,2.4c-1.2,0.7-2.6,0.4-3.2-0.7
			l-0.7-1.2c-0.6-1.1-0.2-2.5,1-3.2l4.2-2.5C228.8,138.7,229.7,138.7,230.4,139.2z"/>
		<path style="fill:#2D2C2D;" d="M218.9,127.1c1.1,0.2,2,0.9,2.7,2.4c0.3,0.7,0.2,1.6-0.4,2.3l-3,3.6c-0.8,1-2.3,1.2-3.3,0.5
			l-1.1-0.9c-1-0.8-1-2.3-0.2-3.3l3.1-3.7C217.3,127.3,218.1,126.9,218.9,127.1z"/>
		<path style="fill:#2D2C2D;" d="M204,119.8c1.1-0.1,2.2,0.2,3.3,1.3c0.6,0.6,0.7,1.4,0.4,2.2l-1.5,4.4c-0.4,1.3-1.7,2-2.9,1.6
			l-1.3-0.5c-1.2-0.4-1.8-1.8-1.3-3l1.6-4.6C202.5,120.5,203.2,119.9,204,119.8z"/>
		<path style="fill:#2D2C2D;" d="M187.5,118c1-0.5,2.1-0.6,3.6,0.1c0.7,0.3,1.2,1.1,1.2,2l0.1,4.7c0,1.3-1,2.4-2.2,2.5l-1.4,0
			c-1.2,0-2.3-1.1-2.3-2.4l-0.1-4.8C186.3,119.1,186.7,118.3,187.5,118z"/>
		<path style="fill:#2D2C2D;" d="M171.3,122c0.7-0.8,1.8-1.3,3.4-1.1c0.8,0.1,1.5,0.6,1.8,1.4l1.7,4.4c0.5,1.3-0.1,2.6-1.2,3.1
			l-1.3,0.5c-1.2,0.4-2.5-0.2-3-1.5l-1.7-4.5C170.6,123.5,170.8,122.6,171.3,122z"/>
		<path style="fill:#2D2C2D;" d="M157.5,131.3c0.4-1,1.2-1.8,2.8-2.2c0.8-0.2,1.6,0.1,2.2,0.7l3.1,3.5c0.9,1,0.8,2.5-0.1,3.3
			l-1.1,0.9c-0.9,0.8-2.4,0.7-3.3-0.4l-3.2-3.6C157.4,132.9,157.2,132,157.5,131.3z"/>
		<path style="fill:#2D2C2D;" d="M147.8,144.8c0-1.1,0.6-2.1,1.9-3.1c0.6-0.5,1.5-0.5,2.3-0.1l4.1,2.3c1.2,0.6,1.6,2,1.1,3.1
			l-0.7,1.2c-0.6,1.1-2,1.4-3.2,0.8l-4.2-2.3C148.2,146.3,147.8,145.6,147.8,144.8z"/>
		<path style="fill:#2D2C2D;" d="M143.3,160.8c-0.3-1-0.2-2.2,0.7-3.5c0.4-0.6,1.3-1,2.1-0.8l4.7,0.7c1.3,0.2,2.3,1.4,2.1,2.6
			l-0.2,1.4c-0.2,1.2-1.4,2.1-2.7,1.8l-4.8-0.7C144.2,162.1,143.5,161.5,143.3,160.8z"/>
		<path style="fill:#2D2C2D;" d="M144.5,177.4c-0.7-0.9-1-2-0.6-3.5c0.2-0.8,0.9-1.3,1.7-1.5l4.6-0.9c1.3-0.3,2.6,0.5,2.8,1.7
			l0.3,1.4c0.2,1.2-0.6,2.4-1.9,2.7l-4.7,1C145.9,178.3,145,178,144.5,177.4z"/>
		<path style="fill:#2D2C2D;" d="M151.4,192.5c-0.9-0.6-1.6-1.5-1.7-3.1c-0.1-0.8,0.4-1.6,1.1-2l4-2.5c1.1-0.7,2.6-0.4,3.2,0.6
			l0.7,1.2c0.6,1.1,0.2,2.5-0.9,3.2l-4.1,2.5C153,192.9,152.1,192.9,151.4,192.5z"/>
		<path style="fill:#2D2C2D;" d="M163.1,204.3c-1.1-0.2-2-0.9-2.7-2.3c-0.3-0.7-0.2-1.6,0.3-2.3l2.9-3.7c0.8-1.1,2.3-1.3,3.3-0.5
			l1.1,0.9c1,0.8,1.1,2.2,0.2,3.3l-3,3.8C164.7,204.2,163.9,204.5,163.1,204.3z"/>
		<path style="fill:#2D2C2D;" d="M178.1,211.4c-1.1,0.2-2.2-0.2-3.3-1.3c-0.6-0.5-0.7-1.4-0.5-2.2l1.5-4.5c0.4-1.3,1.7-2,2.9-1.6
			l1.3,0.4c1.2,0.4,1.8,1.7,1.4,3l-1.5,4.6C179.6,210.7,178.9,211.3,178.1,211.4z"/>
	</g>
	<path style="fill:#22201E;" d="M137.9,133.3h-14.1V148l13.4,0.4c0.3-0.9,0.7-2,1.4-3.2c2.8-5.3,10-22,29.8-30.8
		c13.8-6.1,26.8-6.1,36.8-3.8l-7.8-51.1H119l-7.3,46.3h2.8l6.3-43.9h74.5l5.1,32.3C167.2,98.1,148.4,112.6,137.9,133.3z"/>
</g>
</svg>
