<?xml version="1.0" encoding="utf-8"?>
<!-- Generator: Adobe Illustrator 22.1.0, SVG Export Plug-In . SVG Version: 6.00 Build 0)  -->
<svg version="1.1" id="Layer_1" xmlns="http://www.w3.org/2000/svg" xmlns:xlink="http://www.w3.org/1999/xlink" x="0px" y="0px"
	 viewBox="0 0 256 256" style="enable-background:new 0 0 256 256;" xml:space="preserve">
<g>
	<polygon style="fill:#EB1C26;" points="109.5,105.8 117.5,105.8 123.8,119.5 123.8,152 109.5,152.5 	"/>
	<path style="fill:#EB1C26;" d="M110.8,104.5c0,0-66-1-79,9s-13,17-13,34v24h7h85V104.5z"/>
	<path style="fill:#EB1C26;" d="M102.5,188.5c0,0-1-27-26-40c0,0-18-9-33-6l1,3c0,0,18.2-0.8,30,6C86,158.1,94.6,165,99,187.9
		L102.5,188.5z"/>
	<path style="fill:#EB1C26;" d="M137.2,152.5c0,0-1.5-2.1,1.3-7.3s10-22,29.8-30.8s37.8-4.9,47.9,0s26,17.9,30.9,32.6
		c0,0-4.5,2.5-8.8-4.5s-17-25.6-42.3-27.4c-11.2-0.8-21.1,2.7-28.6,6.8c-7.9,4.4-14.6,10.8-19.3,18.6
		C144.2,146.9,138.7,154.9,137.2,152.5z"/>
	<polygon style="fill:#EB1C26;" points="197.3,51.3 98.5,51.3 98.5,54.3 117.8,59.5 197.3,59.5 	"/>
	<path style="fill:#EB1C26;" d="M22.5,183.5c0.8-8.5,0.6-17.3,4-25c2.6-4.4,5.8-8.5,11.8-10.8l2.5-0.9c2.8-1,5.7-1.4,8.6-1.3
		c6.2,0.2,17.2,1.4,25.1,6C86,158.1,94.6,165,99,187.9L22.5,183.5z"/>
	<path style="fill:#EB1C26;" d="M238.3,142.5c-4.3-7-17-25.6-42.3-27.4c-11.2-0.8-21.1,2.7-28.6,6.8c-7.9,4.4-14.6,10.8-19.3,18.6
		c-4,6.4-9.4,14.4-10.9,12c0,0-0.9-1.2-0.1-4l-13.4-0.1v-28.9l-6.3-13.8h-8v42.5l-34-0.2c0.6,0.3,1,0.5,1,0.5
		c18.8,9.8,24,27.5,25.5,35.7l33,0.3c2.5,0,4.6-2,4.7-4.5l0.3-10.4h9.5l82.5-22.3l7-3.8C238.6,143.1,238.4,142.8,238.3,142.5z"/>
</g>
</svg>
