<?xml version="1.0" encoding="utf-8"?>
<!-- Generator: Adobe Illustrator 22.1.0, SVG Export Plug-In . SVG Version: 6.00 Build 0)  -->
<svg version="1.1" id="Layer_1" xmlns="http://www.w3.org/2000/svg" xmlns:xlink="http://www.w3.org/1999/xlink" x="0px" y="0px"
	 viewBox="0 0 256 256" style="enable-background:new 0 0 256 256;" xml:space="preserve">
<g>
	<polygon style="opacity:0.2;" points="30.5,186.5 30.5,175.5 111.5,175.5 127.5,168.5 239.5,168.5 239.5,183.5 	"/>
	<rect x="43.5" y="102.5" style="opacity:0.3;" width="26" height="73"/>
	<rect x="148.5" y="53.5" style="opacity:0.2;" width="91" height="15"/>
	<g style="opacity:0.2;">
		<path d="M43.5,120.3c-4.6,6.5-7.6,14.5-9,24.2h9V120.3z"/>
		<rect x="69.5" y="116.5" width="86" height="28"/>
	</g>
	<rect x="58" y="185" style="fill:#3E4347;" width="40" height="29"/>
	<rect x="91" y="183" style="fill:#3E4347;" width="122" height="17"/>
	<g>
		<path style="fill:#ED4C5C;" d="M82,191c-9.4,0-17,7.6-17,17s7.6,17,17,17s17-7.6,17-17S91.4,191,82,191z M82,220.5
			c-6.9,0-12.5-5.6-12.5-12.5s5.6-12.5,12.5-12.5s12.5,5.6,12.5,12.5S88.9,220.5,82,220.5z"/>
		<rect x="79.5" y="193.5" style="fill:#ED4C5C;" width="5" height="28"/>
		
			<rect x="79" y="193.2" transform="matrix(0.4277 0.9039 -0.9039 0.4277 233.9705 44.8715)" style="fill:#ED4C5C;" width="5" height="28"/>
		
			<rect x="79" y="193.2" transform="matrix(-0.4418 0.8971 -0.8971 -0.4418 303.4702 225.6042)" style="fill:#ED4C5C;" width="5" height="28"/>
		<path style="fill:#3E4347;" d="M82,187.5c-11.3,0-20.5,9.2-20.5,20.5s9.2,20.5,20.5,20.5s20.5-9.2,20.5-20.5S93.3,187.5,82,187.5z
			 M82,225c-9.4,0-17-7.6-17-17s7.6-17,17-17s17,7.6,17,17S91.4,225,82,225z"/>
	</g>
	<g>
		<path style="fill:#ED4C5C;" d="M146.5,179.5c-12.1,0-22,9.8-22,22s9.8,22,22,22s22-9.8,22-22S158.6,179.5,146.5,179.5z
			 M146.5,217.7c-8.9,0-16.2-7.2-16.2-16.2s7.2-16.2,16.2-16.2s16.2,7.2,16.2,16.2S155.4,217.7,146.5,217.7z"/>
		<rect x="143.3" y="182.8" style="fill:#ED4C5C;" width="6.5" height="36.2"/>
		
			<rect x="142.7" y="182.4" transform="matrix(0.4277 0.9039 -0.9039 0.4277 264.7232 -17.1626)" style="fill:#ED4C5C;" width="6.5" height="36.2"/>
		
			<rect x="142.7" y="182.4" transform="matrix(-0.4418 0.8971 -0.8971 -0.4418 390.2383 158.1557)" style="fill:#ED4C5C;" width="6.5" height="36.2"/>
		<path style="fill:#3E4347;" d="M146.5,175c-14.6,0-26.5,11.9-26.5,26.5s11.9,26.5,26.5,26.5s26.5-11.9,26.5-26.5
			S161.1,175,146.5,175z M146.5,223.5c-12.1,0-22-9.8-22-22s9.8-22,22-22s22,9.8,22,22S158.6,223.5,146.5,223.5z"/>
	</g>
	<g>
		<path style="fill:#ED4C5C;" d="M201.5,179.5c-12.1,0-22,9.8-22,22s9.8,22,22,22s22-9.8,22-22S213.6,179.5,201.5,179.5z
			 M201.5,217.7c-8.9,0-16.2-7.2-16.2-16.2s7.2-16.2,16.2-16.2s16.2,7.2,16.2,16.2S210.4,217.7,201.5,217.7z"/>
		<rect x="198.3" y="182.8" style="fill:#ED4C5C;" width="6.5" height="36.2"/>
		
			<rect x="197.7" y="182.4" transform="matrix(0.4277 0.9039 -0.9039 0.4277 296.1984 -66.8776)" style="fill:#ED4C5C;" width="6.5" height="36.2"/>
		
			<rect x="197.7" y="182.4" transform="matrix(-0.4418 0.8971 -0.8971 -0.4418 469.5375 108.8146)" style="fill:#ED4C5C;" width="6.5" height="36.2"/>
		<path style="fill:#3E4347;" d="M201.5,175c-14.6,0-26.5,11.9-26.5,26.5s11.9,26.5,26.5,26.5s26.5-11.9,26.5-26.5
			S216.1,175,201.5,175z M201.5,223.5c-12.1,0-22-9.8-22-22s9.8-22,22-22s22,9.8,22,22S213.6,223.5,201.5,223.5z"/>
	</g>
	<rect x="86.5" y="182.5" style="fill:#DBB471;" width="40" height="15"/>
	<polygon points="69.5,53.5 76.5,67.5 76.5,116.5 110.5,116.5 110.5,67.5 117.5,53.5 	"/>
	<path style="fill:#FFDD7D;" d="M213.5,197.5H124l-6.8-3.9c-1.9-1.1-4.4-0.5-5.5,1.5c-1.1,1.9-0.5,4.4,1.5,5.5l8.3,5h92
		c2.2,0,4-1.8,4-4C217.5,199.3,215.7,197.5,213.5,197.5z"/>
	<g>
		<path d="M162.5,68.5v49h63v-49H162.5z M189.5,110.5h-19v-35h19V110.5z M217.5,109.5h-19v-34h19V109.5z"/>
	</g>
	<g>
		<path d="M218.5,151.5v-17.1c-0.2,0-0.3,0-0.5,0c-4.7,0-8.5-3.8-8.5-8.5c0-0.9,0.1-1.7,0.4-2.5h-31.8c0.2,0.8,0.4,1.6,0.4,2.5
			c0,4.7-3.8,8.5-8.5,8.5c-0.5,0-1-0.1-1.5-0.1v17.3c0.5-0.1,1-0.1,1.5-0.1c4.7,0,8.5,3.8,8.5,8.5c0,0.9-0.1,1.7-0.4,2.5h32.8
			c-0.2-0.8-0.4-1.6-0.4-2.5C210.5,155.5,214,151.8,218.5,151.5z"/>
	</g>
	<g>
		<path style="fill:#ED4C5C;" d="M32.5,185.5l-16,39h42v-39H32.5z M37.1,192.5l-5.7,22.8c-0.4,1.4-1.6,2.2-2.8,1.9s-1.8-1.7-1.4-3
			l6.8-22.5c0.5-1.7,1.5-2.9,2.4-2.6h0C37.2,189.2,37.5,190.8,37.1,192.5z M45.2,192.2l-3.5,22.7c-0.2,1.4-1.4,2.3-2.6,2.1
			c-1.2-0.2-1.9-1.5-1.7-2.8l4.6-22.5c0.3-1.7,1.3-2.9,2.1-2.8C45,189,45.5,190.5,45.2,192.2z M52.7,214.6c-0.1,1.4-1.1,2.4-2.3,2.3
			h0c-1.2-0.1-2.1-1.2-2-2.6l1.7-22.5c0.1-1.7,0.9-3,1.8-3c0.9,0,1.6,1.5,1.5,3.1L52.7,214.6z"/>
	</g>
</g>
</svg>
