<?xml version="1.0" encoding="utf-8"?>
<!-- Generator: Adobe Illustrator 22.1.0, SVG Export Plug-In . SVG Version: 6.00 Build 0)  -->
<svg version="1.1" id="Layer_1" xmlns="http://www.w3.org/2000/svg" xmlns:xlink="http://www.w3.org/1999/xlink" x="0px" y="0px"
	 viewBox="0 0 256 256" style="enable-background:new 0 0 256 256;" xml:space="preserve">
<g>
	<rect x="51" y="185" style="fill:#3E4347;" width="40" height="29"/>
	<rect x="84" y="183" style="fill:#3E4347;" width="122" height="17"/>
	<g>
		<path style="fill:#ED4C5C;" d="M75,191c-9.4,0-17,7.6-17,17s7.6,17,17,17s17-7.6,17-17S84.4,191,75,191z M75,220.5
			c-6.9,0-12.5-5.6-12.5-12.5s5.6-12.5,12.5-12.5s12.5,5.6,12.5,12.5S81.9,220.5,75,220.5z"/>
		<rect x="72.5" y="193.5" style="fill:#ED4C5C;" width="5" height="28"/>
		
			<rect x="72" y="193.2" transform="matrix(0.4277 0.9039 -0.9039 0.4277 229.9646 51.1988)" style="fill:#ED4C5C;" width="5" height="28"/>
		
			<rect x="72" y="193.2" transform="matrix(-0.4418 0.8971 -0.8971 -0.4418 293.3776 231.884)" style="fill:#ED4C5C;" width="5" height="28"/>
		<path style="fill:#3E4347;" d="M75,187.5c-11.3,0-20.5,9.2-20.5,20.5s9.2,20.5,20.5,20.5s20.5-9.2,20.5-20.5S86.3,187.5,75,187.5z
			 M75,225c-9.4,0-17-7.6-17-17s7.6-17,17-17s17,7.6,17,17S84.4,225,75,225z"/>
	</g>
	<g>
		<path style="fill:#ED4C5C;" d="M139.5,179.5c-12.1,0-22,9.8-22,22s9.8,22,22,22s22-9.8,22-22S151.6,179.5,139.5,179.5z
			 M139.5,217.7c-8.9,0-16.2-7.2-16.2-16.2s7.2-16.2,16.2-16.2s16.2,7.2,16.2,16.2S148.4,217.7,139.5,217.7z"/>
		<rect x="136.3" y="182.8" style="fill:#ED4C5C;" width="6.5" height="36.2"/>
		
			<rect x="135.7" y="182.4" transform="matrix(0.4277 0.9039 -0.9039 0.4277 260.7173 -10.8352)" style="fill:#ED4C5C;" width="6.5" height="36.2"/>
		
			<rect x="135.7" y="182.4" transform="matrix(-0.4418 0.8971 -0.8971 -0.4418 380.1456 164.4355)" style="fill:#ED4C5C;" width="6.5" height="36.2"/>
		<path style="fill:#3E4347;" d="M139.5,175c-14.6,0-26.5,11.9-26.5,26.5s11.9,26.5,26.5,26.5s26.5-11.9,26.5-26.5
			S154.1,175,139.5,175z M139.5,223.5c-12.1,0-22-9.8-22-22s9.8-22,22-22s22,9.8,22,22S151.6,223.5,139.5,223.5z"/>
	</g>
	<g>
		<path style="fill:#ED4C5C;" d="M194.5,179.5c-12.1,0-22,9.8-22,22s9.8,22,22,22s22-9.8,22-22S206.6,179.5,194.5,179.5z
			 M194.5,217.7c-8.9,0-16.2-7.2-16.2-16.2s7.2-16.2,16.2-16.2s16.2,7.2,16.2,16.2S203.4,217.7,194.5,217.7z"/>
		<rect x="191.3" y="182.8" style="fill:#ED4C5C;" width="6.5" height="36.2"/>
		
			<rect x="190.7" y="182.4" transform="matrix(0.4277 0.9039 -0.9039 0.4277 292.1925 -60.5502)" style="fill:#ED4C5C;" width="6.5" height="36.2"/>
		
			<rect x="190.7" y="182.4" transform="matrix(-0.4418 0.8971 -0.8971 -0.4418 459.4449 115.0944)" style="fill:#ED4C5C;" width="6.5" height="36.2"/>
		<path style="fill:#3E4347;" d="M194.5,175c-14.6,0-26.5,11.9-26.5,26.5s11.9,26.5,26.5,26.5s26.5-11.9,26.5-26.5
			S209.1,175,194.5,175z M194.5,223.5c-12.1,0-22-9.8-22-22s9.8-22,22-22s22,9.8,22,22S206.6,223.5,194.5,223.5z"/>
	</g>
	<rect x="79.5" y="182.5" style="fill:#DBB471;" width="40" height="15"/>
	<path style="fill:#FFDD7D;" d="M206.5,197.5H117l-6.8-3.9c-1.9-1.1-4.4-0.5-5.5,1.5c-1.1,1.9-0.5,4.4,1.5,5.5l8.3,5h92
		c2.2,0,4-1.8,4-4C210.5,199.3,208.7,197.5,206.5,197.5z"/>
	<g>
		<path style="fill:#ED4C5C;" d="M25.5,185.5l-16,39h42v-39H25.5z M30.1,192.5l-5.7,22.8c-0.4,1.4-1.6,2.2-2.8,1.9s-1.8-1.7-1.4-3
			l6.8-22.5c0.5-1.7,1.5-2.9,2.4-2.6h0C30.2,189.2,30.5,190.8,30.1,192.5z M38.2,192.2l-3.5,22.7c-0.2,1.4-1.4,2.3-2.6,2.1
			c-1.2-0.2-1.9-1.5-1.7-2.8l4.6-22.5c0.3-1.7,1.3-2.9,2.1-2.8C38,189,38.5,190.5,38.2,192.2z M45.7,214.6c-0.1,1.4-1.1,2.4-2.3,2.3
			h0c-1.2-0.1-2.1-1.2-2-2.6l1.7-22.5c0.1-1.7,0.9-3,1.8-3c0.9,0,1.6,1.5,1.5,3.1L45.7,214.6z"/>
	</g>
	<polygon points="62.5,46.5 69.5,60.5 69.5,109.5 103.5,109.5 103.5,60.5 110.5,46.5 	"/>
	<g>
		<path d="M155.5,68v49.5h63V68H155.5z M182.5,110.4h-19V75.1h19V110.4z M210.5,109.4h-19V75.1h19V109.4z"/>
	</g>
	<g>
		<path d="M220,151.5v-17.1c-0.2,0-0.4,0-0.7,0c-6.3,0-11.4-3.8-11.4-8.5c0-0.9,0.2-1.7,0.5-2.5h-42.5c0.3,0.8,0.5,1.6,0.5,2.5
			c0,4.7-5.1,8.5-11.4,8.5c-0.7,0-1.4-0.1-2-0.1v17.3c0.7-0.1,1.3-0.1,2-0.1c6.3,0,11.4,3.8,11.4,8.5c0,0.9-0.2,1.7-0.5,2.5h43.9
			c-0.3-0.8-0.5-1.6-0.5-2.5C209.3,155.5,214,151.8,220,151.5z"/>
	</g>
</g>
<g style="opacity:0;">
	<g>
		<polygon style="fill:#FFFFFF;" points="120.5,168.5 148.5,168.5 148.5,109.5 64.5,109.5 64.5,175.5 104.5,175.5 		"/>
		<path style="fill:#FFFFFF;" d="M38.5,175.5v-66h-1c0,0-16,10-17,36c-0.6,16.1,4.5,25.3,8.5,30H38.5z"/>
	</g>
	<rect x="38.5" y="102.5" style="opacity:0.5;" width="26" height="73"/>
	<rect x="148.5" y="68" style="opacity:0.5;" width="77" height="100.5"/>
	<rect x="141.5" y="53.5" style="opacity:0.3;" width="91" height="14.5"/>
	<polygon style="opacity:0.3;" points="23.5,186.5 23.5,175.5 104.5,175.5 120.5,168.5 232.5,168.5 232.5,183.5 	"/>
	<circle style="fill:#FFFFFF;" cx="128" cy="109" r="7"/>
	<g>
		<path style="opacity:0.3;" d="M38.5,117.7c-5.7,6.9-9.4,15.8-11,26.8h11V117.7z"/>
		<rect x="64.5" y="116.5" style="opacity:0.3;" width="84" height="28"/>
	</g>
</g>
</svg>
