<?xml version="1.0" encoding="utf-8"?>
<!-- Generator: Adobe Illustrator 22.1.0, SVG Export Plug-In . SVG Version: 6.00 Build 0)  -->
<svg version="1.1" id="Layer_1" xmlns="http://www.w3.org/2000/svg" xmlns:xlink="http://www.w3.org/1999/xlink" x="0px" y="0px"
	 viewBox="0 0 256 256" style="enable-background:new 0 0 256 256;" xml:space="preserve">
<g>
	<g>
		<path style="opacity:0.2;" d="M60.6,101.4c2.5,2.3,5.8,2.4,9.6,1.2c0.1,2.8-1,5.3-1.1,8.1c2,2.3,3.8,4.2,5.5,5.8
			c-1-1.1-2.1-2.3-3.3-3.7c0.1-2.8,3.8-21.4,3.7-24.2l-14.2-5.3C61.2,88.8,61.1,94.9,60.6,101.4z"/>
		<path style="opacity:0.2;" d="M163,63.7c-7.2-6.6-16.3-11.2-25.4-14.6c-2.1-0.8-3.4-2.1-4.1-3.6c-1.4,3-0.4,7.4,4.1,9.1
			c9.1,3.4,18.1,8,25.4,14.6c5.5,5,7,10.6,7.3,16.8C170.6,77.5,170.1,70.1,163,63.7z"/>
		<path style="opacity:0.2;" d="M188.5,166.1c-1.6-13.2-3.1-26.4-4-39.7c-1-14.1-0.3-27.9-0.2-41.9c0-6.8-2.1-12.6-5.5-17.5
			c1.1,3.1,1.6,6.4,1.6,10c-0.1,14-2.4,27.9-1.4,41.9c0.9,13.3,0.1,26.6,1.6,39.8c0.6,5.5-3,7.5-6,6c0.1,0.5,0.1,1,0.2,1.4
			C175.8,174.7,189.5,174.8,188.5,166.1z"/>
		<path style="opacity:0.2;" d="M67.4,118.9c-2.4,14.2-6.8,35.5-13.5,50.2c0,0-3.4,3-7.7,0.3c-0.4,0.9-0.7,1.8-1.1,2.7
			c5.6,7.2,10.8,2.6,10.8,2.6c6.6-14.8,11.1-36.1,13.5-50.2c5.8,6.4,9,10.1,11.2,15C78.2,131.1,75.2,127.4,67.4,118.9z"/>
	</g>
	<path style="opacity:0.2;" d="M170.1,97.2c0.1-1.9,0.2-3.7,0.2-5.5c-54.3,10.4-83,84.5-120.2,87.4c-3.3,0.3-5.5-0.7-6.6-2.1
		c-2.3,3.5-0.5,8.5,6.6,7.9c37-3,65.7-72.9,119.8-83C170,100.3,170.1,98.8,170.1,97.2z"/>
	<path style="fill:#58595B;" d="M62.6,176.8c-0.6,0-1.1,0.4-1.2,1c0,0.6,0.4,1.1,1,1.2c0.6,0,1.1-0.4,1.2-1
		C63.6,177.4,63.2,176.9,62.6,176.8z"/>
	<rect x="27.5" y="171.1" style="fill:#F8CA4D;" width="46.6" height="10"/>
	<path style="fill:#2F3440;" d="M184.2,117.8c-26.5-2-49.6,17.8-51.6,44.3c-2,26.5,17.8,49.6,44.3,51.6c26.5,2,49.6-17.8,51.6-44.3
		C230.5,142.9,210.7,119.8,184.2,117.8z M177.8,201.4c-19.7-1.5-34.5-18.7-33-38.4c1.5-19.7,18.7-34.5,38.4-33
		c19.7,1.5,34.5,18.7,33,38.4C214.8,188.2,197.6,202.9,177.8,201.4z"/>
	<g>
		<g>
			<g>
				<g>
					
						<line style="fill:none;stroke:#58595B;stroke-width:1.7435;stroke-miterlimit:10;" x1="180.6" y1="129.9" x2="180.6" y2="154"/>
					
						<line style="fill:none;stroke:#58595B;stroke-width:1.7435;stroke-miterlimit:10;" x1="180.6" y1="177.5" x2="180.6" y2="201.6"/>
				</g>
				<g>
					
						<line style="fill:none;stroke:#58595B;stroke-width:1.7435;stroke-miterlimit:10;" x1="216.5" y1="165.7" x2="192.4" y2="165.7"/>
					
						<line style="fill:none;stroke:#58595B;stroke-width:1.7435;stroke-miterlimit:10;" x1="168.9" y1="165.7" x2="144.8" y2="165.7"/>
				</g>
			</g>
			<g>
				<g>
					
						<line style="fill:none;stroke:#58595B;stroke-width:1.7435;stroke-miterlimit:10;" x1="155.3" y1="140.4" x2="172.3" y2="157.4"/>
					<line style="fill:none;stroke:#58595B;stroke-width:1.7435;stroke-miterlimit:10;" x1="188.9" y1="174" x2="206" y2="191.1"/>
				</g>
				<g>
					
						<line style="fill:none;stroke:#58595B;stroke-width:1.7435;stroke-miterlimit:10;" x1="206" y1="140.4" x2="188.9" y2="157.4"/>
					
						<line style="fill:none;stroke:#58595B;stroke-width:1.7435;stroke-miterlimit:10;" x1="172.3" y1="174" x2="155.3" y2="191.1"/>
				</g>
			</g>
		</g>
		<g>
			<g>
				<g>
					
						<line style="fill:none;stroke:#58595B;stroke-width:1.7435;stroke-miterlimit:10;" x1="167.2" y1="132.5" x2="176.2" y2="154.8"/>
					<line style="fill:none;stroke:#58595B;stroke-width:1.7435;stroke-miterlimit:10;" x1="185" y1="176.6" x2="194" y2="199"/>
				</g>
				<g>
					
						<line style="fill:none;stroke:#58595B;stroke-width:1.7435;stroke-miterlimit:10;" x1="213.8" y1="152.3" x2="191.5" y2="161.3"/>
					
						<line style="fill:none;stroke:#58595B;stroke-width:1.7435;stroke-miterlimit:10;" x1="169.7" y1="170.1" x2="147.4" y2="179.2"/>
				</g>
			</g>
			<g>
				<g>
					
						<line style="fill:none;stroke:#58595B;stroke-width:1.7435;stroke-miterlimit:10;" x1="147.6" y1="151.7" x2="169.8" y2="161.1"/>
					
						<line style="fill:none;stroke:#58595B;stroke-width:1.7435;stroke-miterlimit:10;" x1="191.4" y1="170.3" x2="213.6" y2="179.7"/>
				</g>
				<g>
					
						<line style="fill:none;stroke:#58595B;stroke-width:1.7435;stroke-miterlimit:10;" x1="194.6" y1="132.7" x2="185.2" y2="154.9"/>
					
						<line style="fill:none;stroke:#58595B;stroke-width:1.7435;stroke-miterlimit:10;" x1="176" y1="176.6" x2="166.6" y2="198.7"/>
				</g>
			</g>
		</g>
	</g>
	<path style="fill:#A6A8AB;" d="M181.5,154c-6.5-0.5-12.1,4.4-12.6,10.8c-0.5,6.5,4.4,12.1,10.8,12.6c6.5,0.5,12.1-4.4,12.6-10.8
		C192.8,160.1,188,154.5,181.5,154z M180.2,171.8c-3.3-0.3-5.8-3.2-5.6-6.5c0.3-3.3,3.2-5.8,6.5-5.6c3.3,0.3,5.8,3.2,5.6,6.5
		C186.4,169.5,183.5,172,180.2,171.8z"/>
	<path style="fill:#58595B;" d="M180.7,164.1c-0.9-0.1-1.7,0.6-1.8,1.5c-0.1,0.9,0.6,1.7,1.5,1.8c0.9,0.1,1.7-0.6,1.8-1.5
		C182.3,164.9,181.6,164.1,180.7,164.1z"/>
	<path style="fill:#2F3440;" d="M51.5,146.2c-17.4-1.3-32.6,11.7-33.9,29.1c-1.3,17.4,11.7,32.6,29.1,33.9
		c17.4,1.3,32.6-11.7,33.9-29.1C81.9,162.7,68.9,147.5,51.5,146.2z M47.4,199.1c-11.8-0.9-20.7-11.2-19.8-23
		c0.9-11.8,11.2-20.7,23-19.8c11.8,0.9,20.7,11.2,19.8,23C69.5,191.1,59.2,200,47.4,199.1z"/>
	<g>
		<g>
			<g>
				<g>
					
						<line style="fill:none;stroke:#58595B;stroke-width:1.7435;stroke-miterlimit:10;" x1="49.1" y1="155.8" x2="49.1" y2="170.5"/>
					
						<line style="fill:none;stroke:#58595B;stroke-width:1.7435;stroke-miterlimit:10;" x1="49.1" y1="184.9" x2="49.1" y2="199.6"/>
				</g>
				<g>
					<line style="fill:none;stroke:#58595B;stroke-width:1.7435;stroke-miterlimit:10;" x1="71" y1="177.7" x2="56.3" y2="177.7"/>
					
						<line style="fill:none;stroke:#58595B;stroke-width:1.7435;stroke-miterlimit:10;" x1="41.9" y1="177.7" x2="27.2" y2="177.7"/>
				</g>
			</g>
			<g>
				<g>
					<line style="fill:none;stroke:#58595B;stroke-width:1.7435;stroke-miterlimit:10;" x1="33.6" y1="162.2" x2="44" y2="172.6"/>
					
						<line style="fill:none;stroke:#58595B;stroke-width:1.7435;stroke-miterlimit:10;" x1="54.2" y1="182.8" x2="64.6" y2="193.2"/>
				</g>
				<g>
					
						<line style="fill:none;stroke:#58595B;stroke-width:1.7435;stroke-miterlimit:10;" x1="64.6" y1="162.2" x2="54.2" y2="172.6"/>
					<line style="fill:none;stroke:#58595B;stroke-width:1.7435;stroke-miterlimit:10;" x1="44" y1="182.8" x2="33.6" y2="193.2"/>
				</g>
			</g>
		</g>
		<g>
			<g>
				<g>
					
						<line style="fill:none;stroke:#58595B;stroke-width:1.7435;stroke-miterlimit:10;" x1="40.9" y1="157.4" x2="46.4" y2="171.1"/>
					<line style="fill:none;stroke:#58595B;stroke-width:1.7435;stroke-miterlimit:10;" x1="51.8" y1="184.4" x2="57.3" y2="198"/>
				</g>
				<g>
					<line style="fill:none;stroke:#58595B;stroke-width:1.7435;stroke-miterlimit:10;" x1="69.4" y1="169.5" x2="55.8" y2="175"/>
					
						<line style="fill:none;stroke:#58595B;stroke-width:1.7435;stroke-miterlimit:10;" x1="42.5" y1="180.4" x2="28.8" y2="185.9"/>
				</g>
			</g>
			<g>
				<g>
					<line style="fill:none;stroke:#58595B;stroke-width:1.7435;stroke-miterlimit:10;" x1="29" y1="169.2" x2="42.5" y2="174.9"/>
					
						<line style="fill:none;stroke:#58595B;stroke-width:1.7435;stroke-miterlimit:10;" x1="55.7" y1="180.5" x2="69.2" y2="186.3"/>
				</g>
				<g>
					
						<line style="fill:none;stroke:#58595B;stroke-width:1.7435;stroke-miterlimit:10;" x1="57.7" y1="157.6" x2="51.9" y2="171.1"/>
					
						<line style="fill:none;stroke:#58595B;stroke-width:1.7435;stroke-miterlimit:10;" x1="46.3" y1="184.3" x2="40.6" y2="197.9"/>
				</g>
			</g>
		</g>
	</g>
	<path style="fill:#FAAF40;" d="M49.7,170c-4.3-0.3-8,2.9-8.3,7.1c-0.3,4.3,2.9,8,7.1,8.3c4.3,0.3,8-2.9,8.3-7.1
		C57.1,174,53.9,170.3,49.7,170z M48.8,181.7c-2.2-0.2-3.8-2.1-3.7-4.3c0.2-2.2,2.1-3.8,4.3-3.7c2.2,0.2,3.8,2.1,3.7,4.3
		C52.9,180.2,51,181.9,48.8,181.7z"/>
	<path style="fill:#58595B;" d="M49.2,176.6c-0.6,0-1.1,0.4-1.2,1c0,0.6,0.4,1.1,1,1.2c0.6,0,1.1-0.4,1.2-1
		C50.2,177.2,49.8,176.7,49.2,176.6z"/>
	<path style="fill:#F8CA4D;" d="M167.8,122.3c16.3-2.8,43.8-2.4,56.9,26.7c0,0,3.3,6.1,9,2.2c5.7-3.8,1.1-11.6-0.1-13.3
		c-1.2-1.7-12.3-26.8-45.8-29.4c-28.5-2.2-47.9,9.2-56.8,25.3c-3.5,6.3,6.7,11.8,10.7,5.8c0.1-0.1,0.1-0.2,0.2-0.3
		C147.8,130.3,157.2,124.1,167.8,122.3z"/>
	<path style="fill:#2F3440;" d="M51.8,68.3c-7.6,4.3-6.1,12.7-3.4,16.7c2.7,4.1,8,6.7,21.7,4.8c13.7-1.9,36.9,3.7,35.3-2.8
		c-1.6-6.5-9.7-11.3-20.2-10.6c-10.6,0.7-23.6-8.1-26.2-9.3C56.3,66,54.1,67,51.8,68.3z"/>
	<path style="fill:#FAAF40;" d="M177.7,171.6c-0.5,0-1.1-0.2-1.7-0.5c-2.6-1.2-14.8-8.6-16.1-9.5c-1-0.6-1.3-1.9-0.7-3
		c0.6-1,1.9-1.3,3-0.7c3.7,2.3,13.7,8.3,15.7,9.2c0.1,0,0.1,0,0.2,0.1c0.3-0.3,0.5-1.2,0.6-1.8c0.1-1.2,1.2-2.1,2.4-1.9
		c1.2,0.1,2,1.2,1.9,2.4c-0.1,0.6-0.5,3.9-2.8,5.2C179.4,171.4,178.6,171.7,177.7,171.6z"/>
	<polygon style="fill:#F8CA4D;" points="151.7,167.2 168.9,157.1 166.5,153.6 148.9,163.6 	"/>
	<path style="fill:#2F3440;" d="M142.8,47.5c0,3.7-3,6.6-6.6,6.6c-1.6,0-4.2,0-4.2,0s0-4.5,0-6.6c0-2.1,0-6.6,0-6.6s2.6,0,4.3,0
		C139.8,40.8,142.8,43.8,142.8,47.5z"/>
	
		<ellipse transform="matrix(0.8747 -0.4846 0.4846 0.8747 -6.4014 70.2135)" style="fill:#51596E;" cx="132.6" cy="47.5" rx="6.6" ry="6.6"/>
</g>
</svg>
