<?xml version="1.0" encoding="utf-8"?>
<!-- Generator: Adobe Illustrator 22.1.0, SVG Export Plug-In . SVG Version: 6.00 Build 0)  -->
<svg version="1.1" id="Layer_1" xmlns="http://www.w3.org/2000/svg" xmlns:xlink="http://www.w3.org/1999/xlink" x="0px" y="0px"
	 viewBox="0 0 256 256" style="enable-background:new 0 0 256 256;" xml:space="preserve">
<g>
	<path style="fill:#EA6045;" d="M93.8,148.3c-4.2-20-9.5-20.5-22.5-35.4c0.1-2.8,3.8-21.4,3.7-24.2l-14.2-5.3
		c1.6,25-6,65.1-15.7,88.7c5.6,7.2,10.8,2.6,10.8,2.6c6.6-14.8,11.1-36.1,13.5-50.2c9.6,10.5,12,13.7,14.9,27.3
		C86.1,160.4,95.6,156.9,93.8,148.3z"/>
	<path style="fill:#EA6045;" d="M60.6,101.4c2.5,2.3,5.8,2.4,9.6,1.2c0.1,2.8-1,5.3-1.1,8.1c2,2.3,3.8,4.2,5.5,5.8
		c-1-1.1-2.1-2.3-3.3-3.7c0.1-2.8,3.8-21.4,3.7-24.2l-14.2-5.3C61.2,88.8,61.1,94.9,60.6,101.4z"/>
	<path style="fill:#EA6045;" d="M182.3,80C124.4,80,75,175.2,49.4,173.7c-8.6,0.8-9.7,12,0.8,11.2c39.9-3.2,70.1-84.2,133-84.2
		L182.3,80z"/>
	<path style="fill:#EA6045;" d="M50.2,179.1c-3.3,0.3-5.5-0.7-6.6-2.1c-2.3,3.5-0.5,8.5,6.6,7.9c39.9-3.2,70.1-84.2,133-84.2
		l-0.4-10.2C120.1,90.9,90,176,50.2,179.1z"/>
	<path style="fill:#EA6045;" d="M188.5,166.1c-1.6-13.2-3.1-26.4-4-39.7c-1-14.1-0.3-27.9-0.2-41.9c0.1-23.1-24.6-34.5-43.3-41.5
		c-8.3-3.1-11.5,8.5-3.3,11.6c9.1,3.4,18.1,8,25.4,14.6c8.7,7.9,7.5,17.3,7.1,28.1c-0.8,23,2,46,4.7,68.8
		C175.8,174.7,189.5,174.8,188.5,166.1z"/>
	<path style="fill:#EA6045;" d="M163,63.7c-7.2-6.6-16.3-11.2-25.4-14.6c-2.1-0.8-3.4-2.1-4.1-3.6c-1.4,3-0.4,7.4,4.1,9.1
		c9.1,3.4,18.1,8,25.4,14.6c5.5,5,7,10.6,7.3,16.8C170.6,77.5,170.1,70.1,163,63.7z"/>
	<path style="fill:#EA6045;" d="M188.5,166.1c-1.6-13.2-3.1-26.4-4-39.7c-1-14.1-0.3-27.9-0.2-41.9c0-6.8-2.1-12.6-5.5-17.5
		c1.1,3.1,1.6,6.4,1.6,10c-0.1,14-2.4,27.9-1.4,41.9c0.9,13.3,0.1,26.6,1.6,39.8c0.6,5.5-3,7.5-6,6c0.1,0.5,0.1,1,0.2,1.4
		C175.8,174.7,189.5,174.8,188.5,166.1z"/>
	<path style="fill:#EA6045;" d="M67.4,118.9c-2.4,14.2-6.8,35.5-13.5,50.2c0,0-3.4,3-7.7,0.3c-0.4,0.9-0.7,1.8-1.1,2.7
		c5.6,7.2,10.8,2.6,10.8,2.6c6.6-14.8,11.1-36.1,13.5-50.2c5.8,6.4,9,10.1,11.2,15C78.2,131.1,75.2,127.4,67.4,118.9z"/>
</g>
</svg>
