<?xml version="1.0" encoding="utf-8"?>
<!-- Generator: Adobe Illustrator 22.1.0, SVG Export Plug-In . SVG Version: 6.00 Build 0)  -->
<svg version="1.1" id="Layer_1" xmlns="http://www.w3.org/2000/svg" xmlns:xlink="http://www.w3.org/1999/xlink" x="0px" y="0px"
	 viewBox="0 0 256 256" style="enable-background:new 0 0 256 256;" xml:space="preserve">
<g>
	<path style="fill:#2EB3E8;" d="M15.5,154.5c0,0-6-49,5-78c0,0,5-10,47-10s146-3,158,7l14,29v7l4,4v4l2,3v9l-2,2v21h-17l-4.2-10.3
		c-1.7-2.9-4.9-4.7-8.2-4.7h-17.6c-3.1,0-6,1.5-7.8,4.1l-6.1,12.9h-93l-6.1-6.8c-1.8-2-4.4-3.2-7.1-3.2H41.9c-3.4,0-6.5,1.8-8.2,4.7
		l-3.2,5.3H15.5z"/>
</g>
</svg>
