<?xml version="1.0" encoding="utf-8"?>
<!-- Generator: Adobe Illustrator 22.1.0, SVG Export Plug-In . SVG Version: 6.00 Build 0)  -->
<svg version="1.1" id="Layer_1" xmlns="http://www.w3.org/2000/svg" xmlns:xlink="http://www.w3.org/1999/xlink" x="0px" y="0px"
	 viewBox="0 0 256 256" style="enable-background:new 0 0 256 256;" xml:space="preserve">
<g>
	<path style="opacity:0.2;" d="M245.5,120.5v9l-2,2v21h-17l-4.2-10.3c-1.7-2.9-4.8-4.7-8.2-4.7h-17.6c-3.1,0-6,1.5-7.8,4.1
		l-6.1,12.9h-93l-6.1-6.8c-1.8-2-4.4-3.2-7.1-3.2H41.9c-3.4,0-6.5,1.8-8.2,4.7l-3.2,5.3h-15c0,0-2.9-23.8-1-48h225v3l4,4v4
		L245.5,120.5z"/>
	<g>
		<path style="fill:#002A42;" d="M77,155c0,9.9-8.1,18-18,18s-18-8.1-18-18c0-3.9,1.3-7.5,3.4-10.5h29.2C75.7,147.5,77,151.1,77,155
			z"/>
		<path style="fill:#FCFFFF;" d="M70,155c0,6.1-4.9,11-11,11s-11-4.9-11-11c0-4.9,3.2-9.1,7.7-10.5h6.6C66.8,145.9,70,150.1,70,155z
			"/>
		<circle style="fill:#ACAAB3;" cx="59" cy="155" r="6"/>
	</g>
	<g>
		<path style="fill:#002A42;" d="M223,155c0,9.9-8.1,18-18,18s-18-8.1-18-18c0-8.5,5.9-15.6,13.8-17.5h8.4
			C217.1,139.4,223,146.5,223,155z"/>
		<circle style="fill:#FCFFFF;" cx="205" cy="155" r="11"/>
		<circle style="fill:#ACAAB3;" cx="205" cy="155" r="6"/>
	</g>
	<path style="fill:#CCCCCC;" d="M14.3,140.5l-3.5,0.5c-1.9,0.3-3.3,1.9-3.3,3.8v7.5c0,4.5,3.6,8.1,8.1,8.1h15c2.1,0,3.9-1.7,3.9-3.9
		v-2.1h-19L14.3,140.5z"/>
	<path style="fill:#CCCCCC;" d="M243.5,140.3l1.3,0.1c2.6,0.1,4.7,2.3,4.7,4.9v7.6c0,4.3-3.5,7.8-7.8,7.8h-10.4
		c-2.7,0-4.9-2.2-4.9-4.9v-3.1h17V140.3z"/>
	<path style="fill:#C4C4C4;" d="M96.8,100.5H78.3c-2.6,0-4.8-2.1-4.8-4.8V85.3c0-2.6,2.1-4.8,4.8-4.8h18.5c2.6,0,4.8,2.1,4.8,4.8
		v10.5C101.5,98.4,99.4,100.5,96.8,100.5z"/>
	<path style="fill:#C4C4C4;" d="M132.8,100.5h-18.5c-2.6,0-4.8-2.1-4.8-4.8V85.3c0-2.6,2.1-4.8,4.8-4.8h18.5c2.6,0,4.8,2.1,4.8,4.8
		v10.5C137.5,98.4,135.4,100.5,132.8,100.5z"/>
	<path style="fill:#C4C4C4;" d="M171.8,100.5h-18.5c-2.6,0-4.8-2.1-4.8-4.8V85.3c0-2.6,2.1-4.8,4.8-4.8h18.5c2.6,0,4.8,2.1,4.8,4.8
		v10.5C176.5,98.4,174.4,100.5,171.8,100.5z"/>
	<path style="fill:#C4C4C4;" d="M184.5,100.5V86c0-4.1,3.4-7.5,7.5-7.5h22.2c2.7,0,5.1,1.4,6.5,3.7l10.8,18.3H184.5z"/>
	<circle style="fill:#002C3E;" cx="192" cy="117" r="2"/>
	<rect x="193" y="116" style="fill:#002C3E;" width="6" height="2"/>
	<path style="fill:none;stroke:#002C3E;stroke-miterlimit:10;" d="M185,106.5v19.9c0,2,1.6,3.6,3.6,3.6h30.9c2.2,0,4.2,1.2,5.2,3.2
		l9.9,19.3"/>
	<line style="fill:none;stroke:#002C3E;stroke-miterlimit:10;" x1="236.8" y1="106.5" x2="236.8" y2="152.5"/>
</g>
</svg>
