<?xml version="1.0" encoding="utf-8"?>
<!-- Generator: Adobe Illustrator 22.1.0, SVG Export Plug-In . SVG Version: 6.00 Build 0)  -->
<svg version="1.1" id="Layer_1" xmlns="http://www.w3.org/2000/svg" xmlns:xlink="http://www.w3.org/1999/xlink" x="0px" y="0px"
	 viewBox="0 0 256 256" style="enable-background:new 0 0 256 256;" xml:space="preserve">
<g style="opacity:0;">
	<path style="fill:#4CBCD6;" d="M125.1,10.5c-43,0-101.1,94.2-106.1,160.6c0,0-3.3,27.3,6.2,40.7c11.8,16.5,45,24.7,45,24.7
		c16.1,5.9,34.8,9.4,54.9,9.4c58.9,0,106.7-29.4,106.7-65.6C231.8,117.2,167.8,10.5,125.1,10.5z"/>
</g>
<g>
	<path style="opacity:0.1;fill:#FFFFFF;enable-background:new    ;" d="M143.9,49.9c-7.5-7.5-10.3-16.4-6.7-20.1
		c3.6-3.6,12.6-0.8,20.1,6.7s10.3,16.4,6.7,20.1C160.3,60.2,151.3,57.1,143.9,49.9z"/>
	<path style="opacity:0.1;fill:#FFFFFF;enable-background:new    ;" d="M189.2,170.9c0,10.5-28.7,18.9-64,18.9s-63.8-8.4-63.8-18.9
		s28.7-18.9,63.8-18.9C160.5,151.9,189.2,160.3,189.2,170.9z"/>
	<g style="opacity:0.1;">
		<path d="M143.9,141.8c-0.4,0-1-0.2-1.3-0.4c-1.3-0.8-1.9-2.5-1.3-3.8c0.2-0.4,20.8-41.5,23.9-63.3c0.2-1.5,1.7-2.7,3.2-2.5
			s2.7,1.7,2.5,3.2c-3.2,22.7-23.7,63.3-24.5,65C146,141.2,144.8,141.8,143.9,141.8z"/>
	</g>
	<g style="opacity:0.1;">
		<path d="M153.4,141.8c-1.1,0-2.3-0.8-2.7-2.1c-0.4-1.5,0.4-3.1,1.9-3.6c11.7-3.4,22-17,22.2-17c1-1.3,2.7-1.5,4-0.6
			c1.3,1,1.5,2.7,0.6,4c-0.4,0.6-11.5,15.1-25,19.1C154,141.8,153.6,141.8,153.4,141.8z"/>
	</g>
	<g style="opacity:0.1;">
		<path d="M112.5,142.8c-0.8,0-1.3-0.2-1.9-0.8C80.8,113.5,76.2,59,76,56.8c-0.2-1.5,1-2.9,2.7-3.1c1.5-0.2,2.9,1,3.1,2.7
			c0,0.6,4.8,54.7,32.9,81.6c1.1,1.1,1.1,2.9,0,4C114.1,142.4,113.3,142.8,112.5,142.8z"/>
	</g>
</g>
</svg>
