<?xml version="1.0" encoding="utf-8"?>
<!-- Generator: Adobe Illustrator 22.1.0, SVG Export Plug-In . SVG Version: 6.00 Build 0)  -->
<svg version="1.1" id="Layer_1" xmlns="http://www.w3.org/2000/svg" xmlns:xlink="http://www.w3.org/1999/xlink" x="0px" y="0px"
	 viewBox="0 0 256 256" style="enable-background:new 0 0 256 256;" xml:space="preserve">
<g style="opacity:0;">
	<path style="fill:#FF769A;" d="M231,116.7v31.7H118v-37.4c0-0.7-0.1-1.3-0.3-1.9h105.7C227.6,109,231,112.4,231,116.7z"/>
	<path style="fill:#FF769A;" d="M118,110.9v37.4H89.7v-37.4c0-2.9,2.2-5.2,4.8-5.2h18.7c2,0,3.8,1.4,4.5,3.3
		C117.9,109.6,118,110.2,118,110.9z"/>
	<path style="fill:#FF769A;" d="M42.8,99H54c8.5,0,15.3,6.9,15.3,15.3v0H27.5v0C27.5,105.9,34.4,99,42.8,99z"/>
</g>
<g>
	<rect x="36" y="157.7" style="fill:#0F1C1A;" width="180" height="9"/>
	<polygon style="fill:#2C4C49;" points="231,148.3 231,179.5 216,179.5 216,157.7 36,157.7 36,180 21,180 21,59 27.5,59 27.5,139 
		89.7,139 89.7,148.3 	"/>
	<path style="fill:#FFFCE1;" d="M33.5,114.5h56.3V139H27.5v-18.5C27.5,117.2,30.2,114.5,33.5,114.5z"/>
	<path style="opacity:0.1;" d="M231,116.7v31.7H118v-37.4c0-0.7-0.1-1.3-0.3-1.9h105.7C227.6,109,231,112.4,231,116.7z"/>
</g>
</svg>
