<?xml version="1.0" encoding="utf-8"?>
<!-- Generator: Adobe Illustrator 22.1.0, SVG Export Plug-In . SVG Version: 6.00 Build 0)  -->
<svg version="1.1" id="Layer_1" xmlns="http://www.w3.org/2000/svg" xmlns:xlink="http://www.w3.org/1999/xlink" x="0px" y="0px"
	 viewBox="0 0 256 256" style="enable-background:new 0 0 256 256;" xml:space="preserve">
<g style="opacity:0;">
	<rect x="19" y="48.5" style="fill:#E5A629;" width="218.5" height="31.4"/>
	<rect x="19" y="86.9" style="fill:#E5A629;" width="218.5" height="31.4"/>
	<rect x="18.8" y="134.3" style="fill:#E5A629;" width="218.5" height="12.7"/>
</g>
<g>
	<polygon style="fill:#603B15;" points="237.3,147 237.3,159 213.5,159 213.5,217 202.8,217 202.8,159 50.5,159 50.5,217 39.8,217 
		39.8,159 18.8,159 18.8,147 	"/>
	<rect x="27.8" y="40.5" style="fill:#603B15;" width="6.9" height="8"/>
	<rect x="27.8" y="79.9" style="fill:#603B15;" width="6.9" height="7"/>
	<rect x="27.8" y="118.3" style="fill:#603B15;" width="6.9" height="16.1"/>
	<rect x="220.3" y="42.1" style="fill:#603B15;" width="6.9" height="6.4"/>
	<rect x="220.3" y="79.9" style="fill:#603B15;" width="6.9" height="7"/>
	<rect x="220.3" y="118.3" style="fill:#603B15;" width="6.9" height="16.1"/>
	<circle style="fill:#603B15;" cx="31.3" cy="64" r="1.9"/>
	<circle style="fill:#603B15;" cx="31.3" cy="102.7" r="1.9"/>
	<circle style="fill:#603B15;" cx="223.7" cy="64" r="1.9"/>
	<circle style="fill:#603B15;" cx="223.7" cy="102.7" r="1.9"/>
	<rect x="18.8" y="134.3" style="opacity:0.1;" width="218.5" height="12.7"/>
</g>
</svg>
