<?xml version="1.0" encoding="utf-8"?>
<!-- Generator: Adobe Illustrator 22.1.0, SVG Export Plug-In . SVG Version: 6.00 Build 0)  -->
<svg version="1.1" id="Layer_1" xmlns="http://www.w3.org/2000/svg" xmlns:xlink="http://www.w3.org/1999/xlink" x="0px" y="0px"
	 viewBox="0 0 256 256" style="enable-background:new 0 0 256 256;" xml:space="preserve">
<g style="opacity:0;">
	<path style="fill:#6B3828;" d="M249.5,100c0,1.4-1.1,2.5-2.5,2.5v108h-10.5v14.4c0,1.4-1.1,2.5-2.5,2.5c-1.4,0-2.5-1.1-2.5-2.5
		v-14.4H24v14.4c0,1.4-1.1,2.5-2.5,2.5c-1.4,0-2.5-1.1-2.5-2.5v-14.4H9v-108c-1.4,0-2.5-1.1-2.5-2.5s1.1-2.5,2.5-2.5V25h238v72.5
		C248.4,97.5,249.5,98.7,249.5,100z"/>
</g>
<g>
	<rect x="219.4" y="48.1" style="fill:#F2465B;" width="10" height="49"/>
	
		<rect x="177.2" y="45.7" transform="matrix(0.866 0.5 -0.5 0.866 60.7017 -81.3502)" style="fill:#F2465B;" width="10" height="53.9"/>
	<rect x="209.4" y="53.8" style="fill:#50D672;" width="10" height="43.3"/>
	<rect x="199.4" y="49.8" style="fill:#F4B73D;" width="10" height="47.3"/>
	<rect x="134" y="48.5" style="fill:#F4B73D;" width="10" height="47.3"/>
	
		<rect x="21.2" y="108.9" transform="matrix(-1 -4.492907e-11 4.492907e-11 -1 52.3491 266.7621)" style="fill:#F2465B;" width="10" height="49"/>
	
		<rect x="59.8" y="116.9" transform="matrix(-0.866 0.5 -0.5 -0.866 189.8875 224.9964)" style="fill:#F2465B;" width="10" height="42.1"/>
	
		<rect x="31.2" y="104.3" transform="matrix(-1 -5.566137e-11 5.566137e-11 -1 72.3491 262.2144)" style="fill:#50D672;" width="10" height="53.5"/>
	
		<rect x="86" y="104.3" transform="matrix(-1 -5.566137e-11 5.566137e-11 -1 182 262.2144)" style="fill:#50D672;" width="10" height="53.5"/>
	
		<rect x="114" y="118" transform="matrix(-1 -4.147317e-11 4.147317e-11 -1 238.0704 275.8766)" style="fill:#F4B73D;" width="10" height="39.9"/>
	
		<rect x="103.7" y="104.3" transform="matrix(-1 -5.566137e-11 5.566137e-11 -1 217.3416 262.2144)" style="fill:#50D672;" width="10" height="53.5"/>
	
		<rect x="112.8" y="43.1" transform="matrix(-1 -5.566137e-11 5.566137e-11 -1 235.5287 139.8457)" style="fill:#50D672;" width="10" height="53.5"/>
	
		<rect x="41.2" y="118" transform="matrix(-1 -3.801682e-11 3.801682e-11 -1 92.3491 275.8766)" style="fill:#F4B73D;" width="10" height="39.9"/>
	<rect x="211.9" y="109.2" style="fill:#F2465B;" width="10" height="49"/>
	
		<rect x="171.2" y="105.4" transform="matrix(0.866 0.5 -0.5 0.866 89.7971 -70.3652)" style="fill:#50D672;" width="10" height="53.9"/>
	
		<rect x="160.5" y="103.6" transform="matrix(0.866 0.5 -0.5 0.866 87.4458 -65.2567)" style="fill:#F4B73D;" width="10" height="53.9"/>
	<rect x="201.9" y="112.4" style="fill:#50D672;" width="10" height="45.8"/>
	<rect x="191.9" y="115" style="fill:#F2465B;" width="10" height="43.3"/>
	
		<rect x="16.2" y="58.3" transform="matrix(-1 -3.474300e-11 3.474300e-11 -1 42.3491 154.5124)" style="fill:#F2465B;" width="10" height="37.8"/>
	
		<rect x="56.8" y="43.4" transform="matrix(-0.866 0.5 -0.5 -0.866 150.5464 100.3648)" style="fill:#50D672;" width="10" height="53.9"/>
	
		<rect x="67.5" y="41.6" transform="matrix(-0.866 0.5 -0.5 -0.866 169.6117 91.5896)" style="fill:#F4B73D;" width="10" height="53.9"/>
	
		<rect x="26.2" y="43.7" transform="matrix(-1 -5.147761e-11 5.147761e-11 -1 62.3491 139.8457)" style="fill:#50D672;" width="10" height="52.5"/>
	
		<rect x="36.2" y="52.9" transform="matrix(-1 -4.483803e-11 4.483803e-11 -1 82.3491 149.1082)" style="fill:#F2465B;" width="10" height="43.3"/>
	
		<rect x="103.7" y="53.8" transform="matrix(-1 -4.483803e-11 4.483803e-11 -1 217.3416 150.9415)" style="fill:#F2465B;" width="10" height="43.3"/>
	<path style="opacity:0.5;" d="M247,97.5V25H9v72.5c-1.4,0-2.5,1.1-2.5,2.5s1.1,2.5,2.5,2.5v108h10v14.4c0,1.4,1.1,2.5,2.5,2.5
		c1.4,0,2.5-1.1,2.5-2.5v-14.4h207.5v14.4c0,1.4,1.1,2.5,2.5,2.5c1.4,0,2.5-1.1,2.5-2.5v-14.4H247v-108c1.4,0,2.5-1.1,2.5-2.5
		S248.4,97.5,247,97.5z M136.3,177.5c-2.8,0-5-2.2-5-5s2.2-5,5-5s5,2.2,5,5S139,177.5,136.3,177.5z M243.3,158.2H12.7v-55.7h230.7
		V158.2z M243.3,97.5H12.7V29.3h230.7V97.5z"/>
</g>
</svg>
