<?xml version="1.0" encoding="utf-8"?>
<!-- Generator: Adobe Illustrator 22.1.0, SVG Export Plug-In . SVG Version: 6.00 Build 0)  -->
<svg version="1.1" id="Layer_1" xmlns="http://www.w3.org/2000/svg" xmlns:xlink="http://www.w3.org/1999/xlink" x="0px" y="0px"
	 viewBox="0 0 256 256" style="enable-background:new 0 0 256 256;" xml:space="preserve">
<g>
	<path style="fill:#F2BA2F;" d="M217.5,43v30.2H38.9V11.9h-5.9V191h-0.1v17h0.1v20.4h13.7v-20.4h162.9v20.4h13.7v-20.4h0.1V194h0.1
		V43H217.5z M38.9,90.3h178.6v41.1H38.9V90.3z M38.9,148.5h178.6V191H38.9V148.5z"/>
	<rect x="46.7" y="208.1" style="fill:#F2BA2F;" width="162.9" height="8.2"/>
</g>
<g style="opacity:0;">
	<rect x="46.7" y="208.1" style="opacity:0.1;" width="162.9" height="8.2"/>
	<path style="fill:#FFFCE1;" d="M211.5,168.6H45.1c-3.3,0-6,2.7-6,6V191h178.4v-16.4C217.5,171.3,214.8,168.6,211.5,168.6z"/>
	<path style="fill:#FFFCE1;" d="M211.5,109H45.1c-3.3,0-6,2.7-6,6v16.4h178.4V115C217.5,111.7,214.8,109,211.5,109z"/>
	<path style="fill:#FFFCE1;" d="M211,50.8H44.6c-3.3,0-6,2.7-6,6v16.4H217V56.8C217,53.5,214.4,50.8,211,50.8z"/>
	<path style="fill:#3D3D3D;" d="M211.2,50.5v26.8h-38.4V50.7h-6.3v177.8h6.3V200h38.4v28.3h6.3V50.5H211.2z M211.2,193.8h-38.4v-31
		h38.4V193.8z M211.2,156.5h-38.4V119h38.4V156.5z M211.2,112.8h-38.4V83.5h38.4V112.8z"/>
</g>
</svg>
