<?xml version="1.0" encoding="utf-8"?>
<!-- Generator: Adobe Illustrator 22.1.0, SVG Export Plug-In . SVG Version: 6.00 Build 0)  -->
<svg version="1.1" id="Layer_1" xmlns="http://www.w3.org/2000/svg" xmlns:xlink="http://www.w3.org/1999/xlink" x="0px" y="0px"
	 viewBox="0 0 256 256" style="enable-background:new 0 0 256 256;" xml:space="preserve">
<g>
	<rect x="250.8" y="195.5" style="fill:#F77FD5;" width="0.2" height="6.4"/>
	<rect x="250.8" y="185" style="fill:#F77FD5;" width="0.2" height="16.8"/>
	<path style="fill:#F77FD5;" d="M243.3,150.3V185H120.1v-32.5c0-0.8-0.1-1.5-0.4-2.2H243.3z"/>
	<path style="fill:#F77FD5;" d="M251,158v37.9h-0.2v-39.6C250.9,156.8,251,157.4,251,158z"/>
	<path style="fill:#F77FD5;" d="M120.1,152.5V185H87.2v-32.5c0-3.3,2.5-6.1,5.6-6.1h21.6c2.4,0,4.4,1.6,5.2,3.9
		C119.9,151,120.1,151.7,120.1,152.5z"/>
	<path style="fill:#F77FD5;" d="M30.3,138.7h18c8.5,0,15.3,6.9,15.3,15.3v2.4H15V154C15,145.6,21.9,138.7,30.3,138.7z"/>
	<g>
		<path style="fill:#F77FD5;" d="M48.9,185H15.3v-22.4c0-3.3,2.7-6,6-6h20.5L48.9,185z"/>
		<path style="opacity:0.5;fill:#F77FD5;" d="M29.6,108.9l12.1,47.8H21.3c-3.3,0-6,2.7-6,6V185h0l0.1-142.2H108
			C108,42.8,65.1,102.4,29.6,108.9z"/>
		<path style="opacity:0.5;fill:#F77FD5;" d="M243.3,42.8V185h-33.6l8.8-34.8l10.5-41.4c-35.5-6.4-78.4-66-78.4-66H243.3z"/>
	</g>
</g>
<g style="opacity:0;">
	<rect x="25" y="206.7" style="fill:#0F1C1A;" width="208.6" height="10.4"/>
	<path style="fill:#2C4C49;" d="M250.8,201.8V35.4h-7.5v0H7.7v197.1H25v-25.9h208.6V232H251v-30.1H250.8z M243.3,185H15.2V43h228.1
		V185z"/>
	<path style="opacity:5.000000e-02;" d="M218.5,150.3l-8.8,34.8h-89.6v-32.5c0-0.8-0.1-1.5-0.4-2.2H218.5z"/>
	<polygon style="fill:#FFFCE1;" points="87.2,156.6 87.2,185 48.9,185 41.7,156.6 	"/>
	<path style="opacity:0.2;fill:#FFFCE1;" d="M48.9,185H15.3v-22.4c0-3.3,2.7-6,6-6h20.5L48.9,185z"/>
	<g style="opacity:0.2;">
		<path style="fill:#FFFFFF;" d="M48.9,185H15.3v-22.4c0-3.3,2.7-6,6-6h20.5L48.9,185z"/>
		<path style="opacity:0.5;fill:#FFFFFF;" d="M29.6,108.9l12.1,47.8H21.3c-3.3,0-6,2.7-6,6V185h0l0.1-142.2H108
			C108,42.8,65.1,102.4,29.6,108.9z"/>
		<path style="opacity:0.5;fill:#FFFFFF;" d="M243.3,42.8V185h-33.6l8.8-34.8l10.5-41.4c-35.5-6.4-78.4-66-78.4-66H243.3z"/>
	</g>
</g>
</svg>
