<?xml version="1.0" encoding="utf-8"?>
<!-- Generator: Adobe Illustrator 22.1.0, SVG Export Plug-In . SVG Version: 6.00 Build 0)  -->
<svg version="1.1" id="Layer_1" xmlns="http://www.w3.org/2000/svg" xmlns:xlink="http://www.w3.org/1999/xlink" x="0px" y="0px"
	 viewBox="0 0 256 256" style="enable-background:new 0 0 256 256;" xml:space="preserve">
<g style="opacity:0;">
	<path style="fill:#FFB42E;" d="M181.3,62.2V121c0,5.2-4.2,9.3-9.3,9.3H88.2c-5.1,0-9.3-4.2-9.3-9.3V62.2C78.8,33.9,101.8,11,130,11
		c14.1,0,26.9,5.7,36.2,15C175.5,35.3,181.3,48.1,181.3,62.2z"/>
	<g>
		<path style="fill:#FFB42E;" d="M79.9,150.1l-2.5,1.4C78.1,150.9,78.9,150.4,79.9,150.1z"/>
		<path style="fill:#FFB42E;" d="M182,151.5c-0.4-0.3-0.8-0.6-1.2-0.8C181.2,150.9,181.6,151.2,182,151.5z"/>
	</g>
	<path style="fill:#FFB42E;" d="M184.6,157.3c0,4.1-3.4,7.5-7.5,7.5H82.2c-4.1,0-7.5-3.4-7.5-7.5c0-2.2,0.9-4.1,2.4-5.5
		c0.1-0.1,0.2-0.2,0.2-0.2l2.5-1.4l1-0.6c3.4-1.8,7.5-3.3,12.3-4.6c3.1-0.9,6.5-1.6,10-2.2c8.8-1.6,18.6-2.4,28.4-2.4
		c8.4,0,16.8,0.6,24.5,1.9c3.5,0.6,6.8,1.3,10,2.2c5.7,1.6,10.7,3.7,14.6,6.3c0,0,0,0,0.1,0c0.4,0.3,0.8,0.5,1.2,0.8
		c0.1,0.1,0.1,0.1,0.2,0.2C183.7,153.1,184.6,155.1,184.6,157.3z"/>
	<path style="fill:#F29F1C;" d="M76.9,151.8l0.4-0.2c-0.1,0.1-0.2,0.1-0.2,0.2H76.9z"/>
	<path style="fill:#F29F1C;" d="M182.3,151.8L182.3,151.8c-0.1-0.1-0.2-0.1-0.3-0.2C182.1,151.6,182.2,151.7,182.3,151.8z"/>
</g>
<g>
	<g>
		<path style="fill:#8E4713;" d="M166.1,130.4v13.4c0,0.2,0,0.4,0,0.6c-3.1-0.9-6.5-1.6-10-2.2v-11.8H166.1z"/>
	</g>
	<g>
		<path style="fill:#8E4713;" d="M103.2,130.4v12.3c-3.5,0.6-6.9,1.4-10,2.2v-14.6H103.2z"/>
	</g>
	<g>
		<path style="fill:#A3531D;" d="M174,194H85.3c-2.8,0-5-2.2-5-5s2.2-5,5-5H174c2.8,0,5,2.2,5,5S176.8,194,174,194z"/>
	</g>
	<g>
		<path style="fill:#8E4713;" d="M187.9,247.9c-0.4,0.1-0.7,0.1-1.1,0.1c-2.3,0-4.4-1.6-4.9-3.9L164,164.8h10.3l17.4,77.1
			C192.3,244.6,190.6,247.3,187.9,247.9z"/>
	</g>
	<g>
		<path style="fill:#8E4713;" d="M95.3,164.8l-17.9,79.3c-0.5,2.3-2.6,3.9-4.9,3.9c-0.4,0-0.7,0-1.1-0.1c-2.7-0.6-4.4-3.3-3.8-6
			L85,164.8H95.3z"/>
	</g>
	<path style="opacity:0.1;" d="M182.2,151.8H77.1c0.1-0.1,0.2-0.2,0.2-0.2l2.5-1.4l1-0.6c3.4-1.8,7.5-3.3,12.3-4.6
		c3.1-0.9,6.5-1.6,10-2.2c8.8-1.6,18.6-2.4,28.4-2.4c8.4,0,16.8,0.6,24.5,1.9c3.5,0.6,6.8,1.3,10,2.2c5.7,1.6,10.7,3.7,14.6,6.3
		c0,0,0,0,0.1,0c0.4,0.3,0.8,0.5,1.2,0.8C182,151.6,182.1,151.7,182.2,151.8z"/>
</g>
</svg>
