<?xml version="1.0" encoding="utf-8"?>
<!-- Generator: Adobe Illustrator 22.1.0, SVG Export Plug-In . SVG Version: 6.00 Build 0)  -->
<svg version="1.1" id="Layer_1" xmlns="http://www.w3.org/2000/svg" xmlns:xlink="http://www.w3.org/1999/xlink" x="0px" y="0px"
	 viewBox="0 0 256 256" style="enable-background:new 0 0 256 256;" xml:space="preserve">
<g>
	<rect x="26" y="157.4" style="fill:#3AF9AB;" width="203.9" height="18.5"/>
	<path style="fill:#3AF9AB;" d="M220.6,159.4h-31.5c-5.1,0-9.2-4.1-9.2-9.2v0c0-5.1,4.1-9.3,9.2-9.3h31.5c5.1,0,9.2,4.1,9.2,9.3v0
		C229.8,155.3,225.7,159.4,220.6,159.4z"/>
</g>
<g style="opacity:0;">
	<path style="opacity:0.1;" d="M220.6,159.4h-31.5c-5.1,0-9.2-4.1-9.2-9.2v0c0-5.1,4.1-9.3,9.2-9.3h31.5c5.1,0,9.2,4.1,9.2,9.3v0
		C229.8,155.3,225.7,159.4,220.6,159.4z"/>
	<rect x="26" y="178.4" style="fill:#606060;" width="201.1" height="11"/>
	<g>
		<rect x="26" y="175.4" style="fill:#424242;" width="203.9" height="6"/>
	</g>
	<g>
		<rect x="26" y="105.4" style="fill:#424242;" width="203.9" height="6"/>
	</g>
	<g>
		<rect x="64.3" y="108.4" style="fill:#424242;" width="6" height="70"/>
	</g>
	<g>
		<rect x="85.8" y="108.4" style="fill:#424242;" width="6" height="70"/>
	</g>
	<g>
		<rect x="106.3" y="108.4" style="fill:#424242;" width="6" height="70"/>
	</g>
	<g>
		<rect x="124.8" y="108.4" style="fill:#424242;" width="6" height="70"/>
	</g>
	<g>
		<rect x="145.3" y="108.4" style="fill:#424242;" width="6" height="70"/>
	</g>
	<g>
		<rect x="166.8" y="108.4" style="fill:#424242;" width="6" height="70"/>
	</g>
	<g>
		<rect x="187.3" y="108.4" style="fill:#424242;" width="6" height="70"/>
	</g>
	<g>
		<rect x="206.3" y="105.9" style="fill:#424242;" width="6" height="70"/>
	</g>
	<g>
		<rect x="226.8" y="62.9" style="fill:#424242;" width="6" height="137.5"/>
	</g>
	<g>
		<rect x="23.2" y="62.9" style="fill:#424242;" width="6" height="137.5"/>
	</g>
	<g>
		<rect x="43.7" y="108.4" style="fill:#424242;" width="6" height="70"/>
	</g>
	<g>
		<path style="fill:#424242;" d="M30,72.1h-8.1c-0.8,0-1.5-0.7-1.5-1.5s0.7-1.5,1.5-1.5H30c0.8,0,1.5,0.7,1.5,1.5S30.9,72.1,30,72.1
			z"/>
	</g>
	<g>
		<path style="fill:#424242;" d="M233.9,72.6h-8.1c-0.8,0-1.5-0.7-1.5-1.5s0.7-1.5,1.5-1.5h8.1c0.8,0,1.5,0.7,1.5,1.5
			S234.7,72.6,233.9,72.6z"/>
	</g>
	<circle style="fill:#424242;" cx="26.2" cy="62.6" r="7.1"/>
	<circle style="fill:#424242;" cx="229.8" cy="62.6" r="7.1"/>
</g>
</svg>
