<?xml version="1.0" encoding="utf-8"?>
<!-- Generator: Adobe Illustrator 22.1.0, SVG Export Plug-In . SVG Version: 6.00 Build 0)  -->
<svg version="1.1" id="Layer_1" xmlns="http://www.w3.org/2000/svg" xmlns:xlink="http://www.w3.org/1999/xlink" x="0px" y="0px"
	 viewBox="0 0 256 256" style="enable-background:new 0 0 256 256;" xml:space="preserve">
<g>
	<path style="fill:#27A097;" d="M197.9,133.8c0,1.1-0.5,2.1-1.2,2.9c-0.7,0.7-1.7,1.2-2.8,1.2h-2.7v48.8c0,1.5-1.2,2.7-2.7,2.7
		s-2.7-1.2-2.7-2.7v-48.8h-112v48.8c0,1.5-1.2,2.7-2.7,2.7c-1.5,0-2.7-1.2-2.7-2.7v-48.8h-3.7c-2.2,0-4-1.8-4-4
		c0-1.1,0.4-2.1,1.2-2.8c0.7-0.7,1.7-1.2,2.8-1.2h129.1C196.1,129.8,197.9,131.5,197.9,133.8z"/>
	<path style="fill:#27A097;" d="M253.9,117.9l-10.2,25.7c-0.5,1.1-1.5,1.9-2.6,2.1c-0.6,0.1-1.1,0-1.7-0.2c-0.5-0.2-1-0.6-1.4-1
		c-0.7-0.9-1-2.2-0.5-3.3l10.2-25.7c0.6-1.6,2.4-2.4,4-1.7l0.5,0.2C253.7,114.5,254.5,116.3,253.9,117.9z"/>
	<g>
		<path style="fill:#27A097;" d="M241.3,189.2c-0.1,0-0.3,0-0.4,0c-0.8,0-1.5-0.7-1.7-1.6l-3.1-16.8l-0.6-3.4l-2.5-13.3h3.5
			l6.1,32.6C242.8,187.9,242.2,189,241.3,189.2z"/>
	</g>
	<g>
		<path style="fill:#27A097;" d="M209.8,154.1l-2.5,13.3l-0.6,3.4l-3.1,16.8c-0.2,1-0.9,1.6-1.7,1.6c-0.1,0-0.3,0-0.4,0
			c-0.9-0.3-1.5-1.4-1.3-2.5l6.1-32.6H209.8z"/>
	</g>
	<path style="fill:#27A097;" d="M239.3,149.7h-35.8c0,0,0,0,0.1-0.1l0.9-0.5l0,0l0.3-0.2c3.8-2,10.5-3.2,17.3-3.2
		c5.4,0,10.8,0.7,14.6,2.4c0.8,0.3,1.5,0.7,2.1,1.1C238.9,149.4,239.1,149.5,239.3,149.7C239.3,149.6,239.3,149.7,239.3,149.7z"/>
	<path style="fill:#27A097;" d="M203.5,149.7l0.1-0.1C203.5,149.6,203.5,149.7,203.5,149.7L203.5,149.7z"/>
	<path style="fill:#27A097;" d="M239.3,149.7L239.3,149.7C239.3,149.7,239.3,149.6,239.3,149.7C239.3,149.6,239.3,149.7,239.3,149.7
		z"/>
	<path style="fill:#27A097;" d="M2.3,117.9l10.2,25.7c0.5,1.1,1.5,1.9,2.6,2.1c0.6,0.1,1.1,0,1.7-0.2c0.5-0.2,1-0.6,1.4-1
		c0.7-0.9,1-2.2,0.5-3.3L8.5,115.4c-0.6-1.6-2.4-2.4-4-1.7L4,113.9C2.4,114.5,1.6,116.3,2.3,117.9z"/>
	<g>
		<path style="fill:#27A097;" d="M14.9,189.2c0.1,0,0.3,0,0.4,0c0.8,0,1.5-0.7,1.7-1.6l3.1-16.8l0.6-3.4l2.5-13.3h-3.5l-6.1,32.6
			C13.4,187.9,14,189,14.9,189.2z"/>
	</g>
	<g>
		<path style="fill:#27A097;" d="M46.3,154.1l2.5,13.3l0.6,3.4l3.1,16.8c0.2,1,0.9,1.6,1.7,1.6c0.1,0,0.3,0,0.4,0
			c0.9-0.3,1.5-1.4,1.3-2.5l-6.1-32.6H46.3z"/>
	</g>
	<path style="fill:#27A097;" d="M16.8,149.7h35.8c0,0,0,0-0.1-0.1l-0.9-0.5l0,0l-0.3-0.2c-3.8-2-10.5-3.2-17.3-3.2
		c-5.4,0-10.8,0.7-14.6,2.4c-0.8,0.3-1.5,0.7-2.1,1.1C17.2,149.4,17,149.5,16.8,149.7C16.9,149.6,16.8,149.7,16.8,149.7z"/>
	<path style="fill:#27A097;" d="M16.8,149.7L16.8,149.7C16.8,149.7,16.9,149.6,16.8,149.7C16.9,149.6,16.8,149.7,16.8,149.7z"/>
</g>
<g style="opacity:0;">
	<rect x="73.8" y="137.8" style="fill:#4C4C4C;" width="112" height="11.7"/>
	<polygon style="opacity:0.8;fill:#F97893;" points="182.8,129.8 175.1,133.8 167.3,137.8 144.5,149.5 133.2,155.4 120.9,149.5 
		96.1,137.8 87.6,133.8 79.1,129.8 	"/>
	<g>
		<path style="fill:#4C4C4C;" d="M241,145.6c0,0.1,0,0.2-0.1,0.3l-1.3,4.1c-0.1-0.1-0.2-0.2-0.3-0.3c0,0,0,0-0.1-0.1
			c-0.2-0.1-0.3-0.2-0.5-0.3c-0.6-0.4-1.3-0.8-2.1-1.1l1.1-3.3c0-0.2,0.1-0.3,0.2-0.5c0.3,0.4,0.8,0.8,1.4,1
			C239.9,145.7,240.5,145.7,241,145.6z"/>
	</g>
	<g>
		<polygon style="fill:#4C4C4C;" points="236.1,170.9 206.7,170.9 207.4,167.5 235.5,167.5 		"/>
	</g>
	<g>
		<path style="fill:#4C4C4C;" d="M204.5,149.1l-0.9,0.5C203.8,149.4,204.1,149.2,204.5,149.1z"/>
		<path style="fill:#4C4C4C;" d="M239.3,149.6c-0.2-0.1-0.3-0.2-0.5-0.3C238.9,149.4,239.1,149.5,239.3,149.6z"/>
		<path style="fill:#4C4C4C;" d="M240.1,151.5c0,1.4-1.1,2.6-2.5,2.6h-32.4c-1.4,0-2.6-1.2-2.6-2.6c0-0.7,0.3-1.4,0.8-1.9h35.8
			c0.1,0.1,0.2,0.2,0.3,0.3C240,150.4,240.1,151,240.1,151.5z"/>
	</g>
	<g>
		<path style="fill:#4C4C4C;" d="M15.1,145.6c0,0.1,0,0.2,0.1,0.3l1.3,4.1c0.1-0.1,0.2-0.2,0.3-0.3c0,0,0,0,0.1-0.1
			c0.2-0.1,0.3-0.2,0.5-0.3c0.6-0.4,1.3-0.8,2.1-1.1l-1.1-3.3c0-0.2-0.1-0.3-0.2-0.5c-0.3,0.4-0.8,0.8-1.4,1
			C16.3,145.7,15.7,145.7,15.1,145.6z"/>
	</g>
	<g>
		<polygon style="fill:#4C4C4C;" points="20,170.9 49.4,170.9 48.8,167.5 20.7,167.5 		"/>
	</g>
	<g>
		<path style="fill:#4C4C4C;" d="M51.7,149.1l0.9,0.5C52.3,149.4,52,149.2,51.7,149.1z"/>
		<path style="fill:#4C4C4C;" d="M16.9,149.6c0.2-0.1,0.3-0.2,0.5-0.3C17.2,149.4,17,149.5,16.9,149.6z"/>
		<path style="fill:#4C4C4C;" d="M16,151.5c0,1.4,1.1,2.6,2.5,2.6h32.4c1.4,0,2.6-1.2,2.6-2.6c0-0.7-0.3-1.4-0.8-1.9H16.8
			c-0.1,0.1-0.2,0.2-0.3,0.3C16.2,150.4,16,151,16,151.5z"/>
	</g>
	<path style="opacity:0.2;" d="M239.3,149.7h-35.8c0,0,0,0,0.1-0.1l0.9-0.5l0,0l0.3-0.2c3.8-2,10.5-3.2,17.3-3.2
		c5.4,0,10.8,0.7,14.6,2.4c0.8,0.3,1.5,0.7,2.1,1.1C238.9,149.4,239.1,149.5,239.3,149.7C239.3,149.6,239.3,149.7,239.3,149.7z"/>
	<path style="opacity:0.2;" d="M16.8,149.7h35.8c0,0,0,0-0.1-0.1l-0.9-0.5l0,0l-0.3-0.2c-3.8-2-10.5-3.2-17.3-3.2
		c-5.4,0-10.8,0.7-14.6,2.4c-0.8,0.3-1.5,0.7-2.1,1.1C17.2,149.4,17,149.5,16.8,149.7C16.9,149.6,16.8,149.7,16.8,149.7z"/>
</g>
</svg>
