<?xml version="1.0" encoding="utf-8"?>
<!-- Generator: Adobe Illustrator 22.1.0, SVG Export Plug-In . SVG Version: 6.00 Build 0)  -->
<svg version="1.1" id="Layer_1" xmlns="http://www.w3.org/2000/svg" xmlns:xlink="http://www.w3.org/1999/xlink" x="0px" y="0px"
	 viewBox="0 0 256 256" style="enable-background:new 0 0 256 256;" xml:space="preserve">
<g style="opacity:0;">
	<path style="fill:#92E82E;" d="M242.3,82.3V153c0,1.8-1.5,3.3-3.3,3.3H17.1c-0.3,0-0.7,0-1-0.1c-1.3-0.4-2.3-1.7-2.3-3.2V82.3
		c0-3.6,2.9-6.6,6.6-6.6h5.2c5.9,0,10.7,4.8,10.7,10.7v43.8c0,1.8,1.5,3.3,3.3,3.3h175.8c1.8,0,3.3-1.5,3.3-3.3V86.4
		c0-5.9,4.8-10.7,10.7-10.7h6.4C239.4,75.7,242.3,78.7,242.3,82.3z"/>
	<path style="fill:#92E82E;" d="M124,133.4H39.6c-1.8,0-3.3-1.5-3.3-3.3v-16.3c0-1.8,1.5-3.3,3.3-3.3H124c1.8,0,3.3,1.5,3.3,3.3
		v16.3C127.3,132,125.8,133.4,124,133.4z"/>
	<path style="fill:#92E82E;" d="M130.6,133.4h84.8c1.8,0,3.3-1.5,3.3-3.3v-16.3c0-1.8-1.5-3.3-3.3-3.3h-84.8c-1.8,0-3.3,1.5-3.3,3.3
		v16.3C127.3,132,128.8,133.4,130.6,133.4z"/>
	<circle style="fill:#92E82E;" cx="18.7" cy="91.4" r="15.7"/>
	<circle style="fill:#92E82E;" cx="237.3" cy="91.4" r="15.7"/>
	<circle style="fill:#92E82E;" cx="50.7" cy="96.2" r="14.4"/>
	<circle style="fill:#92E82E;" cx="204.3" cy="96.2" r="14.4"/>
</g>
<g>
	<g style="opacity:0.1;">
		<path d="M230,146.7H24.3c-1.1,0-2-0.9-2-2V92.1c-0.5-0.5-1.5-1.4-2.7-1.5c-1.2-0.1-2.5,0.5-3.8,1.7c-0.1,1-0.1,2.4,0.3,3
			c0.1,0.2,0.2,0.3,0.5,0.3c1.1,0.2,1.8,1.3,1.6,2.3s-1.3,1.8-2.3,1.6c-1.3-0.2-2.4-0.9-3.1-2c-1.6-2.5-0.9-6.2-0.8-6.6
			c0.1-0.4,0.3-0.7,0.5-1c2.4-2.5,5-3.6,7.5-3.3c3.7,0.3,5.8,3.3,6,3.6c0.2,0.3,0.4,0.7,0.4,1.1v51.3H228V91.4c0-0.1,0-0.2,0-0.3
			c0.1-0.5,0.9-4.9,4.3-6.6c1.3-0.7,3.6-1.2,6.6,0.3c2.7,1.3,3.2,4.9,2.7,7.6c-0.1,0.7-0.6,4.5-3.6,5.7c-1,0.4-2.2-0.1-2.6-1.1
			c-0.4-1,0.1-2.2,1.1-2.6c0.6-0.3,1.1-1.7,1.2-2.4c0,0,0-0.1,0-0.1c0.3-1.6-0.1-3.2-0.5-3.4c-1.3-0.6-2.3-0.7-3-0.3
			c-1.3,0.7-2,2.7-2.2,3.6v53.1C232,145.8,231.1,146.7,230,146.7z"/>
	</g>
	<path style="opacity:0.1;" d="M124,133.4H39.6c-1.8,0-3.3-1.5-3.3-3.3v-16.3c0-1.8,1.5-3.3,3.3-3.3H124c1.8,0,3.3,1.5,3.3,3.3v16.3
		C127.3,132,125.8,133.4,124,133.4z"/>
	<path style="opacity:0.1;" d="M130.6,133.4h84.8c1.8,0,3.3-1.5,3.3-3.3v-16.3c0-1.8-1.5-3.3-3.3-3.3h-84.8c-1.8,0-3.3,1.5-3.3,3.3
		v16.3C127.3,132,128.8,133.4,130.6,133.4z"/>
	<circle style="opacity:0.1;" cx="50.7" cy="96.2" r="14.4"/>
	<circle style="opacity:0.1;" cx="204.3" cy="96.2" r="14.4"/>
	<path style="fill:#5B3F0E;" d="M238.5,156.3v8.5c0,1.3-1,2.3-2.3,2.3h-7.7v10c0,2.4-1.9,4.3-4.3,4.3h-1.4c-2.4,0-4.3-1.9-4.3-4.3
		v-10h-184v10c0,2.4-1.9,4.3-4.3,4.3h-1.4c-2.4,0-4.3-1.9-4.3-4.3v-10h-5.8c-1.3,0-2.3-1.1-2.3-2.3v-8.7c0.3,0.1,0.6,0.1,1,0.1
		H238.5z"/>
</g>
</svg>
