<?xml version="1.0" encoding="utf-8"?>
<!-- Generator: Adobe Illustrator 22.1.0, SVG Export Plug-In . SVG Version: 6.00 Build 0)  -->
<svg version="1.1" id="Layer_1" xmlns="http://www.w3.org/2000/svg" xmlns:xlink="http://www.w3.org/1999/xlink" x="0px" y="0px"
	 viewBox="0 0 256 256" style="enable-background:new 0 0 256 256;" xml:space="preserve">
<g style="opacity:0;">
	<path style="fill:#FF9F40;" d="M232.5,130.5c-0.1,0.2-0.7,2.1-2.2,5c-6.9,13.1-32,47.3-107,47.3c-78.9,0-97.5-51.8-100.3-61.7
		c0.1,0.2,0.2,0.4,0.3,0.5c5.3,4.5,39.9,29.5,106.5,27.9C217,147.5,231.9,131.2,232.5,130.5z"/>
</g>
<g>
	
		<line style="fill:none;stroke:#351A10;stroke-width:7;stroke-linecap:round;stroke-miterlimit:10;" x1="12.5" y1="221.5" x2="32.5" y2="221.5"/>
	
		<line style="fill:none;stroke:#351A10;stroke-width:7;stroke-linecap:round;stroke-miterlimit:10;" x1="222.5" y1="222.8" x2="242.5" y2="222.8"/>
	<rect x="19.5" y="52.5" style="fill:#351A10;" width="6" height="169"/>
	<rect x="229.5" y="52.5" style="fill:#351A10;" width="6" height="169"/>
	<g>
		<path style="fill:#CECECE;" d="M228.5,136.1c-0.9,0-1.6-0.6-1.9-1.4c-0.3-1.1,0.3-2.2,1.3-2.5l7.6-2.4c1-0.3,2.2,0.3,2.5,1.3
			c0.3,1.1-0.3,2.2-1.3,2.5l-7.6,2.4C228.9,136.1,228.7,136.1,228.5,136.1z"/>
	</g>
	<g>
		<path style="fill:#CECECE;" d="M26.3,126.7c-0.2,0-0.4,0-0.6-0.1l-7.5-2.5c-1-0.4-1.6-1.5-1.3-2.5c0.4-1,1.5-1.6,2.5-1.3l7.5,2.5
			c1,0.4,1.6,1.5,1.3,2.5C27.9,126.2,27.1,126.7,26.3,126.7z"/>
	</g>
	<path style="opacity:0.2;" d="M230.3,135.5c-6.9,13.1-32,47.3-107,47.3c-78.9,0-97.5-51.8-100.3-61.7c0.1,0.2,0.2,0.4,0.3,0.5
		c12.8,15.7,46.2,45.9,106.5,45.9C178.2,167.5,213,147.9,230.3,135.5z"/>
</g>
</svg>
