<?xml version="1.0" encoding="utf-8"?>
<!-- Generator: Adobe Illustrator 22.1.0, SVG Export Plug-In . SVG Version: 6.00 Build 0)  -->
<svg version="1.1" id="Layer_1" xmlns="http://www.w3.org/2000/svg" xmlns:xlink="http://www.w3.org/1999/xlink" x="0px" y="0px"
	 viewBox="0 0 256 256" style="enable-background:new 0 0 256 256;" xml:space="preserve">
<g>
	<path style="fill:#562F15;" d="M227.2,145V55.5H27.8V145h-4.4v7h4.4v63h6.9v-8h185.6v8h6.9v-63h4.8v-7H227.2z M220.3,145H34.7
		v-31.5h185.6V145z"/>
</g>
<g style="opacity:0;">
	<rect x="34.7" y="134.3" style="fill:#E5A629;" width="185.6" height="10.7"/>
	<rect x="227.2" y="134.3" style="fill:#E5A629;" width="0.3" height="10.7"/>
	<g style="opacity:0.2;">
		<path d="M84.5,159h-9.9c-0.8,0-1.5-0.7-1.5-1.5s0.7-1.5,1.5-1.5h9.9c0.8,0,1.5,0.7,1.5,1.5S85.4,159,84.5,159z"/>
	</g>
	<g style="opacity:0.2;">
		<path d="M182.3,159h-9.9c-0.8,0-1.5-0.7-1.5-1.5s0.7-1.5,1.5-1.5h9.9c0.8,0,1.5,0.7,1.5,1.5S183.1,159,182.3,159z"/>
	</g>
	<path style="opacity:0.3;" d="M227.2,145V55.5H27.8V145h-4.4v7h4.4v63h6.9v-8h185.6v8h6.9v-63h4.8v-7H227.2z M34.7,63h89.8v43H34.7
		V63z M124.5,201.3H34.7V152h89.8V201.3z M220.3,201.3h-89.8V152h89.8V201.3z M220.3,145H34.7v-31.5h185.6V145z M222.3,106h-91.8V63
		h91.8V106z"/>
</g>
</svg>
