<?xml version="1.0" encoding="utf-8"?>
<!-- Generator: Adobe Illustrator 22.1.0, SVG Export Plug-In . SVG Version: 6.00 Build 0)  -->
<svg version="1.1" id="Layer_1" xmlns="http://www.w3.org/2000/svg" xmlns:xlink="http://www.w3.org/1999/xlink" x="0px" y="0px"
	 viewBox="0 0 256 256" style="enable-background:new 0 0 256 256;" xml:space="preserve">
<g>
	<path style="fill:#FC8D42;" d="M181.1,167.6L74.1,158c-7.1-0.6-12.3-6.9-11.6-13.9c0.6-7.1,6.9-12.3,13.9-11.6l81.8,7.3
		c3.5-26.6,13.9-88.7,38.2-130.9c3.5-6.1,11.4-8.2,17.5-4.7c6.1,3.5,8.2,11.4,4.7,17.5c-28.2,49-36.3,132.4-36.4,133.2L181.1,167.6z
		"/>
</g>
<g style="opacity:0;">
	<path style="fill:#562F15;" d="M230.7,217.6c-1.7-3.1-5.6-4.3-8.7-2.6c-9.6,5.2-19.5,9.1-29.3,12.1c-18-72.8,13.7-168.8,23.8-196.4
		c0.8,0.3,1.7,0.5,2.6,0.6c5.3,0.5,10.1-3.5,10.5-8.8c0.5-5.4-3.5-10.1-8.8-10.5c-4.8-0.4-9.2,2.8-10.3,7.4c0,0,0,0,0,0
		c-1.3,3-18.9,46.9-27.9,100.5L68.4,109.6c-0.9-0.1-1.7,0-2.5,0.3h0c-5.1-0.3-9.6,3.6-10,8.7c-0.5,5.3,3.4,9.9,8.7,10.4
		c2.3,0.2,4.5-0.4,6.2-1.6c4.5,15.8,10.6,51-8,92.1c-11.5-5.3-27.8-14.1-28-14.2c-3.1-1.7-7-0.5-8.7,2.6c-1.7,3.1-0.5,7,2.6,8.7
		c0.9,0.5,21.4,11.6,33.3,16.6c17.1,7.2,45.4,14.4,77.7,14.4c28.1,0,59.1-5.5,88.5-21.2C231.2,224.6,232.4,220.7,230.7,217.6z
		 M180.6,134.2c-1.1,8.3-1.9,16.7-2.4,25.2c-0.5-0.9-1.3-1.5-2.3-2l-31.7-13.5l36.1-9.6C180.4,134.2,180.5,134.2,180.6,134.2z
		 M163,162.4l-66.1-5.9l32.1-8.6L163,162.4z M157.3,130.4l-27.5,7.3l-29-12.4L157.3,130.4z M114.7,141.8L86,149.4
		c-0.5,0.1-0.9,0.3-1.3,0.5c-0.8-9.1-2.3-16.8-3.9-22.7L114.7,141.8z M71.7,223.1c9.7-21.5,13.1-41.4,13.5-58.1l92.4,8.3
		c-0.3,19.2,1.4,38.3,5.9,56.3C139.3,240.3,96.2,232.3,71.7,223.1z"/>
</g>
</svg>
