<?xml version="1.0" encoding="utf-8"?>
<!-- Generator: Adobe Illustrator 22.1.0, SVG Export Plug-In . SVG Version: 6.00 Build 0)  -->
<svg version="1.1" id="Layer_1" xmlns="http://www.w3.org/2000/svg" xmlns:xlink="http://www.w3.org/1999/xlink" x="0px" y="0px"
	 viewBox="0 0 256 256" style="enable-background:new 0 0 256 256;" xml:space="preserve">
<g style="opacity:0;">
	<ellipse style="fill:#EF434C;" cx="71.8" cy="107.2" rx="21.6" ry="46.2"/>
	<ellipse style="fill:#EF434C;" cx="39" cy="118.9" rx="15.9" ry="20.8"/>
	<polygon style="fill:#EF434C;" points="85.7,170.5 27.1,170.5 17.3,116.8 95.4,116.8 	"/>
	
		<rect x="80.6" y="132" transform="matrix(0.5 -0.866 0.866 0.5 -59.1577 177.8158)" style="fill:#EF434C;" width="87.7" height="16.3"/>
	<rect x="185" y="90.6" style="fill:#F2465B;" width="16.3" height="79.7"/>
</g>
<g>
	<rect x="19" y="170.3" style="fill:#603C11;" width="219.7" height="17.9"/>
	<polygon style="opacity:0.5;enable-background:new    ;" points="95.4,116.8 86,170.3 26.8,170.3 17.3,116.8 	"/>
	<polygon style="opacity:0.1;enable-background:new    ;" points="153.4,106.2 152.4,107.8 116.5,170.3 97.6,170.3 139.2,98.1 
		152.4,105.7 	"/>
	<rect x="152.4" y="93.5" style="fill:#EF434C;" width="16.3" height="77"/>
	<rect x="168.7" y="100" style="fill:#50D672;" width="16.3" height="70.5"/>
	<rect x="152.4" y="93.5" style="fill:#F4B73D;" width="16.3" height="77"/>
</g>
</svg>
