<?xml version="1.0" encoding="utf-8"?>
<!-- Generator: Adobe Illustrator 22.1.0, SVG Export Plug-In . SVG Version: 6.00 Build 0)  -->
<svg version="1.1" id="Layer_1" xmlns="http://www.w3.org/2000/svg" xmlns:xlink="http://www.w3.org/1999/xlink" x="0px" y="0px"
	 viewBox="0 0 256 256" style="enable-background:new 0 0 256 256;" xml:space="preserve">
<g>
	<path style="fill:#70C1E5;" d="M212.8,103.6v15.7c-3.9,1.1-6.8,4.7-6.8,8.9v31H52v-31c0-5.1-4.1-9.3-9.3-9.3v-15.4
		c0-6.1,5-11.1,11.1-11.1h147.7C207.8,92.5,212.8,97.5,212.8,103.6z"/>
</g>
<g style="opacity:0;">
	<path style="fill:#7C4E12;" d="M52,128.3V180c0,2.8-1.9,5.1-4.5,5.8v1.4c0,1.2-1,2.3-2.3,2.3h-14c-1.2,0-2.3-1-2.3-2.3v-1.4
		c-2.6-0.7-4.5-3-4.5-5.8v-51.8c0-5.1,4.1-9.3,9.3-9.3h9C47.9,119,52,123.1,52,128.3z"/>
	<path style="fill:#7C4E12;" d="M233.5,128.3V180c0,2.4-1.4,4.5-3.5,5.5v1.8c0,1.2-1,2.3-2.3,2.3h-16c-1.2,0-2.3-1-2.3-2.3v-1.8
		c-2.1-0.9-3.5-3-3.5-5.5v-51.8c0-4.2,2.8-7.8,6.8-8.9c0.8-0.2,1.6-0.3,2.5-0.3h9C229.4,119,233.5,123.1,233.5,128.3z"/>
	<rect x="52" y="159.3" style="fill:#6D410D;" width="154" height="18.3"/>
	<g style="opacity:0.1;">
		<path d="M206,138.9v8.2H52v-8c2.5-0.5,4.5-0.7,4.5-0.7c9.1-1.5,22.2-2.4,40.3-2.4H124V92.5h3V136h35.2c1.7,0,21,0,36.8,2
			C199,138,202.5,138.1,206,138.9z"/>
	</g>
</g>
</svg>
