<?xml version="1.0" encoding="utf-8"?>
<!-- Generator: Adobe Illustrator 22.1.0, SVG Export Plug-In . SVG Version: 6.00 Build 0)  -->
<svg version="1.1" id="Layer_1" xmlns="http://www.w3.org/2000/svg" xmlns:xlink="http://www.w3.org/1999/xlink" x="0px" y="0px"
	 viewBox="0 0 256 256" style="enable-background:new 0 0 256 256;" xml:space="preserve">
<g>
	<path style="fill:#F9E048;" d="M227,51c0,4.8-1.9,9.1-5.1,12.3c-3.1,3.1-7.5,5.1-12.3,5.1H40c-9.6,0-17.3-7.8-17.3-17.3
		c0-4.8,1.9-9.1,5.1-12.3c2.1-2.1,4.6-3.6,7.5-4.4l-0.6,0.3H215l-0.6-0.3C221.7,36.4,227,43.1,227,51z"/>
	<path style="fill:#F9E048;" d="M215,34.7H34.7l0.6-0.3l3.4-1.9C64.8,17.8,94.2,14.1,124.2,14h1.4c30.5,0,60.4,4.1,86.9,19.2l2,1.1
		L215,34.7z"/>
</g>
<g style="opacity:0;">
	<path style="fill:#7C5623;" d="M194.2,68.3v45H56.1v-45h-13v167h13v-73.5h138.1v73.5h13v-167H194.2z M194.2,146.8H56.1v-18.6h138.1
		V146.8z"/>
	<path style="opacity:0.1;" d="M215,34.7H34.7l0.6-0.3l3.4-1.9C64.8,17.8,94.2,14.1,124.2,14h1.4c30.5,0,60.4,4.1,86.9,19.2l2,1.1
		L215,34.7z"/>
</g>
</svg>
