<?xml version="1.0" encoding="utf-8"?>
<!-- Generator: Adobe Illustrator 22.1.0, SVG Export Plug-In . SVG Version: 6.00 Build 0)  -->
<svg version="1.1" id="Layer_1" xmlns="http://www.w3.org/2000/svg" xmlns:xlink="http://www.w3.org/1999/xlink" x="0px" y="0px"
	 viewBox="0 0 256 256" style="enable-background:new 0 0 256 256;" xml:space="preserve">
<g>
	<g>
		<g>
			<path style="fill:#F96638;" d="M189.7,141.1v9c-1.3,0-2.5,0-3.8-0.1c-1-0.1-2-0.2-3-0.3c-1.9-0.3-3.7-0.6-5.4-1.1
				c-1-0.3-2-0.6-3-0.9c-1.7-0.6-3.4-1.2-5-2c-1-0.5-2-0.9-3-1.4c-1.6-0.8-3.2-1.6-4.8-2.5c-0.6-0.3-1.2-0.7-1.8-1
				c-0.4-0.2-0.8-0.4-1.2-0.7c-1.7-0.9-3.3-1.8-5-2.6c-0.8-0.4-1.5-0.7-2.3-1.1c-1.8-0.9-3.7-1.6-5.7-2.3c-1-0.3-2-0.6-3-0.9
				c-1.6-0.4-3.3-0.8-5-1.1c-1-0.2-2-0.3-3-0.4c-1.6-0.2-3.3-0.2-5.1-0.2h-0.3c-1,0-2,0-3,0.1c-1.7,0.1-3.4,0.2-5,0.4
				c-1,0.1-2,0.3-3,0.5c-1.6,0.3-3.2,0.6-4.8,1.1c-1,0.3-2,0.6-3,0.9c-1.7,0.5-3.4,1.2-5,1.8c-1,0.4-2,0.8-3,1.3
				c-1.7,0.8-3.4,1.5-5,2.3c-1,0.5-2,1-3,1.5c-0.3,0.1-0.5,0.3-0.8,0.4c-1.4,0.7-2.8,1.4-4.2,2.1c-1,0.5-2,1-3,1.4
				c-1.6,0.7-3.2,1.4-4.8,2c-1,0.4-2,0.7-3,1c-1.6,0.5-3.3,0.9-5,1.2c-1,0.2-2,0.3-3,0.4c-1.2,0.1-2.5,0.2-3.8,0.2v-9
				c7.9,0,14.8-3.4,22.7-7.4c10.4-5.2,22.2-11.1,39.8-11.1c15.7,0,25.8,5.5,34.6,10.3C172.4,137.3,179.3,141.1,189.7,141.1z"/>
			<path style="fill:#F96638;" d="M74,149.5v22.6h-3v-22.2C72,149.8,73,149.6,74,149.5z"/>
		</g>
		<g>
			<path style="fill:#F96638;" d="M82,147.2v24.9h-3v-23.8C80,147.9,81,147.6,82,147.2z"/>
		</g>
		<g>
			<path style="fill:#F96638;" d="M89.7,143.8v28.3h-3v-26.8C87.7,144.8,88.7,144.3,89.7,143.8z"/>
		</g>
		<g>
			<path style="fill:#F96638;" d="M97.7,139.9v32.2h-3v-30.7C95.7,140.9,96.7,140.4,97.7,139.9z"/>
		</g>
		<g>
			<path style="fill:#F96638;" d="M105.7,136.3v35.8h-3v-34.5C103.7,137.1,104.7,136.7,105.7,136.3z"/>
		</g>
		<g>
			<path style="fill:#F96638;" d="M113.7,133.6v38.5h-3v-37.6C111.7,134.2,112.7,133.9,113.7,133.6z"/>
		</g>
		<g>
			<path style="fill:#F96638;" d="M121.5,132.1v40h-3v-39.5C119.4,132.4,120.4,132.2,121.5,132.1z"/>
		</g>
		<g>
			<path style="fill:#F96638;" d="M129.5,131.6v40.5h-3v-40.4C127.4,131.6,128.4,131.6,129.5,131.6z"/>
		</g>
		<g>
			<path style="fill:#F96638;" d="M137.8,132.2v39.9h-3v-40.3C135.9,131.9,136.9,132,137.8,132.2z"/>
		</g>
		<g>
			<path style="fill:#F96638;" d="M145.8,134.1v37.9h-3v-38.8C143.9,133.5,144.9,133.8,145.8,134.1z"/>
		</g>
		<g>
			<path style="fill:#F96638;" d="M153.8,137.5v34.5h-3v-35.6h0.7C152.3,136.8,153.1,137.2,153.8,137.5z"/>
		</g>
		<g>
			<path style="fill:#F96638;" d="M161.8,141.8v30.3h-3v-31.9c0.4,0.2,0.8,0.4,1.2,0.7C160.6,141.1,161.2,141.5,161.8,141.8z"/>
		</g>
		<g>
			<path style="fill:#F96638;" d="M169.6,145.7v26.4h-3v-27.8C167.6,144.8,168.6,145.2,169.6,145.7z"/>
		</g>
		<g>
			<path style="fill:#F96638;" d="M177.6,148.5v23.6h-3v-24.4C175.6,148,176.6,148.3,177.6,148.5z"/>
		</g>
		<g>
			<path style="fill:#F96638;" d="M186,149.9v22.1h-3v-22.5C183.9,149.8,184.9,149.9,186,149.9z"/>
		</g>
	</g>
	<g>
		<rect x="67.2" y="172.1" style="fill:#F96638;" width="122.5" height="6.5"/>
	</g>
</g>
<g style="opacity:0;">
	<g>
		<path style="fill:#5E3315;" d="M218.9,66h9.5c0.5,0,1-0.2,1.4-0.6c0.4-0.4,0.6-0.9,0.6-1.4c0-1.1-0.9-2-2-2H198v-1
			c0-0.5-0.5-1-1-1s-1,0.5-1,1v1H61v-1c0-0.5-0.5-1-1-1s-1,0.5-1,1v1H28.5c-0.5,0-1,0.2-1.4,0.6c-0.4,0.4-0.6,0.9-0.6,1.4
			c0,1.1,0.9,2,2,2h9.6L10.5,207.3l3.9,0.8l24-123.3v107h4V66H59v121.6h139V66h16.5v125.7h4v-107l24,123.3l3.9-0.8L218.9,66z
			 M63.7,178.6v-17.2h8.8v-4.7H61V66h135v90.7h-11.5v4.7h8.8v17.2H63.7z"/>
	</g>
	<rect x="193.2" y="156.6" style="fill:#5E3315;" width="2.8" height="0.1"/>
	<rect x="193.2" y="187.6" style="fill:#5E3315;" width="4.8" height="0"/>
	<g style="opacity:0.2;">
		<g>
			<path style="fill:#FFFFFF;" d="M82,147.2v24.9h-3v-23.8C80,147.9,81,147.6,82,147.2z"/>
		</g>
		<g>
			<path style="fill:#FFFFFF;" d="M89.7,143.8v28.3h-3v-26.8C87.7,144.8,88.7,144.3,89.7,143.8z"/>
		</g>
		<g>
			<path style="fill:#FFFFFF;" d="M97.7,139.9v32.2h-3v-30.7C95.7,140.9,96.7,140.4,97.7,139.9z"/>
		</g>
		<g>
			<path style="fill:#FFFFFF;" d="M105.7,136.3v35.8h-3v-34.5C103.7,137.1,104.7,136.7,105.7,136.3z"/>
		</g>
		<g>
			<path style="fill:#FFFFFF;" d="M113.7,133.6v38.5h-3v-37.6C111.7,134.2,112.7,133.9,113.7,133.6z"/>
		</g>
		<g>
			<path style="fill:#FFFFFF;" d="M121.5,132.1v40h-3v-39.5C119.4,132.4,120.4,132.2,121.5,132.1z"/>
		</g>
		<g>
			<path style="fill:#FFFFFF;" d="M129.5,131.6v40.5h-3v-40.4C127.4,131.6,128.4,131.6,129.5,131.6z"/>
		</g>
		<g>
			<path style="fill:#FFFFFF;" d="M137.8,132.2v39.9h-3v-40.3C135.9,131.9,136.9,132,137.8,132.2z"/>
		</g>
		<g>
			<path style="fill:#FFFFFF;" d="M145.8,134.1v37.9h-3v-38.8C143.9,133.5,144.9,133.8,145.8,134.1z"/>
		</g>
		<g>
			<path style="fill:#FFFFFF;" d="M153.8,137.5v34.5h-3v-35.6h0.7C152.3,136.8,153.1,137.2,153.8,137.5z"/>
		</g>
		<g>
			<path style="fill:#FFFFFF;" d="M161.8,141.8v30.3h-3v-31.9c0.4,0.2,0.8,0.4,1.2,0.7C160.6,141.1,161.2,141.5,161.8,141.8z"/>
		</g>
		<g>
			<path style="fill:#FFFFFF;" d="M169.6,145.7v26.4h-3v-27.8C167.6,144.8,168.6,145.2,169.6,145.7z"/>
		</g>
		<g>
			<path style="fill:#FFFFFF;" d="M177.6,148.5v23.6h-3v-24.4C175.6,148,176.6,148.3,177.6,148.5z"/>
		</g>
		<g>
			<path style="fill:#FFFFFF;" d="M186,149.9v22.1h-3v-22.5C183.9,149.8,184.9,149.9,186,149.9z"/>
		</g>
	</g>
</g>
</svg>
