<?xml version="1.0" encoding="utf-8"?>
<!-- Generator: Adobe Illustrator 22.1.0, SVG Export Plug-In . SVG Version: 6.00 Build 0)  -->
<svg version="1.1" id="Layer_1" xmlns="http://www.w3.org/2000/svg" xmlns:xlink="http://www.w3.org/1999/xlink" x="0px" y="0px"
	 viewBox="0 0 256 256" style="enable-background:new 0 0 256 256;" xml:space="preserve">
<g>
	<rect x="50.8" y="131.5" style="fill:#28769E;" width="11.8" height="32.6"/>
	<rect x="50.8" y="169.7" style="fill:#28769E;" width="11.8" height="79.3"/>
	<rect x="193.3" y="131.5" style="fill:#28769E;" width="11.8" height="32.6"/>
	<rect x="193.3" y="169.7" style="fill:#28769E;" width="11.8" height="79.3"/>
	<polygon style="fill:#28769E;" points="166.2,70.1 87.5,70.1 106.3,10.2 147.4,10.2 	"/>
	<rect x="33.8" y="108.2" style="fill:#28769E;" width="186.2" height="18.8"/>
	<rect x="47" y="131.5" style="fill:#28769E;" width="159.6" height="32.6"/>
</g>
<g style="opacity:0;">
	<path style="fill:#4C4C4C;" d="M42.4,127.1v42.6h169v-42.6H42.4z M206.7,164.1H47v-32.6h159.6V164.1z"/>
	<path style="fill:#4C4C4C;" d="M143.2,100.3l-4.8,7.9h-22.9l-4.9-8c-2.7-4.3-2.2-9.9,1.2-13.7l6.8-7.6c1.7-1.6,3-3.6,3.9-5.7
		c0.4-1,0.8-2.1,1-3.2h6.7c0.7,3.4,2.4,6.5,4.9,8.9l6.9,7.8C145.3,90.5,145.8,96,143.2,100.3z"/>
	<circle style="opacity:0.3;" cx="126.8" cy="147.8" r="4.4"/>
</g>
</svg>
