<?xml version="1.0" encoding="utf-8"?>
<!-- Generator: Adobe Illustrator 22.1.0, SVG Export Plug-In . SVG Version: 6.00 Build 0)  -->
<svg version="1.1" id="Layer_1" xmlns="http://www.w3.org/2000/svg" xmlns:xlink="http://www.w3.org/1999/xlink" x="0px" y="0px"
	 viewBox="0 0 256 256" style="enable-background:new 0 0 256 256;" xml:space="preserve">
<g style="opacity:0;">
	<g>
		<path style="fill:#3AF9AB;" d="M238.9,129c-5.2,8.8-10.8,15.4-16.4,19.2c1.5-4.2,2.4-8.8,2.9-13.8c2.1-2.6,4.3-5.8,6.5-9.5
			c10.1-17.2,15.9-40.7,7.4-52.3c-5.3-7.2-10.4-10.5-15.1-9.9c-5.8,0.8-11,7.1-14.7,13c-1.6-2.4-3.3-4.7-5.1-7
			c4.4-6.4,10.7-12.9,18.7-14c7.9-1,15.5,3.4,22.6,13.1C256.9,83.1,250.3,109.5,238.9,129z"/>
	</g>
	<path style="fill:#3AF9AB;" d="M130.8,157.8c-3.7,10.2-12,15.1-17.3,17.2c-2.6,1-4.5,1.4-4.7,1.5c-0.2,0-0.4,0.1-0.6,0.1
		c-0.6,0-1.2-0.2-1.7-0.5c0.9-1.3,1.8-2.6,2.5-4c0.4-0.7,0.8-1.5,1.2-2.3c4.1-1.5,11.8-5.4,14.9-14c1.1-3,1.1-5.2,0-6.5
		c-2.1-2.6-8.2-2.5-10.1-2.2c-0.1,0-0.2,0-0.3,0c0-2.4-0.2-4.4-0.4-6c1.6-0.2,11-1,15.4,4.4C132.3,148.5,132.6,152.7,130.8,157.8z"
		/>
	<path style="fill:#3AF9AB;" d="M110.3,169.8c3.8-8.1,4.6-16.5,4.6-22.8c0.1,0,0.2,0,0.3,0c2-0.3,8-0.4,10.1,2.2c1,1.3,1,3.5,0,6.5
		C122,164.4,114.3,168.3,110.3,169.8z"/>
	<path style="fill:#3AF9AB;" d="M225.8,126.5c0,2.8-0.1,5.4-0.4,8c-0.5,5-1.5,9.6-2.9,13.8c-4.4,12.8-13.4,21.7-26.8,27.5
		c-0.4-0.1-0.8-0.2-1.3-0.2H119c-1,0-2,0.4-2.7,1c-1-0.5-1.9-1-2.8-1.5c5.3-2.1,13.6-7,17.3-17.2c1.9-5.1,1.5-9.3-0.9-12.3
		c-4.4-5.5-13.8-4.6-15.4-4.4c-0.2-2.1-0.5-3.4-0.5-3.4H66.1c-0.5-1.1-1-2.2-1.4-3.2c-2.3-5.9-3.2-11.4-3.7-16.5
		c-0.1-1.3-0.2-2.5-0.3-3.8l0-0.9l0-0.7l0-1.5c0-1.9-0.1-3.9-0.3-5.8c-0.3-3.8-0.8-7.6-1.8-11.1c-0.9-3.5-2.1-6.9-4-9.8
		c-0.9-1.5-1.9-2.8-3.1-4c-0.6-0.6-1.2-1.1-1.9-1.6c-0.3-0.2-0.7-0.4-1-0.6l-0.5-0.3L48,77.8c0,0-0.2-0.1,0-0.1c-2.2,0-4-1.8-4-4
		c0-2.2,1.8-4,4-4l0.8,0l0.6,0c0.4,0,0.7,0,1.1,0c0.7,0,1.4,0.1,2.1,0.2c1.4,0.2,2.8,0.5,4.1,1c2.6,0.9,5.1,2.2,7.3,3.7
		c4.4,3.1,8.1,7,11.1,11.2c3,4.2,5.5,8.6,7.5,13.1c1,2.2,2,4.5,2.9,6.8l0.6,1.7l0.3,0.8l0.3,0.6c0.4,0.9,0.8,1.7,1.2,2.5
		c0,0,0,0,0,0c0.7,1.3,2.6,1,2.9-0.4c4.6-23,18.7-46.2,37.6-58.7c0.2,0,0.4,0,0.6,0h57.7c6.6,4.4,12.6,10.1,17.9,16.6
		c1.8,2.2,3.5,4.6,5.1,7C219.7,91.1,225.8,109.6,225.8,126.5z"/>
	<g>
		<path style="fill:#3AF9AB;" d="M198.5,179.5c0,2.2-1.8,4-4,4H119c-2.2,0-4-1.8-4-4c0-1.2,0.5-2.3,1.3-3c0.7-0.6,1.6-1,2.7-1h75.6
			c0.4,0,0.9,0.1,1.3,0.2C197.4,176.3,198.5,177.8,198.5,179.5z"/>
	</g>
	<g>
		<path style="fill:#3AF9AB;" d="M191,48.3c0,2.2-1.8,4-4,4h-58c-0.2,0-0.4,0-0.6,0c-1.9-0.3-3.4-1.9-3.4-4c0-2.2,1.8-4,4-4h18.2
			c-0.4-0.6-0.6-1.4-0.6-2.2c0-2.2,1.8-4,4-4h15c2.2,0,4,1.8,4,4c0,0.8-0.2,1.5-0.6,2.2H187C189.2,44.3,191,46.1,191,48.3z"/>
	</g>
	<g>
		<path style="fill:#3AF9AB;" d="M98.6,192.3c0,1.7-1.4,3-3,3H35.8c-1.7,0-3-1.3-3-3c0-1.7,1.3-3,3-3h59.8
			C97.2,189.3,98.6,190.6,98.6,192.3z"/>
	</g>
	<path style="fill:#3AF9AB;" d="M110.3,169.8c-0.4,0.8-0.7,1.5-1.2,2.3c-0.8,1.4-1.6,2.7-2.5,4c-3.8,5.2-9.1,9.9-16.8,13.3h-48
		c-4.8-2-26.5-13.2-24.1-51.6H114c0,0,0.3,1.3,0.5,3.4c0.2,1.6,0.3,3.6,0.4,6C114.9,153.2,114.1,161.7,110.3,169.8z"/>
</g>
<g>
	<g style="opacity:0.2;">
		<path d="M238.9,129c-5.2,8.8-10.8,15.4-16.4,19.2c1.5-4.2,2.4-8.8,2.9-13.8c2.1-2.6,4.3-5.8,6.5-9.5c10.1-17.2,15.9-40.7,7.4-52.3
			c-5.3-7.2-10.4-10.5-15.1-9.9c-5.8,0.8-11,7.1-14.7,13c-1.6-2.4-3.3-4.7-5.1-7c4.4-6.4,10.7-12.9,18.7-14
			c7.9-1,15.5,3.4,22.6,13.1C256.9,83.1,250.3,109.5,238.9,129z"/>
	</g>
	<path style="opacity:0.1;" d="M110.3,169.8c3.8-8.1,4.6-16.5,4.6-22.8c0.1,0,0.2,0,0.3,0c2-0.3,8-0.4,10.1,2.2c1,1.3,1,3.5,0,6.5
		C122,164.4,114.3,168.3,110.3,169.8z"/>
	<path style="opacity:0.1;" d="M225.8,126.5c0,2.8-0.1,5.4-0.4,8c-0.5,5-1.5,9.6-2.9,13.8c-4.4,12.8-13.4,21.7-26.8,27.5
		c-0.4-0.1-0.8-0.2-1.3-0.2H119c-1,0-2,0.4-2.7,1c-1-0.5-1.9-1-2.8-1.5c5.3-2.1,13.6-7,17.3-17.2c1.9-5.1,1.5-9.3-0.9-12.3
		c-4.4-5.5-13.8-4.6-15.4-4.4c-0.2-2.1-0.5-3.4-0.5-3.4H66.1c-0.5-1.1-1-2.2-1.4-3.2c-2.3-5.9-3.2-11.4-3.7-16.5
		c-0.1-1.3-0.2-2.5-0.3-3.8l0-0.9l0-0.7l0-1.5c0-1.9-0.1-3.9-0.3-5.8c-0.3-3.8-0.8-7.6-1.8-11.1c-0.9-3.5-2.1-6.9-4-9.8
		c-0.9-1.5-1.9-2.8-3.1-4c-0.6-0.6-1.2-1.1-1.9-1.6c-0.3-0.2-0.7-0.4-1-0.6l-0.5-0.3L48,77.8c0,0-0.2-0.1,0-0.1c-2.2,0-4-1.8-4-4
		c0-2.2,1.8-4,4-4l0.8,0l0.6,0c0.4,0,0.7,0,1.1,0c0.7,0,1.4,0.1,2.1,0.2c1.4,0.2,2.8,0.5,4.1,1c2.6,0.9,5.1,2.2,7.3,3.7
		c4.4,3.1,8.1,7,11.1,11.2c3,4.2,5.5,8.6,7.5,13.1c1,2.2,2,4.5,2.9,6.8l0.6,1.7l0.3,0.8l0.3,0.6c0.4,0.9,0.8,1.7,1.2,2.5
		c0,0,0,0,0,0c0.7,1.3,2.6,1,2.9-0.4c4.6-23,18.7-46.2,37.6-58.7c0.2,0,0.4,0,0.6,0h57.7c6.6,4.4,12.6,10.1,17.9,16.6
		c1.8,2.2,3.5,4.6,5.1,7C219.7,91.1,225.8,109.6,225.8,126.5z"/>
	<g style="opacity:0.2;">
		<path d="M198.5,179.5c0,2.2-1.8,4-4,4H119c-2.2,0-4-1.8-4-4c0-1.2,0.5-2.3,1.3-3c0.7-0.6,1.6-1,2.7-1h75.6c0.4,0,0.9,0.1,1.3,0.2
			C197.4,176.3,198.5,177.8,198.5,179.5z"/>
	</g>
	<g style="opacity:0.2;">
		<path d="M191,48.3c0,2.2-1.8,4-4,4h-58c-0.2,0-0.4,0-0.6,0c-1.9-0.3-3.4-1.9-3.4-4c0-2.2,1.8-4,4-4h18.2c-0.4-0.6-0.6-1.4-0.6-2.2
			c0-2.2,1.8-4,4-4h15c2.2,0,4,1.8,4,4c0,0.8-0.2,1.5-0.6,2.2H187C189.2,44.3,191,46.1,191,48.3z"/>
	</g>
	<path style="opacity:0.1;fill:#FFFFFF;" d="M110.3,169.8c-0.4,0.8-0.7,1.5-1.2,2.3c-0.8,1.4-1.6,2.7-2.5,4
		c-3.8,5.2-9.1,9.9-16.8,13.3h-48c-4.8-2-26.5-13.2-24.1-51.6H114c0,0,0.3,1.3,0.5,3.4c0.2,1.6,0.3,3.6,0.4,6
		C114.9,153.2,114.1,161.7,110.3,169.8z"/>
</g>
</svg>
