<?xml version="1.0" encoding="utf-8"?>
<!-- Generator: Adobe Illustrator 22.1.0, SVG Export Plug-In . SVG Version: 6.00 Build 0)  -->
<svg version="1.1" id="Layer_1" xmlns="http://www.w3.org/2000/svg" xmlns:xlink="http://www.w3.org/1999/xlink" x="0px" y="0px"
	 viewBox="0 0 256 256" style="enable-background:new 0 0 256 256;" xml:space="preserve">
<g style="opacity:0;">
	<polygon style="fill:#F94B70;" points="54.2,115.9 15,115.9 24.4,86.1 44.9,86.1 	"/>
	<rect x="128.4" y="141.1" style="fill:#F94B70;" width="113" height="28.7"/>
	<rect x="12.8" y="141.1" style="fill:#F94B70;" width="111.8" height="61.3"/>
	<rect x="128.4" y="173.6" style="fill:#F94B70;" width="113" height="28.7"/>
</g>
<g>
	<path style="fill:#4C4C4C;" d="M42.8,130.9l-2.7,4.5c-0.3,0.4-0.4,0.8-0.6,1.3h-9.6c-0.1-0.5-0.4-1-0.6-1.5l-2.7-4.3
		c-1.3-2.2-1.1-4.9,0.6-6.8l3.4-3.8c0.8-0.8,1.5-1.8,1.9-2.8c0.2-0.5,0.4-1,0.5-1.6h3.3c0.3,1.7,1.2,3.2,2.4,4.4l3.4,3.9
		C43.8,126.1,44.1,128.8,42.8,130.9z"/>
	<path style="fill:#EFEFEF;" d="M241.5,128.8v7.9H12.8v-7.9H7.5v78h240v-78H241.5z M124.6,202.3H12.8v-61.3h111.8V202.3z
		 M241.5,202.3h-113v-28.7h113V202.3z M241.5,169.8h-113v-28.7h113V169.8z"/>
	<polygon style="fill:#4C4C4C;" points="131.2,128.8 131.2,133.6 143.4,133.6 143.4,136.7 112.4,136.7 112.4,133.6 124.6,133.6 
		124.6,128.8 76.2,128.8 76.2,75.3 180.6,75.3 180.6,128.8 	"/>
	<polygon style="opacity:0.4;fill:#FFFFFF;" points="178.8,77.7 178.8,89 78,120.1 78,108.2 176.9,77.7 	"/>
	<polygon style="opacity:0.4;fill:#FFFFFF;" points="178.8,93.3 178.8,97.8 86.2,126.3 78,126.3 78,124.3 	"/>
	<g style="opacity:0.2;">
		<path d="M186.5,146.1c0,1.2-1,2.2-2.2,2.2c-1.2,0-2.2-1-2.2-2.2c0-1.2,1-2.2,2.2-2.2C185.5,143.9,186.5,144.9,186.5,146.1z"/>
	</g>
	<g style="opacity:0.2;">
		<path d="M186.5,177.4c0,1.2-1,2.2-2.2,2.2c-1.2,0-2.2-1-2.2-2.2c0-1.2,1-2.2,2.2-2.2C185.5,175.2,186.5,176.2,186.5,177.4z"/>
	</g>
	<g style="opacity:0.2;">
		<path d="M121.6,162.6v11.1c0,1.1-0.9,2-2,2c-1.1,0-2-0.9-2-2v-11.1c0-1.1,0.9-2,2-2C120.7,160.6,121.6,161.5,121.6,162.6z"/>
	</g>
</g>
</svg>
