<?xml version="1.0" encoding="utf-8"?>
<!-- Generator: Adobe Illustrator 22.1.0, SVG Export Plug-In . SVG Version: 6.00 Build 0)  -->
<svg version="1.1" id="Layer_1" xmlns="http://www.w3.org/2000/svg" xmlns:xlink="http://www.w3.org/1999/xlink" x="0px" y="0px"
	 viewBox="0 0 256 256" style="enable-background:new 0 0 256 256;" xml:space="preserve">
<g style="opacity:0;">
	<polygon style="fill:#543A60;" points="161.6,110 152.4,240 103.6,240 94.4,110 	"/>
	<g>
		<path style="fill:#543A60;" d="M174,107.5c0,1.4-1.1,2.5-2.5,2.5h-86c-1.4,0-2.5-1.1-2.5-2.5s1.1-2.5,2.5-2.5h86
			C172.9,105,174,106.1,174,107.5z"/>
	</g>
	<g>
		<path style="fill:#543A60;" d="M162,242.5c0,1.4-1.1,2.5-2.5,2.5h-61c-1.4,0-2.5-1.1-2.5-2.5s1.1-2.5,2.5-2.5h61
			C160.9,240,162,241.1,162,242.5z"/>
	</g>
</g>
<g>
	<path style="fill:none;stroke:#686868;stroke-width:3;stroke-linecap:round;stroke-linejoin:round;stroke-miterlimit:10;" d="
		M142.8,80.6V27.7c0,0,2.2-16.4,17.9-11.2c0,0,7.1,3,7.5,13.4"/>
	<path style="fill:none;stroke:#686868;stroke-width:3;stroke-linecap:round;stroke-linejoin:round;stroke-miterlimit:10;" d="
		M86.9,67.1c0.4-10.4,7.4-13.4,7.4-13.4c15.6-5.2,17.9,11.2,17.9,11.2v24.1V105"/>
	<path style="fill:none;stroke:#F96638;stroke-width:6;stroke-linecap:round;stroke-linejoin:round;stroke-miterlimit:10;" d="
		M142.8,38.1V27.7c0,0,2.2-16.4,17.9-11.2c0,0,7.1,3,7.5,13.4"/>
	<path style="fill:none;stroke:#F96638;stroke-width:6;stroke-linecap:round;stroke-linejoin:round;stroke-miterlimit:10;" d="
		M112.3,74.5v-9.6c0,0-2.2-16.4-17.9-11.2c0,0-7.1,3-7.5,13.4"/>
	<path style="fill:#F96638;" d="M160.7,62l-6.7,43h-22.3l-6.7-43c0,0,6.4,7.9,17.9,0.5c0.3-0.2,0.5-0.3,0.8-0.5
		C143.6,62,154,68.7,160.7,62z"/>
	<path style="fill:#E2532D;" d="M160.7,62l-6.7,43h-11.2V62.5c0.3-0.2,0.5-0.3,0.8-0.5C143.6,62,154,68.7,160.7,62z"/>
	<polygon style="fill:#F96638;" points="124.9,88.9 119.2,105 104.1,105 95.9,88.9 	"/>
	<g style="opacity:0.7;">
		<path style="fill:#F4F4F4;" d="M174,107.5c0,1.4-1.1,2.5-2.5,2.5h-86c-1.4,0-2.5-1.1-2.5-2.5s1.1-2.5,2.5-2.5h86
			C172.9,105,174,106.1,174,107.5z"/>
	</g>
	<g style="opacity:0.7;">
		<path style="fill:#F4F4F4;" d="M162,242.5c0,1.4-1.1,2.5-2.5,2.5h-61c-1.4,0-2.5-1.1-2.5-2.5s1.1-2.5,2.5-2.5h61
			C160.9,240,162,241.1,162,242.5z"/>
	</g>
</g>
</svg>
