<?xml version="1.0" encoding="utf-8"?>
<!-- Generator: Adobe Illustrator 22.1.0, SVG Export Plug-In . SVG Version: 6.00 Build 0)  -->
<svg version="1.1" id="Layer_1" xmlns="http://www.w3.org/2000/svg" xmlns:xlink="http://www.w3.org/1999/xlink" x="0px" y="0px"
	 viewBox="0 0 256 256" style="enable-background:new 0 0 256 256;" xml:space="preserve">
<g>
	<path style="fill:#E22B5B;" d="M33.5,171.4v6.5h41v-6.5H33.5z M33.5,188.1c0.1,2.6,1.4,5,3.3,6.5h34.4c1.9-1.5,3.2-3.9,3.3-6.5
		H33.5z"/>
	<path style="fill:#E22B5B;" d="M74.5,102.9V132h-41v-29.1c0-2.8,0.5-5.6,1.6-8.2c0.9-2.3,2.2-4.4,3.8-6.2l6.8-7.8
		c1.9-2.1,2.9-4.9,2.9-7.7V38.7c0-2,1.6-3.6,3.6-3.6H56c2,0,3.6,1.6,3.6,3.6V73c0,2.8,1,5.5,2.9,7.7l6.8,7.8c1.6,1.9,2.9,4,3.8,6.2
		C74,97.3,74.5,100.1,74.5,102.9z"/>
	<rect x="83.5" y="171.4" style="fill:#E22B5B;" width="41" height="6.5"/>
	<path style="fill:#E22B5B;" d="M124.5,188.1c-0.1,2.6-1.4,5-3.3,6.5H86.8c-1.9-1.5-3.2-3.9-3.3-6.5H124.5z"/>
	<path style="fill:#E22B5B;" d="M124.5,102.9V132h-41v-29.1c0-2.8,0.5-5.6,1.6-8.2c0.9-2.3,2.2-4.4,3.8-6.2l6.8-7.8
		c1.9-2.1,2.9-4.9,2.9-7.7V38.7c0-2,1.6-3.6,3.6-3.6h3.9c2,0,3.6,1.6,3.6,3.6V73c0,2.8,1,5.5,2.9,7.7l6.8,7.8c1.6,1.9,2.9,4,3.8,6.2
		C124,97.3,124.5,100.1,124.5,102.9z"/>
	<path style="fill:#E22B5B;" d="M173.4,188.1c-0.1,2.6-1.4,5-3.3,6.5h-34.4c-1.9-1.5-3.2-3.9-3.3-6.5H173.4z"/>
	<rect x="132.4" y="171.4" style="fill:#E22B5B;" width="41" height="6.5"/>
	<path style="fill:#E22B5B;" d="M173.4,102.9V132h-41v-29.1c0-2.8,0.5-5.6,1.6-8.2c0.9-2.3,2.2-4.4,3.8-6.2l6.8-7.8
		c1.8-2.1,2.9-4.9,2.9-7.7V38.7c0-2,1.6-3.6,3.6-3.6h3.9c2,0,3.6,1.6,3.6,3.6V73c0,2.8,1,5.5,2.9,7.7l6.8,7.8c1.6,1.9,2.9,4,3.8,6.2
		C172.9,97.3,173.4,100.1,173.4,102.9z"/>
	<path style="fill:#E22B5B;" d="M223.7,188.1c-0.1,2.6-1.4,5-3.3,6.5H186c-1.9-1.5-3.2-3.9-3.3-6.5H223.7z"/>
	<rect x="182.7" y="171.4" style="fill:#E22B5B;" width="41" height="6.5"/>
	<path style="fill:#E22B5B;" d="M223.7,102.9V132h-41v-29.1c0-2.8,0.5-5.6,1.6-8.2c0.9-2.3,2.2-4.4,3.8-6.2l6.8-7.8
		c1.8-2.1,2.9-4.9,2.9-7.7V38.7c0-2,1.6-3.6,3.6-3.6h3.9c2,0,3.6,1.6,3.6,3.6V73c0,2.8,1,5.5,2.9,7.7l6.8,7.8c1.6,1.9,2.9,4,3.8,6.2
		C223.2,97.3,223.7,100.1,223.7,102.9z"/>
</g>
<g style="opacity:0;">
	<rect x="37.4" y="114.1" style="fill:#EFEFEF;" width="33.1" height="17.9"/>
	<rect x="86.9" y="114.1" style="fill:#EFEFEF;" width="33.1" height="17.9"/>
	<rect x="136.2" y="114.1" style="fill:#EFEFEF;" width="33.1" height="17.9"/>
	<rect x="187.3" y="114.1" style="fill:#EFEFEF;" width="33.1" height="17.9"/>
	<path style="fill:#723B17;" d="M231,78.5V132H25V78.5h-9.6v137.8H25v-11.5h206v11.5h9.6V78.5H231z M231,194.6H25v-6.5h206V194.6z
		 M231,177.9H25v-6.5h206V177.9z"/>
	<circle style="fill:#512A10;" cx="54" cy="151.7" r="3.5"/>
	<circle style="fill:#512A10;" cx="101.8" cy="151.7" r="3.5"/>
	<circle style="fill:#512A10;" cx="149.4" cy="151.7" r="3.5"/>
	<circle style="fill:#512A10;" cx="197.1" cy="151.7" r="3.5"/>
	<path style="opacity:0.4;" d="M59.5,38.7v32.3h-11V38.7c0-2,1.6-3.6,3.6-3.6H56C57.9,35.2,59.5,36.8,59.5,38.7z"/>
	<path style="opacity:0.4;" d="M109.5,38.7v32.3h-11V38.7c0-2,1.6-3.6,3.6-3.6h3.9C107.9,35.2,109.5,36.8,109.5,38.7z"/>
	<path style="opacity:0.4;" d="M158.4,38.7v32.3h-11V38.7c0-2,1.6-3.6,3.6-3.6h3.9C156.8,35.2,158.4,36.8,158.4,38.7z"/>
	<path style="opacity:0.4;" d="M208.7,38.7v32.3h-11V38.7c0-2,1.6-3.6,3.6-3.6h3.9C207.1,35.2,208.7,36.8,208.7,38.7z"/>
	<path style="fill:#512A10;" d="M25,94.8h10.1c-1,2.6-1.6,5.3-1.6,8.2V132H25V94.8z"/>
	<path style="fill:#512A10;" d="M72.9,94.8h12.1c-1,2.6-1.6,5.3-1.6,8.2V132h-9v-29.1C74.5,100.1,74,97.3,72.9,94.8z"/>
	<path style="fill:#512A10;" d="M122.9,94.8h11c-1,2.6-1.6,5.3-1.6,8.2V132h-7.9v-29.1C124.5,100.1,124,97.3,122.9,94.8z"/>
	<path style="fill:#512A10;" d="M171.8,94.8h12.5c-1,2.6-1.6,5.3-1.6,8.2V132h-9.3v-29.1C173.4,100.1,172.9,97.3,171.8,94.8z"/>
	<path style="fill:#512A10;" d="M231,94.8V132h-7.2v-29.1c0-2.8-0.5-5.6-1.6-8.2H231z"/>
	<rect x="74.5" y="171.4" style="fill:#512A10;" width="9" height="6.5"/>
	<rect x="124.5" y="171.4" style="fill:#512A10;" width="7.9" height="6.5"/>
	<rect x="173.4" y="171.4" style="fill:#512A10;" width="9.3" height="6.5"/>
	<rect x="223.7" y="171.4" style="fill:#512A10;" width="7.2" height="6.5"/>
	<rect x="25" y="171.4" style="fill:#512A10;" width="8.5" height="6.5"/>
	<path style="fill:#512A10;" d="M86.8,194.6H71.2c1.9-1.5,3.2-3.9,3.3-6.5h9C83.6,190.7,84.9,193,86.8,194.6z"/>
	<path style="fill:#512A10;" d="M135.7,194.6h-14.5c1.9-1.5,3.2-3.9,3.3-6.5h7.9C132.5,190.7,133.8,193,135.7,194.6z"/>
	<path style="fill:#512A10;" d="M186,194.6h-16c1.9-1.5,3.2-3.9,3.3-6.5h9.3C182.8,190.7,184.1,193,186,194.6z"/>
	<path style="fill:#512A10;" d="M231,188.1v6.5h-10.5c1.9-1.5,3.2-3.9,3.3-6.5H231z"/>
	<path style="fill:#512A10;" d="M36.8,194.6H25v-6.5h8.5C33.6,190.7,34.9,193,36.8,194.6z"/>
</g>
</svg>
