<?xml version="1.0" encoding="utf-8"?>
<!-- Generator: Adobe Illustrator 22.1.0, SVG Export Plug-In . SVG Version: 6.00 Build 0)  -->
<svg version="1.1" id="Layer_1" xmlns="http://www.w3.org/2000/svg" xmlns:xlink="http://www.w3.org/1999/xlink" x="0px" y="0px"
	 viewBox="0 0 256 256" style="enable-background:new 0 0 256 256;" xml:space="preserve">
<path style="fill:#FDC613;" d="M96.5,183.5c0,0-2-34-23-54c0,0-32-40,0-82s75-29,85-26s49,28,46,72s-34,40-36,90"/>
<g>
	<ellipse style="fill:#636C76;" cx="132" cy="232" rx="26" ry="16"/>
	<path style="fill:#C7C6C2;" d="M166.5,197h-69c-4.1,0-7.5-3.4-7.5-7.5l0,0c0-4.1,3.4-7.5,7.5-7.5h69c4.1,0,7.5,3.4,7.5,7.5l0,0
		C174,193.6,170.6,197,166.5,197z"/>
	<path style="fill:#C7C6C2;" d="M162.5,216h-61c-4.1,0-7.5-3.4-7.5-7.5l0,0c0-4.1,3.4-7.5,7.5-7.5h61c4.1,0,7.5,3.4,7.5,7.5l0,0
		C170,212.6,166.6,216,162.5,216z"/>
	<path style="fill:#C7C6C2;" d="M159.5,234h-57c-4.1,0-7.5-3.4-7.5-7.5l0,0c0-4.1,3.4-7.5,7.5-7.5h57c4.1,0,7.5,3.4,7.5,7.5l0,0
		C167,230.6,163.6,234,159.5,234z"/>
	<rect x="100" y="192" style="fill:#C7C6C2;" width="64" height="32"/>
	<path style="fill:#E8E8E8;" d="M90,189.5c0,0.6,0.1,1.1,0.2,1.6C91,191.7,92,192,93,192h52c2.8,0,5-2.2,5-5s-2.2-5-5-5H97.5
		C93.4,182,90,185.4,90,189.5z"/>
	<path style="fill:#E8E8E8;" d="M94,208.5c0,0.7,0.1,1.4,0.3,2h48.2c2.8,0,5-2.2,5-5c0-2-1.2-3.7-2.9-4.5h-43.1
		C97.4,201,94,204.4,94,208.5z"/>
	<path style="fill:#E8E8E8;" d="M95,226.5c0,0.5,0.1,1,0.2,1.5H140c2.8,0,5-2.2,5-5c0-1.6-0.8-3.1-2-4h-40.5
		C98.4,219,95,222.4,95,226.5z"/>
	<path style="opacity:0.2;" d="M160.2,91.1c-0.4-0.1-0.8-0.1-1.2,0c-0.4,0-0.7,0.1-1,0.3c-5.6,3.4-12,1.3-14.4,0.3
		c-0.1,0-0.2-0.1-0.3-0.1c-0.4-0.3-0.8-0.5-1.4-0.6c-0.7-0.1-1.4,0.2-1.9,0.6c-0.1,0-0.2,0.1-0.3,0.1c-6.6,2.9-12.5,1-14.7,0.1
		c-0.3-0.1-0.5-0.2-0.8-0.2c-0.5-0.4-1.2-0.6-1.9-0.5c-0.7,0.1-1.3,0.5-1.7,1c-0.1,0-0.1,0.1-0.2,0.1c-7.7,4.8-14.6-0.3-14.9-0.6
		c-0.4-0.3-0.8-0.5-1.3-0.5c-0.4-0.1-0.8-0.1-1.3,0c-1.3,0.4-2.1,1.8-1.7,3.1l16.8,56.6c-2.7,2.8-4.4,6.6-4.4,10.8v20.3h7v-20.3
		c0-4.7,3.9-8.6,8.6-8.6h4.8c4.7,0,8.6,3.9,8.6,8.6v20.3h7v-20.3c0-3.7-1.3-7.1-3.5-9.8l15.9-57.6C162.3,92.8,161.5,91.5,160.2,91.1
		z M155.7,97.7l-13.8,50.2L140,147v-14.5c2-0.2,3.5-1.9,3.5-3.9c0-1.9-1.3-3.4-3-3.9l3.1-27.5C146.6,98.1,151,98.9,155.7,97.7z
		 M138.5,97.4l-3.1,27.1h-6l-3.9-27.1C128.7,98.2,133.3,98.9,138.5,97.4z M120.6,97.6l3.8,26.9c-2.2,0.1-3.9,1.8-3.9,4
		c0,2,1.5,3.7,3.5,3.9v14.4c-0.6,0.2-1.2,0.5-1.8,0.8l-14.7-49.4c1.7,0.6,3.7,1,5.9,1C115.6,99.2,118,98.8,120.6,97.6z M129.1,146
		C129.1,146,129,146,129.1,146l-0.1-13.5h6v13.6c-0.4,0-0.7-0.1-1.1-0.1H129.1z"/>
</g>
</svg>
