<?xml version="1.0" encoding="utf-8"?>
<!-- Generator: Adobe Illustrator 22.1.0, SVG Export Plug-In . SVG Version: 6.00 Build 0)  -->
<svg version="1.1" id="Layer_1" xmlns="http://www.w3.org/2000/svg" xmlns:xlink="http://www.w3.org/1999/xlink" x="0px" y="0px"
	 viewBox="0 0 256 256" style="enable-background:new 0 0 256 256;" xml:space="preserve">
<g>
	<polygon style="fill:#5B5B5B;" points="120.5,31.5 152.4,27.6 210.5,31.1 207,154.2 154.7,162.3 83.9,143.8 83.9,122.8 
		125.7,118.2 	"/>
	<polygon style="fill:#5B5B5B;" points="119.9,21.8 11.9,18.3 18.9,129.8 125.7,118.2 	"/>
	<polygon style="fill:#5B5B5B;" points="49.2,126.5 43.3,148.4 43.3,154.2 67.6,165.8 103.6,162.3 103.6,156.5 71.1,147.3 
		75.7,123.6 	"/>
	<polygon style="opacity:0.5;" points="203.5,53.2 162.9,50.9 162.9,38.1 203.5,40.4 	"/>
	<polygon style="opacity:0.5;" points="204.7,71.8 164,69.4 164,56.7 204.7,59 	"/>
	<polygon style="fill:#5B5B5B;" points="163.5,168.7 49.6,185 52,201.3 90.3,221 215.7,198.9 215.7,190.8 	"/>
	<polygon style="fill:#5B5B5B;" points="11.9,18.3 9.1,19.1 16,129.3 18.9,129.8 	"/>
	<path style="fill:#5B5B5B;" d="M211.1,168.2c1.5-5,6.9-15,25-8.3c4.6,1.7,8.5,5.2,10.4,9.7c1.5,3.7,1.5,7.6-4.6,8.5
		c-13.5,1.8-15.5,3.1-29.4-5.9C211.2,171.2,210.6,169.7,211.1,168.2z"/>
</g>
</svg>
