<?xml version="1.0" encoding="utf-8"?>
<!-- Generator: Adobe Illustrator 22.1.0, SVG Export Plug-In . SVG Version: 6.00 Build 0)  -->
<svg version="1.1" id="Layer_1" xmlns="http://www.w3.org/2000/svg" xmlns:xlink="http://www.w3.org/1999/xlink" x="0px" y="0px"
	 viewBox="0 0 256 256" style="enable-background:new 0 0 256 256;" xml:space="preserve">
<g>
	<polygon style="opacity:0.2;" points="119.9,21.8 11.9,18.3 18.9,129.8 125.7,118.2 	"/>
	<polygon style="opacity:0.2;" points="103.6,156.5 67.6,158.9 47.9,149.6 56.2,125.8 75.8,123.6 71.1,147.3 	"/>
	<polygon style="opacity:0.2;" points="207,154.2 154.7,162.3 152.4,27.6 210.9,30.6 	"/>
	<polygon style="opacity:0.2;" points="89.7,212.3 49.1,184.4 164,168.2 215.1,190.2 	"/>
	<path style="fill:none;stroke:#484C5F;stroke-width:2;stroke-miterlimit:10;" d="M71.3,147.2c4.3-1.5,9-3.5,12.6-7.5"/>
	<path style="fill:none;stroke:#484C5F;stroke-width:2;stroke-miterlimit:10;" d="M62.4,183.5c0,0-33.1-7.3-24.1-12.2
		c9-4.9,20.9-1.7,4.9-10.2c-16-8.4-29.3,6.9-29.3-3.5c0-10.4,23.4-6.2,29.3-6.3"/>
	<path style="fill:none;stroke:#484C5F;stroke-width:2;stroke-miterlimit:10;" d="M83.9,133.9c0,0-20.3,11.6,1.5,14.5
		s38.3,6.7,30.8,13.2c-7.5,6.5-14.6,5.7-0.6,8.6s18.6-7.8,34-6.4s30.2,7,40.9,4.4c10.7-2.6,16.9-5.7,22.1-3.4"/>
	<polygon style="opacity:0.5;fill:#D4F4F9;" points="22.3,27.6 27,115.9 117.6,107.8 114.1,28.8 	"/>
</g>
</svg>
