<?xml version="1.0" encoding="utf-8"?>
<!-- Generator: Adobe Illustrator 22.1.0, SVG Export Plug-In . SVG Version: 6.00 Build 0)  -->
<svg version="1.1" id="Layer_1" xmlns="http://www.w3.org/2000/svg" xmlns:xlink="http://www.w3.org/1999/xlink" x="0px" y="0px"
	 viewBox="0 0 256 256" style="enable-background:new 0 0 256 256;" xml:space="preserve">
<g>
	<path style="fill:#363638;" d="M73.1,8.5l5-3.3l27.3,2.2l30.6,5.5l11.7,9.5c0,0,3.4,13.7,2.9,25.2c-0.6,16.2-4,24.7-4,24.7
		l-11.7,10.7l-30.6,3.7l-27.5,0.3L72,85.4L73.1,8.5z"/>
	<path style="fill:#363638;" d="M135.8,12.9c-1.6-0.9-14.9-7.6-57.7-7.6c0,0,0,0,0,0l-5,3.3L72,85.1l0,0.3c0,0,0,1.7,4.7,1.8
		c50.2,1.7,58.1-4,58.1-4l0-0.1l1.1-70.1C135.9,13,135.9,13,135.8,12.9z"/>
	<path style="fill:#363638;" d="M108.7,125.4v124.8c5,0.8,10.1,1.5,15.3,1.9V125.4H108.7z"/>
	<path style="fill:#363638;" d="M63.2,8.7c0,0-31.2-11.6-53.2,11.6v24.8l0,0v25c22,23.1,53.2,11.6,53.2,11.6V45.3l0,0V8.7z"/>
	<path style="fill:#363638;" d="M197.8,125.4v116.5c5.2-2,10.3-4.1,15.3-6.5V125.4H197.8z"/>
	<circle style="fill:#363638;" cx="205.1" cy="46.5" r="42.3"/>
	<polygon style="fill:#363638;" points="65.4,23.3 60.6,23.3 60.6,70.2 63.9,70.2 72,85.1 73.1,8.5 	"/>
</g>
</svg>
