<?xml version="1.0" encoding="utf-8"?>
<!-- Generator: Adobe Illustrator 22.1.0, SVG Export Plug-In . SVG Version: 6.00 Build 0)  -->
<svg version="1.1" id="Layer_1" xmlns="http://www.w3.org/2000/svg" xmlns:xlink="http://www.w3.org/1999/xlink" x="0px" y="0px"
	 viewBox="0 0 256 256" style="enable-background:new 0 0 256 256;" xml:space="preserve">
<g>
	<path style="opacity:0.2;" d="M111.4,125.4v125.2c1,0.1,2.2,0.3,3.2,0.5V125.4H111.4z"/>
	<path style="opacity:0.2;" d="M200.6,125.4v115.5c1.1-0.4,2.2-0.8,3.2-1.3V125.4H200.6z"/>
	<circle style="opacity:0.2;" cx="205.1" cy="46.5" r="30"/>
	<circle style="fill:#363638;" cx="205.1" cy="46.5" r="25.7"/>
	<path style="opacity:0.2;" d="M135.9,12.9l-0.2,0C135.9,13,135.9,13,135.9,12.9l-1.1,70.1l0.1,0l11.7-10.7l1.1-49.9L135.9,12.9z"/>
	<polygon style="opacity:0.2;" points="65.4,23.3 60.6,23.3 60.6,70.2 63.9,70.2 72,85.1 73.1,8.5 	"/>
	<polygon style="fill:#18171C;" points="78.1,5.3 78.1,5.3 73.1,8.5 78.1,5.3 	"/>
	<path style="fill:#18171C;" d="M63.2,8.7c0,0-9.2-3.4-21.1-2.8l-0.9,78.5c12.3,0.8,22-2.8,22-2.8V45.3l0,0V8.7z"/>
	<path style="fill:#18171C;" d="M134,82c-0.1-0.2-0.4-0.3-0.6-0.3c0,0-6-3.2-16.2-2c-10.2,1.3-15.7,3.1-15.7,3.1
		c-0.2,0-0.4,0.1-0.6,0.3c-0.1,0.2-0.2,0.4-0.2,0.6l5.2,43.3c0.1,0.4,0.4,0.7,0.8,0.7H126c0.4,0,0.8-0.3,0.8-0.7l7.3-44.4
		C134.3,82.4,134.2,82.1,134,82z"/>
	<path style="fill:#18171C;" d="M188.9,80.8c-1.4,1.5,6,46.3,6,46.3c0.1,0.4,0.4,0.7,0.8,0.7h19.4c0.4,0,0.8-0.3,0.8-0.7
		c0,0,7.7-45,6.3-46.4s-10.4,2.3-17,2.3C198.7,82.9,190.2,79.4,188.9,80.8z"/>
	<circle style="fill:#18171C;" cx="205.1" cy="46.5" r="9.3"/>
</g>
</svg>
