<?xml version="1.0" encoding="utf-8"?>
<!-- Generator: Adobe Illustrator 22.1.0, SVG Export Plug-In . SVG Version: 6.00 Build 0)  -->
<svg version="1.1" id="Layer_1" xmlns="http://www.w3.org/2000/svg" xmlns:xlink="http://www.w3.org/1999/xlink" x="0px" y="0px"
	 viewBox="0 0 256 256" style="enable-background:new 0 0 256 256;" xml:space="preserve">
<g>
	<path style="fill:#C6D1D7;" d="M126.2,71.7c0,0,5,2.1,6.1,3.5c0.6-1.6,1.5-3.8,2.6-6.3l-7.7-0.5"/>
	<path style="fill:#DDECF1;" d="M127.4,9.5c-39.9,0-72.2,34.7-72.2,77.6s32.3,77.6,72.2,77.6s72.2-34.7,72.2-77.6
		S167.3,9.5,127.4,9.5z M127.4,162.6c-38.8,0-70.3-33.8-70.3-75.5c0-41.7,31.5-75.5,70.3-75.5c38.8,0,70.3,33.8,70.3,75.5
		C197.7,128.8,166.2,162.6,127.4,162.6z"/>
	<path style="fill:#DDECF1;" d="M169.7,203.5c0,0-8.8-2-10-19.1c-0.9-12.7-2.9-27.9-3.9-34.9c-2.5,2.4-5.9,4.6-10.4,6.2l0,0
		c0,0,5.1,54.8-6,61.4l0.2,4.2c0,0,13.5-14.9,21.3-15.3c7.8-0.4,34.2,7.2,34.2,7.2S191.6,208.5,169.7,203.5z"/>
	<polygon style="fill:#DDECF1;" points="123.1,201.9 121.9,201.9 119.3,201.9 77.1,222.4 66.8,235.8 66.8,242.6 148.2,253.5 
		195,221.3 195,213.3 158.1,201.9 	"/>
	<path style="fill:#C6D1D7;" d="M196.6,225.8l-1.6-12.5l-39,26.5c0,0-5,9.4-8,10.2l0.2,3.4L196.6,225.8z"/>
	<path style="fill:#DDECF1;" d="M139.6,157.2c-5.7,1.1-10.1,1.3-13.5,0.8c0,7.1-0.4,32.9-4.2,44c-4.4,12.9-7.8,11.7-7.6,15.1
		l25.3,4.2l3.2-6.6c0,0,6.4-14.3,6.4-14.9c0-0.5-1.4-30.4-2.1-44.8C145,155.9,142.5,156.7,139.6,157.2z"/>
	<ellipse style="fill:#C6D1D7;" cx="114.7" cy="88.9" rx="17.7" ry="19.1"/>
	<circle style="fill:#9EACAC;" cx="113.2" cy="88.9" r="13.7"/>
	<g>
		<path style="opacity:0.2;" d="M169.7,203.5c0,0-8.8-2-10-19.1c-0.6-8.8-1.8-18.8-2.7-26.5c-3.6,1.7-7.3,3.1-11.1,4.2
			c0.9,14.7,2.2,49.8-6.5,55l0.2,4.2c0,0,13.5-14.9,21.3-15.3c7.8-0.4,34.2,7.2,34.2,7.2S191.6,208.5,169.7,203.5z"/>
		<path style="opacity:0.2;" d="M155.8,149.5c-2.5,2.4-5.9,4.6-10.4,6.2l0,0c0,0,0.1,1.6,0.3,4.3c3.8-1.1,7.4-2.5,11-4.2
			C156.3,153.3,156,151.2,155.8,149.5z"/>
	</g>
	<path style="fill:#9FAAAC;" d="M138.4,88.9c0,0-5.1-12.3-6.1-13.7c-1-1.4-6.1-3.5-6.1-3.5l-0.7,2.2c4.1,3.5,6.8,8.9,6.8,15
		c0,3.9-1.1,7.6-3,10.7l0,0c0,0,4.4-2.4,7-3.7C138.8,94.6,138.4,88.9,138.4,88.9z"/>
	<g>
		<path style="fill:#C6D1D7;" d="M138.4,89.7c0,1.6-0.2,5.1-2.1,6.1c5.1,3.1,9.9,8.5,13.9,14.1c11.9-2.9,15.1-12.4,16-17.3
			C159.2,90.9,150.1,89.4,138.4,89.7z"/>
		<path style="fill:#C6D1D7;" d="M131.8,93.7c0.4-1.5,0.6-3.2,0.6-4.8c0-0.8,0-1.5-0.1-2.3l-2.1,0.1l0.2,7.8L116.3,106
			c0,0,1.6,1.7,6.8,3.1l1-4.5l7-11.1C131.3,93.6,131.6,93.7,131.8,93.7z"/>
	</g>
	<g>
		
			<rect x="145.2" y="93.4" transform="matrix(0.7566 -0.6538 0.6538 0.7566 -48.6246 126.566)" style="fill:#C6D1D7;" width="1" height="70.4"/>
	</g>
	<g>
		
			<rect x="132.1" y="102.8" transform="matrix(0.9082 -0.4185 0.4185 0.9082 -44.4184 67.9172)" style="fill:#C6D1D7;" width="1" height="64.8"/>
	</g>
	<g>
		<path style="opacity:0.2;" d="M127.4,9.5c-39.9,0-72.2,34.7-72.2,77.6s32.3,77.6,72.2,77.6s72.2-34.7,72.2-77.6
			S167.3,9.5,127.4,9.5z M127.4,162.6c-38.8,0-70.3-33.8-70.3-75.5c0-41.7,31.5-75.5,70.3-75.5c38.8,0,70.3,33.8,70.3,75.5
			C197.7,128.8,166.2,162.6,127.4,162.6z"/>
		<polygon style="fill:#C6D1D7;" points="110.7,165.7 109.7,165.7 112.1,106.1 105.1,102.7 86.7,156.2 67.2,135.2 100.4,97.7 
			99.1,94.4 55.8,111.3 52.2,89.2 97.8,87.4 98.2,84.8 53.2,72.2 60.1,46.1 101.4,74.4 73,31.6 87.3,17.9 106.3,73.4 110.9,71.7 
			108.3,8.1 127.1,5.7 114.5,71.7 116.2,71.7 150.8,9.5 171.1,20.2 122.2,73.5 125.4,77.4 184.5,33.9 195.6,51.6 128.2,81.3 
			129.4,83.7 201.1,69.6 202.4,89.2 130.6,87.2 128.9,91.1 202.5,98.1 197.4,118.5 129.8,94.7 127,97.3 190.8,133.6 181.1,146.9 
			125,100.5 125.6,99.8 180.9,145.5 189.3,133.9 125.3,97.4 129.6,93.6 129.9,93.7 196.7,117.2 201.2,99 127.4,92 130,86.2 
			201.3,88.2 200.2,70.8 128.8,84.9 126.9,80.8 194.1,51.1 184.3,35.4 125.2,78.7 120.8,73.4 169.5,20.5 151.2,10.8 116.8,72.7 
			113.2,72.7 125.9,6.9 109.3,9 112,72.4 105.7,74.7 86.9,19.7 74.3,31.7 105,78.1 60.7,47.7 54.4,71.5 99.4,84.1 98.6,88.4 
			53.3,90.2 56.6,109.9 99.7,93.1 101.6,97.9 68.5,135.2 86.3,154.3 104.5,101.3 113.2,105.5 		"/>
	</g>
	<path style="fill:#DDECF1;" d="M127.4,3.5c-43,0-77.9,37.4-77.9,83.6c0,46.2,34.9,83.6,77.9,83.6s77.9-37.4,77.9-83.6
		C205.3,40.9,170.4,3.5,127.4,3.5z M127.4,164.7c-39.9,0-72.2-34.7-72.2-77.6c0-42.8,32.3-77.6,72.2-77.6s72.2,34.7,72.2,77.6
		C199.7,129.9,167.3,164.7,127.4,164.7z"/>
</g>
</svg>
