<?xml version="1.0" encoding="utf-8"?>
<!-- Generator: Adobe Illustrator 22.1.0, SVG Export Plug-In . SVG Version: 6.00 Build 0)  -->
<svg version="1.1" id="Layer_1" xmlns="http://www.w3.org/2000/svg" xmlns:xlink="http://www.w3.org/1999/xlink" x="0px" y="0px"
	 viewBox="0 0 256 256" style="enable-background:new 0 0 256 256;" xml:space="preserve">
<g>
	<polygon style="fill:#4986A2;" points="79.7,224.2 72.7,232.6 145.2,243 151.4,235 	"/>
	<circle style="fill:#4986A2;" cx="113.2" cy="88.9" r="10.7"/>
	<g>
		<path style="fill:#4986A2;" d="M134.7,86.3l56.8,1.6c0.6-4.3,0.5-9.7-0.9-15.2l-56,11C134.7,84.6,134.7,85.5,134.7,86.3z"/>
		<path style="fill:#4986A2;" d="M131.3,78.1c0.2,0.2,0.4,0.4,0.6,0.5l50.5-22.3c-3.3-3.9-7.5-7.4-12.8-10.1l-36.3,26.6
			C132,76,131.3,78.1,131.3,78.1z"/>
		<path style="fill:#4986A2;" d="M134.6,87.3c-0.2,1.6-0.7,2.6-0.7,2.6c20.5-1.3,33.4,2.9,41.8,5.6l12,1.1c0.6-0.4,1.1-1,1.5-1.8
			c0.9-1.5,1.6-3.6,2.1-6L134.6,87.3z"/>
		<path style="fill:#4986A2;" d="M180.5,97c2.2,0.6,3.9,0.8,5.4,0.5L180.5,97z"/>
		<path style="fill:#4986A2;" d="M134,71.1l34.5-25.4C150.9,37.8,139,59.3,134,71.1z"/>
		<path style="fill:#4986A2;" d="M132.6,79.4c0.9,1.1,1.4,2.2,1.7,3.4l56-11c-1.4-5-3.7-10.1-7.3-14.6L132.6,79.4z"/>
	</g>
	<path style="fill:#4986A2;" d="M82.9,51.3l14.5,17l-16.6-25C81.2,48,82.9,51.3,82.9,51.3z"/>
	<path style="fill:#4986A2;" d="M113.1,106.2c0.1-0.1,0.1-0.2,0.1-0.2l-0.1-0.2L113.1,106.2z"/>
	<path style="fill:#4986A2;" d="M122.1,113.5l-7.8,34.1c0,0-0.4,14.7,25.3,9.6c0.8-0.2,1.6-0.3,2.4-0.5L122.1,113.5z"/>
	<g>
		<path style="fill:#4986A2;" d="M98.1,82.3c-4.7-1-17.5-3.9-22.4-6.9c-2-1.2-3.9-0.8-5.7,0.4l27.7,7.8
			C97.8,83.2,97.9,82.8,98.1,82.3z"/>
		<path style="fill:#4986A2;" d="M100,99.6l-25.3,28.7c0.3,0.3,0.5,0.6,0.8,0.8c6.2,6.1,13.5,3.6,20-1.6l8.1-23.7
			C102.2,102.6,101,101.2,100,99.6z"/>
		<path style="fill:#4986A2;" d="M97,88.9c0-0.2,0-0.3,0-0.5l-33.6,1.3c-0.3,3.7-0.7,10.1,0.6,17.2l33.6-13.1
			C97.2,92.3,97,90.6,97,88.9z"/>
	</g>
	<path style="fill:#4986A2;" d="M104.5,104.5L97,126.3c6.9-6,12.7-14.6,15.1-18.4l0-0.2C109.3,107.3,106.7,106.2,104.5,104.5z"/>
	<path style="fill:#4986A2;" d="M97.9,94.9L64.2,108c1.3,6.4,4.2,13.4,9.8,19.5l25.5-28.8C98.8,97.5,98.3,96.2,97.9,94.9z"/>
	<path style="fill:#4986A2;" d="M97.4,84.6l-28.4-8c-3,2.8-5.2,7.9-5.4,10.9c0,0.3-0.1,0.8-0.1,1.3L97,87.5
		C97.1,86.5,97.2,85.5,97.4,84.6z"/>
	<path style="fill:#4986A2;" d="M125,17l-10.1,52.8c0.8,0,1.5,0.1,2.3,0.2l21.6-38.8l0.9-2.8C139.6,28.4,137.7,19.3,125,17z"/>
	<g>
		<path style="fill:#4986A2;" d="M118.2,70.2c1.5,0.3,2.9,0.9,4.2,1.5l5.8-6.3l9.1-29.6L118.2,70.2z"/>
		<path style="fill:#4986A2;" d="M102.8,74.8c0.7-0.7,1.5-1.3,2.3-1.9L88.8,25.3c-6.5,5-8.1,11-8.1,16L102.8,74.8L102.8,74.8z"/>
		<path style="fill:#4986A2;" d="M113.8,69.9l10.2-53c-3.8-0.5-8.5-0.5-14.3,0.5l2.2,52.7C112.5,70,113.1,69.9,113.8,69.9z"/>
	</g>
	<path style="fill:#4986A2;" d="M125.6,73.9l1.9-6.3l-4.2,4.6C124.1,72.7,124.8,73.3,125.6,73.9z"/>
	<path style="fill:#4986A2;" d="M110.9,70.3l-2.2-52.7c-1.7,0.3-3.4,0.7-5.3,1.2c-5.9,1.5-10.4,3.6-13.7,6l16.3,47.6
		C107.5,71.4,109.1,70.7,110.9,70.3z"/>
	<path style="fill:#4986A2;" d="M131.7,93.7c0,0.2-0.1,0.4-0.1,0.5l4.8,1.7C134.9,95,133.3,94.2,131.7,93.7z"/>
	<path style="fill:#4986A2;" d="M129.7,98.8l21,12c-3.3-4.8-7.2-9.4-11.4-12.7l-8.1-2.8C130.9,96.5,130.4,97.7,129.7,98.8z"/>
	<path style="fill:#4986A2;" d="M127.8,101.6l33.8,27.9c-1.5-3.2-4.9-10-9.5-16.8l-22.8-13C128.8,100.4,128.3,101,127.8,101.6z"/>
	<path style="fill:#4986A2;" d="M162.5,131.6l-35.3-29.2c-0.6,0.7-1.3,1.2-1.9,1.8l34.6,40C163.1,138.2,162.6,132.4,162.5,131.6z"/>
	<path style="fill:#4986A2;" d="M124.5,104.8c-0.2,0.1-0.3,0.2-0.5,0.3l-1.5,6.8l20.5,44.6c8.8-2.4,13.6-6.9,16.3-11.3L124.5,104.8z
		"/>
</g>
</svg>
