<?xml version="1.0" encoding="utf-8"?>
<!-- Generator: Adobe Illustrator 22.1.0, SVG Export Plug-In . SVG Version: 6.00 Build 0)  -->
<svg version="1.1" id="Layer_1" xmlns="http://www.w3.org/2000/svg" xmlns:xlink="http://www.w3.org/1999/xlink" x="0px" y="0px"
	 viewBox="0 0 256 256" style="enable-background:new 0 0 256 256;" xml:space="preserve">
<g>
	<path style="opacity:0.2;" d="M12,200.6c0,6.2,6.2,11.2,14,11.2v-34.1c-7.8,0.1-14,5.1-14,11.2V200.6z"/>
	<path style="opacity:0.2;" d="M229,211.8c8.3-0.1,15-5.1,15-11.2V189c0-6.2-6.7-11.2-15-11.2V211.8z"/>
	<g>
		<path style="fill:#97D5C9;" d="M228.1,128.9h3.5h3.1c1.8,0,3.3-1.5,3.4-3.3c0-0.4,0-0.8,0-1.2c0-60.8-49.3-110.1-110.1-110.1
			c-60.8,0-110.1,49.3-110.1,110.1c0,0.4,0,0.8,0,1.2c0,1.8,1.5,3.3,3.4,3.3h3.1h3.4c1.9,0,3.4-1.5,3.4-3.4c0-0.4,0-0.8,0-1.1
			c0-53.5,43.3-96.8,96.8-96.8c53.5,0,96.8,43.3,96.8,96.8c0,0.4,0,0.8,0,1.1C224.8,127.3,226.3,128.9,228.1,128.9z"/>
		<path style="fill:#5CBFAB;" d="M62,148.1v93.7h13.2c2.1,0,3.7-1.4,3.7-3.2v-87.3c0-1.8-1.7-3.2-3.7-3.2H62z"/>
		<path style="fill:#5CBFAB;" d="M176.6,151.3v87.3c0,1.8,1.8,3.2,4,3.2H195v-93.7h-14.3C178.4,148.1,176.6,149.5,176.6,151.3z"/>
	</g>
</g>
</svg>
