<?xml version="1.0" encoding="utf-8"?>
<!-- Generator: Adobe Illustrator 22.1.0, SVG Export Plug-In . SVG Version: 6.00 Build 0)  -->
<svg version="1.1" id="Layer_1" xmlns="http://www.w3.org/2000/svg" xmlns:xlink="http://www.w3.org/1999/xlink" x="0px" y="0px"
	 viewBox="0 0 256 256" style="enable-background:new 0 0 256 256;" xml:space="preserve">
<path style="fill:#5A6E7F;" d="M231.6,177.9v-49.1h-3.5c-1.9,0-3.4-1.5-3.4-3.4c0-0.4,0-0.8,0-1.1c0-53.5-43.3-96.8-96.8-96.8
	c-53.5,0-96.8,43.3-96.8,96.8c0,0.4,0,0.8,0,1.1c0,1.9-1.5,3.4-3.4,3.4h-3.4v49c-7,0.7-12.4,5.4-12.4,11.1v11.7
	c0,5.7,5.4,10.4,12.4,11.1v6.2c0,2,0.6,3.9,1.7,5.4c1.1,1.5,3,2.7,5.2,2.7h1.3c1.1,0,2.1-0.3,3-0.8c5.1,9.5,15.2,16,26.7,16.2v-93.3
	c-9.1,0.1-17.2,4.2-22.8,10.6v-26.5c2.8-0.5,4.9-2.9,5.2-5.8l0.1-0.3l0-1c0-23,9.3-43.7,24.3-58.8c15.1-15,35.8-24.3,58.8-24.3
	c23,0,43.7,9.3,58.8,24.3c15,15.1,24.3,35.8,24.3,58.8v0.7v0c0,3.2,2.2,5.8,5.3,6.4V159c-5.6-6.6-13.8-10.8-23.1-10.9v93.3
	c11.6-0.1,21.7-6.7,26.8-16.3c0.9,0.6,2,1,3.3,1h1.3c2.2,0,4.1-1.2,5.2-2.7c1.1-1.5,1.7-3.4,1.7-5.4v-6.3c7.1-1,12.4-5.5,12.4-11
	V189C244,183.5,238.7,178.9,231.6,177.9z"/>
</svg>
