<?xml version="1.0" encoding="utf-8"?>
<!-- Generator: Adobe Illustrator 22.1.0, SVG Export Plug-In . SVG Version: 6.00 Build 0)  -->
<svg version="1.1" id="Layer_1" xmlns="http://www.w3.org/2000/svg" xmlns:xlink="http://www.w3.org/1999/xlink" x="0px" y="0px"
	 viewBox="0 0 256 256" style="enable-background:new 0 0 256 256;" xml:space="preserve">
<g>
	<path style="fill:#DBDCDD;" d="M207.4,111.5C206.6,106.2,195,12,195,12s-0.9-3.9-6.9-5.3c-5.3-1.2-16.8-2.2-41.7-2.5
		c-2-0.1-4.2-0.2-6.5-0.2c-3.2,0-6.3,0-9.2,0c-2.9,0-6,0-9.2,0c-2.4,0-4.5,0.1-6.5,0.2C90,4.5,78.5,5.4,73.2,6.7
		c-6,1.4-6.9,5.3-6.9,5.3S54.8,106.2,54,111.5c-0.7,4.5,1.9,4.9,1.9,4.9s10.7,1.5,39.3,2.1c22.7,0.4,32.5,0.2,35.6,0.1
		c3.1,0.1,12.9,0.4,35.6-0.1c28.5-0.5,39.3-2.1,39.3-2.1S208.1,116,207.4,111.5"/>
	<path style="fill:#958F85;" d="M207.4,111.5c-0.1-0.8-0.5-3.8-1.1-8.3c-6.6-1.8-25.5-5.1-75.6-5.1c-55.4,0-71.3,2.8-75.5,3.9
		c-0.7,5.1-1.1,8.6-1.2,9.5c-0.7,4.5,1.9,4.9,1.9,4.9s10.7,1.5,39.3,2.1c22.7,0.4,32.5,0.2,35.6,0.1c3.1,0.1,12.9,0.4,35.6-0.1
		c28.5-0.5,39.3-2.1,39.3-2.1S208.1,116,207.4,111.5"/>
	<path style="fill:#B5B1AA;" d="M202.2,114.2c-3.4-0.5-21.4-2.5-71.5-2.5s-69.4,1.7-72.9,2.6c-1.8,0.4-2.4,1.2-2.5,1.8
		c0.3,0.2,0.5,0.2,0.5,0.2s10.7,1.5,39.3,2.1c22.7,0.4,32.5,0.2,35.6,0.1c3.1,0.1,12.9,0.4,35.6-0.1c25.4-0.5,36.7-1.8,38.9-2
		C205.1,115.3,205.2,114.7,202.2,114.2z"/>
	<rect x="127" y="111.8" style="fill:#7D7A6D;" width="7.3" height="11.6"/>
	<path style="fill:#958F85;" d="M196,19.9c-0.6-4.9-1-7.9-1-7.9s-0.9-3.9-6.9-5.3c-5.3-1.2-16.8-2.2-41.7-2.5
		c-2-0.1-4.2-0.2-6.5-0.2c-3.2,0-6.3,0-9.2,0c-2.9,0-6,0-9.2,0c-2.4,0-4.5,0.1-6.5,0.2C90,4.5,78.5,5.4,73.2,6.7
		c-6,1.4-6.9,5.3-6.9,5.3s-0.4,3-1,7.9c5.2-2.4,20.3-6.2,64.8-6.2C174.8,13.7,190.5,17.5,196,19.9z"/>
</g>
</svg>
