<?xml version="1.0" encoding="utf-8"?>
<!-- Generator: Adobe Illustrator 22.1.0, SVG Export Plug-In . SVG Version: 6.00 Build 0)  -->
<svg version="1.1" id="Layer_1" xmlns="http://www.w3.org/2000/svg" xmlns:xlink="http://www.w3.org/1999/xlink" x="0px" y="0px"
	 viewBox="0 0 256 256" style="enable-background:new 0 0 256 256;" xml:space="preserve">
<path style="fill:#9B2433;" d="M151.7,172.4c-10-12.4-10.1-14.6-11-49c-2.3,0-4.4,0-6.1,0c-5.4,0-7.8,0-7.8,0c-1.7,0-3.7,0-6.1,0
	c-0.9,34.4-1.1,36.6-11,49c-10,12.4-23.2,14.8-23.2,33.5c0,12.8,12.6,30.9,17.8,37.8c5.6,7.3,10.1,7.3,10.1,7.3h7.9v0l7.3,0h2l7.3,0
	v0h7.9c0,0,4.6,0,10.1-7.3c5.3-6.9,17.8-25,17.8-37.8C174.9,187.2,161.7,184.8,151.7,172.4z"/>
</svg>
