<?xml version="1.0" encoding="utf-8"?>
<!-- Generator: Adobe Illustrator 22.1.0, SVG Export Plug-In . SVG Version: 6.00 Build 0)  -->
<svg version="1.1" id="Layer_1" xmlns="http://www.w3.org/2000/svg" xmlns:xlink="http://www.w3.org/1999/xlink" x="0px" y="0px"
	 viewBox="0 0 256 256" style="enable-background:new 0 0 256 256;" xml:space="preserve">
<g>
	<path id="XMLID_186_" style="opacity:0.2;stroke:#231F20;stroke-miterlimit:10;" d="M146.9,238c0,3.1-2.5,5.7-5.7,5.7l-23.2,0.1
		c-3.1,0-5.7-2.5-5.7-5.7l0,0c0-3.1,2.5-5.7,5.7-5.7l23.2-0.1C144.4,232.3,146.9,234.9,146.9,238L146.9,238z"/>
	<path id="XMLID_187_" style="fill:#00ADEE;stroke:#231F20;stroke-miterlimit:10;" d="M190.1,211.6c0,8.5-6.8,15.4-15.3,15.4
		l-92.1,0.2c-8.4,0-15.3-6.8-15.3-15.3L66.9,30.5c0-8.5,6.8-15.4,15.3-15.4l92.1-0.2c8.4,0,15.3,6.8,15.3,15.3L190.1,211.6z"/>
	
		<rect id="XMLID_185_" x="73.5" y="202.3" transform="matrix(1 -2.184490e-03 2.184490e-03 1 -0.4577 0.1809)" style="fill:#DDDDDD;" width="18.2" height="14.6"/>
	
		<rect id="XMLID_184_" x="102.9" y="202.2" transform="matrix(1 -2.184490e-03 2.184490e-03 1 -0.4574 0.2453)" style="fill:#DDDDDD;" width="18.2" height="14.6"/>
	
		<rect id="XMLID_183_" x="133.7" y="202.2" transform="matrix(1 -2.184490e-03 2.184490e-03 1 -0.4572 0.3125)" style="fill:#DDDDDD;" width="18.2" height="14.6"/>
	
		<rect id="XMLID_182_" x="163.9" y="202.1" transform="matrix(1 -2.184490e-03 2.184490e-03 1 -0.457 0.3783)" style="fill:#DDDDDD;" width="18.2" height="14.6"/>
</g>
</svg>
