<?xml version="1.0" encoding="utf-8"?>
<!-- Generator: Adobe Illustrator 22.1.0, SVG Export Plug-In . SVG Version: 6.00 Build 0)  -->
<svg version="1.1" id="Layer_1" xmlns="http://www.w3.org/2000/svg" xmlns:xlink="http://www.w3.org/1999/xlink" x="0px" y="0px"
	 viewBox="0 0 256 256" style="enable-background:new 0 0 256 256;" xml:space="preserve">
<g>
	<path style="opacity:0.2;" d="M224.9,90.2L62.5,113.4c-7.3,1-12.7,7.3-12.7,14.7v117c0,5.2,4.7,9.1,9.8,8.1l161.6-29.8
		c7.8-1.4,13.5-8.1,13.6-16.1l2-106.8C236.8,94.2,231.2,89.3,224.9,90.2z M113.6,217.9c-19.8,0-34-9.7-34-35.2
		c0-21.5,17.3-47.4,37.1-47.4c19.8,0,35.9,7.3,35.9,34C152.5,199.7,133.4,217.9,113.6,217.9z"/>
	<path style="fill:#4D5756;" d="M113.1,121.9c-26.2,0-49.1,34.3-49.1,62.7c0,33.8,18.8,46.7,45,46.7c26.2,0,51.5-24.1,51.5-64.3
		C160.6,131.6,139.4,121.9,113.1,121.9z M113.6,217.9c-19.8,0-34-9.7-34-35.2c0-21.5,17.3-47.4,37.1-47.4c19.8,0,35.9,7.3,35.9,34
		C152.5,199.7,133.4,217.9,113.6,217.9z"/>
	<path style="fill:#4D5756;" d="M195.4,146.9c0,7.1-4.9,11.4-10.2,11.4s-9.6-2.3-9.6-8.3c0-5.1,2.6-12,8-12S195.4,140.6,195.4,146.9
		z"/>
	<path style="fill:#D8D8DA;" d="M196,146.9c0,7.1-4.5,11.4-9.2,11.4s-8-2.3-8-8.3c0-5.1,4.1-11.2,8.7-11.2S196,140.6,196,146.9z"/>
	<path style="fill:#4D5756;" d="M221.8,143.1c0,7.1-4.9,11.4-10.2,11.4s-9.6-2.3-9.6-8.3c0-5.1,2.6-12,8-12S221.8,136.8,221.8,143.1
		z"/>
	<path style="fill:#D8D8DA;" d="M222.4,143.1c0,7.1-4.5,11.4-9.2,11.4s-8-2.3-8-8.3c0-5.1,4.1-11.2,8.7-11.2
		S222.4,136.8,222.4,143.1z"/>
	<path style="fill:#4D5756;" d="M221.4,173.7c0,7.1-4.9,11.4-10.2,11.4s-9.6-2.3-9.6-8.3c0-5.1,2.6-12,8-12
		C215,164.8,221.4,167.4,221.4,173.7z"/>
	<path style="fill:#D8D8DA;" d="M222.1,173.7c0,7.1-4.5,11.4-9.2,11.4s-8-2.3-8-8.3c0-5.1,4.1-11.2,8.7-11.2
		S222.1,167.4,222.1,173.7z"/>
	<path style="fill:#4D5756;" d="M195,179.9c0,7.1-4.9,11.4-10.2,11.4s-9.6-2.3-9.6-8.3c0-5.1,2.6-12,8-12S195,173.6,195,179.9z"/>
	<path style="fill:#D8D8DA;" d="M195.7,179.9c0,7.1-4.5,11.4-9.2,11.4s-8-2.3-8-8.3c0-5.1,4.1-11.2,8.7-11.2
		S195.7,173.6,195.7,179.9z"/>
	<polygon style="fill:#FFFFFF;" points="215.7,88.5 59.2,110.1 35.2,99.3 189.5,78.8 	"/>
	<path style="fill:#5B6066;" d="M194.8,76.5v12c0,0-19.4,7.3-34-1.2l-1-10.7H194.8z"/>
	<ellipse style="fill:#B5B9BC;" cx="177.3" cy="76.5" rx="17.5" ry="4.1"/>
	<path style="fill:#5B6066;" d="M74.9,5.4v4.2c0,0-9.7,2.6-17-0.4l-0.5-3.8H74.9z"/>
	<path style="fill:#5B6066;" d="M69.2,10.7v5.1c0,0-3,1.6-5.6-0.1v-5H69.2z"/>
	<ellipse cx="66.5" cy="101.6" rx="5.2" ry="1.1"/>
	<path style="fill:#5B6066;" d="M69.2,33.8v67.6c0,0-3.3,1.5-5.6,0V33.8H69.2z"/>
	<path style="fill:#5B6066;" d="M68.4,15.8v19.5c0,0-2.4,0.7-4.1-0.4v-19H68.4z"/>
	<ellipse style="fill:#B5B9BC;" cx="66.1" cy="5.4" rx="8.8" ry="1.4"/>
	<path style="fill:#D8D8DA;" d="M116.8,121.9c-26.2,0-49.1,34.3-49.1,62.7c0,33.8,18.8,46.7,45,46.7c26.2,0,51.5-24.1,51.5-64.3
		C164.3,131.6,143,121.9,116.8,121.9z M113.6,217.9c-19.8,0-34-9.7-34-35.2c0-21.5,17.3-47.4,37.1-47.4c19.8,0,35.9,7.3,35.9,34
		C152.5,199.7,133.4,217.9,113.6,217.9z"/>
</g>
</svg>
