<?xml version="1.0" encoding="utf-8"?>
<!-- Generator: Adobe Illustrator 22.1.0, SVG Export Plug-In . SVG Version: 6.00 Build 0)  -->
<svg version="1.1" id="Layer_1" xmlns="http://www.w3.org/2000/svg" xmlns:xlink="http://www.w3.org/1999/xlink" x="0px" y="0px"
	 viewBox="0 0 256 256" style="enable-background:new 0 0 256 256;" xml:space="preserve">
<path style="fill:#4BAABE;" d="M232.5,92.1L232.5,92.1L232.5,92.1c-1.6-1.1-3.4-1.8-5.5-2l-31.2-11.2l0,0c-1.9-0.8-4.1-1.1-6.3-0.8
	L20.8,98.9c-2.2,0.3-3.9,2.2-3.9,4.5v116.2c0,4.4,1.7,8.3,4.5,11.2l0,0l0,0c1.6,1.7,3.5,3,5.6,3.8l27,18.5l0.2-0.8
	c1.6,0.8,3.4,1.2,5.4,0.8l161.6-29.8c7.8-1.4,13.5-8.1,13.6-16.1l2-106.8C236.8,97.1,235.1,94,232.5,92.1z"/>
</svg>
