<?xml version="1.0" encoding="utf-8"?>
<!-- Generator: Adobe Illustrator 22.1.0, SVG Export Plug-In . SVG Version: 6.00 Build 0)  -->
<svg version="1.1" id="Layer_1" xmlns="http://www.w3.org/2000/svg" xmlns:xlink="http://www.w3.org/1999/xlink" x="0px" y="0px"
	 viewBox="0 0 256 256" style="enable-background:new 0 0 256 256;" xml:space="preserve">
<g>
	<path style="fill:#231F20;" d="M98.9,62.3l-5.3-0.1c-2,0-3.6-1.7-3.6-3.7l0.1-5.3c0-2,1.7-3.6,3.7-3.6l5.3,0.1c2,0,3.6,1.7,3.6,3.7
		l-0.1,5.3C102.6,60.7,100.9,62.3,98.9,62.3z"/>
	<path style="fill:#231F20;" d="M116.2,62.5l-5.3-0.1c-2,0-3.6-1.7-3.6-3.7l0.1-5.3c0-2,1.7-3.6,3.7-3.6l5.3,0.1
		c2,0,3.6,1.7,3.6,3.7l-0.1,5.3C119.9,60.9,118.2,62.5,116.2,62.5z"/>
	<path style="fill:#231F20;" d="M134.1,62.7l-5.3-0.1c-2,0-3.6-1.7-3.6-3.7l0.1-5.3c0-2,1.7-3.6,3.7-3.6l5.3,0.1
		c2,0,3.6,1.7,3.6,3.7l-0.1,5.3C137.8,61.1,136.1,62.7,134.1,62.7z"/>
	<path style="fill:#231F20;" d="M152.5,62.9l-5.3-0.1c-2,0-3.6-1.7-3.6-3.7l0.1-5.3c0-2,1.7-3.6,3.7-3.6l5.3,0.1
		c2,0,3.6,1.7,3.6,3.7l-0.1,5.3C156.1,61.3,154.5,62.9,152.5,62.9z"/>
	<path style="fill:#231F20;" d="M98.7,82.2l-5.3-0.1c-2,0-3.6-1.7-3.6-3.7l0.1-5.3c0-2,1.7-3.6,3.7-3.6l5.3,0.1c2,0,3.6,1.7,3.6,3.7
		l-0.1,5.3C102.3,80.6,100.7,82.2,98.7,82.2z"/>
	<path style="fill:#231F20;" d="M116,82.4l-5.3-0.1c-2,0-3.6-1.7-3.6-3.7l0.1-5.3c0-2,1.7-3.6,3.7-3.6l5.3,0.1c2,0,3.6,1.7,3.6,3.7
		l-0.1,5.3C119.6,80.8,118,82.4,116,82.4z"/>
	<path style="fill:#231F20;" d="M133.9,82.6l-5.3-0.1c-2,0-3.6-1.7-3.6-3.7l0.1-5.3c0-2,1.7-3.6,3.7-3.6l5.3,0.1
		c2,0,3.6,1.7,3.6,3.7l-0.1,5.3C137.5,81,135.9,82.6,133.9,82.6z"/>
	<path style="fill:#231F20;" d="M152.2,82.8l-5.3-0.1c-2,0-3.6-1.7-3.6-3.7l0.1-5.3c0-2,1.7-3.6,3.7-3.6l5.3,0.1
		c2,0,3.6,1.7,3.6,3.7l-0.1,5.3C155.9,81.2,154.2,82.8,152.2,82.8z"/>
	<path style="fill:#231F20;" d="M98.5,102.1l-5.3-0.1c-2,0-3.6-1.7-3.6-3.7l0.1-5.3c0-2,1.7-3.6,3.7-3.6l5.3,0.1
		c2,0,3.6,1.7,3.6,3.7l-0.1,5.3C102.1,100.5,100.5,102.2,98.5,102.1z"/>
	<path style="fill:#231F20;" d="M115.8,102.3l-5.3-0.1c-2,0-3.6-1.7-3.6-3.7l0.1-5.3c0-2,1.7-3.6,3.7-3.6l5.3,0.1
		c2,0,3.6,1.7,3.6,3.7l-0.1,5.3C119.4,100.7,117.8,102.3,115.8,102.3z"/>
	<path style="fill:#231F20;" d="M133.7,102.5l-5.3-0.1c-2,0-3.6-1.7-3.6-3.7l0.1-5.3c0-2,1.7-3.6,3.7-3.6l5.3,0.1
		c2,0,3.6,1.7,3.6,3.7l-0.1,5.3C137.3,100.9,135.7,102.5,133.7,102.5z"/>
	<path style="fill:#231F20;" d="M152,102.7l-5.3-0.1c-2,0-3.6-1.7-3.6-3.7l0.1-5.3c0-2,1.7-3.6,3.7-3.6l5.3,0.1c2,0,3.6,1.7,3.6,3.7
		l-0.1,5.3C155.7,101.1,154,102.7,152,102.7z"/>
	<path style="fill:#231F20;" d="M98.3,120.6l-5.3-0.1c-2,0-3.6-1.7-3.6-3.7l0.1-5.3c0-2,1.7-3.6,3.7-3.6l5.3,0.1
		c2,0,3.6,1.7,3.6,3.7l-0.1,5.3C101.9,119.1,100.3,120.7,98.3,120.6z"/>
	<path style="fill:#231F20;" d="M115.6,120.8l-5.3-0.1c-2,0-3.6-1.7-3.6-3.7l0.1-5.3c0-2,1.7-3.6,3.7-3.6l5.3,0.1
		c2,0,3.6,1.7,3.6,3.7l-0.1,5.3C119.2,119.2,117.6,120.8,115.6,120.8z"/>
	<path style="fill:#231F20;" d="M133.5,121l-5.3-0.1c-2,0-3.6-1.7-3.6-3.7l0.1-5.3c0-2,1.7-3.6,3.7-3.6l5.3,0.1c2,0,3.6,1.7,3.6,3.7
		l-0.1,5.3C137.1,119.4,135.5,121,133.5,121z"/>
	<path style="fill:#231F20;" d="M151.8,121.2l-5.3-0.1c-2,0-3.6-1.7-3.6-3.7l0.1-5.3c0-2,1.7-3.6,3.7-3.6l5.3,0.1
		c2,0,3.6,1.7,3.6,3.7l-0.1,5.3C155.5,119.6,153.8,121.2,151.8,121.2z"/>
	<path style="fill:#231F20;" d="M97.5,189.3l-5.3-0.1c-2,0-3.6-1.7-3.6-3.7l0.1-5.3c0-2,1.7-3.6,3.7-3.6l5.3,0.1
		c2,0,3.6,1.7,3.6,3.7l-0.1,5.3C101.2,187.7,99.5,189.3,97.5,189.3z"/>
	<path style="fill:#231F20;" d="M114.8,189.5l-5.3-0.1c-2,0-3.6-1.7-3.6-3.7l0.1-5.3c0-2,1.7-3.6,3.7-3.6l5.3,0.1
		c2,0,3.6,1.7,3.6,3.7l-0.1,5.3C118.5,187.9,116.8,189.5,114.8,189.5z"/>
	<path style="fill:#231F20;" d="M132.7,189.7l-5.3-0.1c-2,0-3.6-1.7-3.6-3.7l0.1-5.3c0-2,1.7-3.6,3.7-3.6l5.3,0.1
		c2,0,3.6,1.7,3.6,3.7l-0.1,5.3C136.4,188.1,134.7,189.7,132.7,189.7z"/>
	<path style="fill:#231F20;" d="M151.1,189.9l-5.3-0.1c-2,0-3.6-1.7-3.6-3.7l0.1-5.3c0-2,1.7-3.6,3.7-3.6l5.3,0.1
		c2,0,3.6,1.7,3.6,3.7l-0.1,5.3C154.7,188.3,153.1,189.9,151.1,189.9z"/>
	<circle style="fill:#231F20;" cx="122.6" cy="148.3" r="11"/>
	<g>
		<path style="fill:#231F20;" d="M121.3,135.3l0.1-9.2c0,0,0,0,0,0c-11.5-0.1-20.9,9.1-21.1,20.5l9.4,0.2
			C110.3,140.7,115.2,135.9,121.3,135.3z"/>
		<path style="fill:#231F20;" d="M135.6,147l9.2,0.1c0,0,0,0,0,0c0.1-11.5-9.1-20.9-20.5-21.1l-0.2,9.4
			C130.2,136,135,140.9,135.6,147z"/>
		<path style="fill:#231F20;" d="M135.6,149.7c-0.7,6.1-5.6,10.9-11.7,11.5l-0.1,9.2c0,0,0,0,0,0c11.5,0.1,20.9-9.1,21.1-20.5
			L135.6,149.7z"/>
		<path style="fill:#231F20;" d="M109.6,149.6l-9.2-0.1c0,0,0,0,0,0c-0.1,11.5,9.1,20.9,20.5,21.1l0.2-9.4
			C115.1,160.6,110.3,155.7,109.6,149.6z"/>
	</g>
	<path style="opacity:0.2;" d="M102,247.4c0,0,42.2-15.5,49.9-52.2l-1.4,41.2c-0.6,7.5-5.4,10.5-12.2,11.4L102,247.4z"/>
</g>
</svg>
