<?xml version="1.0" encoding="utf-8"?>
<!-- Generator: Adobe Illustrator 22.1.0, SVG Export Plug-In . SVG Version: 6.00 Build 0)  -->
<svg version="1.1" id="Layer_1" xmlns="http://www.w3.org/2000/svg" xmlns:xlink="http://www.w3.org/1999/xlink" x="0px" y="0px"
	 viewBox="0 0 256 256" style="enable-background:new 0 0 256 256;" xml:space="preserve">
<g>
	<path style="opacity:0.2;" d="M229.1,241.7H26.9c-3.2,0-5.9-2.6-5.9-5.9V107.8c0-3.2,2.6-5.9,5.9-5.9h202.2c3.2,0,5.9,2.6,5.9,5.9
		v128.1C235,239.1,232.3,241.7,229.1,241.7z"/>
	<path style="fill:#F86613;" d="M182.3,236.1H35.1c-4.6,0-8.2-3.7-8.2-8.3V114.7c0-4.6,3.7-8.3,8.2-8.3h147.2c4.6,0,8.3,3.7,8.3,8.3
		v113.1C190.5,232.4,186.8,236.1,182.3,236.1z"/>
	<path style="fill:#CCCCCC;" d="M176.2,224.7c-45,4.5-90,4.5-135,0c-6.1-36.5-6.4-72.2,0-106.9c45-5.7,90-5.7,135,0
		C184.8,150.7,183.2,186.8,176.2,224.7z"/>
	<rect x="194" y="106.5" style="fill:#B2B6AE;" width="36.4" height="53.4"/>
	<circle style="fill:#B8B2B3;" cx="212.1" cy="180.4" r="13.6"/>
	<circle style="fill:#B8B2B3;" cx="211" cy="213.3" r="13.6"/>
	<path style="fill:#E6E6E6;" d="M221.5,182.6H196c-1.1,0-2-0.9-2-2v-0.5c0-1.1,0.9-2,2-2h25.6c1.1,0,2,0.9,2,2v0.5
		C223.5,181.7,222.6,182.6,221.5,182.6z"/>
	<path style="fill:#E6E6E6;" d="M218.8,208.7l-18.1,18.1c-0.8,0.8-2,0.8-2.8,0l-0.4-0.4c-0.8-0.8-0.8-2,0-2.8l18.1-18.1
		c0.8-0.8,2-0.8,2.8,0l0.4,0.4C219.6,206.7,219.6,208,218.8,208.7z"/>
	<polygon style="fill:#9E999C;" points="141.1,95.7 46.7,61.6 150.6,95.7 210.4,7 154.7,99.1 	"/>
</g>
</svg>
