<?xml version="1.0" encoding="utf-8"?>
<!-- Generator: Adobe Illustrator 22.1.0, SVG Export Plug-In . SVG Version: 6.00 Build 0)  -->
<svg version="1.1" id="Layer_1" xmlns="http://www.w3.org/2000/svg" xmlns:xlink="http://www.w3.org/1999/xlink" x="0px" y="0px"
	 viewBox="0 0 256 256" style="enable-background:new 0 0 256 256;" xml:space="preserve">
<g>
	<path style="fill:#E5C55E;" d="M128.3,4.1l0,1.1c0,0.2-0.2,0.4-0.4,0.4l-0.1,0c-0.2,0-0.4-0.2-0.4-0.4l0-1.1c0-0.2,0.2-0.4,0.4-0.4
		l0.1,0C128.1,3.7,128.3,3.9,128.3,4.1z"/>
	<path style="fill:#E5C55E;" d="M133.1,4.1l0,1.1c0,0.2-0.2,0.4-0.4,0.4l-0.1,0c-0.2,0-0.4-0.2-0.4-0.4l0-1.1c0-0.2,0.2-0.4,0.4-0.4
		l0.1,0C132.9,3.7,133.1,3.9,133.1,4.1z"/>
	<path style="fill:#E5C55E;" d="M128.8,251.6l0,1.1c0,0.2-0.2,0.4-0.4,0.4l-0.1,0c-0.2,0-0.4-0.2-0.4-0.4l0-1.1
		c0-0.2,0.2-0.4,0.4-0.4l0.1,0C128.6,251.2,128.8,251.4,128.8,251.6z"/>
	<path style="fill:#E5C55E;" d="M133.6,251.6l0,1.1c0,0.2-0.2,0.4-0.4,0.4l-0.1,0c-0.2,0-0.4-0.2-0.4-0.4l0-1.1
		c0-0.2,0.2-0.4,0.4-0.4l0.1,0C133.4,251.2,133.6,251.4,133.6,251.6z"/>
	
		<rect x="128.3" y="243.6" transform="matrix(-1.918084e-03 -1 1 -1.918084e-03 -117.6784 380.4285)" style="opacity:0.2;" width="5.4" height="10.6"/>
	
		<rect x="128.1" y="2.3" transform="matrix(-1.918084e-03 -1 1 -1.918084e-03 123.1782 138.182)" style="opacity:0.2;" width="5" height="10.6"/>
</g>
</svg>
