<?xml version="1.0" encoding="utf-8"?>
<!-- Generator: Adobe Illustrator 22.1.0, SVG Export Plug-In . SVG Version: 6.00 Build 0)  -->
<svg version="1.1" id="Layer_1" xmlns="http://www.w3.org/2000/svg" xmlns:xlink="http://www.w3.org/1999/xlink" x="0px" y="0px"
	 viewBox="0 0 257 218" style="enable-background:new 0 0 257 218;" xml:space="preserve">
<g>
	<path style="fill:#59720C;" d="M51,61c0,0,30,46,0,95c0,0,91-21,154,0c0,0-13-48,0-95C205,61,103,88,51,61z"/>
	<path style="fill:#738721;" d="M176,142c0,14.9-21.1,17-46,17s-49-1.1-49-16s3-38,49-38C165,105,176,127.1,176,142z"/>
	<path style="fill:#FF8A9B;" d="M171,143c0,11.6-18.5,8-42,8s-43,3.6-43-8s19-21,42.5-21S171,131.4,171,143z"/>
	<path style="fill:#F2F2F2;" d="M199,64c0,0,12,6,2,34c0,0-8.2-27.9-15.1-31L199,64z"/>
	<path style="fill:#F2F2F2;" d="M63.9,64c0,0-12,6-2,34c0,0,8.2-27.9,15.1-31L63.9,64z"/>
	<path style="fill:#F2F2F2;" d="M196,156c0,0,12-6,2-34c0,0-8.2,27.9-15.1,31L196,156z"/>
	<path style="fill:#F2F2F2;" d="M60.9,156c0,0-12-6-2-34c0,0,8.2,27.9,15.1,31L60.9,156z"/>
	<path style="fill:#F2F2F2;" d="M77,71c0,0-2,11,5,20c0,0,4-10,14-16L77,71z"/>
	<path style="fill:#F2F2F2;" d="M161.7,71c0,0,2,11-5,20c0,0-4-10-14-16L161.7,71z"/>
	<path style="fill:#F2F2F2;" d="M101,73c0,0-2,11,5,20c0,0,4-10,14-16L101,73z"/>
	<path style="fill:#F2F2F2;" d="M184.7,68c0,0,2,11-5,20c0,0-4-10-14-16L184.7,68z"/>
	<path style="fill:#F2F2F2;" d="M122,76c0,0,7,15,7,18c0,0,12-11,11-18H122z"/>
	<path style="fill:#F2F2F2;" d="M76,147c0,0-2-11,5-20c0,0,4,10,14,16L76,147z"/>
	<path style="fill:#F2F2F2;" d="M160.7,147c0,0,2-11-5-20c0,0-4,10-14,16L160.7,147z"/>
	<path style="fill:#F2F2F2;" d="M100,145c0,0-2-11,5-20c0,0,4,10,14,16L100,145z"/>
	<path style="fill:#F2F2F2;" d="M183.7,150c0,0,2-11-5-20c0,0-4,10-14,16L183.7,150z"/>
	<path style="fill:#F2F2F2;" d="M121,142c0,0,7-15,7-18c0,0,12,11,11,18H121z"/>
	<g>
		<path style="fill:#FFD72E;" d="M125.9,78.4c-24.9,0-50.8-3.2-77.5-9.7c-5.9-1.4-9.5-7.4-8.1-13.3c1.4-5.9,7.4-9.5,13.3-8.1
			c53.5,12.9,103.3,12,148-2.8c5.8-1.9,12,1.2,13.9,7s-1.2,12-7,13.9C182.4,74,154.8,78.4,125.9,78.4z"/>
	</g>
	<g>
		<path style="fill:#FFD72E;" d="M51,175c-4.4,0-8.6-2.7-10.2-7c-2.2-5.7,0.6-12,6.2-14.2c52.5-20.5,106.8-21.6,161.5-3.2
			c5.8,1.9,8.9,8.2,6.9,13.9c-1.9,5.8-8.2,8.9-13.9,6.9c-50.4-16.9-98.3-16-146.5,2.8C53.7,174.8,52.3,175,51,175z"/>
	</g>
</g>
</svg>
