<?xml version="1.0" encoding="utf-8"?>
<!-- Generator: Adobe Illustrator 22.1.0, SVG Export Plug-In . SVG Version: 6.00 Build 0)  -->
<svg version="1.1" id="Layer_1" xmlns="http://www.w3.org/2000/svg" xmlns:xlink="http://www.w3.org/1999/xlink" x="0px" y="0px"
	 viewBox="0 0 257 218" style="enable-background:new 0 0 257 218;" xml:space="preserve">
<g>
	<path style="fill:#560519;" d="M127,94c40-1.1,63.6-28.9,83-23c24.5,7.5-19,77-83,77S21.6,83.7,49,71C69.5,61.5,92,95,127,94z"/>
	<path style="fill:#FFFFFF;" d="M172,140h-20v-10c0-5.5,4.5-10,10-10h0c5.5,0,10,4.5,10,10V140z"/>
	<path style="fill:#FFFFFF;" d="M105,140H85v-10c0-5.5,4.5-10,10-10h0c5.5,0,10,4.5,10,10V140z"/>
	<g>
		<path style="fill:#EF1B52;" d="M127,155.5c-51.1,0-87.6-37.2-93.2-62.9C30.9,79.6,35.4,69,45.8,64.2c13.8-6.4,26.8,0.9,40.5,8.7
			c12.3,6.9,25,14.1,40.4,13.6l0,0c19.2-0.5,34.5-7.8,47.9-14.2c13.7-6.5,25.5-12.2,37.5-8.5c8.9,2.7,13.5,11.1,11.9,21.8
			c-2.1,14-13.7,31.1-30.3,44.8C174.2,146.6,150.5,155.5,127,155.5z M56.8,76.8c-1.6,0-3.2,0.3-4.6,1c-1.4,0.7-5.7,2.6-3.8,11.5
			c4,18.4,33.8,51.2,78.6,51.2c20,0,40.4-7.7,57.3-21.6c15.5-12.8,23.7-27,25-35.5c0.7-4.5-0.8-5-1.5-5.2c-6.5-2-15.4,2.3-26.7,7.7
			c-14,6.7-31.5,15-53.9,15.7c-19.5,0.6-35.4-8.4-48.2-15.6C69.4,80.5,62.5,76.8,56.8,76.8z"/>
	</g>
</g>
</svg>
