<?xml version="1.0" encoding="utf-8"?>
<!-- Generator: Adobe Illustrator 22.1.0, SVG Export Plug-In . SVG Version: 6.00 Build 0)  -->
<svg version="1.1" id="Layer_1" xmlns="http://www.w3.org/2000/svg" xmlns:xlink="http://www.w3.org/1999/xlink" x="0px" y="0px"
	 viewBox="0 0 257 218" style="enable-background:new 0 0 257 218;" xml:space="preserve">
<g>
	<path style="fill:#000030;stroke:#FF9312;stroke-width:10;stroke-miterlimit:10;" d="M70.6,64.1c0,0-26.8,40.2,55.6,44.9
		c82.3,4.7,57.6-41.5,57.6-41.5s49.5,46.9,8.7,70.3s-101.1,14.1-125.9,0S41.8,81.5,70.6,64.1z"/>
	<path style="fill:#FFFFFF;" d="M176.4,104.2c0,0,7.4,10.7,8.7,17.4c0,0,3.3-18.1,0-26.1L176.4,104.2z"/>
	<path style="fill:#FFFFFF;" d="M78.1,98.2c0,0-7.4,10.7-8.7,17.4c0,0-3.3-18.1,0-26.1L78.1,98.2z"/>
	<path style="fill:#000019;" d="M97.4,145.7c0,0-4.7-16.1,25.4-18.1s42.2,5.4,42.8,18.1C165.7,145.7,120.1,157.8,97.4,145.7z"/>
	<path style="fill:#FFFFFF;" d="M90.7,145.7c0,0,9.3-21.9,9.3-20.7s0,23.3,0,23.3L90.7,145.7z"/>
	<polygon style="fill:#FFFFFF;" points="151,150.5 154.2,127.7 162.1,149.1 	"/>
	<g>
		<path style="fill:#FF9312;" d="M131.7,155.3c-26.7,0-52.1-6.4-66.8-14.7c-12.2-6.9-19.6-20.4-19.8-36.2
			C44.9,86.8,54,70.2,68.9,61.2l12.8-7.8l-8.3,12.5c-0.1,0.2-6.6,10.4-1.8,19.9c3.9,7.8,16.6,17.6,54.8,19.8c29,1.7,48-3,54.7-13.5
			c6.5-10.1-0.2-22.9-0.3-23.1l-9.5-18L186,65c1.2,1.1,28.6,27.3,25.7,51.6c-1.2,9.9-7.1,18-17.6,24
			C175.7,151.2,153.2,155.3,131.7,155.3z M63.4,74.1c-7.5,8-11.7,18.7-11.6,30.2c0.2,13.3,6.3,24.7,16.4,30.4
			c12.9,7.3,34.2,12.6,55.4,13.6c18.2,0.9,44.6-0.7,67.1-13.6c8.7-5,13.4-11.2,14.3-19c1.5-12.6-7.2-26.6-14.5-35.8
			c0.3,4.9-0.5,10.4-3.8,15.6c-8.2,12.9-28.7,18.5-60.7,16.7c-33.2-1.9-53.6-9.8-60.4-23.5C63,83.6,62.7,78.5,63.4,74.1z"/>
	</g>
</g>
</svg>
