<?xml version="1.0" encoding="utf-8"?>
<!-- Generator: Adobe Illustrator 22.1.0, SVG Export Plug-In . SVG Version: 6.00 Build 0)  -->
<svg version="1.1" id="Layer_1" xmlns="http://www.w3.org/2000/svg" xmlns:xlink="http://www.w3.org/1999/xlink" x="0px" y="0px"
	 viewBox="0 0 257 218" style="enable-background:new 0 0 257 218;" xml:space="preserve">
<g>
	<path style="fill:#2A1633;stroke:#056FE2;stroke-width:9;stroke-miterlimit:10;" d="M49.5,133.3c-47-16.8-9-80.3,83-80.8
		c92.5-0.5,125.5,71.5,74,83C164.5,144.9,89.4,147.5,49.5,133.3z"/>
	<path style="fill:#FF8A9B;" d="M61.7,68.8c0,0,78.7,17.3,127.7-5.5C189.5,63.3,130,37,61.7,68.8z"/>
	<path style="fill:#FF8A9B;" d="M49,133c0,0,2-9,32-8s101-1,113,1s22,6,22,6s-43.4,9.9-86,11C90.6,144,51.9,136.4,49,133z"/>
	<path style="fill:#FFF5D4;" d="M120,69c0,0-15.1-3.2-15.1,5.4C105,83,110,92,114,92S128,75,120,69z"/>
	<path style="fill:#FFF5D4;" d="M143,69c0,0-15.1-3.2-15.1,5.4C128,83,133,92,137,92S151,75,143,69z"/>
	<path style="fill:#FFFFFF;" d="M139.6,69.4c0,0-10.9-2.3-10.9,3.9c0,6.2,3.7,12.7,6.5,12.7S145.4,73.7,139.6,69.4z"/>
	<path style="fill:#FFF5D4;" d="M163,59c0,0-10,2-9,7s8,17,11,18S176,60,163,59z"/>
	<path style="fill:#FFF5D4;" d="M85.1,61c0,0,10,2,9,7s-8,17-11,18S72.1,62,85.1,61z"/>
	<path style="fill:#FFF5D4;" d="M161.6,132.3c0,0,1.7-16.9,8.4-15.2c6.8,1.7,10.1,14.4,7.6,15.2
		C175.1,133.2,164.9,135.7,161.6,132.3z"/>
	<path style="fill:#FFF5D4;" d="M97.4,132.3c0,0-1.7-16.9-8.4-15.2c-6.8,1.7-10.1,14.4-7.6,15.2C83.9,133.2,94.1,135.7,97.4,132.3z"
		/>
	<path style="fill:#FFF5D4;" d="M125.9,134.8c0,0-2.2-21.8-10.9-19.7c-8.7,2.2-13.1,18.6-9.8,19.7
		C108.4,135.9,121.5,139.2,125.9,134.8z"/>
	<path style="fill:#FFF5D4;" d="M130.1,134.8c0,0,2.2-21.8,10.9-19.7c8.7,2.2,13.1,18.6,9.8,19.7S134.4,139.2,130.1,134.8z"/>
	<path style="fill:#FFFFFF;" d="M116,69.8c0,0-10.1-2.1-10.1,3.6c0,5.7,3.4,11.7,6.1,11.7C114.7,85.2,121.3,73.8,116,69.8z"/>
	<path style="fill:#FFFFFF;" d="M85.1,61c0,0,7.2,1.4,6.5,5c-0.7,3.6-5.8,12.2-7.9,12.9S75.8,61.7,85.1,61z"/>
	<path style="fill:#FFFFFF;" d="M162.1,60c0,0-6.8,1.4-6.1,4.8c0.7,3.4,5.4,11.5,7.5,12.2C165.5,77.7,170.9,60.7,162.1,60z"/>
	<path style="fill:#FFFFFF;" d="M122.9,131.3c0,0-1.7-16.9-8.4-15.2c-6.7,1.7-10.1,14.3-7.6,15.2
		C109.4,132.1,119.6,134.7,122.9,131.3z"/>
	<path style="fill:#FFFFFF;" d="M132.1,131.3c0,0,1.7-16.9,8.4-15.2c6.7,1.7,10.1,14.3,7.6,15.2
		C145.6,132.1,135.5,134.7,132.1,131.3z"/>
	<path style="fill:#FFFFFF;" d="M164.4,127.6c0,0,1.1-10.6,5.3-9.5c4.2,1.1,6.3,9,4.8,9.5C172.9,128.1,166.5,129.7,164.4,127.6z"/>
	<path style="fill:#FFFFFF;" d="M94,128.4c0,0-1.1-11.4-5.7-10.3c-4.6,1.1-6.9,9.7-5.2,10.3C84.8,129,91.7,130.7,94,128.4z"/>
	<path style="fill:none;stroke:#056FE2;stroke-width:9;stroke-miterlimit:10;" d="M49.5,133.3c-47-16.8-9-80.3,83-80.8
		c92.5-0.5,125.5,71.5,74,83C164.5,144.9,89.4,147.5,49.5,133.3z"/>
</g>
</svg>
