<?xml version="1.0" encoding="utf-8"?>
<!-- Generator: Adobe Illustrator 22.1.0, SVG Export Plug-In . SVG Version: 6.00 Build 0)  -->
<svg version="1.1" id="Layer_1" xmlns="http://www.w3.org/2000/svg" xmlns:xlink="http://www.w3.org/1999/xlink" x="0px" y="0px"
	 viewBox="0 0 257 218" style="enable-background:new 0 0 257 218;" xml:space="preserve">
<g>
	<path style="fill:#6D0B33;" d="M182.9,147.3c-36.7,14.4-73,14.2-109,0c-14.2-5.6-23.5-19.3-23.5-34.6v-11.6
		c0-15.4,9.5-29.3,24-34.8c36.3-13.8,72.5-13.8,108.5-0.1c14.4,5.5,23.9,19.3,23.9,34.7v11.6C206.6,127.9,197.2,141.7,182.9,147.3z"
		/>
	<path style="fill:#FFFFFF;" d="M90.3,89.6L90.3,89.6c-3.4,1.1-7.1-0.9-8.1-4.3l-3.7-12l12.4-3.8l3.7,12
		C95.6,84.9,93.7,88.5,90.3,89.6z"/>
	<path style="fill:#FFFFFF;" d="M128.5,85L128.5,85c-4.3,0-7.9-3.5-7.9-7.9V62h15.7v15.1C136.4,81.5,132.8,85,128.5,85z"/>
	<path style="fill:#FFFFFF;" d="M110.1,86.7L110.1,86.7c-4.2,1-8.5-1.7-9.4-5.9l-3.4-14.7l15.3-3.6l3.4,14.7
		C117,81.5,114.3,85.7,110.1,86.7z"/>
	<path style="fill:#FFFFFF;" d="M166.4,90.6L166.4,90.6c3.4,1.1,7.1-0.9,8.1-4.3l3.7-12l-12.4-3.8l-3.7,12
		C161.1,85.9,163,89.5,166.4,90.6z"/>
	<path style="fill:#FFFFFF;" d="M93.3,125.8L93.3,125.8c-3.4-1.1-7.1,0.9-8.1,4.3l-3.7,12l12.4,3.8l3.7-12
		C98.6,130.5,96.7,126.9,93.3,125.8z"/>
	<path style="fill:#FFFFFF;" d="M169.4,124.8L169.4,124.8c3.4-1.1,7.1,0.9,8.1,4.3l3.7,12l-12.4,3.8l-3.7-12
		C164.1,129.5,166,125.9,169.4,124.8z"/>
	<path style="fill:#FFFFFF;" d="M147.6,87.7L147.6,87.7c4.2,1,8.5-1.7,9.4-5.9l3.4-14.7l-15.3-3.6l-3.4,14.7
		C140.7,82.5,143.4,86.7,147.6,87.7z"/>
	<g>
		<path style="fill:#8AE520;" d="M128.2,170c-19.7,0-39.3-3.8-58.8-11.5c-18.9-7.5-31.1-25.4-31.1-45.8v-11.6
			c0-20.3,12.7-38.8,31.7-46c39-14.8,78.4-14.8,117,0c18.9,7.2,31.6,25.7,31.6,45.9v11.6c0,20.4-12.3,38.4-31.3,45.8l0,0
			C167.7,166.1,147.9,170,128.2,170z M182.9,147.3L182.9,147.3L182.9,147.3z M128.7,67.9c-16.6,0-33.2,3.2-50.2,9.7
			c-9.7,3.7-16.2,13.2-16.2,23.6v11.6c0,10.4,6.3,19.6,15.9,23.4c33.6,13.2,66.4,13.2,100.3,0c9.8-3.8,16.1-13,16.1-23.5V101
			c0-10.4-6.5-19.8-16.1-23.5C161.8,71.1,145.3,67.9,128.7,67.9z"/>
	</g>
</g>
</svg>
