<?xml version="1.0" encoding="utf-8"?>
<!-- Generator: Adobe Illustrator 22.1.0, SVG Export Plug-In . SVG Version: 6.00 Build 0)  -->
<svg version="1.1" id="Layer_1" xmlns="http://www.w3.org/2000/svg" xmlns:xlink="http://www.w3.org/1999/xlink" x="0px" y="0px"
	 viewBox="0 0 257 218" style="enable-background:new 0 0 257 218;" xml:space="preserve">
<g>
	<path style="fill:#492300;" d="M30,70c0,0,65,19,121,7s69-14,70,20s-52,64-107,45S36,90,30,70z"/>
	<path style="fill:#FFFFFF;" d="M141.7,80.5c0,0,6.8,21.5,11.3,21.5c4.5,0,12.5-22.7,10.2-24.9c-2.3-2.3-21.5,1.7-21.5,1.7"/>
	<path style="fill:#FF8A9B;" d="M190,118c0,0-17,12.1-36.5,11.5C134,129,90,122,80,124c0,0,45.3,29.7,83.6,22.3
		C202,139,212,120,190,118z"/>
	<path style="fill:#FFFFFF;" d="M150,144.3c0,0,3.8-22.2,8.3-22.9c4.5-0.6,15.4,20.7,13.5,23.3s-21.6,1.3-21.6,1.3"/>
	<path style="fill:#FFFFFF;" d="M115,83c0,0,6,19,10,19s11-20,9-22s-19,1.5-19,1.5"/>
	<path style="fill:#FFFFFF;" d="M119,141.4c0,0,6-19,10-19s11,20,9,22s-19-1.5-19-1.5"/>
	<path style="fill:#FFFFFF;" d="M88.7,82.4c0,0,5.6,17.6,9.3,17.6c3.7,0,10.2-18.6,8.4-20.4c-1.9-1.9-17.6,1.4-17.6,1.4"/>
	<path style="fill:#FFFFFF;" d="M90.5,131.8c0,0,8.8-16.3,12.5-15.5c3.6,0.7,6.5,20.2,4.3,21.6c-2.2,1.5-17-4.7-17-4.7"/>
	<path style="fill:#FFFFFF;" d="M63.2,76.8c0,0,2.2,18.4,5.9,19c3.7,0.7,13.5-16.4,12-18.5c-1.5-2.2-17.6-1.9-17.6-1.9"/>
	<path style="fill:#FFFFFF;" d="M42.8,73.6c0,0,1.9,16.7,5.2,17.3S60.1,75.9,58.7,74c-1.3-2-15.7-1.6-15.7-1.6"/>
	<g>
		<path style="fill:#32009E;" d="M215.3,70.4c-9.9-7.7-28-4.3-65,3.6c-54.6,11.7-118.9-6.8-119.5-7l-5.3-1.5l1.6,5.3
			c7.2,23.9,33.5,55.9,85.9,74c12.5,4.3,24.6,6.1,35.7,6.1c16.1,0,30.4-3.8,41.8-9.3c4.6-2.2,8.7-4.7,12.2-7.3
			c0.3-0.2,0.6-0.5,1-0.7c13.3-10.1,20.7-23.5,20.3-36.8C223.6,82.6,221.1,74.9,215.3,70.4z M209.1,120.4c-2.7,3.3-6,6.4-9.9,9.2
			c-3.2,2.3-6.6,4.4-10.2,6.2c-21.1,10.6-48.9,12-74,3.3c-46.4-16-71.4-43-80.3-64.8c17,4.3,69.7,15.7,116.9,5.6
			c9.8-2.1,18.3-3.9,25.7-5.2c2.2-0.4,4.3-0.8,6.4-1.1c4.2-0.7,7.9-1.1,11.2-1.4c3.6-0.3,6.6-0.2,9.2,0.1c3.2,0.4,5.7,1.3,7.5,2.8
			c4.1,3.2,6,9.8,6.4,21.9C218.2,105.1,215.1,113.2,209.1,120.4z"/>
	</g>
	<path style="fill:#F7F7F7;" d="M209.1,120.4c-1.6,4.8-3.4,9.3-5.4,13.3c-5.3,11-10.7,18.3-10.7,18.3c-0.7-3.3-1.5-6.7-2.4-10.3
		c-0.5-1.9-1-3.9-1.6-5.9c-2.8-10.4-6.5-22-11-34.8c-6.1-17.5-2.4-24.3-0.7-26.3c11.9-2.2,20.7-3.2,26.8-2.3
		c3.8,2.7,6.6,6.7,7.8,11.6C214.7,96.5,212.7,109.3,209.1,120.4z"/>
	<path style="fill:#FFFFFF;" d="M191.5,130c-2.1-9.8-5.6-21.7-10.5-35.7c-5.3-15.2,0-18.9,0-18.9c0.6-0.7,1.5-1.3,2.7-1.8
		c4.2-0.7,7.9-1.1,11.2-1.4c4.7,1.3,8.6,5,9.8,10.2C210,105.5,191.5,130,191.5,130z"/>
</g>
</svg>
