<?xml version="1.0" encoding="utf-8"?>
<!-- Generator: Adobe Illustrator 22.1.0, SVG Export Plug-In . SVG Version: 6.00 Build 0)  -->
<svg version="1.1" id="Layer_1" xmlns="http://www.w3.org/2000/svg" xmlns:xlink="http://www.w3.org/1999/xlink" x="0px" y="0px"
	 viewBox="0 0 257 218" style="enable-background:new 0 0 257 218;" xml:space="preserve">
<g>
	<path style="fill:#54135E;" d="M16.5,51.1c0,0,47,39.4,86.5,17.8s62.3,11.4,89,7.6s54.7-25.4,54.7-25.4S195.8,160.5,131,163
		S16.5,51.1,16.5,51.1z"/>
	<polygon style="fill:#FFF1A1;" points="42.6,73.4 64.2,102.6 75.7,91.2 93.5,111.5 112.5,87.4 130.3,116.6 146.9,87.4 165.9,111.5 
		183.7,92.5 196.4,100.1 221.9,70.8 189.5,77.2 129.1,63.2 	"/>
	<path style="fill:#FFF1A1;" d="M62.3,117.2l14-12.7L95.4,130l16.5-20.3l17.8,24.2l19.1-22.9l20.3,16.5l16.5-21.6l20.3,8.9
		c0,0-36.9,51.9-73.1,48.2C96.6,159.2,62.3,117.2,62.3,117.2z"/>
	<path style="fill:#FF6C22;" d="M14.6,48.6c0.3-0.2,0.7-0.4,1.3-0.5c0.5-0.1,1.2-0.1,1.7,0.1c0.5,0.1,1,0.5,1.1,0.6l0,0l0.2,0.1
		l0.4,0.2l0.8,0.5l1.6,1c1.1,0.6,2.2,1.3,3.2,1.9c2.2,1.2,4.4,2.4,6.6,3.5c4.5,2.2,9,4.2,13.6,5.8c9.2,3.2,18.7,5.4,27.8,5.3
		c9.1,0,17.5-2.4,24.4-7l1.7-1c0.6-0.4,1.3-0.8,1.9-1.1c1.3-0.8,2.7-1.4,4-2.1c2.7-1.3,5.6-2.4,8.6-3.3c5.9-1.8,12.4-2.4,18.6-1.9
		c6.3,0.4,12.2,1.9,17.7,3.8c5.4,1.9,10.5,4.2,15.1,6.4c4.7,2.2,9,4.4,13.2,5.8c2.1,0.8,4.2,1.3,6.1,1.7c2,0.4,4,0.6,5.9,0.6
		c0.2,0,0.5,0,0.7,0l0.9-0.1l1.7-0.2l1.7-0.2c0.6-0.1,1.2-0.2,1.7-0.3c1.2-0.2,2.3-0.4,3.5-0.6l3.5-0.8c4.7-1.2,9.4-2.7,14-4.5
		c9.3-3.5,18.5-8,27.3-13l0,0v0c1.5-1.5,4,0,3.3,2l-0.2,0.5c-2.2,6.9-4.7,13.5-7.6,20c-2.8,6.5-6,12.9-9.3,19.3
		c-6.7,12.6-14.6,24.8-23.6,36.2c-4.6,5.7-9.4,11.2-14.7,16.4c-5.3,5.2-11.1,10.1-17.4,14.5c-6.3,4.5-13.2,8.2-20.7,11.2
		c-7.5,2.9-15.7,4.8-24.1,5.2c-8.5,0.3-17-1.2-24.7-3.8c-7.7-2.7-14.9-6.4-21.3-10.8c-12.8-8.9-23.2-19.8-32.2-31.3
		c-1.1-1.5-2.2-2.9-3.3-4.4l-3.2-4.5c-2-3-4.1-6-6-9.1c-3.8-6.1-7.4-12.4-10.6-18.8c-3.2-6.4-6.3-12.9-9-19.5
		c-1.4-3.3-2.7-6.6-3.9-10l-1.7-5.1L14.4,55L14,53.7l-0.2-0.7l0-0.2l0-0.1c0,0,0,0-0.1-0.3c-0.2-0.6-0.3-1.4,0-2.2
		C13.8,49.5,14.3,48.9,14.6,48.6z M18.4,53.7c0.4-0.2,0.9-0.7,1.2-1.4c0.3-0.7,0.2-1.5,0.1-1.9c-0.1-0.3-0.1-0.2-0.1-0.2l0,0.1
		l0.1,0.1l0.3,0.5l0.7,1.1l1.4,2.2l2.8,4.4c1.9,2.9,3.8,5.8,5.7,8.7c3.9,5.7,7.8,11.4,11.8,16.9c4,5.6,8.2,11,12.4,16.3
		c4.3,5.3,8.6,10.4,13.2,15.3c1.1,1.3,2.3,2.4,3.4,3.6c1.2,1.2,2.3,2.4,3.5,3.5l3.6,3.4l3.6,3.3c4.9,4.2,10,8.2,15.2,11.5
		c5.3,3.3,10.7,6,16.2,7.7c5.5,1.8,11,2.7,16.5,2.5c5.6-0.2,11.3-1.4,16.8-3.4c5.6-1.9,11.1-4.7,16.5-8.1
		c5.4-3.3,10.5-7.2,15.6-11.4c5-4.3,9.8-8.8,14.6-13.6c9.4-9.6,18.2-20,26.6-30.9c8.4-10.9,16.6-22.2,24.4-33.7l3.2,2.5l0,0
		c-7.7,7.3-16.2,13.5-25.3,19.1c-9.3,5.4-19.1,10.1-30.7,12.3c-6.4,1.1-12.8,0.4-18.5-0.9c-5.7-1.3-10.8-3.2-15.7-4.9
		c-4.9-1.7-9.4-3.3-13.8-4.4c-4.4-1-8.6-1.7-12.6-1.6c-4,0.1-8,0.6-11.9,1.6c-2,0.5-4,1.1-6,1.8c-1,0.4-2,0.7-3,1.2
		c-0.5,0.2-1,0.4-1.5,0.6l-0.8,0.3l-1,0.4c-5.6,2.6-11.6,4.3-17.6,5c-6,0.8-12,0.7-17.7-0.1c-5.7-0.8-11.2-2.2-16.5-4
		c-5.3-1.8-10.2-4.1-15-6.8c-4.8-2.6-9.3-5.5-13.6-8.6c-2.1-1.6-4.3-3.2-6.3-4.9c-1-0.9-2-1.7-3-2.6L16,55l-0.7-0.7l-0.4-0.4
		l-0.2-0.2l0,0c0.1,0.1,0.6,0.4,1,0.5c0.5,0.1,1.1,0.2,1.6,0C17.8,54.1,18.2,53.9,18.4,53.7z"/>
</g>
</svg>
