<?xml version="1.0" encoding="utf-8"?>
<!-- Generator: Adobe Illustrator 22.1.0, SVG Export Plug-In . SVG Version: 6.00 Build 0)  -->
<svg version="1.1" id="Layer_1" xmlns="http://www.w3.org/2000/svg" xmlns:xlink="http://www.w3.org/1999/xlink" x="0px" y="0px"
	 viewBox="0 0 257 218" style="enable-background:new 0 0 257 218;" xml:space="preserve">
<g>
	<g>
		<path style="fill:#F72FC9;" d="M129.7,140.5c-13.4,0-27-1.4-40.6-4.1c-36.4-7.3-60.7-22.1-61.7-22.7c-10.3-6.4-13.6-19.9-7.2-30.3
			c6.4-10.3,19.9-13.5,30.2-7.2c0.4,0.3,19.9,11.8,48.9,17.4c37.8,7.2,73.7,1.3,106.6-17.7c10.5-6.1,24-2.4,30,8.1
			c6.1,10.5,2.4,24-8.1,30C197.5,131.6,164.1,140.5,129.7,140.5z"/>
	</g>
	<path style="fill:#FFF3C0;" d="M177.8,111.8l18.7,27.7l3.4-35.8C199.9,103.7,178,112.1,177.8,111.8z"/>
	<path style="fill:#FFF3C0;" d="M77.9,111.8l-18.7,27.7l-3.4-35.8C55.8,103.7,77.6,112.1,77.9,111.8z"/>
	<g>
		<path style="fill:#440638;" d="M129.7,120c-13.7,0-26-1.6-36.5-3.7c-32.9-6.6-54.8-19.9-55-20.1c-0.7-0.4-0.9-1.4-0.5-2.1
			c0.4-0.7,1.4-0.9,2.1-0.5c0.2,0.1,21.7,13.2,54.1,19.7c29.8,6,75.3,7.4,122.3-19.7c0.7-0.4,1.6-0.2,2,0.6c0.4,0.7,0.2,1.6-0.6,2
			C186.3,114.4,155.7,120,129.7,120z"/>
	</g>
</g>
</svg>
