<?xml version="1.0" encoding="utf-8"?>
<!-- Generator: Adobe Illustrator 22.1.0, SVG Export Plug-In . SVG Version: 6.00 Build 0)  -->
<svg version="1.1" id="Layer_1" xmlns="http://www.w3.org/2000/svg" xmlns:xlink="http://www.w3.org/1999/xlink" x="0px" y="0px"
	 viewBox="0 0 257 218" style="enable-background:new 0 0 257 218;" xml:space="preserve">
<g>
	<path style="fill:#EAED88;" d="M36.3,81.2c0,0-5.6,16.1,0,20.1c5.6,4,14.5,6.4,17.7,6.4s13.4-18.5,13.4-18.5S45.9,71.5,36.3,81.2z"
		/>
	<path style="fill:#EAED88;" d="M222.5,77.3c0,0,6.6,7.9,11.2,6c4.6-1.9,9.5-7.1,10.7-9.1c1.2-2-10.7-14.1-10.7-14.1
		S231.2,69.3,222.5,77.3z"/>
	<path style="fill:#EAED88;" d="M77.5,92.3c0,0-12.5,14.1-9,16.7c3.5,2.5,15.8,9.7,23.8,7.5c8-2.2,6.3-19.1,6.3-19.1
		S80,95.5,77.5,92.3z"/>
	<path style="fill:#EAED88;" d="M105.7,105c0,0-3.8,20.2,3.3,21.3s15-0.2,19.3-0.7c4.3-0.5,2-20.2,2-20.2S116.1,104.2,105.7,105z"/>
	<path style="fill:#EAED88;" d="M137.3,108.4c0,0-3.7,19.5,3.2,20.5c6.9,1,14.5-0.2,18.6-0.7s1.9-19.5,1.9-19.5
		S147.4,107.6,137.3,108.4z"/>
	<path style="fill:#EAED88;" d="M202.7,92.6c0,0,8.1,18.1,14.4,15c6.3-3.1,11.8-8.4,14.9-11.2c3.1-2.8-9.6-17.1-9.6-17.1
		S210.5,86.2,202.7,92.6z"/>
	<path style="fill:#EF1B52;" d="M163.9,105.8c0,0,0,18.3-7.7,37.5s9.6,37.5,41.4,29.8s29.8-34.7,22.1-47.2s-20.9-32.9-20.9-32.9
		S170.7,107.7,163.9,105.8z"/>
	<path style="fill:#F93D77;" d="M186,103.2c0.7,3.1,1.2,6.1,1.6,9.2c0.4,3.1,0.8,6.1,1,9.2c0.2,3.1,0.3,6.2,0.2,9.3
		c-0.1,3.1-0.4,6.2-1.2,9.2c-0.1,0.3-0.4,0.5-0.7,0.4c-0.3-0.1-0.5-0.3-0.4-0.6l0,0c0.2-3,0-5.9-0.4-8.9c-0.4-2.9-1-5.9-1.7-8.7
		c-0.7-2.9-1.5-5.7-2.4-8.6c-0.9-2.8-1.9-5.7-3-8.3l0,0c-0.8-1.9,0.1-4,2-4.8c1.9-0.8,4,0.1,4.8,2C185.9,102.8,186,103,186,103.2z"
		/>
	<path style="fill:#680066;" d="M24.7,63.9c1.8,1.3,3.8,2.6,5.8,3.9c2,1.3,4.1,2.5,6.1,3.7c2.1,1.2,4.1,2.4,6.2,3.6
		c2.1,1.1,4.2,2.3,6.3,3.4c8.5,4.5,17.3,8.3,26.2,11.9c17.9,7,36.6,12.2,55.6,14.2c9.5,0.9,19.1,1.1,28.6,0.1
		c4.7-0.5,9.4-1.3,14-2.6c4.6-1.2,9.1-2.8,13.3-4.8c8.6-3.9,16.3-9.5,22.5-16.3c3.1-3.4,5.9-7.1,8.3-11.1c2.4-3.9,4.3-8.1,5.9-12.4
		l0,0c1.5-3.9,5.8-5.9,9.7-4.5c3.9,1.5,5.9,5.8,4.5,9.7c-0.3,0.8-0.7,1.5-1.2,2.1c-3.3,4.1-6.5,8.2-10.1,11.9
		c-3.6,3.7-7.3,7.3-11.3,10.5c-8,6.4-16.9,11.5-26.3,15c-4.7,1.8-9.5,3.2-14.3,4.4c-4.9,1.1-9.7,1.9-14.7,2.5
		c-4.9,0.6-9.9,0.8-14.8,0.9c-4.9,0-9.9-0.1-14.8-0.5c-19.7-1.6-38.9-6-57.8-11.6c-9.5-2.8-18.7-6.1-28-9.5
		c-4.6-1.8-9.2-3.6-13.8-5.4l-6.9-2.9c-2.3-1-4.5-2-7-3.1l0,0c-3.8-1.7-5.4-6.2-3.7-10c1.7-3.8,6.2-5.4,10-3.7
		C23.9,63.3,24.3,63.6,24.7,63.9z"/>
</g>
</svg>
