<?xml version="1.0" encoding="utf-8"?>
<!-- Generator: Adobe Illustrator 22.1.0, SVG Export Plug-In . SVG Version: 6.00 Build 0)  -->
<svg version="1.1" id="Layer_1" xmlns="http://www.w3.org/2000/svg" xmlns:xlink="http://www.w3.org/1999/xlink" x="0px" y="0px"
	 viewBox="0 0 136 98" style="enable-background:new 0 0 136 98;" xml:space="preserve">
<g>
	<path style="fill:#67E249;" d="M65,42.5V52c0,0-5.8,7.8-13.6,13.8c-5.1,3.9-11,7.1-16.6,6.7c-1.7-0.1-3.4-0.6-5.1-1.5
		c-14.9-8.1,4.7-23.7,4.7-23.7s-1.4-0.6-3.3-1.8c-4.1-2.6-10.4-8.1-9.1-16.5c0.3-1.9,1-3.9,2.2-6.1c4.3-8,14.2-3.4,23.2,3.4
		c5.6,4.2,10.8,9.3,14.1,12.6C63.7,41.1,65,42.5,65,42.5z"/>
	<path style="fill:#67E249;" d="M114.4,65c-0.6,2.2-2.2,4.2-5.3,6c-7.4,4-16.1-0.6-23-6.3C79,58.9,73.8,52,73.8,52v-9.5
		c0,0,5.7-6.4,12.9-12.6c4.9-4.2,10.6-8.3,15.6-10.2c5.1-1.9,9.6-1.6,12.1,3.2c8.8,16.3-10.2,24.4-10.2,24.4s0.5,0.4,1.2,1
		C108.5,50.9,116.1,58.5,114.4,65z"/>
	<path style="fill:#1DA052;" d="M83.3,47.3c0,7.9-6.4,14.2-14.2,14.2s-14.2-6.4-14.2-14.2c0-6.1,3.8-11.2,9.1-13.3
		c1.6-0.6,3.3-0.9,5.1-0.9c5.5,0,10.2,3.1,12.6,7.6c0,0,0,0,0,0C82.7,42.7,83.3,44.9,83.3,47.3z"/>
	<path style="opacity:0.2;fill:#1DA052;" d="M51.5,65.8c-5.1,3.9-11,7.1-16.6,6.7c-1.5-1.7-2.3-3.8-2.3-6.2c0-5.2,4.2-9.5,9.5-9.5
		C47.1,56.7,51.2,60.8,51.5,65.8z"/>
	<path style="fill:#148C44;" d="M81.7,40.7C81.7,40.7,81.7,40.7,81.7,40.7c-0.5,1.2-1.2,2.3-2.2,3.2c-3.8,3.7-9.8,3.6-13.4-0.2
		C63.6,41,62.9,37.3,64,34c1.6-0.6,3.3-0.9,5.1-0.9C74.6,33,79.3,36.1,81.7,40.7z"/>
	<path style="opacity:0.2;fill:#1DA052;" d="M35.2,37.8c0,3.2-1.6,6-3.9,7.7c-4.1-2.6-10.4-8.1-9.1-16.5c1.1-0.4,2.3-0.7,3.5-0.7
		C31,28.3,35.2,32.5,35.2,37.8z"/>
	<path style="opacity:0.2;fill:#1DA052;" d="M61.6,38.9c-1.7,2.2-4.4,3.6-7.4,3.6c-5.2,0-9.5-4.2-9.5-9.5c0-2.7,1.1-5.1,2.9-6.8
		C53.2,30.5,58.4,35.6,61.6,38.9z"/>
	<path style="opacity:0.2;fill:#1DA052;" d="M105,26.3c0,5.2-4.2,9.5-9.5,9.5c-3.9,0-7.3-2.4-8.8-5.8c4.9-4.2,10.6-8.3,15.6-10.2
		C104,21.4,105,23.7,105,26.3z"/>
	<path style="opacity:0.2;fill:#1DA052;" d="M89.4,57.4c0,2.9-1.3,5.5-3.4,7.3C79,58.9,73.8,52,73.8,52v-1.8
		c1.7-1.4,3.8-2.2,6.1-2.2C85.2,47.9,89.4,52.2,89.4,57.4z"/>
	<path style="opacity:0.2;fill:#1DA052;" d="M114.4,65c-1.4,0.8-3,1.2-4.7,1.2c-5.2,0-9.5-4.2-9.5-9.5c0-3.7,2.1-6.9,5.2-8.5
		C108.5,50.9,116.1,58.5,114.4,65z"/>
</g>
</svg>
