<?xml version="1.0" encoding="utf-8"?>
<!-- Generator: Adobe Illustrator 22.1.0, SVG Export Plug-In . SVG Version: 6.00 Build 0)  -->
<svg version="1.1" id="Layer_1" xmlns="http://www.w3.org/2000/svg" xmlns:xlink="http://www.w3.org/1999/xlink" x="0px" y="0px"
	 viewBox="0 0 221 123" style="enable-background:new 0 0 221 123;" xml:space="preserve">
<g>
	<path d="M139.8,47.7c-3.5-1.7-7.3-2.8-11.2-3c-7.8-0.4-23.1,3.2-19.6,20.3c5,25,55,21,74,8s31-30,18-41s-27,8-16,14
		c0,0-2.3-4.4-1-8c1.4-3.9,6.9-5.2,12-1c6,5-6,22-20,23C159,61.2,150.7,53,139.8,47.7z"/>
	<path d="M81.1,47.7c3.5-1.7,7.3-2.8,11.2-3c7.8-0.4,23.1,3.2,19.6,20.3c-5,25-55,21-74,8s-31-30-18-41s27,8,16,14c0,0,2.3-4.4,1-8
		c-1.4-3.9-6.9-5.2-12-1c-6,5,6,22,20,23C62,61.2,70.2,53,81.1,47.7z"/>
</g>
</svg>
