<?xml version="1.0" encoding="utf-8"?>
<!-- Generator: Adobe Illustrator 22.1.0, SVG Export Plug-In . SVG Version: 6.00 Build 0)  -->
<svg version="1.1" id="Layer_1" xmlns="http://www.w3.org/2000/svg" xmlns:xlink="http://www.w3.org/1999/xlink" x="0px" y="0px"
	 viewBox="0 0 257 218" style="enable-background:new 0 0 257 218;" xml:space="preserve">
<g>
	<path style="fill:#03223F;" d="M35.4,113.6c-8.5-3.7-15.5-10.4-18.9-19.1c-2.9-7.5-3-16,6.5-21.7C49,57.3,64.6,91,83.6,87.5
		c14.5-2.6,23.3-27.7,49.3-18.2c18.4,6.7,27.7,22.5,45.8,18.2c24.3-5.8,29-28,47.6-18.2c27.7,14.7,17.3,35.5-3.5,40.6
		c-27,6.8-16.4,23.3-32,32.9c-14.1,8.6-32.7,5-50.2-4.3c-25.9-13.8-40.7,12.2-66.6,6.1C60.9,141.5,56.1,122.5,35.4,113.6z"/>
	<path style="fill:#EAED88;" d="M30,72c0,0-6.1,17.3,0,21.6s15.6,6.9,19,6.9c3.5,0,14.4-19.9,14.4-19.9S40.4,61.6,30,72z"/>
	<path style="fill:#EAED88;" d="M70.1,84.7c0,0-9.4,18-5.1,19.7c4.3,1.7,19,6.1,26.8,1.7s1.7-21.6,1.7-21.6S73.5,87.5,70.1,84.7z"/>
	<path style="fill:#EAED88;" d="M101.3,80.2c0,0,0,17.3,7.8,16.4s15.6-4.3,19.9-6.1c4.3-1.7-3.5-21.6-3.5-21.6
		S107.4,67.2,101.3,80.2z"/>
	<path style="fill:#EAED88;" d="M58.9,133.7c0,0,0-17.3,7.8-16.4s15.6,4.3,19.9,6.1c4.3,1.7-3.5,21.6-3.5,21.6S65,146.7,58.9,133.7z
		"/>
	<path style="fill:#EAED88;" d="M139.4,75c0,0-2.6,14.7,0,18.2s9.5,10.4,16.4,9.5s11.2-12.1,10.4-13.8
		C165.3,87.1,144.6,74.1,139.4,75z"/>
	<path style="fill:#EAED88;" d="M129.9,136.5c0,0-20.1-3-23.4-0.2c0,0-9.4-18-5.1-19.7c3-1.2,11.1-3.7,18.3-3.6l2.4,7.8v-7.7
		c2.2,0.2,4.3,0.8,6.1,1.7C135.9,119.2,129.9,136.5,129.9,136.5z"/>
	<path style="fill:#EAED88;" d="M175.7,146c0,0-2.6-14.7,0-18.2s9.5-10.4,16.4-9.5s11.2,12.1,10.4,13.8
		C201.6,133.9,180.9,146.9,175.7,146z"/>
	<path style="fill:#EAED88;" d="M205.9,100.1c-0.1,0.2-0.3,0.5-0.6,0.7l-0.4-0.5c-0.5-0.6-1.2-1-2-1c-0.8,0-1.6,0.4-2.1,1.1
		l-2.6,3.6c-6,1.5-14,2.2-18.2,2.2c-6.9,0-1.7-19-1.7-19s18.2-6.1,20.8-6.9C201.6,79.3,208.5,95.7,205.9,100.1z"/>
	<path style="fill:#EAED88;" d="M142.8,137.2c0,0-5.2-19,1.7-19s23.3,1.7,25.9,6.1c2.6,4.3-4.3,20.8-6.9,19.9
		C161,143.2,142.8,137.2,142.8,137.2z"/>
	<path style="fill:#EAED88;" d="M206.8,75c0,0,0.9,18.2,6.1,18.2c5.2,0,14.7,0,17.3-1.7c2.6-1.7,2.6-19.9,2.6-19.9
		S212.9,64.6,206.8,75z"/>
	<g>
		<path style="fill:#A61CBA;" d="M172.4,151.6c-10.2,0-21.6-3.2-33.6-9.6c-12.6-6.7-22-2.9-32.9,1.5c-9.3,3.7-19.8,8-32.7,4.9
			c-7.5-1.8-12.4-7.5-17.7-13.6c-5.4-6.2-11.5-13.3-21.6-17.6l0,0c-9.9-4.3-17.3-11.8-21-21.2c-4.4-11.3-1.5-20.7,8.2-26.5
			c17.4-10.4,31-1.2,42,6.2c7.3,4.9,13.6,9.2,19.9,8c4.1-0.8,8-4.1,12.6-7.9c8.9-7.6,19.9-17,38.8-10.1c7.2,2.6,13.1,6.6,18.3,10
			c8.6,5.8,15.5,10.3,25.3,8c9.5-2.3,15.8-7.4,21.4-11.9c7.8-6.3,15.9-12.8,28.8-5.9c17.9,9.5,19.4,20.6,18.7,26.3
			c-1.2,9.9-10.3,18.3-23.1,21.5c-14,3.5-16.3,9.4-18.9,16.3c-2.1,5.4-4.4,11.5-12,16.1C186.9,149.8,180,151.6,172.4,151.6z
			 M125.2,130.5c5.3,0,11,1.3,17.3,4.6c10.7,5.7,30.9,13.8,46.3,4.4c5.3-3.2,6.9-7.4,8.8-12.2c3-7.8,6.4-16.6,24.3-21.1
			c9.5-2.4,16.4-8.4,17.2-14.9c0.8-6.5-4.4-13.1-14.6-18.5c-8-4.3-12-1.5-20.3,5.1c-5.9,4.8-13.3,10.7-24.5,13.4
			c-13.1,3.1-22.4-3.1-31.4-9.1c-5.1-3.4-10.3-6.9-16.6-9.2c-14.6-5.3-22.6,1.5-31,8.7c-5.1,4.4-10,8.5-16.2,9.6
			c-9.4,1.7-17.6-3.9-25.6-9.2c-10.5-7.1-20.5-13.8-33.6-6c-4,2.4-8.9,6.8-4.9,17c2.9,7.5,8.9,13.5,16.8,16.9l0,0
			c11.7,5.1,18.7,13.2,24.4,19.7c4.8,5.5,8.6,9.9,13.6,11.1c10.5,2.5,19-1,28-4.6C110,133.4,117.2,130.5,125.2,130.5z"/>
	</g>
	<circle style="fill:#D8D864;" cx="123.8" cy="77.6" r="2.6"/>
	<circle style="fill:#F7F7A4;" cx="34.7" cy="77.6" r="2.6"/>
	<circle style="fill:#F7F7A4;" cx="108.2" cy="129.5" r="2.6"/>
	<circle style="fill:#D8D864;" cx="124.2" cy="84.9" r="1.3"/>
	<path style="fill:#D8D864;" d="M152.2,102.5l3.5-9.3l-1.7,9.5C154.1,102.7,153.2,102.7,152.2,102.5z"/>
	<path style="fill:#D8D864;" d="M187.5,118.8l2,7.2l0.9-7.8C190.4,118.2,188.7,118.2,187.5,118.8z"/>
</g>
</svg>
