<?xml version="1.0" encoding="utf-8"?>
<!-- Generator: Adobe Illustrator 22.1.0, SVG Export Plug-In . SVG Version: 6.00 Build 0)  -->
<svg version="1.1" id="Layer_1" xmlns="http://www.w3.org/2000/svg" xmlns:xlink="http://www.w3.org/1999/xlink" x="0px" y="0px"
	 viewBox="0 0 303 250" style="enable-background:new 0 0 303 250;" xml:space="preserve">
<g>
	
		<circle style="fill:none;stroke:#FFFFFF;stroke-width:10;stroke-linecap:round;stroke-linejoin:round;stroke-miterlimit:10;" cx="151" cy="127" r="43"/>
	
		<circle style="fill:none;stroke:#FFFFFF;stroke-width:10;stroke-linecap:round;stroke-linejoin:round;stroke-miterlimit:10;" cx="245" cy="75" r="9"/>
	
		<circle style="fill:none;stroke:#FFFFFF;stroke-width:10;stroke-linecap:round;stroke-linejoin:round;stroke-miterlimit:10;" cx="151" cy="127" r="43"/>
	<path style="fill:none;stroke:#FFFFFF;stroke-width:10;stroke-linecap:round;stroke-linejoin:round;stroke-miterlimit:10;" d="
		M242,48h-73v-7.9c0-6.7-5.4-12.1-12.1-12.1H96.1C89.4,28,84,33.4,84,40.1V48H60c-17.1,0-31,13.9-31,31V175c0,17.1,13.9,31,31,31
		H242c17.1,0,31-13.9,31-31V79C273,61.9,259.1,48,242,48z M151,170c-23.8,0-43-19.3-43-43s19.3-43,43-43s43,19.3,43,43
		S174.8,170,151,170z M245,84c-5,0-9-4-9-9c0-5,4-9,9-9s9,4,9,9C254,80,250,84,245,84z"/>
	
		<circle style="fill:none;stroke:#FFFFFF;stroke-width:10;stroke-linecap:round;stroke-linejoin:round;stroke-miterlimit:10;" cx="245" cy="75" r="9"/>
</g>
</svg>
