<?xml version="1.0" encoding="utf-8"?>
<!-- Generator: Adobe Illustrator 17.1.0, SVG Export Plug-In . SVG Version: 6.00 Build 0)  -->
<!DOCTYPE svg PUBLIC "-//W3C//DTD SVG 1.1//EN" "http://www.w3.org/Graphics/SVG/1.1/DTD/svg11.dtd" [
	<!ENTITY ns_flows "http://ns.adobe.com/Flows/1.0/">
	<!ENTITY ns_extend "http://ns.adobe.com/Extensibility/1.0/">
	<!ENTITY ns_ai "http://ns.adobe.com/AdobeIllustrator/10.0/">
	<!ENTITY ns_graphs "http://ns.adobe.com/Graphs/1.0/">
]>
<svg version="1.1" id="Layer_1" xmlns:x="&ns_extend;" xmlns:i="&ns_ai;" xmlns:graph="&ns_graphs;"
	 xmlns="http://www.w3.org/2000/svg" xmlns:xlink="http://www.w3.org/1999/xlink" xmlns:a="http://ns.adobe.com/AdobeSVGViewerExtensions/3.0/"
	 x="0px" y="0px" viewBox="0 0 256 256" style="enable-background:new 0 0 256 256;" xml:space="preserve">
<g>
	<path style="fill:#FFFFFF;" d="M217.1,195H53.9c-8.2,0-14.8-6.6-14.8-14.8v-89c0-8.2,6.6-14.8,14.8-14.8h163.1
		c8.2,0,14.8,6.6,14.8,14.8v89C231.8,188.4,225.2,195,217.1,195z"/>
	<circle style="fill:#F46134;" cx="58" cy="92.6" r="8"/>
	<path style="fill:#41475E;" d="M217.7,102.7h-36.9c-2.9,0-5.2-2.3-5.2-5.2V86.3c0-2.9,2.3-5.2,5.2-5.2h36.9c2.9,0,5.2,2.3,5.2,5.2
		v11.2C222.9,100.3,220.6,102.7,217.7,102.7z"/>
	<path style="opacity:0.5;fill:#FFFFFF;" d="M214.7,100.3h-31c-2.4,0-4.4-1.8-4.4-4.1v-8.7c0-2.2,2-4.1,4.4-4.1h31
		c2.4,0,4.4,1.8,4.4,4.1v8.7C219,98.5,217.1,100.3,214.7,100.3z"/>
	<g>
		<path style="fill:#F46134;" d="M95.4,138.3c0-11.4,4.8-21.7,12.4-29H39.2v60.3h71.2C101.2,162.2,95.4,151,95.4,138.3z"/>
		<path style="fill:#F46134;" d="M163.1,109.3c7.7,7.3,12.4,17.6,12.4,29c0,12.6-5.9,23.9-15,31.3H232v-60.3H163.1z"/>
	</g>
	<circle style="fill:#41475E;" cx="135.5" cy="138.3" r="35.6"/>
	<circle style="opacity:0.1;fill:#FFFFFF;" cx="135.5" cy="138.3" r="31.3"/>
	<circle style="fill:#41475E;" cx="135.5" cy="138.3" r="19.8"/>
	<circle style="opacity:0.2;fill:#FFFFFF;" cx="135.5" cy="138.3" r="3.3"/>
</g>
</svg>
