<?xml version="1.0" encoding="utf-8"?>
<!-- Generator: Adobe Illustrator 17.0.0, SVG Export Plug-In . SVG Version: 6.00 Build 0)  -->
<!DOCTYPE svg PUBLIC "-//W3C//DTD SVG 1.1//EN" "http://www.w3.org/Graphics/SVG/1.1/DTD/svg11.dtd">
<svg version="1.1" id="Layer_1" xmlns="http://www.w3.org/2000/svg" xmlns:xlink="http://www.w3.org/1999/xlink" x="0px" y="0px"
	 width="74.226px" height="186.885px" viewBox="0 0 74.226 186.885" enable-background="new 0 0 74.226 186.885"
	 xml:space="preserve">
<rect x="9.151" y="5.501" fill="#FFFFFF" width="55.924" height="36.66"/>
<g>
	<path fill="#FFFFFF" d="M69.352,38.503V8.231C69.352,3.692,65.537,0,60.846,0H13.38C8.689,0,4.874,3.692,4.874,8.231v30.272
		c-2.876,1.314-4.875,4.139-4.875,7.415v140.967h9.139V45.918c0-0.273,0.508-0.772,1.337-0.772H63.75
		c0.83,0,1.337,0.499,1.337,0.772v140.967h9.139V45.918C74.227,42.641,72.228,39.816,69.352,38.503z M15.38,9.513h43.466
		c0.848,0,1.367,0.518,1.367,0.8v27.402h-46.2V10.313C14.013,10.031,14.532,9.513,15.38,9.513z"/>
	<rect x="3.569" y="153.488" fill="#FFFFFF" width="67.088" height="9.513"/>
	<rect x="3.569" y="123.617" fill="#FFFFFF" width="67.088" height="9.513"/>
</g>
</svg>
