<?xml version="1.0" encoding="utf-8"?>
<!-- Generator: Adobe Illustrator 17.1.0, SVG Export Plug-In . SVG Version: 6.00 Build 0)  -->
<!DOCTYPE svg PUBLIC "-//W3C//DTD SVG 1.1//EN" "http://www.w3.org/Graphics/SVG/1.1/DTD/svg11.dtd" [
	<!ENTITY ns_flows "http://ns.adobe.com/Flows/1.0/">
	<!ENTITY ns_extend "http://ns.adobe.com/Extensibility/1.0/">
	<!ENTITY ns_ai "http://ns.adobe.com/AdobeIllustrator/10.0/">
	<!ENTITY ns_graphs "http://ns.adobe.com/Graphs/1.0/">
]>
<svg version="1.1" id="Layer_1" xmlns:x="&ns_extend;" xmlns:i="&ns_ai;" xmlns:graph="&ns_graphs;"
	 xmlns="http://www.w3.org/2000/svg" xmlns:xlink="http://www.w3.org/1999/xlink" xmlns:a="http://ns.adobe.com/AdobeSVGViewerExtensions/3.0/"
	 x="0px" y="0px" viewBox="0 0 256 256" style="enable-background:new 0 0 256 256;" xml:space="preserve">
<g>
	<path style="fill:#FFFFFF;" d="M138.6,208.9h-23.8c-5.6,0-10.1-4.5-10.1-10.1V77.6l17.7-25.5c2.1-3,6.6-3,8.6,0l17.6,25.5v121.3
		C148.7,204.4,144.1,208.9,138.6,208.9z"/>
	<path style="fill:#F46134;" d="M144.2,78.4l-13.1-19.7c-2.1-3.1-6.7-3.1-8.8,0l-13.1,19.7l17.2-8L144.2,78.4z"/>
	<rect x="104.6" y="87.9" style="fill:#41475E;" width="24" height="6"/>
	<rect x="104.6" y="103" style="fill:#41475E;" width="14.5" height="6"/>
	<rect x="104.6" y="118.1" style="fill:#41475E;" width="24" height="6"/>
	<rect x="104.6" y="133.2" style="fill:#41475E;" width="14.5" height="6"/>
	<rect x="104.6" y="148.2" style="fill:#41475E;" width="24" height="6"/>
	<rect x="104.6" y="163.3" style="fill:#41475E;" width="14.5" height="6"/>
	<rect x="104.6" y="178.4" style="fill:#41475E;" width="24" height="6"/>
	<rect x="104.6" y="193.5" style="fill:#41475E;" width="14.5" height="6"/>
</g>
</svg>
