<?xml version="1.0" encoding="utf-8"?>
<!-- Generator: Adobe Illustrator 22.1.0, SVG Export Plug-In . SVG Version: 6.00 Build 0)  -->
<svg version="1.1" id="Layer_4" xmlns="http://www.w3.org/2000/svg" xmlns:xlink="http://www.w3.org/1999/xlink" x="0px" y="0px"
	 viewBox="0 0 86.8 256" style="enable-background:new 0 0 86.8 256;" xml:space="preserve">
<g>
	<g style="opacity:0;">
		<path style="fill:#FFFFFF;" d="M86.8,256h-5.3V67.8c0-1.9-1.5-3.5-3.4-3.5H8.8c-1.9,0-3.4,1.6-3.4,3.5V256H0V67.8
			C0,62.9,4,59,8.8,59H78c4.8,0,8.8,4,8.8,8.9V256z"/>
		<g>
			<rect x="65.2" y="249.7" style="fill:#FFFFFF;" width="5.3" height="6.3"/>
			<path style="fill:#FFFFFF;" d="M67.8,253c-1.5,0-2.7-1.2-2.7-2.7V80c0-1.9-1.5-3.4-3.4-3.4H46.3c-1.5,0-2.7-1.2-2.7-2.7
				c0-1.5,1.2-2.7,2.7-2.7h15.5c4.8,0,8.7,4,8.7,8.8v170.3C70.5,251.8,69.3,253,67.8,253z"/>
			<path style="fill:#FFFFFF;" d="M67.8,113.8H35.9c-1.5,0-2.7-1.2-2.7-2.7c0-1.5,1.2-2.7,2.7-2.7h31.9c1.5,0,2.7,1.2,2.7,2.7
				C70.5,112.6,69.3,113.8,67.8,113.8z"/>
			<path style="fill:#FFFFFF;" d="M67.8,150.9H35.9c-1.5,0-2.7-1.2-2.7-2.7c0-1.5,1.2-2.7,2.7-2.7h31.9c1.5,0,2.7,1.2,2.7,2.7
				C70.5,149.7,69.3,150.9,67.8,150.9z"/>
			<path style="fill:#FFFFFF;" d="M67.8,188.1H35.9c-1.5,0-2.7-1.2-2.7-2.7s1.2-2.7,2.7-2.7h31.9c1.5,0,2.7,1.2,2.7,2.7
				S69.3,188.1,67.8,188.1z"/>
			<path style="fill:#FFFFFF;" d="M67.8,225.3H35.9c-1.5,0-2.7-1.2-2.7-2.7c0-1.5,1.2-2.7,2.7-2.7h31.9c1.5,0,2.7,1.2,2.7,2.7
				C70.5,224.1,69.3,225.3,67.8,225.3z"/>
			<path style="fill:#FFFFFF;" d="M67.8,256H35.9c-1.5,0-2.7-1.2-2.7-2.7c0-1.5,1.2-2.7,2.7-2.7h31.9c1.5,0,2.7,1.2,2.7,2.7
				C70.5,254.8,69.3,256,67.8,256z"/>
		</g>
		<path style="fill:#FFFFFF;" d="M86.8,66.9h-5.3c0-0.1,0-0.2-0.1-0.2L43.8,5.6c-0.2-0.3-0.6-0.3-0.7,0L5.4,66.7
			c0,0.1-0.1,0.2-0.1,0.2H0c0-1.1,0.3-2.2,0.9-3.1L38.5,2.8C39.6,1,41.4,0,43.4,0s3.8,1,4.9,2.8l37.6,61.1
			C86.5,64.8,86.8,65.8,86.8,66.9z"/>
		<rect x="27.9" y="23.5" style="fill:#FFFFFF;" width="31.1" height="5.4"/>
	</g>
	<g>
		<path style="fill:#4BC8EA;" d="M33.5,22.5l9.8-15.9c0,0,0.1-0.1,0.2,0l9.8,15.9H33.5z"/>
		<polygon style="fill:#4BC8EA;" points="29.1,30.1 11.9,58.3 74.5,58.3 57.4,30.1 		"/>
	</g>
</g>
</svg>
