<?xml version="1.0" encoding="utf-8"?>
<!-- Generator: Adobe Illustrator 17.0.0, SVG Export Plug-In . SVG Version: 6.00 Build 0)  -->
<!DOCTYPE svg PUBLIC "-//W3C//DTD SVG 1.1//EN" "http://www.w3.org/Graphics/SVG/1.1/DTD/svg11.dtd">
<svg version="1.1" id="Layer_1" xmlns="http://www.w3.org/2000/svg" xmlns:xlink="http://www.w3.org/1999/xlink" x="0px" y="0px"
	 width="74.226px" height="186.885px" viewBox="0 0 74.226 186.885" enable-background="new 0 0 74.226 186.885"
	 xml:space="preserve">
<g>
	<g>
		<path fill="#FFFFFF" d="M74.226,33.75c0,2.75-2.25,5-5,5H5c-2.75,0-5-2.25-5-5V5c0-2.75,2.25-5,5-5h64.226c2.75,0,5,2.25,5,5
			V33.75z"/>
	</g>
	<path opacity="0" fill="#FFFFFF" d="M4.875,25.736C1.999,27.161,0,30.225,0,33.779V186.68h9.139V39.424
		c0-0.296,0.508-0.837,1.337-0.837H63.75c0.83,0,1.337,0.541,1.337,0.837V186.68h9.139V33.779c0-3.554-1.999-6.618-4.875-8.043
		L4.875,25.736z"/>
	<g opacity="0">
		<path fill="#FFFFFF" d="M35.624,54.708c0,2.326-2.25,4.229-5,4.229H8.886c-2.75,0-5-1.903-5-4.229s2.25-4.229,5-4.229h21.738
			C33.374,50.479,35.624,52.382,35.624,54.708z"/>
	</g>
	<g opacity="0">
		<path fill="#FFFFFF" d="M27.017,79.041c0,2.326-2.25,4.229-5,4.229H8.886c-2.75,0-5-1.903-5-4.229s2.25-4.229,5-4.229h13.131
			C24.767,74.812,27.017,76.715,27.017,79.041z"/>
	</g>
	<g opacity="0">
		<path fill="#FFFFFF" d="M27.017,103.374c0,2.326-2.25,4.229-5,4.229H8.886c-2.75,0-5-1.903-5-4.229c0-2.326,2.25-4.229,5-4.229
			h13.131C24.767,99.145,27.017,101.048,27.017,103.374z"/>
	</g>
	<g opacity="0">
		<path fill="#FFFFFF" d="M35.624,127.707c0,2.326-2.25,4.229-5,4.229H8.886c-2.75,0-5-1.903-5-4.229c0-2.326,2.25-4.229,5-4.229
			h21.738C33.374,123.478,35.624,125.381,35.624,127.707z"/>
	</g>
	<g opacity="0">
		<path fill="#FFFFFF" d="M24.914,152.039c0,2.326-2.25,4.229-5,4.229H8.886c-2.75,0-5-1.903-5-4.229s2.25-4.229,5-4.229h11.028
			C22.664,147.81,24.914,149.714,24.914,152.039z"/>
	</g>
	<g opacity="0">
		<path fill="#FFFFFF" d="M27.017,176.372c0,2.326-2.25,4.229-5,4.229H8.886c-2.75,0-5-1.903-5-4.229c0-2.326,2.25-4.229,5-4.229
			h13.131C24.767,172.143,27.017,174.046,27.017,176.372z"/>
	</g>
</g>
</svg>
