<?xml version="1.0" encoding="utf-8"?>
<!-- Generator: Adobe Illustrator 22.1.0, SVG Export Plug-In . SVG Version: 6.00 Build 0)  -->
<svg version="1.1" xmlns="http://www.w3.org/2000/svg" xmlns:xlink="http://www.w3.org/1999/xlink" x="0px" y="0px"
	 viewBox="0 0 256 256" style="enable-background:new 0 0 256 256;" xml:space="preserve">
<g id="Layer_1">
	<g style="opacity:0;">
		<g>
			<path style="fill:#FFFFFF;" d="M87.6,256h-5.4V67.8c0-1.9-1.6-3.5-3.5-3.5H8.9c-1.9,0-3.5,1.6-3.5,3.5V256H0V67.8
				C0,62.9,4,59,8.9,59h69.8c4.9,0,8.9,4,8.9,8.9V256z"/>
			<g>
				<rect x="65.7" y="249.7" style="fill:#FFFFFF;" width="5.4" height="6.3"/>
				<path style="fill:#FFFFFF;" d="M68.4,253c-1.5,0-2.7-1.2-2.7-2.7V80c0-1.9-1.5-3.4-3.4-3.4H46.7c-1.5,0-2.7-1.2-2.7-2.7
					c0-1.5,1.2-2.7,2.7-2.7h15.7c4.8,0,8.8,4,8.8,8.8v170.3C71.1,251.8,69.9,253,68.4,253z"/>
				<path style="fill:#FFFFFF;" d="M68.4,113.8H45.9c-1.5,0-2.7-1.2-2.7-2.7c0-1.5,1.2-2.7,2.7-2.7h22.6c1.5,0,2.7,1.2,2.7,2.7
					C71.1,112.6,69.9,113.8,68.4,113.8z"/>
				<path style="fill:#FFFFFF;" d="M68.4,150.9H45.9c-1.5,0-2.7-1.2-2.7-2.7c0-1.5,1.2-2.7,2.7-2.7h22.6c1.5,0,2.7,1.2,2.7,2.7
					C71.1,149.7,69.9,150.9,68.4,150.9z"/>
				<path style="fill:#FFFFFF;" d="M68.4,188.1H45.9c-1.5,0-2.7-1.2-2.7-2.7s1.2-2.7,2.7-2.7h22.6c1.5,0,2.7,1.2,2.7,2.7
					S69.9,188.1,68.4,188.1z"/>
				<path style="fill:#FFFFFF;" d="M68.4,225.3H45.9c-1.5,0-2.7-1.2-2.7-2.7c0-1.5,1.2-2.7,2.7-2.7h22.6c1.5,0,2.7,1.2,2.7,2.7
					C71.1,224.1,69.9,225.3,68.4,225.3z"/>
			</g>
			<path style="fill:#FFFFFF;" d="M87.6,66.9h-5.4c0-0.1,0-0.2-0.1-0.2l-38-61.1c-0.2-0.3-0.6-0.3-0.8,0l-38,61.1
				c0,0.1-0.1,0.2-0.1,0.2H0c0-1.1,0.3-2.2,0.9-3.1l38-61.1C39.9,1,41.8,0,43.8,0c2,0,3.9,1,5,2.8l38,61.1
				C87.3,64.8,87.6,65.8,87.6,66.9z"/>
			<rect x="28.1" y="23.5" style="fill:#FFFFFF;" width="31.4" height="5.4"/>
			<path style="fill:#FFFFFF;" d="M71.5,47.2h-25c-1.5,0-2.7-1.2-2.7-2.7s1.2-2.7,2.7-2.7h25c1.5,0,2.7,1.2,2.7,2.7
				S73,47.2,71.5,47.2z"/>
		</g>
	</g>
	<path style="fill:#FFFFFF;" d="M32.8,23.2L43.7,5.7c0-0.1,0.1-0.1,0.2,0l10.8,17.4H32.8z"/>
</g>
<g id="Layer_2">
</g>
</svg>
