<?xml version="1.0" encoding="utf-8"?>
<!-- Generator: Adobe Illustrator 22.1.0, SVG Export Plug-In . SVG Version: 6.00 Build 0)  -->
<svg version="1.1" id="Layer_4" xmlns="http://www.w3.org/2000/svg" xmlns:xlink="http://www.w3.org/1999/xlink" x="0px" y="0px"
	 viewBox="0 0 86.8 256" style="enable-background:new 0 0 86.8 256;" xml:space="preserve">
<g>
	<g style="opacity:0;">
		<path style="fill:#FFFFFF;" d="M86.8,256h-5.3V67.8c0-1.9-1.5-3.5-3.4-3.5H8.8c-1.9,0-3.4,1.6-3.4,3.5V256H0V67.8
			C0,62.9,4,59,8.8,59H78c4.8,0,8.8,4,8.8,8.9V256z"/>
		<g>
			<rect x="65.2" y="249.7" style="fill:#FFFFFF;" width="5.3" height="6.3"/>
			<path style="fill:#FFFFFF;" d="M67.8,253c-1.5,0-2.7-1.2-2.7-2.7V80c0-1.9-1.5-3.4-3.4-3.4H46.3c-1.5,0-2.7-1.2-2.7-2.7
				c0-1.5,1.2-2.7,2.7-2.7h15.5c4.8,0,8.7,4,8.7,8.8v170.3C70.5,251.8,69.3,253,67.8,253z"/>
			<path style="fill:#FFFFFF;" d="M67.8,95.2H35.9c-1.5,0-2.7-1.2-2.7-2.7c0-1.5,1.2-2.7,2.7-2.7h31.9c1.5,0,2.7,1.2,2.7,2.7
				C70.5,94,69.3,95.2,67.8,95.2z"/>
			<path style="fill:#FFFFFF;" d="M67.8,113.8H45.5c-1.5,0-2.7-1.2-2.7-2.7c0-1.5,1.2-2.7,2.7-2.7h22.4c1.5,0,2.7,1.2,2.7,2.7
				C70.5,112.6,69.3,113.8,67.8,113.8z"/>
			<path style="fill:#FFFFFF;" d="M67.8,132.4H35.9c-1.5,0-2.7-1.2-2.7-2.7s1.2-2.7,2.7-2.7h31.9c1.5,0,2.7,1.2,2.7,2.7
				S69.3,132.4,67.8,132.4z"/>
			<path style="fill:#FFFFFF;" d="M67.8,150.9H45.5c-1.5,0-2.7-1.2-2.7-2.7c0-1.5,1.2-2.7,2.7-2.7h22.4c1.5,0,2.7,1.2,2.7,2.7
				C70.5,149.7,69.3,150.9,67.8,150.9z"/>
			<path style="fill:#FFFFFF;" d="M67.8,169.5H35.9c-1.5,0-2.7-1.2-2.7-2.7c0-1.5,1.2-2.7,2.7-2.7h31.9c1.5,0,2.7,1.2,2.7,2.7
				C70.5,168.3,69.3,169.5,67.8,169.5z"/>
			<path style="fill:#FFFFFF;" d="M67.8,188.1H45.5c-1.5,0-2.7-1.2-2.7-2.7s1.2-2.7,2.7-2.7h22.4c1.5,0,2.7,1.2,2.7,2.7
				S69.3,188.1,67.8,188.1z"/>
			<path style="fill:#FFFFFF;" d="M67.8,206.7H35.9c-1.5,0-2.7-1.2-2.7-2.7c0-1.5,1.2-2.7,2.7-2.7h31.9c1.5,0,2.7,1.2,2.7,2.7
				C70.5,205.5,69.3,206.7,67.8,206.7z"/>
			<path style="fill:#FFFFFF;" d="M67.8,225.3H45.5c-1.5,0-2.7-1.2-2.7-2.7c0-1.5,1.2-2.7,2.7-2.7h22.4c1.5,0,2.7,1.2,2.7,2.7
				C70.5,224.1,69.3,225.3,67.8,225.3z"/>
			<path style="fill:#FFFFFF;" d="M67.8,243.9H35.9c-1.5,0-2.7-1.2-2.7-2.7s1.2-2.7,2.7-2.7h31.9c1.5,0,2.7,1.2,2.7,2.7
				S69.3,243.9,67.8,243.9z"/>
		</g>
		<g>
			<path style="fill:#FFFFFF;" d="M29.7,95.6h-3.5v-1h1.2v-3.5l-1.2,0.3v-1l2.4-0.5v4.8h1.2V95.6z"/>
		</g>
		<g>
			<path style="fill:#FFFFFF;" d="M27.8,131.1L27.8,131.1l2.3,0v1h-3.7v-1l1.6-1.5c0.3-0.3,0.5-0.6,0.7-0.8c0.1-0.2,0.2-0.4,0.2-0.7
				c0-0.5-0.3-0.8-0.8-0.8c-0.5,0-0.9,0.2-1.4,0.6v-1.1c0.5-0.3,1-0.5,1.6-0.5c0.6,0,1,0.1,1.3,0.4s0.5,0.7,0.5,1.2
				c0,0.7-0.4,1.3-1.2,2L27.8,131.1z"/>
		</g>
		<g>
			<path style="fill:#FFFFFF;" d="M26.6,168.9v-1.1c0.4,0.3,0.8,0.4,1.3,0.4c0.3,0,0.6-0.1,0.7-0.2c0.2-0.1,0.3-0.3,0.3-0.6
				c0-0.3-0.1-0.4-0.3-0.6c-0.2-0.1-0.5-0.2-0.9-0.2h-0.5v-1h0.5c0.7,0,1.1-0.2,1.1-0.7c0-0.5-0.3-0.7-0.8-0.7
				c-0.4,0-0.7,0.1-1.1,0.4v-1c0.4-0.2,0.9-0.3,1.4-0.3c0.6,0,1,0.1,1.3,0.4c0.3,0.3,0.5,0.6,0.5,1c0,0.7-0.4,1.2-1.1,1.4v0
				c0.4,0.1,0.7,0.2,0.9,0.4c0.2,0.2,0.3,0.5,0.3,0.9c0,0.5-0.2,0.9-0.6,1.3c-0.4,0.3-0.9,0.5-1.6,0.5
				C27.4,169.2,26.9,169.1,26.6,168.9z"/>
		</g>
		<g>
			<path style="fill:#FFFFFF;" d="M30.4,204.9h-0.7v1.2h-1.1v-1.2h-2.4v-0.8l2.3-3.7h1.2v3.6h0.7V204.9z M28.6,201.7L28.6,201.7
				c-0.1,0.1-0.1,0.2-0.2,0.4l-1.2,1.9h1.4v-1.8C28.6,202.1,28.6,201.9,28.6,201.7z"/>
		</g>
		<g>
			<path style="fill:#FFFFFF;" d="M26.6,243.7v-1.1c0.4,0.2,0.8,0.4,1.2,0.4c0.3,0,0.6-0.1,0.8-0.2c0.2-0.2,0.3-0.4,0.3-0.6
				c0-0.6-0.4-0.8-1.2-0.8c-0.3,0-0.6,0-0.9,0.1v-3.2h3.1v1h-2v1.1c0.2,0,0.3,0,0.5,0c0.6,0,1,0.2,1.4,0.5c0.3,0.3,0.5,0.7,0.5,1.2
				c0,0.6-0.2,1-0.6,1.4c-0.4,0.4-0.9,0.5-1.6,0.5C27.4,244,27,243.9,26.6,243.7z"/>
		</g>
		<path style="fill:#FFFFFF;" d="M86.8,66.9h-5.3c0-0.1,0-0.2-0.1-0.2L43.8,5.6c-0.2-0.3-0.6-0.3-0.7,0L5.4,66.7
			c0,0.1-0.1,0.2-0.1,0.2H0c0-1.1,0.3-2.2,0.9-3.1L38.5,2.8C39.6,1,41.4,0,43.4,0s3.8,1,4.9,2.8l37.6,61.1
			C86.5,64.8,86.8,65.8,86.8,66.9z"/>
		<rect x="27.9" y="23.5" style="fill:#FFFFFF;" width="31.1" height="5.4"/>
	</g>
	<g>
		<path style="fill:#4BC8EA;" d="M33.5,22.4l9.8-15.9c0,0,0.1-0.1,0.2,0l9.8,15.9H33.5z"/>
		<polygon style="fill:#4BC8EA;" points="29.1,30.1 11.8,58.3 74.5,58.3 57.4,30.1 		"/>
	</g>
</g>
</svg>
