<?xml version="1.0" encoding="utf-8"?>
<!-- Generator: Adobe Illustrator 17.0.0, SVG Export Plug-In . SVG Version: 6.00 Build 0)  -->
<!DOCTYPE svg PUBLIC "-//W3C//DTD SVG 1.1//EN" "http://www.w3.org/Graphics/SVG/1.1/DTD/svg11.dtd">
<svg version="1.1" id="Layer_1" xmlns="http://www.w3.org/2000/svg" xmlns:xlink="http://www.w3.org/1999/xlink" x="0px" y="0px"
	 width="74.226px" height="186.885px" viewBox="0 0 74.226 186.885" enable-background="new 0 0 74.226 186.885"
	 xml:space="preserve">
<g>
	<path fill="#FFFFFF" d="M74.07,52.777c-0.144-0.869-0.458-1.7-0.946-2.448L42.168,3.204c-1.137-1.732-3.037-2.767-5.084-2.767
		h-0.003c-2.045,0-3.947,1.033-5.085,2.765L1.034,50.337C0.358,51.372,0,52.578,0,53.823v4.735l0.119,127.891h9.772V58.557h54.563
		v127.891h9.772V52.777H74.07z M12.624,49.034L37.082,10.91L61.54,49.034H12.624z"/>
	<g>
		<path fill="#FFFFFF" d="M40.512,72.572c0,2.2-1.8,4-4,4H8.111c-2.2,0-4-1.8-4-4v-1.523c0-2.2,1.8-4,4-4h28.401c2.2,0,4,1.8,4,4
			V72.572z"/>
	</g>
	<g>
		<path fill="#FFFFFF" d="M29.804,97.925c0,2.2-1.8,4-4,4H8.152c-2.2,0-4-1.8-4-4v-1.523c0-2.2,1.8-4,4-4h17.652c2.2,0,4,1.8,4,4
			V97.925z"/>
	</g>
	<g>
		<path fill="#FFFFFF" d="M22.312,123.2c0,2.2-1.8,4-4,4H8.152c-2.2,0-4-1.8-4-4v-1.523c0-2.2,1.8-4,4-4h10.16c2.2,0,4,1.8,4,4
			V123.2z"/>
	</g>
	<g>
		<path fill="#FFFFFF" d="M40.512,148.474c0,2.2-1.8,4-4,4H8.152c-2.2,0-4-1.8-4-4v-1.523c0-2.2,1.8-4,4-4h28.36c2.2,0,4,1.8,4,4
			V148.474z"/>
	</g>
	<g>
		<path fill="#FFFFFF" d="M29.804,173.749c0,2.2-1.8,4-4,4H8.152c-2.2,0-4-1.8-4-4v-1.523c0-2.2,1.8-4,4-4h17.652c2.2,0,4,1.8,4,4
			V173.749z"/>
	</g>
</g>
</svg>
