<?xml version="1.0" encoding="utf-8"?>
<!-- Generator: Adobe Illustrator 17.1.0, SVG Export Plug-In . SVG Version: 6.00 Build 0)  -->
<!DOCTYPE svg PUBLIC "-//W3C//DTD SVG 1.1//EN" "http://www.w3.org/Graphics/SVG/1.1/DTD/svg11.dtd" [
	<!ENTITY ns_flows "http://ns.adobe.com/Flows/1.0/">
	<!ENTITY ns_extend "http://ns.adobe.com/Extensibility/1.0/">
	<!ENTITY ns_ai "http://ns.adobe.com/AdobeIllustrator/10.0/">
	<!ENTITY ns_graphs "http://ns.adobe.com/Graphs/1.0/">
]>
<svg version="1.1" id="Layer_1" xmlns:x="&ns_extend;" xmlns:i="&ns_ai;" xmlns:graph="&ns_graphs;"
	 xmlns="http://www.w3.org/2000/svg" xmlns:xlink="http://www.w3.org/1999/xlink" xmlns:a="http://ns.adobe.com/AdobeSVGViewerExtensions/3.0/"
	 x="0px" y="0px" viewBox="0 0 256 256" style="enable-background:new 0 0 256 256;" xml:space="preserve">
<g>
	<g>
		<path style="fill:#FFFFFF;" d="M131.3,134.7L131.3,134.7c-12.9,0-23.4-10.5-23.4-23.4v-36c0-12.9,10.5-23.4,23.4-23.4h0
			c12.9,0,23.4,10.5,23.4,23.4v36C154.7,124.2,144.2,134.7,131.3,134.7z"/>
		<path style="fill:#F46134;" d="M130.8,205.2c-3.5-0.2-6.1-3.3-6.1-6.8v-40.1c0-3.5,2.6-6.7,6.1-6.8c3.7-0.2,6.7,2.8,6.7,6.4v41
			C137.5,202.4,134.5,205.4,130.8,205.2z"/>
		<path style="fill:#F46134;" d="M129.5,164.2c-28.8-0.8-51.3-25.2-51.3-54l0-14.8c0-3.5,2.6-6.7,6.1-6.8c3.7-0.2,6.7,2.8,6.7,6.4
			v15.4c0,20.8,15.6,38.9,36.3,40.8c23.7,2.1,43.7-16.6,43.7-39.8l0-16c0-3.5,2.6-6.7,6.1-6.8c3.7-0.2,6.7,2.8,6.7,6.4v16.4
			C183.9,141,159.4,165.1,129.5,164.2z"/>
		<path style="fill:#FFFFFF;" d="M157.2,205.2l-51.4,0c-2.8,0-5.5-1.7-6.4-4.4c-1.4-4.4,1.9-8.5,6.1-8.5l51.4,0
			c2.8,0,5.5,1.7,6.4,4.4C164.6,201.1,161.4,205.2,157.2,205.2z"/>
		<g>
			<circle style="fill:#41475E;" cx="115.7" cy="70.7" r="3.8"/>
			<circle style="fill:#41475E;" cx="126" cy="70.7" r="3.8"/>
			<circle style="fill:#41475E;" cx="136.4" cy="70.6" r="3.8"/>
			<circle style="fill:#41475E;" cx="125.9" cy="60.3" r="3.8"/>
			<circle style="fill:#41475E;" cx="136.3" cy="60.2" r="3.8"/>
			<circle style="fill:#41475E;" cx="146.8" cy="70.6" r="3.8"/>
			<circle style="fill:#41475E;" cx="116" cy="82.5" r="3.8"/>
			<circle style="fill:#41475E;" cx="126.3" cy="82.5" r="3.8"/>
			<circle style="fill:#41475E;" cx="136.6" cy="82.5" r="3.8"/>
			<circle style="fill:#41475E;" cx="147" cy="82.4" r="3.8"/>
			<circle style="fill:#41475E;" cx="116.2" cy="94.3" r="3.8"/>
			<circle style="fill:#41475E;" cx="126.5" cy="94.3" r="3.8"/>
			<circle style="fill:#41475E;" cx="136.9" cy="94.3" r="3.8"/>
			<circle style="fill:#41475E;" cx="147.3" cy="94.3" r="3.8"/>
			<circle style="fill:#41475E;" cx="116.5" cy="106.1" r="3.8"/>
			<circle style="fill:#41475E;" cx="126.8" cy="106.1" r="3.8"/>
			<circle style="fill:#41475E;" cx="137.1" cy="106.1" r="3.8"/>
			<circle style="fill:#41475E;" cx="147.5" cy="106.1" r="3.8"/>
			<circle style="fill:#41475E;" cx="116.7" cy="117.9" r="3.8"/>
			<circle style="fill:#41475E;" cx="127" cy="118" r="3.8"/>
			<circle style="fill:#41475E;" cx="137.4" cy="117.9" r="3.8"/>
			<circle style="fill:#41475E;" cx="126.4" cy="128.3" r="3.8"/>
			<circle style="fill:#41475E;" cx="136.8" cy="128.2" r="3.8"/>
			<circle style="fill:#41475E;" cx="147.8" cy="117.9" r="3.8"/>
		</g>
	</g>
</g>
</svg>
