<?xml version="1.0" encoding="utf-8"?>
<!-- Generator: Adobe Illustrator 17.0.0, SVG Export Plug-In . SVG Version: 6.00 Build 0)  -->
<!DOCTYPE svg PUBLIC "-//W3C//DTD SVG 1.1//EN" "http://www.w3.org/Graphics/SVG/1.1/DTD/svg11.dtd">
<svg version="1.1" id="Layer_1" xmlns="http://www.w3.org/2000/svg" xmlns:xlink="http://www.w3.org/1999/xlink" x="0px" y="0px"
	 width="74.226px" height="186.885px" viewBox="0 0 74.226 186.885" enable-background="new 0 0 74.226 186.885"
	 xml:space="preserve">
<g>
	<path fill="#FFFFFF" d="M73.186,46.389L42.204,2.573C41.066,0.962,39.164,0,37.116,0h-0.003c-2.047,0-3.95,0.961-5.09,2.571
		L1.035,46.397C0.358,47.359,0,48.48,0,49.638v137.247h9.139V54.325h55.948v132.56h9.139V49.638
		C74.226,48.48,73.868,47.359,73.186,46.389z M37.113,9.739l24.479,35.446H12.635L37.113,9.739z"/>
	<path fill="#FFFFFF" d="M36.095,109.449c-2.721,0-4.926-1.38-4.926-3.082V61.435c0-1.702,2.205-3.082,4.926-3.082
		s4.926,1.38,4.926,3.082v44.932C41.02,108.07,38.815,109.449,36.095,109.449z"/>
	<path fill="#FFFFFF" d="M36.095,184.188c-2.721,0-4.926-1.598-4.926-3.57V115.73c0-1.972,2.205-3.57,4.926-3.57
		s4.926,1.598,4.926,3.57v64.888C41.02,182.59,38.815,184.188,36.095,184.188z"/>
</g>
</svg>
