<?xml version="1.0" encoding="utf-8"?>
<!-- Generator: Adobe Illustrator 22.1.0, SVG Export Plug-In . SVG Version: 6.00 Build 0)  -->
<svg version="1.1" id="Layer_4" xmlns="http://www.w3.org/2000/svg" xmlns:xlink="http://www.w3.org/1999/xlink" x="0px" y="0px"
	 viewBox="0 0 86.8 256" style="enable-background:new 0 0 86.8 256;" xml:space="preserve">
<g>
	<g>
		<path style="fill:#FFFFFF;" d="M86.8,256h-5.3V66.3c0-0.1,0-0.2-0.1-0.2L43.8,5.6c-0.2-0.3-0.6-0.3-0.7,0L5.4,66.1
			c0,0.1-0.1,0.1-0.1,0.2V256H0V66.3c0-1.1,0.3-2.1,0.9-3.1L38.5,2.7C39.6,1,41.4,0,43.4,0c2,0,3.8,1,4.9,2.7l37.6,60.6
			c0.6,0.9,0.9,2,0.9,3.1V256z"/>
		<rect x="2.7" y="62.4" style="fill:#FFFFFF;" width="81.5" height="5.3"/>
		<rect x="27.8" y="23.3" style="fill:#FFFFFF;" width="31.1" height="5.3"/>
	</g>
	<path style="fill:#FFFFFF;" d="M26.1,256h-5.9V118.6c0-1.6,1.3-3,3-3h0c1.6,0,3,1.3,3,3V256z"/>
	<path style="fill:#FFFFFF;" d="M47.1,256h-5.9v-99.4c0-1.6,1.3-3,3-3h0c1.6,0,3,1.3,3,3V256z"/>
	<path style="fill:#FFFFFF;" d="M68.1,256h-5.9V91.6c0-1.6,1.3-3,3-3l0,0c1.6,0,3,1.3,3,3V256z"/>
</g>
</svg>
