<?xml version="1.0" encoding="utf-8"?>
<!-- Generator: Adobe Illustrator 22.1.0, SVG Export Plug-In . SVG Version: 6.00 Build 0)  -->
<svg version="1.1" id="Layer_1" xmlns="http://www.w3.org/2000/svg" xmlns:xlink="http://www.w3.org/1999/xlink" x="0px" y="0px"
	 viewBox="0 0 256 256" style="enable-background:new 0 0 256 256;" xml:space="preserve">
<g>
	<path style="fill:#FFFFFF;" d="M86.8,256h-5.3V66.3c0-0.1,0-0.2-0.1-0.2L43.8,5.6c-0.2-0.3-0.6-0.3-0.7,0L5.4,66.1
		c0,0.1-0.1,0.1-0.1,0.2V256H0V66.3c0-1.1,0.3-2.1,0.9-3.1L38.5,2.7C39.6,1,41.4,0,43.4,0c2,0,3.8,1,4.9,2.7l37.6,60.6
		c0.6,0.9,0.9,2,0.9,3.1V256z"/>
	<rect x="2.7" y="62.4" style="fill:#FFFFFF;" width="81.5" height="5.3"/>
	<rect x="27.8" y="23.3" style="fill:#FFFFFF;" width="31.1" height="5.3"/>
	<path style="opacity:0;fill:#4BC8EA;" d="M32.6,23L43.3,5.7c0-0.1,0.1-0.1,0.2,0L54.2,23H32.6z"/>
	<g>
		<path style="fill:#FFFFFF;" d="M27.8,151.4c-1.5,0-2.7-1.2-2.7-2.7V76.8c0-1.5,1.2-2.7,2.7-2.7c1.5,0,2.7,1.2,2.7,2.7v71.9
			C30.5,150.2,29.3,151.4,27.8,151.4z"/>
		<path style="fill:#FFFFFF;" d="M27.8,199.1c-1.5,0-2.7-1.2-2.7-2.7v-34.9c0-1.5,1.2-2.7,2.7-2.7c1.5,0,2.7,1.2,2.7,2.7v34.9
			C30.5,197.9,29.3,199.1,27.8,199.1z"/>
		<path style="fill:#FFFFFF;" d="M27.8,251.6c-1.5,0-2.7-1.2-2.7-2.7V205c0-1.5,1.2-2.7,2.7-2.7c1.5,0,2.7,1.2,2.7,2.7v43.9
			C30.5,250.4,29.3,251.6,27.8,251.6z"/>
	</g>
	<g>
		<path style="fill:#FFFFFF;" d="M59,248.8c-1.5,0-2.7-1.2-2.7-2.7v-60c0-1.5,1.2-2.7,2.7-2.7c1.5,0,2.7,1.2,2.7,2.7v60
			C61.6,247.6,60.4,248.8,59,248.8z"/>
		<path style="fill:#FFFFFF;" d="M59,178.6c-1.5,0-2.7-1.2-2.7-2.7v-62.5c0-1.5,1.2-2.7,2.7-2.7c1.5,0,2.7,1.2,2.7,2.7V176
			C61.6,177.5,60.4,178.6,59,178.6z"/>
		<path style="fill:#FFFFFF;" d="M59,106.8c-1.5,0-2.7-1.2-2.7-2.7V72.8c0-1.5,1.2-2.7,2.7-2.7c1.5,0,2.7,1.2,2.7,2.7v31.4
			C61.6,105.6,60.4,106.8,59,106.8z"/>
	</g>
</g>
</svg>
