<?xml version="1.0" encoding="utf-8"?>
<!-- Generator: Adobe Illustrator 17.1.0, SVG Export Plug-In . SVG Version: 6.00 Build 0)  -->
<!DOCTYPE svg PUBLIC "-//W3C//DTD SVG 1.1//EN" "http://www.w3.org/Graphics/SVG/1.1/DTD/svg11.dtd" [
	<!ENTITY ns_flows "http://ns.adobe.com/Flows/1.0/">
	<!ENTITY ns_extend "http://ns.adobe.com/Extensibility/1.0/">
	<!ENTITY ns_ai "http://ns.adobe.com/AdobeIllustrator/10.0/">
	<!ENTITY ns_graphs "http://ns.adobe.com/Graphs/1.0/">
]>
<svg version="1.1" id="Layer_1" xmlns:x="&ns_extend;" xmlns:i="&ns_ai;" xmlns:graph="&ns_graphs;"
	 xmlns="http://www.w3.org/2000/svg" xmlns:xlink="http://www.w3.org/1999/xlink" xmlns:a="http://ns.adobe.com/AdobeSVGViewerExtensions/3.0/"
	 x="0px" y="0px" viewBox="0 0 256 256" style="enable-background:new 0 0 256 256;" xml:space="preserve">
<g>
	<path style="fill:#FFFFFF;" d="M73.5,65.7h-7.1c-1.5,0-2.8-1.2-2.8-2.8v-0.1c0-1.5,1.2-2.8,2.8-2.8h7.1c1.5,0,2.8,1.2,2.8,2.8V63
		C76.3,64.5,75.1,65.7,73.5,65.7z"/>
	<polygon style="fill:#FFFFFF;" points="135,130.2 127.7,130.2 127.7,95.5 199.5,95.2 199.5,65 184.7,65 184.7,57.7 206.8,57.8 
		206.7,102.4 135,102.7 	"/>
	<path style="fill:#F46134;" d="M183.6,82h-106c-4.9,0-8.8-4-8.8-8.8V51.3c0-4.9,4-8.8,8.8-8.8h106c4.9,0,8.8,4,8.8,8.8v21.8
		C192.5,78,188.5,82,183.6,82z"/>
	<path style="fill:#FFFFFF;" d="M130.5,206.3h-0.2c-6.3,0-11.4-5.1-11.4-11.4v-60h23v60C141.9,201.2,136.8,206.3,130.5,206.3z"/>
	<path style="fill:#FFFFFF;" d="M143.7,135.2h-25.7c-2,0-3.6-1.6-3.6-3.6v-0.1c0-2,1.6-3.6,3.6-3.6h25.7c2,0,3.6,1.6,3.6,3.6v0.1
		C147.3,133.6,145.7,135.2,143.7,135.2z"/>
	<path style="opacity:0.2;fill:#FFFFFF;" d="M192.5,56.8H68.7v-5.3c0-5,4.1-9.1,9.1-9.1h105.5c5,0,9.1,4.1,9.1,9.1V56.8z"/>
	<path style="opacity:0.2;fill:#242942;" d="M68.8,67.4h123.8V73c0,4.9-3.9,8.8-8.8,8.8H77.6c-4.9,0-8.8-3.9-8.8-8.8V67.4z"/>
</g>
</svg>
