<?xml version="1.0" encoding="utf-8"?>
<!-- Generator: Adobe Illustrator 17.0.0, SVG Export Plug-In . SVG Version: 6.00 Build 0)  -->
<!DOCTYPE svg PUBLIC "-//W3C//DTD SVG 1.1//EN" "http://www.w3.org/Graphics/SVG/1.1/DTD/svg11.dtd">
<svg version="1.1" id="Layer_1" xmlns="http://www.w3.org/2000/svg" xmlns:xlink="http://www.w3.org/1999/xlink" x="0px" y="0px"
	 width="120.7px" height="186.885px" viewBox="0 0 120.7 186.885" enable-background="new 0 0 120.7 186.885" xml:space="preserve">
<g>
	<path fill="#FFFFFF" d="M28.453,108.939h-9V80.083c0-9.36,7.402-16.977,16.5-16.977H104.2c4.136,0,7.5-3.461,7.5-7.717V31.772
		c0-4.183-2.595-7.717-5.667-7.717H87.866v-9.26h18.167c8.087,0,14.667,7.616,14.667,16.977v23.617c0,9.36-7.402,16.977-16.5,16.977
		H35.953c-4.136,0-7.5,3.461-7.5,7.717V108.939z"/>
	<g>
		<path fill="#FFFFFF" d="M47.905,177.885c0,4.95-4.05,9-9,9H9c-4.95,0-9-4.05-9-9V97.189c0-4.95,4.05-9,9-9h29.905
			c4.95,0,9,4.05,9,9V177.885z"/>
	</g>
	<g opacity="0">
		<path fill="#FFFFFF" d="M92.616,27.671c0,6.6-5.4,12-12,12H12c-6.6,0-12-5.4-12-12V12C0,5.4,5.4,0,12,0h68.616c6.6,0,12,5.4,12,12
			V27.671z"/>
	</g>
</g>
<g>
	<path fill="#FFFFFF" d="M92.616,27.671c0,6.6-5.4,12-12,12H12c-6.6,0-12-5.4-12-12V12C0,5.4,5.4,0,12,0h68.616c6.6,0,12,5.4,12,12
		V27.671z"/>
</g>
</svg>
