<?xml version="1.0" encoding="utf-8"?>
<!-- Generator: Adobe Illustrator 23.0.0, SVG Export Plug-In . SVG Version: 6.00 Build 0)  -->
<svg version="1.1" id="Layer_1" xmlns="http://www.w3.org/2000/svg" xmlns:xlink="http://www.w3.org/1999/xlink" x="0px" y="0px"
	 viewBox="0 0 256 256" style="enable-background:new 0 0 256 256;" xml:space="preserve">
<g style="opacity:0;">
	<path style="opacity:5.000000e-02;fill:#1F274C;" d="M115.4,256.1c-13.6-30.3-10.5-53.7,8.6-82.1h19.7v82.1H115.4z"/>
	<path style="fill:#1F274C;" d="M192.5,175.5h-70.2c-1.7,0-3.3-0.9-4.1-2.4c-0.8-1.5-0.8-3.3,0.1-4.8l2.2-3.6
		c4.1-6.7,11.9-10.9,20.3-10.9h33.3c8.5,0,16.3,4.2,20.3,10.9l2.2,3.6c0.9,1.5,0.9,3.3,0.1,4.8S194.2,175.5,192.5,175.5z M132,166
		h50.8c-2.4-1.7-5.5-2.6-8.7-2.6h-33.3C137.5,163.3,134.4,164.3,132,166z"/>
	<path style="fill:#1F274C;" d="M202.2,104.6H45.4c-9.5,0-17.2-7-17.2-15.6V15.6C28.2,7,35.9,0,45.4,0h156.8c9.5,0,17.2,7,17.2,15.6
		v73.3C219.4,97.6,211.7,104.6,202.2,104.6z M45.4,9.5c-4.2,0-7.7,2.8-7.7,6.1v73.3c0,3.4,3.4,6.1,7.7,6.1h156.8
		c4.2,0,7.7-2.8,7.7-6.1V15.6c0-3.4-3.4-6.1-7.7-6.1H45.4z"/>
	<path style="fill:#4BC8EA;" d="M71.6,53L71.6,53c-6.7,0-12.1-4.8-12.1-10.7V9.7h24.3v32.6C83.8,48.2,78.4,53,71.6,53z"/>
	<path style="fill:#4BC8EA;" d="M137.1,72.7L137.1,72.7c-6.7,0-12.1-4.8-12.1-10.7V9.5h24.3v52.6C149.2,68,143.8,72.7,137.1,72.7z"
		/>
	<path style="fill:#4BC8EA;" d="M188.3,33.2L188.3,33.2c-6.7,0-12.1-4.8-12.1-10.7v-13h24.3v13C200.5,28.4,195,33.2,188.3,33.2z"/>
	<path style="fill:#1F274C;" d="M160.9,163.3h-9.5v-25.1c0-9.5,8.5-17.3,19.1-17.3l49.9-0.1c5.3,0,9.6-3.5,9.6-7.8V66.9
		c0-4.3-4.3-7.8-9.6-7.8l-10.6,0l0-9.5l10.6,0c10.5,0,19.1,7.8,19.1,17.3V113c0,9.5-8.5,17.3-19.1,17.3l-49.9,0.1
		c-5.3,0-9.6,3.5-9.6,7.8V163.3z"/>
	<path style="fill:#1F274C;" d="M36.3,68.5h-4.7c-8.9,0-16.1-6.6-16.1-14.7s7.2-14.7,16.1-14.7h4.7v9.5h-4.7C28,48.6,25,51,25,53.8
		c0,2.8,3,5.2,6.6,5.2h4.7V68.5z"/>
	<path style="opacity:5.000000e-02;fill:#1F274C;" d="M202.2,96.9H45.3c-5,0-9.1-3.6-9.1-8V78.1h175.2v10.8
		C211.3,93.4,207.2,96.9,202.2,96.9z"/>
	<polygon style="opacity:5.000000e-02;fill:#1F274C;" points="131.6,161.5 127.8,167.8 143.7,167.8 143.7,161.5 	"/>
	<g style="opacity:0.5;">
		<path style="fill:#1F274C;" d="M59.5,24.4c-0.6,0-1.1-0.3-1.5-0.7c-0.6-0.8-0.5-2,0.3-2.7l11.9-9.2c0.8-0.6,2-0.5,2.7,0.3
			c0.6,0.8,0.5,2-0.3,2.7L60.7,24C60.3,24.3,59.9,24.4,59.5,24.4z"/>
		<path style="fill:#1F274C;" d="M42.6,37.5c-0.6,0-1.1-0.3-1.5-0.7c-0.6-0.8-0.5-2,0.3-2.7l8.9-6.9c0.8-0.6,2-0.5,2.7,0.3
			c0.6,0.8,0.5,2-0.3,2.7l-8.9,6.9C43.4,37.4,43,37.5,42.6,37.5z"/>
		<path style="fill:#1F274C;" d="M76.2,34.9c-0.6,0-1.1-0.3-1.5-0.7c-0.6-0.8-0.5-2,0.4-2.7l25.7-19.7c0.8-0.6,2-0.5,2.7,0.4
			c0.6,0.8,0.5,2-0.4,2.7L77.4,34.5C77,34.8,76.6,34.9,76.2,34.9z"/>
		<path style="fill:#1F274C;" d="M43.9,59.7c-0.6,0-1.1-0.3-1.5-0.7c-0.6-0.8-0.5-2,0.4-2.7L60.1,43c0.8-0.6,2-0.5,2.7,0.4
			c0.6,0.8,0.5,2-0.4,2.7L45.1,59.3C44.7,59.5,44.3,59.7,43.9,59.7z"/>
		<path style="fill:#1F274C;" d="M122.7,28.1c-0.6,0-1.1-0.3-1.5-0.7c-0.6-0.8-0.5-2,0.3-2.7l16.8-12.9c0.8-0.6,2-0.5,2.7,0.3
			c0.6,0.8,0.5,2-0.3,2.7l-16.8,12.9C123.5,28,123.1,28.1,122.7,28.1z"/>
		<path style="fill:#1F274C;" d="M83.8,58c-0.6,0-1.1-0.3-1.5-0.7c-0.6-0.8-0.5-2,0.3-2.7l26.6-20.5c0.8-0.6,2-0.5,2.7,0.3
			c0.6,0.8,0.5,2-0.3,2.7L84.9,57.6C84.6,57.9,84.2,58,83.8,58z"/>
		<path style="fill:#1F274C;" d="M45.9,87.2c-0.6,0-1.1-0.3-1.5-0.7c-0.6-0.8-0.5-2,0.3-2.7L67.8,66c0.8-0.6,2-0.5,2.7,0.3
			c0.6,0.8,0.5,2-0.3,2.7L47.1,86.8C46.7,87.1,46.3,87.2,45.9,87.2z"/>
		<path style="fill:#1F274C;" d="M150.2,38.3c-0.6,0-1.1-0.2-1.5-0.7c-0.7-0.8-0.5-2,0.3-2.7l9.7-7.7c0.8-0.7,2-0.5,2.7,0.3
			c0.7,0.8,0.5,2-0.3,2.7l-9.7,7.7C151.1,38.2,150.7,38.3,150.2,38.3z"/>
		<path style="fill:#1F274C;" d="M113.8,67.3c-0.6,0-1.1-0.2-1.5-0.7c-0.7-0.8-0.5-2,0.3-2.7l27.7-22c0.8-0.7,2-0.5,2.7,0.3
			c0.7,0.8,0.5,2-0.3,2.7l-27.7,22C114.7,67.2,114.2,67.3,113.8,67.3z"/>
		<path style="fill:#1F274C;" d="M81.7,92.8c-0.6,0-1.1-0.2-1.5-0.7c-0.7-0.8-0.5-2,0.3-2.7l20.2-16.1c0.8-0.7,2-0.5,2.7,0.3
			c0.7,0.8,0.5,2-0.3,2.7L82.9,92.4C82.5,92.7,82.1,92.8,81.7,92.8z"/>
		<path style="fill:#1F274C;" d="M188.3,43.8c-0.5,0-1-0.2-1.4-0.6c-0.7-0.8-0.6-2,0.2-2.7L202,27.3c0.8-0.7,2-0.6,2.7,0.2
			c0.7,0.8,0.6,2-0.2,2.7l-14.9,13.2C189.2,43.7,188.8,43.8,188.3,43.8z"/>
		<path style="fill:#1F274C;" d="M166,63.6c-0.5,0-1-0.2-1.4-0.6c-0.7-0.8-0.6-2,0.2-2.7l15.4-13.7c0.8-0.7,2-0.6,2.7,0.2
			c0.7,0.8,0.6,2-0.2,2.7l-15.4,13.7C166.9,63.4,166.5,63.6,166,63.6z"/>
		<path style="fill:#1F274C;" d="M139.4,87.2c-0.5,0-1-0.2-1.4-0.6c-0.7-0.8-0.6-2,0.2-2.7l16.2-14.4c0.8-0.7,2-0.6,2.7,0.2
			c0.7,0.8,0.6,2-0.2,2.7l-16.2,14.4C140.3,87,139.9,87.2,139.4,87.2z"/>
		<path style="fill:#1F274C;" d="M193.3,75.6c-0.5,0-1-0.2-1.4-0.6c-0.7-0.8-0.7-2,0.1-2.7l14.4-13.9c0.8-0.7,2-0.7,2.7,0.1
			c0.7,0.8,0.7,2-0.1,2.7l-14.4,13.9C194.3,75.4,193.8,75.6,193.3,75.6z"/>
		<path style="fill:#1F274C;" d="M173.7,94.4c-0.5,0-1-0.2-1.4-0.6c-0.7-0.8-0.7-2,0.1-2.7l7.3-7c0.8-0.7,2-0.7,2.7,0.1
			c0.7,0.8,0.7,2-0.1,2.7l-7.3,7C174.7,94.2,174.2,94.4,173.7,94.4z"/>
	</g>
	<path style="fill:#1F274C;" d="M200.5,195.4h-29.4c-2.6,0-4.7-2.1-4.7-4.7c0-2.6,2.1-4.7,4.7-4.7h29.4c2.6,0,4.7,2.1,4.7,4.7
		C205.2,193.2,203.1,195.4,200.5,195.4z"/>
	<path style="fill:#1F274C;" d="M205.3,215.4h-49.9c-2.6,0-4.7-2.1-4.7-4.7c0-2.6,2.1-4.7,4.7-4.7h49.9c2.6,0,4.7,2.1,4.7,4.7
		C210.1,213.2,208,215.4,205.3,215.4z"/>
	<path style="fill:#1F274C;" d="M205.3,240.8h-19.7c-2.6,0-4.7-2.1-4.7-4.7c0-2.6,2.1-4.7,4.7-4.7h19.7c2.6,0,4.7,2.1,4.7,4.7
		C210.1,238.6,207.9,240.8,205.3,240.8z"/>
	<path style="fill:#1F274C;" d="M114.8,256l-0.5-1c-11.9-27.2-8.8-54.9,9.1-82.3h68.2c14.9,27.6,18,55.4,9.2,82.6l-0.3,0.8h6.9
		c9.1-28.9,5.5-58.3-10.8-87.6c-0.6-1-1.7-1.7-3-1.7h-72.3c-1.2,0-2.3,0.5-2.9,1.4c-19.7,29.2-23.3,58.7-11,87.8H114.8z"/>
</g>
</svg>
