<?xml version="1.0" encoding="utf-8"?>
<!-- Generator: Adobe Illustrator 17.1.0, SVG Export Plug-In . SVG Version: 6.00 Build 0)  -->
<!DOCTYPE svg PUBLIC "-//W3C//DTD SVG 1.1//EN" "http://www.w3.org/Graphics/SVG/1.1/DTD/svg11.dtd" [
	<!ENTITY ns_flows "http://ns.adobe.com/Flows/1.0/">
	<!ENTITY ns_extend "http://ns.adobe.com/Extensibility/1.0/">
	<!ENTITY ns_ai "http://ns.adobe.com/AdobeIllustrator/10.0/">
	<!ENTITY ns_graphs "http://ns.adobe.com/Graphs/1.0/">
]>
<svg version="1.1" id="Layer_1" xmlns:x="&ns_extend;" xmlns:i="&ns_ai;" xmlns:graph="&ns_graphs;"
	 xmlns="http://www.w3.org/2000/svg" xmlns:xlink="http://www.w3.org/1999/xlink" xmlns:a="http://ns.adobe.com/AdobeSVGViewerExtensions/3.0/"
	 x="0px" y="0px" viewBox="0 0 256 256" style="enable-background:new 0 0 256 256;" xml:space="preserve">
<g>
	<g>
		<path style="fill:#FFFFFF;" d="M132.6,198.6c-38.3,0-69.5-31.2-69.5-69.5s31.2-69.5,69.5-69.5s69.5,31.2,69.5,69.5
			S170.9,198.6,132.6,198.6z"/>
		<path style="fill:#41475E;" d="M161.4,101.5c-7.2,0-13.1,5.8-13.1,13.1c0,7.2,5.8,13.1,13.1,13.1s13.1-5.8,13.1-13.1
			C174.5,107.4,168.6,101.5,161.4,101.5L161.4,101.5z"/>
		<path style="fill:#41475E;" d="M104.6,101.5c-7.2,0-13.1,5.8-13.1,13.1c0,7.2,5.8,13.1,13.1,13.1c7.2,0,13.1-5.8,13.1-13.1
			C117.6,107.4,111.8,101.5,104.6,101.5L104.6,101.5z"/>
		<path style="fill:#41475E;" d="M104,146.7c0,16,13,29,29,29s29-13,29-29"/>
		<path style="fill:#F46134;" d="M118.6,171.8c4.3,2.4,9.2,3.9,14.5,3.9c4.9,0,9.5-1.2,13.5-3.4c-1.4-6.4-7.2-11.3-14.1-11.3
			C125.8,161.1,120.2,165.7,118.6,171.8z"/>
	</g>
</g>
</svg>
