<?xml version="1.0" encoding="utf-8"?>
<!-- Generator: Adobe Illustrator 17.1.0, SVG Export Plug-In . SVG Version: 6.00 Build 0)  -->
<!DOCTYPE svg PUBLIC "-//W3C//DTD SVG 1.1//EN" "http://www.w3.org/Graphics/SVG/1.1/DTD/svg11.dtd" [
	<!ENTITY ns_flows "http://ns.adobe.com/Flows/1.0/">
	<!ENTITY ns_extend "http://ns.adobe.com/Extensibility/1.0/">
	<!ENTITY ns_ai "http://ns.adobe.com/AdobeIllustrator/10.0/">
	<!ENTITY ns_graphs "http://ns.adobe.com/Graphs/1.0/">
]>
<svg version="1.1" id="Layer_1" xmlns:x="&ns_extend;" xmlns:i="&ns_ai;" xmlns:graph="&ns_graphs;"
	 xmlns="http://www.w3.org/2000/svg" xmlns:xlink="http://www.w3.org/1999/xlink" xmlns:a="http://ns.adobe.com/AdobeSVGViewerExtensions/3.0/"
	 x="0px" y="0px" viewBox="0 0 256 256" style="enable-background:new 0 0 256 256;" xml:space="preserve">
<g>
	<g>
		<path style="fill:#FFFFFF;" d="M108.3,54.8l75.9-0.1c5.2,0,9.4,4.2,9.4,9.4v134.5c0,5.2-4.2,9.4-9.4,9.4H84.3
			c-5.2,0-9.4-4.2-9.4-9.4l0-110.5"/>
		<polygon style="fill:#41475E;" points="74.9,88.1 108.2,88.1 108.2,54.8 		"/>
	</g>
	<g>
		<g>
			<g>
				<path style="fill:#F46134;" d="M142.8,171.1h-14.6l-4.2-13.2h-21.2l-4.2,13.2H84.1l21.7-59.5h15.9L142.8,171.1z M120.9,147.5
					c0,0-7.2-23.3-7.4-25.4h-0.3c-0.1,1.7-7.5,25.4-7.5,25.4H120.9z"/>
			</g>
		</g>
		<g>
			<g>
				<path style="fill:#F46134;" d="M183.8,171.1h-12.4V165h-0.2c-2.8,4.8-7.1,7.1-12.7,7.1c-4.1,0-7.4-1.2-9.7-3.5
					c-2.4-2.3-3.5-5.5-3.5-9.4c0-8.2,4.9-13,14.6-14.3l11.5-1.5c0-4.6-2.5-7-7.6-7c-5.1,0-9.9,1.5-14.4,4.5v-9.9
					c1.8-0.9,4.3-1.8,7.5-2.5c3.2-0.7,6.1-1.1,8.7-1.1c12.1,0,18.2,6,18.2,18.1V171.1z M171.5,153.8v-2.9l-7.7,1
					c-4.3,0.6-6.4,2.5-6.4,5.8c0,1.5,0.5,2.7,1.6,3.7c1,1,2.4,1.4,4.2,1.4c2.5,0,4.5-0.9,6-2.6C170.7,158.6,171.5,156.4,171.5,153.8
					z"/>
			</g>
		</g>
	</g>
</g>
</svg>
