<?xml version="1.0" encoding="utf-8"?>
<!-- Generator: Adobe Illustrator 22.1.0, SVG Export Plug-In . SVG Version: 6.00 Build 0)  -->
<svg version="1.1" id="Layer_1" xmlns="http://www.w3.org/2000/svg" xmlns:xlink="http://www.w3.org/1999/xlink" x="0px" y="0px"
	 viewBox="0 0 256 256" style="enable-background:new 0 0 256 256;" xml:space="preserve">
<g>
	<path style="fill:#F9D069;" d="M153.6,173.3c0,0-0.2,11.3-7.2,17.5c-7,6.2-18.3,4.9-18.3,4.9s0.2-11.3,7.2-17.5
		C142.3,172,153.6,173.3,153.6,173.3z"/>
</g>
<g>
	<path style="fill:#F9D069;" d="M151,154.3c0,0-0.2,10.8-6.9,16.8c-6.7,5.9-17.5,4.7-17.5,4.7s0.2-10.8,6.9-16.8
		C140.2,153,151,154.3,151,154.3z"/>
</g>
<g>
	<path style="fill:#F9D069;" d="M102,167.6c0,0,0.7,11.3,8,17.1c7.3,5.8,18.5,4,18.5,4s-0.7-11.3-8-17.1
		C113.2,165.7,102,167.6,102,167.6z"/>
</g>
<g>
	<path style="fill:#F9D069;" d="M102.6,146.5c0,0,0.7,10.8,7.7,16.4c7,5.6,17.7,3.8,17.7,3.8s-0.7-10.8-7.7-16.4
		C113.3,144.8,102.6,146.5,102.6,146.5z"/>
</g>
<g>
	<path style="fill:#F9D069;" d="M151.7,132.9c0,0-0.2,10.5-6.7,16.2s-17,4.5-17,4.5s0.2-10.5,6.7-16.2
		C141.3,131.7,151.7,132.9,151.7,132.9z"/>
</g>
<g>
	<path style="fill:#F9D069;" d="M147.8,114.1c0,0-0.1,9.4-6,14.5c-5.8,5.1-15.1,4-15.1,4s0.1-9.4,6-14.5
		C138.5,113,147.8,114.1,147.8,114.1z"/>
</g>
<g>
	<path style="fill:#F9D069;" d="M103.9,127.6c0,0,0.7,10.5,7.5,15.9c6.8,5.4,17.2,3.7,17.2,3.7s-0.7-10.5-7.5-15.9
		C114.3,125.9,103.9,127.6,103.9,127.6z"/>
</g>
<g>
	<path style="fill:#F9D069;" d="M106,106.5c0,0,0.6,9.3,6.6,14.2c6.1,4.8,15.3,3.3,15.3,3.3s-0.6-9.3-6.6-14.2S106,106.5,106,106.5z
		"/>
</g>
<g>
	<path style="fill:#F9D069;" d="M146.9,96.5c0,0-0.1,8.7-5.6,13.5c-5.4,4.8-14.1,3.8-14.1,3.8s0.1-8.7,5.6-13.5
		C138.2,95.5,146.9,96.5,146.9,96.5z"/>
</g>
<g>
	<path style="fill:#F9D069;" d="M146.6,79.6c0,0-0.1,8.7-5.6,13.5c-5.4,4.8-14.1,3.8-14.1,3.8s0.1-8.7,5.6-13.5
		C137.9,78.6,146.6,79.6,146.6,79.6z"/>
</g>
<g>
	<path style="fill:#F9D069;" d="M107,90.1c0,0,0.5,8.7,6.2,13.2c5.7,4.5,14.3,3.1,14.3,3.1s-0.5-8.7-6.2-13.2
		C115.6,88.7,107,90.1,107,90.1z"/>
</g>
<g>
	<path style="fill:#F9D069;" d="M106.6,72.5c0,0,0.5,8.7,6.2,13.2c5.7,4.5,14.3,3.1,14.3,3.1s-0.5-8.7-6.2-13.2
		C115.2,71.1,106.6,72.5,106.6,72.5z"/>
</g>
<g>
	<path style="fill:#F9D069;" d="M145.7,61.7c0,0-0.1,8.1-5.2,12.6c-5.1,4.5-13.2,3.5-13.2,3.5s0.1-8.1,5.2-12.6
		C137.6,60.7,145.7,61.7,145.7,61.7z"/>
</g>
<g>
	<path style="fill:#F9D069;" d="M143.8,46.5c0,0-0.1,7.8-5,12.1S126.2,62,126.2,62s0.1-7.8,5-12.1C136,45.6,143.8,46.5,143.8,46.5z"
		/>
</g>
<g>
	<path style="fill:#F9D069;" d="M128.2,22.3c0,0,5.8,5.8,5.4,12.5c-0.3,6.7-6.6,11.9-6.6,11.9s-5.8-5.8-5.4-12.5
		C121.9,27.5,128.2,22.3,128.2,22.3z"/>
</g>
<g>
	<path style="fill:#F9D069;" d="M107.5,56.7c0,0,0.5,8.1,5.8,12.3c5.3,4.2,13.3,2.9,13.3,2.9s-0.5-8.1-5.8-12.3
		S107.5,56.7,107.5,56.7z"/>
</g>
<g>
	<path style="fill:#F9D069;" d="M107.9,41.4c0,0,0.5,7.8,5.6,11.9s12.8,2.8,12.8,2.8s-0.5-7.8-5.6-11.9
		C115.6,40.2,107.9,41.4,107.9,41.4z"/>
</g>
<g>
	<path style="fill:#F9D069;" d="M144.1,182.9c-0.3,0-0.5-0.1-0.7-0.3c-0.4-0.4-0.4-1,0-1.4l21-20c0.4-0.4,1-0.4,1.4,0
		c0.4,0.4,0.4,1,0,1.4l-21,20C144.6,182.8,144.3,182.9,144.1,182.9z"/>
</g>
<g>
	<path style="fill:#F9D069;" d="M140.1,164.9c-0.2,0-0.5-0.1-0.7-0.3c-0.4-0.4-0.4-1,0-1.4l23-24c0.4-0.4,1-0.4,1.4,0
		c0.4,0.4,0.4,1,0,1.4l-23,24C140.6,164.8,140.3,164.9,140.1,164.9z"/>
</g>
<g>
	<path style="fill:#F9D069;" d="M140.1,144.9c-0.3,0-0.5-0.1-0.7-0.3c-0.4-0.4-0.4-1,0-1.4l21-20c0.4-0.4,1-0.4,1.4,0
		c0.4,0.4,0.4,1,0,1.4l-21,20C140.6,144.8,140.3,144.9,140.1,144.9z"/>
</g>
<g>
	<path style="fill:#F9D069;" d="M135.1,125.9c-0.3,0-0.5-0.1-0.7-0.3c-0.4-0.4-0.3-1,0.1-1.4l24-22c0.4-0.4,1-0.3,1.4,0.1
		s0.3,1-0.1,1.4l-24,22C135.5,125.8,135.3,125.9,135.1,125.9z"/>
</g>
<g>
	<path style="fill:#F9D069;" d="M133.4,111.9c-0.3,0-0.5-0.1-0.7-0.3c-0.4-0.4-0.4-1,0-1.4l23.6-22.3c0.4-0.4,1-0.4,1.4,0
		c0.4,0.4,0.4,1,0,1.4l-23.6,22.3C133.9,111.8,133.7,111.9,133.4,111.9z"/>
</g>
<g>
	<path style="fill:#F9D069;" d="M130.1,95.2c-0.3,0-0.5-0.1-0.7-0.3c-0.4-0.4-0.4-1,0-1.4L153,71.1c0.4-0.4,1-0.4,1.4,0
		c0.4,0.4,0.4,1,0,1.4l-23.6,22.3C130.6,95.1,130.3,95.2,130.1,95.2z"/>
</g>
<g>
	<path style="fill:#F9D069;" d="M131.1,74.9c-0.3,0-0.5-0.1-0.7-0.3c-0.4-0.4-0.4-1,0-1.4l21-20c0.4-0.4,1-0.4,1.4,0
		c0.4,0.4,0.4,1,0,1.4l-21,20C131.6,74.8,131.3,74.9,131.1,74.9z"/>
</g>
<g>
	<path style="fill:#F9D069;" d="M129.1,61.9c-0.3,0-0.5-0.1-0.7-0.3c-0.4-0.4-0.4-1,0-1.4l21-20c0.4-0.4,1-0.4,1.4,0
		c0.4,0.4,0.4,1,0,1.4l-21,20C129.6,61.8,129.3,61.9,129.1,61.9z"/>
</g>
<g>
	<path style="fill:#F9D069;" d="M113.4,177.4c-0.2,0-0.4-0.1-0.6-0.2l-22.5-18.3c-0.4-0.3-0.5-1-0.1-1.4c0.3-0.4,1-0.5,1.4-0.1
		l22.5,18.3c0.4,0.3,0.5,1,0.1,1.4C114,177.3,113.7,177.4,113.4,177.4z"/>
</g>
<g>
	<path style="fill:#F9D069;" d="M116,159.2c-0.2,0-0.5-0.1-0.7-0.3l-24.8-22.2c-0.4-0.4-0.4-1-0.1-1.4s1-0.4,1.4-0.1l24.8,22.2
		c0.4,0.4,0.4,1,0.1,1.4C116.6,159.1,116.3,159.2,116,159.2z"/>
</g>
<g>
	<path style="fill:#F9D069;" d="M114.5,138.2c-0.2,0-0.4-0.1-0.6-0.2l-22.5-18.3c-0.4-0.3-0.5-1-0.1-1.4c0.4-0.4,1-0.5,1.4-0.1
		l22.5,18.3c0.4,0.3,0.5,1,0.1,1.4C115.1,138.1,114.8,138.2,114.5,138.2z"/>
</g>
<g>
	<path style="fill:#F9D069;" d="M118,116.9c-0.2,0-0.4-0.1-0.6-0.2L91.8,96.6c-0.4-0.3-0.5-1-0.2-1.4c0.3-0.4,1-0.5,1.4-0.2
		l25.6,20.1c0.4,0.3,0.5,1,0.2,1.4C118.6,116.8,118.3,116.9,118,116.9z"/>
</g>
<g>
	<path style="fill:#F9D069;" d="M119.6,100.8c-0.2,0-0.4-0.1-0.6-0.2L93.7,80.2c-0.4-0.3-0.5-1-0.1-1.4c0.3-0.4,1-0.5,1.4-0.1
		l25.2,20.4c0.4,0.3,0.5,1,0.1,1.4C120.2,100.7,119.9,100.8,119.6,100.8z"/>
</g>
<g>
	<path style="fill:#F9D069;" d="M121.7,85.9c-0.2,0-0.4-0.1-0.6-0.2L95.8,65.3c-0.4-0.3-0.5-1-0.1-1.4c0.3-0.4,1-0.5,1.4-0.1
		l25.2,20.4c0.4,0.3,0.5,1,0.1,1.4C122.3,85.8,122,85.9,121.7,85.9z"/>
</g>
<g>
	<path style="fill:#F9D069;" d="M121.2,67.8c-0.2,0-0.4-0.1-0.6-0.2L98.1,49.2c-0.4-0.3-0.5-1-0.1-1.4c0.4-0.4,1-0.5,1.4-0.1
		L121.8,66c0.4,0.3,0.5,1,0.1,1.4C121.7,67.6,121.5,67.8,121.2,67.8z"/>
</g>
<g>
	<path style="fill:#F9D069;" d="M123.2,54.6c-0.2,0-0.4-0.1-0.6-0.2l-22.5-18.3c-0.4-0.3-0.5-1-0.1-1.4c0.4-0.4,1-0.5,1.4-0.1
		l22.5,18.3c0.4,0.3,0.5,1,0.1,1.4C123.8,54.5,123.5,54.6,123.2,54.6z"/>
</g>
<g>
	<path style="fill:#F9D069;" d="M128.1,28.9c-0.6,0-1-0.4-1-1v-16c0-0.6,0.4-1,1-1c0.6,0,1,0.4,1,1v16
		C129.1,28.4,128.6,28.9,128.1,28.9z"/>
</g>
<g>
	<path style="fill:#F9D069;" d="M128.1,242.9c-0.5,0-1-0.4-1-1c-0.1-7.8-2-192.2-1-201.1c0.1-0.5,0.5-1,1.1-0.9
		c0.5,0.1,0.9,0.6,0.9,1.1c-1,8.8,1,199,1,200.9C129.1,242.4,128.6,242.9,128.1,242.9C128.1,242.9,128.1,242.9,128.1,242.9z"/>
</g>
</svg>
