<?xml version="1.0" encoding="utf-8"?>
<!-- Generator: Adobe Illustrator 22.1.0, SVG Export Plug-In . SVG Version: 6.00 Build 0)  -->
<svg version="1.1" id="Layer_1" xmlns="http://www.w3.org/2000/svg" xmlns:xlink="http://www.w3.org/1999/xlink" x="0px" y="0px"
	 viewBox="0 0 256 256" style="enable-background:new 0 0 256 256;" xml:space="preserve">
<g>
	<path style="fill:#FFFBDC;" d="M208.4,131c0,63.2-36.7,114.4-82.1,114.4c-25.8,0-43.5-19.4-48.5-47.7c-0.6-3.2-1-6.6-1.2-10.1
		c-1.3-19.4,14.5-42.9,6.9-64.7c-7.2-20.9-9.8-40.1-8-56.3c3.2-30.4,21.2-50,50.8-50C171.6,16.6,208.4,67.8,208.4,131z"/>
</g>
<g style="opacity:0;">
	<path style="fill:#2D2D2D;" d="M97.4,55.9c-8,0-15.5,3.9-21.9,10.7c-1.7,16.2,0.8,35.4,8,56.3c7.6,21.9-8.3,45.3-6.9,64.7
		c0.2,3.5,0.6,6.8,1.2,10.1c5.9,5.4,12.5,8.4,19.6,8.4c23.5,0,42.5-33.6,42.5-75.1S120.9,55.9,97.4,55.9z M92.8,164.5
		c-11.6,0-2.3-12.2-2.3-30.1s-11.6-30.1,2.3-34.7c6.1-2,11.6,14.5,11.6,32.4C104.3,150,99.1,164.5,92.8,164.5z"/>
	<path style="opacity:0.4;fill:#FFFFFF;" d="M104.3,132.2c0,17.9-5.2,32.4-11.6,32.4c-11.6,0-2.3-12.2-2.3-30.1s-11.6-30.1,2.3-34.7
		C98.8,97.8,104.3,114.3,104.3,132.2z"/>
</g>
</svg>
