<?xml version="1.0" encoding="utf-8"?>
<!-- Generator: Adobe Illustrator 22.1.0, SVG Export Plug-In . SVG Version: 6.00 Build 0)  -->
<svg version="1.1" id="Layer_1" xmlns="http://www.w3.org/2000/svg" xmlns:xlink="http://www.w3.org/1999/xlink" x="0px" y="0px"
	 viewBox="0 0 256 256" style="enable-background:new 0 0 256 256;" xml:space="preserve">
<g>
	<path style="fill:#353535;" d="M210.5,126c0,65.3-27.5,121.5-98.4,121.5c-44.2,0-62.8-40.1-49.6-85.5c0.4-1.4,0.8-3,1.1-4.7
		c1.3-6.9,2-15.9,2-25.3c0-5.3-0.2-10.7-0.5-16c-0.6-8.4-1.6-16.4-3.1-22.5c-0.5-2.1-1-3.9-1.6-5.5c-8.9-25.3-4-84.4,53.3-84.4
		C174.4,3.6,210.5,60.7,210.5,126z"/>
</g>
<g style="opacity:0;">
	<path style="opacity:0.9;" d="M71.3,83.9c-4.9,0-7.9,4.2-9.3,9.6c1.4,6.1,2.5,14.1,3.1,22.5c1,4.6,1.1,10.7,0.5,16
		c0,9.4-0.7,18.4-2,25.3c2.1,6.3,6.3,10.8,10.8,10.8c11,0,15.6-15.8,15.6-40.6C90,102.8,80.8,83.9,71.3,83.9z M74.8,153.7
		c-5.5,0-10.3-10.3-7-18.8c1.8-4.6,2-14.5-0.2-18.5c-3-5.6-1.7-18.3,5.1-18.3c6.2,0,12.3,12.5,12.3,28.8
		C85.1,143.3,82.1,153.7,74.8,153.7z"/>
	<path style="fill:#FFFFFF;" d="M85.1,127c0,16.3-3,26.7-10.3,26.7c-5.5,0-10.3-10.3-7-18.8c1.8-4.6,2-14.5-0.2-18.5
		c-3-5.6-1.7-18.3,5.1-18.3C79,98.3,85.1,110.7,85.1,127z"/>
	
		<ellipse transform="matrix(0.8285 -0.56 0.56 0.8285 -4.7232 98.8841)" style="opacity:0.2;fill:#FFFFFF;" cx="159.1" cy="57.2" rx="18.5" ry="26.7"/>
</g>
</svg>
