<?xml version="1.0" encoding="utf-8"?>
<!-- Generator: Adobe Illustrator 22.1.0, SVG Export Plug-In . SVG Version: 6.00 Build 0)  -->
<svg version="1.1" id="Layer_1" xmlns="http://www.w3.org/2000/svg" xmlns:xlink="http://www.w3.org/1999/xlink" x="0px" y="0px"
	 viewBox="0 0 256 256" style="enable-background:new 0 0 256 256;" xml:space="preserve">
<g style="opacity:0;">
	<path style="fill:#F2BC44;" d="M143.1,243.7c-10.3-3.7-13.4-9.6-36.5,1.9c0,0-69.1,7.7-67.2-73c1.9-80.6,19.2-101.8,48-119
		c28.8-17.3,26.9-46.1,46.1-46.1c18.2,0,26.9,30.7,36.5,36.5c9.6,5.8,48.4,44.8,55.7,88.3C233.4,178.4,218,270.6,143.1,243.7z"/>
</g>
<g>
	<path style="opacity:0.3;fill:#FFFFFF;" d="M209.1,218.5c0,0-34.8,45.2-60.4,14.4S146.9,41.8,161.5,50c14.6,8.2,53,47.3,56.7,71.9
		C221.9,146.6,220,208.3,209.1,218.5z"/>
	<path style="opacity:0.3;fill:#FFFFFF;" d="M121.6,232.9c-26.9,30.8-63.5-14.4-63.5-14.4c-11.5-10.3-13.5-71.9-9.6-96.6
		c3.8-24.7,44.2-63.7,59.6-71.9C123.5,41.8,148.5,202.1,121.6,232.9z"/>
</g>
</svg>
