<?xml version="1.0" encoding="utf-8"?>
<!-- Generator: Adobe Illustrator 22.1.0, SVG Export Plug-In . SVG Version: 6.00 Build 0)  -->
<svg version="1.1" id="Layer_1" xmlns="http://www.w3.org/2000/svg" xmlns:xlink="http://www.w3.org/1999/xlink" x="0px" y="0px"
	 viewBox="0 0 256 256" style="enable-background:new 0 0 256 256;" xml:space="preserve">
<g>
	<path style="fill:#CBEFA5;" d="M197.5,128c0,66.8-12.8,120.9-68.1,120.9c-41.7,0-57.5-37.6-47.2-84.1c0.3-1.5,0.6-3,0.9-4.8
		c1-7.1,1.5-16.3,1.6-25.9c0-5.4-0.1-11-0.4-16.3c-0.5-8.6-1.3-16.7-2.4-23c-0.4-2.1-0.8-4-1.2-5.6c-7-25.8-3.2-82,48.8-82
		C176.7,7.1,197.5,61.2,197.5,128z"/>
</g>
<g style="opacity:0;">
	<path style="opacity:0.8;fill:#FFFFFF;" d="M95.4,128.8c0,12.6-1.6,20.6-5.6,20.6c-3,0-5.6-7.9-3.8-14.5c1-3.5,1.1-11.2-0.1-14.3
		c-1.7-4.3-0.9-14.1,2.8-14.1C92,106.6,95.4,116.2,95.4,128.8z"/>
	
		<ellipse transform="matrix(0.9443 -0.3291 0.3291 0.9443 -10.1763 55.0266)" style="opacity:0.2;fill:#FFFFFF;" cx="157.5" cy="57.6" rx="15.2" ry="25.9"/>
</g>
</svg>
