<?xml version="1.0" encoding="utf-8"?>
<!-- Generator: Adobe Illustrator 22.1.0, SVG Export Plug-In . SVG Version: 6.00 Build 0)  -->
<svg version="1.1" id="Layer_1" xmlns="http://www.w3.org/2000/svg" xmlns:xlink="http://www.w3.org/1999/xlink" x="0px" y="0px"
	 viewBox="0 0 256 256" style="enable-background:new 0 0 256 256;" xml:space="preserve">
<g style="opacity:0;">
	<path style="fill:#7F1B1B;" d="M160.4,96.3c1.7,2.2,2,5.1,0.7,7.7c-0.1,0.3-0.3,0.5-0.4,0.7c0.2,0.1,0.3,0.3,0.5,0.4
		c2.8,2.8,2.8,7.3,0,10.1c-1.7,1.7-3.9,2.3-6.1,2c0,1.8-0.8,3.5-2.1,4.8c-0.1,0.1-0.3,0.3-0.4,0.4c0.1,0.1,0.3,0.3,0.4,0.4
		c2.8,2.8,2.8,7.3,0,10.1c-2.1,2-5,2.6-7.6,1.6c-0.2,1.4-0.9,2.7-2,3.8c-2.2,2.2-5.5,2.7-8.2,1.4h0c-1.2,1.2-2.7,1.9-4.2,2
		c-1.4,0.2-2.8-0.1-4-0.7c-0.3-0.1-0.6-0.3-0.8-0.5c-0.1,0.2-0.3,0.3-0.5,0.5c-2.8,2.8-7.3,2.8-10.1,0c-1.7-1.7-2.4-4-2-6.2
		c-0.4,0.1-0.7,0.1-1.1,0.1c-4,0-7.1-3.2-7.1-7.2c0-0.8,0.1-1.5,0.3-2.2c-1.1-1.3-1.7-2.9-1.7-4.6c0-1.5,0.5-2.8,1.2-4
		c-0.6-0.2-1.2-0.4-1.7-0.7c-3.4-2-4.6-6.3-2.6-9.8c0.6-1.1,1.5-2,2.5-2.6c-3.3-2-4.4-6.3-2.5-9.7c0.4-0.7,0.9-1.3,1.5-1.8
		c-2-0.6-3.7-2-4.6-4c-1.6-3.6,0-7.8,3.7-9.4c0.7-0.3,1.5-0.5,2.3-0.6c-0.2-0.3-0.3-0.6-0.5-0.9c-1.6-3.6,0-7.8,3.6-9.4
		c-1-0.7-1.8-1.7-2.3-2.9c-1.6-3.6,0-7.8,3.7-9.4c2-0.9,4.2-0.8,6,0.1c-1.3-2.7-0.8-5.9,1.4-8.1c1.6-1.6,3.7-2.3,5.8-2.1
		c-1.7-2.8-1.4-6.4,1-8.8c0.1-0.1,0.3-0.3,0.4-0.4c-2.5-2.1-3.3-5.8-1.7-8.8c0.8-1.5,2.1-2.7,3.6-3.3c0.7-0.3,1.4-0.5,2.1-0.5
		c-0.2-0.3-0.3-0.6-0.5-0.9c-0.9-1.9-0.8-4.2,0.2-6.2c0.1-0.2,0.2-0.4,0.4-0.7c1.4-2.1,3.9-3.3,6.3-3.2c1,0,2,0.3,3,0.8
		c2.3,1.2,3.7,3.5,3.8,6c0.1,1.2-0.2,2.5-0.8,3.7c0,0,0,0,0,0c0.4,0.3,0.9,0.5,1.2,0.9c1.8,1.6,2.7,4.1,2.3,6.5
		c0.6,0.1,1.2,0.3,1.7,0.6c3.5,1.8,4.8,6.1,3.1,9.6c0,0,0,0.1,0,0.1c-0.3,0.6-0.7,1.1-1.1,1.6c1.9,1.2,3,3.2,3.3,5.3
		c0.1,1,0,2-0.3,2.9c0,0,0,0,0,0c-0.1,0.4-0.3,0.7-0.5,1.1c-0.1,0.2-0.2,0.3-0.3,0.5c0.9,0.1,1.8,0.3,2.7,0.8
		c1.4,0.7,2.5,1.9,3.1,3.3c0.2,0.5,0.4,1,0.5,1.5c1.5-0.3,3.1-0.1,4.5,0.7c3.5,1.8,4.8,6.2,3,9.7c-1,2-2.9,3.3-5,3.7
		c0.2,0.1,0.4,0.2,0.6,0.3c3.5,1.8,4.9,6.2,3,9.7c-0.1,0.2-0.2,0.3-0.3,0.5c-0.1,0.2-0.3,0.4-0.4,0.6c0.1,0,0.3,0.1,0.4,0.2
		c0,0,0,0,0,0c3.5,1.8,4.8,6.2,3,9.6C163.1,94.6,161.9,95.7,160.4,96.3z"/>
</g>
<g>
	<path style="fill:#96ED51;" d="M171.7,134.3c-1.1,0.8-6,4.5-12.1,10.2C165.7,138.7,170.6,135.1,171.7,134.3z"/>
	<path style="fill:#96ED51;" d="M172,134.1c-5.3,38.2-33.1,54.3-40.9,58.1V246c0,1.1-0.9,2-2,2c-1.1,0-2-0.9-2-2v-42.6
		c-0.4-0.5-0.8-1.1-1.3-1.7c-4.8-2.8-16.1-9.7-21.5-15.5c-10.5,9.5-23.8,19.6-24.3,19.9c0,0,0,0,0,0s4.6-26.1,12.3-36.8
		c0,0,7.7-4.6,15.3-1.5c7.9,3.4,15.9,22.7,19.5,32.6v-59.3c1.3,0.6,2.6,0.9,4,0.7v42.4c5.2-15.5,17.8-29.7,27.6-38.9
		c0.3-0.3,0.6-0.6,0.9-0.8c6.1-5.7,11-9.3,12.1-10.2C171.9,134.2,172,134.1,172,134.1z"/>
	<g style="opacity:0.1;">
		<path d="M131.1,141.8V246c0,1.1-0.9,2-2,2c-1.1,0-2-0.9-2-2V141.1C128.3,141.8,129.7,142,131.1,141.8z"/>
	</g>
	<path style="opacity:0.1;" d="M172,134.1c-5.3,38.2-33.1,54.3-40.9,58.1V190C138.8,180.8,166.7,147.3,172,134.1z"/>
	<path style="opacity:0.1;" d="M127.1,200.4v3.1c-5.4-7-17.9-21.8-17.9-21.8c-10.6,10.6-28.5,24.1-29.1,24.5
		c10.7-26,27.6-38.3,27.6-38.3C115.5,171.2,123.5,190.5,127.1,200.4z"/>
	<g style="opacity:0.2;">
		<path style="fill:#FFFFFF;" d="M141.3,62.7c0,0-0.1,0-0.1,0C141.2,62.7,141.3,62.7,141.3,62.7C141.3,62.7,141.3,62.7,141.3,62.7z"
			/>
		<path style="fill:#FFFFFF;" d="M141.3,62.7c0,0-0.1,0-0.1,0C141.2,62.7,141.3,62.7,141.3,62.7C141.3,62.7,141.3,62.7,141.3,62.7z"
			/>
		<circle style="fill:#FFFFFF;" cx="139" cy="75" r="4.2"/>
		<path style="fill:#FFFFFF;" d="M141.3,62.7c0,0-0.1,0-0.1,0C141.2,62.7,141.3,62.7,141.3,62.7C141.3,62.7,141.3,62.7,141.3,62.7z"
			/>
		<circle style="fill:#FFFFFF;" cx="130.8" cy="81.4" r="4.5"/>
		<circle style="fill:#FFFFFF;" cx="133.4" cy="112.4" r="3.7"/>
		<circle style="fill:#FFFFFF;" cx="111.6" cy="66.3" r="2.8"/>
		<circle style="fill:#FFFFFF;" cx="114.4" cy="82.6" r="2.8"/>
		<circle style="fill:#FFFFFF;" cx="128" cy="49.9" r="2.8"/>
		<circle style="fill:#FFFFFF;" cx="119.8" cy="53.8" r="3.7"/>
		<path style="fill:#FFFFFF;" d="M140.5,24.6c-0.5,0.7-1.1,1.2-2,1.5c-1.8,0.6-3.8-0.4-4.5-2.1c-0.4,1-1.2,1.8-2.3,2.1
			c-0.1,0-0.1,0-0.2,0c0.3,1.8-0.8,3.5-2.6,4c-1.9,0.6-4-0.5-4.6-2.4c-0.3-1.1-0.2-2.2,0.4-3.1c0.4-0.6,0.9-1.1,1.6-1.4
			c0.1-0.1,0.3-0.1,0.4-0.2c0.1,0,0.1,0,0.2,0c-0.3-1.7,0.7-3.3,2.2-3.9c-1-0.4-1.8-1.2-2.1-2.3c0-0.1-0.1-0.3-0.1-0.4
			c-0.3-1.8,0.7-3.6,2.5-4.2c1.4-0.4,2.9,0,3.8,1c0.4,0.4,0.7,0.9,0.8,1.4c0.6,1.8-0.4,3.8-2.1,4.5c0.9,0.4,1.6,1.1,2,2
			c0.4-1,1.2-1.8,2.3-2.1c1.4-0.4,2.8,0,3.7,1c0.1,1.2-0.2,2.5-0.8,3.7c0,0,0,0,0,0C139.7,23.9,140.2,24.2,140.5,24.6z"/>
		<circle style="fill:#FFFFFF;" cx="125.2" cy="66.1" r="3.7"/>
		<path style="fill:#FFFFFF;" d="M161.4,92.2c-0.5-1.8-2.3-2.8-4-2.6c0.5-0.8,0.8-1.6,0.8-2.6v0c0.3-0.1,0.5-0.2,0.8-0.4
			c1.1-0.7,1.8-2,1.9-3.2c0-0.3,0-0.5,0-0.8c-0.1-0.6-0.3-1.2-0.6-1.8c-0.8-1.2-2-1.9-3.3-1.9c-0.9-1.3-2.6-2-4.2-1.5
			c-0.6,0.2-1,0.5-1.4,0.8c0.1-0.9,0-1.9-0.5-2.7c0.7-0.6,1.1-1.4,1.2-2.3c0.8,0.5,1.9,0.6,2.9,0.3c2-0.6,3-2.7,2.4-4.6
			c-0.3-1.1-1.1-1.9-2.1-2.3c1.8-0.7,2.7-2.7,2.1-4.5c-0.4-1.3-1.4-2.2-2.6-2.5c0.1-0.5,0.1-1.1-0.1-1.6c-0.1-0.3-0.3-0.7-0.4-1
			c0.1-0.1,0.2-0.3,0.3-0.5c-0.6-1.4-1.7-2.5-3.1-3.3c-0.9-0.5-1.8-0.7-2.7-0.8c0.1-0.2,0.2-0.3,0.3-0.5c0.2-0.3,0.3-0.7,0.5-1.1
			c0,0,0,0,0,0c0-0.4,0-0.8-0.2-1.1c-0.1-0.4-0.3-0.8-0.5-1.1c0.4-0.2,0.7-0.4,1-0.7c-0.2-2.1-1.4-4.1-3.3-5.3
			c0.4-0.5,0.8-1,1.1-1.6c0,0,0-0.1,0-0.1c-0.8-1.6-2.6-2.4-4.4-1.8c-0.2,0.1-0.4,0.1-0.5,0.2c-0.4-1.5-1.5-2.9-3-3.7
			c-0.4-0.2-0.9-0.4-1.3-0.5c0.1-0.4,0.1-0.8,0-1.2c0.1,0,0.1,0,0.2,0c1.9-0.6,3-2.7,2.4-4.6c-0.6-1.9-2.7-3-4.6-2.4
			c-1.8,0.5-2.8,2.3-2.5,4c-0.1,0-0.1,0-0.2,0c-2,0.6-3,2.7-2.4,4.6c0.2,0.6,0.6,1.2,1,1.6c-0.2,0.3-0.5,0.6-0.6,1
			c0-0.2-0.1-0.4-0.1-0.7c-0.6-2-2.7-3-4.6-2.4c-2,0.6-3,2.7-2.4,4.6c0.6,1.9,2.7,3,4.6,2.4c0.8-0.2,1.4-0.7,1.9-1.3
			c-0.1,2.2,1.1,4.4,3.2,5.5c0.3,0.2,0.6,0.3,0.9,0.4c-0.3,0.3-0.5,0.7-0.7,1.1c-1.5,2.9-0.4,6.5,2.5,8.1c0.1,0,0.1,0.1,0.2,0.1
			c-0.1,0.2-0.3,0.4-0.3,0.5c-0.7,1.3-0.6,2.7,0,3.9c-1.3,0.2-2.5,1.1-3.1,2.3c-1.2,2.2-0.3,4.9,1.9,6.1c1.9,1,4.1,0.5,5.5-1
			c0.5,1.3,1.5,2.4,2.8,3c0.4,0.2,0.9,0.4,1.3,0.5c-0.3,0.8-0.3,1.6-0.1,2.4c0,0.1,0,0.2,0.1,0.2c-0.6,0.4-1.1,0.9-1.4,1.6
			c-0.7,1.3-0.6,2.7,0,3.8c-1,0.5-1.8,1.4-2.3,2.4c-1.5,2.9-0.4,6.5,2.5,8.1c0.3,0.1,0.5,0.3,0.8,0.4c-0.2,1-0.1,2.2,0.6,3.1
			c0.5,0.8,1.2,1.3,1.9,1.6c-0.1,0.1-0.1,0.2-0.2,0.4c-0.5,0.9-0.6,1.9-0.5,2.8c-0.9-0.6-2-0.8-3.1-0.4c-0.3,0.1-0.5,0.2-0.7,0.3
			c0-0.2-0.1-0.4-0.1-0.6c-0.2-0.6-0.5-1.1-1-1.6c1.8-1.3,2.3-3.8,1.1-5.7c-1.3-2-3.8-2.5-5.8-1.3c-1.9,1.3-2.5,3.8-1.3,5.8
			c0.3,0.4,0.6,0.7,0.9,1c-1.1,0.9-1.5,2.4-1.1,3.9c0.6,2,2.7,3,4.6,2.4c0.3-0.1,0.5-0.2,0.7-0.3c0,0.2,0.1,0.4,0.1,0.6
			c0.4,1.3,1.5,2.3,2.8,2.5c-0.1,0.5-0.1,0.9,0,1.4c-1.5,0.1-2.9,1-3.6,2.4c-1.1,2.1-0.3,4.8,1.7,6c-0.1,0.4-0.2,0.7-0.2,1.1
			c-0.2,0.1-0.4,0.2-0.6,0.3c-2.2-1.1-4.9-0.3-6,1.9c-1.2,2.2-0.3,4.9,1.9,6.1c0.1,0,0.2,0.1,0.2,0.1c-1,1.8-0.3,4,1.5,5
			c1.8,0.9,4,0.3,5-1.6c0.5-1,0.5-2.1,0.1-3.1c1.4-0.2,2.6-1,3.3-2.4c0.3-0.6,0.5-1.3,0.5-1.9c0.6-0.2,1.1-0.5,1.6-0.9
			c0.1,0.1,0.2,0.1,0.3,0.2c1.8,1,4,0.4,5-1.3c1-1.8,0.4-4-1.4-5c-1.1-0.6-2.4-0.6-3.5-0.1c-0.3-0.4-0.7-0.7-1.2-1
			c0.2-0.6,0.2-1.3,0.1-1.9c0.7,0,1.4-0.3,2-0.7c0.3,0.7,0.8,1.4,1.6,1.8c1.8,1,4,0.4,5-1.3c1-1.8,0.4-4-1.3-5
			c-1-0.6-2.2-0.6-3.2-0.2c-0.2-1.1-0.8-2.1-1.8-2.7c1.7,0.1,3.3-0.8,4.1-2.4c1.2-2.2,0.3-4.9-1.9-6.1c-0.2-0.1-0.4-0.2-0.7-0.3
			c0.4-0.7,0.6-1.4,0.5-2.2c0.7,0.2,1.4,0.3,2.1,0.1c-0.5,0.9-0.7,2-0.4,3c0.6,2,2.7,3,4.6,2.4C160.9,96.3,162,94.2,161.4,92.2z
			 M152.3,66.7c0,0,0.1,0,0.1,0C152.4,66.8,152.3,66.8,152.3,66.7C152.3,66.8,152.3,66.8,152.3,66.7z M141.2,62.8c0,0,0-0.1,0.1-0.1
			c0,0,0,0,0,0.1C141.3,62.7,141.3,62.8,141.2,62.8z M147.4,54.7c-0.1-0.1-0.3-0.1-0.4-0.2c0.2-0.1,0.3-0.2,0.5-0.2
			C147.5,54.4,147.5,54.5,147.4,54.7z M147.9,101.3v-0.1c0,0,0.1,0.1,0.2,0.1H147.9z"/>
		<circle style="fill:#FFFFFF;" cx="130" cy="99.3" r="3.9"/>
	</g>
</g>
</svg>
