<?xml version="1.0" encoding="utf-8"?>
<!-- Generator: Adobe Illustrator 22.1.0, SVG Export Plug-In . SVG Version: 6.00 Build 0)  -->
<svg version="1.1" id="Layer_1" xmlns="http://www.w3.org/2000/svg" xmlns:xlink="http://www.w3.org/1999/xlink" x="0px" y="0px"
	 viewBox="0 0 256 256" style="enable-background:new 0 0 256 256;" xml:space="preserve">
<g>
	<path style="fill:#55C445;" d="M143.2,236.3c-0.3,0.4-0.4,0.6-0.4,0.6c-0.3-0.5-0.6-1-0.8-1.5C142.4,235.8,142.8,236.1,143.2,236.3
		z"/>
	<path style="fill:#55C445;" d="M131.4,60.8c-1.7-4.1-7-8.5-11.2-11c-0.2-3.3-6.1-8.3-11.6-12.1l-6.6-20c-0.6-1.8-2.6-2.8-4.4-2.2
		c-1.8,0.6-2.8,2.6-2.2,4.4l6.4,19.3l0,0.1c-0.1,0.4-0.2,0.9-0.3,1.4c-1.3,5.6-3.1,15-0.5,17.1c1.6,19.9,9.1,43.9,13.4,69
		c7,41,10.1,70.8,11,78c2.2,17.9,11.9,27.1,16.6,30.6c0.5,0.3,0.9,0.6,1.3,0.9c0.3-0.5,0.9-1.3,1.5-2.4
		C151.9,221.3,175.2,167.9,131.4,60.8z M123,80.3c0.3-0.1,0.6-0.2,0.9-0.3c0,0,0,0,0,0.1C123.6,80.1,123.3,80.2,123,80.3z
		 M136.3,153c0.2-0.1,0.4-0.1,0.6-0.1c0,0.1,0,0.1,0,0.2C136.8,153,136.5,153,136.3,153z"/>
	<path style="fill:#55C445;" d="M137,153c-0.2,0-0.4,0-0.7,0c0.2-0.1,0.4-0.1,0.6-0.1C137,152.9,137,153,137,153z"/>
	<path style="fill:#55C445;" d="M137,153c-0.2,0-0.4,0-0.7,0c0.2-0.1,0.4-0.1,0.6-0.1C137,152.9,137,153,137,153z"/>
	<path style="fill:#55C445;" d="M101.7,39.3c-0.1,0.4-0.2,0.9-0.3,1.4c0.1-0.5,0.2-1,0.3-1.5L101.7,39.3z"/>
	<path style="fill:#55C445;" d="M123.9,80c-0.3,0.1-0.6,0.1-0.9,0.3C123.3,80.2,123.6,80,123.9,80C123.9,80,123.9,80,123.9,80z"/>
	<path style="fill:#55C445;" d="M137,153c-0.2,0-0.4,0-0.7,0c0.2-0.1,0.4-0.1,0.6-0.1C137,152.9,137,153,137,153z"/>
	<path style="fill:#55C445;" d="M144.7,233.9c0,1.1,0,2.2-0.1,3.3c0,0-0.5-0.3-1.4-0.9C143.5,235.8,144,235,144.7,233.9z"/>
</g>
<g style="opacity:0;">
	<path style="fill:#449E35;" d="M141.9,235.5c0.5,0.3,0.9,0.6,1.3,0.9c-0.3,0.4-0.4,0.6-0.4,0.6C142.5,236.5,142.2,236,141.9,235.5z
		"/>
	<path style="opacity:0.4;" d="M144.7,233.9c0-3.2,0-6.4,0-9.6c0-0.8,0-1.7-0.1-2.5c5-2.8,7.5-8.7,5.7-14.3c-1-3.1-3.1-5.5-5.7-7
		c5.8-1.8,9.4-7.6,8.4-13.7c-0.7-4.1-3.4-7.4-7-9.1c-1.1-0.5-2.3-0.9-3.6-1c0.1,0,0.3-0.1,0.4-0.1c5.8-1.8,9.5-7.6,8.4-13.7
		c-0.7-4.1-3.4-7.4-7-9c-1.3-0.6-2.8-1-4.3-1.1c0.3-0.1,0.5-0.1,0.8-0.2c6.4-2,10-8.9,8-15.3c-2-6.4-8.9-10-15.3-8c0,0-0.1,0-0.1,0
		c0-0.3-0.1-0.6-0.1-0.9c1.5,0.1,3,0,4.6-0.5c6.4-2,10-8.9,8-15.3c-2-6.4-8.9-10-15.3-8c-0.5,0.2-0.9,0.3-1.3,0.5
		c-0.1-0.4-0.2-0.8-0.2-1.1c0.5-0.1,1-0.2,1.5-0.4c6.4-2,10-8.9,8-15.3c-1.9-6.1-8.3-9.6-14.4-8.2c0,0,0-0.1,0-0.1
		c5.9-2.4,9-8.9,7.1-15c-1.8-5.7-7.4-9.1-13.1-8.4c-0.4-1.3-1-2.4-1.5-3.4c0.3-0.1,0.6-0.2,1-0.3c2.1-0.6,3-1.6,2.9-3
		c4.2,2.5,9.5,6.9,11.2,11C175.2,167.9,151.9,221.3,144.7,233.9z"/>
	<path style="opacity:0.3;fill:#FFFFFF;" d="M137.7,127.8c-1.5,0.5-3.1,0.6-4.6,0.5c-0.7-4-1.3-8-2-11.9c-0.2-0.9-0.3-1.9-0.5-2.8
		c-0.5-2.9-1-5.8-1.6-8.6c0.4-0.2,0.9-0.4,1.3-0.5c6.4-2,13.3,1.5,15.3,8C147.7,118.9,144.1,125.8,137.7,127.8z"/>
	<path style="opacity:0.3;fill:#FFFFFF;" d="M150.2,207.4c1.8,5.6-0.7,11.6-5.7,14.3c0-0.1,0-0.2,0-0.4c0-0.6,0-1.1-0.1-1.7
		c0-0.6,0-1.1-0.1-1.7c0-0.5,0-1-0.1-1.5c0-0.9-0.1-1.8-0.1-2.6c0-0.7-0.1-1.4-0.1-2.1c-0.2-2.4-0.3-4.8-0.5-7.3
		c-0.1-1.1-0.2-2.2-0.3-3.3c0-0.2,0-0.4,0-0.5c0-0.3-0.1-0.7-0.1-1c-0.1-0.8-0.2-1.6-0.2-2.3c-0.1-1.3-0.3-2.5-0.4-3.8
		c-0.2-1.3-0.3-2.7-0.5-4.1c-0.4-3.1-0.8-6.3-1.2-9.5c-0.1-1-0.3-2-0.4-3c0-0.1,0-0.3,0-0.4c-0.1-1-0.3-1.9-0.4-2.9
		c-0.2-1.4-0.4-2.8-0.6-4.2c-0.2-1.4-0.4-2.8-0.6-4.2c-0.3-2.1-0.6-4.2-0.9-6.3c-0.1-1-0.3-2-0.4-3c-0.1-1-0.3-2-0.4-3
		c-0.2,0-0.4,0-0.7,0c0.2-0.1,0.4-0.1,0.6-0.1c-0.4-2.5-0.7-4.9-1.1-7.4c-0.2-1.5-0.5-2.9-0.7-4.4c-0.3-2.1-0.7-4.2-1-6.3
		c-0.3-1.8-0.6-3.7-0.9-5.5c0,0,0.1,0,0.1,0c6.4-2,13.3,1.5,15.3,8c2,6.4-1.5,13.3-8,15.3c-0.3,0.1-0.5,0.2-0.8,0.2
		c1.5,0.1,3,0.5,4.3,1.1c3.5,1.6,6.3,4.9,7,9c1.1,6.1-2.6,12-8.4,13.7c-0.1,0-0.3,0.1-0.4,0.1c1.3,0.2,2.5,0.5,3.6,1
		c3.5,1.6,6.3,4.9,7,9.1c1,6.1-2.6,11.9-8.4,13.7C147.2,201.9,149.3,204.3,150.2,207.4z"/>
	<path style="opacity:0.3;fill:#FFFFFF;" d="M130.3,103.5c-0.5,0.2-1,0.3-1.5,0.4c-0.6-3.2-1.2-6.3-1.8-9.3c-0.2-1-0.4-2-0.6-3
		c-0.8-4-1.6-7.9-2.5-11.6c6.2-1.4,12.5,2.1,14.4,8.2C140.3,94.7,136.8,101.5,130.3,103.5z"/>
	<path style="opacity:0.3;fill:#FFFFFF;" d="M123.9,79.9c-0.5-2.1-0.9-4.1-1.4-6c-0.2-0.9-0.4-1.9-0.7-2.8
		c-1.2-4.8-2.3-9.2-3.5-13.3c-0.1-0.5-0.3-0.9-0.4-1.4c5.7-0.7,11.3,2.8,13.1,8.4C132.8,71,129.7,77.6,123.9,79.9z"/>
	<path style="fill:#55C445;" d="M101.7,39.3c-0.1,0.4-0.2,0.9-0.3,1.4c0.1-0.5,0.2-1,0.3-1.5L101.7,39.3z"/>
	<path style="fill:#55C445;" d="M106,56.7c0.2-0.1,0.4-0.2,0.7-0.3C106.4,56.5,106.2,56.6,106,56.7z"/>
	<path style="fill:#55C445;" d="M107.7,56c0.5-0.2,1-0.4,1.6-0.6C108.7,55.6,108.2,55.8,107.7,56z"/>
	<path style="fill:#55C445;" d="M144.7,233.9c0,1.1,0,2.2-0.1,3.3c0,0-0.5-0.3-1.4-0.9C143.5,235.8,144,235,144.7,233.9z"/>
	<g style="opacity:0.2;">
		<path d="M120.2,49.8c0.1,1.3-0.7,2.4-2.9,3c-0.3,0.1-0.6,0.2-1,0.3c-5.8,1.7-9.3,3.2-10.7,3.8c-0.5,0.2-0.7,0.4-0.7,0.4
			c-1.9,1.2-3.2,1.3-4,0.7c-2.6-2.1-0.8-11.6,0.5-17.1c0.1-0.5,0.2-1,0.3-1.4l0-0.1l-6.4-19.3c-0.6-1.8,0.4-3.8,2.2-4.4
			c1.8-0.6,3.8,0.4,4.4,2.2l6.6,20C114.1,41.5,120,46.5,120.2,49.8z"/>
	</g>
	<path style="fill:#55C445;" d="M123.9,80c-0.3,0.1-0.6,0.1-0.9,0.3C123.3,80.2,123.6,80,123.9,80C123.9,80,123.9,80,123.9,80z"/>
	<path style="fill:#55C445;" d="M137,153c-0.2,0-0.4,0-0.7,0c0.2-0.1,0.4-0.1,0.6-0.1C137,152.9,137,153,137,153z"/>
</g>
</svg>
