<?xml version="1.0" encoding="utf-8"?>
<!-- Generator: Adobe Illustrator 22.1.0, SVG Export Plug-In . SVG Version: 6.00 Build 0)  -->
<svg version="1.1" id="Layer_1" xmlns="http://www.w3.org/2000/svg" xmlns:xlink="http://www.w3.org/1999/xlink" x="0px" y="0px"
	 viewBox="0 0 256 256" style="enable-background:new 0 0 256 256;" xml:space="preserve">
<g style="opacity:0;">
	<path style="fill:#E2B756;" d="M200.1,30.9c-0.3,1.8,0,4.1-0.5,6.1c-0.4,1.8-2.2,3.5-2.8,5.5c-0.5,1.8,0.4,4.3-0.3,6.2
		c-0.6,1.8-8.3,1.2-9,3.1c-0.6,1.8,3,5.2,2.3,7.1c-0.7,1.8,0.7,4.5-0.1,6.4c-0.7,1.8-1.6,3.6-2.4,5.4c-0.8,1.8-3,3-3.8,4.8
		c-0.8,1.8-4.9,2.1-5.7,3.9c-0.8,1.8-0.4,4.1-1.3,5.9c-0.8,1.8-1.4,3.7-2.2,5.5c-0.9,1.8-4.6,2.1-5.4,3.9c-0.9,1.8,3.5,6.2,2.6,7.9
		c-0.9,1.8-7.1,0.7-8,2.5c-0.9,1.8,3,6,2,7.8c-1,1.8-1.6,3.6-2.6,5.3c-1,1.7-7.1,0.5-8.1,2.2c-1,1.7-1.1,3.9-2,5.6
		c-1,1.7,0.9,5.1-0.1,6.8c-1.1,1.7,0.3,5-0.7,6.6c-1.1,1.7-1.5,3.9-2.5,5.5c-1.1,1.7-4.2,2.1-5.3,3.6c-1.2,1.7-4.9,1.5-6,2.9
		c-1.3,1.7-3.1,2.7-4.2,4c-1.4,1.5-3,2.5-4.3,3.8c-1.4,1.5-1.4,4.2-2.7,5.4c-1.5,1.4-0.5,5.6-1.9,6.8c-1.6,1.3-5.7-0.7-7.2,0.3
		c-1.7,1.2-2.9,2.9-4.5,3.7c-1.9,1-2.6,5.4-4.3,5.9c-2,0.6-5-2.9-6.8-2.9c-2-0.1-5.3,2.9-7,2.2c-0.8-0.3-1.3-1.7-1.6-3.1
		c-0.3-1.2-0.6-2.4-1-3.2c-0.2-0.3-0.4-0.6-0.6-0.8c-2.7-1.1-2.4-0.1-4.7-2.8c-1.1-1.2-0.9-3-1.7-5.2c-0.5-1.6-3.9-2.9-4-5.2
		c-0.1-1.7-1.6-4.1-1.4-6.3c0.2-1.8,7.2-2.7,7.6-4.8c0.4-1.8-1.5-4.1-1-6.1c0.5-1.8-1.9-4.6-1.2-6.6c0.6-1.8-0.2-4.3,0.5-6.2
		c0.7-1.8,6.2-1.6,7-3.5c0.8-1.7-1.5-4.9-0.6-6.8c0.8-1.7,4.5-2.1,5.4-3.9c0.9-1.7-1.9-5.4-0.9-7.2c0.9-1.7,3.7-2.4,4.7-4.2
		c0.9-1.7,5.8-1.1,6.9-2.8c1-1.7,2.2-3.2,3.2-4.9c1-1.6,1.2-3.8,2.3-5.5c1-1.6,0.7-4.2,1.8-5.8c1.1-1.7,3.7-2.3,4.8-3.9
		c1.1-1.7-2.8-6.7-1.7-8.3c1.1-1.6,3.5-2.5,4.6-4c1.1-1.6,5.7-0.8,6.9-2.3c1.2-1.6-3.4-7.5-2.2-9c1.2-1.6,3.7-2.2,4.9-3.8
		c1.2-1.6,4.9-1.2,6.1-2.7c1.3-1.5-1.1-6.2,0.2-7.6c1.3-1.5,3-2.8,4.3-4.3c1.4-1.5,4.9-1,6.2-2.4c1.4-1.5,5.2-0.5,6.6-1.8
		c1.5-1.4,1.5-4.1,2.9-5.4c1.5-1.4,5-0.2,6.5-1.5c1.6-1.3,1.3-4.6,2.8-5.8c1.7-1.3,3.5-1.9,5-2.9c1.8-1.1,4.2-0.4,5.8-1.2
		c1.9-1,3.2-1.7,4.9-2.2c2.1-0.7,3-5,4.8-5c2.2,0,4.3,0.9,5.9,1.8c1.5,0.9,1.8,3.1,2.3,5.4c0.3,1.6,0.8,3.5,0.6,5.8
		C197.9,26.3,200.4,28.8,200.1,30.9z"/>
</g>
<g>
	<g>
		<path style="fill:#8FDB5D;" d="M93.5,177.4c-32.8,32-61,67.2-61.3,67.5c-0.3,0.4-0.7,0.6-1.2,0.6c-0.3,0-0.7-0.1-0.9-0.3
			c-0.6-0.5-0.8-1.5-0.2-2.1c0.3-0.4,29.2-36.4,62.6-68.8C92.9,175,93.2,176.3,93.5,177.4z"/>
	</g>
	<g style="opacity:0.3;">
		<path style="fill:#FFFFFF;" d="M139.2,86.7c0.1,0.1,0.2,0.2,0.3,0.3c0.1-0.1,0.1-0.2,0.2-0.2C139.5,86.8,139.4,86.8,139.2,86.7z
			 M140.2,84.4c-0.1,0.1-0.1,0.2-0.1,0.4c0.1-0.1,0.1-0.2,0.2-0.2s0.1-0.2,0.1-0.2C140.3,84.4,140.3,84.4,140.2,84.4z M140.4,85.7
			c0,0,0,0.1,0,0.1c0,0,0,0,0,0C140.4,85.8,140.4,85.7,140.4,85.7z"/>
		<path style="fill:#FFFFFF;" d="M182.5,25.4c0.5,0,1.1,0.1,1.3-0.1c0-0.1,0.1-0.1,0.1-0.2C183.4,25.2,182.9,25.2,182.5,25.4z
			 M193.1,28.5c0-0.1,0-0.2-0.1-0.3c0,0,0,0,0,0c0,0,0,0,0,0c0,0,0,0,0,0.1c0,0,0,0.1,0,0.1c0,0.3,0.2,0.6,0.3,0.9
			C193.2,28.9,193.1,28.7,193.1,28.5z M193.2,33.2C193.2,33.2,193.2,33.3,193.2,33.2c-0.1,0.3,0,0.5,0.1,0.8c0,0,0,0,0,0
			C193.4,33.8,193.3,33.5,193.2,33.2z M193.5,30.3c-0.2,0.4-0.7,0.7-0.8,1.1c-0.1,0.2,0.1,0.6,0.3,0.9c0-0.1,0-0.2,0-0.2
			C193,31.5,193.5,30.9,193.5,30.3L193.5,30.3z"/>
		<path style="fill:#FFFFFF;" d="M166.8,49.4C166.8,49.4,166.8,49.4,166.8,49.4C166.8,49.4,166.8,49.4,166.8,49.4
			C166.8,49.4,166.8,49.4,166.8,49.4z"/>
		<path style="fill:#FFFFFF;" d="M168.5,45.3c-0.1,0.2-0.4,0.4-0.6,0.6c-0.1-0.2-0.3-0.4-0.3-0.5c-0.1-0.3,0.2-0.8,0-0.9
			c-0.3-0.3-0.5,0.1-0.9,0c0,0,0,0-0.1,0c0.2-0.2,0.5-0.5,0.6-0.8c0-0.1,0.1-0.1,0.2-0.2C167.9,44.1,168.7,45,168.5,45.3z"/>
		<path style="fill:#FFFFFF;" d="M182.5,25.4C182.5,25.4,182.5,25.4,182.5,25.4c-0.5,0.4-1.1,0.6-1.6,1c-0.5,0.4-0.1,1.4-0.5,1.8
			c-0.3,0.3-1.2,0.2-1.8,0.3c0.2-0.4,0.2-0.8,0.5-1.1c0.3-0.4,0.6-0.8,1-1.2c0.3-0.4,1.2-0.3,1.6-0.7
			C181.8,25.4,182.2,25.4,182.5,25.4z"/>
		<path style="fill:#FFFFFF;" d="M193.2,33.2c-0.1-0.3-0.2-0.6-0.3-0.9C193.1,32.7,193.3,33,193.2,33.2z"/>
		<path style="fill:#FFFFFF;" d="M193.5,30.1c0,0.1,0,0.2-0.1,0.2c0-0.4-0.1-0.8-0.2-1.1C193.4,29.5,193.6,29.8,193.5,30.1z"/>
		<path style="fill:#FFFFFF;" d="M193.3,23.2c-0.2-0.1-0.4-0.2-0.6-0.3c0-0.1,0-0.3,0.2-0.4c0.1-0.1,0.2-0.2,0.3-0.3
			c0,0.1,0,0.1,0,0.1C193.2,22.6,193.2,22.9,193.3,23.2z"/>
		<path style="fill:#FFFFFF;" d="M193.3,21.7C193.2,21.7,193.2,21.8,193.3,21.7c-0.1,0-0.1,0-0.1,0
			C193.2,21.7,193.2,21.7,193.3,21.7z"/>
		<path style="fill:#FFFFFF;" d="M116.5,143.3c-0.1,0-0.3,0-0.4-0.1c-0.5-0.3-1.2-0.5-1.4-0.8c0-0.1,0-0.2-0.1-0.3
			c0.2,0.2,0.5,0.3,0.7,0.5c0.3,0.2,0.5,0.4,0.8,0.6C116.4,143.2,116.5,143.3,116.5,143.3z"/>
		<path style="fill:#FFFFFF;" d="M156.3,66.4c-0.2,0.2-0.5,0.4-0.6,0.6c-0.1,0.2-0.2,0.5-0.5,0.6c-0.2,0.1-0.5-0.1-0.7-0.1
			c-0.2,0-0.4,0-0.7-0.1c-0.2,0-0.4-0.2-0.6-0.3c-0.2-0.1-0.4-0.2-0.6-0.2c-0.1,0-0.2,0-0.2,0c-0.1,0.1-0.2,0.2-0.3,0.3
			c-0.1,0.2-0.2,0.5-0.5,0.6c-0.2,0.1-0.5-0.1-0.7-0.1c-0.2,0-0.4,0-0.7-0.1c-0.2,0-0.4-0.2-0.6-0.3c-0.2-0.1-0.4-0.2-0.6-0.2
			c-0.2-0.1-0.5,0-0.7-0.1c-0.3-0.2-0.6-0.2-0.7-0.4c-0.1-0.2-0.1-0.6,0-0.9c0.1-0.2,0.2-0.4,0.4-0.6c0.1-0.2,0.3-0.4,0.4-0.6
			c0.1-0.2,0.2-0.4,0.4-0.6c0.1-0.2,0.3-0.3,0.4-0.6c0.1-0.3,0.2-0.5,0.4-0.7c0.2-0.2,0.6-0.1,0.8-0.2c0.3-0.1,0.5-0.6,0.7-0.6
			c0.4,0.1,0.3,0.5,0.6,0.7c0.1,0.1,0.2,0.3,0.4,0.6c0.1,0.1,0.3,0.3,0.4,0.4c0.1-0.1,0.2-0.3,0.3-0.4c0.1-0.3,0.2-0.5,0.4-0.7
			c0.1-0.1,0.2-0.1,0.3-0.1c-0.1-0.2-0.4-0.4-0.4-0.6c0-0.2,0.2-0.5,0.3-0.7c0.1-0.2,0.1-0.5,0.3-0.8c0.1-0.3,0-0.6,0.2-0.9
			c0.1-0.3,0.6-0.3,0.8-0.4c0.2-0.1,0.4-0.5,0.7-0.5c0.2,0,0.5,0.3,0.8,0.3c0.3,0,0.5,0.2,0.8,0.2c0.4,0,0.6,0,0.7,0.1
			c0.3,0.2,0.6-0.1,0.9,0.2c0.1,0.2-0.2,0.6-0.2,0.9c0,0.2,0.3,0.5,0.2,0.8c-0.1,0.2-0.3,0.4-0.5,0.6c-0.1,0.2-0.2,0.4-0.3,0.6
			c-0.1,0.2-0.3,0.4-0.4,0.6c-0.1,0.2-0.2,0.5-0.3,0.7c-0.1,0.2-0.2,0.3-0.3,0.5c0,0,0.1,0.1,0.1,0.1c0.1,0.3-0.1,0.7-0.1,0.9
			c0,0.3,0.2,0.7,0,0.9C156.9,66.1,156.5,66.2,156.3,66.4z"/>
		<path style="fill:#FFFFFF;" d="M140.4,85.7c-0.1-0.2-0.3-0.3-0.4-0.5c0-0.1,0-0.3,0.1-0.4C140.2,85.1,140.3,85.4,140.4,85.7z"/>
		<path style="fill:#FFFFFF;" d="M140.5,86.8c-0.1,0.1-0.4,0.1-0.8,0.1c0-0.1,0.1-0.1,0.1-0.2c0.1-0.3,0.2-0.5,0.4-0.7
			c0-0.1,0.1-0.1,0.2-0.1C140.5,86.2,140.6,86.6,140.5,86.8z"/>
		<path style="fill:#FFFFFF;" d="M112,164.5c-0.1,0.2,0,0.6-0.1,0.8c-0.1,0.1-0.3,0.3-0.2,0.6c0.1,0.2,0.6,0.5,0.8,0.8
			c0.2,0.2,0.4,0.5,0.7,0.7c0.2,0.2,0.6,0.4,0.9,0.6c0.3,0.2,0.6,0.4,0.8,0.6c0.1,0.1,0.2,0.2,0.3,0.3c0,0.1,0,0.3-0.1,0.4
			c-0.1,0.1-0.3,0.3-0.2,0.6c0.1,0.2,0.6,0.5,0.8,0.8c0.2,0.2,0.4,0.5,0.7,0.7c0.2,0.2,0.6,0.4,0.9,0.6c0.3,0.2,0.6,0.4,0.8,0.6
			c0.3,0.2,0.5,0.5,0.8,0.7c0.4,0.3,0.8,0.6,1.1,0.7c0.3,0,0.8,0,0.9-0.2c0.1-0.1,0.2-0.3,0.3-0.5c0.1-0.2,0.1-0.4,0.2-0.6
			c0.1-0.2,0.2-0.3,0.3-0.5c0.1-0.2,0.1-0.4,0.2-0.6c0.2-0.2,0.4-0.3,0.4-0.5c0.1-0.2-0.5-0.7-0.6-0.9c-0.1-0.3,0.2-0.6-0.1-0.9
			c-0.5-0.4-0.8-0.2-1.3-0.5c-0.2-0.1-0.6-0.2-1.1-0.3c-0.3-0.1-0.6-0.2-0.8-0.4c0-0.1,0.1-0.3,0.2-0.4c0.2-0.2,0.4-0.3,0.4-0.5
			c0-0.1,0-0.2-0.1-0.3c0.3,0.1,0.8,0.4,1.1,0.4c0.3,0,0.4-0.3,0.4-0.4c0.1-0.2,0.5-0.2,0.6-0.4c0.2-0.2,0.6-0.2,0.8-0.3
			c0.1-0.2-0.2-0.7-0.3-1c-0.1-0.2,0.1-0.5-0.1-0.9c-0.2-0.3-0.9-0.5-1.1-0.8c-0.3-0.3-0.7-0.5-0.9-0.8c-0.4-0.4-0.6-0.7-0.8-0.8
			c-0.5-0.3-0.5-0.7-1.1-0.9c-0.3-0.1-0.5,0.3-0.8,0.3c-0.2,0-0.9-0.3-1.1-0.1c-0.1,0.1-0.2,0.4-0.3,0.6c-0.1,0.2-0.3,0.3-0.4,0.4
			c-0.1,0.2-0.2,0.3-0.3,0.5c-0.1,0.2-0.3,0.3-0.4,0.5c-0.1,0.1-0.2,0.2-0.3,0.4c-0.1,0-0.2-0.1-0.2-0.1c-0.4-0.1-0.6,0.3-0.8,0.3
			c-0.3,0-0.9-0.1-1,0.1C111.9,163.8,112.1,164.2,112,164.5z"/>
		<path style="fill:#FFFFFF;" d="M193.2,21.8c-0.1,0.1-0.1,0.3-0.1,0.4c0.1-0.1,0.1-0.1,0.2-0.2C193.3,21.9,193.3,21.9,193.2,21.8z"
			/>
		<path style="fill:#FFFFFF;" d="M119.2,144.2c0,0-0.1,0.1-0.1,0.2c-0.2,0.2-0.6,0.2-0.9,0.2c-0.3,0-0.7-0.4-1.1-0.7
			c-0.2-0.1-0.4-0.3-0.5-0.5c0.3,0,0.7,0,1,0.1c0.4,0.2,0.8,0.4,1.2,0.5C118.9,144,119,144.1,119.2,144.2z"/>
		<path style="fill:#FFFFFF;" d="M193,28.1C193,28.1,193,28.1,193,28.1C193,28.2,193,28.2,193,28.1C193,28.2,193,28.1,193,28.1z"/>
		<path style="fill:#FFFFFF;" d="M196,25c-0.1-0.3,0.2-0.6-0.1-0.9c-0.5-0.4-0.8-0.2-1.3-0.5c-0.2-0.1-0.6-0.2-1.1-0.3
			c-0.1,0-0.2-0.1-0.3-0.1c-0.2-0.1-0.4-0.2-0.6-0.3c0-0.1,0-0.3,0.2-0.4c0.1-0.1,0.2-0.2,0.3-0.3v0c0-0.1,0-0.3,0.1-0.4
			c0,0,0-0.1-0.1-0.1c0,0,0.1,0,0.1,0c0.3,0.1,0.7,0.3,0.9,0.4c0.3,0,0.3-0.3,0.4-0.4c0.1-0.2,0.5-0.3,0.6-0.4
			c0.2-0.2,0.6-0.2,0.8-0.3c0.1-0.2-0.2-0.7-0.3-1c-0.1-0.2,0.1-0.5-0.2-0.9c-0.2-0.3-0.9-0.5-1.1-0.8c-0.3-0.3-0.7-0.5-0.9-0.8
			c-0.4-0.4-0.6-0.7-0.8-0.8c-0.5-0.3-0.5-0.7-1-0.9c-0.3-0.1-0.5,0.3-0.8,0.3c-0.3,0-0.9-0.3-1.1-0.1c-0.1,0.1-0.2,0.4-0.3,0.6
			c-0.1,0.2-0.3,0.3-0.4,0.4c-0.1,0.2-0.2,0.4-0.3,0.5c-0.2,0.2-0.3,0.3-0.4,0.5c-0.1,0.1-0.2,0.3-0.3,0.4c-0.1,0-0.2-0.1-0.3-0.1
			c-0.4-0.1-0.6,0.3-0.8,0.3c-0.3,0-0.9-0.1-1,0.2c-0.1,0.2,0.1,0.6,0.1,0.8c-0.1,0.2,0,0.6-0.1,0.8c-0.1,0.1-0.2,0.3-0.2,0.4
			c0,0,0,0-0.1,0c-0.4,0.3-0.6,0.9-1,1.3c-0.4,0.3-1.1,0.4-1.5,0.7c-0.3,0.3,0.6,1.8,0.7,2.4c0,0.1,0,0.2-0.1,0.2
			c-0.2,0.2-0.8,0.1-1.3,0.1c0,0,0,0,0,0c-0.5,0.3-1.1,0.6-1.6,1c-0.5,0.4-0.1,1.4-0.5,1.8c-0.3,0.3-1.2,0.2-1.8,0.3
			c-0.2,0-0.3,0.1-0.5,0.2c-0.4,0.4-0.2,1.3-0.6,1.7c-0.4,0.4-1.9,0.2-2.3,0.6c-0.4,0.5-1.7,0.3-2,0.8c-0.4,0.5-0.8,0.9-1.2,1.4
			c-0.3,0.5,0.9,1.9,0.6,2.4c-0.3,0.5-1.7,0.4-2,0.9c-0.3,0.5-1.2,0.7-1.5,1.2c-0.3,0.5,1.9,2.3,1.6,2.8c-0.3,0.5-2,0.3-2.3,0.8
			c-0.3,0.5-1.1,0.8-1.3,1.3c-0.1,0.2,0,0.4,0.3,0.7c0.4,0.7,1.3,1.5,1.1,1.9c-0.1,0.2-0.4,0.4-0.6,0.6c-0.1-0.2-0.3-0.4-0.3-0.5
			c-0.1-0.3,0.2-0.8,0-0.9c-0.3-0.3-0.5,0.1-0.9,0c0,0,0,0-0.1,0c-0.1,0-0.4,0-0.7,0.1c-0.2,0-0.5-0.1-0.8-0.1
			c-0.3,0-0.6-0.3-0.9-0.2c-0.3,0.1-0.5,0.5-0.6,0.6c-0.2,0.2-0.6,0.3-0.7,0.6c-0.1,0.2,0,0.6,0,0.9c-0.1,0.3,0,0.6-0.1,0.8
			c-0.1,0.2-0.3,0.5-0.2,0.7c0.1,0.2,0.4,0.3,0.5,0.5c-0.1,0-0.2,0.1-0.2,0.2c-0.1,0.2-0.2,0.5-0.2,0.8c0,0.2-0.1,0.3-0.2,0.5
			c-0.1-0.1-0.3-0.2-0.5-0.4c-0.3-0.3-0.4-0.5-0.5-0.5c-0.3-0.2-0.3-0.6-0.7-0.6c-0.2,0-0.4,0.5-0.6,0.7c-0.2,0.1-0.6,0-0.8,0.3
			c-0.1,0.2-0.1,0.5-0.2,0.8c-0.1,0.2-0.2,0.4-0.3,0.6c-0.1,0.2-0.2,0.5-0.3,0.7c-0.1,0.3-0.2,0.5-0.3,0.7c-0.1,0.3-0.2,0.5-0.3,0.7
			c-0.1,0.3,0,0.7,0.1,0.9c0.1,0.2,0.4,0.2,0.7,0.3c0.2,0.1,0.5-0.1,0.7,0c0.2,0.1,0.4,0.1,0.6,0.1c0.2,0,0.4,0.2,0.6,0.2
			c0.2,0,0.5,0,0.7-0.1c0.2,0,0.6,0.1,0.7,0c0.2-0.1,0.3-0.5,0.3-0.6c0.1-0.2,0.2-0.3,0.3-0.4c0.1,0,0.2,0,0.3,0
			c0.1,0,0.2,0,0.3,0.1c-0.4,0.3-0.9,0.6-1,0.9c-0.2,0.6,1.1,1.7,1,2.2c-0.2,0.6-1.5,0.7-1.6,1.3c-0.2,0.6,0.9,1.6,0.8,2.1
			c-0.1,0.6-2.1,0.6-2.3,1.2c-0.1,0.6,0.4,1.4,0.3,1.9c0,0.2,0,0.4,0.2,0.6c-0.2,0.2-0.3,0.4-0.4,0.5c-0.2,0.2-0.6,0.3-0.7,0.6
			c-0.1,0.2,0,0.6,0,0.9c-0.1,0.3,0,0.6-0.1,0.8c-0.1,0.2-0.3,0.5-0.2,0.7c0.1,0.2,0.4,0.3,0.5,0.5c-0.1,0-0.2,0.1-0.2,0.2
			c-0.1,0.2-0.1,0.5-0.2,0.8c0,0.2-0.2,0.3-0.2,0.5c-0.2-0.1-0.3-0.2-0.5-0.3c-0.3-0.3-0.4-0.5-0.5-0.5c-0.3-0.2-0.3-0.6-0.7-0.6
			c-0.2,0-0.4,0.5-0.6,0.7c-0.2,0.1-0.6,0.1-0.8,0.3c-0.1,0.2-0.2,0.5-0.2,0.8c-0.1,0.2-0.2,0.4-0.3,0.6c-0.1,0.2-0.2,0.4-0.3,0.7
			c-0.1,0.3-0.2,0.5-0.3,0.7c-0.1,0.3-0.2,0.5-0.3,0.7c0,0.1,0,0.2,0,0.4c-0.1,0.2-0.3,0.3-0.4,0.5c-0.3,0.3-0.5,0.7-0.9,1
			c-0.4,0.3-1.2,0.2-1.6,0.5c-0.4,0.2,0.4,1.8,0.3,2.4v0c0,0.1,0,0.2-0.1,0.2l0,0c-0.4,0.3-1.7-0.5-2.1-0.1
			c-0.4,0.3-1.3,0.1-1.7,0.5c-0.4,0.3-0.8,0.7-1.2,1c-0.4,0.3-0.5,1-0.8,1.4c-0.4,0.3,0,1.5-0.4,1.8c-0.4,0.3-1,0.4-1.4,0.8
			c-0.2,0.2-0.5,0.4-0.7,0.5c-0.1,0-0.3-0.1-0.4-0.1c-0.3,0-0.6-0.4-0.8-0.3c-0.3,0-0.5,0.4-0.7,0.5c-0.3,0.1-0.7,0.2-0.8,0.4
			c-0.1,0.2-0.1,0.6-0.2,0.9c-0.1,0.2-0.1,0.4-0.2,0.6c0,0.1-0.1,0.2-0.1,0.2s-0.1,0.1-0.2,0.2c0,0.3,0.1,0.6,0.2,0.9
			c0,0,0,0.1,0.1,0.1c0,0,0,0,0,0c0.1,0.4,0.2,0.8,0.1,1c-0.1,0.1-0.4,0.1-0.8,0.1c0,0.1-0.1,0.2-0.2,0.2c-0.1-0.1-0.2-0.2-0.3-0.3
			c0,0-0.1-0.1-0.1-0.1c-0.2-0.3-0.3-0.6-0.4-0.6c-0.3-0.2-0.2-0.6-0.6-0.7c-0.2,0-0.5,0.5-0.7,0.6c-0.2,0.1-0.6-0.1-0.8,0.2
			c-0.1,0.2-0.2,0.4-0.4,0.7c-0.1,0.2-0.3,0.4-0.4,0.6c-0.1,0.2-0.2,0.4-0.4,0.6c-0.2,0.2-0.3,0.4-0.5,0.6c-0.2,0.2-0.3,0.5-0.4,0.7
			c-0.1,0.3-0.1,0.7,0,0.9c0,0.2,0.4,0.3,0.7,0.4c0.2,0.1,0.5,0,0.7,0.1c0.2,0.1,0.4,0.2,0.6,0.2c-0.1,0.1-0.2,0.2-0.3,0.3
			c-0.3,0.4-1.5,0.1-1.8,0.5c-0.3,0.4-1.4,0.3-1.7,0.6c-0.3,0.4-0.9,0.7-1.2,1.1c-0.3,0.4-0.1,1.3-0.4,1.7c-0.3,0.4,0.2,1.4-0.1,1.8
			c-0.3,0.5-0.4,1-0.6,1.4c-0.2,0.5-0.3,1-0.5,1.4c-0.2,0.5-1,0.7-1.1,1.1c-0.2,0.5-1.4,0.5-1.6,1c-0.2,0.5,0.8,1.5,0.7,2
			c-0.1,0.5-0.4,1-0.5,1.5c0,0.6-1.1,1.1-1.1,1.6c0.1,0.6,1.3,1.2,1.5,1.6c0.2,0.5-0.1,1.4,0.1,1.9c-0.3,0.9,0.4,2.2,0,3
			c-0.1,0.1-0.1,0.3-0.2,0.4c-0.2-0.4-0.2-0.8-0.8-0.9c-0.4-0.1-0.9,0.9-1.4,1.1c-0.4,0.2-1.3-0.1-1.6,0.3c-0.3,0.3-0.5,0.9-0.7,1.4
			c-0.2,0.5-0.6,0.8-0.9,1.1c-0.3,0.4-0.5,0.8-0.7,1.2c-0.3,0.4-0.6,0.8-0.9,1.1c-0.3,0.5-0.6,0.9-0.8,1.3c-0.3,0.5-0.2,1.3-0.1,1.7
			c0.1,0.4,0.8,0.5,1.4,0.8c0.3,0.2,0.6,0.1,1,0.1c-0.1,0.1-0.2,0.2-0.2,0.4c-0.3,1,1.4,2.3,1.3,3.2c-0.2,1-0.7,1.9-0.7,2.8
			c-0.1,1-1.8,2.4-1.7,3.2c0,0.2,0.2,0.4,0.4,0.6c-0.3,0.3-0.6,0.7-0.9,0.8c-0.3,0.2-1.1-0.1-1.5,0.2c-0.2-0.2-0.5-0.3-0.7-0.5
			c-0.3-0.3-0.7-0.5-0.9-0.8c-0.4-0.4-0.6-0.7-0.8-0.8c-0.5-0.3-0.5-0.7-1-0.9c-0.3-0.1-0.5,0.3-0.8,0.4c-0.2,0-0.9-0.3-1.1-0.1
			c-0.1,0.1-0.2,0.4-0.3,0.6c-0.1,0.2-0.3,0.3-0.4,0.4c-0.1,0.2-0.2,0.3-0.3,0.5c-0.1,0.2-0.3,0.3-0.4,0.5c-0.1,0.1-0.2,0.2-0.3,0.4
			c-0.1,0-0.2-0.1-0.3-0.1c-0.4-0.1-0.6,0.3-0.8,0.3c-0.3,0-0.9-0.1-1,0.1c-0.1,0.2,0.1,0.6,0.1,0.8c-0.1,0.2,0,0.5-0.1,0.8
			c-0.1,0.1-0.3,0.3-0.2,0.6c0.1,0.2,0.6,0.5,0.8,0.8c0.2,0.2,0.4,0.5,0.7,0.7c0.2,0.2,0.6,0.4,0.9,0.6c0.3,0.2,0.6,0.4,0.8,0.6
			c0.1,0.1,0.2,0.2,0.3,0.3c0,0.2,0,0.3-0.1,0.4c-0.1,0.1-0.3,0.3-0.2,0.6c0.1,0.2,0.6,0.5,0.8,0.8c0.2,0.2,0.4,0.5,0.7,0.7
			c0,0,0.1,0.1,0.2,0.1v0c0.2,0.2,0.5,0.3,0.7,0.5c0.3,0.2,0.5,0.4,0.8,0.6c0.1,0.1,0.2,0.1,0.2,0.2c0.3,0,0.7,0,1,0.1
			c0.4,0.2,0.8,0.4,1.2,0.5c0.2,0,0.3,0.1,0.5,0.2c0.2,0.2,0.5,0.3,0.7,0.4c0.5,0.1,0.9,0.1,1.3,0.1c0.5,0,1.1,0.4,1.4,0.3
			c0.5-0.2,0.7-0.8,0.9-1.1c0.3-0.5,0.8-0.8,1.2-1.2c0.4-0.4,1.1-0.7,1.4-1.1c0.3-0.5,0-1.3,0-1.8c0-0.3,0.3-0.9,0.3-1.4
			c0.5-0.1,1-0.2,1.3-0.1c0.8,0.7,0.6,0.9,1.4,1.2c-0.2,0.5,0.7,1.9,0.4,2.2c-0.3,0.4-0.9,0.6-1.3,0.9c-0.3,0.4-1.5,0.1-1.8,0.5
			c-0.3,0.4-1.3,0.3-1.7,0.6c-0.3,0.4-0.9,0.7-1.2,1.1c-0.3,0.4-0.1,1.3-0.4,1.7c-0.3,0.4,0.2,1.4-0.1,1.8c-0.3,0.5-0.4,1-0.6,1.4
			c-0.2,0.5-0.3,1-0.5,1.4c-0.2,0.5-0.9,0.7-1.1,1.1c-0.2,0.5-1.4,0.5-1.6,1c-0.2,0.5,0.8,1.5,0.7,2c-0.1,0.5-0.4,1-0.5,1.5
			c-0.1,0.6-1.1,1.1-1.1,1.6c0.1,0.6,1.3,1.2,1.5,1.6c0.3,0.5-0.2,1.6,0.2,2c0.4,0.4,1.7,0,2.2,0.4c0.6,0.7,0.3,0.6,1.3,1.1
			c0.4,0.2,0.9,0,1.6,0.1c0.5,0,1.2,0.9,1.8,0.7c0.5-0.1,1.3,0.2,1.8,0c0.5-0.2-0.1-2.1,0.4-2.4c0.4-0.2,1.3,0.1,1.7-0.2
			c0.4-0.3,1.4,0.2,1.9-0.1c0.4-0.3,1.1-0.2,1.6-0.6c0.4-0.3-0.3-1.8,0.1-2.1c0.4-0.3,1.5,0.1,1.9-0.3c0.3-0.3,0-1.3,0.4-1.7
			c0.3-0.4,1.6,0.1,2-0.2c0.3-0.4,0.2-1.2,0.6-1.5c0.3-0.4-0.4-1.7,0-2c0.3-0.4,0.6-0.8,0.9-1.2c0.3-0.4,0.9-0.6,1.2-1
			c0.3-0.4,1-0.5,1.3-0.9c0.3-0.4,0.2-1.2,0.5-1.6c0.3-0.4,2.1,0.3,2.4-0.1c0.3-0.4,0.3-1.1,0.5-1.5c0.3-0.4-0.5-1.6-0.2-2
			c0.3-0.4,2.4,0.4,2.6,0s0.2-1.2,0.4-1.6c0.3-0.4-0.2-1.4,0-1.8c0.3-0.5,1.8-0.1,2-0.6c0.3-0.5,0.4-1,0.6-1.4
			c0.2-0.5-0.3-1.4-0.1-1.8c0.2-0.5-0.5-1.4-0.3-1.9c0.2-0.5,0.9-0.7,1.1-1.2c0.2-0.5-0.5-1.4-0.4-1.8c0.2-0.5,1.1-0.7,1.2-1.2
			c0.1-0.5,0.1-1.1,0.2-1.6c0.1-0.5-0.4-1.2-0.3-1.7c0-0.6,0.1-1,0-1.5c-0.1-0.6,1-1.2,0.8-1.6c-0.2-0.6-0.7-1.1-1.2-1.5
			c-0.4-0.4-1-0.3-1.7-0.3c-0.2,0-0.4,0-0.7,0c0-0.3,0.1-0.6,0.3-0.8c0.6-0.8,2.7-0.5,3.2-1.3c0.5-0.8,0.4-2.1,0.9-3
			c0.5-0.8-0.7-2.8-0.1-3.6c0.5-0.8,0.9-1.7,1.5-2.5c0.5-0.8,1.4-1.4,1.9-2.2c0.5-0.8,1.7-1.3,2.2-2.1c0.5-0.8,0.3-2.1,0.7-3
			c0.5-0.9,3.4-0.3,3.9-1.2c0.5-0.9,0.4-2.1,0.8-2.9c0.5-0.9-0.8-2.6-0.3-3.5c0.5-0.9,3.9-0.3,4.3-1.2c0.5-0.9,0.3-2.1,0.7-3
			c0.4-0.9-0.4-2.4,0-3.2c0.4-0.9,2.9-1,3.2-1.9c0.4-0.9,0.6-1.9,1-2.8c0.4-0.9-0.5-2.3-0.2-3.2c0.4-0.9-0.8-2.3-0.5-3.2
			c0.3-1,1.5-1.6,1.8-2.5c0.3-0.9-0.7-2-0.7-2.8v0c0.5-0.3,2.1,0.3,2.5-0.2c0.4-0.4-0.3-1.7,0.1-2.1c0.4-0.4,0.1-1.3,0.5-1.7
			c0.4-0.4,0.9-0.8,1.3-1.2c0.3-0.4,0.9-0.7,1.2-1.3c0.3-0.5,1.6-0.4,1.9-1c0.3-0.5,1.3-0.7,1.6-1.2c0.2-0.5,0.2-1.2,0.4-1.7
			c0.2-0.5-0.6-1.5-0.3-2c0.2-0.5-0.8-1.6-0.5-2.1c0.2-0.5,0-1.2,0.3-1.8c0.2-0.5,2.5-0.3,2.7-0.8c0.2-0.5,0.3-1.1,0.5-1.7
			c0.2-0.5-1.6-1.8-1.4-2.4c0.2-0.5,2.5-0.3,2.7-0.9c0.2-0.6-1.8-1.9-1.6-2.4c0-0.2,0.2-0.3,0.3-0.4c0.2,0.2,0.6,0.3,0.8,0.5
			c0.3,0.2,0.6,0.4,0.8,0.6c0.3,0.2,0.5,0.5,0.8,0.7c0.4,0.3,0.8,0.6,1.1,0.7c0.3,0,0.8,0,0.9-0.2c0.1-0.1,0.2-0.3,0.3-0.5
			c0.1-0.2,0.1-0.4,0.2-0.6c0.1-0.2,0.2-0.3,0.3-0.5c0.1-0.2,0.1-0.4,0.2-0.6c0.2-0.2,0.4-0.3,0.4-0.5c0.1-0.3-0.5-0.7-0.6-0.9
			c-0.1-0.3,0.2-0.6-0.1-0.9c-0.5-0.4-0.8-0.2-1.3-0.5c-0.2-0.1-0.6-0.2-1.1-0.3c-0.3-0.1-0.5-0.3-0.8-0.4c0-0.1,0-0.3,0.2-0.4
			c0.2-0.2,0.4-0.3,0.4-0.5c0-0.1,0-0.2-0.1-0.3c0.3,0.1,0.8,0.4,1,0.4c0.3,0,0.3-0.3,0.4-0.4c0.1-0.2,0.5-0.3,0.6-0.4
			c0.2-0.2,0.6-0.2,0.8-0.3c0.1-0.2-0.2-0.7-0.3-1c-0.1-0.2,0.1-0.5-0.2-0.9c-0.1-0.1-0.3-0.3-0.5-0.4c0.1-0.5,0.2-0.9,0.3-1.3
			c0.1-0.6-0.6-1.4-0.5-2c0-0.1,0-0.1,0-0.2c0.5-0.2,1.3-0.2,1.4-0.5c0.2-0.5,0.3-1,0.4-1.5c0.1-0.3-0.1-0.7-0.2-1
			c-0.1-0.3-0.2-0.6-0.1-0.8c0,0,0,0,0,0c-0.1-0.3-0.2-0.6-0.3-0.9c-0.2-0.3-0.3-0.7-0.3-0.9c0.1-0.4,0.6-0.7,0.8-1.1
			c0-0.4-0.1-0.8-0.2-1.1c-0.2-0.3-0.4-0.6-0.3-0.9c0,0,0-0.1,0-0.1c0,0,0-0.1,0-0.1c0,0,0,0,0,0c0,0,0,0,0,0c0,0,0,0,0,0
			c0.4,0.3,0.8,0.6,1.1,0.7c0.3,0,0.8,0,0.9-0.2c0.1-0.1,0.2-0.3,0.3-0.5c0.1-0.2,0.1-0.4,0.2-0.6c0.1-0.2,0.2-0.3,0.3-0.5
			c0.1-0.2,0.1-0.4,0.2-0.6c0.2-0.2,0.4-0.3,0.4-0.5C196.6,25.7,196,25.3,196,25z M117.1,137.3C117.1,137.3,117.1,137.3,117.1,137.3
			L117.1,137.3L117.1,137.3z M123.4,134.6c0.1,0.1,0.2,0.2,0.3,0.3c0,0.1,0.1,0.2,0.1,0.3C123.6,134.9,123.5,134.7,123.4,134.6z
			 M166.8,49.4C166.8,49.4,166.8,49.4,166.8,49.4C166.8,49.4,166.8,49.4,166.8,49.4C166.8,49.4,166.8,49.4,166.8,49.4z"/>
	</g>
	<path style="fill:#8FDB5D;" d="M38.5,236.5c0,0,45-30,96-29s79,14,79,14s-76-10-109-3S38.5,236.5,38.5,236.5z"/>
</g>
</svg>
