<?xml version="1.0" encoding="utf-8"?>
<!-- Generator: Adobe Illustrator 22.1.0, SVG Export Plug-In . SVG Version: 6.00 Build 0)  -->
<svg version="1.1" id="Layer_1" xmlns="http://www.w3.org/2000/svg" xmlns:xlink="http://www.w3.org/1999/xlink" x="0px" y="0px"
	 viewBox="0 0 256 256" style="enable-background:new 0 0 256 256;" xml:space="preserve">
<g>
	<path style="fill:#7EAF52;" d="M216.6,128c0,66.7-16.8,120.8-89.3,120.8c-54.7,0-75.4-37.6-62-84c0.4-1.4,0.8-3,1.1-4.8
		c1.4-7.1,2-16.3,2-25.9c0-5.4-0.2-11-0.5-16.3c-0.6-8.6-1.7-16.7-3.1-23c-0.5-2.1-1-4-1.6-5.6c-9.1-25.8-4.2-81.9,64.1-81.9
		C189.3,7.2,216.6,61.3,216.6,128z"/>
</g>
<g style="opacity:0;">
	<path style="opacity:0.3;" d="M74.4,85c-5,0-8.1,4.3-9.5,9.8c1.5,6.3,2.5,14.4,3.1,23c1,4.7,1.2,10.9,0.5,16.3
		c0,9.6-0.7,18.8-2,25.9c2.1,6.4,6.5,11.1,11,11.1c11.3,0,16-16.1,16-41.5C93.6,104.3,84.1,85,74.4,85z M78,156.3
		c-5.6,0-10.5-10.5-7.1-19.2c1.8-4.7,2-14.8-0.2-18.9c-3.1-5.7-1.8-18.6,5.2-18.6c6.3,0,12.6,12.7,12.6,29.4
		C88.5,145.7,85.5,156.3,78,156.3z"/>
	<path style="opacity:0.7;fill:#FFFFFF;" d="M88.5,129c0,16.7-3.1,27.3-10.5,27.3c-5.6,0-10.5-10.5-7.1-19.2
		c1.8-4.7,2-14.8-0.2-18.9c-3.1-5.7-1.8-18.6,5.2-18.6C82.3,99.7,88.5,112.4,88.5,129z"/>
	
		<ellipse transform="matrix(0.8285 -0.56 0.56 0.8285 -4.1335 101.7996)" style="opacity:0.2;fill:#FFFFFF;" cx="164.1" cy="57.6" rx="18.9" ry="27.3"/>
</g>
</svg>
