<?xml version="1.0" encoding="utf-8"?>
<!-- Generator: Adobe Illustrator 22.1.0, SVG Export Plug-In . SVG Version: 6.00 Build 0)  -->
<svg version="1.1" id="Layer_1" xmlns="http://www.w3.org/2000/svg" xmlns:xlink="http://www.w3.org/1999/xlink" x="0px" y="0px"
	 viewBox="0 0 256 256" style="enable-background:new 0 0 256 256;" xml:space="preserve">
<g>
	<path style="fill:#F9D069;" d="M93.9,181.2c-0.3,0-0.5-0.2-0.5-0.4c0-0.3,0.2-0.5,0.4-0.5l19-2c0.3,0,0.5,0.2,0.5,0.4
		c0,0.3-0.2,0.5-0.4,0.5L93.9,181.2C94,181.2,93.9,181.2,93.9,181.2z"/>
</g>
<g>
	<path style="fill:#E9F76B;" d="M119.4,161.7c-0.1,0-0.2,0-0.3-0.1l-13-11c-0.2-0.2-0.2-0.5-0.1-0.7c0.2-0.2,0.5-0.2,0.7-0.1l13,11
		c0.2,0.2,0.2,0.5,0.1,0.7C119.7,161.6,119.6,161.7,119.4,161.7z"/>
</g>
<g>
	<path style="fill:#E9F76B;" d="M117.4,119.7c-0.1,0-0.2,0-0.3-0.1l-16-13c-0.2-0.2-0.2-0.5-0.1-0.7c0.2-0.2,0.5-0.2,0.7-0.1l16,13
		c0.2,0.2,0.2,0.5,0.1,0.7C117.7,119.6,117.6,119.7,117.4,119.7z"/>
</g>
<g>
	<path style="fill:#E9F76B;" d="M84.4,77.7c-0.2,0-0.4-0.2-0.5-0.4c-0.1-0.3,0.1-0.5,0.4-0.6l20-4c0.3-0.1,0.5,0.1,0.6,0.4
		c0.1,0.3-0.1,0.5-0.4,0.6L84.4,77.7C84.5,77.7,84.5,77.7,84.4,77.7z"/>
</g>
<g>
	<path style="fill:#E9F76B;" d="M113.4,62.7c-0.1,0-0.3-0.1-0.4-0.2l-11-12c-0.2-0.2-0.2-0.5,0-0.7s0.5-0.2,0.7,0l11,12
		c0.2,0.2,0.2,0.5,0,0.7C113.7,62.6,113.5,62.7,113.4,62.7z"/>
</g>
<g>
	<path style="fill:#E9F76B;" d="M127.4,106.7c-0.2,0-0.4-0.1-0.5-0.3l-8-19c-0.1-0.3,0-0.5,0.3-0.7c0.3-0.1,0.5,0,0.7,0.3l8,19
		c0.1,0.3,0,0.5-0.3,0.7C127.6,106.7,127.5,106.7,127.4,106.7z"/>
</g>
<g>
	<path style="fill:#E9F76B;" d="M160.4,184.7c-0.1,0-0.3,0-0.4-0.1c-0.2-0.2-0.2-0.5,0-0.7l18-18c0.2-0.2,0.5-0.2,0.7,0
		s0.2,0.5,0,0.7l-18,18C160.7,184.6,160.6,184.7,160.4,184.7z"/>
</g>
<g>
	<path style="fill:#E9F76B;" d="M166.4,154.7c-0.1,0-0.2,0-0.2-0.1c-0.2-0.1-0.3-0.4-0.2-0.7l10-19c0.1-0.2,0.4-0.3,0.7-0.2
		c0.2,0.1,0.3,0.4,0.2,0.7l-10,19C166.8,154.6,166.6,154.7,166.4,154.7z"/>
</g>
<g>
	<path style="fill:#E9F76B;" d="M193.5,168.8c-0.2,0-0.4-0.1-0.5-0.3c-0.1-0.3,0-0.5,0.3-0.7l19.6-8.7c0.3-0.1,0.5,0,0.7,0.3
		c0.1,0.3,0,0.5-0.3,0.7l-19.6,8.7C193.6,168.8,193.5,168.8,193.5,168.8z"/>
</g>
<g>
	<path style="fill:#E9F76B;" d="M171.4,128.7c-0.2,0-0.3-0.1-0.4-0.2c-0.1-0.2-0.1-0.5,0.2-0.7l15-9c0.2-0.1,0.5-0.1,0.7,0.2
		c0.1,0.2,0.1,0.5-0.2,0.7l-15,9C171.6,128.7,171.5,128.7,171.4,128.7z"/>
</g>
<g>
	<path style="fill:#E9F76B;" d="M182.4,113.7c-0.2,0-0.3-0.1-0.4-0.3c-0.1-0.2,0-0.5,0.2-0.7l17.4-9.6c0.2-0.1,0.5,0,0.7,0.2
		c0.1,0.2,0,0.5-0.2,0.7l-17.4,9.6C182.5,113.6,182.4,113.7,182.4,113.7z"/>
</g>
<g>
	<path style="fill:#E9F76B;" d="M164.4,92.3c-0.2,0-0.3-0.1-0.4-0.2c-0.2-0.2-0.1-0.5,0.1-0.7l16.3-11.6c0.2-0.2,0.5-0.1,0.7,0.1
		c0.2,0.2,0.1,0.5-0.1,0.7l-16.3,11.6C164.6,92.3,164.5,92.3,164.4,92.3z"/>
</g>
<g>
	<path style="fill:#E9F76B;" d="M175.9,95.8c-0.2,0-0.4-0.2-0.5-0.4c-0.1-0.3,0.1-0.5,0.4-0.6l19.4-4.8c0.3-0.1,0.5,0.1,0.6,0.4
		c0.1,0.3-0.1,0.5-0.4,0.6l-19.4,4.8C176,95.8,176,95.8,175.9,95.8z"/>
</g>
<g>
	<path style="fill:#E9F76B;" d="M153.4,94.7c-0.1,0-0.2,0-0.2-0.1c-0.2-0.1-0.3-0.4-0.2-0.7l9-16c0.1-0.2,0.4-0.3,0.7-0.2
		c0.2,0.1,0.3,0.4,0.2,0.7l-9,16C153.8,94.6,153.6,94.7,153.4,94.7z"/>
</g>
<g>
	<path style="fill:#E9F76B;" d="M153.4,66.7c-0.1,0-0.2,0-0.2-0.1c-0.2-0.1-0.3-0.4-0.2-0.7l12-24c0.1-0.2,0.4-0.3,0.7-0.2
		c0.2,0.1,0.3,0.4,0.2,0.7l-12,24C153.8,66.6,153.6,66.7,153.4,66.7z"/>
</g>
<g>
	<path style="fill:#E9F76B;" d="M132.4,68.7c-0.2,0-0.4-0.1-0.4-0.3l-10-20c-0.1-0.2,0-0.5,0.2-0.7c0.2-0.1,0.5,0,0.7,0.2l10,20
		c0.1,0.2,0,0.5-0.2,0.7C132.6,68.7,132.5,68.7,132.4,68.7z"/>
</g>
<g>
	<path style="fill:#E9F76B;" d="M134.4,37.7c-0.2,0-0.4-0.1-0.5-0.4l-4-15c-0.1-0.3,0.1-0.5,0.4-0.6c0.3-0.1,0.5,0.1,0.6,0.4l4,15
		c0.1,0.3-0.1,0.5-0.4,0.6C134.5,37.7,134.5,37.7,134.4,37.7z"/>
</g>
<g>
	<path style="fill:#E9F76B;" d="M153.4,37.7c-0.1,0-0.1,0-0.2,0c-0.3-0.1-0.4-0.4-0.2-0.7l7-15c0.1-0.3,0.4-0.4,0.7-0.2
		c0.3,0.1,0.4,0.4,0.2,0.7l-7,15C153.8,37.6,153.6,37.7,153.4,37.7z"/>
</g>
<g>
	<g>
		<g>
			<path style="fill:#E9F76B;" d="M171.4,173.1c0,0-1.7,9.6-8.7,15.8c-7,6.2-16.8,6.6-16.8,6.6s1.7-9.6,8.7-15.8
				C161.7,173.5,171.4,173.1,171.4,173.1z"/>
		</g>
	</g>
	<g>
		<g>
			<path style="fill:#E9F76B;" d="M170.8,146.4c0,0,1.8,9.6-2.6,17.9c-4.5,8.2-13.6,11.9-13.6,11.9s-1.8-9.6,2.6-17.9
				C161.7,150.1,170.8,146.4,170.8,146.4z"/>
		</g>
	</g>
	<g>
		<g>
			<path style="fill:#E9F76B;" d="M113.3,156.5c0,0,9.6-2.4,16.3,2.2c6.8,4.6,8.2,14.3,8.2,14.3s-9.6,2.4-16.3-2.2
				C114.7,166.2,113.3,156.5,113.3,156.5z"/>
		</g>
	</g>
	<g>
		<g>
			<path style="fill:#E9F76B;" d="M110.3,113.5c0,0,8,0,14.7,4.5c6.8,4.6,9.7,12,9.7,12s-8,0-14.7-4.5
				C113.3,120.9,110.3,113.5,110.3,113.5z"/>
		</g>
	</g>
	<g>
		<g>
			<path style="fill:#E9F76B;" d="M126.9,58.1c0,0,10,4.3,14.3,13.4c4.2,9.1,1,19.5,1,19.5s-10-4.3-14.3-13.4
				C123.7,68.6,126.9,58.1,126.9,58.1z"/>
		</g>
	</g>
	<g>
		<g>
			<path style="fill:#E9F76B;" d="M123.9,98.5c0,0,7.1,5.7,11.3,14.8c4.2,9.1,4,18.2,4,18.2s-7.1-5.7-11.3-14.8
				C123.7,107.6,123.9,98.5,123.9,98.5z"/>
		</g>
	</g>
	<g>
		<g>
			<path style="fill:#E9F76B;" d="M178.2,124.5c0,0-10.7-2.2-19.4,2.9c-8.7,5.1-12,15.5-12,15.5s10.7,2.2,19.4-2.9
				C174.9,134.9,178.2,124.5,178.2,124.5z"/>
		</g>
	</g>
	<g>
		<g>
			<path style="fill:#E9F76B;" d="M160.2,52.3c0,0-7.6,5.1-11.6,13.9S145.6,84,145.6,84s7.6-5.1,11.6-13.9
				C161.2,61.4,160.2,52.3,160.2,52.3z"/>
		</g>
	</g>
	<g>
		<g>
			<path style="fill:#E9F76B;" d="M157.3,29.7c0,0-5.4,3.7-8.4,10s-2.2,12.8-2.2,12.8s5.4-3.7,8.4-10S157.3,29.7,157.3,29.7z"/>
		</g>
	</g>
	<g>
		<g>
			<path style="fill:#E9F76B;" d="M132.1,30.1c0,0-0.3,6.6,3,12.7c3.3,6.1,9,9.5,9,9.5s0.3-6.6-3-12.7
				C137.7,33.4,132.1,30.1,132.1,30.1z"/>
		</g>
	</g>
	<g>
		<g>
			<path style="fill:#E9F76B;" d="M173.5,85c0,0-6.5,0.9-11.9,5.2s-7.7,10.5-7.7,10.5s6.5-0.9,11.9-5.2S173.5,85,173.5,85z"/>
		</g>
	</g>
	<g>
		<g>
			<path style="fill:#E9F76B;" d="M159.6,83.8c0,0-5.9,2.8-9.8,8.6s-4.2,12.3-4.2,12.3s5.9-2.8,9.8-8.6
				C159.3,90.3,159.6,83.8,159.6,83.8z"/>
		</g>
	</g>
	<g>
		<g>
			<path style="fill:#E9F76B;" d="M106.4,55.3c0,0,1.6,6.4,6.4,11.3s11.3,6.6,11.3,6.6s-1.6-6.4-6.4-11.3
				C112.8,57,106.4,55.3,106.4,55.3z"/>
		</g>
	</g>
	<g>
		<g>
			<path style="fill:#E9F76B;" d="M93.9,75.1c0,0,6,2.6,12.9,1.6c6.9-1,12-5.1,12-5.1s-6-2.6-12.9-1.6C99,71,93.9,75.1,93.9,75.1z"
				/>
		</g>
	</g>
	<g>
		<g>
			<path style="fill:#E9F76B;" d="M191.3,107.9c0,0-2.3,9.6-9.4,13.5c-7.2,3.9-16.5,0.7-16.5,0.7s2.3-9.6,9.4-13.5
				C182,104.7,191.3,107.9,191.3,107.9z"/>
		</g>
	</g>
	<g>
		<g>
			<path style="fill:#E9F76B;" d="M102.9,179.7c0,0,6.9-7,15.1-6.7s14.4,7.9,14.4,7.9s-6.9,7-15.1,6.7S102.9,179.7,102.9,179.7z"/>
		</g>
	</g>
	<g>
		<g>
			<path style="fill:#E9F76B;" d="M145.9,242.7c-0.5,0-1-0.4-1-1c-0.1-7.8-2-192.2-1-201.1c0.1-0.5,0.5-1,1.1-0.9
				c0.5,0.1,0.9,0.6,0.9,1.1c-1,8.8,1,199,1,200.9C146.9,242.2,146.5,242.7,145.9,242.7C145.9,242.7,145.9,242.7,145.9,242.7z"/>
		</g>
	</g>
	<g>
		<g>
			<path style="fill:#E9F76B;" d="M201.7,164.9c0,0-4.5,8.7-13.2,12.4c-8.6,3.7-18,0.9-18,0.9s4.5-8.7,13.2-12.4
				C192.3,162.2,201.7,164.9,201.7,164.9z"/>
		</g>
	</g>
	<g>
		<g>
			<path style="fill:#E9F76B;" d="M186.8,92.3c0,0-6.4-1.6-13,0.5s-11,6.9-11,6.9s6.4,1.6,13-0.5C182.5,97.2,186.8,92.3,186.8,92.3z
				"/>
		</g>
	</g>
	<g>
		<g>
			<path style="fill:#E9F76B;" d="M167.3,20.7c0,0-5.4,3.7-8.4,10s-2.2,12.8-2.2,12.8s5.4-3.7,8.4-10S167.3,20.7,167.3,20.7z"/>
		</g>
	</g>
</g>
<g>
	<path style="fill:#E9F76B;" d="M163.4,28.7c-0.1,0-0.1,0-0.2,0c-0.3-0.1-0.4-0.4-0.2-0.7l7-15c0.1-0.3,0.4-0.4,0.7-0.2
		c0.3,0.1,0.4,0.4,0.2,0.7l-7,15C163.8,28.6,163.6,28.7,163.4,28.7z"/>
</g>
</svg>
