<?xml version="1.0" encoding="utf-8"?>
<!-- Generator: Adobe Illustrator 22.1.0, SVG Export Plug-In . SVG Version: 6.00 Build 0)  -->
<svg version="1.1" id="Layer_1" xmlns="http://www.w3.org/2000/svg" xmlns:xlink="http://www.w3.org/1999/xlink" x="0px" y="0px"
	 viewBox="0 0 256 256" style="enable-background:new 0 0 256 256;" xml:space="preserve">
<g>
	<path style="fill:#D45D12;" d="M197.5,127.6c0,66-15.5,119.4-82.5,119.4c-50.6,0-69.7-37.2-57.3-83.1c0.4-1.4,0.7-3,1-4.7
		c1.3-7,1.9-16.1,1.9-25.6c0-5.4-0.2-10.8-0.5-16.1c-0.6-8.5-1.3-38.9-0.4-45.2c3.1-21.7,10.8-63.4,55.3-64.1
		C172.2,7.2,197.5,61.6,197.5,127.6z"/>
</g>
<g style="opacity:0;">
	
		<ellipse transform="matrix(0.8285 -0.56 0.56 0.8285 -9.4562 94.1036)" style="opacity:0.2;fill:#FFFFFF;" cx="148.9" cy="62.5" rx="17.5" ry="25.2"/>
</g>
</svg>
