<?xml version="1.0" encoding="utf-8"?>
<!-- Generator: Adobe Illustrator 22.1.0, SVG Export Plug-In . SVG Version: 6.00 Build 0)  -->
<svg version="1.1" id="Layer_1" xmlns="http://www.w3.org/2000/svg" xmlns:xlink="http://www.w3.org/1999/xlink" x="0px" y="0px"
	 viewBox="0 0 256 256" style="enable-background:new 0 0 256 256;" xml:space="preserve">
<g>
	<path style="fill:#84C13E;" d="M225.1,154.5c-12.2-28.4-40.2-34.8-48.3-44.1c0,0,21.4-71.9-40.9-70.1c-9.2-7.7-23.7-17.2-33.7-19.7
		V10c0-2.2-1.8-4-4-4c-2.2,0-4,1.8-4,4v10.6c0,0,0,0-0.1,0c0,0-30.8,10.6-38.7,21.3c-2.3,3.1-1.2,4.3,1.8,4.5
		c-2.8,3.3-5.6,7.4-7.7,12.2c-4.8,11.2-4.8,106.4,2,133.7c6.1,24.3,27.5,50.4,28.4,48.6c9.1-18.3,48.1-15.1,60-45.7
		c4.4,5.8,8.4,10.5,11.6,13.7c17.9,17.6,49.7,28.7,49.5,26.7C199.1,213,242,194,225.1,154.5z M73.7,112.8c0.8,0.5,1.7,1,2.6,1.4
		C75.4,113.8,74.6,113.3,73.7,112.8z"/>
</g>
<g style="opacity:0;">
	<path style="opacity:0.1;fill:#FFFFFF;" d="M155.1,125c-8.6,5.2-18.3,6.7-27.4,5c-1.6-3.2-2.8-6.1-3.2-8.6c0,0,42.9-38.6,17-69
		c10.9,1.9,21,8.3,27.1,18.5C179.8,89.6,173.8,113.8,155.1,125z"/>
	<path style="opacity:0.1;fill:#FFFFFF;" d="M199.2,206.1c-18.8,11.3-43.3,5.3-54.6-13.6c-0.9-1.5-1.8-3.1-2.4-4.8
		c0.3-1.1,0.5-2.3,0.6-3.5c1.3-9.3,0.4-17.7-1.7-25.1c2.9-8.5,8.8-16.2,17.1-21.2c18.8-11.3,43.3-5.3,54.6,13.6
		C224,170.3,218,194.7,199.2,206.1z"/>
	<g style="opacity:0.2;">
		<path d="M144.7,50.5c-0.4,0.9-1.9,1.2-4,1.1c-4.2-0.2-11-1.8-17.1-3.6c-1.9-0.5-3.7-1.1-5.3-1.6c-2.6-0.8-4.7-1.5-6-2
			c-6.1-2-6.1,8.1-10.1,8.1c-4.1,0-6.1-4-14.2-8.1c-3.4-1.7-11-0.5-18.2,0.6c-4.9,0.8-9.7,1.5-12.6,1.4c-3-0.2-4.1-1.3-1.8-4.5
			c7.9-10.6,38.7-21.3,38.7-21.3c0,0,0,0,0.1,0V10c0-2.2,1.8-4,4-4c2.2,0,4,1.8,4,4v10.6c10.1,2.5,24.5,12,33.7,19.7
			C141.7,45.1,145.4,49.2,144.7,50.5z"/>
	</g>
	<path style="opacity:0.3;" d="M141,159.1c-3.3-11.9-9.4-21.5-13.3-29.1c-1.6-3.2-2.8-6.1-3.2-8.6c0,0,42.9-38.6,17-69
		c-0.2-0.3-0.5-0.5-0.7-0.8c-4.2-0.2-11-1.8-17.1-3.6c1.4,1.4,2.8,2.9,4,4.5c5.3,6.9,8.5,15.6,8.5,25.1c0,19.1-13.1,35.3-30.8,39.8
		c-3.3,0.9-6.8,1.3-10.4,1.3c-1.5,0-3-0.1-4.4-0.2C70,116.3,53.9,98.8,53.9,77.6c0-13.3,6.3-25,16-32.6c-4.9,0.8-9.7,1.5-12.6,1.4
		c-2.8,3.3-5.6,7.4-7.7,12.2c-4.8,11.2-4.8,106.4,2,133.7c6.1,24.3,27.5,50.4,28.4,48.6c9.1-18.3,48.1-15.1,60-45.7
		c0.9-2.3,1.6-4.8,2.2-7.5v0c0.3-1.1,0.5-2.3,0.6-3.5C144,174.9,143.1,166.5,141,159.1L141,159.1z M94,210.6
		c-23.6,0-42.8-19.2-42.8-42.8c0-23.6,19.2-42.8,42.8-42.8h0.3c23.5,0.2,42.5,19.3,42.5,42.8c0,6.4-1.4,12.4-3.9,17.9
		C126.1,200.4,111.3,210.6,94,210.6z"/>
</g>
</svg>
