<?xml version="1.0" encoding="utf-8"?>
<!-- Generator: Adobe Illustrator 22.1.0, SVG Export Plug-In . SVG Version: 6.00 Build 0)  -->
<svg version="1.1" id="Layer_1" xmlns="http://www.w3.org/2000/svg" xmlns:xlink="http://www.w3.org/1999/xlink" x="0px" y="0px"
	 viewBox="0 0 256 256" style="enable-background:new 0 0 256 256;" xml:space="preserve">
<g style="opacity:0;">
	<path style="fill:#FF7F4D;" d="M205.5,177.2c10.4,18.6,3.8,42.2-14.8,52.6c-18.6,10.4-42.2,3.8-52.6-14.8"/>
	<circle style="fill:#FF7F4D;" cx="102.5" cy="133.5" r="43.5"/>
	<circle style="fill:#FF7F4D;" cx="218.5" cy="110.5" r="34.5"/>
	<circle style="fill:#FF7F4D;" cx="51.5" cy="214.5" r="34.5"/>
	<circle style="fill:#FF7F4D;" cx="143.5" cy="55.5" r="28.5"/>
	<path style="fill:#FF7F4D;" d="M54.4,96.1c-7-13.2-1.9-29.5,11.2-36.5s29.5-1.9,36.5,11.2"/>
</g>
<g>
	<path style="opacity:0.1;" d="M102.5,90c-24,0-43.5,19.5-43.5,43.5S78.5,177,102.5,177s43.5-19.5,43.5-43.5S126.5,90,102.5,90z
		 M112,133c-8.8,0-16-7.2-16-16s7.2-16,16-16s16,7.2,16,16S120.8,133,112,133z"/>
	<path style="opacity:0.1;" d="M205.5,177.2L138,215c10.4,18.6,34,25.3,52.6,14.8C209.3,219.4,215.9,195.8,205.5,177.2z M191,218
		c-6.6,0-12-5.4-12-12s5.4-12,12-12s12,5.4,12,12S197.6,218,191,218z"/>
	<circle style="opacity:0.1;fill:#FFFFFF;" cx="112" cy="117" r="16"/>
	<circle style="opacity:0.1;fill:#FFFFFF;" cx="191" cy="206" r="12"/>
</g>
</svg>
