<?xml version="1.0" encoding="utf-8"?>
<!-- Generator: Adobe Illustrator 22.1.0, SVG Export Plug-In . SVG Version: 6.00 Build 0)  -->
<svg version="1.1" id="Layer_1" xmlns="http://www.w3.org/2000/svg" xmlns:xlink="http://www.w3.org/1999/xlink" x="0px" y="0px"
	 viewBox="0 0 256 256" style="enable-background:new 0 0 256 256;" xml:space="preserve">
<g>
	<path style="fill:#F9E746;" d="M22.3,59.7c0,0,6.1-1,9.9,1.3c0.9,0.5,2.7,1.3,2.8,2.6c0.2,1.8,0,2.9-1.7,3.5
		c-1.5,0.6-2.2,0.5-3.9-0.3C25.4,65,22.3,59.7,22.3,59.7z"/>
	<g>
		<path style="fill:#F9E746;" d="M79.9,136.2c0,0,10-4.1,17.5-1.7c1.7,0.6,5.1,1.2,5.9,3.4c1.1,3,1.1,4.9-1.5,6.7
			c-2.3,1.6-3.5,1.8-6.8,1.1C87.2,144,79.9,136.2,79.9,136.2z"/>
	</g>
	<g>
		<path style="fill:#F9E746;" d="M70.1,123c0,0,10-4.1,17.5-1.7c1.7,0.6,5.1,1.2,5.9,3.4c1.1,3,1.1,4.9-1.5,6.7
			c-2.3,1.6-3.5,1.8-6.8,1.1C77.5,130.8,70.1,123,70.1,123z"/>
	</g>
	<g>
		<path style="fill:#F9E746;" d="M105.5,109.9c0,0,4.3,9.9,2,17.4c-0.5,1.7-1.1,5.1-3.3,5.9c-3,1.1-4.9,1.2-6.8-1.4
			c-1.6-2.3-1.9-3.5-1.2-6.8C97.8,117.3,105.5,109.9,105.5,109.9z"/>
	</g>
	<g>
		<path style="fill:#F9E746;" d="M96.4,97.8c0,0,4.3,9.9,2,17.4c-0.5,1.7-1.1,5.1-3.3,5.9c-3,1.1-4.9,1.2-6.8-1.4
			c-1.6-2.3-1.9-3.5-1.2-6.8C88.8,105.3,96.4,97.8,96.4,97.8z"/>
	</g>
	<g>
		<path style="fill:#F9E746;" d="M96.5,164.1c0,0,11.4-3.8,19.5-0.5c1.8,0.7,5.6,1.8,6.2,4.2c0.9,3.4,0.8,5.6-2.2,7.3
			c-2.7,1.6-4.1,1.7-7.7,0.6C104,173.3,96.5,164.1,96.5,164.1z"/>
	</g>
	<g>
		<path style="fill:#F9E746;" d="M86.8,148.6c0,0,11.4-3.8,19.5-0.5c1.8,0.7,5.6,1.8,6.2,4.2c0.9,3.4,0.8,5.6-2.2,7.3
			c-2.7,1.6-4.1,1.7-7.7,0.6C94.3,157.8,86.8,148.6,86.8,148.6z"/>
	</g>
	<g>
		<path style="fill:#F9E746;" d="M127.1,136.9c0,0,4,11.4,0.8,19.5c-0.7,1.8-1.7,5.6-4.1,6.3c-3.4,1-5.5,0.9-7.4-2.1
			c-1.6-2.7-1.8-4.1-0.8-7.7C118,144.5,127.1,136.9,127.1,136.9z"/>
	</g>
	<g>
		<path style="fill:#F9E746;" d="M118,122.9c0,0,4,11.4,0.8,19.5c-0.7,1.8-1.7,5.6-4.1,6.3c-3.4,1-5.5,0.9-7.4-2.1
			c-1.6-2.7-1.8-4.1-0.8-7.7C108.9,130.5,118,122.9,118,122.9z"/>
	</g>
	<g>
		<path style="fill:#F9E746;" d="M65.5,112c0,0,8-4.1,14.4-2.6c1.4,0.3,4.3,0.7,5.1,2.4c1.1,2.4,1.2,4-0.8,5.7
			c-1.8,1.5-2.8,1.7-5.6,1.3C72.1,117.9,65.5,112,65.5,112z"/>
	</g>
	<g>
		<path style="fill:#F9E746;" d="M56.6,101.6c0,0,8-4.1,14.4-2.6c1.4,0.3,4.3,0.7,5.1,2.4c1.1,2.4,1.2,4-0.8,5.7
			c-1.8,1.5-2.8,1.7-5.6,1.3C63.1,107.6,56.6,101.6,56.6,101.6z"/>
	</g>
	<g>
		<path style="fill:#F9E746;" d="M85.1,88.4c0,0,4.2,8,2.8,14.4c-0.3,1.4-0.6,4.3-2.3,5.1c-2.4,1.1-4,1.3-5.7-0.7
			c-1.5-1.8-1.8-2.8-1.4-5.6C79.2,95,85.1,88.4,85.1,88.4z"/>
	</g>
	<g>
		<path style="fill:#F9E746;" d="M76.7,79c0,0,4.2,8,2.8,14.4c-0.3,1.4-0.6,4.3-2.3,5.1c-2.4,1.1-4,1.3-5.7-0.7
			C70,96,69.7,94.9,70,92.2C70.8,85.7,76.7,79,76.7,79z"/>
	</g>
	<g>
		<path style="fill:#F9E746;" d="M50.6,92.5c0,0,6.6-4.3,12.2-3.5c1.3,0.2,3.8,0.2,4.6,1.6c1.2,2,1.4,3.4-0.2,5
			c-1.4,1.4-2.3,1.7-4.7,1.7C56.8,97.1,50.6,92.5,50.6,92.5z"/>
	</g>
	<g>
		<path style="fill:#F9E746;" d="M41.9,84.4c0,0,6.6-4.3,12.2-3.5c1.3,0.2,3.8,0.2,4.6,1.6c1.2,2,1.4,3.4-0.2,5
			c-1.4,1.4-2.3,1.7-4.7,1.7C48.1,88.9,41.9,84.4,41.9,84.4z"/>
	</g>
	<g>
		<path style="fill:#F9E746;" d="M65.3,70.4c0,0,4.4,6.5,3.7,12.1c-0.2,1.3-0.1,3.8-1.5,4.6c-2,1.2-3.3,1.5-5-0.1
			c-1.4-1.4-1.8-2.3-1.7-4.7C60.9,76.7,65.3,70.4,65.3,70.4z"/>
	</g>
	<g>
		<path style="fill:#F9E746;" d="M57.3,63.1c0,0,4.4,6.5,3.7,12.1c-0.2,1.3-0.1,3.8-1.5,4.6c-2,1.2-3.3,1.5-5-0.1
			c-1.4-1.4-1.8-2.3-1.7-4.7C52.8,69.3,57.3,63.1,57.3,63.1z"/>
	</g>
	<g>
		<path style="fill:#F9E746;" d="M36.1,77.9c0,0,5.1-4.2,9.9-4.1c1.1,0,3.2-0.2,4,0.9c1.2,1.6,1.5,2.7,0.3,4.2
			c-1.1,1.3-1.8,1.7-3.8,1.8C41.7,81.1,36.1,77.9,36.1,77.9z"/>
	</g>
	<g>
		<path style="fill:#F9E746;" d="M28,71.9c0,0,5.1-4.2,9.9-4.1c1.1,0,3.2-0.2,4,0.9c1.2,1.6,1.5,2.7,0.3,4.2
			c-1.1,1.3-1.8,1.7-3.8,1.8C33.7,75.1,28,71.9,28,71.9z"/>
	</g>
	<g>
		<path style="fill:#F9E746;" d="M46.4,57.9c0,0,4.3,5,4.2,9.8c0,1.1,0.3,3.2-0.9,4c-1.5,1.2-2.7,1.6-4.2,0.4
			c-1.3-1-1.7-1.7-1.9-3.8C43.2,63.6,46.4,57.9,46.4,57.9z"/>
	</g>
	<g>
		<path style="fill:#F9E746;" d="M38.9,52.5c0,0,4.3,5,4.2,9.8c0,1.1,0.3,3.2-0.9,4c-1.5,1.2-2.7,1.6-4.2,0.4
			c-1.3-1-1.7-1.7-1.9-3.8C35.8,58.2,38.9,52.5,38.9,52.5z"/>
	</g>
</g>
<g>
	<path style="fill:#F9E746;" d="M205.4,44.1c0,0-6-2.8-10.6-1.6c-1,0.3-3.2,0.6-3.7,1.9c-0.7,1.8-0.8,3,0.7,4.2
		c1.4,1,2.1,1.2,4.1,0.9C200.7,48.6,205.4,44.1,205.4,44.1z"/>
	<path style="fill:#F9E746;" d="M211.7,36.3c0,0-6-2.8-10.6-1.6c-1,0.3-3.2,0.6-3.7,1.9c-0.7,1.8-0.8,3,0.7,4.2
		c1.4,1,2.1,1.2,4.1,0.9C207,40.8,211.7,36.3,211.7,36.3z"/>
	<path style="fill:#F9E746;" d="M190.5,27.2c0,0-2.9,5.9-1.7,10.6c0.3,1,0.5,3.2,1.8,3.7c1.8,0.8,3,0.9,4.2-0.7
		c1.1-1.3,1.2-2.1,0.9-4.1C195,31.9,190.5,27.2,190.5,27.2z"/>
	<path style="fill:#F9E746;" d="M196.5,20.1c0,0-2.9,5.9-1.7,10.6c0.3,1,0.5,3.2,1.8,3.7c1.8,0.8,3,0.9,4.2-0.7
		c1.1-1.3,1.2-2.1,0.9-4.1C200.9,24.9,196.5,20.1,196.5,20.1z"/>
	<path style="fill:#F9E746;" d="M194.9,61.8c0,0-7.4-2.5-12.7-0.4c-1.2,0.5-3.6,1.1-4.1,2.7c-0.6,2.2-0.6,3.6,1.4,4.8
		c1.7,1,2.6,1.1,5,0.5C190,67.7,194.9,61.8,194.9,61.8z"/>
	<path style="fill:#F9E746;" d="M201.3,51.8c0,0-7.4-2.5-12.7-0.4c-1.2,0.5-3.6,1.1-4.1,2.7c-0.6,2.2-0.6,3.6,1.4,4.8
		c1.7,1,2.6,1.1,5,0.5C196.4,57.7,201.3,51.8,201.3,51.8z"/>
	<path style="fill:#F9E746;" d="M175.2,43.9c0,0-2.6,7.4-0.6,12.7c0.5,1.2,1,3.6,2.6,4.1c2.2,0.7,3.6,0.6,4.8-1.3
		c1.1-1.7,1.2-2.6,0.5-5C181.1,48.9,175.2,43.9,175.2,43.9z"/>
	<path style="fill:#F9E746;" d="M181.2,34.9c0,0-2.6,7.4-0.6,12.7c0.5,1.2,1,3.6,2.6,4.1c2.2,0.7,3.6,0.6,4.8-1.3
		c1.1-1.7,1.2-2.6,0.5-5C187.1,39.9,181.2,34.9,181.2,34.9z"/>
	<path style="fill:#F9E746;" d="M185.1,84.3c0,0-8.8-2-14.6,1c-1.3,0.7-4,1.7-4.4,3.6c-0.5,2.6-0.2,4.2,2.2,5.3c2.1,1,3.2,1,5.8-0.1
		C180.2,91.7,185.1,84.3,185.1,84.3z"/>
	<path style="fill:#F9E746;" d="M191.3,72.1c0,0-8.8-2-14.6,1c-1.3,0.7-4,1.7-4.4,3.6c-0.5,2.6-0.2,4.2,2.2,5.3c2.1,1,3.2,1,5.8-0.1
		C186.4,79.5,191.3,72.1,191.3,72.1z"/>
	<path style="fill:#F9E746;" d="M160.4,66.2c0,0-2.2,8.8,0.8,14.6c0.7,1.3,1.6,4.1,3.5,4.4c2.6,0.5,4.2,0.3,5.4-2.1
		c1-2.1,1-3.1,0-5.8C167.8,71.2,160.4,66.2,160.4,66.2z"/>
	<path style="fill:#F9E746;" d="M166.3,55c0,0-2.2,8.8,0.8,14.6c0.7,1.3,1.6,4.1,3.5,4.4c2.6,0.5,4.2,0.3,5.4-2.1c1-2.1,1-3.1,0-5.8
		C173.6,60.1,166.3,55,166.3,55z"/>
	<path style="fill:#F9E746;" d="M167.8,142.4c0,0-12-0.9-19,4.3c-1.6,1.2-5,3.1-5,5.6c-0.1,3.5,0.6,5.6,4,6.6c3,0.9,4.4,0.7,7.6-1.3
		C162.8,153.1,167.8,142.4,167.8,142.4z"/>
	<path style="fill:#F9E746;" d="M173.4,125c0,0-12-0.9-19,4.3c-1.6,1.2-5,3.1-5,5.6c-0.1,3.5,0.6,5.6,4,6.6c3,0.9,4.4,0.7,7.6-1.3
		C168.4,135.8,173.4,125,173.4,125z"/>
	<path style="fill:#F9E746;" d="M131.5,123.5c0,0-1.1,12,4,19.1c1.1,1.6,3,5,5.5,5.1c3.5,0.1,5.6-0.5,6.6-3.9c0.9-3,0.7-4.4-1.1-7.6
		C142.2,128.7,131.5,123.5,131.5,123.5z"/>
	<path style="fill:#F9E746;" d="M136.9,107.6c0,0-1.1,12,4,19.1c1.1,1.6,3,5,5.5,5.1c3.5,0.1,5.6-0.5,6.6-3.9c0.9-3,0.7-4.4-1.1-7.6
		C147.6,112.8,136.9,107.6,136.9,107.6z"/>
	<path style="fill:#F9E746;" d="M177.1,111.3c0,0-10.7-1.6-17.3,2.6c-1.5,0.9-4.7,2.4-4.9,4.7c-0.3,3.2,0.1,5.1,3.1,6.2
		c2.6,1,3.9,0.9,6.9-0.6C171.9,120.7,177.1,111.3,177.1,111.3z"/>
	<path style="fill:#F9E746;" d="M183.4,96.1c0,0-10.7-1.6-17.3,2.6c-1.5,0.9-4.7,2.4-4.9,4.7c-0.3,3.2,0.1,5.1,3.1,6.2
		c2.6,1,3.9,0.9,6.9-0.6C178.2,105.4,183.4,96.1,183.4,96.1z"/>
	<path style="fill:#F9E746;" d="M145.9,92c0,0-1.7,10.7,2.3,17.4c0.9,1.5,2.3,4.7,4.6,5c3.2,0.4,5.1-0.1,6.2-3
		c1-2.6,0.9-3.9-0.5-6.9C155.1,97.3,145.9,92,145.9,92z"/>
	<path style="fill:#F9E746;" d="M151.7,78.1c0,0-1.7,10.7,2.3,17.4c0.9,1.5,2.3,4.7,4.6,5c3.2,0.4,5.1-0.1,6.2-3
		c1-2.6,0.9-3.9-0.5-6.9C161,83.5,151.7,78.1,151.7,78.1z"/>
	<g>
		<path style="fill:#F9E746;" d="M214.3,23.1c0,0-6.1,0.5-9.3,3.7c-0.7,0.7-2.3,1.9-2.1,3.2c0.2,1.8,0.7,2.8,2.5,3
			c1.6,0.2,2.3,0,3.7-1.2C212.6,28.9,214.3,23.1,214.3,23.1z"/>
	</g>
</g>
<path style="fill:none;stroke:#F9E746;stroke-linecap:round;stroke-miterlimit:10;" d="M139,227c0,0-3-33-13-59"/>
<path style="fill:none;stroke:#F9E746;stroke-linecap:round;stroke-miterlimit:10;" d="M150.5,240.5c0,0-16-22-9-83"/>
<path style="fill:#F9E746;" d="M137.5,215.5c0,0-5.7-37.2,51.5-67.2C189,148.3,147.6,191.2,137.5,215.5z"/>
<path style="fill:#F9E746;" d="M134,197c0,0-8-17-35-13C99,184,120,190,134,197z"/>
</svg>
