<?xml version="1.0" encoding="utf-8"?>
<!-- Generator: Adobe Illustrator 22.1.0, SVG Export Plug-In . SVG Version: 6.00 Build 0)  -->
<svg version="1.1" id="Layer_1" xmlns="http://www.w3.org/2000/svg" xmlns:xlink="http://www.w3.org/1999/xlink" x="0px" y="0px"
	 viewBox="0 0 256 256" style="enable-background:new 0 0 256 256;" xml:space="preserve">
<g>
	<path style="fill:#F9D069;" d="M154.5,168.4c0,0-0.2,11.3-7.2,17.5c-7,6.2-18.3,4.9-18.3,4.9s0.2-11.3,7.2-17.5
		C143.3,167.1,154.5,168.4,154.5,168.4z"/>
</g>
<g>
	<path style="fill:#F9D069;" d="M151.9,149.4c0,0-0.2,10.8-6.9,16.8c-6.7,5.9-17.5,4.7-17.5,4.7s0.2-10.8,6.9-16.8
		C141.2,148.1,151.9,149.4,151.9,149.4z"/>
</g>
<g>
	<path style="fill:#F9D069;" d="M102.9,162.7c0,0,0.7,11.3,8,17.1c7.3,5.8,18.5,4,18.5,4s-0.7-11.3-8-17.1S102.9,162.7,102.9,162.7z
		"/>
</g>
<g>
	<path style="fill:#F9D069;" d="M103.6,141.7c0,0,0.7,10.8,7.7,16.4c7,5.6,17.7,3.8,17.7,3.8s-0.7-10.8-7.7-16.4
		C114.3,139.9,103.6,141.7,103.6,141.7z"/>
</g>
<g>
	<path style="fill:#F9D069;" d="M152.7,128c0,0-0.2,10.5-6.7,16.2s-17,4.5-17,4.5s0.2-10.5,6.7-16.2S152.7,128,152.7,128z"/>
</g>
<g>
	<path style="fill:#F9D069;" d="M148.7,109.2c0,0-0.1,9.4-6,14.5c-5.8,5.1-15.1,4-15.1,4s0.1-9.4,6-14.5
		C139.4,108.2,148.7,109.2,148.7,109.2z"/>
</g>
<g>
	<path style="fill:#F9D069;" d="M104.8,122.7c0,0,0.7,10.5,7.5,15.9s17.2,3.7,17.2,3.7s-0.7-10.5-7.5-15.9
		C115.2,121,104.8,122.7,104.8,122.7z"/>
</g>
<g>
	<path style="fill:#F9D069;" d="M106.9,101.6c0,0,0.6,9.3,6.6,14.2c6.1,4.8,15.3,3.3,15.3,3.3s-0.6-9.3-6.6-14.2
		C116.2,100.1,106.9,101.6,106.9,101.6z"/>
</g>
<g>
	<path style="fill:#F9D069;" d="M147.8,91.6c0,0-0.1,8.7-5.6,13.5c-5.4,4.8-14.1,3.8-14.1,3.8s0.1-8.7,5.6-13.5
		C139.1,90.6,147.8,91.6,147.8,91.6z"/>
</g>
<g>
	<path style="fill:#F9D069;" d="M147.5,74.7c0,0-0.1,8.7-5.6,13.5c-5.4,4.8-14.1,3.8-14.1,3.8s0.1-8.7,5.6-13.5
		C138.8,73.7,147.5,74.7,147.5,74.7z"/>
</g>
<g>
	<path style="fill:#F9D069;" d="M107.9,85.2c0,0,0.5,8.7,6.2,13.2c5.7,4.5,14.3,3.1,14.3,3.1s-0.5-8.7-6.2-13.2
		C116.6,83.8,107.9,85.2,107.9,85.2z"/>
</g>
<g>
	<path style="fill:#F9D069;" d="M107.5,67.6c0,0,0.5,8.7,6.2,13.2c5.7,4.5,14.3,3.1,14.3,3.1s-0.5-8.7-6.2-13.2
		C116.1,66.2,107.5,67.6,107.5,67.6z"/>
</g>
<g>
	<path style="fill:#F9D069;" d="M146.6,56.8c0,0-0.1,8.1-5.2,12.6c-5.1,4.5-13.2,3.5-13.2,3.5s0.1-8.1,5.2-12.6
		C138.5,55.9,146.6,56.8,146.6,56.8z"/>
</g>
<g>
	<path style="fill:#F9D069;" d="M144.7,41.7c0,0-0.1,7.8-5,12.1c-4.9,4.3-12.6,3.4-12.6,3.4s0.1-7.8,5-12.1
		C137,40.8,144.7,41.7,144.7,41.7z"/>
</g>
<g>
	<path style="fill:#F9D069;" d="M129.2,17.4c0,0,5.8,5.8,5.4,12.5S128,41.8,128,41.8s-5.8-5.8-5.4-12.5
		C122.9,22.6,129.2,17.4,129.2,17.4z"/>
</g>
<g>
	<path style="fill:#F9D069;" d="M108.5,51.9c0,0,0.5,8.1,5.8,12.3c5.3,4.2,13.3,2.9,13.3,2.9s-0.5-8.1-5.8-12.3
		S108.5,51.9,108.5,51.9z"/>
</g>
<g>
	<path style="fill:#F9D069;" d="M108.8,36.6c0,0,0.5,7.8,5.6,11.9s12.8,2.8,12.8,2.8s-0.5-7.8-5.6-11.9S108.8,36.6,108.8,36.6z"/>
</g>
<g>
	<path style="fill:#F9D069;" d="M145,178c-0.3,0-0.5-0.1-0.7-0.3c-0.4-0.4-0.4-1,0-1.4l21-20c0.4-0.4,1-0.4,1.4,0
		c0.4,0.4,0.4,1,0,1.4l-21,20C145.5,177.9,145.2,178,145,178z"/>
</g>
<g>
	<path style="fill:#F9D069;" d="M141,160c-0.2,0-0.5-0.1-0.7-0.3c-0.4-0.4-0.4-1,0-1.4l23-24c0.4-0.4,1-0.4,1.4,0
		c0.4,0.4,0.4,1,0,1.4l-23,24C141.5,159.9,141.3,160,141,160z"/>
</g>
<g>
	<path style="fill:#F9D069;" d="M141,140c-0.3,0-0.5-0.1-0.7-0.3c-0.4-0.4-0.4-1,0-1.4l21-20c0.4-0.4,1-0.4,1.4,0
		c0.4,0.4,0.4,1,0,1.4l-21,20C141.5,139.9,141.2,140,141,140z"/>
</g>
<g>
	<path style="fill:#F9D069;" d="M136,121c-0.3,0-0.5-0.1-0.7-0.3c-0.4-0.4-0.3-1,0.1-1.4l24-22c0.4-0.4,1-0.3,1.4,0.1s0.3,1-0.1,1.4
		l-24,22C136.5,120.9,136.2,121,136,121z"/>
</g>
<g>
	<path style="fill:#F9D069;" d="M134.4,107c-0.3,0-0.5-0.1-0.7-0.3c-0.4-0.4-0.4-1,0-1.4L157.3,83c0.4-0.4,1-0.4,1.4,0
		c0.4,0.4,0.4,1,0,1.4l-23.6,22.3C134.9,106.9,134.6,107,134.4,107z"/>
</g>
<g>
	<path style="fill:#F9D069;" d="M131,90.3c-0.3,0-0.5-0.1-0.7-0.3c-0.4-0.4-0.4-1,0-1.4l23.6-22.3c0.4-0.4,1-0.4,1.4,0
		c0.4,0.4,0.4,1,0,1.4L131.7,90C131.5,90.2,131.2,90.3,131,90.3z"/>
</g>
<g>
	<path style="fill:#F9D069;" d="M132,70c-0.3,0-0.5-0.1-0.7-0.3c-0.4-0.4-0.4-1,0-1.4l21-20c0.4-0.4,1-0.4,1.4,0
		c0.4,0.4,0.4,1,0,1.4l-21,20C132.5,69.9,132.2,70,132,70z"/>
</g>
<g>
	<path style="fill:#F9D069;" d="M130,57c-0.3,0-0.5-0.1-0.7-0.3c-0.4-0.4-0.4-1,0-1.4l21-20c0.4-0.4,1-0.4,1.4,0
		c0.4,0.4,0.4,1,0,1.4l-21,20C130.5,56.9,130.2,57,130,57z"/>
</g>
<g>
	<path style="fill:#F9D069;" d="M114.3,172.6c-0.2,0-0.4-0.1-0.6-0.2L91.3,154c-0.4-0.3-0.5-1-0.1-1.4c0.3-0.4,1-0.5,1.4-0.1
		l22.5,18.3c0.4,0.3,0.5,1,0.1,1.4C114.9,172.4,114.6,172.6,114.3,172.6z"/>
</g>
<g>
	<path style="fill:#F9D069;" d="M117,154.3c-0.2,0-0.5-0.1-0.7-0.3l-24.8-22.2c-0.4-0.4-0.4-1-0.1-1.4s1-0.4,1.4-0.1l24.8,22.2
		c0.4,0.4,0.4,1,0.1,1.4C117.5,154.2,117.2,154.3,117,154.3z"/>
</g>
<g>
	<path style="fill:#F9D069;" d="M115.4,133.4c-0.2,0-0.4-0.1-0.6-0.2l-22.5-18.3c-0.4-0.3-0.5-1-0.1-1.4c0.4-0.4,1-0.5,1.4-0.1
		l22.5,18.3c0.4,0.3,0.5,1,0.1,1.4C116,133.3,115.7,133.4,115.4,133.4z"/>
</g>
<g>
	<path style="fill:#F9D069;" d="M119,112.1c-0.2,0-0.4-0.1-0.6-0.2L92.8,91.7c-0.4-0.3-0.5-1-0.2-1.4c0.3-0.4,1-0.5,1.4-0.2
		l25.6,20.1c0.4,0.3,0.5,1,0.2,1.4C119.6,111.9,119.3,112.1,119,112.1z"/>
</g>
<g>
	<path style="fill:#F9D069;" d="M120.5,96c-0.2,0-0.4-0.1-0.6-0.2L94.7,75.3c-0.4-0.3-0.5-1-0.1-1.4c0.3-0.4,1-0.5,1.4-0.1
		l25.2,20.4c0.4,0.3,0.5,1,0.1,1.4C121.1,95.8,120.8,96,120.5,96z"/>
</g>
<g>
	<path style="fill:#F9D069;" d="M122.6,81c-0.2,0-0.4-0.1-0.6-0.2L96.8,60.4c-0.4-0.3-0.5-1-0.1-1.4c0.3-0.4,1-0.5,1.4-0.1
		l25.2,20.4c0.4,0.3,0.5,1,0.1,1.4C123.2,80.9,122.9,81,122.6,81z"/>
</g>
<g>
	<path style="fill:#F9D069;" d="M122.1,62.9c-0.2,0-0.4-0.1-0.6-0.2L99,44.3c-0.4-0.3-0.5-1-0.1-1.4c0.4-0.4,1-0.5,1.4-0.1
		l22.5,18.3c0.4,0.3,0.5,1,0.1,1.4C122.7,62.8,122.4,62.9,122.1,62.9z"/>
</g>
<g>
	<path style="fill:#F9D069;" d="M124.1,49.8c-0.2,0-0.4-0.1-0.6-0.2L101,31.2c-0.4-0.3-0.5-1-0.1-1.4c0.4-0.4,1-0.5,1.4-0.1
		L124.7,48c0.4,0.3,0.5,1,0.1,1.4C124.7,49.7,124.4,49.8,124.1,49.8z"/>
</g>
<g>
	<path style="fill:#F9D069;" d="M129,24c-0.6,0-1-0.4-1-1V7c0-0.6,0.4-1,1-1s1,0.4,1,1v16C130,23.6,129.6,24,129,24z"/>
</g>
<g>
	<path style="fill:#F9D069;" d="M129,238c-0.5,0-1-0.4-1-1c-0.1-7.8-2-192.2-1-201.1c0.1-0.5,0.5-1,1.1-0.9c0.5,0.1,0.9,0.6,0.9,1.1
		c-1,8.8,1,199,1,200.9C130,237.5,129.6,238,129,238C129,238,129,238,129,238z"/>
</g>
<path style="fill:#F9D069;" d="M128,225.3c0,0,43-49.3,52-63.3s25-1,30,32c0,0-15-36-26-23S158,209,128,225.3z"/>
<path style="fill:#F9D069;" d="M129,232c0,0-11-43-41-39C88,193,118,209,129,232z"/>
</svg>
