<?xml version="1.0" encoding="utf-8"?>
<!-- Generator: Adobe Illustrator 22.1.0, SVG Export Plug-In . SVG Version: 6.00 Build 0)  -->
<svg version="1.1" id="Layer_1" xmlns="http://www.w3.org/2000/svg" xmlns:xlink="http://www.w3.org/1999/xlink" x="0px" y="0px"
	 viewBox="0 0 256 256" style="enable-background:new 0 0 256 256;" xml:space="preserve">
<g style="opacity:0;">
	<path style="fill:#EDC262;" d="M222,130.9c0.1,67.5-46.4,124.6-88.7,122.2c-50.9-2.8-88.8-54.6-88.8-122.1S69.5,8.8,133.2,8.8
		S221.9,63.4,222,130.9z"/>
</g>
<g>
	
		<ellipse transform="matrix(0.9568 -0.2906 0.2906 0.9568 -9.6036 53.087)" style="opacity:0.2;fill:#FFFFFF;" cx="173.9" cy="58.9" rx="18.8" ry="27.1"/>
	<path style="opacity:0.6;" d="M52.5,83.7c-5.8,0-8,21.2-8,47.3c0,26.2,3.5,46.2,8.1,47.3c3.8,0.9,8-21.2,8-47.3
		C60.5,104.9,58.3,83.7,52.5,83.7z M50,159c-1.3-0.6-2.2-12.5-2.3-27.9c0-15.4,0.6-27.9,2.2-27.9c1.6,0,2.2,12.5,2.3,27.9
		S51.1,159.5,50,159z"/>
	<path style="opacity:0.7;fill:#FFFFFF;" d="M52.3,131c0,15.4-1.1,28.5-2.2,27.9c-1.3-0.6-2.2-12.5-2.3-27.9
		c0-15.4,0.6-27.9,2.2-27.9C51.6,103.1,52.2,115.6,52.3,131z"/>
</g>
</svg>
