<?xml version="1.0" encoding="utf-8"?>
<!-- Generator: Adobe Illustrator 22.1.0, SVG Export Plug-In . SVG Version: 6.00 Build 0)  -->
<svg version="1.1" id="Layer_1" xmlns="http://www.w3.org/2000/svg" xmlns:xlink="http://www.w3.org/1999/xlink" x="0px" y="0px"
	 viewBox="0 0 256 256" style="enable-background:new 0 0 256 256;" xml:space="preserve">
<line style="fill:none;stroke:#F9E746;stroke-width:3;stroke-linecap:round;stroke-miterlimit:10;" x1="133.3" y1="243.9" x2="133.3" y2="38.8"/>
<g>
	<path style="fill:#F9E746;" d="M163.5,146.8c0,0-5.4,14.4-15.2,19.7c-2.2,1.2-6.2,4.1-9.2,2.8c-4.1-1.8-6.2-3.7-5.5-8.1
		c0.6-3.9,1.6-5.4,5.5-8.1C148.4,146.8,163.5,146.8,163.5,146.8z"/>
</g>
<g>
	<path style="fill:#F9E746;" d="M103.2,146.8c0,0,5.4,14.4,15.2,19.7c2.2,1.2,6.2,4.1,9.2,2.8c4.1-1.8,6.2-3.7,5.5-8.1
		c-0.6-3.9-1.6-5.4-5.5-8.1C118.3,146.8,103.2,146.8,103.2,146.8z"/>
</g>
<g>
	<path style="fill:#F9E746;" d="M163.5,125.2c0,0-5.4,14.4-15.2,19.7c-2.2,1.2-6.2,4.1-9.2,2.8c-4.1-1.8-6.2-3.7-5.5-8.1
		c0.6-3.9,1.6-5.4,5.5-8.1C148.4,125.2,163.5,125.2,163.5,125.2z"/>
</g>
<g>
	<path style="fill:#F9E746;" d="M103.2,125.2c0,0,5.4,14.4,15.2,19.7c2.2,1.2,6.2,4.1,9.2,2.8c4.1-1.8,6.2-3.7,5.5-8.1
		c-0.6-3.9-1.6-5.4-5.5-8.1C118.3,125.2,103.2,125.2,103.2,125.2z"/>
</g>
<g>
	<path style="fill:#F9E746;" d="M163.5,104.7c0,0-5.4,14.4-15.2,19.7c-2.2,1.2-6.2,4.1-9.2,2.8c-4.1-1.8-6.2-3.7-5.5-8.1
		c0.6-3.9,1.6-5.4,5.5-8.1C148.4,104.7,163.5,104.7,163.5,104.7z"/>
</g>
<g>
	<path style="fill:#F9E746;" d="M103.2,104.7c0,0,5.4,14.4,15.2,19.7c2.2,1.2,6.2,4.1,9.2,2.8c4.1-1.8,6.2-3.7,5.5-8.1
		c-0.6-3.9-1.6-5.4-5.5-8.1C118.3,104.7,103.2,104.7,103.2,104.7z"/>
</g>
<g>
	<path style="fill:#F9E746;" d="M163.5,82.2c0,0-5.4,14.4-15.2,19.7c-2.2,1.2-6.2,4.1-9.2,2.8c-4.1-1.8-6.2-3.7-5.5-8.1
		c0.6-3.9,1.6-5.4,5.5-8.1C148.4,82.2,163.5,82.2,163.5,82.2z"/>
</g>
<g>
	<path style="fill:#F9E746;" d="M103.2,82.2c0,0,5.4,14.4,15.2,19.7c2.2,1.2,6.2,4.1,9.2,2.8c4.1-1.8,6.2-3.7,5.5-8.1
		c-0.6-3.9-1.6-5.4-5.5-8.1C118.3,82.2,103.2,82.2,103.2,82.2z"/>
</g>
<g>
	<path style="fill:#F9E746;" d="M163.5,59.6c0,0-5.4,14.4-15.2,19.7c-2.2,1.2-6.2,4.1-9.2,2.8c-4.1-1.8-6.2-3.7-5.5-8.1
		c0.6-3.9,1.6-5.4,5.5-8.1C148.4,59.7,163.5,59.6,163.5,59.6z"/>
</g>
<g>
	<path style="fill:#F9E746;" d="M103.2,59.6c0,0,5.4,14.4,15.2,19.7c2.2,1.2,6.2,4.1,9.2,2.8c4.1-1.8,6.2-3.7,5.5-8.1
		c-0.6-3.9-1.6-5.4-5.5-8.1C118.3,59.7,103.2,59.6,103.2,59.6z"/>
</g>
<g>
	<path style="fill:#F9E746;" d="M163.5,39.1c0,0-5.4,14.4-15.2,19.7c-2.2,1.2-6.2,4.1-9.2,2.8c-4.1-1.8-6.2-3.7-5.5-8.1
		c0.6-3.9,1.6-5.4,5.5-8.1C148.4,39.1,163.5,39.1,163.5,39.1z"/>
</g>
<g>
	<path style="fill:#F9E746;" d="M132.1,11.2c0,0,9.6,12,9.1,23.1c-0.1,2.5,0.4,7.4-2.3,9.3c-3.7,2.6-6.3,3.4-9.8,0.6
		c-3.1-2.5-3.8-4.1-4.1-8.9C124.4,24.3,132.1,11.2,132.1,11.2z"/>
</g>
<g>
	<path style="fill:#F9E746;" d="M103.2,39.1c0,0,5.4,14.4,15.2,19.7c2.2,1.2,6.2,4.1,9.2,2.8c4.1-1.8,6.2-3.7,5.5-8.1
		c-0.6-3.9-1.6-5.4-5.5-8.1C118.3,39.1,103.2,39.1,103.2,39.1z"/>
</g>
<path style="fill:#F9E746;" d="M133.2,215.6c0,0-66.6-10-65.5-126.5C67.7,89.1,84.3,189,133.2,215.6z"/>
</svg>
