<?xml version="1.0" encoding="utf-8"?>
<!-- Generator: Adobe Illustrator 22.1.0, SVG Export Plug-In . SVG Version: 6.00 Build 0)  -->
<svg version="1.1" id="Layer_1" xmlns="http://www.w3.org/2000/svg" xmlns:xlink="http://www.w3.org/1999/xlink" x="0px" y="0px"
	 viewBox="0 0 256 256" style="enable-background:new 0 0 256 256;" xml:space="preserve">
<g style="opacity:0;">
	<circle style="fill:#FFE576;" cx="218.5" cy="110.5" r="34.5"/>
	<path style="fill:#FFE576;" d="M218.5,147c-20.1,0-36.5-16.4-36.5-36.5S198.4,74,218.5,74S255,90.4,255,110.5S238.6,147,218.5,147z
		 M218.5,78c-17.9,0-32.5,14.6-32.5,32.5s14.6,32.5,32.5,32.5s32.5-14.6,32.5-32.5S236.4,78,218.5,78z"/>
	<circle style="fill:#FFE576;" cx="51.5" cy="214.5" r="34.5"/>
	<path style="fill:#FFE576;" d="M51.5,251C31.4,251,15,234.6,15,214.5S31.4,178,51.5,178S88,194.4,88,214.5S71.6,251,51.5,251z
		 M51.5,182C33.6,182,19,196.6,19,214.5S33.6,247,51.5,247S84,232.4,84,214.5S69.4,182,51.5,182z"/>
	<circle style="fill:#FFE576;" cx="143.5" cy="55.5" r="28.5"/>
	<path style="fill:#FFE576;" d="M143.5,86C126.7,86,113,72.3,113,55.5S126.7,25,143.5,25c16.8,0,30.5,13.7,30.5,30.5
		S160.3,86,143.5,86z M143.5,29C128.9,29,117,40.9,117,55.5S128.9,82,143.5,82S170,70.1,170,55.5S158.1,29,143.5,29z"/>
	<circle style="fill:#FFE576;" cx="102.5" cy="133.5" r="43.5"/>
	<path style="fill:#FFE576;" d="M205.5,177.2c10.4,18.6,3.8,42.2-14.8,52.6c-18.6,10.4-42.2,3.8-52.6-14.8"/>
	<path style="fill:#FFE576;" d="M54.4,96.1c-7-13.2-1.9-29.5,11.2-36.5s29.5-1.9,36.5,11.2"/>
	<path style="fill:#FFE576;" d="M52.7,97c-7.5-14.1-2.1-31.7,12.1-39.2c14.1-7.5,31.7-2.1,39.2,12.1l-3.5,1.9
		C94,59.6,78.8,54.9,66.6,61.3c-12.2,6.4-16.9,21.6-10.4,33.8L52.7,97z"/>
</g>
<g>
	<circle style="opacity:0.1;" cx="102.5" cy="133.5" r="43.5"/>
	<circle style="opacity:0.3;fill:#FFFFFF;" cx="112" cy="117" r="16"/>
	<circle style="opacity:0.3;fill:#FFFFFF;" cx="191" cy="206" r="12"/>
	<path style="opacity:0.1;" d="M218.5,147c-20.1,0-36.5-16.4-36.5-36.5S198.4,74,218.5,74S255,90.4,255,110.5S238.6,147,218.5,147z
		 M218.5,78c-17.9,0-32.5,14.6-32.5,32.5s14.6,32.5,32.5,32.5s32.5-14.6,32.5-32.5S236.4,78,218.5,78z"/>
	<path style="opacity:0.1;" d="M51.5,251C31.4,251,15,234.6,15,214.5S31.4,178,51.5,178S88,194.4,88,214.5S71.6,251,51.5,251z
		 M51.5,182C33.6,182,19,196.6,19,214.5S33.6,247,51.5,247S84,232.4,84,214.5S69.4,182,51.5,182z"/>
	<path style="opacity:0.1;" d="M143.5,86C126.7,86,113,72.3,113,55.5S126.7,25,143.5,25c16.8,0,30.5,13.7,30.5,30.5
		S160.3,86,143.5,86z M143.5,29C128.9,29,117,40.9,117,55.5S128.9,82,143.5,82S170,70.1,170,55.5S158.1,29,143.5,29z"/>
	<path style="opacity:0.1;" d="M52.7,97c-7.5-14.1-2.1-31.7,12.1-39.2c14.1-7.5,31.7-2.1,39.2,12.1l-3.5,1.9
		C94,59.6,78.8,54.9,66.6,61.3c-12.2,6.4-16.9,21.6-10.4,33.8L52.7,97z"/>
</g>
</svg>
