<?xml version="1.0" encoding="utf-8"?>
<!-- Generator: Adobe Illustrator 22.1.0, SVG Export Plug-In . SVG Version: 6.00 Build 0)  -->
<svg version="1.1" id="Layer_1" xmlns="http://www.w3.org/2000/svg" xmlns:xlink="http://www.w3.org/1999/xlink" x="0px" y="0px"
	 viewBox="0 0 256 256" style="enable-background:new 0 0 256 256;" xml:space="preserve">
<g>
	<path style="opacity:0.2;" d="M6.1,4l3.6,3.6v239.7h239.7l3.5,3.5H6.1V4z M6.1,4"/>
	<path style="fill:#FFFFFF;" d="M10.7,230.1h3v16.7h-3V230.1z M230.5,239h3v7.8h-3V239z M222.3,230.1h3v16.7h-3V230.1z M214.2,239h3
		v7.8h-3V239z M206,230.1h3v16.7h-3V230.1z M197.9,239h3v7.8h-3V239z M189.8,230.1h3v16.7h-3V230.1z M181.6,239h3v7.8h-3V239z
		 M173.5,230.1h3v16.7h-3V230.1z M165.3,239h3v7.8h-3V239z M157.2,230.1h3v16.7h-3V230.1z M149.1,239h3v7.8h-3V239z M140.9,230.1h3
		v16.7h-3V230.1z M132.8,239h3v7.8h-3V239z M124.6,230.1h3v16.7h-3V230.1z M116.5,239h3v7.8h-3V239z M108.3,230.1h3v16.7h-3V230.1z
		 M100.2,239h3v7.8h-3V239z M92.1,230.1h3v16.7h-3V230.1z M83.9,239h3v7.8h-3V239z M75.8,230.1h3v16.7h-3V230.1z M67.6,239h3v7.8h-3
		V239z M59.5,230.1h3v16.7h-3V230.1z M51.4,239h3v7.8h-3V239z M43.2,230.1h3v16.7h-3V230.1z M35.1,239h3v7.8h-3V239z M26.9,230.1h3
		v16.7h-3V230.1z M18.8,239h3v7.8h-3V239z M18.8,239"/>
	<path style="fill:#FFFFFF;" d="M18.4,39.4v-3h-7.8v3H18.4z M27.4,47.6v-3H10.7v3H27.4z M18.4,55.7v-3h-7.8v3H18.4z M27.4,63.9v-3
		H10.7v3H27.4z M18.4,72v-3h-7.8v3H18.4z M27.4,80.2v-3H10.7v3H27.4z M18.4,88.3v-3h-7.8v3H18.4z M27.4,96.4v-3H10.7v3H27.4z
		 M18.4,104.6v-3h-7.8v3H18.4z M27.4,112.7v-3H10.7v3H27.4z M18.4,120.9v-3h-7.8v3H18.4z M27.4,129v-3H10.7v3H27.4z M18.4,137.1v-3
		h-7.8v3H18.4z M27.4,145.3v-3H10.7v3H27.4z M18.4,153.4v-3h-7.8v3H18.4z M27.4,161.6v-3H10.7v3H27.4z M18.4,169.7v-3h-7.8v3H18.4z
		 M27.4,177.8v-3H10.7v3H27.4z M18.4,186v-3h-7.8v3H18.4z M27.4,194.1v-3H10.7v3H27.4z M18.4,202.3v-3h-7.8v3H18.4z M27.4,210.4v-3
		H10.7v3H27.4z M18.4,218.6v-3h-7.8v3H18.4z M27.4,226.7v-3H10.7v3H27.4z M27.4,226.7"/>
</g>
</svg>
