<?xml version="1.0" encoding="utf-8"?>
<!-- Generator: Adobe Illustrator 22.1.0, SVG Export Plug-In . SVG Version: 6.00 Build 0)  -->
<svg version="1.1" id="Layer_1" xmlns="http://www.w3.org/2000/svg" xmlns:xlink="http://www.w3.org/1999/xlink" x="0px" y="0px"
	 viewBox="0 0 256 256" style="enable-background:new 0 0 256 256;" xml:space="preserve">
<g>
	<path style="fill:#8A4DFF;" d="M28.4,80.5h5.8l0.9,4.7H43l-6.8-33.3H27l-7.3,33.3h7.6L28.4,80.5z M31.3,63.2
		c0.6,4.5,1.3,8.9,2,13.3h-4.2C30,72.2,30.7,67.7,31.3,63.2z"/>
	<path style="fill:#8A4DFF;" d="M72.4,68c1.7-0.4,2.8-1.8,2.8-3.3v-6.9c0-4-2.6-5.9-9.2-5.9h-9.9v33.3H66c6.5,0,9.9-1.7,9.9-5.6
		v-8.3C75.9,69.4,74.2,68.3,72.4,68z M67.8,79.6c0,0.8-0.6,1.3-1.8,1.3h-2V70.2h2c1.2,0,1.7,0.4,1.7,1.3V79.6z M67.8,65.1
		c0,0.9-0.6,1.3-1.7,1.3h-2v-10h2c1.2,0,1.8,0.4,1.8,1.3V65.1z"/>
	<path style="fill:#8A4DFF;" d="M99.3,85.6c6.3,0,9-1.8,9-5.7V73h-7.2v6.9c0,0.9-0.6,1.3-1.8,1.3c-1.2,0-1.8-0.4-1.8-1.3V57.2
		c0-0.9,0.7-1.3,1.8-1.3c1.2,0,1.8,0.4,1.8,1.3v5.9h7.2v-5.9c0-3.8-3-5.7-9-5.7c-6.5,0-9.9,1.9-9.9,5.8V80
		C89.4,83.8,92.8,85.6,99.3,85.6z"/>
	<path style="fill:#8A4DFF;" d="M141.8,79.6V57.6c0-3.6-3.3-5.7-9.7-5.7h-9.7v33.3h9.7C138.5,85.2,141.8,83.4,141.8,79.6z
		 M130.3,56.3h1.7c1.2,0,1.9,0.4,1.9,1.3v22c0,0.8-0.7,1.3-1.9,1.3h-1.7V56.3z"/>
	<polygon style="fill:#8A4DFF;" points="173,80.8 164.1,80.8 164.1,70.5 169.5,70.5 169.5,66 164.1,66 164.1,56.3 172.6,56.3 
		172.6,51.9 156.2,51.9 156.2,85.2 173,85.2 	"/>
	<polygon style="fill:#8A4DFF;" points="194.5,70.6 200,70.6 200,66.2 194.5,66.2 194.5,56.3 203.4,56.3 203.4,51.9 186.6,51.9 
		186.6,85.2 194.5,85.2 	"/>
	<path style="fill:#8A4DFF;" d="M225,85.6c2.7,0,5.5-0.4,7.1-1.5l2.5,1.3h0.8V69.2h-10.2v4.2h2.5v6.5c0,0.9-0.8,1.3-2.3,1.3
		c-1.2,0-1.8-0.4-1.8-1.3V57.2c0-0.9,0.7-1.3,1.9-1.3c1.5,0,2.3,0.4,2.3,1.3v5.9h7.1v-5.9c0-3.6-2.8-5.7-9.4-5.7
		c-6.5,0-9.8,2.1-9.8,5.7v22.7C215.8,84.1,219.8,85.6,225,85.6z"/>
	<polygon style="fill:#8A4DFF;" points="41.4,126.2 41.4,92.8 33.5,92.8 33.5,107 29.9,107 29.9,92.8 21.9,92.8 21.9,126.2 
		29.9,126.2 29.9,111.4 33.5,111.4 33.5,126.2 	"/>
	<rect x="56.3" y="92.8" style="fill:#8A4DFF;" width="7.9" height="33.3"/>
	<path style="fill:#8A4DFF;" d="M90.3,120.5V92.8h-7.9v27.7c0,1-0.7,1.5-2,1.5c-1.3,0-2.3,0-3.1-0.1v4.4c0.9,0.1,2,0.2,3.1,0.2
		C86.9,126.4,90.3,124.6,90.3,120.5z"/>
	<path style="fill:#8A4DFF;" d="M119.4,107.7l7.9-14.9h-8.4c-4.7,9.9-5.6,12.1-6.3,14c0.2-1.9,0.2-3.6,0.2-7.3v-6.6h-7.9v33.3h7.9
		V119c0-3.7,0-6.3-0.2-8.7c0.9,2.3,1.7,5.1,6.4,15.9h9L119.4,107.7z"/>
	<polygon style="fill:#8A4DFF;" points="140.5,92.8 140.5,126.2 157.3,126.2 157.3,121.7 148.4,121.7 148.4,92.8 	"/>
	<path style="fill:#8A4DFF;" d="M170.2,126.2h7.2v-9.4c0-3.9-0.1-7.9-0.4-11.7l4.1,21.1h6.7c2.8-13.3,3.6-17.3,4.3-21.1
		c-0.3,3.9-0.4,7.8-0.4,11.7v9.4h7.2V92.8h-10.6c-3.1,17.9-3.5,20.6-3.9,23.2c-0.2-2.6-0.7-5.3-3.7-23.2h-10.5V126.2z"/>
	<path style="fill:#8A4DFF;" d="M220,117.6c0-4,0-7.9-0.2-11.8c1.2,3.7,2.5,7.5,7.3,20.4h7.6V92.8h-6.6v10.4c0,3.4,0,6.9,0.2,10.4
		c-0.9-3.4-1.8-6.8-5.8-20.9h-9.1v33.3h6.6V117.6z"/>
	<path style="fill:#8A4DFF;" d="M29.1,133.4c-6.5,0-9.7,2-9.7,5.7v22.7c0,3.7,3.2,5.7,9.7,5.7c6.5,0,9.7-2,9.7-5.7v-22.7
		C38.8,135.4,35.6,133.4,29.1,133.4z M30.9,161.8c0,0.9-0.6,1.3-1.8,1.3c-1.2,0-1.8-0.4-1.8-1.3v-22.7c0-0.9,0.7-1.3,1.8-1.3
		c1.2,0,1.8,0.4,1.8,1.3V161.8z"/>
	<path style="fill:#8A4DFF;" d="M62.9,133.8h-9.7v33.3h7.9v-15.8H63c7.1,0,10.5-1.8,10.5-6v-5.5C73.5,135.7,70.1,133.8,62.9,133.8z
		 M65.7,145.4c0,1-0.9,1.5-2.7,1.5h-1.8v-8.8h1.7c1.9,0,2.8,0.5,2.8,1.6V145.4z"/>
	<path style="fill:#8A4DFF;" d="M105.8,161.2v-22.1c0-3.7-3.2-5.7-9.7-5.7s-9.7,2-9.7,5.7v22.1c0,3.1,2.3,5,6.9,5.5
		c0.1,2.4,2.4,4.3,7.6,4.3c2.5,0,4.1-0.3,5-0.8v-3.3c-1,0.5-2.2,0.7-4.1,0.7c-2.1,0-3.2-0.3-3.3-0.8
		C103.4,166.4,105.8,164.4,105.8,161.2z M97.9,161.4c0,0.8-0.6,1.3-1.8,1.3c-1.2,0-1.8-0.4-1.8-1.3v-22.4c0-0.9,0.7-1.3,1.8-1.3
		c1.2,0,1.8,0.4,1.8,1.3V161.4z"/>
	<path style="fill:#8A4DFF;" d="M128.2,152.2h1.3c1.2,4.9,2,9.9,2.8,14.9h8.7c-1.2-5.2-2.4-10.5-3.9-15.8c2.4-0.8,3.4-2.1,3.4-4.7
		v-6.9c0-4.4-3.6-6-10.7-6h-9.5v33.3h7.9V152.2z M128.2,138.2h1.5c1.8,0,2.7,0.5,2.7,1.6v6.9c0,1-0.9,1.5-2.6,1.5h-1.6V138.2z"/>
	<path style="fill:#8A4DFF;" d="M172.9,161.9v-4.8c0-2.9-1.3-4.6-5.5-7.7c-4.4-3.2-5.7-4-5.7-5.7v-4.9c0-0.7,0.6-1.1,1.9-1.1
		c1.3,0,1.9,0.3,1.9,1.1v6.1h7.3v-6.1c0-3.7-2.6-5.5-9.4-5.5c-6.5,0-9.7,1.8-9.7,5.5v5c0,2.8,1.9,4.8,5.6,7.5
		c4.8,3.4,5.8,4.2,5.8,5.9v4.7c0,0.7-0.7,1.1-2,1.1c-1.2,0-1.9-0.4-1.9-1.1v-7.1h-7.6v7.1c0,3.5,3,5.5,9.7,5.5
		C170.1,167.4,172.9,165.4,172.9,161.9z"/>
	<polygon style="fill:#8A4DFF;" points="198.9,167.1 198.9,138.2 204.7,138.2 204.7,133.8 185.2,133.8 185.2,138.2 191,138.2 
		191,167.1 	"/>
	<path style="fill:#8A4DFF;" d="M229,161.8c0,0.9-0.7,1.3-1.8,1.3c-1.2,0-1.8-0.4-1.8-1.3v-28h-7.9v28c0,3.8,3.3,5.7,9.7,5.7
		c6.4,0,9.7-1.9,9.7-5.7v-28H229V161.8z"/>
	<path style="fill:#8A4DFF;" d="M52.9,200.4c-0.4-4.6-0.9-9.2-3.6-25.7h-8.2l6.3,33.3h10.5l6.8-33.3h-7.9
		C54,191.2,53.4,195.8,52.9,200.4z"/>
	<path style="fill:#8A4DFF;" d="M101.9,197.9c-0.4-2.9-0.8-5.8-3.6-23.2h-7.1c-3.3,17.5-3.9,20.4-4.2,23.2
		c-0.3-2.9-0.7-5.8-2.8-23.2h-8.3l5.7,33.3h9.2c3.1-16.6,3.4-19,3.6-21.5c0.1,2.4,0.5,4.9,3.3,21.5h9.2l6.7-33.3h-8.3
		C102.6,192.2,102.2,195,101.9,197.9z"/>
	<path style="fill:#8A4DFF;" d="M171.6,187.3c-0.5-2.2-1.2-4.4-3.6-12.6h-8.4l7.6,19.1V208h8v-14.2l7.9-19.1h-7.7
		C172.8,182.9,172.1,185.1,171.6,187.3z"/>
	<path style="fill:#8A4DFF;" d="M147.8,174.7h-8.2c-1.8,6.3-2.3,8.4-2.7,10.5c-0.4-2.1-0.8-4.3-2.7-10.5h-8.4l6.3,15.5l-7.7,17.9
		h8.1c2.8-8.1,3.6-10.7,4.1-13.3c0.7,2.6,1.4,5.3,4.1,13.3h8.5l-7.9-18L147.8,174.7z"/>
	<polygon style="fill:#8A4DFF;" points="195.6,179 206.6,179 195,203.5 195,208 214.5,208 214.5,203.5 203.3,203.5 214.5,178.6 
		214.5,174.7 195.6,174.7 	"/>
</g>
</svg>
