<?xml version="1.0" encoding="utf-8"?>
<!-- Generator: Adobe Illustrator 22.1.0, SVG Export Plug-In . SVG Version: 6.00 Build 0)  -->
<svg version="1.1" id="Layer_1" xmlns="http://www.w3.org/2000/svg" xmlns:xlink="http://www.w3.org/1999/xlink" x="0px" y="0px"
	 viewBox="0 0 256 256" style="enable-background:new 0 0 256 256;" xml:space="preserve">
<g>
	<g>
		<path style="fill:#52DB6F;" d="M132.4,146.7v-6.9c0-1.1-0.9-1.6-2.7-1.6h-1.5v10h1.6C131.5,148.2,132.4,147.7,132.4,146.7z"/>
		<path style="fill:#52DB6F;" d="M29.1,137.8c-1.2,0-1.8,0.4-1.8,1.3v22.7c0,0.9,0.7,1.3,1.8,1.3c1.2,0,1.8-0.4,1.8-1.3v-22.7
			C30.9,138.2,30.3,137.8,29.1,137.8z"/>
		<path style="fill:#52DB6F;" d="M96.1,137.8c-1.2,0-1.8,0.4-1.8,1.3v22.4c0,0.8,0.7,1.3,1.8,1.3c1.2,0,1.8-0.4,1.8-1.3v-22.4
			C97.9,138.2,97.3,137.8,96.1,137.8z"/>
		<path style="fill:#52DB6F;" d="M62.9,138.2h-1.7v8.8H63c1.8,0,2.7-0.5,2.7-1.5v-5.7C65.7,138.7,64.8,138.2,62.9,138.2z"/>
		<path style="fill:#52DB6F;" d="M66,70.2h-2v10.6h2c1.2,0,1.8-0.4,1.8-1.3v-8.1C67.8,70.6,67.2,70.2,66,70.2z"/>
		<path style="fill:#52DB6F;" d="M31.3,63.2c-0.6,4.5-1.3,8.9-2.2,13.3h4.2C32.6,72.2,31.9,67.7,31.3,63.2z"/>
		<path style="fill:#52DB6F;" d="M66,56.3h-2v10h2c1.2,0,1.7-0.4,1.7-1.3v-7.5C67.8,56.8,67.2,56.3,66,56.3z"/>
		<path style="fill:#52DB6F;" d="M8.5,29.5v200h239v-200H8.5z M215.8,57.3c0-3.6,3.3-5.7,9.8-5.7c6.5,0,9.4,2.1,9.4,5.7v5.9h-7.1
			v-5.9c0-0.9-0.8-1.3-2.3-1.3c-1.2,0-1.9,0.4-1.9,1.3v22.7c0,0.9,0.7,1.3,1.8,1.3c1.5,0,2.3-0.4,2.3-1.3v-6.5h-2.5v-4.2h10.2v16.2
			h-0.8l-2.5-1.3c-1.5,1.1-4.4,1.5-7.1,1.5c-5.2,0-9.2-1.5-9.2-5.7V57.3z M213.4,92.8h9.1c4,14.1,4.9,17.4,5.8,20.9
			c-0.2-3.5-0.2-7-0.2-10.4V92.8h6.6v33.3h-7.6c-4.9-12.9-6.2-16.7-7.3-20.4c0.2,3.9,0.2,7.9,0.2,11.8v8.6h-6.6V92.8z M186.6,51.9
			h16.8v4.4h-8.9v9.9h5.5v4.4h-5.5v14.6h-7.9V51.9z M184.4,116c0.4-2.6,0.8-5.3,3.9-23.2h10.6v33.3h-7.2v-9.4
			c0-3.9,0.1-7.8,0.4-11.7c-0.7,3.8-1.5,7.8-4.3,21.1h-6.7l-4.1-21.1c0.3,3.9,0.4,7.9,0.4,11.7v9.4h-7.2V92.8h10.5
			C183.6,110.8,184.1,113.4,184.4,116z M156.2,51.9h16.4v4.4h-8.5V66h5.4v4.4h-5.4v10.4h8.9v4.4h-16.8V51.9z M157.3,121.7v4.4h-16.8
			V92.8h7.9v28.9H157.3z M122.3,51.9h9.7c6.5,0,9.7,2.1,9.7,5.7v21.9c0,3.8-3.3,5.7-9.7,5.7h-9.7V51.9z M89.4,57.3
			c0-3.8,3.4-5.8,9.9-5.8c6,0,9,1.8,9,5.7v5.9h-7.2v-5.9c0-0.9-0.6-1.3-1.8-1.3c-1.2,0-1.8,0.4-1.8,1.3v22.7c0,0.9,0.7,1.3,1.8,1.3
			c1.2,0,1.8-0.4,1.8-1.3V73h7.2v6.9c0,3.9-2.7,5.7-9,5.7c-6.5,0-9.9-1.8-9.9-5.6V57.3z M101.7,167.6c2,0,3.1-0.2,4.1-0.7v3.3
			c-0.9,0.5-2.5,0.8-5,0.8c-5.2,0-7.5-1.9-7.6-4.3c-4.7-0.5-6.9-2.4-6.9-5.5v-22.1c0-3.7,3.2-5.7,9.7-5.7s9.7,2,9.7,5.7v22.1
			c0,3.2-2.5,5.2-7.5,5.6C98.5,167.2,99.6,167.6,101.7,167.6z M77.3,121.8c0.8,0.1,1.8,0.1,3.1,0.1c1.2,0,2-0.5,2-1.5V92.8h7.9v27.7
			c0,4.1-3.4,5.9-9.9,5.9c-1.2,0-2.2-0.1-3.1-0.2V121.8z M27,51.9h9.2L43,85.2h-7.9l-0.9-4.7h-5.8l-1,4.7h-7.6L27,51.9z M29.9,111.4
			v14.8h-7.9V92.8h7.9V107h3.6V92.8h7.9v33.3h-7.9v-14.8H29.9z M38.8,161.8c0,3.7-3.2,5.7-9.7,5.7c-6.5,0-9.7-2-9.7-5.7v-22.7
			c0-3.7,3.2-5.7,9.7-5.7c6.5,0,9.7,2,9.7,5.7V161.8z M57.9,208H47.4l-6.3-33.3h8.2c2.6,16.5,3.2,21.1,3.6,25.7
			c0.5-4.6,1.1-9.2,3.9-25.7h7.9L57.9,208z M73.5,145.3c0,4.2-3.3,6-10.5,6h-1.8v15.8h-7.9v-33.3h9.7c7.2,0,10.5,1.9,10.5,6V145.3z
			 M56.3,126.2V92.8h7.9v33.3H56.3z M75.9,79.6c0,3.9-3.3,5.6-9.9,5.6h-9.9V51.9H66c6.5,0,9.2,1.9,9.2,5.9v6.9c0,1.5-1,2.9-2.8,3.3
			c1.8,0.3,3.5,1.5,3.5,3.3V79.6z M107,208h-9.2c-2.8-16.6-3.1-19-3.3-21.5c-0.2,2.4-0.6,4.9-3.6,21.5h-9.2l-5.7-33.3h8.3
			c2.2,17.5,2.5,20.4,2.8,23.2c0.4-2.9,0.9-5.8,4.2-23.2h7.1c2.8,17.5,3.3,20.4,3.6,23.2c0.2-2.9,0.7-5.8,3.4-23.2h8.3L107,208z
			 M112.6,110.3c0.2,2.3,0.2,5,0.2,8.7v7.2h-7.9V92.8h7.9v6.6c0,3.7,0,5.5-0.2,7.3c0.7-1.8,1.5-4,6.3-14h8.4l-7.9,14.9l8.7,18.5h-9
			C114.4,115.3,113.5,112.6,112.6,110.3z M120.2,133.8h9.5c7.1,0,10.7,1.6,10.7,6v6.9c0,2.6-1,3.9-3.4,4.7
			c1.5,5.3,2.8,10.6,3.9,15.8h-8.7c-0.8-4.9-1.6-9.9-2.8-14.9h-1.3v14.9h-7.9V133.8z M140.6,208c-2.7-8.1-3.4-10.7-4.1-13.3
			c-0.5,2.6-1.2,5.2-4.1,13.3h-8.1l7.7-17.9l-6.3-15.5h8.4c1.9,6.2,2.3,8.4,2.7,10.5c0.4-2.1,0.9-4.2,2.7-10.5h8.2l-6.6,15.3l7.9,18
			H140.6z M153.6,161.9v-7.1h7.6v7.1c0,0.7,0.7,1.1,1.9,1.1c1.3,0,2-0.4,2-1.1v-4.7c0-1.7-1-2.5-5.8-5.9c-3.7-2.7-5.6-4.6-5.6-7.5
			v-5c0-3.7,3.2-5.5,9.7-5.5c6.8,0,9.4,1.8,9.4,5.5v6.1h-7.3v-6.1c0-0.7-0.6-1.1-1.9-1.1c-1.3,0-1.9,0.3-1.9,1.1v4.9
			c0,1.7,1.3,2.4,5.7,5.7c4.2,3.1,5.5,4.8,5.5,7.7v4.8c0,3.5-2.8,5.5-9.6,5.5C156.6,167.4,153.6,165.4,153.6,161.9z M175.2,193.8
			V208h-8v-14.2l-7.6-19.1h8.4c2.5,8.2,3.1,10.4,3.6,12.6c0.6-2.2,1.2-4.5,3.9-12.6h7.7L175.2,193.8z M185.2,138.2v-4.4h19.5v4.4
			h-5.7v28.9H191v-28.9H185.2z M214.5,178.6l-11.2,24.9h11.2v4.5H195v-4.5l11.6-24.5h-11v-4.3h18.8V178.6z M236.9,161.8
			c0,3.8-3.3,5.7-9.7,5.7c-6.5,0-9.7-1.9-9.7-5.7v-28h7.9v28c0,0.9,0.7,1.3,1.8,1.3c1.2,0,1.8-0.4,1.8-1.3v-28h7.9V161.8z"/>
		<path style="fill:#52DB6F;" d="M133.9,79.6v-22c0-0.8-0.7-1.3-1.9-1.3h-1.7v24.5h1.7C133.3,80.8,133.9,80.4,133.9,79.6z"/>
	</g>
	<g>
		<g>
			<path style="fill:#FFFFFF;" d="M62.9,138.2h-1.7v8.8H63c1.8,0,2.7-0.5,2.7-1.5v-5.7C65.7,138.7,64.8,138.2,62.9,138.2z"/>
			<path style="fill:#FFFFFF;" d="M133.9,79.6v-22c0-0.8-0.7-1.3-1.9-1.3h-1.7v24.5h1.7C133.3,80.8,133.9,80.4,133.9,79.6z"/>
			<path style="fill:#FFFFFF;" d="M66,70.2h-2v10.6h2c1.2,0,1.8-0.4,1.8-1.3v-8.1C67.8,70.6,67.2,70.2,66,70.2z"/>
			<path style="fill:#FFFFFF;" d="M132.4,146.7v-6.9c0-1.1-0.9-1.6-2.7-1.6h-1.5v10h1.6C131.5,148.2,132.4,147.7,132.4,146.7z"/>
			<path style="fill:#FFFFFF;" d="M66,56.3h-2v10h2c1.2,0,1.7-0.4,1.7-1.3v-7.5C67.8,56.8,67.2,56.3,66,56.3z"/>
			<path style="fill:#FFFFFF;" d="M12.7,33v193h230.6V33H12.7z M215.8,57.3c0-3.6,3.3-5.7,9.8-5.7c6.5,0,9.4,2.1,9.4,5.7v5.9h-7.1
				v-5.9c0-0.9-0.8-1.3-2.3-1.3c-1.2,0-1.9,0.4-1.9,1.3v22.7c0,0.9,0.7,1.3,1.8,1.3c1.5,0,2.3-0.4,2.3-1.3v-6.5h-2.5v-4.2h10.2v16.2
				h-0.8l-2.5-1.3c-1.5,1.1-4.4,1.5-7.1,1.5c-5.2,0-9.2-1.5-9.2-5.7V57.3z M213.4,92.8h9.1c4,14.1,4.9,17.4,5.8,20.9
				c-0.2-3.5-0.2-7-0.2-10.4V92.8h6.6v33.3h-7.6c-4.9-12.9-6.2-16.7-7.3-20.4c0.2,3.9,0.2,7.9,0.2,11.8v8.6h-6.6V92.8z M186.6,51.9
				h16.8v4.4h-8.9v9.9h5.5v4.4h-5.5v14.6h-7.9V51.9z M184.4,116c0.4-2.6,0.8-5.3,3.9-23.2h10.6v33.3h-7.2v-9.4
				c0-3.9,0.1-7.8,0.4-11.7c-0.7,3.8-1.5,7.8-4.3,21.1h-6.7l-4.1-21.1c0.3,3.9,0.4,7.9,0.4,11.7v9.4h-7.2V92.8h10.5
				C183.6,110.8,184.1,113.4,184.4,116z M156.2,51.9h16.4v4.4h-8.5V66h5.4v4.4h-5.4v10.4h8.9v4.4h-16.8V51.9z M157.3,121.7v4.4
				h-16.8V92.8h7.9v28.9H157.3z M122.3,51.9h9.7c6.5,0,9.7,2.1,9.7,5.7v21.9c0,3.8-3.3,5.7-9.7,5.7h-9.7V51.9z M89.4,57.3
				c0-3.8,3.4-5.8,9.9-5.8c6,0,9,1.8,9,5.7v5.9h-7.2v-5.9c0-0.9-0.6-1.3-1.8-1.3c-1.2,0-1.8,0.4-1.8,1.3v22.7c0,0.9,0.7,1.3,1.8,1.3
				c1.2,0,1.8-0.4,1.8-1.3V73h7.2v6.9c0,3.9-2.7,5.7-9,5.7c-6.5,0-9.9-1.8-9.9-5.6V57.3z M101.7,167.6c2,0,3.1-0.2,4.1-0.7v3.3
				c-0.9,0.5-2.5,0.8-5,0.8c-5.2,0-7.5-1.9-7.6-4.3c-4.7-0.5-6.9-2.4-6.9-5.5v-22.1c0-3.7,3.2-5.7,9.7-5.7s9.7,2,9.7,5.7v22.1
				c0,3.2-2.5,5.2-7.5,5.6C98.5,167.2,99.6,167.6,101.7,167.6z M77.3,121.8c0.8,0.1,1.8,0.1,3.1,0.1c1.2,0,2-0.5,2-1.5V92.8h7.9
				v27.7c0,4.1-3.4,5.9-9.9,5.9c-1.2,0-2.2-0.1-3.1-0.2V121.8z M27,51.9h9.2L43,85.2h-7.9l-0.9-4.7h-5.8l-1,4.7h-7.6L27,51.9z
				 M29.9,111.4v14.8h-7.9V92.8h7.9V107h3.6V92.8h7.9v33.3h-7.9v-14.8H29.9z M38.8,161.8c0,3.7-3.2,5.7-9.7,5.7
				c-6.5,0-9.7-2-9.7-5.7v-22.7c0-3.7,3.2-5.7,9.7-5.7c6.5,0,9.7,2,9.7,5.7V161.8z M57.9,208H47.4l-6.3-33.3h8.2
				c2.6,16.5,3.2,21.1,3.6,25.7c0.5-4.6,1.1-9.2,3.9-25.7h7.9L57.9,208z M73.5,145.3c0,4.2-3.3,6-10.5,6h-1.8v15.8h-7.9v-33.3h9.7
				c7.2,0,10.5,1.9,10.5,6V145.3z M56.3,126.2V92.8h7.9v33.3H56.3z M75.9,79.6c0,3.9-3.3,5.6-9.9,5.6h-9.9V51.9H66
				c6.5,0,9.2,1.9,9.2,5.9v6.9c0,1.5-1,2.9-2.8,3.3c1.8,0.3,3.5,1.5,3.5,3.3V79.6z M107,208h-9.2c-2.8-16.6-3.1-19-3.3-21.5
				c-0.2,2.4-0.6,4.9-3.6,21.5h-9.2l-5.7-33.3h8.3c2.2,17.5,2.5,20.4,2.8,23.2c0.4-2.9,0.9-5.8,4.2-23.2h7.1
				c2.8,17.5,3.3,20.4,3.6,23.2c0.2-2.9,0.7-5.8,3.4-23.2h8.3L107,208z M112.6,110.3c0.2,2.3,0.2,5,0.2,8.7v7.2h-7.9V92.8h7.9v6.6
				c0,3.7,0,5.5-0.2,7.3c0.7-1.8,1.5-4,6.3-14h8.4l-7.9,14.9l8.7,18.5h-9C114.4,115.3,113.5,112.6,112.6,110.3z M120.2,133.8h9.5
				c7.1,0,10.7,1.6,10.7,6v6.9c0,2.6-1,3.9-3.4,4.7c1.5,5.3,2.8,10.6,3.9,15.8h-8.7c-0.8-4.9-1.6-9.9-2.8-14.9h-1.3v14.9h-7.9V133.8
				z M140.6,208c-2.7-8.1-3.4-10.7-4.1-13.3c-0.5,2.6-1.2,5.2-4.1,13.3h-8.1l7.7-17.9l-6.3-15.5h8.4c1.9,6.2,2.3,8.4,2.7,10.5
				c0.4-2.1,0.9-4.2,2.7-10.5h8.2l-6.6,15.3l7.9,18H140.6z M153.6,161.9v-7.1h7.6v7.1c0,0.7,0.7,1.1,1.9,1.1c1.3,0,2-0.4,2-1.1v-4.7
				c0-1.7-1-2.5-5.8-5.9c-3.7-2.7-5.6-4.6-5.6-7.5v-5c0-3.7,3.2-5.5,9.7-5.5c6.8,0,9.4,1.8,9.4,5.5v6.1h-7.3v-6.1
				c0-0.7-0.6-1.1-1.9-1.1c-1.3,0-1.9,0.3-1.9,1.1v4.9c0,1.7,1.3,2.4,5.7,5.7c4.2,3.1,5.5,4.8,5.5,7.7v4.8c0,3.5-2.8,5.5-9.6,5.5
				C156.6,167.4,153.6,165.4,153.6,161.9z M175.2,193.8V208h-8v-14.2l-7.6-19.1h8.4c2.5,8.2,3.1,10.4,3.6,12.6
				c0.6-2.2,1.2-4.5,3.9-12.6h7.7L175.2,193.8z M185.2,138.2v-4.4h19.5v4.4h-5.7v28.9H191v-28.9H185.2z M214.5,178.6l-11.2,24.9
				h11.2v4.5H195v-4.5l11.6-24.5h-11v-4.3h18.8V178.6z M236.9,161.8c0,3.8-3.3,5.7-9.7,5.7c-6.5,0-9.7-1.9-9.7-5.7v-28h7.9v28
				c0,0.9,0.7,1.3,1.8,1.3c1.2,0,1.8-0.4,1.8-1.3v-28h7.9V161.8z"/>
			<path style="fill:#FFFFFF;" d="M29.1,137.8c-1.2,0-1.8,0.4-1.8,1.3v22.7c0,0.9,0.7,1.3,1.8,1.3c1.2,0,1.8-0.4,1.8-1.3v-22.7
				C30.9,138.2,30.3,137.8,29.1,137.8z"/>
			<path style="fill:#FFFFFF;" d="M96.1,137.8c-1.2,0-1.8,0.4-1.8,1.3v22.4c0,0.8,0.7,1.3,1.8,1.3c1.2,0,1.8-0.4,1.8-1.3v-22.4
				C97.9,138.2,97.3,137.8,96.1,137.8z"/>
			<path style="fill:#FFFFFF;" d="M31.3,63.2c-0.6,4.5-1.3,8.9-2.2,13.3h4.2C32.6,72.2,31.9,67.7,31.3,63.2z"/>
		</g>
	</g>
</g>
</svg>
