<?xml version="1.0" encoding="utf-8"?>
<!-- Generator: Adobe Illustrator 22.1.0, SVG Export Plug-In . SVG Version: 6.00 Build 0)  -->
<svg version="1.1" id="Layer_1" xmlns="http://www.w3.org/2000/svg" xmlns:xlink="http://www.w3.org/1999/xlink" x="0px" y="0px"
	 viewBox="0 0 256 256" style="enable-background:new 0 0 256 256;" xml:space="preserve">
<g>
	<g>
		<path style="fill:#6BB23D;" d="M185.6,55.1H61.3c-2.8,0-5.1-2.3-5.1-5.1V25.7c0-2.8,2.3-5.1,5.1-5.1h124.3c2.8,0,5.1,2.3,5.1,5.1
			V50C190.7,52.8,188.5,55.1,185.6,55.1z"/>
	</g>
	<g>
		<path style="fill:#6BB23D;" d="M83,95.3H68.8c-7.1,0-12.8-5.7-12.8-12.8v-1.3c0-7.1,5.7-12.8,12.8-12.8H83
			c7.1,0,12.8,5.7,12.8,12.8v1.3C95.8,89.6,90.1,95.3,83,95.3z"/>
	</g>
	<g>
		<path style="fill:#71BE45;" d="M82,93.7H67.9c-7.1,0-12.8-5.7-12.8-12.8v-1.3c0-7.1,5.7-12.8,12.8-12.8H82
			c7.1,0,12.8,5.7,12.8,12.8v1.3C94.8,88,89.1,93.7,82,93.7z"/>
	</g>
	<g>
		<path style="fill:#6BB23D;" d="M130.4,95.3h-14.2c-7.1,0-12.8-5.7-12.8-12.8v-1.3c0-7.1,5.7-12.8,12.8-12.8h14.2
			c7.1,0,12.8,5.7,12.8,12.8v1.3C143.2,89.6,137.4,95.3,130.4,95.3z"/>
	</g>
	<g>
		<path style="fill:#71BE45;" d="M129.4,93.7h-14.2c-7.1,0-12.8-5.7-12.8-12.8v-1.3c0-7.1,5.7-12.8,12.8-12.8h14.2
			c7.1,0,12.8,5.7,12.8,12.8v1.3C142.2,88,136.5,93.7,129.4,93.7z"/>
	</g>
	<g>
		<path style="fill:#6BB23D;" d="M177.7,95.3h-14.2c-7.1,0-12.8-5.7-12.8-12.8v-1.3c0-7.1,5.7-12.8,12.8-12.8h14.2
			c7.1,0,12.8,5.7,12.8,12.8v1.3C190.6,89.6,184.8,95.3,177.7,95.3z"/>
	</g>
	<g>
		<path style="fill:#71BE45;" d="M176.8,93.7h-14.2c-7.1,0-12.8-5.7-12.8-12.8v-1.3c0-7.1,5.7-12.8,12.8-12.8h14.2
			c7.1,0,12.8,5.7,12.8,12.8v1.3C189.6,88,183.9,93.7,176.8,93.7z"/>
	</g>
	<g>
		<path style="fill:#6BB23D;" d="M83,131.8H68.8c-7.1,0-12.8-5.7-12.8-12.8v-1.3c0-7.1,5.7-12.8,12.8-12.8H83
			c7.1,0,12.8,5.7,12.8,12.8v1.3C95.8,126.1,90.1,131.8,83,131.8z"/>
	</g>
	<g>
		<path style="fill:#71BE45;" d="M82,130.3H67.9c-7.1,0-12.8-5.7-12.8-12.8v-1.3c0-7.1,5.7-12.8,12.8-12.8H82
			c7.1,0,12.8,5.7,12.8,12.8v1.3C94.8,124.5,89.1,130.3,82,130.3z"/>
	</g>
	<g>
		<path style="fill:#6BB23D;" d="M130.4,131.8h-14.2c-7.1,0-12.8-5.7-12.8-12.8v-1.3c0-7.1,5.7-12.8,12.8-12.8h14.2
			c7.1,0,12.8,5.7,12.8,12.8v1.3C143.2,126.1,137.4,131.8,130.4,131.8z"/>
	</g>
	<g>
		<path style="fill:#71BE45;" d="M129.4,130.3h-14.2c-7.1,0-12.8-5.7-12.8-12.8v-1.3c0-7.1,5.7-12.8,12.8-12.8h14.2
			c7.1,0,12.8,5.7,12.8,12.8v1.3C142.2,124.5,136.5,130.3,129.4,130.3z"/>
	</g>
	<g>
		<path style="fill:#6BB23D;" d="M177.7,131.8h-14.2c-7.1,0-12.8-5.7-12.8-12.8v-1.3c0-7.1,5.7-12.8,12.8-12.8h14.2
			c7.1,0,12.8,5.7,12.8,12.8v1.3C190.6,126.1,184.8,131.8,177.7,131.8z"/>
	</g>
	<g>
		<path style="fill:#71BE45;" d="M176.8,130.3h-14.2c-7.1,0-12.8-5.7-12.8-12.8v-1.3c0-7.1,5.7-12.8,12.8-12.8h14.2
			c7.1,0,12.8,5.7,12.8,12.8v1.3C189.6,124.5,183.9,130.3,176.8,130.3z"/>
	</g>
	<g>
		<path style="fill:#6BB23D;" d="M83,168.4H68.8c-7.1,0-12.8-5.7-12.8-12.8v-1.3c0-7.1,5.7-12.8,12.8-12.8H83
			c7.1,0,12.8,5.7,12.8,12.8v1.3C95.8,162.6,90.1,168.4,83,168.4z"/>
	</g>
	<g>
		<path style="fill:#71BE45;" d="M82,166.8H67.9c-7.1,0-12.8-5.7-12.8-12.8v-1.3c0-7.1,5.7-12.8,12.8-12.8H82
			c7.1,0,12.8,5.7,12.8,12.8v1.3C94.8,161.1,89.1,166.8,82,166.8z"/>
	</g>
	<g>
		<path style="fill:#6BB23D;" d="M130.4,168.4h-14.2c-7.1,0-12.8-5.7-12.8-12.8v-1.3c0-7.1,5.7-12.8,12.8-12.8h14.2
			c7.1,0,12.8,5.7,12.8,12.8v1.3C143.2,162.6,137.4,168.4,130.4,168.4z"/>
	</g>
	<g>
		<path style="fill:#71BE45;" d="M129.4,166.8h-14.2c-7.1,0-12.8-5.7-12.8-12.8v-1.3c0-7.1,5.7-12.8,12.8-12.8h14.2
			c7.1,0,12.8,5.7,12.8,12.8v1.3C142.2,161.1,136.5,166.8,129.4,166.8z"/>
	</g>
	<g>
		<path style="fill:#6BB23D;" d="M177.7,168.4h-14.2c-7.1,0-12.8-5.7-12.8-12.8v-1.3c0-7.1,5.7-12.8,12.8-12.8h14.2
			c7.1,0,12.8,5.7,12.8,12.8v1.3C190.6,162.6,184.8,168.4,177.7,168.4z"/>
	</g>
	<g>
		<path style="fill:#71BE45;" d="M176.8,166.8h-14.2c-7.1,0-12.8-5.7-12.8-12.8v-1.3c0-7.1,5.7-12.8,12.8-12.8h14.2
			c7.1,0,12.8,5.7,12.8,12.8v1.3C189.6,161.1,183.9,166.8,176.8,166.8z"/>
	</g>
	<g>
		<path style="fill:#DD350E;" d="M83,202.4H68.8c-7.1,0-12.8-5.7-12.8-12.8v-1.3c0-7.1,5.7-12.8,12.8-12.8H83
			c7.1,0,12.8,5.7,12.8,12.8v1.3C95.8,196.7,90.1,202.4,83,202.4z"/>
	</g>
	<g>
		<path style="fill:#EF430F;" d="M82,200.9H67.9c-7.1,0-12.8-5.7-12.8-12.8v-1.3c0-7.1,5.7-12.8,12.8-12.8H82
			c7.1,0,12.8,5.7,12.8,12.8v1.3C94.8,195.2,89.1,200.9,82,200.9z"/>
	</g>
	<g>
		<path style="fill:#3974AA;" d="M130.4,202.4h-14.2c-7.1,0-12.8-5.7-12.8-12.8v-1.3c0-7.1,5.7-12.8,12.8-12.8h14.2
			c7.1,0,12.8,5.7,12.8,12.8v1.3C143.2,196.7,137.4,202.4,130.4,202.4z"/>
	</g>
	<g>
		<path style="fill:#467FBC;" d="M129.4,200.9h-14.2c-7.1,0-12.8-5.7-12.8-12.8v-1.3c0-7.1,5.7-12.8,12.8-12.8h14.2
			c7.1,0,12.8,5.7,12.8,12.8v1.3C142.2,195.2,136.5,200.9,129.4,200.9z"/>
	</g>
	<g>
		<path style="fill:#3974AA;" d="M177.7,202.4h-14.2c-7.1,0-12.8-5.7-12.8-12.8v-1.3c0-7.1,5.7-12.8,12.8-12.8h14.2
			c7.1,0,12.8,5.7,12.8,12.8v1.3C190.6,196.7,184.8,202.4,177.7,202.4z"/>
	</g>
	<g>
		<path style="fill:#467FBC;" d="M176.8,200.9h-14.2c-7.1,0-12.8-5.7-12.8-12.8v-1.3c0-7.1,5.7-12.8,12.8-12.8h14.2
			c7.1,0,12.8,5.7,12.8,12.8v1.3C189.6,195.2,183.9,200.9,176.8,200.9z"/>
	</g>
	<g>
		<path style="fill:#6A6D69;" d="M183.6,53.5H60.9c-3.3,0-5.9-2.6-5.9-5.9V25c0-3.3,2.6-5.9,5.9-5.9h122.7c3.3,0,5.9,2.6,5.9,5.9
			v22.6C189.6,50.8,186.9,53.5,183.6,53.5z"/>
		<path style="fill:#76BF43;" d="M184.1,54H60.4c-3.2,0-5.9-2.6-5.9-5.9V24.5c0-3.2,2.6-5.9,5.9-5.9h123.7c3.2,0,5.9,2.6,5.9,5.9
			v23.6C190,51.3,187.4,54,184.1,54z M60.4,19.5c-2.7,0-4.9,2.2-4.9,4.9v23.6c0,2.7,2.2,4.9,4.9,4.9h123.7c2.7,0,4.9-2.2,4.9-4.9
			V24.5c0-2.7-2.2-4.9-4.9-4.9H60.4z"/>
	</g>
	<g>
		<path style="fill:#6BB23D;" d="M178.3,234.6H69c-7.1,0-12.8-5.7-12.8-12.8v-1.3c0-7.1,5.7-12.8,12.8-12.8h109.3
			c7.1,0,12.8,5.7,12.8,12.8v1.3C191.2,228.9,185.4,234.6,178.3,234.6z"/>
	</g>
	<g>
		<path style="fill:#71BE45;" d="M177.4,233.1H68.1c-7.1,0-12.8-5.7-12.8-12.8V219c0-7.1,5.7-12.8,12.8-12.8h109.3
			c7.1,0,12.8,5.7,12.8,12.8v1.3C190.2,227.3,184.5,233.1,177.4,233.1z"/>
	</g>
	<g>
		<g>
			<polygon style="fill:#FFFFFF;" points="117.1,219.6 108.7,224.5 117.2,229.4 			"/>
		</g>
		<g>
			<g>
				<path style="fill:#FFFFFF;" d="M126.3,226h-10.7v-3.3h10.7c1,0,1.8-0.8,1.8-1.8v-8.8h3.3v8.8C131.3,223.8,129,226,126.3,226z"/>
			</g>
		</g>
	</g>
	<path style="fill:#71BE45;" d="M197.1,8.5c0.9,0.9,1.4,2.1,1.4,3.4v226c0,2.1-1.7,3.7-3.7,3.7H54.8c-2.2,0-4.1-1-5.3-2.7
		c0.1,3.9,3.4,7.1,7.3,7.1h138.9c4,0,7.3-3.3,7.3-7.3v-223C203,12.1,200.4,9.1,197.1,8.5z"/>
</g>
</svg>
