<?xml version="1.0" encoding="utf-8"?>
<!-- Generator: Adobe Illustrator 22.1.0, SVG Export Plug-In . SVG Version: 6.00 Build 0)  -->
<svg version="1.1" id="Layer_1" xmlns="http://www.w3.org/2000/svg" xmlns:xlink="http://www.w3.org/1999/xlink" x="0px" y="0px"
	 viewBox="0 0 256 256" style="enable-background:new 0 0 256 256;" xml:space="preserve">
<g>
	<path style="fill:#9E9E9E;" d="M72.7,114.4c15.5,4.4,32.2,6.7,49.6,6.7c17.4,0,34.1-2.4,49.6-6.7c4.6-2.3,1.9-8-2.6-7.2
		c-14.7,4.1-30.5,6.3-47,6.3c-16.5,0-32.3-2.2-47-6.3C70.3,106.6,67.9,112.6,72.7,114.4L72.7,114.4z M72.7,114.4"/>
	<path style="fill:#9E9E9E;" d="M148.2,53.9l-22.7,0L162.1,209l5.3,7.7l5.9-1l1.3-8.3L148.2,53.9z M100.8,53.9l22.7,0l-37,157.5
		l-12.3,0.7L100.8,53.9L100.8,53.9z M100.8,53.9"/>
	<path style="fill:#9E9E9E;" d="M173.3,215.7L176,241l-8.7-24.4L173.3,215.7z M173.3,215.7"/>
	<path style="fill:#9E9E9E;" d="M87.2,204.9l-12.9,0c-0.6,0-1.1,0.5-1.1,1.1l0,2.1c0,0.6,0.5,1.1,1.1,1.1l12.9,0
		c0.6,0,1.1-0.5,1.1-1.1l0-2.1C88.4,205.4,87.8,204.9,87.2,204.9L87.2,204.9z M87.2,204.9"/>
	<path style="fill:#9E9E9E;" d="M73.7,202.8l-11.4-1.6c-1.3-0.2-2.5,0.7-2.7,2l-0.4,2.5c-0.2,1.3,0.7,2.5,2,2.7l11.4,1.7
		c1.3,0.2,2.5-0.7,2.7-2l0.4-2.5C75.9,204.2,75,203,73.7,202.8L73.7,202.8z M73.7,202.8"/>
</g>
</svg>
