<?xml version="1.0" encoding="utf-8"?>
<!-- Generator: Adobe Illustrator 22.1.0, SVG Export Plug-In . SVG Version: 6.00 Build 0)  -->
<svg version="1.1" id="Layer_1" xmlns="http://www.w3.org/2000/svg" xmlns:xlink="http://www.w3.org/1999/xlink" x="0px" y="0px"
	 viewBox="0 0 256 256" style="enable-background:new 0 0 256 256;" xml:space="preserve">
<g>
	<path style="opacity:0.2;" d="M72.7,114.4c15.5,4.4,32.2,6.7,49.6,6.7c17.4,0,34.1-2.4,49.6-6.7c4.6-2.3,1.9-8-2.6-7.2
		c-14.7,4.1-30.5,6.3-47,6.3c-16.5,0-32.3-2.2-47-6.3C70.3,106.6,67.9,112.6,72.7,114.4L72.7,114.4z M72.7,114.4"/>
	<path style="fill:#FF5B61;" d="M149.4,28.3l-24.9,0.1l-24.9-0.1c-1.7,0-2.8,1.4-3.1,3l-4.7,27.9c-0.3,1.6,1.4,3,3.1,3h59.2
		c1.7,0,3.4-1.4,3.1-3l-4.7-27.9C152.2,29.7,151.1,28.3,149.4,28.3L149.4,28.3z M149.4,28.3"/>
	<path style="fill:#EC4B53;" d="M124.5,37.8c-4.9,0-9,3.9-9,8.6c0,4.7,4,8.6,9,8.6c4.9,0,9-3.9,9-8.6
		C133.5,41.6,129.4,37.8,124.5,37.8L124.5,37.8z M124.5,37.8"/>
	<path style="fill:#FFFFFF;" d="M124.5,40.5c-3.4,0-6.2,2.6-6.2,5.9c0,3.3,2.8,5.9,6.2,5.9c3.4,0,6.2-2.6,6.2-5.9
		C130.7,43.1,127.9,40.5,124.5,40.5L124.5,40.5z M124.5,40.5"/>
	<path style="fill:#ECF0F1;" d="M124.5,40.5c-0.3,0-0.5,0-0.8,0l0,11.7c0.3,0,0.5,0,0.8,0c0.3,0,0.5,0,0.8,0l0-11.7
		C125,40.5,124.8,40.5,124.5,40.5L124.5,40.5z M124.5,40.5"/>
	<path style="fill:#FF5B61;" d="M130.2,5.6l-8.3,0c-1.8,0-2.9,1.2-3.2,2.7l-3.3,20.1l21.3,0l-3.3-20.1
		C133.1,6.8,131.9,5.6,130.2,5.6L130.2,5.6z M130.2,5.6"/>
	<g>
		<path style="fill:#FF5B61;" d="M64.5,208.8L61.6,224c0,0,0,0,0,0c1.2-1.5,2.7-1,2.7-1s1.6,0.1,2.2,1.8l2.9-15.2L64.5,208.8z"/>
		<path style="fill:#FF5B61;" d="M58.2,223.4L58.2,223.4c0.1-0.1,0.2-0.3,0.3-0.4C58.4,223.1,58.3,223.2,58.2,223.4z"/>
		<polygon style="fill:#FF5B61;" points="74.2,202.9 77.4,185.7 77.4,185.7 74.2,202.9 		"/>
		<path style="fill:#FF5B61;" d="M66.6,224.8C66.6,224.8,66.6,224.8,66.6,224.8c0,0,1-0.8,2-0.8C67.6,224,66.6,224.8,66.6,224.8z"/>
		<polygon style="fill:#FF5B61;" points="65.8,201.6 70.8,202.4 74,185.1 77.4,185.7 65.7,183.6 65.7,183.6 69.1,184.2 		"/>
		<polygon style="fill:#FF5B61;" points="70,225.4 70,225.4 72.9,210 72.9,210 		"/>
		<polygon style="fill:#EC4B53;" points="66.6,224.8 66.6,224.8 66.6,224.8 		"/>
		<path style="fill:#EC4B53;" d="M68.6,224c0.6,0,1.1,0.4,1.4,1.4l0,0C69.7,224.4,69.2,224,68.6,224z"/>
		<path style="fill:#EC4B53;" d="M72.6,210l-3.2-0.5l-2.9,15.2c0,0,0,0,0,0c0,0,1.1-0.8,2-0.8c0.6,0,1.1,0.4,1.4,1.4l2.9-15.4
			C72.8,210,72.7,210,72.6,210z"/>
		<path style="fill:#EC4B53;" d="M70.8,202.4l3,0.4h0c0.2,0,0.3,0.1,0.5,0.1l3.2-17.3l-3.4-0.6L70.8,202.4z"/>
		<polygon style="fill:#EC4B53;" points="65.7,183.6 65.6,183.6 62.4,201.1 62.4,201.1 		"/>
		<path style="fill:#EC4B53;" d="M58.5,223c1.6-1.6,3.1,1,3.1,1l0,0C61.6,223.9,60.1,221.4,58.5,223z"/>
		<polygon style="fill:#EC4B53;" points="61,208.3 58.2,223.4 58.2,223.4 61,208.3 		"/>
		<polygon style="fill:#EC4B53;" points="65.8,201.6 69.1,184.2 65.7,183.6 62.4,201.1 		"/>
		<path style="fill:#EC4B53;" d="M61.2,208.4c-0.1,0-0.1,0-0.2,0l-2.8,15c0.1-0.1,0.2-0.3,0.3-0.4c1.6-1.6,3.1,0.9,3.1,1l2.8-15.1
			L61.2,208.4z"/>
	</g>
	<path style="fill:#E0E0E0;" d="M77.4,185.7l-11.8-2l0.9-4.8l11.8,2L77.4,185.7z M77.4,185.7"/>
	<path style="fill:#20D0C2;" d="M76.1,173.8l-5-0.9c-1.9-0.3-3.4-0.5-3.6,0.7l-1,5.1l11.8,2l1-5.1C79.5,174.5,78,174.1,76.1,173.8
		L76.1,173.8z M76.1,173.8"/>
	<path style="fill:#FED198;" d="M64.4,233.1l-3.8-0.7l-2.4-9.1c1.7-2.3,3.4,0.6,3.4,0.6c1.2-1.5,2.7-1,2.7-1s1.6,0.1,2.2,1.8
		c0,0,2.7-2.1,3.4,0.6L64.4,233.1L64.4,233.1L64.4,233.1z M64.4,233.1"/>
	<path style="fill:#807D7D;" d="M64.4,233.1l-1.9-0.3l-1.4,7.7L64.4,233.1L64.4,233.1z M64.4,233.1"/>
	<path style="fill:#666666;" d="M60.6,232.4l1.9,0.3l-1.4,7.7L60.6,232.4z M60.6,232.4"/>
	<path style="fill:#15BDB1;" d="M67.5,173.7l-1,5.1l3.4,0.6l1.2-6.4l-1.2-0.2C68.8,172.5,67.7,172.4,67.5,173.7L67.5,173.7z
		 M67.5,173.7"/>
	<path style="fill:#F0B97D;" d="M66.6,224.8l-4,7.9l1.9,0.3l5.5-7.7C69.3,222.7,66.6,224.8,66.6,224.8L66.6,224.8z M66.6,224.8"/>
	<path style="fill:#F0B97D;" d="M61.6,224l0.9,8.8l-1.9-0.3l-2.4-9.1C59.9,221.1,61.6,224,61.6,224L61.6,224z M61.6,224"/>
	<path style="fill:#FBB429;" d="M122.2,103.2c-2.6,0-4.7,2.1-4.7,4.7l0,19.4c0,2.6,2.1,4.7,4.7,4.7c2.6,0,4.7-2.1,4.7-4.7l0-19.4
		C126.9,105.3,124.8,103.2,122.2,103.2L122.2,103.2z M122.2,103.2"/>
	<path style="fill:#F5A209;" d="M124.5,106.7l-4.6,0c-0.7,0-1.3,0.5-1.3,1c0,0.6,0.6,1,1.3,1l4.6,0c0.7,0,1.3-0.5,1.3-1
		C125.8,107.2,125.2,106.7,124.5,106.7L124.5,106.7z M124.5,126.5l-4.6,0c-0.7,0-1.3,0.5-1.3,1c0,0.6,0.6,1,1.3,1l4.6,0
		c0.7,0,1.3-0.5,1.3-1C125.8,127,125.2,126.5,124.5,126.5L124.5,126.5z M124.5,121.6c0.7,0,1.3,0.5,1.3,1c0,0.6-0.6,1-1.3,1l-4.6,0
		c-0.7,0-1.3-0.5-1.3-1c0-0.6,0.6-1,1.3-1L124.5,121.6L124.5,121.6z M124.5,116.6h-4.6c-0.7,0-1.3,0.5-1.3,1c0,0.6,0.6,1,1.3,1
		l4.6,0c0.7,0,1.3-0.5,1.3-1C125.8,117.1,125.2,116.6,124.5,116.6L124.5,116.6z M124.5,111.7c0.7,0,1.3,0.5,1.3,1c0,0.6-0.6,1-1.3,1
		l-4.6,0c-0.7,0-1.3-0.5-1.3-1c0-0.6,0.6-1,1.3-1L124.5,111.7L124.5,111.7z M124.5,111.7"/>
	<path style="fill:#EC4B53;" d="M126,8.5c-0.5,0-1,0.4-1,1v16.6c0,0.5,0.4,1,1,1c0.5,0,1-0.4,1-1V9.5C127,9,126.5,8.5,126,8.5
		L126,8.5z M126,8.5"/>
	<path style="fill:#EC4B53;" d="M129.9,8.5c-0.5,0.1-0.9,0.6-0.9,1.1l1.6,16.4c0.1,0.5,0.5,0.9,1.1,0.8l0,0c0.5-0.1,0.9-0.6,0.9-1.1
		L131,9.4C130.9,8.8,130.4,8.5,129.9,8.5L129.9,8.5z M129.9,8.5"/>
	<path style="fill:#EC4B53;" d="M122.1,8.5c0.5,0.1,0.9,0.6,0.9,1.1l-1.6,16.4c-0.1,0.5-0.5,0.9-1.1,0.8c-0.5-0.1-0.9-0.6-0.9-1.1
		L121,9.4C121.1,8.8,121.5,8.5,122.1,8.5L122.1,8.5z M122.1,8.5"/>
	<path style="fill:#15BDB1;" d="M76.1,173.8l-1.2,6.4l3.4,0.6l1-5.1c0.2-1.2-0.8-1.5-2-1.7L76.1,173.8L76.1,173.8z M76.1,173.8"/>
	<path style="opacity:0.2;" d="M173.3,215.7L176,241l-8.7-24.4L173.3,215.7z M173.3,215.7"/>
	<path style="opacity:0.2;" d="M87.2,204.9L87.2,204.9l-11.5,0c-0.1-1-0.9-1.9-2-2.1h0l-11.4-1.6c-1.3-0.2-2.5,0.7-2.7,2l-0.4,2.5
		c-0.2,1.3,0.7,2.5,2,2.7l11.4,1.7c0.8,0.1,1.7-0.2,2.2-0.8l12.4,0c0.6,0,1.1-0.5,1.1-1.1V206C88.4,205.4,87.8,204.9,87.2,204.9z"/>
</g>
</svg>
