<?xml version="1.0" encoding="utf-8"?>
<!-- Generator: Adobe Illustrator 22.1.0, SVG Export Plug-In . SVG Version: 6.00 Build 0)  -->
<svg version="1.1" id="Layer_1" xmlns="http://www.w3.org/2000/svg" xmlns:xlink="http://www.w3.org/1999/xlink" x="0px" y="0px"
	 viewBox="0 0 256 256" style="enable-background:new 0 0 256 256;" xml:space="preserve">
<g>
	<polygon style="fill:#C7C2AA;" points="219.8,16.1 224.2,22.5 199.3,175.1 59,206.5 52.2,195.1 193.5,165.3 	"/>
	<path style="fill:#919193;" d="M66.5,196.8l-4.6,50.4l-7.2-1c0,0,1-36.3,5.7-48.4L66.5,196.8z"/>
	<path style="fill:#7D7D7F;" d="M184,183.9l-9.7-15.3c0,0,23.3-149.6,25.9-154.7l-17.8,4.7l-27.7,154.9l9.8,14.8L184,183.9z"/>
	<path style="fill:#4C4C4B;" d="M223.7,98.3l1.5-14.1c0.1-1-0.3-2-1.2-2.5c-1.6-1-4.3-2.2-6.5-0.4c-3.3,2.7-3.9,5.6-3.9,5.6
		l-2.6,16.2L223.7,98.3z"/>
	<path style="fill:#0A0905;" d="M210.9,103.6c0,0,3-2.2,8.1-2.5c5.1-0.4,5.9-3.5,3.2-5.8c-2.7-2.4-7,1.5-8.8,5.2L210.9,103.6z"/>
</g>
</svg>
