<?xml version="1.0" encoding="utf-8"?>
<!-- Generator: Adobe Illustrator 22.1.0, SVG Export Plug-In . SVG Version: 6.00 Build 0)  -->
<svg version="1.1" id="Layer_1" xmlns="http://www.w3.org/2000/svg" xmlns:xlink="http://www.w3.org/1999/xlink" x="0px" y="0px"
	 viewBox="0 0 256 256" style="enable-background:new 0 0 256 256;" xml:space="preserve">
<g>
	<g>
		<defs>
			<rect id="SVGID_1_" x="60.9" y="8.2" width="135.1" height="240.5"/>
		</defs>
		<clipPath id="SVGID_2_">
			<use xlink:href="#SVGID_1_"  style="overflow:visible;"/>
		</clipPath>
		<path style="clip-path:url(#SVGID_2_);fill:#B4B6BC;" d="M180.6,158.2H75.8c-2.1,0-3.7-1.7-3.7-3.7c0-2.1,1.7-3.7,3.7-3.7h104.9
			c2.1,0,3.7,1.7,3.7,3.7C184.4,156.6,182.7,158.2,180.6,158.2L180.6,158.2z M180.6,158.2"/>
		<path style="clip-path:url(#SVGID_2_);fill:#B4B6BC;" d="M191.9,248.1c0.4,0,0.7-0.1,1.1-0.2c2-0.6,3.1-2.7,2.5-4.7l-9-28.5
			c-0.6-2-2.7-3.1-4.7-2.4c-2,0.6-3.1,2.7-2.5,4.7l9,28.5C188.8,247.1,190.3,248.1,191.9,248.1L191.9,248.1z M191.9,248.1"/>
		<path style="clip-path:url(#SVGID_2_);fill:#B4B6BC;" d="M129.8,72.1l47.6,150.6c1,3.2,4,5.2,7.1,5.2c0.7,0,1.5-0.1,2.3-0.3
			c3.9-1.2,6.1-5.4,4.9-9.4L142.3,62.1L129.8,72.1z M129.8,72.1"/>
		<path style="clip-path:url(#SVGID_2_);fill:#B4B6BC;" d="M64.6,248.1c-0.4,0-0.7-0.1-1.1-0.2c-2-0.6-3.1-2.7-2.5-4.7l9-28.5
			c0.6-2,2.7-3.1,4.7-2.4c2,0.6,3.1,2.7,2.5,4.7l-9,28.5C67.7,247.1,66.2,248.1,64.6,248.1L64.6,248.1z M64.6,248.1"/>
	</g>
	<path style="fill:#B4B6BC;" d="M126.7,72.1L79.2,222.7c-1,3.2-4,5.2-7.1,5.2c-0.7,0-1.5-0.1-2.3-0.3c-3.9-1.2-6.1-5.4-4.9-9.4
		l49.3-156.1L126.7,72.1z M126.7,72.1"/>
</g>
</svg>
