<?xml version="1.0" encoding="utf-8"?>
<!-- Generator: Adobe Illustrator 22.1.0, SVG Export Plug-In . SVG Version: 6.00 Build 0)  -->
<svg version="1.1" id="Layer_1" xmlns="http://www.w3.org/2000/svg" xmlns:xlink="http://www.w3.org/1999/xlink" x="0px" y="0px"
	 viewBox="0 0 256 256" style="enable-background:new 0 0 256 256;" xml:space="preserve">
<g>
	<path style="opacity:0.2;" d="M180.6,158.2H75.8c-2.1,0-3.7-1.7-3.7-3.7c0-2.1,1.7-3.7,3.7-3.7h104.9c2.1,0,3.7,1.7,3.7,3.7
		C184.4,156.6,182.7,158.2,180.6,158.2L180.6,158.2z M180.6,158.2"/>
	<path style="opacity:0.2;" d="M191.9,248.1c0.4,0,0.7-0.1,1.1-0.2c2-0.6,3.1-2.7,2.5-4.7l-9-28.5c-0.6-2-2.7-3.1-4.7-2.4
		c-2,0.6-3.1,2.7-2.5,4.7l9,28.5C188.8,247.1,190.3,248.1,191.9,248.1L191.9,248.1z M191.9,248.1"/>
	<path style="opacity:0.2;" d="M64.6,248.1c-0.4,0-0.7-0.1-1.1-0.2c-2-0.6-3.1-2.7-2.5-4.7l9-28.5c0.6-2,2.7-3.1,4.7-2.4
		c2,0.6,3.1,2.7,2.5,4.7l-9,28.5C67.7,247.1,66.2,248.1,64.6,248.1L64.6,248.1z M64.6,248.1"/>
	<path style="fill:#3482AC;" d="M128.3,42.1c-4.1,0-7.5-3.4-7.5-7.5V15.9c0-4.1,3.4-7.5,7.5-7.5c4.1,0,7.5,3.4,7.5,7.5v18.7
		C135.8,38.8,132.4,42.1,128.3,42.1L128.3,42.1z M128.3,42.1"/>
	<path style="fill:#009BCA;" d="M135.8,27.1h-15c-6.2,0-11.2,5-11.2,11.2v18.7c0,10.3,8.4,18.7,18.7,18.7c10.3,0,18.7-8.4,18.7-18.7
		V38.4C147,32.2,142,27.1,135.8,27.1L135.8,27.1z M135.8,27.1"/>
	<path style="fill:#009BCA;" d="M134.9,169.5h-13.1c-0.5,0-0.9-0.4-0.9-0.9v-28.1c0-0.5,0.4-0.9,0.9-0.9h13.1c0.5,0,0.9,0.4,0.9,0.9
		v28.1C135.8,169,135.4,169.5,134.9,169.5L134.9,169.5z M134.9,169.5"/>
	<path style="fill:#5C546A;" d="M135.7,57.1c0,4.1-3.4,7.5-7.5,7.5c-4.1,0-7.5-3.4-7.5-7.5c0-4.1,3.4-7.5,7.5-7.5
		C132.3,49.6,135.7,53,135.7,57.1L135.7,57.1z M135.7,57.1"/>
</g>
</svg>
