<?xml version="1.0" encoding="utf-8"?>
<!-- Generator: Adobe Illustrator 22.1.0, SVG Export Plug-In . SVG Version: 6.00 Build 0)  -->
<svg version="1.1" id="Layer_1" xmlns="http://www.w3.org/2000/svg" xmlns:xlink="http://www.w3.org/1999/xlink" x="0px" y="0px"
	 viewBox="0 0 256 256" style="enable-background:new 0 0 256 256;" xml:space="preserve">
<path style="fill:#5E40A8;" d="M205.5,64.8c8.9,30.5-2.4,49-21.5,62.7l6.3,14.9l31.7-5.3l17.2-60.8l-6.6-9.2L222,60.6l-7.9-2.6
	L205.5,64.8z"/>
<path style="fill:#3F268E;" d="M232.3,47.4c-10.3-8.7-25.1-9-36.3-1.5c-12.2,8.2-28.4,25.4-32.6,59.6c-3.7,30,5.9,42.9,15.7,48.5
	c9.1,5.1,20.2,4.7,29.5-0.1c11.8-6.1,29.4-20.8,36.1-55.4C250.2,70.3,241.4,55.2,232.3,47.4z M228.5,98.8c-4,20.6-14.4,29.4-21.5,33
	c-5.5,2.8-12.1,3.1-17.6,0.1c-5.9-3.3-11.6-11-9.4-28.9c2.5-20.4,12.1-30.6,19.4-35.5c6.6-4.5,15.5-4.3,21.6,0.9
	C226.5,73,231.7,82,228.5,98.8z"/>
<path style="fill:#3F268E;" d="M183.8,156.1c-1.6-0.5-3.1-1.2-4.6-2.1c-9.9-5.6-19.4-18.6-15.7-48.5c4.2-34.2,20.4-51.3,32.6-59.6
	c10.1-6.8,23.3-7.2,33.3-0.7c-11-12.5-38.9-14.8-53-12.4c0,0-38.4,4.6-43.4,55.9c-5,51.3,25.5,49.3,17.5,60.1L8.1,205.3l26.3,19.2
	l145.2-60.9C179.6,163.5,184.1,160.8,183.8,156.1L183.8,156.1z"/>
<path style="opacity:0.2;" d="M232.3,47.4c-10.3-8.7-25.1-9-36.3-1.5c-12.2,8.2-28.4,25.4-32.6,59.6c-3.7,30,5.9,42.9,15.7,48.5
	c9.1,5.1,20.2,4.7,29.5-0.1c11.8-6.1,29.4-20.8,36.1-55.4C250.2,70.3,241.4,55.2,232.3,47.4z M228.5,98.8c-4,20.6-14.4,29.4-21.5,33
	c-5.5,2.8-12.1,3.1-17.6,0.1c-5.9-3.3-11.6-11-9.4-28.9c2.5-20.4,12.1-30.6,19.4-35.5c6.6-4.5,15.5-4.3,21.6,0.9
	C226.5,73,231.7,82,228.5,98.8z"/>
</svg>
