<?xml version="1.0" encoding="utf-8"?>
<!-- Generator: Adobe Illustrator 22.1.0, SVG Export Plug-In . SVG Version: 6.00 Build 0)  -->
<svg version="1.1" id="Layer_1" xmlns="http://www.w3.org/2000/svg" xmlns:xlink="http://www.w3.org/1999/xlink" x="0px" y="0px"
	 viewBox="0 0 256 256" style="enable-background:new 0 0 256 256;" xml:space="preserve">
<g>
	<path style="fill:#AEAFB3;" d="M62.1,148.8l-29.7,78.6c-1.1,3.1,2.6,9.5,5.9,9.7l185.4,8.6c4.7,0.2,8.7-3.4,9.1-8.2l7.7-91.7
		c0.3-3.9-2-9.6-5.8-9.6l-163.6,5.9C67,142.2,63.5,144.9,62.1,148.8z"/>
	<path style="fill:#ACAEB2;" d="M61.4,146.6l-28.8,80.1c-1.1,3,1.1,6.3,4.3,6.4l184.8,6.9c4.7,0.2,8.7-3.4,9.2-8.1l8.4-89.6
		c0.4-3.8-2.7-7.1-6.5-7l-162.4,4.7C66.3,140.2,62.7,142.8,61.4,146.6z"/>
	<path style="fill:#AEAFB3;" d="M92.8,139.4l-0.6-1.8l-18.6,0.9c0,0-8-0.3-8.9-8.5c-0.9-8.3-8.6-94.2-8.6-94.2s0.3-9.6,10.2-11.3
		c10-1.6,27.9-3.9,27.9-3.9l1.8-2.8l83.4-9.5l2.3,2.8l38.1-2.5c2.2-0.1,4.5,0.3,6.3,1.6c1.4,1,2.8,2.5,3.3,4.7
		c1.4,5.7,6.5,109.5,6.5,109.5s-1.5,9.2-11.5,8.9l-18,0.2l-1.8,3.4l-14.8,0.3l1.3-2.5l-86.2,2l-1.8,2.3L92.8,139.4z"/>
</g>
</svg>
