<?xml version="1.0" encoding="utf-8"?>
<!-- Generator: Adobe Illustrator 22.1.0, SVG Export Plug-In . SVG Version: 6.00 Build 0)  -->
<svg version="1.1" id="Layer_1" xmlns="http://www.w3.org/2000/svg" xmlns:xlink="http://www.w3.org/1999/xlink" x="0px" y="0px"
	 viewBox="0 0 256 256" style="enable-background:new 0 0 256 256;" xml:space="preserve">
<g>
	<path style="opacity:0.2;" d="M67,149.8l-28,73c-1.1,2.8,0.9,5.7,4,5.7l173.4,4c4.4,0.1,8.3-3.2,8.7-7.4l9-81.4
		c0.4-3.5-2.4-6.4-6-6.2l-152.5,6.3C71.7,143.9,68.3,146.3,67,149.8z"/>
	<path style="opacity:0.2;" d="M66.4,127.5l-7.8-87.1c0,0-1.7-9.4,8.7-10.8c9.8-1.4,134.9-15.9,149.4-17.5c1.8-0.2,3.6-0.1,5.2,0.6
		c2.5,1,5.4,3.3,5.8,8.7c0.7,8.5,3.9,77.7,4.8,96.3c0.3,5.6-3.5,10.6-8.9,11.9c-0.1,0-0.2,0-0.2,0.1c-0.6,0.1-1.2,0.2-1.8,0.2
		l-142.8,5.3c-0.3,0-0.5,0-0.8,0.1C76.2,135.5,67.1,136.1,66.4,127.5z"/>
	<path style="fill:#14489E;" d="M71.4,151.7l-26.8,68.6c-1,2.6,0.9,5.3,3.7,5.4l163.3,4.8c4.2,0.1,7.8-2.9,8.3-6.9l9-76.6
		c0.4-3.3-2.3-6-5.6-5.9l-143.6,5C75.9,146.2,72.7,148.5,71.4,151.7z"/>
	<path style="opacity:0.2;" d="M238.2,138.1c0.8,1.2,1.3,2.7,1.1,4.2l-8.4,89.6c-0.4,4.7-4.5,8.2-9.2,8.1l-184.8-6.9
		c-3-0.1-5-2.9-4.5-5.7c-1.1,3.1,2.6,9.5,5.9,9.7l185.4,8.6c4.7,0.2,8.7-3.4,9.1-8.2l7.7-91.7C240.7,143.3,239.9,140.1,238.2,138.1z
		"/>
</g>
</svg>
