<?xml version="1.0" encoding="utf-8"?>
<!-- Generator: Adobe Illustrator 22.1.0, SVG Export Plug-In . SVG Version: 6.00 Build 0)  -->
<svg version="1.1" id="Layer_1" xmlns="http://www.w3.org/2000/svg" xmlns:xlink="http://www.w3.org/1999/xlink" x="0px" y="0px"
	 viewBox="0 0 256 256" style="enable-background:new 0 0 256 256;" xml:space="preserve">
<g>
	<g>
		<g>
			<path style="fill:#99582B;" d="M185.3,68.5c-0.2-31.1-25.6-56.2-56.8-56c-31.1,0.2-56.2,25.6-56,56.8c0.2,27.4,19.9,50.1,45.8,55
				l0.1,20.9l-1.7,0c-1.9,0-3.4,1.5-3.4,3.4l0.6,91.4c0,1.9,1.5,3.4,3.4,3.4l25-0.2c1.9,0,3.4-1.5,3.4-3.4l-0.6-91.4
				c0-1.9-1.5-3.4-3.4-3.4l-1.4,0l-0.1-20.9C166,118.9,185.4,95.9,185.3,68.5z M140.2,121.5c-3.5,0.8-7.2,1.2-11,1.2
				c-3.8,0-7.4-0.3-11-1C93.7,116.8,75.1,95.2,75,69.2c-0.2-29.8,23.8-54,53.5-54.2c29.8-0.2,54,23.8,54.2,53.5
				C182.9,94.5,164.6,116.3,140.2,121.5z"/>
		</g>
	</g>
</g>
</svg>
