<?xml version="1.0" encoding="utf-8"?>
<!-- Generator: Adobe Illustrator 22.1.0, SVG Export Plug-In . SVG Version: 6.00 Build 0)  -->
<svg version="1.1" id="Layer_1" xmlns="http://www.w3.org/2000/svg" xmlns:xlink="http://www.w3.org/1999/xlink" x="0px" y="0px"
	 viewBox="0 0 256 256" style="enable-background:new 0 0 256 256;" xml:space="preserve">
<g>
	<path style="fill:#C6C6C6;" d="M182.7,68.5c0.2,26-18.1,47.8-42.6,53c-3.5,0.8-7.2,1.2-11,1.2c-3.8,0-7.4-0.3-11-1
		C93.7,116.8,75.1,95.2,75,69.2c-0.2-29.8,23.8-54,53.5-54.2C158.3,14.8,182.5,38.8,182.7,68.5z"/>
	<path style="opacity:0.5;" d="M88.2,73.8c0.4,11.9,4.7,22.8,11.7,31.4c-11.6-8-19.2-21.3-19.3-36.4C80.5,46.5,96.7,27.9,118,24.4
		C99.8,33.3,87.5,52.2,88.2,73.8z"/>
</g>
</svg>
