<?xml version="1.0" encoding="utf-8"?>
<!-- Generator: Adobe Illustrator 22.1.0, SVG Export Plug-In . SVG Version: 6.00 Build 0)  -->
<svg version="1.1" id="Layer_1" xmlns="http://www.w3.org/2000/svg" xmlns:xlink="http://www.w3.org/1999/xlink" x="0px" y="0px"
	 viewBox="0 0 256 256" style="enable-background:new 0 0 256 256;" xml:space="preserve">
<g>
	<path style="opacity:0.2;" d="M119.6,165.1c-0.6,0.6-1.4,1-2.3,1c-1.8,0-3.3-1.5-3.3-3.3l0-112.2c0-1.8,1.5-3.3,3.3-3.3
		c1.8,0,3.3,1.5,3.3,3.3v112.2C120.5,163.6,120.2,164.5,119.6,165.1"/>
	<path style="opacity:0.2;" d="M142.7,165.1c-0.6,0.6-1.4,1-2.3,1c-1.8,0-3.3-1.5-3.3-3.3l0-112.2c0-1.8,1.5-3.3,3.3-3.3
		c1.8,0,3.3,1.5,3.3,3.3l0,112.2C143.6,163.6,143.3,164.5,142.7,165.1"/>
	<g>
		<path d="M153.5,24.1l-49.5,0l0-13.1c0-0.1,0.1-0.1,0.1-0.1l49.4,0V24.1z"/>
		<path d="M140.3,232v-2.3c0-11.2,4.5-22,12.4-29.9l4.1-4.1l-56.1,0l4.6,3.8c9.6,8,15.2,19.9,15.2,32.5l0,0H140.3z"/>
	</g>
</g>
</svg>
