<?xml version="1.0" encoding="utf-8"?>
<!-- Generator: Adobe Illustrator 22.1.0, SVG Export Plug-In . SVG Version: 6.00 Build 0)  -->
<svg version="1.1" id="Layer_1" xmlns="http://www.w3.org/2000/svg" xmlns:xlink="http://www.w3.org/1999/xlink" x="0px" y="0px"
	 viewBox="0 0 256 256" style="enable-background:new 0 0 256 256;" xml:space="preserve">
<g>
	<g>
		
			<ellipse transform="matrix(0.451 -0.8925 0.8925 0.451 -6.3072 228.9792)" style="fill:#292929;" cx="183" cy="119.6" rx="47.9" ry="28.6"/>
		<path style="fill:#292929;" d="M235.6,54.4c0,0-4.1-16.9-20.8-13.2l-62.4,35.1c0,0-25.3,11.7-25.3,39.8c0,21.9,0,95.8,0,95.8
			l83.3-45.9c0,0,15-10.4,25.2-39.4C236.7,123.3,235.6,54.4,235.6,54.4z M230.7,126.5c-9.2,26.3-22.9,35.8-22.9,35.8L132,204.1
			c0,0,0-67.3,0-87.1c0-25.5,23.1-36.2,23.1-36.2l56.8-31.9c15.2-3.4,18.9,12,18.9,12S231.7,123.6,230.7,126.5z"/>
	</g>
	<polygon style="fill:#292929;" points="103,107.9 113.7,114 113.7,175.8 103,169.6 	"/>
	<path style="fill:#4BB7D1;" d="M117,135.4l-15.9-9.2c0,0-7.5,0.4-8.4,7.2v27.6l17,10.3L117,135.4z"/>
	<path style="fill:#3AA2BF;" d="M117,167.9v-32.8c0,0-6.8,2.6-8.1,6.8v27.6C108.9,169.6,110.2,177,117,167.9z"/>
	<path style="fill:#403310;" d="M86.6,167.3c1.1,0,39.5,23,39.5,23l-0.1,14.9l-39.4-22.4V167.3z"/>
	<polygon style="fill:#FFFF09;" points="92.2,176.4 25.4,215.4 55.5,237.8 123.1,194.3 	"/>
	<polygon style="fill:#232528;" points="36.1,212.6 39.3,210.1 46.3,215.1 43,217.3 	"/>
	<polygon style="fill:#232528;" points="45.8,207.1 49.1,204.6 56.1,209.5 52.7,211.8 	"/>
	<polygon style="fill:#232528;" points="55.8,201.1 59,198.6 66,203.5 62.6,205.8 	"/>
	<polygon style="fill:#232528;" points="66,195.2 69.2,192.7 76.2,197.7 72.9,199.9 	"/>
	<polygon style="fill:#232528;" points="85,184.4 88.3,181.8 95.2,186.8 91.9,189 	"/>
	<polygon style="fill:#232528;" points="74.8,189.4 78,186.9 92.6,196.3 89.3,198.5 	"/>
	<path style="fill:#DBDBDB;" d="M60.1,244.8l-42.6-22.7v-9c0,0,1.3-6.2,23.1,4.8c21.8,11,19.5,19.2,19.5,19.2V244.8z"/>
	
		<ellipse transform="matrix(0.451 -0.8925 0.8925 0.451 -6.3071 228.9794)" style="fill:#292929;" cx="183" cy="119.6" rx="47.9" ry="28.6"/>
</g>
</svg>
