<?xml version="1.0" encoding="utf-8"?>
<!-- Generator: Adobe Illustrator 22.1.0, SVG Export Plug-In . SVG Version: 6.00 Build 0)  -->
<svg version="1.1" id="Layer_1" xmlns="http://www.w3.org/2000/svg" xmlns:xlink="http://www.w3.org/1999/xlink" x="0px" y="0px"
	 viewBox="0 0 256 256" style="enable-background:new 0 0 256 256;" xml:space="preserve">
<g>
	<path style="fill:#FECA40;" d="M230.7,60.9c0,0-3.7-15.4-18.9-12L155,80.8c0,0-23.1,10.6-23.1,36.2c0,19.9,0,87.1,0,87.1l75.8-41.8
		c0,0,13.7-9.5,22.9-35.8C231.7,123.6,230.7,60.9,230.7,60.9z M208.5,132.5c-11.9,23.6-33,37-47.1,29.9c-14.1-7.1-15.8-32-3.9-55.6
		c11.9-23.6,33-37,47.1-29.9C218.7,84,220.4,108.9,208.5,132.5z"/>
	<path style="fill:#FFD451;" d="M227.8,42.5l-46.4-26c-4.3-2.4-9.5-2.3-13.7,0.2L109.9,51c-15.5,9.2-25.1,26-25.1,44v98.2l42.2,18.6
		l2.3-93.3c0.6-19.5,12.3-37,30.1-45.1L227.8,42.5z"/>
</g>
</svg>
