<?xml version="1.0" encoding="utf-8"?>
<!-- Generator: Adobe Illustrator 22.1.0, SVG Export Plug-In . SVG Version: 6.00 Build 0)  -->
<svg version="1.1" id="Layer_1" xmlns="http://www.w3.org/2000/svg" xmlns:xlink="http://www.w3.org/1999/xlink" x="0px" y="0px"
	 viewBox="0 0 256 256" style="enable-background:new 0 0 256 256;" xml:space="preserve">
<g>
	<polygon style="opacity:0.5;" points="73.4,244 73.4,41.9 49,34.5 49,236.6 	"/>
	<polygon style="opacity:0.5;" points="73.4,41.9 207,19.4 182.6,12 49,34.5 	"/>
	<polygon style="opacity:0.5;" points="207,19.4 158,229.3 207,221.5 	"/>
	<polygon style="fill:#F9F8E5;" points="182.5,13.4 51.3,35.7 51.2,237.3 72.1,243.6 72.1,41.5 202.3,19.3 	"/>
	<path style="fill:#D8D5AB;" d="M183.7,15.2l-120.1,21C63.6,36.1,168.5,18.6,183.7,15.2z"/>
	<path style="fill:#D8D5AB;" d="M186.9,17.8L66.6,38.6C66.6,38.6,171.8,21.2,186.9,17.8z"/>
	<path style="fill:#D8D5AB;" d="M58.9,42l0.8,194.5C59.6,236.5,60.2,66.5,58.9,42z"/>
	<path style="fill:#D8D5AB;" d="M54.9,42l0.8,194.5C55.7,236.5,56.2,66.5,54.9,42z"/>
	<path style="fill:#D8D5AB;" d="M63.1,43l0.8,194.5C63.9,237.6,64.4,67.5,63.1,43z"/>
	<path style="fill:#D8D5AB;" d="M67.2,43l0.8,194.5C67.9,237.6,68.5,67.5,67.2,43z"/>
	<path style="fill:#D8D5AB;" d="M191.4,19.4L71.3,40.2C71.3,40.2,176.3,22.8,191.4,19.4z"/>
	<g>
		<path style="fill:#D8D5AB;" d="M72.1,41.5l-20.7-5.8C51.3,35.7,62.4,39.6,72.1,41.5z"/>
	</g>
</g>
</svg>
