<?xml version="1.0" encoding="utf-8"?>
<!-- Generator: Adobe Illustrator 22.1.0, SVG Export Plug-In . SVG Version: 6.00 Build 0)  -->
<svg version="1.1" id="Layer_1" xmlns="http://www.w3.org/2000/svg" xmlns:xlink="http://www.w3.org/1999/xlink" x="0px" y="0px"
	 viewBox="0 0 256 256" style="enable-background:new 0 0 256 256;" xml:space="preserve">
<g>
	<path style="fill:#EAAA42;" d="M77,98.4h9.2V49.9h-7.5c-1.1,2.9-3,5.5-5.8,7.7s-5.4,3.7-7.9,4.5v8.4c4.6-1.5,8.6-3.8,11.9-7V98.4z"
		/>
	<path style="fill:#EAAA42;" d="M119.1,77.6c-5.2,4.8-8.6,8.7-10.4,11.6c-1.8,2.9-2.8,6-3.2,9.2H138v-8.6h-18.4
		c0.5-0.8,1.1-1.7,1.9-2.6c0.8-0.9,2.6-2.7,5.5-5.3c2.9-2.7,4.9-4.7,6.1-6.2c1.7-2.1,2.9-4.2,3.7-6.2s1.2-4,1.2-6.2
		c0-3.8-1.4-7-4.1-9.6c-2.7-2.6-6.5-3.8-11.2-3.8c-4.3,0-8,1.1-10.9,3.3c-2.9,2.2-4.6,5.9-5.2,11l9.2,0.9c0.2-2.7,0.8-4.6,2-5.8
		c1.1-1.2,2.7-1.7,4.6-1.7c2,0,3.5,0.6,4.6,1.7c1.1,1.1,1.7,2.7,1.7,4.8c0,1.9-0.6,3.8-1.9,5.7C125.8,71.1,123.3,73.7,119.1,77.6z"
		/>
	<path style="fill:#EAAA42;" d="M173.3,91.5c-1.8,0-3.3-0.6-4.5-1.8c-1.3-1.2-2-2.9-2.3-5.2l-8.9,1.1c0.5,4.1,2.1,7.3,5,9.9
		c2.9,2.5,6.5,3.8,10.9,3.8c4.6,0,8.5-1.5,11.5-4.5c3.1-3,4.6-6.6,4.6-10.8c0-2.9-0.8-5.4-2.5-7.5c-1.7-2.1-3.9-3.4-6.6-4
		c4.6-2.5,6.9-5.9,6.9-10.1c0-3-1.1-5.7-3.4-8c-2.7-2.9-6.4-4.3-10.9-4.3c-2.7,0-5,0.5-7.2,1.5c-2.1,1-3.8,2.4-5,4.1
		c-1.2,1.7-2.1,4.1-2.7,7l8.5,1.4c0.2-2.1,0.9-3.7,2-4.8c1.1-1.1,2.5-1.6,4-1.6c1.6,0,2.9,0.5,3.8,1.4c1,1,1.4,2.3,1.4,3.9
		c0,1.9-0.7,3.4-2,4.6c-1.3,1.2-3.2,1.7-5.7,1.6l-1,7.5c1.6-0.5,3.1-0.7,4.2-0.7c1.8,0,3.3,0.7,4.6,2c1.3,1.4,1.9,3.2,1.9,5.5
		c0,2.5-0.7,4.4-2,5.9S175.2,91.5,173.3,91.5z"/>
	<path style="fill:#EAAA42;" d="M236,49.9h-7.8l-20.9,30.6v8.1H227v9.7h8.9v-9.7h6v-8.1h-6V49.9z M227,80.5H216L227,64.1V80.5z"/>
	<path style="fill:#EAAA42;" d="M37.6,142c-2.1,0-4.3,0.5-6.3,1.5l1.4-8.2h17.4v-8.7H25.8L21,151.8l7.5,1.1c2.1-2.3,4.5-3.5,7.1-3.5
		c2.1,0,3.9,0.7,5.2,2.2c1.3,1.5,2,3.7,2,6.7c0,3.2-0.7,5.5-2,7.1c-1.3,1.6-3,2.4-4.9,2.4c-1.7,0-3.2-0.6-4.5-1.8
		c-1.3-1.2-2.1-2.9-2.3-5l-9.2,1c0.5,4,2.2,7.2,5,9.6c2.8,2.4,6.4,3.6,10.9,3.6c5.6,0,9.9-2.1,13.1-6.4c2.3-3.1,3.5-6.7,3.5-10.6
		c0-4.8-1.4-8.6-4.3-11.6C45.2,143.5,41.7,142,37.6,142z"/>
	<path style="fill:#EAAA42;" d="M82.1,143c-3.4,0-6.3,1.4-8.6,4.1c0.4-5.5,1.2-9.2,2.5-11c1.3-1.8,3-2.6,5-2.6
		c1.5,0,2.7,0.4,3.6,1.3c0.9,0.9,1.5,2.2,1.7,4.1l8.9-1c-0.7-3.9-2.2-6.9-4.6-8.9c-2.4-2.1-5.4-3.1-9.1-3.1c-5.2,0-9.5,2-12.7,5.9
		c-3.3,3.9-4.9,10.3-4.9,19.1c0,8.6,1.6,14.8,4.7,18.6c3.1,3.8,7.1,5.7,12,5.7c4.5,0,8.3-1.5,11.2-4.5c2.9-3,4.3-6.9,4.3-11.9
		c0-4.6-1.4-8.4-4.1-11.4C89.3,144.5,86,143,82.1,143z M85.4,165.4c-1.1,1.3-2.6,2-4.3,2c-1.8,0-3.4-0.8-4.7-2.5s-2.1-4-2.1-7
		c0-2.7,0.6-4.8,1.8-6.2s2.7-2.1,4.5-2.1c1.8,0,3.4,0.7,4.6,2.2c1.2,1.5,1.8,3.8,1.8,6.9C87.1,161.9,86.5,164.1,85.4,165.4z"/>
	<path style="fill:#EAAA42;" d="M108.1,135.3h21c-4.3,5.5-7.8,11.7-10.4,18.6c-2.6,6.9-4,13.7-4.1,20.4h8.9c0-4.3,0.7-9.1,2.1-14.5
		c1.4-5.4,3.5-10.5,6.2-15.3c2.7-4.8,5.4-8.5,8-11.1v-6.7h-31.6V135.3z"/>
	<path style="fill:#EAAA42;" d="M182.6,148.3c2.1-0.9,3.7-2.3,4.9-4c1.2-1.7,1.7-3.7,1.7-6c0-3.6-1.3-6.6-3.8-8.9
		c-2.5-2.3-6.1-3.5-10.7-3.5c-4.6,0-8.2,1.2-10.7,3.5c-2.5,2.3-3.8,5.3-3.8,8.9c0,2.1,0.5,4,1.6,5.8c1.1,1.8,2.8,3.2,5.2,4.2
		c-2.8,1.2-4.8,2.9-6.1,5c-1.3,2.2-1.9,4.6-1.9,7.2c0,4.7,1.7,8.5,5.2,11.2c2.9,2.3,6.6,3.5,11,3.5c4.7,0,8.5-1.4,11.3-4.2
		c2.8-2.8,4.3-6.4,4.3-10.9c0-2.7-0.7-5.1-2.1-7.1C187.3,150.9,185.3,149.4,182.6,148.3z M170.6,134.8c1.1-1.1,2.5-1.6,4.2-1.6
		c1.7,0,3.1,0.5,4.1,1.6c1,1,1.6,2.4,1.6,4.2c0,1.8-0.5,3.3-1.6,4.3c-1.1,1-2.5,1.6-4.2,1.6c-1.7,0-3.1-0.5-4.2-1.5
		c-1-1-1.6-2.5-1.6-4.3C169.1,137.2,169.6,135.8,170.6,134.8z M179.8,165.7c-1.3,1.4-2.8,2.1-4.7,2.1c-2,0-3.6-0.7-4.9-2.1
		c-1.3-1.4-2-3.4-2-6c0-1.8,0.6-3.5,1.7-5.1c1.1-1.6,2.8-2.3,5-2.3c2,0,3.6,0.7,4.8,2.1c1.3,1.4,1.9,3.2,1.9,5.4
		C181.7,162.3,181,164.3,179.8,165.7z"/>
	<path style="fill:#EAAA42;" d="M225,125.9c-4.5,0-8.2,1.5-11.1,4.5c-2.9,3-4.4,6.9-4.4,11.8c0,4.7,1.4,8.5,4.1,11.4s6,4.4,9.8,4.4
		c3.5,0,6.4-1.3,8.7-4c-0.4,5.5-1.2,9.2-2.6,10.9c-1.3,1.8-3,2.6-4.9,2.6c-1.5,0-2.7-0.4-3.7-1.3c-0.9-0.9-1.5-2.2-1.7-4l-8.9,1
		c0.7,4,2.1,7,4.5,9c2.3,2,5.4,3,9.1,3c5.2,0,9.5-2,12.8-5.9s4.9-10.3,4.9-19.1c0-8.7-1.6-14.9-4.7-18.7
		C233.9,127.8,229.9,125.9,225,125.9z M229.6,149.1c-1.2,1.4-2.7,2.1-4.5,2.1c-1.8,0-3.4-0.7-4.6-2.2c-1.2-1.5-1.8-3.7-1.8-6.9
		c0-3.1,0.6-5.3,1.7-6.6c1.1-1.3,2.5-2,4.3-2c1.8,0,3.4,0.8,4.8,2.5c1.4,1.6,2.1,4,2.1,6.9C231.4,145.7,230.8,147.7,229.6,149.1z"/>
	<path style="fill:#EAAA42;" d="M34,99.2c4.7,0,8.3-1.6,10.9-4.9c3.2-4,4.7-10.5,4.7-19.7c0-9.1-1.6-15.7-4.7-19.6
		c-2.6-3.3-6.3-5-11-5s-8.3,1.6-10.9,4.9c-3.2,4-4.7,10.5-4.7,19.6c0,9.3,1.4,15.7,4.3,19.3C25.5,97.4,29.3,99.2,34,99.2z M29,62.5
		c0.5-1.8,1.2-3.1,2-3.8c0.9-0.7,1.9-1.1,3-1.1c1.1,0,2.1,0.4,3,1.1c0.9,0.7,1.6,2.1,2.2,4.2c0.6,2.1,0.9,6,0.9,11.7s-0.3,9.7-1,12
		c-0.5,1.8-1.2,3.1-2,3.8c-0.9,0.7-1.9,1.1-3,1.1c-1.1,0-2.1-0.4-3-1.1c-0.9-0.7-1.6-2.1-2.2-4.2c-0.6-2.1-0.9-6-0.9-11.7
		S28.4,64.9,29,62.5z"/>
</g>
</svg>
