<?xml version="1.0" encoding="utf-8"?>
<!-- Generator: Adobe Illustrator 22.1.0, SVG Export Plug-In . SVG Version: 6.00 Build 0)  -->
<svg version="1.1" id="Layer_1" xmlns="http://www.w3.org/2000/svg" xmlns:xlink="http://www.w3.org/1999/xlink" x="0px" y="0px"
	 viewBox="0 0 256 256" style="enable-background:new 0 0 256 256;" xml:space="preserve">
<g>
	<g>
		<path style="fill:#83C963;" d="M224.6,133.5c-1.7,0-3.1,0.7-4.3,2c-1.1,1.3-1.7,3.6-1.7,6.6c0,3.1,0.6,5.4,1.8,6.9
			c1.2,1.5,2.8,2.2,4.6,2.2c1.8,0,3.3-0.7,4.5-2.1c1.2-1.4,1.8-3.5,1.8-6.2c0-3-0.7-5.3-2.1-6.9C228,134.4,226.4,133.5,224.6,133.5z
			"/>
		<path style="fill:#83C963;" d="M80.7,149.8c-1.8,0-3.3,0.7-4.5,2.1s-1.8,3.4-1.8,6.2c0,3,0.7,5.3,2.1,7s3,2.5,4.7,2.5
			c1.7,0,3.1-0.7,4.3-2c1.1-1.3,1.7-3.5,1.7-6.6c0-3.1-0.6-5.4-1.8-6.9C84,150.5,82.5,149.8,80.7,149.8z"/>
		<path style="fill:#83C963;" d="M174.9,152.2c-2.3,0-3.9,0.8-5,2.3c-1.1,1.6-1.7,3.2-1.7,5.1c0,2.5,0.7,4.5,2,6
			c1.3,1.4,2.9,2.1,4.9,2.1c1.9,0,3.5-0.7,4.7-2.1c1.3-1.4,1.9-3.3,1.9-5.9c0-2.3-0.6-4.1-1.9-5.4
			C178.5,152.9,176.9,152.2,174.9,152.2z"/>
		<path style="fill:#83C963;" d="M31,90.5c0.9,0.7,1.9,1.1,3,1.1c1.1,0,2.1-0.4,3-1.1c0.9-0.7,1.6-2,2-3.8c0.6-2.4,1-6.4,1-12
			s-0.3-9.5-0.9-11.7c-0.6-2.1-1.3-3.5-2.2-4.2c-0.9-0.7-1.9-1.1-3-1.1c-1.1,0-2.1,0.4-3,1.1c-0.9,0.7-1.6,2-2,3.8
			c-0.6,2.4-1,6.4-1,12.1s0.3,9.5,0.9,11.7C29.5,88.4,30.2,89.8,31,90.5z"/>
		<path style="fill:#83C963;" d="M174.8,144.8c1.8,0,3.2-0.5,4.2-1.6c1.1-1,1.6-2.5,1.6-4.3c0-1.7-0.5-3.1-1.6-4.2
			c-1-1-2.4-1.6-4.1-1.6c-1.8,0-3.2,0.5-4.2,1.6s-1.6,2.4-1.6,4.2c0,1.8,0.5,3.3,1.6,4.3C171.7,144.3,173,144.8,174.8,144.8z"/>
		<path style="fill:#83C963;" d="M6,25V207h246V25H6z M65,62.1c2.4-0.8,5-2.3,7.9-4.5s4.8-4.8,5.8-7.7h7.5v48.4H77V63.5
			c-3.4,3.2-7.4,5.5-11.9,7V62.1z M23.1,54.9c2.6-3.3,6.3-4.9,10.9-4.9s8.3,1.7,11,5c3.1,3.9,4.7,10.5,4.7,19.6
			c0,9.1-1.6,15.7-4.7,19.7c-2.6,3.3-6.3,4.9-10.9,4.9c-4.7,0-8.5-1.8-11.3-5.4c-2.9-3.6-4.3-10-4.3-19.3
			C18.4,65.4,19.9,58.9,23.1,54.9z M48.9,168.7c-3.1,4.3-7.5,6.4-13.1,6.4c-4.5,0-8.1-1.2-10.9-3.6c-2.8-2.4-4.5-5.6-5-9.6l9.2-1
			c0.3,2.1,1,3.7,2.3,5c1.3,1.2,2.8,1.8,4.5,1.8c1.9,0,3.6-0.8,4.9-2.4c1.3-1.6,2-3.9,2-7.1c0-3-0.7-5.2-2-6.7
			c-1.3-1.5-3.1-2.2-5.2-2.2c-2.7,0-5,1.2-7.1,3.5l-7.5-1.1l4.7-25.1h24.4v8.7H32.8l-1.4,8.2c2.1-1,4.2-1.5,6.3-1.5
			c4.1,0,7.6,1.5,10.4,4.5c2.9,3,4.3,6.9,4.3,11.6C52.3,162.1,51.2,165.6,48.9,168.7z M91.8,170.6c-2.9,3-6.6,4.5-11.2,4.5
			c-4.9,0-8.9-1.9-12-5.7c-3.1-3.8-4.7-10-4.7-18.6c0-8.8,1.6-15.2,4.9-19.1c3.3-3.9,7.5-5.9,12.7-5.9c3.7,0,6.7,1,9.1,3.1
			c2.4,2.1,3.9,5,4.6,8.9l-8.9,1c-0.2-1.8-0.8-3.2-1.7-4.1c-0.9-0.9-2.1-1.3-3.6-1.3c-2,0-3.6,0.9-5,2.6c-1.3,1.8-2.2,5.4-2.5,11
			c2.3-2.7,5.2-4.1,8.6-4.1c3.9,0,7.2,1.5,9.9,4.4c2.8,2.9,4.1,6.7,4.1,11.4C96.2,163.7,94.7,167.7,91.8,170.6z M127,59.3
			c-1.1-1.1-2.6-1.7-4.6-1.7c-1.9,0-3.5,0.6-4.6,1.7c-1.1,1.2-1.8,3.1-2,5.8l-9.2-0.9c0.5-5.1,2.3-8.7,5.2-11
			c2.9-2.2,6.5-3.3,10.9-3.3c4.8,0,8.5,1.3,11.2,3.8c2.7,2.6,4.1,5.8,4.1,9.6c0,2.2-0.4,4.2-1.2,6.2s-2,4-3.7,6.2
			c-1.1,1.4-3.1,3.5-6.1,6.2c-2.9,2.7-4.8,4.5-5.5,5.3c-0.8,0.9-1.4,1.7-1.9,2.6H138v8.6h-32.4c0.4-3.2,1.4-6.3,3.2-9.2
			c1.8-2.9,5.2-6.8,10.4-11.6c4.2-3.9,6.7-6.5,7.7-7.9c1.3-1.9,1.9-3.8,1.9-5.7C128.7,62,128.1,60.4,127,59.3z M139.7,133.4
			c-2.6,2.6-5.3,6.3-8,11.1c-2.7,4.8-4.8,9.9-6.2,15.3c-1.4,5.4-2.1,10.2-2.1,14.5h-8.9c0.2-6.7,1.5-13.5,4.1-20.4
			c2.6-6.9,6.1-13.1,10.4-18.6h-21v-8.6h31.6V133.4z M178.2,78c-1.3-1.4-2.8-2-4.6-2c-1.2,0-2.6,0.2-4.2,0.7l1-7.5
			c2.5,0.1,4.4-0.5,5.7-1.6c1.3-1.2,2-2.7,2-4.6c0-1.6-0.5-2.9-1.4-3.9c-1-1-2.2-1.4-3.8-1.4c-1.6,0-2.9,0.5-4,1.6
			c-1.1,1.1-1.8,2.7-2,4.8l-8.5-1.4c0.6-2.9,1.5-5.2,2.7-7c1.2-1.7,2.9-3.1,5-4.1c2.1-1,4.5-1.5,7.2-1.5c4.5,0,8.2,1.4,10.9,4.3
			c2.3,2.4,3.4,5,3.4,8c0,4.2-2.3,7.6-6.9,10.1c2.8,0.6,5,1.9,6.6,4c1.7,2.1,2.5,4.6,2.5,7.5c0,4.2-1.5,7.8-4.6,10.8
			c-3.1,3-6.9,4.5-11.5,4.5c-4.4,0-8-1.3-10.9-3.8c-2.9-2.5-4.5-5.8-5-9.9l8.9-1.1c0.3,2.3,1.1,4,2.3,5.2c1.3,1.2,2.8,1.8,4.5,1.8
			c1.9,0,3.5-0.7,4.8-2.2s2-3.4,2-5.9C180.1,81.2,179.5,79.3,178.2,78z M186.5,171c-2.8,2.8-6.6,4.2-11.3,4.2c-4.4,0-8-1.2-11-3.5
			c-3.4-2.7-5.2-6.4-5.2-11.2c0-2.6,0.6-5,1.9-7.2c1.3-2.2,3.3-3.9,6.1-5c-2.4-1-4.1-2.4-5.2-4.2c-1.1-1.8-1.6-3.7-1.6-5.8
			c0-3.6,1.3-6.6,3.8-8.9c2.5-2.3,6.1-3.5,10.7-3.5c4.6,0,8.1,1.2,10.7,3.5c2.5,2.3,3.8,5.3,3.8,8.9c0,2.2-0.6,4.2-1.7,6
			c-1.2,1.7-2.8,3.1-4.9,4c2.7,1.1,4.7,2.6,6.1,4.7c1.4,2.1,2.1,4.4,2.1,7.1C190.8,164.6,189.4,168.2,186.5,171z M236.9,169.3
			c-3.3,3.9-7.5,5.9-12.8,5.9c-3.8,0-6.8-1-9.1-3c-2.3-2-3.8-5-4.5-9l8.9-1c0.2,1.8,0.8,3.2,1.7,4c0.9,0.9,2.1,1.3,3.7,1.3
			c1.9,0,3.5-0.9,4.9-2.6c1.3-1.8,2.2-5.4,2.6-10.9c-2.3,2.7-5.2,4-8.7,4c-3.8,0-7.1-1.5-9.8-4.4s-4.1-6.7-4.1-11.4
			c0-4.9,1.5-8.8,4.4-11.8c2.9-3,6.6-4.5,11.1-4.5c4.9,0,8.9,1.9,12,5.7c3.1,3.8,4.7,10,4.7,18.7C241.8,159,240.1,165.4,236.9,169.3
			z M242,88.7h-6v9.7H227v-9.7h-19.7v-8.1l20.9-30.6h7.8v30.6h6V88.7z"/>
		<polygon style="fill:#83C963;" points="227,80.5 227,64.1 216,80.5 		"/>
	</g>
	<g>
		<path style="fill:#FFFFFF;" d="M174.8,144.8c1.8,0,3.2-0.5,4.2-1.6c1.1-1,1.6-2.5,1.6-4.3c0-1.7-0.5-3.1-1.6-4.2
			c-1-1-2.4-1.6-4.1-1.6c-1.8,0-3.2,0.5-4.2,1.6s-1.6,2.4-1.6,4.2c0,1.8,0.5,3.3,1.6,4.3C171.7,144.3,173,144.8,174.8,144.8z"/>
		<path style="fill:#FFFFFF;" d="M224.6,133.5c-1.7,0-3.1,0.7-4.3,2c-1.1,1.3-1.7,3.6-1.7,6.6c0,3.1,0.6,5.4,1.8,6.9
			c1.2,1.5,2.8,2.2,4.6,2.2c1.8,0,3.3-0.7,4.5-2.1c1.2-1.4,1.8-3.5,1.8-6.2c0-3-0.7-5.3-2.1-6.9C228,134.4,226.4,133.5,224.6,133.5z
			"/>
		<path style="fill:#FFFFFF;" d="M174.9,152.2c-2.3,0-3.9,0.8-5,2.3c-1.1,1.6-1.7,3.2-1.7,5.1c0,2.5,0.7,4.5,2,6
			c1.3,1.4,2.9,2.1,4.9,2.1c1.9,0,3.5-0.7,4.7-2.1c1.3-1.4,1.9-3.3,1.9-5.9c0-2.3-0.6-4.1-1.9-5.4
			C178.5,152.9,176.9,152.2,174.9,152.2z"/>
		<path style="fill:#FFFFFF;" d="M31,90.5c0.9,0.7,1.9,1.1,3,1.1c1.1,0,2.1-0.4,3-1.1c0.9-0.7,1.6-2,2-3.8c0.6-2.4,1-6.4,1-12
			s-0.3-9.5-0.9-11.7c-0.6-2.1-1.3-3.5-2.2-4.2c-0.9-0.7-1.9-1.1-3-1.1c-1.1,0-2.1,0.4-3,1.1c-0.9,0.7-1.6,2-2,3.8
			c-0.6,2.4-1,6.4-1,12.1s0.3,9.5,0.9,11.7C29.5,88.4,30.2,89.8,31,90.5z"/>
		<path style="fill:#FFFFFF;" d="M80.7,149.8c-1.8,0-3.3,0.7-4.5,2.1s-1.8,3.4-1.8,6.2c0,3,0.7,5.3,2.1,7s3,2.5,4.7,2.5
			c1.7,0,3.1-0.7,4.3-2c1.1-1.3,1.7-3.5,1.7-6.6c0-3.1-0.6-5.4-1.8-6.9C84,150.5,82.5,149.8,80.7,149.8z"/>
		<polygon style="fill:#FFFFFF;" points="227,80.5 227,64.1 216,80.5 		"/>
		<path style="fill:#FFFFFF;" d="M10,30v172h238V30H10z M65,62.1c2.4-0.8,5-2.3,7.9-4.5s4.8-4.8,5.8-7.7h7.5v48.4H77V63.5
			c-3.4,3.2-7.4,5.5-11.9,7V62.1z M23.1,54.9c2.6-3.3,6.3-4.9,10.9-4.9s8.3,1.7,11,5c3.1,3.9,4.7,10.5,4.7,19.6
			c0,9.1-1.6,15.7-4.7,19.7c-2.6,3.3-6.3,4.9-10.9,4.9c-4.7,0-8.5-1.8-11.3-5.4c-2.9-3.6-4.3-10-4.3-19.3
			C18.4,65.4,19.9,58.9,23.1,54.9z M48.9,168.7c-3.1,4.3-7.5,6.4-13.1,6.4c-4.5,0-8.1-1.2-10.9-3.6c-2.8-2.4-4.5-5.6-5-9.6l9.2-1
			c0.3,2.1,1,3.7,2.3,5c1.3,1.2,2.8,1.8,4.5,1.8c1.9,0,3.6-0.8,4.9-2.4c1.3-1.6,2-3.9,2-7.1c0-3-0.7-5.2-2-6.7
			c-1.3-1.5-3.1-2.2-5.2-2.2c-2.7,0-5,1.2-7.1,3.5l-7.5-1.1l4.7-25.1h24.4v8.7H32.8l-1.4,8.2c2.1-1,4.2-1.5,6.3-1.5
			c4.1,0,7.6,1.5,10.4,4.5c2.9,3,4.3,6.9,4.3,11.6C52.3,162.1,51.2,165.6,48.9,168.7z M91.8,170.6c-2.9,3-6.6,4.5-11.2,4.5
			c-4.9,0-8.9-1.9-12-5.7c-3.1-3.8-4.7-10-4.7-18.6c0-8.8,1.6-15.2,4.9-19.1c3.3-3.9,7.5-5.9,12.7-5.9c3.7,0,6.7,1,9.1,3.1
			c2.4,2.1,3.9,5,4.6,8.9l-8.9,1c-0.2-1.8-0.8-3.2-1.7-4.1c-0.9-0.9-2.1-1.3-3.6-1.3c-2,0-3.6,0.9-5,2.6c-1.3,1.8-2.2,5.4-2.5,11
			c2.3-2.7,5.2-4.1,8.6-4.1c3.9,0,7.2,1.5,9.9,4.4c2.8,2.9,4.1,6.7,4.1,11.4C96.2,163.7,94.7,167.7,91.8,170.6z M127,59.3
			c-1.1-1.1-2.6-1.7-4.6-1.7c-1.9,0-3.5,0.6-4.6,1.7c-1.1,1.2-1.8,3.1-2,5.8l-9.2-0.9c0.5-5.1,2.3-8.7,5.2-11
			c2.9-2.2,6.5-3.3,10.9-3.3c4.8,0,8.5,1.3,11.2,3.8c2.7,2.6,4.1,5.8,4.1,9.6c0,2.2-0.4,4.2-1.2,6.2s-2,4-3.7,6.2
			c-1.1,1.4-3.1,3.5-6.1,6.2c-2.9,2.7-4.8,4.5-5.5,5.3c-0.8,0.9-1.4,1.7-1.9,2.6H138v8.6h-32.4c0.4-3.2,1.4-6.3,3.2-9.2
			c1.8-2.9,5.2-6.8,10.4-11.6c4.2-3.9,6.7-6.5,7.7-7.9c1.3-1.9,1.9-3.8,1.9-5.7C128.7,62,128.1,60.4,127,59.3z M139.7,133.4
			c-2.6,2.6-5.3,6.3-8,11.1c-2.7,4.8-4.8,9.9-6.2,15.3c-1.4,5.4-2.1,10.2-2.1,14.5h-8.9c0.2-6.7,1.5-13.5,4.1-20.4
			c2.6-6.9,6.1-13.1,10.4-18.6h-21v-8.6h31.6V133.4z M178.2,78c-1.3-1.4-2.8-2-4.6-2c-1.2,0-2.6,0.2-4.2,0.7l1-7.5
			c2.5,0.1,4.4-0.5,5.7-1.6c1.3-1.2,2-2.7,2-4.6c0-1.6-0.5-2.9-1.4-3.9c-1-1-2.2-1.4-3.8-1.4c-1.6,0-2.9,0.5-4,1.6
			c-1.1,1.1-1.8,2.7-2,4.8l-8.5-1.4c0.6-2.9,1.5-5.2,2.7-7c1.2-1.7,2.9-3.1,5-4.1c2.1-1,4.5-1.5,7.2-1.5c4.5,0,8.2,1.4,10.9,4.3
			c2.3,2.4,3.4,5,3.4,8c0,4.2-2.3,7.6-6.9,10.1c2.8,0.6,5,1.9,6.6,4c1.7,2.1,2.5,4.6,2.5,7.5c0,4.2-1.5,7.8-4.6,10.8
			c-3.1,3-6.9,4.5-11.5,4.5c-4.4,0-8-1.3-10.9-3.8c-2.9-2.5-4.5-5.8-5-9.9l8.9-1.1c0.3,2.3,1.1,4,2.3,5.2c1.3,1.2,2.8,1.8,4.5,1.8
			c1.9,0,3.5-0.7,4.8-2.2s2-3.4,2-5.9C180.1,81.2,179.5,79.3,178.2,78z M186.5,171c-2.8,2.8-6.6,4.2-11.3,4.2c-4.4,0-8-1.2-11-3.5
			c-3.4-2.7-5.2-6.4-5.2-11.2c0-2.6,0.6-5,1.9-7.2c1.3-2.2,3.3-3.9,6.1-5c-2.4-1-4.1-2.4-5.2-4.2c-1.1-1.8-1.6-3.7-1.6-5.8
			c0-3.6,1.3-6.6,3.8-8.9c2.5-2.3,6.1-3.5,10.7-3.5c4.6,0,8.1,1.2,10.7,3.5c2.5,2.3,3.8,5.3,3.8,8.9c0,2.2-0.6,4.2-1.7,6
			c-1.2,1.7-2.8,3.1-4.9,4c2.7,1.1,4.7,2.6,6.1,4.7c1.4,2.1,2.1,4.4,2.1,7.1C190.8,164.6,189.4,168.2,186.5,171z M236.9,169.3
			c-3.3,3.9-7.5,5.9-12.8,5.9c-3.8,0-6.8-1-9.1-3c-2.3-2-3.8-5-4.5-9l8.9-1c0.2,1.8,0.8,3.2,1.7,4c0.9,0.9,2.1,1.3,3.7,1.3
			c1.9,0,3.5-0.9,4.9-2.6c1.3-1.8,2.2-5.4,2.6-10.9c-2.3,2.7-5.2,4-8.7,4c-3.8,0-7.1-1.5-9.8-4.4s-4.1-6.7-4.1-11.4
			c0-4.9,1.5-8.8,4.4-11.8c2.9-3,6.6-4.5,11.1-4.5c4.9,0,8.9,1.9,12,5.7c3.1,3.8,4.7,10,4.7,18.7C241.8,159,240.1,165.4,236.9,169.3
			z M242,88.7h-6v9.7H227v-9.7h-19.7v-8.1l20.9-30.6h7.8v30.6h6V88.7z"/>
	</g>
</g>
</svg>
