<?xml version="1.0" encoding="utf-8"?>
<!-- Generator: Adobe Illustrator 22.1.0, SVG Export Plug-In . SVG Version: 6.00 Build 0)  -->
<svg version="1.1" id="Layer_1" xmlns="http://www.w3.org/2000/svg" xmlns:xlink="http://www.w3.org/1999/xlink" x="0px" y="0px"
	 viewBox="0 0 256 256" style="enable-background:new 0 0 256 256;" xml:space="preserve">
<g>
	<g id="brush_x5F_tip">
		<path style="fill:#3E3F3F;" d="M143.8,208.4c0.8,20.6-6.4,26.9-10.7,42.6c-2.6-11-10.2-21.7-7.2-40.9L143.8,208.4z"/>
		<path style="opacity:0.45;" d="M133,250.6c0,0.1,0.1,0.3,0.1,0.4c4.3-15.7,11.6-22,10.7-42.6l-2.1,0.2c0,0-1.2,20.7-5.1,28.6
			C134.3,241.8,133.4,247.1,133,250.6z"/>
		<path style="opacity:0.57;fill:#FFFFFF;" d="M127.2,214.7c0,0,0.4,14.3,3,20.9l-1.2-21C129,214.5,128,214.8,127.2,214.7z"/>
	</g>
	<g id="brush_x5F_bond">
		<path style="fill:#A8A8A8;" d="M127.3,198.2l15.6-1.5c1.9-0.2,3.5-1.8,3.6-3.7v0c0.1-1.9-1.5-3.2-3.4-3l-15.6,1.5
			c-1.9,0.2-3.5,1.8-3.6,3.7l0,0C123.9,197,125.4,198.4,127.3,198.2z"/>
		<path style="fill:#A8A8A8;" d="M126.9,211.7l15.6-1.5c1.9-0.2,3.5-1.8,3.6-3.7l0,0c0.1-1.9-1.5-3.2-3.4-3l-15.6,1.5
			c-1.9,0.2-3.5,1.8-3.6,3.7l0,0C123.4,210.5,124.9,211.9,126.9,211.7z"/>
		<polygon style="fill:#929595;" points="125.3,205.1 144.4,203.3 144.6,196.5 125.5,198.4 		"/>
		<path style="opacity:0.45;" d="M142.1,196.8l3-0.3c0.7-0.1,1.3-0.7,1.3-1.3l0.1-4.3c0-0.7-0.5-1.2-1.2-1.1l-3,0.3
			C142.7,192.3,142.7,194.6,142.1,196.8z"/>
		<path style="opacity:0.45;" d="M141.7,210.3l3-0.3c0.7-0.1,1.3-0.7,1.3-1.3l0.1-4.3c0-0.7-0.5-1.2-1.2-1.1l-3,0.3
			C142.4,205.7,142.2,207.9,141.7,210.3z"/>
		<path style="opacity:0.6;" d="M141.9,203.5l2.5-0.2l0.2-6.8l-2.5,0.2C142.5,199.2,142.3,201.4,141.9,203.5z"/>
		<path style="opacity:0.57;fill:#FFFFFF;" d="M127.9,204.9l-3,0.3c-0.7,0.1-1.3,0.7-1.3,1.3l-0.1,4.3c0,0.7,0.5,1.2,1.2,1.1l3-0.3
			C127.3,209.3,127.3,207.1,127.9,204.9z"/>
		<path style="opacity:0.57;fill:#FFFFFF;" d="M128.3,191.4l-3,0.3c-0.7,0.1-1.3,0.7-1.3,1.3l-0.1,4.3c0,0.7,0.5,1.2,1.2,1.1l3-0.3
			C127.6,196,127.8,193.7,128.3,191.4z"/>
		<path style="opacity:0.57;fill:#FFFFFF;" d="M128.1,198.1l-2.5,0.2l-0.2,6.8l2.5-0.2C127.5,202.4,127.7,200.2,128.1,198.1z"/>
	</g>
</g>
</svg>
