<?xml version="1.0" encoding="utf-8"?>
<!-- Generator: Adobe Illustrator 22.1.0, SVG Export Plug-In . SVG Version: 6.00 Build 0)  -->
<svg version="1.1" id="Layer_1" xmlns="http://www.w3.org/2000/svg" xmlns:xlink="http://www.w3.org/1999/xlink" x="0px" y="0px"
	 viewBox="0 0 256 256" style="enable-background:new 0 0 256 256;" xml:space="preserve">
<g>
	<path style="fill:#F15A24;" d="M123.7,246.8c-12.6,0-24.4-5-33.4-14.2c-9-9.1-13.9-21.2-13.9-34.1V47.1c0-9.9,3.9-19.3,11-26.3
		c7.1-7.1,16.5-10.9,26.4-10.9c9.9,0,19.3,3.9,26.4,10.9c7.1,7.1,11,16.4,11,26.3v131.7c0,7.9-2.9,15.4-8.1,21
		c-5.3,5.8-12.3,8.9-19.6,8.9c-7.4,0-14.4-3.2-19.6-8.9c-5.2-5.7-8.1-13.1-8.1-21V69.2c0-2.4,2-4.4,4.4-4.4c2.4,0,4.4,2,4.4,4.4
		v109.6c0,11.5,8.7,21.3,19,21.3s19-9.7,19-21.3V47.1c0-7.6-3-14.7-8.5-20.2c-5.5-5.4-12.6-8.4-20.3-8.4c-7.6,0-14.8,3-20.3,8.4
		C88.1,32.3,85,39.5,85,47.1v151.5c0,10.5,4.1,20.4,11.4,28c7.3,7.5,17,11.6,27.2,11.6c10.2,0,19.9-4.1,27.2-11.6
		c7.4-7.5,11.4-17.4,11.4-28V69.2c0-2.4,2-4.4,4.4-4.4c2.4,0,4.4,2,4.4,4.4v129.4c0,12.8-4.9,24.9-13.9,34.1
		C148.1,241.8,136.2,246.8,123.7,246.8z"/>
	<path style="fill:#F15A24;" d="M127.7,246.8c-12.6,0-24.4-5-33.4-14.2c-9-9.1-13.9-21.2-13.9-34.1V47.1c0-9.9,3.9-19.3,11-26.3
		c7.1-7.1,16.5-10.9,26.4-10.9c9.9,0,19.3,3.9,26.4,10.9c7.1,7.1,11,16.4,11,26.3v131.7c0,7.9-2.9,15.4-8.1,21
		c-5.3,5.8-12.3,8.9-19.6,8.9c-7.4,0-14.4-3.2-19.6-8.9c-5.2-5.7-8.1-13.1-8.1-21V69.2c0-2.4,2-4.4,4.4-4.4c2.4,0,4.4,2,4.4,4.4
		v109.6c0,11.5,8.7,21.3,19,21.3s19-9.7,19-21.3V47.1c0-7.6-3-14.7-8.5-20.2c-5.5-5.4-12.6-8.4-20.3-8.4c-7.6,0-14.8,3-20.3,8.4
		C92.1,32.3,89,39.5,89,47.1v151.5c0,10.5,4.1,20.4,11.4,28c7.3,7.5,17,11.6,27.2,11.6c10.2,0,19.9-4.1,27.2-11.6
		c7.4-7.5,11.4-17.4,11.4-28V69.2c0-2.4,2-4.4,4.4-4.4c2.4,0,4.4,2,4.4,4.4v129.4c0,12.8-4.9,24.9-13.9,34.1
		C152.1,241.8,140.2,246.8,127.7,246.8z"/>
</g>
</svg>
