<?xml version="1.0" encoding="utf-8"?>
<!-- Generator: Adobe Illustrator 22.1.0, SVG Export Plug-In . SVG Version: 6.00 Build 0)  -->
<svg version="1.1" id="Layer_1" xmlns="http://www.w3.org/2000/svg" xmlns:xlink="http://www.w3.org/1999/xlink" x="0px" y="0px"
	 viewBox="0 0 256 256" style="enable-background:new 0 0 256 256;" xml:space="preserve">
<g>
	<path style="opacity:0.2;" d="M125.7,238c0.7,0,1.3,0.1,2,0.1c10.2,0,19.9-4.1,27.2-11.6c7.4-7.5,11.4-17.4,11.4-28V69.2
		c0-1.7,1-3.1,2.4-3.8c-0.6-0.3-1.3-0.5-2-0.5c-2.4,0-4.4,2-4.4,4.4v129.4c0,10.5-4.1,20.4-11.4,28C144,233.5,135.1,237.5,125.7,238
		z"/>
	<path style="opacity:0.2;" d="M107.8,199.8c-5.2-5.7-8.1-13.1-8.1-21V69.2c0-1.7,1-3.1,2.4-3.8c-0.6-0.3-1.3-0.5-2-0.5
		c-2.4,0-4.4,2-4.4,4.4v109.6c0,7.9,2.9,15.4,8.1,21c5.3,5.8,12.3,8.9,19.6,8.9c0.7,0,1.3,0,2-0.1
		C118.8,208.2,112.6,205.1,107.8,199.8z"/>
	<path style="opacity:0.2;" d="M134,26.9c5.5,5.4,8.5,12.6,8.5,20.2v131.7c0,10.8-7.6,20-17,21.1c0.7,0.1,1.3,0.1,2,0.1
		c10.3,0,19-9.7,19-21.3V47.1c0-7.6-3-14.7-8.5-20.2c-5.5-5.4-12.6-8.4-20.3-8.4c-0.7,0-1.3,0-2,0.1C122.6,19.1,129,22,134,26.9z"/>
	<path style="opacity:0.2;" d="M94.2,232.6c-9-9.1-13.9-21.2-13.9-34.1V47.1c0-9.9,3.9-19.3,11-26.3c6.6-6.6,15.2-10.4,24.4-10.9
		c-0.7,0-1.3-0.1-2-0.1c-9.9,0-19.3,3.9-26.4,10.9c-7.1,7.1-11,16.4-11,26.3v151.5c0,12.8,4.9,24.9,13.9,34.1
		c9,9.2,20.9,14.2,33.4,14.2c0.7,0,1.3,0,2-0.1C113.8,246.3,102.7,241.3,94.2,232.6z"/>
</g>
</svg>
