<?xml version="1.0" encoding="utf-8"?>
<!-- Generator: Adobe Illustrator 22.1.0, SVG Export Plug-In . SVG Version: 6.00 Build 0)  -->
<svg version="1.1" id="Layer_1" xmlns="http://www.w3.org/2000/svg" xmlns:xlink="http://www.w3.org/1999/xlink" x="0px" y="0px"
	 viewBox="0 0 256 256" style="enable-background:new 0 0 256 256;" xml:space="preserve">
<g>
	<path style="fill:#CFD8DC;" d="M251.8,226.9l-6.4-25.7c-2.9-11.5-13.2-19.6-25.1-19.6H35.6c-11.9,0-22.2,8.1-25.1,19.6l-6.4,25.7
		c-0.7,2.8,1,5.6,3.8,6.3c0.4,0.1,0.8,0.2,1.2,0.2h237.7c2.9,0,5.2-2.3,5.2-5.2C252,227.8,251.9,227.3,251.8,226.9z"/>
	<circle style="fill:#191919;" cx="210.7" cy="109.3" r="20.7"/>
	<path style="opacity:0.2;" d="M237.9,77.6c-6-6-13.4-10.2-21.5-12.4L79.6,28.7c-14.7-3.9-30.3-2.2-43.8,4.7L13,48.3
		C7.5,51,4,56.7,4,62.8l0,0c0.1,7.7,5.5,14.3,13.1,15.9l70.3,6.4c7.7,1.9,14.5,6.3,19.5,12.5l23.5,29.4c6.6,8.3,15.9,14,26.2,16.3
		l70.6,15.7c11,2.4,21.8-4.5,24.3-15.4c0.3-1.4,0.5-2.9,0.5-4.4v-27.7C252,98.8,247,86.6,237.9,77.6z"/>
</g>
</svg>
