<?xml version="1.0" encoding="utf-8"?>
<!-- Generator: Adobe Illustrator 22.1.0, SVG Export Plug-In . SVG Version: 6.00 Build 0)  -->
<svg version="1.1" id="Layer_1" xmlns="http://www.w3.org/2000/svg" xmlns:xlink="http://www.w3.org/1999/xlink" x="0px" y="0px"
	 viewBox="0 0 256 256" style="enable-background:new 0 0 256 256;" xml:space="preserve">
<g>
	<path style="fill:#EDCC3E;" d="M125.3,251c0,0-9.9-22.6-5.9-38.6l13.8-0.8c0,0-0.7,5.5,2.2,8.3c0,0-0.7,8.4-5,16.9
		C126,245.2,125.3,251,125.3,251z"/>
	<polyline style="fill:#D8BA3A;" points="133.2,213.1 133.2,211.6 119.3,212.3 	"/>
	<line style="fill:#D8BA3A;" x1="119.5" y1="212.4" x2="119.3" y2="213.1"/>
	<polygon style="fill:#EDCC3E;" points="116.6,212.6 135.9,212.8 137.7,200.2 115.1,200 	"/>
	<path style="fill:#231F20;" d="M125.3,251l-1.2-21.5C124.1,229.5,123.8,244.1,125.3,251z"/>
	
		<ellipse transform="matrix(0.9985 -5.536283e-02 5.536283e-02 0.9985 -12.4439 7.2187)" style="fill:#231F20;" cx="124.1" cy="228.2" rx="1.4" ry="1.3"/>
	
		<rect x="114.8" y="198.7" transform="matrix(1 8.126842e-03 -8.126842e-03 1 1.6245 -1.0207)" style="fill:#12314C;" width="23.3" height="1.4"/>
	<path style="fill:#EDCC3E;" d="M137.7,19.9c1,2.2,1.6,4.4,2,6.7l-21.5-0.2c0.5-2.4,1.1-4.6,1.8-6.6L137.7,19.9z"/>
	<path style="opacity:0.5;" d="M130.3,236.8c4.3-8.5,5-16.9,5-16.9c-2.1-2-2.3-5.4-2.2-7.2l-4.1,0c0,0,0.2,6.5-3.8,38.3
		C125.3,251,126,245.2,130.3,236.8z"/>
	<path style="fill:#EDCC3E;" d="M140.8,106.3c0.1-1.5,0.1-3.3,0.2-5.4c-9,0.4-18.1,0.3-27.3-0.3c0,2.1,0,3.9,0,5.5
		C122.7,106.5,131.8,106.5,140.8,106.3z"/>
	<path style="fill:#EDCC3E;" d="M140.7,107.9c0-0.3,0-0.6,0-0.9c-8.9,0.3-17.9,0.2-27.1-0.2c0,0.3,0,0.6,0,0.9
		C122.7,108,131.7,108.1,140.7,107.9z"/>
	<path style="fill:#EDCC3E;" d="M113.7,108.3c0,2.1,0,3.2,0,3.2s-0.7,2,6.8,2.5c1.6,0,3.1,0.1,4.7,0.1c11.8-0.1,13.4-0.3,13.4-0.3
		s1.4-0.2,2-3.3c0,0,0-0.7,0.1-2C131.8,108.9,122.8,108.8,113.7,108.3z"/>
	<path style="opacity:0.37;" d="M135.9,212.8l1.7-12.6l-8.3-0.1c-0.1,4.2-0.2,8.4-0.3,12.6L135.9,212.8z"/>
	<path style="opacity:0.37;" d="M138.1,200.2l0-1.4l-8.7-0.1c0,0.5,0,0.9,0,1.4L138.1,200.2z"/>
	<path style="opacity:0.37;" d="M131.3,114c-0.6,28.4-1.3,57.2-1.9,86.1l8.3,0.1c0,0,0.8-69,0.7-86.3"/>
	<path style="opacity:0.37;" d="M138.6,113.8c0,0,1.4-0.2,2-3.3c0,0,0-0.7,0.1-2c-3,0.1-6,0.2-9,0.2c-0.1,1.7-0.2,3.5-0.4,5.2
		C137.5,113.9,138.6,113.8,138.6,113.8z"/>
	<path style="opacity:0.37;" d="M140.7,107.9c0-0.3,0-0.6,0-0.9c-3,0.1-6,0.1-9,0.1c0,0.3,0,0.5-0.1,0.8
		C134.7,108,137.7,108,140.7,107.9z"/>
	<path style="opacity:0.37;" d="M140.8,106.3c0.1-1.5,0.1-3.3,0.2-5.4c-2.9,0.1-5.9,0.2-8.8,0.2c-0.1,1.8-0.2,3.5-0.4,5.4
		C134.8,106.4,137.8,106.4,140.8,106.3z"/>
	<path style="opacity:0.37;" d="M131.3,114c6.2-0.1,7.3-0.2,7.3-0.2s1.4-0.2,2-3.3c0,0,3.3-65.2-0.6-83
		c-3.3-14.6-8.4-17.7-10.1-18.4c-0.2-0.1-0.4-0.1-0.6-0.2C129.2,9,138,24.9,131.3,114L131.3,114z"/>
	<path style="fill:#EDCC3E;" d="M142.7,21.6l-5.5-1.8l1.2,6.8l2.6,0l2.5,7.2l-0.7,52.9l-1.6,1.1l0.4,8.9l3,3.8
		c0,0,1.4-58.7,1.6-67.6S142.7,21.6,142.7,21.6z"/>
	<path style="opacity:0.37;" d="M132.6,26.5l7.1,0.1c-0.4-2.2-1-4.5-2-6.7l-5.9,0C132.1,21.8,132.4,24,132.6,26.5z"/>
	<path d="M138.4,113.8"/>
	<path style="opacity:0.37;" d="M142.7,21.6l-5.5-1.8l1.2,6.8l2.6,0l2.5,7.2l-0.7,52.9l-1.6,1.1l0.4,8.9l3,3.8
		c0,0,1.4-58.7,1.6-67.6S142.7,21.6,142.7,21.6z"/>
</g>
</svg>
