<?xml version="1.0" encoding="utf-8"?>
<!-- Generator: Adobe Illustrator 22.1.0, SVG Export Plug-In . SVG Version: 6.00 Build 0)  -->
<svg version="1.1" id="Layer_1" xmlns="http://www.w3.org/2000/svg" xmlns:xlink="http://www.w3.org/1999/xlink" x="0px" y="0px"
	 viewBox="0 0 256 256" style="enable-background:new 0 0 256 256;" xml:space="preserve">
<g>
	<g>
		<path style="fill:#F7727F;" d="M183.9,95.9L183.9,95.9c0,0,0,0.1,0,0.1L183.9,95.9z"/>
		<path style="fill:#F7727F;" d="M123,101.9c-33.6,0-60.9-2.6-60.9-5.7c0-0.1,0-0.1,0.1-0.2h-0.5L77.9,240c0.5,4.4,3.8,8,8.2,8.9
			c24.1,4.5,48.5,3.8,73.1-0.2c4.5-0.7,8-4.4,8.5-8.9l16.1-143.5C183,99.4,156.1,101.9,123,101.9z"/>
	</g>
	<ellipse style="fill:#F7727F;" cx="123" cy="96.2" rx="60.9" ry="5.7"/>
</g>
</svg>
