<?xml version="1.0" encoding="utf-8"?>
<!-- Generator: Adobe Illustrator 22.1.0, SVG Export Plug-In . SVG Version: 6.00 Build 0)  -->
<svg version="1.1" id="Layer_1" xmlns="http://www.w3.org/2000/svg" xmlns:xlink="http://www.w3.org/1999/xlink" x="0px" y="0px"
	 viewBox="0 0 256 256" style="enable-background:new 0 0 256 256;" xml:space="preserve">
<path id="XMLID_191_" style="fill:#FFF100;" d="M119.7,218.3c0,0.4,0.1,1.3,0.4,2.6c0.6-0.1,1.1-0.3,1.6-0.6
	c0.7,0.4,1.5,0.6,2.3,0.6c0.9,0,1.7-0.2,2.4-0.7c0.7,0.4,1.5,0.7,2.4,0.7c0.9,0,1.7-0.2,2.4-0.7c0.7,0.4,1.5,0.7,2.4,0.7
	c0.9,0,1.7-0.2,2.4-0.6c0.6,0.3,1.2,0.6,1.9,0.6c0.3-1.2,0.4-2.2,0.4-2.6l1.2-170.7l-18.8-0.1L119.7,218.3z"/>
</svg>
