<?xml version="1.0" encoding="utf-8"?>
<!-- Generator: Adobe Illustrator 22.1.0, SVG Export Plug-In . SVG Version: 6.00 Build 0)  -->
<svg version="1.1" id="Layer_1" xmlns="http://www.w3.org/2000/svg" xmlns:xlink="http://www.w3.org/1999/xlink" x="0px" y="0px"
	 viewBox="0 0 256 256" style="enable-background:new 0 0 256 256;" xml:space="preserve">
<g id="XMLID_181_">
	<path id="XMLID_193_" d="M130.4,242.4c-0.4,0.3-1,0.4-1.5,0.4s-1.1-0.2-1.5-0.5c-0.4,0.3-1,0.4-1.5,0.4c-0.1,0-0.2,0-0.4,0
		c1.8,6.7,3.3,12.1,3.3,12.1s1.6-5.4,3.5-12c-0.1,0-0.2,0-0.4,0C131.3,242.8,130.8,242.7,130.4,242.4z"/>
	
		<rect id="XMLID_192_" x="117.6" y="25.8" transform="matrix(6.775079e-03 -1 1 6.775079e-03 94.1824 165.2978)" style="fill:#FAAF40;" width="25.5" height="18.8"/>
	<path id="XMLID_190_" style="fill:#F05A28;" d="M139.9,9.6c0-3.5-4.2-6.4-9.3-6.5c-5.2,0-9.4,2.8-9.4,6.3l-0.1,13l18.8,0.1
		L139.9,9.6z"/>
	<path id="XMLID_189_" style="fill:#C3996B;" d="M136.1,220.5c-0.7,0.4-1.5,0.6-2.4,0.6c-0.9,0-1.7-0.3-2.4-0.7
		c-0.7,0.4-1.6,0.7-2.4,0.7c-0.9,0-1.7-0.3-2.4-0.7c-0.7,0.4-1.6,0.7-2.4,0.7c-0.9,0-1.7-0.2-2.3-0.6c-0.5,0.3-1,0.5-1.6,0.6
		c0.7,3.7,5,20.2,5.5,21.9c0.1,0,0.2,0,0.4,0c0.6,0,1.1-0.2,1.5-0.4c0.4,0.3,0.9,0.4,1.5,0.5s1.1-0.2,1.5-0.4
		c0.4,0.3,0.9,0.4,1.5,0.5c0.1,0,0.2,0,0.4,0c0.5-1.6,5-18.1,5.8-21.7C137.3,221,136.7,220.8,136.1,220.5z"/>
	<g id="XMLID_182_">
		<defs>
			
				<rect id="XMLID_183_" x="117.6" y="25.8" transform="matrix(6.775079e-03 -1 1 6.775079e-03 94.1824 165.2978)" width="25.5" height="18.8"/>
		</defs>
		<clipPath id="XMLID_2_">
			<use xlink:href="#XMLID_183_"  style="overflow:visible;"/>
		</clipPath>
		
			<line id="XMLID_188_" style="clip-path:url(#XMLID_2_);fill:none;stroke:#231F20;stroke-miterlimit:10;" x1="120.4" y1="42.1" x2="141.3" y2="42.2"/>
		
			<line id="XMLID_187_" style="clip-path:url(#XMLID_2_);fill:none;stroke:#231F20;stroke-miterlimit:10;" x1="120.4" y1="38" x2="141.3" y2="38.1"/>
		
			<line id="XMLID_186_" style="clip-path:url(#XMLID_2_);fill:none;stroke:#231F20;stroke-miterlimit:10;" x1="120.4" y1="33.6" x2="141.3" y2="33.8"/>
		
			<line id="XMLID_185_" style="clip-path:url(#XMLID_2_);fill:none;stroke:#231F20;stroke-miterlimit:10;" x1="120.4" y1="29.3" x2="141.4" y2="29.4"/>
		
			<line id="XMLID_184_" style="clip-path:url(#XMLID_2_);fill:none;stroke:#231F20;stroke-miterlimit:10;" x1="119.7" y1="26.1" x2="140.6" y2="26.2"/>
	</g>
</g>
</svg>
