<?xml version="1.0" encoding="utf-8"?>
<!-- Generator: Adobe Illustrator 22.1.0, SVG Export Plug-In . SVG Version: 6.00 Build 0)  -->
<svg version="1.1" id="Layer_1" xmlns="http://www.w3.org/2000/svg" xmlns:xlink="http://www.w3.org/1999/xlink" x="0px" y="0px"
	 viewBox="0 0 256 256" style="enable-background:new 0 0 256 256;" xml:space="preserve">
<g style="opacity:0.2;">
	<path d="M131,248.7c0.4,0,0.7,0.1,1.1,0.1c19.9,0,36.6-55.8,36.6-121.8c0-66-16.8-121.8-36.6-121.8c-0.4,0-0.7,0-1.1,0.1
		c19.4,2,35.6,56.9,35.6,121.7C166.6,191.8,150.4,246.7,131,248.7z"/>
	<path d="M92.2,127c0-69,17-123.2,38.8-125c-0.4,0-0.7,0-1.1,0c-22.4,0-39.9,54.9-39.9,125s17.5,125,39.9,125c0.4,0,0.7,0,1.1,0
		C109.2,250.2,92.2,196,92.2,127z"/>
</g>
</svg>
