<?xml version="1.0" encoding="utf-8"?>
<!-- Generator: Adobe Illustrator 22.1.0, SVG Export Plug-In . SVG Version: 6.00 Build 0)  -->
<svg version="1.1" id="Layer_1" xmlns="http://www.w3.org/2000/svg" xmlns:xlink="http://www.w3.org/1999/xlink" x="0px" y="0px"
	 viewBox="0 0 256 256" style="enable-background:new 0 0 256 256;" xml:space="preserve">
<path style="fill:#E5D839;" d="M132.1,2c-0.4,0-0.7,0-1.1,0c-0.4,0-0.7,0-1.1,0c-22.4,0-39.9,54.9-39.9,125s17.5,125,39.9,125
	c0.4,0,0.7,0,1.1,0c0.4,0,0.7,0,1.1,0c22.4,0,39.9-54.9,39.9-125S154.4,2,132.1,2z M95.4,127C95.4,62.2,111.6,7.3,131,5.3
	c19.4,2,35.6,56.9,35.6,121.7c0,64.8-16.2,119.7-35.6,121.7C111.6,246.7,95.4,191.8,95.4,127z"/>
</svg>
