<?xml version="1.0" encoding="utf-8"?>
<!-- Generator: Adobe Illustrator 22.1.0, SVG Export Plug-In . SVG Version: 6.00 Build 0)  -->
<svg version="1.1" id="Layer_1" xmlns="http://www.w3.org/2000/svg" xmlns:xlink="http://www.w3.org/1999/xlink" x="0px" y="0px"
	 viewBox="0 0 256 256" style="enable-background:new 0 0 256 256;" xml:space="preserve">
<path style="opacity:0.2;" d="M242.5,61.1c-0.1-0.2-0.2-0.3-0.3-0.5c-7-10.8-18.9-9.6-18.9-9.6l-34.6,4.9l0.3,1.5L29.5,80.5
	c0,0-17,2-20,11c-0.1,0.4-0.2,0.7-0.3,1.1c2.5-3.3,7.1-7.4,15.2-9.2c15-3.4,62.6-10,62.6-10l102.4-14.8l1.1-1l32.9-4.7
	c0,0,8.5-1.5,18.5,7.6C242.1,60.8,242.3,60.9,242.5,61.1z"/>
</svg>
