<?xml version="1.0" encoding="utf-8"?>
<!-- Generator: Adobe Illustrator 22.1.0, SVG Export Plug-In . SVG Version: 6.00 Build 0)  -->
<svg version="1.1" id="Layer_1" xmlns="http://www.w3.org/2000/svg" xmlns:xlink="http://www.w3.org/1999/xlink" x="0px" y="0px"
	 viewBox="0 0 256 256" style="enable-background:new 0 0 256 256;" xml:space="preserve">
<path style="fill:#E5CED1;" d="M242.2,60.6c-7-10.8-18.9-9.6-18.9-9.6l-34.6,4.9l0.3,1.5L29.5,80.5c0,0-17,2-20,11
	s-1.2,13.2,2.5,17.4s17.6,8.8,17.6,8.8s153.7,65,173.2,67c0,0-47-21-68.8-29.8S28.8,113.3,28.8,113.3s10.7-2.6,11-15.1
	c0-1.9-0.4-3.8-1.3-5.4c-1.2-2.3-3.3-5.6-6.1-7.5c0,0,46.6-8.1,72.1-10.9l86.1-11.9c2.1,2.6,6.9,11.4,8.3,15.1s3,4.9,6.3,5.3
	s6.1-1.6,7.4-6.4s2.9-6.4,7.3-8.3s10.1,1.7,11.4,4.1s-0.8,7.9-5.6,10s-19.1,0.5-28.1,4.2s-9,9.9-10.6,16.1s1,6.1,1,6.1
	s29.5-5.1,42.7-7.6S247.7,85,247.7,85S249.2,71.4,242.2,60.6z M34.4,98.7c0,5.9-5.1,10.7-11.5,10.7c-6.4,0-11.5-4.8-11.5-10.7
	c0-5.9,5.1-10.7,11.5-10.7C29.3,88,34.4,92.8,34.4,98.7z"/>
</svg>
