<?xml version="1.0" encoding="utf-8"?>
<!-- Generator: Adobe Illustrator 22.1.0, SVG Export Plug-In . SVG Version: 6.00 Build 0)  -->
<svg version="1.1" id="Layer_1" xmlns="http://www.w3.org/2000/svg" xmlns:xlink="http://www.w3.org/1999/xlink" x="0px" y="0px"
	 viewBox="0 0 256 256" style="enable-background:new 0 0 256 256;" xml:space="preserve">
<g>
	<path style="fill:#333E48;" d="M125.5,27.9l0-6.3h23.2v6.3H125.5z M125.5,27.9"/>
	<path style="fill:#333E48;" d="M131.7,44.5v-6.3l16.9,0l0,6.3L131.7,44.5z M131.7,44.5"/>
	<path style="fill:#333E48;" d="M125.5,61.1l0-6.3h23.2v6.3H125.5z M125.5,61.1"/>
	<path style="fill:#333E48;" d="M131.7,77.8l0-6.3h16.9v6.3L131.7,77.8z M131.7,77.8"/>
	<path style="fill:#333E48;" d="M125.5,94.4l0-6.3l23.2,0v6.3H125.5z M125.5,94.4"/>
	<path style="fill:#333E48;" d="M131.7,111v-6.3l16.9,0v6.3L131.7,111z M131.7,111"/>
	<path style="fill:#333E48;" d="M125.5,127.6v-6.3l23.2,0v6.3L125.5,127.6z M125.5,127.6"/>
	<path style="fill:#333E48;" d="M131.7,144.2v-6.3l16.9,0l0,6.3H131.7z M131.7,144.2"/>
	<path style="fill:#333E48;" d="M125.5,160.9l0-6.3l23.2,0v6.3L125.5,160.9z M125.5,160.9"/>
	<path style="fill:#333E48;" d="M131.7,177.5l0-6.3l16.9,0l0,6.3L131.7,177.5z M131.7,177.5"/>
	<path style="fill:#333E48;" d="M125.5,194.1l0-6.3l23.2,0l0,6.3L125.5,194.1z M125.5,194.1"/>
	<path style="fill:#333E48;" d="M125.5,227.3l0-6.3h23.2l0,6.3L125.5,227.3z M125.5,227.3"/>
	<path style="fill:#333E48;" d="M131.7,210.7l0-6.3l16.9,0l0,6.3L131.7,210.7z M131.7,210.7"/>
	<path style="opacity:0.2;" d="M148.6,236.3l0,7.4l-40.9,0l0-7.4L148.6,236.3z M148.6,236.3"/>
</g>
</svg>
