<?xml version="1.0" encoding="utf-8"?>
<!-- Generator: Adobe Illustrator 22.1.0, SVG Export Plug-In . SVG Version: 6.00 Build 0)  -->
<svg version="1.1" id="Layer_1" xmlns="http://www.w3.org/2000/svg" xmlns:xlink="http://www.w3.org/1999/xlink" x="0px" y="0px"
	 viewBox="0 0 256 256" style="enable-background:new 0 0 256 256;" xml:space="preserve">
<g>
	<path style="fill:#B9B9BA;" d="M90.1,20.8C79.8-7.5,79,8.5,79,8.5c-7.2,33.7,41.8,138.3,41.8,138.3c11.8,8.4,18.3,17.1,21.3,22
		c1.4-3.6,4.5-5.8,8.2-6.4L90.1,20.8z M135.6,142.9c-1.7,3.5-5.9,4.9-9.4,3.2c-2.9-1.4-4.4-4.6-3.8-7.6c0-1,0.2-2,0.7-2.9
		c1.7-3.5,5.9-4.9,9.4-3.2c2.9,1.4,4.4,4.6,3.8,7.6C136.3,140.9,136.1,141.9,135.6,142.9z"/>
	
		<rect x="108.9" y="-0.3" transform="matrix(0.9199 -0.3922 0.3922 0.9199 -19.3331 48.6623)" style="fill:#C0C0C0;" width="1.2" height="143.8"/>
	<path style="fill:#959595;" d="M179.5,7.1c0,0-0.9-15.9-11,12.4l-57.7,139.1c3.9,0.7,7,3.2,8.2,7.4c3.4-5.1,9.5-12.8,19.9-20.3
		C138.9,145.7,186.9,40.7,179.5,7.1z M135.6,142.9c-1.7,3.5-5.9,4.9-9.4,3.2c-2.9-1.4-4.4-4.6-3.8-7.6c0-1,0.2-2,0.7-2.9
		c1.7-3.5,5.9-4.9,9.4-3.2c2.9,1.4,4.4,4.6,3.8,7.6C136.3,140.9,136.1,141.9,135.6,142.9z"/>
</g>
</svg>
