<?xml version="1.0" encoding="utf-8"?>
<!-- Generator: Adobe Illustrator 22.1.0, SVG Export Plug-In . SVG Version: 6.00 Build 0)  -->
<svg version="1.1" id="Layer_1" xmlns="http://www.w3.org/2000/svg" xmlns:xlink="http://www.w3.org/1999/xlink" x="0px" y="0px"
	 viewBox="0 0 256 256" style="enable-background:new 0 0 256 256;" xml:space="preserve">
<g>
	<path style="fill:#F05F61;" d="M113.4,189.5c2.3-4.9,7-11.9,6.5-17.4c-0.8-8.8-9-12.1-16.8-9.1c-4.6,1.7-7.9,5.3-12.5,7.3
		c-4.2,1.8-8.7,2.7-13.2,3.3c-6.7,0.9-13.5,1.7-20.3,2.7c-13.2,0.1-25.8,7.4-32,20c-8.7,17.7-1.4,39.2,16.3,48
		c17.7,8.7,39.2,1.4,48-16.3c0.2-0.3,0.3-0.7,0.5-1C99.6,214,110.2,196.1,113.4,189.5z M46.3,234.3c-12.2-6-17.3-20.9-11.3-33.1
		c6-12.2,20.9-17.3,33.1-11.3c12.2,6,17.3,20.9,11.3,33.1C73.4,235.2,58.6,240.3,46.3,234.3z"/>
	<path style="fill:#F05F61;" d="M234.6,198.9c-6.3-12.5-19-19.7-32.1-19.7c-6.8-0.9-13.6-1.7-20.3-2.6c-4.5-0.6-9-1.4-13.2-3.2
		c-4.6-1.9-8-5.5-12.6-7.2c-7.9-2.9-16,0.5-16.8,9.3c-0.5,5.5,4.3,12.5,6.7,17.3c3.2,6.6,14,24.4,23.9,37.2c0.1,0.3,0.3,0.6,0.5,1
		c8.9,17.6,30.4,24.8,48.1,15.9C236.3,238.1,243.5,216.6,234.6,198.9z M213.7,237.1c-12.2,6.1-27.1,1.2-33.2-11
		c-6.1-12.2-1.2-27.1,11-33.2c12.2-6.1,27.1-1.2,33.2,11C230.8,216.1,225.9,231,213.7,237.1z"/>
	<path style="opacity:0.2;" d="M113.4,189.5c2.3-4.9,7-11.9,6.5-17.4c-0.8-8.8-9-12.1-16.8-9.1c-4.6,1.7-7.9,5.3-12.5,7.3
		c-4.2,1.8-8.7,2.7-13.2,3.3c-6.7,0.9-13.5,1.7-20.3,2.7c-13.2,0.1-25.8,7.4-32,20c-8.7,17.7-1.4,39.2,16.3,48
		c17.7,8.7,39.2,1.4,48-16.3c0.2-0.3,0.3-0.7,0.5-1C99.6,214,110.2,196.1,113.4,189.5z M46.3,234.3c-12.2-6-17.3-20.9-11.3-33.1
		c6-12.2,20.9-17.3,33.1-11.3c12.2,6,17.3,20.9,11.3,33.1C73.4,235.2,58.6,240.3,46.3,234.3z"/>
	<path style="opacity:0.2;" d="M234.6,198.9c-6.3-12.5-19-19.7-32.1-19.7c-6.8-0.9-13.6-1.7-20.3-2.6c-4.5-0.6-9-1.4-13.2-3.2
		c-4.6-1.9-8-5.5-12.6-7.2c-7.9-2.9-16,0.5-16.8,9.3c-0.5,5.5,4.3,12.5,6.7,17.3c3.2,6.6,14,24.4,23.9,37.2c0.1,0.3,0.3,0.6,0.5,1
		c8.9,17.6,30.4,24.8,48.1,15.9C236.3,238.1,243.5,216.6,234.6,198.9z M213.7,237.1c-12.2,6.1-27.1,1.2-33.2-11
		c-6.1-12.2-1.2-27.1,11-33.2c12.2-6.1,27.1-1.2,33.2,11C230.8,216.1,225.9,231,213.7,237.1z"/>
	<path style="fill:#F05F61;" d="M236.2,195.7c-6.3-12.5-19-19.8-32.2-19.7c-6.8-0.9-13.5-1.7-20.3-2.6c-4.5-0.6-9-1.4-13.2-3.2
		c-4.6-1.9-8-5.5-12.6-7.2c-7.9-2.9-16,0.5-16.8,9.3c-0.5,5.5,4.3,12.5,6.7,17.3c3.2,6.6,14,24.4,23.9,37.2c0.2,0.3,0.3,0.6,0.5,1
		c8.9,17.6,30.4,24.8,48.1,15.9C237.9,234.9,245.1,213.3,236.2,195.7z M215.3,233.9c-12.2,6.1-27.1,1.2-33.2-11
		c-6.1-12.2-1.2-27.1,11-33.2c12.2-6.1,27.1-1.2,33.2,11C232.4,212.9,227.5,227.8,215.3,233.9z"/>
	<path style="fill:#F05F61;" d="M112.9,185.9c2.3-4.9,7-11.9,6.5-17.4c-0.8-8.8-9-12.1-16.8-9.1c-4.6,1.7-7.9,5.3-12.5,7.3
		c-4.2,1.8-8.7,2.7-13.2,3.3c-6.7,0.9-13.5,1.7-20.3,2.7c-13.2,0.1-25.8,7.4-32,20c-8.7,17.7-1.4,39.2,16.3,48s39.2,1.4,48-16.3
		c0.2-0.3,0.3-0.7,0.5-1C99.1,210.4,109.8,192.5,112.9,185.9z M45.9,230.7c-12.2-6-17.3-20.9-11.3-33.1c6-12.2,20.9-17.3,33.1-11.3
		c12.2,6,17.3,20.9,11.3,33.1C73,231.6,58.1,236.7,45.9,230.7z"/>
	
		<ellipse transform="matrix(0.4416 -0.8972 0.8972 0.4416 -53.2182 194.0767)" style="fill:#DB3640;" cx="129.3" cy="139.8" rx="7" ry="7"/>
	<circle style="fill:#F05F61;" cx="129.4" cy="138.7" r="7"/>
</g>
</svg>
