<?xml version="1.0" encoding="utf-8"?>
<!-- Generator: Adobe Illustrator 22.1.0, SVG Export Plug-In . SVG Version: 6.00 Build 0)  -->
<svg version="1.1" id="Layer_1" xmlns="http://www.w3.org/2000/svg" xmlns:xlink="http://www.w3.org/1999/xlink" x="0px" y="0px"
	 viewBox="0 0 256 256" style="enable-background:new 0 0 256 256;" xml:space="preserve">
<g>
	<path style="opacity:0.1;" d="M98.5,196.5l65-46c0,0,11-4,13-21c0.4-3,0.8-6.2,1.3-9.3l-2.3-0.7l-118,58c0,0-28,11-24,30l46,16
		C79.5,223.5,76.5,208.5,98.5,196.5z"/>
	<path style="opacity:0.2;" d="M248.5,73.5c0,0-4,29-9,44l-160,106c0,0-3-15,19-27l65-46c0,0,11-4,13-21s6-37,22-44s48-20,48-20
		S249.5,67.5,248.5,73.5z"/>
	<path style="fill:#E5E9E4;" d="M60.2,179.9l-5.7,4.6l33,10l19-12l-20-7l-12.7,7.1c0.2-0.4,0.3-1.1,0.4-1.9l-2.2,1.5l-1.3-0.4l0,1.2
		L60.2,179.9z"/>
	<path style="fill:#667562;" d="M67.5,163.5c0,0-11.9-2-25.2-6.1l2.3,16.5l27.3,8.4l7.5-5.1l1.1-20.3
		C72.7,160.8,67.5,163.5,67.5,163.5z"/>
	<path style="fill:#E5E9E4;" d="M30,152.9c3,7.5,5.2,19.4,5.2,19.4l13.6,4l-1.9-17.7C41.4,157.2,35.5,155.3,30,152.9z"/>
	<path style="fill:#E5E9E4;" d="M67.5,163.5c0,0-6.7-1.1-15.6-3.4c0.8,8.6,1.2,17.6,1.2,17.6l17.4,5.3c0.5-11.2-1.3-17.7-2.1-20
		C67.8,163.3,67.5,163.5,67.5,163.5z"/>
	<g>
		<path style="fill:#B6BBB6;" d="M177,125.5L177,125.5c0.3-2,0.6-4,0.9-6c0,0,0,0,0,0c0,0-9.4-2-25.4,3
			c-13.9,4.3-67.9,32.2-81.8,39.3c3.9,15.2,3.7,19.5,3,20.8L177,125.5z"/>
		<path style="fill:#B6BBB6;" d="M178.4,117C178.4,117,178.4,117,178.4,117C178.4,117,178.4,117,178.4,117z"/>
	</g>
</g>
</svg>
