<?xml version="1.0" encoding="utf-8"?>
<!-- Generator: Adobe Illustrator 22.1.0, SVG Export Plug-In . SVG Version: 6.00 Build 0)  -->
<svg version="1.1" id="Layer_1" xmlns="http://www.w3.org/2000/svg" xmlns:xlink="http://www.w3.org/1999/xlink" x="0px" y="0px"
	 viewBox="0 0 256 256" style="enable-background:new 0 0 256 256;" xml:space="preserve">
<g>
	<path style="fill:#E26F4B;" d="M241.1,43.5H14.9c-5.2,0-9.4,4.2-9.4,9.4v159.2c0,5.2,4.2,9.4,9.4,9.4h226.2c5.2,0,9.4-4.2,9.4-9.4
		V52.9C250.5,47.7,246.3,43.5,241.1,43.5z M244,205.6c0,5.2-4.2,9.4-9.4,9.4H21.4c-5.2,0-9.4-4.2-9.4-9.4V59.4
		c0-5.2,4.2-9.4,9.4-9.4h213.2c5.2,0,9.4,4.2,9.4,9.4L244,205.6L244,205.6z"/>
</g>
</svg>
